<?xml version="1.0" encoding="utf-8"?>
<!DOCTYPE svg PUBLIC "-//W3C//DTD SVG 1.1//EN" "http://www.w3.org/Graphics/SVG/1.1/DTD/svg11.dtd">
<svg class="marks" width="1066" height="647" viewBox="0 0 1066 647" version="1.1" xmlns="http://www.w3.org/2000/svg" xmlns:xlink="http://www.w3.org/1999/xlink"><rect width="1066" height="647" style="fill: white;"></rect><g transform="translate(42,10)"><g class="mark-group role-frame root"><g transform="translate(0,0)"><path class="background" d="M0.5,0.5h900v600h-900Z" style="fill: none; stroke: #ddd;"></path><g><g class="mark-group role-axis"><g transform="translate(0.5,600.5)"><path class="background" d="M0,0h0v0h0Z" style="pointer-events: none; fill: none;"></path><g><g class="mark-rule role-axis-grid" style="pointer-events: none;"><line transform="translate(0,-600)" x2="0" y2="600" style="fill: none; stroke: #ddd; stroke-width: 1; opacity: 1;"></line><line transform="translate(35,-600)" x2="0" y2="600" style="fill: none; stroke: #ddd; stroke-width: 1; opacity: 1;"></line><line transform="translate(69,-600)" x2="0" y2="600" style="fill: none; stroke: #ddd; stroke-width: 1; opacity: 1;"></line><line transform="translate(104,-600)" x2="0" y2="600" style="fill: none; stroke: #ddd; stroke-width: 1; opacity: 1;"></line><line transform="translate(138,-600)" x2="0" y2="600" style="fill: none; stroke: #ddd; stroke-width: 1; opacity: 1;"></line><line transform="translate(173,-600)" x2="0" y2="600" style="fill: none; stroke: #ddd; stroke-width: 1; opacity: 1;"></line><line transform="translate(208,-600)" x2="0" y2="600" style="fill: none; stroke: #ddd; stroke-width: 1; opacity: 1;"></line><line transform="translate(242,-600)" x2="0" y2="600" style="fill: none; stroke: #ddd; stroke-width: 1; opacity: 1;"></line><line transform="translate(277,-600)" x2="0" y2="600" style="fill: none; stroke: #ddd; stroke-width: 1; opacity: 1;"></line><line transform="translate(312,-600)" x2="0" y2="600" style="fill: none; stroke: #ddd; stroke-width: 1; opacity: 1;"></line><line transform="translate(346,-600)" x2="0" y2="600" style="fill: none; stroke: #ddd; stroke-width: 1; opacity: 1;"></line><line transform="translate(381,-600)" x2="0" y2="600" style="fill: none; stroke: #ddd; stroke-width: 1; opacity: 1;"></line><line transform="translate(415,-600)" x2="0" y2="600" style="fill: none; stroke: #ddd; stroke-width: 1; opacity: 1;"></line><line transform="translate(450,-600)" x2="0" y2="600" style="fill: none; stroke: #ddd; stroke-width: 1; opacity: 1;"></line><line transform="translate(485,-600)" x2="0" y2="600" style="fill: none; stroke: #ddd; stroke-width: 1; opacity: 1;"></line><line transform="translate(519,-600)" x2="0" y2="600" style="fill: none; stroke: #ddd; stroke-width: 1; opacity: 1;"></line><line transform="translate(554,-600)" x2="0" y2="600" style="fill: none; stroke: #ddd; stroke-width: 1; opacity: 1;"></line><line transform="translate(588,-600)" x2="0" y2="600" style="fill: none; stroke: #ddd; stroke-width: 1; opacity: 1;"></line><line transform="translate(623,-600)" x2="0" y2="600" style="fill: none; stroke: #ddd; stroke-width: 1; opacity: 1;"></line><line transform="translate(658,-600)" x2="0" y2="600" style="fill: none; stroke: #ddd; stroke-width: 1; opacity: 1;"></line><line transform="translate(692,-600)" x2="0" y2="600" style="fill: none; stroke: #ddd; stroke-width: 1; opacity: 1;"></line><line transform="translate(727,-600)" x2="0" y2="600" style="fill: none; stroke: #ddd; stroke-width: 1; opacity: 1;"></line><line transform="translate(762,-600)" x2="0" y2="600" style="fill: none; stroke: #ddd; stroke-width: 1; opacity: 1;"></line><line transform="translate(796,-600)" x2="0" y2="600" style="fill: none; stroke: #ddd; stroke-width: 1; opacity: 1;"></line><line transform="translate(831,-600)" x2="0" y2="600" style="fill: none; stroke: #ddd; stroke-width: 1; opacity: 1;"></line><line transform="translate(865,-600)" x2="0" y2="600" style="fill: none; stroke: #ddd; stroke-width: 1; opacity: 1;"></line><line transform="translate(900,-600)" x2="0" y2="600" style="fill: none; stroke: #ddd; stroke-width: 1; opacity: 1;"></line></g></g><path class="foreground" d="" style="pointer-events: none; display: none; fill: none;"></path></g></g><g class="mark-group role-axis"><g transform="translate(0.5,0.5)"><path class="background" d="M0,0h0v0h0Z" style="pointer-events: none; fill: none;"></path><g><g class="mark-rule role-axis-grid" style="pointer-events: none;"><line transform="translate(0,600)" x2="900" y2="0" style="fill: none; stroke: #ddd; stroke-width: 1; opacity: 1;"></line><line transform="translate(0,570)" x2="900" y2="0" style="fill: none; stroke: #ddd; stroke-width: 1; opacity: 1;"></line><line transform="translate(0,540)" x2="900" y2="0" style="fill: none; stroke: #ddd; stroke-width: 1; opacity: 1;"></line><line transform="translate(0,510)" x2="900" y2="0" style="fill: none; stroke: #ddd; stroke-width: 1; opacity: 1;"></line><line transform="translate(0,480)" x2="900" y2="0" style="fill: none; stroke: #ddd; stroke-width: 1; opacity: 1;"></line><line transform="translate(0,450)" x2="900" y2="0" style="fill: none; stroke: #ddd; stroke-width: 1; opacity: 1;"></line><line transform="translate(0,420)" x2="900" y2="0" style="fill: none; stroke: #ddd; stroke-width: 1; opacity: 1;"></line><line transform="translate(0,390)" x2="900" y2="0" style="fill: none; stroke: #ddd; stroke-width: 1; opacity: 1;"></line><line transform="translate(0,360)" x2="900" y2="0" style="fill: none; stroke: #ddd; stroke-width: 1; opacity: 1;"></line><line transform="translate(0,330)" x2="900" y2="0" style="fill: none; stroke: #ddd; stroke-width: 1; opacity: 1;"></line><line transform="translate(0,300)" x2="900" y2="0" style="fill: none; stroke: #ddd; stroke-width: 1; opacity: 1;"></line><line transform="translate(0,270)" x2="900" y2="0" style="fill: none; stroke: #ddd; stroke-width: 1; opacity: 1;"></line><line transform="translate(0,240)" x2="900" y2="0" style="fill: none; stroke: #ddd; stroke-width: 1; opacity: 1;"></line><line transform="translate(0,210)" x2="900" y2="0" style="fill: none; stroke: #ddd; stroke-width: 1; opacity: 1;"></line><line transform="translate(0,180)" x2="900" y2="0" style="fill: none; stroke: #ddd; stroke-width: 1; opacity: 1;"></line><line transform="translate(0,150)" x2="900" y2="0" style="fill: none; stroke: #ddd; stroke-width: 1; opacity: 1;"></line><line transform="translate(0,120)" x2="900" y2="0" style="fill: none; stroke: #ddd; stroke-width: 1; opacity: 1;"></line><line transform="translate(0,90)" x2="900" y2="0" style="fill: none; stroke: #ddd; stroke-width: 1; opacity: 1;"></line><line transform="translate(0,60)" x2="900" y2="0" style="fill: none; stroke: #ddd; stroke-width: 1; opacity: 1;"></line><line transform="translate(0,30)" x2="900" y2="0" style="fill: none; stroke: #ddd; stroke-width: 1; opacity: 1;"></line><line transform="translate(0,0)" x2="900" y2="0" style="fill: none; stroke: #ddd; stroke-width: 1; opacity: 1;"></line></g></g><path class="foreground" d="" style="pointer-events: none; display: none; fill: none;"></path></g></g><g class="mark-group role-axis"><g transform="translate(0.5,600.5)"><path class="background" d="M0,0h0v0h0Z" style="pointer-events: none; fill: none;"></path><g><g class="mark-rule role-axis-tick" style="pointer-events: none;"><line transform="translate(0,0)" x2="0" y2="5" style="fill: none; stroke: #888; stroke-width: 1; opacity: 1;"></line><line transform="translate(35,0)" x2="0" y2="5" style="fill: none; stroke: #888; stroke-width: 1; opacity: 1;"></line><line transform="translate(69,0)" x2="0" y2="5" style="fill: none; stroke: #888; stroke-width: 1; opacity: 1;"></line><line transform="translate(104,0)" x2="0" y2="5" style="fill: none; stroke: #888; stroke-width: 1; opacity: 1;"></line><line transform="translate(138,0)" x2="0" y2="5" style="fill: none; stroke: #888; stroke-width: 1; opacity: 1;"></line><line transform="translate(173,0)" x2="0" y2="5" style="fill: none; stroke: #888; stroke-width: 1; opacity: 1;"></line><line transform="translate(208,0)" x2="0" y2="5" style="fill: none; stroke: #888; stroke-width: 1; opacity: 1;"></line><line transform="translate(242,0)" x2="0" y2="5" style="fill: none; stroke: #888; stroke-width: 1; opacity: 1;"></line><line transform="translate(277,0)" x2="0" y2="5" style="fill: none; stroke: #888; stroke-width: 1; opacity: 1;"></line><line transform="translate(312,0)" x2="0" y2="5" style="fill: none; stroke: #888; stroke-width: 1; opacity: 1;"></line><line transform="translate(346,0)" x2="0" y2="5" style="fill: none; stroke: #888; stroke-width: 1; opacity: 1;"></line><line transform="translate(381,0)" x2="0" y2="5" style="fill: none; stroke: #888; stroke-width: 1; opacity: 1;"></line><line transform="translate(415,0)" x2="0" y2="5" style="fill: none; stroke: #888; stroke-width: 1; opacity: 1;"></line><line transform="translate(450,0)" x2="0" y2="5" style="fill: none; stroke: #888; stroke-width: 1; opacity: 1;"></line><line transform="translate(485,0)" x2="0" y2="5" style="fill: none; stroke: #888; stroke-width: 1; opacity: 1;"></line><line transform="translate(519,0)" x2="0" y2="5" style="fill: none; stroke: #888; stroke-width: 1; opacity: 1;"></line><line transform="translate(554,0)" x2="0" y2="5" style="fill: none; stroke: #888; stroke-width: 1; opacity: 1;"></line><line transform="translate(588,0)" x2="0" y2="5" style="fill: none; stroke: #888; stroke-width: 1; opacity: 1;"></line><line transform="translate(623,0)" x2="0" y2="5" style="fill: none; stroke: #888; stroke-width: 1; opacity: 1;"></line><line transform="translate(658,0)" x2="0" y2="5" style="fill: none; stroke: #888; stroke-width: 1; opacity: 1;"></line><line transform="translate(692,0)" x2="0" y2="5" style="fill: none; stroke: #888; stroke-width: 1; opacity: 1;"></line><line transform="translate(727,0)" x2="0" y2="5" style="fill: none; stroke: #888; stroke-width: 1; opacity: 1;"></line><line transform="translate(762,0)" x2="0" y2="5" style="fill: none; stroke: #888; stroke-width: 1; opacity: 1;"></line><line transform="translate(796,0)" x2="0" y2="5" style="fill: none; stroke: #888; stroke-width: 1; opacity: 1;"></line><line transform="translate(831,0)" x2="0" y2="5" style="fill: none; stroke: #888; stroke-width: 1; opacity: 1;"></line><line transform="translate(865,0)" x2="0" y2="5" style="fill: none; stroke: #888; stroke-width: 1; opacity: 1;"></line><line transform="translate(900,0)" x2="0" y2="5" style="fill: none; stroke: #888; stroke-width: 1; opacity: 1;"></line></g><g class="mark-text role-axis-label" style="pointer-events: none;"><text text-anchor="start" transform="translate(0,15)" style="font-family: sans-serif; font-size: 10px; fill: #000; opacity: 1;">0</text><text text-anchor="middle" transform="translate(34.61538461538462,15)" style="font-family: sans-serif; font-size: 10px; fill: #000; opacity: 1;">10</text><text text-anchor="middle" transform="translate(69.23076923076924,15)" style="font-family: sans-serif; font-size: 10px; fill: #000; opacity: 1;">20</text><text text-anchor="middle" transform="translate(103.84615384615385,15)" style="font-family: sans-serif; font-size: 10px; fill: #000; opacity: 1;">30</text><text text-anchor="middle" transform="translate(138.46153846153848,15)" style="font-family: sans-serif; font-size: 10px; fill: #000; opacity: 1;">40</text><text text-anchor="middle" transform="translate(173.0769230769231,15)" style="font-family: sans-serif; font-size: 10px; fill: #000; opacity: 1;">50</text><text text-anchor="middle" transform="translate(207.6923076923077,15)" style="font-family: sans-serif; font-size: 10px; fill: #000; opacity: 1;">60</text><text text-anchor="middle" transform="translate(242.3076923076923,15)" style="font-family: sans-serif; font-size: 10px; fill: #000; opacity: 1;">70</text><text text-anchor="middle" transform="translate(276.92307692307696,15)" style="font-family: sans-serif; font-size: 10px; fill: #000; opacity: 1;">80</text><text text-anchor="middle" transform="translate(311.53846153846155,15)" style="font-family: sans-serif; font-size: 10px; fill: #000; opacity: 1;">90</text><text text-anchor="middle" transform="translate(346.1538461538462,15)" style="font-family: sans-serif; font-size: 10px; fill: #000; opacity: 1;">100</text><text text-anchor="middle" transform="translate(380.7692307692308,15)" style="font-family: sans-serif; font-size: 10px; fill: #000; opacity: 1;">110</text><text text-anchor="middle" transform="translate(415.3846153846154,15)" style="font-family: sans-serif; font-size: 10px; fill: #000; opacity: 1;">120</text><text text-anchor="middle" transform="translate(450,15)" style="font-family: sans-serif; font-size: 10px; fill: #000; opacity: 1;">130</text><text text-anchor="middle" transform="translate(484.6153846153846,15)" style="font-family: sans-serif; font-size: 10px; fill: #000; opacity: 1;">140</text><text text-anchor="middle" transform="translate(519.2307692307692,15)" style="font-family: sans-serif; font-size: 10px; fill: #000; opacity: 1;">150</text><text text-anchor="middle" transform="translate(553.8461538461539,15)" style="font-family: sans-serif; font-size: 10px; fill: #000; opacity: 1;">160</text><text text-anchor="middle" transform="translate(588.4615384615385,15)" style="font-family: sans-serif; font-size: 10px; fill: #000; opacity: 1;">170</text><text text-anchor="middle" transform="translate(623.0769230769231,15)" style="font-family: sans-serif; font-size: 10px; fill: #000; opacity: 1;">180</text><text text-anchor="middle" transform="translate(657.6923076923076,15)" style="font-family: sans-serif; font-size: 10px; fill: #000; opacity: 1;">190</text><text text-anchor="middle" transform="translate(692.3076923076924,15)" style="font-family: sans-serif; font-size: 10px; fill: #000; opacity: 1;">200</text><text text-anchor="middle" transform="translate(726.9230769230769,15)" style="font-family: sans-serif; font-size: 10px; fill: #000; opacity: 1;">210</text><text text-anchor="middle" transform="translate(761.5384615384615,15)" style="font-family: sans-serif; font-size: 10px; fill: #000; opacity: 1;">220</text><text text-anchor="middle" transform="translate(796.1538461538461,15)" style="font-family: sans-serif; font-size: 10px; fill: #000; opacity: 1;">230</text><text text-anchor="middle" transform="translate(830.7692307692308,15)" style="font-family: sans-serif; font-size: 10px; fill: #000; opacity: 1;">240</text><text text-anchor="middle" transform="translate(865.3846153846154,15)" style="font-family: sans-serif; font-size: 10px; fill: #000; opacity: 1;">250</text><text text-anchor="end" transform="translate(900,15)" style="font-family: sans-serif; font-size: 10px; fill: #000; opacity: 1;">260</text></g><g class="mark-rule role-axis-domain" style="pointer-events: none;"><line transform="translate(0,0)" x2="900" y2="0" style="fill: none; stroke: #888; stroke-width: 1; opacity: 1;"></line></g><g class="mark-text role-axis-title" style="pointer-events: none;"><text text-anchor="middle" transform="translate(450,30)" style="font-family: sans-serif; font-size: 11px; font-weight: bold; fill: #000; opacity: 1;">Size</text></g></g><path class="foreground" d="" style="pointer-events: none; display: none; fill: none;"></path></g></g><g class="mark-group role-axis"><g transform="translate(0.5,0.5)"><path class="background" d="M0,0h0v0h0Z" style="pointer-events: none; fill: none;"></path><g><g class="mark-rule role-axis-tick" style="pointer-events: none;"><line transform="translate(0,600)" x2="-5" y2="0" style="fill: none; stroke: #888; stroke-width: 1; opacity: 1;"></line><line transform="translate(0,570)" x2="-5" y2="0" style="fill: none; stroke: #888; stroke-width: 1; opacity: 1;"></line><line transform="translate(0,540)" x2="-5" y2="0" style="fill: none; stroke: #888; stroke-width: 1; opacity: 1;"></line><line transform="translate(0,510)" x2="-5" y2="0" style="fill: none; stroke: #888; stroke-width: 1; opacity: 1;"></line><line transform="translate(0,480)" x2="-5" y2="0" style="fill: none; stroke: #888; stroke-width: 1; opacity: 1;"></line><line transform="translate(0,450)" x2="-5" y2="0" style="fill: none; stroke: #888; stroke-width: 1; opacity: 1;"></line><line transform="translate(0,420)" x2="-5" y2="0" style="fill: none; stroke: #888; stroke-width: 1; opacity: 1;"></line><line transform="translate(0,390)" x2="-5" y2="0" style="fill: none; stroke: #888; stroke-width: 1; opacity: 1;"></line><line transform="translate(0,360)" x2="-5" y2="0" style="fill: none; stroke: #888; stroke-width: 1; opacity: 1;"></line><line transform="translate(0,330)" x2="-5" y2="0" style="fill: none; stroke: #888; stroke-width: 1; opacity: 1;"></line><line transform="translate(0,300)" x2="-5" y2="0" style="fill: none; stroke: #888; stroke-width: 1; opacity: 1;"></line><line transform="translate(0,270)" x2="-5" y2="0" style="fill: none; stroke: #888; stroke-width: 1; opacity: 1;"></line><line transform="translate(0,240)" x2="-5" y2="0" style="fill: none; stroke: #888; stroke-width: 1; opacity: 1;"></line><line transform="translate(0,210)" x2="-5" y2="0" style="fill: none; stroke: #888; stroke-width: 1; opacity: 1;"></line><line transform="translate(0,180)" x2="-5" y2="0" style="fill: none; stroke: #888; stroke-width: 1; opacity: 1;"></line><line transform="translate(0,150)" x2="-5" y2="0" style="fill: none; stroke: #888; stroke-width: 1; opacity: 1;"></line><line transform="translate(0,120)" x2="-5" y2="0" style="fill: none; stroke: #888; stroke-width: 1; opacity: 1;"></line><line transform="translate(0,90)" x2="-5" y2="0" style="fill: none; stroke: #888; stroke-width: 1; opacity: 1;"></line><line transform="translate(0,60)" x2="-5" y2="0" style="fill: none; stroke: #888; stroke-width: 1; opacity: 1;"></line><line transform="translate(0,30)" x2="-5" y2="0" style="fill: none; stroke: #888; stroke-width: 1; opacity: 1;"></line><line transform="translate(0,0)" x2="-5" y2="0" style="fill: none; stroke: #888; stroke-width: 1; opacity: 1;"></line></g><g class="mark-text role-axis-label" style="pointer-events: none;"><text text-anchor="end" transform="translate(-7,603)" style="font-family: sans-serif; font-size: 10px; fill: #000; opacity: 1;">0.0</text><text text-anchor="end" transform="translate(-7,573)" style="font-family: sans-serif; font-size: 10px; fill: #000; opacity: 1;">0.2</text><text text-anchor="end" transform="translate(-7,543)" style="font-family: sans-serif; font-size: 10px; fill: #000; opacity: 1;">0.4</text><text text-anchor="end" transform="translate(-7,513)" style="font-family: sans-serif; font-size: 10px; fill: #000; opacity: 1;">0.6</text><text text-anchor="end" transform="translate(-7,483)" style="font-family: sans-serif; font-size: 10px; fill: #000; opacity: 1;">0.8</text><text text-anchor="end" transform="translate(-7,453)" style="font-family: sans-serif; font-size: 10px; fill: #000; opacity: 1;">1.0</text><text text-anchor="end" transform="translate(-7,423)" style="font-family: sans-serif; font-size: 10px; fill: #000; opacity: 1;">1.2</text><text text-anchor="end" transform="translate(-7,393)" style="font-family: sans-serif; font-size: 10px; fill: #000; opacity: 1;">1.4</text><text text-anchor="end" transform="translate(-7,363)" style="font-family: sans-serif; font-size: 10px; fill: #000; opacity: 1;">1.6</text><text text-anchor="end" transform="translate(-7,333)" style="font-family: sans-serif; font-size: 10px; fill: #000; opacity: 1;">1.8</text><text text-anchor="end" transform="translate(-7,303)" style="font-family: sans-serif; font-size: 10px; fill: #000; opacity: 1;">2.0</text><text text-anchor="end" transform="translate(-7,273)" style="font-family: sans-serif; font-size: 10px; fill: #000; opacity: 1;">2.2</text><text text-anchor="end" transform="translate(-7,243)" style="font-family: sans-serif; font-size: 10px; fill: #000; opacity: 1;">2.4</text><text text-anchor="end" transform="translate(-7,213)" style="font-family: sans-serif; font-size: 10px; fill: #000; opacity: 1;">2.6</text><text text-anchor="end" transform="translate(-7,183.00000000000003)" style="font-family: sans-serif; font-size: 10px; fill: #000; opacity: 1;">2.8</text><text text-anchor="end" transform="translate(-7,153)" style="font-family: sans-serif; font-size: 10px; fill: #000; opacity: 1;">3.0</text><text text-anchor="end" transform="translate(-7,122.99999999999997)" style="font-family: sans-serif; font-size: 10px; fill: #000; opacity: 1;">3.2</text><text text-anchor="end" transform="translate(-7,93.00000000000001)" style="font-family: sans-serif; font-size: 10px; fill: #000; opacity: 1;">3.4</text><text text-anchor="end" transform="translate(-7,62.999999999999986)" style="font-family: sans-serif; font-size: 10px; fill: #000; opacity: 1;">3.6</text><text text-anchor="end" transform="translate(-7,33.00000000000003)" style="font-family: sans-serif; font-size: 10px; fill: #000; opacity: 1;">3.8</text><text text-anchor="end" transform="translate(-7,3)" style="font-family: sans-serif; font-size: 10px; fill: #000; opacity: 1;">4.0</text></g><g class="mark-rule role-axis-domain" style="pointer-events: none;"><line transform="translate(0,600)" x2="0" y2="-600" style="fill: none; stroke: #888; stroke-width: 1; opacity: 1;"></line></g><g class="mark-text role-axis-title" style="pointer-events: none;"><text text-anchor="middle" transform="translate(-26,300) rotate(-90) translate(0,-2)" style="font-family: sans-serif; font-size: 11px; font-weight: bold; fill: #000; opacity: 1;">GFLOPS</text></g></g><path class="foreground" d="" style="pointer-events: none; display: none; fill: none;"></path></g></g><g class="mark-group role-scope pathgroup"><g transform="translate(0,0)"><path class="background" d="M0,0h900v600h-900Z" style="fill: none;"></path><g><g class="mark-line role-mark marks"><path d="M6.923076923076923,510.1977626847783L10.384615384615385,464.4942294636796L13.846153846153847,430.55068198539817L17.30769230769231,406.7270375161707L20.76923076923077,399.532620526282L24.230769230769234,391.88479711992795L27.692307692307693,386.38125263559505L31.153846153846157,383.56002365464224L34.61538461538462,396.550614582663L38.07692307692308,397.6574001439946L41.53846153846154,389.7824194952132L45,386.6544188214648L48.46153846153847,379.5196711074105L51.92307692307693,376.6462174797101L55.38461538461539,380.86030545046935L58.84615384615385,379.849012775842L62.307692307692314,371.9277871621621L65.76923076923077,378.4509859959988L69.23076923076924,386.52385589094445L72.6923076923077,386.8871474622678L76.15384615384616,378.63987635239573L79.61538461538461,395.83281962766614L83.07692307692308,393.7141864907102L86.53846153846155,392.93082524271836L90,393.73584443673616L93.46153846153847,391.7253641523627L96.92307692307693,392.52518687032824L100.38461538461539,392.04059381028264L103.84615384615385,392.0717350852542L107.3076923076923,391.4892740124055L110.76923076923077,214.10560935501547L114.23076923076923,236.01977313854442L117.6923076923077,242.3399882256948L121.15384615384615,254.25035030359652L124.61538461538463,246.39536218574213L128.07692307692307,255.1506657323055L131.53846153846155,258.5093528414466L135,267.7159568235305L138.46153846153848,269.300632807633L141.9230769230769,284.3160936893413L145.3846153846154,284.9360335247097L148.84615384615384,288.49130124581524L152.30769230769232,297.5354742345033L155.76923076923077,304.0320274521017L159.23076923076923,305.8503401360544L162.69230769230768,310.19953755245353L166.15384615384616,309.7968248745579L169.6153846153846,315.95300664708606L173.0769230769231,317.524555055018L176.53846153846155,323.500382289567L180,324.2713266190889L183.46153846153845,340.32180014517303L186.92307692307693,344.4061962134251L190.3846153846154,349.57992303105857L193.84615384615387,351.68550980188775L197.3076923076923,360.37046979865767L200.76923076923077,359.9532346063913L204.23076923076923,362.41610738255036L207.6923076923077,365.99573762727914L211.15384615384616,365.7183499288762L214.6153846153846,367.2434341205032L218.07692307692307,372.37485886337976L221.53846153846155,215.6215350498953L225,222.624912033779L228.46153846153845,222.37403928266437L231.9230769230769,227.43280815569972L235.3846153846154,224.33947157726178L238.84615384615384,234.016973125884L242.3076923076923,236.51877133105793L245.76923076923075,243.36726784145523L249.23076923076925,245.20226011300565L252.6923076923077,255.7774001699235L256.15384615384613,258.2044614752976L259.6153846153846,292.81437125748505L263.0769230769231,286.9348127600555L266.53846153846155,291.5899581589958L270,291.30834098689155L273.46153846153845,296.9551666267082L276.92307692307696,301.840490797546L280.3846153846154,307.91556728232194L283.8461538461538,311.9255052731825L287.30769230769226,318.33148166851834L290.7692307692308,318.4079929010418L294.2307692307692,320.8325377124308L297.6923076923077,327.6254203792948L301.15384615384613,338.838894122998L304.61538461538464,335.8728119479685L308.0769230769231,339.7419235053843L311.53846153846155,340.79153605015676L315,342.17333919929604L318.46153846153845,344.5970149253731L321.9230769230769,345.41159720424537L325.38461538461536,347.6925974759842L328.8461538461538,346.2908011869436L332.3076923076923,262.8878775341333L335.7692307692308,264.41515650741354L339.2307692307692,265.4043224068843L342.6923076923077,270.5334220785395L346.1538461538462,268.3657514541248L349.61538461538464,274.986479177934L353.0769230769231,272.8364671688712L356.53846153846155,278.21094793057404L360,273.91087959122734L363.46153846153845,284.47412353923204L366.9230769230769,287.49081557678176L370.38461538461536,299.0450836275247L373.84615384615387,296.1716039115597L377.3076923076923,302.4321641297154L380.7692307692308,303.5352390818738L384.2307692307692,307.9862198559349L387.69230769230774,304.538380128245L391.1538461538462,311.2867559168061L394.6153846153846,322.14372509678685L398.07692307692304,318.2483807378203L401.53846153846155,315.59094719195303L405,324.0455726564061L408.46153846153845,326.49006622516555L411.9230769230769,328.22432278119646L415.3846153846154,327.10186693396815L418.84615384615387,333.82618103137395L422.3076923076923,334.7200942840306L425.7692307692308,336.215842269111L429.2307692307692,335.1332877648667L432.6923076923077,339.7554527428949L436.15384615384613,340.2553836164917L439.6153846153846,341.69491525423723L443.0769230769231,275.48232827803065L446.53846153846155,270.1308068058879L450,269.3952826220597L453.46153846153845,271.5669515669516L456.9230769230769,270.30297971788656L460.38461538461536,273.7623560997437L463.8461538461538,273.59663191659985L467.3076923076923,281.0408060842374L470.7692307692308,271.0839119689302L474.2307692307692,279.6196573150066L477.6923076923077,280.90273927026726L481.15384615384613,291.76346356916576L484.6153846153846,287.82287822878226L488.07692307692304,291.49460708782743L491.5384615384615,289.73209738209226L495.00000000000006,292.04386839481555L498.4615384615385,291.762621789194L501.92307692307696,297.05208929593584L505.3846153846154,299.21517331589274L508.8461538461538,302.75981419072775L512.3076923076923,300.7057546145494L515.7692307692307,309.9662600570984L519.2307692307692,312.51480792012177L522.6923076923077,327.3893419906564L526.1538461538462,316.48244473342004L529.6153846153846,322.77825711820526L533.0769230769231,321.4052287581699L536.5384615384615,323.59396433470505L540,323.0456087448171L543.4615384615385,325.61757982449666L546.9230769230769,324.8009932082085L550.3846153846155,328.3018867924528L553.8461538461539,289.5138609883487L557.3076923076924,286.46417695143447L560.7692307692308,285.6927471829868L564.2307692307692,289.30729893072987L567.6923076923076,286.51529193697866L571.1538461538461,289.52618453865335L574.6153846153845,291.2459162459162L578.0769230769231,296.82299546142207L581.5384615384615,288.93433642538895L585,300.9783513738551L588.4615384615385,296.6186599874765L591.9230769230769,303.88616685683604L595.3846153846154,301.74406949548944L598.8461538461538,308.87814313346223L602.3076923076923,306.00540679711645L605.7692307692308,307.90921160776384L609.2307692307693,307.2180451127819L612.6923076923077,311.4306649569518L616.1538461538462,311.2030938425283L619.6153846153846,314.46295639844027L623.0769230769231,313.0526686630263L626.5384615384615,321.7579818683484L630,326.2370540851553L633.4615384615385,329.8025999037073L636.9230769230769,324.69941230387667L640.3846153846154,330.0329515142005L643.8461538461538,331.28862793572307L647.3076923076923,333.57247511746573L650.7692307692307,332.6142577635077L654.2307692307692,334.9554691728583L657.6923076923076,335.61124872504735L661.1538461538462,346.27306273062726L664.6153846153846,300.6462731581215L668.0769230769231,299.9198546698012L671.5384615384615,296.97212431912845L675,300.54844606946983L678.4615384615385,297.9977057044529L681.9230769230769,301.10344827586204L685.3846153846154,299.3131868131868L688.8461538461538,303.9865132883776L692.3076923076924,300.75926753014744L695.7692307692308,308.61202813262526L699.2307692307693,306.8487274806978L702.6923076923077,311.01186322400554L706.1538461538462,308.4088690559197L709.6153846153846,313.6690322289021L713.0769230769231,311.9691989012473L716.5384615384615,314.38174420661596L720,311.2773965021032L723.4615384615385,316.78998537382773L726.9230769230769,319.6515943985153L730.3846153846154,321.22647388757315L733.8461538461538,324.66972887280997L737.3076923076923,327.82532542494323L740.7692307692307,327.8481012658228L744.2307692307692,333.05230887143125L747.6923076923077,328.5405405405405L751.1538461538462,334.81201883548846L754.6153846153846,336.6878699856602L758.0769230769231,336.144578313253L761.5384615384615,333.09178743961354L765,336.8859492313193L768.4615384615385,339.46038874464944L771.9230769230769,336.73447876040893L775.3846153846155,310.32263008659663L778.8461538461539,313.3811814219149L782.3076923076924,326.3406827880512L785.7692307692308,313.6122177954847L789.2307692307692,310.8863376278194L792.6923076923076,321.97001689189193L796.1538461538461,315.547703180212L799.6153846153845,319.7559700191738L803.0769230769231,311.4448398576512L806.5384615384615,316.84728040715993L810,318.1156448636456L813.4615384615385,325.53612669086107L816.9230769230769,322.08162183649125L820.3846153846154,328.6085450346421L823.8461538461538,323.66810247109504L827.3076923076923,339.72229784916954L830.7692307692308,331.80005564314195L834.2307692307693,336.52873147813517L837.6923076923077,340.6227946365561L841.1538461538462,346.3190621523717L844.6153846153846,338.105668973977L848.0769230769231,343.79357252168L851.5384615384615,342.6647467389463L855,346.0294646065397L858.4615384615385,347.74509803921563L861.9230769230769,353.53692656918116L865.3846153846154,356.140214518887L868.8461538461538,358.51870705014L872.3076923076923,357.72300053200917L875.7692307692307,360.8766837835826L879.2307692307692,360.01630273688374L882.6923076923076,363.40396742938606L886.1538461538462,346.3229056885072" style="fill: none; stroke: #ff7f0e; stroke-width: 2;"></path></g></g><path class="foreground" d="" style="display: none; fill: none;"></path></g><g transform="translate(0,0)"><path class="background" d="M0,0h900v600h-900Z" style="fill: none;"></path><g><g class="mark-line role-mark marks"><path d="M6.923076923076923,472.3594548551959L10.384615384615385,420.2698650674662L13.846153846153847,378.1729273171816L17.30769230769231,367.1648762260625L20.76923076923077,351.73887240356083L24.230769230769234,340.34083841273787L27.692307692307693,333.3034312626149L31.153846153846157,327.26155107058696L34.61538461538462,348.700903515753L38.07692307692308,351.5203426124197L41.53846153846154,352.04143814747107L45,350.4570383912249L48.46153846153847,351.1690198392881L51.92307692307693,351.61107387740367L55.38461538461539,350.83197620902075L58.84615384615385,351.70128997151176L62.307692307692314,344.3687131020853L65.76923076923077,351.92263544536274L69.23076923076924,355.15317542511605L72.6923076923077,362.8910269602799L76.15384615384616,363.46753148040233L79.61538461538461,368.8355752661599L83.07692307692308,370.4557224236147L86.53846153846155,371.0403341908381L90,371.83725994852506L93.46153846153847,371.83098591549293L96.92307692307693,371.9151079766963L100.38461538461539,373.5827163222456L103.84615384615385,373.53050942339985L107.3076923076923,374.44720237982455L110.76923076923077,165.55816345367754L114.23076923076923,178.60737624877936L117.6923076923077,189.98364250165315L121.15384615384615,192.177179973055L124.61538461538463,191.7768111973544L128.07692307692307,197.6557661958888L131.53846153846155,206.33022868465633L135,211.39359786533302L138.46153846153848,211.39998683604284L141.9230769230769,224.27440375660186L145.3846153846154,232.96568368016597L148.84615384615384,240.957486785079L152.30769230769232,243.72058687828738L155.76923076923077,254.71643378620118L159.23076923076923,263.48947524458936L162.69230769230768,272.79056275381936L166.15384615384616,277.5431861804222L169.6153846153846,291.33210146144796L173.0769230769231,296.0425937698665L176.53846153846155,303.7974683544304L180,305.0303246521584L183.46153846153845,316.55882741317834L186.92307692307693,323.9434874209939L190.3846153846154,328.0913424754282L193.84615384615387,327.2416543238008L197.3076923076923,345.8487084870849L200.76923076923077,345.933014354067L204.23076923076923,353.2145623547637L207.6923076923077,349.6960486322189L211.15384615384616,356.5352152973153L214.6153846153846,356.08955085804155L218.07692307692307,361.5664286652941L221.53846153846155,159.9435825105783L225,184.4902176018596L228.46153846153845,187.42302668408283L231.9230769230769,197.1706454465075L235.3846153846154,204.25101214574897L238.84615384615384,213.45569012431307L242.3076923076923,218.5725249424405L245.76923076923075,225.42336083369517L249.23076923076925,227.0381077529566L252.6923076923077,238.2589285714286L256.15384615384613,242.41397413258244L259.6153846153846,249.2707383773929L263.0769230769231,255.23892646737946L266.53846153846155,259.22330097087377L270,264.66319990325314L273.46153846153845,269.5072823055469L276.92307692307696,276.20237351655214L280.3846153846154,278.8977519941987L283.8461538461538,283.45412968489586L287.30769230769226,287.12041884816756L290.7692307692308,291.62107687877915L294.2307692307692,294.6639284346827L297.6923076923077,297.3505022584777L301.15384615384613,300.9180285174816L304.61538461538464,305.12048192771084L308.0769230769231,311.2671221119845L311.53846153846155,311.97709079947754L315,315.1088929219601L318.46153846153845,316.3756906077348L321.9230769230769,321.5923566878981L325.38461538461536,322.3423156647912L328.8461538461538,325.7417802726543L332.3076923076923,223.64352834192178L335.7692307692308,228.3694412770809L339.2307692307692,232.63915183642558L342.6923076923077,237.13477851083888L346.1538461538462,236.04228155673007L349.61538461538464,247.1917808219178L353.0769230769231,248.67352463454247L356.53846153846155,255.00276056683643L360,247.7743986729334L363.46153846153845,262.7953948697233L366.9230769230769,263.40884360470864L370.38461538461536,269.00897460378076L373.84615384615387,269.4702689211955L377.3076923076923,275.68298620503106L380.7692307692308,278.4021071115013L384.2307692307692,282.50617178854174L387.69230769230774,281.859062089769L391.1538461538462,289.55046431669933L394.6153846153846,291.52941176470586L398.07692307692304,296.3949748133762L401.53846153846155,295.5312275664034L405,301.3498312710911L408.46153846153845,301.3611229264142L411.9230769230769,303.35491465567986L415.3846153846154,301.31651124520016L418.84615384615387,313.6279866791684L422.3076923076923,314.6063141879041L425.7692307692308,317.47416951385173L429.2307692307692,314.2798623627724L432.6923076923077,320.7006620428752L436.15384615384613,320.92779909312867L439.6153846153846,323.2026638413804L443.0769230769231,236.5130613442912L446.53846153846155,226.11474435196192L450,228.18758733115968L453.46153846153845,229.8933399921521L456.9230769230769,229.8154981549815L460.38461538461536,232.71278422751942L463.8461538461538,234.6930533117932L467.3076923076923,238.13152880888245L470.7692307692308,236.44878048780492L474.2307692307692,242.87873063845862L477.6923076923077,246.5088660469307L481.15384615384613,249.8320537428023L484.6153846153846,251.90642266546496L488.07692307692304,256.01878364448515L491.5384615384615,257.81530856800475L495.00000000000006,262.24166211044286L498.4615384615385,267.7275620623806L501.92307692307696,269.90644490644485L505.3846153846154,272.2691642064542L508.8461538461538,275.1219512195122L512.3076923076923,277.1618192465352L515.7692307692307,279.0330301579703L519.2307692307692,278.96626665406785L522.6923076923077,287.8694469628286L526.1538461538462,284.84957990785074L529.6153846153846,295.7124408092983L533.0769230769231,295.5616019045999L536.5384615384615,299.328525242477L540,299.8284173543589L543.4615384615385,303.2065087341469L546.9230769230769,303.7267080745341L550.3846153846155,305.6464054304227L553.8461538461539,255.46143557735178L557.3076923076924,249.4668936475226L560.7692307692308,247.07297514033678L564.2307692307692,249.46236559139788L567.6923076923076,246.79777236338316L571.1538461538461,254.39939434724096L574.6153846153845,253.79235700607774L578.0769230769231,256.7653535600685L581.5384615384615,249.51032836803552L585,262.8461899546237L588.4615384615385,261.7932211277437L591.9230769230769,266.80764292727133L595.3846153846154,264.35554218679505L598.8461538461538,270.29572836801754L602.3076923076923,271.42651607798L605.7692307692308,275.8122237035997L609.2307692307693,277.42648074002483L612.6923076923077,282.8255033557047L616.1538461538462,282.98620323693285L619.6153846153846,288.0325329202169L623.0769230769231,285.2173913043478L626.5384615384615,290.9756097560976L630,291.3253012048192L633.4615384615385,296.30208646503525L636.9230769230769,291.03231271935135L640.3846153846154,303.8726333907057L643.8461538461538,303.9661824784385L647.3076923076923,307.4558970376123L650.7692307692307,305.3405572755418L654.2307692307692,310.38765525028225L657.6923076923076,309.83475479744135L661.1538461538462,318.81613249501606L664.6153846153846,263.8200072577719L668.0769230769231,259.2464506734619L671.5384615384615,257.8741106957675L675,259.9442434308084L678.4615384615385,258.7237051440693L681.9230769230769,261.7781374645933L685.3846153846154,260.95112436897654L688.8461538461538,262.387603913363L692.3076923076924,261.8059450364554L695.7692307692308,268.53706324153694L699.2307692307693,267.87796976241896L702.6923076923077,271.4550166604961L706.1538461538462,271.08850671140937L709.6153846153846,276.99250420682273L713.0769230769231,277.6383429089809L716.5384615384615,282.04017329657347L720,283.76333656644033L723.4615384615385,287.3931623931624L726.9230769230769,290.24094701029964L730.3846153846154,292.1686470615222L733.8461538461538,293.0807920612624L737.3076923076923,295.56525223741033L740.7692307692307,295.63395810363835L744.2307692307692,303.5870814007915L747.6923076923077,299.4870918105659L751.1538461538462,309.16058693335515L754.6153846153846,314.06268716310643L758.0769230769231,311.61213088587385L761.5384615384615,308.76926763038097L765,313.44521454715357L768.4615384615385,319.14145234493196L771.9230769230769,315.2650579517386L775.3846153846155,278.1609195402298L778.8461538461539,276.55415147146124L782.3076923076924,287.90607129821143L785.7692307692308,276.3361961144L789.2307692307692,274.8536554988168L792.6923076923076,286.6745984533016L796.1538461538461,278.41578565087565L799.6153846153845,281.40456563094483L803.0769230769231,274.5052386495925L806.5384615384615,282.1739468366236L810,285.1116625310174L813.4615384615385,296.82944606414L816.9230769230769,283.86902294736046L820.3846153846154,295.0587472068046L823.8461538461538,291.9191189745442L827.3076923076923,317.2248332073487L830.7692307692308,303.56703567035674L834.2307692307693,311.2676986039143L837.6923076923077,311.8012219426928L841.1538461538462,317.17229536348026L844.6153846153846,313.67903442109963L848.0769230769231,314.1615024661692L851.5384615384615,313.92655367231635L855,318.4753967767633L858.4615384615385,317.51143641354076L861.9230769230769,333.8530384220727L865.3846153846154,328.84017054620875L868.8461538461538,335.15520321572126L872.3076923076923,330.5932728604428L875.7692307692307,333.9194523421757L879.2307692307692,335.81955623232545L882.6923076923076,336.1642506870722L886.1538461538462,318.49274039421505" style="fill: none; stroke: #1f77b4; stroke-width: 2;"></path></g></g><path class="foreground" d="" style="display: none; fill: none;"></path></g><g transform="translate(0,0)"><path class="background" d="M0,0h900v600h-900Z" style="fill: none;"></path><g><g class="mark-line role-mark marks"><path d="M6.923076923076923,512.2914837576822L10.384615384615385,466.87416629613165L13.846153846153847,434.93377483443703L17.30769230769231,409.48737566947204L20.76923076923077,391.20311771367665L24.230769230769234,378.42422953173605L27.692307692307693,411.6903409090908L31.153846153846157,398.0303519535033L34.61538461538462,391.3138915020382L38.07692307692308,383.05415328132165L41.53846153846154,387.7043742927381L45,388.8505757160441L48.46153846153847,390.0102184808525L51.92307692307693,390.5324322617318L55.38461538461539,268.30164217804673L58.84615384615385,293.7054622222581L62.307692307692314,301.07810140915956L65.76923076923077,314.02769416014445L69.23076923076924,316.74828599412336L72.6923076923077,310.80072952838253L76.15384615384616,314.83695652173907L79.61538461538461,319.88230566825234L83.07692307692308,208.5217440639981L86.53846153846155,236.12075400163505L90,242.71674271674271L93.46153846153847,256.12638589936233L96.92307692307693,264.8135162668854L100.38461538461539,272.27112344454343L103.84615384615385,281.00292191668495L107.3076923076923,294.049916173726L110.76923076923077,173.97567599480453L114.23076923076923,209.92871273221036L117.6923076923077,218.46912180067392L121.15384615384615,224.62567532801646L124.61538461538463,227.57702473470346L128.07692307692307,243.0666817104817L131.53846153846155,250.77711056163892L135,251.2467755803955L138.46153846153848,148.79999999999993L141.9230769230769,193.4215673490676L145.3846153846154,196.3546807379849L148.84615384615384,207.30513699675447L152.30769230769232,209.31508070989034L155.76923076923077,222.78177111204315L159.23076923076923,230.20158827122782L162.69230769230768,230.94880183924306L166.15384615384616,138.5898765199358L169.6153846153846,184.2850616719963L173.0769230769231,189.82607821453703L176.53846153846155,195.6730071148541L180,200.0773918931991L183.46153846153845,212.7897537656715L186.92307692307693,221.27008416220343L190.3846153846154,223.6559139784946L193.84615384615387,138.46153846153842L197.3076923076923,178.0651748489747L200.76923076923077,182.4792581747194L204.23076923076923,190.30938970758422L207.6923076923077,188.70242732993705L211.15384615384616,201.8109075594862L214.6153846153846,209.37395826388425L218.07692307692307,213.44752652435116L221.53846153846155,141.74928398325622L225,186.3864249903586L228.46153846153845,186.47132169576062L231.9230769230769,191.365701985171L235.3846153846154,212.16730038022808L238.84615384615384,220.28301886792457L242.3076923076923,222.56986634264882L245.76923076923075,227.8673496899434L249.23076923076925,187.41954053064006L252.6923076923077,202.40431795878308L256.15384615384613,206.09326533831023L259.6153846153846,215.03827104907694L263.0769230769231,230.65918653576435L266.53846153846155,244.72438874769955L270,248.2876712328767L273.46153846153845,253.64942762036208L276.92307692307696,195.37465309898238L280.3846153846154,226.66749937546837L283.8461538461538,230.54002975592098L287.30769230769226,237.42054778689473L290.7692307692308,240.9788438617402L294.2307692307692,254.35990385751998L297.6923076923077,254.3977828245891L301.15384615384613,260.7510800930541L304.61538461538464,199.71227379419997L308.0769230769231,232.34394124846992L311.53846153846155,233.24252714856138L315,241.22562674094706L318.46153846153845,235.68235043644876L321.9230769230769,251.9442601194426L325.38461538461536,253.55145323461898L328.8461538461538,259.35043221514707L332.3076923076923,202.95622512791357L335.7692307692308,226.3364779874214L339.2307692307692,227.18073523760722L342.6923076923077,234.42940038684722L346.1538461538462,226.08419716522107L349.61538461538464,240.0059904153354L353.0769230769231,243.57673667205168L356.53846153846155,247.15625686231454L360,192.55179275789772L363.46153846153845,224.7109826589595L366.9230769230769,225.18175809649702L370.38461538461536,232.37593164879107L373.84615384615387,223.57706246002982L377.3076923076923,237.05422780868915L380.7692307692308,237.9600039534807L384.2307692307692,241.23513002212457L387.69230769230774,198.17362644008344L391.1538461538462,220.6837886471454L394.6153846153846,220.64752596212577L398.07692307692304,226.42354844732088L401.53846153846155,220.12750738609859L405,233.5663098292488L408.46153846153845,235.48312662244012L411.9230769230769,238.5928404713028L415.3846153846154,198.00664451827237L418.84615384615387,223.96195975205907L422.3076923076923,223.1752232142856L425.7692307692308,228.56771763483454L429.2307692307692,220.92803339094138L432.6923076923077,232.14686098654704L436.15384615384613,237.0989688851259L439.6153846153846,240.87307431735834L443.0769230769231,224.8636859323882L446.53846153846155,227.8846153846154L450,226.29469249224644L453.46153846153845,231.51015769285414L456.9230769230769,223.23485227841752L460.38461538461536,236.00095312659565L463.8461538461538,237.3295910184442L467.3076923076923,241.27780129603698L470.7692307692308,206.49090077088246L474.2307692307692,228.21277572023203L477.6923076923077,228.36384771868643L481.15384615384613,232.42562568865105L484.6153846153846,223.61764332019825L488.07692307692304,237.07806332071212L491.5384615384615,236.6719681908548L495.00000000000006,240.13980582524272L498.4615384615385,213.95291507457168L501.92307692307696,227.46363209760673L505.3846153846154,225.72081847775536L508.8461538461538,228.863868986694L512.3076923076923,228.9901671215463L515.7692307692307,245.20055032278546L519.2307692307692,244.61297071129707L522.6923076923077,249.587786259542L526.1538461538462,210.5827193569993L529.6153846153846,234.4709897610921L533.0769230769231,234.1949325704945L536.5384615384615,241.35271432809247L540,237.58508434448058L543.4615384615385,247.70876727892443L546.9230769230769,250.63044687557945L550.3846153846155,253.9403282851183L553.8461538461539,240.65842090579375L557.3076923076924,243.29868708971557L560.7692307692308,242.74375394606298L564.2307692307692,244.67877713779353L567.6923076923076,238.94324853228963L571.1538461538461,249.59488272921112L574.6153846153845,251.1785923999664L578.0769230769231,254.0851553509781L581.5384615384615,219.8518254039096L585,245.68774151114033L588.4615384615385,241.3767579570688L591.9230769230769,245.61008916378822L595.3846153846154,238.67886343398365L598.8461538461538,249.62365174206562L602.3076923076923,247.2428174235403L605.7692307692308,251.21546127132714L609.2307692307693,230.90047393364927L612.6923076923077,242.05862304021812L616.1538461538462,239.73315241971957L619.6153846153846,243.1630242173656L623.0769230769231,238.53550295857985L626.5384615384615,250.17345132743353L630,253.1829225963207L633.4615384615385,255.56464811783965L636.9230769230769,229.8390604610701L640.3846153846154,245.7933022234422L643.8461538461538,247.26522885538503L647.3076923076923,251.69088507265522L650.7692307692307,245.60143626570908L654.2307692307692,255.08740475123258L657.6923076923076,255.69259962049335L661.1538461538462,259.4142777536994L664.6153846153846,251.4891215750204L668.0769230769231,253.18636532048907L671.5384615384615,252.87208662139847L675,256.9325593920172L678.4615384615385,248.3210881049244L681.9230769230769,256.69776447808476L685.3846153846154,257.8301395241128L688.8461538461538,260.2549510585022L692.3076923076924,238.35912198632602L695.7692307692308,256.24541400914376L699.2307692307693,253.39231376084751L702.6923076923077,256.23685666851134L706.1538461538462,251.18994661921704L709.6153846153846,262.01579340518623L713.0769230769231,264.0598739495798L716.5384615384615,262.90516206482596L720,252.316715542522L723.4615384615385,260.29411764705884L726.9230769230769,256.72451193058566L730.3846153846154,259.41830363940915L733.8461538461538,256.3295956162159L737.3076923076923,269.93482983345405L740.7692307692307,268.0854133602654L744.2307692307692,272.6503759398496L747.6923076923077,248.16093679627687L751.1538461538462,267.5459145427286L754.6153846153846,271.81614041519634L758.0769230769231,270L761.5384615384615,262.0951674929342L765,271.43048486472003L768.4615384615385,276.3467573221757L771.9230769230769,275.32715139960135L775.3846153846155,258.0732700135685L778.8461538461539,267.6036083148124L782.3076923076924,277.75125628140694L785.7692307692308,268.58484525080036L789.2307692307692,266.4764500468444L792.6923076923076,280.10284649957487L796.1538461538461,273.9023691640411L799.6153846153845,277.99719607450425L803.0769230769231,255.29906899630146L806.5384615384615,269.1760042069495L810,274.3841781146376L813.4615384615385,287.26739596255777L816.9230769230769,273.39613827468077L820.3846153846154,276.9045709703288L823.8461538461538,276.00911334725646L827.3076923076923,307.297159380847L830.7692307692308,267.6880649609315L834.2307692307693,285.6521739130435L837.6923076923077,288.10904462202103L841.1538461538462,291.46603760494L844.6153846153846,286.44660465766833L848.0769230769231,292.56274229749033L851.5384615384615,290.5896730827986L855,291.5712799167534L858.4615384615385,278.69853272746195L861.9230769230769,300.7691075148213L865.3846153846154,292.4321144985785L868.8461538461538,303.72845365975513L872.3076923076923,294.1962715441434L875.7692307692307,295.97867911436316L879.2307692307692,300.22216051096916L882.6923076923076,303.4704136636182L886.1538461538462,307.4784361383643" style="fill: none; stroke: #aec7e8; stroke-width: 2;"></path></g></g><path class="foreground" d="" style="display: none; fill: none;"></path></g><g transform="translate(0,0)"><path class="background" d="M0,0h900v600h-900Z" style="fill: none;"></path><g><g class="mark-line role-mark marks"><path d="M6.923076923076923,531.5344157329065L10.384615384615385,498.66305635471315L13.846153846153847,465.4235914065667L17.30769230769231,436.4204296361244L20.76923076923077,401.2820105988004L24.230769230769234,369.7103692239664L27.692307692307693,346.60878229307525L31.153846153846157,394.32424838437765L34.61538461538462,382.8446086354191L38.07692307692308,341.63258717176063L41.53846153846154,320.5208578543729L45,297.5910455024739L48.46153846153847,274.74185861795075L51.92307692307693,252.4653534564296L55.38461538461539,216.4965883702675L58.84615384615385,308.65508827328836L62.307692307692314,290.99328603399834L65.76923076923077,275.9878563635501L69.23076923076924,267.6251812067777L72.6923076923077,246.76210177906492L76.15384615384616,228.95340928413538L79.61538461538461,213.29751272106174L83.07692307692308,182.92115605700076L86.53846153846155,266.23288373762756L90,251.22367971399277L93.46153846153847,239.2782678428228L96.92307692307693,222.17142857142852L100.38461538461539,213.48429569595714L103.84615384615385,198.31114563522883L107.3076923076923,187.50547133022954L110.76923076923077,165.8100735352257L114.23076923076923,254.10153985602716L117.6923076923077,247.30904288536945L121.15384615384615,250.54441933495738L124.61538461538463,223.91147128463717L128.07692307692307,243.43211384022908L131.53846153846155,228.6655405405405L135,231.10418746093785L138.46153846153848,180.86042879454774L141.9230769230769,223.12739148919718L145.3846153846154,213.82181760981555L148.84615384615384,216.12295108157335L152.30769230769232,200.90944272445822L155.76923076923077,209.16809021667925L159.23076923076923,202.56258434083335L162.69230769230768,203.16270144453722L166.15384615384616,166.23777663407105L169.6153846153846,199.69742813918302L173.0769230769231,195.6659619450317L176.53846153846155,201.58426659382675L180,188.5338907136459L183.46153846153845,206.68804397617956L186.92307692307693,203.11804008908686L190.3846153846154,208.87233322045375L193.84615384615387,163.21839080459768L197.3076923076923,208.4175615919141L200.76923076923077,200.45146726862305L204.23076923076923,212.77619776854073L207.6923076923077,186.19130172608735L211.15384615384616,218.67311958056058L214.6153846153846,214.84354457007623L218.07692307692307,227.7008310249307L221.53846153846155,157.88578716168345L225,239.9597157723941L228.46153846153845,241.92399049881232L231.9230769230769,247.84087395650832L235.3846153846154,232.30761193250092L238.84615384615384,254.12157861234877L242.3076923076923,240.68441064638785L245.76923076923075,242.8689712274891L249.23076923076925,218.06437722036813L252.6923076923077,257.26572046244945L256.15384615384613,251.91637630662015L259.6153846153846,252.23482623039726L263.0769230769231,236.93933823529412L266.53846153846155,250.3320683111954L270,244.63667820069202L273.46153846153845,247.772777938323L276.92307692307696,229.88661364020982L280.3846153846154,244.10795792816035L283.8461538461538,242.95873163907666L287.30769230769226,244.55438066465254L290.7692307692308,235.21798365122612L294.2307692307692,242.51365229440052L297.6923076923077,239.8700413140267L301.15384615384613,241.81059690436274L304.61538461538464,228.62449124748093L308.0769230769231,240.63259430964212L311.53846153846155,237.30302247481268L315,239.4358109320604L318.46153846153845,230.8356105278297L321.9230769230769,239.64137267699493L325.38461538461536,236.27723847668182L328.8461538461538,238.52556480380494L332.3076923076923,207.3509258933905L335.7692307692308,222.70291724548517L339.2307692307692,214.4134596277405L342.6923076923077,218.20285383725414L346.1538461538462,200.44834179468586L349.61538461538464,215.3646481527575L353.0769230769231,207.16142587514685L356.53846153846155,210.31077850535294L360,191.78296781543713L363.46153846153845,211.12405164381732L366.9230769230769,207.8663154428712L370.38461538461536,210.3593333547413L373.84615384615387,202.8722891566265L377.3076923076923,210.90678699468415L380.7692307692308,209.85666899972614L384.2307692307692,209.47765212708663L387.69230769230774,201.65467625899274L391.1538461538462,209.91780821917803L394.6153846153846,210.78673923800096L398.07692307692304,212.6721940832984L401.53846153846155,204.94194508231183L405,214.34557248828327L408.46153846153845,212.3968716454532L411.9230769230769,214.84056581155593L415.3846153846154,198.61166569401357L418.84615384615387,218.52011370488415L422.3076923076923,217.0636270840422L425.7692307692308,219.14433161311803L429.2307692307692,211.40978857349785L432.6923076923077,222.49528618452587L436.15384615384613,219.941098232947L439.6153846153846,222.51532602637934L443.0769230769231,221.52745942972402L446.53846153846155,222.79570537428026L450,221.99236437893984L453.46153846153845,224.84813422042237L456.9230769230769,220.3834510595358L460.38461538461536,226.69924943271076L463.8461538461538,225.02591031576034L467.3076923076923,228.4904896802914L470.7692307692308,216.86201932963195L474.2307692307692,228.51716007335602L477.6923076923077,228.51978568200892L481.15384615384613,230.6115346894872L484.6153846153846,227.80466344038715L488.07692307692304,231.52707345002446L491.5384615384615,230.0526315789474L495.00000000000006,231.8035522708308L498.4615384615385,229.21747365928738L501.92307692307696,232.28085073532245L505.3846153846154,231.4481969089868L508.8461538461538,233.55915709099074L512.3076923076923,230.2481556002683L515.7692307692307,232.6832475073956L519.2307692307692,231.62745310636447L522.6923076923077,231.47077713551704L526.1538461538462,221.73064411190632L529.6153846153846,231.49827963715984L533.0769230769231,231.86304750154224L536.5384615384615,234.4118536437859L540,231.69924812030075L543.4615384615385,233.51718703831375L546.9230769230769,233.79008746355683L550.3846153846155,235.4256233877902L553.8461538461539,239.92172211350288L557.3076923076924,235.14874568684135L560.7692307692308,232.94412010008344L564.2307692307692,233.07101024890184L567.6923076923076,225.62257885998895L571.1538461538461,234.54011741682973L574.6153846153845,229.97864388681256L578.0769230769231,233.6061292007661L581.5384615384615,223.88059701492534L585,234.26122379699567L588.4615384615385,232.61437357822894L591.9230769230769,232.5337331334333L595.3846153846154,229.74699294898383L598.8461538461538,234.09238249594813L602.3076923076923,231.41542930923168L605.7692307692308,233.76932223543398L609.2307692307693,235.5070202808112L612.6923076923077,236.66487276082108L616.1538461538462,234.9728862751088L619.6153846153846,235.10758776896944L623.0769230769231,231.7256970610399L626.5384615384615,236.48201280070617L630,240.14262047107974L633.4615384615385,240.1538899971502L636.9230769230769,230.77590570540167L640.3846153846154,238.90443542745206L643.8461538461538,239.1659174216751L647.3076923076923,241.6309887869521L650.7692307692307,238.4860611815776L654.2307692307692,243.0890538033395L657.6923076923076,241.92211551111694L661.1538461538462,244.12240408876235L664.6153846153846,249.51131849423035L668.0769230769231,246.595771457337L671.5384615384615,246.22817955112214L675,247.9150033777559L678.4615384615385,245.52298182263294L681.9230769230769,248.84767734965786L685.3846153846154,248.4266254238296L688.8461538461538,250.69334737581178L692.3076923076924,245.87737843551793L695.7692307692308,252.93480738545696L699.2307692307693,251.28975565508247L702.6923076923077,251.9805031094179L706.1538461538462,252.06056908314383L709.6153846153846,256.9641503303368L713.0769230769231,254.44084278768233L716.5384615384615,254.64948398481363L720,253.22271857051692L723.4615384615385,260.52183777651726L726.9230769230769,258.7688674401889L730.3846153846154,255.9606214428549L733.8461538461538,255.2977099236641L737.3076923076923,259.4970119521912L740.7692307692307,259.2524933346499L744.2307692307692,263.93284446159777L747.6923076923077,255.04857226964967L751.1538461538462,261.2450470234401L754.6153846153846,266.55957535968713L758.0769230769231,261.2608389969534L761.5384615384615,256.91301688855435L765,261.096016578402L768.4615384615385,263.94080644431364L771.9230769230769,260.9285908226989L775.3846153846155,260.8496702705127L778.8461538461539,262.69402556051824L782.3076923076924,264.838850174216L785.7692307692308,261.1792432243704L789.2307692307692,259.24991298294464L792.6923076923076,282.7490663775448L796.1538461538461,263.57803199797377L799.6153846153845,270.9590274651058L803.0769230769231,261.14756153621124L806.5384615384615,266.0146200024503L810,265.3073645769933L813.4615384615385,273.6111111111111L816.9230769230769,266.22374283895607L820.3846153846154,273.8154901885192L823.8461538461538,265.45247804265995L827.3076923076923,303.05435720448656L830.7692307692308,279.734219269103L834.2307692307693,276.58780036968574L837.6923076923077,286.5463203155538L841.1538461538462,280.56174125422024L844.6153846153846,288.16942551119763L848.0769230769231,279.18736692689845L851.5384615384615,276.6488097349842L855,283.74750464652027L858.4615384615385,278.33032365606334L861.9230769230769,280.84560959770306L865.3846153846154,286.17677458073547L868.8461538461538,291.95454545454544L872.3076923076923,282.0255353105466L875.7692307692307,285.42196984531034L879.2307692307692,291.0516106464845L882.6923076923076,288.38112210801006L886.1538461538462,307.1920246854972" style="fill: none; stroke: #2ca02c; stroke-width: 2;"></path></g></g><path class="foreground" d="" style="display: none; fill: none;"></path></g><g transform="translate(0,0)"><path class="background" d="M0,0h900v600h-900Z" style="fill: none;"></path><g><g class="mark-line role-mark marks"><path d="M6.923076923076923,498.53289696422524L10.384615384615385,444.06867845993753L13.846153846153847,407.80588008730257L17.30769230769231,383.4282680054064L20.76923076923077,364.6959459459459L24.230769230769234,351.89030012790386L27.692307692307693,348.1805977531265L31.153846153846157,344.5154603558473L34.61538461538462,358.39047004635944L38.07692307692308,353.3004342167991L41.53846153846154,348.2278481012658L45,349.02135231316726L48.46153846153847,347.1846846846847L51.92307692307693,345.98372713446304L55.38461538461539,347.71089495088825L58.84615384615385,346.4758291107322L62.307692307692314,339.4844230468009L65.76923076923077,345.73518981671583L69.23076923076924,348L72.6923076923077,346.6862416107382L76.15384615384616,348.29814735028003L79.61538461538461,354.1760997763167L83.07692307692308,356.5288536401905L86.53846153846155,361.9192967462304L90,361.404833836858L93.46153846153847,361.92373118580565L96.92307692307693,364.0368490621247L100.38461538461539,365.3603742943314L103.84615384615385,364.9158351163539L107.3076923076923,367.5413240535459L110.76923076923077,315.7675387821254L114.23076923076923,387.8451961688911L117.6923076923077,372.0991363124296L121.15384615384615,346.5346099306372L124.61538461538463,321.712874004941L128.07692307692307,321.79917921890495L131.53846153846155,324.7626908790755L135,328.49181138607275L138.46153846153848,352.97071129707115L141.9230769230769,336.3949483352468L145.3846153846154,342.7838966957843L148.84615384615384,345.0821880894637L152.30769230769232,355.55555555555554L155.76923076923077,350.84256138661533L159.23076923076923,356.11040084229523L162.69230769230768,356.599295116162L166.15384615384616,373.5558408215661L169.6153846153846,362.2744032602367L173.0769230769231,366.269477543538L176.53846153846155,365.8347068518955L180,373.5787052251067L183.46153846153845,370.09586033310126L186.92307692307693,373.5129639044229L190.3846153846154,374.230330672748L193.84615384615387,385.71854798607654L197.3076923076923,378.4842167957117L200.76923076923077,379.9933326983523L204.23076923076923,380.48780487804873L207.6923076923077,385.4444396196101L211.15384615384616,382.90245769198066L214.6153846153846,385.85526315789474L218.07692307692307,385.45583540262504L221.53846153846155,236.15160349854233L225,360.0174035552977L228.46153846153845,332.56428635426926L231.9230769230769,333.02369997395607L235.3846153846154,249.61832061068708L238.84615384615384,303.0196757150665L242.3076923076923,256.69770773638965L245.76923076923075,259.3682132280356L249.23076923076925,286.5208747514911L252.6923076923077,277.25703664365375L256.15384615384613,283.8340788252173L259.6153846153846,284.4242125984252L263.0769230769231,293.81443298969066L266.53846153846155,292.0935708046937L270,297.11219432269695L273.46153846153845,298.19730192208203L276.92307692307696,313.4539558536315L280.3846153846154,305.2475869975223L283.8461538461538,310.7932011331445L287.30769230769226,314.18420333424433L290.7692307692308,319.01747942150655L294.2307692307692,319.3768194759909L297.6923076923077,323.93084302632036L301.15384615384613,324.59488163349204L304.61538461538464,334.86797562626947L308.0769230769231,329.75708502024287L311.53846153846155,333.3901720663463L315,334.44702897018396L318.46153846153845,340.44262105628104L321.9230769230769,341.5818169874532L325.38461538461536,343.76713638972143L328.8461538461538,346.4162135442412L332.3076923076923,251.12395632626846L335.7692307692308,325.18068806013304L339.2307692307692,302.7486796416795L342.6923076923077,305.93088880821153L346.1538461538462,247.7914314181335L349.61538461538464,281.39082795793934L353.0769230769231,254.68916296249915L356.53846153846155,256.21542317449644L360,276.18859345655824L363.46153846153845,265.23918647951876L366.9230769230769,269.906868451688L370.38461538461536,272.9639645305326L373.84615384615387,280.6679124721201L377.3076923076923,279.97271567958717L380.7692307692308,285.2281515854602L384.2307692307692,286.36860546601264L387.69230769230774,305.14413518886676L391.1538461538462,292.64172552013747L394.6153846153846,297.8891415227677L398.07692307692304,300.5566862205195L401.53846153846155,306.5724992793312L405,307.5929259769141L408.46153846153845,310.94109170755144L411.9230769230769,312.37705193192113L415.3846153846154,319.22134845945595L418.84615384615387,317.18500542818833L422.3076923076923,320.99739701689873L425.7692307692308,321.2039970753108L429.2307692307692,325.71765631144314L432.6923076923077,325.8326563769294L436.15384615384613,328.59565807327004L439.6153846153846,329.7273331855464L443.0769230769231,257.3207429698039L446.53846153846155,312.5361877190309L450,295.9893684544588L453.46153846153845,293.91078593344344L456.9230769230769,246.6420664206642L460.38461538461536,275.29454633790846L463.8461538461538,250.8059067657562L467.3076923076923,253.08307614788686L470.7692307692308,262.0147539001088L474.2307692307692,256.80919725695844L477.6923076923077,260.7890910519904L481.15384615384613,261.2772212122384L484.6153846153846,268.44580471782615L488.07692307692304,267.5190966456326L491.5384615384615,270.14294996751136L495.00000000000006,271.12436115843263L498.4615384615385,285.6368563685637L501.92307692307696,279.1776116387149L505.3846153846154,282.7963346142477L508.8461538461538,285.00000000000006L512.3076923076923,291.06192210703273L515.7692307692307,291.63907284768214L519.2307692307692,296.35356153364916L522.6923076923077,298.4760903836048L526.1538461538462,304.49809402795427L529.6153846153846,302.47495580436055L533.0769230769231,304.04199041163827L536.5384615384615,306.76691729323306L540,310.8154911838791L543.4615384615385,309.1683601688291L546.9230769230769,313.0663214802406L550.3846153846155,313.64250337685723L553.8461538461539,261.46837217452253L557.3076923076924,301.8745713632553L560.7692307692308,286.9596143207145L564.2307692307692,286.685419596812L567.6923076923076,251.40845070422534L571.1538461538461,271.6877097650632L574.6153846153845,253.33055439766565L578.0769230769231,256.5692834992655L581.5384615384615,265.819209039548L585,260.4821555187899L588.4615384615385,262.6305609284333L591.9230769230769,263.5552505147563L595.3846153846154,267.1588366890381L598.8461538461538,268.28533646782245L602.3076923076923,270.28802425467404L605.7692307692308,271.5717637022819L609.2307692307693,289.20518789491183L612.6923076923077,276.4633394947628L616.1538461538462,281.825444377871L619.6153846153846,284.20020909566125L623.0769230769231,289.12213740458014L626.5384615384615,289.51932139491043L630,293.59705611775524L633.4615384615385,296.48458626284474L636.9230769230769,301.1938202247191L640.3846153846154,298.545730638944L643.8461538461538,300.68842866157996L647.3076923076923,302.9572466625359L650.7692307692307,305.9096176129779L654.2307692307692,305.84862385321105L657.6923076923076,306.9132611855919L661.1538461538462,308.5514464342482L664.6153846153846,267.32104381134786L668.0769230769231,300.1121315677061L671.5384615384615,287.71669143140167L675,289.87341772151893L678.4615384615385,260.98103488644347L681.9230769230769,276.0657734470158L685.3846153846154,263.05797845048744L688.8461538461538,262.959408344154L692.3076923076924,273.09985904803204L695.7692307692308,269.50835684827433L699.2307692307693,275.1742712294043L702.6923076923077,271.85419968304274L706.1538461538462,275.4281574998706L709.6153846153846,276.547181372549L713.0769230769231,279.76869930910175L716.5384615384615,278.0458624127617L720,288.1342962360706L723.4615384615385,285.105467068446L726.9230769230769,289.05263157894734L730.3846153846154,288.65481880191174L733.8461538461538,295.49541449379603L737.3076923076923,295.348215479214L740.7692307692307,297.6871523062771L744.2307692307692,302.37128818628497L747.6923076923077,305.9964874132307L751.1538461538462,302.1657922350472L754.6153846153846,310.3736957049259L758.0769230769231,304.7191011235955L761.5384615384615,307.92951541850215L765,308.04538421866937L768.4615384615385,312.86443430515817L771.9230769230769,311.62683292922287L775.3846153846155,274.34848158518196L778.8461538461539,302.0391421539903L782.3076923076924,296.0421850930204L785.7692307692308,293.6306235201263L789.2307692307692,273.3210978560107L792.6923076923076,299.30349394839004L796.1538461538461,275.1121076233184L799.6153846153845,278.8975434391851L803.0769230769231,284.49805447470817L806.5384615384615,279.5588120053288L810,277.3013575368726L813.4615384615385,294.3342151675485L816.9230769230769,284.9729648543106L820.3846153846154,282.82726045883936L823.8461538461538,285.51472485348864L827.3076923076923,301.4366021236727L830.7692307692308,307.19854206742934L834.2307692307693,300.020574015019L837.6923076923077,310.75222980062955L841.1538461538462,307.315628393721L844.6153846153846,307.60100433690934L848.0769230769231,302.0368478296694L851.5384615384615,307.9592425261944L855,311.02025412001507L858.4615384615385,326.163306332407L861.9230769230769,313.07193559290783L865.3846153846154,318.28140432791594L868.8461538461538,320.4455051710421L872.3076923076923,320.46650298141L875.7692307692307,321.03663830526136L879.2307692307692,323.9836358987471L882.6923076923076,324.8124104207065L886.1538461538462,314.1715179424798" style="fill: none; stroke: #98df8a; stroke-width: 2;"></path></g></g><path class="foreground" d="" style="display: none; fill: none;"></path></g><g transform="translate(0,0)"><path class="background" d="M0,0h900v600h-900Z" style="fill: none;"></path><g><g class="mark-line role-mark marks"><path d="M6.923076923076923,543.2452925565525L10.384615384615385,498.8399594548935L13.846153846153847,430.76140410378156L17.30769230769231,432.90416480071644L20.76923076923077,374.7898253934037L24.230769230769234,337.5082523814015L27.692307692307693,293.04482225656875L31.153846153846157,393.8545130919481L34.61538461538462,352.7796095511218L38.07692307692308,287.18362082863126L41.53846153846154,244.67916802382382L45,275.8223988742547L48.46153846153847,228.994777588885L51.92307692307693,169.30637775047467L55.38461538461539,101.26040307563684L58.84615384615385,284.4245240347053L62.307692307692314,243.0906266525647L65.76923076923077,217.40609058587103L69.23076923076924,187.99384299640843L72.6923076923077,203.8192692945161L76.15384615384616,162.59007141946182L79.61538461538461,139.49563807980158L83.07692307692308,80.06602336211273L86.53846153846155,198.57034975741462L90,170.19517652909002L93.46153846153847,153.99818139988386L96.92307692307693,139.65836168900867L100.38461538461539,135.689748245571L103.84615384615385,104.21036989337851L107.3076923076923,89.13620584031041L110.76923076923077,40.00999375390375L114.23076923076923,160.8906882591093L117.6923076923077,135.75180648798232L121.15384615384615,128.48428904661517L124.61538461538463,106.58138443681624L128.07692307692307,114.4769264585092L131.53846153846155,83.11990278783905L135,79.40988100989901L138.46153846153848,30.217535528475082L141.9230769230769,147.36149131863868L145.3846153846154,137.27557973301637L148.84615384615384,137.3496594696421L152.30769230769232,106.51170993882792L155.76923076923077,127.57371815814284L159.23076923076923,114.28165168922753L162.69230769230768,110.47940816683162L166.15384615384616,37.59334010757998L169.6153846153846,162.16190108191648L173.0769230769231,149.9539594843462L176.53846153846155,150.15266312337434L180,126.69826858956328L183.46153846153845,146.2682926829268L186.92307692307693,130.32092101378987L190.3846153846154,132.6251896813353L193.84615384615387,53.05466237942116L197.3076923076923,177.88559754851883L200.76923076923077,168.3289883104869L204.23076923076923,168.99350649350646L207.6923076923077,147.17914879577694L211.15384615384616,166.25124244972852L214.6153846153846,152.2011617242433L218.07692307692307,152.46411129199345L221.53846153846155,83.82827363719092L225,184.27546999160148L228.46153846153845,178.3752860411899L231.9230769230769,175.7914338919925L235.3846153846154,156.04617422569856L238.84615384615384,172.33929520099164L242.3076923076923,161.72839506172835L245.76923076923075,161.00074426060573L249.23076923076925,97.48231244821217L252.6923076923077,191.7884130982368L256.15384615384613,184.64992516214866L259.6153846153846,184.8842854830878L263.0769230769231,165.63668352760064L266.53846153846155,180.9767441860465L270,170.64774193548388L273.46153846153845,173.80488535890905L276.92307692307696,119.81556702162688L280.3846153846154,198.71559633027522L283.8461538461538,191.74886696880827L287.30769230769226,194.3541783390079L290.7692307692308,174.17388231136246L294.2307692307692,190.00830909846275L297.6923076923077,181.14451586149698L301.15384615384613,183.92979348657462L304.61538461538464,137.50054678273048L308.0769230769231,208.0254465378027L311.53846153846155,201.0068203962325L315,200.03184966955968L318.46153846153845,182.41347053320857L321.9230769230769,199.2818671454219L325.38461538461536,190.02218991506615L328.8461538461538,194.83173521898482L332.3076923076923,189.94532310740894L335.7692307692308,212.76393509403218L339.2307692307692,206.99432892249519L342.6923076923077,208.11479465611086L346.1538461538462,191.12070710478372L349.61538461538464,205.4888945621649L353.0769230769231,198.13846742317983L356.53846153846155,202.10839111362665L360,166.56633479972217L363.46153846153845,221.72266459506702L366.9230769230769,214.70445501310294L370.38461538461536,216.298263921829L373.84615384615387,199.565893481923L377.3076923076923,213.47517730496455L380.7692307692308,205.06130244593683L384.2307692307692,210.5844097729781L387.69230769230774,186.93233035964073L391.1538461538462,223.59014317716955L394.6153846153846,219.66927763272406L398.07692307692304,220.19550156591058L401.53846153846155,204.82691685538654L405,219.84396512161535L408.46153846153845,213.0732961851693L411.9230769230769,215.8995815899582L415.3846153846154,186.66497975708498L418.84615384615387,231.30640380965067L422.3076923076923,226.74117803130798L425.7692307692308,227.33344192865283L429.2307692307692,210.94377510040155L432.6923076923077,228.4910051578815L436.15384615384613,217.90830945558739L439.6153846153846,223.8778343359555L443.0769230769231,227.40319523422687L446.53846153846155,237.18052270235967L450,228.70639534883716L453.46153846153845,232.2024885674785L456.9230769230769,218.9332330043701L460.38461538461536,234.18288802983133L463.8461538461538,224.92224756375697L467.3076923076923,231.1277792660059L470.7692307692308,202.14954268835191L474.2307692307692,242.9236968018131L477.6923076923077,235.94609982918962L481.15384615384613,238.39451624891603L484.6153846153846,222.63429554578474L488.07692307692304,237.45774987928533L491.5384615384615,229.3924399740428L495.00000000000006,235.88353176942118L498.4615384615385,218.97810218978094L501.92307692307696,244.3610706686079L505.3846153846154,238.78146388899276L508.8461538461538,240.59471365638763L512.3076923076923,228.97629552082554L515.7692307692307,241.86518534344623L519.2307692307692,233.25777202072535L522.6923076923077,238.28535406598024L526.1538461538462,211.5367483296214L529.6153846153846,249.3054177416154L533.0769230769231,240.80056179775283L536.5384615384615,245.83536763987888L540,230.84807073954983L543.4615384615385,245.52729351243207L546.9230769230769,237.83757808745793L550.3846153846155,244.9572013397841L553.8461538461539,260.3972578660573L557.3076923076924,253.53347502656743L560.7692307692308,249.10524450744148L564.2307692307692,249.95198603230025L567.6923076923076,234.9163518618456L571.1538461538461,252.4699712400609L574.6153846153845,241.15464273386257L578.0769230769231,248.09766702901578L581.5384615384615,221.50728759331673L585,258.95061728395063L588.4615384615385,251.93965517241375L591.9230769230769,254.05786873676777L595.3846153846154,237.26940268183665L598.8461538461538,254.37078995713415L602.3076923076923,245.1324683396783L605.7692307692308,251.7412935323383L609.2307692307693,242.3695086484004L612.6923076923077,261.6865917388503L616.1538461538462,256.09124271425486L619.6153846153846,258.92731122088924L623.0769230769231,241.55787003080528L626.5384615384615,258.5141672425708L630,251.24607329842928L633.4615384615385,262.46992782678427L636.9230769230769,231.12267013437366L640.3846153846154,263.41701988914247L643.8461538461538,258.3524327156048L647.3076923076923,264.3711812627292L650.7692307692307,247.10322452492878L654.2307692307692,262.8169014084507L657.6923076923076,254.6440807004187L661.1538461538462,258.52628965174745L664.6153846153846,273.30433760432584L668.0769230769231,271.3499912224237L671.5384615384615,263.8528523191754L675,270.78212932123574L678.4615384615385,252.99862201186266L681.9230769230769,268.31632653061223L685.3846153846154,262.8465487735311L688.8461538461538,269.8739216987392L692.3076923076924,240.38645038167937L695.7692307692308,275.18399999999997L699.2307692307693,285.18272085167365L702.6923076923077,274.0239294710327L706.1538461538462,255.6891157582743L709.6153846153846,273.4120437203547L713.0769230769231,266.94610778443115L716.5384615384615,268.9697590978985L720,255.89445910290237L723.4615384615385,280.7380825372194L726.9230769230769,273.32645237393103L730.3846153846154,276.2460796139927L733.8461538461538,262.5112107623318L737.3076923076923,277.1965440725178L740.7692307692307,279.0746338060916L744.2307692307692,274.95683822500115L747.6923076923077,250.24375684011542L751.1538461538462,283.2894443204641L754.6153846153846,283.07222517259686L758.0769230769231,278.6286019210245L761.5384615384615,267.8810510496835L765,279.9469426806993L768.4615384615385,281.36022312808416L771.9230769230769,280.2867383512545L775.3846153846155,282.9789910680588L778.8461538461539,287.89639510618275L782.3076923076924,298.23536331908554L785.7692307692308,282.77693784987537L789.2307692307692,272.89813306603185L792.6923076923076,310.2116421523677L796.1538461538461,279.56656346749224L799.6153846153845,290.17189547521775L803.0769230769231,261.99508107882775L806.5384615384615,289.9927978469353L810,282.7622014537902L813.4615384615385,294.86116714961673L816.9230769230769,274.13190398508505L820.3846153846154,291.7817201559142L823.8461538461538,286.1394151186316L827.3076923076923,315.43855007276096L830.7692307692308,273.72419239592347L834.2307692307693,312.81268465629313L837.6923076923077,316.26942005210844L841.1538461538462,315.1431682787778L844.6153846153846,293.46733668341705L848.0769230769231,300.72497351694915L851.5384615384615,303.1075930812078L855,305.9617907773048L858.4615384615385,302.2086481273107L861.9230769230769,335.8034122740005L865.3846153846154,319.1388416435413L868.8461538461538,345.3281438733055L872.3076923076923,313.50768401186303L875.7692307692307,319.1427988694968L879.2307692307692,339.8237909056826L882.6923076923076,348.9359520024614L886.1538461538462,358.2539254831835" style="fill: none; stroke: #ffbb78; stroke-width: 2;"></path></g></g><path class="foreground" d="" style="display: none; fill: none;"></path></g></g><g class="mark-group role-legend"><g transform="translate(918,0)"><path class="background" d="M0,0h101v92h-101Z" style="pointer-events: none; fill: none;"></path><g><g class="mark-group role-legend-entry"><g transform="translate(0,16)"><path class="background" d="M0,0h0v0h0Z" style="pointer-events: none; fill: none;"></path><g><g class="mark-group role-scope"><g transform="translate(0,0)"><path class="background" d="M0,0h101v11h-101Z" style="pointer-events: none; fill: none; opacity: 1;"></path><g><g class="mark-symbol role-legend-symbol" style="pointer-events: none;"><path transform="translate(6,6)" d="M-5,0L5,0" style="fill: none; stroke: #1f77b4; stroke-width: 1.5; opacity: 1;"></path></g><g class="mark-text role-legend-label" style="pointer-events: none;"><text text-anchor="start" transform="translate(16,9)" style="font-family: sans-serif; font-size: 10px; fill: #000; opacity: 1;">Clang-Polly</text></g></g><path class="foreground" d="" style="pointer-events: none; display: none; fill: none;"></path></g><g transform="translate(0,13)"><path class="background" d="M0,0h101v11h-101Z" style="pointer-events: none; fill: none; opacity: 1;"></path><g><g class="mark-symbol role-legend-symbol" style="pointer-events: none;"><path transform="translate(6,6)" d="M-5,0L5,0" style="fill: none; stroke: #aec7e8; stroke-width: 1.5; opacity: 1;"></path></g><g class="mark-text role-legend-label" style="pointer-events: none;"><text text-anchor="start" transform="translate(16,9)" style="font-family: sans-serif; font-size: 10px; fill: #000; opacity: 1;">GFortran</text></g></g><path class="foreground" d="" style="pointer-events: none; display: none; fill: none;"></path></g><g transform="translate(0,26)"><path class="background" d="M0,0h101v11h-101Z" style="pointer-events: none; fill: none; opacity: 1;"></path><g><g class="mark-symbol role-legend-symbol" style="pointer-events: none;"><path transform="translate(6,6)" d="M-5,0L5,0" style="fill: none; stroke: #ff7f0e; stroke-width: 1.5; opacity: 1;"></path></g><g class="mark-text role-legend-label" style="pointer-events: none;"><text text-anchor="start" transform="translate(16,9)" style="font-family: sans-serif; font-size: 10px; fill: #000; opacity: 1;">Julia</text></g></g><path class="foreground" d="" style="pointer-events: none; display: none; fill: none;"></path></g><g transform="translate(0,39)"><path class="background" d="M0,0h101v11h-101Z" style="pointer-events: none; fill: none; opacity: 1;"></path><g><g class="mark-symbol role-legend-symbol" style="pointer-events: none;"><path transform="translate(6,6)" d="M-5,0L5,0" style="fill: none; stroke: #ffbb78; stroke-width: 1.5; opacity: 1;"></path></g><g class="mark-text role-legend-label" style="pointer-events: none;"><text text-anchor="start" transform="translate(16,9)" style="font-family: sans-serif; font-size: 10px; fill: #000; opacity: 1;">LoopVectorization</text></g></g><path class="foreground" d="" style="pointer-events: none; display: none; fill: none;"></path></g><g transform="translate(0,52)"><path class="background" d="M0,0h101v11h-101Z" style="pointer-events: none; fill: none; opacity: 1;"></path><g><g class="mark-symbol role-legend-symbol" style="pointer-events: none;"><path transform="translate(6,6)" d="M-5,0L5,0" style="fill: none; stroke: #2ca02c; stroke-width: 1.5; opacity: 1;"></path></g><g class="mark-text role-legend-label" style="pointer-events: none;"><text text-anchor="start" transform="translate(16,9)" style="font-family: sans-serif; font-size: 10px; fill: #000; opacity: 1;">icc</text></g></g><path class="foreground" d="" style="pointer-events: none; display: none; fill: none;"></path></g><g transform="translate(0,65)"><path class="background" d="M0,0h101v11h-101Z" style="pointer-events: none; fill: none; opacity: 1;"></path><g><g class="mark-symbol role-legend-symbol" style="pointer-events: none;"><path transform="translate(6,6)" d="M-5,0L5,0" style="fill: none; stroke: #98df8a; stroke-width: 1.5; opacity: 1;"></path></g><g class="mark-text role-legend-label" style="pointer-events: none;"><text text-anchor="start" transform="translate(16,9)" style="font-family: sans-serif; font-size: 10px; fill: #000; opacity: 1;">ifort</text></g></g><path class="foreground" d="" style="pointer-events: none; display: none; fill: none;"></path></g></g></g><path class="foreground" d="" style="pointer-events: none; display: none; fill: none;"></path></g></g><g class="mark-text role-legend-title" style="pointer-events: none;"><text text-anchor="start" transform="translate(0,9)" style="font-family: sans-serif; font-size: 11px; font-weight: bold; fill: #000; opacity: 1;">Method</text></g></g><path class="foreground" d="" style="pointer-events: none; display: none; fill: none;"></path></g></g></g><path class="foreground" d="" style="display: none; fill: none;"></path></g></g></g></svg>
