<svg class="marks" width="1066" height="647" viewBox="0 0 1066 647" version="1.1" xmlns="http://www.w3.org/2000/svg" xmlns:xlink="http://www.w3.org/1999/xlink"><g transform="translate(42,10)"><g class="mark-group role-frame root"><g transform="translate(0,0)"><path class="background" d="M0.5,0.5h900v600h-900Z" style="fill: none; stroke: #ddd;"></path><g><g class="mark-group role-axis"><g transform="translate(0.5,600.5)"><path class="background" d="M0,0h0v0h0Z" style="pointer-events: none; fill: none;"></path><g><g class="mark-rule role-axis-grid" style="pointer-events: none;"><line transform="translate(0,-600)" x2="0" y2="600" style="fill: none; stroke: #ddd; stroke-width: 1; opacity: 1;"></line><line transform="translate(35,-600)" x2="0" y2="600" style="fill: none; stroke: #ddd; stroke-width: 1; opacity: 1;"></line><line transform="translate(69,-600)" x2="0" y2="600" style="fill: none; stroke: #ddd; stroke-width: 1; opacity: 1;"></line><line transform="translate(104,-600)" x2="0" y2="600" style="fill: none; stroke: #ddd; stroke-width: 1; opacity: 1;"></line><line transform="translate(138,-600)" x2="0" y2="600" style="fill: none; stroke: #ddd; stroke-width: 1; opacity: 1;"></line><line transform="translate(173,-600)" x2="0" y2="600" style="fill: none; stroke: #ddd; stroke-width: 1; opacity: 1;"></line><line transform="translate(208,-600)" x2="0" y2="600" style="fill: none; stroke: #ddd; stroke-width: 1; opacity: 1;"></line><line transform="translate(242,-600)" x2="0" y2="600" style="fill: none; stroke: #ddd; stroke-width: 1; opacity: 1;"></line><line transform="translate(277,-600)" x2="0" y2="600" style="fill: none; stroke: #ddd; stroke-width: 1; opacity: 1;"></line><line transform="translate(312,-600)" x2="0" y2="600" style="fill: none; stroke: #ddd; stroke-width: 1; opacity: 1;"></line><line transform="translate(346,-600)" x2="0" y2="600" style="fill: none; stroke: #ddd; stroke-width: 1; opacity: 1;"></line><line transform="translate(381,-600)" x2="0" y2="600" style="fill: none; stroke: #ddd; stroke-width: 1; opacity: 1;"></line><line transform="translate(415,-600)" x2="0" y2="600" style="fill: none; stroke: #ddd; stroke-width: 1; opacity: 1;"></line><line transform="translate(450,-600)" x2="0" y2="600" style="fill: none; stroke: #ddd; stroke-width: 1; opacity: 1;"></line><line transform="translate(485,-600)" x2="0" y2="600" style="fill: none; stroke: #ddd; stroke-width: 1; opacity: 1;"></line><line transform="translate(519,-600)" x2="0" y2="600" style="fill: none; stroke: #ddd; stroke-width: 1; opacity: 1;"></line><line transform="translate(554,-600)" x2="0" y2="600" style="fill: none; stroke: #ddd; stroke-width: 1; opacity: 1;"></line><line transform="translate(588,-600)" x2="0" y2="600" style="fill: none; stroke: #ddd; stroke-width: 1; opacity: 1;"></line><line transform="translate(623,-600)" x2="0" y2="600" style="fill: none; stroke: #ddd; stroke-width: 1; opacity: 1;"></line><line transform="translate(658,-600)" x2="0" y2="600" style="fill: none; stroke: #ddd; stroke-width: 1; opacity: 1;"></line><line transform="translate(692,-600)" x2="0" y2="600" style="fill: none; stroke: #ddd; stroke-width: 1; opacity: 1;"></line><line transform="translate(727,-600)" x2="0" y2="600" style="fill: none; stroke: #ddd; stroke-width: 1; opacity: 1;"></line><line transform="translate(762,-600)" x2="0" y2="600" style="fill: none; stroke: #ddd; stroke-width: 1; opacity: 1;"></line><line transform="translate(796,-600)" x2="0" y2="600" style="fill: none; stroke: #ddd; stroke-width: 1; opacity: 1;"></line><line transform="translate(831,-600)" x2="0" y2="600" style="fill: none; stroke: #ddd; stroke-width: 1; opacity: 1;"></line><line transform="translate(865,-600)" x2="0" y2="600" style="fill: none; stroke: #ddd; stroke-width: 1; opacity: 1;"></line><line transform="translate(900,-600)" x2="0" y2="600" style="fill: none; stroke: #ddd; stroke-width: 1; opacity: 1;"></line></g></g></g></g><g class="mark-group role-axis"><g transform="translate(0.5,0.5)"><path class="background" d="M0,0h0v0h0Z" style="pointer-events: none; fill: none;"></path><g><g class="mark-rule role-axis-grid" style="pointer-events: none;"><line transform="translate(0,600)" x2="900" y2="0" style="fill: none; stroke: #ddd; stroke-width: 1; opacity: 1;"></line><line transform="translate(0,557)" x2="900" y2="0" style="fill: none; stroke: #ddd; stroke-width: 1; opacity: 1;"></line><line transform="translate(0,514)" x2="900" y2="0" style="fill: none; stroke: #ddd; stroke-width: 1; opacity: 1;"></line><line transform="translate(0,471)" x2="900" y2="0" style="fill: none; stroke: #ddd; stroke-width: 1; opacity: 1;"></line><line transform="translate(0,429)" x2="900" y2="0" style="fill: none; stroke: #ddd; stroke-width: 1; opacity: 1;"></line><line transform="translate(0,386)" x2="900" y2="0" style="fill: none; stroke: #ddd; stroke-width: 1; opacity: 1;"></line><line transform="translate(0,343)" x2="900" y2="0" style="fill: none; stroke: #ddd; stroke-width: 1; opacity: 1;"></line><line transform="translate(0,300)" x2="900" y2="0" style="fill: none; stroke: #ddd; stroke-width: 1; opacity: 1;"></line><line transform="translate(0,257)" x2="900" y2="0" style="fill: none; stroke: #ddd; stroke-width: 1; opacity: 1;"></line><line transform="translate(0,214)" x2="900" y2="0" style="fill: none; stroke: #ddd; stroke-width: 1; opacity: 1;"></line><line transform="translate(0,171)" x2="900" y2="0" style="fill: none; stroke: #ddd; stroke-width: 1; opacity: 1;"></line><line transform="translate(0,129)" x2="900" y2="0" style="fill: none; stroke: #ddd; stroke-width: 1; opacity: 1;"></line><line transform="translate(0,86)" x2="900" y2="0" style="fill: none; stroke: #ddd; stroke-width: 1; opacity: 1;"></line><line transform="translate(0,43)" x2="900" y2="0" style="fill: none; stroke: #ddd; stroke-width: 1; opacity: 1;"></line><line transform="translate(0,0)" x2="900" y2="0" style="fill: none; stroke: #ddd; stroke-width: 1; opacity: 1;"></line></g></g></g></g><g class="mark-group role-scope pathgroup"><g transform="translate(0,0)"><path class="background" d="M0,0h900v600h-900Z" style="fill: none;"></path><g><g class="mark-line role-mark marks"><path d="M6.923076923076923,567.8458663573683L10.384615384615385,564.3591963838863L13.846153846153847,566.478942762907L17.30769230769231,562.7781352406889L20.76923076923077,562.4341115249136L24.230769230769234,559.9343008697057L27.692307692307693,554.964873054966L31.153846153846157,556.1386236093334L34.61538461538462,550.1039920166387L38.07692307692308,555.4590574119801L41.53846153846154,553.9964780501489L45,554.5950834185835L48.46153846153847,555.0682246282486L51.92307692307693,553.8200453808479L55.38461538461539,557.0407846269915L58.84615384615385,557.2641085409067L62.307692307692314,556.4236455520848L65.76923076923077,554.1950539449159L69.23076923076924,554.6366640060294L72.6923076923077,551.9348360241896L76.15384615384616,556.4800608059626L79.61538461538461,556.5021869032219L83.07692307692308,554.2243501713494L86.53846153846155,553.4108533426444L90,552.4600833275541L93.46153846153847,559.0942683527672L96.92307692307693,557.1176864727147L100.38461538461539,555.4940514448365L103.84615384615385,554.5015535328731L107.3076923076923,554.4745910257293L110.76923076923077,552.5056553373448L114.23076923076923,553.7778057848636L117.6923076923077,556.3119616447261L121.15384615384615,555.0568450971103L124.61538461538463,554.5569915835L128.07692307692307,552.8891273198922L131.53846153846155,558.8956982209793L135,557.3886916143131L138.46153846153848,554.7379666353497L141.9230769230769,556.2815709363397L145.3846153846154,555.0022687931701L148.84615384615384,551.7318474584125L152.30769230769232,554.8778820320844L155.76923076923077,553.9344622337039L159.23076923076923,557.7926838976198L162.69230769230768,554.6878312804778L166.15384615384616,554.2069442688825L169.6153846153846,563.1124565534253L173.0769230769231,552.434466370438L176.53846153846155,553.2666092035784L180,556.9018794344928L183.46153846153845,556.5063167020029L186.92307692307693,554.5442541560483L190.3846153846154,552.5334959078315L193.84615384615387,559.411833051471L197.3076923076923,551.9617816451735L200.76923076923077,555.7548468723254L204.23076923076923,553.6146946360291L207.6923076923077,552.7399572409137L211.15384615384616,550.9141369013018L214.6153846153846,553.8190833624197L218.07692307692307,553.2877914742587L221.53846153846155,553.0705881922144L225,552.4754789598331L228.46153846153845,557.154974927726L231.9230769230769,557.1717814479507L235.3846153846154,558.7669942535294L238.84615384615384,553.1853862141226L242.3076923076923,555.9025811149769L245.76923076923075,556.2448644207067L249.23076923076925,556.0568868852615L252.6923076923077,556.2090108381544L256.15384615384613,562.0240760034247L259.6153846153846,554.349873289795L263.0769230769231,564.6155039962753L266.53846153846155,551.3372656755009L270,552.9671091737666L273.46153846153845,556.0375986247631L276.92307692307696,557.0215124079892L280.3846153846154,557.847362420109L283.8461538461538,556.7363059007957L287.30769230769226,559.8415372750895L290.7692307692308,550.4748802878383L294.2307692307692,558.3932835931589L297.6923076923077,558.7490007025364L301.15384615384613,551.6296012269938L304.61538461538464,557.4713896812469L308.0769230769231,556.7785078276761L311.53846153846155,555.5318214485347L315,555.1765771204347L318.46153846153845,559.1476725862817L321.9230769230769,557.0861727577656L325.38461538461536,555.7807967957515L328.8461538461538,556.6695264055255L332.3076923076923,554.5828597044556L335.7692307692308,555.451350943965L339.2307692307692,552.5388339490167L342.6923076923077,556.1865626017052L346.1538461538462,558.6300216761449L349.61538461538464,554.0167586259228L353.0769230769231,555.6123093203778L356.53846153846155,555.6627053462132L360,557.0076448078177L363.46153846153845,560.4032366050079L366.9230769230769,556.1863404218484L370.38461538461536,559.3974814610207L373.84615384615387,553.9106455680634L377.3076923076923,558.9054007351787L380.7692307692308,556.7156955579404L384.2307692307692,560.6648214319273L387.69230769230774,560.0066655557407L391.1538461538462,559.9232391326462L394.6153846153846,554.5490079582232L398.07692307692304,559.1757465226012L401.53846153846155,559.3867193816079L405,556.6189044404282L408.46153846153845,557.5576209248122L411.9230769230769,559.5276795104695L415.3846153846154,554.2994023874147L418.84615384615387,557.8256755394797L422.3076923076923,557.0753197242964L425.7692307692308,556.3988596159792L429.2307692307692,558.6156530206516L432.6923076923077,557.7267374820211L436.15384615384613,556.1369978211842L439.6153846153846,558.1998161810368L443.0769230769231,556.1360381351403L446.53846153846155,554.0660152231766L450,554.0814868151867L453.46153846153845,566.7679038270466L456.9230769230769,557.6416106087534L460.38461538461536,558.142149563949L463.8461538461538,555.2026282445489L467.3076923076923,557.4439845039694L470.7692307692308,556.2981393245337L474.2307692307692,555.2503895856443L477.6923076923077,557.4935572964259L481.15384615384613,561.0429577090688L484.6153846153846,558.933787468877L488.07692307692304,566.6097917893727L491.5384615384615,557.6503191902631L495.00000000000006,562.1422176748945L498.4615384615385,558.3962659364612L501.92307692307696,557.6052633946376L505.3846153846154,555.5750228398326L508.8461538461538,560.7046821722619L512.3076923076923,555.388260700039L515.7692307692307,556.6073248733976L519.2307692307692,558.6836140360945L522.6923076923077,557.937272164523L526.1538461538462,557.4484413808501L529.6153846153846,558.7247347232407L533.0769230769231,561.3441686799912L536.5384615384615,556.6366683574487L540,560.0580833457545L543.4615384615385,558.958255906975L546.9230769230769,559.9394512771996L550.3846153846155,560.367506865609L553.8461538461539,560.3049303080879L557.3076923076924,558.884073672806L560.7692307692308,556.9615271081374L564.2307692307692,558.841533399648L567.6923076923076,555.78587904023L571.1538461538461,561.7612977983778L574.6153846153845,559.2475206390473L578.0769230769231,558.4262107446884L581.5384615384615,558.6690927995841L585,559.0841061157413L588.4615384615385,556.5759318081299L591.9230769230769,559.9229546617818L595.3846153846154,558.928728524928L598.8461538461538,563.200884880456L602.3076923076923,561.9998835245472L605.7692307692308,559.8449479590525L609.2307692307693,558.3812151258063L612.6923076923077,563.5722517973767L616.1538461538462,554.7454192670322L619.6153846153846,562.8214181863499L623.0769230769231,558.1042334289087L626.5384615384615,564.1967005578193L630,562.5324238639639L633.4615384615385,562.2213047068539L636.9230769230769,564.204655988587L640.3846153846154,556.5305930636924L643.8461538461538,560.3687552380005L647.3076923076923,559.9646032856143L650.7692307692307,560.784859061896L654.2307692307692,562.0573355817875L657.6923076923076,558.4669192655202L661.1538461538462,560.1474474892196L664.6153846153846,562.2750255429514L668.0769230769231,560.7319190494276L671.5384615384615,560.2339500942907L675,558.4469826116604L678.4615384615385,563.0639345703984L681.9230769230769,560.00920262004L685.3846153846154,565.1080827067669L688.8461538461538,563.3179723502304L692.3076923076924,563.692694970228L695.7692307692308,561.6529304029305L699.2307692307693,563.3637627712956L702.6923076923077,559.3875455139575L706.1538461538462,565.8081457064641L709.6153846153846,561.4830588087931L713.0769230769231,564.4668299582571L716.5384615384615,562.2009860612332L720,562.9405266721305L723.4615384615385,565.7496831709129L726.9230769230769,561.0220874837593L730.3846153846154,561.9600490372827L733.8461538461538,562.2592245338777L737.3076923076923,562.5386924303536L740.7692307692307,560.2279767067278L744.2307692307692,562.6740431245008L747.6923076923077,564.6916513191591L751.1538461538462,564.1646115906289L754.6153846153846,562.4271811193713L758.0769230769231,561.196815422051L761.5384615384615,559.1589213004789L765,563.5068637919836L768.4615384615385,563.316295055962L771.9230769230769,561.875128222663L775.3846153846155,562.2522805913809L778.8461538461539,562.2352269802727L782.3076923076924,561.3252104866863L785.7692307692308,558.1098371143152L789.2307692307692,560.0807722386282L792.6923076923076,564.1997311071507L796.1538461538461,560.9741750845559L799.6153846153845,562.1414913957935L803.0769230769231,560.3933351543294L806.5384615384615,560.3678588438074L810,565.0206786586277L813.4615384615385,565.330710597492L816.9230769230769,565.1831817064175L820.3846153846154,561.4588189377595L823.8461538461538,563.1954968607924L827.3076923076923,561.4292169646892L830.7692307692308,565.2838048949835L834.2307692307693,562.4770346996606L837.6923076923077,561.5074652188666L841.1538461538462,565.0667995629756L844.6153846153846,562.7859684799187L848.0769230769231,563.7906062487068L851.5384615384615,567.6003160944771L855,562.8127791550822L858.4615384615385,561.0332474388788L861.9230769230769,562.9541464575832L865.3846153846154,563.158360104925L868.8461538461538,564.5119330392489L872.3076923076923,562.7586206896551L875.7692307692307,561.9735668694075L879.2307692307692,563.9426489376804L882.6923076923076,563.198506773399L886.1538461538462,565.2340814645144" style="fill: none; stroke: #ff7f0e; stroke-width: 2;"></path></g></g></g><g transform="translate(0,0)"><path class="background" d="M0,0h900v600h-900Z" style="fill: none;"></path><g><g class="mark-line role-mark marks"><path d="M6.923076923076923,548.6885358170114L10.384615384615385,543.2522500915185L13.846153846153847,540.3591597693251L17.30769230769231,538.493775422162L20.76923076923077,537.1577045368593L24.230769230769234,536.1756664388244L27.692307692307693,540.8149102805592L31.153846153846157,540.8132390626447L34.61538461538462,539.8036336274379L38.07692307692308,539.9577415189576L41.53846153846154,539.1210473093006L45,538.2615369855127L48.46153846153847,537.8499087878216L51.92307692307693,538.3455428704825L55.38461538461539,536.5353793782937L58.84615384615385,536.0617264760817L62.307692307692314,535.8894689373185L65.76923076923077,536.2038917224949L69.23076923076924,535.6234476342604L72.6923076923077,535.560385976765L76.15384615384616,535.5866988709768L79.61538461538461,536.2922774360264L83.07692307692308,534.7460943717383L86.53846153846155,534.3457410367663L90,534.0671494404213L93.46153846153847,535.3377657309197L96.92307692307693,535.2160598843144L100.38461538461539,534.6089273648782L103.84615384615385,535.0211318988422L107.3076923076923,534.4921545520348L110.76923076923077,534.9895303445996L114.23076923076923,533.6209619526202L117.6923076923077,533.5549151187496L121.15384615384615,533.7246870132118L124.61538461538463,533.8152060179672L128.07692307692307,534.1699000749339L131.53846153846155,535.3798735231077L135,534.3716433941997L138.46153846153848,535.9940359193623L141.9230769230769,536.7886853459813L145.3846153846154,536.9033412887828L148.84615384615384,536.4516404578L152.30769230769232,536.85301887799L155.76923076923077,536.4456527744526L159.23076923076923,536.4705399142717L162.69230769230768,537.1190723948268L166.15384615384616,536.6563199307009L169.6153846153846,536.2028663849078L173.0769230769231,536.7223696061757L176.53846153846155,535.2480718314723L180,536.3979117348188L183.46153846153845,536.2496758313504L186.92307692307693,535.7193873502104L190.3846153846154,536.5093488236116L193.84615384615387,535.5865765369385L197.3076923076923,535.69036912426L200.76923076923077,535.6698154338033L204.23076923076923,535.2514552915354L207.6923076923077,535.925730802637L211.15384615384616,535.4942221930505L214.6153846153846,534.5898756825122L218.07692307692307,536.2444574656953L221.53846153846155,535.6769016705721L225,535.6688280883374L228.46153846153845,535.6190753103263L231.9230769230769,535.6305139951494L235.3846153846154,535.8074889932316L238.84615384615384,535.7871169615883L242.3076923076923,535.8868979122144L245.76923076923075,535.7102376430851L249.23076923076925,535.7986578937041L252.6923076923077,535.8364116328066L256.15384615384613,535.9440083454791L259.6153846153846,536.0498520818562L263.0769230769231,536.3000694605233L266.53846153846155,536.2087267445108L270,536.2944101467726L273.46153846153845,536.0506108319076L276.92307692307696,535.584657315695L280.3846153846154,535.455060087554L283.8461538461538,535.5268519755364L287.30769230769226,535.6825612559418L290.7692307692308,535.7236554438128L294.2307692307692,535.825036522337L297.6923076923077,535.8934023581904L301.15384615384613,535.9490062411029L304.61538461538464,535.0563527566375L308.0769230769231,534.8773349118653L311.53846153846155,535.1419110081121L315,535.3456682572911L318.46153846153845,535.322444818308L321.9230769230769,535.6273412630674L325.38461538461536,535.5712058122997L328.8461538461538,535.5252858861037L332.3076923076923,534.9812819706799L335.7692307692308,534.9829947886332L339.2307692307692,534.976676853788L342.6923076923077,534.9613798376051L346.1538461538462,535.1792988608842L349.61538461538464,535.2321915246085L353.0769230769231,535.3633173014429L356.53846153846155,535.4887520470413L360,536.1739958359383L363.46153846153845,536.4162233160416L366.9230769230769,536.016950768773L370.38461538461536,536.1607673036357L373.84615384615387,536.3320107561256L377.3076923076923,536.4156986364376L380.7692307692308,536.6830407788042L384.2307692307692,536.5262368954318L387.69230769230774,536.2504373064514L391.1538461538462,536.2888797581122L394.6153846153846,535.7606918192666L398.07692307692304,536.1217167009308L401.53846153846155,535.6535971045216L405,536.1301934416838L408.46153846153845,535.886207343973L411.9230769230769,536.4649444664815L415.3846153846154,536.2379317001978L418.84615384615387,535.8394253474922L422.3076923076923,535.8047904359662L425.7692307692308,535.6491500979214L429.2307692307692,535.7028781604109L432.6923076923077,535.5505387413592L436.15384615384613,535.6472997736337L439.6153846153846,536.2550571206614L443.0769230769231,535.6531521669568L446.53846153846155,536.0223236092604L450,535.9546424175671L453.46153846153845,535.6562379067067L456.9230769230769,536.031484962406L460.38461538461536,535.9376064300797L463.8461538461538,535.7331791713362L467.3076923076923,536.432778170832L470.7692307692308,535.876795626832L474.2307692307692,536.1293773152677L477.6923076923077,536.1154149231659L481.15384615384613,536.1440650957578L484.6153846153846,536.4207475968557L488.07692307692304,536.2039061910866L491.5384615384615,536.4707386182066L495.00000000000006,536.5248824281936L498.4615384615385,536.1027210956593L501.92307692307696,536.1774646446102L505.3846153846154,535.9626077411692L508.8461538461538,536.0546637925622L512.3076923076923,535.7460635736217L515.7692307692307,536.2000797517396L519.2307692307692,536.1857835004431L522.6923076923077,536.5152784776853L526.1538461538462,535.7052998855951L529.6153846153846,535.8192648705981L533.0769230769231,535.7690280199505L536.5384615384615,536.0600645914654L540,535.8859965973415L543.4615384615385,535.8742419187902L546.9230769230769,535.7908575763365L550.3846153846155,536.0382232134035L553.8461538461539,535.4931801013437L557.3076923076924,535.4905376280594L560.7692307692308,535.6044991461044L564.2307692307692,535.6196179014814L567.6923076923076,535.5145464559353L571.1538461538461,535.4890589277569L574.6153846153845,535.6587369142503L578.0769230769231,535.6403162109933L581.5384615384615,536.3653735906745L585,536.3393053335826L588.4615384615385,536.176637820103L591.9230769230769,536.5019993831403L595.3846153846154,536.4058688598341L598.8461538461538,536.2365682855605L602.3076923076923,536.2697550808415L605.7692307692308,536.5505959336293L609.2307692307693,535.8727819634103L612.6923076923077,536.1867970738938L616.1538461538462,536.1385639709488L619.6153846153846,535.921431923309L623.0769230769231,535.9152294862356L626.5384615384615,536.1525308206484L630,536.1839398586228L633.4615384615385,535.936401826288L636.9230769230769,535.684724656053L640.3846153846154,536.1191225888392L643.8461538461538,535.8136231984276L647.3076923076923,535.8702038233831L650.7692307692307,536.0341151385927L654.2307692307692,535.6780377784042L657.6923076923076,535.8764027036908L661.1538461538462,536.0257632503306L664.6153846153846,535.2563633582303L668.0769230769231,535.566263897157L671.5384615384615,535.2226829229045L675,535.4663803408631L678.4615384615385,535.5690471099044L681.9230769230769,535.755352043117L685.3846153846154,535.6547067390441L688.8461538461538,535.6825714043313L692.3076923076924,535.7112532262304L695.7692307692308,535.3587070258142L699.2307692307693,535.6574782914491L702.6923076923077,535.274692572789L706.1538461538462,535.4325120128905L709.6153846153846,535.4686282685744L713.0769230769231,535.6673381342576L716.5384615384615,535.9950582919564L720,535.5166243602014L723.4615384615385,535.8433382708349L726.9230769230769,535.7702196717145L730.3846153846154,535.7071408958201L733.8461538461538,535.7073358390325L737.3076923076923,535.7963760535639L740.7692307692307,535.7877996819396L744.2307692307692,535.7422378945557L747.6923076923077,535.2131465293904L751.1538461538462,535.0836611164326L754.6153846153846,535.3027855622064L758.0769230769231,535.3627721049688L761.5384615384615,535.5897442057044L765,535.7210497835498L768.4615384615385,535.6306716695237L771.9230769230769,535.6110669875894L775.3846153846155,535.4976323535685L778.8461538461539,535.2585055936652L782.3076923076924,535.2168757548085L785.7692307692308,535.2612772857834L789.2307692307692,535.4358689616879L792.6923076923076,535.325412649599L796.1538461538461,535.6860799875506L799.6153846153845,535.6854583711812L803.0769230769231,535.7864015872264L806.5384615384615,535.8213745121797L810,535.5771495061712L813.4615384615385,535.9269014382365L816.9230769230769,536.1566697078356L820.3846153846154,536.5319060698989L823.8461538461538,536.081234893149L827.3076923076923,536.0284380664369L830.7692307692308,535.5148909692564L834.2307692307693,535.8666706505866L837.6923076923077,536.3186146208476L841.1538461538462,536.2007722007722L844.6153846153846,535.740315418772L848.0769230769231,535.790776056999L851.5384615384615,535.9139073956276L855,536.6174183514775L858.4615384615385,535.7651287276882L861.9230769230769,535.7619135818802L865.3846153846154,535.7330714318672L868.8461538461538,535.7681601867648L872.3076923076923,538.5652821446301L875.7692307692307,535.8699429256891L879.2307692307692,535.6983730506987L882.6923076923076,536.001270638787L886.1538461538462,535.4274567834802" style="fill: none; stroke: #1f77b4; stroke-width: 2;"></path></g></g></g><g transform="translate(0,0)"><path class="background" d="M0,0h900v600h-900Z" style="fill: none;"></path><g><g class="mark-line role-mark marks"><path d="M6.923076923076923,565.0009926311733L10.384615384615385,561.3068313991057L13.846153846153847,559.9676100355352L17.30769230769231,558.843655476769L20.76923076923077,557.2045675250309L24.230769230769234,556.4040273956565L27.692307692307693,408.9074505053081L31.153846153846157,474.6522770619156L34.61538461538462,485.44004657469185L38.07692307692308,494.0944475949889L41.53846153846154,504.2558309856143L45,511.73658039015686L48.46153846153847,516.2096025651844L51.92307692307693,521.4945867441246L55.38461538461539,350.71293270331586L58.84615384615385,380.5401769545195L62.307692307692314,417.52057376049015L65.76923076923077,443.6541289608336L69.23076923076924,462.77983572233853L72.6923076923077,470.9458483754513L76.15384615384616,482.52220018967154L79.61538461538461,490.2668230229233L83.07692307692308,299.02237561886886L86.53846153846155,344.421885894754L90,381.5298087739032L93.46153846153847,425.93825665859566L96.92307692307693,438.7472569152827L100.38461538461539,438.24692533464275L103.84615384615385,457.09794965228775L107.3076923076923,462.4972689207673L110.76923076923077,322.43703626293234L114.23076923076923,331.7343515109261L117.6923076923077,363.64229765013056L121.15384615384615,409.39545629572586L124.61538461538463,407.1671801524241L128.07692307692307,425.48778975681256L131.53846153846155,446.81307347897615L135,446.62507286456906L138.46153846153848,264.0507296890108L141.9230769230769,314.5798607706638L145.3846153846154,377.3668823867469L148.84615384615384,372.0750532197502L152.30769230769232,397.76930941537313L155.76923076923077,405.4277828886844L159.23076923076923,417.3916547999678L162.69230769230768,440.2836593865848L166.15384615384616,318.9246990556914L169.6153846153846,302.82171868319796L173.0769230769231,335.650621349969L176.53846153846155,359.4698714060222L180,374.0245330703322L183.46153846153845,393.99372195419977L186.92307692307693,398.7951411438578L190.3846153846154,416.0449231427979L193.84615384615387,277.1971689671068L197.3076923076923,279.6433108496416L200.76923076923077,322.2430256506272L204.23076923076923,334.0952218762164L207.6923076923077,353.4589098183031L211.15384615384616,380.88214852694796L214.6153846153846,383.14000475398143L218.07692307692307,397.0268109703603L221.53846153846155,238.70478213858902L225,304.40416413765195L228.46153846153845,311.19726232059065L231.9230769230769,341.53303978588303L235.3846153846154,347.4128114954806L238.84615384615384,368.60797496047644L242.3076923076923,394.6275293389243L245.76923076923075,387.9549654075888L249.23076923076925,269.7502999121906L252.6923076923077,269.47233993150286L256.15384615384613,290.8156606390702L259.6153846153846,329.32504736123275L263.0769230769231,339.65998477543764L266.53846153846155,357.28711379050486L270,377.11536880190766L273.46153846153845,378.34631214855744L276.92307692307696,287.3990691862527L280.3846153846154,269.8187386194338L283.8461538461538,289.5663705896866L287.30769230769226,304.8438261977992L290.7692307692308,327.72499728778877L294.2307692307692,341.08952236549146L297.6923076923077,352.00992055251305L301.15384615384613,365.96898836646466L304.61538461538464,257.5095289899928L308.0769230769231,266.8864364831419L311.53846153846155,279.46362080137715L315,309.4778651976077L318.46153846153845,318.22712038861766L321.9230769230769,333.24283648596804L325.38461538461536,353.45809159005165L328.8461538461538,365.9482006412472L332.3076923076923,263.05034181537434L335.7692307692308,280.3050991101275L339.2307692307692,301.32733671130046L342.6923076923077,302.33070250357576L346.1538461538462,320.3453777785457L349.61538461538464,327.8884587952093L353.0769230769231,346.97688025399884L356.53846153846155,355.85268508682225L360,248.53890884371233L363.46153846153845,264.8600439077936L366.9230769230769,279.6505518959748L370.38461538461536,295.1063001445768L373.84615384615387,313.42225279298697L377.3076923076923,341.2983229224817L380.7692307692308,331.34465055299916L384.2307692307692,349.91747702386607L387.69230769230774,254.61006502602504L391.1538461538462,280.61707741188826L394.6153846153846,276.66108428104064L398.07692307692304,294.629964229022L401.53846153846155,318.5021157842051L405,325.3679135647631L408.46153846153845,328.3096463607123L411.9230769230769,347.543228720179L415.3846153846154,245.83586626139808L418.84615384615387,256.32960536174033L422.3076923076923,290.4706285292749L425.7692307692308,280.08348187332894L429.2307692307692,293.2480557430952L432.6923076923077,304.69424940444605L436.15384615384613,323.8493723849371L439.6153846153846,330.93988481516476L443.0769230769231,219.09655320059943L446.53846153846155,298.9488450966447L450,269.09140890564123L453.46153846153845,289.2941495590502L456.9230769230769,297.72205544764256L460.38461538461536,311.09488424036766L463.8461538461538,322.3425381132732L467.3076923076923,329.40344880487595L470.7692307692308,215.32554834771554L474.2307692307692,247.83836338936095L477.6923076923077,263.74898156007134L481.15384615384613,283.52366587660697L484.6153846153846,292.9900475984422L488.07692307692304,306.6574202496532L491.5384615384615,318.80828883154055L495.00000000000006,326.38979874769575L498.4615384615385,242.02764086875237L501.92307692307696,252.04018280734095L505.3846153846154,258.09925039890715L508.8461538461538,274.50969739772904L512.3076923076923,281.829154425998L515.7692307692307,297.0123740899175L519.2307692307692,299.0760938753849L522.6923076923077,326.06317312732455L526.1538461538462,232.24753890524846L529.6153846153846,228.27724379295478L533.0769230769231,257.9507847570366L536.5384615384615,274.09190638712823L540,275.35687719173956L543.4615384615385,293.1197968902323L546.9230769230769,299.05486462689845L550.3846153846155,306.4131239339619L553.8461538461539,243.29474131679623L557.3076923076924,236.4092109220948L560.7692307692308,256.4753102497203L564.2307692307692,272.56001356466055L567.6923076923076,302.51902766494203L571.1538461538461,307.3823677715559L574.6153846153845,296.7335555114338L578.0769230769231,307.84662953855053L581.5384615384615,231.64384450645724L585,244.45473440971L588.4615384615385,248.68699641239775L591.9230769230769,274.8114142554304L595.3846153846154,277.8762798913932L598.8461538461538,290.9382611555348L602.3076923076923,298.04237337267045L605.7692307692308,311.6159035602012L609.2307692307693,219.32986962784335L612.6923076923077,241.74906239345376L616.1538461538462,261.33886314539666L619.6153846153846,267.6710788738332L623.0769230769231,275.14959954574147L626.5384615384615,289.21870613706193L630,297.7881175822349L633.4615384615385,311.19345316197905L636.9230769230769,274.8879128505292L640.3846153846154,234.2474489795918L643.8461538461538,261.6692184610159L647.3076923076923,262.3256830311618L650.7692307692307,269.64781958449555L654.2307692307692,277.9460588319291L657.6923076923076,296.0191279296361L661.1538461538462,304.73035385463595L664.6153846153846,230.13972499278037L668.0769230769231,247.33142473290252L671.5384615384615,263.94981584741055L675,260.77211231052524L678.4615384615385,290.22543598468724L681.9230769230769,281.01780687058493L685.3846153846154,278.27439813552485L688.8461538461538,287.86318539370563L692.3076923076924,216.09442831964176L695.7692307692308,234.82411603987998L699.2307692307693,243.73087691718035L702.6923076923077,251.1996519144703L706.1538461538462,307.4244944379702L709.6153846153846,268.23482298999215L713.0769230769231,291.2525451994349L716.5384615384615,293.9674889531291L720,223.01248348709998L723.4615384615385,233.35992674723255L726.9230769230769,247.93261733376792L730.3846153846154,258.73798099190384L733.8461538461538,270.3441184650782L737.3076923076923,271.8808706760513L740.7692307692307,281.7313647957081L744.2307692307692,286.9907270769586L747.6923076923077,207.33907851781686L751.1538461538462,215.48223350253798L754.6153846153846,232.7021162856514L758.0769230769231,247.861657333482L761.5384615384615,251.51368852569215L765,271.7937976446154L768.4615384615385,284.5736430486905L771.9230769230769,289.1354224145441L775.3846153846155,214.94001304258487L778.8461538461539,217.17302881585724L782.3076923076924,234.546742712263L785.7692307692308,249.46236299288427L789.2307692307692,258.75630252100837L792.6923076923076,267.5339881985822L796.1538461538461,278.27242524916943L799.6153846153845,293.7642162319121L803.0769230769231,223.510575148803L806.5384615384615,221.13328303457595L810,246.7930830222882L813.4615384615385,257.9693824432427L816.9230769230769,248.95770912301472L820.3846153846154,284.70640138447646L823.8461538461538,275.11196624035955L827.3076923076923,286.9108392080598L830.7692307692308,222.78607987334343L834.2307692307693,234.39146321249L837.6923076923077,250.46571351910762L841.1538461538462,262.0623165654221L844.6153846153846,249.17509760295528L848.0769230769231,259.97191011235947L851.5384615384615,280.73757153856536L855,275.3892403282721L858.4615384615385,207.10113377911344L861.9230769230769,215.245478661021L865.3846153846154,244.60325373977884L868.8461538461538,240.56592965975477L872.3076923076923,250.4170824186788L875.7692307692307,260.1363791339925L879.2307692307692,259.66871581570473L882.6923076923076,267.6309582342985L886.1538461538462,205.65734399456068" style="fill: none; stroke: #aec7e8; stroke-width: 2;"></path></g></g></g><g transform="translate(0,0)"><path class="background" d="M0,0h900v600h-900Z" style="fill: none;"></path><g><g class="mark-line role-mark marks"><path d="M6.923076923076923,535.1631726820834L10.384615384615385,496.3300850093303L13.846153846153847,463.2291595431854L17.30769230769231,429.3360032767487L20.76923076923077,393.1605074462217L24.230769230769234,358.1035316884373L27.692307692307693,342.01870364398576L31.153846153846157,407.08492468780844L34.61538461538462,385.9499764309283L38.07692307692308,377.7875139864382L41.53846153846154,342.47046186895807L45,329.8389892798202L48.46153846153847,297.45608721986673L51.92307692307693,275.58381202551743L55.38461538461539,241.00798059502594L58.84615384615385,317.60358640893054L62.307692307692314,301.47897856311965L65.76923076923077,288.7086712414223L69.23076923076924,268.74668082846523L72.6923076923077,252.2378813690568L76.15384615384616,263.16887579774175L79.61538461538461,218.99966803142635L83.07692307692308,180.35495501802768L86.53846153846155,325.85990717182005L90,263.40058633781007L93.46153846153847,296.4821287631074L96.92307692307693,285.3235139400315L100.38461538461539,220.3332021513839L103.84615384615385,262.0822631789046L107.3076923076923,249.041991869611L110.76923076923077,230.08494208494204L114.23076923076923,243.22583443579342L117.6923076923077,230.26279431654564L121.15384615384615,249.27930888774117L124.61538461538463,212.59543357966757L128.07692307692307,199.10813904626661L131.53846153846155,295.91116734938976L135,166.9176449622418L138.46153846153848,210.49626530053573L141.9230769230769,224.16477994367438L145.3846153846154,313.1186929360884L148.84615384615384,202.6227074505922L152.30769230769232,194.01421716064397L155.76923076923077,209.23241458679644L159.23076923076923,199.52215844526665L162.69230769230768,279.8584298584299L166.15384615384616,270.89422519796557L169.6153846153846,249.8943343061286L173.0769230769231,226.33318311551741L176.53846153846155,177.99012025348028L180,169.51493468674593L183.46153846153845,162.06955732223122L186.92307692307693,179.22846805644735L190.3846153846154,145.5438802400513L193.84615384615387,121.09738488689233L197.3076923076923,232.8948904541386L200.76923076923077,170.59520915904812L204.23076923076923,162.6449655062803L207.6923076923077,164.74354607996725L211.15384615384616,148.54137843828562L214.6153846153846,161.64110734913365L218.07692307692307,156.85083055381256L221.53846153846155,180.006608657341L225,198.83193350432373L228.46153846153845,173.03121905456814L231.9230769230769,200.94464235680255L235.3846153846154,145.45821721394245L238.84615384615384,137.72843078665102L242.3076923076923,205.45155645118516L245.76923076923075,147.61690878291662L249.23076923076925,145.2891868171005L252.6923076923077,158.60409927994402L256.15384615384613,148.47180176231305L259.6153846153846,228.7574248515029L263.0769230769231,136.2417399640307L266.53846153846155,130.23395836917248L270,188.85354722721607L273.46153846153845,167.86836624299914L276.92307692307696,125.3777760057413L280.3846153846154,222.47994797311935L283.8461538461538,164.91976771662002L287.30769230769226,161.2018806726035L290.7692307692308,159.91414403078963L294.2307692307692,124.87807262622346L297.6923076923077,131.03987146048613L301.15384615384613,113.83949716932176L304.61538461538464,126.25288821607845L308.0769230769231,143.33742204101372L311.53846153846155,138.6304245014342L315,136.91709844559577L318.46153846153845,203.9083969465648L321.9230769230769,123.11315379648266L325.38461538461536,133.23903818953318L328.8461538461538,130.08089147338524L332.3076923076923,139.78594695207073L335.7692307692308,175.02926673525124L339.2307692307692,195.62542720437455L342.6923076923077,197.50228390917195L346.1538461538462,159.31417152848394L349.61538461538464,148.4215480414163L353.0769230769231,181.49870170221266L356.53846153846155,104.64876535405492L360,120.22091406927808L363.46153846153845,143.90955207327843L366.9230769230769,137.97168353152105L370.38461538461536,133.56486252524832L373.84615384615387,129.3220688234082L377.3076923076923,200.82631080909903L380.7692307692308,120.50700741962075L384.2307692307692,116.26761724223189L387.69230769230774,61.732090618409316L391.1538461538462,203.1041890440386L394.6153846153846,156.98198850486946L398.07692307692304,132.04653302010206L401.53846153846155,202.73972602739724L405,193.9312806782686L408.46153846153845,131.15545862566916L411.9230769230769,125.70009630454895L415.3846153846154,126.66896490904568L418.84615384615387,138.8559964264412L422.3076923076923,165.67155521611764L425.7692307692308,157.9609194112294L429.2307692307692,133.47656130395285L432.6923076923077,129.5378143753077L436.15384615384613,221.74420111442262L439.6153846153846,92.47266167007908L443.0769230769231,89.20171562537126L446.53846153846155,113.71841708998767L450,170.85534449814548L453.46153846153845,140.21218792561015L456.9230769230769,102.40954306882455L460.38461538461536,154.45283681714383L463.8461538461538,191.4617095779268L467.3076923076923,128.37770143704688L470.7692307692308,81.85087955019952L474.2307692307692,112.08065861531207L477.6923076923077,144.82605267945573L481.15384615384613,105.0498946024869L484.6153846153846,142.62732076883503L488.07692307692304,109.92237541170822L491.5384615384615,131.56632027280196L495.00000000000006,175.03563283922463L498.4615384615385,120.87005777727424L501.92307692307696,140.51251858794384L505.3846153846154,104.18034510082957L508.8461538461538,157.59830427823675L512.3076923076923,124.3148974208419L515.7692307692307,102.73510294986595L519.2307692307692,123.44060260024344L522.6923076923077,182.16298953115802L526.1538461538462,102.46997871400447L529.6153846153846,127.17108794232128L533.0769230769231,94.09646100845595L536.5384615384615,106.05277120590073L540,87.94324338823016L543.4615384615385,106.19606345009338L546.9230769230769,115.80864095348444L550.3846153846155,108.68691606556547L553.8461538461539,86.87760822991604L557.3076923076924,172.35437829497238L560.7692307692308,79.13628617109114L564.2307692307692,112.48504555354457L567.6923076923076,158.38519002569316L571.1538461538461,141.51141628535825L574.6153846153845,85.32037231169993L578.0769230769231,126.13996700326456L581.5384615384615,121.83379205521088L585,110.74713134874798L588.4615384615385,208.25506673257536L591.9230769230769,134.82812628802222L595.3846153846154,69.12458751800972L598.8461538461538,87.93316392441896L602.3076923076923,84.98055137559982L605.7692307692308,116.75386397220319L609.2307692307693,46.730032628741625L612.6923076923077,111.81595938068068L616.1538461538462,108.87500878854839L619.6153846153846,177.65616807421014L623.0769230769231,101.97886039744877L626.5384615384615,147.8324991681454L630,82.31269243927466L633.4615384615385,148.58948698318093L636.9230769230769,107.9061877719596L640.3846153846154,167.45332806132947L643.8461538461538,92.98630301573942L647.3076923076923,90.31400639726085L650.7692307692307,197.2625667833037L654.2307692307692,97.90811088295688L657.6923076923076,82.13042098959859L661.1538461538462,79.4116322025499L664.6153846153846,69.6193139660977L668.0769230769231,165.42246577420445L671.5384615384615,105.0592554822567L675,187.0345056810781L678.4615384615385,64.70371151412897L681.9230769230769,135.4278404994024L685.3846153846154,64.5066619928923L688.8461538461538,101.01325141507299L692.3076923076924,152.19514036566787L695.7692307692308,123.78333677899514L699.2307692307693,73.5027252641984L702.6923076923077,109.50254500895457L706.1538461538462,116.14151739195155L709.6153846153846,173.73032758326715L713.0769230769231,89.2350923591883L716.5384615384615,127.48120553416604L720,43.10240863572285L723.4615384615385,132.6545004620177L726.9230769230769,131.2911581350426L730.3846153846154,120.3719300932217L733.8461538461538,91.83616159184815L737.3076923076923,185.33332773306896L740.7692307692307,91.71087697911189L744.2307692307692,93.59819661025861L747.6923076923077,120.72503249025294L751.1538461538462,129.75960920426786L754.6153846153846,127.42047587408403L758.0769230769231,100.99432634988781L761.5384615384615,134.57452781458437L765,92.79571720463562L768.4615384615385,174.05195208346035L771.9230769230769,82.48868851661442L775.3846153846155,99.42123887951841L778.8461538461539,104.70327524620518L782.3076923076924,102.57749929112951L785.7692307692308,125.06091245522445L789.2307692307692,111.69783667239996L792.6923076923076,95.86518776355936L796.1538461538461,170.71948837348302L799.6153846153845,83.23487673674126L803.0769230769231,77.79111644657868L806.5384615384615,139.1620457867641L810,126.49982740267755L813.4615384615385,118.61738176126204L816.9230769230769,96.68752355823588L820.3846153846154,173.94220424436753L823.8461538461538,82.3058808348656L827.3076923076923,171.67895818081195L830.7692307692308,67.0293593471531L834.2307692307693,96.71049708373198L837.6923076923077,146.63171241840723L841.1538461538462,144.67165706782436L844.6153846153846,115.30780251031707L848.0769230769231,73.86618721874088L851.5384615384615,67.41279269775009L855,188.2057773100019L858.4615384615385,66.59732961102824L861.9230769230769,68.13348963538442L865.3846153846154,116.47504558202802L868.8461538461538,110.40998887599885L872.3076923076923,90.96278914523248L875.7692307692307,66.32777016474071L879.2307692307692,104.00308956219489L882.6923076923076,50.13697126576086L886.1538461538462,165.4259562764924" style="fill: none; stroke: #2ca02c; stroke-width: 2;"></path></g></g></g><g transform="translate(0,0)"><path class="background" d="M0,0h900v600h-900Z" style="fill: none;"></path><g><g class="mark-line role-mark marks"><path d="M6.923076923076923,538.511725241583L10.384615384615385,506.11112270233053L13.846153846153847,474.64709203839635L17.30769230769231,443.88023003833973L20.76923076923077,412.65627604600763L24.230769230769234,380.7928613224108L27.692307692307693,357.1853922343076L31.153846153846157,412.96545411679864L34.61538461538462,391.9818981912073L38.07692307692308,378.91411939858097L41.53846153846154,346.8357994621914L45,339.010731367479L48.46153846153847,303.0909451159103L51.92307692307693,281.8831554813325L55.38461538461539,243.95604395604389L58.84615384615385,319.26089354660786L62.307692307692314,302.83861576126515L65.76923076923077,290.2983449477352L69.23076923076924,269.74420066845363L72.6923076923077,252.26480836236925L76.15384615384616,263.9147694223056L79.61538461538461,220.00044146212255L83.07692307692308,183.15833439686273L86.53846153846155,329.2232482346551L90,247.1452142222544L93.46153846153847,285.54529312815396L96.92307692307693,274.66144558655566L100.38461538461539,214.86324642258313L103.84615384615385,248.9157116277615L107.3076923076923,246.1543745563621L110.76923076923077,206.2016013679035L114.23076923076923,249.40005541228868L117.6923076923077,227.85710626276224L121.15384615384615,239.039373125665L124.61538461538463,216.82229687411026L128.07692307692307,196.5711077735166L131.53846153846155,288.53485345239466L135,164.8821646784986L138.46153846153848,224.11311830121267L141.9230769230769,225.77208106011076L145.3846153846154,296.63606490734776L148.84615384615384,206.89503249256526L152.30769230769232,198.14895190820562L155.76923076923077,211.22548112509244L159.23076923076923,204.57087619968232L162.69230769230768,275.22050142370995L166.15384615384616,227.20701874892669L169.6153846153846,247.49392056201023L173.0769230769231,229.68201036146013L176.53846153846155,177.08740776957956L180,170.0824825645486L183.46153846153845,164.83529178769467L186.92307692307693,184.69244206718506L190.3846153846154,147.89167575427118L193.84615384615387,126.73510642514563L197.3076923076923,231.54548531849696L200.76923076923077,167.87935664866262L204.23076923076923,163.49481740716683L207.6923076923077,158.25930662611026L211.15384615384616,147.47324628330853L214.6153846153846,163.43801652892554L218.07692307692307,156.38202915798854L221.53846153846155,177.2687967007383L225,202.2353782189282L228.46153846153845,173.40733444132476L231.9230769230769,194.9293027791321L235.3846153846154,142.65866750868332L238.84615384615384,136.25520636122673L242.3076923076923,166.37554585152833L245.76923076923075,146.05373293213205L249.23076923076925,142.24591626366396L252.6923076923077,156.95319669623734L256.15384615384613,146.66485699479298L259.6153846153846,232.97083539298063L263.0769230769231,134.0772051711576L266.53846153846155,127.27928447778409L270,156.21831195943918L273.46153846153845,178.88914388989687L276.92307692307696,124.95350897496269L280.3846153846154,222.93603027469382L283.8461538461538,149.26338590270456L287.30769230769226,161.6711134479904L290.7692307692308,159.43589616932988L294.2307692307692,119.20993511158741L297.6923076923077,128.20495787247702L301.15384615384613,108.79908935685818L304.61538461538464,168.356729975227L308.0769230769231,141.93036329481566L311.53846153846155,136.89586827260248L315,137.09476309226923L318.46153846153845,204.2869925974132L321.9230769230769,121.43584838971239L325.38461538461536,128.08054308432946L328.8461538461538,126.61146753552114L332.3076923076923,142.82632562260432L335.7692307692308,173.44039310639505L339.2307692307692,180.28094784424215L342.6923076923077,194.50299952318113L346.1538461538462,160.41900486344923L349.61538461538464,147.07286740075702L353.0769230769231,153.37253115813L356.53846153846155,104.00720615444543L360,115.62377362874021L363.46153846153845,144.54562234664365L366.9230769230769,138.1144670155341L370.38461538461536,133.6321483771252L373.84615384615387,129.43842445717112L377.3076923076923,200.69440993788814L380.7692307692308,120.59593232912277L384.2307692307692,116.177895018857L387.69230769230774,62.256456728590656L391.1538461538462,179.0048841128626L394.6153846153846,150.31869262530552L398.07692307692304,129.29696157085232L401.53846153846155,208.1557882268139L405,197.04797047970473L408.46153846153845,129.6147505820964L411.9230769230769,137.53314184710567L415.3846153846154,104.741068986879L418.84615384615387,134.4807362980224L422.3076923076923,156.59460233020627L425.7692307692308,154.04538144907858L429.2307692307692,133.80130498305667L432.6923076923077,130.0248613501624L436.15384615384613,206.63372691854113L439.6153846153846,90.19471998304654L443.0769230769231,87.40882886252564L446.53846153846155,110.07989738517642L450,150.9203665016203L453.46153846153845,137.7579281817637L456.9230769230769,98.27934205133349L460.38461538461536,133.3489273541401L463.8461538461538,180.88230581388635L467.3076923076923,121.22467571905764L470.7692307692308,70.98028984132252L474.2307692307692,109.39033907329198L477.6923076923077,120.42099688885939L481.15384615384613,102.27050626941706L484.6153846153846,139.96675969770135L488.07692307692304,104.227710339054L491.5384615384615,106.31591146135125L495.00000000000006,171.54250732884978L498.4615384615385,89.04771550102713L501.92307692307696,118.54309726929651L505.3846153846154,102.25656677164838L508.8461538461538,157.00424499696777L512.3076923076923,121.89519023689877L515.7692307692307,101.4900175658035L519.2307692307692,127.18268920228223L522.6923076923077,178.23010412507293L526.1538461538462,104.59779563526L529.6153846153846,126.58287034490341L533.0769230769231,95.07689422355583L536.5384615384615,105.2620459688502L540,88.32752613240409L543.4615384615385,105.15527108725236L546.9230769230769,115.99356365515759L550.3846153846155,108.10491223468391L553.8461538461539,94.17063551925511L557.3076923076924,170.27676564074727L560.7692307692308,77.33643624054574L564.2307692307692,106.78720393266784L567.6923076923076,140.46142587528402L571.1538461538461,122.55958009837961L574.6153846153845,82.3119412237107L578.0769230769231,122.46370409635713L581.5384615384615,112.88239150752571L585,105.78941662115705L588.4615384615385,192.56733719740876L591.9230769230769,110.4056388802525L595.3846153846154,68.48005414780656L598.8461538461538,106.39885441602253L602.3076923076923,82.29804358063262L605.7692307692308,112.67318225754485L609.2307692307693,43.80099571290263L612.6923076923077,106.46103503303954L616.1538461538462,101.63610735640913L619.6153846153846,174.6014234285051L623.0769230769231,98.11620752825681L626.5384615384615,130.4310383494056L630,77.71218933605488L633.4615384615385,131.44292893036615L636.9230769230769,100.08616232982939L640.3846153846154,150.87680767671304L643.8461538461538,89.32887340055996L647.3076923076923,111.68850869256634L650.7692307692307,185.90179813232655L654.2307692307692,95.09588828949738L657.6923076923076,79.71024605699645L661.1538461538462,76.98568807201039L664.6153846153846,69.66875222331481L668.0769230769231,150.82408199510138L671.5384615384615,95.99616235260714L675,186.16286406712035L678.4615384615385,63.22509020260885L681.9230769230769,118.86542324831993L685.3846153846154,62.43037207815154L688.8461538461538,99.19513909356783L692.3076923076924,137.1924958026132L695.7692307692308,121.71237211527439L699.2307692307693,71.94525762974497L702.6923076923077,107.24243535017904L706.1538461538462,109.0530508781459L709.6153846153846,154.70468581737185L713.0769230769231,84.3588020483327L716.5384615384615,112.5420424320335L720,41.44482102233151L723.4615384615385,123.22022270304502L726.9230769230769,146.02834982615673L730.3846153846154,99.56953286037131L733.8461538461538,87.8167001585393L737.3076923076923,180.3672160628398L740.7692307692307,86.47133536261902L744.2307692307692,91.34424345120415L747.6923076923077,117.02839009463362L751.1538461538462,125.72552239773518L754.6153846153846,128.13852813852805L758.0769230769231,99.83669626947031L761.5384615384615,132.393688232374L765,87.8858049680992L768.4615384615385,171.67053012594369L771.9230769230769,81.03353222713885L775.3846153846155,86.39972968406818L778.8461538461539,101.35499452385632L782.3076923076924,98.94179894179888L785.7692307692308,122.99979433864962L789.2307692307692,102.91079552525679L792.6923076923076,92.16852234621165L796.1538461538461,167.63612138024422L799.6153846153845,82.45691268076858L803.0769230769231,70.06237106213531L806.5384615384615,136.19765840711753L810,126.02061986834623L813.4615384615385,112.09454529374044L816.9230769230769,94.37686585814696L820.3846153846154,167.83346811091477L823.8461538461538,81.38194952057434L827.3076923076923,170.68752914766299L830.7692307692308,62.22124771863615L834.2307692307693,88.61470814818375L837.6923076923077,138.2048582013848L841.1538461538462,136.2473964758863L844.6153846153846,118.3379134485578L848.0769230769231,70.32741059666476L851.5384615384615,65.01369964000052L855,180.56532073817075L858.4615384615385,55.867313735334065L861.9230769230769,65.46652502526216L865.3846153846154,109.52112293680713L868.8461538461538,108.09146555454234L872.3076923076923,88.31782812040284L875.7692307692307,63.57445965655704L879.2307692307692,101.08888240492891L882.6923076923076,48.21744085544481L886.1538461538462,145.06130320980841" style="fill: none; stroke: #98df8a; stroke-width: 2;"></path></g></g></g><g transform="translate(0,0)"><path class="background" d="M0,0h900v600h-900Z" style="fill: none;"></path><g><g class="mark-line role-mark marks"><path d="M6.923076923076923,551.3695073667814L10.384615384615385,525.2630878954631L13.846153846153847,502.29510334485235L17.30769230769231,474.6067077252644L20.76923076923077,453.84290265947067L24.230769230769234,430.3520887580663L27.692307692307693,406.0288335517693L31.153846153846157,452.5800945378151L34.61538461538462,453.40201339652947L38.07692307692308,416.20215865078745L41.53846153846154,399.60549630570694L45,382.7334434868038L48.46153846153847,366.0238894527285L51.92307692307693,349.37001025824003L55.38461538461539,327.85220029314513L58.84615384615385,407.76326833067424L62.307692307692314,383.4700772200772L65.76923076923077,380.11947967530006L69.23076923076924,360.5974258820516L72.6923076923077,350.5559879906594L76.15384615384616,340.37870307597706L79.61538461538461,328.26490547554533L83.07692307692308,316.26204574021517L86.53846153846155,360.4294950738916L90,348.2696943774788L93.46153846153847,392.84738555714176L96.92307692307693,385.34445563066294L100.38461538461539,306.0751052164306L103.84615384615385,370.2269022157057L107.3076923076923,304.5377700939706L110.76923076923077,339.66172578660183L114.23076923076923,330.19129424912074L117.6923076923077,339.54350180412763L121.15384615384615,359.06635178415456L124.61538461538463,305.61807602537823L128.07692307692307,312.79566872620603L131.53846153846155,339.60042466943344L135,286.98072114221173L138.46153846153848,263.7066549616774L141.9230769230769,320.7405986185725L145.3846153846154,357.7675176534492L148.84615384615384,314.00468384074935L152.30769230769232,310.1861586987445L155.76923076923077,293.16636835142293L159.23076923076923,286.35359646595595L162.69230769230768,320.78539089885567L166.15384615384616,314.94025335451266L169.6153846153846,304.25054657997094L173.0769230769231,314.3317898034879L176.53846153846155,308.798440539825L180,301.88747577566045L183.46153846153845,303.91617265549615L186.92307692307693,284.97565336030675L190.3846153846154,294.5493632712778L193.84615384615387,291.94104085174723L197.3076923076923,301.3408388349788L200.76923076923077,310.4124428843768L204.23076923076923,297.3654244306418L207.6923076923077,288.2678401040155L211.15384615384616,300.979405094755L214.6153846153846,268.2588475825727L218.07692307692307,266.41316544071805L221.53846153846155,256.9005063400701L225,327.4910677156266L228.46153846153845,308.24248100676806L231.9230769230769,301.23339658444024L235.3846153846154,282.3920558658514L238.84615384615384,283.55179769375826L242.3076923076923,319.437165318446L245.76923076923075,261.4026289649054L249.23076923076925,281.1064920937099L252.6923076923077,291.9800498753117L256.15384615384613,275.5260702809163L259.6153846153846,303.74416101574946L263.0769230769231,289.331271743332L266.53846153846155,283.3777708580659L270,295.5813130325907L273.46153846153845,272.320182814022L276.92307692307696,256.41879543516217L280.3846153846154,291.4620172803567L283.8461538461538,281.02737989605777L287.30769230769226,285.12655790235857L290.7692307692308,268.6372820474444L294.2307692307692,264.45216898759196L297.6923076923077,259.4863430781859L301.15384615384613,251.49239365898757L304.61538461538464,257.09222009183236L308.0769230769231,278.0833859232539L311.53846153846155,280.34547861374534L315,258.62510674637053L318.46153846153845,246.13540417991345L321.9230769230769,276.0011068880127L325.38461538461536,263.6806591239209L328.8461538461538,277.03274666272375L332.3076923076923,275.79328103699146L335.7692307692308,315.16424269046314L339.2307692307692,304.78942425774756L342.6923076923077,275.9552374231273L346.1538461538462,284.54224792380035L349.61538461538464,271.8489155520674L353.0769230769231,286.3011737761237L356.53846153846155,272.54167353632823L360,274.7024209710777L363.46153846153845,270.75968155444605L366.9230769230769,268.16634449253297L370.38461538461536,262.2502420229452L373.84615384615387,263.8575425407975L377.3076923076923,293.55186688421134L380.7692307692308,258.0550500793073L384.2307692307692,259.1363882351461L387.69230769230774,253.36414540929684L391.1538461538462,282.13614583715565L394.6153846153846,274.3571125207216L398.07692307692304,265.9584842574533L401.53846153846155,269.8472500921413L405,266.17174136161475L408.46153846153845,248.4435698481805L411.9230769230769,255.4149671189544L415.3846153846154,265.1011685553767L418.84615384615387,281.96686294989615L422.3076923076923,288.7486039630687L425.7692307692308,273.3951933521815L429.2307692307692,257.0651459655899L432.6923076923077,250.8420148397548L436.15384615384613,257.21480471106673L439.6153846153846,263.38877578458107L443.0769230769231,239.87446655051795L446.53846153846155,277.10546288819495L450,278.042934466731L453.46153846153845,269.84470115309523L456.9230769230769,269.6388463479652L460.38461538461536,267.69191569904996L463.8461538461538,260.01867275729103L467.3076923076923,231.58729741502313L470.7692307692308,240.3723379043049L474.2307692307692,262.06441610710687L477.6923076923077,272.517136039134L481.15384615384613,272.2629655483924L484.6153846153846,250.28838431773383L488.07692307692304,259.63540704257053L491.5384615384615,265.7975495512125L495.00000000000006,247.534522498615L498.4615384615385,254.65693235544708L501.92307692307696,271.7928233806005L505.3846153846154,257.30622742586826L508.8461538461538,257.84600002272384L512.3076923076923,260.55154456148654L515.7692307692307,252.59481589635692L519.2307692307692,228.89238650742212L522.6923076923077,268.63397847212707L526.1538461538462,249.87591258463243L529.6153846153846,254.00638866210633L533.0769230769231,266.5353408437506L536.5384615384615,257.66269836964517L540,258.3061019413654L543.4615384615385,263.7633606911186L546.9230769230769,252.65725300714118L550.3846153846155,240.06383344147167L553.8461538461539,263.42302104790826L557.3076923076924,250.96497728517576L560.7692307692308,251.2340253820839L564.2307692307692,262.10911657037L567.6923076923076,248.3588777340037L571.1538461538461,239.10301603520722L574.6153846153845,244.57216725801956L578.0769230769231,250.26489682613945L581.5384615384615,242.1690179485285L585,261.4740498112948L588.4615384615385,247.97885229650836L591.9230769230769,273.2637067088612L595.3846153846154,257.13425560891693L598.8461538461538,259.36984834367007L602.3076923076923,243.9024175553335L605.7692307692308,244.2392662339641L609.2307692307693,226.99059821948572L612.6923076923077,257.9038107708931L616.1538461538462,252.8938789888338L619.6153846153846,250.84131821313395L623.0769230769231,247.7754795114943L626.5384615384615,258.15980629539945L630,246.9330156156918L633.4615384615385,251.3530249551055L636.9230769230769,255.0912828445241L640.3846153846154,260.1987994750201L643.8461538461538,247.11238311307517L647.3076923076923,253.4944917711074L650.7692307692307,250.66890489594653L654.2307692307692,245.71539835112642L657.6923076923076,251.5507277839116L661.1538461538462,250.03915761675782L664.6153846153846,244.67620436386596L668.0769230769231,261.34209929721146L671.5384615384615,272.54217619495546L675,252.73014534944602L678.4615384615385,238.87286107511417L681.9230769230769,256.81617429293084L685.3846153846154,221.50737303532168L688.8461538461538,220.25141869034454L692.3076923076924,241.42402498566875L695.7692307692308,257.78739403398004L699.2307692307693,241.4536536830387L702.6923076923077,257.73985215468247L706.1538461538462,254.7645280424493L709.6153846153846,228.37579877777446L713.0769230769231,251.29984117696225L716.5384615384615,243.95072788353863L720,234.88496129557282L723.4615384615385,259.0314492832615L726.9230769230769,251.84898966392385L730.3846153846154,258.5259541852958L733.8461538461538,248.01975543869972L737.3076923076923,252.44539204594898L740.7692307692307,239.61995789952775L744.2307692307692,241.06777488814112L747.6923076923077,237.4869559648442L751.1538461538462,229.40627084723153L754.6153846153846,243.07335228091688L758.0769230769231,242.9206848219838L761.5384615384615,237.6726703522949L765,253.01739695372845L768.4615384615385,255.26227483346779L771.9230769230769,245.66066268999094L775.3846153846155,233.82307613274423L778.8461538461539,241.4651300799308L782.3076923076924,250.28298228826128L785.7692307692308,245.9571410456908L789.2307692307692,235.06369083450312L792.6923076923076,239.79654469518337L796.1538461538461,238.35505980378974L799.6153846153845,358.11705939841454L803.0769230769231,249.03796249988198L806.5384615384615,243.27731092436974L810,264.2020472459118L813.4615384615385,260.1143909013213L816.9230769230769,234.6674262925509L820.3846153846154,293.2142065427367L823.8461538461538,239.95509728920666L827.3076923076923,244.67366268067425L830.7692307692308,211.6889113656852L834.2307692307693,257.884072053734L837.6923076923077,297.89791906607525L841.1538461538462,296.4953706580501L844.6153846153846,224.00197052621456L848.0769230769231,224.85583432229583L851.5384615384615,223.7083031182016L855,262.7485062466051L858.4615384615385,217.61937222059916L861.9230769230769,226.87939907257757L865.3846153846154,227.71951782849445L868.8461538461538,228.03121593603805L872.3076923076923,227.5434974933647L875.7692307692307,229.31155490333703L879.2307692307692,229.2209186285449L882.6923076923076,210.01428834697944L886.1538461538462,212.60039858548166" style="fill: none; stroke: #ffbb78; stroke-width: 2;"></path></g></g></g></g><g class="mark-group role-legend"><g transform="translate(918,0)"><path class="background" d="M0,0h101v92h-101Z" style="pointer-events: none; fill: none;"></path><g><g class="mark-group role-legend-entry"><g transform="translate(0,16)"><path class="background" d="M0,0h0v0h0Z" style="pointer-events: none; fill: none;"></path><g><g class="mark-group role-scope"><g transform="translate(0,0)"><path class="background" d="M0,0h101v11h-101Z" style="pointer-events: none; fill: none; opacity: 1;"></path><g><g class="mark-symbol role-legend-symbol" style="pointer-events: none;"><path transform="translate(6,6)" d="M-5,0L5,0" style="fill: none; stroke: #1f77b4; stroke-width: 1.5; opacity: 1;"></path></g><g class="mark-text role-legend-label" style="pointer-events: none;"><text text-anchor="start" transform="translate(16,9)" style="font-family: sans-serif; font-size: 10px; fill: #000; opacity: 1;">Clang-Polly</text></g></g></g><g transform="translate(0,13)"><path class="background" d="M0,0h101v11h-101Z" style="pointer-events: none; fill: none; opacity: 1;"></path><g><g class="mark-symbol role-legend-symbol" style="pointer-events: none;"><path transform="translate(6,6)" d="M-5,0L5,0" style="fill: none; stroke: #aec7e8; stroke-width: 1.5; opacity: 1;"></path></g><g class="mark-text role-legend-label" style="pointer-events: none;"><text text-anchor="start" transform="translate(16,9)" style="font-family: sans-serif; font-size: 10px; fill: #000; opacity: 1;">GFortran</text></g></g></g><g transform="translate(0,26)"><path class="background" d="M0,0h101v11h-101Z" style="pointer-events: none; fill: none; opacity: 1;"></path><g><g class="mark-symbol role-legend-symbol" style="pointer-events: none;"><path transform="translate(6,6)" d="M-5,0L5,0" style="fill: none; stroke: #ff7f0e; stroke-width: 1.5; opacity: 1;"></path></g><g class="mark-text role-legend-label" style="pointer-events: none;"><text text-anchor="start" transform="translate(16,9)" style="font-family: sans-serif; font-size: 10px; fill: #000; opacity: 1;">Julia</text></g></g></g><g transform="translate(0,39)"><path class="background" d="M0,0h101v11h-101Z" style="pointer-events: none; fill: none; opacity: 1;"></path><g><g class="mark-symbol role-legend-symbol" style="pointer-events: none;"><path transform="translate(6,6)" d="M-5,0L5,0" style="fill: none; stroke: #ffbb78; stroke-width: 1.5; opacity: 1;"></path></g><g class="mark-text role-legend-label" style="pointer-events: none;"><text text-anchor="start" transform="translate(16,9)" style="font-family: sans-serif; font-size: 10px; fill: #000; opacity: 1;">LoopVectorization</text></g></g></g><g transform="translate(0,52)"><path class="background" d="M0,0h101v11h-101Z" style="pointer-events: none; fill: none; opacity: 1;"></path><g><g class="mark-symbol role-legend-symbol" style="pointer-events: none;"><path transform="translate(6,6)" d="M-5,0L5,0" style="fill: none; stroke: #2ca02c; stroke-width: 1.5; opacity: 1;"></path></g><g class="mark-text role-legend-label" style="pointer-events: none;"><text text-anchor="start" transform="translate(16,9)" style="font-family: sans-serif; font-size: 10px; fill: #000; opacity: 1;">icc</text></g></g></g><g transform="translate(0,65)"><path class="background" d="M0,0h101v11h-101Z" style="pointer-events: none; fill: none; opacity: 1;"></path><g><g class="mark-symbol role-legend-symbol" style="pointer-events: none;"><path transform="translate(6,6)" d="M-5,0L5,0" style="fill: none; stroke: #98df8a; stroke-width: 1.5; opacity: 1;"></path></g><g class="mark-text role-legend-label" style="pointer-events: none;"><text text-anchor="start" transform="translate(16,9)" style="font-family: sans-serif; font-size: 10px; fill: #000; opacity: 1;">ifort</text></g></g></g></g></g></g></g><g class="mark-text role-legend-title" style="pointer-events: none;"><text text-anchor="start" transform="translate(0,9)" style="font-family: sans-serif; font-size: 11px; font-weight: bold; fill: #000; opacity: 1;">Method</text></g></g></g></g><g class="mark-group role-axis"><g transform="translate(0.5,600.5)"><path class="background" d="M0,0h0v0h0Z" style="pointer-events: none; fill: none;"></path><g><g class="mark-rule role-axis-tick" style="pointer-events: none;"><line transform="translate(0,0)" x2="0" y2="5" style="fill: none; stroke: #888; stroke-width: 1; opacity: 1;"></line><line transform="translate(35,0)" x2="0" y2="5" style="fill: none; stroke: #888; stroke-width: 1; opacity: 1;"></line><line transform="translate(69,0)" x2="0" y2="5" style="fill: none; stroke: #888; stroke-width: 1; opacity: 1;"></line><line transform="translate(104,0)" x2="0" y2="5" style="fill: none; stroke: #888; stroke-width: 1; opacity: 1;"></line><line transform="translate(138,0)" x2="0" y2="5" style="fill: none; stroke: #888; stroke-width: 1; opacity: 1;"></line><line transform="translate(173,0)" x2="0" y2="5" style="fill: none; stroke: #888; stroke-width: 1; opacity: 1;"></line><line transform="translate(208,0)" x2="0" y2="5" style="fill: none; stroke: #888; stroke-width: 1; opacity: 1;"></line><line transform="translate(242,0)" x2="0" y2="5" style="fill: none; stroke: #888; stroke-width: 1; opacity: 1;"></line><line transform="translate(277,0)" x2="0" y2="5" style="fill: none; stroke: #888; stroke-width: 1; opacity: 1;"></line><line transform="translate(312,0)" x2="0" y2="5" style="fill: none; stroke: #888; stroke-width: 1; opacity: 1;"></line><line transform="translate(346,0)" x2="0" y2="5" style="fill: none; stroke: #888; stroke-width: 1; opacity: 1;"></line><line transform="translate(381,0)" x2="0" y2="5" style="fill: none; stroke: #888; stroke-width: 1; opacity: 1;"></line><line transform="translate(415,0)" x2="0" y2="5" style="fill: none; stroke: #888; stroke-width: 1; opacity: 1;"></line><line transform="translate(450,0)" x2="0" y2="5" style="fill: none; stroke: #888; stroke-width: 1; opacity: 1;"></line><line transform="translate(485,0)" x2="0" y2="5" style="fill: none; stroke: #888; stroke-width: 1; opacity: 1;"></line><line transform="translate(519,0)" x2="0" y2="5" style="fill: none; stroke: #888; stroke-width: 1; opacity: 1;"></line><line transform="translate(554,0)" x2="0" y2="5" style="fill: none; stroke: #888; stroke-width: 1; opacity: 1;"></line><line transform="translate(588,0)" x2="0" y2="5" style="fill: none; stroke: #888; stroke-width: 1; opacity: 1;"></line><line transform="translate(623,0)" x2="0" y2="5" style="fill: none; stroke: #888; stroke-width: 1; opacity: 1;"></line><line transform="translate(658,0)" x2="0" y2="5" style="fill: none; stroke: #888; stroke-width: 1; opacity: 1;"></line><line transform="translate(692,0)" x2="0" y2="5" style="fill: none; stroke: #888; stroke-width: 1; opacity: 1;"></line><line transform="translate(727,0)" x2="0" y2="5" style="fill: none; stroke: #888; stroke-width: 1; opacity: 1;"></line><line transform="translate(762,0)" x2="0" y2="5" style="fill: none; stroke: #888; stroke-width: 1; opacity: 1;"></line><line transform="translate(796,0)" x2="0" y2="5" style="fill: none; stroke: #888; stroke-width: 1; opacity: 1;"></line><line transform="translate(831,0)" x2="0" y2="5" style="fill: none; stroke: #888; stroke-width: 1; opacity: 1;"></line><line transform="translate(865,0)" x2="0" y2="5" style="fill: none; stroke: #888; stroke-width: 1; opacity: 1;"></line><line transform="translate(900,0)" x2="0" y2="5" style="fill: none; stroke: #888; stroke-width: 1; opacity: 1;"></line></g><g class="mark-text role-axis-label" style="pointer-events: none;"><text text-anchor="start" transform="translate(0,15)" style="font-family: sans-serif; font-size: 10px; fill: #000; opacity: 1;">0</text><text text-anchor="middle" transform="translate(34.61538461538462,15)" style="font-family: sans-serif; font-size: 10px; fill: #000; opacity: 1;">10</text><text text-anchor="middle" transform="translate(69.23076923076924,15)" style="font-family: sans-serif; font-size: 10px; fill: #000; opacity: 1;">20</text><text text-anchor="middle" transform="translate(103.84615384615385,15)" style="font-family: sans-serif; font-size: 10px; fill: #000; opacity: 1;">30</text><text text-anchor="middle" transform="translate(138.46153846153848,15)" style="font-family: sans-serif; font-size: 10px; fill: #000; opacity: 1;">40</text><text text-anchor="middle" transform="translate(173.0769230769231,15)" style="font-family: sans-serif; font-size: 10px; fill: #000; opacity: 1;">50</text><text text-anchor="middle" transform="translate(207.6923076923077,15)" style="font-family: sans-serif; font-size: 10px; fill: #000; opacity: 1;">60</text><text text-anchor="middle" transform="translate(242.3076923076923,15)" style="font-family: sans-serif; font-size: 10px; fill: #000; opacity: 1;">70</text><text text-anchor="middle" transform="translate(276.92307692307696,15)" style="font-family: sans-serif; font-size: 10px; fill: #000; opacity: 1;">80</text><text text-anchor="middle" transform="translate(311.53846153846155,15)" style="font-family: sans-serif; font-size: 10px; fill: #000; opacity: 1;">90</text><text text-anchor="middle" transform="translate(346.1538461538462,15)" style="font-family: sans-serif; font-size: 10px; fill: #000; opacity: 1;">100</text><text text-anchor="middle" transform="translate(380.7692307692308,15)" style="font-family: sans-serif; font-size: 10px; fill: #000; opacity: 1;">110</text><text text-anchor="middle" transform="translate(415.3846153846154,15)" style="font-family: sans-serif; font-size: 10px; fill: #000; opacity: 1;">120</text><text text-anchor="middle" transform="translate(450,15)" style="font-family: sans-serif; font-size: 10px; fill: #000; opacity: 1;">130</text><text text-anchor="middle" transform="translate(484.6153846153846,15)" style="font-family: sans-serif; font-size: 10px; fill: #000; opacity: 1;">140</text><text text-anchor="middle" transform="translate(519.2307692307692,15)" style="font-family: sans-serif; font-size: 10px; fill: #000; opacity: 1;">150</text><text text-anchor="middle" transform="translate(553.8461538461539,15)" style="font-family: sans-serif; font-size: 10px; fill: #000; opacity: 1;">160</text><text text-anchor="middle" transform="translate(588.4615384615385,15)" style="font-family: sans-serif; font-size: 10px; fill: #000; opacity: 1;">170</text><text text-anchor="middle" transform="translate(623.0769230769231,15)" style="font-family: sans-serif; font-size: 10px; fill: #000; opacity: 1;">180</text><text text-anchor="middle" transform="translate(657.6923076923076,15)" style="font-family: sans-serif; font-size: 10px; fill: #000; opacity: 1;">190</text><text text-anchor="middle" transform="translate(692.3076923076924,15)" style="font-family: sans-serif; font-size: 10px; fill: #000; opacity: 1;">200</text><text text-anchor="middle" transform="translate(726.9230769230769,15)" style="font-family: sans-serif; font-size: 10px; fill: #000; opacity: 1;">210</text><text text-anchor="middle" transform="translate(761.5384615384615,15)" style="font-family: sans-serif; font-size: 10px; fill: #000; opacity: 1;">220</text><text text-anchor="middle" transform="translate(796.1538461538461,15)" style="font-family: sans-serif; font-size: 10px; fill: #000; opacity: 1;">230</text><text text-anchor="middle" transform="translate(830.7692307692308,15)" style="font-family: sans-serif; font-size: 10px; fill: #000; opacity: 1;">240</text><text text-anchor="middle" transform="translate(865.3846153846154,15)" style="font-family: sans-serif; font-size: 10px; fill: #000; opacity: 1;">250</text><text text-anchor="end" transform="translate(900,15)" style="font-family: sans-serif; font-size: 10px; fill: #000; opacity: 1;">260</text></g><g class="mark-rule role-axis-domain" style="pointer-events: none;"><line transform="translate(0,0)" x2="900" y2="0" style="fill: none; stroke: #888; stroke-width: 1; opacity: 1;"></line></g><g class="mark-text role-axis-title" style="pointer-events: none;"><text text-anchor="middle" transform="translate(450,30)" style="font-family: sans-serif; font-size: 11px; font-weight: bold; fill: #000; opacity: 1;">Size</text></g></g></g></g><g class="mark-group role-axis"><g transform="translate(0.5,0.5)"><path class="background" d="M0,0h0v0h0Z" style="pointer-events: none; fill: none;"></path><g><g class="mark-rule role-axis-tick" style="pointer-events: none;"><line transform="translate(0,600)" x2="-5" y2="0" style="fill: none; stroke: #888; stroke-width: 1; opacity: 1;"></line><line transform="translate(0,557)" x2="-5" y2="0" style="fill: none; stroke: #888; stroke-width: 1; opacity: 1;"></line><line transform="translate(0,514)" x2="-5" y2="0" style="fill: none; stroke: #888; stroke-width: 1; opacity: 1;"></line><line transform="translate(0,471)" x2="-5" y2="0" style="fill: none; stroke: #888; stroke-width: 1; opacity: 1;"></line><line transform="translate(0,429)" x2="-5" y2="0" style="fill: none; stroke: #888; stroke-width: 1; opacity: 1;"></line><line transform="translate(0,386)" x2="-5" y2="0" style="fill: none; stroke: #888; stroke-width: 1; opacity: 1;"></line><line transform="translate(0,343)" x2="-5" y2="0" style="fill: none; stroke: #888; stroke-width: 1; opacity: 1;"></line><line transform="translate(0,300)" x2="-5" y2="0" style="fill: none; stroke: #888; stroke-width: 1; opacity: 1;"></line><line transform="translate(0,257)" x2="-5" y2="0" style="fill: none; stroke: #888; stroke-width: 1; opacity: 1;"></line><line transform="translate(0,214)" x2="-5" y2="0" style="fill: none; stroke: #888; stroke-width: 1; opacity: 1;"></line><line transform="translate(0,171)" x2="-5" y2="0" style="fill: none; stroke: #888; stroke-width: 1; opacity: 1;"></line><line transform="translate(0,129)" x2="-5" y2="0" style="fill: none; stroke: #888; stroke-width: 1; opacity: 1;"></line><line transform="translate(0,86)" x2="-5" y2="0" style="fill: none; stroke: #888; stroke-width: 1; opacity: 1;"></line><line transform="translate(0,43)" x2="-5" y2="0" style="fill: none; stroke: #888; stroke-width: 1; opacity: 1;"></line><line transform="translate(0,0)" x2="-5" y2="0" style="fill: none; stroke: #888; stroke-width: 1; opacity: 1;"></line></g><g class="mark-text role-axis-label" style="pointer-events: none;"><text text-anchor="end" transform="translate(-7,603)" style="font-family: sans-serif; font-size: 10px; fill: #000; opacity: 1;">0.0</text><text text-anchor="end" transform="translate(-7,560.1428571428571)" style="font-family: sans-serif; font-size: 10px; fill: #000; opacity: 1;">0.2</text><text text-anchor="end" transform="translate(-7,517.2857142857142)" style="font-family: sans-serif; font-size: 10px; fill: #000; opacity: 1;">0.4</text><text text-anchor="end" transform="translate(-7,474.42857142857144)" style="font-family: sans-serif; font-size: 10px; fill: #000; opacity: 1;">0.6</text><text text-anchor="end" transform="translate(-7,431.5714285714285)" style="font-family: sans-serif; font-size: 10px; fill: #000; opacity: 1;">0.8</text><text text-anchor="end" transform="translate(-7,388.71428571428567)" style="font-family: sans-serif; font-size: 10px; fill: #000; opacity: 1;">1.0</text><text text-anchor="end" transform="translate(-7,345.85714285714283)" style="font-family: sans-serif; font-size: 10px; fill: #000; opacity: 1;">1.2</text><text text-anchor="end" transform="translate(-7,303)" style="font-family: sans-serif; font-size: 10px; fill: #000; opacity: 1;">1.4</text><text text-anchor="end" transform="translate(-7,260.1428571428571)" style="font-family: sans-serif; font-size: 10px; fill: #000; opacity: 1;">1.6</text><text text-anchor="end" transform="translate(-7,217.28571428571425)" style="font-family: sans-serif; font-size: 10px; fill: #000; opacity: 1;">1.8</text><text text-anchor="end" transform="translate(-7,174.42857142857142)" style="font-family: sans-serif; font-size: 10px; fill: #000; opacity: 1;">2.0</text><text text-anchor="end" transform="translate(-7,131.57142857142853)" style="font-family: sans-serif; font-size: 10px; fill: #000; opacity: 1;">2.2</text><text text-anchor="end" transform="translate(-7,88.71428571428568)" style="font-family: sans-serif; font-size: 10px; fill: #000; opacity: 1;">2.4</text><text text-anchor="end" transform="translate(-7,45.85714285714277)" style="font-family: sans-serif; font-size: 10px; fill: #000; opacity: 1;">2.6</text><text text-anchor="end" transform="translate(-7,3)" style="font-family: sans-serif; font-size: 10px; fill: #000; opacity: 1;">2.8</text></g><g class="mark-rule role-axis-domain" style="pointer-events: none;"><line transform="translate(0,600)" x2="0" y2="-600" style="fill: none; stroke: #888; stroke-width: 1; opacity: 1;"></line></g><g class="mark-text role-axis-title" style="pointer-events: none;"><text text-anchor="middle" transform="translate(-26,300) rotate(-90) translate(0,-2)" style="font-family: sans-serif; font-size: 11px; font-weight: bold; fill: #000; opacity: 1;">GFLOPS</text></g></g></g></g></g></g></g></g></svg>