<?xml version="1.0" encoding="utf-8"?>
<!DOCTYPE svg PUBLIC "-//W3C//DTD SVG 1.1//EN" "http://www.w3.org/Graphics/SVG/1.1/DTD/svg11.dtd">
<svg class="marks" width="1066" height="647" viewBox="0 0 1066 647" version="1.1" xmlns="http://www.w3.org/2000/svg" xmlns:xlink="http://www.w3.org/1999/xlink"><rect width="1066" height="647" style="fill: white;"></rect><g transform="translate(42,10)"><g class="mark-group role-frame root"><g transform="translate(0,0)"><path class="background" d="M0.5,0.5h900v600h-900Z" style="fill: none; stroke: #ddd;"></path><g><g class="mark-group role-axis"><g transform="translate(0.5,600.5)"><path class="background" d="M0,0h0v0h0Z" style="pointer-events: none; fill: none;"></path><g><g class="mark-rule role-axis-grid" style="pointer-events: none;"><line transform="translate(0,-600)" x2="0" y2="600" style="fill: none; stroke: #ddd; stroke-width: 1; opacity: 1;"></line><line transform="translate(35,-600)" x2="0" y2="600" style="fill: none; stroke: #ddd; stroke-width: 1; opacity: 1;"></line><line transform="translate(69,-600)" x2="0" y2="600" style="fill: none; stroke: #ddd; stroke-width: 1; opacity: 1;"></line><line transform="translate(104,-600)" x2="0" y2="600" style="fill: none; stroke: #ddd; stroke-width: 1; opacity: 1;"></line><line transform="translate(138,-600)" x2="0" y2="600" style="fill: none; stroke: #ddd; stroke-width: 1; opacity: 1;"></line><line transform="translate(173,-600)" x2="0" y2="600" style="fill: none; stroke: #ddd; stroke-width: 1; opacity: 1;"></line><line transform="translate(208,-600)" x2="0" y2="600" style="fill: none; stroke: #ddd; stroke-width: 1; opacity: 1;"></line><line transform="translate(242,-600)" x2="0" y2="600" style="fill: none; stroke: #ddd; stroke-width: 1; opacity: 1;"></line><line transform="translate(277,-600)" x2="0" y2="600" style="fill: none; stroke: #ddd; stroke-width: 1; opacity: 1;"></line><line transform="translate(312,-600)" x2="0" y2="600" style="fill: none; stroke: #ddd; stroke-width: 1; opacity: 1;"></line><line transform="translate(346,-600)" x2="0" y2="600" style="fill: none; stroke: #ddd; stroke-width: 1; opacity: 1;"></line><line transform="translate(381,-600)" x2="0" y2="600" style="fill: none; stroke: #ddd; stroke-width: 1; opacity: 1;"></line><line transform="translate(415,-600)" x2="0" y2="600" style="fill: none; stroke: #ddd; stroke-width: 1; opacity: 1;"></line><line transform="translate(450,-600)" x2="0" y2="600" style="fill: none; stroke: #ddd; stroke-width: 1; opacity: 1;"></line><line transform="translate(485,-600)" x2="0" y2="600" style="fill: none; stroke: #ddd; stroke-width: 1; opacity: 1;"></line><line transform="translate(519,-600)" x2="0" y2="600" style="fill: none; stroke: #ddd; stroke-width: 1; opacity: 1;"></line><line transform="translate(554,-600)" x2="0" y2="600" style="fill: none; stroke: #ddd; stroke-width: 1; opacity: 1;"></line><line transform="translate(588,-600)" x2="0" y2="600" style="fill: none; stroke: #ddd; stroke-width: 1; opacity: 1;"></line><line transform="translate(623,-600)" x2="0" y2="600" style="fill: none; stroke: #ddd; stroke-width: 1; opacity: 1;"></line><line transform="translate(658,-600)" x2="0" y2="600" style="fill: none; stroke: #ddd; stroke-width: 1; opacity: 1;"></line><line transform="translate(692,-600)" x2="0" y2="600" style="fill: none; stroke: #ddd; stroke-width: 1; opacity: 1;"></line><line transform="translate(727,-600)" x2="0" y2="600" style="fill: none; stroke: #ddd; stroke-width: 1; opacity: 1;"></line><line transform="translate(762,-600)" x2="0" y2="600" style="fill: none; stroke: #ddd; stroke-width: 1; opacity: 1;"></line><line transform="translate(796,-600)" x2="0" y2="600" style="fill: none; stroke: #ddd; stroke-width: 1; opacity: 1;"></line><line transform="translate(831,-600)" x2="0" y2="600" style="fill: none; stroke: #ddd; stroke-width: 1; opacity: 1;"></line><line transform="translate(865,-600)" x2="0" y2="600" style="fill: none; stroke: #ddd; stroke-width: 1; opacity: 1;"></line><line transform="translate(900,-600)" x2="0" y2="600" style="fill: none; stroke: #ddd; stroke-width: 1; opacity: 1;"></line></g></g><path class="foreground" d="" style="pointer-events: none; display: none; fill: none;"></path></g></g><g class="mark-group role-axis"><g transform="translate(0.5,0.5)"><path class="background" d="M0,0h0v0h0Z" style="pointer-events: none; fill: none;"></path><g><g class="mark-rule role-axis-grid" style="pointer-events: none;"><line transform="translate(0,600)" x2="900" y2="0" style="fill: none; stroke: #ddd; stroke-width: 1; opacity: 1;"></line><line transform="translate(0,554)" x2="900" y2="0" style="fill: none; stroke: #ddd; stroke-width: 1; opacity: 1;"></line><line transform="translate(0,508)" x2="900" y2="0" style="fill: none; stroke: #ddd; stroke-width: 1; opacity: 1;"></line><line transform="translate(0,462)" x2="900" y2="0" style="fill: none; stroke: #ddd; stroke-width: 1; opacity: 1;"></line><line transform="translate(0,415)" x2="900" y2="0" style="fill: none; stroke: #ddd; stroke-width: 1; opacity: 1;"></line><line transform="translate(0,369)" x2="900" y2="0" style="fill: none; stroke: #ddd; stroke-width: 1; opacity: 1;"></line><line transform="translate(0,323)" x2="900" y2="0" style="fill: none; stroke: #ddd; stroke-width: 1; opacity: 1;"></line><line transform="translate(0,277)" x2="900" y2="0" style="fill: none; stroke: #ddd; stroke-width: 1; opacity: 1;"></line><line transform="translate(0,231)" x2="900" y2="0" style="fill: none; stroke: #ddd; stroke-width: 1; opacity: 1;"></line><line transform="translate(0,185)" x2="900" y2="0" style="fill: none; stroke: #ddd; stroke-width: 1; opacity: 1;"></line><line transform="translate(0,138)" x2="900" y2="0" style="fill: none; stroke: #ddd; stroke-width: 1; opacity: 1;"></line><line transform="translate(0,92)" x2="900" y2="0" style="fill: none; stroke: #ddd; stroke-width: 1; opacity: 1;"></line><line transform="translate(0,46)" x2="900" y2="0" style="fill: none; stroke: #ddd; stroke-width: 1; opacity: 1;"></line><line transform="translate(0,0)" x2="900" y2="0" style="fill: none; stroke: #ddd; stroke-width: 1; opacity: 1;"></line></g></g><path class="foreground" d="" style="pointer-events: none; display: none; fill: none;"></path></g></g><g class="mark-group role-axis"><g transform="translate(0.5,600.5)"><path class="background" d="M0,0h0v0h0Z" style="pointer-events: none; fill: none;"></path><g><g class="mark-rule role-axis-tick" style="pointer-events: none;"><line transform="translate(0,0)" x2="0" y2="5" style="fill: none; stroke: #888; stroke-width: 1; opacity: 1;"></line><line transform="translate(35,0)" x2="0" y2="5" style="fill: none; stroke: #888; stroke-width: 1; opacity: 1;"></line><line transform="translate(69,0)" x2="0" y2="5" style="fill: none; stroke: #888; stroke-width: 1; opacity: 1;"></line><line transform="translate(104,0)" x2="0" y2="5" style="fill: none; stroke: #888; stroke-width: 1; opacity: 1;"></line><line transform="translate(138,0)" x2="0" y2="5" style="fill: none; stroke: #888; stroke-width: 1; opacity: 1;"></line><line transform="translate(173,0)" x2="0" y2="5" style="fill: none; stroke: #888; stroke-width: 1; opacity: 1;"></line><line transform="translate(208,0)" x2="0" y2="5" style="fill: none; stroke: #888; stroke-width: 1; opacity: 1;"></line><line transform="translate(242,0)" x2="0" y2="5" style="fill: none; stroke: #888; stroke-width: 1; opacity: 1;"></line><line transform="translate(277,0)" x2="0" y2="5" style="fill: none; stroke: #888; stroke-width: 1; opacity: 1;"></line><line transform="translate(312,0)" x2="0" y2="5" style="fill: none; stroke: #888; stroke-width: 1; opacity: 1;"></line><line transform="translate(346,0)" x2="0" y2="5" style="fill: none; stroke: #888; stroke-width: 1; opacity: 1;"></line><line transform="translate(381,0)" x2="0" y2="5" style="fill: none; stroke: #888; stroke-width: 1; opacity: 1;"></line><line transform="translate(415,0)" x2="0" y2="5" style="fill: none; stroke: #888; stroke-width: 1; opacity: 1;"></line><line transform="translate(450,0)" x2="0" y2="5" style="fill: none; stroke: #888; stroke-width: 1; opacity: 1;"></line><line transform="translate(485,0)" x2="0" y2="5" style="fill: none; stroke: #888; stroke-width: 1; opacity: 1;"></line><line transform="translate(519,0)" x2="0" y2="5" style="fill: none; stroke: #888; stroke-width: 1; opacity: 1;"></line><line transform="translate(554,0)" x2="0" y2="5" style="fill: none; stroke: #888; stroke-width: 1; opacity: 1;"></line><line transform="translate(588,0)" x2="0" y2="5" style="fill: none; stroke: #888; stroke-width: 1; opacity: 1;"></line><line transform="translate(623,0)" x2="0" y2="5" style="fill: none; stroke: #888; stroke-width: 1; opacity: 1;"></line><line transform="translate(658,0)" x2="0" y2="5" style="fill: none; stroke: #888; stroke-width: 1; opacity: 1;"></line><line transform="translate(692,0)" x2="0" y2="5" style="fill: none; stroke: #888; stroke-width: 1; opacity: 1;"></line><line transform="translate(727,0)" x2="0" y2="5" style="fill: none; stroke: #888; stroke-width: 1; opacity: 1;"></line><line transform="translate(762,0)" x2="0" y2="5" style="fill: none; stroke: #888; stroke-width: 1; opacity: 1;"></line><line transform="translate(796,0)" x2="0" y2="5" style="fill: none; stroke: #888; stroke-width: 1; opacity: 1;"></line><line transform="translate(831,0)" x2="0" y2="5" style="fill: none; stroke: #888; stroke-width: 1; opacity: 1;"></line><line transform="translate(865,0)" x2="0" y2="5" style="fill: none; stroke: #888; stroke-width: 1; opacity: 1;"></line><line transform="translate(900,0)" x2="0" y2="5" style="fill: none; stroke: #888; stroke-width: 1; opacity: 1;"></line></g><g class="mark-text role-axis-label" style="pointer-events: none;"><text text-anchor="start" transform="translate(0,15)" style="font-family: sans-serif; font-size: 10px; fill: #000; opacity: 1;">0</text><text text-anchor="middle" transform="translate(34.61538461538462,15)" style="font-family: sans-serif; font-size: 10px; fill: #000; opacity: 1;">10</text><text text-anchor="middle" transform="translate(69.23076923076924,15)" style="font-family: sans-serif; font-size: 10px; fill: #000; opacity: 1;">20</text><text text-anchor="middle" transform="translate(103.84615384615385,15)" style="font-family: sans-serif; font-size: 10px; fill: #000; opacity: 1;">30</text><text text-anchor="middle" transform="translate(138.46153846153848,15)" style="font-family: sans-serif; font-size: 10px; fill: #000; opacity: 1;">40</text><text text-anchor="middle" transform="translate(173.0769230769231,15)" style="font-family: sans-serif; font-size: 10px; fill: #000; opacity: 1;">50</text><text text-anchor="middle" transform="translate(207.6923076923077,15)" style="font-family: sans-serif; font-size: 10px; fill: #000; opacity: 1;">60</text><text text-anchor="middle" transform="translate(242.3076923076923,15)" style="font-family: sans-serif; font-size: 10px; fill: #000; opacity: 1;">70</text><text text-anchor="middle" transform="translate(276.92307692307696,15)" style="font-family: sans-serif; font-size: 10px; fill: #000; opacity: 1;">80</text><text text-anchor="middle" transform="translate(311.53846153846155,15)" style="font-family: sans-serif; font-size: 10px; fill: #000; opacity: 1;">90</text><text text-anchor="middle" transform="translate(346.1538461538462,15)" style="font-family: sans-serif; font-size: 10px; fill: #000; opacity: 1;">100</text><text text-anchor="middle" transform="translate(380.7692307692308,15)" style="font-family: sans-serif; font-size: 10px; fill: #000; opacity: 1;">110</text><text text-anchor="middle" transform="translate(415.3846153846154,15)" style="font-family: sans-serif; font-size: 10px; fill: #000; opacity: 1;">120</text><text text-anchor="middle" transform="translate(450,15)" style="font-family: sans-serif; font-size: 10px; fill: #000; opacity: 1;">130</text><text text-anchor="middle" transform="translate(484.6153846153846,15)" style="font-family: sans-serif; font-size: 10px; fill: #000; opacity: 1;">140</text><text text-anchor="middle" transform="translate(519.2307692307692,15)" style="font-family: sans-serif; font-size: 10px; fill: #000; opacity: 1;">150</text><text text-anchor="middle" transform="translate(553.8461538461539,15)" style="font-family: sans-serif; font-size: 10px; fill: #000; opacity: 1;">160</text><text text-anchor="middle" transform="translate(588.4615384615385,15)" style="font-family: sans-serif; font-size: 10px; fill: #000; opacity: 1;">170</text><text text-anchor="middle" transform="translate(623.0769230769231,15)" style="font-family: sans-serif; font-size: 10px; fill: #000; opacity: 1;">180</text><text text-anchor="middle" transform="translate(657.6923076923076,15)" style="font-family: sans-serif; font-size: 10px; fill: #000; opacity: 1;">190</text><text text-anchor="middle" transform="translate(692.3076923076924,15)" style="font-family: sans-serif; font-size: 10px; fill: #000; opacity: 1;">200</text><text text-anchor="middle" transform="translate(726.9230769230769,15)" style="font-family: sans-serif; font-size: 10px; fill: #000; opacity: 1;">210</text><text text-anchor="middle" transform="translate(761.5384615384615,15)" style="font-family: sans-serif; font-size: 10px; fill: #000; opacity: 1;">220</text><text text-anchor="middle" transform="translate(796.1538461538461,15)" style="font-family: sans-serif; font-size: 10px; fill: #000; opacity: 1;">230</text><text text-anchor="middle" transform="translate(830.7692307692308,15)" style="font-family: sans-serif; font-size: 10px; fill: #000; opacity: 1;">240</text><text text-anchor="middle" transform="translate(865.3846153846154,15)" style="font-family: sans-serif; font-size: 10px; fill: #000; opacity: 1;">250</text><text text-anchor="end" transform="translate(900,15)" style="font-family: sans-serif; font-size: 10px; fill: #000; opacity: 1;">260</text></g><g class="mark-rule role-axis-domain" style="pointer-events: none;"><line transform="translate(0,0)" x2="900" y2="0" style="fill: none; stroke: #888; stroke-width: 1; opacity: 1;"></line></g><g class="mark-text role-axis-title" style="pointer-events: none;"><text text-anchor="middle" transform="translate(450,30)" style="font-family: sans-serif; font-size: 11px; font-weight: bold; fill: #000; opacity: 1;">Size</text></g></g><path class="foreground" d="" style="pointer-events: none; display: none; fill: none;"></path></g></g><g class="mark-group role-axis"><g transform="translate(0.5,0.5)"><path class="background" d="M0,0h0v0h0Z" style="pointer-events: none; fill: none;"></path><g><g class="mark-rule role-axis-tick" style="pointer-events: none;"><line transform="translate(0,600)" x2="-5" y2="0" style="fill: none; stroke: #888; stroke-width: 1; opacity: 1;"></line><line transform="translate(0,554)" x2="-5" y2="0" style="fill: none; stroke: #888; stroke-width: 1; opacity: 1;"></line><line transform="translate(0,508)" x2="-5" y2="0" style="fill: none; stroke: #888; stroke-width: 1; opacity: 1;"></line><line transform="translate(0,462)" x2="-5" y2="0" style="fill: none; stroke: #888; stroke-width: 1; opacity: 1;"></line><line transform="translate(0,415)" x2="-5" y2="0" style="fill: none; stroke: #888; stroke-width: 1; opacity: 1;"></line><line transform="translate(0,369)" x2="-5" y2="0" style="fill: none; stroke: #888; stroke-width: 1; opacity: 1;"></line><line transform="translate(0,323)" x2="-5" y2="0" style="fill: none; stroke: #888; stroke-width: 1; opacity: 1;"></line><line transform="translate(0,277)" x2="-5" y2="0" style="fill: none; stroke: #888; stroke-width: 1; opacity: 1;"></line><line transform="translate(0,231)" x2="-5" y2="0" style="fill: none; stroke: #888; stroke-width: 1; opacity: 1;"></line><line transform="translate(0,185)" x2="-5" y2="0" style="fill: none; stroke: #888; stroke-width: 1; opacity: 1;"></line><line transform="translate(0,138)" x2="-5" y2="0" style="fill: none; stroke: #888; stroke-width: 1; opacity: 1;"></line><line transform="translate(0,92)" x2="-5" y2="0" style="fill: none; stroke: #888; stroke-width: 1; opacity: 1;"></line><line transform="translate(0,46)" x2="-5" y2="0" style="fill: none; stroke: #888; stroke-width: 1; opacity: 1;"></line><line transform="translate(0,0)" x2="-5" y2="0" style="fill: none; stroke: #888; stroke-width: 1; opacity: 1;"></line></g><g class="mark-text role-axis-label" style="pointer-events: none;"><text text-anchor="end" transform="translate(-7,603)" style="font-family: sans-serif; font-size: 10px; fill: #000; opacity: 1;">0.0</text><text text-anchor="end" transform="translate(-7,556.8461538461539)" style="font-family: sans-serif; font-size: 10px; fill: #000; opacity: 1;">0.1</text><text text-anchor="end" transform="translate(-7,510.6923076923077)" style="font-family: sans-serif; font-size: 10px; fill: #000; opacity: 1;">0.2</text><text text-anchor="end" transform="translate(-7,464.53846153846155)" style="font-family: sans-serif; font-size: 10px; fill: #000; opacity: 1;">0.3</text><text text-anchor="end" transform="translate(-7,418.38461538461536)" style="font-family: sans-serif; font-size: 10px; fill: #000; opacity: 1;">0.4</text><text text-anchor="end" transform="translate(-7,372.2307692307692)" style="font-family: sans-serif; font-size: 10px; fill: #000; opacity: 1;">0.5</text><text text-anchor="end" transform="translate(-7,326.07692307692315)" style="font-family: sans-serif; font-size: 10px; fill: #000; opacity: 1;">0.6</text><text text-anchor="end" transform="translate(-7,279.92307692307696)" style="font-family: sans-serif; font-size: 10px; fill: #000; opacity: 1;">0.7</text><text text-anchor="end" transform="translate(-7,233.76923076923075)" style="font-family: sans-serif; font-size: 10px; fill: #000; opacity: 1;">0.8</text><text text-anchor="end" transform="translate(-7,187.6153846153846)" style="font-family: sans-serif; font-size: 10px; fill: #000; opacity: 1;">0.9</text><text text-anchor="end" transform="translate(-7,141.4615384615385)" style="font-family: sans-serif; font-size: 10px; fill: #000; opacity: 1;">1.0</text><text text-anchor="end" transform="translate(-7,95.3076923076923)" style="font-family: sans-serif; font-size: 10px; fill: #000; opacity: 1;">1.1</text><text text-anchor="end" transform="translate(-7,49.15384615384619)" style="font-family: sans-serif; font-size: 10px; fill: #000; opacity: 1;">1.2</text><text text-anchor="end" transform="translate(-7,3)" style="font-family: sans-serif; font-size: 10px; fill: #000; opacity: 1;">1.3</text></g><g class="mark-rule role-axis-domain" style="pointer-events: none;"><line transform="translate(0,600)" x2="0" y2="-600" style="fill: none; stroke: #888; stroke-width: 1; opacity: 1;"></line></g><g class="mark-text role-axis-title" style="pointer-events: none;"><text text-anchor="middle" transform="translate(-26,300) rotate(-90) translate(0,-2)" style="font-family: sans-serif; font-size: 11px; font-weight: bold; fill: #000; opacity: 1;">GFLOPS</text></g></g><path class="foreground" d="" style="pointer-events: none; display: none; fill: none;"></path></g></g><g class="mark-group role-scope pathgroup"><g transform="translate(0,0)"><path class="background" d="M0,0h900v600h-900Z" style="fill: none;"></path><g><g class="mark-line role-mark marks"><path d="M6.923076923076923,550.7039642022769L10.384615384615385,545.1593858879022L13.846153846153847,542.324011595156L17.30769230769231,540.5826731408126L20.76923076923077,539.2248972401644L24.230769230769234,538.2036807399085L27.692307692307693,537.4573747913521L31.153846153846157,536.8763425389164L34.61538461538462,536.3607228584697L38.07692307692308,545.5778364296275L41.53846153846154,535.6607852709394L45,535.3395689304596L48.46153846153847,535.0778859048863L51.92307692307693,534.8577114489548L55.38461538461539,534.6606976811066L58.84615384615385,536.7953594849993L62.307692307692314,536.1580771105243L65.76923076923077,536.208134789813L69.23076923076924,535.4534194545726L72.6923076923077,535.2863028588575L76.15384615384616,535.11190158589L79.61538461538461,535.0040692616395L83.07692307692308,534.7743165924984L86.53846153846155,534.727210682274L90,535.0118492834763L93.46153846153847,534.5047363467046L96.92307692307693,534.3708798682953L100.38461538461539,534.3286756250099L103.84615384615385,534.5934157371843L107.3076923076923,534.7141879221441L110.76923076923077,534.4037334527917L114.23076923076923,533.9941759567021L117.6923076923077,533.8990290813794L121.15384615384615,533.8046637550533L124.61538461538463,533.7883570939457L128.07692307692307,534.0644751701407L131.53846153846155,533.6796973518285L135,533.6238685886691L138.46153846153848,533.5802880057445L141.9230769230769,533.531286918679L145.3846153846154,533.4847689462142L148.84615384615384,533.4359334359334L152.30769230769232,533.6575402226292L155.76923076923077,533.3583909333819L159.23076923076923,533.372673139853L162.69230769230768,533.632223673527L166.15384615384616,533.2417916529371L169.6153846153846,533.2267910052279L173.0769230769231,533.6278427102784L176.53846153846155,533.4037466194403L180,533.10326519777L183.46153846153845,533.0989673056342L186.92307692307693,533.2802192804012L190.3846153846154,533.0506982836038L193.84615384615387,533.0273092908426L197.3076923076923,533.1760478972064L200.76923076923077,532.9674143974735L204.23076923076923,533.150599048057L207.6923076923077,532.9165745877048L211.15384615384616,532.9003990009775L214.6153846153846,533.0630343889701L218.07692307692307,535.0213667752688L221.53846153846155,532.8533293030334L225,533.2321699544765L228.46153846153845,532.8086901174203L231.9230769230769,532.7959430113941L235.3846153846154,532.7658744438354L238.84615384615384,532.7611880315179L242.3076923076923,531.6176231154143L245.76923076923075,532.8294667353439L249.23076923076925,532.9111461732984L252.6923076923077,532.7860314784704L256.15384615384613,532.9240037071362L259.6153846153846,532.9003438080763L263.0769230769231,543.339149306572L266.53846153846155,532.9236515575498L270,532.7175998259597L273.46153846153845,532.6901360896196L276.92307692307696,532.6904329828876L280.3846153846154,532.8173517271313L283.8461538461538,532.661975248726L287.30769230769226,532.6368039239326L290.7692307692308,532.9526126245974L294.2307692307692,532.7629608479544L297.6923076923077,532.6024188533268L301.15384615384613,532.5094463241052L304.61538461538464,542.8393531139084L308.0769230769231,532.6311206014682L311.53846153846155,531.3022307034283L315,532.6163403509099L318.46153846153845,533.1370763477166L321.9230769230769,543.0580080143011L325.38461538461536,532.5751907179261L328.8461538461538,533.1451939347214L332.3076923076923,532.5903573985391L335.7692307692308,532.5585734233932L339.2307692307692,541.7999455611736L342.6923076923077,531.0940400082492L346.1538461538462,532.5013969081766L349.61538461538464,532.410572796704L353.0769230769231,532.3966679528793L356.53846153846155,532.3844951874921L360,532.5869748404959L363.46153846153845,532.515878616796L366.9230769230769,532.3679514704282L370.38461538461536,532.4684793483725L373.84615384615387,532.6761508192966L377.3076923076923,532.7400111683506L380.7692307692308,532.7262843163903L384.2307692307692,532.4597218670358L387.69230769230774,532.3250174454513L391.1538461538462,532.399823640578L394.6153846153846,532.4340569479584L398.07692307692304,532.4105650027321L401.53846153846155,532.6395959639851L405,531.0174310792435L408.46153846153845,532.3726870803996L411.9230769230769,532.2665321446588L415.3846153846154,532.7995847779222L418.84615384615387,531.1317141539267L422.3076923076923,532.3669236066539L425.7692307692308,532.3538285853961L429.2307692307692,532.3661836112666L432.6923076923077,532.5080683536468L436.15384615384613,532.3814634810017L439.6153846153846,536.710499637236L443.0769230769231,532.3781317537821L446.53846153846155,532.2535967858473L450,532.6245370923426L453.46153846153845,532.6367949886637L456.9230769230769,532.3356672256351L460.38461538461536,532.6806526806527L463.8461538461538,532.6076368043678L467.3076923076923,532.830071583723L470.7692307692308,532.94124414811L474.2307692307692,533.2092856968742L477.6923076923077,532.884818027073L481.15384615384613,532.6616091103299L484.6153846153846,533.4151042579289L488.07692307692304,533.1576525703769L491.5384615384615,533.0597304642006L495.00000000000006,533.2803812549643L498.4615384615385,532.9855926780555L501.92307692307696,533.8050673362246L505.3846153846154,533.2825590251333L508.8461538461538,533.4580680206416L512.3076923076923,533.6174030051582L515.7692307692307,533.4598637936809L519.2307692307692,533.6488698190826L522.6923076923077,533.4425482835377L526.1538461538462,533.4530011820849L529.6153846153846,533.6071976162235L533.0769230769231,533.597792342187L536.5384615384615,533.9563685944779L540,533.6466685098147L543.4615384615385,533.6736490054568L546.9230769230769,531.6815842954123L550.3846153846155,538.5902800128741L553.8461538461539,534.4172701188687L557.3076923076924,533.7543975147612L560.7692307692308,534.0775605984563L564.2307692307692,533.682326136487L567.6923076923076,533.8527416828562L571.1538461538461,533.530726932141L574.6153846153845,535.027658908256L578.0769230769231,534.0377209440111L581.5384615384615,534.8087594262137L585,534.0436326737697L588.4615384615385,538.4035653465705L591.9230769230769,534.1649341649342L595.3846153846154,534.0001534880151L598.8461538461538,534.1692193534885L602.3076923076923,533.9574898785426L605.7692307692308,534.6474384907915L609.2307692307693,534.3907848875137L612.6923076923077,534.5571515722921L616.1538461538462,534.4447445309239L619.6153846153846,534.4634423168454L623.0769230769231,534.1964965727342L626.5384615384615,534.2734370271743L630,534.7522137641758L633.4615384615385,534.8692639870925L636.9230769230769,534.9696937567371L640.3846153846154,535.3342809871135L643.8461538461538,535.811160575629L647.3076923076923,535.8211687182538L650.7692307692307,536.189711156618L654.2307692307692,535.6657797545769L657.6923076923076,536.2330514162975L661.1538461538462,544.4944930400163L664.6153846153846,533.8987135496161L668.0769230769231,536.44172452592L671.5384615384615,536.2125371956532L675,536.1883153715258L678.4615384615385,540.688736912183L681.9230769230769,536.9771422173169L685.3846153846154,537.621422945655L688.8461538461538,537.519623233909L692.3076923076924,537.8650428731204L695.7692307692308,537.876360564367L699.2307692307693,538.0526450293892L702.6923076923077,538.0751436270273L706.1538461538462,542.7601397326L709.6153846153846,538.0546126650618L713.0769230769231,539.6145296431101L716.5384615384615,543.4717108227552L720,539.1673531461885L723.4615384615385,538.735129589369L726.9230769230769,538.722212225405L730.3846153846154,538.4654269021765L733.8461538461538,538.3840341019182L737.3076923076923,538.5807245359913L740.7692307692307,538.4615384615385L744.2307692307692,538.6669329187408L747.6923076923077,539.0410250138757L751.1538461538462,538.6763126660261L754.6153846153846,539.9131772974712L758.0769230769231,538.4240492982497L761.5384615384615,538.6363319402541L765,538.9696643331538L768.4615384615385,539.0943717163773L771.9230769230769,545.5202853466669L775.3846153846155,539.034900704909L778.8461538461539,538.9140271493213L782.3076923076924,538.9656569293784L785.7692307692308,538.7600942429093L789.2307692307692,539.0107979420603L792.6923076923076,539.2153739979827L796.1538461538461,539.3683766541889L799.6153846153845,539.1360480588088L803.0769230769231,540.6743182021592L806.5384615384615,539.7779797622997L810,539.4822369158355L813.4615384615385,539.3391843056272L816.9230769230769,539.4939023869143L820.3846153846154,539.7097418372841L823.8461538461538,543.3373806632859L827.3076923076923,544.2693415309997L830.7692307692308,543.61741282234L834.2307692307693,538.9680278569167L837.6923076923077,540.687001384787L841.1538461538462,539.4254139055652L844.6153846153846,541.1315292130765L848.0769230769231,539.6246873421309L851.5384615384615,540.4372775477591L855,539.8702463210085L858.4615384615385,540.8864646689365L861.9230769230769,539.9660048461177L865.3846153846154,541.4083098641064L868.8461538461538,540.5103626260765L872.3076923076923,539.7650358342264L875.7692307692307,538.9410004344119L879.2307692307692,538.654751841565L882.6923076923076,545.501606851679L886.1538461538462,538.9575087033239" style="fill: none; stroke: #ffbb78; stroke-width: 2;"></path></g></g><path class="foreground" d="" style="display: none; fill: none;"></path></g><g transform="translate(0,0)"><path class="background" d="M0,0h900v600h-900Z" style="fill: none;"></path><g><g class="mark-line role-mark marks"><path d="M6.923076923076923,528.7141429998574L10.384615384615385,527.1639561831088L13.846153846153847,525.909854510064L17.30769230769231,525.2283019151785L20.76923076923077,525.5211765785456L24.230769230769234,525.1191286589517L27.692307692307693,524.8797705293903L31.153846153846157,525.1285057263956L34.61538461538462,524.9288316140684L38.07692307692308,524.7394868835049L41.53846153846154,525.6049214814092L45,524.7980111870727L48.46153846153847,524.6435845213849L51.92307692307693,524.8176920975391L55.38461538461539,524.7068811423967L58.84615384615385,526.5757436731592L62.307692307692314,527.6142021379826L65.76923076923077,526.8918851892706L69.23076923076924,526.7503079321132L72.6923076923077,523.3616463238487L76.15384615384616,526.5339366515836L79.61538461538461,523.1228612079658L83.07692307692308,526.3836348080314L86.53846153846155,526.2871190426171L90,526.2065139868453L93.46153846153847,526.1494698261321L96.92307692307693,526.0915827544579L100.38461538461539,526.0165610823741L103.84615384615385,525.973633818959L107.3076923076923,527.2942983633786L110.76923076923077,525.860997092361L114.23076923076923,526.0862588945685L117.6923076923077,525.9971342027461L121.15384615384615,525.7355161192928L124.61538461538463,525.9736928670486L128.07692307692307,525.9545219569447L131.53846153846155,525.8758922240063L135,525.8712072245102L138.46153846153848,526.0258063886507L141.9230769230769,525.7803768857674L145.3846153846154,525.8036755680006L148.84615384615384,525.7167844437126L152.30769230769232,525.6824669876756L155.76923076923077,525.8568220375644L159.23076923076923,525.960235760025L162.69230769230768,536.8529357166582L166.15384615384616,521.9924348283454L169.6153846153846,525.7299288438893L173.0769230769231,525.4765378354192L176.53846153846155,525.6069621400669L180,524.9736108479714L183.46153846153845,525.1920652247932L186.92307692307693,524.9720405274761L190.3846153846154,524.9887903547229L193.84615384615387,521.6420448472325L197.3076923076923,524.9418873025817L200.76923076923077,524.8935203937598L204.23076923076923,524.9237425898904L207.6923076923077,524.857671233153L211.15384615384616,525.0478752576074L214.6153846153846,525.0867709365733L218.07692307692307,526.0653324082336L221.53846153846155,524.8156774274618L225,524.8500703373726L228.46153846153845,525.0195971507447L231.9230769230769,524.795221316252L235.3846153846154,524.7579878377652L238.84615384615384,524.9347395275734L242.3076923076923,525.1858270197499L245.76923076923075,525.1869926054436L249.23076923076925,525.708598020772L252.6923076923077,525.1645043533919L256.15384615384613,525.1520397327079L259.6153846153846,525.1374380367683L263.0769230769231,525.145603258967L266.53846153846155,525.1253751382088L270,525.1367693636626L273.46153846153845,525.0963949347886L276.92307692307696,525.0857386962891L280.3846153846154,525.1775450102094L283.8461538461538,525.0870970185049L287.30769230769226,525.082739945843L290.7692307692308,525.1318363001658L294.2307692307692,525.1261349067017L297.6923076923077,525.1378466975207L301.15384615384613,524.9095309093361L304.61538461538464,524.9113988818576L308.0769230769231,524.899964616387L311.53846153846155,521.2927996707673L315,524.8925594408283L318.46153846153845,525.5082036467008L321.9230769230769,524.8792789399499L325.38461538461536,524.8508151630801L328.8461538461538,525.5045071325626L332.3076923076923,524.8448947371854L335.7692307692308,524.855508100831L339.2307692307692,524.981295059445L342.6923076923077,524.903618984133L346.1538461538462,524.8463453296035L349.61538461538464,524.8145967456808L353.0769230769231,521.1418650703946L356.53846153846155,524.8238497599865L360,524.8622098908927L363.46153846153845,525.0053567602314L366.9230769230769,524.8734157492765L370.38461538461536,521.3986152249214L373.84615384615387,524.8999037122184L377.3076923076923,524.967389993752L380.7692307692308,525.1304374566489L384.2307692307692,524.9041756492272L387.69230769230774,524.8790222749064L391.1538461538462,524.9856618792647L394.6153846153846,524.8739203524434L398.07692307692304,524.8639999011469L401.53846153846155,524.8655067407781L405,524.9432782127016L408.46153846153845,524.9475747284287L411.9230769230769,524.8587427103255L415.3846153846154,524.9755087372682L418.84615384615387,524.4714712111266L422.3076923076923,524.4406437432915L425.7692307692308,524.5250264053262L429.2307692307692,521.1993414021202L432.6923076923077,524.5410906857229L436.15384615384613,524.5141203849298L439.6153846153846,527.4831317389774L443.0769230769231,524.4540625614794L446.53846153846155,524.4675400717266L450,524.5589448730207L453.46153846153845,524.5655414575525L456.9230769230769,524.4224327960837L460.38461538461536,524.7216599190283L463.8461538461538,524.5612349293737L467.3076923076923,521.2458070684319L470.7692307692308,524.7668069444159L474.2307692307692,524.7657628176919L477.6923076923077,525.0464961897812L481.15384615384613,524.9292203052282L484.6153846153846,522.0996012241491L488.07692307692304,525.1300931006407L491.5384615384615,525.4711510113102L495.00000000000006,525.4013655656025L498.4615384615385,525.0973967382266L501.92307692307696,525.336842406385L505.3846153846154,525.1204656414498L508.8461538461538,525.4567210387485L512.3076923076923,525.4915488099344L515.7692307692307,521.8949142786663L519.2307692307692,525.6282860418754L522.6923076923077,525.4734002007118L526.1538461538462,525.5267025967663L529.6153846153846,525.542614281543L533.0769230769231,525.499283107632L536.5384615384615,525.6240977923153L540,525.4696961854977L543.4615384615385,525.6126558510498L546.9230769230769,525.564961354435L550.3846153846155,533.3533599267864L553.8461538461539,530.4650152107779L557.3076923076924,525.6179256179256L560.7692307692308,526.0881467287161L564.2307692307692,525.9029161521036L567.6923076923076,525.5729521216247L571.1538461538461,525.754269129525L574.6153846153845,530.7212364450813L578.0769230769231,525.744775455758L581.5384615384615,530.5584259909891L585,525.9821598026191L588.4615384615385,534.9838096937865L591.9230769230769,525.9980525803311L595.3846153846154,525.8087706685837L598.8461538461538,525.924340062943L602.3076923076923,525.8606976479946L605.7692307692308,523.9174540606341L609.2307692307693,526.1068232231701L612.6923076923077,526.1104308137593L616.1538461538462,526.1272851777303L619.6153846153846,526.2033187892946L623.0769230769231,526.0684140990272L626.5384615384615,526.0001226517304L630,526.4705882352941L633.4615384615385,526.4272313052801L636.9230769230769,526.6386688639626L640.3846153846154,526.9967378722508L643.8461538461538,527.1687843843608L647.3076923076923,527.3014721127929L650.7692307692307,527.4807933395481L654.2307692307692,523.5555435713178L657.6923076923076,527.4130389104315L661.1538461538462,534.9225999159559L664.6153846153846,527.2630841210008L668.0769230769231,527.6032809842953L671.5384615384615,526.475232765264L675,527.722454224221L678.4615384615385,531.7013677149578L681.9230769230769,527.9417681700136L685.3846153846154,528.6057692307693L688.8461538461538,528.4185536231363L692.3076923076924,528.8682343317467L695.7692307692308,528.9070191055017L699.2307692307693,529.0211121197037L702.6923076923077,529.6445838459805L706.1538461538462,533.271547729379L709.6153846153846,529.1164334616537L713.0769230769231,530.407756494713L716.5384615384615,533.869688143932L720,530.2274874627516L723.4615384615385,526.1736273828727L726.9230769230769,529.7302422075858L730.3846153846154,529.329016411745L733.8461538461538,529.4497412602539L737.3076923076923,529.8153121241577L740.7692307692307,529.2990474092836L744.2307692307692,529.9909910887758L747.6923076923077,529.8188611810576L751.1538461538462,529.4243914073384L754.6153846153846,530.6005072317668L758.0769230769231,529.6954002386291L761.5384615384615,529.4822824234589L765,529.8583413560721L768.4615384615385,529.8544954737191L771.9230769230769,536.9189280932355L775.3846153846155,529.8611835925268L778.8461538461539,529.7006811222896L782.3076923076924,529.966636022766L785.7692307692308,529.7086677160478L789.2307692307692,529.7618680878593L792.6923076923076,529.8424774694273L796.1538461538461,530.000760861295L799.6153846153845,529.8444531056231L803.0769230769231,531.0826265836886L806.5384615384615,530.4858037889712L810,530.0155520995335L813.4615384615385,530.0338417871639L816.9230769230769,530.2579863471143L820.3846153846154,530.2660873488363L823.8461538461538,533.5071707953064L827.3076923076923,533.9316648851867L830.7692307692308,533.0659068407573L834.2307692307693,529.9068818257173L837.6923076923077,531.0541310541311L841.1538461538462,530.1439762355366L844.6153846153846,531.122088920254L848.0769230769231,530.2166606535899L851.5384615384615,530.6126862198487L855,530.3646692321788L858.4615384615385,530.8723647411895L861.9230769230769,530.2735851698357L865.3846153846154,531.2491119676962L868.8461538461538,539.8076723235198L872.3076923076923,530.367184153929L875.7692307692307,526.3703696517872L879.2307692307692,529.5742104825368L882.6923076923076,537.5339378523923L886.1538461538462,529.7956945015769" style="fill: none; stroke: #ff7f0e; stroke-width: 2;"></path></g></g><path class="foreground" d="" style="display: none; fill: none;"></path></g><g transform="translate(0,0)"><path class="background" d="M0,0h900v600h-900Z" style="fill: none;"></path><g><g class="mark-line role-mark marks"><path d="M6.923076923076923,525.6507420661254L10.384615384615385,519.6086942901767L13.846153846153847,516.0609547329722L17.30769230769231,513.7724343327258L20.76923076923077,513.9807692307693L24.230769230769234,511.0484852366618L27.692307692307693,510.1956823395036L31.153846153846157,509.45818336557323L34.61538461538462,508.9159895350286L38.07692307692308,508.43336801766367L41.53846153846154,508.02581978603547L45,507.9151577858251L48.46153846153847,505.0774927231172L51.92307692307693,507.1484446727641L55.38461538461539,506.8854916397544L58.84615384615385,512.3984223208397L62.307692307692314,511.9773505367433L65.76923076923077,511.52415623365994L69.23076923076924,511.253497147209L72.6923076923077,511.00775853165084L76.15384615384616,510.82925884687995L79.61538461538461,510.43653267316154L83.07692307692308,510.129625533172L86.53846153846155,512.2501772723691L90,509.88594134862126L93.46153846153847,509.4460909614948L96.92307692307693,509.12191038853484L100.38461538461539,509.15987568215746L103.84615384615385,508.83368423177205L107.3076923076923,508.6379178311441L110.76923076923077,515.2168153316259L114.23076923076923,513.9633013550771L117.6923076923077,514.4433726566291L121.15384615384615,517.19638076422L124.61538461538463,515.010136842737L128.07692307692307,515.6438269583837L131.53846153846155,515.2087138335413L135,514.9481926490938L138.46153846153848,514.7507792311586L141.9230769230769,514.5296123419604L145.3846153846154,514.858604120676L148.84615384615384,514.5291143306329L152.30769230769232,514.3589064729782L155.76923076923077,513.6942255984055L159.23076923076923,513.7869522882181L162.69230769230768,514.0452809906214L166.15384615384616,513.332175283131L169.6153846153846,515.2848855868011L173.0769230769231,515.0031032721149L176.53846153846155,515.5018403246668L180,514.6987262058108L183.46153846153845,514.7360691483697L186.92307692307693,514.7614518716198L190.3846153846154,514.7475993050733L193.84615384615387,514.3630614929979L197.3076923076923,515.5701075002323L200.76923076923077,513.4514255464719L204.23076923076923,513.4710469705129L207.6923076923077,513.5959751036504L211.15384615384616,513.5258024249442L214.6153846153846,513.8784839380164L218.07692307692307,515.305073853446L221.53846153846155,512.9427077271241L225,513.2730512837437L228.46153846153845,513.3384396542291L231.9230769230769,513.3795977825436L235.3846153846154,513.4042022419468L238.84615384615384,513.4772878630612L242.3076923076923,513.303357475566L245.76923076923075,513.3681659506041L249.23076923076925,514.1138852532348L252.6923076923077,513.0615034569478L256.15384615384613,513.1533229462657L259.6153846153846,512.8763798185286L263.0769230769231,512.8916648530185L266.53846153846155,513.2552380129816L270,512.9425420777713L273.46153846153845,512.9691840826408L276.92307692307696,513.2206740478758L280.3846153846154,514.0206125077899L283.8461538461538,513.932934708653L287.30769230769226,514.049915273739L290.7692307692308,513.8857799182454L294.2307692307692,513.6337705812572L297.6923076923077,514.8827137854635L301.15384615384613,513.7229896678007L304.61538461538464,513.553477649116L308.0769230769231,513.5278400631869L311.53846153846155,513.8397716070136L315,513.2065873974693L318.46153846153845,514.5263853332232L321.9230769230769,514.876953272439L325.38461538461536,514.2229532152281L328.8461538461538,513.857371551432L332.3076923076923,513.2221585428927L335.7692307692308,512.9512236705467L339.2307692307692,512.5638431721225L342.6923076923077,512.9730765033869L346.1538461538462,512.5011013316239L349.61538461538464,512.5363374015102L353.0769230769231,512.7635455451866L356.53846153846155,512.8698956470754L360,512.7171967903943L363.46153846153845,512.7521524671605L366.9230769230769,513.5234336429122L370.38461538461536,511.91889090915794L373.84615384615387,512.8801212600463L377.3076923076923,512.3955357129927L380.7692307692308,512.733418702815L384.2307692307692,512.4203089340224L387.69230769230774,513.0290088191248L391.1538461538462,513.7291754931204L394.6153846153846,513.6665548663963L398.07692307692304,513.2553841608152L401.53846153846155,513.3031939150654L405,513.2183591382445L408.46153846153845,513.6184816271867L411.9230769230769,513.2639584372143L415.3846153846154,513.7105722878401L418.84615384615387,514.0186575322498L422.3076923076923,514.3527341210232L425.7692307692308,513.1579336765791L429.2307692307692,513.1189551716993L432.6923076923077,513.7681406281938L436.15384615384613,512.9074901286515L439.6153846153846,518.9067153570977L443.0769230769231,512.6971964593671L446.53846153846155,512.6357450204358L450,513.4982332155478L453.46153846153845,513.5238295213243L456.9230769230769,513.4330367709811L460.38461538461536,513.5215414289579L463.8461538461538,513.5717785399314L467.3076923076923,512.9491763878304L470.7692307692308,513.0406522253403L474.2307692307692,513.8258204263382L477.6923076923077,513.4505404265208L481.15384615384613,514.5332882935883L484.6153846153846,513.3988213381027L488.07692307692304,513.6928719787165L491.5384615384615,512.9445629865916L495.00000000000006,513.0254324343955L498.4615384615385,513.2103071062049L501.92307692307696,514.4149568597785L505.3846153846154,514.2845161380505L508.8461538461538,513.7904313736541L512.3076923076923,514.2456180141612L515.7692307692307,513.8858806960054L519.2307692307692,514.5650729361137L522.6923076923077,513.5159489572276L526.1538461538462,514.0959001014978L529.6153846153846,513.6776145203112L533.0769230769231,513.8069751985169L536.5384615384615,514.383454163136L540,514.0973970230907L543.4615384615385,513.66529700194L546.9230769230769,514.2749258557294L550.3846153846155,518.7174280399313L553.8461538461539,513.5934802353269L557.3076923076924,513.7605478781949L560.7692307692308,513.3830811074691L564.2307692307692,513.5483099386165L567.6923076923076,513.5720057618663L571.1538461538461,513.9034356007844L574.6153846153845,514.1812995810678L578.0769230769231,514.1962430958803L581.5384615384615,513.4990822626397L585,514.2062242543188L588.4615384615385,514.4133750078664L591.9230769230769,513.5830725652439L595.3846153846154,513.4464966178642L598.8461538461538,513.947846821009L602.3076923076923,514.2659709773367L605.7692307692308,514.6991622239146L609.2307692307693,513.8670345650472L612.6923076923077,514.2756939109522L616.1538461538462,514.3892508368415L619.6153846153846,514.3980587683097L623.0769230769231,514.1554485854725L626.5384615384615,514.1855910949256L630,514.4563255103458L633.4615384615385,514.1926408528911L636.9230769230769,514.7691449893847L640.3846153846154,514.5394196550781L643.8461538461538,514.2738627460018L647.3076923076923,515.1542649727768L650.7692307692307,514.4167091186958L654.2307692307692,514.9043577919066L657.6923076923076,515.0597562065985L661.1538461538462,519.9256552331309L664.6153846153846,514.2155037605183L668.0769230769231,514.9298795941905L671.5384615384615,515.1937284159295L675,514.4486692015208L678.4615384615385,516.3245412436052L681.9230769230769,515.0013303514286L685.3846153846154,514.7690585855107L688.8461538461538,514.6252520485649L692.3076923076924,515.1037502918308L695.7692307692308,514.5141625790354L699.2307692307693,515.2678640091164L702.6923076923077,514.4518739113335L706.1538461538462,515.4964583074438L709.6153846153846,514.5144699897139L713.0769230769231,515.3668122868764L716.5384615384615,516.487358795051L720,515.1493724589004L723.4615384615385,515.3326266465914L726.9230769230769,515.1509437773992L730.3846153846154,515.3986487841062L733.8461538461538,515.0862155288086L737.3076923076923,515.6736212835029L740.7692307692307,514.8320852209789L744.2307692307692,515.0421496311908L747.6923076923077,515.1627030105458L751.1538461538462,514.9580995551955L754.6153846153846,514.8553908645302L758.0769230769231,514.4937627299526L761.5384615384615,514.8595828119558L765,515.5838781759497L768.4615384615385,515.1738236099525L771.9230769230769,519.735571299168L775.3846153846155,514.6710008380527L778.8461538461539,515.4829056350991L782.3076923076924,514.5018915510718L785.7692307692308,514.8079112300937L789.2307692307692,515.7007376185458L792.6923076923076,514.5713646198612L796.1538461538461,514.9203765698115L799.6153846153845,514.986536468077L803.0769230769231,514.8696747679098L806.5384615384615,515.3040391128129L810,515.3671342371288L813.4615384615385,514.8586714329708L816.9230769230769,514.7906775224307L820.3846153846154,514.9088950722556L823.8461538461538,515.5614160610701L827.3076923076923,516.2241267504426L830.7692307692308,516.0648399111686L834.2307692307693,515.2979216945101L837.6923076923077,515.4614685949836L841.1538461538462,515.0220895939945L844.6153846153846,515.1800974501886L848.0769230769231,515.0372506747892L851.5384615384615,514.6968733745593L855,515.2290303390838L858.4615384615385,515.3328364068803L861.9230769230769,515.0040108549094L865.3846153846154,514.9833367339999L868.8461538461538,515.0002539833048L872.3076923076923,514.9797570850202L875.7692307692307,514.5736844178574L879.2307692307692,514.423849017615L882.6923076923076,519.3225200902745L886.1538461538462,514.2196557616915" style="fill: none; stroke: #1f77b4; stroke-width: 2;"></path></g></g><path class="foreground" d="" style="display: none; fill: none;"></path></g><g transform="translate(0,0)"><path class="background" d="M0,0h900v600h-900Z" style="fill: none;"></path><g><g class="mark-line role-mark marks"><path d="M6.923076923076923,525.216621023936L10.384615384615385,519.5759426233178L13.846153846153847,495.19926068351737L17.30769230769231,499.3179932406452L20.76923076923077,484.0179898394319L24.230769230769234,489.50644730991553L27.692307692307693,480.34913231532363L31.153846153846157,484.4665680307468L34.61538461538462,478.4004319177393L38.07692307692308,487.8422774509265L41.53846153846154,475.04567044208983L45,484.66492330510124L48.46153846153847,472.2452200041072L51.92307692307693,476.2004581436645L55.38461538461539,472.0200036691512L58.84615384615385,481.7941751999544L62.307692307692314,471.21185305974984L65.76923076923077,480.8361513245098L69.23076923076924,470.2204716524526L72.6923076923077,481.4212098675911L76.15384615384616,475.64925145126796L79.61538461538461,471.9787383411895L83.07692307692308,468.9767600561095L86.53846153846155,472.50171066887157L90,468.69023921573137L93.46153846153847,471.79235673595656L96.92307692307693,469.0313507158975L100.38461538461539,471.66076601223045L103.84615384615385,467.9834743261853L107.3076923076923,469.7234854837278L110.76923076923077,474.56056600165357L114.23076923076923,477.59333076610847L117.6923076923077,467.1930290480258L121.15384615384615,469.68247570051903L124.61538461538463,474.6324098436774L128.07692307692307,470.0992136615885L131.53846153846155,473.9991212510781L135,469.2140861948202L138.46153846153848,466.4922998848399L141.9230769230769,468.21232225067206L145.3846153846154,474.037503909012L148.84615384615384,468.4723286471609L152.30769230769232,466.1862180246124L155.76923076923077,470.6693810129911L159.23076923076923,465.23311599217L162.69230769230768,468.0377697312255L166.15384615384616,473.452750458098L169.6153846153846,467.63843017141176L173.0769230769231,473.62592520513033L176.53846153846155,469.217371483167L180,465.5640988442381L183.46153846153845,467.61859995299505L186.92307692307693,473.09073033542825L190.3846153846154,475.45647589586844L193.84615384615387,467.4600710035334L197.3076923076923,467.0109483102693L200.76923076923077,465.80652185747726L204.23076923076923,475.4648329863857L207.6923076923077,465.19153033692083L211.15384615384616,466.8088434313854L214.6153846153846,465.09861020641637L218.07692307692307,481.5157073533168L221.53846153846155,464.9894310337739L225,475.22041282024685L228.46153846153845,464.9568729825552L231.9230769230769,474.989765258449L235.3846153846154,465.1289548143055L238.84615384615384,466.7335926716024L242.3076923076923,472.7440678142678L245.76923076923075,466.12053342272594L249.23076923076925,477.38613596031246L252.6923076923077,468.7053742827032L256.15384615384613,467.7549261202417L259.6153846153846,476.97659065196586L263.0769230769231,467.3271038046534L266.53846153846155,468.6898322178418L270,466.7733116859861L273.46153846153845,469.37475551461915L276.92307692307696,467.25626257523976L280.3846153846154,468.78836125229884L283.8461538461538,475.0322599730495L287.30769230769226,468.13270564509037L290.7692307692308,475.1933975858987L294.2307692307692,468.2472869454197L297.6923076923077,466.8250422013668L301.15384615384613,476.3944146222901L304.61538461538464,467.0641099790897L308.0769230769231,476.1028650977293L311.53846153846155,467.2910268868789L315,468.074583973802L318.46153846153845,473.17547843010055L321.9230769230769,476.3993648066706L325.38461538461536,466.52860278525276L328.8461538461538,470.9926509745447L332.3076923076923,469.0756218407487L335.7692307692308,467.5787091716533L339.2307692307692,467.3086969827804L342.6923076923077,476.02419050069955L346.1538461538462,466.8357838383859L349.61538461538464,476.077843290958L353.0769230769231,466.267659601971L356.53846153846155,467.46837847387457L360,474.16867905523196L363.46153846153845,467.52007570281387L366.9230769230769,474.1039588970083L370.38461538461536,467.62568613398776L373.84615384615387,465.88770727737614L377.3076923076923,468.1013619323305L380.7692307692308,467.03312222306715L384.2307692307692,475.66712102975623L387.69230769230774,468.3574208299587L391.1538461538462,468.5823503544895L394.6153846153846,466.44323662698355L398.07692307692304,467.05469938487994L401.53846153846155,474.1194294911936L405,466.8688288155024L408.46153846153845,474.2374438399816L411.9230769230769,470.3405920204985L415.3846153846154,465.9503699862878L418.84615384615387,475.9995456906066L422.3076923076923,466.15346023829363L425.7692307692308,475.46309660762734L429.2307692307692,466.2989472315386L432.6923076923077,467.5385632260291L436.15384615384613,466.4308570347593L439.6153846153846,483.4732215653695L443.0769230769231,468.25662511566014L446.53846153846155,475.4866317042566L450,465.84608435435604L453.46153846153845,466.8992146776878L456.9230769230769,466.3997355806693L460.38461538461536,475.8419915069031L463.8461538461538,465.7592297521782L467.3076923076923,466.70486952831715L470.7692307692308,473.54112645408054L474.2307692307692,468.0939729739687L477.6923076923077,474.3985349482437L481.15384615384613,467.0972813904323L484.6153846153846,465.71315904464507L488.07692307692304,477.01794922801486L491.5384615384615,467.1296681360725L495.00000000000006,469.51043363348595L498.4615384615385,468.1440679775401L501.92307692307696,470.3172042426397L505.3846153846154,465.71780310551605L508.8461538461538,474.70824118074205L512.3076923076923,465.2680700325541L515.7692307692307,467.6560389334024L519.2307692307692,467.1101455405379L522.6923076923077,476.88644653477263L526.1538461538462,468.38444689083644L529.6153846153846,476.7819578872632L533.0769230769231,466.9432903642153L536.5384615384615,476.45894478192616L540,468.84483460263937L543.4615384615385,468.04518797234664L546.9230769230769,474.6335917795968L550.3846153846155,485.8693772125042L553.8461538461539,467.578002251292L557.3076923076924,469.14067763157414L560.7692307692308,471.32644956314533L564.2307692307692,469.3860418972031L567.6923076923076,474.6804241652821L571.1538461538461,470.64187617189964L574.6153846153845,468.4300330025738L578.0769230769231,468.63661286689313L581.5384615384615,476.2360808092256L585,470.35128283700584L588.4615384615385,483.2937486289894L591.9230769230769,471.9438321448784L595.3846153846154,468.08234670487525L598.8461538461538,478.1755455642702L602.3076923076923,475.6660233192971L605.7692307692308,476.43289569837077L609.2307692307693,468.86526187037555L612.6923076923077,470.5717979185981L616.1538461538462,468.4775477487975L619.6153846153846,475.0518709096083L623.0769230769231,471.2236749661566L626.5384615384615,473.0214753666194L630,476.8485993446881L633.4615384615385,475.783710636127L636.9230769230769,478.56886028591845L640.3846153846154,475.34494032116856L643.8461538461538,474.4112421449268L647.3076923076923,482.7892882172364L650.7692307692307,473.80437696204564L654.2307692307692,481.5834528000544L657.6923076923076,474.683584332587L661.1538461538462,492.32324410489684L664.6153846153846,479.7320028129348L668.0769230769231,477.62234095333207L671.5384615384615,479.6361747453441L675,477.0145517133469L678.4615384615385,488.6776145203112L681.9230769230769,479.1840322584767L685.3846153846154,478.55192595211423L688.8461538461538,483.66318362863865L692.3076923076924,483.5442986251076L695.7692307692308,481.25100003692444L699.2307692307693,481.1582585947399L702.6923076923077,481.05234083690095L706.1538461538462,492.7414584682985L709.6153846153846,481.2301035769647L713.0769230769231,483.3360863248238L716.5384615384615,486.84634289111244L720,481.33835334233146L723.4615384615385,479.66728155756306L726.9230769230769,483.10998287974496L730.3846153846154,481.76392980597814L733.8461538461538,481.78196095849984L737.3076923076923,482.2858166280751L740.7692307692307,480.74715763115427L744.2307692307692,483.4883593077106L747.6923076923077,484.67100238044037L751.1538461538462,482.67462159828494L754.6153846153846,485.11841075677484L758.0769230769231,482.6865117136369L761.5384615384615,484.81300935423764L765,482.9144514258096L768.4615384615385,482.84023668639054L771.9230769230769,500.0067260049773L775.3846153846155,485.25880486250793L778.8461538461539,481.1365926947243L782.3076923076924,485.66382127982496L785.7692307692308,483.78036838234397L789.2307692307692,483.37717155124915L792.6923076923076,482.18199009956055L796.1538461538461,483.5526975024655L799.6153846153845,482.8996282527881L803.0769230769231,483.97596645019325L806.5384615384615,484.443401584377L810,486.2881671661132L813.4615384615385,484.4573475527668L816.9230769230769,484.2517687515855L820.3846153846154,486.60693994234657L823.8461538461538,494.34822175035697L827.3076923076923,494.26026427560174L830.7692307692308,488.6405642211413L834.2307692307693,487.1517390286413L837.6923076923077,485.9060139002935L841.1538461538462,486.7484853192481L844.6153846153846,488.4536017016413L848.0769230769231,486.1914505336504L851.5384615384615,486.6051719104519L855,485.27064912659046L858.4615384615385,485.19404366947L861.9230769230769,487.1533023143392L865.3846153846154,487.82362883082305L868.8461538461538,487.14451646745846L872.3076923076923,485.43718745264425L875.7692307692307,486.8295883221257L879.2307692307692,481.6960448907396L882.6923076923076,496.0957820320405L886.1538461538462,487.40818929498175" style="fill: none; stroke: #aec7e8; stroke-width: 2;"></path></g></g><path class="foreground" d="" style="display: none; fill: none;"></path></g><g transform="translate(0,0)"><path class="background" d="M0,0h900v600h-900Z" style="fill: none;"></path><g><g class="mark-line role-mark marks"><path d="M6.923076923076923,520.9266124032031L10.384615384615385,481.29831208866653L13.846153846153847,441.79896274595194L17.30769230769231,402.3165310080076L20.76923076923077,361.36793423086874L24.230769230769234,323.12443497139384L27.692307692307693,270.92377691003793L31.153846153846157,390.8285966268693L34.61538461538462,358.0175398854406L38.07692307692308,335.6542559174688L41.53846153846154,321.0625301148639L45,299.59323055290514L48.46153846153847,274.65512619797755L51.92307692307693,249.78904600397317L55.38461538461539,196.54863120128348L58.84615384615385,313.8539355304374L62.307692307692314,287.3381554522336L65.76923076923077,280.22485467328977L69.23076923076924,264.07170971744324L72.6923076923077,248.52226277986162L76.15384615384616,231.3687407203662L79.61538461538461,207.33455919150555L83.07692307692308,140.57568982196275L86.53846153846155,280.658598717913L90,265.81596881397763L93.46153846153847,255.4653165077489L96.92307692307693,238.09693397814115L100.38461538461539,227.27624114930072L103.84615384615385,216.8330790474903L107.3076923076923,197.29199372056522L110.76923076923077,139.14250872342225L114.23076923076923,226.92935123603962L117.6923076923077,215.05329662169112L121.15384615384615,203.7509520182787L124.61538461538463,191.64113501695962L128.07692307692307,181.15998591187304L131.53846153846155,168.5050798258346L135,158.4981313268816L138.46153846153848,99.69003814106931L141.9230769230769,191.8228336548947L145.3846153846154,186.61869859230615L148.84615384615384,172.7597101968578L152.30769230769232,161.90843729288486L155.76923076923077,152.78098779078528L159.23076923076923,142.24480555415806L162.69230769230768,134.3644504993639L166.15384615384616,85.97760166148647L169.6153846153846,166.54285765552393L173.0769230769231,167.56013182464747L176.53846153846155,149.63862543324655L180,140.0583090379009L183.46153846153845,132.87477150123135L186.92307692307693,129.61811133874758L190.3846153846154,126.47818055741699L193.84615384615387,74.64570521533321L197.3076923076923,151.11158586249712L200.76923076923077,142.98249598537902L204.23076923076923,140.88635078951674L207.6923076923077,127.26432347153742L211.15384615384616,119.43546911335896L214.6153846153846,117.53330542197877L218.07692307692307,147.83585186631836L221.53846153846155,73.67365359542674L225,141.74533085768667L228.46153846153845,131.2357170321896L231.9230769230769,129.73635659729857L235.3846153846154,116.36174308927349L238.84615384615384,106.92880682917215L242.3076923076923,110.01935231703487L245.76923076923075,92.41211773053621L249.23076923076925,101.8975231398791L252.6923076923077,123.9528876143078L256.15384615384613,123.4711515021824L259.6153846153846,117.54525971431373L263.0769230769231,106.91428419173485L266.53846153846155,98.73343269815591L270,92.93574930225144L273.46153846153845,86.25662242628118L276.92307692307696,54.76487781738537L280.3846153846154,119.3236517741585L283.8461538461538,117.45156845262217L287.30769230769226,98.19999126512222L290.7692307692308,103.97685160238186L294.2307692307692,93.55712098511393L297.6923076923077,82.87288703552011L301.15384615384613,87.26472387875688L304.61538461538464,52.688111267640146L308.0769230769231,119.74331862762978L311.53846153846155,100.98825584334989L315,96.04182225541452L318.46153846153845,164.75020840581044L321.9230769230769,93.14642097161227L325.38461538461536,77.99187170622154L328.8461538461538,83.5129886260134L332.3076923076923,51.857756520968934L335.7692307692308,110.62638343731675L339.2307692307692,107.49795207414985L342.6923076923077,115.14823798414882L346.1538461538462,101.33334959546497L349.61538461538464,104.43535627313125L353.0769230769231,82.47445160363895L356.53846153846155,82.68290694708493L360,60.95262682328651L363.46153846153845,101.90616470995974L366.9230769230769,103.56408798705552L370.38461538461536,83.81483153987634L373.84615384615387,78.47612689736508L377.3076923076923,76.04205535679004L380.7692307692308,71.95370553034796L384.2307692307692,78.10868577641743L387.69230769230774,42.46575461598459L391.1538461538462,91.27977127478503L394.6153846153846,84.08772449576023L398.07692307692304,79.79535088148451L401.53846153846155,87.00748070826818L405,71.673761670327L408.46153846153845,85.98419047058212L411.9230769230769,62.31630211551851L415.3846153846154,38.93850017087408L418.84615384615387,91.48485226281007L422.3076923076923,89.45581985139262L425.7692307692308,86.5745973279779L429.2307692307692,67.63672623361762L432.6923076923077,68.34742562008975L436.15384615384613,64.50703839997807L439.6153846153846,151.75604618302526L443.0769230769231,42.24283501703374L446.53846153846155,92.84195626343215L450,78.5569057638659L453.46153846153845,72.31520212963356L456.9230769230769,68.79155494119715L460.38461538461536,74.61473055037054L463.8461538461538,62.802070049570034L467.3076923076923,69.29664463215292L470.7692307692308,60.718127647416594L474.2307692307692,81.06495968858276L477.6923076923077,109.02916284836384L481.15384615384613,90.3840153071197L484.6153846153846,64.13311285713385L488.07692307692304,91.16573309582037L491.5384615384615,65.66303257270212L495.00000000000006,75.09785995153608L498.4615384615385,36.0293177684158L501.92307692307696,76.13680711853033L505.3846153846154,82.61144577712238L508.8461538461538,88.56911743121559L512.3076923076923,81.523258380128L515.7692307692307,70.1917475062523L519.2307692307692,71.02696118401559L522.6923076923077,103.12024795792023L526.1538461538462,64.2816880237495L529.6153846153846,110.9561765531902L533.0769230769231,94.9295036508475L536.5384615384615,95.32157011067078L540,102.40899577297165L543.4615384615385,89.15176071707272L546.9230769230769,87.71499240660373L550.3846153846155,150.98748254725734L553.8461538461539,61.02204389485664L557.3076923076924,85.90289830547934L560.7692307692308,111.37000356563304L564.2307692307692,94.78201085200972L567.6923076923076,88.71258414281303L571.1538461538461,97.07588605627468L574.6153846153845,106.72177222637855L578.0769230769231,76.71922207579169L581.5384615384615,84.66003419022692L585,93.89687608141696L588.4615384615385,121.44747189543119L591.9230769230769,102.39161785553539L595.3846153846154,102.09871182515555L598.8461538461538,117.86089329121474L602.3076923076923,105.21327014218005L605.7692307692308,103.07619498343587L609.2307692307693,84.43002928148127L612.6923076923077,114.16426188650652L616.1538461538462,106.5182403594025L619.6153846153846,107.84513784505798L623.0769230769231,105.1233321990465L626.5384615384615,105.46327981367283L630,111.00298573482242L633.4615384615385,134.32692772046616L636.9230769230769,106.05466224473258L640.3846153846154,114.79112228681497L643.8461538461538,112.50543734617125L647.3076923076923,126.66274974964982L650.7692307692307,116.81361342151773L654.2307692307692,111.60944619573672L657.6923076923076,113.92787138689759L661.1538461538462,159.63782670188513L664.6153846153846,94.433161730161L668.0769230769231,117.6236862342989L671.5384615384615,124.18381207069996L675,115.62061359534799L678.4615384615385,139.0069310305647L681.9230769230769,116.70362793898217L685.3846153846154,116.2962521599237L688.8461538461538,119.2125517314163L692.3076923076924,109.5304113073585L695.7692307692308,127.58855884211778L699.2307692307693,120.00607337394906L702.6923076923077,118.2993896518153L706.1538461538462,136.1684210526316L709.6153846153846,116.1235147893908L713.0769230769231,121.50829562594265L716.5384615384615,125.34672646825864L720,102.63968143191424L723.4615384615385,112.41829895938511L726.9230769230769,127.22054623156596L730.3846153846154,116.67726783600902L733.8461538461538,115.41626454005178L737.3076923076923,112.66428831699275L740.7692307692307,113.33322102993455L744.2307692307692,109.9735782480606L747.6923076923077,106.89101209097831L751.1538461538462,119.7253964059551L754.6153846153846,125.54135800209087L758.0769230769231,113.15463017178924L761.5384615384615,122.39670019538309L765,112.31385776255509L768.4615384615385,110.20932099875576L771.9230769230769,180.21695862896732L775.3846153846155,104.9793373071599L778.8461538461539,119.49172902892839L782.3076923076924,120.4395050723304L785.7692307692308,113.31782411787363L789.2307692307692,114.67548914859475L792.6923076923076,109.01391841912482L796.1538461538461,111.08685129303686L799.6153846153845,106.15326611304991L803.0769230769231,95.91128493480592L806.5384615384615,117.07104274765298L810,123.18554080768142L813.4615384615385,115.0690913449944L816.9230769230769,112.17294719552626L820.3846153846154,118.2392214816849L823.8461538461538,132.0556865149417L827.3076923076923,122.43208525619676L830.7692307692308,112.58995452605551L834.2307692307693,122.65180495951226L837.6923076923077,118.04253076761154L841.1538461538462,121.13989885962124L844.6153846153846,125.16659778806263L848.0769230769231,110.26387112930276L851.5384615384615,119.20994147964849L855,106.57875795353118L858.4615384615385,99.72544369875365L861.9230769230769,112.86459568413554L865.3846153846154,113.23777429032135L868.8461538461538,109.42482254446064L872.3076923076923,110.60888658585898L875.7692307692307,105.26444943751297L879.2307692307692,114.95671922703643L882.6923076923076,176.73201845918697L886.1538461538462,98.14358273680455" style="fill: none; stroke: #98df8a; stroke-width: 2;"></path></g></g><path class="foreground" d="" style="display: none; fill: none;"></path></g><g transform="translate(0,0)"><path class="background" d="M0,0h900v600h-900Z" style="fill: none;"></path><g><g class="mark-line role-mark marks"><path d="M6.923076923076923,524.4507745245088L10.384615384615385,486.82451569049505L13.846153846153847,449.04995152171455L17.30769230769231,411.28154752909177L20.76923076923077,373.5007746470003L24.230769230769234,335.75090375483364L27.692307692307693,294.01780301821776L31.153846153846157,386.768375276253L34.61538461538462,363.78139314484287L38.07692307692308,350.7905909264778L41.53846153846154,315.67652778712966L45,293.0418719211823L48.46153846153847,269.5823026027673L51.92307692307693,244.65055126093014L55.38461538461539,198.9507823040888L58.84615384615385,322.04496468390795L62.307692307692314,302.49581262717845L65.76923076923077,284.28611588144094L69.23076923076924,271.35594573244407L72.6923076923077,256.5581854043392L76.15384615384616,237.2063730581398L79.61538461538461,215.42662689576946L83.07692307692308,155.53076365259102L86.53846153846155,283.2479010916026L90,273.9166164466115L93.46153846153847,258.9553299901743L96.92307692307693,246.51908600953192L100.38461538461539,233.20703716847257L103.84615384615385,222.69573081571755L107.3076923076923,208.43019369242234L110.76923076923077,147.0568530885403L114.23076923076923,233.24766595329098L117.6923076923077,219.01423580094757L121.15384615384615,207.2314260154684L124.61538461538463,198.47234310753626L128.07692307692307,184.8282525580008L131.53846153846155,173.083725078223L135,163.50022023197764L138.46153846153848,105.88586893357026L141.9230769230769,194.23001871291189L145.3846153846154,184.31516445393285L148.84615384615384,177.8322295002225L152.30769230769232,166.67225415202714L155.76923076923077,153.58769845979978L159.23076923076923,146.0647101082937L162.69230769230768,136.63546148357946L166.15384615384616,95.3565796390397L169.6153846153846,170.91346153846158L173.0769230769231,168.38126175814153L176.53846153846155,158.79088498901058L180,144.9318282340724L183.46153846153845,143.39450464069085L186.92307692307693,127.08089444749046L190.3846153846154,128.2026123394503L193.84615384615387,85.35264565798909L197.3076923076923,154.01453844294707L200.76923076923077,148.99316104408234L204.23076923076923,144.0878491361842L207.6923076923077,133.4812208772168L211.15384615384616,125.7221806550199L214.6153846153846,123.04454320884497L218.07692307692307,149.91845158967706L221.53846153846155,78.73303167420806L225,144.99635562861522L228.46153846153845,134.87668984580824L231.9230769230769,121.18286294100031L235.3846153846154,118.92123658892622L238.84615384615384,111.34157839276801L242.3076923076923,106.14051418173523L245.76923076923075,99.93645099172433L249.23076923076925,115.09686976002801L252.6923076923077,131.0616220018906L256.15384615384613,132.6851683584725L259.6153846153846,121.49841974812132L263.0769230769231,112.48648506104797L266.53846153846155,113.95788170715504L270,99.2065194081063L273.46153846153845,88.30703617171261L276.92307692307696,59.505608229248644L280.3846153846154,121.69196404515404L283.8461538461538,119.76670787461757L287.30769230769226,107.8142928684569L290.7692307692308,109.41062545439175L294.2307692307692,95.5263037009437L297.6923076923077,93.47653650130832L301.15384615384613,91.3642979805402L304.61538461538464,57.97081244811706L308.0769230769231,113.53284236516113L311.53846153846155,101.98275078568592L315,100.20985063572394L318.46153846153845,167.4653483810705L321.9230769230769,95.87868530717995L325.38461538461536,83.73962510314368L328.8461538461538,86.64897889638053L332.3076923076923,55.891197014723915L335.7692307692308,114.02575918704949L339.2307692307692,114.13057063896571L342.6923076923077,115.6292470780103L346.1538461538462,104.3043599000277L349.61538461538464,112.99731247604956L353.0769230769231,91.12948983780753L356.53846153846155,86.9079601795211L360,65.26830973606013L363.46153846153845,95.54668304668306L366.9230769230769,98.26017342451345L370.38461538461536,85.43007092821541L373.84615384615387,85.01442490882371L377.3076923076923,76.4787157049805L380.7692307692308,71.5482823673935L384.2307692307692,75.56438804952481L387.69230769230774,46.28886725089259L391.1538461538462,96.74417278223501L394.6153846153846,86.47175279029058L398.07692307692304,81.51645493648087L401.53846153846155,88.70152616814661L405,76.78194093696848L408.46153846153845,79.66505766695826L411.9230769230769,63.93699127088524L415.3846153846154,44.64780630654186L418.84615384615387,90.37354069692157L422.3076923076923,81.05052279151461L425.7692307692308,86.18860465063878L429.2307692307692,82.14779129975132L432.6923076923077,69.16798264807167L436.15384615384613,71.46343597184797L439.6153846153846,151.76201232430452L443.0769230769231,43.508051659090995L446.53846153846155,99.6859735314499L450,79.26711668273865L453.46153846153845,71.09462808858366L456.9230769230769,66.96227087374793L460.38461538461536,74.87478340330513L463.8461538461538,70.44883334325849L467.3076923076923,60.124933004259454L470.7692307692308,53.86503666839935L474.2307692307692,94.33444099634747L477.6923076923077,100.66080708282534L481.15384615384613,89.71778199532704L484.6153846153846,65.93502728226068L488.07692307692304,94.38454067783952L491.5384615384615,61.154800066249734L495.00000000000006,74.48213349447708L498.4615384615385,43.41890420899841L501.92307692307696,89.01794953553417L505.3846153846154,72.40580051061684L508.8461538461538,91.21199335460565L512.3076923076923,82.41511561055034L515.7692307692307,82.3865865835397L519.2307692307692,89.2419767211085L522.6923076923077,89.42712679789891L526.1538461538462,74.42231389498768L529.6153846153846,105.27802831764681L533.0769230769231,93.92563156400804L536.5384615384615,90.6507451633806L540,96.8985653283555L543.4615384615385,87.17267149643007L546.9230769230769,80.41853512705532L550.3846153846155,151.69172932330824L553.8461538461539,66.20798725548478L557.3076923076924,98.38132560913269L560.7692307692308,111.50905759269358L564.2307692307692,93.10793907871724L567.6923076923076,96.81594822420185L571.1538461538461,103.5484121055799L574.6153846153845,92.91445418377211L578.0769230769231,91.64555836999517L581.5384615384615,76.0233918128654L585,104.86462793227878L588.4615384615385,117.58276766241076L591.9230769230769,105.27846168457822L595.3846153846154,105.48312577998456L598.8461538461538,115.81854795816939L602.3076923076923,111.23388023541744L605.7692307692308,103.88455872168423L609.2307692307693,86.67701882415047L612.6923076923077,120.7353569901667L616.1538461538462,109.5389213767315L619.6153846153846,114.43188578227246L623.0769230769231,93.11505142829866L626.5384615384615,110.43166036601764L630,118.97350599976232L633.4615384615385,140.09269026260185L636.9230769230769,102.79307538538123L640.3846153846154,113.80740903192796L643.8461538461538,117.25539076527718L647.3076923076923,121.29167136496473L650.7692307692307,118.39144364001608L654.2307692307692,119.48562374875638L657.6923076923076,113.99764083671171L661.1538461538462,171.73748636621028L664.6153846153846,101.25576359769394L668.0769230769231,120.67628774069262L671.5384615384615,122.72151942250342L675,116.15246767084805L678.4615384615385,137.8768415737205L681.9230769230769,117.76538721619096L685.3846153846154,115.8782862471013L688.8461538461538,119.2518118650306L692.3076923076924,113.0174421661816L695.7692307692308,119.38522694945691L699.2307692307693,119.27194187805101L702.6923076923077,117.17320752924782L706.1538461538462,136.53918970087088L709.6153846153846,116.8675422755922L713.0769230769231,121.61958648121991L716.5384615384615,123.5734460237019L720,102.27033724901978L723.4615384615385,119.5696196826235L726.9230769230769,129.2492483907082L730.3846153846154,117.13625221087905L733.8461538461538,117.55236208858351L737.3076923076923,114.4417895829991L740.7692307692307,113.99280699956856L744.2307692307692,110.63040582691241L747.6923076923077,107.45739236187359L751.1538461538462,118.60894724529498L754.6153846153846,125.75871963393324L758.0769230769231,114.92725937593119L761.5384615384615,122.56460285041504L765,113.18141585240977L768.4615384615385,110.66863931015374L771.9230769230769,179.68776366222303L775.3846153846155,104.40963275871458L778.8461538461539,118.37317160185509L782.3076923076924,122.8566183220121L785.7692307692308,113.66207931310764L789.2307692307692,115.28465510979613L792.6923076923076,111.81382128264346L796.1538461538461,108.42676069003446L799.6153846153845,108.42584452620818L803.0769230769231,99.5831894788749L806.5384615384615,117.37367164090224L810,122.66738171630409L813.4615384615385,114.61885560264476L816.9230769230769,113.74527112232036L820.3846153846154,118.7462755804259L823.8461538461538,131.0889782699148L827.3076923076923,124.88478030255756L830.7692307692308,112.26803463309294L834.2307692307693,119.25675451535783L837.6923076923077,118.36282988388798L841.1538461538462,121.44778747798728L844.6153846153846,123.71828604068563L848.0769230769231,110.5640167045595L851.5384615384615,118.1191281996117L855,107.80728163328526L858.4615384615385,99.767791146793L861.9230769230769,113.11475409836065L865.3846153846154,113.62766753851692L868.8461538461538,109.67887241078964L872.3076923076923,109.04656747471664L875.7692307692307,109.50025788387865L879.2307692307692,115.7383848060388L882.6923076923076,164.56913339824737L886.1538461538462,93.35305759350696" style="fill: none; stroke: #d62728; stroke-width: 2;"></path></g></g><path class="foreground" d="" style="display: none; fill: none;"></path></g><g transform="translate(0,0)"><path class="background" d="M0,0h900v600h-900Z" style="fill: none;"></path><g><g class="mark-line role-mark marks"><path d="M6.923076923076923,538.1475245581597L10.384615384615385,507.2025952692127L13.846153846153847,476.2867428683584L17.30769230769231,443.7744591590745L20.76923076923077,412.46574555931954L24.230769230769234,381.23972506223674L27.692307692307693,377.02268686172835L31.153846153846157,419.5397902280917L34.61538461538462,404.24464178669353L38.07692307692308,379.4567609640882L41.53846153846154,367.340655629096L45,339.40345368916803L48.46153846153847,319.430974466287L51.92307692307693,299.41653812621547L55.38461538461539,263.7832819950209L58.84615384615385,340.8279299703689L62.307692307692314,323.44825807782564L65.76923076923077,305.2184782042602L69.23076923076924,289.3566324548803L72.6923076923077,274.1833793761224L76.15384615384616,258.8934256649673L79.61538461538461,243.2949424396637L83.07692307692308,230.6205871423262L86.53846153846155,315.64878560128847L90,304.23796259450853L93.46153846153847,292.9388677859511L96.92307692307693,282.74947406933137L100.38461538461539,269.6021061586747L103.84615384615385,258.3027003626151L107.3076923076923,253.18506966810187L110.76923076923077,224.8447302940562L114.23076923076923,286.71538317406777L117.6923076923077,277.37397270590355L121.15384615384615,266.57926443785624L124.61538461538463,252.4523245160722L128.07692307692307,247.479158396189L131.53846153846155,233.6497600372101L135,219.44135035558216L138.46153846153848,209.7143468492565L141.9230769230769,257.79228773875275L145.3846153846154,257.1964717181138L148.84615384615384,249.84911094069815L152.30769230769232,232.70736078545264L155.76923076923077,231.92631876444278L159.23076923076923,227.7097621419573L162.69230769230768,216.3275915945147L166.15384615384616,191.03791982665217L169.6153846153846,259.0890516827849L173.0769230769231,247.00277200277196L176.53846153846155,242.5028459912181L180,237.40740740740736L183.46153846153845,220.45320442576138L186.92307692307693,218.4108641487666L190.3846153846154,211.8402714366728L193.84615384615387,183.89434936055557L197.3076923076923,239.8490595473736L200.76923076923077,233.57706931851422L204.23076923076923,227.63698696846325L207.6923076923077,220.8674881928234L211.15384615384616,214.9115789997825L214.6153846153846,208.00290541675926L218.07692307692307,228.17822741018432L221.53846153846155,189.18650280980725L225,223.97438722472097L228.46153846153845,225.30455526613972L231.9230769230769,219.83045941040243L235.3846153846154,213.9038544892552L238.84615384615384,208.19740530033425L242.3076923076923,195.11541158771104L245.76923076923075,197.6982442941028L249.23076923076925,207.0741151694934L252.6923076923077,217.60460182410705L256.15384615384613,211.27755307094586L259.6153846153846,214.53518003558682L263.0769230769231,209.0373527874987L266.53846153846155,195.77386204034295L270,198.72410529636514L273.46153846153845,185.47196782455893L276.92307692307696,182.61742750515492L280.3846153846154,217.4672489082969L283.8461538461538,213.03251664619555L287.30769230769226,207.9652489786592L290.7692307692308,207.1966669669548L294.2307692307692,190.22930442650056L297.6923076923077,197.58478756898336L301.15384615384613,189.3747140727457L304.61538461538464,168.17881198339072L308.0769230769231,205.50323453003722L311.53846153846155,199.29644444690814L315,206.49594003747654L318.46153846153845,224.31358928789166L321.9230769230769,195.37249342745616L325.38461538461536,193.9160177570774L328.8461538461538,186.2146318818183L332.3076923076923,177.46485475120016L335.7692307692308,208.1551372623393L339.2307692307692,206.18800624123512L342.6923076923077,192.67219598304823L346.1538461538462,196.52109564784567L349.61538461538464,183.8723316211329L353.0769230769231,187.88121164358796L356.53846153846155,174.923802293703L360,164.00995896355928L363.46153846153845,203.95538650061826L366.9230769230769,192.04589557768153L370.38461538461536,188.7940093103136L373.84615384615387,195.6895501185548L377.3076923076923,190.66781861743826L380.7692307692308,185.02540203552365L384.2307692307692,190.14654364237427L387.69230769230774,173.45839642018154L391.1538461538462,201.6435239401747L394.6153846153846,197.8208532424351L398.07692307692304,193.6975104755248L401.53846153846155,190.3692313054949L405,188.95171813832107L408.46153846153845,183.34657108673574L411.9230769230769,179.4491646233677L415.3846153846154,173.11635899423504L418.84615384615387,198.0227847314323L422.3076923076923,194.39675704050777L425.7692307692308,182.58276272827777L429.2307692307692,178.38456832406945L432.6923076923077,184.63637140925024L436.15384615384613,181.1371079681022L439.6153846153846,239.14952363370756L443.0769230769231,170.75351862202126L446.53846153846155,195.89388081589127L450,191.9137554764288L453.46153846153845,188.72401650421037L456.9230769230769,185.95478106019652L460.38461538461536,185.47610482930776L463.8461538461538,169.49584749473914L467.3076923076923,166.21028164774074L470.7692307692308,169.6972846263547L474.2307692307692,192.69998294388543L477.6923076923077,181.6978318314502L481.15384615384613,177.48246514617975L484.6153846153846,175.82320558727085L488.07692307692304,172.0507429792132L491.5384615384615,195.52244955437885L495.00000000000006,180.02251627535117L498.4615384615385,157.28159734731096L501.92307692307696,183.4686154049076L505.3846153846154,198.35612756808413L508.8461538461538,175.99211595317647L512.3076923076923,182.12420197330238L515.7692307692307,183.74824000933694L519.2307692307692,185.65152591043508L522.6923076923077,171.5624909769298L526.1538461538462,164.48301754417406L529.6153846153846,197.6412201659726L533.0769230769231,196.23519786285192L536.5384615384615,196.33324319243664L540,191.48936170212767L543.4615384615385,174.02764739448156L546.9230769230769,177.7715423364199L550.3846153846155,235.92247635384172L553.8461538461539,192.01019974500636L557.3076923076924,193.9936740973725L560.7692307692308,199.22690374951677L564.2307692307692,202.78294855059588L567.6923076923076,181.85271460442408L571.1538461538461,199.40247143090767L574.6153846153845,202.35814603554633L578.0769230769231,190.80075458379076L581.5384615384615,181.7385376216106L585,192.8265742816385L588.4615384615385,219.66591616785948L591.9230769230769,205.33779105474053L595.3846153846154,186.17259522296368L598.8461538461538,206.57721794165147L602.3076923076923,200.23862892622773L605.7692307692308,190.71357862216553L609.2307692307693,201.44341824526623L612.6923076923077,223.63322463073087L616.1538461538462,201.44571985376942L619.6153846153846,215.88532352899102L623.0769230769231,212.67068939237708L626.5384615384615,199.2827406366515L630,193.17343173431735L633.4615384615385,201.44398991590427L636.9230769230769,198.01151229722655L640.3846153846154,214.19788239806772L643.8461538461538,215.9512055700062L647.3076923076923,222.0089301106782L650.7692307692307,226.92388790904542L654.2307692307692,221.0509798451775L657.6923076923076,209.70631344660987L661.1538461538462,249.4821732502314L664.6153846153846,207.93721631417955L668.0769230769231,222.45281221612404L671.5384615384615,223.53649566770667L675,227.76572668112794L678.4615384615385,230.49466374804933L681.9230769230769,231.46407732394997L685.3846153846154,229.6118519183106L688.8461538461538,228.5937655341955L692.3076923076924,216.68399168399165L695.7692307692308,237.53800476754643L699.2307692307693,236.2821515784006L702.6923076923077,234.77882310957375L706.1538461538462,237.14890073038973L709.6153846153846,231.90721759378786L713.0769230769231,230.01396926761117L716.5384615384615,218.41447271657597L720,216.38673207498135L723.4615384615385,221.5212785386562L726.9230769230769,236.92888732401033L730.3846153846154,218.39321497185466L733.8461538461538,233.26506022088486L737.3076923076923,231.35539636845118L740.7692307692307,214.27849560764523L744.2307692307692,228.111671481146L747.6923076923077,226.88415897142832L751.1538461538462,236.60483114947073L754.6153846153846,235.19779504333755L758.0769230769231,233.39270382188153L761.5384615384615,216.4198459141085L765,220.9675546368767L768.4615384615385,230.83718811055428L771.9230769230769,257.2087363094857L775.3846153846155,215.55714973257176L778.8461538461539,235.81008170186522L782.3076923076924,234.0646247534734L785.7692307692308,232.76965715422057L789.2307692307692,220.90061177414506L792.6923076923076,219.97239720185217L796.1538461538461,218.0199364693064L799.6153846153845,228.06554967824894L803.0769230769231,215.3534172237024L806.5384615384615,234.95903267500873L810,233.09844783501197L813.4615384615385,222.21216404106673L816.9230769230769,220.69735256038214L820.3846153846154,229.68440026004674L823.8461538461538,227.41754286513384L827.3076923076923,230.05447014669852L830.7692307692308,228.45679705842585L834.2307692307693,235.1411328933718L837.6923076923077,233.839527306864L841.1538461538462,232.15232148691325L844.6153846153846,220.74076417817182L848.0769230769231,229.1005531905206L851.5384615384615,227.23273837950643L855,215.72543061070755L858.4615384615385,227.02455355624838L861.9230769230769,223.09068391358198L865.3846153846154,221.8281020391149L868.8461538461538,215.93225884129208L872.3076923076923,229.5134234903515L875.7692307692307,211.52245416487395L879.2307692307692,229.26996347190138L882.6923076923076,248.98449525096675L886.1538461538462,226.66939569155193" style="fill: none; stroke: #2ca02c; stroke-width: 2;"></path></g></g><path class="foreground" d="" style="display: none; fill: none;"></path></g></g><g class="mark-group role-legend"><g transform="translate(918,0)"><path class="background" d="M0,0h101v105h-101Z" style="pointer-events: none; fill: none;"></path><g><g class="mark-group role-legend-entry"><g transform="translate(0,16)"><path class="background" d="M0,0h0v0h0Z" style="pointer-events: none; fill: none;"></path><g><g class="mark-group role-scope"><g transform="translate(0,0)"><path class="background" d="M0,0h101v11h-101Z" style="pointer-events: none; fill: none; opacity: 1;"></path><g><g class="mark-symbol role-legend-symbol" style="pointer-events: none;"><path transform="translate(6,6)" d="M-5,0L5,0" style="fill: none; stroke: #1f77b4; stroke-width: 1.5; opacity: 1;"></path></g><g class="mark-text role-legend-label" style="pointer-events: none;"><text text-anchor="start" transform="translate(16,9)" style="font-family: sans-serif; font-size: 10px; fill: #000; opacity: 1;">Clang</text></g></g><path class="foreground" d="" style="pointer-events: none; display: none; fill: none;"></path></g><g transform="translate(0,13)"><path class="background" d="M0,0h101v11h-101Z" style="pointer-events: none; fill: none; opacity: 1;"></path><g><g class="mark-symbol role-legend-symbol" style="pointer-events: none;"><path transform="translate(6,6)" d="M-5,0L5,0" style="fill: none; stroke: #aec7e8; stroke-width: 1.5; opacity: 1;"></path></g><g class="mark-text role-legend-label" style="pointer-events: none;"><text text-anchor="start" transform="translate(16,9)" style="font-family: sans-serif; font-size: 10px; fill: #000; opacity: 1;">GFortran</text></g></g><path class="foreground" d="" style="pointer-events: none; display: none; fill: none;"></path></g><g transform="translate(0,26)"><path class="background" d="M0,0h101v11h-101Z" style="pointer-events: none; fill: none; opacity: 1;"></path><g><g class="mark-symbol role-legend-symbol" style="pointer-events: none;"><path transform="translate(6,6)" d="M-5,0L5,0" style="fill: none; stroke: #ff7f0e; stroke-width: 1.5; opacity: 1;"></path></g><g class="mark-text role-legend-label" style="pointer-events: none;"><text text-anchor="start" transform="translate(16,9)" style="font-family: sans-serif; font-size: 10px; fill: #000; opacity: 1;">Julia</text></g></g><path class="foreground" d="" style="pointer-events: none; display: none; fill: none;"></path></g><g transform="translate(0,39)"><path class="background" d="M0,0h101v11h-101Z" style="pointer-events: none; fill: none; opacity: 1;"></path><g><g class="mark-symbol role-legend-symbol" style="pointer-events: none;"><path transform="translate(6,6)" d="M-5,0L5,0" style="fill: none; stroke: #ffbb78; stroke-width: 1.5; opacity: 1;"></path></g><g class="mark-text role-legend-label" style="pointer-events: none;"><text text-anchor="start" transform="translate(16,9)" style="font-family: sans-serif; font-size: 10px; fill: #000; opacity: 1;">Julia-builtin</text></g></g><path class="foreground" d="" style="pointer-events: none; display: none; fill: none;"></path></g><g transform="translate(0,52)"><path class="background" d="M0,0h101v11h-101Z" style="pointer-events: none; fill: none; opacity: 1;"></path><g><g class="mark-symbol role-legend-symbol" style="pointer-events: none;"><path transform="translate(6,6)" d="M-5,0L5,0" style="fill: none; stroke: #2ca02c; stroke-width: 1.5; opacity: 1;"></path></g><g class="mark-text role-legend-label" style="pointer-events: none;"><text text-anchor="start" transform="translate(16,9)" style="font-family: sans-serif; font-size: 10px; fill: #000; opacity: 1;">LoopVectorization</text></g></g><path class="foreground" d="" style="pointer-events: none; display: none; fill: none;"></path></g><g transform="translate(0,65)"><path class="background" d="M0,0h101v11h-101Z" style="pointer-events: none; fill: none; opacity: 1;"></path><g><g class="mark-symbol role-legend-symbol" style="pointer-events: none;"><path transform="translate(6,6)" d="M-5,0L5,0" style="fill: none; stroke: #98df8a; stroke-width: 1.5; opacity: 1;"></path></g><g class="mark-text role-legend-label" style="pointer-events: none;"><text text-anchor="start" transform="translate(16,9)" style="font-family: sans-serif; font-size: 10px; fill: #000; opacity: 1;">icc</text></g></g><path class="foreground" d="" style="pointer-events: none; display: none; fill: none;"></path></g><g transform="translate(0,78)"><path class="background" d="M0,0h101v11h-101Z" style="pointer-events: none; fill: none; opacity: 1;"></path><g><g class="mark-symbol role-legend-symbol" style="pointer-events: none;"><path transform="translate(6,6)" d="M-5,0L5,0" style="fill: none; stroke: #d62728; stroke-width: 1.5; opacity: 1;"></path></g><g class="mark-text role-legend-label" style="pointer-events: none;"><text text-anchor="start" transform="translate(16,9)" style="font-family: sans-serif; font-size: 10px; fill: #000; opacity: 1;">ifort</text></g></g><path class="foreground" d="" style="pointer-events: none; display: none; fill: none;"></path></g></g></g><path class="foreground" d="" style="pointer-events: none; display: none; fill: none;"></path></g></g><g class="mark-text role-legend-title" style="pointer-events: none;"><text text-anchor="start" transform="translate(0,9)" style="font-family: sans-serif; font-size: 11px; font-weight: bold; fill: #000; opacity: 1;">Method</text></g></g><path class="foreground" d="" style="pointer-events: none; display: none; fill: none;"></path></g></g></g><path class="foreground" d="" style="display: none; fill: none;"></path></g></g></g></svg>
