<?xml version="1.0" encoding="utf-8"?>
<!DOCTYPE svg PUBLIC "-//W3C//DTD SVG 1.1//EN" "http://www.w3.org/Graphics/SVG/1.1/DTD/svg11.dtd">
<svg class="marks" width="1063" height="647" viewBox="0 0 1063 647" version="1.1" xmlns="http://www.w3.org/2000/svg" xmlns:xlink="http://www.w3.org/1999/xlink"><rect width="1063" height="647" style="fill: white;"></rect><g transform="translate(39,10)"><g class="mark-group role-frame root"><g transform="translate(0,0)"><path class="background" d="M0.5,0.5h900v600h-900Z" style="fill: none; stroke: #ddd;"></path><g><g class="mark-group role-axis"><g transform="translate(0.5,600.5)"><path class="background" d="M0,0h0v0h0Z" style="pointer-events: none; fill: none;"></path><g><g class="mark-rule role-axis-grid" style="pointer-events: none;"><line transform="translate(0,-600)" x2="0" y2="600" style="fill: none; stroke: #ddd; stroke-width: 1; opacity: 1;"></line><line transform="translate(35,-600)" x2="0" y2="600" style="fill: none; stroke: #ddd; stroke-width: 1; opacity: 1;"></line><line transform="translate(69,-600)" x2="0" y2="600" style="fill: none; stroke: #ddd; stroke-width: 1; opacity: 1;"></line><line transform="translate(104,-600)" x2="0" y2="600" style="fill: none; stroke: #ddd; stroke-width: 1; opacity: 1;"></line><line transform="translate(138,-600)" x2="0" y2="600" style="fill: none; stroke: #ddd; stroke-width: 1; opacity: 1;"></line><line transform="translate(173,-600)" x2="0" y2="600" style="fill: none; stroke: #ddd; stroke-width: 1; opacity: 1;"></line><line transform="translate(208,-600)" x2="0" y2="600" style="fill: none; stroke: #ddd; stroke-width: 1; opacity: 1;"></line><line transform="translate(242,-600)" x2="0" y2="600" style="fill: none; stroke: #ddd; stroke-width: 1; opacity: 1;"></line><line transform="translate(277,-600)" x2="0" y2="600" style="fill: none; stroke: #ddd; stroke-width: 1; opacity: 1;"></line><line transform="translate(312,-600)" x2="0" y2="600" style="fill: none; stroke: #ddd; stroke-width: 1; opacity: 1;"></line><line transform="translate(346,-600)" x2="0" y2="600" style="fill: none; stroke: #ddd; stroke-width: 1; opacity: 1;"></line><line transform="translate(381,-600)" x2="0" y2="600" style="fill: none; stroke: #ddd; stroke-width: 1; opacity: 1;"></line><line transform="translate(415,-600)" x2="0" y2="600" style="fill: none; stroke: #ddd; stroke-width: 1; opacity: 1;"></line><line transform="translate(450,-600)" x2="0" y2="600" style="fill: none; stroke: #ddd; stroke-width: 1; opacity: 1;"></line><line transform="translate(485,-600)" x2="0" y2="600" style="fill: none; stroke: #ddd; stroke-width: 1; opacity: 1;"></line><line transform="translate(519,-600)" x2="0" y2="600" style="fill: none; stroke: #ddd; stroke-width: 1; opacity: 1;"></line><line transform="translate(554,-600)" x2="0" y2="600" style="fill: none; stroke: #ddd; stroke-width: 1; opacity: 1;"></line><line transform="translate(588,-600)" x2="0" y2="600" style="fill: none; stroke: #ddd; stroke-width: 1; opacity: 1;"></line><line transform="translate(623,-600)" x2="0" y2="600" style="fill: none; stroke: #ddd; stroke-width: 1; opacity: 1;"></line><line transform="translate(658,-600)" x2="0" y2="600" style="fill: none; stroke: #ddd; stroke-width: 1; opacity: 1;"></line><line transform="translate(692,-600)" x2="0" y2="600" style="fill: none; stroke: #ddd; stroke-width: 1; opacity: 1;"></line><line transform="translate(727,-600)" x2="0" y2="600" style="fill: none; stroke: #ddd; stroke-width: 1; opacity: 1;"></line><line transform="translate(762,-600)" x2="0" y2="600" style="fill: none; stroke: #ddd; stroke-width: 1; opacity: 1;"></line><line transform="translate(796,-600)" x2="0" y2="600" style="fill: none; stroke: #ddd; stroke-width: 1; opacity: 1;"></line><line transform="translate(831,-600)" x2="0" y2="600" style="fill: none; stroke: #ddd; stroke-width: 1; opacity: 1;"></line><line transform="translate(865,-600)" x2="0" y2="600" style="fill: none; stroke: #ddd; stroke-width: 1; opacity: 1;"></line><line transform="translate(900,-600)" x2="0" y2="600" style="fill: none; stroke: #ddd; stroke-width: 1; opacity: 1;"></line></g></g><path class="foreground" d="" style="pointer-events: none; display: none; fill: none;"></path></g></g><g class="mark-group role-axis"><g transform="translate(0.5,0.5)"><path class="background" d="M0,0h0v0h0Z" style="pointer-events: none; fill: none;"></path><g><g class="mark-rule role-axis-grid" style="pointer-events: none;"><line transform="translate(0,600)" x2="900" y2="0" style="fill: none; stroke: #ddd; stroke-width: 1; opacity: 1;"></line><line transform="translate(0,563)" x2="900" y2="0" style="fill: none; stroke: #ddd; stroke-width: 1; opacity: 1;"></line><line transform="translate(0,525)" x2="900" y2="0" style="fill: none; stroke: #ddd; stroke-width: 1; opacity: 1;"></line><line transform="translate(0,488)" x2="900" y2="0" style="fill: none; stroke: #ddd; stroke-width: 1; opacity: 1;"></line><line transform="translate(0,450)" x2="900" y2="0" style="fill: none; stroke: #ddd; stroke-width: 1; opacity: 1;"></line><line transform="translate(0,413)" x2="900" y2="0" style="fill: none; stroke: #ddd; stroke-width: 1; opacity: 1;"></line><line transform="translate(0,375)" x2="900" y2="0" style="fill: none; stroke: #ddd; stroke-width: 1; opacity: 1;"></line><line transform="translate(0,338)" x2="900" y2="0" style="fill: none; stroke: #ddd; stroke-width: 1; opacity: 1;"></line><line transform="translate(0,300)" x2="900" y2="0" style="fill: none; stroke: #ddd; stroke-width: 1; opacity: 1;"></line><line transform="translate(0,263)" x2="900" y2="0" style="fill: none; stroke: #ddd; stroke-width: 1; opacity: 1;"></line><line transform="translate(0,225)" x2="900" y2="0" style="fill: none; stroke: #ddd; stroke-width: 1; opacity: 1;"></line><line transform="translate(0,188)" x2="900" y2="0" style="fill: none; stroke: #ddd; stroke-width: 1; opacity: 1;"></line><line transform="translate(0,150)" x2="900" y2="0" style="fill: none; stroke: #ddd; stroke-width: 1; opacity: 1;"></line><line transform="translate(0,113)" x2="900" y2="0" style="fill: none; stroke: #ddd; stroke-width: 1; opacity: 1;"></line><line transform="translate(0,75)" x2="900" y2="0" style="fill: none; stroke: #ddd; stroke-width: 1; opacity: 1;"></line><line transform="translate(0,38)" x2="900" y2="0" style="fill: none; stroke: #ddd; stroke-width: 1; opacity: 1;"></line><line transform="translate(0,0)" x2="900" y2="0" style="fill: none; stroke: #ddd; stroke-width: 1; opacity: 1;"></line></g></g><path class="foreground" d="" style="pointer-events: none; display: none; fill: none;"></path></g></g><g class="mark-group role-axis"><g transform="translate(0.5,600.5)"><path class="background" d="M0,0h0v0h0Z" style="pointer-events: none; fill: none;"></path><g><g class="mark-rule role-axis-tick" style="pointer-events: none;"><line transform="translate(0,0)" x2="0" y2="5" style="fill: none; stroke: #888; stroke-width: 1; opacity: 1;"></line><line transform="translate(35,0)" x2="0" y2="5" style="fill: none; stroke: #888; stroke-width: 1; opacity: 1;"></line><line transform="translate(69,0)" x2="0" y2="5" style="fill: none; stroke: #888; stroke-width: 1; opacity: 1;"></line><line transform="translate(104,0)" x2="0" y2="5" style="fill: none; stroke: #888; stroke-width: 1; opacity: 1;"></line><line transform="translate(138,0)" x2="0" y2="5" style="fill: none; stroke: #888; stroke-width: 1; opacity: 1;"></line><line transform="translate(173,0)" x2="0" y2="5" style="fill: none; stroke: #888; stroke-width: 1; opacity: 1;"></line><line transform="translate(208,0)" x2="0" y2="5" style="fill: none; stroke: #888; stroke-width: 1; opacity: 1;"></line><line transform="translate(242,0)" x2="0" y2="5" style="fill: none; stroke: #888; stroke-width: 1; opacity: 1;"></line><line transform="translate(277,0)" x2="0" y2="5" style="fill: none; stroke: #888; stroke-width: 1; opacity: 1;"></line><line transform="translate(312,0)" x2="0" y2="5" style="fill: none; stroke: #888; stroke-width: 1; opacity: 1;"></line><line transform="translate(346,0)" x2="0" y2="5" style="fill: none; stroke: #888; stroke-width: 1; opacity: 1;"></line><line transform="translate(381,0)" x2="0" y2="5" style="fill: none; stroke: #888; stroke-width: 1; opacity: 1;"></line><line transform="translate(415,0)" x2="0" y2="5" style="fill: none; stroke: #888; stroke-width: 1; opacity: 1;"></line><line transform="translate(450,0)" x2="0" y2="5" style="fill: none; stroke: #888; stroke-width: 1; opacity: 1;"></line><line transform="translate(485,0)" x2="0" y2="5" style="fill: none; stroke: #888; stroke-width: 1; opacity: 1;"></line><line transform="translate(519,0)" x2="0" y2="5" style="fill: none; stroke: #888; stroke-width: 1; opacity: 1;"></line><line transform="translate(554,0)" x2="0" y2="5" style="fill: none; stroke: #888; stroke-width: 1; opacity: 1;"></line><line transform="translate(588,0)" x2="0" y2="5" style="fill: none; stroke: #888; stroke-width: 1; opacity: 1;"></line><line transform="translate(623,0)" x2="0" y2="5" style="fill: none; stroke: #888; stroke-width: 1; opacity: 1;"></line><line transform="translate(658,0)" x2="0" y2="5" style="fill: none; stroke: #888; stroke-width: 1; opacity: 1;"></line><line transform="translate(692,0)" x2="0" y2="5" style="fill: none; stroke: #888; stroke-width: 1; opacity: 1;"></line><line transform="translate(727,0)" x2="0" y2="5" style="fill: none; stroke: #888; stroke-width: 1; opacity: 1;"></line><line transform="translate(762,0)" x2="0" y2="5" style="fill: none; stroke: #888; stroke-width: 1; opacity: 1;"></line><line transform="translate(796,0)" x2="0" y2="5" style="fill: none; stroke: #888; stroke-width: 1; opacity: 1;"></line><line transform="translate(831,0)" x2="0" y2="5" style="fill: none; stroke: #888; stroke-width: 1; opacity: 1;"></line><line transform="translate(865,0)" x2="0" y2="5" style="fill: none; stroke: #888; stroke-width: 1; opacity: 1;"></line><line transform="translate(900,0)" x2="0" y2="5" style="fill: none; stroke: #888; stroke-width: 1; opacity: 1;"></line></g><g class="mark-text role-axis-label" style="pointer-events: none;"><text text-anchor="start" transform="translate(0,15)" style="font-family: sans-serif; font-size: 10px; fill: #000; opacity: 1;">0</text><text text-anchor="middle" transform="translate(34.61538461538462,15)" style="font-family: sans-serif; font-size: 10px; fill: #000; opacity: 1;">10</text><text text-anchor="middle" transform="translate(69.23076923076924,15)" style="font-family: sans-serif; font-size: 10px; fill: #000; opacity: 1;">20</text><text text-anchor="middle" transform="translate(103.84615384615385,15)" style="font-family: sans-serif; font-size: 10px; fill: #000; opacity: 1;">30</text><text text-anchor="middle" transform="translate(138.46153846153848,15)" style="font-family: sans-serif; font-size: 10px; fill: #000; opacity: 1;">40</text><text text-anchor="middle" transform="translate(173.0769230769231,15)" style="font-family: sans-serif; font-size: 10px; fill: #000; opacity: 1;">50</text><text text-anchor="middle" transform="translate(207.6923076923077,15)" style="font-family: sans-serif; font-size: 10px; fill: #000; opacity: 1;">60</text><text text-anchor="middle" transform="translate(242.3076923076923,15)" style="font-family: sans-serif; font-size: 10px; fill: #000; opacity: 1;">70</text><text text-anchor="middle" transform="translate(276.92307692307696,15)" style="font-family: sans-serif; font-size: 10px; fill: #000; opacity: 1;">80</text><text text-anchor="middle" transform="translate(311.53846153846155,15)" style="font-family: sans-serif; font-size: 10px; fill: #000; opacity: 1;">90</text><text text-anchor="middle" transform="translate(346.1538461538462,15)" style="font-family: sans-serif; font-size: 10px; fill: #000; opacity: 1;">100</text><text text-anchor="middle" transform="translate(380.7692307692308,15)" style="font-family: sans-serif; font-size: 10px; fill: #000; opacity: 1;">110</text><text text-anchor="middle" transform="translate(415.3846153846154,15)" style="font-family: sans-serif; font-size: 10px; fill: #000; opacity: 1;">120</text><text text-anchor="middle" transform="translate(450,15)" style="font-family: sans-serif; font-size: 10px; fill: #000; opacity: 1;">130</text><text text-anchor="middle" transform="translate(484.6153846153846,15)" style="font-family: sans-serif; font-size: 10px; fill: #000; opacity: 1;">140</text><text text-anchor="middle" transform="translate(519.2307692307692,15)" style="font-family: sans-serif; font-size: 10px; fill: #000; opacity: 1;">150</text><text text-anchor="middle" transform="translate(553.8461538461539,15)" style="font-family: sans-serif; font-size: 10px; fill: #000; opacity: 1;">160</text><text text-anchor="middle" transform="translate(588.4615384615385,15)" style="font-family: sans-serif; font-size: 10px; fill: #000; opacity: 1;">170</text><text text-anchor="middle" transform="translate(623.0769230769231,15)" style="font-family: sans-serif; font-size: 10px; fill: #000; opacity: 1;">180</text><text text-anchor="middle" transform="translate(657.6923076923076,15)" style="font-family: sans-serif; font-size: 10px; fill: #000; opacity: 1;">190</text><text text-anchor="middle" transform="translate(692.3076923076924,15)" style="font-family: sans-serif; font-size: 10px; fill: #000; opacity: 1;">200</text><text text-anchor="middle" transform="translate(726.9230769230769,15)" style="font-family: sans-serif; font-size: 10px; fill: #000; opacity: 1;">210</text><text text-anchor="middle" transform="translate(761.5384615384615,15)" style="font-family: sans-serif; font-size: 10px; fill: #000; opacity: 1;">220</text><text text-anchor="middle" transform="translate(796.1538461538461,15)" style="font-family: sans-serif; font-size: 10px; fill: #000; opacity: 1;">230</text><text text-anchor="middle" transform="translate(830.7692307692308,15)" style="font-family: sans-serif; font-size: 10px; fill: #000; opacity: 1;">240</text><text text-anchor="middle" transform="translate(865.3846153846154,15)" style="font-family: sans-serif; font-size: 10px; fill: #000; opacity: 1;">250</text><text text-anchor="end" transform="translate(900,15)" style="font-family: sans-serif; font-size: 10px; fill: #000; opacity: 1;">260</text></g><g class="mark-rule role-axis-domain" style="pointer-events: none;"><line transform="translate(0,0)" x2="900" y2="0" style="fill: none; stroke: #888; stroke-width: 1; opacity: 1;"></line></g><g class="mark-text role-axis-title" style="pointer-events: none;"><text text-anchor="middle" transform="translate(450,30)" style="font-family: sans-serif; font-size: 11px; font-weight: bold; fill: #000; opacity: 1;">Size</text></g></g><path class="foreground" d="" style="pointer-events: none; display: none; fill: none;"></path></g></g><g class="mark-group role-axis"><g transform="translate(0.5,0.5)"><path class="background" d="M0,0h0v0h0Z" style="pointer-events: none; fill: none;"></path><g><g class="mark-rule role-axis-tick" style="pointer-events: none;"><line transform="translate(0,600)" x2="-5" y2="0" style="fill: none; stroke: #888; stroke-width: 1; opacity: 1;"></line><line transform="translate(0,563)" x2="-5" y2="0" style="fill: none; stroke: #888; stroke-width: 1; opacity: 1;"></line><line transform="translate(0,525)" x2="-5" y2="0" style="fill: none; stroke: #888; stroke-width: 1; opacity: 1;"></line><line transform="translate(0,488)" x2="-5" y2="0" style="fill: none; stroke: #888; stroke-width: 1; opacity: 1;"></line><line transform="translate(0,450)" x2="-5" y2="0" style="fill: none; stroke: #888; stroke-width: 1; opacity: 1;"></line><line transform="translate(0,413)" x2="-5" y2="0" style="fill: none; stroke: #888; stroke-width: 1; opacity: 1;"></line><line transform="translate(0,375)" x2="-5" y2="0" style="fill: none; stroke: #888; stroke-width: 1; opacity: 1;"></line><line transform="translate(0,338)" x2="-5" y2="0" style="fill: none; stroke: #888; stroke-width: 1; opacity: 1;"></line><line transform="translate(0,300)" x2="-5" y2="0" style="fill: none; stroke: #888; stroke-width: 1; opacity: 1;"></line><line transform="translate(0,263)" x2="-5" y2="0" style="fill: none; stroke: #888; stroke-width: 1; opacity: 1;"></line><line transform="translate(0,225)" x2="-5" y2="0" style="fill: none; stroke: #888; stroke-width: 1; opacity: 1;"></line><line transform="translate(0,188)" x2="-5" y2="0" style="fill: none; stroke: #888; stroke-width: 1; opacity: 1;"></line><line transform="translate(0,150)" x2="-5" y2="0" style="fill: none; stroke: #888; stroke-width: 1; opacity: 1;"></line><line transform="translate(0,113)" x2="-5" y2="0" style="fill: none; stroke: #888; stroke-width: 1; opacity: 1;"></line><line transform="translate(0,75)" x2="-5" y2="0" style="fill: none; stroke: #888; stroke-width: 1; opacity: 1;"></line><line transform="translate(0,38)" x2="-5" y2="0" style="fill: none; stroke: #888; stroke-width: 1; opacity: 1;"></line><line transform="translate(0,0)" x2="-5" y2="0" style="fill: none; stroke: #888; stroke-width: 1; opacity: 1;"></line></g><g class="mark-text role-axis-label" style="pointer-events: none;"><text text-anchor="end" transform="translate(-7,603)" style="font-family: sans-serif; font-size: 10px; fill: #000; opacity: 1;">0</text><text text-anchor="end" transform="translate(-7,565.5)" style="font-family: sans-serif; font-size: 10px; fill: #000; opacity: 1;">5</text><text text-anchor="end" transform="translate(-7,528)" style="font-family: sans-serif; font-size: 10px; fill: #000; opacity: 1;">10</text><text text-anchor="end" transform="translate(-7,490.5)" style="font-family: sans-serif; font-size: 10px; fill: #000; opacity: 1;">15</text><text text-anchor="end" transform="translate(-7,453)" style="font-family: sans-serif; font-size: 10px; fill: #000; opacity: 1;">20</text><text text-anchor="end" transform="translate(-7,415.5)" style="font-family: sans-serif; font-size: 10px; fill: #000; opacity: 1;">25</text><text text-anchor="end" transform="translate(-7,378)" style="font-family: sans-serif; font-size: 10px; fill: #000; opacity: 1;">30</text><text text-anchor="end" transform="translate(-7,340.5)" style="font-family: sans-serif; font-size: 10px; fill: #000; opacity: 1;">35</text><text text-anchor="end" transform="translate(-7,303)" style="font-family: sans-serif; font-size: 10px; fill: #000; opacity: 1;">40</text><text text-anchor="end" transform="translate(-7,265.5)" style="font-family: sans-serif; font-size: 10px; fill: #000; opacity: 1;">45</text><text text-anchor="end" transform="translate(-7,228)" style="font-family: sans-serif; font-size: 10px; fill: #000; opacity: 1;">50</text><text text-anchor="end" transform="translate(-7,190.5)" style="font-family: sans-serif; font-size: 10px; fill: #000; opacity: 1;">55</text><text text-anchor="end" transform="translate(-7,153)" style="font-family: sans-serif; font-size: 10px; fill: #000; opacity: 1;">60</text><text text-anchor="end" transform="translate(-7,115.5)" style="font-family: sans-serif; font-size: 10px; fill: #000; opacity: 1;">65</text><text text-anchor="end" transform="translate(-7,78)" style="font-family: sans-serif; font-size: 10px; fill: #000; opacity: 1;">70</text><text text-anchor="end" transform="translate(-7,40.5)" style="font-family: sans-serif; font-size: 10px; fill: #000; opacity: 1;">75</text><text text-anchor="end" transform="translate(-7,3)" style="font-family: sans-serif; font-size: 10px; fill: #000; opacity: 1;">80</text></g><g class="mark-rule role-axis-domain" style="pointer-events: none;"><line transform="translate(0,600)" x2="0" y2="-600" style="fill: none; stroke: #888; stroke-width: 1; opacity: 1;"></line></g><g class="mark-text role-axis-title" style="pointer-events: none;"><text text-anchor="middle" transform="translate(-23,300) rotate(-90) translate(0,-2)" style="font-family: sans-serif; font-size: 11px; font-weight: bold; fill: #000; opacity: 1;">GFLOPS</text></g></g><path class="foreground" d="" style="pointer-events: none; display: none; fill: none;"></path></g></g><g class="mark-group role-scope pathgroup"><g transform="translate(0,0)"><path class="background" d="M0,0h900v600h-900Z" style="fill: none;"></path><g><g class="mark-line role-mark marks"><path d="M6.923076923076923,578.5779352226721L10.384615384615385,562.0162176562657L13.846153846153847,552.9131985731273L17.30769230769231,543.4151181670576L20.76923076923077,538.786578763415L24.230769230769234,532.9119949466466L27.692307692307693,436.45866753304773L31.153846153846157,444.4025849983825L34.61538461538462,461.21875605502805L38.07692307692308,475.67622987598037L41.53846153846154,470.5979627923194L45,486.45532657174545L48.46153846153847,478.81530499266165L51.92307692307693,500.097785628667L55.38461538461539,301.8108153290917L58.84615384615385,350.1518300286057L62.307692307692314,400.86767895878523L65.76923076923077,424.7065710143594L69.23076923076924,417.73817886058634L72.6923076923077,422.0815735489321L76.15384615384616,446.27073887698674L79.61538461538461,452.73471615720524L83.07692307692308,238.0040781247366L86.53846153846155,319.6027725440774L90,382.189770927104L93.46153846153847,366.89191465468843L96.92307692307693,387.5935341883585L100.38461538461539,409.74465294786984L103.84615384615385,413.5279010039692L107.3076923076923,423.0178129998546L110.76923076923077,310.0911751842008L114.23076923076923,301.04750480895336L117.6923076923077,322.0712584358872L121.15384615384615,355.65525817813915L124.61538461538463,370.9232157570527L128.07692307692307,394.3404432276957L131.53846153846155,390.7795187831902L135,400.67911124546555L138.46153846153848,253.8298373792128L141.9230769230769,303.80143498410195L145.3846153846154,276.7333828734575L148.84615384615384,304.93886683264924L152.30769230769232,355.24045612295487L155.76923076923077,376.26733102253036L159.23076923076923,400.58393081528567L162.69230769230768,404.6827323162275L166.15384615384616,313.62838759992195L169.6153846153846,290.4415606303194L173.0769230769231,339.3704006541292L176.53846153846155,341.9442066765232L180,334.53453453453454L183.46153846153845,368.53389775738384L186.92307692307693,370.1168614357262L190.3846153846154,378.70933501635204L193.84615384615387,277.91203479942L197.3076923076923,303.15478323181657L200.76923076923077,307.32855680655064L204.23076923076923,310.7485010427529L207.6923076923077,346.8982630272953L211.15384615384616,358.42583634604614L214.6153846153846,359.0807799442897L218.07692307692307,370.47686841707406L221.53846153846155,275.7884281102558L225,336.0668789808917L228.46153846153845,319.1879866518354L231.9230769230769,306.548656685808L235.3846153846154,335.9916409592995L238.84615384615384,343.5335883954558L242.3076923076923,358.9802391872776L245.76923076923075,377.8591589861751L249.23076923076925,298.1458365047953L252.6923076923077,287.562461679951L256.15384615384613,327.4351522512363L259.6153846153846,333.65158455063136L263.0769230769231,313.17465812705564L266.53846153846155,345.1576019777503L270,344.2433234421365L273.46153846153845,365.2980864948568L276.92307692307696,273.44034861487836L280.3846153846154,281.3902877697842L283.8461538461538,308.8600860312429L287.30769230769226,298.96696496572736L290.7692307692308,313.39917171073586L294.2307692307692,340.0804147709237L297.6923076923077,347.0350747770102L301.15384615384613,359.3997756170531L304.61538461538464,279.1551240911491L308.0769230769231,297.72831007519926L311.53846153846155,319.2851318293014L315,297.4922999785116L318.46153846153845,331.57131689290026L321.9230769230769,334.99836932266817L325.38461538461536,316.14374350414164L328.8461538461538,373.77617222058393L332.3076923076923,272.53117815090917L335.7692307692308,313.7367479120504L339.2307692307692,287.5552578700603L342.6923076923077,308.24519711827094L346.1538461538462,315.2201659221442L349.61538461538464,331.418004012036L353.0769230769231,337.0296702570541L356.53846153846155,358.49892876272094L360,271.77994627860323L363.46153846153845,287.6349163518619L366.9230769230769,293.9470792895074L370.38461538461536,320.7204808520137L373.84615384615387,319.2536890790675L377.3076923076923,334.2019301067408L380.7692307692308,319.42347913067204L384.2307692307692,347.0814818392581L387.69230769230774,295.5436403439196L391.1538461538462,285.08704342499755L394.6153846153846,307.5297855440826L398.07692307692304,308.0700311634349L401.53846153846155,310.6602580318745L405,326.0481086171715L408.46153846153845,320.88076221621276L411.9230769230769,350.1777993012557L415.3846153846154,271.1052725861349L418.84615384615387,284.1586768935763L422.3076923076923,302.98159393977335L425.7692307692308,312.79183169053925L429.2307692307692,301.7253446124821L432.6923076923077,316.4044983807252L436.15384615384613,318.8039174828089L439.6153846153846,350.9550096883578L443.0769230769231,277.9377755850883L446.53846153846155,303.7831140274336L450,304.7276464542652L453.46153846153845,304.00060876623377L456.9230769230769,315.3488372093023L460.38461538461536,319.61201359247445L463.8461538461538,304.72818727026504L467.3076923076923,335.08161054951734L470.7692307692308,282.8830767161972L474.2307692307692,291.8657653307581L477.6923076923077,298.9821893466672L481.15384615384613,313.3771912814148L484.6153846153846,311.20955315870566L488.07692307692304,322.1497862545216L491.5384615384615,311.7059768997869L495.00000000000006,334.9819577149827L498.4615384615385,283.3598147630644L501.92307692307696,292.14628871109755L505.3846153846154,297.3283094513327L508.8461538461538,315.34791817336503L512.3076923076923,305.46720101244466L515.7692307692307,321.8329893867924L519.2307692307692,303.02795031055905L522.6923076923077,330.3721480244853L526.1538461538462,287.4525198938992L529.6153846153846,305.10349767809504L533.0769230769231,300.3478347041919L536.5384615384615,309.09900284900283L540,309.90650710546004L543.4615384615385,309.7305347741757L546.9230769230769,293.3612716763006L550.3846153846155,333.23450302077293L553.8461538461539,284.789956542733L557.3076923076924,296.76782273603084L560.7692307692308,300.061850125493L564.2307692307692,308.04554856502637L567.6923076923076,300.188844203532L571.1538461538461,320.0203661880949L574.6153846153845,297.8768595751999L578.0769230769231,335.0139727252403L581.5384615384615,287.78761061946904L585,293.7576738709949L588.4615384615385,296.6784655910438L591.9230769230769,304.202832434148L595.3846153846154,307.8717472118959L598.8461538461538,319.58057760141094L602.3076923076923,298.21046048002506L605.7692307692308,324.8670025366403L609.2307692307693,281.31687242798347L612.6923076923077,295.753865488613L616.1538461538462,301.7563676633444L619.6153846153846,305.0164271788577L623.0769230769231,304.97071846879015L626.5384615384615,316.2538210719381L630,300.6655326387412L633.4615384615385,328.53662025557895L636.9230769230769,286.8823444073698L640.3846153846154,291.8952552425334L643.8461538461538,297.19297041257636L647.3076923076923,296.015033749233L650.7692307692307,296.62313181634585L654.2307692307692,310.2781488549617L657.6923076923076,289.8416442048517L661.1538461538462,330.04483459082996L664.6153846153846,281.4530667570315L668.0769230769231,293.63646626241774L671.5384615384615,294.8044266361381L675,303.2206476493634L678.4615384615385,314.7991149411901L681.9230769230769,321.62320675105485L685.3846153846154,308.59266600594646L688.8461538461538,328.51234003656305L692.3076923076924,291.6193010037489L695.7692307692308,290.8086734693877L699.2307692307693,288.95671409781175L702.6923076923077,295.49999999999994L706.1538461538462,300.3760799593427L709.6153846153846,317.7078394183658L713.0769230769231,287.3575638506876L716.5384615384615,318.8675191684248L720,287.9470498387735L723.4615384615385,296.5274901918047L726.9230769230769,302.2794662713121L730.3846153846154,298.4313074430218L733.8461538461538,298.9724732086573L737.3076923076923,312.5119278365886L740.7692307692307,295.0122747453644L744.2307692307692,327.7868227795483L747.6923076923077,288.19373099905647L751.1538461538462,295.31349911190057L754.6153846153846,296.9132653061224L758.0769230769231,319.32677743608576L761.5384615384615,299.093036863663L765,311.3951198034944L768.4615384615385,293.71661142522913L771.9230769230769,342.2687085890817L775.3846153846155,312.9905787348587L778.8461538461539,349.6339358442264L782.3076923076924,298.8304120612311L785.7692307692308,309.10128403807835L789.2307692307692,317.4782608695652L792.6923076923076,322.20584569363086L796.1538461538461,304.0737978237978L799.6153846153845,339.9462005962847L803.0769230769231,301.887054735013L806.5384615384615,309.7271030780843L810,300.2794831065126L813.4615384615385,307.49470338983053L816.9230769230769,310.28354616294723L820.3846153846154,338.79171681803257L823.8461538461538,313.93052364731045L827.3076923076923,353.39696271966955L830.7692307692308,304.03804304021924L834.2307692307693,324.54517556911173L837.6923076923077,326.08547322083643L841.1538461538462,335.04319901460497L844.6153846153846,323.8690432884685L848.0769230769231,332.3498810939358L851.5384615384615,315.011080741671L855,339.9837043722423L858.4615384615385,308.777063913544L861.9230769230769,322.0517035265989L865.3846153846154,315.84830979888744L868.8461538461538,323.8792925647107L872.3076923076923,343.04157410345925L875.7692307692307,329.5035795963011L879.2307692307692,320.9799531901903L882.6923076923076,377.5745157482428L886.1538461538462,333.7632627051139" style="fill: none; stroke: #ff7f0e; stroke-width: 2;"></path></g></g><path class="foreground" d="" style="display: none; fill: none;"></path></g><g transform="translate(0,0)"><path class="background" d="M0,0h900v600h-900Z" style="fill: none;"></path><g><g class="mark-line role-mark marks"><path d="M6.923076923076923,569.0250730282376L10.384615384615385,556.6972920696325L13.846153846153847,549.7324339796401L17.30769230769231,541.9777744823624L20.76923076923077,538.4232754575316L24.230769230769234,534.0909368240058L27.692307692307693,378.15391361543516L31.153846153846157,425.451705621149L34.61538461538462,440.93925998479244L38.07692307692308,466.61304664516194L41.53846153846154,460.9067041886164L45,476.15282753069033L48.46153846153847,467.1455662349871L51.92307692307693,499.2250878212742L55.38461538461539,312.0174356915488L58.84615384615385,367.6764964474966L62.307692307692314,379.0143934729064L65.76923076923077,423.0763002476662L69.23076923076924,423.78976835680874L72.6923076923077,418.82308714740276L76.15384615384616,439.8984175336242L79.61538461538461,447.30090215763175L83.07692307692308,270.66658072357944L86.53846153846155,315.648808949754L90,391.7610421775976L93.46153846153847,378.2932288919787L96.92307692307693,376.08236225817404L100.38461538461539,402.32817877839994L103.84615384615385,407.6882790405363L107.3076923076923,417.574039829303L110.76923076923077,318.8432803023644L114.23076923076923,315.3290954630481L117.6923076923077,335.32918236293017L121.15384615384615,345.87985300718134L124.61538461538463,381.5936555891239L128.07692307692307,388.54082962735777L131.53846153846155,391.7932562487018L135,397.358934169279L138.46153846153848,243.42136682745112L141.9230769230769,317.2427984719337L145.3846153846154,287.5156947903588L148.84615384615384,316.5905957972013L152.30769230769232,352.2139076473809L155.76923076923077,374.70549738219887L159.23076923076923,399.79964381121994L162.69230769230768,407.22279260780294L166.15384615384616,328.40236686390534L169.6153846153846,320.6865875912409L173.0769230769231,351.07379929714955L176.53846153846155,349.45036264732545L180,347.5949923127609L183.46153846153845,369.5170216873673L186.92307692307693,371.1216449150455L190.3846153846154,378.79817618719886L193.84615384615387,300.35971223021585L197.3076923076923,322.3728302392601L200.76923076923077,319.59335774058576L204.23076923076923,332.2792254795512L207.6923076923077,347.7606198823982L211.15384615384616,358.5487811084534L214.6153846153846,360.0793029175641L218.07692307692307,371.6621127043016L221.53846153846155,296.9886858137511L225,349.0066525160489L228.46153846153845,317.51691165251003L231.9230769230769,325.5366847826087L235.3846153846154,333.0025662959795L238.84615384615384,347.24739764052737L242.3076923076923,360.825641243779L245.76923076923075,379.7034237184858L249.23076923076925,311.8604989101477L252.6923076923077,305.61200173310226L256.15384615384613,338.0477738869435L259.6153846153846,336.50034699542783L263.0769230769231,324.4549763033175L266.53846153846155,345.50078554595444L270,345.40799999999996L273.46153846153845,367.5265675784246L276.92307692307696,289.0638892417122L280.3846153846154,300.9197354308187L283.8461538461538,319.63863794301596L287.30769230769226,315.8485988111125L290.7692307692308,323.6553524804177L294.2307692307692,339.8234774933804L297.6923076923077,348.0657226823403L301.15384615384613,362.1864218827008L304.61538461538464,292.9612065614554L308.0769230769231,312.1483539974348L311.53846153846155,329.3188742915179L315,313.19751451563616L318.46153846153845,331.6857284932869L321.9230769230769,340.1281813897118L325.38461538461536,315.6601571126605L328.8461538461538,378.15934065934067L332.3076923076923,286.15384615384613L335.7692307692308,323.45608575380356L339.2307692307692,299.5804710500491L342.6923076923077,311.45002474022755L346.1538461538462,323.04111714507366L349.61538461538464,333.2827742785997L353.0769230769231,337.4027516579234L356.53846153846155,360.7063038094115L360,284.6466956322891L363.46153846153845,302.3290022991288L366.9230769230769,304.30707082620745L370.38461538461536,321.59048285069457L373.84615384615387,320.4060913705584L377.3076923076923,334.6597477666841L380.7692307692308,320.61752988047806L384.2307692307692,349.38140135924186L387.69230769230774,303.62097720674524L391.1538461538462,298.602746066029L394.6153846153846,315.6032953830311L398.07692307692304,310.73266619013583L401.53846153846155,318.4521465143757L405,328.98330745341616L408.46153846153845,320.63479574494875L411.9230769230769,350.46264943680467L415.3846153846154,281.66449934980494L418.84615384615387,296.98933545433897L422.3076923076923,310.8912248628885L425.7692307692308,316.1058046095429L429.2307692307692,309.60746556065766L432.6923076923077,318.4883597696682L436.15384615384613,316.3808322824716L439.6153846153846,348.9177282161898L443.0769230769231,286.8219843482954L446.53846153846155,310.7491223884666L450,304.8995103913445L453.46153846153845,306.86572663027096L456.9230769230769,314.22286541244574L460.38461538461536,322.9416281069571L463.8461538461538,303.76346520881185L467.3076923076923,335.2727566171723L470.7692307692308,290.45875172278005L474.2307692307692,301.1927703321402L477.6923076923077,309.23159827558675L481.15384615384613,313.1769580066754L484.6153846153846,317.64838806869534L488.07692307692304,320.2794636945487L491.5384615384615,312.9399285395266L495.00000000000006,335.062747688243L498.4615384615385,291.40455995642367L501.92307692307696,299.64285714285717L505.3846153846154,308.73539813524803L508.8461538461538,318.31637869338516L512.3076923076923,305.5293125263602L515.7692307692307,323.38243916739964L519.2307692307692,302.1646594684385L522.6923076923077,331.12028301886795L526.1538461538462,293.7242669993762L529.6153846153846,312.5170968984782L533.0769230769231,310.2539287083174L536.5384615384615,311.75425802201937L540,310.5559701492537L543.4615384615385,311.8067400275103L546.9230769230769,293.4793913713405L550.3846153846155,334.53076099489374L553.8461538461539,291.20151371807L557.3076923076924,301.07385130246024L560.7692307692308,309.2867072111208L564.2307692307692,310.61442849820605L567.6923076923076,306.97769802614715L571.1538461538461,320.44877989852625L574.6153846153845,298.47322348094747L578.0769230769231,336.1347951914515L581.5384615384615,292.98182748912205L585,297.4973002159827L588.4615384615385,305.2671572548392L591.9230769230769,310.9453015971468L595.3846153846154,311.27066748315985L598.8461538461538,319.51874310915105L602.3076923076923,298.94010294805804L605.7692307692308,325.19617847842915L609.2307692307693,288.2595311390007L612.6923076923077,302.52848525469165L616.1538461538462,302.9406574012795L619.6153846153846,307.69694476244985L623.0769230769231,305.3915275994865L626.5384615384615,318.03513568246257L630,301.4484659974551L633.4615384615385,330.14930796941167L636.9230769230769,292.7439675421738L640.3846153846154,297.8892619772916L643.8461538461538,305.16743533186286L647.3076923076923,303.3962546567323L650.7692307692307,301.9997354847243L654.2307692307692,311.7086023547284L657.6923076923076,298.79261828414377L661.1538461538462,330.85710565906726L664.6153846153846,286.73953612370036L668.0769230769231,300.3818371080689L671.5384615384615,300.2005497938273L675,310.0192894311861L678.4615384615385,315.44530296868646L681.9230769230769,320.72764984761255L685.3846153846154,306.6429954809555L688.8461538461538,329.81980415239724L692.3076923076924,288.49254825311505L695.7692307692308,296.1345268994809L699.2307692307693,297.2116168082878L702.6923076923077,308.83083956774726L706.1538461538462,305.23637575690236L709.6153846153846,313.5425020048116L713.0769230769231,287.93459453224125L716.5384615384615,319.2575796505653L720,292.89834094198864L723.4615384615385,301.4885833735327L726.9230769230769,300.27985074626866L730.3846153846154,305.090009351621L733.8461538461538,304.3157894736843L737.3076923076923,312.3689771766695L740.7692307692307,295.5053191489362L744.2307692307692,329.1628371857911L747.6923076923077,292.4972861204445L751.1538461538462,299.777602760276L754.6153846153846,304.62562152676225L758.0769230769231,314.59780173620834L761.5384615384615,303.8583357327958L765,312.81924460431657L768.4615384615385,294.71359860078707L771.9230769230769,340.0177341315401L775.3846153846155,313.8506955316009L778.8461538461539,347.92285011325464L782.3076923076924,302.34070756010607L785.7692307692308,309.7951543796104L789.2307692307692,321.0454545454545L792.6923076923076,317.8330730925051L796.1538461538461,304.55341889701697L799.6153846153845,333.0274878355046L803.0769230769231,303.67632453905605L806.5384615384615,318.4867618350415L810,304.1533180778032L813.4615384615385,311.67489046312596L816.9230769230769,314.69505825632785L820.3846153846154,334.5412002372303L823.8461538461538,307.60688259109315L827.3076923076923,362.104674332005L830.7692307692308,296.81707468108823L834.2307692307693,328.87169113608905L837.6923076923077,318.2085440410597L841.1538461538462,329.10378886010363L844.6153846153846,311.67090819310977L848.0769230769231,324.5469514828679L851.5384615384615,309.33170088528914L855,340.884493670886L858.4615384615385,301.2435233160622L861.9230769230769,323.6549150527861L865.3846153846154,316.6767403825642L868.8461538461538,326.7349038952202L872.3076923076923,346.3579976191968L875.7692307692307,330.9216122650841L879.2307692307692,316.2150693438212L882.6923076923076,370.1946531030851L886.1538461538462,330.69133335481996" style="fill: none; stroke: #1f77b4; stroke-width: 2;"></path></g></g><path class="foreground" d="" style="display: none; fill: none;"></path></g><g transform="translate(0,0)"><path class="background" d="M0,0h900v600h-900Z" style="fill: none;"></path><g><g class="mark-line role-mark marks"><path d="M6.923076923076923,581.1462010031581L10.384615384615385,569.8426323319027L13.846153846153847,559.5280402010051L17.30769230769231,550.2659574468084L20.76923076923077,543.5866574965612L24.230769230769234,536.7265654243089L27.692307692307693,433.83358435288534L31.153846153846157,472.8039855672995L34.61538461538462,476.15084619522486L38.07692307692308,487.90178910502556L41.53846153846154,485.99178422443714L45,487.29265098288823L48.46153846153847,481.08389143461403L51.92307692307693,492.21884713195817L55.38461538461539,384.68129032258065L58.84615384615385,432.8835163629381L62.307692307692314,439.9823113867649L65.76923076923077,451.33758801032474L69.23076923076924,465.0863634005913L72.6923076923077,454.4308793481985L76.15384615384616,457.57736825541144L79.61538461538461,464.28791480311514L83.07692307692308,323.5075122679006L86.53846153846155,372.5472033126072L90,410.35985927291L93.46153846153847,404.6714271928978L96.92307692307693,404.1659949185229L100.38461538461539,418.74931536601946L103.84615384615385,424.9137587899695L107.3076923076923,428.59202399950254L110.76923076923077,357.49513532637536L114.23076923076923,365.0678442223738L117.6923076923077,377.831404112511L121.15384615384615,385.4124054791124L124.61538461538463,404.6379651054774L128.07692307692307,392.2989161896186L131.53846153846155,400.23806484554507L135,407.1848948374761L138.46153846153848,271.02601627531953L141.9230769230769,357.82203389830505L145.3846153846154,332.4667514744998L148.84615384615384,352.57399244332487L152.30769230769232,374.1421905023333L155.76923076923077,384.5385128932655L159.23076923076923,401.17178863586116L162.69230769230768,410.31283674568965L166.15384615384616,336.2779423646647L169.6153846153846,348.43660119976994L173.0769230769231,374.7349823321555L176.53846153846155,369.52706928904024L180,375.22493154257404L183.46153846153845,379.885993485342L186.92307692307693,377.9297574961176L190.3846153846154,388.8148168427969L193.84615384615387,297.2285324852339L197.3076923076923,344.7957737801873L200.76923076923077,341.90034901913583L204.23076923076923,351.649320127581L207.6923076923077,365.0130548302872L211.15384615384616,365.7790729566649L214.6153846153846,364.45826880973993L218.07692307692307,375.9089008069278L221.53846153846155,294.79282333002163L225,352.6308740241849L228.46153846153845,337.87246316010277L231.9230769230769,343.2523800029906L235.3846153846154,351.5200899128968L238.84615384615384,362.72540716612383L242.3076923076923,364.7188049209139L245.76923076923075,376.95980335454016L249.23076923076925,308.9421665525002L252.6923076923077,314.7309432729987L256.15384615384613,344.5127058345193L259.6153846153846,345.19629322595927L263.0769230769231,338.32523984365747L266.53846153846155,349.87950810631963L270,350.1537966019808L273.46153846153845,362.9205616178169L276.92307692307696,283.3390824422214L280.3846153846154,308.62852664576803L283.8461538461538,327.2427918075164L287.30769230769226,328.1289174340323L290.7692307692308,337.93394749299057L294.2307692307692,344.0790387553827L297.6923076923077,346.2693394322615L301.15384615384613,354.08886765408505L304.61538461538464,283.11950896618123L308.0769230769231,322.0701754385965L311.53846153846155,329.8852453656782L315,320.1530662955969L318.46153846153845,334.9245561092006L321.9230769230769,345.70982672288835L325.38461538461536,323.3519259103346L328.8461538461538,368.95150880614995L332.3076923076923,275.67209494893734L335.7692307692308,321.56722480106106L339.2307692307692,305.4645728815889L342.6923076923077,315.7353275705187L346.1538461538462,325.13935511687345L349.61538461538464,334.7668676804754L353.0769230769231,332.9353734648681L356.53846153846155,354.24282340116275L360,268.29496254552953L363.46153846153845,304.53675344563555L366.9230769230769,309.1019058393525L370.38461538461536,322.3230930188321L373.84615384615387,323.92685869867887L377.3076923076923,332.49654177826176L380.7692307692308,319.9074074074074L384.2307692307692,340.74537082879493L387.69230769230774,292.4899057873486L391.1538461538462,298.1463799017336L394.6153846153846,314.3202781529266L398.07692307692304,313.3796532381438L401.53846153846155,318.83050903012224L405,332.25938823096277L408.46153846153845,321.44134814535875L411.9230769230769,338.1927527405603L415.3846153846154,263.65412799218376L418.84615384615387,295.6951780125196L422.3076923076923,308.3048971686803L425.7692307692308,316.1225165562914L429.2307692307692,309.5041934623478L432.6923076923077,317.7205100956429L436.15384615384613,316.9360928541463L439.6153846153846,339.36026615969587L443.0769230769231,275.98957687057947L446.53846153846155,304.87498695969674L450,308.77821327206385L453.46153846153845,306.70855534331963L456.9230769230769,310.96018735363L460.38461538461536,323.59808407206174L463.8461538461538,306.67648942985267L467.3076923076923,332.6431502646315L470.7692307692308,269.96851165068927L474.2307692307692,292.4795193883124L477.6923076923077,299.04437283093705L481.15384615384613,310.7634730538922L484.6153846153846,312.6264949402024L488.07692307692304,312.06048845134416L491.5384615384615,308.0833427955036L495.00000000000006,326.5316236626809L498.4615384615385,277.3837705918243L501.92307692307696,290.6661089314563L505.3846153846154,299.15984060216954L508.8461538461538,311.29126060987113L512.3076923076923,304L515.7692307692307,317.8120326986342L519.2307692307692,300.95382049411023L522.6923076923077,325.06832797427654L526.1538461538462,271.65966932937016L529.6153846153846,302.0417789757413L533.0769230769231,298.9156626506025L536.5384615384615,305.4344167708433L540,306.6427153257068L543.4615384615385,307.2701657973174L546.9230769230769,297.5282714054927L550.3846153846155,321.1895597266672L553.8461538461539,274.6411483253588L557.3076923076924,297.2677933498214L560.7692307692308,297.8136006502303L564.2307692307692,305.8909967008161L567.6923076923076,303.5324630414109L571.1538461538461,311.3597621819392L574.6153846153845,295.59954947149544L578.0769230769231,322.3512532208948L581.5384615384615,271.96353691886964L585,286.5615854708211L588.4615384615385,294.61710591745396L591.9230769230769,303.5678222151547L595.3846153846154,302.76122931442075L598.8461538461538,310.9568625965763L602.3076923076923,292.36611412177245L605.7692307692308,315.6504879114477L609.2307692307693,270.2479752859648L612.6923076923077,289.1722434051825L616.1538461538462,297.49063950876143L619.6153846153846,300.8912359056963L623.0769230769231,299.1260014566642L626.5384615384615,311.1122830071236L630,292.6937349923598L633.4615384615385,316.57168934616664L636.9230769230769,269.1469303288112L640.3846153846154,287.16843501326264L643.8461538461538,294.02122641509436L647.3076923076923,294.1172132272229L650.7692307692307,294.9803709218898L654.2307692307692,302.7524148283514L657.6923076923076,287.86450562864513L661.1538461538462,314.5374064072665L664.6153846153846,267.78625954198475L668.0769230769231,286.0831846123339L671.5384615384615,291.4685269722883L675,299.24395161290323L678.4615384615385,305.611251352326L681.9230769230769,307.6772316417558L685.3846153846154,300.34710149271626L688.8461538461538,313.5084260099864L692.3076923076924,267.05836271053664L695.7692307692308,284.67632835455436L699.2307692307693,284.42860609001576L702.6923076923077,291.78462486067934L706.1538461538462,295.73714089110615L709.6153846153846,301.144096157064L713.0769230769231,281.76743912480885L716.5384615384615,306.687023515516L720,273.6386226482073L723.4615384615385,290.0936230593735L726.9230769230769,288.4212567882079L730.3846153846154,296.5450924836951L733.8461538461538,294.0544580886278L737.3076923076923,306.2637739298228L740.7692307692307,285.38229430465003L744.2307692307692,312.6151989467525L747.6923076923077,269.0971797296546L751.1538461538462,287.28332204802336L754.6153846153846,292.0769387132839L758.0769230769231,318.279392794619L761.5384615384615,292.20409995511L765,303.50771318383084L768.4615384615385,282.72103004291847L771.9230769230769,339.2157487763748L775.3846153846155,302.5276666976658L778.8461538461539,342.1219536556133L782.3076923076924,292.00766174801356L785.7692307692308,298.03063381900074L789.2307692307692,311.9906140007822L792.6923076923076,304.3585293597453L796.1538461538461,296.6470270756499L799.6153846153845,329.9222936763129L803.0769230769231,295.05154639175254L806.5384615384615,308.0867282388664L810,294.8693181818182L813.4615384615385,310.6559482227245L816.9230769230769,305.74565947043465L820.3846153846154,328.7395363811977L823.8461538461538,314.14565604591326L827.3076923076923,359.21022614560604L830.7692307692308,277.4420238931834L834.2307692307693,315.3767583980321L837.6923076923077,313.8895700819986L841.1538461538462,325.3885504814707L844.6153846153846,308.01092433742355L848.0769230769231,322.8210676904133L851.5384615384615,310.24860114912315L855,343.25353995445096L858.4615384615385,290.41610738255036L861.9230769230769,318.90881129324754L865.3846153846154,316.42468239564425L868.8461538461538,327.6890806156349L872.3076923076923,350.34657128761717L875.7692307692307,329.98684863523573L879.2307692307692,316.0485346404778L882.6923076923076,373.84305354756L886.1538461538462,321.94469402016574" style="fill: none; stroke: #aec7e8; stroke-width: 2;"></path></g></g><path class="foreground" d="" style="display: none; fill: none;"></path></g><g transform="translate(0,0)"><path class="background" d="M0,0h900v600h-900Z" style="fill: none;"></path><g><g class="mark-line role-mark marks"><path d="M6.923076923076923,566.323938070663L10.384615384615385,545.2315812149935L13.846153846153847,523.9775280898876L17.30769230769231,506.71144153968584L20.76923076923077,486.02059737396013L24.230769230769234,465.25L27.692307692307693,464.5991796222211L31.153846153846157,497.00460573628334L34.61538461538462,485.13960985206324L38.07692307692308,473.263854218672L41.53846153846154,467.4718309859155L45,449.52962492158355L48.46153846153847,437.65057876396844L51.92307692307693,425.7770559171457L55.38461538461539,355.4103471014928L58.84615384615385,421.89986226837993L62.307692307692314,413.79318962245816L65.76923076923077,417.33530313573704L69.23076923076924,403.57523833050743L72.6923076923077,379.227486000525L76.15384615384616,368.2098542904655L79.61538461538461,357.7269450689082L83.07692307692308,338.13386086383116L86.53846153846155,382.0885318748932L90,393.8707351368241L93.46153846153847,366.54861922164037L96.92307692307693,352.17552993677947L100.38461538461539,349.07072803603137L103.84615384615385,331.8075048446767L107.3076923076923,322.87079344771655L110.76923076923077,336.6921013784644L114.23076923076923,362.5125446504507L117.6923076923077,348.76783410398644L121.15384615384615,341.3509398126924L124.61538461538463,352.1511931719213L128.07692307692307,324.89902357593166L131.53846153846155,311.33745835316523L135,301.7412190896204L138.46153846153848,286.33852812209335L141.9230769230769,359.17682708168974L145.3846153846154,316.19831165062016L148.84615384615384,309.72278330404947L152.30769230769232,323.1678915720149L155.76923076923077,326.1202019408321L159.23076923076923,335.39623381718314L162.69230769230768,332.6300550598064L166.15384615384616,341.1121882435886L169.6153846153846,348.8493723849373L173.0769230769231,366.99561403508767L176.53846153846155,350.61851406226504L180,332.10039630118894L183.46153846153845,335.879424778761L186.92307692307693,315.0816154494597L190.3846153846154,322.207216940363L193.84615384615387,318.9766657295474L197.3076923076923,348.9713368076597L200.76923076923077,337.4931146336985L204.23076923076923,331.24167373137954L207.6923076923077,333.3875464684015L211.15384615384616,328.43302804808246L214.6153846153846,306.99467926107496L218.07692307692307,318.89373402955226L221.53846153846155,314.27946164788267L225,365.24368099941887L228.46153846153845,341.4117951370926L231.9230769230769,326.3967971530249L235.3846153846154,319.74647440976065L238.84615384615384,325.9744445001755L242.3076923076923,317.222389861195L245.76923076923075,321.8031308613476L249.23076923076925,324.61274940974954L252.6923076923077,330.2828378616796L256.15384615384613,345.33071249088107L259.6153846153846,335.05100155980625L263.0769230769231,313.03805689050523L266.53846153846155,319.8234361487461L270,302.7931034482759L273.46153846153845,312.1564509646302L276.92307692307696,303.5362506055223L280.3846153846154,321.21558008748184L283.8461538461538,328.5168032300202L287.30769230769226,316.1011676295907L290.7692307692308,313.45622486761954L294.2307692307692,316.19748141872384L297.6923076923077,308.717711108537L301.15384615384613,309.4761797245428L304.61538461538464,305.57328164604144L308.0769230769231,329.76720850893037L311.53846153846155,334.33229364288246L315,312.4261201143947L318.46153846153845,318.06015479572835L321.9230769230769,327.1005974687124L325.38461538461536,278.38132962209613L328.8461538461538,329.2591005344358L332.3076923076923,297.3106646058733L335.7692307692308,337.41299249530954L339.2307692307692,309.76297700876984L342.6923076923077,312.3419875694695L346.1538461538462,312.1524866154938L349.61538461538464,315.9315912636505L353.0769230769231,299.6419213973799L356.53846153846155,319.4425760763282L360,294.68070974475756L363.46153846153845,318.46835569797724L366.9230769230769,313.83493691114296L370.38461538461536,323.41917453500486L373.84615384615387,311.2404129316203L377.3076923076923,316.0940526019866L380.7692307692308,287.57594167679224L384.2307692307692,306.93473664573094L387.69230769230774,311.20260021668474L391.1538461538462,313.36350831890604L394.6153846153846,321.6312473750525L398.07692307692304,311.0713673749143L401.53846153846155,306.8618293655314L405,317.1327509643123L408.46153846153845,291.26833227059296L411.9230769230769,309.7969171917192L415.3846153846154,291.1690496215307L418.84615384615387,311.1133894580458L422.3076923076923,317.87976094906793L425.7692307692308,318.0313550650489L429.2307692307692,300.22936481237963L432.6923076923077,305.2366614387595L436.15384615384613,292.12903814564703L439.6153846153846,313.3771211540472L443.0769230769231,295.53126366418894L446.53846153846155,323.5534201954398L450,320.7335644623011L453.46153846153845,308.8065610859729L456.9230769230769,304.24549024828593L460.38461538461536,311.16763783056933L463.8461538461538,276.4913272335465L467.3076923076923,306.984332145897L470.7692307692308,296.66988230754384L474.2307692307692,311.7041803871175L477.6923076923077,311.0883274501249L481.15384615384613,317.5832123203913L484.6153846153846,308.66202930089764L488.07692307692304,304.5655594405594L491.5384615384615,285.75904498044326L495.00000000000006,305.7393438922539L498.4615384615385,299.67739492616437L501.92307692307696,311.4126924319088L505.3846153846154,312.18998199724666L508.8461538461538,317.072550831793L512.3076923076923,297.16330513988294L515.7692307692307,311.4254766031196L519.2307692307692,285.31756188526094L522.6923076923077,304.37995729103113L526.1538461538462,298.88991107022383L529.6153846153846,321.91861548495297L533.0769230769231,322.99468669842435L536.5384615384615,310.9109569648924L540,303.4747706422018L543.4615384615385,299.5461281070746L546.9230769230769,276.5335365853659L550.3846153846155,302.64506457564573L553.8461538461539,295.5791829882484L557.3076923076924,318.7774421375085L560.7692307692308,310.1680381117367L564.2307692307692,310.06953954125305L567.6923076923076,299.82142857142856L571.1538461538461,306.3044673830274L574.6153846153845,274.53543307086613L578.0769230769231,305.12915664648807L581.5384615384615,297.1418953038209L585,306.18625948039374L588.4615384615385,307.53631240574657L591.9230769230769,309.4359364040215L595.3846153846154,303.112160566706L598.8461538461538,307.6126350471228L602.3076923076923,276.2400402583242L605.7692307692308,301.1108772198408L609.2307692307693,292.91345929554467L612.6923076923077,310.1902706232315L616.1538461538462,315.01164021164027L619.6153846153846,308.51034605779523L623.0769230769231,299.6291718170581L626.5384615384615,308.999059495611L630,278.5913242009132L633.4615384615385,302.7396616541353L636.9230769230769,296.43881856540077L640.3846153846154,309.0487064941992L643.8461538461538,307.02776301806585L647.3076923076923,303.11975629244904L650.7692307692307,295.63960556531134L654.2307692307692,301.5251654761124L657.6923076923076,271.41990291262135L661.1538461538462,303.47268264694634L664.6153846153846,290.24911032028473L668.0769230769231,307.5046190798794L671.5384615384615,304.6112650046168L675,308.71259913482334L678.4615384615385,309.2288512911843L681.9230769230769,307.5390093977185L685.3846153846154,290.68626237623766L688.8461538461538,302.7127001884126L692.3076923076924,292.7895909884946L695.7692307692308,306.48846153846154L699.2307692307693,299.9705882352941L702.6923076923077,303.55746445497624L706.1538461538462,298.3833560709413L709.6153846153846,305.1080077050083L713.0769230769231,272.1251969458247L716.5384615384615,299.6730526084327L720,296.2299686106063L723.4615384615385,310.2025444895411L726.9230769230769,303.8943598925694L730.3846153846154,304.99805113813534L733.8461538461538,298.46558619238056L737.3076923076923,309.21693560548937L740.7692307692307,276.38474754752536L744.2307692307692,305.21244935727503L747.6923076923077,306.876909431359L751.1538461538462,309.1581892166836L754.6153846153846,305.60149645321155L758.0769230769231,335.11966126656847L761.5384615384615,297.45550816296515L765,314.8574797380832L768.4615384615385,282.12717523269936L771.9230769230769,338.4411740439751L775.3846153846155,318.42253521126764L778.8461538461539,349.9152460286711L782.3076923076924,323.36816617815725L785.7692307692308,309.85923423423424L789.2307692307692,328.55141909325476L792.6923076923076,309.4334231454522L796.1538461538461,304.25545908971327L799.6153846153845,326.9085417252037L803.0769230769231,319.403033896226L806.5384615384615,325.8131313131313L810,315.9842968146129L813.4615384615385,323.01689548011484L816.9230769230769,313.5210585767307L820.3846153846154,341.6562353450453L823.8461538461538,301.45467322557977L827.3076923076923,359.4090879059166L830.7692307692308,306.2752469703636L834.2307692307693,332.0017552113491L837.6923076923077,337.6441446189523L841.1538461538462,342.6333196595221L844.6153846153846,324.98949351496276L848.0769230769231,335.28458026356753L851.5384615384615,310.54209183673464L855,338.78748446892104L858.4615384615385,314.8969278313034L861.9230769230769,340.15950103540087L865.3846153846154,331.1397145652687L868.8461538461538,338.7423567293306L872.3076923076923,352.68006597837376L875.7692307692307,336.8050986842105L879.2307692307692,311.92162218953564L882.6923076923076,371.82012715363027L886.1538461538462,338.92895082172095" style="fill: none; stroke: #2ca02c; stroke-width: 2;"></path></g></g><path class="foreground" d="" style="display: none; fill: none;"></path></g><g transform="translate(0,0)"><path class="background" d="M0,0h900v600h-900Z" style="fill: none;"></path><g><g class="mark-line role-mark marks"><path d="M6.923076923076923,579.1537735461895L10.384615384615385,567.2029617476902L13.846153846153847,556.6843609636586L17.30769230769231,569.0298026891968L20.76923076923077,559.8315446658985L24.230769230769234,554.3758859075423L27.692307692307693,523.4945308590279L31.153846153846157,527.7658810002874L34.61538461538462,525.9766871275917L38.07692307692308,529.7130484988453L41.53846153846154,528.2113678950656L45,545.0486259135201L48.46153846153847,539.9090118175886L51.92307692307693,536.2435272616509L55.38461538461539,504.83566765247474L58.84615384615385,511.970402635167L62.307692307692314,508.61759934657573L65.76923076923077,513.6522622391653L69.23076923076924,510.6355331548275L72.6923076923077,529.1069324734917L76.15384615384616,525.6389165400534L79.61538461538461,523.5856741024338L83.07692307692308,504.1506335053965L86.53846153846155,502.9842320229352L90,504.5085344320188L93.46153846153847,502.62907812032324L96.92307692307693,506.2640660165041L100.38461538461539,529.5482917214192L103.84615384615385,517.4994607807894L107.3076923076923,518.3966033966034L110.76923076923077,493.4465028972496L114.23076923076923,497.38563299090976L117.6923076923077,498.2042958767871L121.15384615384615,500.48582351067216L124.61538461538463,496.9632724324999L128.07692307692307,513.0739541832669L131.53846153846155,511.81063388152637L135,509.4266995329528L138.46153846153848,500.4014321362699L141.9230769230769,492.3217874288266L145.3846153846154,496.4767554850918L148.84615384615384,502.9046540362438L152.30769230769232,497.69468109601655L155.76923076923077,510.5517168373239L159.23076923076923,508.8239270023657L162.69230769230768,506.78168052625045L166.15384615384616,496.6240469208211L169.6153846153846,495.6620654396728L173.0769230769231,502.0285846011987L176.53846153846155,495.2576098543172L180,500.15277124135685L183.46153846153845,510.40873030053956L186.92307692307693,508.4261083743843L190.3846153846154,513.7026530286079L193.84615384615387,488.9487571170671L197.3076923076923,501.22181155470776L200.76923076923077,496.0110141313383L204.23076923076923,501.8049717121275L207.6923076923077,502.5477707006369L211.15384615384616,511.879237222549L214.6153846153846,517.7364127698144L218.07692307692307,502.2319358578053L221.53846153846155,514.2547532262831L225,498.2552648975352L228.46153846153845,500.57761732851986L231.9230769230769,499.1428529472231L235.3846153846154,504.1615189544184L238.84615384615384,504.63339722239675L242.3076923076923,505.63259017582016L245.76923076923075,511.90082927832225L249.23076923076925,492.0529152376286L252.6923076923077,503.5765983112184L256.15384615384613,496.5307211239219L259.6153846153846,501.2954170107349L263.0769230769231,502.6034055215738L266.53846153846155,506.1634185700099L270,505.9517458777885L273.46153846153845,503.39986646163806L276.92307692307696,503.7849310222851L280.3846153846154,497.484375L283.8461538461538,502.6632100821254L287.30769230769226,498.69117647058823L290.7692307692308,495.11017838405036L294.2307692307692,505.4901508156356L297.6923076923077,504.12871085807234L301.15384615384613,503.6878742514971L304.61538461538464,493.6607431340872L308.0769230769231,495.5283438502121L311.53846153846155,492.34337537787974L315,503.20613311331135L318.46153846153845,497.98071469086784L321.9230769230769,505.94904051172705L325.38461538461536,508.01845199216194L328.8461538461538,504.7522969952819L332.3076923076923,495.37530050752383L335.7692307692308,495.85489191770114L339.2307692307692,496.11351488928483L342.6923076923077,498.1807626497189L346.1538461538462,496.4088397790055L349.61538461538464,503.3493720740135L353.0769230769231,503.400087387125L356.53846153846155,502.73621197957857L360,498.89736070381235L363.46153846153845,494.8311013018106L366.9230769230769,495.68266220053886L370.38461538461536,500.4400832082936L373.84615384615387,500.637402285027L377.3076923076923,504.7877121307354L380.7692307692308,504.85074626865674L384.2307692307692,501.4474592220828L387.69230769230774,504.4530736603142L391.1538461538462,496.34892086330933L394.6153846153846,495.98958006402614L398.07692307692304,495.9593077065465L401.53846153846155,494.5000614930513L405,505.00993251333404L408.46153846153845,503.11558611656847L411.9230769230769,503.0433089893674L415.3846153846154,501.62880411487356L418.84615384615387,497.2858204027732L422.3076923076923,496.85798141203327L425.7692307692308,497.9716756585211L429.2307692307692,500.43473844591165L432.6923076923077,499.40479196122L436.15384615384613,521.3662497086474L439.6153846153846,504.24884760441404L443.0769230769231,538.9781789501358L446.53846153846155,502.2155267766614L450,504.8381398224617L453.46153846153845,508.2703433530374L456.9230769230769,497.415958625785L460.38461538461536,506.3704956824975L463.8461538461538,505.54542453997857L467.3076923076923,505.078125L470.7692307692308,500.79340372723067L474.2307692307692,502.1808575866579L477.6923076923077,500.80034317931114L481.15384615384613,508.78896993483414L484.6153846153846,506.43252957915234L488.07692307692304,510.6290766138984L491.5384615384615,511.1825468113038L495.00000000000006,512.8564624486113L498.4615384615385,510.26271128911816L501.92307692307696,509.9382664202923L505.3846153846154,509.9473161033797L508.8461538461538,510.8106730115568L512.3076923076923,506.90489682989437L515.7692307692307,511.59538086760983L519.2307692307692,512.2599094690482L522.6923076923077,508.8131645807848L526.1538461538462,508.6727639125717L529.6153846153846,509.7639527149595L533.0769230769231,509.60269058295967L536.5384615384615,510.5612572629858L540,509.52500364484615L543.4615384615385,512.5435508557117L546.9230769230769,526.8935183058478L550.3846153846155,515.6815030867427L553.8461538461539,520.9474678485795L557.3076923076924,516.1100746268656L560.7692307692308,509.4912090884501L564.2307692307692,511.40887337203833L567.6923076923076,510.1964070601792L571.1538461538461,513.6606432195802L574.6153846153845,515.2583212735167L578.0769230769231,516.1277596943107L581.5384615384615,508.2842287694974L585,524.2579246224885L588.4615384615385,515.896329772665L591.9230769230769,519.7523084870531L595.3846153846154,513.1585127201565L598.8461538461538,513.370394333583L602.3076923076923,519.0158603616834L605.7692307692308,512.3054507478777L609.2307692307693,517.2337482710927L612.6923076923077,513.8477838887092L616.1538461538462,514.3603061202857L619.6153846153846,513.6498097653773L623.0769230769231,509.22874093605805L626.5384615384615,520.1272085819184L630,506.5494656252074L633.4615384615385,517.7261647847702L636.9230769230769,509.53095527518127L640.3846153846154,514.8548780487805L643.8461538461538,516.4601049222553L647.3076923076923,516.2053168696436L650.7692307692307,514.9855679438565L654.2307692307692,518.5997122482172L657.6923076923076,526.783583870198L661.1538461538462,515.482656176182L664.6153846153846,528.3479427412839L668.0769230769231,522.9393558331981L671.5384615384615,514.9759027605514L675,523.862815459271L678.4615384615385,515.2221549112938L681.9230769230769,518.125827321464L685.3846153846154,522.443599689682L688.8461538461538,519.2540100110346L692.3076923076924,515.7484347380768L695.7692307692308,515.8367508659564L699.2307692307693,519.0447217726876L702.6923076923077,526.5113083249412L706.1538461538462,513.1694704457681L709.6153846153846,523.1768033033678L713.0769230769231,527.2819030979101L716.5384615384615,519.8055412844036L720,523.5756047549115L723.4615384615385,519.3447234652648L726.9230769230769,517.3623256565894L730.3846153846154,521.042292605575L733.8461538461538,516.3988095238095L737.3076923076923,521.470690053081L740.7692307692307,524.4036043967426L744.2307692307692,516.7464190869025L747.6923076923077,518.8031994758538L751.1538461538462,519.6970841971511L754.6153846153846,520.8864081472776L758.0769230769231,524.9864755455784L761.5384615384615,520.838945545507L765,523.806390632456L768.4615384615385,529.7846734903678L771.9230769230769,527.4581540890576L775.3846153846155,528.4874635307795L778.8461538461539,534.5704807858004L782.3076923076924,524.4797114726722L785.7692307692308,521.218927993285L789.2307692307692,523.8725535238445L792.6923076923076,523.1715367467941L796.1538461538461,525.7766504165245L799.6153846153845,532.2614199804855L803.0769230769231,531.5072758847836L806.5384615384615,526.9161185078818L810,522.4376180424398L813.4615384615385,526.7778592375366L816.9230769230769,524.351883415715L820.3846153846154,530.5331351304162L823.8461538461538,532.2846775554597L827.3076923076923,532.6284909482798L830.7692307692308,526.1738894417805L834.2307692307693,529.9792216265282L837.6923076923077,529.3708853575482L841.1538461538462,532.0779879831114L844.6153846153846,528.3727601271975L848.0769230769231,528.6628931227979L851.5384615384615,527.2308098574945L855,533.5243558518139L858.4615384615385,529.0248538276343L861.9230769230769,532.042746615087L865.3846153846154,531.2535047232886L868.8461538461538,533.9704443823365L872.3076923076923,540.9878648737291L875.7692307692307,532.450897217302L879.2307692307692,529.6634430392735L882.6923076923076,539.0999625374625L886.1538461538462,541.606345434851" style="fill: none; stroke: #98df8a; stroke-width: 2;"></path></g></g><path class="foreground" d="" style="display: none; fill: none;"></path></g><g transform="translate(0,0)"><path class="background" d="M0,0h900v600h-900Z" style="fill: none;"></path><g><g class="mark-line role-mark marks"><path d="M6.923076923076923,580.2778857364943L10.384615384615385,560.7982196865548L13.846153846153847,531.9475114944457L17.30769230769231,505.8932181720878L20.76923076923077,476.0809928151535L24.230769230769234,453.1396177134038L27.692307692307693,377.9287262352198L31.153846153846157,432.07038444308023L34.61538461538462,409.94802700766644L38.07692307692308,389.13985600989935L41.53846153846154,341.39723214414823L45,348.5358234666149L48.46153846153847,283.3185249253027L51.92307692307693,279.1385778767806L55.38461538461539,158.8637784229022L58.84615384615385,294.28854017069L62.307692307692314,286.87312867811545L65.76923076923077,298.4800470893497L69.23076923076924,252.00783545543578L72.6923076923077,219.53795896718816L76.15384615384616,186.81234452234034L79.61538461538461,166.40160036506572L83.07692307692308,22.828917192957654L86.53846153846155,241.7497876779351L90,234.25385353187943L93.46153846153847,190.66012395713707L96.92307692307693,179.75155279503102L100.38461538461539,175.1507141684452L103.84615384615385,145.3606271034806L107.3076923076923,151.45786516853929L110.76923076923077,91.53238108445424L114.23076923076923,199.28304960766056L117.6923076923077,160.32678679894715L121.15384615384615,190.90007354648912L124.61538461538463,137.20429536615478L128.07692307692307,156.17744798157182L131.53846153846155,135.8513213510768L135,90.0703227213258L138.46153846153848,58.19891950717084L141.9230769230769,163.99325550826242L145.3846153846154,135.07346393588597L148.84615384615384,131.9775808508887L152.30769230769232,143.1753554502369L155.76923076923077,160.50697911938258L159.23076923076923,148.14542086155916L162.69230769230768,175.14024154543836L166.15384615384616,76.28753306397707L169.6153846153846,202.00587449290373L173.0769230769231,203.32303260808771L176.53846153846155,210.74507816251406L180,171.09703686948657L183.46153846153845,200.6667173483351L186.92307692307693,158.02133210051846L190.3846153846154,188.35850365547788L193.84615384615387,98.00376647834274L197.3076923076923,196.64313534566702L200.76923076923077,186.95107858243455L204.23076923076923,188.8963505001853L207.6923076923077,167.7966101694915L211.15384615384616,182.11265744737076L214.6153846153846,163.95907473309603L218.07692307692307,174.49970570924074L221.53846153846155,95.95598880416941L225,217.19194144400228L228.46153846153845,207.10950764006787L231.9230769230769,184.47255699143318L235.3846153846154,163.3859142412797L238.84615384615384,179.35867230268175L242.3076923076923,159.56996827634825L245.76923076923075,178.29046650482252L249.23076923076925,88.0247869868319L252.6923076923077,194.1416283376142L256.15384615384613,169.94764397905766L259.6153846153846,186.4447583900357L263.0769230769231,145.1547155827311L266.53846153846155,173.65771812080538L270,138.70718363463365L273.46153846153845,171.63678940568474L276.92307692307696,115.55450011873664L280.3846153846154,176.9178139926946L283.8461538461538,161.27629087559495L287.30769230769226,177.51443001443L290.7692307692308,137.12698086025927L294.2307692307692,184.17657237436066L297.6923076923077,137.24591057797159L301.15384615384613,161.2755720563722L304.61538461538464,104.83450351053153L308.0769230769231,172.34649948245038L311.53846153846155,172.6748195485265L315,177.85661928031993L318.46153846153845,156.75246440306674L321.9230769230769,161.47368769883343L325.38461538461536,132.1901817846267L328.8461538461538,179.18783015034543L332.3076923076923,110.3319905542436L335.7692307692308,186.62936942455684L339.2307692307692,163.43725241641573L342.6923076923077,180.70881333184207L346.1538461538462,142.53707542656673L349.61538461538464,171.01546072974648L353.0769230769231,141.77515928456282L356.53846153846155,187.27716541439412L360,104.47718289615521L363.46153846153845,167.03114773033536L366.9230769230769,148.71948338320993L370.38461538461536,189.16517150395782L373.84615384615387,140.14842300556586L377.3076923076923,170.2617021276596L380.7692307692308,137.4929735806633L384.2307692307692,159.39347193492972L387.69230769230774,102.49319542732711L391.1538461538462,160.78842651918796L394.6153846153846,148.45794870048033L398.07692307692304,171.70751841503682L401.53846153846155,138.04584160748544L405,159.11651405115248L408.46153846153845,124.85764945970357L411.9230769230769,156.08540269045687L415.3846153846154,97.08963911525035L418.84615384615387,164.6624300373135L422.3076923076923,152.90892568659137L425.7692307692308,166.31981692628875L429.2307692307692,130.69046886221406L432.6923076923077,156.17859075140817L436.15384615384613,145.41770933589996L439.6153846153846,169.44629718250883L443.0769230769231,110.71672354948797L446.53846153846155,181.65083798882677L450,183.60977809269224L453.46153846153845,172.73432923257178L456.9230769230769,140.59320531757754L460.38461538461536,158.5108153078204L463.8461538461538,134.8929068957511L467.3076923076923,150.5874673629242L470.7692307692308,98.42975206611567L474.2307692307692,159.1831941544885L477.6923076923077,151.8300673701049L481.15384615384613,183.52874049027898L484.6153846153846,128.28289183917445L488.07692307692304,159.01983241033372L491.5384615384615,123.87616519538243L495.00000000000006,154.1388303026848L498.4615384615385,78.77242557665771L501.92307692307696,167.8680239868459L505.3846153846154,151.7121367070234L508.8461538461538,165.47527047913448L512.3076923076923,135.3454013044056L515.7692307692307,153.47244131751637L519.2307692307692,123.7166290344003L522.6923076923077,150.9534291010195L526.1538461538462,100.803253685816L529.6153846153846,163.95402349228613L533.0769230769231,144.2255516700832L536.5384615384615,165.8132530120482L540,132.7048192771084L543.4615384615385,157.2191891796696L546.9230769230769,126.71890798786652L550.3846153846155,155.0962732919255L553.8461538461539,105.72415046338367L557.3076923076924,181.60178503608054L560.7692307692308,144.04905467552376L564.2307692307692,169.00060434492195L567.6923076923076,130.65900225826317L571.1538461538461,156.51111536987347L574.6153846153845,134.14128020684853L578.0769230769231,164.5901020408164L581.5384615384615,108.71224273866001L585,170.18599756068772L588.4615384615385,149.90838762214992L591.9230769230769,178.73135593220343L595.3846153846154,166.25857641151438L598.8461538461538,173.51007749049995L602.3076923076923,138.10745054243785L605.7692307692308,163.91696448514625L609.2307692307693,85.28085494591413L612.6923076923077,157.69599158454213L616.1538461538462,172.1552637153146L619.6153846153846,163.91679120409907L623.0769230769231,138.6762954139368L626.5384615384615,155.25686754684835L630,125.54186638705819L633.4615384615385,159.036713828359L636.9230769230769,100.4081632653062L640.3846153846154,162.80057108506162L643.8461538461538,138.84056455828548L647.3076923076923,153.25175350701403L650.7692307692307,118.44838640735192L654.2307692307692,147.81299642573464L657.6923076923076,125.00000000000003L661.1538461538462,156.7209091775469L664.6153846153846,79.49501661129568L668.0769230769231,153.93561566638493L671.5384615384615,137.1283881547217L675,154.06663907284778L678.4615384615385,148.77567941040996L681.9230769230769,152.64917276918905L685.3846153846154,156.2008345911391L688.8461538461538,156.27669390983388L692.3076923076924,99.21445404556157L695.7692307692308,160.10866780529454L699.2307692307693,134.53431153261158L702.6923076923077,161.82574430823112L706.1538461538462,127.7222963951936L709.6153846153846,157.50371624411594L713.0769230769231,121.90598215074667L716.5384615384615,152.70611593253645L720,108.27598502406848L723.4615384615385,163.2242569210258L726.9230769230769,144.01508393479847L730.3846153846154,168.13546104686546L733.8461538461538,127.4709326296693L737.3076923076923,173.53675169566495L740.7692307692307,123.85305390198158L744.2307692307692,155.19339622641513L747.6923076923077,124.03264522323572L751.1538461538462,161.3787624196376L754.6153846153846,150.5629728526925L758.0769230769231,242.60505552308595L761.5384615384615,117.66453024855399L765,164.6817546312478L768.4615384615385,128.14372606442893L771.9230769230769,287.26213376738684L775.3846153846155,212.6050623713213L778.8461538461539,315.76522524109384L782.3076923076924,167.5836653386454L785.7692307692308,163.37160231275334L789.2307692307692,195.9300128025361L792.6923076923076,183.3087685404462L796.1538461538461,188.10687022900763L799.6153846153845,230.4840593091462L803.0769230769231,212.65677033357792L806.5384615384615,252.63976012445426L810,169.12979077948523L813.4615384615385,245.92238258071L816.9230769230769,201.00910214630858L820.3846153846154,283.4675138121548L823.8461538461538,215.19021739130432L827.3076923076923,302.6648362864375L830.7692307692308,175.39315448658647L834.2307692307693,279.00617685305593L837.6923076923077,218.1389996931574L841.1538461538462,287.01943462897526L844.6153846153846,189.2624857962232L848.0769230769231,205.24126992314442L851.5384615384615,183.2906675307842L855,266.78172121315964L858.4615384615385,199.99183840032651L861.9230769230769,293.6828186151044L865.3846153846154,229.6188705554264L868.8461538461538,277.76686858151476L872.3076923076923,322.73268954181225L875.7692307692307,295.71800082025277L879.2307692307692,240.24535315985125L882.6923076923076,353.8759833753897L886.1538461538462,264.65304811975756" style="fill: none; stroke: #ffbb78; stroke-width: 2;"></path></g></g><path class="foreground" d="" style="display: none; fill: none;"></path></g></g><g class="mark-group role-legend"><g transform="translate(918,0)"><path class="background" d="M0,0h101v92h-101Z" style="pointer-events: none; fill: none;"></path><g><g class="mark-group role-legend-entry"><g transform="translate(0,16)"><path class="background" d="M0,0h0v0h0Z" style="pointer-events: none; fill: none;"></path><g><g class="mark-group role-scope"><g transform="translate(0,0)"><path class="background" d="M0,0h101v11h-101Z" style="pointer-events: none; fill: none; opacity: 1;"></path><g><g class="mark-symbol role-legend-symbol" style="pointer-events: none;"><path transform="translate(6,6)" d="M-5,0L5,0" style="fill: none; stroke: #1f77b4; stroke-width: 1.5; opacity: 1;"></path></g><g class="mark-text role-legend-label" style="pointer-events: none;"><text text-anchor="start" transform="translate(16,9)" style="font-family: sans-serif; font-size: 10px; fill: #000; opacity: 1;">Clang-Polly</text></g></g><path class="foreground" d="" style="pointer-events: none; display: none; fill: none;"></path></g><g transform="translate(0,13)"><path class="background" d="M0,0h101v11h-101Z" style="pointer-events: none; fill: none; opacity: 1;"></path><g><g class="mark-symbol role-legend-symbol" style="pointer-events: none;"><path transform="translate(6,6)" d="M-5,0L5,0" style="fill: none; stroke: #aec7e8; stroke-width: 1.5; opacity: 1;"></path></g><g class="mark-text role-legend-label" style="pointer-events: none;"><text text-anchor="start" transform="translate(16,9)" style="font-family: sans-serif; font-size: 10px; fill: #000; opacity: 1;">GFortran</text></g></g><path class="foreground" d="" style="pointer-events: none; display: none; fill: none;"></path></g><g transform="translate(0,26)"><path class="background" d="M0,0h101v11h-101Z" style="pointer-events: none; fill: none; opacity: 1;"></path><g><g class="mark-symbol role-legend-symbol" style="pointer-events: none;"><path transform="translate(6,6)" d="M-5,0L5,0" style="fill: none; stroke: #ff7f0e; stroke-width: 1.5; opacity: 1;"></path></g><g class="mark-text role-legend-label" style="pointer-events: none;"><text text-anchor="start" transform="translate(16,9)" style="font-family: sans-serif; font-size: 10px; fill: #000; opacity: 1;">Julia</text></g></g><path class="foreground" d="" style="pointer-events: none; display: none; fill: none;"></path></g><g transform="translate(0,39)"><path class="background" d="M0,0h101v11h-101Z" style="pointer-events: none; fill: none; opacity: 1;"></path><g><g class="mark-symbol role-legend-symbol" style="pointer-events: none;"><path transform="translate(6,6)" d="M-5,0L5,0" style="fill: none; stroke: #ffbb78; stroke-width: 1.5; opacity: 1;"></path></g><g class="mark-text role-legend-label" style="pointer-events: none;"><text text-anchor="start" transform="translate(16,9)" style="font-family: sans-serif; font-size: 10px; fill: #000; opacity: 1;">LoopVectorization</text></g></g><path class="foreground" d="" style="pointer-events: none; display: none; fill: none;"></path></g><g transform="translate(0,52)"><path class="background" d="M0,0h101v11h-101Z" style="pointer-events: none; fill: none; opacity: 1;"></path><g><g class="mark-symbol role-legend-symbol" style="pointer-events: none;"><path transform="translate(6,6)" d="M-5,0L5,0" style="fill: none; stroke: #2ca02c; stroke-width: 1.5; opacity: 1;"></path></g><g class="mark-text role-legend-label" style="pointer-events: none;"><text text-anchor="start" transform="translate(16,9)" style="font-family: sans-serif; font-size: 10px; fill: #000; opacity: 1;">icc</text></g></g><path class="foreground" d="" style="pointer-events: none; display: none; fill: none;"></path></g><g transform="translate(0,65)"><path class="background" d="M0,0h101v11h-101Z" style="pointer-events: none; fill: none; opacity: 1;"></path><g><g class="mark-symbol role-legend-symbol" style="pointer-events: none;"><path transform="translate(6,6)" d="M-5,0L5,0" style="fill: none; stroke: #98df8a; stroke-width: 1.5; opacity: 1;"></path></g><g class="mark-text role-legend-label" style="pointer-events: none;"><text text-anchor="start" transform="translate(16,9)" style="font-family: sans-serif; font-size: 10px; fill: #000; opacity: 1;">ifort</text></g></g><path class="foreground" d="" style="pointer-events: none; display: none; fill: none;"></path></g></g></g><path class="foreground" d="" style="pointer-events: none; display: none; fill: none;"></path></g></g><g class="mark-text role-legend-title" style="pointer-events: none;"><text text-anchor="start" transform="translate(0,9)" style="font-family: sans-serif; font-size: 11px; font-weight: bold; fill: #000; opacity: 1;">Method</text></g></g><path class="foreground" d="" style="pointer-events: none; display: none; fill: none;"></path></g></g></g><path class="foreground" d="" style="display: none; fill: none;"></path></g></g></g></svg>
