<?xml version="1.0" encoding="utf-8"?>
<!DOCTYPE svg PUBLIC "-//W3C//DTD SVG 1.1//EN" "http://www.w3.org/Graphics/SVG/1.1/DTD/svg11.dtd">
<svg class="marks" width="1066" height="647" viewBox="0 0 1066 647" version="1.1" xmlns="http://www.w3.org/2000/svg" xmlns:xlink="http://www.w3.org/1999/xlink"><rect width="1066" height="647" style="fill: white;"></rect><g transform="translate(42,10)"><g class="mark-group role-frame root"><g transform="translate(0,0)"><path class="background" d="M0.5,0.5h900v600h-900Z" style="fill: none; stroke: #ddd;"></path><g><g class="mark-group role-axis"><g transform="translate(0.5,600.5)"><path class="background" d="M0,0h0v0h0Z" style="pointer-events: none; fill: none;"></path><g><g class="mark-rule role-axis-grid" style="pointer-events: none;"><line transform="translate(0,-600)" x2="0" y2="600" style="fill: none; stroke: #ddd; stroke-width: 1; opacity: 1;"></line><line transform="translate(35,-600)" x2="0" y2="600" style="fill: none; stroke: #ddd; stroke-width: 1; opacity: 1;"></line><line transform="translate(69,-600)" x2="0" y2="600" style="fill: none; stroke: #ddd; stroke-width: 1; opacity: 1;"></line><line transform="translate(104,-600)" x2="0" y2="600" style="fill: none; stroke: #ddd; stroke-width: 1; opacity: 1;"></line><line transform="translate(138,-600)" x2="0" y2="600" style="fill: none; stroke: #ddd; stroke-width: 1; opacity: 1;"></line><line transform="translate(173,-600)" x2="0" y2="600" style="fill: none; stroke: #ddd; stroke-width: 1; opacity: 1;"></line><line transform="translate(208,-600)" x2="0" y2="600" style="fill: none; stroke: #ddd; stroke-width: 1; opacity: 1;"></line><line transform="translate(242,-600)" x2="0" y2="600" style="fill: none; stroke: #ddd; stroke-width: 1; opacity: 1;"></line><line transform="translate(277,-600)" x2="0" y2="600" style="fill: none; stroke: #ddd; stroke-width: 1; opacity: 1;"></line><line transform="translate(312,-600)" x2="0" y2="600" style="fill: none; stroke: #ddd; stroke-width: 1; opacity: 1;"></line><line transform="translate(346,-600)" x2="0" y2="600" style="fill: none; stroke: #ddd; stroke-width: 1; opacity: 1;"></line><line transform="translate(381,-600)" x2="0" y2="600" style="fill: none; stroke: #ddd; stroke-width: 1; opacity: 1;"></line><line transform="translate(415,-600)" x2="0" y2="600" style="fill: none; stroke: #ddd; stroke-width: 1; opacity: 1;"></line><line transform="translate(450,-600)" x2="0" y2="600" style="fill: none; stroke: #ddd; stroke-width: 1; opacity: 1;"></line><line transform="translate(485,-600)" x2="0" y2="600" style="fill: none; stroke: #ddd; stroke-width: 1; opacity: 1;"></line><line transform="translate(519,-600)" x2="0" y2="600" style="fill: none; stroke: #ddd; stroke-width: 1; opacity: 1;"></line><line transform="translate(554,-600)" x2="0" y2="600" style="fill: none; stroke: #ddd; stroke-width: 1; opacity: 1;"></line><line transform="translate(588,-600)" x2="0" y2="600" style="fill: none; stroke: #ddd; stroke-width: 1; opacity: 1;"></line><line transform="translate(623,-600)" x2="0" y2="600" style="fill: none; stroke: #ddd; stroke-width: 1; opacity: 1;"></line><line transform="translate(658,-600)" x2="0" y2="600" style="fill: none; stroke: #ddd; stroke-width: 1; opacity: 1;"></line><line transform="translate(692,-600)" x2="0" y2="600" style="fill: none; stroke: #ddd; stroke-width: 1; opacity: 1;"></line><line transform="translate(727,-600)" x2="0" y2="600" style="fill: none; stroke: #ddd; stroke-width: 1; opacity: 1;"></line><line transform="translate(762,-600)" x2="0" y2="600" style="fill: none; stroke: #ddd; stroke-width: 1; opacity: 1;"></line><line transform="translate(796,-600)" x2="0" y2="600" style="fill: none; stroke: #ddd; stroke-width: 1; opacity: 1;"></line><line transform="translate(831,-600)" x2="0" y2="600" style="fill: none; stroke: #ddd; stroke-width: 1; opacity: 1;"></line><line transform="translate(865,-600)" x2="0" y2="600" style="fill: none; stroke: #ddd; stroke-width: 1; opacity: 1;"></line><line transform="translate(900,-600)" x2="0" y2="600" style="fill: none; stroke: #ddd; stroke-width: 1; opacity: 1;"></line></g></g><path class="foreground" d="" style="pointer-events: none; display: none; fill: none;"></path></g></g><g class="mark-group role-axis"><g transform="translate(0.5,0.5)"><path class="background" d="M0,0h0v0h0Z" style="pointer-events: none; fill: none;"></path><g><g class="mark-rule role-axis-grid" style="pointer-events: none;"><line transform="translate(0,600)" x2="900" y2="0" style="fill: none; stroke: #ddd; stroke-width: 1; opacity: 1;"></line><line transform="translate(0,554)" x2="900" y2="0" style="fill: none; stroke: #ddd; stroke-width: 1; opacity: 1;"></line><line transform="translate(0,508)" x2="900" y2="0" style="fill: none; stroke: #ddd; stroke-width: 1; opacity: 1;"></line><line transform="translate(0,462)" x2="900" y2="0" style="fill: none; stroke: #ddd; stroke-width: 1; opacity: 1;"></line><line transform="translate(0,415)" x2="900" y2="0" style="fill: none; stroke: #ddd; stroke-width: 1; opacity: 1;"></line><line transform="translate(0,369)" x2="900" y2="0" style="fill: none; stroke: #ddd; stroke-width: 1; opacity: 1;"></line><line transform="translate(0,323)" x2="900" y2="0" style="fill: none; stroke: #ddd; stroke-width: 1; opacity: 1;"></line><line transform="translate(0,277)" x2="900" y2="0" style="fill: none; stroke: #ddd; stroke-width: 1; opacity: 1;"></line><line transform="translate(0,231)" x2="900" y2="0" style="fill: none; stroke: #ddd; stroke-width: 1; opacity: 1;"></line><line transform="translate(0,185)" x2="900" y2="0" style="fill: none; stroke: #ddd; stroke-width: 1; opacity: 1;"></line><line transform="translate(0,138)" x2="900" y2="0" style="fill: none; stroke: #ddd; stroke-width: 1; opacity: 1;"></line><line transform="translate(0,92)" x2="900" y2="0" style="fill: none; stroke: #ddd; stroke-width: 1; opacity: 1;"></line><line transform="translate(0,46)" x2="900" y2="0" style="fill: none; stroke: #ddd; stroke-width: 1; opacity: 1;"></line><line transform="translate(0,0)" x2="900" y2="0" style="fill: none; stroke: #ddd; stroke-width: 1; opacity: 1;"></line></g></g><path class="foreground" d="" style="pointer-events: none; display: none; fill: none;"></path></g></g><g class="mark-group role-axis"><g transform="translate(0.5,600.5)"><path class="background" d="M0,0h0v0h0Z" style="pointer-events: none; fill: none;"></path><g><g class="mark-rule role-axis-tick" style="pointer-events: none;"><line transform="translate(0,0)" x2="0" y2="5" style="fill: none; stroke: #888; stroke-width: 1; opacity: 1;"></line><line transform="translate(35,0)" x2="0" y2="5" style="fill: none; stroke: #888; stroke-width: 1; opacity: 1;"></line><line transform="translate(69,0)" x2="0" y2="5" style="fill: none; stroke: #888; stroke-width: 1; opacity: 1;"></line><line transform="translate(104,0)" x2="0" y2="5" style="fill: none; stroke: #888; stroke-width: 1; opacity: 1;"></line><line transform="translate(138,0)" x2="0" y2="5" style="fill: none; stroke: #888; stroke-width: 1; opacity: 1;"></line><line transform="translate(173,0)" x2="0" y2="5" style="fill: none; stroke: #888; stroke-width: 1; opacity: 1;"></line><line transform="translate(208,0)" x2="0" y2="5" style="fill: none; stroke: #888; stroke-width: 1; opacity: 1;"></line><line transform="translate(242,0)" x2="0" y2="5" style="fill: none; stroke: #888; stroke-width: 1; opacity: 1;"></line><line transform="translate(277,0)" x2="0" y2="5" style="fill: none; stroke: #888; stroke-width: 1; opacity: 1;"></line><line transform="translate(312,0)" x2="0" y2="5" style="fill: none; stroke: #888; stroke-width: 1; opacity: 1;"></line><line transform="translate(346,0)" x2="0" y2="5" style="fill: none; stroke: #888; stroke-width: 1; opacity: 1;"></line><line transform="translate(381,0)" x2="0" y2="5" style="fill: none; stroke: #888; stroke-width: 1; opacity: 1;"></line><line transform="translate(415,0)" x2="0" y2="5" style="fill: none; stroke: #888; stroke-width: 1; opacity: 1;"></line><line transform="translate(450,0)" x2="0" y2="5" style="fill: none; stroke: #888; stroke-width: 1; opacity: 1;"></line><line transform="translate(485,0)" x2="0" y2="5" style="fill: none; stroke: #888; stroke-width: 1; opacity: 1;"></line><line transform="translate(519,0)" x2="0" y2="5" style="fill: none; stroke: #888; stroke-width: 1; opacity: 1;"></line><line transform="translate(554,0)" x2="0" y2="5" style="fill: none; stroke: #888; stroke-width: 1; opacity: 1;"></line><line transform="translate(588,0)" x2="0" y2="5" style="fill: none; stroke: #888; stroke-width: 1; opacity: 1;"></line><line transform="translate(623,0)" x2="0" y2="5" style="fill: none; stroke: #888; stroke-width: 1; opacity: 1;"></line><line transform="translate(658,0)" x2="0" y2="5" style="fill: none; stroke: #888; stroke-width: 1; opacity: 1;"></line><line transform="translate(692,0)" x2="0" y2="5" style="fill: none; stroke: #888; stroke-width: 1; opacity: 1;"></line><line transform="translate(727,0)" x2="0" y2="5" style="fill: none; stroke: #888; stroke-width: 1; opacity: 1;"></line><line transform="translate(762,0)" x2="0" y2="5" style="fill: none; stroke: #888; stroke-width: 1; opacity: 1;"></line><line transform="translate(796,0)" x2="0" y2="5" style="fill: none; stroke: #888; stroke-width: 1; opacity: 1;"></line><line transform="translate(831,0)" x2="0" y2="5" style="fill: none; stroke: #888; stroke-width: 1; opacity: 1;"></line><line transform="translate(865,0)" x2="0" y2="5" style="fill: none; stroke: #888; stroke-width: 1; opacity: 1;"></line><line transform="translate(900,0)" x2="0" y2="5" style="fill: none; stroke: #888; stroke-width: 1; opacity: 1;"></line></g><g class="mark-text role-axis-label" style="pointer-events: none;"><text text-anchor="start" transform="translate(0,15)" style="font-family: sans-serif; font-size: 10px; fill: #000; opacity: 1;">0</text><text text-anchor="middle" transform="translate(34.61538461538462,15)" style="font-family: sans-serif; font-size: 10px; fill: #000; opacity: 1;">10</text><text text-anchor="middle" transform="translate(69.23076923076924,15)" style="font-family: sans-serif; font-size: 10px; fill: #000; opacity: 1;">20</text><text text-anchor="middle" transform="translate(103.84615384615385,15)" style="font-family: sans-serif; font-size: 10px; fill: #000; opacity: 1;">30</text><text text-anchor="middle" transform="translate(138.46153846153848,15)" style="font-family: sans-serif; font-size: 10px; fill: #000; opacity: 1;">40</text><text text-anchor="middle" transform="translate(173.0769230769231,15)" style="font-family: sans-serif; font-size: 10px; fill: #000; opacity: 1;">50</text><text text-anchor="middle" transform="translate(207.6923076923077,15)" style="font-family: sans-serif; font-size: 10px; fill: #000; opacity: 1;">60</text><text text-anchor="middle" transform="translate(242.3076923076923,15)" style="font-family: sans-serif; font-size: 10px; fill: #000; opacity: 1;">70</text><text text-anchor="middle" transform="translate(276.92307692307696,15)" style="font-family: sans-serif; font-size: 10px; fill: #000; opacity: 1;">80</text><text text-anchor="middle" transform="translate(311.53846153846155,15)" style="font-family: sans-serif; font-size: 10px; fill: #000; opacity: 1;">90</text><text text-anchor="middle" transform="translate(346.1538461538462,15)" style="font-family: sans-serif; font-size: 10px; fill: #000; opacity: 1;">100</text><text text-anchor="middle" transform="translate(380.7692307692308,15)" style="font-family: sans-serif; font-size: 10px; fill: #000; opacity: 1;">110</text><text text-anchor="middle" transform="translate(415.3846153846154,15)" style="font-family: sans-serif; font-size: 10px; fill: #000; opacity: 1;">120</text><text text-anchor="middle" transform="translate(450,15)" style="font-family: sans-serif; font-size: 10px; fill: #000; opacity: 1;">130</text><text text-anchor="middle" transform="translate(484.6153846153846,15)" style="font-family: sans-serif; font-size: 10px; fill: #000; opacity: 1;">140</text><text text-anchor="middle" transform="translate(519.2307692307692,15)" style="font-family: sans-serif; font-size: 10px; fill: #000; opacity: 1;">150</text><text text-anchor="middle" transform="translate(553.8461538461539,15)" style="font-family: sans-serif; font-size: 10px; fill: #000; opacity: 1;">160</text><text text-anchor="middle" transform="translate(588.4615384615385,15)" style="font-family: sans-serif; font-size: 10px; fill: #000; opacity: 1;">170</text><text text-anchor="middle" transform="translate(623.0769230769231,15)" style="font-family: sans-serif; font-size: 10px; fill: #000; opacity: 1;">180</text><text text-anchor="middle" transform="translate(657.6923076923076,15)" style="font-family: sans-serif; font-size: 10px; fill: #000; opacity: 1;">190</text><text text-anchor="middle" transform="translate(692.3076923076924,15)" style="font-family: sans-serif; font-size: 10px; fill: #000; opacity: 1;">200</text><text text-anchor="middle" transform="translate(726.9230769230769,15)" style="font-family: sans-serif; font-size: 10px; fill: #000; opacity: 1;">210</text><text text-anchor="middle" transform="translate(761.5384615384615,15)" style="font-family: sans-serif; font-size: 10px; fill: #000; opacity: 1;">220</text><text text-anchor="middle" transform="translate(796.1538461538461,15)" style="font-family: sans-serif; font-size: 10px; fill: #000; opacity: 1;">230</text><text text-anchor="middle" transform="translate(830.7692307692308,15)" style="font-family: sans-serif; font-size: 10px; fill: #000; opacity: 1;">240</text><text text-anchor="middle" transform="translate(865.3846153846154,15)" style="font-family: sans-serif; font-size: 10px; fill: #000; opacity: 1;">250</text><text text-anchor="end" transform="translate(900,15)" style="font-family: sans-serif; font-size: 10px; fill: #000; opacity: 1;">260</text></g><g class="mark-rule role-axis-domain" style="pointer-events: none;"><line transform="translate(0,0)" x2="900" y2="0" style="fill: none; stroke: #888; stroke-width: 1; opacity: 1;"></line></g><g class="mark-text role-axis-title" style="pointer-events: none;"><text text-anchor="middle" transform="translate(450,30)" style="font-family: sans-serif; font-size: 11px; font-weight: bold; fill: #000; opacity: 1;">Size</text></g></g><path class="foreground" d="" style="pointer-events: none; display: none; fill: none;"></path></g></g><g class="mark-group role-axis"><g transform="translate(0.5,0.5)"><path class="background" d="M0,0h0v0h0Z" style="pointer-events: none; fill: none;"></path><g><g class="mark-rule role-axis-tick" style="pointer-events: none;"><line transform="translate(0,600)" x2="-5" y2="0" style="fill: none; stroke: #888; stroke-width: 1; opacity: 1;"></line><line transform="translate(0,554)" x2="-5" y2="0" style="fill: none; stroke: #888; stroke-width: 1; opacity: 1;"></line><line transform="translate(0,508)" x2="-5" y2="0" style="fill: none; stroke: #888; stroke-width: 1; opacity: 1;"></line><line transform="translate(0,462)" x2="-5" y2="0" style="fill: none; stroke: #888; stroke-width: 1; opacity: 1;"></line><line transform="translate(0,415)" x2="-5" y2="0" style="fill: none; stroke: #888; stroke-width: 1; opacity: 1;"></line><line transform="translate(0,369)" x2="-5" y2="0" style="fill: none; stroke: #888; stroke-width: 1; opacity: 1;"></line><line transform="translate(0,323)" x2="-5" y2="0" style="fill: none; stroke: #888; stroke-width: 1; opacity: 1;"></line><line transform="translate(0,277)" x2="-5" y2="0" style="fill: none; stroke: #888; stroke-width: 1; opacity: 1;"></line><line transform="translate(0,231)" x2="-5" y2="0" style="fill: none; stroke: #888; stroke-width: 1; opacity: 1;"></line><line transform="translate(0,185)" x2="-5" y2="0" style="fill: none; stroke: #888; stroke-width: 1; opacity: 1;"></line><line transform="translate(0,138)" x2="-5" y2="0" style="fill: none; stroke: #888; stroke-width: 1; opacity: 1;"></line><line transform="translate(0,92)" x2="-5" y2="0" style="fill: none; stroke: #888; stroke-width: 1; opacity: 1;"></line><line transform="translate(0,46)" x2="-5" y2="0" style="fill: none; stroke: #888; stroke-width: 1; opacity: 1;"></line><line transform="translate(0,0)" x2="-5" y2="0" style="fill: none; stroke: #888; stroke-width: 1; opacity: 1;"></line></g><g class="mark-text role-axis-label" style="pointer-events: none;"><text text-anchor="end" transform="translate(-7,603)" style="font-family: sans-serif; font-size: 10px; fill: #000; opacity: 1;">0.0</text><text text-anchor="end" transform="translate(-7,556.8461538461539)" style="font-family: sans-serif; font-size: 10px; fill: #000; opacity: 1;">0.1</text><text text-anchor="end" transform="translate(-7,510.6923076923077)" style="font-family: sans-serif; font-size: 10px; fill: #000; opacity: 1;">0.2</text><text text-anchor="end" transform="translate(-7,464.53846153846155)" style="font-family: sans-serif; font-size: 10px; fill: #000; opacity: 1;">0.3</text><text text-anchor="end" transform="translate(-7,418.38461538461536)" style="font-family: sans-serif; font-size: 10px; fill: #000; opacity: 1;">0.4</text><text text-anchor="end" transform="translate(-7,372.2307692307692)" style="font-family: sans-serif; font-size: 10px; fill: #000; opacity: 1;">0.5</text><text text-anchor="end" transform="translate(-7,326.07692307692315)" style="font-family: sans-serif; font-size: 10px; fill: #000; opacity: 1;">0.6</text><text text-anchor="end" transform="translate(-7,279.92307692307696)" style="font-family: sans-serif; font-size: 10px; fill: #000; opacity: 1;">0.7</text><text text-anchor="end" transform="translate(-7,233.76923076923075)" style="font-family: sans-serif; font-size: 10px; fill: #000; opacity: 1;">0.8</text><text text-anchor="end" transform="translate(-7,187.6153846153846)" style="font-family: sans-serif; font-size: 10px; fill: #000; opacity: 1;">0.9</text><text text-anchor="end" transform="translate(-7,141.4615384615385)" style="font-family: sans-serif; font-size: 10px; fill: #000; opacity: 1;">1.0</text><text text-anchor="end" transform="translate(-7,95.3076923076923)" style="font-family: sans-serif; font-size: 10px; fill: #000; opacity: 1;">1.1</text><text text-anchor="end" transform="translate(-7,49.15384615384619)" style="font-family: sans-serif; font-size: 10px; fill: #000; opacity: 1;">1.2</text><text text-anchor="end" transform="translate(-7,3)" style="font-family: sans-serif; font-size: 10px; fill: #000; opacity: 1;">1.3</text></g><g class="mark-rule role-axis-domain" style="pointer-events: none;"><line transform="translate(0,600)" x2="0" y2="-600" style="fill: none; stroke: #888; stroke-width: 1; opacity: 1;"></line></g><g class="mark-text role-axis-title" style="pointer-events: none;"><text text-anchor="middle" transform="translate(-26,300) rotate(-90) translate(0,-2)" style="font-family: sans-serif; font-size: 11px; font-weight: bold; fill: #000; opacity: 1;">GFLOPS</text></g></g><path class="foreground" d="" style="pointer-events: none; display: none; fill: none;"></path></g></g><g class="mark-group role-scope pathgroup"><g transform="translate(0,0)"><path class="background" d="M0,0h900v600h-900Z" style="fill: none;"></path><g><g class="mark-line role-mark marks"><path d="M6.923076923076923,544.8562929946863L10.384615384615385,545.0632624356881L13.846153846153847,542.3802247538732L17.30769230769231,539.2035170438527L20.76923076923077,539.1398139870396L24.230769230769234,541.1599051048796L27.692307692307693,537.3969033142347L31.153846153846157,536.8371249457872L34.61538461538462,536.2858922806819L38.07692307692308,544.980560177243L41.53846153846154,535.6024044750367L45,535.3037581237638L48.46153846153847,535.0375085135261L51.92307692307693,534.7755747485414L55.38461538461539,534.6038474030985L58.84615384615385,536.4311323386731L62.307692307692314,535.7099085239449L65.76923076923077,534.4597035415692L69.23076923076924,534.341294717994L72.6923076923077,535.3479110356494L76.15384615384616,534.8553894518784L79.61538461538461,534.901324814501L83.07692307692308,534.9186086156725L86.53846153846155,535.3676961242496L90,543.7650591891609L93.46153846153847,534.542547781776L96.92307692307693,534.0802457798334L100.38461538461539,534.2843762336047L103.84615384615385,534.6234483898442L107.3076923076923,534.1597481270587L110.76923076923077,532.5657435505559L114.23076923076923,534.2128408091469L117.6923076923077,532.467740557977L121.15384615384615,533.884162704012L124.61538461538463,532.3395035178979L128.07692307692307,532.1459178547154L131.53846153846155,533.5856080836858L135,533.5160252591445L138.46153846153848,534.1763690613627L141.9230769230769,531.8978926466692L145.3846153846154,533.6662312375224L148.84615384615384,533.4164479652277L152.30769230769232,533.3212099169546L155.76923076923077,533.2674939171234L159.23076923076923,533.4754003393057L162.69230769230768,533.2256014223935L166.15384615384616,533.4907418913881L169.6153846153846,531.6073322676547L173.0769230769231,533.1058586822372L176.53846153846155,532.960478180533L180,533.1108930323846L183.46153846153845,531.8004955136205L186.92307692307693,533.3676092544987L190.3846153846154,532.5844046858446L193.84615384615387,533.0212949887352L197.3076923076923,533.194621128117L200.76923076923077,532.8291891458024L204.23076923076923,533.1456753844832L207.6923076923077,531.7281246962359L211.15384615384616,532.8503204287305L214.6153846153846,533.0213065495767L218.07692307692307,533.1627067121274L221.53846153846155,532.9587067181492L225,532.7689243027888L228.46153846153845,532.6525961020484L231.9230769230769,531.360253362259L235.3846153846154,532.8099373538031L238.84615384615384,532.6915818855216L242.3076923076923,532.9772973893062L245.76923076923075,532.6964599812519L249.23076923076925,531.6073332137165L252.6923076923077,531.2777810128302L256.15384615384613,532.8768743552406L259.6153846153846,531.235539765198L263.0769230769231,532.6291688099723L266.53846153846155,532.6103545748648L270,531.3066325664106L273.46153846153845,532.5729453407446L276.92307692307696,532.7769356587801L280.3846153846154,531.3538582391685L283.8461538461538,532.570188084351L287.30769230769226,532.4411702470419L290.7692307692308,531.3247314932526L294.2307692307692,532.5925505573829L297.6923076923077,532.531380753138L301.15384615384613,531.2712011630352L304.61538461538464,532.8106633307812L308.0769230769231,532.5122138810352L311.53846153846155,531.3035365957086L315,532.6557020422707L318.46153846153845,533.3111010377955L321.9230769230769,532.2407310229377L325.38461538461536,532.5754776447062L328.8461538461538,542.582375388396L332.3076923076923,531.1680339884552L335.7692307692308,532.5770983044821L339.2307692307692,532.575997709588L342.6923076923077,532.5704050154244L346.1538461538462,532.67126746339L349.61538461538464,531.0956894933403L353.0769230769231,532.5854315771805L356.53846153846155,530.9698175839908L360,531.1933650744893L363.46153846153845,531.0186936354045L366.9230769230769,532.6121438034609L370.38461538461536,532.5502616891017L373.84615384615387,532.4505789997274L377.3076923076923,532.3894625739292L380.7692307692308,532.449548256354L384.2307692307692,532.3349280249828L387.69230769230774,532.659920501295L391.1538461538462,542.2994942168325L394.6153846153846,532.4389677989271L398.07692307692304,532.4265938509928L401.53846153846155,532.5261158594492L405,532.4373410824555L408.46153846153845,532.8659705945024L411.9230769230769,532.370427316162L415.3846153846154,532.464870840074L418.84615384615387,531.0432167167959L422.3076923076923,532.2185061315496L425.7692307692308,532.3515894244614L429.2307692307692,532.4968377906697L432.6923076923077,532.245650170741L436.15384615384613,532.2305422337375L439.6153846153846,538.2698130339536L443.0769230769231,532.4189195026775L446.53846153846155,531.2249147478649L450,532.4913892078071L453.46153846153845,532.3301516002246L456.9230769230769,533.0130051110207L460.38461538461536,532.5291697198579L463.8461538461538,532.42254762543L467.3076923076923,531.2774909921017L470.7692307692308,532.3516305868454L474.2307692307692,533.40203780042L477.6923076923077,530.9330259645717L481.15384615384613,531.1235234364462L484.6153846153846,532.8924863551687L488.07692307692304,533.1248792312963L491.5384615384615,532.8327322178206L495.00000000000006,533.3695736584608L498.4615384615385,533.8032485442844L501.92307692307696,533.0343085459979L505.3846153846154,533.1103678929766L508.8461538461538,533.248569612206L512.3076923076923,533.2215345510878L515.7692307692307,533.5113305914814L519.2307692307692,531.7789030047603L522.6923076923077,533.1103678929766L526.1538461538462,533.1995370845115L529.6153846153846,533.713146892533L533.0769230769231,533.6039952574282L536.5384615384615,533.5329726484609L540,531.6758398178023L543.4615384615385,533.55809787132L546.9230769230769,533.6640799389821L550.3846153846155,535.6162349669983L553.8461538461539,532.0329923183122L557.3076923076924,545.1401311866427L560.7692307692308,533.5089099428806L564.2307692307692,531.997858419263L567.6923076923076,533.5449449584656L571.1538461538461,534.1628372492037L574.6153846153845,533.4358083272072L578.0769230769231,533.8565836463373L581.5384615384615,531.840311587147L585,533.7410805300714L588.4615384615385,537.2558668840156L591.9230769230769,534.3019421267985L595.3846153846154,534.2080097922963L598.8461538461538,532.3108224430706L602.3076923076923,534.0875801808172L605.7692307692308,534.663298196707L609.2307692307693,534.4119747833919L612.6923076923077,534.4100299539882L616.1538461538462,534.2190358284521L619.6153846153846,534.484231074239L623.0769230769231,534.7443852981517L626.5384615384615,534.6283265212759L630,534.9240780911063L633.4615384615385,532.6731459055094L636.9230769230769,533.6019726950142L640.3846153846154,535.9166801376349L643.8461538461538,533.6172642699089L647.3076923076923,535.0337280333516L650.7692307692307,543.8314145719635L654.2307692307692,532.3110349726319L657.6923076923076,535.9956881305687L661.1538461538462,544.0648184303006L664.6153846153846,536.2066196707332L668.0769230769231,533.4153662154857L671.5384615384615,540.2000524020159L675,534.6500145222191L678.4615384615385,542.2118701536102L681.9230769230769,537.2641434326385L685.3846153846154,534.9344141084974L688.8461538461538,537.4003858736684L692.3076923076924,538.1730125199649L695.7692307692308,537.8263985193815L699.2307692307693,535.4982916626752L702.6923076923077,537.8904158486525L706.1538461538462,540.6381399950532L709.6153846153846,538.2647888455014L713.0769230769231,536.2712493619391L716.5384615384615,543.0946086494362L720,539.2135756347749L723.4615384615385,538.2646153846154L726.9230769230769,538.7377049977391L730.3846153846154,536.2540974113926L733.8461538461538,539.0442600011501L737.3076923076923,536.2259537413609L740.7692307692307,538.6755055449952L744.2307692307692,538.6479725295108L747.6923076923077,538.9999952932095L751.1538461538462,538.1346308271999L754.6153846153846,539.3992744592034L758.0769230769231,538.6743580409398L761.5384615384615,536.171447360786L765,537.7783200146404L768.4615384615385,539.2496510959692L771.9230769230769,545.5029773784406L775.3846153846155,536.9105904774423L778.8461538461539,539.0967369385057L782.3076923076924,539.93568334234L785.7692307692308,538.820887142055L789.2307692307692,539.5294970516209L792.6923076923076,539.0506270155656L796.1538461538461,539.3510563024361L799.6153846153845,538.8953549888901L803.0769230769231,540.8545497807539L806.5384615384615,539.7374830269199L810,539.3599101628298L813.4615384615385,539.4475555708249L816.9230769230769,536.7167807790629L820.3846153846154,538.2879461863947L823.8461538461538,543.9731950187933L827.3076923076923,544.4153729868016L830.7692307692308,543.0785042295834L834.2307692307693,539.8264705270385L837.6923076923077,540.0341953761905L841.1538461538462,536.8858490974417L844.6153846153846,541.3888911130506L848.0769230769231,536.972898346289L851.5384615384615,540.3339841618259L855,539.4872339296141L858.4615384615385,541.0538992370283L861.9230769230769,539.7235513882949L865.3846153846154,541.184312679878L868.8461538461538,540.2485280347876L872.3076923076923,539.6243291592128L875.7692307692307,539.1033998595929L879.2307692307692,539.0534082501849L882.6923076923076,545.6163285295081L886.1538461538462,538.6564320887566" style="fill: none; stroke: #ffbb78; stroke-width: 2;"></path></g></g><path class="foreground" d="" style="display: none; fill: none;"></path></g><g transform="translate(0,0)"><path class="background" d="M0,0h900v600h-900Z" style="fill: none;"></path><g><g class="mark-line role-mark marks"><path d="M6.923076923076923,518.429558058041L10.384615384615385,527.1716413367693L13.846153846153847,525.9424658553831L17.30769230769231,523.4976602906165L20.76923076923077,525.5211765785456L24.230769230769234,529.5406325553856L27.692307692307693,524.8952518948191L31.153846153846157,525.1243910790706L34.61538461538462,524.9362991529509L38.07692307692308,524.7406299654174L41.53846153846154,524.9411794957507L45,521.647982516492L48.46153846153847,524.6591115689959L51.92307692307693,524.7980030217434L55.38461538461539,521.442912120659L58.84615384615385,525.3319509407731L62.307692307692314,527.6476068424666L65.76923076923077,523.5138769768104L69.23076923076924,523.399960728756L72.6923076923077,526.6862731759574L76.15384615384616,526.3091485922475L79.61538461538461,526.1071432432449L83.07692307692308,526.5113424917851L86.53846153846155,525.9651725911943L90,522.7777455281249L93.46153846153847,525.8124000146544L96.92307692307693,525.82201656583L100.38461538461539,525.6992308798248L103.84615384615385,525.7214501701558L107.3076923076923,525.5922784439895L110.76923076923077,522.3616078577911L114.23076923076923,525.503855020098L117.6923076923077,525.5181173595442L121.15384615384615,525.4226840604305L124.61538461538463,523.0053334287861L128.07692307692307,522.975374460523L131.53846153846155,525.9789456315738L135,525.9168026603443L138.46153846153848,527.3290833436436L141.9230769230769,525.847556569577L145.3846153846154,525.7842881936858L148.84615384615384,525.7680124511212L152.30769230769232,525.726475499501L155.76923076923077,525.707063806531L159.23076923076923,522.1888611663213L162.69230769230768,525.6817246372377L166.15384615384616,525.6110075603677L169.6153846153846,525.6072874493927L173.0769230769231,525.6965562460625L176.53846153846155,525.5353190837062L180,525.720487157844L183.46153846153845,521.6238004035881L186.92307692307693,521.9065197329135L190.3846153846154,525.2606531014308L193.84615384615387,525.3351000953681L197.3076923076923,525.224160442566L200.76923076923077,525.3626163528179L204.23076923076923,525.3597596331242L207.6923076923077,521.5232227302968L211.15384615384616,525.1586749803745L214.6153846153846,525.1745639493118L218.07692307692307,521.8809307255449L221.53846153846155,525.1446017294018L225,525.2299180021434L228.46153846153845,525.3476002363992L231.9230769230769,521.451237240711L235.3846153846154,525.0882974915024L238.84615384615384,525.0767320992538L242.3076923076923,525.6284560610607L245.76923076923075,525.2430213348271L249.23076923076925,522.5444706444847L252.6923076923077,521.5763618433908L256.15384615384613,525.3728669094855L259.6153846153846,521.5260331741723L263.0769230769231,525.2278277368819L266.53846153846155,525.1829898546905L270,521.5563576225542L273.46153846153845,525.1508037603562L276.92307692307696,525.417150250195L280.3846153846154,525.1389293606034L283.8461538461538,525.2580382871909L287.30769230769226,521.4251551922214L290.7692307692308,521.4361161019102L294.2307692307692,525.0774722472836L297.6923076923077,525.0783490642818L301.15384615384613,522.6974445359718L304.61538461538464,525.0697177800237L308.0769230769231,525.1560466970866L311.53846153846155,525.1422208845643L315,525.0374237131999L318.46153846153845,526.1705938452234L321.9230769230769,525.0334219936907L325.38461538461536,525.1088368916753L328.8461538461538,525.6795862975177L332.3076923076923,525.0781525904804L335.7692307692308,525.0054293532554L339.2307692307692,525.0037831021438L342.6923076923077,525.0672016366275L346.1538461538462,526.1681033476825L349.61538461538464,521.36243065005L353.0769230769231,524.9773646016063L356.53846153846155,524.9536341958845L360,524.531833453436L363.46153846153845,521.300194830556L366.9230769230769,524.597210565239L370.38461538461536,524.5901751951669L373.84615384615387,524.5176973529503L377.3076923076923,524.5604249590431L380.7692307692308,524.5095983376862L384.2307692307692,524.4944399696786L387.69230769230774,524.5659486683888L391.1538461538462,524.5466224388941L394.6153846153846,524.6345836880332L398.07692307692304,524.5339299030575L401.53846153846155,524.818353457129L405,524.4418307545677L408.46153846153845,524.6257310310455L411.9230769230769,524.4936658279227L415.3846153846154,524.5345566405202L418.84615384615387,521.2671583463381L422.3076923076923,524.8816894241371L425.7692307692308,524.9245515479648L429.2307692307692,521.3038092719656L432.6923076923077,524.8674689226582L436.15384615384613,524.9053591202904L439.6153846153846,528.5656306983498L443.0769230769231,524.9774404238589L446.53846153846155,524.886143864246L450,524.9476608687638L453.46153846153845,524.8791676906693L456.9230769230769,525.2914093206064L460.38461538461536,525.0598675869841L463.8461538461538,525.2230404181557L467.3076923076923,525.1015694380499L470.7692307692308,524.9958448544188L474.2307692307692,538.0477615797067L477.6923076923077,524.8377050296423L481.15384615384613,521.4236523151399L484.6153846153846,525.1790358784338L488.07692307692304,525.0384982034171L491.5384615384615,525.174913884796L495.00000000000006,525.2743424490507L498.4615384615385,525.6668954923725L501.92307692307696,525.1674476527411L505.3846153846154,525.1603332679638L508.8461538461538,525.1246989935047L512.3076923076923,525.4178448444806L515.7692307692307,525.3713544300175L519.2307692307692,525.543301223882L522.6923076923077,525.1391762692841L526.1538461538462,525.2461204738862L529.6153846153846,525.5537346466405L533.0769230769231,525.6686568103837L536.5384615384615,525.572394124366L540,522.0099292914097L543.4615384615385,521.986500848873L546.9230769230769,525.7969199459914L550.3846153846155,530.0899158001187L553.8461538461539,525.7889752823176L557.3076923076924,525.8338975243067L560.7692307692308,525.8168163813565L564.2307692307692,525.8152359424423L567.6923076923076,525.6168359941944L571.1538461538461,526.2503910964109L574.6153846153845,525.7746709790887L578.0769230769231,526.0014179369018L581.5384615384615,526.0975395172879L585,525.5867200915856L588.4615384615385,527.3302413063458L591.9230769230769,525.9216473408327L595.3846153846154,525.6767948837979L598.8461538461538,522.7195568658983L602.3076923076923,526.0041534067149L605.7692307692308,526.2583486083897L609.2307692307693,525.8775716481712L612.6923076923077,525.9093889966373L616.1538461538462,525.9608452110255L619.6153846153846,525.8655916947374L623.0769230769231,526.2390809935869L626.5384615384615,526.019782555383L630,526.5413205072147L633.4615384615385,524.6148353609974L636.9230769230769,525.3751520886846L640.3846153846154,527.0528702395426L643.8461538461538,526.5644535105613L647.3076923076923,526.7523616161484L650.7692307692307,527.1275461751652L654.2307692307692,523.0633540035551L657.6923076923076,527.2504498985335L661.1538461538462,534.7250306154416L664.6153846153846,527.4536351900249L668.0769230769231,527.7852265286396L671.5384615384615,531.3565918901705L675,528.0920421860019L678.4615384615385,532.8122857534622L681.9230769230769,528.4070260448214L685.3846153846154,528.0549398641037L688.8461538461538,528.5521945965353L692.3076923076924,528.9995444137433L695.7692307692308,528.847038833233L699.2307692307693,528.9994903428762L702.6923076923077,528.9348394324122L706.1538461538462,534.5107837839283L709.6153846153846,529.1641950921729L713.0769230769231,526.6834337778199L716.5384615384615,533.8559529642332L720,530.1055697124135L723.4615384615385,529.3218504824601L726.9230769230769,529.4078099613423L730.3846153846154,540.900221274053L733.8461538461538,529.969829769429L737.3076923076923,529.2292186972195L740.7692307692307,529.4656639511313L744.2307692307692,529.3077087477601L747.6923076923077,529.4063817502424L751.1538461538462,529.2948491677754L754.6153846153846,530.336228889161L758.0769230769231,529.7198421103302L761.5384615384615,526.1431033325127L765,529.6745725317154L768.4615384615385,526.5982244705649L771.9230769230769,537.0000141255574L775.3846153846155,527.0294922468836L778.8461538461539,529.9047223448168L782.3076923076924,530.6188025091843L785.7692307692308,529.7180983637011L789.2307692307692,530.407533079314L792.6923076923076,529.916910223256L796.1538461538461,530.014605647517L799.6153846153845,529.7473743968209L803.0769230769231,531.4049179520031L806.5384615384615,530.1834308001937L810,529.9928696441305L813.4615384615385,530.0428673493689L816.9230769230769,529.9755211037757L820.3846153846154,530.2260538466445L823.8461538461538,533.4467410807914L827.3076923076923,534.3523821295648L830.7692307692308,533.271547729379L834.2307692307693,530.0215355578677L837.6923076923077,530.4011043791702L841.1538461538462,526.7781901456904L844.6153846153846,531.1894264845505L848.0769230769231,526.6115504433261L851.5384615384615,530.2803429300205L855,529.9668263914485L858.4615384615385,531.0597250728553L861.9230769230769,529.826539095636L865.3846153846154,531.150656134247L868.8461538461538,530.4310870489107L872.3076923076923,530.0362774857481L875.7692307692307,529.7248250064812L879.2307692307692,529.3620334835085L882.6923076923076,537.4609130706692L886.1538461538462,529.6577685575721" style="fill: none; stroke: #ff7f0e; stroke-width: 2;"></path></g></g><path class="foreground" d="" style="display: none; fill: none;"></path></g><g transform="translate(0,0)"><path class="background" d="M0,0h900v600h-900Z" style="fill: none;"></path><g><g class="mark-line role-mark marks"><path d="M6.923076923076923,519.9588710915853L10.384615384615385,517.408035751231L13.846153846153847,513.4533921317316L17.30769230769231,510.88816584106L20.76923076923077,509.0795909293019L24.230769230769234,507.7586588224886L27.692307692307693,506.72758289378226L31.153846153846157,505.93344254391445L34.61538461538462,505.26250181787964L38.07692307692308,504.72184523931656L41.53846153846154,504.2590751374713L45,504.97891113588986L48.46153846153847,503.53115521418147L51.92307692307693,503.23210936559957L55.38461538461539,502.9840327887298L58.84615384615385,510.81595999628786L62.307692307692314,508.5131796738487L65.76923076923077,507.97991859584243L69.23076923076924,507.55997042833974L72.6923076923077,511.3912080192375L76.15384615384616,506.87671576165576L79.61538461538461,506.47551363852773L83.07692307692308,506.914036833045L86.53846153846155,506.41129283004784L90,506.4389802061965L93.46153846153847,505.4439836993861L96.92307692307693,505.2449770196821L100.38461538461539,505.56339441271746L103.84615384615385,506.2820543960181L107.3076923076923,504.6500719834448L110.76923076923077,516.0472720575715L114.23076923076923,515.2863516899945L117.6923076923077,514.084803210504L121.15384615384615,514.3130265361447L124.61538461538463,514.3774162336804L128.07692307692307,515.0857629974919L131.53846153846155,513.9980994125169L135,515.1161155281251L138.46153846153848,513.187536624008L141.9230769230769,516.1588527390248L145.3846153846154,516.214812158344L148.84615384615384,512.8467079003607L152.30769230769232,512.9124967614824L155.76923076923077,512.3593607109667L159.23076923076923,512.5248073323274L162.69230769230768,512.2115224970945L166.15384615384616,512.5356095441251L169.6153846153846,514.185349656485L173.0769230769231,514.8481501553829L176.53846153846155,514.8342497258775L180,513.3520808517432L183.46153846153845,514.562993998497L186.92307692307693,512.8296383005838L190.3846153846154,512.9589871591232L193.84615384615387,513.4557285614687L197.3076923076923,513.1825706497929L200.76923076923077,512.3415178303686L204.23076923076923,512.4870113295374L207.6923076923077,512.0809343842917L211.15384615384616,511.922017038036L214.6153846153846,511.98548864687365L218.07692307692307,512.9562571895937L221.53846153846155,513.1210362729729L225,515.2845570008434L228.46153846153845,513.1059723035855L231.9230769230769,513.218300943696L235.3846153846154,512.8387856117893L238.84615384615384,513.2617531621448L242.3076923076923,512.9183998755977L245.76923076923075,513.5232505545466L249.23076923076925,512.6481632540334L252.6923076923077,513.6062097712236L256.15384615384613,512.7588236205107L259.6153846153846,512.9003742057997L263.0769230769231,512.6412636021469L266.53846153846155,512.2279565357401L270,512.425805196069L273.46153846153845,512.3046396210968L276.92307692307696,511.9013427851239L280.3846153846154,513.1341546221748L283.8461538461538,512.5437245647195L287.30769230769226,512.7577160765534L290.7692307692308,512.8316353938919L294.2307692307692,512.7862537731735L297.6923076923077,512.8879278738509L301.15384615384613,512.7927536760373L304.61538461538464,512.4428967178712L308.0769230769231,513.1118524459231L311.53846153846155,512.4537516098534L315,512.4292583294327L318.46153846153845,513.7778425716696L321.9230769230769,512.5848563968668L325.38461538461536,512.327972143923L328.8461538461538,512.2905120987219L332.3076923076923,512.8022529830254L335.7692307692308,513.3666726311308L339.2307692307692,512.6417174211587L342.6923076923077,512.82433470539L346.1538461538462,514.1431945439192L349.61538461538464,513.2301755022515L353.0769230769231,512.471723586404L356.53846153846155,512.6462570534322L360,512.1406988455877L363.46153846153845,512.3795282902933L366.9230769230769,512.3712631499837L370.38461538461536,512.456886179514L373.84615384615387,512.272580377497L377.3076923076923,512.2532022127855L380.7692307692308,511.94656505064694L384.2307692307692,512.8404413258081L387.69230769230774,512.656919738772L391.1538461538462,513.0400892288985L394.6153846153846,512.7520107713567L398.07692307692304,512.4532756246311L401.53846153846155,512.597119632657L405,512.5071345718336L408.46153846153845,512.0766224914164L411.9230769230769,512.7532477507515L415.3846153846154,512.3064176916704L418.84615384615387,512.2222520755528L422.3076923076923,512.3880384749154L425.7692307692308,512.1082477532362L429.2307692307692,512.7427492279573L432.6923076923077,512.1417902931678L436.15384615384613,512.0270934754705L439.6153846153846,517.5584398261533L443.0769230769231,512.9767091925248L446.53846153846155,513.1253411079044L450,513.5988330231993L453.46153846153845,512.5724078145901L456.9230769230769,512.4660214934145L460.38461538461536,513.1702395964691L463.8461538461538,512.1537221272336L467.3076923076923,512.5151079876712L470.7692307692308,512.5861276303241L474.2307692307692,513.0513715740656L477.6923076923077,512.7963397331833L481.15384615384613,512.7106161141818L484.6153846153846,513.818713038365L488.07692307692304,512.5355388989403L491.5384615384615,512.4072695565867L495.00000000000006,512.9721535809955L498.4615384615385,511.5755000194939L501.92307692307696,513.1235817050247L505.3846153846154,512.4273020764115L508.8461538461538,512.0644238203017L512.3076923076923,512.7143664246788L515.7692307692307,512.878506795219L519.2307692307692,512.4840747126696L522.6923076923077,512.5801311326137L526.1538461538462,512.7945190218906L529.6153846153846,512.6782551733471L533.0769230769231,512.5879500975581L536.5384615384615,513.1872674658949L540,512.4939231891103L543.4615384615385,512.8276147034802L546.9230769230769,513.3351236151503L550.3846153846155,517.9523960977003L553.8461538461539,513.0710372617377L557.3076923076924,512.2389958057629L560.7692307692308,513.2439789952844L564.2307692307692,512.6056344146342L567.6923076923076,512.3608210429031L571.1538461538461,513.2706839059202L574.6153846153845,512.4487966104674L578.0769230769231,513.1340771027669L581.5384615384615,513.6028515315012L585,512.6860054426495L588.4615384615385,514.1516915296336L591.9230769230769,512.5614821101843L595.3846153846154,512.9384945333474L598.8461538461538,513.1897336777743L602.3076923076923,513.4017197998176L605.7692307692308,514.2238954721887L609.2307692307693,512.8179057004679L612.6923076923077,514.3377839842105L616.1538461538462,513.9215128213524L619.6153846153846,513.742950579389L623.0769230769231,513.351938979593L626.5384615384615,513.6664911112657L630,513.9497594869054L633.4615384615385,512.3442873702328L636.9230769230769,512.4165765908708L640.3846153846154,514.3011555189541L643.8461538461538,513.8650407020825L647.3076923076923,513.6059136059137L650.7692307692307,513.5420179660913L654.2307692307692,513.8716733503463L657.6923076923076,513.9734785859819L661.1538461538462,519.1916342892602L664.6153846153846,513.9990444338271L668.0769230769231,514.0515987293294L671.5384615384615,514.1364964149774L675,514.4324015972618L678.4615384615385,514.955778451125L681.9230769230769,514.1019585044148L685.3846153846154,513.901813279993L688.8461538461538,514.5378674549606L692.3076923076924,514.1722991095376L695.7692307692308,514.2454882887495L699.2307692307693,514.3650507662632L702.6923076923077,513.9885176789611L706.1538461538462,514.8853316273313L709.6153846153846,514.6840535478949L713.0769230769231,514.1207451206548L716.5384615384615,515.2351507954382L720,514.1016463851109L723.4615384615385,514.6961987428914L726.9230769230769,514.5675831440485L730.3846153846154,514.6422864540141L733.8461538461538,514.2678052692949L737.3076923076923,514.4034024312648L740.7692307692307,514.1584992445413L744.2307692307692,514.2418380167926L747.6923076923077,514.390461406348L751.1538461538462,514.5007289108364L754.6153846153846,514.5008628353291L758.0769230769231,514.2398412719132L761.5384615384615,514.125117102113L765,514.2496847414881L768.4615384615385,514.479977913748L771.9230769230769,518.7727275486726L775.3846153846155,514.3599938828568L778.8461538461539,514.2688402161696L782.3076923076924,514.0297599046465L785.7692307692308,513.9684424624481L789.2307692307692,514.0482159350084L792.6923076923076,514.509174397551L796.1538461538461,514.4127661421865L799.6153846153845,514.1721263762803L803.0769230769231,514.4069359896698L806.5384615384615,514.5163262810322L810,514.1835518474375L813.4615384615385,514.0558332317445L816.9230769230769,513.8130424726404L820.3846153846154,514.194685139147L823.8461538461538,515.1963608074162L827.3076923076923,516.0392051243018L830.7692307692308,514.5958128224897L834.2307692307693,514.160542343904L837.6923076923077,514.3332507345392L841.1538461538462,514.2095569847426L844.6153846153846,514.386966234313L848.0769230769231,514.2251967860707L851.5384615384615,514.4332944920781L855,514.5042747862607L858.4615384615385,514.3636551986095L861.9230769230769,514.3707049228246L865.3846153846154,514.7761168589885L868.8461538461538,513.9330209166761L872.3076923076923,513.7886796325756L875.7692307692307,513.9504563233378L879.2307692307692,514.2987285395355L882.6923076923076,518.8272931289691L886.1538461538462,513.844358936965" style="fill: none; stroke: #1f77b4; stroke-width: 2;"></path></g></g><path class="foreground" d="" style="display: none; fill: none;"></path></g><g transform="translate(0,0)"><path class="background" d="M0,0h900v600h-900Z" style="fill: none;"></path><g><g class="mark-line role-mark marks"><path d="M6.923076923076923,521.3313558988358L10.384615384615385,521.8235939213536L13.846153846153847,495.1932932117421L17.30769230769231,498.4452080427313L20.76923076923077,483.68505992719764L24.230769230769234,488.744686804621L27.692307692307693,478.51755944264477L31.153846153846157,484.2913797423513L34.61538461538462,475.6431170786799L38.07692307692308,484.5384385430836L41.53846153846154,474.8770950998102L45,478.38421214924455L48.46153846153847,470.0223541443138L51.92307692307693,475.6530428952728L55.38461538461539,468.4667288019244L58.84615384615385,476.55071894018903L62.307692307692314,478.0343014034078L65.76923076923077,475.3274954563693L69.23076923076924,469.78349720175186L72.6923076923077,473.8991714449363L76.15384615384616,468.9887488222289L79.61538461538461,471.91611584241616L83.07692307692308,469.01614319589703L86.53846153846155,471.94401689515695L90,469.27984788261307L93.46153846153847,471.817502885464L96.92307692307693,475.55733585118L100.38461538461539,470.9899965505346L103.84615384615385,467.93618805080706L107.3076923076923,469.6398957592988L110.76923076923077,467.44266414612434L114.23076923076923,470.18178206591597L117.6923076923077,466.8488761946706L121.15384615384615,477.5703187659398L124.61538461538463,466.97985432196884L128.07692307692307,468.91792676409136L131.53846153846155,466.3774078020859L135,468.4748754593365L138.46153846153848,473.94043112372555L141.9230769230769,469.16358750419886L145.3846153846154,467.1990368007953L148.84615384615384,468.9465614599304L152.30769230769232,466.1434276784164L155.76923076923077,468.3736762200305L159.23076923076923,465.8651870246587L162.69230769230768,467.4459350234593L166.15384615384616,465.79567168821933L169.6153846153846,468.13587871982037L173.0769230769231,466.37983610738405L176.53846153846155,467.40431327813076L180,473.5344222868023L183.46153846153845,467.46370559747174L186.92307692307693,465.4793728056176L190.3846153846154,467.48698236417306L193.84615384615387,468.1136819324655L197.3076923076923,467.01316701316705L200.76923076923077,465.33214398153L204.23076923076923,467.197936890303L207.6923076923077,465.54662564425576L211.15384615384616,466.8489976104764L214.6153846153846,465.224485722313L218.07692307692307,477.3262148616256L221.53846153846155,465.3084171631632L225,466.48066958947794L228.46153846153845,464.97274318451105L231.9230769230769,465.80927659933525L235.3846153846154,465.28887991002375L238.84615384615384,475.02043549002354L242.3076923076923,464.9266302244404L245.76923076923075,466.11349928886455L249.23076923076925,473.25974161646405L252.6923076923077,468.66431309138306L256.15384615384613,467.99813818191905L259.6153846153846,468.8584017250984L263.0769230769231,467.1127944698269L266.53846153846155,467.94851817805466L270,474.0449178050475L273.46153846153845,469.1923377892197L276.92307692307696,467.9023982941137L280.3846153846154,468.3886803432888L283.8461538461538,467.179847125701L287.30769230769226,476.1995502401701L290.7692307692308,466.36477387832923L294.2307692307692,467.9562153246364L297.6923076923077,474.3897253411426L301.15384615384613,467.6113519865572L304.61538461538464,466.92767218570526L308.0769230769231,468.292186631287L311.53846153846155,467.5088113665101L315,468.0146026397079L318.46153846153845,470.4661452624363L321.9230769230769,467.8792879365483L325.38461538461536,466.98962536379196L328.8461538461538,471.4683645045762L332.3076923076923,488.52085227010116L335.7692307692308,467.6387959866221L339.2307692307692,466.7284871843169L342.6923076923077,467.74133361646597L346.1538461538462,474.52069647104685L349.61538461538464,467.38507760003847L353.0769230769231,466.5470918126033L356.53846153846155,476.06360120326605L360,466.5448623743893L363.46153846153845,466.6313839640116L366.9230769230769,466.86787076698124L370.38461538461536,467.17112419236753L373.84615384615387,466.20923149086383L377.3076923076923,467.4762821920013L380.7692307692308,465.98042303829214L384.2307692307692,468.6423716232235L387.69230769230774,473.89622043013827L391.1538461538462,467.6381889048715L394.6153846153846,466.2033031679933L398.07692307692304,467.2003293899105L401.53846153846155,465.8719102437865L405,467.9608772969769L408.46153846153845,465.8087015854664L411.9230769230769,467.3852134512998L415.3846153846154,473.79994422977336L418.84615384615387,466.79550028904583L422.3076923076923,466.3753247325085L425.7692307692308,467.6817503367432L429.2307692307692,464.9497447329798L432.6923076923077,467.1299535822833L436.15384615384613,465.38774706740276L439.6153846153846,483.20494289934715L443.0769230769231,465.717310849272L446.53846153846155,466.3922185053734L450,462.91885904181663L453.46153846153845,464.2592426226048L456.9230769230769,463.9153893252812L460.38461538461536,464.3993903276302L463.8461538461538,463.924094133172L467.3076923076923,462.8396667305608L470.7692307692308,462.24697032798093L474.2307692307692,475.01880870581135L477.6923076923077,466.8096514745308L481.15384615384613,466.5856155618121L484.6153846153846,474.00570911630564L488.07692307692304,467.3769031984886L491.5384615384615,466.77220342371123L495.00000000000006,470.01806996528126L498.4615384615385,465.6419234135878L501.92307692307696,464.67080560079086L505.3846153846154,463.3357860580693L508.8461538461538,465.3929183134142L512.3076923076923,464.36428474762994L515.7692307692307,466.98273971477477L519.2307692307692,464.54513836359297L522.6923076923077,466.47242153867757L526.1538461538462,465.312696622818L529.6153846153846,465.8436931891217L533.0769230769231,467.77681123400026L536.5384615384615,465.4167738615899L540,465.20706677570973L543.4615384615385,468.94112937965883L546.9230769230769,466.58162577816904L550.3846153846155,485.1228532928123L553.8461538461539,464.9490399285024L557.3076923076924,468.7569399972974L560.7692307692308,468.5363600078504L564.2307692307692,468.1400776834077L567.6923076923076,466.53584836674924L571.1538461538461,471.7216864495054L574.6153846153845,466.9808697606768L578.0769230769231,467.23016600438655L581.5384615384615,474.61649907787216L585,468.47528759321017L588.4615384615385,475.6775306144806L591.9230769230769,471.30539341734476L595.3846153846154,467.68121952634624L598.8461538461538,466.62210245389514L602.3076923076923,466.8544808147275L605.7692307692308,474.8553491369454L609.2307692307693,468.5842901067023L612.6923076923077,469.4368380762047L616.1538461538462,466.36186818831743L619.6153846153846,470.6605428769841L623.0769230769231,467.4205442161243L626.5384615384615,471.6007569743644L630,471.0582171012735L633.4615384615385,464.5900960794265L636.9230769230769,464.3789538563791L640.3846153846154,481.43631956942386L643.8461538461538,472.20211613379126L647.3076923076923,474.70267962480847L650.7692307692307,478.615508965139L654.2307692307692,470.8549547530888L657.6923076923076,473.6422079361561L661.1538461538462,490.5945125938325L664.6153846153846,475.5637702243593L668.0769230769231,473.8700513308217L671.5384615384615,481.15004835449446L675,475.1234889942168L678.4615384615385,486.2996953020224L681.9230769230769,479.6613962795719L685.3846153846154,475.43758180877296L688.8461538461538,479.7658087973195L692.3076923076924,480.0650758014633L695.7692307692308,480.63869225099916L699.2307692307693,480.6673429882042L702.6923076923077,480.77382545777084L706.1538461538462,490.82195063503474L709.6153846153846,484.7948108576574L713.0769230769231,477.95771423371684L716.5384615384615,483.3418722096172L720,480.18268848321924L723.4615384615385,482.46948421588394L726.9230769230769,481.5487685398603L730.3846153846154,481.9598530841933L733.8461538461538,481.71143067285504L737.3076923076923,479.5839143707836L740.7692307692307,480.8556705016818L744.2307692307692,481.7986425339367L747.6923076923077,481.8338256067805L751.1538461538462,482.51642243557353L754.6153846153846,484.10273287679905L758.0769230769231,482.8059100432641L761.5384615384615,478.88976891099287L765,482.77952802710575L768.4615384615385,482.42600397839936L771.9230769230769,498.1060519522058L775.3846153846155,482.1064901197877L778.8461538461539,483.39976514562625L782.3076923076924,483.35249028120444L785.7692307692308,483.3878569337892L789.2307692307692,483.35880596251366L792.6923076923076,485.9099750140279L796.1538461538461,483.4690749724505L799.6153846153845,484.91162239557616L803.0769230769231,485.0150819112992L806.5384615384615,483.8487470700347L810,483.98364405017674L813.4615384615385,486.2327717100293L816.9230769230769,481.37401533090053L820.3846153846154,484.56855264225993L823.8461538461538,491.27372676813434L827.3076923076923,494.26026427560174L830.7692307692308,492.1113949846783L834.2307692307693,484.7110600841944L837.6923076923077,484.93445501524445L841.1538461538462,482.98703657552704L844.6153846153846,486.2317639257294L848.0769230769231,483.8534906033072L851.5384615384615,487.2619784147934L855,486.9149607719362L858.4615384615385,485.70989669342146L861.9230769230769,485.4310453005396L865.3846153846154,487.77998892762554L868.8461538461538,485.61793656580386L872.3076923076923,481.81313656367L875.7692307692307,486.2120144521236L879.2307692307692,491.63360211613127L882.6923076923076,505.6120717841786L886.1538461538462,481.7278817278817" style="fill: none; stroke: #aec7e8; stroke-width: 2;"></path></g></g><path class="foreground" d="" style="display: none; fill: none;"></path></g><g transform="translate(0,0)"><path class="background" d="M0,0h900v600h-900Z" style="fill: none;"></path><g><g class="mark-line role-mark marks"><path d="M6.923076923076923,520.3185132503373L10.384615384615385,480.49842166472837L13.846153846153847,439.6533044420368L17.30769230769231,399.7929122549183L20.76923076923077,360.76949684697865L24.230769230769234,332.59830476069084L27.692307692307693,263.53959822900805L31.153846153846157,375.65630469205763L34.61538461538462,353.34806702731225L38.07692307692308,331.7882414321584L41.53846153846154,307.6686879217452L45,280.08984437670466L48.46153846153847,254.79831496335623L51.92307692307693,230.06175944325798L55.38461538461539,173.35613327277096L58.84615384615385,304.42876322556776L62.307692307692314,302.72049751298835L65.76923076923077,273.90273142039035L69.23076923076924,252.577328577782L72.6923076923077,240.476955195118L76.15384615384616,223.917624959912L79.61538461538461,200.3062252210818L83.07692307692308,145.4966060552284L86.53846153846155,272.9737325124927L90,259.8538479104819L93.46153846153847,250.59134004496138L96.92307692307693,231.74404153541525L100.38461538461539,218.63581885962878L103.84615384615385,210.21628482080934L107.3076923076923,194.3948138192743L110.76923076923077,136.47968601239623L114.23076923076923,228.0784489147597L117.6923076923077,213.3400402029657L121.15384615384615,200.9556662147833L124.61538461538463,191.2863664743923L128.07692307692307,179.90192708691367L131.53846153846155,171.6211425180444L135,155.16209476309223L138.46153846153848,102.65197963647297L141.9230769230769,195.76380592861142L145.3846153846154,179.89734599792666L148.84615384615384,169.03552270669786L152.30769230769232,164.36951908060703L155.76923076923077,148.99066329770702L159.23076923076923,151.20991035323817L162.69230769230768,135.3527612472428L166.15384615384616,83.5933297471759L169.6153846153846,172.22118819076994L173.0769230769231,155.60630143654242L176.53846153846155,145.14604454829828L180,149.5169312270138L183.46153846153845,127.83608858155664L186.92307692307693,118.97441920344033L190.3846153846154,110.06653807757807L193.84615384615387,72.0471481993864L197.3076923076923,145.1906166292378L200.76923076923077,142.6488833746898L204.23076923076923,133.15696128490424L207.6923076923077,121.31221162469508L211.15384615384616,113.28272859726758L214.6153846153846,107.5296215392157L218.07692307692307,129.12059794209782L221.53846153846155,71.9429145605044L225,131.45190881100137L228.46153846153845,130.3424389522945L231.9230769230769,118.96889953615144L235.3846153846154,111.9676854166514L238.84615384615384,111.77775074171825L242.3076923076923,101.00604598443243L245.76923076923075,90.38018580996452L249.23076923076925,65.25073627202815L252.6923076923077,120.71291106474908L256.15384615384613,114.15443035130491L259.6153846153846,105.84964435379938L263.0769230769231,107.45301360985096L266.53846153846155,97.00233716085762L270,97.34076866837728L273.46153846153845,86.94635666969737L276.92307692307696,60.63445839170247L280.3846153846154,114.1465590958099L283.8461538461538,108.0897609405294L287.30769230769226,98.125362057328L290.7692307692308,94.30304785646668L294.2307692307692,86.00888549021892L297.6923076923077,92.4686430551378L301.15384615384613,70.31631010252848L304.61538461538464,49.997644731263776L308.0769230769231,101.31014191426178L311.53846153846155,95.77197397869874L315,90.09888533829853L318.46153846153845,93.51098064858783L321.9230769230769,80.03704157907595L325.38461538461536,69.36355996154731L328.8461538461538,98.8506501138416L332.3076923076923,112.5139100004161L335.7692307692308,107.51473973534928L339.2307692307692,114.68912936802845L342.6923076923077,95.13596364108375L346.1538461538462,92.34022092799006L349.61538461538464,84.6746260053691L353.0769230769231,82.65333461843527L356.53846153846155,89.93411943810352L360,43.038585402921385L363.46153846153845,88.72285788972822L366.9230769230769,87.33464366953028L370.38461538461536,81.2712469136958L373.84615384615387,75.57675056927525L377.3076923076923,88.76822761516232L380.7692307692308,87.0151637647151L384.2307692307692,64.49261883423243L387.69230769230774,43.09941693550776L391.1538461538462,85.79254286632111L394.6153846153846,87.82737673237439L398.07692307692304,79.57287424054233L401.53846153846155,72.96844315435023L405,64.61265560823146L408.46153846153845,63.92755708134039L411.9230769230769,58.63114785766719L415.3846153846154,42.7358808467516L418.84615384615387,83.40381542370565L422.3076923076923,78.6324786324786L425.7692307692308,74.75160711289672L429.2307692307692,78.61345422753428L432.6923076923077,60.500368542309005L436.15384615384613,78.48887808363114L439.6153846153846,153.75794615351458L443.0769230769231,35.86607840001497L446.53846153846155,90.38407746100047L450,86.698372594189L453.46153846153845,81.15495231993192L456.9230769230769,66.75770798594523L460.38461538461536,67.22501940004226L463.8461538461538,76.39149323117249L467.3076923076923,52.385436376102376L470.7692307692308,31.133518535508987L474.2307692307692,80.33123112130704L477.6923076923077,72.6899695408376L481.15384615384613,74.57427856953178L484.6153846153846,68.3242456676753L488.07692307692304,59.87282111816394L491.5384615384615,62.901651779774824L495.00000000000006,67.19646164080622L498.4615384615385,52.560058238291596L501.92307692307696,69.72238443729326L505.3846153846154,76.69086547311052L508.8461538461538,72.9427725254825L512.3076923076923,83.2844253982103L515.7692307692307,72.65991881618359L519.2307692307692,73.46186496582361L522.6923076923077,60.10030011749596L526.1538461538462,58.10181467801505L529.6153846153846,91.75326958529666L533.0769230769231,72.43071830354599L536.5384615384615,88.06815784325374L540,83.56353821289926L543.4615384615385,81.71428095067401L546.9230769230769,87.14779060989119L550.3846153846155,155.97103232830025L553.8461538461539,73.87311087757533L557.3076923076924,98.23181184773794L560.7692307692308,102.69181466324248L564.2307692307692,77.86984979840173L567.6923076923076,79.0542595492075L571.1538461538461,99.36369519665884L574.6153846153845,95.86144484318919L578.0769230769231,79.27788546167136L581.5384615384615,82.52913573778484L585,107.79579579579588L588.4615384615385,116.39677863940622L591.9230769230769,103.77971427901656L595.3846153846154,100.07859591607051L598.8461538461538,95.80097871878486L602.3076923076923,78.06564803181656L605.7692307692308,103.17921401341921L609.2307692307693,74.87781203993649L612.6923076923077,120.53796315364261L616.1538461538462,106.69085505044083L619.6153846153846,90.73378907021778L623.0769230769231,107.47243365775294L626.5384615384615,104.18354644208326L630,112.52775634261958L633.4615384615385,62.440790261282196L636.9230769230769,37.3235218618978L640.3846153846154,120.63584434677416L643.8461538461538,121.50119028163479L647.3076923076923,109.0994393744945L650.7692307692307,118.70503860234281L654.2307692307692,86.41304347826076L657.6923076923076,110.67681123162278L661.1538461538462,164.8872351735136L664.6153846153846,103.76926857657813L668.0769230769231,118.96425560050068L671.5384615384615,108.90857754843732L675,121.06621495289764L678.4615384615385,127.11905868995667L681.9230769230769,115.57917684011854L685.3846153846154,112.2386583759188L688.8461538461538,113.95134822180431L692.3076923076924,106.51970095044108L695.7692307692308,120.86480142597289L699.2307692307693,120.11263607504254L702.6923076923077,118.48525839954827L706.1538461538462,132.08189733093087L709.6153846153846,125.79233422167482L713.0769230769231,110.60991599732073L716.5384615384615,123.7341703202882L720,103.51771767895177L723.4615384615385,124.28723171081248L726.9230769230769,123.42072793766641L730.3846153846154,114.47999360388128L733.8461538461538,117.62554460952441L737.3076923076923,114.4392402517169L740.7692307692307,109.62003615470141L744.2307692307692,111.32661565270092L747.6923076923077,99.60359544083275L751.1538461538462,120.01705755796608L754.6153846153846,121.19544821063329L758.0769230769231,113.7109149377401L761.5384615384615,112.41927875465616L765,114.09891089628168L768.4615384615385,111.2415771565814L771.9230769230769,178.5295785295785L775.3846153846155,96.06670367069717L778.8461538461539,118.68225898459784L782.3076923076924,111.89661999208091L785.7692307692308,114.15271015035582L789.2307692307692,114.98684865090259L792.6923076923076,118.27361328730485L796.1538461538461,111.56498960349195L799.6153846153845,105.4503933917325L803.0769230769231,95.10890170309037L806.5384615384615,116.85719374862065L810,115.05204827719744L813.4615384615385,121.64320539344054L816.9230769230769,109.0067795439634L820.3846153846154,111.98120055398914L823.8461538461538,134.33651338454177L827.3076923076923,131.52948880795446L830.7692307692308,112.60208249738027L834.2307692307693,117.37028313132372L837.6923076923077,114.0004590314437L841.1538461538462,107.90742526518808L844.6153846153846,125.23578455620496L848.0769230769231,105.71178487126306L851.5384615384615,115.08416595951168L855,107.40195318555266L858.4615384615385,94.85446027604539L861.9230769230769,114.42240776740611L865.3846153846154,119.1822605807067L868.8461538461538,106.95372043686653L872.3076923076923,110.02613237065628L875.7692307692307,108.26877102971653L879.2307692307692,106.71989999146605L882.6923076923076,181.7074686218467L886.1538461538462,95.88311806164738" style="fill: none; stroke: #98df8a; stroke-width: 2;"></path></g></g><path class="foreground" d="" style="display: none; fill: none;"></path></g><g transform="translate(0,0)"><path class="background" d="M0,0h900v600h-900Z" style="fill: none;"></path><g><g class="mark-line role-mark marks"><path d="M6.923076923076923,523.4027870957849L10.384615384615385,484.69233334188317L13.846153846153847,446.7680024566252L17.30769230769231,407.9966173578233L20.76923076923077,369.99820930649L24.230769230769234,343.22627281136477L27.692307692307693,289.4059123766096L31.153846153846157,383.04863453378306L34.61538461538462,358.955554660112L38.07692307692308,335.55758279649405L41.53846153846154,328.2288535364625L45,286.57654825526566L48.46153846153847,262.5731276894067L51.92307692307693,238.4143908896384L55.38461538461539,175.86060348491293L58.84615384615385,321.6386266518192L62.307692307692314,303.54144653897197L65.76923076923077,281.5901683981821L69.23076923076924,259.63997092401763L72.6923076923077,253.29859958850466L76.15384615384616,229.095160502334L79.61538461538461,208.4263478791543L83.07692307692308,152.42939616164767L86.53846153846155,283.2741955739271L90,272.4991746450974L93.46153846153847,259.6314283475274L96.92307692307693,243.92710863838272L100.38461538461539,230.38893016901528L103.84615384615385,218.64162436114563L107.3076923076923,206.8139296018957L110.76923076923077,139.18590669171374L114.23076923076923,229.67534452887014L117.6923076923077,217.0534383245852L121.15384615384615,205.11935030928618L124.61538461538463,190.34069378896962L128.07692307692307,176.09261136138545L131.53846153846155,167.18342045931257L135,155.78244845104095L138.46153846153848,113.53770144112005L141.9230769230769,194.08040175852773L145.3846153846154,187.77421430355398L148.84615384615384,174.29791238106674L152.30769230769232,168.6915841535091L155.76923076923077,155.12498417289197L159.23076923076923,152.40283154844772L162.69230769230768,130.51268584356816L166.15384615384616,86.98756333486868L169.6153846153846,175.89970842410025L173.0769230769231,159.9209702567276L176.53846153846155,157.82420597235415L180,143.2541980312681L183.46153846153845,133.5072060987384L186.92307692307693,124.11638788214636L190.3846153846154,111.78670939920869L193.84615384615387,80.4131852016651L197.3076923076923,155.4559410987651L200.76923076923077,147.41689280194524L204.23076923076923,138.660604443949L207.6923076923077,133.36114088396334L211.15384615384616,122.5029892387405L214.6153846153846,118.12899438724698L218.07692307692307,134.57166118867406L221.53846153846155,76.11171114712867L225,138.20754716981142L228.46153846153845,136.83435858409055L231.9230769230769,122.78299587483362L235.3846153846154,117.91733801618476L238.84615384615384,114.28773441890947L242.3076923076923,101.43078863129308L245.76923076923075,93.82964778988764L249.23076923076925,74.58482367016488L252.6923076923077,126.60365989660136L256.15384615384613,122.72817569804657L259.6153846153846,117.7384872854827L263.0769230769231,108.3122533363593L266.53846153846155,102.3297120402925L270,100.61304211456749L273.46153846153845,90.58240150416754L276.92307692307696,68.96756539855782L280.3846153846154,117.83638856946072L283.8461538461538,107.32275945882262L287.30769230769226,108.31570508570691L290.7692307692308,95.84199584199571L294.2307692307692,90.4822034404552L297.6923076923077,95.89134002264761L301.15384615384613,81.85480773072165L304.61538461538464,54.291999970227245L308.0769230769231,112.39951528391734L311.53846153846155,100.24864684276109L315,94.58862300116088L318.46153846153845,96.7203926439846L321.9230769230769,84.17609541810138L325.38461538461536,81.5766212887926L328.8461538461538,89.96331315059496L332.3076923076923,101.8511045691272L335.7692307692308,110.23958000142746L339.2307692307692,114.82882630423616L342.6923076923077,99.68293055076593L346.1538461538462,95.81790128905374L349.61538461538464,89.4701509456266L353.0769230769231,84.8643765286562L356.53846153846155,95.60891964747769L360,49.007381925034046L363.46153846153845,94.10507737614242L366.9230769230769,91.19054377356946L370.38461538461536,87.66889675980573L373.84615384615387,79.59375174356379L377.3076923076923,73.15400387693526L380.7692307692308,69.76430304450002L384.2307692307692,67.85898011229922L387.69230769230774,41.64980446839517L391.1538461538462,87.64040608027068L394.6153846153846,82.60336706947793L398.07692307692304,82.79367965264406L401.53846153846155,76.17076830396591L405,72.67268515151832L408.46153846153845,72.84250147924418L411.9230769230769,64.84682697678421L415.3846153846154,49.1821771923753L418.84615384615387,82.40204275527165L422.3076923076923,80.26247981585182L425.7692307692308,77.69586538366313L429.2307692307692,72.36747181052945L432.6923076923077,76.8359577606782L436.15384615384613,65.53147073816051L439.6153846153846,151.78583402322684L443.0769230769231,39.87301042515763L446.53846153846155,87.3453143461228L450,76.4030006647043L453.46153846153845,72.2500465768738L456.9230769230769,70.25931306005513L460.38461538461536,72.9897210472318L463.8461538461538,78.56814427547216L467.3076923076923,57.66028707088184L470.7692307692308,35.42970321912768L474.2307692307692,85.82629338207448L477.6923076923077,73.69899689981496L481.15384615384613,81.94855358316893L484.6153846153846,78.43246050800889L488.07692307692304,75.75450659024922L491.5384615384615,62.77516695523122L495.00000000000006,76.99913440001428L498.4615384615385,61.16591780573803L501.92307692307696,73.27807906504688L505.3846153846154,73.29672664280689L508.8461538461538,75.14457078763377L512.3076923076923,93.79854354700645L515.7692307692307,86.81871950269284L519.2307692307692,93.51060462171566L522.6923076923077,77.55829921833815L526.1538461538462,59.73847535870587L529.6153846153846,101.26765664614274L533.0769230769231,87.32692744193086L536.5384615384615,95.10163605484718L540,102.54226979686176L543.4615384615385,94.49347629900417L546.9230769230769,104.13446522244026L550.3846153846155,161.99892000233513L553.8461538461539,75.89150557113426L557.3076923076924,95.99439611957712L560.7692307692308,92.03539159168376L564.2307692307692,82.38822239576685L567.6923076923076,81.1436649108931L571.1538461538461,86.62536379854065L574.6153846153845,79.31962776654254L578.0769230769231,91.43430818620777L581.5384615384615,85.57567529796954L585,92.07604415467048L588.4615384615385,115.93384429205318L591.9230769230769,96.1400573392584L595.3846153846154,92.99548912477107L598.8461538461538,82.77325681691543L602.3076923076923,96.86934466770083L605.7692307692308,104.1127159667834L609.2307692307693,79.90342192157375L612.6923076923077,115.46057580691122L616.1538461538462,109.11199520277117L619.6153846153846,100.95368245662758L623.0769230769231,112.77038631704738L626.5384615384615,110.03449660597904L630,108.47942073170725L633.4615384615385,53.27319701561451L636.9230769230769,40.81925041110528L640.3846153846154,127.26249245434649L643.8461538461538,118.0446867486485L647.3076923076923,100.38057429869347L650.7692307692307,119.63001290355551L654.2307692307692,93.37035086879513L657.6923076923076,113.78439347932287L661.1538461538462,167.8805449883528L664.6153846153846,102.25330099737077L668.0769230769231,122.22573271135721L671.5384615384615,122.85509942057493L675,122.21026309187582L678.4615384615385,136.0908742029256L681.9230769230769,116.88367580522791L685.3846153846154,113.18136075694365L688.8461538461538,114.20607837810672L692.3076923076924,103.74196554421056L695.7692307692308,121.16267114344808L699.2307692307693,120.6644255487443L702.6923076923077,115.10549521412885L706.1538461538462,127.50496108013824L709.6153846153846,119.77919816307721L713.0769230769231,111.33317038881214L716.5384615384615,119.77403257697014L720,102.3533407734484L723.4615384615385,119.47886064631497L726.9230769230769,124.63376700419751L730.3846153846154,119.59321004831891L733.8461538461538,118.02359360396079L737.3076923076923,112.11028632025454L740.7692307692307,113.82369645969752L744.2307692307692,111.96602939162084L747.6923076923077,101.36393891708259L751.1538461538462,120.27389020890296L754.6153846153846,121.81918800623828L758.0769230769231,114.38557892907397L761.5384615384615,116.73644721470397L765,114.23524522028265L768.4615384615385,112.8243156998294L771.9230769230769,178.5947431712764L775.3846153846155,98.36567197702155L778.8461538461539,116.04663876466421L782.3076923076924,114.49619133719418L785.7692307692308,114.35193439115704L789.2307692307692,112.36546501026481L792.6923076923076,121.31328113754276L796.1538461538461,112.08849939531807L799.6153846153845,106.71415795822729L803.0769230769231,95.32890564984552L806.5384615384615,117.06213615234951L810,115.73965804568599L813.4615384615385,121.86352406299959L816.9230769230769,113.56505997476987L820.3846153846154,112.38625961646065L823.8461538461538,133.67045015981708L827.3076923076923,128.35110768690106L830.7692307692308,115.04532806749839L834.2307692307693,117.05711150341145L837.6923076923077,114.27916045418047L841.1538461538462,108.73335332737386L844.6153846153846,126.74731841112794L848.0769230769231,110.34380885557071L851.5384615384615,115.7703608681881L855,107.87682270556395L858.4615384615385,94.89592078978613L861.9230769230769,114.63954753199617L865.3846153846154,115.31019357570716L868.8461538461538,110.48136855767008L872.3076923076923,110.43273749186689L875.7692307692307,109.27013033085287L879.2307692307692,107.45832114653405L882.6923076923076,181.67520426738915L886.1538461538462,96.49349359292725" style="fill: none; stroke: #d62728; stroke-width: 2;"></path></g></g><path class="foreground" d="" style="display: none; fill: none;"></path></g><g transform="translate(0,0)"><path class="background" d="M0,0h900v600h-900Z" style="fill: none;"></path><g><g class="mark-line role-mark marks"><path d="M6.923076923076923,538.3750906929715L10.384615384615385,507.5502673549104L13.846153846153847,476.6759345072598L17.30769230769231,443.74266075874056L20.76923076923077,415.1005347098208L24.230769230769234,390.5885761961621L27.692307692307693,378.92230160048734L31.153846153846157,418.51863099395666L34.61538461538462,398.2743954307935L38.07692307692308,378.160244598781L41.53846153846154,360.670411197549L45,335.949098621421L48.46153846153847,317.70803106885216L51.92307692307693,301.75672078786266L55.38461538461539,263.87593414620443L58.84615384615385,340.59281812483215L62.307692307692314,325.2856814172866L65.76923076923077,303.97964461674303L69.23076923076924,288.0967370321125L72.6923076923077,275.23670133537115L76.15384615384616,257.2977801459007L79.61538461538461,241.71276484709324L83.07692307692308,250.86358142617644L86.53846153846155,313.8771047789164L90,302.46941379569165L93.46153846153847,291.48905505047304L96.92307692307693,273.2800339106783L100.38461538461539,261.5769289647945L103.84615384615385,256.07593399156667L107.3076923076923,244.59398228040914L110.76923076923077,233.91527140558898L114.23076923076923,285.6223624284461L117.6923076923077,274.716236913329L121.15384615384615,260.7142857142857L124.61538461538463,254.55999326627662L128.07692307692307,237.2075500380873L131.53846153846155,227.21053310959076L135,217.39205266668094L138.46153846153848,213.32384128292557L141.9230769230769,255.29438904980393L145.3846153846154,253.61986020081463L148.84615384615384,238.57315323113377L152.30769230769232,237.22438446037376L155.76923076923077,223.0115091600768L159.23076923076923,213.4365837497192L162.69230769230768,214.2823186318732L166.15384615384616,197.30696761028898L169.6153846153846,248.69235773508817L173.0769230769231,238.32053642347404L176.53846153846155,244.33193689277118L180,229.8802461170472L183.46153846153845,216.95090846228902L186.92307692307693,210.57070772177303L190.3846153846154,202.29266148897432L193.84615384615387,191.4376609905354L197.3076923076923,228.9965270616043L200.76923076923077,230.6464394882826L204.23076923076923,228.76324471370077L207.6923076923077,209.83194971523787L211.15384615384616,205.44308131051423L214.6153846153846,205.2518788259506L218.07692307692307,190.40664299255064L221.53846153846155,184.57806488302032L225,219.64074996722172L228.46153846153845,213.69357748238917L231.9230769230769,207.70168326883004L235.3846153846154,213.91227683491297L238.84615384615384,205.2399593740447L242.3076923076923,199.89450189542308L245.76923076923075,193.04892574935042L249.23076923076925,189.71734509093776L252.6923076923077,213.1443339279816L256.15384615384613,217.62715524999106L259.6153846153846,210.40510278039343L263.0769230769231,197.23256894606013L266.53846153846155,199.79962674151125L270,189.3292139504485L273.46153846153845,181.54817244585203L276.92307692307696,167.42010911925178L280.3846153846154,205.03944597883446L283.8461538461538,200.45387798691763L287.30769230769226,197.48365601570927L290.7692307692308,190.2701732340005L294.2307692307692,198.21840806408267L297.6923076923077,189.82958566995154L301.15384615384613,175.7359765759206L304.61538461538464,174.0413169732137L308.0769230769231,200.74399988509654L311.53846153846155,195.36814157876637L315,203.25318246110325L318.46153846153845,194.92092631301946L321.9230769230769,183.6688182923024L325.38461538461536,186.3086081983961L328.8461538461538,172.9463098464065L332.3076923076923,188.32848937524435L335.7692307692308,195.4190637354874L339.2307692307692,199.53188550379858L342.6923076923077,198.65479186665118L346.1538461538462,182.9553567520327L349.61538461538464,178.61850803568802L353.0769230769231,187.88241164716467L356.53846153846155,172.01025350274116L360,173.30251372435717L363.46153846153845,190.48233365061742L366.9230769230769,197.55456906709864L370.38461538461536,182.91263638030622L373.84615384615387,187.77035789609528L377.3076923076923,174.8077890761977L380.7692307692308,180.23216186537306L384.2307692307692,167.1137758268024L387.69230769230774,156.93415703168506L391.1538461538462,197.16578013470993L394.6153846153846,183.67807911451968L398.07692307692304,189.03639946033041L401.53846153846155,186.9823515622384L405,172.92819652229804L408.46153846153845,169.02954552890753L411.9230769230769,179.45721188964436L415.3846153846154,166.4522886799285L418.84615384615387,183.9384249245336L422.3076923076923,180.604774535809L425.7692307692308,177.98567102933632L429.2307692307692,173.74046692426396L432.6923076923077,179.32895177603666L436.15384615384613,166.77194746483755L439.6153846153846,231.21002153694755L443.0769230769231,164.96374697891483L446.53846153846155,182.05164676102348L450,178.28600150791658L453.46153846153845,175.65062783057923L456.9230769230769,180.14910428993468L460.38461538461536,168.9513533001983L463.8461538461538,164.5770034411376L467.3076923076923,161.34230197986255L470.7692307692308,158.39468035246813L474.2307692307692,188.69949356748774L477.6923076923077,181.6906291501764L481.15384615384613,175.38400972587002L484.6153846153846,169.94487638219377L488.07692307692304,188.53176106750644L491.5384615384615,174.94602948789762L495.00000000000006,160.88362068965523L498.4615384615385,151.68728127571006L501.92307692307696,197.42709209767605L505.3846153846154,182.69120268737197L508.8461538461538,178.73089173156728L512.3076923076923,186.78851550694392L515.7692307692307,183.0515588928014L519.2307692307692,170.98075494855635L522.6923076923077,165.7711960097806L526.1538461538462,159.03646674354832L529.6153846153846,187.94441557570784L533.0769230769231,188.91376079653864L536.5384615384615,190.38703941118652L540,192.37850567330335L543.4615384615385,184.243890074942L546.9230769230769,176.57375587845266L550.3846153846155,239.97684510636287L553.8461538461539,179.67432212547664L557.3076923076924,186.49997846876272L560.7692307692308,186.75364191484485L564.2307692307692,175.18496713153758L567.6923076923076,174.16255472404166L571.1538461538461,190.0906149110576L574.6153846153845,178.9268292682927L578.0769230769231,178.62932413808667L581.5384615384615,181.90076731296458L585,201.9939037739344L588.4615384615385,203.47285214461573L591.9230769230769,212.23063210106125L595.3846153846154,210.983598317948L598.8461538461538,181.26020144484062L602.3076923076923,183.65375209745736L605.7692307692308,205.21993570065052L609.2307692307693,191.1145239853839L612.6923076923077,212.3195942325256L616.1538461538462,188.41815892916784L619.6153846153846,202.65642437621688L623.0769230769231,191.44512060805175L626.5384615384615,200.94150694187846L630,201.96587537091986L633.4615384615385,154.4949463346518L636.9230769230769,169.06177384796447L640.3846153846154,211.1472383629461L643.8461538461538,214.83396512831854L647.3076923076923,214.9776149776149L650.7692307692307,221.6071154730869L654.2307692307692,190.08457221001905L657.6923076923076,208.88202097147715L661.1538461538462,247.8709814323608L664.6153846153846,216.50043014233023L668.0769230769231,220.05145391714302L671.5384615384615,215.17948717948715L675,220.47378173987076L678.4615384615385,227.66442865523757L681.9230769230769,213.20947207539473L685.3846153846154,214.6187231201273L688.8461538461538,214.01089302703446L692.3076923076924,224.5479637746753L695.7692307692308,222.6667117962367L699.2307692307693,221.50795469168307L702.6923076923077,219.73941639262375L706.1538461538462,237.11712609259115L709.6153846153846,217.25488931525405L713.0769230769231,215.01765268163916L716.5384615384615,221.05294238745572L720,211.68724988166448L723.4615384615385,221.8994210741116L726.9230769230769,232.50245861031203L730.3846153846154,220.18074888727233L733.8461538461538,218.35957836661012L737.3076923076923,219.84236978245818L740.7692307692307,214.80151909260076L744.2307692307692,224.2471786265758L747.6923076923077,222.16234389541546L751.1538461538462,223.30908244127212L754.6153846153846,221.2227192812103L758.0769230769231,228.62053860755108L761.5384615384615,221.16393042422183L765,214.39606741573033L768.4615384615385,224.32963478622452L771.9230769230769,245.42930597596703L775.3846153846155,211.0343592286629L778.8461538461539,224.19519616634082L782.3076923076924,229.83482280707256L785.7692307692308,217.67629355569053L789.2307692307692,220.9815978969025L792.6923076923076,216.66188598376422L796.1538461538461,216.76858248990249L799.6153846153845,215.27540394580924L803.0769230769231,211.11604948125947L806.5384615384615,230.81450182970536L810,229.15662650602405L813.4615384615385,218.1997966346679L816.9230769230769,217.15397226351573L820.3846153846154,229.87207177271972L823.8461538461538,218.07081807081806L827.3076923076923,224.84885685866317L830.7692307692308,216.66705528481816L834.2307692307693,223.20471700989916L837.6923076923077,219.21287509895996L841.1538461538462,216.47233889355576L844.6153846153846,226.75420881207938L848.0769230769231,226.5597172037111L851.5384615384615,222.8615066897746L855,211.4897760467381L858.4615384615385,213.89358759763672L861.9230769230769,231.56881840328114L865.3846153846154,228.66618465310736L868.8461538461538,219.81571412437637L872.3076923076923,213.7598355615887L875.7692307692307,216.84462257082023L879.2307692307692,223.17948204833158L882.6923076923076,244.88196269951032L886.1538461538462,217.63519479450636" style="fill: none; stroke: #2ca02c; stroke-width: 2;"></path></g></g><path class="foreground" d="" style="display: none; fill: none;"></path></g></g><g class="mark-group role-legend"><g transform="translate(918,0)"><path class="background" d="M0,0h101v105h-101Z" style="pointer-events: none; fill: none;"></path><g><g class="mark-group role-legend-entry"><g transform="translate(0,16)"><path class="background" d="M0,0h0v0h0Z" style="pointer-events: none; fill: none;"></path><g><g class="mark-group role-scope"><g transform="translate(0,0)"><path class="background" d="M0,0h101v11h-101Z" style="pointer-events: none; fill: none; opacity: 1;"></path><g><g class="mark-symbol role-legend-symbol" style="pointer-events: none;"><path transform="translate(6,6)" d="M-5,0L5,0" style="fill: none; stroke: #1f77b4; stroke-width: 1.5; opacity: 1;"></path></g><g class="mark-text role-legend-label" style="pointer-events: none;"><text text-anchor="start" transform="translate(16,9)" style="font-family: sans-serif; font-size: 10px; fill: #000; opacity: 1;">Clang-Polly</text></g></g><path class="foreground" d="" style="pointer-events: none; display: none; fill: none;"></path></g><g transform="translate(0,13)"><path class="background" d="M0,0h101v11h-101Z" style="pointer-events: none; fill: none; opacity: 1;"></path><g><g class="mark-symbol role-legend-symbol" style="pointer-events: none;"><path transform="translate(6,6)" d="M-5,0L5,0" style="fill: none; stroke: #aec7e8; stroke-width: 1.5; opacity: 1;"></path></g><g class="mark-text role-legend-label" style="pointer-events: none;"><text text-anchor="start" transform="translate(16,9)" style="font-family: sans-serif; font-size: 10px; fill: #000; opacity: 1;">GFortran</text></g></g><path class="foreground" d="" style="pointer-events: none; display: none; fill: none;"></path></g><g transform="translate(0,26)"><path class="background" d="M0,0h101v11h-101Z" style="pointer-events: none; fill: none; opacity: 1;"></path><g><g class="mark-symbol role-legend-symbol" style="pointer-events: none;"><path transform="translate(6,6)" d="M-5,0L5,0" style="fill: none; stroke: #ff7f0e; stroke-width: 1.5; opacity: 1;"></path></g><g class="mark-text role-legend-label" style="pointer-events: none;"><text text-anchor="start" transform="translate(16,9)" style="font-family: sans-serif; font-size: 10px; fill: #000; opacity: 1;">Julia</text></g></g><path class="foreground" d="" style="pointer-events: none; display: none; fill: none;"></path></g><g transform="translate(0,39)"><path class="background" d="M0,0h101v11h-101Z" style="pointer-events: none; fill: none; opacity: 1;"></path><g><g class="mark-symbol role-legend-symbol" style="pointer-events: none;"><path transform="translate(6,6)" d="M-5,0L5,0" style="fill: none; stroke: #ffbb78; stroke-width: 1.5; opacity: 1;"></path></g><g class="mark-text role-legend-label" style="pointer-events: none;"><text text-anchor="start" transform="translate(16,9)" style="font-family: sans-serif; font-size: 10px; fill: #000; opacity: 1;">Julia-builtin</text></g></g><path class="foreground" d="" style="pointer-events: none; display: none; fill: none;"></path></g><g transform="translate(0,52)"><path class="background" d="M0,0h101v11h-101Z" style="pointer-events: none; fill: none; opacity: 1;"></path><g><g class="mark-symbol role-legend-symbol" style="pointer-events: none;"><path transform="translate(6,6)" d="M-5,0L5,0" style="fill: none; stroke: #2ca02c; stroke-width: 1.5; opacity: 1;"></path></g><g class="mark-text role-legend-label" style="pointer-events: none;"><text text-anchor="start" transform="translate(16,9)" style="font-family: sans-serif; font-size: 10px; fill: #000; opacity: 1;">LoopVectorization</text></g></g><path class="foreground" d="" style="pointer-events: none; display: none; fill: none;"></path></g><g transform="translate(0,65)"><path class="background" d="M0,0h101v11h-101Z" style="pointer-events: none; fill: none; opacity: 1;"></path><g><g class="mark-symbol role-legend-symbol" style="pointer-events: none;"><path transform="translate(6,6)" d="M-5,0L5,0" style="fill: none; stroke: #98df8a; stroke-width: 1.5; opacity: 1;"></path></g><g class="mark-text role-legend-label" style="pointer-events: none;"><text text-anchor="start" transform="translate(16,9)" style="font-family: sans-serif; font-size: 10px; fill: #000; opacity: 1;">icc</text></g></g><path class="foreground" d="" style="pointer-events: none; display: none; fill: none;"></path></g><g transform="translate(0,78)"><path class="background" d="M0,0h101v11h-101Z" style="pointer-events: none; fill: none; opacity: 1;"></path><g><g class="mark-symbol role-legend-symbol" style="pointer-events: none;"><path transform="translate(6,6)" d="M-5,0L5,0" style="fill: none; stroke: #d62728; stroke-width: 1.5; opacity: 1;"></path></g><g class="mark-text role-legend-label" style="pointer-events: none;"><text text-anchor="start" transform="translate(16,9)" style="font-family: sans-serif; font-size: 10px; fill: #000; opacity: 1;">ifort</text></g></g><path class="foreground" d="" style="pointer-events: none; display: none; fill: none;"></path></g></g></g><path class="foreground" d="" style="pointer-events: none; display: none; fill: none;"></path></g></g><g class="mark-text role-legend-title" style="pointer-events: none;"><text text-anchor="start" transform="translate(0,9)" style="font-family: sans-serif; font-size: 11px; font-weight: bold; fill: #000; opacity: 1;">Method</text></g></g><path class="foreground" d="" style="pointer-events: none; display: none; fill: none;"></path></g></g></g><path class="foreground" d="" style="display: none; fill: none;"></path></g></g></g></svg>
