<svg viewBox="0 0 600 600" xmlns="http://www.w3.org/2000/svg" fill-rule="evenodd" clip-rule="evenodd" stroke-linejoin="round" stroke-miterlimit="2">
    <path d="M591.417 69.159c0-34.067-27.658-61.724-61.724-61.724H68.01c-34.066 0-61.724 27.657-61.724 61.724v461.682c0 34.067 27.658 61.723 61.724 61.723h461.683c34.066 0 61.724-27.656 61.724-61.723V69.159z"/>
    <path fill="#ca3c33" d="M54.701 224.494h125.614v14.327H54.7zM41.253 244.541h152.51v14.328H41.253zM41.253 264.589h152.51v14.327H41.253zM54.701 284.636h125.614v14.328H54.7zM180.315 304.18H54.701v61.707s16.315-16.478 62.807-16.478c36.845 0 62.807 16.478 62.807 16.478V304.18zm-62.807 8.276c7.765 0 14.068 6.097 14.068 13.606 0 7.51-6.303 13.606-14.068 13.606-7.763 0-14.067-6.096-14.067-13.606 0-7.509 6.304-13.606 14.067-13.606zm0 4.842c5.002 0 9.062 3.926 9.062 8.764 0 4.837-4.06 8.764-9.062 8.764-5 0-9.061-3.927-9.061-8.764 0-4.838 4.06-8.764 9.061-8.764z"/>
    <path d="M139.287 333.583l-23.792 14.8 66.901 124.568 46.915-29.184-90.024-110.184zm3.858 18.464c-2.005-3.015-6.164-3.889-9.282-1.95-3.116 1.94-4.02 5.962-2.015 8.978l50.87 85.982c2.78 6.68 8.373 6.282 15.493 1.809 6.266-3.939 10.583-8.784 5.161-14.657l-60.227-80.162z" fill="#ca3c33"/><circle cx="404.77" cy="328.995" r="23.08" fill="#ca3c33" transform="scale(1.555 1.50401) rotate(-32.748 270.748 768.06)"/>
    <path d="M200.373 450.117c23.072-14.353 53.851-7.888 68.69 14.428 14.84 22.315 8.155 52.085-14.917 66.438-23.072 14.352-53.851 7.887-68.69-14.429-14.839-22.315-8.155-52.085 14.917-66.437zm5.79 8.707c18.104-11.261 42.254-6.188 53.897 11.321 11.644 17.51 6.399 40.868-11.704 52.13-18.103 11.261-42.254 6.188-53.897-11.321-11.643-17.51-6.399-40.868 11.705-52.13z" fill="#ca3c33"/><g>
    <path fill="#389826" d="M231.323 66.519h125.614v14.327H231.323zM217.875 86.566h152.51v14.328h-152.51zM217.875 106.614h152.51v14.327h-152.51zM231.323 126.661h125.614v14.328H231.323zM356.937 146.205H231.323v61.707s16.315-16.478 62.807-16.478c36.845 0 62.807 16.478 62.807 16.478v-61.707zm-62.807 8.276c7.765 0 14.068 6.097 14.068 13.606 0 7.51-6.303 13.606-14.068 13.606-7.763 0-14.067-6.096-14.067-13.606 0-7.509 6.304-13.606 14.067-13.606zm0 4.842c5.002 0 9.062 3.927 9.062 8.764s-4.06 8.764-9.062 8.764c-5 0-9.061-3.927-9.061-8.764s4.06-8.764 9.061-8.764z"/>
    <path d="M308.234 185.857h-28.02l-8.99 141.11h55.251l-18.24-141.11zm-6.477 17.716c-.11-3.62-3.18-6.558-6.851-6.558-3.67 0-6.563 2.938-6.453 6.558l-2.223 99.878c-1.168 7.14 3.793 9.757 12.2 9.72 7.402-.035 13.626-1.87 12.125-9.72l-8.798-99.878z" fill="#389826"/><circle cx="404.77" cy="328.995" r="23.08" fill="#389826" transform="matrix(1.54025 0 .04607 1.5184 -338.925 -133.94)"/>
    <path d="M298.55 317.073c27.17 0 49.891 21.748 50.704 48.534.813 26.786-20.588 48.533-47.76 48.533-27.17 0-49.891-21.747-50.704-48.533-.813-26.786 20.588-48.534 47.76-48.534zm.317 10.452c21.32 0 39.146 17.064 39.784 38.082.638 21.017-16.153 38.081-37.473 38.081s-39.147-17.064-39.785-38.081c-.638-21.018 16.153-38.082 37.474-38.082z" fill="#389826"/></g><g>
    <path fill="#9558b2" d="M544.454 224.494H418.84v14.327h125.614zM557.902 244.541h-152.51v14.328h152.51zM557.902 264.589h-152.51v14.327h152.51zM544.454 284.636H418.84v14.328h125.614zM418.84 304.18h125.614v61.707s-16.315-16.478-62.807-16.478c-36.845 0-62.807 16.478-62.807 16.478V304.18zm62.807 8.276c-7.765 0-14.068 6.097-14.068 13.606 0 7.51 6.303 13.606 14.068 13.606 7.763 0 14.067-6.096 14.067-13.606 0-7.509-6.304-13.606-14.067-13.606zm0 4.842c-5.002 0-9.062 3.926-9.062 8.764 0 4.837 4.06 8.764 9.062 8.764 5 0 9.061-3.927 9.061-8.764 0-4.838-4.06-8.764-9.061-8.764z"/>
    <path d="M459.868 333.583l23.792 14.8-66.901 124.568-46.915-29.184 90.024-110.184zm-3.858 18.464c2.005-3.015 6.164-3.889 9.282-1.95 3.116 1.94 4.02 5.962 2.015 8.978l-50.87 85.982c-2.78 6.68-8.373 6.282-15.493 1.809-6.266-3.939-10.583-8.784-5.161-14.657l60.227-80.162z" fill="#9558b2"/><circle cx="404.77" cy="328.995" r="23.08" fill="#9558b2" transform="scale(-1.555 1.50401) rotate(-32.748 78.093 1423.752)"/>
    <path d="M398.782 450.117c-23.072-14.353-53.851-7.888-68.69 14.428-14.84 22.315-8.155 52.085 14.917 66.438 23.072 14.352 53.851 7.887 68.69-14.429 14.839-22.315 8.155-52.085-14.917-66.437zm-5.79 8.707c-18.104-11.261-42.254-6.188-53.897 11.321-11.644 17.51-6.399 40.868 11.704 52.13 18.103 11.261 42.254 6.188 53.897-11.321 11.643-17.51 6.399-40.868-11.705-52.13z" fill="#9558b2"/></g>
</svg>
