<?xml version="1.0" encoding="utf-8"?>
<!DOCTYPE svg PUBLIC "-//W3C//DTD SVG 1.1//EN" "http://www.w3.org/Graphics/SVG/1.1/DTD/svg11.dtd">
<svg class="marks" width="1066" height="647" viewBox="0 0 1066 647" version="1.1" xmlns="http://www.w3.org/2000/svg" xmlns:xlink="http://www.w3.org/1999/xlink"><rect width="1066" height="647" style="fill: white;"></rect><g transform="translate(42,10)"><g class="mark-group role-frame root"><g transform="translate(0,0)"><path class="background" d="M0.5,0.5h900v600h-900Z" style="fill: none; stroke: #ddd;"></path><g><g class="mark-group role-axis"><g transform="translate(0.5,600.5)"><path class="background" d="M0,0h0v0h0Z" style="pointer-events: none; fill: none;"></path><g><g class="mark-rule role-axis-grid" style="pointer-events: none;"><line transform="translate(0,-600)" x2="0" y2="600" style="fill: none; stroke: #ddd; stroke-width: 1; opacity: 1;"></line><line transform="translate(35,-600)" x2="0" y2="600" style="fill: none; stroke: #ddd; stroke-width: 1; opacity: 1;"></line><line transform="translate(69,-600)" x2="0" y2="600" style="fill: none; stroke: #ddd; stroke-width: 1; opacity: 1;"></line><line transform="translate(104,-600)" x2="0" y2="600" style="fill: none; stroke: #ddd; stroke-width: 1; opacity: 1;"></line><line transform="translate(138,-600)" x2="0" y2="600" style="fill: none; stroke: #ddd; stroke-width: 1; opacity: 1;"></line><line transform="translate(173,-600)" x2="0" y2="600" style="fill: none; stroke: #ddd; stroke-width: 1; opacity: 1;"></line><line transform="translate(208,-600)" x2="0" y2="600" style="fill: none; stroke: #ddd; stroke-width: 1; opacity: 1;"></line><line transform="translate(242,-600)" x2="0" y2="600" style="fill: none; stroke: #ddd; stroke-width: 1; opacity: 1;"></line><line transform="translate(277,-600)" x2="0" y2="600" style="fill: none; stroke: #ddd; stroke-width: 1; opacity: 1;"></line><line transform="translate(312,-600)" x2="0" y2="600" style="fill: none; stroke: #ddd; stroke-width: 1; opacity: 1;"></line><line transform="translate(346,-600)" x2="0" y2="600" style="fill: none; stroke: #ddd; stroke-width: 1; opacity: 1;"></line><line transform="translate(381,-600)" x2="0" y2="600" style="fill: none; stroke: #ddd; stroke-width: 1; opacity: 1;"></line><line transform="translate(415,-600)" x2="0" y2="600" style="fill: none; stroke: #ddd; stroke-width: 1; opacity: 1;"></line><line transform="translate(450,-600)" x2="0" y2="600" style="fill: none; stroke: #ddd; stroke-width: 1; opacity: 1;"></line><line transform="translate(485,-600)" x2="0" y2="600" style="fill: none; stroke: #ddd; stroke-width: 1; opacity: 1;"></line><line transform="translate(519,-600)" x2="0" y2="600" style="fill: none; stroke: #ddd; stroke-width: 1; opacity: 1;"></line><line transform="translate(554,-600)" x2="0" y2="600" style="fill: none; stroke: #ddd; stroke-width: 1; opacity: 1;"></line><line transform="translate(588,-600)" x2="0" y2="600" style="fill: none; stroke: #ddd; stroke-width: 1; opacity: 1;"></line><line transform="translate(623,-600)" x2="0" y2="600" style="fill: none; stroke: #ddd; stroke-width: 1; opacity: 1;"></line><line transform="translate(658,-600)" x2="0" y2="600" style="fill: none; stroke: #ddd; stroke-width: 1; opacity: 1;"></line><line transform="translate(692,-600)" x2="0" y2="600" style="fill: none; stroke: #ddd; stroke-width: 1; opacity: 1;"></line><line transform="translate(727,-600)" x2="0" y2="600" style="fill: none; stroke: #ddd; stroke-width: 1; opacity: 1;"></line><line transform="translate(762,-600)" x2="0" y2="600" style="fill: none; stroke: #ddd; stroke-width: 1; opacity: 1;"></line><line transform="translate(796,-600)" x2="0" y2="600" style="fill: none; stroke: #ddd; stroke-width: 1; opacity: 1;"></line><line transform="translate(831,-600)" x2="0" y2="600" style="fill: none; stroke: #ddd; stroke-width: 1; opacity: 1;"></line><line transform="translate(865,-600)" x2="0" y2="600" style="fill: none; stroke: #ddd; stroke-width: 1; opacity: 1;"></line><line transform="translate(900,-600)" x2="0" y2="600" style="fill: none; stroke: #ddd; stroke-width: 1; opacity: 1;"></line></g></g><path class="foreground" d="" style="pointer-events: none; display: none; fill: none;"></path></g></g><g class="mark-group role-axis"><g transform="translate(0.5,0.5)"><path class="background" d="M0,0h0v0h0Z" style="pointer-events: none; fill: none;"></path><g><g class="mark-rule role-axis-grid" style="pointer-events: none;"><line transform="translate(0,600)" x2="900" y2="0" style="fill: none; stroke: #ddd; stroke-width: 1; opacity: 1;"></line><line transform="translate(0,557)" x2="900" y2="0" style="fill: none; stroke: #ddd; stroke-width: 1; opacity: 1;"></line><line transform="translate(0,514)" x2="900" y2="0" style="fill: none; stroke: #ddd; stroke-width: 1; opacity: 1;"></line><line transform="translate(0,471)" x2="900" y2="0" style="fill: none; stroke: #ddd; stroke-width: 1; opacity: 1;"></line><line transform="translate(0,429)" x2="900" y2="0" style="fill: none; stroke: #ddd; stroke-width: 1; opacity: 1;"></line><line transform="translate(0,386)" x2="900" y2="0" style="fill: none; stroke: #ddd; stroke-width: 1; opacity: 1;"></line><line transform="translate(0,343)" x2="900" y2="0" style="fill: none; stroke: #ddd; stroke-width: 1; opacity: 1;"></line><line transform="translate(0,300)" x2="900" y2="0" style="fill: none; stroke: #ddd; stroke-width: 1; opacity: 1;"></line><line transform="translate(0,257)" x2="900" y2="0" style="fill: none; stroke: #ddd; stroke-width: 1; opacity: 1;"></line><line transform="translate(0,214)" x2="900" y2="0" style="fill: none; stroke: #ddd; stroke-width: 1; opacity: 1;"></line><line transform="translate(0,171)" x2="900" y2="0" style="fill: none; stroke: #ddd; stroke-width: 1; opacity: 1;"></line><line transform="translate(0,129)" x2="900" y2="0" style="fill: none; stroke: #ddd; stroke-width: 1; opacity: 1;"></line><line transform="translate(0,86)" x2="900" y2="0" style="fill: none; stroke: #ddd; stroke-width: 1; opacity: 1;"></line><line transform="translate(0,43)" x2="900" y2="0" style="fill: none; stroke: #ddd; stroke-width: 1; opacity: 1;"></line><line transform="translate(0,0)" x2="900" y2="0" style="fill: none; stroke: #ddd; stroke-width: 1; opacity: 1;"></line></g></g><path class="foreground" d="" style="pointer-events: none; display: none; fill: none;"></path></g></g><g class="mark-group role-axis"><g transform="translate(0.5,600.5)"><path class="background" d="M0,0h0v0h0Z" style="pointer-events: none; fill: none;"></path><g><g class="mark-rule role-axis-tick" style="pointer-events: none;"><line transform="translate(0,0)" x2="0" y2="5" style="fill: none; stroke: #888; stroke-width: 1; opacity: 1;"></line><line transform="translate(35,0)" x2="0" y2="5" style="fill: none; stroke: #888; stroke-width: 1; opacity: 1;"></line><line transform="translate(69,0)" x2="0" y2="5" style="fill: none; stroke: #888; stroke-width: 1; opacity: 1;"></line><line transform="translate(104,0)" x2="0" y2="5" style="fill: none; stroke: #888; stroke-width: 1; opacity: 1;"></line><line transform="translate(138,0)" x2="0" y2="5" style="fill: none; stroke: #888; stroke-width: 1; opacity: 1;"></line><line transform="translate(173,0)" x2="0" y2="5" style="fill: none; stroke: #888; stroke-width: 1; opacity: 1;"></line><line transform="translate(208,0)" x2="0" y2="5" style="fill: none; stroke: #888; stroke-width: 1; opacity: 1;"></line><line transform="translate(242,0)" x2="0" y2="5" style="fill: none; stroke: #888; stroke-width: 1; opacity: 1;"></line><line transform="translate(277,0)" x2="0" y2="5" style="fill: none; stroke: #888; stroke-width: 1; opacity: 1;"></line><line transform="translate(312,0)" x2="0" y2="5" style="fill: none; stroke: #888; stroke-width: 1; opacity: 1;"></line><line transform="translate(346,0)" x2="0" y2="5" style="fill: none; stroke: #888; stroke-width: 1; opacity: 1;"></line><line transform="translate(381,0)" x2="0" y2="5" style="fill: none; stroke: #888; stroke-width: 1; opacity: 1;"></line><line transform="translate(415,0)" x2="0" y2="5" style="fill: none; stroke: #888; stroke-width: 1; opacity: 1;"></line><line transform="translate(450,0)" x2="0" y2="5" style="fill: none; stroke: #888; stroke-width: 1; opacity: 1;"></line><line transform="translate(485,0)" x2="0" y2="5" style="fill: none; stroke: #888; stroke-width: 1; opacity: 1;"></line><line transform="translate(519,0)" x2="0" y2="5" style="fill: none; stroke: #888; stroke-width: 1; opacity: 1;"></line><line transform="translate(554,0)" x2="0" y2="5" style="fill: none; stroke: #888; stroke-width: 1; opacity: 1;"></line><line transform="translate(588,0)" x2="0" y2="5" style="fill: none; stroke: #888; stroke-width: 1; opacity: 1;"></line><line transform="translate(623,0)" x2="0" y2="5" style="fill: none; stroke: #888; stroke-width: 1; opacity: 1;"></line><line transform="translate(658,0)" x2="0" y2="5" style="fill: none; stroke: #888; stroke-width: 1; opacity: 1;"></line><line transform="translate(692,0)" x2="0" y2="5" style="fill: none; stroke: #888; stroke-width: 1; opacity: 1;"></line><line transform="translate(727,0)" x2="0" y2="5" style="fill: none; stroke: #888; stroke-width: 1; opacity: 1;"></line><line transform="translate(762,0)" x2="0" y2="5" style="fill: none; stroke: #888; stroke-width: 1; opacity: 1;"></line><line transform="translate(796,0)" x2="0" y2="5" style="fill: none; stroke: #888; stroke-width: 1; opacity: 1;"></line><line transform="translate(831,0)" x2="0" y2="5" style="fill: none; stroke: #888; stroke-width: 1; opacity: 1;"></line><line transform="translate(865,0)" x2="0" y2="5" style="fill: none; stroke: #888; stroke-width: 1; opacity: 1;"></line><line transform="translate(900,0)" x2="0" y2="5" style="fill: none; stroke: #888; stroke-width: 1; opacity: 1;"></line></g><g class="mark-text role-axis-label" style="pointer-events: none;"><text text-anchor="start" transform="translate(0,15)" style="font-family: sans-serif; font-size: 10px; fill: #000; opacity: 1;">0</text><text text-anchor="middle" transform="translate(34.61538461538462,15)" style="font-family: sans-serif; font-size: 10px; fill: #000; opacity: 1;">10</text><text text-anchor="middle" transform="translate(69.23076923076924,15)" style="font-family: sans-serif; font-size: 10px; fill: #000; opacity: 1;">20</text><text text-anchor="middle" transform="translate(103.84615384615385,15)" style="font-family: sans-serif; font-size: 10px; fill: #000; opacity: 1;">30</text><text text-anchor="middle" transform="translate(138.46153846153848,15)" style="font-family: sans-serif; font-size: 10px; fill: #000; opacity: 1;">40</text><text text-anchor="middle" transform="translate(173.0769230769231,15)" style="font-family: sans-serif; font-size: 10px; fill: #000; opacity: 1;">50</text><text text-anchor="middle" transform="translate(207.6923076923077,15)" style="font-family: sans-serif; font-size: 10px; fill: #000; opacity: 1;">60</text><text text-anchor="middle" transform="translate(242.3076923076923,15)" style="font-family: sans-serif; font-size: 10px; fill: #000; opacity: 1;">70</text><text text-anchor="middle" transform="translate(276.92307692307696,15)" style="font-family: sans-serif; font-size: 10px; fill: #000; opacity: 1;">80</text><text text-anchor="middle" transform="translate(311.53846153846155,15)" style="font-family: sans-serif; font-size: 10px; fill: #000; opacity: 1;">90</text><text text-anchor="middle" transform="translate(346.1538461538462,15)" style="font-family: sans-serif; font-size: 10px; fill: #000; opacity: 1;">100</text><text text-anchor="middle" transform="translate(380.7692307692308,15)" style="font-family: sans-serif; font-size: 10px; fill: #000; opacity: 1;">110</text><text text-anchor="middle" transform="translate(415.3846153846154,15)" style="font-family: sans-serif; font-size: 10px; fill: #000; opacity: 1;">120</text><text text-anchor="middle" transform="translate(450,15)" style="font-family: sans-serif; font-size: 10px; fill: #000; opacity: 1;">130</text><text text-anchor="middle" transform="translate(484.6153846153846,15)" style="font-family: sans-serif; font-size: 10px; fill: #000; opacity: 1;">140</text><text text-anchor="middle" transform="translate(519.2307692307692,15)" style="font-family: sans-serif; font-size: 10px; fill: #000; opacity: 1;">150</text><text text-anchor="middle" transform="translate(553.8461538461539,15)" style="font-family: sans-serif; font-size: 10px; fill: #000; opacity: 1;">160</text><text text-anchor="middle" transform="translate(588.4615384615385,15)" style="font-family: sans-serif; font-size: 10px; fill: #000; opacity: 1;">170</text><text text-anchor="middle" transform="translate(623.0769230769231,15)" style="font-family: sans-serif; font-size: 10px; fill: #000; opacity: 1;">180</text><text text-anchor="middle" transform="translate(657.6923076923076,15)" style="font-family: sans-serif; font-size: 10px; fill: #000; opacity: 1;">190</text><text text-anchor="middle" transform="translate(692.3076923076924,15)" style="font-family: sans-serif; font-size: 10px; fill: #000; opacity: 1;">200</text><text text-anchor="middle" transform="translate(726.9230769230769,15)" style="font-family: sans-serif; font-size: 10px; fill: #000; opacity: 1;">210</text><text text-anchor="middle" transform="translate(761.5384615384615,15)" style="font-family: sans-serif; font-size: 10px; fill: #000; opacity: 1;">220</text><text text-anchor="middle" transform="translate(796.1538461538461,15)" style="font-family: sans-serif; font-size: 10px; fill: #000; opacity: 1;">230</text><text text-anchor="middle" transform="translate(830.7692307692308,15)" style="font-family: sans-serif; font-size: 10px; fill: #000; opacity: 1;">240</text><text text-anchor="middle" transform="translate(865.3846153846154,15)" style="font-family: sans-serif; font-size: 10px; fill: #000; opacity: 1;">250</text><text text-anchor="end" transform="translate(900,15)" style="font-family: sans-serif; font-size: 10px; fill: #000; opacity: 1;">260</text></g><g class="mark-rule role-axis-domain" style="pointer-events: none;"><line transform="translate(0,0)" x2="900" y2="0" style="fill: none; stroke: #888; stroke-width: 1; opacity: 1;"></line></g><g class="mark-text role-axis-title" style="pointer-events: none;"><text text-anchor="middle" transform="translate(450,30)" style="font-family: sans-serif; font-size: 11px; font-weight: bold; fill: #000; opacity: 1;">Size</text></g></g><path class="foreground" d="" style="pointer-events: none; display: none; fill: none;"></path></g></g><g class="mark-group role-axis"><g transform="translate(0.5,0.5)"><path class="background" d="M0,0h0v0h0Z" style="pointer-events: none; fill: none;"></path><g><g class="mark-rule role-axis-tick" style="pointer-events: none;"><line transform="translate(0,600)" x2="-5" y2="0" style="fill: none; stroke: #888; stroke-width: 1; opacity: 1;"></line><line transform="translate(0,557)" x2="-5" y2="0" style="fill: none; stroke: #888; stroke-width: 1; opacity: 1;"></line><line transform="translate(0,514)" x2="-5" y2="0" style="fill: none; stroke: #888; stroke-width: 1; opacity: 1;"></line><line transform="translate(0,471)" x2="-5" y2="0" style="fill: none; stroke: #888; stroke-width: 1; opacity: 1;"></line><line transform="translate(0,429)" x2="-5" y2="0" style="fill: none; stroke: #888; stroke-width: 1; opacity: 1;"></line><line transform="translate(0,386)" x2="-5" y2="0" style="fill: none; stroke: #888; stroke-width: 1; opacity: 1;"></line><line transform="translate(0,343)" x2="-5" y2="0" style="fill: none; stroke: #888; stroke-width: 1; opacity: 1;"></line><line transform="translate(0,300)" x2="-5" y2="0" style="fill: none; stroke: #888; stroke-width: 1; opacity: 1;"></line><line transform="translate(0,257)" x2="-5" y2="0" style="fill: none; stroke: #888; stroke-width: 1; opacity: 1;"></line><line transform="translate(0,214)" x2="-5" y2="0" style="fill: none; stroke: #888; stroke-width: 1; opacity: 1;"></line><line transform="translate(0,171)" x2="-5" y2="0" style="fill: none; stroke: #888; stroke-width: 1; opacity: 1;"></line><line transform="translate(0,129)" x2="-5" y2="0" style="fill: none; stroke: #888; stroke-width: 1; opacity: 1;"></line><line transform="translate(0,86)" x2="-5" y2="0" style="fill: none; stroke: #888; stroke-width: 1; opacity: 1;"></line><line transform="translate(0,43)" x2="-5" y2="0" style="fill: none; stroke: #888; stroke-width: 1; opacity: 1;"></line><line transform="translate(0,0)" x2="-5" y2="0" style="fill: none; stroke: #888; stroke-width: 1; opacity: 1;"></line></g><g class="mark-text role-axis-label" style="pointer-events: none;"><text text-anchor="end" transform="translate(-7,603)" style="font-family: sans-serif; font-size: 10px; fill: #000; opacity: 1;">0.0</text><text text-anchor="end" transform="translate(-7,560.1428571428571)" style="font-family: sans-serif; font-size: 10px; fill: #000; opacity: 1;">0.2</text><text text-anchor="end" transform="translate(-7,517.2857142857142)" style="font-family: sans-serif; font-size: 10px; fill: #000; opacity: 1;">0.4</text><text text-anchor="end" transform="translate(-7,474.42857142857144)" style="font-family: sans-serif; font-size: 10px; fill: #000; opacity: 1;">0.6</text><text text-anchor="end" transform="translate(-7,431.5714285714285)" style="font-family: sans-serif; font-size: 10px; fill: #000; opacity: 1;">0.8</text><text text-anchor="end" transform="translate(-7,388.71428571428567)" style="font-family: sans-serif; font-size: 10px; fill: #000; opacity: 1;">1.0</text><text text-anchor="end" transform="translate(-7,345.85714285714283)" style="font-family: sans-serif; font-size: 10px; fill: #000; opacity: 1;">1.2</text><text text-anchor="end" transform="translate(-7,303)" style="font-family: sans-serif; font-size: 10px; fill: #000; opacity: 1;">1.4</text><text text-anchor="end" transform="translate(-7,260.1428571428571)" style="font-family: sans-serif; font-size: 10px; fill: #000; opacity: 1;">1.6</text><text text-anchor="end" transform="translate(-7,217.28571428571425)" style="font-family: sans-serif; font-size: 10px; fill: #000; opacity: 1;">1.8</text><text text-anchor="end" transform="translate(-7,174.42857142857142)" style="font-family: sans-serif; font-size: 10px; fill: #000; opacity: 1;">2.0</text><text text-anchor="end" transform="translate(-7,131.57142857142853)" style="font-family: sans-serif; font-size: 10px; fill: #000; opacity: 1;">2.2</text><text text-anchor="end" transform="translate(-7,88.71428571428568)" style="font-family: sans-serif; font-size: 10px; fill: #000; opacity: 1;">2.4</text><text text-anchor="end" transform="translate(-7,45.85714285714277)" style="font-family: sans-serif; font-size: 10px; fill: #000; opacity: 1;">2.6</text><text text-anchor="end" transform="translate(-7,3)" style="font-family: sans-serif; font-size: 10px; fill: #000; opacity: 1;">2.8</text></g><g class="mark-rule role-axis-domain" style="pointer-events: none;"><line transform="translate(0,600)" x2="0" y2="-600" style="fill: none; stroke: #888; stroke-width: 1; opacity: 1;"></line></g><g class="mark-text role-axis-title" style="pointer-events: none;"><text text-anchor="middle" transform="translate(-26,300) rotate(-90) translate(0,-2)" style="font-family: sans-serif; font-size: 11px; font-weight: bold; fill: #000; opacity: 1;">GFLOPS</text></g></g><path class="foreground" d="" style="pointer-events: none; display: none; fill: none;"></path></g></g><g class="mark-group role-scope pathgroup"><g transform="translate(0,0)"><path class="background" d="M0,0h900v600h-900Z" style="fill: none;"></path><g><g class="mark-line role-mark marks"><path d="M6.923076923076923,567.8240964632298L10.384615384615385,564.3948352075678L13.846153846153847,561.2318111932117L17.30769230769231,560.0078242648674L20.76923076923077,560.3093263765955L24.230769230769234,563.9120196159355L27.692307692307693,557.983401111539L31.153846153846157,555.9666578808645L34.61538461538462,560.0099602941534L38.07692307692308,555.3152569187331L41.53846153846154,558.8215108583754L45,557.3239294935563L48.46153846153847,558.1663039743443L51.92307692307693,553.7267263976804L55.38461538461539,552.098164336739L58.84615384615385,558.3077866339669L62.307692307692314,560.2291600053394L65.76923076923077,555.0648325759447L69.23076923076924,555.8034108305003L72.6923076923077,556.9402228976697L76.15384615384616,553.7704229067406L79.61538461538461,556.415314068439L83.07692307692308,552.6641943086753L86.53846153846155,554.6789017601766L90,555.3966048295691L93.46153846153847,552.5275263282643L96.92307692307693,552.5500150888466L100.38461538461539,552.4537788912876L103.84615384615385,555.6541279464432L107.3076923076923,554.7748686308395L110.76923076923077,558.2253489163735L114.23076923076923,554.0079829708841L117.6923076923077,556.7023652950878L121.15384615384615,557.2312328984415L124.61538461538463,555.8751230494333L128.07692307692307,554.5476685099895L131.53846153846155,552.4526354271951L135,558.8981356979322L138.46153846153848,556.7866680453099L141.9230769230769,554.8221825325112L145.3846153846154,559.3414564720358L148.84615384615384,559.0327634248721L152.30769230769232,553.7385041149528L155.76923076923077,553.9452627818177L159.23076923076923,551.5418342178583L162.69230769230768,553.4645786234096L166.15384615384616,556.1462968966432L169.6153846153846,551.8296733880379L173.0769230769231,553.1749424866141L176.53846153846155,554.8685182297261L180,555.5065545641203L183.46153846153845,557.7428467329431L186.92307692307693,556.5688012519981L190.3846153846154,554.1356126544015L193.84615384615387,555.030389619515L197.3076923076923,553.4720411887383L200.76923076923077,556.2870933429309L204.23076923076923,561.7365826141333L207.6923076923077,555.1523358158429L211.15384615384616,554.0558779381678L214.6153846153846,556.978019799363L218.07692307692307,552.8262755005844L221.53846153846155,552.0107975705466L225,562.60589356686L228.46153846153845,555.2429226578394L231.9230769230769,562.1537742341804L235.3846153846154,563.2910893783729L238.84615384615384,551.8858458102079L242.3076923076923,557.1595221174862L245.76923076923075,555.5960336116698L249.23076923076925,554.1563348116449L252.6923076923077,554.5705988106763L256.15384615384613,557.4925558266301L259.6153846153846,559.0295367823715L263.0769230769231,551.4158643272567L266.53846153846155,556.0823718193627L270,556.0087952919753L273.46153846153845,557.897504405662L276.92307692307696,555.1378736899098L280.3846153846154,559.3480973905828L283.8461538461538,554.3838559517111L287.30769230769226,555.7376612064597L290.7692307692308,561.7681162561363L294.2307692307692,554.5568760792742L297.6923076923077,554.6178133877451L301.15384615384613,553.9864321678913L304.61538461538464,555.9391857438072L308.0769230769231,557.5002773503634L311.53846153846155,559.2825981580223L315,554.6686447904863L318.46153846153845,554.3767547721496L321.9230769230769,559.2581171695128L325.38461538461536,555.6805399325084L328.8461538461538,554.4779374682777L332.3076923076923,556.5246337184908L335.7692307692308,552.3445602925924L339.2307692307692,554.9583068875709L342.6923076923077,556.4318853445865L346.1538461538462,558.1936765032494L349.61538461538464,555.689402251332L353.0769230769231,554.6124581019254L356.53846153846155,554.5274797258442L360,562.793723066916L363.46153846153845,559.115018171103L366.9230769230769,558.8349799525951L370.38461538461536,557.7320367459804L373.84615384615387,557.0362094357828L377.3076923076923,555.3056194827053L380.7692307692308,559.2201708115283L384.2307692307692,557.091731335963L387.69230769230774,557.8341013824885L391.1538461538462,559.9613464325978L394.6153846153846,557.9284044777955L398.07692307692304,559.2514551364426L401.53846153846155,557.3389996730958L405,558.3203129882629L408.46153846153845,556.8602428511181L411.9230769230769,558.4427785340414L415.3846153846154,556.6443901025103L418.84615384615387,556.2500420821578L422.3076923076923,554.9342198732702L425.7692307692308,555.4934265358976L429.2307692307692,553.7830786433098L432.6923076923077,559.1709112633846L436.15384615384613,557.7030151465107L439.6153846153846,558.4127380769315L443.0769230769231,557.2887180887553L446.53846153846155,555.6749442640591L450,559.7869142425325L453.46153846153845,558.1377766750539L456.9230769230769,556.5324480616835L460.38461538461536,561.0457232738514L463.8461538461538,555.5905054751969L467.3076923076923,557.7749748465274L470.7692307692308,555.7718530520959L474.2307692307692,552.2402612580725L477.6923076923077,558.7869328461998L481.15384615384613,558.7793956288366L484.6153846153846,557.1247905078193L488.07692307692304,564.6457502893146L491.5384615384615,560.1116742547891L495.00000000000006,562.9320276497696L498.4615384615385,561.9231775755285L501.92307692307696,561.1715634077033L505.3846153846154,562.4816818652201L508.8461538461538,562.4312925640405L512.3076923076923,560.8163977249839L515.7692307692307,559.2614195618097L519.2307692307692,558.9653786428739L522.6923076923077,558.7610709819036L526.1538461538462,561.1702245818246L529.6153846153846,560.0654265778072L533.0769230769231,559.493670886076L536.5384615384615,562.9880983800224L540,560.0129968590924L543.4615384615385,558.362172127171L546.9230769230769,565.5082081732448L550.3846153846155,559.963839904894L553.8461538461539,560.7283227721184L557.3076923076924,565.3121072475911L560.7692307692308,558.4798168702222L564.2307692307692,560.5862949087273L567.6923076923076,559.1045106948908L571.1538461538461,566.8971605119906L574.6153846153845,562.9013433984753L578.0769230769231,561.1127660556425L581.5384615384615,560.9770198005492L585,562.1171467969052L588.4615384615385,560.0615429971808L591.9230769230769,565.4801157391831L595.3846153846154,559.7336385391739L598.8461538461538,563.1313490090218L602.3076923076923,562.2937156192698L605.7692307692308,561.9063743333616L609.2307692307693,563.2700762424175L612.6923076923077,561.0660156822828L616.1538461538462,562.1636175549478L619.6153846153846,563.2594417077175L623.0769230769231,560.8350721371107L626.5384615384615,561.5488110580803L630,562.3661101997491L633.4615384615385,561.1239360421475L636.9230769230769,563.3733660672815L640.3846153846154,561.4218984596563L643.8461538461538,562.7294343957893L647.3076923076923,561.7894263646147L650.7692307692307,562.2368632492366L654.2307692307692,563.081130355515L657.6923076923076,562.4441603963788L661.1538461538462,561.9198256153969L664.6153846153846,563.2980756977189L668.0769230769231,560.7580008946363L671.5384615384615,562.090617753576L675,560.3701495772816L678.4615384615385,561.5173172072567L681.9230769230769,563.6459819890754L685.3846153846154,560.9205384281372L688.8461538461538,563.4061124664403L692.3076923076924,559.4194272728503L695.7692307692308,559.4888745565946L699.2307692307693,560.3174603174604L702.6923076923077,563.5281294541796L706.1538461538462,563.7014982028683L709.6153846153846,560.6021780909673L713.0769230769231,560.8350127381269L716.5384615384615,562.4410306036046L720,565.9863945578231L723.4615384615385,563.5384561705492L726.9230769230769,563.9538609420058L730.3846153846154,563.2911539219893L733.8461538461538,565.8508821855435L737.3076923076923,561.5768523083954L740.7692307692307,561.8588182174641L744.2307692307692,562.0748859306647L747.6923076923077,561.0192738035083L751.1538461538462,561.9787408013083L754.6153846153846,562.1194569297068L758.0769230769231,564.1081671674406L761.5384615384615,561.4594039054471L765,565.1144435674822L768.4615384615385,563.8047412528125L771.9230769230769,562.2605320757272L775.3846153846155,562.1212121212121L778.8461538461539,560.6606676613204L782.3076923076924,561.2230191139631L785.7692307692308,561.0826008937858L789.2307692307692,563.4576343626455L792.6923076923076,560.5313049373211L796.1538461538461,561.2533692722373L799.6153846153845,565.7960199004975L803.0769230769231,560.5723802725944L806.5384615384615,561.8691221715508L810,565.2027361951026L813.4615384615385,563.5410202308551L816.9230769230769,559.9021340220198L820.3846153846154,561.4822038030229L823.8461538461538,560.4252347326764L827.3076923076923,564.7478760226558L830.7692307692308,561.2707497337364L834.2307692307693,563.0409667624295L837.6923076923077,559.6348230270546L841.1538461538462,562.5088713576006L844.6153846153846,563.828630725898L848.0769230769231,563.8778037704692L851.5384615384615,560.0073699155711L855,561.8009732761465L858.4615384615385,562.9589062920073L861.9230769230769,563.8526232252945L865.3846153846154,560.6959438214024L868.8461538461538,561.8649218053642L872.3076923076923,562.7277747101049L875.7692307692307,560.5082417582418L879.2307692307692,561.9487056567593L882.6923076923076,565.0240945126691L886.1538461538462,563.5694362749749" style="fill: none; stroke: #ff7f0e; stroke-width: 2;"></path></g></g><path class="foreground" d="" style="display: none; fill: none;"></path></g><g transform="translate(0,0)"><path class="background" d="M0,0h900v600h-900Z" style="fill: none;"></path><g><g class="mark-line role-mark marks"><path d="M6.923076923076923,564.2409707556287L10.384615384615385,560.6542727479806L13.846153846153847,558.5441239656822L17.30769230769231,557.1824075294764L20.76923076923077,556.226322864475L24.230769230769234,555.5187242429672L27.692307692307693,559.144370314327L31.153846153846157,559.1889187725466L34.61538461538462,558.7558143426028L38.07692307692308,558.6525200561854L41.53846153846154,558.3319554218062L45,558.2934726214374L48.46153846153847,557.7525880515875L51.92307692307693,557.6625457564583L55.38461538461539,557.3901660292695L58.84615384615385,557.1245051516661L62.307692307692314,557.447826761414L65.76923076923077,557.2178344835659L69.23076923076924,557.2765096312853L72.6923076923077,557.2425917645625L76.15384615384616,557.1794702739251L79.61538461538461,556.7846545348477L83.07692307692308,558.9235253741721L86.53846153846155,558.5989046933703L90,558.6033572535011L93.46153846153847,558.3803439379676L96.92307692307693,558.4115380815963L100.38461538461539,558.1357848691421L103.84615384615385,558.1820327691527L107.3076923076923,557.996072663745L110.76923076923077,557.5345060494047L114.23076923076923,557.9758688100011L117.6923076923077,557.9887843360897L121.15384615384615,557.6861210477036L124.61538461538463,557.8576069804141L128.07692307692307,557.6039871442545L131.53846153846155,557.7408637873755L135,557.6932409319832L138.46153846153848,557.5194222641428L141.9230769230769,557.3010824854656L145.3846153846154,557.4890742947954L148.84615384615384,557.3848576806361L152.30769230769232,557.2975077062271L155.76923076923077,557.2067906198732L159.23076923076923,557.1738217949865L162.69230769230768,557.3321124538254L166.15384615384616,557.2929582979834L169.6153846153846,557.085952573598L173.0769230769231,557.1400919875015L176.53846153846155,557.130213260155L180,557.1375235767864L183.46153846153845,557.0796518441463L186.92307692307693,557.1185013040522L190.3846153846154,557.1444000987492L193.84615384615387,556.8855202283689L197.3076923076923,556.7478455544154L200.76923076923077,556.7570117023457L204.23076923076923,556.890694902001L207.6923076923077,556.8114098228932L211.15384615384616,556.6504392591349L214.6153846153846,556.7475389504689L218.07692307692307,556.5665132057184L221.53846153846155,556.0684948674422L225,556.0060111734407L228.46153846153845,556.1764745335282L231.9230769230769,555.9324120052156L235.3846153846154,556.0498747744593L238.84615384615384,556.0179977502812L242.3076923076923,555.981531088885L245.76923076923075,555.9538169912114L249.23076923076925,555.9477747069475L252.6923076923077,556.0897874475461L256.15384615384613,556.1505311306846L259.6153846153846,556.0745681135153L263.0769230769231,556.0324345981528L266.53846153846155,556.0628693901409L270,556.2103143874864L273.46153846153845,555.9891397615357L276.92307692307696,555.8776149885052L280.3846153846154,555.8850625374828L283.8461538461538,555.9806386386207L287.30769230769226,556.0222184936285L290.7692307692308,556.0144174964872L294.2307692307692,555.964587701151L297.6923076923077,555.9569846721865L301.15384615384613,555.9474616292798L304.61538461538464,556.5619884158655L308.0769230769231,556.6304556484758L311.53846153846155,556.567658910698L315,556.5833417670276L318.46153846153845,556.5239641137996L321.9230769230769,556.5859939021501L325.38461538461536,556.5843952653436L328.8461538461538,556.6812871846093L332.3076923076923,556.5774594798341L335.7692307692308,556.4566811312285L339.2307692307692,556.5908729527747L342.6923076923077,556.3828040626539L346.1538461538462,556.4478182003221L349.61538461538464,556.5233470114702L353.0769230769231,556.5347946850837L356.53846153846155,556.5536353556384L360,556.3511089284075L363.46153846153845,556.3843427867578L366.9230769230769,556.3573497965097L370.38461538461536,556.2672171396046L373.84615384615387,556.3225208631624L377.3076923076923,556.2773606956797L380.7692307692308,556.3594686728577L384.2307692307692,556.3811790542707L387.69230769230774,556.3101125345586L391.1538461538462,556.2796644886846L394.6153846153846,556.347376395797L398.07692307692304,556.2969384233619L401.53846153846155,556.2106092436975L405,556.3340240161848L408.46153846153845,556.418803742566L411.9230769230769,556.2607204116638L415.3846153846154,556.3232135818987L418.84615384615387,556.3130491376505L422.3076923076923,556.2236258567397L425.7692307692308,556.3807066121167L429.2307692307692,556.1913683506189L432.6923076923077,556.1600404029068L436.15384615384613,556.2378321984481L439.6153846153846,556.2977822118129L443.0769230769231,555.9499688539175L446.53846153846155,556.0350116077192L450,556.1362060313882L453.46153846153845,556.0631641805433L456.9230769230769,556.0817807803675L460.38461538461536,556.1064938723764L463.8461538461538,556.0424079470625L467.3076923076923,556.6037735849056L470.7692307692308,556.1375751527396L474.2307692307692,556.2532372617986L477.6923076923077,556.2260392649085L481.15384615384613,556.1321241207654L484.6153846153846,555.9743569938981L488.07692307692304,556.1412176662649L491.5384615384615,555.9692089616884L495.00000000000006,556.1137005075716L498.4615384615385,556.1281513849591L501.92307692307696,556.1669926171505L505.3846153846154,556.1263301111362L508.8461538461538,556.0784868447641L512.3076923076923,556.1454851945285L515.7692307692307,556.1324857811977L519.2307692307692,556.0751452899041L522.6923076923077,556.0909823603758L526.1538461538462,556.4773635183876L529.6153846153846,556.5014097744361L533.0769230769231,556.4634064533441L536.5384615384615,556.5093257591793L540,556.5542469754068L543.4615384615385,556.5451079706661L546.9230769230769,556.5576775425224L550.3846153846155,556.5237782571991L553.8461538461539,556.5224409851326L557.3076923076924,556.6077124555899L560.7692307692308,556.5287802636708L564.2307692307692,556.5094660644683L567.6923076923076,556.5282403316795L571.1538461538461,556.5545043490893L574.6153846153845,556.5028854216332L578.0769230769231,556.5005622462745L581.5384615384615,556.5486338468038L585,556.5620375418646L588.4615384615385,556.5471267710595L591.9230769230769,556.5127297045277L595.3846153846154,556.4321658955048L598.8461538461538,556.4770882149907L602.3076923076923,556.5204222259241L605.7692307692308,556.7321112868708L609.2307692307693,556.387905352944L612.6923076923077,556.5074319741577L616.1538461538462,556.3827859771474L619.6153846153846,556.4226153473973L623.0769230769231,556.4077725226508L626.5384615384615,556.5050513815787L630,556.4372784226118L633.4615384615385,556.5048222340376L636.9230769230769,556.5285871790834L640.3846153846154,556.5533923580939L643.8461538461538,556.4603165477081L647.3076923076923,556.4756387710769L650.7692307692307,556.5163757478566L654.2307692307692,556.5974547890154L657.6923076923076,556.5377804014167L661.1538461538462,556.6006592040451L664.6153846153846,556.0197044334975L668.0769230769231,556.0240111884596L671.5384615384615,556.0704985470053L675,556.0398271651325L678.4615384615385,556.093736388187L681.9230769230769,556.0924084733608L685.3846153846154,556.0845778500666L688.8461538461538,556.3038353082577L692.3076923076924,556.2760950266202L695.7692307692308,556.2560075445691L699.2307692307693,556.3710714765681L702.6923076923077,556.4190639759553L706.1538461538462,556.5176203107237L709.6153846153846,556.5611034057636L713.0769230769231,556.5095003518649L716.5384615384615,556.4442823476602L720,556.4774645333184L723.4615384615385,556.4680071095312L726.9230769230769,556.5427329792371L730.3846153846154,556.478693123221L733.8461538461538,556.4735350880794L737.3076923076923,556.4974674581995L740.7692307692307,556.5293934428449L744.2307692307692,556.503560638757L747.6923076923077,556.6328920774719L751.1538461538462,556.7160011170064L754.6153846153846,556.7900418885527L758.0769230769231,556.6879820686927L761.5384615384615,556.690071527003L765,557.2588963383188L768.4615384615385,556.7138957493826L771.9230769230769,556.7040733118471L775.3846153846155,556.7411679884643L778.8461538461539,556.7274405723517L782.3076923076924,556.7060866899951L785.7692307692308,556.7195861350145L789.2307692307692,556.7061206405469L792.6923076923076,556.7500188864547L796.1538461538461,556.6909364800401L799.6153846153845,556.7080636697569L803.0769230769231,556.5889925652413L806.5384615384615,556.7005711312363L810,556.6688064786924L813.4615384615385,556.6820276497696L816.9230769230769,556.7987112835908L820.3846153846154,556.689651811603L823.8461538461538,556.7283217376548L827.3076923076923,556.6751664712921L830.7692307692308,556.7208857792043L834.2307692307693,556.6172235023041L837.6923076923077,556.5940044721328L841.1538461538462,556.5926737483924L844.6153846153846,556.6057645566318L848.0769230769231,556.5900446502397L851.5384615384615,556.9644169203317L855,556.5767729686016L858.4615384615385,556.5932719571533L861.9230769230769,556.6060972209314L865.3846153846154,556.569575539985L868.8461538461538,556.5894154271879L872.3076923076923,556.6265060240963L875.7692307692307,556.5625464992503L879.2307692307692,556.6064167834079L882.6923076923076,556.6498554995184L886.1538461538462,556.2123700054734" style="fill: none; stroke: #1f77b4; stroke-width: 2;"></path></g></g><path class="foreground" d="" style="display: none; fill: none;"></path></g><g transform="translate(0,0)"><path class="background" d="M0,0h900v600h-900Z" style="fill: none;"></path><g><g class="mark-line role-mark marks"><path d="M6.923076923076923,565.6165389380938L10.384615384615385,559.659744179362L13.846153846153847,559.4701717537857L17.30769230769231,557.3432922755384L20.76923076923077,556.8228656373526L24.230769230769234,556.4600993861444L27.692307692307693,408.35145159227517L31.153846153846157,452.51231527093597L34.61538461538462,480.07786527385025L38.07692307692308,492.6270649896546L41.53846153846154,502.91525276726765L45,510.7465188241361L48.46153846153847,518.949833868947L51.92307692307693,522.0249897711893L55.38461538461539,350.7899550972892L58.84615384615385,379.88911857047725L62.307692307692314,416.8513869328271L65.76923076923077,440.3926926774961L69.23076923076924,457.3724387304138L72.6923076923077,469.6394188692455L76.15384615384616,481.93138207037975L79.61538461538461,490.848979043439L83.07692307692308,297.65737535063556L86.53846153846155,354.11695844897207L90,385.24988942945595L93.46153846153847,406.974558635967L96.92307692307693,427.7736023587905L100.38461538461539,444.0138808559861L103.84615384615385,451.1243370772248L107.3076923076923,464.4398957945664L110.76923076923077,320.44884426694415L114.23076923076923,331.36562963609384L117.6923076923077,362.08935611038106L121.15384615384615,414.3295650220858L124.61538461538463,404.0301029703406L128.07692307692307,422.9630846857993L131.53846153846155,437.6921057414625L135,448.55564325177585L138.46153846153848,332.1007452127157L141.9230769230769,321.30205840114877L145.3846153846154,342.06303394135296L148.84615384615384,367.68541335019734L152.30769230769232,393.35209842183485L155.76923076923077,408.7319131832797L159.23076923076923,426.2124888656817L162.69230769230768,430.41883957506116L166.15384615384616,289.863836100134L169.6153846153846,315.472027972028L173.0769230769231,324.2974360496171L176.53846153846155,384.2829430234186L180,372.4771401381936L183.46153846153845,385.5211911061445L186.92307692307693,405.0484180496018L190.3846153846154,410.9346865280733L193.84615384615387,274.7363243893108L197.3076923076923,286.86990007095545L200.76923076923077,313.7140065081618L204.23076923076923,356.2482137953836L207.6923076923077,355.72023167213547L211.15384615384616,375.29660413559475L214.6153846153846,387.0530895292925L218.07692307692307,395.72698550365504L221.53846153846155,263.6342744002686L225,282.1975125988256L228.46153846153845,293.0391354645748L231.9230769230769,329.9013020712664L235.3846153846154,350.218646143082L238.84615384615384,357.453166879273L242.3076923076923,386.62406442859015L245.76923076923075,384.6503698818494L249.23076923076925,249.2379158984587L252.6923076923077,278.4064493498926L256.15384615384613,296.53462875775676L259.6153846153846,315.3553815060709L263.0769230769231,332.05489681715255L266.53846153846155,349.480459057072L270,377.55826498305345L273.46153846153845,376.4550984846127L276.92307692307696,244.78958816444663L280.3846153846154,268.8119427742069L283.8461538461538,288.0698951057962L287.30769230769226,307.9824205221296L290.7692307692308,334.49802777735795L294.2307692307692,340.9724537422904L297.6923076923077,348.5380116959064L301.15384615384613,372.07548124992087L304.61538461538464,229.70718439530668L308.0769230769231,266.265277784842L311.53846153846155,274.29839151510083L315,295.9094601698019L318.46153846153845,313.38251239239867L321.9230769230769,333.7043065925899L325.38461538461536,349.5347437362976L328.8461538461538,370.1860789613821L332.3076923076923,234.5913573235582L335.7692307692308,253.98838079416467L339.2307692307692,275.3619984525257L342.6923076923077,302.1772378369019L346.1538461538462,318.08709136646553L349.61538461538464,322.44292319543047L353.0769230769231,343.60341151385927L356.53846153846155,347.7460929727082L360,237.01270612394293L363.46153846153845,269.2721275922829L366.9230769230769,282.9158042003812L370.38461538461536,297.25200162844345L373.84615384615387,302.0747612468305L377.3076923076923,319.20279204502333L380.7692307692308,335.11210018383116L384.2307692307692,363.0411488804697L387.69230769230774,233.21313164426533L391.1538461538462,265.33380681818176L394.6153846153846,263.87458695151L398.07692307692304,302.6260964422071L401.53846153846155,296.8028053550211L405,324.8629874155048L408.46153846153845,333.26773057231276L411.9230769230769,352.0891941088862L415.3846153846154,248.6547211144188L418.84615384615387,270.0129491321465L422.3076923076923,285.7689210235961L425.7692307692308,274.3076431084106L429.2307692307692,293.2443668698419L432.6923076923077,305.0541670853215L436.15384615384613,320.3464907963382L439.6153846153846,336.27173169465937L443.0769230769231,210.516844946516L446.53846153846155,243.81835071169274L450,273.25691688577984L453.46153846153845,284.49437862922775L456.9230769230769,297.03281543660177L460.38461538461536,318.5066879616689L463.8461538461538,312.3141090438853L467.3076923076923,324.9956286063997L470.7692307692308,235.9074507572328L474.2307692307692,248.9653251784473L477.6923076923077,269.2535162641288L481.15384615384613,266.0919926137317L484.6153846153846,288.66776982674537L488.07692307692304,302.62409143436446L491.5384615384615,306.50695334064096L495.00000000000006,322.0677473217087L498.4615384615385,225.91722843801352L501.92307692307696,242.40758342538592L505.3846153846154,271.178958636271L508.8461538461538,263.7965828064038L512.3076923076923,289.0269799047768L515.7692307692307,291.3796019205459L519.2307692307692,308.6112464508325L522.6923076923077,311.0579767982715L526.1538461538462,223.92190117685985L529.6153846153846,255.66554744479436L533.0769230769231,260.40988939492513L536.5384615384615,259.8251365782513L540,283.1286124018166L543.4615384615385,283.1053326884344L546.9230769230769,299.321259504841L550.3846153846155,313.49477264888134L553.8461538461539,220.9507949724436L557.3076923076924,243.4855991724288L560.7692307692308,262.5466151822871L564.2307692307692,269.49491785018097L567.6923076923076,278.46039093707304L571.1538461538461,288.36556576044L574.6153846153845,303.69095183984666L578.0769230769231,309.2961103828979L581.5384615384615,221.8654637123523L585,237.89938152949884L588.4615384615385,265.12892853965707L591.9230769230769,262.1588284582895L595.3846153846154,267.8266717101668L598.8461538461538,290.3117191724856L602.3076923076923,301.9786003263143L605.7692307692308,306.2327454324851L609.2307692307693,235.5470832458279L612.6923076923077,240.3945132612603L616.1538461538462,255.1533814830005L619.6153846153846,255.54389011245053L623.0769230769231,282.68797197070603L626.5384615384615,289.36560033024654L630,296.9027130864977L633.4615384615385,310.8383475754664L636.9230769230769,226.30924264123456L640.3846153846154,236.52708994185673L643.8461538461538,244.695104825786L647.3076923076923,262.6772183647068L650.7692307692307,269.6272885789015L654.2307692307692,281.31077178511185L657.6923076923076,289.8944763090421L661.1538461538462,303.4386124365675L664.6153846153846,216.9270639656286L668.0769230769231,249.76660801434204L671.5384615384615,246.32245779390018L675,257.981563227976L678.4615384615385,270.33717904917086L681.9230769230769,284.2770982594158L685.3846153846154,286.2015380035L688.8461538461538,292.6570177714902L692.3076923076924,206.61275332879725L695.7692307692308,232.65820287505863L699.2307692307693,246.7817896389325L702.6923076923077,262.1601641996138L706.1538461538462,269.35041216128076L709.6153846153846,287.8491346506604L713.0769230769231,292.4349400609685L716.5384615384615,297.4988290398127L720,215.57500363977542L723.4615384615385,233.41197843246454L726.9230769230769,254.0894144593574L730.3846153846154,268.43593951880433L733.8461538461538,265.14851196548796L737.3076923076923,264.4846568921349L740.7692307692307,288.08218127209875L744.2307692307692,300.4788960399327L747.6923076923077,211.38436648659706L751.1538461538462,232.98743855816488L754.6153846153846,244.3822575647787L758.0769230769231,252.81995145980193L761.5384615384615,263.9948946727487L765,272.08833501328684L768.4615384615385,280.02324774219693L771.9230769230769,294.2743777722385L775.3846153846155,212.11597645915438L778.8461538461539,228.55006633536462L782.3076923076924,240.66920347836222L785.7692307692308,248.2910648303661L789.2307692307692,257.1855116766786L792.6923076923076,268.9247085550585L796.1538461538461,281.212107333215L799.6153846153845,319.3819214008715L803.0769230769231,221.66275135558408L806.5384615384615,230.6730647347329L810,234.6843797596886L813.4615384615385,245.71018963882315L816.9230769230769,261.91390183712633L820.3846153846154,266.02903849744905L823.8461538461538,278.2412462691999L827.3076923076923,282.78699798276176L830.7692307692308,223.34174761251327L834.2307692307693,223.04483837330548L837.6923076923077,243.96997246218262L841.1538461538462,249.56621015119092L844.6153846153846,251.11864422580535L848.0769230769231,256.0932677469135L851.5384615384615,266.034675212862L855,278.42290313199123L858.4615384615385,270.274600712496L861.9230769230769,216.68784853759462L865.3846153846154,242.71740566469165L868.8461538461538,234.69638113188708L872.3076923076923,244.78272099179944L875.7692307692307,259.2662475944365L879.2307692307692,267.8977923551006L882.6923076923076,266.2138654887321L886.1538461538462,202.76727185614823" style="fill: none; stroke: #aec7e8; stroke-width: 2;"></path></g></g><path class="foreground" d="" style="display: none; fill: none;"></path></g><g transform="translate(0,0)"><path class="background" d="M0,0h900v600h-900Z" style="fill: none;"></path><g><g class="mark-line role-mark marks"><path d="M6.923076923076923,532.1451189722247L10.384615384615385,496.54696767667474L13.846153846153847,464.4619137977772L17.30769230769231,428.95457033388067L20.76923076923077,394.54869196000544L24.230769230769234,360.57462090981636L27.692307692307693,346.9688982604112L31.153846153846157,405.0153975161565L34.61538461538462,433.3296258397473L38.07692307692308,361.8301088008785L41.53846153846154,340.04683840749414L45,377.65032187371594L48.46153846153847,298.3999194928046L51.92307692307693,275.255721220527L55.38461538461539,240.66902463881058L58.84615384615385,317.84662073854196L62.307692307692314,303.38815137705564L65.76923076923077,284.5787403755608L69.23076923076924,268.13203849092537L72.6923076923077,254.21927933477048L76.15384615384616,235.05839375657268L79.61538461538461,218.4110007639419L83.07692307692308,179.18631454547577L86.53846153846155,277.57637369264427L90,264.11225599337234L93.46153846153847,251.40407768999896L96.92307692307693,241.11477374887622L100.38461538461539,224.56219245371122L103.84615384615385,203.03710644015064L107.3076923076923,200.31522104229649L110.76923076923077,154.31920733125543L114.23076923076923,243.0451984347989L117.6923076923077,231.78095286373278L121.15384615384615,320.6448238502634L124.61538461538463,227.28942171095937L128.07692307692307,200.66755674232311L131.53846153846155,190.3300917682508L135,178.22974292222574L138.46153846153848,178.53056393202374L141.9230769230769,222.03820712804816L145.3846153846154,213.7705200568744L148.84615384615384,226.56947544642858L152.30769230769232,195.62256629818958L155.76923076923077,213.57183092115088L159.23076923076923,176.45753728583747L162.69230769230768,167.13804879853032L166.15384615384616,191.73904123640827L169.6153846153846,203.70595152296772L173.0769230769231,187.81649065441204L176.53846153846155,210.92654115909926L180,194.2936600869856L183.46153846153845,164.2143711057366L186.92307692307693,153.27003342368252L190.3846153846154,154.16546727423807L193.84615384615387,122.55023369152708L197.3076923076923,181.47206123995153L200.76923076923077,169.9680574667534L204.23076923076923,211.2301833318572L207.6923076923077,155.0620081087526L211.15384615384616,169.02613772057842L214.6153846153846,140.4210892639638L218.07692307692307,139.30445519086314L221.53846153846155,87.17673397293073L225,188.7387904532292L228.46153846153845,151.793400286944L231.9230769230769,138.20017474031644L235.3846153846154,169.73189037484323L238.84615384615384,136.35761380485184L242.3076923076923,130.91080698442664L245.76923076923075,148.1490334339239L249.23076923076925,106.50019307504182L252.6923076923077,170.16555584544955L256.15384615384613,152.61555696264176L259.6153846153846,142.52748827781053L263.0769230769231,138.7154348304442L266.53846153846155,130.2608944954127L270,179.43742178857062L273.46153846153845,123.76702848400956L276.92307692307696,86.58290677834648L280.3846153846154,163.1177341402881L283.8461538461538,141.41391363175094L287.30769230769226,122.16908862992706L290.7692307692308,156.86391414517803L294.2307692307692,110.78758248303924L297.6923076923077,105.64784053156149L301.15384615384613,138.8034791539621L304.61538461538464,93.01336926347084L308.0769230769231,150.25572793134302L311.53846153846155,135.96661914820555L315,129.4855250663485L318.46153846153845,126.12648823961514L321.9230769230769,120.74319826940673L325.38461538461536,115.54287378479194L328.8461538461538,171.92114032740628L332.3076923076923,115.22900464844233L335.7692307692308,136.76428024723904L339.2307692307692,164.1834353119283L342.6923076923077,122.72196034126766L346.1538461538462,121.99622103409749L349.61538461538464,147.5616170042982L353.0769230769231,111.18053112767005L356.53846153846155,136.35593246079497L360,100.95324264064361L363.46153846153845,142.20638810519162L366.9230769230769,103.55410881551835L370.38461538461536,101.64043024796392L373.84615384615387,112.5014848273488L377.3076923076923,109.83735890277937L380.7692307692308,114.55848108201465L384.2307692307692,141.768300349536L387.69230769230774,124.04106974220895L391.1538461538462,131.8755006806455L394.6153846153846,117.40357478833488L398.07692307692304,155.38209269552542L401.53846153846155,122.45303553683806L405,122.30132811400082L408.46153846153845,116.78041892209927L411.9230769230769,93.59154929577463L415.3846153846154,79.53408251989158L418.84615384615387,168.46380789685426L422.3076923076923,165.00039859019859L425.7692307692308,119.55538400936922L429.2307692307692,103.00229691343763L432.6923076923077,101.27727026012563L436.15384615384613,104.21311658774826L439.6153846153846,90.94019088132032L443.0769230769231,89.69376769085888L446.53846153846155,111.78211170313683L450,146.36091724825522L453.46153846153845,104.47966212891583L456.9230769230769,122.34359239908012L460.38461538461536,136.0112415605148L463.8461538461538,75.02465980081242L467.3076923076923,89.2910379791003L470.7692307692308,76.00688090756975L474.2307692307692,119.78661470591034L477.6923076923077,117.00623641284945L481.15384615384613,105.82757896616886L484.6153846153846,103.14539658981671L488.07692307692304,132.12003107071303L491.5384615384615,120.71747725738528L495.00000000000006,91.48651095419157L498.4615384615385,115.60826987854362L501.92307692307696,153.58458552440447L505.3846153846154,121.33180170475615L508.8461538461538,99.68395974133317L512.3076923076923,114.14174833679083L515.7692307692307,93.09054384629094L519.2307692307692,90.22527187985486L522.6923076923077,75.09868630864776L526.1538461538462,96.3923596539913L529.6153846153846,92.59031750297537L533.0769230769231,119.67071315656035L536.5384615384615,122.91782063548014L540,129.1818515751719L543.4615384615385,70.93937546134339L546.9230769230769,87.28305542897834L550.3846153846155,106.06448984441977L553.8461538461539,72.87538223040839L557.3076923076924,147.9718503910418L560.7692307692308,107.28633320204797L564.2307692307692,111.292020579079L567.6923076923076,71.68220297111236L571.1538461538461,105.21031101769887L574.6153846153845,65.18997766518868L578.0769230769231,112.70559515946725L581.5384615384615,90.43291425916782L585,76.57762291908618L588.4615384615385,109.27071681004188L591.9230769230769,90.25732893705923L595.3846153846154,101.64643319177516L598.8461538461538,61.885923351166205L602.3076923076923,89.90467084727638L605.7692307692308,103.68246548537876L609.2307692307693,86.15117483966725L612.6923076923077,112.67129716538382L616.1538461538462,128.02796123887876L619.6153846153846,101.44100778565775L623.0769230769231,104.42464452100634L626.5384615384615,83.74326838343273L630,80.74866310160411L633.4615384615385,96.11155043037482L636.9230769230769,97.86742474840877L640.3846153846154,113.28783314904491L643.8461538461538,91.01312270663597L647.3076923076923,88.37112896995491L650.7692307692307,84.89457336840628L654.2307692307692,101.59878721479801L657.6923076923076,99.06384929884209L661.1538461538462,77.46854904502523L664.6153846153846,92.21924108853956L668.0769230769231,114.89442949731728L671.5384615384615,108.82801383286518L675,138.9522520780977L678.4615384615385,95.24391308142066L681.9230769230769,120.74178268495841L685.3846153846154,97.95767910899689L688.8461538461538,75.71375568637694L692.3076923076924,64.00857290665864L695.7692307692308,71.14003533613817L699.2307692307693,106.96132371935028L702.6923076923077,83.64929494132727L706.1538461538462,100.90234883103255L709.6153846153846,94.83220478350131L713.0769230769231,123.50500034015911L716.5384615384615,87.0833025034974L720,67.80714072939271L723.4615384615385,67.92997480839998L726.9230769230769,127.27718797394955L730.3846153846154,100.55049808935061L733.8461538461538,101.48402987081553L737.3076923076923,86.62302439908017L740.7692307692307,88.63971525552516L744.2307692307692,108.0028985875742L747.6923076923077,42.299013775745806L751.1538461538462,109.30970583992618L754.6153846153846,116.61879423786262L758.0769230769231,103.01148756031324L761.5384615384615,100.4138941067847L765,96.99961069131002L768.4615384615385,96.75263277496944L771.9230769230769,59.51068316353745L775.3846153846155,66.82142649875209L778.8461538461539,84.84848484848486L782.3076923076924,83.67240800082692L785.7692307692308,80.24602675765462L789.2307692307692,77.93878306937694L792.6923076923076,75.63138399371417L796.1538461538461,102.10527129028016L799.6153846153845,65.09193776520506L803.0769230769231,85.96509835973511L806.5384615384615,112.04296963579851L810,81.02810028605072L813.4615384615385,134.75626853370267L816.9230769230769,80.31050250914238L820.3846153846154,98.03022271734929L823.8461538461538,75.94607763521194L827.3076923076923,93.97452400910072L830.7692307692308,66.73243279523724L834.2307692307693,143.32871728478017L837.6923076923077,119.440230453236L841.1538461538462,104.94118922593655L844.6153846153846,75.37558421680772L848.0769230769231,60.48962052239193L851.5384615384615,51.31444114706891L855,68.18450800394496L858.4615384615385,56.8440681460465L861.9230769230769,67.53433080549291L865.3846153846154,80.50608286849051L868.8461538461538,80.56375898091419L872.3076923076923,97.01676011153413L875.7692307692307,71.29963096349653L879.2307692307692,69.29249372068718L882.6923076923076,58.37881911649219L886.1538461538462,74.78162862778233" style="fill: none; stroke: #2ca02c; stroke-width: 2;"></path></g></g><path class="foreground" d="" style="display: none; fill: none;"></path></g><g transform="translate(0,0)"><path class="background" d="M0,0h900v600h-900Z" style="fill: none;"></path><g><g class="mark-line role-mark marks"><path d="M6.923076923076923,537.7076411960132L10.384615384615385,507.0478393786665L13.846153846153847,475.65024559076494L17.30769230769231,444.6979893566355L20.76923076923077,413.5835456409619L24.230769230769234,382.6086956521739L27.692307692307693,357.49484160699114L31.153846153846157,410.3697975253093L34.61538461538462,489.1951365889439L38.07692307692308,368.343756587731L41.53846153846154,347.0601474146176L45,455.69172072861153L48.46153846153847,306.5504748849505L51.92307692307693,283.6382828993666L55.38461538461539,245.13646320525717L58.84615384615385,319.6721853210403L62.307692307692314,305.2730593807081L65.76923076923077,286.7890453799649L69.23076923076924,270.3042837341313L72.6923076923077,256.5726083964212L76.15384615384616,237.27884869289673L79.61538461538461,220.7915236334829L83.07692307692308,183.65362352396377L86.53846153846155,270.0753735619517L90,257.32246306633095L93.46153846153847,244.88666315234588L96.92307692307693,234.61069074932874L100.38461538461539,218.48811867266588L103.84615384615385,197.05349292084625L107.3076923076923,195.46183618675684L110.76923076923077,147.6914361250117L114.23076923076923,242.08476567599314L117.6923076923077,231.2575692747275L121.15384615384615,303.42680363304646L124.61538461538463,219.50039263959923L128.07692307692307,201.03034803988723L131.53846153846155,200.1955790688184L135,180.83954982536318L138.46153846153848,184.8975428321617L141.9230769230769,227.79364404204892L145.3846153846154,218.82893226176805L148.84615384615384,229.59887914482903L152.30769230769232,202.01486934831564L155.76923076923077,193.05598431059207L159.23076923076923,181.83344894308348L162.69230769230768,172.72467278004612L166.15384615384616,209.24417875278846L169.6153846153846,200.98155291601415L173.0769230769231,189.29328174618453L176.53846153846155,225.58406608572213L180,198.10262597807454L183.46153846153845,163.43994039570623L186.92307692307693,153.6164297068418L190.3846153846154,151.16218033889405L193.84615384615387,126.31578947368413L197.3076923076923,180.28683914510682L200.76923076923077,171.22053425926381L204.23076923076923,206.75652068747718L207.6923076923077,157.06470663883576L211.15384615384616,170.63547139883008L214.6153846153846,139.94077686814146L218.07692307692307,136.04241503177664L221.53846153846155,84.89244325566096L225,188.49195701892234L228.46153846153845,150.12960414733254L231.9230769230769,137.07668353444905L235.3846153846154,169.38373846586407L238.84615384615384,137.55388439633728L242.3076923076923,129.71233913701732L245.76923076923075,123.53394366451L249.23076923076925,106.03923084355958L252.6923076923077,152.9195803476249L256.15384615384613,151.94084576891956L259.6153846153846,139.0390638217102L263.0769230769231,136.28163429161307L266.53846153846155,128.50359712230212L270,215.79031166660022L273.46153846153845,123.02382235986067L276.92307692307696,94.99059146620547L280.3846153846154,165.45754417369204L283.8461538461538,141.48629148629135L287.30769230769226,122.01374698123723L290.7692307692308,155.76032275738405L294.2307692307692,111.58102858378571L297.6923076923077,105.08574213160269L301.15384615384613,140.43254076835322L304.61538461538464,92.64210159246764L308.0769230769231,146.03846299164996L311.53846153846155,137.30347026720426L315,132.13974433468906L318.46153846153845,126.8838779760463L321.9230769230769,122.01911308111988L325.38461538461536,116.71577986220632L328.8461538461538,176.80307320504255L332.3076923076923,117.84572822002686L335.7692307692308,134.7149621794477L339.2307692307692,144.79901810371268L342.6923076923077,123.24201268630577L346.1538461538462,119.86498021261728L349.61538461538464,115.40362837433959L353.0769230769231,112.33725257884637L356.53846153846155,105.98642839378967L360,102.2367759485348L363.46153846153845,142.47962459866633L366.9230769230769,107.42383520965282L370.38461538461536,101.04829381145169L373.84615384615387,111.39725073951625L377.3076923076923,108.11345746867431L380.7692307692308,115.92069200001178L384.2307692307692,134.40970607253462L387.69230769230774,121.22241086587431L391.1538461538462,132.21970427875874L394.6153846153846,115.60020090406825L398.07692307692304,161.4372786064381L401.53846153846155,119.63578736343416L405,124.86298586475408L408.46153846153845,119.18472825652731L411.9230769230769,92.95902332890122L415.3846153846154,79.68346385665659L418.84615384615387,166.5503332249279L422.3076923076923,165.2944314755491L425.7692307692308,120.86775223667881L429.2307692307692,101.35541184923905L432.6923076923077,100.80546853672301L436.15384615384613,104.00044760252891L439.6153846153846,90.37887017925028L443.0769230769231,93.39690873536736L446.53846153846155,112.15862710383576L450,153.85187054798362L453.46153846153845,104.41742981707453L456.9230769230769,120.82071583674296L460.38461538461536,143.1422262206591L463.8461538461538,76.27865144761724L467.3076923076923,89.37357309596486L470.7692307692308,75.69072606553875L474.2307692307692,119.18531574440885L477.6923076923077,115.72423036289617L481.15384615384613,106.5029284870687L484.6153846153846,101.7673222953204L488.07692307692304,132.88226109388793L491.5384615384615,119.357854356726L495.00000000000006,90.11648172892586L498.4615384615385,116.6810336922031L501.92307692307696,154.80344481197687L505.3846153846154,117.96854604214869L508.8461538461538,100.67934782608697L512.3076923076923,115.34239098827453L515.7692307692307,94.18040737148404L519.2307692307692,89.29961089494158L522.6923076923077,75.49765953077299L526.1538461538462,98.38083702074L529.6153846153846,92.51811463264796L533.0769230769231,120.57873505901968L536.5384615384615,97.90448515253752L540,108.91340071100979L543.4615384615385,71.93080804036197L546.9230769230769,87.99657171131683L550.3846153846155,105.71207732751216L553.8461538461539,73.08225352870738L557.3076923076924,149.4203659571031L560.7692307692308,106.16468285910811L564.2307692307692,124.6251328820007L567.6923076923076,71.76340143373096L571.1538461538461,133.880280137826L574.6153846153845,65.4200847786906L578.0769230769231,112.33129068782924L581.5384615384615,91.15685706001734L585,76.36049634597757L588.4615384615385,111.07314965864272L591.9230769230769,90.14081632653064L595.3846153846154,102.11047534337408L598.8461538461538,64.0778178170977L602.3076923076923,86.40958124522209L605.7692307692308,77.96818500150057L609.2307692307693,122.59149246202992L612.6923076923077,111.01623324733431L616.1538461538462,129.37119209104495L619.6153846153846,101.434320206956L623.0769230769231,102.81062221360718L626.5384615384615,84.09686888454002L630,81.23236253048023L633.4615384615385,94.39337518243174L636.9230769230769,98.67291794631943L640.3846153846154,113.41770221849504L643.8461538461538,90.92581562101793L647.3076923076923,88.12131677871069L650.7692307692307,85.4179508785422L654.2307692307692,102.78960411768448L657.6923076923076,100.21602663481329L661.1538461538462,78.1430584852653L664.6153846153846,93.52484491817154L668.0769230769231,115.10749361661334L671.5384615384615,109.75526465566298L675,140.69464082022986L678.4615384615385,94.86606864371882L681.9230769230769,102.29507334770487L685.3846153846154,98.30289061143299L688.8461538461538,76.18260427263462L692.3076923076924,67.10312408726942L695.7692307692308,70.8239004909317L699.2307692307693,107.3747664360301L702.6923076923077,83.55380765105464L706.1538461538462,101.04506369101509L709.6153846153846,108.79660154065701L713.0769230769231,124.37326693452546L716.5384615384615,87.81129021449443L720,68.85534844953627L723.4615384615385,67.98947715968512L726.9230769230769,106.02186185072264L730.3846153846154,104.0015293932312L733.8461538461538,101.51722908921698L737.3076923076923,103.18574117992216L740.7692307692307,89.2949922364771L744.2307692307692,113.11568220418944L747.6923076923077,41.748352884460836L751.1538461538462,107.73657787227407L754.6153846153846,118.40942562592032L758.0769230769231,82.01502926021465L761.5384615384615,100.70877303512353L765,98.36664226840213L768.4615384615385,96.57343157593536L771.9230769230769,83.4443170992373L775.3846153846155,65.12034093687768L778.8461538461539,84.02036939195337L782.3076923076924,82.46598715818767L785.7692307692308,79.50409693263931L789.2307692307692,77.31103769132221L792.6923076923076,74.941836287413L796.1538461538461,104.03783980519682L799.6153846153845,62.617779598525146L803.0769230769231,85.53819639578879L806.5384615384615,108.22147801381993L810,81.24308919032552L813.4615384615385,135.96146783807444L816.9230769230769,79.41418483457112L820.3846153846154,98.8601505647673L823.8461538461538,75.00244063825403L827.3076923076923,94.67342497204794L830.7692307692308,66.05568249661624L834.2307692307693,118.48990354886173L837.6923076923077,119.71694328337806L841.1538461538462,108.23856372951911L844.6153846153846,75.60411073048788L848.0769230769231,61.3196814562001L851.5384615384615,51.591129764775914L855,68.48935744311729L858.4615384615385,56.39326289077302L861.9230769230769,67.8736430050752L865.3846153846154,80.74268726442628L868.8461538461538,81.76301149981305L872.3076923076923,60.09733134005521L875.7692307692307,73.24511017066774L879.2307692307692,69.21541282010611L882.6923076923076,59.049841009611434L886.1538461538462,56.076747840339046" style="fill: none; stroke: #98df8a; stroke-width: 2;"></path></g></g><path class="foreground" d="" style="display: none; fill: none;"></path></g><g transform="translate(0,0)"><path class="background" d="M0,0h900v600h-900Z" style="fill: none;"></path><g><g class="mark-line role-mark marks"><path d="M6.923076923076923,552.2161989795918L10.384615384615385,528.3082958568558L13.846153846153847,504.3363071963228L17.30769230769231,480.46044864226684L20.76923076923077,456.6965779952502L24.230769230769234,441.2942173268375L27.692307692307693,415.5749053875266L31.153846153846157,462.3532657001869L34.61538461538462,472.2020181324591L38.07692307692308,412.7853621970333L41.53846153846154,395.7820857892405L45,434.31806572450193L48.46153846153847,391.30071099958167L51.92307692307693,373.2802923982512L55.38461538461539,334.77289320560186L58.84615384615385,393.527292788992L62.307692307692314,389.72159730033746L65.76923076923077,370.0070349076971L69.23076923076924,368.2078147522435L72.6923076923077,345.0613079019073L76.15384615384616,332.6937592831576L79.61538461538461,334.6338114011063L83.07692307692308,307.86206223624396L86.53846153846155,362.3395712567687L90,364.0369580668088L93.46153846153847,340.00309382009436L96.92307692307693,320.3032855939342L100.38461538461539,337.4356861057747L103.84615384615385,311.6739252101975L107.3076923076923,299.7357495838703L110.76923076923077,331.0394878228533L114.23076923076923,337.5775239231899L117.6923076923077,333.72687918142464L121.15384615384615,320.0967705637447L124.61538461538463,365.000284864076L128.07692307692307,304.31302206039834L131.53846153846155,294.8805130246721L135,292.03521562693436L138.46153846153848,372.15742268396406L141.9230769230769,330.3131369279228L145.3846153846154,309.45112049366674L148.84615384615384,294.38419700357036L152.30769230769232,295.7142857142857L155.76923076923077,307.60482646704696L159.23076923076923,304.30358113881766L162.69230769230768,292.48018676660314L166.15384615384616,301.4057684115568L169.6153846153846,328.74999999999994L173.0769230769231,306.3119251569099L176.53846153846155,292.1136145325438L180,293.17397752416906L183.46153846153845,292.54760085455416L186.92307692307693,294.0684645170133L190.3846153846154,268.9237521368557L193.84615384615387,284.1183494759188L197.3076923076923,312.7347636921447L200.76923076923077,299.328330101692L204.23076923076923,343.4978262527648L207.6923076923077,278.6849101874067L211.15384615384616,289.8198876866182L214.6153846153846,278.2152982416938L218.07692307692307,268.32358191193964L221.53846153846155,261.61594604976733L225,323.14523924601247L228.46153846153845,262.291662363948L231.9230769230769,287.8676158863448L235.3846153846154,309.34885412877406L238.84615384615384,283.0442294830191L242.3076923076923,286.7138780255786L245.76923076923075,261.357460831358L249.23076923076925,261.7711321794311L252.6923076923077,286.806499381301L256.15384615384613,278.84185254345095L259.6153846153846,274.0001644128406L263.0769230769231,277.3066730908215L266.53846153846155,265.39623184237024L270,296.92709855239565L273.46153846153845,248.65497497209114L276.92307692307696,256.6140357998133L280.3846153846154,272.29980168228127L283.8461538461538,297.53240840342016L287.30769230769226,247.8288560182688L290.7692307692308,312.0376114140194L294.2307692307692,252.69892838495258L297.6923076923077,233.8841810752601L301.15384615384613,293.7704220028991L304.61538461538464,243.83681600753084L308.0769230769231,297.64131102986374L311.53846153846155,266.1643808047977L315,263.41527655838445L318.46153846153845,260.71147194105333L321.9230769230769,268.16127203755644L325.38461538461536,279.4465825498124L328.8461538461538,275.9311902015886L332.3076923076923,242.8142458452981L335.7692307692308,286.120148669365L339.2307692307692,278.4239504473503L342.6923076923077,296.86326892517445L346.1538461538462,289.639163128115L349.61538461538464,267.3361728469825L353.0769230769231,268.47677981535514L356.53846153846155,266.2359349528845L360,272.0762088549934L363.46153846153845,278.71735914822574L366.9230769230769,268.7662619022716L370.38461538461536,258.2102356855436L373.84615384615387,254.0351214314101L377.3076923076923,264.5984665052461L380.7692307692308,249.93637378339287L384.2307692307692,268.69800774674354L387.69230769230774,243.31132678207425L391.1538461538462,266.96115571638586L394.6153846153846,268.3919752225229L398.07692307692304,278.44747735247876L401.53846153846155,249.443635123826L405,270.6176680578371L408.46153846153845,257.062808396755L411.9230769230769,274.58812374066605L415.3846153846154,269.1245587283019L418.84615384615387,258.9872373230338L422.3076923076923,255.87032761237862L425.7692307692308,248.93741973877908L429.2307692307692,243.19856641576308L432.6923076923077,244.015650113211L436.15384615384613,256.5165394067629L439.6153846153846,250.72458832144127L443.0769230769231,228.75006713865963L446.53846153846155,263.7427533096824L450,258.27703560725354L453.46153846153845,263.556082866805L456.9230769230769,260.5404405618532L460.38461538461536,261.6428729935646L463.8461538461538,244.79974561589458L467.3076923076923,251.11016286435586L470.7692307692308,247.5390757882298L474.2307692307692,271.7055117637043L477.6923076923077,271.8176300261693L481.15384615384613,250.12751052703186L484.6153846153846,249.91742762774425L488.07692307692304,252.76340744718507L491.5384615384615,238.96017488831856L495.00000000000006,248.03557356748846L498.4615384615385,251.40983871674175L501.92307692307696,259.8551728542443L505.3846153846154,262.64005800124977L508.8461538461538,242.89687000769183L512.3076923076923,245.02813254745067L515.7692307692307,241.28991034323147L519.2307692307692,243.22619061441054L522.6923076923077,226.20103759344258L526.1538461538462,238.72860603311102L529.6153846153846,241.70053392011135L533.0769230769231,247.50480169828484L536.5384615384615,233.68852945834652L540,249.21250337295666L543.4615384615385,226.8453617132713L546.9230769230769,235.80102736912644L550.3846153846155,228.87022586329203L553.8461538461539,242.23733473090908L557.3076923076924,251.51515151515147L560.7692307692308,279.06031518807754L564.2307692307692,252.13084726941338L567.6923076923076,251.27019742574518L571.1538461538461,243.1435261341923L574.6153846153845,237.56964222245816L578.0769230769231,256.58673829933855L581.5384615384615,231.84380466944555L585,246.79254008769038L588.4615384615385,262.66818583334395L591.9230769230769,254.93587981980448L595.3846153846154,241.97857445811758L598.8461538461538,244.88863314732023L602.3076923076923,238.2608464624458L605.7692307692308,254.26138335101265L609.2307692307693,251.96830972438983L612.6923076923077,249.38201832361102L616.1538461538462,251.5966188256908L619.6153846153846,241.0083528376028L623.0769230769231,247.83778888799958L626.5384615384615,244.97065157721377L630,247.50102377098725L633.4615384615385,242.0528476681756L636.9230769230769,257.56777540961224L640.3846153846154,249.703331811958L643.8461538461538,248.2081078379965L647.3076923076923,249.18604144778737L650.7692307692307,248.2482857468606L654.2307692307692,236.4107381510391L657.6923076923076,235.37798284668654L661.1538461538462,235.0298278931258L664.6153846153846,226.91433210963268L668.0769230769231,270.18530715417336L671.5384615384615,240.31167656084008L675,250.7772326969679L678.4615384615385,236.07532210109008L681.9230769230769,246.56179686574822L685.3846153846154,231.91361824838802L688.8461538461538,224.82498014394605L692.3076923076924,221.85598502204812L695.7692307692308,242.0842735159076L699.2307692307693,254.1496865553187L702.6923076923077,243.6722697460925L706.1538461538462,246.70566502463055L709.6153846153846,255.99967355548296L713.0769230769231,238.89936262305912L716.5384615384615,237.01981893809634L720,233.48196031854204L723.4615384615385,240.39761238412868L726.9230769230769,252.07607306096008L730.3846153846154,248.22417366750437L733.8461538461538,242.94157528221848L737.3076923076923,222.9718178470922L740.7692307692307,237.39503983363227L744.2307692307692,233.4739178690344L747.6923076923077,235.783739182985L751.1538461538462,236.54287952538965L754.6153846153846,241.99896945050938L758.0769230769231,241.87523665981118L761.5384615384615,235.84188677694289L765,237.30359047941195L768.4615384615385,220.32014109724486L771.9230769230769,231.99440323147346L775.3846153846155,226.14061923097196L778.8461538461539,244.17349874626973L782.3076923076924,244.58576543698055L785.7692307692308,234.52175481078856L789.2307692307692,236.68024707583123L792.6923076923076,236.73063037437362L796.1538461538461,234.7377791144981L799.6153846153845,229.91367350084784L803.0769230769231,229.95633347340717L806.5384615384615,245.87896993870723L810,238.14954726339468L813.4615384615385,233.76778051829575L816.9230769230769,239.10299749406786L820.3846153846154,233.7599464002045L823.8461538461538,233.8212035247157L827.3076923076923,233.06478161717607L830.7692307692308,255.04771425346712L834.2307692307693,241.31284004416665L837.6923076923077,246.720537926153L841.1538461538462,240.1857338168264L844.6153846153846,236.3198646165611L848.0769230769231,219.79162301031812L851.5384615384615,222.44472057985257L855,230.2521702305357L858.4615384615385,225.83522097222087L861.9230769230769,242.4252327868246L865.3846153846154,223.65731213008476L868.8461538461538,237.70805015838442L872.3076923076923,212.97299109762432L875.7692307692307,222.89700864469344L879.2307692307692,227.98487720613736L882.6923076923076,208.71320890165106L886.1538461538462,228.22349320129626" style="fill: none; stroke: #ffbb78; stroke-width: 2;"></path></g></g><path class="foreground" d="" style="display: none; fill: none;"></path></g></g><g class="mark-group role-legend"><g transform="translate(918,0)"><path class="background" d="M0,0h101v92h-101Z" style="pointer-events: none; fill: none;"></path><g><g class="mark-group role-legend-entry"><g transform="translate(0,16)"><path class="background" d="M0,0h0v0h0Z" style="pointer-events: none; fill: none;"></path><g><g class="mark-group role-scope"><g transform="translate(0,0)"><path class="background" d="M0,0h101v11h-101Z" style="pointer-events: none; fill: none; opacity: 1;"></path><g><g class="mark-symbol role-legend-symbol" style="pointer-events: none;"><path transform="translate(6,6)" d="M-5,0L5,0" style="fill: none; stroke: #1f77b4; stroke-width: 1.5; opacity: 1;"></path></g><g class="mark-text role-legend-label" style="pointer-events: none;"><text text-anchor="start" transform="translate(16,9)" style="font-family: sans-serif; font-size: 10px; fill: #000; opacity: 1;">Clang</text></g></g><path class="foreground" d="" style="pointer-events: none; display: none; fill: none;"></path></g><g transform="translate(0,13)"><path class="background" d="M0,0h101v11h-101Z" style="pointer-events: none; fill: none; opacity: 1;"></path><g><g class="mark-symbol role-legend-symbol" style="pointer-events: none;"><path transform="translate(6,6)" d="M-5,0L5,0" style="fill: none; stroke: #aec7e8; stroke-width: 1.5; opacity: 1;"></path></g><g class="mark-text role-legend-label" style="pointer-events: none;"><text text-anchor="start" transform="translate(16,9)" style="font-family: sans-serif; font-size: 10px; fill: #000; opacity: 1;">GFortran</text></g></g><path class="foreground" d="" style="pointer-events: none; display: none; fill: none;"></path></g><g transform="translate(0,26)"><path class="background" d="M0,0h101v11h-101Z" style="pointer-events: none; fill: none; opacity: 1;"></path><g><g class="mark-symbol role-legend-symbol" style="pointer-events: none;"><path transform="translate(6,6)" d="M-5,0L5,0" style="fill: none; stroke: #ff7f0e; stroke-width: 1.5; opacity: 1;"></path></g><g class="mark-text role-legend-label" style="pointer-events: none;"><text text-anchor="start" transform="translate(16,9)" style="font-family: sans-serif; font-size: 10px; fill: #000; opacity: 1;">Julia</text></g></g><path class="foreground" d="" style="pointer-events: none; display: none; fill: none;"></path></g><g transform="translate(0,39)"><path class="background" d="M0,0h101v11h-101Z" style="pointer-events: none; fill: none; opacity: 1;"></path><g><g class="mark-symbol role-legend-symbol" style="pointer-events: none;"><path transform="translate(6,6)" d="M-5,0L5,0" style="fill: none; stroke: #ffbb78; stroke-width: 1.5; opacity: 1;"></path></g><g class="mark-text role-legend-label" style="pointer-events: none;"><text text-anchor="start" transform="translate(16,9)" style="font-family: sans-serif; font-size: 10px; fill: #000; opacity: 1;">LoopVectorization</text></g></g><path class="foreground" d="" style="pointer-events: none; display: none; fill: none;"></path></g><g transform="translate(0,52)"><path class="background" d="M0,0h101v11h-101Z" style="pointer-events: none; fill: none; opacity: 1;"></path><g><g class="mark-symbol role-legend-symbol" style="pointer-events: none;"><path transform="translate(6,6)" d="M-5,0L5,0" style="fill: none; stroke: #2ca02c; stroke-width: 1.5; opacity: 1;"></path></g><g class="mark-text role-legend-label" style="pointer-events: none;"><text text-anchor="start" transform="translate(16,9)" style="font-family: sans-serif; font-size: 10px; fill: #000; opacity: 1;">icc</text></g></g><path class="foreground" d="" style="pointer-events: none; display: none; fill: none;"></path></g><g transform="translate(0,65)"><path class="background" d="M0,0h101v11h-101Z" style="pointer-events: none; fill: none; opacity: 1;"></path><g><g class="mark-symbol role-legend-symbol" style="pointer-events: none;"><path transform="translate(6,6)" d="M-5,0L5,0" style="fill: none; stroke: #98df8a; stroke-width: 1.5; opacity: 1;"></path></g><g class="mark-text role-legend-label" style="pointer-events: none;"><text text-anchor="start" transform="translate(16,9)" style="font-family: sans-serif; font-size: 10px; fill: #000; opacity: 1;">ifort</text></g></g><path class="foreground" d="" style="pointer-events: none; display: none; fill: none;"></path></g></g></g><path class="foreground" d="" style="pointer-events: none; display: none; fill: none;"></path></g></g><g class="mark-text role-legend-title" style="pointer-events: none;"><text text-anchor="start" transform="translate(0,9)" style="font-family: sans-serif; font-size: 11px; font-weight: bold; fill: #000; opacity: 1;">Method</text></g></g><path class="foreground" d="" style="pointer-events: none; display: none; fill: none;"></path></g></g></g><path class="foreground" d="" style="display: none; fill: none;"></path></g></g></g></svg>
