<?xml version="1.0" encoding="utf-8"?>
<!DOCTYPE svg PUBLIC "-//W3C//DTD SVG 1.1//EN" "http://www.w3.org/Graphics/SVG/1.1/DTD/svg11.dtd">
<svg class="marks" width="1063" height="647" viewBox="0 0 1063 647" version="1.1" xmlns="http://www.w3.org/2000/svg" xmlns:xlink="http://www.w3.org/1999/xlink"><rect width="1063" height="647" style="fill: white;"></rect><g transform="translate(39,10)"><g class="mark-group role-frame root"><g transform="translate(0,0)"><path class="background" d="M0.5,0.5h900v600h-900Z" style="fill: none; stroke: #ddd;"></path><g><g class="mark-group role-axis"><g transform="translate(0.5,600.5)"><path class="background" d="M0,0h0v0h0Z" style="pointer-events: none; fill: none;"></path><g><g class="mark-rule role-axis-grid" style="pointer-events: none;"><line transform="translate(0,-600)" x2="0" y2="600" style="fill: none; stroke: #ddd; stroke-width: 1; opacity: 1;"></line><line transform="translate(35,-600)" x2="0" y2="600" style="fill: none; stroke: #ddd; stroke-width: 1; opacity: 1;"></line><line transform="translate(69,-600)" x2="0" y2="600" style="fill: none; stroke: #ddd; stroke-width: 1; opacity: 1;"></line><line transform="translate(104,-600)" x2="0" y2="600" style="fill: none; stroke: #ddd; stroke-width: 1; opacity: 1;"></line><line transform="translate(138,-600)" x2="0" y2="600" style="fill: none; stroke: #ddd; stroke-width: 1; opacity: 1;"></line><line transform="translate(173,-600)" x2="0" y2="600" style="fill: none; stroke: #ddd; stroke-width: 1; opacity: 1;"></line><line transform="translate(208,-600)" x2="0" y2="600" style="fill: none; stroke: #ddd; stroke-width: 1; opacity: 1;"></line><line transform="translate(242,-600)" x2="0" y2="600" style="fill: none; stroke: #ddd; stroke-width: 1; opacity: 1;"></line><line transform="translate(277,-600)" x2="0" y2="600" style="fill: none; stroke: #ddd; stroke-width: 1; opacity: 1;"></line><line transform="translate(312,-600)" x2="0" y2="600" style="fill: none; stroke: #ddd; stroke-width: 1; opacity: 1;"></line><line transform="translate(346,-600)" x2="0" y2="600" style="fill: none; stroke: #ddd; stroke-width: 1; opacity: 1;"></line><line transform="translate(381,-600)" x2="0" y2="600" style="fill: none; stroke: #ddd; stroke-width: 1; opacity: 1;"></line><line transform="translate(415,-600)" x2="0" y2="600" style="fill: none; stroke: #ddd; stroke-width: 1; opacity: 1;"></line><line transform="translate(450,-600)" x2="0" y2="600" style="fill: none; stroke: #ddd; stroke-width: 1; opacity: 1;"></line><line transform="translate(485,-600)" x2="0" y2="600" style="fill: none; stroke: #ddd; stroke-width: 1; opacity: 1;"></line><line transform="translate(519,-600)" x2="0" y2="600" style="fill: none; stroke: #ddd; stroke-width: 1; opacity: 1;"></line><line transform="translate(554,-600)" x2="0" y2="600" style="fill: none; stroke: #ddd; stroke-width: 1; opacity: 1;"></line><line transform="translate(588,-600)" x2="0" y2="600" style="fill: none; stroke: #ddd; stroke-width: 1; opacity: 1;"></line><line transform="translate(623,-600)" x2="0" y2="600" style="fill: none; stroke: #ddd; stroke-width: 1; opacity: 1;"></line><line transform="translate(658,-600)" x2="0" y2="600" style="fill: none; stroke: #ddd; stroke-width: 1; opacity: 1;"></line><line transform="translate(692,-600)" x2="0" y2="600" style="fill: none; stroke: #ddd; stroke-width: 1; opacity: 1;"></line><line transform="translate(727,-600)" x2="0" y2="600" style="fill: none; stroke: #ddd; stroke-width: 1; opacity: 1;"></line><line transform="translate(762,-600)" x2="0" y2="600" style="fill: none; stroke: #ddd; stroke-width: 1; opacity: 1;"></line><line transform="translate(796,-600)" x2="0" y2="600" style="fill: none; stroke: #ddd; stroke-width: 1; opacity: 1;"></line><line transform="translate(831,-600)" x2="0" y2="600" style="fill: none; stroke: #ddd; stroke-width: 1; opacity: 1;"></line><line transform="translate(865,-600)" x2="0" y2="600" style="fill: none; stroke: #ddd; stroke-width: 1; opacity: 1;"></line><line transform="translate(900,-600)" x2="0" y2="600" style="fill: none; stroke: #ddd; stroke-width: 1; opacity: 1;"></line></g></g><path class="foreground" d="" style="pointer-events: none; display: none; fill: none;"></path></g></g><g class="mark-group role-axis"><g transform="translate(0.5,0.5)"><path class="background" d="M0,0h0v0h0Z" style="pointer-events: none; fill: none;"></path><g><g class="mark-rule role-axis-grid" style="pointer-events: none;"><line transform="translate(0,600)" x2="900" y2="0" style="fill: none; stroke: #ddd; stroke-width: 1; opacity: 1;"></line><line transform="translate(0,567)" x2="900" y2="0" style="fill: none; stroke: #ddd; stroke-width: 1; opacity: 1;"></line><line transform="translate(0,533)" x2="900" y2="0" style="fill: none; stroke: #ddd; stroke-width: 1; opacity: 1;"></line><line transform="translate(0,500)" x2="900" y2="0" style="fill: none; stroke: #ddd; stroke-width: 1; opacity: 1;"></line><line transform="translate(0,467)" x2="900" y2="0" style="fill: none; stroke: #ddd; stroke-width: 1; opacity: 1;"></line><line transform="translate(0,433)" x2="900" y2="0" style="fill: none; stroke: #ddd; stroke-width: 1; opacity: 1;"></line><line transform="translate(0,400)" x2="900" y2="0" style="fill: none; stroke: #ddd; stroke-width: 1; opacity: 1;"></line><line transform="translate(0,367)" x2="900" y2="0" style="fill: none; stroke: #ddd; stroke-width: 1; opacity: 1;"></line><line transform="translate(0,333)" x2="900" y2="0" style="fill: none; stroke: #ddd; stroke-width: 1; opacity: 1;"></line><line transform="translate(0,300)" x2="900" y2="0" style="fill: none; stroke: #ddd; stroke-width: 1; opacity: 1;"></line><line transform="translate(0,267)" x2="900" y2="0" style="fill: none; stroke: #ddd; stroke-width: 1; opacity: 1;"></line><line transform="translate(0,233)" x2="900" y2="0" style="fill: none; stroke: #ddd; stroke-width: 1; opacity: 1;"></line><line transform="translate(0,200)" x2="900" y2="0" style="fill: none; stroke: #ddd; stroke-width: 1; opacity: 1;"></line><line transform="translate(0,167)" x2="900" y2="0" style="fill: none; stroke: #ddd; stroke-width: 1; opacity: 1;"></line><line transform="translate(0,133)" x2="900" y2="0" style="fill: none; stroke: #ddd; stroke-width: 1; opacity: 1;"></line><line transform="translate(0,100)" x2="900" y2="0" style="fill: none; stroke: #ddd; stroke-width: 1; opacity: 1;"></line><line transform="translate(0,67)" x2="900" y2="0" style="fill: none; stroke: #ddd; stroke-width: 1; opacity: 1;"></line><line transform="translate(0,33)" x2="900" y2="0" style="fill: none; stroke: #ddd; stroke-width: 1; opacity: 1;"></line><line transform="translate(0,0)" x2="900" y2="0" style="fill: none; stroke: #ddd; stroke-width: 1; opacity: 1;"></line></g></g><path class="foreground" d="" style="pointer-events: none; display: none; fill: none;"></path></g></g><g class="mark-group role-axis"><g transform="translate(0.5,600.5)"><path class="background" d="M0,0h0v0h0Z" style="pointer-events: none; fill: none;"></path><g><g class="mark-rule role-axis-tick" style="pointer-events: none;"><line transform="translate(0,0)" x2="0" y2="5" style="fill: none; stroke: #888; stroke-width: 1; opacity: 1;"></line><line transform="translate(35,0)" x2="0" y2="5" style="fill: none; stroke: #888; stroke-width: 1; opacity: 1;"></line><line transform="translate(69,0)" x2="0" y2="5" style="fill: none; stroke: #888; stroke-width: 1; opacity: 1;"></line><line transform="translate(104,0)" x2="0" y2="5" style="fill: none; stroke: #888; stroke-width: 1; opacity: 1;"></line><line transform="translate(138,0)" x2="0" y2="5" style="fill: none; stroke: #888; stroke-width: 1; opacity: 1;"></line><line transform="translate(173,0)" x2="0" y2="5" style="fill: none; stroke: #888; stroke-width: 1; opacity: 1;"></line><line transform="translate(208,0)" x2="0" y2="5" style="fill: none; stroke: #888; stroke-width: 1; opacity: 1;"></line><line transform="translate(242,0)" x2="0" y2="5" style="fill: none; stroke: #888; stroke-width: 1; opacity: 1;"></line><line transform="translate(277,0)" x2="0" y2="5" style="fill: none; stroke: #888; stroke-width: 1; opacity: 1;"></line><line transform="translate(312,0)" x2="0" y2="5" style="fill: none; stroke: #888; stroke-width: 1; opacity: 1;"></line><line transform="translate(346,0)" x2="0" y2="5" style="fill: none; stroke: #888; stroke-width: 1; opacity: 1;"></line><line transform="translate(381,0)" x2="0" y2="5" style="fill: none; stroke: #888; stroke-width: 1; opacity: 1;"></line><line transform="translate(415,0)" x2="0" y2="5" style="fill: none; stroke: #888; stroke-width: 1; opacity: 1;"></line><line transform="translate(450,0)" x2="0" y2="5" style="fill: none; stroke: #888; stroke-width: 1; opacity: 1;"></line><line transform="translate(485,0)" x2="0" y2="5" style="fill: none; stroke: #888; stroke-width: 1; opacity: 1;"></line><line transform="translate(519,0)" x2="0" y2="5" style="fill: none; stroke: #888; stroke-width: 1; opacity: 1;"></line><line transform="translate(554,0)" x2="0" y2="5" style="fill: none; stroke: #888; stroke-width: 1; opacity: 1;"></line><line transform="translate(588,0)" x2="0" y2="5" style="fill: none; stroke: #888; stroke-width: 1; opacity: 1;"></line><line transform="translate(623,0)" x2="0" y2="5" style="fill: none; stroke: #888; stroke-width: 1; opacity: 1;"></line><line transform="translate(658,0)" x2="0" y2="5" style="fill: none; stroke: #888; stroke-width: 1; opacity: 1;"></line><line transform="translate(692,0)" x2="0" y2="5" style="fill: none; stroke: #888; stroke-width: 1; opacity: 1;"></line><line transform="translate(727,0)" x2="0" y2="5" style="fill: none; stroke: #888; stroke-width: 1; opacity: 1;"></line><line transform="translate(762,0)" x2="0" y2="5" style="fill: none; stroke: #888; stroke-width: 1; opacity: 1;"></line><line transform="translate(796,0)" x2="0" y2="5" style="fill: none; stroke: #888; stroke-width: 1; opacity: 1;"></line><line transform="translate(831,0)" x2="0" y2="5" style="fill: none; stroke: #888; stroke-width: 1; opacity: 1;"></line><line transform="translate(865,0)" x2="0" y2="5" style="fill: none; stroke: #888; stroke-width: 1; opacity: 1;"></line><line transform="translate(900,0)" x2="0" y2="5" style="fill: none; stroke: #888; stroke-width: 1; opacity: 1;"></line></g><g class="mark-text role-axis-label" style="pointer-events: none;"><text text-anchor="start" transform="translate(0,15)" style="font-family: sans-serif; font-size: 10px; fill: #000; opacity: 1;">0</text><text text-anchor="middle" transform="translate(34.61538461538462,15)" style="font-family: sans-serif; font-size: 10px; fill: #000; opacity: 1;">10</text><text text-anchor="middle" transform="translate(69.23076923076924,15)" style="font-family: sans-serif; font-size: 10px; fill: #000; opacity: 1;">20</text><text text-anchor="middle" transform="translate(103.84615384615385,15)" style="font-family: sans-serif; font-size: 10px; fill: #000; opacity: 1;">30</text><text text-anchor="middle" transform="translate(138.46153846153848,15)" style="font-family: sans-serif; font-size: 10px; fill: #000; opacity: 1;">40</text><text text-anchor="middle" transform="translate(173.0769230769231,15)" style="font-family: sans-serif; font-size: 10px; fill: #000; opacity: 1;">50</text><text text-anchor="middle" transform="translate(207.6923076923077,15)" style="font-family: sans-serif; font-size: 10px; fill: #000; opacity: 1;">60</text><text text-anchor="middle" transform="translate(242.3076923076923,15)" style="font-family: sans-serif; font-size: 10px; fill: #000; opacity: 1;">70</text><text text-anchor="middle" transform="translate(276.92307692307696,15)" style="font-family: sans-serif; font-size: 10px; fill: #000; opacity: 1;">80</text><text text-anchor="middle" transform="translate(311.53846153846155,15)" style="font-family: sans-serif; font-size: 10px; fill: #000; opacity: 1;">90</text><text text-anchor="middle" transform="translate(346.1538461538462,15)" style="font-family: sans-serif; font-size: 10px; fill: #000; opacity: 1;">100</text><text text-anchor="middle" transform="translate(380.7692307692308,15)" style="font-family: sans-serif; font-size: 10px; fill: #000; opacity: 1;">110</text><text text-anchor="middle" transform="translate(415.3846153846154,15)" style="font-family: sans-serif; font-size: 10px; fill: #000; opacity: 1;">120</text><text text-anchor="middle" transform="translate(450,15)" style="font-family: sans-serif; font-size: 10px; fill: #000; opacity: 1;">130</text><text text-anchor="middle" transform="translate(484.6153846153846,15)" style="font-family: sans-serif; font-size: 10px; fill: #000; opacity: 1;">140</text><text text-anchor="middle" transform="translate(519.2307692307692,15)" style="font-family: sans-serif; font-size: 10px; fill: #000; opacity: 1;">150</text><text text-anchor="middle" transform="translate(553.8461538461539,15)" style="font-family: sans-serif; font-size: 10px; fill: #000; opacity: 1;">160</text><text text-anchor="middle" transform="translate(588.4615384615385,15)" style="font-family: sans-serif; font-size: 10px; fill: #000; opacity: 1;">170</text><text text-anchor="middle" transform="translate(623.0769230769231,15)" style="font-family: sans-serif; font-size: 10px; fill: #000; opacity: 1;">180</text><text text-anchor="middle" transform="translate(657.6923076923076,15)" style="font-family: sans-serif; font-size: 10px; fill: #000; opacity: 1;">190</text><text text-anchor="middle" transform="translate(692.3076923076924,15)" style="font-family: sans-serif; font-size: 10px; fill: #000; opacity: 1;">200</text><text text-anchor="middle" transform="translate(726.9230769230769,15)" style="font-family: sans-serif; font-size: 10px; fill: #000; opacity: 1;">210</text><text text-anchor="middle" transform="translate(761.5384615384615,15)" style="font-family: sans-serif; font-size: 10px; fill: #000; opacity: 1;">220</text><text text-anchor="middle" transform="translate(796.1538461538461,15)" style="font-family: sans-serif; font-size: 10px; fill: #000; opacity: 1;">230</text><text text-anchor="middle" transform="translate(830.7692307692308,15)" style="font-family: sans-serif; font-size: 10px; fill: #000; opacity: 1;">240</text><text text-anchor="middle" transform="translate(865.3846153846154,15)" style="font-family: sans-serif; font-size: 10px; fill: #000; opacity: 1;">250</text><text text-anchor="end" transform="translate(900,15)" style="font-family: sans-serif; font-size: 10px; fill: #000; opacity: 1;">260</text></g><g class="mark-rule role-axis-domain" style="pointer-events: none;"><line transform="translate(0,0)" x2="900" y2="0" style="fill: none; stroke: #888; stroke-width: 1; opacity: 1;"></line></g><g class="mark-text role-axis-title" style="pointer-events: none;"><text text-anchor="middle" transform="translate(450,30)" style="font-family: sans-serif; font-size: 11px; font-weight: bold; fill: #000; opacity: 1;">Size</text></g></g><path class="foreground" d="" style="pointer-events: none; display: none; fill: none;"></path></g></g><g class="mark-group role-axis"><g transform="translate(0.5,0.5)"><path class="background" d="M0,0h0v0h0Z" style="pointer-events: none; fill: none;"></path><g><g class="mark-rule role-axis-tick" style="pointer-events: none;"><line transform="translate(0,600)" x2="-5" y2="0" style="fill: none; stroke: #888; stroke-width: 1; opacity: 1;"></line><line transform="translate(0,567)" x2="-5" y2="0" style="fill: none; stroke: #888; stroke-width: 1; opacity: 1;"></line><line transform="translate(0,533)" x2="-5" y2="0" style="fill: none; stroke: #888; stroke-width: 1; opacity: 1;"></line><line transform="translate(0,500)" x2="-5" y2="0" style="fill: none; stroke: #888; stroke-width: 1; opacity: 1;"></line><line transform="translate(0,467)" x2="-5" y2="0" style="fill: none; stroke: #888; stroke-width: 1; opacity: 1;"></line><line transform="translate(0,433)" x2="-5" y2="0" style="fill: none; stroke: #888; stroke-width: 1; opacity: 1;"></line><line transform="translate(0,400)" x2="-5" y2="0" style="fill: none; stroke: #888; stroke-width: 1; opacity: 1;"></line><line transform="translate(0,367)" x2="-5" y2="0" style="fill: none; stroke: #888; stroke-width: 1; opacity: 1;"></line><line transform="translate(0,333)" x2="-5" y2="0" style="fill: none; stroke: #888; stroke-width: 1; opacity: 1;"></line><line transform="translate(0,300)" x2="-5" y2="0" style="fill: none; stroke: #888; stroke-width: 1; opacity: 1;"></line><line transform="translate(0,267)" x2="-5" y2="0" style="fill: none; stroke: #888; stroke-width: 1; opacity: 1;"></line><line transform="translate(0,233)" x2="-5" y2="0" style="fill: none; stroke: #888; stroke-width: 1; opacity: 1;"></line><line transform="translate(0,200)" x2="-5" y2="0" style="fill: none; stroke: #888; stroke-width: 1; opacity: 1;"></line><line transform="translate(0,167)" x2="-5" y2="0" style="fill: none; stroke: #888; stroke-width: 1; opacity: 1;"></line><line transform="translate(0,133)" x2="-5" y2="0" style="fill: none; stroke: #888; stroke-width: 1; opacity: 1;"></line><line transform="translate(0,100)" x2="-5" y2="0" style="fill: none; stroke: #888; stroke-width: 1; opacity: 1;"></line><line transform="translate(0,67)" x2="-5" y2="0" style="fill: none; stroke: #888; stroke-width: 1; opacity: 1;"></line><line transform="translate(0,33)" x2="-5" y2="0" style="fill: none; stroke: #888; stroke-width: 1; opacity: 1;"></line><line transform="translate(0,0)" x2="-5" y2="0" style="fill: none; stroke: #888; stroke-width: 1; opacity: 1;"></line></g><g class="mark-text role-axis-label" style="pointer-events: none;"><text text-anchor="end" transform="translate(-7,603)" style="font-family: sans-serif; font-size: 10px; fill: #000; opacity: 1;">0</text><text text-anchor="end" transform="translate(-7,569.6666666666666)" style="font-family: sans-serif; font-size: 10px; fill: #000; opacity: 1;">5</text><text text-anchor="end" transform="translate(-7,536.3333333333333)" style="font-family: sans-serif; font-size: 10px; fill: #000; opacity: 1;">10</text><text text-anchor="end" transform="translate(-7,503)" style="font-family: sans-serif; font-size: 10px; fill: #000; opacity: 1;">15</text><text text-anchor="end" transform="translate(-7,469.6666666666667)" style="font-family: sans-serif; font-size: 10px; fill: #000; opacity: 1;">20</text><text text-anchor="end" transform="translate(-7,436.3333333333333)" style="font-family: sans-serif; font-size: 10px; fill: #000; opacity: 1;">25</text><text text-anchor="end" transform="translate(-7,403.00000000000006)" style="font-family: sans-serif; font-size: 10px; fill: #000; opacity: 1;">30</text><text text-anchor="end" transform="translate(-7,369.6666666666667)" style="font-family: sans-serif; font-size: 10px; fill: #000; opacity: 1;">35</text><text text-anchor="end" transform="translate(-7,336.33333333333337)" style="font-family: sans-serif; font-size: 10px; fill: #000; opacity: 1;">40</text><text text-anchor="end" transform="translate(-7,303)" style="font-family: sans-serif; font-size: 10px; fill: #000; opacity: 1;">45</text><text text-anchor="end" transform="translate(-7,269.66666666666663)" style="font-family: sans-serif; font-size: 10px; fill: #000; opacity: 1;">50</text><text text-anchor="end" transform="translate(-7,236.33333333333331)" style="font-family: sans-serif; font-size: 10px; fill: #000; opacity: 1;">55</text><text text-anchor="end" transform="translate(-7,203.00000000000003)" style="font-family: sans-serif; font-size: 10px; fill: #000; opacity: 1;">60</text><text text-anchor="end" transform="translate(-7,169.66666666666669)" style="font-family: sans-serif; font-size: 10px; fill: #000; opacity: 1;">65</text><text text-anchor="end" transform="translate(-7,136.33333333333331)" style="font-family: sans-serif; font-size: 10px; fill: #000; opacity: 1;">70</text><text text-anchor="end" transform="translate(-7,102.99999999999997)" style="font-family: sans-serif; font-size: 10px; fill: #000; opacity: 1;">75</text><text text-anchor="end" transform="translate(-7,69.6666666666667)" style="font-family: sans-serif; font-size: 10px; fill: #000; opacity: 1;">80</text><text text-anchor="end" transform="translate(-7,36.33333333333335)" style="font-family: sans-serif; font-size: 10px; fill: #000; opacity: 1;">85</text><text text-anchor="end" transform="translate(-7,3)" style="font-family: sans-serif; font-size: 10px; fill: #000; opacity: 1;">90</text></g><g class="mark-rule role-axis-domain" style="pointer-events: none;"><line transform="translate(0,600)" x2="0" y2="-600" style="fill: none; stroke: #888; stroke-width: 1; opacity: 1;"></line></g><g class="mark-text role-axis-title" style="pointer-events: none;"><text text-anchor="middle" transform="translate(-23,300) rotate(-90) translate(0,-2)" style="font-family: sans-serif; font-size: 11px; font-weight: bold; fill: #000; opacity: 1;">GFLOPS</text></g></g><path class="foreground" d="" style="pointer-events: none; display: none; fill: none;"></path></g></g><g class="mark-group role-scope pathgroup"><g transform="translate(0,0)"><path class="background" d="M0,0h900v600h-900Z" style="fill: none;"></path><g><g class="mark-line role-mark marks"><path d="M6.923076923076923,570.4836464857342L10.384615384615385,556.3195459626795L13.846153846153847,549.7168388718235L17.30769230769231,545.7971970534785L20.76923076923077,544.0812765598176L24.230769230769234,536.5953575585669L27.692307692307693,448.7901463572297L31.153846153846157,470.1659462125388L34.61538461538462,480.7506433188979L38.07692307692308,501.4442162902122L41.53846153846154,493.09036275958994L45,494.11977401129946L48.46153846153847,495.0633808361547L51.92307692307693,505.2293170081056L55.38461538461539,365.21183284069883L58.84615384615385,429.21640991087565L62.307692307692314,432.5912040112475L65.76923076923077,436.473268007564L69.23076923076924,444.9814935771826L72.6923076923077,454.6469926021229L76.15384615384616,477.16903033181785L79.61538461538461,480.1777676525005L83.07692307692308,361.2355483184067L86.53846153846155,395.01485090765516L90,402.13144447427754L93.46153846153847,430.92828281773666L96.92307692307693,409.82732011298447L100.38461538461539,455.6064980229622L103.84615384615385,432.714799820063L107.3076923076923,453.36672231496937L110.76923076923077,344.0754629681454L114.23076923076923,365.4429309161102L117.6923076923077,382.65951863237615L121.15384615384615,382.8521715096923L124.61538461538463,427.4320241691843L128.07692307692307,416.61910792176735L131.53846153846155,435.8130591087702L135,437.95826283135926L138.46153846153848,319.56134595557216L141.9230769230769,341.27215307184514L145.3846153846154,355.1450874831763L148.84615384615384,369.4357614399368L152.30769230769232,387.63711446638285L155.76923076923077,415.4106008203973L159.23076923076923,400.07225232735857L162.69230769230768,422.12907045589105L166.15384615384616,358.44588344125805L169.6153846153846,374.83381602537577L173.0769230769231,381.91707717569784L176.53846153846155,384.9263096454107L180,398.00057126535273L183.46153846153845,395.8226440909868L186.92307692307693,390.37107516650804L190.3846153846154,428.5357043623228L193.84615384615387,375.14024210215524L197.3076923076923,365.2406758049092L200.76923076923077,392.5942044753926L204.23076923076923,378.27610108844306L207.6923076923077,390.20979020979024L211.15384615384616,403.42759477936613L214.6153846153846,408.00705121927336L218.07692307692307,416.55806787801896L221.53846153846155,343.91055699600963L225,376.2344877719508L228.46153846153845,370.8550799381124L231.9230769230769,369.2961152819066L235.3846153846154,372.4475322043711L238.84615384615384,384.5414614667909L242.3076923076923,376.15549982085275L245.76923076923075,417.92986230065463L249.23076923076925,364.15343443354146L252.6923076923077,370.87299245457984L256.15384615384613,377.3362567271278L259.6153846153846,370.37140798847355L263.0769230769231,381.6176143524354L266.53846153846155,381.948376803364L270,368.90179868171157L273.46153846153845,397.3314231136581L276.92307692307696,352.2674661303176L280.3846153846154,355.4113728876279L283.8461538461538,366.15164301240253L287.30769230769226,365.222272339999L290.7692307692308,363.06655309062626L294.2307692307692,386.12861449388924L297.6923076923077,373.639391484382L301.15384615384613,382.1271191821703L304.61538461538464,337.8867858787222L308.0769230769231,358.264947771158L311.53846153846155,352.4438751432616L315,355.73066120094137L318.46153846153845,371.59858045058223L321.9230769230769,370.4249197002141L325.38461538461536,367.07448634878443L328.8461538461538,403.829433576269L332.3076923076923,344.7596439169139L335.7692307692308,345.5437759218226L339.2307692307692,362.856816790646L342.6923076923077,370.5067737079779L346.1538461538462,358.6892160441254L349.61538461538464,362.70947563895805L353.0769230769231,358.17175002197416L356.53846153846155,385.1469756083033L360,348.58058151913815L363.46153846153845,347.7068189685012L366.9230769230769,345.6951576705086L370.38461538461536,361.3402409490819L373.84615384615387,362.38705811863395L377.3076923076923,358.42961368257386L380.7692307692308,353.4755512943432L384.2307692307692,379.549114331723L387.69230769230774,328.67485208982754L391.1538461538462,343.58680565809294L394.6153846153846,344.9043096729498L398.07692307692304,362.43686468437625L401.53846153846155,356.2396769071748L405,370.0032614818987L408.46153846153845,357.34202648952305L411.9230769230769,380.2767795005191L415.3846153846154,343.08922611926204L418.84615384615387,355.0539793136704L422.3076923076923,350.80462486950694L425.7692307692308,349.93145290668843L429.2307692307692,355.5599195773134L432.6923076923077,360.17154788104506L436.15384615384613,352.3358568479009L439.6153846153846,372.29331893867044L443.0769230769231,350.4480955100853L446.53846153846155,347.1452991452991L450,348.83344807614554L453.46153846153845,358.8252800396809L456.9230769230769,352.7814465900911L460.38461538461536,353.74605904270567L463.8461538461538,348.62930786017216L467.3076923076923,363.7358447401533L470.7692307692308,334.2191792400997L474.2307692307692,350.5683239524703L477.6923076923077,346.12977847480886L481.15384615384613,354.4154921679316L484.6153846153846,344.86006355526627L488.07692307692304,365.2692988853006L491.5384615384615,344.5597824062L495.00000000000006,367.9894550672406L498.4615384615385,330.97874613652846L501.92307692307696,382.4293888483078L505.3846153846154,349.0846143193463L508.8461538461538,352.84892521949746L512.3076923076923,351.55591139578326L515.7692307692307,358.50721438397795L519.2307692307692,338.54198708089814L522.6923076923077,364.0079147640792L526.1538461538462,331.74333230884815L529.6153846153846,347.90763968072974L533.0769230769231,347.148322358106L536.5384615384615,347.83910600728535L540,346.43008182403236L543.4615384615385,354.1751730611287L546.9230769230769,340.9108669108669L550.3846153846155,362.24545680856363L553.8461538461539,330.3342937695573L557.3076923076924,340.9652294036387L560.7692307692308,342.57226934395015L564.2307692307692,348.2734213899571L567.6923076923076,344.81261336682013L571.1538461538461,351.69000482858524L574.6153846153845,338.59434725593593L578.0769230769231,360.7664749217883L581.5384615384615,329.6323218662835L585,345.0044640512578L588.4615384615385,340.3620029065927L591.9230769230769,350.7348627303498L595.3846153846154,344.758424685343L598.8461538461538,351.68716447047336L602.3076923076923,332.8079738358512L605.7692307692308,359.6708673775562L609.2307692307693,333.23606889564337L612.6923076923077,338.44419889502757L616.1538461538462,342.738692267278L619.6153846153846,344.41769894894895L623.0769230769231,347.5941710200715L626.5384615384615,360.9353336338077L630,340.5630039161484L633.4615384615385,367.8074146580203L636.9230769230769,333.337039868418L640.3846153846154,342.0988475177305L643.8461538461538,348.11255300012846L647.3076923076923,352.1170044199817L650.7692307692307,345.4788833820477L654.2307692307692,348.5009629123438L657.6923076923076,329.60588637014513L661.1538461538462,364.6833617909316L664.6153846153846,331.21976325270197L668.0769230769231,337.46558872305144L671.5384615384615,340.79889807162533L675,341.1867155125819L678.4615384615385,351.4663013281577L681.9230769230769,349.2672823319271L685.3846153846154,326.5940557504154L688.8461538461538,360.4806631799907L692.3076923076924,332.04082436852264L695.7692307692308,342.7796191225212L699.2307692307693,340.82534700816376L702.6923076923077,341.0825294748124L706.1538461538462,340.7387862796834L709.6153846153846,347.5574636490522L713.0769230769231,337.66359388352515L716.5384615384615,353.00239051930214L720,327.83895796329193L723.4615384615385,342.49605548331164L726.9230769230769,336.600790513834L730.3846153846154,354.8839770059105L733.8461538461538,347.3636874648679L737.3076923076923,356.2540886465987L740.7692307692307,329.2815912094026L744.2307692307692,357.2816283666914L747.6923076923077,347.9176201372998L751.1538461538462,348.8823012736056L754.6153846153846,341.4404813339094L758.0769230769231,342.2796453463563L761.5384615384615,346.6826760259844L765,357.6694977088988L768.4615384615385,326.32074084962517L771.9230769230769,383.95548229641844L775.3846153846155,335.887170436425L778.8461538461539,352.7472527472528L782.3076923076924,348.4851908175827L785.7692307692308,347.31943002192224L789.2307692307692,356.8L792.6923076923076,360.47582584397964L796.1538461538461,330.20730207302074L799.6153846153845,375.299843947388L803.0769230769231,345.374907820957L806.5384615384615,363.9276624589137L810,368.7984799374091L813.4615384615385,354.9879297970901L816.9230769230769,356.3886637592786L820.3846153846154,373.92499467291714L823.8461538461538,351.4940837946296L827.3076923076923,370.66340749137976L830.7692307692308,345.00996054841613L834.2307692307693,352.81587182375773L837.6923076923077,370.4802084053761L841.1538461538462,352.89960491821444L844.6153846153846,357.01633716254344L848.0769230769231,387.9746506674978L851.5384615384615,336.53657037492314L855,388.9971212629822L858.4615384615385,374.4043843182946L861.9230769230769,392.09479850878745L865.3846153846154,365.0635710337203L868.8461538461538,379.54448149520397L872.3076923076923,374.8859904288262L875.7692307692307,372.84715263861057L879.2307692307692,381.2406254986437L882.6923076923076,395.9096070231799L886.1538461538462,362.04865338202944" style="fill: none; stroke: #ff7f0e; stroke-width: 2;"></path></g></g><path class="foreground" d="" style="display: none; fill: none;"></path></g><g transform="translate(0,0)"><path class="background" d="M0,0h900v600h-900Z" style="fill: none;"></path><g><g class="mark-line role-mark marks"><path d="M6.923076923076923,573.0489863187784L10.384615384615385,561.3856865654606L13.846153846153847,553.1099746025119L17.30769230769231,550.2719433212867L20.76923076923077,547.2319416121069L24.230769230769234,541.6334982427078L27.692307692307693,402.19088201603665L31.153846153846157,444.4657784518865L34.61538461538462,464.1863391574669L38.07692307692308,483.60075903207934L41.53846153846154,474.35245046923876L45,481.9479701143217L48.46153846153847,483.49073875538113L51.92307692307693,496.329697770165L55.38461538461539,337.02295561739766L58.84615384615385,387.5269694497326L62.307692307692314,404.8959836180016L65.76923076923077,417.68700582369513L69.23076923076924,430.4384755047495L72.6923076923077,442.2131379770915L76.15384615384616,459.1107833413863L79.61538461538461,463.4932900955601L83.07692307692308,301.9500839153267L86.53846153846155,349.708672171614L90,375.5822230621437L93.46153846153847,420.4327065564593L96.92307692307693,395.61606914658796L100.38461538461539,442.92198448741357L103.84615384615385,414.23298304391443L107.3076923076923,437.8593952185329L110.76923076923077,283.2169042949772L114.23076923076923,324.7168557299118L117.6923076923077,358.3989066214144L121.15384615384615,371.39165641371955L124.61538461538463,409.58932457986936L128.07692307692307,396.34983856854046L131.53846153846155,427.7175637739534L135,437.66752577319585L138.46153846153848,271.00090716661623L141.9230769230769,310.31210450541215L145.3846153846154,328.4387469224892L148.84615384615384,354.2605587923236L152.30769230769232,379.3573720250922L155.76923076923077,401.1092815668602L159.23076923076923,392.76414333448554L162.69230769230768,414.8411113576412L166.15384615384616,336.7983139375057L169.6153846153846,352.42167834288665L173.0769230769231,357.8968355692273L176.53846153846155,373.0715935334873L180,386.5923862581244L183.46153846153845,385.4328143604952L186.92307692307693,384.77368935200263L190.3846153846154,422.4857177376206L193.84615384615387,360.43857284083754L197.3076923076923,346.3176024801929L200.76923076923077,377.9796568056526L204.23076923076923,366.57396998205235L207.6923076923077,376.9272826681247L211.15384615384616,395.22956568653905L214.6153846153846,405.37674972699295L218.07692307692307,407.84222517562176L221.53846153846155,328.46669786304784L225,360.98169717138103L228.46153846153845,353.02279043913285L231.9230769230769,358.83387759401666L235.3846153846154,360.2440016266775L238.84615384615384,376.99210139603235L242.3076923076923,370.9860703812317L245.76923076923075,409.51283666135663L249.23076923076925,352.0896432087768L252.6923076923077,356.5576854174131L256.15384615384613,363.97549123177686L259.6153846153846,360.03764115432875L263.0769230769231,372.9227211408749L266.53846153846155,374.7055098163395L270,363.9528337771016L273.46153846153845,392.34075868227575L276.92307692307696,339.8892297884209L280.3846153846154,341.3134905295709L283.8461538461538,352.26841128584397L287.30769230769226,356.5850870355937L290.7692307692308,354.9624636126858L294.2307692307692,380.12732297295787L297.6923076923077,370.45470623809035L301.15384615384613,377.7956223287139L304.61538461538464,323.7695071733942L308.0769230769231,347.78019713891035L311.53846153846155,338.5639528674664L315,346.8694020206106L318.46153846153845,363.1556793999036L321.9230769230769,362.0907735515412L325.38461538461536,362.66612495485737L328.8461538461538,396.8889624358762L332.3076923076923,334.27126729209726L335.7692307692308,332.06361171309817L339.2307692307692,351.1700413672981L342.6923076923077,363.61353479463713L346.1538461538462,351.32955103490787L349.61538461538464,357.17006231183916L353.0769230769231,354.50343535290443L356.53846153846155,381.7342369599419L360,338.96649630891534L363.46153846153845,335.1070595717617L366.9230769230769,331.91298245614036L370.38461538461536,353.78494623655916L373.84615384615387,354.7458256029685L377.3076923076923,351.8100270336692L380.7692307692308,349.90121280282074L384.2307692307692,375.0966370313105L387.69230769230774,316.9994359842076L391.1538461538462,332.86610878661094L394.6153846153846,331.8460978274063L398.07692307692304,355.6754583292581L401.53846153846155,348.7870501542955L405,366.13404082124873L408.46153846153845,354.20495727028236L411.9230769230769,376.5133739483609L415.3846153846154,334.7290400182049L418.84615384615387,345.9560699777492L422.3076923076923,340.38824591644095L425.7692307692308,342.92782392275626L429.2307692307692,348.88126735260494L432.6923076923077,355.3337247993736L436.15384615384613,349.6653913043479L439.6153846153846,368.4669622123707L443.0769230769231,343.1560504414782L446.53846153846155,338.00375078141275L450,338.20832621447687L453.46153846153845,353.26186700496885L456.9230769230769,345.83692644314306L460.38461538461536,348.42311111111115L463.8461538461538,344.9538371558675L467.3076923076923,359.98373164968814L470.7692307692308,326.3071767419593L474.2307692307692,342.0902881623085L477.6923076923077,336.060655470406L481.15384615384613,348.91487979207284L484.6153846153846,337.59647188533626L488.07692307692304,361.7195431472081L491.5384615384615,342.0513206411317L495.00000000000006,364.02063605199737L498.4615384615385,323.5308419277676L501.92307692307696,376.80467091295117L505.3846153846154,339.78744793910664L508.8461538461538,347.5237113402062L512.3076923076923,347.3329940627651L515.7692307692307,355.2180821740118L519.2307692307692,334.4026663889178L522.6923076923077,360.8852287097869L526.1538461538462,324.286265838335L529.6153846153846,339.9764775066157L533.0769230769231,339.1485507246377L536.5384615384615,342.49732047159705L540,343.1716174690381L543.4615384615385,349.6142929700337L546.9230769230769,337.98357720565537L550.3846153846155,359.0058036840777L553.8461538461539,323.55089725266L557.3076923076924,333.51656990807936L560.7692307692308,333.79396760046546L564.2307692307692,342.7464046703688L567.6923076923076,339.0004852013585L571.1538461538461,348.4920117378546L574.6153846153845,336.5879442195232L578.0769230769231,357.85234556551495L581.5384615384615,323.1024930747923L585,338.5791202282884L588.4615384615385,331.903631551663L591.9230769230769,345.11767420396865L595.3846153846154,339.2196209587514L598.8461538461538,347.26523110548146L602.3076923076923,329.7140606538007L605.7692307692308,356.96146394977006L609.2307692307693,326.92802323169474L612.6923076923077,331.643866676744L616.1538461538462,335.71404038173745L619.6153846153846,339.03605222182296L623.0769230769231,343.073047858942L626.5384615384615,355.14947683109125L630,336.6685372240928L633.4615384615385,359.12800660024106L636.9230769230769,327.7169079383101L640.3846153846154,335.4138244656662L643.8461538461538,340.83680348998615L647.3076923076923,347.038148124508L650.7692307692307,342.30228169497343L654.2307692307692,344.82319571383556L657.6923076923076,327.4443186107965L661.1538461538462,360.0677034973693L664.6153846153846,324.5569620253164L668.0769230769231,330.6652205350687L671.5384615384615,333.5282480581412L675,337.0010984987184L678.4615384615385,346.01485629837043L681.9230769230769,345.4214659180799L685.3846153846154,323.61781537695947L688.8461538461538,356.45141451414514L692.3076923076924,326.09912794795883L695.7692307692308,340.5202312138729L699.2307692307693,334.33369717163595L702.6923076923077,336.39141314368493L706.1538461538462,336.5536502262191L709.6153846153846,342.5634650379259L713.0769230769231,335.5285491705618L716.5384615384615,350.48964702255563L720,322.4154589371981L723.4615384615385,337.4011599122993L726.9230769230769,329.64786065884135L730.3846153846154,348.6443492411411L733.8461538461538,342.54974307135035L737.3076923076923,347.3555424528302L740.7692307692307,326.05228896161026L744.2307692307692,353.7447901977375L747.6923076923077,345.2088854623428L751.1538461538462,343.72102702010494L754.6153846153846,335.9777777777778L758.0769230769231,337.7916063675832L761.5384615384615,345.2710442401164L765,360.054040776222L768.4615384615385,323.8035899718143L771.9230769230769,379.2765201952951L775.3846153846155,336.60892388451447L778.8461538461539,351.18175116006773L782.3076923076924,345.07361900148265L785.7692307692308,343.9066245687891L789.2307692307692,346.64487830050746L792.6923076923076,354.9957402368978L796.1538461538461,328.85290880858696L799.6153846153845,369.6861908751619L803.0769230769231,339.22480620155045L806.5384615384615,356.9234618626211L810,355.9125235997483L813.4615384615385,350.03660955575964L816.9230769230769,353.20743897512085L820.3846153846154,365.66958698372963L823.8461538461538,349.2714679997917L827.3076923076923,369.0269254554969L830.7692307692308,346.9865509088795L834.2307692307693,342.7298783188723L837.6923076923077,367.27723235156617L841.1538461538462,350.20641260124677L844.6153846153846,350.7512344082844L848.0769230769231,383.3561563856777L851.5384615384615,336.83984345023407L855,382.90884353741495L858.4615384615385,363.4408018280957L861.9230769230769,386.05590062111804L865.3846153846154,362.1685749141009L868.8461538461538,373.6674380025571L872.3076923076923,371.9832720821189L875.7692307692307,373.0461352354733L879.2307692307692,375.8350195188751L882.6923076923076,394.0790209008606L886.1538461538462,357.39299907452767" style="fill: none; stroke: #1f77b4; stroke-width: 2;"></path></g></g><path class="foreground" d="" style="display: none; fill: none;"></path></g><g transform="translate(0,0)"><path class="background" d="M0,0h900v600h-900Z" style="fill: none;"></path><g><g class="mark-line role-mark marks"><path d="M6.923076923076923,575.0594121325829L10.384615384615385,565.2300524170064L13.846153846153847,557.1949736522091L17.30769230769231,550.4639098858752L20.76923076923077,543.898702693536L24.230769230769234,536.5053070447638L27.692307692307693,426.2034059495313L31.153846153846157,482.5689819219791L34.61538461538462,480.12796247225873L38.07692307692308,498.04429716486817L41.53846153846154,489.50269768804475L45,491.40257101941586L48.46153846153847,494.84745357931814L51.92307692307693,495.64527275083145L55.38461538461539,409.24410552215215L58.84615384615385,444.0517393984898L62.307692307692314,458.84111016058995L65.76923076923077,462.2220820825871L69.23076923076924,468.438377514141L72.6923076923077,468.76681097420396L76.15384615384616,471.13598085973774L79.61538461538461,478.40987416847L83.07692307692308,336.9950108172546L86.53846153846155,391.10346522487094L90,407.9168285885013L93.46153846153847,436.89061632426433L96.92307692307693,429.3773018984902L100.38461538461539,448.19224383702044L103.84615384615385,436.3015630623183L107.3076923076923,443.42729753942956L110.76923076923077,343.27366915953615L114.23076923076923,377.8494355989162L117.6923076923077,394.2618208033601L121.15384615384615,401.242650988776L124.61538461538463,421.6352317270003L128.07692307692307,414.1431081296917L131.53846153846155,429.0434007465597L135,432.2988617569803L138.46153846153848,304.9255102103712L141.9230769230769,360.1696194149939L145.3846153846154,364.614064891595L148.84615384615384,387.8136266703487L152.30769230769232,393.1818895905992L155.76923076923077,413.01939058171746L159.23076923076923,410.45421013805463L162.69230769230768,428.32521886214533L166.15384615384616,345.9675065667867L169.6153846153846,373.2955649976395L173.0769230769231,379.79845081733635L176.53846153846155,390.62433411463877L180,403.58073751228477L183.46153846153845,400.96696884443054L186.92307692307693,397.9333537144604L190.3846153846154,424.7183734683096L193.84615384615387,354.63352893798185L197.3076923076923,359.8982785602504L200.76923076923077,389.90834113994964L204.23076923076923,380.72847191344306L207.6923076923077,389.85320628380117L211.15384615384616,405.0030826140567L214.6153846153846,406.5577976219844L218.07692307692307,404.3882875918052L221.53846153846155,329.9986428585277L225,370.5882352941177L228.46153846153845,367.55846194088406L231.9230769230769,368.01033591731266L235.3846153846154,374.38507534082754L238.84615384615384,389.1167274622199L242.3076923076923,381.26914660831505L245.76923076923075,400.0847589424572L249.23076923076925,341.23128119800333L252.6923076923077,362.86624203821657L256.15384615384613,368.88778550148965L259.6153846153846,370.35302593659947L263.0769230769231,381.5589110425183L266.53846153846155,377.4528393017319L270,374.75867701102493L273.46153846153845,394.3183938545793L276.92307692307696,336.69987496470776L280.3846153846154,347.69190167395567L283.8461538461538,355.46802508256116L287.30769230769226,358.95235154883187L290.7692307692308,362.33598335686156L294.2307692307692,380.26745382172726L297.6923076923077,369.0633789073711L301.15384615384613,377.46416758544655L304.61538461538464,311.8905758446177L308.0769230769231,344.86814214832975L311.53846153846155,341.7539911386173L315,352.0194647201947L318.46153846153845,367.4215187096625L321.9230769230769,368.6835451572666L325.38461538461536,363.9289643250039L328.8461538461538,387.6428599675723L332.3076923076923,327.68975069252076L335.7692307692308,332.42738167783875L339.2307692307692,351.18629307904996L342.6923076923077,362.23289095468164L346.1538461538462,358.7992662633141L349.61538461538464,361.4574859006858L353.0769230769231,353.2558070012855L356.53846153846155,376.00074520275723L360,323.21236949345723L363.46153846153845,336.04237083534525L366.9230769230769,333.8659660436695L370.38461538461536,350.43051771117166L373.84615384615387,355.9156793352824L377.3076923076923,350.42229155725806L380.7692307692308,348.98563104426614L384.2307692307692,372.0121473354232L387.69230769230774,304.08643076618097L391.1538461538462,332.39683175640266L394.6153846153846,332.4063588190765L398.07692307692304,352.84721764175623L401.53846153846155,348.93593669399536L405,361.6280499047384L408.46153846153845,352.8886105021401L411.9230769230769,368.5710715041049L415.3846153846154,316.82234882443106L418.84615384615387,339.34757566237306L422.3076923076923,340.39623667497716L425.7692307692308,341.1816205772249L429.2307692307692,349.2786985880909L432.6923076923077,349.6436103158614L436.15384615384613,344.81012658227843L439.6153846153846,363.46359558316084L443.0769230769231,328.6095683523336L446.53846153846155,333.23243396159694L450,333.8336112655179L453.46153846153845,347.28257103257107L456.9230769230769,346.0167202572347L460.38461538461536,346.9704236610712L463.8461538461538,342.61514787411204L467.3076923076923,354.83679525222544L470.7692307692308,311.92010811058424L474.2307692307692,333.2723092998956L477.6923076923077,328.96493265940416L481.15384615384613,342.81027327538953L484.6153846153846,336.99581656010736L488.07692307692304,352.45220830586686L491.5384615384615,338.3297709923664L495.00000000000006,356.0726941023752L498.4615384615385,313.2533452637573L501.92307692307696,359.47982907708354L505.3846153846154,332.40880224486784L508.8461538461538,339.04954714970705L512.3076923076923,340.0300205955249L515.7692307692307,347.9601990049751L519.2307692307692,334.56854377016754L522.6923076923077,354.2684163813871L526.1538461538462,307.4244850832433L529.6153846153846,328.89638258736977L533.0769230769231,331.7819246249543L536.5384615384615,334.82339955849886L540,336.4220183486238L543.4615384615385,344.7411062378168L546.9230769230769,330.80367903583885L550.3846153846155,348.9986859395532L553.8461538461539,308.93525949705725L557.3076923076924,324.5205051262816L560.7692307692308,328.6204379562044L564.2307692307692,335.5621908023769L567.6923076923076,334.8688063552811L571.1538461538461,341.4313248973435L574.6153846153845,329.702844613698L578.0769230769231,347.68473430722975L581.5384615384615,302.3615892807295L585,328.94713336682855L588.4615384615385,325.68397543271914L591.9230769230769,335.57966967206573L595.3846153846154,332.22160104358005L598.8461538461538,340.00051101231537L602.3076923076923,324.9033913252626L605.7692307692308,346.3768115942028L609.2307692307693,309.69872377959695L612.6923076923077,322.62948207171314L616.1538461538462,326.8689941938592L619.6153846153846,331.3123689727463L623.0769230769231,335.48480046102867L626.5384615384615,346.5588168373152L630,326.63996698949006L633.4615384615385,348.697609746408L636.9230769230769,308.0120741699008L640.3846153846154,324.3972336696509L643.8461538461538,327.1861953799054L647.3076923076923,338.83668314113123L650.7692307692307,331.50657997631663L654.2307692307692,335.98669623059857L657.6923076923076,322.20713380409194L661.1538461538462,345.7405243629953L664.6153846153846,306.25606412149335L668.0769230769231,318.6756408547692L671.5384615384615,325.0426523990631L675,326.3809523809524L678.4615384615385,335.0083181172652L681.9230769230769,340.8159497151836L685.3846153846154,318.8610478359908L688.8461538461538,345.64390289978274L692.3076923076924,307.14900947459086L695.7692307692308,332.78202509483515L699.2307692307693,324.32468951813223L702.6923076923077,325.45098269747024L706.1538461538462,330.88668264293057L709.6153846153846,332.93521737505137L713.0769230769231,328.6802813193425L716.5384615384615,339.68265880461L720,301.92988855116516L723.4615384615385,333.39903423268174L726.9230769230769,321.5133448487212L730.3846153846154,337.6260551540048L733.8461538461538,343.7671244361722L737.3076923076923,339.11309554010853L740.7692307692307,319.538888288483L744.2307692307692,345.6877022653722L747.6923076923077,337.74030354131537L751.1538461538462,337.6872286393053L754.6153846153846,330.68386752670966L758.0769230769231,324.0682268135439L761.5384615384615,344.3688445645758L765,349.19287116749734L768.4615384615385,323.5985748218527L771.9230769230769,370.23305746939L775.3846153846155,316.2793327678824L778.8461538461539,340.23181056730203L782.3076923076924,336.3899388253867L785.7692307692308,340.13468013468014L789.2307692307692,355.802039293708L792.6923076923076,357.70258333673064L796.1538461538461,324.200325083571L799.6153846153845,366.5207319898077L803.0769230769231,332.5710945491743L806.5384615384615,347.01889999040606L810,352.5547270624825L813.4615384615385,342.77357663433617L816.9230769230769,343.9056583360381L820.3846153846154,373.40191506781053L823.8461538461538,354.83470180128575L827.3076923076923,360.25947734202373L830.7692307692308,329.2746651184009L834.2307692307693,331.9059449625979L837.6923076923077,364.9697828139755L841.1538461538462,340.0574868906584L844.6153846153846,354.6751987589684L848.0769230769231,385.71053571053574L851.5384615384615,335.56138186304753L855,380.182694855084L858.4615384615385,358.0039809285747L861.9230769230769,386.53036424947595L865.3846153846154,359.8870056497175L868.8461538461538,372.51367338919516L872.3076923076923,370.1261618065093L875.7692307692307,368.8665859512734L879.2307692307692,371.54152996927564L882.6923076923076,396.9499090758803L886.1538461538462,350.4564798638176" style="fill: none; stroke: #aec7e8; stroke-width: 2;"></path></g></g><path class="foreground" d="" style="display: none; fill: none;"></path></g><g transform="translate(0,0)"><path class="background" d="M0,0h900v600h-900Z" style="fill: none;"></path><g><g class="mark-line role-mark marks"><path d="M6.923076923076923,561.9556451612902L10.384615384615385,539.6227758007118L13.846153846153847,516.0353324035333L17.30769230769231,496.8207493076651L20.76923076923077,470.92141697698844L24.230769230769234,442.4620043423609L27.692307692307693,442.86402030723445L31.153846153846157,483.79290954504444L34.61538461538462,471.8360787464845L38.07692307692308,472.1873684632499L41.53846153846154,453.54816274487075L45,431.6263035421874L48.46153846153847,413.2364328509939L51.92307692307693,408.37276810635797L55.38461538461539,381.3567593948268L58.84615384615385,427.25226687784595L62.307692307692314,424.38574466449745L65.76923076923077,413.91539658565614L69.23076923076924,398.6776296433936L72.6923076923077,390.4897565290818L76.15384615384616,383.7434202472763L79.61538461538461,362.4114216070341L83.07692307692308,358.7875410392159L86.53846153846155,403.80918303338717L90,382.14121962402567L93.46153846153847,400.2417794970986L96.92307692307693,366.2784530195835L100.38461538461539,390.8305112437988L103.84615384615385,341.98014070149384L107.3076923076923,346.46726012922045L110.76923076923077,326.6715585327558L114.23076923076923,366.0761196311204L117.6923076923077,377.23816641753865L121.15384615384615,349.02523748759387L124.61538461538463,364.8673250002327L128.07692307692307,335.16794052383034L131.53846153846155,347.7737158824285L135,323.16209505793336L138.46153846153848,307.15890810533364L141.9230769230769,352.304358593363L145.3846153846154,340.5045665872135L148.84615384615384,333.7913694769019L152.30769230769232,344.57642349481256L155.76923076923077,350.5599104143337L159.23076923076923,328.2260501662133L162.69230769230768,350.27098919368245L166.15384615384616,350.6493506493507L169.6153846153846,367.90060275218923L173.0769230769231,363.4354735465197L176.53846153846155,364.10051216389235L180,363.75783739336015L183.46153846153845,353.99634237436567L186.92307692307693,333.1826255449701L190.3846153846154,367.68087461317793L193.84615384615387,364.6736851398177L197.3076923076923,358.10011824990147L200.76923076923077,378.82971729125575L204.23076923076923,356.8185087016376L207.6923076923077,359.14994096812285L211.15384615384616,367.7278401997503L214.6153846153846,352.3008111591236L218.07692307692307,342.4891229677124L221.53846153846155,337.584322592802L225,373.4822601839685L228.46153846153845,355.6577210734712L231.9230769230769,347.8367661636744L235.3846153846154,341.3785162033229L238.84615384615384,351.2309820193638L242.3076923076923,327.6294277929156L245.76923076923075,349.0081030947964L249.23076923076925,354.1300102297033L252.6923076923077,366.82338810003864L256.15384615384613,361.7200631372382L259.6153846153846,351.7738167344466L263.0769230769231,356.29700103412625L266.53846153846155,346.31570116196156L270,321.6559766763848L273.46153846153845,346.4725795531483L276.92307692307696,346.4952817366315L280.3846153846154,350.532319391635L283.8461538461538,349.90044852860734L287.30769230769226,345.32001359157323L290.7692307692308,336.56825200741196L294.2307692307692,353.8361329274861L297.6923076923077,324.2152306532318L301.15384615384613,329.7991967871486L304.61538461538464,329.11934156378607L308.0769230769231,351.43783384672184L311.53846153846155,340.21012416427885L315,337.83628385534877L318.46153846153845,345.58988639879766L321.9230769230769,341.19603960396034L325.38461538461536,326.1747046290916L328.8461538461538,347.9464432396912L332.3076923076923,339.39190875066834L335.7692307692308,341.1853495602325L339.2307692307692,347.6677154054204L342.6923076923077,352.10546451571764L346.1538461538462,336.346516007533L349.61538461538464,335.6678425224283L353.0769230769231,313.03966901922604L356.53846153846155,339.0564477790868L360,338.79963065558627L363.46153846153845,345.20057097911274L366.9230769230769,331.1123847445527L370.38461538461536,342.9314842331187L373.84615384615387,339.2148352732294L377.3076923076923,329.0016579933489L380.7692307692308,311.15056319521756L384.2307692307692,338.6035192811681L387.69230769230774,320.5870020964361L391.1538461538462,339.08711199254793L394.6153846153846,332.89164273840106L398.07692307692304,345.5867375806269L401.53846153846155,331.88150145046444L405,343.6601566372558L408.46153846153845,319.84732372695805L411.9230769230769,337.66495581200206L415.3846153846154,333.7249143416544L418.84615384615387,347.8247213779129L422.3076923076923,340.34029103298235L425.7692307692308,336.8358044018786L429.2307692307692,336.23943008213763L432.6923076923077,333.2921661947507L436.15384615384613,317.12992076468373L439.6153846153846,333.6587403349263L443.0769230769231,341.4033377434255L446.53846153846155,343.1682157083036L450,336.4250409972363L453.46153846153845,344.4182353778596L456.9230769230769,333.99966324297014L460.38461538461536,330.6072720350276L463.8461538461538,313.065200277298L467.3076923076923,325.46934706761914L470.7692307692308,328.35541732810657L474.2307692307692,343.6958791870833L477.6923076923077,332.0632293304643L481.15384615384613,339.04024152862195L484.6153846153846,325.4901960784313L488.07692307692304,339.72738824073L491.5384615384615,310.020831350654L495.00000000000006,331.37083687504827L498.4615384615385,326.5547065896133L501.92307692307696,362.12106086319926L505.3846153846154,336.0343822843823L508.8461538461538,337.93258426966287L512.3076923076923,331.1616489784131L515.7692307692307,336.5602205702719L519.2307692307692,308.3603370058327L522.6923076923077,330.54084115397984L526.1538461538462,325.3562687923922L529.6153846153846,342.1498687919137L533.0769230769231,335.24297346992387L536.5384615384615,333.47363612633774L540,328.74901652242323L543.4615384615385,333.4904280353622L546.9230769230769,309.0143645651205L550.3846153846155,327.5926982316029L553.8461538461539,324.23407153946073L557.3076923076924,334.35994815685564L560.7692307692308,334.38828362207533L564.2307692307692,335.39953134153484L567.6923076923076,327.5461804314146L571.1538461538461,331.20480878125267L574.6153846153845,309.40603579293446L578.0769230769231,327.80284762888965L581.5384615384615,321.22014990413106L585,338.60023150017497L588.4615384615385,332.3636759819143L591.9230769230769,335.89576028052284L595.3846153846154,326.14119632987547L598.8461538461538,330.45507522780247L602.3076923076923,304.1744978015347L605.7692307692308,326.942543204049L609.2307692307693,325.6047105413996L612.6923076923077,333.73678290213724L616.1538461538462,331.80571115592403L619.6153846153846,332.44080950977497L623.0769230769231,331.22529644268775L626.5384615384615,336.93401350904537L630,308.4909665061862L633.4615384615385,331.4687986415735L636.9230769230769,325.73171312842504L640.3846153846154,336.3490121442813L643.8461538461538,338.67768595041326L647.3076923076923,341.814115092291L650.7692307692307,328.44869274399474L654.2307692307692,328.7154057495141L657.6923076923076,303.096274794388L661.1538461538462,328.2071171881848L664.6153846153846,322.6185101580136L668.0769230769231,330.85410689618533L671.5384615384615,330.71885521885525L675,329.4387242591663L678.4615384615385,331.4781464577937L681.9230769230769,328.91504879301493L685.3846153846154,302.0240091207833L688.8461538461538,335.91566146905956L692.3076923076924,324.5346458447266L695.7692307692308,347.042704822938L699.2307692307693,330.6195996194249L702.6923076923077,328.76744681262943L706.1538461538462,328.6572316189161L709.6153846153846,326.4625928478444L713.0769230769231,313.38418752483113L716.5384615384615,324.2194332443637L720,318.8017816520426L723.4615384615385,344.6082679873434L726.9230769230769,331.88133683815244L730.3846153846154,340.5002400054858L733.8461538461538,343.509072292999L737.3076923076923,339.7337517716136L740.7692307692307,302.7198961376177L744.2307692307692,333.379137191036L747.6923076923077,344.9631023006801L751.1538461538462,356.26811594202894L754.6153846153846,342.1460487680327L758.0769230769231,329.29030330195724L761.5384615384615,344.7376176958754L765,350.5829165352439L768.4615384615385,320.82171240065975L771.9230769230769,361.70338111144L775.3846153846155,334.7785395581674L778.8461538461539,356.44182196374754L782.3076923076924,347.6408870288023L785.7692307692308,345.9674916989284L789.2307692307692,343.23294835476145L792.6923076923076,355.8111124806551L796.1538461538461,310.0482017055988L799.6153846153845,356.5484481301075L803.0769230769231,338.18389916591553L806.5384615384615,361.0488433207762L810,363.5390946502058L813.4615384615385,345.7515808858377L816.9230769230769,348.24658663369627L820.3846153846154,366.27184608606257L823.8461538461538,348.2785031826321L827.3076923076923,354.1876771972458L830.7692307692308,342.11898554159757L834.2307692307693,346.9334768623531L837.6923076923077,372.82906070666627L841.1538461538462,350.5044178503523L844.6153846153846,353.7440389294404L848.0769230769231,385.1691614560307L851.5384615384615,329.12796208530807L855,373.84118884854826L858.4615384615385,368.6694101508916L861.9230769230769,389.3398489027461L865.3846153846154,362.7977585783493L868.8461538461538,370.7534407842634L872.3076923076923,368.603671671543L875.7692307692307,366.0338859145542L879.2307692307692,373.2419496562774L882.6923076923076,384.99533201073643L886.1538461538462,361.43722832487526" style="fill: none; stroke: #2ca02c; stroke-width: 2;"></path></g></g><path class="foreground" d="" style="display: none; fill: none;"></path></g><g transform="translate(0,0)"><path class="background" d="M0,0h900v600h-900Z" style="fill: none;"></path><g><g class="mark-line role-mark marks"><path d="M6.923076923076923,571.3871321359305L10.384615384615385,559.9574317133735L13.846153846153847,552.8127104045889L17.30769230769231,567.6922771727271L20.76923076923077,560.8239055582882L24.230769230769234,553.8329315649413L27.692307692307693,546.5120615708014L31.153846153846157,550.4175219144671L34.61538461538462,546.5214761040532L38.07692307692308,544.7595462307535L41.53846153846154,543.746327317129L45,554.6874157908919L48.46153846153847,551.5255977106988L51.92307692307693,548.4880669748844L55.38461538461539,537.0442496071433L58.84615384615385,540.4664288514563L62.307692307692314,538.2503344162049L65.76923076923077,539.7151277013752L69.23076923076924,539.9578547472769L72.6923076923077,546.7653432254748L76.15384615384616,544.6996555490213L79.61538461538461,542.040474349059L83.07692307692308,536.2997658079626L86.53846153846155,539.1257018448493L90,537.3664704599956L93.46153846153847,536.0674765921226L96.92307692307693,536.7051336847604L100.38461538461539,544.1763304829956L103.84615384615385,542.0289855072464L107.3076923076923,540.5721976682854L110.76923076923077,534.0006066120716L114.23076923076923,535.2499868842139L117.6923076923077,535.0347107438016L121.15384615384615,534.2126046438161L124.61538461538463,535.2824831097621L128.07692307692307,540.5264278717152L131.53846153846155,538.5583180377107L135,537.0646221248631L138.46153846153848,532.4083661213502L141.9230769230769,535.2142371344366L145.3846153846154,534.4067588073658L148.84615384615384,534.069034228707L152.30769230769232,534.0655598126863L155.76923076923077,539.0498954287422L159.23076923076923,538.3434031795003L162.69230769230768,536.8093810800863L166.15384615384616,532.6054974835463L169.6153846153846,534.0787910249755L173.0769230769231,534.0625242417191L176.53846153846155,533.3895022273872L180,533.8460747730801L183.46153846153845,537.8074431022694L186.92307692307693,536.9794050343249L190.3846153846154,536.5515114127082L193.84615384615387,532.0563308481488L197.3076923076923,534.9434628975265L200.76923076923077,533.5988388969521L204.23076923076923,533.1673160539839L207.6923076923077,533.1563943772732L211.15384615384616,537.063347560915L214.6153846153846,540.7133217659534L218.07692307692307,535.3298061993214L221.53846153846155,535.0977513689852L225,533.3194076962354L228.46153846153845,533.5334904072703L231.9230769230769,532.6689606493736L235.3846153846154,533.0903210018407L238.84615384615384,536.4502198492462L242.3076923076923,535.5088452754229L245.76923076923075,538.1494713290751L249.23076923076925,532.4974148826165L252.6923076923077,534.1883694744106L256.15384615384613,532.7321338246983L259.6153846153846,532.4324324324325L263.0769230769231,532.7014153044789L266.53846153846155,536.6559829059829L270,535.1223184042153L273.46153846153845,535.1029146404869L276.92307692307696,532.3383084577115L280.3846153846154,532.7259567538225L283.8461538461538,532.8173028887126L287.30769230769226,532.7342695499842L290.7692307692308,532.1500084846429L294.2307692307692,535.1059333227664L297.6923076923077,534.5248138311722L301.15384615384613,534.0290702145659L304.61538461538464,531.8009687362395L308.0769230769231,532.4316322946461L311.53846153846155,532.415519399249L315,534.5664551813893L318.46153846153845,532.2082449941107L321.9230769230769,535.9207687781918L325.38461538461536,534.9604901387717L328.8461538461538,534.1042820942318L332.3076923076923,531.7065515888584L335.7692307692308,531.9840966109623L339.2307692307692,531.9971677287683L342.6923076923077,531.9625137816979L346.1538461538462,532.2574217971708L349.61538461538464,534.5608573423143L353.0769230769231,534.5587745587745L356.53846153846155,534.5301751520102L360,531.6905358967215L363.46153846153845,532.1698061994463L366.9230769230769,532.1425272656222L370.38461538461536,531.6933389485506L373.84615384615387,532.465515479718L377.3076923076923,535.431412039257L380.7692307692308,534.8782727071263L384.2307692307692,532.9630340854536L387.69230769230774,533.8888888888889L391.1538461538462,532.3728523139711L394.6153846153846,533.4802637521452L398.07692307692304,532.8539856046352L401.53846153846155,532.9517109987543L405,534.4590427104896L408.46153846153845,534.1380077907625L411.9230769230769,533.181509083087L415.3846153846154,532.6843755155915L418.84615384615387,532.7341765309983L422.3076923076923,532.9656122503047L425.7692307692308,532.7230636427843L429.2307692307692,533.2638888888889L432.6923076923077,534.4305797262438L436.15384615384613,542.5773919703836L439.6153846153846,532.4106735687434L443.0769230769231,551.5422288333899L446.53846153846155,533.3081084903993L450,534.410885099194L453.46153846153845,533.7405603061584L456.9230769230769,534.1101101101101L460.38461538461536,536.1156963343L463.8461538461538,535.716797759316L467.3076923076923,536.4676571006736L470.7692307692308,535.0212853895433L474.2307692307692,535.2878423737236L477.6923076923077,535.0529610014444L481.15384615384613,536.3732868419778L484.6153846153846,537.0637956273315L488.07692307692304,537.8089980678996L491.5384615384615,537.9765685077125L495.00000000000006,536.2538966516302L498.4615384615385,538.6674322102461L501.92307692307696,536.7613234253362L505.3846153846154,531.7990702576553L508.8461538461538,536.1685823754789L512.3076923076923,535.9895484159318L515.7692307692307,537.996221455561L519.2307692307692,538.1848152816833L522.6923076923077,538.1287809861291L526.1538461538462,537.1757159880675L529.6153846153846,536.7107993988407L533.0769230769231,537.534840843772L536.5384615384615,537.8901586867097L540,537.5802290318201L543.4615384615385,539.3615374040389L546.9230769230769,546.9998626253544L550.3846153846155,538.7925914849075L553.8461538461539,542.2907342947124L557.3076923076924,532.3138718645838L560.7692307692308,537.6583525466359L564.2307692307692,538.1401209332265L567.6923076923076,537.6579745713603L571.1538461538461,539.3131797887614L574.6153846153845,539.2019519665673L578.0769230769231,538.5844101169079L581.5384615384615,538.2772460635999L585,545.6218571156581L588.4615384615385,540.9296397826192L591.9230769230769,541.2727272727273L595.3846153846154,537.641056162082L598.8461538461538,539.2645514014229L602.3076923076923,542.466800804829L605.7692307692308,538.7049300956586L609.2307692307693,540.4536716647443L612.6923076923077,538.1672848858472L616.1538461538462,538.1878482203823L619.6153846153846,534.8806876599001L623.0769230769231,537.6273950264982L626.5384615384615,541.8840262125386L630,540.0961681666347L633.4615384615385,540.3282760789247L636.9230769230769,538.1426191627706L640.3846153846154,538.034836600263L643.8461538461538,540.1410643949803L647.3076923076923,538.3253188917765L650.7692307692307,537.82455051093L654.2307692307692,539.7158811704267L657.6923076923076,546.7475389067496L661.1538461538462,539.3793039406869L664.6153846153846,540.9531347164905L668.0769230769231,543.3477819379024L671.5384615384615,538.6474500045548L675,544.8736808442596L678.4615384615385,539.9324889857712L681.9230769230769,543.9721624226675L685.3846153846154,540.7196701845205L688.8461538461538,541.2980886610164L692.3076923076924,538.3605725215058L695.7692307692308,539.1200638213004L699.2307692307693,540.0464991659536L702.6923076923077,545.2819076853382L706.1538461538462,542.7396229163885L709.6153846153846,543.6604446126792L713.0769230769231,546.300737664039L716.5384615384615,542.2744454746452L720,542.9363250548922L723.4615384615385,542.3883283485978L726.9230769230769,541.0821643286573L730.3846153846154,542.4799838883125L733.8461538461538,542.5173415188311L737.3076923076923,543.2206983369774L740.7692307692307,542.2346874420331L744.2307692307692,543.8411623037398L747.6923076923077,546.4571266555956L751.1538461538462,543.8715060492282L754.6153846153846,544.7266806234007L758.0769230769231,543.4871027104582L761.5384615384615,545.513361742142L765,546.1283373884834L768.4615384615385,547.6319860489973L771.9230769230769,546.0736247193305L775.3846153846155,545.2014171958666L778.8461538461539,544.1556924694135L782.3076923076924,545.1835858585858L785.7692307692308,544.53247978522L789.2307692307692,545.3238424916244L792.6923076923076,546.1578368845726L796.1538461538461,543.2861611422229L799.6153846153845,545.7460437076112L803.0769230769231,545.5896484467913L806.5384615384615,546.1762587515565L810,545.9482623464855L813.4615384615385,545.4439534066113L816.9230769230769,546.1534699355661L820.3846153846154,548.5195099268125L823.8461538461538,547.5076793925172L827.3076923076923,547.9169616614104L830.7692307692308,546.9919042476309L834.2307692307693,545.4000669105307L837.6923076923077,546.7908726754797L841.1538461538462,546.5405047011176L844.6153846153846,547.0313354528922L848.0769230769231,551.0946403837951L851.5384615384615,545.4251179667544L855,548.9312347511811L858.4615384615385,549.3385856912012L861.9230769230769,550.4804121241165L865.3846153846154,548.2738056117445L868.8461538461538,550.4237980507743L872.3076923076923,549.5286048892691L875.7692307692307,550.0571187284714L879.2307692307692,548.380398358372L882.6923076923076,550.0572652295015L886.1538461538462,551.5649807409726" style="fill: none; stroke: #98df8a; stroke-width: 2;"></path></g></g><path class="foreground" d="" style="display: none; fill: none;"></path></g><g transform="translate(0,0)"><path class="background" d="M0,0h900v600h-900Z" style="fill: none;"></path><g><g class="mark-line role-mark marks"><path d="M6.923076923076923,577.5068774651155L10.384615384615385,543.762650002765L13.846153846153847,513.6714099258269L17.30769230769231,489.3853872687363L20.76923076923077,449.1471888818699L24.230769230769234,439.9936165273909L27.692307692307693,359.6634364558705L31.153846153846157,424.8688182029255L34.61538461538462,399.3468054705042L38.07692307692308,385.5753224305279L41.53846153846154,328.8660073160818L45,349.8833266228247L48.46153846153847,295.8620689655172L51.92307692307693,295.04267566494644L55.38461538461539,185.97924449979243L58.84615384615385,322.096983312137L62.307692307692314,281.623519834922L65.76923076923077,287.7822008216432L69.23076923076924,270.4195486444186L72.6923076923077,247.3378102092718L76.15384615384616,225.76481047792524L79.61538461538461,222.67396731491385L83.07692307692308,60.45653778510835L86.53846153846155,290.76723308035014L90,229.39122819475014L93.46153846153847,244.69445793160855L96.92307692307693,215.22430034469463L100.38461538461539,232.31081054591792L103.84615384615385,152.01332752778148L107.3076923076923,172.04512562232256L110.76923076923077,47.995941146626045L114.23076923076923,241.17263843648212L117.6923076923077,218.58000451365382L121.15384615384615,182.14337130414438L124.61538461538463,182.38193128120247L128.07692307692307,185.6728453241178L131.53846153846155,157.8213233300981L135,137.40149234192955L138.46153846153848,46.65351882451183L141.9230769230769,208.15103034672373L145.3846153846154,182.19435736677104L148.84615384615384,204.32404891304353L152.30769230769232,162.91713543548192L155.76923076923077,199.28536671469055L159.23076923076923,192.48916706788637L162.69230769230768,208.69031925978933L166.15384615384616,140.78698615080233L169.6153846153846,246.9984222520891L173.0769230769231,228.37001269074807L176.53846153846155,245.65788849347564L180,221.1633215269579L183.46153846153845,225.90677634155898L186.92307692307693,209.08583736449987L190.3846153846154,227.93281653746766L193.84615384615387,175.37236160892076L197.3076923076923,243.64656924416911L200.76923076923077,244.78399950309014L204.23076923076923,230.05126281570398L207.6923076923077,226.54462242562929L211.15384615384616,227.42880702064383L214.6153846153846,198.47619047619045L218.07692307692307,212.5915080527087L221.53846153846155,157.3862191711162L225,239.2153907976693L228.46153846153845,231.6645527120794L231.9230769230769,222.5025351833989L235.3846153846154,216.3030214282227L238.84615384615384,227.79885493550393L242.3076923076923,200.22076644350054L245.76923076923075,212.695184507265L249.23076923076925,146.63168454356054L252.6923076923077,229.49921272723546L256.15384615384613,217.6134729924009L259.6153846153846,222.62475581601845L263.0769230769231,206.36600521146522L266.53846153846155,215.87301587301587L270,188.61643100053692L273.46153846153845,217.75111687563052L276.92307692307696,147.7971737323358L280.3846153846154,224.4924755075245L283.8461538461538,208.69059165858386L287.30769230769226,225.81713616273498L290.7692307692308,201.65379825653793L294.2307692307692,231.72754984758376L297.6923076923077,191.20407499729052L301.15384615384613,207.78398699451338L304.61538461538464,159.6320454925572L308.0769230769231,222.19219078793552L311.53846153846155,219.17492509794886L315,225.80870952022326L318.46153846153845,192.65452486552797L321.9230769230769,208.24281717660645L325.38461538461536,189.5099289488067L328.8461538461538,211.76247311374465L332.3076923076923,144.95498112111534L335.7692307692308,230.9486637185156L339.2307692307692,206.33017199807097L342.6923076923077,219.80747015787446L346.1538461538462,201.5469354271651L349.61538461538464,212.65991009855654L353.0769230769231,201.57386896940116L356.53846153846155,213.3290453985099L360,146.31245630628777L363.46153846153845,223.1053465047885L366.9230769230769,209.00761210260347L370.38461538461536,218.9550449061499L373.84615384615387,180.6756542426645L377.3076923076923,209.6355619979465L380.7692307692308,192.75894923097863L384.2307692307692,218.18852963292093L387.69230769230774,141.29117259552044L391.1538461538462,213.21573344024233L394.6153846153846,211.96601462161627L398.07692307692304,216.17584293640627L401.53846153846155,181.28473533079358L405,217.3787126096607L408.46153846153845,181.29326832719755L411.9230769230769,202.99691379838376L415.3846153846154,141.94295337332912L418.84615384615387,217.29181768259195L422.3076923076923,203.45322452452118L425.7692307692308,217.61373773416585L429.2307692307692,187.784085788952L432.6923076923077,219.3861049701138L436.15384615384613,192.0396462928773L439.6153846153846,218.71112567915213L443.0769230769231,156.0953063989162L446.53846153846155,221.01736759006747L450,218.43415897469956L453.46153846153845,217.50696515782232L456.9230769230769,180.98032677559178L460.38461538461536,205.02659749129842L463.8461538461538,174.37947553457428L467.3076923076923,204.81505102040816L470.7692307692308,139.5250946672525L474.2307692307692,213.91172822700187L477.6923076923077,198.50189123829603L481.15384615384613,208.23354007633586L484.6153846153846,190.98999570367644L488.07692307692304,210.80492860432975L491.5384615384615,180.8412814869161L495.00000000000006,210.41884963438204L498.4615384615385,150.35300870563472L501.92307692307696,224.60877602033315L505.3846153846154,195.53310824008702L508.8461538461538,210.09074988059226L512.3076923076923,179.3521421107628L515.7692307692307,204.8444681764404L519.2307692307692,176.67917261529266L522.6923076923077,202.9572040235183L526.1538461538462,139.85531441291045L529.6153846153846,220.22674568410204L533.0769230769231,193.88774729038238L536.5384615384615,206.27663061291378L540,175.4187192118227L543.4615384615385,205.38851808689714L546.9230769230769,180.83893843768215L550.3846153846155,206.82287557034545L553.8461538461539,143.34162285810217L557.3076923076924,210.07255995044687L560.7692307692308,203.9125079069148L564.2307692307692,210.39581648606395L567.6923076923076,176.93083506823965L571.1538461538461,208.7866108786611L574.6153846153845,184.7470886104001L578.0769230769231,206.59419989212958L581.5384615384615,150.410063600267L585,215.65977994142327L588.4615384615385,217.65049223705213L591.9230769230769,226.03197291705854L595.3846153846154,202.2240677027722L598.8461538461538,219.36634996633504L602.3076923076923,192.4845605700713L605.7692307692308,211.5463532922962L609.2307692307693,162.10386262525464L612.6923076923077,206.40505487196538L616.1538461538462,194.95563242592877L619.6153846153846,206.8730828912706L623.0769230769231,188.24848620766983L626.5384615384615,207.47295344821512L630,178.57506361323158L633.4615384615385,198.0705284337604L636.9230769230769,135.84516129032255L640.3846153846154,242.24005411055774L643.8461538461538,254.33483205501187L647.3076923076923,216.60507561832895L650.7692307692307,174.40997308400628L654.2307692307692,196.97560975609753L657.6923076923076,176.11548556430446L661.1538461538462,208.65941000157756L664.6153846153846,158.31271804630512L668.0769230769231,207.7352412810506L671.5384615384615,187.5240950262708L675,198.74301675977654L678.4615384615385,233.85641801923023L681.9230769230769,229.4875466823913L685.3846153846154,230.97009966777404L688.8461538461538,234.04163948684496L692.3076923076924,154.5073375262054L695.7692307692308,238.46979865771806L699.2307692307693,189.99438484499217L702.6923076923077,207.8957826099124L706.1538461538462,211.30047799571446L709.6153846153846,214.37670364073088L713.0769230769231,212.86216426520699L716.5384615384615,203.7356181150551L720,146.41504779525133L723.4615384615385,249.29772362331158L726.9230769230769,202.57633587786256L730.3846153846154,239.20533905374808L733.8461538461538,207.8486924833834L737.3076923076923,224.9037058651882L740.7692307692307,184.18415852160445L744.2307692307692,262.6853819243234L747.6923076923077,257.31173039533377L751.1538461538462,259.7543300393157L754.6153846153846,251.20752924923366L758.0769230769231,211.49453219927102L761.5384615384615,244.20228751810777L765,298.38092124382445L768.4615384615385,220.00680318389004L771.9230769230769,327.1649642574753L775.3846153846155,196.37920836586457L778.8461538461539,256.7659727207466L782.3076923076924,305.42907061557514L785.7692307692308,268.5611048051457L789.2307692307692,239.04423477515013L792.6923076923076,309.07468141693994L796.1538461538461,214.94326696638834L799.6153846153845,284.2489427243774L803.0769230769231,264.72170312557245L806.5384615384615,296.11530926392385L810,297.26913507976L813.4615384615385,267.22493974195373L816.9230769230769,249.47726936176517L820.3846153846154,340.8686802898315L823.8461538461538,269.27755739872583L827.3076923076923,291.62514488956634L830.7692307692308,260.51276717458L834.2307692307693,260.74765070693536L837.6923076923077,339.43966814535656L841.1538461538462,249.0891930155734L844.6153846153846,287.7498573125396L848.0769230769231,369.1685611844412L851.5384615384615,253.1742098609355L855,318.4824179254373L858.4615384615385,328.33216410736094L861.9230769230769,384.7649094863234L865.3846153846154,307.263985893568L868.8461538461538,356.84125686781994L872.3076923076923,321.9256626226721L875.7692307692307,351.8097323434489L879.2307692307692,366.85755585315565L882.6923076923076,383.3392132651261L886.1538461538462,308.04192872117403" style="fill: none; stroke: #ffbb78; stroke-width: 2;"></path></g></g><path class="foreground" d="" style="display: none; fill: none;"></path></g></g><g class="mark-group role-legend"><g transform="translate(918,0)"><path class="background" d="M0,0h101v92h-101Z" style="pointer-events: none; fill: none;"></path><g><g class="mark-group role-legend-entry"><g transform="translate(0,16)"><path class="background" d="M0,0h0v0h0Z" style="pointer-events: none; fill: none;"></path><g><g class="mark-group role-scope"><g transform="translate(0,0)"><path class="background" d="M0,0h101v11h-101Z" style="pointer-events: none; fill: none; opacity: 1;"></path><g><g class="mark-symbol role-legend-symbol" style="pointer-events: none;"><path transform="translate(6,6)" d="M-5,0L5,0" style="fill: none; stroke: #1f77b4; stroke-width: 1.5; opacity: 1;"></path></g><g class="mark-text role-legend-label" style="pointer-events: none;"><text text-anchor="start" transform="translate(16,9)" style="font-family: sans-serif; font-size: 10px; fill: #000; opacity: 1;">Clang</text></g></g><path class="foreground" d="" style="pointer-events: none; display: none; fill: none;"></path></g><g transform="translate(0,13)"><path class="background" d="M0,0h101v11h-101Z" style="pointer-events: none; fill: none; opacity: 1;"></path><g><g class="mark-symbol role-legend-symbol" style="pointer-events: none;"><path transform="translate(6,6)" d="M-5,0L5,0" style="fill: none; stroke: #aec7e8; stroke-width: 1.5; opacity: 1;"></path></g><g class="mark-text role-legend-label" style="pointer-events: none;"><text text-anchor="start" transform="translate(16,9)" style="font-family: sans-serif; font-size: 10px; fill: #000; opacity: 1;">GFortran</text></g></g><path class="foreground" d="" style="pointer-events: none; display: none; fill: none;"></path></g><g transform="translate(0,26)"><path class="background" d="M0,0h101v11h-101Z" style="pointer-events: none; fill: none; opacity: 1;"></path><g><g class="mark-symbol role-legend-symbol" style="pointer-events: none;"><path transform="translate(6,6)" d="M-5,0L5,0" style="fill: none; stroke: #ff7f0e; stroke-width: 1.5; opacity: 1;"></path></g><g class="mark-text role-legend-label" style="pointer-events: none;"><text text-anchor="start" transform="translate(16,9)" style="font-family: sans-serif; font-size: 10px; fill: #000; opacity: 1;">Julia</text></g></g><path class="foreground" d="" style="pointer-events: none; display: none; fill: none;"></path></g><g transform="translate(0,39)"><path class="background" d="M0,0h101v11h-101Z" style="pointer-events: none; fill: none; opacity: 1;"></path><g><g class="mark-symbol role-legend-symbol" style="pointer-events: none;"><path transform="translate(6,6)" d="M-5,0L5,0" style="fill: none; stroke: #ffbb78; stroke-width: 1.5; opacity: 1;"></path></g><g class="mark-text role-legend-label" style="pointer-events: none;"><text text-anchor="start" transform="translate(16,9)" style="font-family: sans-serif; font-size: 10px; fill: #000; opacity: 1;">LoopVectorization</text></g></g><path class="foreground" d="" style="pointer-events: none; display: none; fill: none;"></path></g><g transform="translate(0,52)"><path class="background" d="M0,0h101v11h-101Z" style="pointer-events: none; fill: none; opacity: 1;"></path><g><g class="mark-symbol role-legend-symbol" style="pointer-events: none;"><path transform="translate(6,6)" d="M-5,0L5,0" style="fill: none; stroke: #2ca02c; stroke-width: 1.5; opacity: 1;"></path></g><g class="mark-text role-legend-label" style="pointer-events: none;"><text text-anchor="start" transform="translate(16,9)" style="font-family: sans-serif; font-size: 10px; fill: #000; opacity: 1;">icc</text></g></g><path class="foreground" d="" style="pointer-events: none; display: none; fill: none;"></path></g><g transform="translate(0,65)"><path class="background" d="M0,0h101v11h-101Z" style="pointer-events: none; fill: none; opacity: 1;"></path><g><g class="mark-symbol role-legend-symbol" style="pointer-events: none;"><path transform="translate(6,6)" d="M-5,0L5,0" style="fill: none; stroke: #98df8a; stroke-width: 1.5; opacity: 1;"></path></g><g class="mark-text role-legend-label" style="pointer-events: none;"><text text-anchor="start" transform="translate(16,9)" style="font-family: sans-serif; font-size: 10px; fill: #000; opacity: 1;">ifort</text></g></g><path class="foreground" d="" style="pointer-events: none; display: none; fill: none;"></path></g></g></g><path class="foreground" d="" style="pointer-events: none; display: none; fill: none;"></path></g></g><g class="mark-text role-legend-title" style="pointer-events: none;"><text text-anchor="start" transform="translate(0,9)" style="font-family: sans-serif; font-size: 11px; font-weight: bold; fill: #000; opacity: 1;">Method</text></g></g><path class="foreground" d="" style="pointer-events: none; display: none; fill: none;"></path></g></g></g><path class="foreground" d="" style="display: none; fill: none;"></path></g></g></g></svg>
