<?xml version="1.0" encoding="utf-8"?>
<!DOCTYPE svg PUBLIC "-//W3C//DTD SVG 1.1//EN" "http://www.w3.org/Graphics/SVG/1.1/DTD/svg11.dtd">
<svg class="marks" width="1063" height="647" viewBox="0 0 1063 647" version="1.1" xmlns="http://www.w3.org/2000/svg" xmlns:xlink="http://www.w3.org/1999/xlink"><rect width="1063" height="647" style="fill: white;"></rect><g transform="translate(39,10)"><g class="mark-group role-frame root"><g transform="translate(0,0)"><path class="background" d="M0.5,0.5h900v600h-900Z" style="fill: none; stroke: #ddd;"></path><g><g class="mark-group role-axis"><g transform="translate(0.5,600.5)"><path class="background" d="M0,0h0v0h0Z" style="pointer-events: none; fill: none;"></path><g><g class="mark-rule role-axis-grid" style="pointer-events: none;"><line transform="translate(0,-600)" x2="0" y2="600" style="fill: none; stroke: #ddd; stroke-width: 1; opacity: 1;"></line><line transform="translate(35,-600)" x2="0" y2="600" style="fill: none; stroke: #ddd; stroke-width: 1; opacity: 1;"></line><line transform="translate(69,-600)" x2="0" y2="600" style="fill: none; stroke: #ddd; stroke-width: 1; opacity: 1;"></line><line transform="translate(104,-600)" x2="0" y2="600" style="fill: none; stroke: #ddd; stroke-width: 1; opacity: 1;"></line><line transform="translate(138,-600)" x2="0" y2="600" style="fill: none; stroke: #ddd; stroke-width: 1; opacity: 1;"></line><line transform="translate(173,-600)" x2="0" y2="600" style="fill: none; stroke: #ddd; stroke-width: 1; opacity: 1;"></line><line transform="translate(208,-600)" x2="0" y2="600" style="fill: none; stroke: #ddd; stroke-width: 1; opacity: 1;"></line><line transform="translate(242,-600)" x2="0" y2="600" style="fill: none; stroke: #ddd; stroke-width: 1; opacity: 1;"></line><line transform="translate(277,-600)" x2="0" y2="600" style="fill: none; stroke: #ddd; stroke-width: 1; opacity: 1;"></line><line transform="translate(312,-600)" x2="0" y2="600" style="fill: none; stroke: #ddd; stroke-width: 1; opacity: 1;"></line><line transform="translate(346,-600)" x2="0" y2="600" style="fill: none; stroke: #ddd; stroke-width: 1; opacity: 1;"></line><line transform="translate(381,-600)" x2="0" y2="600" style="fill: none; stroke: #ddd; stroke-width: 1; opacity: 1;"></line><line transform="translate(415,-600)" x2="0" y2="600" style="fill: none; stroke: #ddd; stroke-width: 1; opacity: 1;"></line><line transform="translate(450,-600)" x2="0" y2="600" style="fill: none; stroke: #ddd; stroke-width: 1; opacity: 1;"></line><line transform="translate(485,-600)" x2="0" y2="600" style="fill: none; stroke: #ddd; stroke-width: 1; opacity: 1;"></line><line transform="translate(519,-600)" x2="0" y2="600" style="fill: none; stroke: #ddd; stroke-width: 1; opacity: 1;"></line><line transform="translate(554,-600)" x2="0" y2="600" style="fill: none; stroke: #ddd; stroke-width: 1; opacity: 1;"></line><line transform="translate(588,-600)" x2="0" y2="600" style="fill: none; stroke: #ddd; stroke-width: 1; opacity: 1;"></line><line transform="translate(623,-600)" x2="0" y2="600" style="fill: none; stroke: #ddd; stroke-width: 1; opacity: 1;"></line><line transform="translate(658,-600)" x2="0" y2="600" style="fill: none; stroke: #ddd; stroke-width: 1; opacity: 1;"></line><line transform="translate(692,-600)" x2="0" y2="600" style="fill: none; stroke: #ddd; stroke-width: 1; opacity: 1;"></line><line transform="translate(727,-600)" x2="0" y2="600" style="fill: none; stroke: #ddd; stroke-width: 1; opacity: 1;"></line><line transform="translate(762,-600)" x2="0" y2="600" style="fill: none; stroke: #ddd; stroke-width: 1; opacity: 1;"></line><line transform="translate(796,-600)" x2="0" y2="600" style="fill: none; stroke: #ddd; stroke-width: 1; opacity: 1;"></line><line transform="translate(831,-600)" x2="0" y2="600" style="fill: none; stroke: #ddd; stroke-width: 1; opacity: 1;"></line><line transform="translate(865,-600)" x2="0" y2="600" style="fill: none; stroke: #ddd; stroke-width: 1; opacity: 1;"></line><line transform="translate(900,-600)" x2="0" y2="600" style="fill: none; stroke: #ddd; stroke-width: 1; opacity: 1;"></line></g></g><path class="foreground" d="" style="pointer-events: none; display: none; fill: none;"></path></g></g><g class="mark-group role-axis"><g transform="translate(0.5,0.5)"><path class="background" d="M0,0h0v0h0Z" style="pointer-events: none; fill: none;"></path><g><g class="mark-rule role-axis-grid" style="pointer-events: none;"><line transform="translate(0,600)" x2="900" y2="0" style="fill: none; stroke: #ddd; stroke-width: 1; opacity: 1;"></line><line transform="translate(0,550)" x2="900" y2="0" style="fill: none; stroke: #ddd; stroke-width: 1; opacity: 1;"></line><line transform="translate(0,500)" x2="900" y2="0" style="fill: none; stroke: #ddd; stroke-width: 1; opacity: 1;"></line><line transform="translate(0,450)" x2="900" y2="0" style="fill: none; stroke: #ddd; stroke-width: 1; opacity: 1;"></line><line transform="translate(0,400)" x2="900" y2="0" style="fill: none; stroke: #ddd; stroke-width: 1; opacity: 1;"></line><line transform="translate(0,350)" x2="900" y2="0" style="fill: none; stroke: #ddd; stroke-width: 1; opacity: 1;"></line><line transform="translate(0,300)" x2="900" y2="0" style="fill: none; stroke: #ddd; stroke-width: 1; opacity: 1;"></line><line transform="translate(0,250)" x2="900" y2="0" style="fill: none; stroke: #ddd; stroke-width: 1; opacity: 1;"></line><line transform="translate(0,200)" x2="900" y2="0" style="fill: none; stroke: #ddd; stroke-width: 1; opacity: 1;"></line><line transform="translate(0,150)" x2="900" y2="0" style="fill: none; stroke: #ddd; stroke-width: 1; opacity: 1;"></line><line transform="translate(0,100)" x2="900" y2="0" style="fill: none; stroke: #ddd; stroke-width: 1; opacity: 1;"></line><line transform="translate(0,50)" x2="900" y2="0" style="fill: none; stroke: #ddd; stroke-width: 1; opacity: 1;"></line><line transform="translate(0,0)" x2="900" y2="0" style="fill: none; stroke: #ddd; stroke-width: 1; opacity: 1;"></line></g></g><path class="foreground" d="" style="pointer-events: none; display: none; fill: none;"></path></g></g><g class="mark-group role-axis"><g transform="translate(0.5,600.5)"><path class="background" d="M0,0h0v0h0Z" style="pointer-events: none; fill: none;"></path><g><g class="mark-rule role-axis-tick" style="pointer-events: none;"><line transform="translate(0,0)" x2="0" y2="5" style="fill: none; stroke: #888; stroke-width: 1; opacity: 1;"></line><line transform="translate(35,0)" x2="0" y2="5" style="fill: none; stroke: #888; stroke-width: 1; opacity: 1;"></line><line transform="translate(69,0)" x2="0" y2="5" style="fill: none; stroke: #888; stroke-width: 1; opacity: 1;"></line><line transform="translate(104,0)" x2="0" y2="5" style="fill: none; stroke: #888; stroke-width: 1; opacity: 1;"></line><line transform="translate(138,0)" x2="0" y2="5" style="fill: none; stroke: #888; stroke-width: 1; opacity: 1;"></line><line transform="translate(173,0)" x2="0" y2="5" style="fill: none; stroke: #888; stroke-width: 1; opacity: 1;"></line><line transform="translate(208,0)" x2="0" y2="5" style="fill: none; stroke: #888; stroke-width: 1; opacity: 1;"></line><line transform="translate(242,0)" x2="0" y2="5" style="fill: none; stroke: #888; stroke-width: 1; opacity: 1;"></line><line transform="translate(277,0)" x2="0" y2="5" style="fill: none; stroke: #888; stroke-width: 1; opacity: 1;"></line><line transform="translate(312,0)" x2="0" y2="5" style="fill: none; stroke: #888; stroke-width: 1; opacity: 1;"></line><line transform="translate(346,0)" x2="0" y2="5" style="fill: none; stroke: #888; stroke-width: 1; opacity: 1;"></line><line transform="translate(381,0)" x2="0" y2="5" style="fill: none; stroke: #888; stroke-width: 1; opacity: 1;"></line><line transform="translate(415,0)" x2="0" y2="5" style="fill: none; stroke: #888; stroke-width: 1; opacity: 1;"></line><line transform="translate(450,0)" x2="0" y2="5" style="fill: none; stroke: #888; stroke-width: 1; opacity: 1;"></line><line transform="translate(485,0)" x2="0" y2="5" style="fill: none; stroke: #888; stroke-width: 1; opacity: 1;"></line><line transform="translate(519,0)" x2="0" y2="5" style="fill: none; stroke: #888; stroke-width: 1; opacity: 1;"></line><line transform="translate(554,0)" x2="0" y2="5" style="fill: none; stroke: #888; stroke-width: 1; opacity: 1;"></line><line transform="translate(588,0)" x2="0" y2="5" style="fill: none; stroke: #888; stroke-width: 1; opacity: 1;"></line><line transform="translate(623,0)" x2="0" y2="5" style="fill: none; stroke: #888; stroke-width: 1; opacity: 1;"></line><line transform="translate(658,0)" x2="0" y2="5" style="fill: none; stroke: #888; stroke-width: 1; opacity: 1;"></line><line transform="translate(692,0)" x2="0" y2="5" style="fill: none; stroke: #888; stroke-width: 1; opacity: 1;"></line><line transform="translate(727,0)" x2="0" y2="5" style="fill: none; stroke: #888; stroke-width: 1; opacity: 1;"></line><line transform="translate(762,0)" x2="0" y2="5" style="fill: none; stroke: #888; stroke-width: 1; opacity: 1;"></line><line transform="translate(796,0)" x2="0" y2="5" style="fill: none; stroke: #888; stroke-width: 1; opacity: 1;"></line><line transform="translate(831,0)" x2="0" y2="5" style="fill: none; stroke: #888; stroke-width: 1; opacity: 1;"></line><line transform="translate(865,0)" x2="0" y2="5" style="fill: none; stroke: #888; stroke-width: 1; opacity: 1;"></line><line transform="translate(900,0)" x2="0" y2="5" style="fill: none; stroke: #888; stroke-width: 1; opacity: 1;"></line></g><g class="mark-text role-axis-label" style="pointer-events: none;"><text text-anchor="start" transform="translate(0,15)" style="font-family: sans-serif; font-size: 10px; fill: #000; opacity: 1;">0</text><text text-anchor="middle" transform="translate(34.61538461538462,15)" style="font-family: sans-serif; font-size: 10px; fill: #000; opacity: 1;">10</text><text text-anchor="middle" transform="translate(69.23076923076924,15)" style="font-family: sans-serif; font-size: 10px; fill: #000; opacity: 1;">20</text><text text-anchor="middle" transform="translate(103.84615384615385,15)" style="font-family: sans-serif; font-size: 10px; fill: #000; opacity: 1;">30</text><text text-anchor="middle" transform="translate(138.46153846153848,15)" style="font-family: sans-serif; font-size: 10px; fill: #000; opacity: 1;">40</text><text text-anchor="middle" transform="translate(173.0769230769231,15)" style="font-family: sans-serif; font-size: 10px; fill: #000; opacity: 1;">50</text><text text-anchor="middle" transform="translate(207.6923076923077,15)" style="font-family: sans-serif; font-size: 10px; fill: #000; opacity: 1;">60</text><text text-anchor="middle" transform="translate(242.3076923076923,15)" style="font-family: sans-serif; font-size: 10px; fill: #000; opacity: 1;">70</text><text text-anchor="middle" transform="translate(276.92307692307696,15)" style="font-family: sans-serif; font-size: 10px; fill: #000; opacity: 1;">80</text><text text-anchor="middle" transform="translate(311.53846153846155,15)" style="font-family: sans-serif; font-size: 10px; fill: #000; opacity: 1;">90</text><text text-anchor="middle" transform="translate(346.1538461538462,15)" style="font-family: sans-serif; font-size: 10px; fill: #000; opacity: 1;">100</text><text text-anchor="middle" transform="translate(380.7692307692308,15)" style="font-family: sans-serif; font-size: 10px; fill: #000; opacity: 1;">110</text><text text-anchor="middle" transform="translate(415.3846153846154,15)" style="font-family: sans-serif; font-size: 10px; fill: #000; opacity: 1;">120</text><text text-anchor="middle" transform="translate(450,15)" style="font-family: sans-serif; font-size: 10px; fill: #000; opacity: 1;">130</text><text text-anchor="middle" transform="translate(484.6153846153846,15)" style="font-family: sans-serif; font-size: 10px; fill: #000; opacity: 1;">140</text><text text-anchor="middle" transform="translate(519.2307692307692,15)" style="font-family: sans-serif; font-size: 10px; fill: #000; opacity: 1;">150</text><text text-anchor="middle" transform="translate(553.8461538461539,15)" style="font-family: sans-serif; font-size: 10px; fill: #000; opacity: 1;">160</text><text text-anchor="middle" transform="translate(588.4615384615385,15)" style="font-family: sans-serif; font-size: 10px; fill: #000; opacity: 1;">170</text><text text-anchor="middle" transform="translate(623.0769230769231,15)" style="font-family: sans-serif; font-size: 10px; fill: #000; opacity: 1;">180</text><text text-anchor="middle" transform="translate(657.6923076923076,15)" style="font-family: sans-serif; font-size: 10px; fill: #000; opacity: 1;">190</text><text text-anchor="middle" transform="translate(692.3076923076924,15)" style="font-family: sans-serif; font-size: 10px; fill: #000; opacity: 1;">200</text><text text-anchor="middle" transform="translate(726.9230769230769,15)" style="font-family: sans-serif; font-size: 10px; fill: #000; opacity: 1;">210</text><text text-anchor="middle" transform="translate(761.5384615384615,15)" style="font-family: sans-serif; font-size: 10px; fill: #000; opacity: 1;">220</text><text text-anchor="middle" transform="translate(796.1538461538461,15)" style="font-family: sans-serif; font-size: 10px; fill: #000; opacity: 1;">230</text><text text-anchor="middle" transform="translate(830.7692307692308,15)" style="font-family: sans-serif; font-size: 10px; fill: #000; opacity: 1;">240</text><text text-anchor="middle" transform="translate(865.3846153846154,15)" style="font-family: sans-serif; font-size: 10px; fill: #000; opacity: 1;">250</text><text text-anchor="end" transform="translate(900,15)" style="font-family: sans-serif; font-size: 10px; fill: #000; opacity: 1;">260</text></g><g class="mark-rule role-axis-domain" style="pointer-events: none;"><line transform="translate(0,0)" x2="900" y2="0" style="fill: none; stroke: #888; stroke-width: 1; opacity: 1;"></line></g><g class="mark-text role-axis-title" style="pointer-events: none;"><text text-anchor="middle" transform="translate(450,30)" style="font-family: sans-serif; font-size: 11px; font-weight: bold; fill: #000; opacity: 1;">Size</text></g></g><path class="foreground" d="" style="pointer-events: none; display: none; fill: none;"></path></g></g><g class="mark-group role-axis"><g transform="translate(0.5,0.5)"><path class="background" d="M0,0h0v0h0Z" style="pointer-events: none; fill: none;"></path><g><g class="mark-rule role-axis-tick" style="pointer-events: none;"><line transform="translate(0,600)" x2="-5" y2="0" style="fill: none; stroke: #888; stroke-width: 1; opacity: 1;"></line><line transform="translate(0,550)" x2="-5" y2="0" style="fill: none; stroke: #888; stroke-width: 1; opacity: 1;"></line><line transform="translate(0,500)" x2="-5" y2="0" style="fill: none; stroke: #888; stroke-width: 1; opacity: 1;"></line><line transform="translate(0,450)" x2="-5" y2="0" style="fill: none; stroke: #888; stroke-width: 1; opacity: 1;"></line><line transform="translate(0,400)" x2="-5" y2="0" style="fill: none; stroke: #888; stroke-width: 1; opacity: 1;"></line><line transform="translate(0,350)" x2="-5" y2="0" style="fill: none; stroke: #888; stroke-width: 1; opacity: 1;"></line><line transform="translate(0,300)" x2="-5" y2="0" style="fill: none; stroke: #888; stroke-width: 1; opacity: 1;"></line><line transform="translate(0,250)" x2="-5" y2="0" style="fill: none; stroke: #888; stroke-width: 1; opacity: 1;"></line><line transform="translate(0,200)" x2="-5" y2="0" style="fill: none; stroke: #888; stroke-width: 1; opacity: 1;"></line><line transform="translate(0,150)" x2="-5" y2="0" style="fill: none; stroke: #888; stroke-width: 1; opacity: 1;"></line><line transform="translate(0,100)" x2="-5" y2="0" style="fill: none; stroke: #888; stroke-width: 1; opacity: 1;"></line><line transform="translate(0,50)" x2="-5" y2="0" style="fill: none; stroke: #888; stroke-width: 1; opacity: 1;"></line><line transform="translate(0,0)" x2="-5" y2="0" style="fill: none; stroke: #888; stroke-width: 1; opacity: 1;"></line></g><g class="mark-text role-axis-label" style="pointer-events: none;"><text text-anchor="end" transform="translate(-7,603)" style="font-family: sans-serif; font-size: 10px; fill: #000; opacity: 1;">0</text><text text-anchor="end" transform="translate(-7,553)" style="font-family: sans-serif; font-size: 10px; fill: #000; opacity: 1;">5</text><text text-anchor="end" transform="translate(-7,503)" style="font-family: sans-serif; font-size: 10px; fill: #000; opacity: 1;">10</text><text text-anchor="end" transform="translate(-7,453)" style="font-family: sans-serif; font-size: 10px; fill: #000; opacity: 1;">15</text><text text-anchor="end" transform="translate(-7,403.00000000000006)" style="font-family: sans-serif; font-size: 10px; fill: #000; opacity: 1;">20</text><text text-anchor="end" transform="translate(-7,352.99999999999994)" style="font-family: sans-serif; font-size: 10px; fill: #000; opacity: 1;">25</text><text text-anchor="end" transform="translate(-7,303)" style="font-family: sans-serif; font-size: 10px; fill: #000; opacity: 1;">30</text><text text-anchor="end" transform="translate(-7,252.99999999999997)" style="font-family: sans-serif; font-size: 10px; fill: #000; opacity: 1;">35</text><text text-anchor="end" transform="translate(-7,203.00000000000003)" style="font-family: sans-serif; font-size: 10px; fill: #000; opacity: 1;">40</text><text text-anchor="end" transform="translate(-7,153)" style="font-family: sans-serif; font-size: 10px; fill: #000; opacity: 1;">45</text><text text-anchor="end" transform="translate(-7,102.99999999999997)" style="font-family: sans-serif; font-size: 10px; fill: #000; opacity: 1;">50</text><text text-anchor="end" transform="translate(-7,53.00000000000002)" style="font-family: sans-serif; font-size: 10px; fill: #000; opacity: 1;">55</text><text text-anchor="end" transform="translate(-7,3)" style="font-family: sans-serif; font-size: 10px; fill: #000; opacity: 1;">60</text></g><g class="mark-rule role-axis-domain" style="pointer-events: none;"><line transform="translate(0,600)" x2="0" y2="-600" style="fill: none; stroke: #888; stroke-width: 1; opacity: 1;"></line></g><g class="mark-text role-axis-title" style="pointer-events: none;"><text text-anchor="middle" transform="translate(-23,300) rotate(-90) translate(0,-2)" style="font-family: sans-serif; font-size: 11px; font-weight: bold; fill: #000; opacity: 1;">GFLOPS</text></g></g><path class="foreground" d="" style="pointer-events: none; display: none; fill: none;"></path></g></g><g class="mark-group role-scope pathgroup"><g transform="translate(0,0)"><path class="background" d="M0,0h900v600h-900Z" style="fill: none;"></path><g><g class="mark-line role-mark marks"><path d="M6.923076923076923,583.5631006390556L10.384615384615385,580.8522521590733L13.846153846153847,580.2858868532313L17.30769230769231,579.3756656474387L20.76923076923077,581.0746987951807L24.230769230769234,578.4806824140269L27.692307692307693,580.303974907549L31.153846153846157,579.8890608376051L34.61538461538462,579.5934699103714L38.07692307692308,578.0695562663137L41.53846153846154,579.1322137925156L45,578.9724072312083L48.46153846153847,578.8202390033053L51.92307692307693,578.7322768974145L55.38461538461539,578.5686145764938L58.84615384615385,578.4915847845122L62.307692307692314,578.4056455828542L65.76923076923077,578.3323525950336L69.23076923076924,578.2434810430331L72.6923076923077,578.2245942707766L76.15384615384616,578.1801306062916L79.61538461538461,578.11389632514L83.07692307692308,578.0279523015771L86.53846153846155,578.0189738739804L90,576.6436327739387L93.46153846153847,577.9333471822417L96.92307692307693,577.9096363576093L100.38461538461539,577.8910091856617L103.84615384615385,578.0701754385965L107.3076923076923,577.8308511721003L110.76923076923077,577.8008735295056L114.23076923076923,577.7897304646884L117.6923076923077,577.7532923285913L121.15384615384615,577.9255882976468L124.61538461538463,577.7342091965639L128.07692307692307,577.8478964401295L131.53846153846155,577.6958022896602L135,577.6671273104163L138.46153846153848,577.6462853385931L141.9230769230769,577.6322792736381L145.3846153846154,577.7388464108084L148.84615384615384,577.5990592930444L152.30769230769232,577.591066929938L155.76923076923077,577.5645203336809L159.23076923076923,577.5595757953837L162.69230769230768,576.1598527171153L166.15384615384616,577.5361321403992L169.6153846153846,577.5224406630321L173.0769230769231,577.6021080368906L176.53846153846155,577.5068674331061L180,577.4953490649173L183.46153846153845,577.494108775568L186.92307692307693,577.4795566054879L190.3846153846154,577.5436681222708L193.84615384615387,577.4636455867433L197.3076923076923,577.5054980858516L200.76923076923077,577.5000983593658L204.23076923076923,577.4555221151281L207.6923076923077,577.4842721018358L211.15384615384616,577.4203105479207L214.6153846153846,575.9891240446797L218.07692307692307,577.4073329984933L221.53846153846155,577.3951434878587L225,577.5301110589708L228.46153846153845,577.3900830483635L231.9230769230769,577.4741720290453L235.3846153846154,577.453606768966L238.84615384615384,577.3723056277782L242.3076923076923,577.4346471624001L245.76923076923075,575.9683118339876L249.23076923076925,577.3845206323138L252.6923076923077,577.3817192220308L256.15384615384613,577.378499222395L259.6153846153846,577.3373622467117L263.0769230769231,577.3589430238188L266.53846153846155,577.3249195743628L270,577.4174672489083L273.46153846153845,577.3500277528714L276.92307692307696,577.3408863712096L280.3846153846154,577.3395501919912L283.8461538461538,577.3076846723443L287.30769230769226,577.3032423108974L290.7692307692308,577.3247637051039L294.2307692307692,577.2933150928048L297.6923076923077,577.3198405397118L301.15384615384613,577.2931335698025L304.61538461538464,577.2914977662015L308.0769230769231,577.3086968976964L311.53846153846155,577.3288550824855L315,577.2768066114635L318.46153846153845,577.3161811073276L321.9230769230769,577.2939541348159L325.38461538461536,577.2908414718955L328.8461538461538,577.2831591104267L332.3076923076923,577.3041097477944L335.7692307692308,577.3196738745127L339.2307692307692,577.2948767870056L342.6923076923077,577.2517885424062L346.1538461538462,575.8574167435916L349.61538461538464,577.3067863592347L353.0769230769231,577.2826757090012L356.53846153846155,577.315229422419L360,577.2399024595542L363.46153846153845,575.8055146774069L366.9230769230769,577.2526229293446L370.38461538461536,577.2510723844922L373.84615384615387,577.2485485462514L377.3076923076923,577.2451048872265L380.7692307692308,577.2646889782926L384.2307692307692,577.2556791035051L387.69230769230774,577.23630696314L391.1538461538462,577.3111817212618L394.6153846153846,577.2354741321574L398.07692307692304,577.2729570175084L401.53846153846155,577.2413244189748L405,577.2416726974005L408.46153846153845,577.2675937307929L411.9230769230769,577.2221328615088L415.3846153846154,577.2336250430125L418.84615384615387,577.2180829641562L422.3076923076923,577.2712328767124L425.7692307692308,577.203648224637L429.2307692307692,577.2280833195397L432.6923076923077,577.1995708154507L436.15384615384613,577.221804923747L439.6153846153846,577.2189265536723L443.0769230769231,577.2308648131648L446.53846153846155,577.1928990075702L450,577.2029359254117L453.46153846153845,577.2003876302196L456.9230769230769,577.2000369469504L460.38461538461536,575.7684931506849L463.8461538461538,577.2072428598096L467.3076923076923,577.21573443544L470.7692307692308,577.2155677775121L474.2307692307692,577.2020692069707L477.6923076923077,577.1799534785367L481.15384615384613,577.1938120135259L484.6153846153846,577.1763626026618L488.07692307692304,577.2140608250689L491.5384615384615,575.7603100073542L495.00000000000006,577.202151031249L498.4615384615385,577.1816216356175L501.92307692307696,577.1884533398006L505.3846153846154,577.1919511074465L508.8461538461538,577.2141793822107L512.3076923076923,577.1843119474042L515.7692307692307,577.2066408184464L519.2307692307692,577.2092164141309L522.6923076923077,577.1878623092451L526.1538461538462,577.1967348265812L529.6153846153846,577.1889186958316L533.0769230769231,577.1938319512168L536.5384615384615,577.1670160726765L540,577.1815604558041L543.4615384615385,577.1584392647668L546.9230769230769,577.1650255582458L550.3846153846155,577.1863620438886L553.8461538461539,577.1845576362531L557.3076923076924,575.7172299401L560.7692307692308,577.1813481042764L564.2307692307692,577.173706500096L567.6923076923076,577.1656870040302L571.1538461538461,577.1514400529221L574.6153846153845,577.1554805643199L578.0769230769231,577.185155599613L581.5384615384615,577.1810127124085L585,577.1792292760422L588.4615384615385,577.1569119753018L591.9230769230769,577.167011161637L595.3846153846154,577.1835062584213L598.8461538461538,577.1811005964928L602.3076923076923,577.1663065804826L605.7692307692308,577.1534454688673L609.2307692307693,577.1639700429754L612.6923076923077,575.737076839674L616.1538461538462,577.1747486005111L619.6153846153846,577.1744714731703L623.0769230769231,577.1604861482577L626.5384615384615,577.1543017942261L630,577.1612358958135L633.4615384615385,577.1787337753441L636.9230769230769,577.1681549330974L640.3846153846154,577.1602248549514L643.8461538461538,577.1510489510489L647.3076923076923,577.1756841846608L650.7692307692307,577.1589319384466L654.2307692307692,577.1467334035827L657.6923076923076,577.1513883407671L661.1538461538462,577.1584785995515L664.6153846153846,577.141773324628L668.0769230769231,577.1441410550252L671.5384615384615,577.158218674359L675,577.1842484223009L678.4615384615385,577.1483757190645L681.9230769230769,575.7759908942373L685.3846153846154,577.1289146951634L688.8461538461538,577.165538878996L692.3076923076924,577.2561558889832L695.7692307692308,577.173514221333L699.2307692307693,577.1315728744272L702.6923076923077,577.1503170337126L706.1538461538462,577.1751565539736L709.6153846153846,577.1468099739296L713.0769230769231,577.1562651399765L716.5384615384615,577.1509992064065L720,577.1837705869032L723.4615384615385,577.2110087801404L726.9230769230769,577.1959228244569L730.3846153846154,577.1346440850015L733.8461538461538,575.6756274911814L737.3076923076923,577.1418452537957L740.7692307692307,577.1347511065034L744.2307692307692,577.1438252771129L747.6923076923077,577.1495739053776L751.1538461538462,577.1168892052358L754.6153846153846,577.1513415217016L758.0769230769231,577.1673126253179L761.5384615384615,577.1248099062807L765,577.1570728593791L768.4615384615385,577.1978641062068L771.9230769230769,577.1524667918868L775.3846153846155,575.7247911117182L778.8461538461539,577.1417985370751L782.3076923076924,577.1339033889958L785.7692307692308,577.1470945794354L789.2307692307692,577.1362930766843L792.6923076923076,577.2004981893324L796.1538461538461,577.1393854350965L799.6153846153845,577.1741198139983L803.0769230769231,577.1253718657034L806.5384615384615,577.1295215580155L810,577.1857269253676L813.4615384615385,577.1361250806716L816.9230769230769,577.1616024931316L820.3846153846154,577.181914202145L823.8461538461538,577.1631441147454L827.3076923076923,577.169864108713L830.7692307692308,577.2085607550596L834.2307692307693,577.1362179635615L837.6923076923077,577.1354161882102L841.1538461538462,577.211302713305L844.6153846153846,577.2135631837144L848.0769230769231,577.126823768333L851.5384615384615,577.2041533532167L855,577.138955688739L858.4615384615385,577.1418077675634L861.9230769230769,577.1864211613093L865.3846153846154,577.1950196069172L868.8461538461538,577.1330998996519L872.3076923076923,577.2016978860896L875.7692307692307,577.1352716590776L879.2307692307692,577.18347715377L882.6923076923076,577.2065100397135L886.1538461538462,575.2915920018452" style="fill: none; stroke: #ff7f0e; stroke-width: 2;"></path></g></g><path class="foreground" d="" style="display: none; fill: none;"></path></g><g transform="translate(0,0)"><path class="background" d="M0,0h900v600h-900Z" style="fill: none;"></path><g><g class="mark-line role-mark marks"><path d="M6.923076923076923,581.4645673618553L10.384615384615385,579.0109859154929L13.846153846153847,578.533274414494L17.30769230769231,577.4722059684026L20.76923076923077,579.6179763632595L24.230769230769234,576.4692461260576L27.692307692307693,579.0189225021091L31.153846153846157,578.1036030979908L34.61538461538462,577.7497129735935L38.07692307692308,577.5268817204301L41.53846153846154,577.3081201334817L45,577.582709113608L48.46153846153847,577.4331188621741L51.92307692307693,577.2565108811987L55.38461538461539,577.1979461385309L58.84615384615385,577.0825126982481L62.307692307692314,576.5760997968151L65.76923076923077,576.4424635332252L69.23076923076924,576.3487401453084L72.6923076923077,576.7642956764296L76.15384615384616,576.7176004527447L79.61538461538461,576.65898841774L83.07692307692308,576.0142772159429L86.53846153846155,575.9630922370887L90,575.9236202561954L93.46153846153847,575.9055118110236L96.92307692307693,575.8972813310024L100.38461538461539,575.8483022692719L103.84615384615385,575.9070294784581L107.3076923076923,575.7726302052438L110.76923076923077,575.7658441513242L114.23076923076923,575.7007383100902L117.6923076923077,575.702274975272L121.15384615384615,575.7717366012565L124.61538461538463,575.692850838482L128.07692307692307,575.7142857142858L131.53846153846155,575.6274821286735L135,575.6020003774297L138.46153846153848,575.5395683453238L141.9230769230769,575.552228590983L145.3846153846154,576.160267111853L148.84615384615384,575.5537408617204L152.30769230769232,576.0970295591546L155.76923076923077,576.1086820737039L159.23076923076923,575.4708489601092L162.69230769230768,576.0686974254397L166.15384615384616,576.0337759285321L169.6153846153846,576.0561975714202L173.0769230769231,575.487368785327L176.53846153846155,575.4595404595404L180,575.3536003431451L183.46153846153845,575.999899482334L186.92307692307693,575.3655021617055L190.3846153846154,575.9954254772907L193.84615384615387,575.9845038064777L197.3076923076923,575.3578120817347L200.76923076923077,575.3308601501165L204.23076923076923,575.3736995422389L207.6923076923077,575.9481234034191L211.15384615384616,575.9369293974437L214.6153846153846,575.2937618147448L218.07692307692307,575.2746527905017L221.53846153846155,575.2577905695911L225,575.3509042863517L228.46153846153845,575.2491727664694L231.9230769230769,575.2439499124116L235.3846153846154,575.2680594009564L238.84615384615384,575.2236201671411L242.3076923076923,575.3397081026674L245.76923076923075,575.2549665049664L249.23076923076925,575.2212787493673L252.6923076923077,575.2308954203692L256.15384615384613,575.2480723211911L259.6153846153846,575.187472430525L263.0769230769231,575.2403046043673L266.53846153846155,575.1674098893789L270,575.2309792370141L273.46153846153845,575.1866317414285L276.92307692307696,575.189838779559L280.3846153846154,575.1996709209766L283.8461538461538,575.1552957030146L287.30769230769226,575.1473802601702L290.7692307692308,575.1837140019861L294.2307692307692,575.1406654792746L297.6923076923077,575.1557066076509L301.15384615384613,575.1265198816957L304.61538461538464,575.1217945083811L308.0769230769231,575.7348542184741L311.53846153846155,575.1313864658396L315,575.1092683616819L318.46153846153845,575.1647479158396L321.9230769230769,575.1137402254494L325.38461538461536,575.1049090125626L328.8461538461538,575.8004731861199L332.3076923076923,575.126295902329L335.7692307692308,575.1262712655117L339.2307692307692,575.1077908217716L342.6923076923077,575.0957356172369L346.1538461538462,575.0974130606744L349.61538461538464,575.1041532078614L353.0769230769231,575.1285981466117L356.53846153846155,575.1075869874263L360,575.0600873504599L363.46153846153845,575.0366275972297L366.9230769230769,575.0578464913426L370.38461538461536,575.0729370781625L373.84615384615387,575.0603091551687L377.3076923076923,575.0639521963506L380.7692307692308,575.0727096461464L384.2307692307692,575.0625647375376L387.69230769230774,575.0482074323692L391.1538461538462,575.0951687107766L394.6153846153846,575.0835128398877L398.07692307692304,575.0662644589604L401.53846153846155,575.0461437765899L405,575.0546152279476L408.46153846153845,575.0647325896196L411.9230769230769,575.0368634445285L415.3846153846154,575.0127590078596L418.84615384615387,575.0356566132737L422.3076923076923,575.0716242044491L425.7692307692308,575.019377021475L429.2307692307692,575.0315696969118L432.6923076923077,575.0202189286789L436.15384615384613,575.0384284564801L439.6153846153846,575.0311435700366L443.0769230769231,575.0438592561399L446.53846153846155,575.0082158380154L450,575.017825776943L453.46153846153845,575.0109639730697L456.9230769230769,575.0126114574458L460.38461538461536,575.0020366598777L463.8461538461538,575.0123198074672L467.3076923076923,575.0185450968377L470.7692307692308,575.0177178179275L474.2307692307692,575.0075978318764L477.6923076923077,574.9769670737363L481.15384615384613,574.9968028256931L484.6153846153846,574.9878016739857L488.07692307692304,575.0053986096731L491.5384615384615,574.981352134469L495.00000000000006,575.0082315473152L498.4615384615385,574.9835358237765L501.92307692307696,574.9812757676935L505.3846153846154,574.9915804002761L508.8461538461538,575.0062594401883L512.3076923076923,574.9893877112382L515.7692307692307,574.9839597004043L519.2307692307692,575.0003267931138L522.6923076923077,574.9606273780223L526.1538461538462,574.9813363908529L529.6153846153846,574.9826806897548L533.0769230769231,574.9770669248577L536.5384615384615,574.9603031064735L540,574.9823424120749L543.4615384615385,574.9641220507489L546.9230769230769,574.9687100027722L550.3846153846155,574.9806727287545L553.8461538461539,574.9736913230246L557.3076923076924,574.9509998976796L560.7692307692308,574.9727652651951L564.2307692307692,574.9549194872022L567.6923076923076,574.9525051219966L571.1538461538461,574.9591512108556L574.6153846153845,574.9430611644514L578.0769230769231,574.9797880649315L581.5384615384615,574.9720670391062L585,574.9712874757722L588.4615384615385,574.9582042081227L591.9230769230769,574.9520301524756L595.3846153846154,574.9535353937788L598.8461538461538,574.9479058957921L602.3076923076923,574.9436747251891L605.7692307692308,574.9511652970497L609.2307692307693,574.9507903511985L612.6923076923077,574.9686045965127L616.1538461538462,574.9575518629757L619.6153846153846,574.955653745178L623.0769230769231,574.9488334015555L626.5384615384615,574.9485194564518L630,574.9514917240122L633.4615384615385,574.9317276149799L636.9230769230769,574.9485523268972L640.3846153846154,574.953076704521L643.8461538461538,574.9416501565795L647.3076923076923,574.9554274832958L650.7692307692307,574.9476519469473L654.2307692307692,574.9394592185411L657.6923076923076,574.9414060905L661.1538461538462,574.9282627414992L664.6153846153846,574.9159245101768L668.0769230769231,574.9286144148995L671.5384615384615,574.9336133235649L675,574.942145108209L678.4615384615385,574.9375618816631L681.9230769230769,574.9686801658756L685.3846153846154,574.9268083473471L688.8461538461538,574.9457767655115L692.3076923076924,574.9899776013182L695.7692307692308,574.9371619994307L699.2307692307693,574.9212569957627L702.6923076923077,574.9319940886206L706.1538461538462,574.9359823712385L709.6153846153846,574.9416881499799L713.0769230769231,574.9731314287696L716.5384615384615,574.9356387096774L720,574.915913222309L723.4615384615385,574.9286088086837L726.9230769230769,574.9280146077674L730.3846153846154,574.9190763704328L733.8461538461538,574.9257336387564L737.3076923076923,574.9287950252411L740.7692307692307,574.9151144319965L744.2307692307692,574.9679065515231L747.6923076923077,574.9886634901313L751.1538461538462,574.9135699556882L754.6153846153846,574.9898462071869L758.0769230769231,574.9873608000736L761.5384615384615,574.9150930165912L765,574.9849511477198L768.4615384615385,574.9675676806186L771.9230769230769,574.9311148540453L775.3846153846155,574.9169428377348L778.8461538461539,574.9237331841505L782.3076923076924,574.9260886012712L785.7692307692308,574.9446403697698L789.2307692307692,575.0009759409344L792.6923076923076,574.9816325556986L796.1538461538461,574.9821261159007L799.6153846153845,574.9509311213219L803.0769230769231,574.9811882054423L806.5384615384615,575.0016793520952L810,574.9280987305838L813.4615384615385,574.9198568108354L816.9230769230769,574.9443093378778L820.3846153846154,574.9911475220919L823.8461538461538,574.9055846558779L827.3076923076923,574.9642404116864L830.7692307692308,574.9177757968831L834.2307692307693,574.9448845671712L837.6923076923077,574.9514924622105L841.1538461538462,574.9769919534156L844.6153846153846,574.9953800923981L848.0769230769231,574.9411854267556L851.5384615384615,574.926713233538L855,574.9220691923051L858.4615384615385,574.9308154687549L861.9230769230769,574.9391439977364L865.3846153846154,574.9738550391468L868.8461538461538,574.9406399745433L872.3076923076923,574.9711821575129L875.7692307692307,574.9358397040634L879.2307692307692,574.9452999536265L882.6923076923076,574.9895924305295L886.1538461538462,574.9671504965623" style="fill: none; stroke: #1f77b4; stroke-width: 2;"></path></g></g><path class="foreground" d="" style="display: none; fill: none;"></path></g><g transform="translate(0,0)"><path class="background" d="M0,0h900v600h-900Z" style="fill: none;"></path><g><g class="mark-line role-mark marks"><path d="M6.923076923076923,584.2496841514202L10.384615384615385,579.9696011673152L13.846153846153847,577.8541704360413L17.30769230769231,576.938430769476L20.76923076923077,576.0624041602773L24.230769230769234,575.6033533062847L27.692307692307693,575.3177740349913L31.153846153846157,576.4646502799837L34.61538461538462,575.9767529805147L38.07692307692308,575.667238127893L41.53846153846154,575.5371240131908L45,575.3623188405797L48.46153846153847,575.2396522256075L51.92307692307693,575.1993775530052L55.38461538461539,575.0114836931557L58.84615384615385,575.0330318121761L62.307692307692314,574.9053356282272L65.76923076923077,574.883816106589L69.23076923076924,574.8613678373382L72.6923076923077,574.8L76.15384615384616,574.7277892958612L79.61538461538461,574.7139041192183L83.07692307692308,574.6821369703629L86.53846153846155,574.6653268385734L90,574.6129327484458L93.46153846153847,574.5762264814489L96.92307692307693,574.5883250182719L100.38461538461539,574.5302850356294L103.84615384615385,574.6981974532827L107.3076923076923,574.5259776710534L110.76923076923077,574.5363056579486L114.23076923076923,574.5175498967653L117.6923076923077,574.486205777345L121.15384615384615,574.5778229908443L124.61538461538463,574.473409801877L128.07692307692307,574.5344129554655L131.53846153846155,574.4690587623505L135,574.4546532305868L138.46153846153848,574.4432960631401L141.9230769230769,574.4231629821892L145.3846153846154,574.4478527607362L148.84615384615384,574.411429501791L152.30769230769232,574.393526803081L155.76923076923077,574.4166171224732L159.23076923076923,574.3825665859564L162.69230769230768,574.3525474661932L166.15384615384616,574.3715239154617L169.6153846153846,574.3708401356273L173.0769230769231,574.3852459016393L176.53846153846155,574.3595244998551L180,574.329591779751L183.46153846153845,574.3277243158971L186.92307692307693,574.3402867643252L190.3846153846154,574.3285742811502L193.84615384615387,574.3037547597243L197.3076923076923,574.3054521771493L200.76923076923077,574.3471044722559L204.23076923076923,574.311078312207L207.6923076923077,574.3213191792893L211.15384615384616,574.2753151687679L214.6153846153846,574.2967275015733L218.07692307692307,574.2773817239145L221.53846153846155,574.2761092024086L225,574.3555412739217L228.46153846153845,574.2794623319787L231.9230769230769,574.2941354801766L235.3846153846154,574.3010330848699L238.84615384615384,574.2566793893129L242.3076923076923,574.3123226841002L245.76923076923075,574.2589811366093L249.23076923076925,574.2594269357712L252.6923076923077,574.2677384536727L256.15384615384613,574.2626486038153L259.6153846153846,574.2375666792392L263.0769230769231,574.2562005138692L266.53846153846155,574.2342595669624L270,574.2697216210165L273.46153846153845,574.2239012657612L276.92307692307696,574.2387649760857L280.3846153846154,574.2325463198263L283.8461538461538,574.230578475134L287.30769230769226,574.2172467692578L290.7692307692308,574.2315789473685L294.2307692307692,574.2143052085739L297.6923076923077,574.2336619054449L301.15384615384613,574.2071080642252L304.61538461538464,574.2215434020638L308.0769230769231,574.212038225099L311.53846153846155,574.244351339219L315,574.2029649447509L318.46153846153845,574.2242444870394L321.9230769230769,574.2092615330644L325.38461538461536,574.2014598540146L328.8461538461538,574.2021455474845L332.3076923076923,574.2243719461034L335.7692307692308,574.2223332420106L339.2307692307692,574.2178568044721L342.6923076923077,574.1919144981413L346.1538461538462,574.2045126928972L349.61538461538464,574.2207521926565L353.0769230769231,574.2062126294298L356.53846153846155,574.2275539804798L360,574.1818079698952L363.46153846153845,574.1764146653991L366.9230769230769,574.1907065356916L370.38461538461536,574.1941343374613L373.84615384615387,574.1943544293913L377.3076923076923,574.1780130147406L380.7692307692308,574.1955717242677L384.2307692307692,574.1965407642841L387.69230769230774,574.1843010023728L391.1538461538462,574.2377165915025L394.6153846153846,574.1799312811163L398.07692307692304,574.2054841670491L401.53846153846155,574.1762434806168L405,574.1802951292577L408.46153846153845,574.2083528552905L411.9230769230769,574.1709583279687L415.3846153846154,574.1818450277904L418.84615384615387,574.1668742475194L422.3076923076923,574.2165973750714L425.7692307692308,574.1678133443147L429.2307692307692,574.1738133818125L432.6923076923077,574.1594840165768L436.15384615384613,574.1742500358835L439.6153846153846,574.1675852387816L443.0769230769231,574.1728253108686L446.53846153846155,574.1552165174493L450,574.1629720226265L453.46153846153845,574.1539756367663L456.9230769230769,574.1600949124154L460.38461538461536,574.1608881327387L463.8461538461538,574.168182856756L467.3076923076923,574.1631642149505L470.7692307692308,574.1703564358063L474.2307692307692,574.1597356635541L477.6923076923077,574.154951502814L481.15384615384613,574.1584057150051L484.6153846153846,574.1404734187039L488.07692307692304,574.1718377453078L491.5384615384615,574.1533960670769L495.00000000000006,574.160596420289L498.4615384615385,574.1478618626106L501.92307692307696,574.1479697377367L505.3846153846154,574.1580020823528L508.8461538461538,574.1871495425609L512.3076923076923,574.1495484112825L515.7692307692307,574.1695126374792L519.2307692307692,574.1744255919626L522.6923076923077,574.1585221136281L526.1538461538462,574.1657787073943L529.6153846153846,574.1577214548713L533.0769230769231,574.1551440091797L536.5384615384615,574.1431158044012L540,574.1472010798245L543.4615384615385,574.1337654320988L546.9230769230769,574.1428641060636L550.3846153846155,574.1585444312832L553.8461538461539,574.1467906258354L557.3076923076924,574.129675400539L560.7692307692308,574.1540279692732L564.2307692307692,574.1463847421925L567.6923076923076,574.1396316908737L571.1538461538461,574.1270879452607L574.6153846153845,574.1416750845933L578.0769230769231,574.1574276961987L581.5384615384615,574.1596923772902L585,574.2248399460648L588.4615384615385,574.1384301979755L591.9230769230769,574.138087112147L595.3846153846154,574.3103932656011L598.8461538461538,574.1581211557899L602.3076923076923,574.1482917616804L605.7692307692308,574.136089500929L609.2307692307693,574.1414141414142L612.6923076923077,574.1524954865762L616.1538461538462,574.1535065620576L619.6153846153846,574.1558250538521L623.0769230769231,574.1401166230035L626.5384615384615,574.2217274784887L630,574.1505042668736L633.4615384615385,574.1599567905157L636.9230769230769,574.1511984586434L640.3846153846154,574.1432945662366L643.8461538461538,574.1341730510428L647.3076923076923,574.1582914572864L650.7692307692307,574.1435075609568L654.2307692307692,574.1341812481897L657.6923076923076,574.1394204229892L661.1538461538462,574.1415139575124L664.6153846153846,574.2321087148702L668.0769230769231,574.1368648913576L671.5384615384615,574.1398153686968L675,574.1628429366247L678.4615384615385,574.3006453643948L681.9230769230769,574.2531395612029L685.3846153846154,574.2127847273543L688.8461538461538,574.2137538494538L692.3076923076924,574.2229938476352L695.7692307692308,574.1763170955468L699.2307692307693,574.1870806649077L702.6923076923077,574.1418932386443L706.1538461538462,574.2690671031096L709.6153846153846,574.1989830190178L713.0769230769231,574.1728393293786L716.5384615384615,574.1483245437832L720,574.2150266969103L723.4615384615385,574.2268152158823L726.9230769230769,574.1355219987787L730.3846153846154,574.2336904530893L733.8461538461538,574.1328620663973L737.3076923076923,574.2119024612061L740.7692307692307,574.2184043553707L744.2307692307692,574.3021445809924L747.6923076923077,574.1479250596472L751.1538461538462,574.1241632106851L754.6153846153846,574.3340385922778L758.0769230769231,574.3247039114239L761.5384615384615,574.1619431927021L765,574.2835417789423L768.4615384615385,574.4798050563509L771.9230769230769,574.1692790926479L775.3846153846155,574.1544204536502L778.8461538461539,574.2324758380339L782.3076923076924,574.1627437794217L785.7692307692308,574.2802070518599L789.2307692307692,574.5264614320305L792.6923076923076,574.5237802665082L796.1538461538461,574.2170208373949L799.6153846153845,574.490032367738L803.0769230769231,574.2676033364644L806.5384615384615,574.4184570353103L810,574.2088391024024L813.4615384615385,574.287291062415L816.9230769230769,574.5863987610348L820.3846153846154,574.6642096968056L823.8461538461538,574.2735698084173L827.3076923076923,574.3405973454251L830.7692307692308,574.3413036357681L834.2307692307693,574.256285507938L837.6923076923077,574.3558490799315L841.1538461538462,574.5217464136691L844.6153846153846,574.3997248022016L848.0769230769231,574.3238924870792L851.5384615384615,574.4489536402788L855,574.3209042065909L858.4615384615385,574.5134469082958L861.9230769230769,574.4007218199968L865.3846153846154,574.4744131517433L868.8461538461538,574.4122312849108L872.3076923076923,574.3929410090371L875.7692307692307,574.4275682814828L879.2307692307692,574.2418435119165L882.6923076923076,574.3106036662452L886.1538461538462,574.2639870639871" style="fill: none; stroke: #aec7e8; stroke-width: 2;"></path></g></g><path class="foreground" d="" style="display: none; fill: none;"></path></g><g transform="translate(0,0)"><path class="background" d="M0,0h900v600h-900Z" style="fill: none;"></path><g><g class="mark-line role-mark marks"><path d="M6.923076923076923,590.3973759832807L10.384615384615385,587.5475979985599L13.846153846153847,587.4333477446318L17.30769230769231,584.2420024389944L20.76923076923077,582.9995437343998L24.230769230769234,582.3387131668902L27.692307692307693,581.2026847324167L31.153846153846157,580.6106171951282L34.61538461538462,580.436882230853L38.07692307692308,579.3432416147821L41.53846153846154,579.3225779204324L45,580.1038781163435L48.46153846153847,580.3038363776083L51.92307692307693,579.581487215075L55.38461538461539,580.3047216774778L58.84615384615385,580.3698113207547L62.307692307692314,579.1591692592282L65.76923076923077,578.8160165688644L69.23076923076924,578.5776167598646L72.6923076923077,579.4137433925997L76.15384615384616,578.1642063360425L79.61538461538461,578.0497925311204L83.07692307692308,577.847585805701L86.53846153846155,578.660985826591L90,577.6391231028667L93.46153846153847,578.6462581126874L96.92307692307693,577.2779451042791L100.38461538461539,577.8430400148777L103.84615384615385,577.0387489870036L107.3076923076923,577.2425561553196L110.76923076923077,576.9346450693961L114.23076923076923,578.3633955354708L117.6923076923077,577.2809248554913L121.15384615384615,577.24043715847L124.61538461538463,576.9900783289817L128.07692307692307,577.4333365654999L131.53846153846155,579.0026516123514L135,577.2505718810488L138.46153846153848,576.974519597054L141.9230769230769,576.849481529488L145.3846153846154,576.7246196833282L148.84615384615384,576.5984216795712L152.30769230769232,576.5750889679715L155.76923076923077,576.5369411123228L159.23076923076923,576.438069037794L162.69230769230768,576.384731480317L166.15384615384616,576.4572939832902L169.6153846153846,576.2249534016776L173.0769230769231,576.2993531117555L176.53846153846155,576.4150842756561L180,576.3818527462364L183.46153846153845,577.3725360121304L186.92307692307693,576.0162562291354L190.3846153846154,576.0144589552239L193.84615384615387,577.1006400068726L197.3076923076923,575.9731164085609L200.76923076923077,576.2458982346833L204.23076923076923,576.1277179394086L207.6923076923077,575.8494139931337L211.15384615384616,576.3020267485857L214.6153846153846,575.8185316755477L218.07692307692307,576.9975795179491L221.53846153846155,575.6531468531468L225,575.691271533489L228.46153846153845,575.8717539343781L231.9230769230769,575.7813392573786L235.3846153846154,575.7015239096164L238.84615384615384,575.6953244647308L242.3076923076923,575.8116034612927L245.76923076923075,575.6057500711643L249.23076923076925,575.6269705182808L252.6923076923077,575.774681784148L256.15384615384613,575.7035103745269L259.6153846153846,575.5416016574162L263.0769230769231,575.5656198676155L266.53846153846155,575.4582420258096L270,576.7122238984082L273.46153846153845,575.4881711486923L276.92307692307696,575.3103229173759L280.3846153846154,575.4588659816498L283.8461538461538,575.7060273739692L287.30769230769226,575.3072024964156L290.7692307692308,575.4889860639994L294.2307692307692,575.4717923115327L297.6923076923077,575.5656178945527L301.15384615384613,576.6833378635498L304.61538461538464,575.3149200277512L308.0769230769231,575.32172638138L311.53846153846155,575.396215627066L315,575.2658303464756L318.46153846153845,576.4114165805997L321.9230769230769,576.4878867834013L325.38461538461536,575.2076318742985L328.8461538461538,575.359351160363L332.3076923076923,575.1357699449303L335.7692307692308,575.3558277482474L339.2307692307692,575.6054267272293L342.6923076923077,576.5189266890272L346.1538461538462,575.1192810935808L349.61538461538464,575.176140511602L353.0769230769231,576.40879261591L356.53846153846155,575.2207902835788L360,576.391556674028L363.46153846153845,575.313154463192L366.9230769230769,575.2225292187155L370.38461538461536,575.3619757712318L373.84615384615387,575.2186465037805L377.3076923076923,575.3298481757887L380.7692307692308,576.4462052855769L384.2307692307692,576.2453076268783L387.69230769230774,576.3541204648275L391.1538461538462,575.2688184293576L394.6153846153846,575.1272727272727L398.07692307692304,576.47191175855L401.53846153846155,574.992128738849L405,575.1939496658246L408.46153846153845,575.2555377844681L411.9230769230769,575.1235365236171L415.3846153846154,574.9918273945734L418.84615384615387,574.9799455161391L422.3076923076923,576.2911462383929L425.7692307692308,575.2272661600254L429.2307692307692,575.1398544866613L432.6923076923077,575.156659184437L436.15384615384613,574.9496937070726L439.6153846153846,575.1679511678243L443.0769230769231,575.1607034566404L446.53846153846155,575.0876652253934L450,576.280897577729L453.46153846153845,575.2126665307233L456.9230769230769,575.1699163411404L460.38461538461536,576.3216245797211L463.8461538461538,576.2296269185545L467.3076923076923,576.3288179880356L470.7692307692308,576.2325106768964L474.2307692307692,576.340777980454L477.6923076923077,576.2458269438188L481.15384615384613,576.3778174129425L484.6153846153846,576.3781760435572L488.07692307692304,576.2651600806197L491.5384615384615,574.9183794423022L495.00000000000006,575.3581099281229L498.4615384615385,576.4817965294318L501.92307692307696,576.5150171164246L505.3846153846154,576.5045937587126L508.8461538461538,576.4748035580488L512.3076923076923,576.4691905691735L515.7692307692307,576.4258766505516L519.2307692307692,576.4586410635155L522.6923076923077,576.5037885676184L526.1538461538462,576.432694500114L529.6153846153846,576.4563859242255L533.0769230769231,576.5287909042748L536.5384615384615,576.4606038949437L540,576.4042136962238L543.4615384615385,576.4077921346733L546.9230769230769,575.129192379144L550.3846153846155,576.4018273364704L553.8461538461539,576.3646534260934L557.3076923076924,576.4193137548696L560.7692307692308,576.441527307674L564.2307692307692,576.3858275126522L567.6923076923076,576.3183028268953L571.1538461538461,576.3397626947085L574.6153846153845,576.3642051302751L578.0769230769231,576.3553531887729L581.5384615384615,576.1802683770783L585,576.5277777777777L588.4615384615385,576.3754916763639L591.9230769230769,576.3611333028989L595.3846153846154,576.3780429952984L598.8461538461538,576.2892214201497L602.3076923076923,576.3967715307714L605.7692307692308,576.2640193307194L609.2307692307693,575.1086237213788L612.6923076923077,576.2595613800481L616.1538461538462,576.3008135447053L619.6153846153846,576.2718191995888L623.0769230769231,576.1962384179228L626.5384615384615,576.229240914232L630,576.2391662095447L633.4615384615385,576.2580486421565L636.9230769230769,576.3121005214571L640.3846153846154,576.2036711356145L643.8461538461538,576.2618361465624L647.3076923076923,576.2093750125061L650.7692307692307,576.2409249798333L654.2307692307692,576.1909485479489L657.6923076923076,576.0907592752037L661.1538461538462,576.2198423288701L664.6153846153846,576.1851415542467L668.0769230769231,576.0841994742725L671.5384615384615,576.2568281676761L675,576.1686635944701L678.4615384615385,576.4790964358775L681.9230769230769,576.2324829061985L685.3846153846154,576.2368654688853L688.8461538461538,576.2572210505526L692.3076923076924,576.1314734603045L695.7692307692308,576.1607133559872L699.2307692307693,576.1662154176001L702.6923076923077,576.2048503787236L706.1538461538462,576.1186855474353L709.6153846153846,576.1079452347988L713.0769230769231,575.9992547716241L716.5384615384615,576.0798549882277L720,576.1528834244434L723.4615384615385,576.204260037236L726.9230769230769,576.1801879658638L730.3846153846154,576.1616088442338L733.8461538461538,576.1231269238582L737.3076923076923,576.1057480807718L740.7692307692307,576.0635082659747L744.2307692307692,576.1209835726831L747.6923076923077,576.0622202638385L751.1538461538462,576.1295988167868L754.6153846153846,576.1753551986694L758.0769230769231,576.1325195398261L761.5384615384615,576.1439481359922L765,576.1069736925406L768.4615384615385,576.0243811704106L771.9230769230769,576.1142535854345L775.3846153846155,576.3442184228406L778.8461538461539,576.1072228715474L782.3076923076924,576.1395313049595L785.7692307692308,576.346057779806L789.2307692307692,576.1487223223828L792.6923076923076,576.1866767814643L796.1538461538461,576.1279687404603L799.6153846153845,576.1724934989887L803.0769230769231,576.0669596149822L806.5384615384615,576.2062235743014L810,576.1130129076959L813.4615384615385,576.1752801004936L816.9230769230769,576.1402306265624L820.3846153846154,576.0564040712035L823.8461538461538,576.2845222907976L827.3076923076923,576.1703218903605L830.7692307692308,576.1696742556065L834.2307692307693,576.163556478285L837.6923076923077,576.1347172615481L841.1538461538462,576.1453333079855L844.6153846153846,576.1862723876033L848.0769230769231,576.2064374419982L851.5384615384615,576.1211614790057L855,576.1068146581613L858.4615384615385,576.1729745496974L861.9230769230769,576.10247655065L865.3846153846154,576.2673248528574L868.8461538461538,576.2131542944458L872.3076923076923,576.1977960922308L875.7692307692307,576.1887954274911L879.2307692307692,576.0134195309288L882.6923076923076,576.206849792724L886.1538461538462,576.0918632523385" style="fill: none; stroke: #2ca02c; stroke-width: 2;"></path></g></g><path class="foreground" d="" style="display: none; fill: none;"></path></g><g transform="translate(0,0)"><path class="background" d="M0,0h900v600h-900Z" style="fill: none;"></path><g><g class="mark-line role-mark marks"><path d="M6.923076923076923,588.1634317114243L10.384615384615385,585.7335521050104L13.846153846153847,584.3395047570842L17.30769230769231,583.4858995446851L20.76923076923077,583.056074394945L24.230769230769234,582.7218865676722L27.692307692307693,582.518822979916L31.153846153846157,582.3254364089776L34.61538461538462,582.5017155180865L38.07692307692308,582.1487459862883L41.53846153846154,582.9988193624557L45,582.6844262295082L48.46153846153847,582.7241146886504L51.92307692307693,582.4933889340928L55.38461538461539,582.5664307651222L58.84615384615385,582.4165904481648L62.307692307692314,582.2794176787581L65.76923076923077,582.3058348650304L69.23076923076924,582.2448513332681L72.6923076923077,582.2297846403901L76.15384615384616,582.1529499256321L79.61538461538461,582.1171245815796L83.07692307692308,582.0823421774932L86.53846153846155,582.0402298850576L90,582.0133976084643L93.46153846153847,581.9932000464954L96.92307692307693,581.9544392918796L100.38461538461539,581.9687224114012L103.84615384615385,581.9234404536862L107.3076923076923,581.9560415286061L110.76923076923077,581.9287864631995L114.23076923076923,581.9067630961689L117.6923076923077,581.9308569326959L121.15384615384615,581.8581757992856L124.61538461538463,581.8427558925334L128.07692307692307,581.8406679151061L131.53846153846155,581.8311005847088L135,581.8241248418389L138.46153846153848,581.804802996856L141.9230769230769,581.7864882090504L145.3846153846154,581.763561177329L148.84615384615384,581.7472852912142L152.30769230769232,581.7581199423568L155.76923076923077,581.7403065825067L159.23076923076923,581.7373204041224L162.69230769230768,581.7349221789883L166.15384615384616,581.7117243311388L169.6153846153846,581.7029765106688L173.0769230769231,581.7007534983853L176.53846153846155,581.698261589404L180,581.6918910307471L183.46153846153845,581.6687140115163L186.92307692307693,581.6840938481433L190.3846153846154,581.6673202381377L193.84615384615387,581.662711106525L197.3076923076923,581.641627334973L200.76923076923077,581.6399126749711L204.23076923076923,581.7191313212444L207.6923076923077,581.636510937078L211.15384615384616,581.6252251205484L214.6153846153846,581.6029954111652L218.07692307692307,581.6219970583428L221.53846153846155,581.6293794850147L225,581.5979605954242L228.46153846153845,581.6038157698614L231.9230769230769,581.5940281228142L235.3846153846154,581.5932187514635L238.84615384615384,581.5880707022453L242.3076923076923,581.5797620627128L245.76923076923075,581.571726555276L249.23076923076925,581.5920626631854L252.6923076923077,581.5650563672622L256.15384615384613,581.5641152589366L259.6153846153846,581.5605777203572L263.0769230769231,581.5671109442462L266.53846153846155,581.5616939540839L270,581.5550879195349L273.46153846153845,581.5534807705682L276.92307692307696,581.5555706245339L280.3846153846154,581.5394164087455L283.8461538461538,581.5525143631786L287.30769230769226,581.5386919305768L290.7692307692308,581.545562239419L294.2307692307692,581.5389586965671L297.6923076923077,581.5504262718455L301.15384615384613,581.5374350733205L304.61538461538464,581.5386341326601L308.0769230769231,581.5150932776916L311.53846153846155,581.522482991828L315,581.5175664320974L318.46153846153845,581.5246337360845L321.9230769230769,581.5162105421952L325.38461538461536,581.5048573574497L328.8461538461538,581.5143920864609L332.3076923076923,581.560407226505L335.7692307692308,581.4999826511375L339.2307692307692,581.5004249051045L342.6923076923077,581.5026200097695L346.1538461538462,581.5072665564355L349.61538461538464,581.5047513411473L353.0769230769231,581.4952919020716L356.53846153846155,581.4971325392673L360,581.5005080840704L363.46153846153845,581.4969297293028L366.9230769230769,581.4955679341244L370.38461538461536,581.4846841704718L373.84615384615387,581.4967713037961L377.3076923076923,581.4837597748462L380.7692307692308,581.5127711969515L384.2307692307692,581.5527901077996L387.69230769230774,581.4835847074248L391.1538461538462,581.478887059205L394.6153846153846,581.486714095377L398.07692307692304,581.4754544106257L401.53846153846155,581.4831184179639L405,581.4780885372726L408.46153846153845,581.4794066099148L411.9230769230769,581.4764971568832L415.3846153846154,581.476296772729L418.84615384615387,581.4662605924315L422.3076923076923,581.4726513875668L425.7692307692308,581.4649034303834L429.2307692307692,581.4706278487832L432.6923076923077,581.478834447799L436.15384615384613,581.4882540553517L439.6153846153846,581.4704411526193L443.0769230769231,581.46815971044L446.53846153846155,581.4553356626395L450,581.4568596065473L453.46153846153845,581.4547615869202L456.9230769230769,581.4637137904493L460.38461538461536,581.4553269690915L463.8461538461538,581.4577372817008L467.3076923076923,581.4560439560439L470.7692307692308,581.4546912968599L474.2307692307692,581.4560364517647L477.6923076923077,581.4514641259074L481.15384615384613,581.4705351400752L484.6153846153846,581.4589141334045L488.07692307692304,581.4448220393418L491.5384615384615,581.4513676578015L495.00000000000006,581.4510655554014L498.4615384615385,581.4539600366173L501.92307692307696,581.4479837642284L505.3846153846154,581.4747712284649L508.8461538461538,581.4467244784065L512.3076923076923,581.4456126364045L515.7692307692307,581.4611802615162L519.2307692307692,581.4520274267536L522.6923076923077,581.4427219977404L526.1538461538462,581.451334120425L529.6153846153846,581.4436926749885L533.0769230769231,581.4411710550543L536.5384615384615,581.4404576891967L540,581.4457290984599L543.4615384615385,581.4389238081317L546.9230769230769,581.4551397458531L550.3846153846155,581.4348782057651L553.8461538461539,581.4799053568693L557.3076923076924,581.4405508992124L560.7692307692308,581.4374157471666L564.2307692307692,581.4383755861213L567.6923076923076,581.4322030456852L571.1538461538461,581.4460328405119L574.6153846153845,581.4580199806843L578.0769230769231,581.4872647900633L581.5384615384615,581.4965986394558L585,581.503140988278L588.4615384615385,581.4558987831024L591.9230769230769,581.4538189469914L595.3846153846154,581.7069861673377L598.8461538461538,581.4449979577547L602.3076923076923,581.4729036554418L605.7692307692308,581.4392615990132L609.2307692307693,581.436719614769L612.6923076923077,581.5763401953086L616.1538461538462,581.4382058094776L619.6153846153846,581.4372810425442L623.0769230769231,581.4350428733214L626.5384615384615,581.4629299871857L630,581.4512059344758L633.4615384615385,581.5032002339257L636.9230769230769,581.4421873992391L640.3846153846154,581.4415216150095L643.8461538461538,581.454311535478L647.3076923076923,581.4331625960397L650.7692307692307,581.4400711695405L654.2307692307692,581.4367159032549L657.6923076923076,581.4377922557151L661.1538461538462,581.5511363636364L664.6153846153846,581.5960389759132L668.0769230769231,581.4375205196754L671.5384615384615,581.4352450977548L675,581.4336387396961L678.4615384615385,581.5638250422037L681.9230769230769,581.4948502765592L685.3846153846154,581.519751107759L688.8461538461538,581.5553954311578L692.3076923076924,581.4977062597613L695.7692307692308,581.4505134202268L699.2307692307693,581.4479156358735L702.6923076923077,581.4522295354539L706.1538461538462,581.6067616999925L709.6153846153846,581.4823694687514L713.0769230769231,581.4652820241405L716.5384615384615,581.4308365686842L720,581.5308894949098L723.4615384615385,581.5772916837229L726.9230769230769,581.4423343498753L730.3846153846154,581.4929478965952L733.8461538461538,581.4366273151129L737.3076923076923,581.4964793378516L740.7692307692307,581.4824381762438L744.2307692307692,581.5046036961372L747.6923076923077,581.4461726321501L751.1538461538462,581.4722226722615L754.6153846153846,581.6460464080767L758.0769230769231,582.4036593893248L761.5384615384615,581.5367906597882L765,581.5499805566357L768.4615384615385,581.6590777744698L771.9230769230769,581.5326458078933L775.3846153846155,582.864179773114L778.8461538461539,581.570922904626L782.3076923076924,581.5673520683052L785.7692307692308,581.5926092474763L789.2307692307692,581.749377346567L792.6923076923076,581.8156840507817L796.1538461538461,581.5032682427179L799.6153846153845,581.7690220668034L803.0769230769231,581.7594137546772L806.5384615384615,582.0174153296988L810,581.6130179197876L813.4615384615385,581.6704120142681L816.9230769230769,581.7888555717333L820.3846153846154,582.5875751751504L823.8461538461538,581.6589717803377L827.3076923076923,581.8340202077646L830.7692307692308,581.7836134375616L834.2307692307693,582.4120179624612L837.6923076923077,582.2665149078136L841.1538461538462,582.5568690279049L844.6153846153846,582.5501842200089L848.0769230769231,581.7660450048156L851.5384615384615,582.1667440941333L855,581.8050355951174L858.4615384615385,582.2205293193397L861.9230769230769,582.1075870076695L865.3846153846154,582.3666085802008L868.8461538461538,582.5360199063384L872.3076923076923,582.3196703591854L875.7692307692307,582.7017278353335L879.2307692307692,581.96964615678L882.6923076923076,582.844924981222L886.1538461538462,582.9970682811215" style="fill: none; stroke: #98df8a; stroke-width: 2;"></path></g></g><path class="foreground" d="" style="display: none; fill: none;"></path></g><g transform="translate(0,0)"><path class="background" d="M0,0h900v600h-900Z" style="fill: none;"></path><g><g class="mark-line role-mark marks"><path d="M6.923076923076923,577.2065759331626L10.384615384615385,546.2522948736054L13.846153846153847,510.00033287839955L17.30769230769231,472.53850800362426L20.76923076923077,422.31045875851584L24.230769230769234,428.4550608637652L27.692307692307693,406.6381009202509L31.153846153846157,417.5735474883226L34.61538461538462,403.9904976724096L38.07692307692308,343.9605859334775L41.53846153846154,297.84342537342036L45,328.85819372309675L48.46153846153847,285.35878402262284L51.92307692307693,265.651305464403L55.38461538461539,185.27457295446214L58.84615384615385,296.8441475826972L62.307692307692314,210.0401359470173L65.76923076923077,274.16620803522295L69.23076923076924,266.0061794734014L72.6923076923077,193.88321273168745L76.15384615384616,167.43019442206432L79.61538461538461,141.1658687693607L83.07692307692308,70.91581108829568L86.53846153846155,229.52435095698314L90,186.56846301562993L93.46153846153847,184.51213872832378L96.92307692307693,141.1727642276423L100.38461538461539,127.89212988442486L103.84615384615385,127.90503395494225L107.3076923076923,188.59693302262647L110.76923076923077,76.89911199148366L114.23076923076923,153.3140549978175L117.6923076923077,134.8500743383883L121.15384615384615,121.34772766846595L124.61538461538463,81.60612939841097L128.07692307692307,161.41536427500208L131.53846153846155,92.24502784407318L135,98.18622892491811L138.46153846153848,26.962185867532273L141.9230769230769,144.21372208853322L145.3846153846154,132.98922068053244L148.84615384615384,192.0393997334724L152.30769230769232,112.65237494745695L155.76923076923077,117.3551333463913L159.23076923076923,95.53514084793309L162.69230769230768,117.18022662004495L166.15384615384616,67.43602545172567L169.6153846153846,177.78582317073176L173.0769230769231,187.89876854455534L176.53846153846155,180.4440649017934L180,152.66640716231993L183.46153846153845,155.28962562860866L186.92307692307693,132.604186309636L190.3846153846154,150.8733624454148L193.84615384615387,86.347432315252L197.3076923076923,195.8363822625494L200.76923076923077,169.49713941583857L204.23076923076923,163.33382526564344L207.6923076923077,150.363676438175L211.15384615384616,161.2332662828606L214.6153846153846,133.4951456310679L218.07692307692307,154.01546698393824L221.53846153846155,73.20320774701167L225,164.3008795875038L228.46153846153845,139.21971252566726L231.9230769230769,176.97893569844786L235.3846153846154,134.91894450360903L238.84615384615384,147.38284308242925L242.3076923076923,118.63623230280263L245.76923076923075,144.0678867844222L249.23076923076925,65.14535412999945L252.6923076923077,164.68926855312333L256.15384615384613,186.03290676416827L259.6153846153846,182.38305512422357L263.0769230769231,137.3636268453565L266.53846153846155,153.4424534803585L270,142.8259908648887L273.46153846153845,156.3063984015613L276.92307692307696,89.57464553794831L280.3846153846154,178.09733955365022L283.8461538461538,152.6105675146771L287.30769230769226,154.96664414794802L290.7692307692308,136.00893970000428L294.2307692307692,169.11908010134485L297.6923076923077,135.56823312128046L301.15384615384613,157.68963409976325L304.61538461538464,75.43631292336295L308.0769230769231,154.6872803935348L311.53846153846155,158.45925688404344L315,146.24657534246572L318.46153846153845,125.31793814432986L321.9230769230769,145.12394137437647L325.38461538461536,106.93582799934353L328.8461538461538,147.21853327431015L332.3076923076923,93.60591491252879L335.7692307692308,175.87617248351066L339.2307692307692,134.26849705829918L342.6923076923077,142.92023866675808L346.1538461538462,126.42941709032654L349.61538461538464,140.7084685161888L353.0769230769231,103.68515205724506L356.53846153846155,174.42406876790838L360,74.01272974325967L363.46153846153845,169.91476807080812L366.9230769230769,148.2366456059735L370.38461538461536,150.90120974387716L373.84615384615387,131.12319697327973L377.3076923076923,144.77461523601008L380.7692307692308,144.40753045404207L384.2307692307692,129.61212704523578L387.69230769230774,79.37500000000001L391.1538461538462,151.92527718801603L394.6153846153846,138.75033553043642L398.07692307692304,156.17885108903076L401.53846153846155,116.16135367880345L405,138.64926482735842L408.46153846153845,125.46092418724324L411.9230769230769,128.7828271294816L415.3846153846154,69.11208872916541L418.84615384615387,145.9326826598559L422.3076923076923,134.50420065002766L425.7692307692308,142.6731470230862L429.2307692307692,111.50812932162218L432.6923076923077,125.10429082240752L436.15384615384613,93.73100731570072L439.6153846153846,136.64047317279255L443.0769230769231,100.0993119952139L446.53846153846155,151.15662879989847L450,148.59692675109198L453.46153846153845,145.4677178112925L456.9230769230769,105.71037613056097L460.38461538461536,150.44997907074088L463.8461538461538,112.3458367946834L467.3076923076923,125.40516528292636L470.7692307692308,79.38274057884631L474.2307692307692,157.08911715713495L477.6923076923077,123.14263830790078L481.15384615384613,162.727817346735L484.6153846153846,98.23811101406497L488.07692307692304,142.9346135641355L491.5384615384615,108.22334442786632L495.00000000000006,135.17232157780376L498.4615384615385,60.3802467623918L501.92307692307696,156.08569654315886L505.3846153846154,127.11470703379872L508.8461538461538,145.03612269330804L512.3076923076923,123.50619021721747L515.7692307692307,133.688480705078L519.2307692307692,104.9504950495049L522.6923076923077,133.36637239165324L526.1538461538462,76.25695902923633L529.6153846153846,146.7161515680766L533.0769230769231,149.72972972972966L536.5384615384615,134.02738163148882L540,109.89733059548259L543.4615384615385,143.93447975620373L546.9230769230769,93.44951062306046L550.3846153846155,125.37051352843736L553.8461538461539,63.33442946399215L557.3076923076924,148.2294443305311L560.7692307692308,126.18096856414611L564.2307692307692,147.69377127979178L567.6923076923076,113.84157363104732L571.1538461538461,121.08340231788075L574.6153846153845,102.01764643350693L578.0769230769231,132.15610815077954L581.5384615384615,67.41258741258736L585,176.02427523576668L588.4615384615385,134.1803356404665L591.9230769230769,160.59665871121723L595.3846153846154,219.88662988436246L598.8461538461538,149.4217144881332L602.3076923076923,119.51829723674383L605.7692307692308,136.6868381240544L609.2307692307693,70.60219161556245L612.6923076923077,157.9040425002075L616.1538461538462,124.51624293785315L619.6153846153846,141.69373159444683L623.0769230769231,113.89992057188243L626.5384615384615,157.95142471624737L630,101.2329495128432L633.4615384615385,134.494685200327L636.9230769230769,63.15455647794046L640.3846153846154,139.62256686184523L643.8461538461538,129.98321745384803L647.3076923076923,135.56796874999998L650.7692307692307,115.28880283962573L654.2307692307692,133.88317470064476L657.6923076923076,94.39775910364139L661.1538461538462,134.716032710631L664.6153846153846,124.33548387096769L668.0769230769231,150.67551266586253L671.5384615384615,136.43529923199532L675,142.54829806807737L678.4615384615385,188.9267954931705L681.9230769230769,181.2155643011298L685.3846153846154,162.82846835027874L688.8461538461538,196.97258141762455L692.3076923076924,98.11794228356334L695.7692307692308,178.277661795407L699.2307692307693,127.08753749659114L702.6923076923077,138.86716692996305L706.1538461538462,165.24795673815527L709.6153846153846,225.89673770749337L713.0769230769231,134.72299258303772L716.5384615384615,145.72310570626757L720,137.02127659574475L723.4615384615385,173.81944444444449L726.9230769230769,138.16300129366104L730.3846153846154,213.03901017434427L733.8461538461538,116.63946352881634L737.3076923076923,170.60850684778973L740.7692307692307,148.99084694705132L744.2307692307692,158.77316114542393L747.6923076923077,101.7889447236181L751.1538461538462,216.33692786963817L754.6153846153846,182.62747326548546L758.0769230769231,270.5176594197042L761.5384615384615,189.66686614801517L765,179.46869935170176L768.4615384615385,171.07049608355092L771.9230769230769,165.17179302540893L775.3846153846155,267.2808830986465L778.8461538461539,225.21229804468058L782.3076923076924,169.89696849613628L785.7692307692308,239.8795477903391L789.2307692307692,193.35173937051357L792.6923076923076,223.3005155074791L796.1538461538461,129.08833848248412L799.6153846153845,221.06311876018208L803.0769230769231,161.63081492837642L806.5384615384615,224.17518426517898L810,163.16485991834432L813.4615384615385,212.93547722119152L816.9230769230769,260.5971968312005L820.3846153846154,254.0565901021665L823.8461538461538,168.39765138272597L827.3076923076923,238.5419691047832L830.7692307692308,155.39411551035238L834.2307692307693,236.1510115340679L837.6923076923077,270.193129492828L841.1538461538462,263.1884981881627L844.6153846153846,285.6990249052854L848.0769230769231,224.5953204326393L851.5384615384615,258.31744661064795L855,209.52034938443575L858.4615384615385,183.8369686355676L861.9230769230769,244.41771810269208L865.3846153846154,260.9114699687241L868.8461538461538,230.60736704145685L872.3076923076923,246.03167316961213L875.7692307692307,264.5954443177265L879.2307692307692,226.7197603975223L882.6923076923076,303.47246439013924L886.1538461538462,229.18555500083207" style="fill: none; stroke: #ffbb78; stroke-width: 2;"></path></g></g><path class="foreground" d="" style="display: none; fill: none;"></path></g></g><g class="mark-group role-legend"><g transform="translate(918,0)"><path class="background" d="M0,0h101v92h-101Z" style="pointer-events: none; fill: none;"></path><g><g class="mark-group role-legend-entry"><g transform="translate(0,16)"><path class="background" d="M0,0h0v0h0Z" style="pointer-events: none; fill: none;"></path><g><g class="mark-group role-scope"><g transform="translate(0,0)"><path class="background" d="M0,0h101v11h-101Z" style="pointer-events: none; fill: none; opacity: 1;"></path><g><g class="mark-symbol role-legend-symbol" style="pointer-events: none;"><path transform="translate(6,6)" d="M-5,0L5,0" style="fill: none; stroke: #1f77b4; stroke-width: 1.5; opacity: 1;"></path></g><g class="mark-text role-legend-label" style="pointer-events: none;"><text text-anchor="start" transform="translate(16,9)" style="font-family: sans-serif; font-size: 10px; fill: #000; opacity: 1;">Clang</text></g></g><path class="foreground" d="" style="pointer-events: none; display: none; fill: none;"></path></g><g transform="translate(0,13)"><path class="background" d="M0,0h101v11h-101Z" style="pointer-events: none; fill: none; opacity: 1;"></path><g><g class="mark-symbol role-legend-symbol" style="pointer-events: none;"><path transform="translate(6,6)" d="M-5,0L5,0" style="fill: none; stroke: #aec7e8; stroke-width: 1.5; opacity: 1;"></path></g><g class="mark-text role-legend-label" style="pointer-events: none;"><text text-anchor="start" transform="translate(16,9)" style="font-family: sans-serif; font-size: 10px; fill: #000; opacity: 1;">GFortran</text></g></g><path class="foreground" d="" style="pointer-events: none; display: none; fill: none;"></path></g><g transform="translate(0,26)"><path class="background" d="M0,0h101v11h-101Z" style="pointer-events: none; fill: none; opacity: 1;"></path><g><g class="mark-symbol role-legend-symbol" style="pointer-events: none;"><path transform="translate(6,6)" d="M-5,0L5,0" style="fill: none; stroke: #ff7f0e; stroke-width: 1.5; opacity: 1;"></path></g><g class="mark-text role-legend-label" style="pointer-events: none;"><text text-anchor="start" transform="translate(16,9)" style="font-family: sans-serif; font-size: 10px; fill: #000; opacity: 1;">Julia</text></g></g><path class="foreground" d="" style="pointer-events: none; display: none; fill: none;"></path></g><g transform="translate(0,39)"><path class="background" d="M0,0h101v11h-101Z" style="pointer-events: none; fill: none; opacity: 1;"></path><g><g class="mark-symbol role-legend-symbol" style="pointer-events: none;"><path transform="translate(6,6)" d="M-5,0L5,0" style="fill: none; stroke: #ffbb78; stroke-width: 1.5; opacity: 1;"></path></g><g class="mark-text role-legend-label" style="pointer-events: none;"><text text-anchor="start" transform="translate(16,9)" style="font-family: sans-serif; font-size: 10px; fill: #000; opacity: 1;">LoopVectorization</text></g></g><path class="foreground" d="" style="pointer-events: none; display: none; fill: none;"></path></g><g transform="translate(0,52)"><path class="background" d="M0,0h101v11h-101Z" style="pointer-events: none; fill: none; opacity: 1;"></path><g><g class="mark-symbol role-legend-symbol" style="pointer-events: none;"><path transform="translate(6,6)" d="M-5,0L5,0" style="fill: none; stroke: #2ca02c; stroke-width: 1.5; opacity: 1;"></path></g><g class="mark-text role-legend-label" style="pointer-events: none;"><text text-anchor="start" transform="translate(16,9)" style="font-family: sans-serif; font-size: 10px; fill: #000; opacity: 1;">icc</text></g></g><path class="foreground" d="" style="pointer-events: none; display: none; fill: none;"></path></g><g transform="translate(0,65)"><path class="background" d="M0,0h101v11h-101Z" style="pointer-events: none; fill: none; opacity: 1;"></path><g><g class="mark-symbol role-legend-symbol" style="pointer-events: none;"><path transform="translate(6,6)" d="M-5,0L5,0" style="fill: none; stroke: #98df8a; stroke-width: 1.5; opacity: 1;"></path></g><g class="mark-text role-legend-label" style="pointer-events: none;"><text text-anchor="start" transform="translate(16,9)" style="font-family: sans-serif; font-size: 10px; fill: #000; opacity: 1;">ifort</text></g></g><path class="foreground" d="" style="pointer-events: none; display: none; fill: none;"></path></g></g></g><path class="foreground" d="" style="pointer-events: none; display: none; fill: none;"></path></g></g><g class="mark-text role-legend-title" style="pointer-events: none;"><text text-anchor="start" transform="translate(0,9)" style="font-family: sans-serif; font-size: 11px; font-weight: bold; fill: #000; opacity: 1;">Method</text></g></g><path class="foreground" d="" style="pointer-events: none; display: none; fill: none;"></path></g></g></g><path class="foreground" d="" style="display: none; fill: none;"></path></g></g></g></svg>
