<svg class="marks" width="1066" height="647" viewBox="0 0 1066 647" version="1.1" xmlns="http://www.w3.org/2000/svg" xmlns:xlink="http://www.w3.org/1999/xlink"><g transform="translate(42,10)"><g class="mark-group role-frame root"><g transform="translate(0,0)"><path class="background" d="M0.5,0.5h900v600h-900Z" style="fill: none; stroke: #ddd;"></path><g><g class="mark-group role-axis"><g transform="translate(0.5,600.5)"><path class="background" d="M0,0h0v0h0Z" style="pointer-events: none; fill: none;"></path><g><g class="mark-rule role-axis-grid" style="pointer-events: none;"><line transform="translate(0,-600)" x2="0" y2="600" style="fill: none; stroke: #ddd; stroke-width: 1; opacity: 1;"></line><line transform="translate(35,-600)" x2="0" y2="600" style="fill: none; stroke: #ddd; stroke-width: 1; opacity: 1;"></line><line transform="translate(69,-600)" x2="0" y2="600" style="fill: none; stroke: #ddd; stroke-width: 1; opacity: 1;"></line><line transform="translate(104,-600)" x2="0" y2="600" style="fill: none; stroke: #ddd; stroke-width: 1; opacity: 1;"></line><line transform="translate(138,-600)" x2="0" y2="600" style="fill: none; stroke: #ddd; stroke-width: 1; opacity: 1;"></line><line transform="translate(173,-600)" x2="0" y2="600" style="fill: none; stroke: #ddd; stroke-width: 1; opacity: 1;"></line><line transform="translate(208,-600)" x2="0" y2="600" style="fill: none; stroke: #ddd; stroke-width: 1; opacity: 1;"></line><line transform="translate(242,-600)" x2="0" y2="600" style="fill: none; stroke: #ddd; stroke-width: 1; opacity: 1;"></line><line transform="translate(277,-600)" x2="0" y2="600" style="fill: none; stroke: #ddd; stroke-width: 1; opacity: 1;"></line><line transform="translate(312,-600)" x2="0" y2="600" style="fill: none; stroke: #ddd; stroke-width: 1; opacity: 1;"></line><line transform="translate(346,-600)" x2="0" y2="600" style="fill: none; stroke: #ddd; stroke-width: 1; opacity: 1;"></line><line transform="translate(381,-600)" x2="0" y2="600" style="fill: none; stroke: #ddd; stroke-width: 1; opacity: 1;"></line><line transform="translate(415,-600)" x2="0" y2="600" style="fill: none; stroke: #ddd; stroke-width: 1; opacity: 1;"></line><line transform="translate(450,-600)" x2="0" y2="600" style="fill: none; stroke: #ddd; stroke-width: 1; opacity: 1;"></line><line transform="translate(485,-600)" x2="0" y2="600" style="fill: none; stroke: #ddd; stroke-width: 1; opacity: 1;"></line><line transform="translate(519,-600)" x2="0" y2="600" style="fill: none; stroke: #ddd; stroke-width: 1; opacity: 1;"></line><line transform="translate(554,-600)" x2="0" y2="600" style="fill: none; stroke: #ddd; stroke-width: 1; opacity: 1;"></line><line transform="translate(588,-600)" x2="0" y2="600" style="fill: none; stroke: #ddd; stroke-width: 1; opacity: 1;"></line><line transform="translate(623,-600)" x2="0" y2="600" style="fill: none; stroke: #ddd; stroke-width: 1; opacity: 1;"></line><line transform="translate(658,-600)" x2="0" y2="600" style="fill: none; stroke: #ddd; stroke-width: 1; opacity: 1;"></line><line transform="translate(692,-600)" x2="0" y2="600" style="fill: none; stroke: #ddd; stroke-width: 1; opacity: 1;"></line><line transform="translate(727,-600)" x2="0" y2="600" style="fill: none; stroke: #ddd; stroke-width: 1; opacity: 1;"></line><line transform="translate(762,-600)" x2="0" y2="600" style="fill: none; stroke: #ddd; stroke-width: 1; opacity: 1;"></line><line transform="translate(796,-600)" x2="0" y2="600" style="fill: none; stroke: #ddd; stroke-width: 1; opacity: 1;"></line><line transform="translate(831,-600)" x2="0" y2="600" style="fill: none; stroke: #ddd; stroke-width: 1; opacity: 1;"></line><line transform="translate(865,-600)" x2="0" y2="600" style="fill: none; stroke: #ddd; stroke-width: 1; opacity: 1;"></line><line transform="translate(900,-600)" x2="0" y2="600" style="fill: none; stroke: #ddd; stroke-width: 1; opacity: 1;"></line></g></g></g></g><g class="mark-group role-axis"><g transform="translate(0.5,0.5)"><path class="background" d="M0,0h0v0h0Z" style="pointer-events: none; fill: none;"></path><g><g class="mark-rule role-axis-grid" style="pointer-events: none;"><line transform="translate(0,600)" x2="900" y2="0" style="fill: none; stroke: #ddd; stroke-width: 1; opacity: 1;"></line><line transform="translate(0,554)" x2="900" y2="0" style="fill: none; stroke: #ddd; stroke-width: 1; opacity: 1;"></line><line transform="translate(0,508)" x2="900" y2="0" style="fill: none; stroke: #ddd; stroke-width: 1; opacity: 1;"></line><line transform="translate(0,462)" x2="900" y2="0" style="fill: none; stroke: #ddd; stroke-width: 1; opacity: 1;"></line><line transform="translate(0,415)" x2="900" y2="0" style="fill: none; stroke: #ddd; stroke-width: 1; opacity: 1;"></line><line transform="translate(0,369)" x2="900" y2="0" style="fill: none; stroke: #ddd; stroke-width: 1; opacity: 1;"></line><line transform="translate(0,323)" x2="900" y2="0" style="fill: none; stroke: #ddd; stroke-width: 1; opacity: 1;"></line><line transform="translate(0,277)" x2="900" y2="0" style="fill: none; stroke: #ddd; stroke-width: 1; opacity: 1;"></line><line transform="translate(0,231)" x2="900" y2="0" style="fill: none; stroke: #ddd; stroke-width: 1; opacity: 1;"></line><line transform="translate(0,185)" x2="900" y2="0" style="fill: none; stroke: #ddd; stroke-width: 1; opacity: 1;"></line><line transform="translate(0,138)" x2="900" y2="0" style="fill: none; stroke: #ddd; stroke-width: 1; opacity: 1;"></line><line transform="translate(0,92)" x2="900" y2="0" style="fill: none; stroke: #ddd; stroke-width: 1; opacity: 1;"></line><line transform="translate(0,46)" x2="900" y2="0" style="fill: none; stroke: #ddd; stroke-width: 1; opacity: 1;"></line><line transform="translate(0,0)" x2="900" y2="0" style="fill: none; stroke: #ddd; stroke-width: 1; opacity: 1;"></line></g></g></g></g><g class="mark-group role-scope pathgroup"><g transform="translate(0,0)"><path class="background" d="M0,0h900v600h-900Z" style="fill: none;"></path><g><g class="mark-line role-mark marks"><path d="M6.923076923076923,552.9999646439052L10.384615384615385,547.1257173897641L13.846153846153847,543.8470953770832L17.30769230769231,541.9426346315117L20.76923076923077,540.3941579444322L24.230769230769234,539.2955822385653L27.692307692307693,536.8616477641849L31.153846153846157,537.7307886656042L34.61538461538462,535.6927350855723L38.07692307692308,536.6963932357921L41.53846153846154,536.2657322601875L45,535.9339599362929L48.46153846153847,534.1784689838097L51.92307692307693,535.4039295172777L55.38461538461539,534.4762830764488L58.84615384615385,537.3052192828708L62.307692307692314,536.1388749143852L65.76923076923077,534.5393854498852L69.23076923076924,536.3165716835645L72.6923076923077,535.4903003750796L76.15384615384616,535.3453817867451L79.61538461538461,535.1704996034892L83.07692307692308,544.1023104584001L86.53846153846155,534.9234807829987L90,535.6020314311993L93.46153846153847,534.1778570817341L96.92307692307693,534.5729342746346L100.38461538461539,534.8528899466387L103.84615384615385,534.8593466545194L107.3076923076923,533.0560412882196L110.76923076923077,534.1690744845723L114.23076923076923,532.8357698126036L117.6923076923077,534.6945548270348L121.15384615384615,534.7740742317388L124.61538461538463,534.2681034041971L128.07692307692307,533.8669297945366L131.53846153846155,533.8392001677377L135,533.7412650711467L138.46153846153848,533.7059554713726L141.9230769230769,532.1563282393984L145.3846153846154,533.6126214457616L148.84615384615384,533.5559978678507L152.30769230769232,532.2859367853744L155.76923076923077,533.4426189096915L159.23076923076923,533.4182134959458L162.69230769230768,533.3928656524073L166.15384615384616,532.018054514426L169.6153846153846,533.2852427481583L173.0769230769231,533.2849443269038L176.53846153846155,533.5726705072569L180,533.2317679009075L183.46153846153845,533.7163778728341L186.92307692307693,531.7841495202706L190.3846153846154,533.1064986072506L193.84615384615387,533.137094962821L197.3076923076923,533.0618492854555L200.76923076923077,532.9621207086366L204.23076923076923,533.5202528483942L207.6923076923077,532.9875450748558L211.15384615384616,533.3323569740429L214.6153846153846,533.1078535110064L218.07692307692307,533.4154771383708L221.53846153846155,531.5711315711316L225,533.1502655982713L228.46153846153845,532.7951454545924L231.9230769230769,531.7944583966349L235.3846153846154,533.2104470593738L238.84615384615384,532.8335415109473L242.3076923076923,532.7691634563053L245.76923076923075,532.7708105378335L249.23076923076925,532.7726239035483L252.6923076923077,532.7366677222896L256.15384615384613,532.7332092684728L259.6153846153846,544.2506912204517L263.0769230769231,532.8641056217139L266.53846153846155,532.805504161573L270,532.6923076923076L273.46153846153845,532.6663267335467L276.92307692307696,532.7847885147056L280.3846153846154,531.2507195243352L283.8461538461538,542.0071194511893L287.30769230769226,532.5639774536189L290.7692307692308,544.1529146384898L294.2307692307692,532.5842696629213L297.6923076923077,532.6672065082568L301.15384615384613,532.606534060513L304.61538461538464,532.8806923232293L308.0769230769231,532.7143582303408L311.53846153846155,532.6051591912619L315,532.5703448470111L318.46153846153845,533.3737581580074L321.9230769230769,531.1801938970727L325.38461538461536,532.656667684608L328.8461538461538,533.4875650665124L332.3076923076923,531.2965831679611L335.7692307692308,532.5317262306628L339.2307692307692,531.2752430897212L342.6923076923077,532.665900647681L346.1538461538462,532.4425090225789L349.61538461538464,532.5326879552758L353.0769230769231,532.6523597904016L356.53846153846155,532.465669509969L360,532.6266879628286L363.46153846153845,532.3748864883754L366.9230769230769,532.8198795524061L370.38461538461536,532.5756960392653L373.84615384615387,532.5006591732503L377.3076923076923,532.4498567941705L380.7692307692308,532.4597996496578L384.2307692307692,532.3844819759914L387.69230769230774,532.4945377834703L391.1538461538462,532.520900606007L394.6153846153846,532.4886185582274L398.07692307692304,531.1494057894369L401.53846153846155,532.459235215308L405,532.9663212435233L408.46153846153845,531.1068848786532L411.9230769230769,532.3510553208929L415.3846153846154,532.536933893786L418.84615384615387,545.940512224816L422.3076923076923,542.8340563245943L425.7692307692308,545.8752583677049L429.2307692307692,545.9103500085871L432.6923076923077,545.9963081112454L436.15384615384613,545.9075234006616L439.6153846153846,544.4667128229421L443.0769230769231,542.7105090409977L446.53846153846155,545.961041681212L450,532.381667918858L453.46153846153845,532.5808001097921L456.9230769230769,532.8671328671329L460.38461538461536,532.8077992654053L463.8461538461538,532.7048627552265L467.3076923076923,532.6645976501884L470.7692307692308,533.1556512555258L474.2307692307692,533.1068296950339L477.6923076923077,533.2700279267947L481.15384615384613,533.4635139652919L484.6153846153846,530.9181141439205L488.07692307692304,531.4177625653035L491.5384615384615,533.4769980324182L495.00000000000006,533.5490830636461L498.4615384615385,532.0307806733988L501.92307692307696,532.9278739078294L505.3846153846154,533.4341446363574L508.8461538461538,533.2929965209499L512.3076923076923,533.3962535392616L515.7692307692307,531.985727653812L519.2307692307692,533.9842002185857L522.6923076923077,533.8970808192092L526.1538461538462,533.4151042579289L529.6153846153846,531.6338613463214L533.0769230769231,533.5605504982959L536.5384615384615,533.9075558587754L540,533.8660788095893L543.4615384615385,534.0058848255569L546.9230769230769,534.1671238394177L550.3846153846155,538.5697175752424L553.8461538461539,534.0777059041656L557.3076923076924,532.0086995080133L560.7692307692308,533.6740612354912L564.2307692307692,533.9617545375972L567.6923076923076,533.5741047017923L571.1538461538461,534.1172712571622L574.6153846153845,534.0886230081L578.0769230769231,531.9769454797255L581.5384615384615,533.8183155185545L585,532.6366698333189L588.4615384615385,536.3033459477688L591.9230769230769,534.7904842410337L595.3846153846154,534.6789966390065L598.8461538461538,534.4340993216014L602.3076923076923,533.060188123954L605.7692307692308,535.7444464843034L609.2307692307693,534.475462425773L612.6923076923077,546.5993543650753L616.1538461538462,533.6237810827776L619.6153846153846,534.3697294126274L623.0769230769231,534.6879535558782L626.5384615384615,532.5650132882938L630,535.364727608495L633.4615384615385,534.7232873780521L636.9230769230769,533.5083957695922L640.3846153846154,535.1673383564045L643.8461538461538,535.7342762044065L647.3076923076923,535.5287276404779L650.7692307692307,535.7740704890964L654.2307692307692,536.4901570944527L657.6923076923076,536.279386940628L661.1538461538462,543.3276463170388L664.6153846153846,536.6399366399365L668.0769230769231,536.0951839608846L671.5384615384615,537.6429684946992L675,537.9866326741542L678.4615384615385,534.462407837761L681.9230769230769,537.2294947027428L685.3846153846154,532.212287378818L688.8461538461538,537.519623233909L692.3076923076924,534.065934065934L695.7692307692308,535.7731717188931L699.2307692307693,532.309032722886L702.6923076923077,537.9315616480241L706.1538461538462,543.2603072472905L709.6153846153846,538.2365790094755L713.0769230769231,532.2476141402957L716.5384615384615,543.6318003785111L720,532.2177504765939L723.4615384615385,538.6337944770415L726.9230769230769,538.9576288430048L730.3846153846154,539.0660647074112L733.8461538461538,537.7291708482442L737.3076923076923,538.943113901191L740.7692307692307,535.9805348916057L744.2307692307692,539.1408959026255L747.6923076923077,539.0186520110669L751.1538461538462,531.1468127637521L754.6153846153846,533.0614166619755L758.0769230769231,538.9484639545041L761.5384615384615,539.1985260248733L765,532.2439218812276L768.4615384615385,536.7755532139093L771.9230769230769,545.64687530467L775.3846153846155,532.2334718244524L778.8461538461539,532.3125056406245L782.3076923076924,539.5563004533277L785.7692307692308,540.2275041252677L789.2307692307692,539.6785501686619L792.6923076923076,539.0119401660082L796.1538461538461,538.3579082783542L799.6153846153845,539.6459753097172L803.0769230769231,538.1665859693231L806.5384615384615,540.0097838120822L810,540.2654867256638L813.4615384615385,537.2183731989243L816.9230769230769,540.3749305216352L820.3846153846154,539.706418595185L823.8461538461538,542.50397600306L827.3076923076923,544.4825143149166L830.7692307692308,542.9112865179453L834.2307692307693,540.2787816210636L837.6923076923077,540.2619095617973L841.1538461538462,540.3944270015699L844.6153846153846,541.3002947013892L848.0769230769231,537.2039078819776L851.5384615384615,540.6800096455269L855,540.8284023668639L858.4615384615385,538.6725576181212L861.9230769230769,540.7796161377528L865.3846153846154,541.5833255444434L868.8461538461538,540.57952716139L872.3076923076923,537.7501111605158L875.7692307692307,539.859275458781L879.2307692307692,539.7147129328555L882.6923076923076,545.6498142936647L886.1538461538462,539.3771954059281" style="fill: none; stroke: #ffbb78; stroke-width: 2;"></path></g></g></g><g transform="translate(0,0)"><path class="background" d="M0,0h900v600h-900Z" style="fill: none;"></path><g><g class="mark-line role-mark marks"><path d="M6.923076923076923,528.7416856383707L10.384615384615385,527.1716413367693L13.846153846153847,525.9337295267369L17.30769230769231,525.2084447423721L20.76923076923077,525.4928960380547L24.230769230769234,524.9909350516747L27.692307692307693,524.8813189531332L31.153846153846157,525.2325928260661L34.61538461538462,525.0108929131089L38.07692307692308,524.7526647326398L41.53846153846154,521.6391920130021L45,524.9010835553026L48.46153846153847,521.5111874337088L51.92307692307693,524.8159804132757L55.38461538461539,524.7166179510943L58.84615384615385,526.6677904965558L62.307692307692314,527.6646269065668L65.76923076923077,526.7814458731983L69.23076923076924,526.7146102521843L72.6923076923077,526.4627653407936L76.15384615384616,526.8709783943394L79.61538461538461,526.2511773166844L83.07692307692308,526.806443955902L86.53846153846155,526.0959053436355L90,526.9252388982575L93.46153846153847,525.9464229989078L96.92307692307693,525.7890231735176L100.38461538461539,525.8683267641834L103.84615384615385,525.651341507055L107.3076923076923,522.5663543033093L110.76923076923077,526.1507432438984L114.23076923076923,522.3534436456116L117.6923076923077,525.5034748674967L121.15384615384615,525.7353984320547L124.61538461538463,525.8913132887883L128.07692307692307,525.9193306911936L131.53846153846155,525.901509250732L135,525.8730405090796L138.46153846153848,526.1515079430159L141.9230769230769,525.5503176465828L145.3846153846154,526.026443735872L148.84615384615384,525.8780435251024L152.30769230769232,522.5653078731041L155.76923076923077,525.6557109326933L159.23076923076923,522.0613403876157L162.69230769230768,525.5986671910418L166.15384615384616,522.3671200940853L169.6153846153846,525.2893615390666L173.0769230769231,525.5110430896228L176.53846153846155,525.7086809163568L180,525.8124258857074L183.46153846153845,525.2847947094006L186.92307692307693,525.434164159226L190.3846153846154,525.2146147757792L193.84615384615387,525.2385524314715L197.3076923076923,525.1984864722995L200.76923076923077,525.3450736717737L204.23076923076923,525.273755437717L207.6923076923077,525.1579580784274L211.15384615384616,525.1599444389939L214.6153846153846,525.2655065246573L218.07692307692307,525.3366918588677L221.53846153846155,521.8456354092411L225,525.1132661848953L228.46153846153845,525.3942237042899L231.9230769230769,525.0545944087456L235.3846153846154,525.0577352283657L238.84615384615384,525.0501494248168L242.3076923076923,525.3175754255668L245.76923076923075,521.5141308634797L249.23076923076925,525.1976181751878L252.6923076923077,521.5402073929664L256.15384615384613,525.2651068843629L259.6153846153846,525.0987910192902L263.0769230769231,525.1301068385283L266.53846153846155,525.2408051523674L270,525.1327773393341L273.46153846153845,525.1042851725446L276.92307692307696,525.0779030502272L280.3846153846154,521.4481323894402L283.8461538461538,525.0632719593355L287.30769230769226,524.9535551228287L290.7692307692308,521.94416312392L294.2307692307692,525.0489939976102L297.6923076923077,525.2624846488503L301.15384615384613,524.9096934371903L304.61538461538464,524.9341616813088L308.0769230769231,524.935004534915L311.53846153846155,525.0671190244033L315,525.2211203430716L318.46153846153845,525.9250568306812L321.9230769230769,524.8918608708628L325.38461538461536,524.8708360688494L328.8461538461538,525.3643884611045L332.3076923076923,524.8894146992487L335.7692307692308,524.839456507702L339.2307692307692,521.2128172734581L342.6923076923077,524.9589780915014L346.1538461538462,525.0266607779561L349.61538461538464,524.9007157634142L353.0769230769231,524.9507868721964L356.53846153846155,524.8210358863987L360,525.2777926888185L363.46153846153845,525.0060601163543L366.9230769230769,524.9603432981266L370.38461538461536,521.3957157910282L373.84615384615387,524.9276288968209L377.3076923076923,525.1894571278776L380.7692307692308,524.8205946007517L384.2307692307692,524.9253105156523L387.69230769230774,524.959426210027L391.1538461538462,524.9026302087847L394.6153846153846,525.3020271653812L398.07692307692304,521.4170614391122L401.53846153846155,524.9458296385773L405,525.0357189903432L408.46153846153845,521.435667505164L411.9230769230769,524.9104242162374L415.3846153846154,524.899670653764L418.84615384615387,524.5597338527845L422.3076923076923,524.4566067901418L425.7692307692308,524.7997588714911L429.2307692307692,521.3052330962265L432.6923076923077,524.579151666298L436.15384615384613,521.2880143112701L439.6153846153846,527.9940137854346L443.0769230769231,524.5767309527737L446.53846153846155,524.5509300422707L450,524.5668487015283L453.46153846153845,521.2949753380586L456.9230769230769,521.6787212359116L460.38461538461536,524.82582642851L463.8461538461538,525.0690245692517L467.3076923076923,521.5032972306954L470.7692307692308,521.7628181628475L474.2307692307692,525.14706507288L477.6923076923077,525.2568638493605L481.15384615384613,525.3113860717494L484.6153846153846,524.9291886788372L488.07692307692304,525.2079882372648L491.5384615384615,525.3371781368686L495.00000000000006,525.4297473973045L498.4615384615385,525.5749849254888L501.92307692307696,525.0836771522063L505.3846153846154,525.4115256895394L508.8461538461538,525.264793108318L512.3076923076923,525.4132838799947L515.7692307692307,525.380608974359L519.2307692307692,525.8668792347548L522.6923076923077,525.6875051264138L526.1538461538462,525.4583619712815L529.6153846153846,525.5394738122816L533.0769230769231,525.6314607056123L536.5384615384615,525.6430562112605L540,525.785276406445L543.4615384615385,525.3999260862679L546.9230769230769,525.7402475325082L550.3846153846155,529.6070835639181L553.8461538461539,525.9378314957087L557.3076923076924,525.8473541336646L560.7692307692308,525.7210105610662L564.2307692307692,525.9320968487061L567.6923076923076,525.5802696958925L571.1538461538461,525.8933500509951L574.6153846153845,526.0540636855663L578.0769230769231,522.4698235840298L581.5384615384615,525.9351785858615L585,526.1153736857061L588.4615384615385,530.1570781008203L591.9230769230769,526.1987311360792L595.3846153846154,526.4480539380937L598.8461538461538,526.3411864887879L602.3076923076923,525.4200480054864L605.7692307692308,527.0970026453373L609.2307692307693,526.1471322567786L612.6923076923077,526.3502454991817L616.1538461538462,525.7332795571812L619.6153846153846,526.1109161833605L623.0769230769231,526.4089617531021L626.5384615384615,526.2353540499236L630,526.6503667481662L633.4615384615385,526.4528574873402L636.9230769230769,524.3177284350085L640.3846153846154,526.7084846483988L643.8461538461538,523.9019999590871L647.3076923076923,527.0125223613595L650.7692307692307,527.2924159801988L654.2307692307692,527.4527867342239L657.6923076923076,527.2866437045542L661.1538461538462,535.0281204644413L664.6153846153846,527.4536351900249L668.0769230769231,527.2068946008637L671.5384615384615,530.0426115021005L675,528.0518027020546L678.4615384615385,526.6448763691709L681.9230769230769,527.9531878581007L685.3846153846154,521.3489840910445L688.8461538461538,528.1103993063919L692.3076923076924,525.7080947221792L695.7692307692308,525.4326575281482L699.2307692307693,524.8260206170221L702.6923076923077,525.2614010112414L706.1538461538462,531.36474256171L709.6153846153846,528.5004272535444L713.0769230769231,524.8047112646923L716.5384615384615,534.224811333245L720,524.7884675650266L723.4615384615385,529.337383003781L726.9230769230769,529.8116612911311L730.3846153846154,529.8684895689073L733.8461538461538,529.7788475339788L737.3076923076923,529.7902497445419L740.7692307692307,529.5913667171152L744.2307692307692,530.010742537192L747.6923076923077,529.8978217479026L751.1538461538462,521.3060060078211L754.6153846153846,521.7792236528145L758.0769230769231,529.7149550956657L761.5384615384615,529.9106360609777L765,521.375163801742L768.4615384615385,530.331448656056L771.9230769230769,536.9189280932355L775.3846153846155,521.0563413373432L778.8461538461539,524.710973793842L782.3076923076924,530.1869404272188L785.7692307692308,530.5704236121732L789.2307692307692,530.079223102479L792.6923076923076,529.7585514107079L796.1538461538461,530.4547653604258L799.6153846153845,530.0882723833544L803.0769230769231,531.3785419912055L806.5384615384615,530.3687765226226L810,530.6447469817621L813.4615384615385,527.2997262138625L816.9230769230769,530.7281372913528L820.3846153846154,530.0922762289158L823.8461538461538,532.6758066645293L827.3076923076923,534.3289323642958L830.7692307692308,533.2433973547696L834.2307692307693,530.7318662157372L837.6923076923077,530.5870935974721L841.1538461538462,530.5978674790556L844.6153846153846,531.311140826237L848.0769230769231,530.793241277359L851.5384615384615,530.8535557013023L855,530.9593023255813L858.4615384615385,529.5837967016066L861.9230769230769,530.8691789442512L865.3846153846154,527.8440276501686L868.8461538461538,530.7554370315877L872.3076923076923,527.8174813456884L875.7692307692307,530.324464007858L879.2307692307692,530.0949497729462L882.6923076923076,534.6081188508125L886.1538461538462,530.0409460868931" style="fill: none; stroke: #ff7f0e; stroke-width: 2;"></path></g></g></g><g transform="translate(0,0)"><path class="background" d="M0,0h900v600h-900Z" style="fill: none;"></path><g><g class="mark-line role-mark marks"><path d="M6.923076923076923,516.7656064487909L10.384615384615385,508.5596774850348L13.846153846153847,503.02342546810405L17.30769230769231,500.67579022248225L20.76923076923077,499.2583592781026L24.230769230769234,496.77655442176024L27.692307692307693,499.10282544297195L31.153846153846157,498.07206610059086L34.61538461538462,493.4985719126688L38.07692307692308,492.9577464788732L41.53846153846154,492.20231198951666L45,494.45080091533174L48.46153846153847,491.222129033279L51.92307692307693,499.23312091681345L55.38461538461539,490.1493767963514L58.84615384615385,490.21944398095405L62.307692307692314,489.9320603259803L65.76923076923077,489.6780075819378L69.23076923076924,493.28206542746676L72.6923076923077,489.25318227721306L76.15384615384616,490.5081910400158L79.61538461538461,492.2481783165166L83.07692307692308,488.23745594194816L86.53846153846155,496.2264649703898L90,493.5296888367667L93.46153846153847,493.02297750982416L96.92307692307693,495.52990927359224L100.38461538461539,494.15856529415606L103.84615384615385,493.93125128797766L107.3076923076923,491.9366023832337L110.76923076923077,510.5683725904284L114.23076923076923,509.5546594767189L117.6923076923077,508.8200238379022L121.15384615384615,512.7969264653854L124.61538461538463,509.24505934784895L128.07692307692307,508.7826496451785L131.53846153846155,509.21092328968274L135,508.2497721057429L138.46153846153848,507.67103373694755L141.9230769230769,507.86813742686684L145.3846153846154,510.9712999116482L148.84615384615384,507.05394749689407L152.30769230769232,508.9448002026887L155.76923076923077,507.80489486119995L159.23076923076923,508.42739972781726L162.69230769230768,506.1921281819147L166.15384615384616,504.7033798156464L169.6153846153846,505.3604947018281L173.0769230769231,504.42816183497933L176.53846153846155,504.96646694545706L180,504.9368814081669L183.46153846153845,506.27387998310076L186.92307692307693,504.08446662466645L190.3846153846154,507.12520040312444L193.84615384615387,504.1795626682771L197.3076923076923,505.0275056950719L200.76923076923077,506.1870756907232L204.23076923076923,505.8917146313352L207.6923076923077,504.8431274671068L211.15384615384616,504.3490029354253L214.6153846153846,504.15658531199085L218.07692307692307,507.393707883304L221.53846153846155,506.85323706501697L225,507.40283470788677L228.46153846153845,507.48232869020785L231.9230769230769,507.71263033304666L235.3846153846154,509.4659611670457L238.84615384615384,507.1234608361815L242.3076923076923,507.47612492387583L245.76923076923075,506.3881492205476L249.23076923076925,509.3951886397637L252.6923076923077,506.49404310997863L256.15384615384613,506.37081468637973L259.6153846153846,506.57823127271877L263.0769230769231,505.90738797555565L266.53846153846155,506.06692271869554L270,508.5055167947606L273.46153846153845,505.56487542336424L276.92307692307696,505.19563945963046L280.3846153846154,504.4134084108141L283.8461538461538,505.30338053949L287.30769230769226,505.0975760240152L290.7692307692308,504.206761643186L294.2307692307692,505.5122029455195L297.6923076923077,504.6063341923877L301.15384615384613,504.88251532903905L304.61538461538464,504.638574780154L308.0769230769231,505.74559310578496L311.53846153846155,505.38152483140635L315,505.28319847691574L318.46153846153845,506.5742347440314L321.9230769230769,505.90051769036705L325.38461538461536,505.674226727494L328.8461538461538,506.0856280055553L332.3076923076923,507.6563574105757L335.7692307692308,506.9855360050363L339.2307692307692,505.83395996341835L342.6923076923077,507.3760098023851L346.1538461538462,507.48083531588685L349.61538461538464,506.05409150661785L353.0769230769231,506.8263783756912L356.53846153846155,506.9192999367413L360,507.1842927264614L363.46153846153845,506.92099022297225L366.9230769230769,508.3280024429223L370.38461538461536,508.5146970138806L373.84615384615387,507.6807921511253L377.3076923076923,506.6019160288906L380.7692307692308,505.35853520823815L384.2307692307692,505.894986717911L387.69230769230774,508.288228421989L391.1538461538462,506.35772191935644L394.6153846153846,506.0969089148687L398.07692307692304,504.7536273377028L401.53846153846155,506.15214818292145L405,505.65462159239024L408.46153846153845,505.5359520355645L411.9230769230769,506.1005909545351L415.3846153846154,505.6256610724777L418.84615384615387,507.20549498182794L422.3076923076923,506.21331235072523L425.7692307692308,506.2549835177163L429.2307692307692,505.5163354061836L432.6923076923077,505.4079619469744L436.15384615384613,505.4604344083228L439.6153846153846,511.97248807016604L443.0769230769231,508.3372117368269L446.53846153846155,508.2794915068056L450,506.8971901642524L453.46153846153845,507.04435514935756L456.9230769230769,507.0671228826088L460.38461538461536,506.92208582876725L463.8461538461538,507.9958563203161L467.3076923076923,505.35261788463237L470.7692307692308,506.5677511254085L474.2307692307692,506.68192955734463L477.6923076923077,507.59453717504823L481.15384615384613,506.74245099082333L484.6153846153846,507.4147955105778L488.07692307692304,506.7286424979073L491.5384615384615,506.85566712596636L495.00000000000006,506.5944533652669L498.4615384615385,507.46162084969654L501.92307692307696,507.1032264953413L505.3846153846154,507.7649792101652L508.8461538461538,507.3814790960768L512.3076923076923,505.96321693339837L515.7692307692307,507.3232873147854L519.2307692307692,506.0354636223009L522.6923076923077,505.32105908171116L526.1538461538462,505.34318572997785L529.6153846153846,506.6188371932995L533.0769230769231,506.5451368858268L536.5384615384615,506.67420814479635L540,507.66018790078044L543.4615384615385,506.9512326355706L546.9230769230769,506.6658685351346L550.3846153846155,513.5163693290261L553.8461538461539,508.5688378419223L557.3076923076924,507.22152947573016L560.7692307692308,507.9382368382591L564.2307692307692,507.642605079607L567.6923076923076,507.7818784988596L571.1538461538461,507.55743076750156L574.6153846153845,508.3484168151191L578.0769230769231,506.1442752849003L581.5384615384615,507.3800811861696L585,506.85899885364927L588.4615384615385,509.761837763168L591.9230769230769,506.9980038765296L595.3846153846154,507.7304553076844L598.8461538461538,506.4650647223015L602.3076923076923,506.7760813968538L605.7692307692308,508.8530363719788L609.2307692307693,508.2138200782269L612.6923076923077,508.08078423702466L616.1538461538462,506.4050611286814L619.6153846153846,506.97039740662865L623.0769230769231,507.8660283123249L626.5384615384615,507.36113201866624L630,505.89193868717217L633.4615384615385,507.6132151807138L636.9230769230769,506.24785171546L640.3846153846154,507.6923076923077L643.8461538461538,506.8123539673069L647.3076923076923,508.0917722842682L650.7692307692307,508.7375498779517L654.2307692307692,508.021906919556L657.6923076923076,506.91331915258456L661.1538461538462,513.0101607428801L664.6153846153846,509.12873626232766L668.0769230769231,508.53042541957853L671.5384615384615,508.47857423666625L675,508.7557603686636L678.4615384615385,508.01145163561273L681.9230769230769,509.93717830483894L685.3846153846154,507.44299589674335L688.8461538461538,508.3864037443413L692.3076923076924,507.9388999246524L695.7692307692308,508.17694591847885L699.2307692307693,505.9990292670967L702.6923076923077,507.37706617997804L706.1538461538462,509.19460286548895L709.6153846153846,508.3726839685305L713.0769230769231,507.41890883895996L716.5384615384615,509.8410240278752L720,506.2022090059473L723.4615384615385,508.7601862630966L726.9230769230769,508.4162553878136L730.3846153846154,508.50750151764805L733.8461538461538,508.3322523457431L737.3076923076923,508.16656486904037L740.7692307692307,508.597787553923L744.2307692307692,508.25557578516157L747.6923076923077,508.2529839017967L751.1538461538462,505.70797474924257L754.6153846153846,505.9053730334007L758.0769230769231,509.0134817923098L761.5384615384615,508.6555761618734L765,505.0367749743972L768.4615384615385,508.66327468217287L771.9230769230769,513.0864069219076L775.3846153846155,506.3205732288733L778.8461538461539,507.172473544155L782.3076923076924,508.33316433105523L785.7692307692308,508.6022587723713L789.2307692307692,508.83585789589426L792.6923076923076,508.7679691909299L796.1538461538461,508.98238347436666L799.6153846153845,508.63365788380787L803.0769230769231,508.59064104753026L806.5384615384615,509.6011587605401L810,508.77607906073143L813.4615384615385,507.668733751989L816.9230769230769,508.7058277402758L820.3846153846154,508.95995390377414L823.8461538461538,508.0169537379385L827.3076923076923,510.1289780774871L830.7692307692308,509.56137265738835L834.2307692307693,508.2935367872296L837.6923076923077,508.20816264603246L841.1538461538462,508.6099689098386L844.6153846153846,508.56914458440804L848.0769230769231,508.572992337546L851.5384615384615,508.31842576028623L855,508.3085337408509L858.4615384615385,508.51859138304155L861.9230769230769,508.66798305405945L865.3846153846154,508.99549224338244L868.8461538461538,507.78782627863256L872.3076923076923,507.50879339348523L875.7692307692307,508.41628959276017L879.2307692307692,508.427769699446L882.6923076923076,511.8409680207433L886.1538461538462,508.32970272802686" style="fill: none; stroke: #1f77b4; stroke-width: 2;"></path></g></g></g><g transform="translate(0,0)"><path class="background" d="M0,0h900v600h-900Z" style="fill: none;"></path><g><g class="mark-line role-mark marks"><path d="M6.923076923076923,529.2068877867694L10.384615384615385,520.5835543766578L13.846153846153847,497.31000978490374L17.30769230769231,500.8226569560364L20.76923076923077,485.77296180314175L24.230769230769234,490.30657824208856L27.692307692307693,481.25590120602584L31.153846153846157,485.11131625839965L34.61538461538462,494.94797853638846L38.07692307692308,487.06518068220197L41.53846153846154,477.81623311376575L45,480.44181906457356L48.46153846153847,472.89072965698625L51.92307692307693,483.5818767868598L55.38461538461539,472.7393730113839L58.84615384615385,492.5290536801328L62.307692307692314,471.6276822030951L65.76923076923077,475.1139963926475L69.23076923076924,471.9670182116258L72.6923076923077,481.5506249103122L76.15384615384616,469.58189332905124L79.61538461538461,471.18650652964686L83.07692307692308,469.7760123246084L86.53846153846155,471.5354838245362L90,468.640894163738L93.46153846153847,491.40116176729447L96.92307692307693,477.1156146696774L100.38461538461539,473.8362678238822L103.84615384615385,468.5853931958007L107.3076923076923,468.9763967020865L110.76923076923077,475.0363987049269L114.23076923076923,469.5378932466785L117.6923076923077,489.3179925192838L121.15384615384615,471.47389349871594L124.61538461538463,466.5986009433687L128.07692307692307,468.93747254771387L131.53846153846155,474.5352726141401L135,468.12678337317806L138.46153846153848,465.95415890116095L141.9230769230769,468.2620701196553L145.3846153846154,465.6996209647142L148.84615384615384,468.15303685719334L152.30769230769232,489.2715741783691L155.76923076923077,467.83109503261454L159.23076923076923,467.9661401744883L162.69230769230768,466.9903902082536L166.15384615384616,464.82386672144645L169.6153846153846,476.3626953061819L173.0769230769231,465.0153946281509L176.53846153846155,476.0831136391914L180,488.41312138197185L183.46153846153845,467.4481122527162L186.92307692307693,464.62647512433495L190.3846153846154,466.5762449137764L193.84615384615387,474.29574474108887L197.3076923076923,466.5631469300475L200.76923076923077,464.5035691109669L204.23076923076923,468.0280160864156L207.6923076923077,464.8544420911523L211.15384615384616,488.8993398775524L214.6153846153846,464.2013616368846L218.07692307692307,479.6800296873075L221.53846153846155,463.84160758240284L225,466.072717126721L228.46153846153845,473.1857878737651L231.9230769230769,466.1352013903009L235.3846153846154,488.0872164476822L238.84615384615384,465.7063930228516L242.3076923076923,464.2863463913207L245.76923076923075,465.6083185099665L249.23076923076925,470.72065760590345L252.6923076923077,477.2338392312959L256.15384615384613,466.05569139298836L259.6153846153846,467.97849507292295L263.0769230769231,465.972908488346L266.53846153846155,467.69647650675887L270,489.30878946726807L273.46153846153845,467.58692437735704L276.92307692307696,469.0206565339591L280.3846153846154,466.759104666311L283.8461538461538,466.39537303037787L287.30769230769226,476.58670825306035L290.7692307692308,465.8061054319625L294.2307692307692,489.9683190516154L297.6923076923077,466.2057044079516L301.15384615384613,466.8295826843547L304.61538461538464,465.368808491981L308.0769230769231,466.85222877972393L311.53846153846155,474.31972985241896L315,466.7864581206354L318.46153846153845,469.89404958197144L321.9230769230769,466.66385957525193L325.38461538461536,465.23368734900583L328.8461538461538,471.0355041561108L332.3076923076923,488.79010000202726L335.7692307692308,469.7829403476201L339.2307692307692,464.7560353139119L342.6923076923077,466.61727964978587L346.1538461538462,474.0536189204887L349.61538461538464,467.69700680852037L353.0769230769231,488.8760133763396L356.53846153846155,466.1627988908553L360,465.81597849203484L363.46153846153845,466.78040323102175L366.9230769230769,465.0748508056954L370.38461538461536,476.2212785647838L373.84615384615387,464.82622477066553L377.3076923076923,466.25025815648564L380.7692307692308,464.96660448156064L384.2307692307692,468.94680700797335L387.69230769230774,464.781459249357L391.1538461538462,489.6000319017426L394.6153846153846,467.6325875410141L398.07692307692304,465.9250443273178L401.53846153846155,465.83352369166L405,476.5144078073569L408.46153846153845,464.7019142385947L411.9230769230769,465.8505497742555L415.3846153846154,488.677038437505L418.84615384615387,466.8784708816811L422.3076923076923,464.71197380946853L425.7692307692308,465.5301989825629L429.2307692307692,473.64718661367766L432.6923076923077,465.7514258825827L436.15384615384613,463.9000799207884L439.6153846153846,483.3446499054485L443.0769230769231,465.83898278168135L446.53846153846155,465.66445918049817L450,468.2391759932225L453.46153846153845,489.63102964332944L456.9230769230769,463.89378369419194L460.38461538461536,467.0403627470232L463.8461538461538,474.7739965124009L467.3076923076923,465.3192940545713L470.7692307692308,489.7397710549275L474.2307692307692,466.83148475503L477.6923076923077,466.1060802069857L481.15384615384613,465.67452647854657L484.6153846153846,464.4359567486148L488.07692307692304,475.5151047312211L491.5384615384615,464.1480552337015L495.00000000000006,469.30156678055835L498.4615384615385,465.9881637022345L501.92307692307696,469.29086538461536L505.3846153846154,460.53050341279425L508.8461538461538,465.25301571042843L512.3076923076923,473.64118711161905L515.7692307692307,462.5142532038334L519.2307692307692,463.0844661086513L522.6923076923077,466.4804577036886L526.1538461538462,462.91383262560595L529.6153846153846,476.5205784335488L533.0769230769231,465.73040748494776L536.5384615384615,468.01280918927984L540,465.82395803547655L543.4615384615385,468.9129497953027L546.9230769230769,474.4093312487923L550.3846153846155,485.990776657246L553.8461538461539,466.64416187319546L557.3076923076924,468.52243071952284L560.7692307692308,468.12049136266205L564.2307692307692,469.6211089633107L567.6923076923076,470.38618506411535L571.1538461538461,491.5487771850761L574.6153846153845,466.3266675614012L578.0769230769231,468.9006049965391L581.5384615384615,475.27958350385944L585,464.93059169749904L588.4615384615385,482.26869850082636L591.9230769230769,472.13936868974434L595.3846153846154,467.3250153619538L598.8461538461538,471.1870583070553L602.3076923076923,460.96313658640526L605.7692307692308,476.7383801466617L609.2307692307693,465.1822320488157L612.6923076923077,471.83795475432356L616.1538461538462,465.98572992168647L619.6153846153846,470.7042217186983L623.0769230769231,469.27676444327994L626.5384615384615,471.9549544627117L630,476.49329167432455L633.4615384615385,473.4712931197731L636.9230769230769,470.1421834733544L640.3846153846154,481.1063212814873L643.8461538461538,472.72323121379725L647.3076923076923,495.3195866429845L650.7692307692307,475.358366495232L654.2307692307692,473.84581154744694L657.6923076923076,474.2023659089637L661.1538461538462,491.6997611857993L664.6153846153846,479.5428386155467L668.0769230769231,477.7955689844782L671.5384615384615,481.12286013681734L675,479.40275650842267L678.4615384615385,473.72863420767607L681.9230769230769,479.05014655787056L685.3846153846154,463.59461114513164L688.8461538461538,482.62319288348186L692.3076923076924,463.58864397750546L695.7692307692308,478.3753120036306L699.2307692307693,463.3974686761533L702.6923076923077,477.97493154039677L706.1538461538462,492.581866380993L709.6153846153846,481.3905473798324L713.0769230769231,459.8864417057025L716.5384615384615,487.09946216195743L720,459.79934180912466L723.4615384615385,484.83365178871736L726.9230769230769,481.48315367684404L730.3846153846154,481.73952667103356L733.8461538461538,481.5597120932624L737.3076923076923,482.3046783429892L740.7692307692307,481.6568047337278L744.2307692307692,498.3046131587246L747.6923076923077,482.30757385718294L751.1538461538462,460.6580314865125L754.6153846153846,462.70236226720124L758.0769230769231,483.2590817836994L761.5384615384615,483.0700988851633L765,462.29529788822055L768.4615384615385,483.346503161754L771.9230769230769,497.88364230273146L775.3846153846155,459.8166852142221L778.8461538461539,459.2207741708563L782.3076923076924,483.2960098595937L785.7692307692308,484.58582458684936L789.2307692307692,485.4335324660823L792.6923076923076,483.23494785016663L796.1538461538461,484.62181595228805L799.6153846153845,484.16185482622063L803.0769230769231,485.1000304230215L806.5384615384615,481.7529722670925L810,481.6375592165736L813.4615384615385,482.9221657940624L816.9230769230769,486.61898782551725L820.3846153846154,498.85842313026774L823.8461538461538,486.7398619939495L827.3076923076923,494.43229753307276L830.7692307692308,492.65507242055355L834.2307692307693,484.6894330924543L837.6923076923077,484.6404736815696L841.1538461538462,485.12750479291964L844.6153846153846,486.50693568726354L848.0769230769231,490.46118078376145L851.5384615384615,486.176980913823L855,486.3718738673432L858.4615384615385,486.5481827123219L861.9230769230769,486.43964730921255L865.3846153846154,486.8112464345542L868.8461538461538,487.331108883336L872.3076923076923,482.3647094128238L875.7692307692307,488.05557399172585L879.2307692307692,489.8310598338791L882.6923076923076,493.1138791278652L886.1538461538462,487.1393197498843" style="fill: none; stroke: #aec7e8; stroke-width: 2;"></path></g></g></g><g transform="translate(0,0)"><path class="background" d="M0,0h900v600h-900Z" style="fill: none;"></path><g><g class="mark-line role-mark marks"><path d="M6.923076923076923,519.8893366211583L10.384615384615385,480.50874488331294L13.846153846153847,440.7608623460808L17.30769230769231,400.8479081388549L20.76923076923077,361.05877194148053L24.230769230769234,321.1629838843662L27.692307692307693,264.7932220451304L31.153846153846157,379.067238443072L34.61538461538462,361.31861291879966L38.07692307692308,326.02477360258143L41.53846153846154,305.56435139990646L45,280.6875200170812L48.46153846153847,255.64711106725213L51.92307692307693,232.32793414437256L55.38461538461539,188.69035864236216L58.84615384615385,317.3350564132272L62.307692307692314,296.0078756195261L65.76923076923077,276.56208565130976L69.23076923076924,261.1343202252293L72.6923076923077,248.76548225056803L76.15384615384616,225.4512892757128L79.61538461538461,201.858053740899L83.07692307692308,149.26602996219364L86.53846153846155,272.9737325124927L90,265.86201089092236L93.46153846153847,278.8697572450433L96.92307692307693,241.09591988210354L100.38461538461539,225.54451239862857L103.84615384615385,215.02923787678083L107.3076923076923,194.61810895605032L110.76923076923077,137.98220662107371L114.23076923076923,224.20783498836525L117.6923076923077,241.84377039412087L121.15384615384615,202.39278877200482L124.61538461538463,190.02449633129606L128.07692307692307,178.5943183537745L131.53846153846155,167.2588540828756L135,158.91298434756808L138.46153846153848,89.25325169852042L141.9230769230769,191.97411915052052L145.3846153846154,183.6019066617881L148.84615384615384,172.17302075404L152.30769230769232,188.12920358178755L155.76923076923077,146.27091889356905L159.23076923076923,141.12437673782134L162.69230769230768,129.82330737705598L166.15384615384616,75.3412986554147L169.6153846153846,171.81156305529834L173.0769230769231,154.99792392540567L176.53846153846155,148.05127106647947L180,163.0469776305808L183.46153846153845,130.04409564948895L186.92307692307693,119.25672777835462L190.3846153846154,108.00560672201816L193.84615384615387,75.54215895738474L197.3076923076923,147.77543869088856L200.76923076923077,141.14958069760323L204.23076923076923,134.69882224575588L207.6923076923077,125.07871067485843L211.15384615384616,173.10283614008543L214.6153846153846,103.32968876272493L218.07692307692307,122.44420629294606L221.53846153846155,67.72673551291675L225,134.51882845188285L228.46153846153845,132.00812651874264L231.9230769230769,116.4950999362384L235.3846153846154,152.34361285037167L238.84615384615384,105.28578385959253L242.3076923076923,97.58187296707487L245.76923076923075,93.80568781928902L249.23076923076925,63.37578206415549L252.6923076923077,129.46133330980336L256.15384615384613,121.1251402111076L259.6153846153846,108.86230681917401L263.0769230769231,105.25843736890069L266.53846153846155,95.76530166768545L270,133.18628433928214L273.46153846153845,82.69840807892666L276.92307692307696,49.337889339719275L280.3846153846154,108.42390539282185L283.8461538461538,108.4980890499627L287.30769230769226,106.52530049514972L290.7692307692308,93.04511746485183L294.2307692307692,129.79657418299715L297.6923076923077,84.80519106221614L301.15384615384613,78.75875529641385L304.61538461538464,50.51766920509968L308.0769230769231,100.59553287351146L311.53846153846155,105.23177290997583L315,94.88403394857858L318.46153846153845,120.59794983973795L321.9230769230769,81.22878073782329L325.38461538461536,72.59890345224547L328.8461538461538,85.44527530379185L332.3076923076923,98.49247145521535L335.7692307692308,111.93918580135629L339.2307692307692,106.12962492271447L342.6923076923077,99.80910090494099L346.1538461538462,107.9404049671142L349.61538461538464,88.13764995984555L353.0769230769231,133.69090189943813L356.53846153846155,76.88301374379765L360,54.07371426540455L363.46153846153845,93.52451433857539L366.9230769230769,84.74048982912518L370.38461538461536,89.97714658831215L373.84615384615387,76.68947436875023L377.3076923076923,73.2875487143316L380.7692307692308,65.24337822900887L384.2307692307692,61.77239956615131L387.69230769230774,51.52525204131224L391.1538461538462,131.3414254125563L394.6153846153846,88.08415298809851L398.07692307692304,75.96752891255643L401.53846153846155,77.59780021720546L405,74.15311302185859L408.46153846153845,57.744749701202515L411.9230769230769,63.9202925291019L415.3846153846154,89.14993504395696L418.84615384615387,88.84749096875657L422.3076923076923,78.46667563633687L425.7692307692308,74.2597347205991L429.2307692307692,90.32944180631637L432.6923076923077,77.6763324969657L436.15384615384613,55.802152564038195L439.6153846153846,145.01606958612646L443.0769230769231,44.30772945289765L446.53846153846155,97.0653205589298L450,90.89898568848128L453.46153846153845,116.26459783979382L456.9230769230769,74.29751456597089L460.38461538461536,62.27083929320054L463.8461538461538,64.78280858642475L467.3076923076923,54.586618875190716L470.7692307692308,101.6410484381144L474.2307692307692,81.75255706636457L477.6923076923077,92.75341671161222L481.15384615384613,86.81505085397589L484.6153846153846,70.4573329401456L488.07692307692304,72.69605782475695L491.5384615384615,73.1001486019477L495.00000000000006,91.47979741330975L498.4615384615385,77.62715222710635L501.92307692307696,84.14413031978259L505.3846153846154,77.00386328000795L508.8461538461538,83.30986971388532L512.3076923076923,87.25427634552861L515.7692307692307,80.05636461525168L519.2307692307692,82.87614111998181L522.6923076923077,84.56103445174747L526.1538461538462,49.90493889802472L529.6153846153846,101.82325189156414L533.0769230769231,108.17700237906426L536.5384615384615,85.43908730313356L540,78.15509376583871L543.4615384615385,98.49072494521207L546.9230769230769,77.2079055421612L550.3846153846155,147.51836905316975L553.8461538461539,64.72132518644152L557.3076923076924,99.04383352381593L560.7692307692308,105.7638383402631L564.2307692307692,100.9507137336697L567.6923076923076,95.1048038659756L571.1538461538461,137.88094559954433L574.6153846153845,76.86225314097805L578.0769230769231,76.78459082675188L581.5384615384615,82.123776653586L585,99.96794666324762L588.4615384615385,138.57069221673086L591.9230769230769,110.69142577950953L595.3846153846154,110.89661055774538L598.8461538461538,99.71321445104083L602.3076923076923,59.95462941714229L605.7692307692308,103.66343653982508L609.2307692307693,90.58293808967397L612.6923076923077,120.3974108083697L616.1538461538462,87.69017845233624L619.6153846153846,114.90514905149058L623.0769230769231,102.19158617739677L626.5384615384615,108.65189230378456L630,120.52954719877206L633.4615384615385,110.0050204403643L636.9230769230769,86.87978450646834L640.3846153846154,128.8992826155285L643.8461538461538,115.68821051231974L647.3076923076923,153.8649323250088L650.7692307692307,124.00577343517547L654.2307692307692,110.61805841217608L657.6923076923076,115.0147705333674L661.1538461538462,171.23969143259365L664.6153846153846,107.5985169336283L668.0769230769231,120.35008077315057L671.5384615384615,126.7102496538351L675,113.11043961399747L678.4615384615385,65.5973767011363L681.9230769230769,116.59612275568587L685.3846153846154,40.048786058072004L688.8461538461538,133.74513145082759L692.3076923076924,53.462503083125945L695.7692307692308,118.7257698315825L699.2307692307693,47.038584418776175L702.6923076923077,113.89023109177782L706.1538461538462,149.0093501623864L709.6153846153846,123.1180039919661L713.0769230769231,42.2579355331506L716.5384615384615,122.29574970143489L720,24.86082429705474L723.4615384615385,124.5494522303986L726.9230769230769,121.99834517763182L730.3846153846154,117.26066398901824L733.8461538461538,117.53202966958864L737.3076923076923,115.30882815196787L740.7692307692307,115.05690401853153L744.2307692307692,155.17461854964964L747.6923076923077,102.01155056542434L751.1538461538462,49.651552575864464L754.6153846153846,50.073245486798655L758.0769230769231,124.40455008571662L761.5384615384615,138.26045428267403L765,34.35350093229608L768.4615384615385,112.16816148126145L771.9230769230769,165.86469774212142L775.3846153846155,23.49218247562743L778.8461538461539,47.340043134435604L782.3076923076924,114.26269115799799L785.7692307692308,114.3822368010553L789.2307692307692,136.76697573097178L792.6923076923076,108.77538195481323L796.1538461538461,111.21773421331707L799.6153846153845,108.37552873573408L803.0769230769231,100.15218409830058L806.5384615384615,113.78965918706226L810,117.09574350875901L813.4615384615385,112.09339339766085L816.9230769230769,120.94111672490455L820.3846153846154,154.215659596408L823.8461538461538,118.08855291576674L827.3076923076923,124.72757182713214L830.7692307692308,117.01599884503821L834.2307692307693,115.65670099146344L837.6923076923077,112.49006858285733L841.1538461538462,113.70131987939378L844.6153846153846,114.64916181816183L848.0769230769231,133.06237162522362L851.5384615384615,111.4552310527265L855,102.86211564494296L858.4615384615385,100.63726237627732L861.9230769230769,114.50446117603164L865.3846153846154,118.80618645411096L868.8461538461538,112.85764885852785L872.3076923076923,106.87368431455873L875.7692307692307,131.64756390562852L879.2307692307692,106.88316272502642L882.6923076923076,164.39682201455048L886.1538461538462,97.90408798984724" style="fill: none; stroke: #98df8a; stroke-width: 2;"></path></g></g></g><g transform="translate(0,0)"><path class="background" d="M0,0h900v600h-900Z" style="fill: none;"></path><g><g class="mark-line role-mark marks"><path d="M6.923076923076923,527.0274712230873L10.384615384615385,490.61045715849986L13.846153846153847,454.101123937371L17.30769230769231,417.66967610055235L20.76923076923077,381.13437195715676L24.230769230769234,345.10042161282087L27.692307692307693,305.4997696913864L31.153846153846157,390.00128718702825L34.61538461538462,369.48509861043675L38.07692307692308,343.4779896770572L41.53846153846154,320.2145240248199L45,296.8683490422621L48.46153846153847,273.51744140716374L51.92307692307693,250.19725865053252L55.38461538461539,187.70091447014525L58.84615384615385,328.58701582105834L62.307692307692314,315.0486453806113L65.76923076923077,296.2759462759463L69.23076923076924,281.1783051716404L72.6923076923077,267.419175989028L76.15384615384616,245.03278325216354L79.61538461538461,232.79419787554951L83.07692307692308,173.12380016965042L86.53846153846155,289.0983853174204L90,280.601019586799L93.46153846153847,286.1679067315016L96.92307692307693,250.002940163473L100.38461538461539,234.64025586696948L103.84615384615385,225.63683250518903L107.3076923076923,214.42963328269352L110.76923076923077,152.06480700509596L114.23076923076923,227.5369581558506L117.6923076923077,250.14334837552948L121.15384615384615,208.94883507678773L124.61538461538463,196.7119901578252L128.07692307692307,185.48924071739856L131.53846153846155,181.85499243094395L135,165.8797761012412L138.46153846153848,113.48600924883362L141.9230769230769,199.35711989713923L145.3846153846154,189.95439655726125L148.84615384615384,179.37188948000687L152.30769230769232,194.63470639298814L155.76923076923077,160.28885507960658L159.23076923076923,150.60416488130943L162.69230769230768,142.14541460844035L166.15384615384616,87.45512625767817L169.6153846153846,180.0201005608143L173.0769230769231,164.5363593001961L176.53846153846155,166.11536376356634L180,179.78732878542291L183.46153846153845,141.85778474643698L186.92307692307693,128.11886540787975L190.3846153846154,123.83603142491752L193.84615384615387,89.87854251012143L197.3076923076923,163.59752278533324L200.76923076923077,157.1308419329714L204.23076923076923,148.87194627388632L207.6923076923077,140.6367311298137L211.15384615384616,177.67505233183098L214.6153846153846,125.91723563329525L218.07692307692307,132.33220962304623L221.53846153846155,81.6981240886135L225,142.6943198804186L228.46153846153845,141.02844574119732L231.9230769230769,128.63071533371263L235.3846153846154,158.93262654582026L238.84615384615384,114.67334035827174L242.3076923076923,106.11737970034099L245.76923076923075,94.65089987749596L249.23076923076925,70.59816555061616L252.6923076923077,137.47826709817727L256.15384615384613,123.77844848682602L259.6153846153846,120.47653363180564L263.0769230769231,110.77650065263718L266.53846153846155,103.91766502750086L270,126.32865328734748L273.46153846153845,95.31869632586604L276.92307692307696,61.89453371773808L280.3846153846154,119.90252076485271L283.8461538461538,115.12648971463786L287.30769230769226,112.97811723343636L290.7692307692308,107.51141197586165L294.2307692307692,132.49312251910933L297.6923076923077,91.50813453826916L301.15384615384613,79.43544735260444L304.61538461538464,61.15943702785989L308.0769230769231,110.72287597619079L311.53846153846155,110.91188852229585L315,100.46932121331886L318.46153846153845,138.4983073193664L321.9230769230769,96.16252821670419L325.38461538461536,86.9036350135753L328.8461538461538,92.61209160225899L332.3076923076923,113.37694459622085L335.7692307692308,113.47770539896851L339.2307692307692,100.06803574144283L342.6923076923077,93.23828680658306L346.1538461538462,94.43213611686825L349.61538461538464,79.72929284220969L353.0769230769231,123.39156012061909L356.53846153846155,75.08929047390585L360,59.7680893807494L363.46153846153845,104.95575294669193L366.9230769230769,93.56429163576072L370.38461538461536,93.68874127465665L373.84615384615387,82.99944260467562L377.3076923076923,81.83219186677886L380.7692307692308,74.19030000479523L384.2307692307692,71.84197195664213L387.69230769230774,55.61161406820003L391.1538461538462,133.2887350571537L394.6153846153846,95.93586538952043L398.07692307692304,82.01507794531047L401.53846153846155,84.0459929654106L405,79.786971541372L408.46153846153845,68.42766812830432L411.9230769230769,63.898025921659894L415.3846153846154,97.11502672499395L418.84615384615387,89.54334247122159L422.3076923076923,79.76679833741788L425.7692307692308,76.81516741684715L429.2307692307692,85.58976145183041L432.6923076923077,80.0220780269782L436.15384615384613,67.23084812312052L439.6153846153846,155.96321263571753L443.0769230769231,50.56214372925187L446.53846153846155,85.18722510800269L450,97.05094820526507L453.46153846153845,118.18531281319076L456.9230769230769,75.335503828324L460.38461538461536,68.6767907835625L463.8461538461538,67.57007055312516L467.3076923076923,59.233816394906704L470.7692307692308,105.31544496541487L474.2307692307692,87.6319704352982L477.6923076923077,98.50787570333304L481.15384615384613,75.97120308764246L484.6153846153846,81.99466192415747L488.07692307692304,74.3948706903693L491.5384615384615,75.53777864494418L495.00000000000006,68.98444321685058L498.4615384615385,50.00219751864701L501.92307692307696,89.7357295210585L505.3846153846154,98.36044282146825L508.8461538461538,87.41601131609133L512.3076923076923,96.4735305505269L515.7692307692307,84.98369099739077L519.2307692307692,85.98471346109528L522.6923076923077,81.3402274806307L526.1538461538462,53.39941402097561L529.6153846153846,112.09497082839748L533.0769230769231,100.89521797157323L536.5384615384615,84.11082588297786L540,81.7459056823027L543.4615384615385,102.81950630331387L546.9230769230769,77.61433427674089L550.3846153846155,152.66797005388398L553.8461538461539,76.3250815520989L557.3076923076924,97.72859127500577L560.7692307692308,101.73744169621936L564.2307692307692,98.6892221886871L567.6923076923076,94.473208910295L571.1538461538461,138.7267332968691L574.6153846153845,97.64262272448256L578.0769230769231,79.01465004346471L581.5384615384615,73.39158363739746L585,107.14852739533798L588.4615384615385,131.02141473813273L591.9230769230769,110.38327858682419L595.3846153846154,111.86450647218955L598.8461538461538,93.15753346088525L602.3076923076923,53.98885973392249L605.7692307692308,104.70529965329366L609.2307692307693,91.45662431697914L612.6923076923077,118.84188594649814L616.1538461538462,74.2039739987908L619.6153846153846,106.40107476939875L623.0769230769231,112.43079701249015L626.5384615384615,110.34424112356625L630,130.81868027982597L633.4615384615385,106.64831744963888L636.9230769230769,101.1565808816181L640.3846153846154,125.82675297199586L643.8461538461538,115.96931053931661L647.3076923076923,154.84740683840954L650.7692307692307,119.14796522967983L654.2307692307692,112.61503095735709L657.6923076923076,113.3226402551702L661.1538461538462,173.9671367320132L664.6153846153846,109.87456084665143L668.0769230769231,109.84389804484607L671.5384615384615,125.78059957045076L675,119.48628892209526L678.4615384615385,69.07063637981143L681.9230769230769,119.39035160587972L685.3846153846154,44.067258883248826L688.8461538461538,143.19410870883465L692.3076923076924,60.55704621435352L695.7692307692308,119.42511829874627L699.2307692307693,49.600050989515275L702.6923076923077,112.94789094151443L706.1538461538462,156.35919702396723L709.6153846153846,119.02128372716605L713.0769230769231,45.319388356561376L716.5384615384615,129.5502464960886L720,30.309604093470767L723.4615384615385,129.65716917812728L726.9230769230769,124.34756176424047L730.3846153846154,119.22513721206707L733.8461538461538,115.83212416055188L737.3076923076923,117.64721326970671L740.7692307692307,116.47869336534649L744.2307692307692,157.51138849730398L747.6923076923077,103.00855388327741L751.1538461538462,50.51512474262243L754.6153846153846,49.01331777972202L758.0769230769231,119.71783850560107L761.5384615384615,140.4702964216454L765,38.16880333238966L768.4615384615385,120.43823288458486L771.9230769230769,178.69514016949674L775.3846153846155,30.333988497687514L778.8461538461539,49.86168891716049L782.3076923076924,116.22829315281086L785.7692307692308,116.44537896651063L789.2307692307692,137.87109917176934L792.6923076923076,115.3222916721855L796.1538461538461,113.72141560356191L799.6153846153845,113.83643395208416L803.0769230769231,101.0660718784371L806.5384615384615,112.52647421458045L810,118.07141496685021L813.4615384615385,114.04936510900686L816.9230769230769,122.24462653910508L820.3846153846154,158.1002300268161L823.8461538461538,124.87229653762051L827.3076923076923,130.06498005655328L830.7692307692308,118.48112197387842L834.2307692307693,117.68059261713593L837.6923076923077,114.34381549496943L841.1538461538462,115.93265155113149L844.6153846153846,117.23429157852783L848.0769230769231,134.08431645623634L851.5384615384615,110.92486112464665L855,109.44828996173955L858.4615384615385,102.81576479629379L861.9230769230769,116.27059203543905L865.3846153846154,120.77695601164997L868.8461538461538,114.59157803611181L872.3076923076923,109.1549638973562L875.7692307692307,132.55011158657683L879.2307692307692,109.10557148507014L882.6923076923076,170.24490468765978L886.1538461538462,102.00957851603083" style="fill: none; stroke: #d62728; stroke-width: 2;"></path></g></g></g><g transform="translate(0,0)"><path class="background" d="M0,0h900v600h-900Z" style="fill: none;"></path><g><g class="mark-line role-mark marks"><path d="M6.923076923076923,530.0985834106708L10.384615384615385,495.1478751160062L13.846153846153847,460.2289835790063L17.30769230769231,425.2994824336704L20.76923076923077,390.518281839437L24.230769230769234,355.38216430409744L27.692307692307693,321.97652958178077L31.153846153846157,395.5982125569017L34.61538461538462,377.73566818632753L38.07692307692308,352.6417285983332L41.53846153846154,330.45757327705974L45,306.1019946939176L48.46153846153847,282.3552168949338L51.92307692307693,262.5283482957173L55.38461538461539,241.1006367133889L58.84615384615385,344.7110663477275L62.307692307692314,310.7612636497482L65.76923076923077,293.41586031677383L69.23076923076924,282.4569428635256L72.6923076923077,272.5460543327508L76.15384615384616,259.74886595908384L79.61538461538461,230.01584376111492L83.07692307692308,220.15651841954568L86.53846153846155,309.30402930402926L90,294.41663457835966L93.46153846153847,293.28205510308186L96.92307692307693,265.79701484156766L100.38461538461539,252.99274856810857L103.84615384615385,243.19969307500472L107.3076923076923,229.8834158435702L110.76923076923077,210.6129558529495L114.23076923076923,259.37466874959813L117.6923076923077,275.9197324414716L121.15384615384615,239.7141860912918L124.61538461538463,237.93646973482166L128.07692307692307,217.97197577242358L131.53846153846155,217.97334020045673L135,207.83450704225345L138.46153846153848,184.08971438584192L141.9230769230769,250.63015183912637L145.3846153846154,245.6227514133973L148.84615384615384,226.81668597710063L152.30769230769232,240.99800167494467L155.76923076923077,216.60996424864484L159.23076923076923,208.47906516563955L162.69230769230768,192.14088957541657L166.15384615384616,179.7107669810803L169.6153846153846,238.7636396428893L173.0769230769231,225.6311035296003L176.53846153846155,224.14552892605488L180,233.68775529294382L183.46153846153845,203.1033355258889L186.92307692307693,195.75949778031838L190.3846153846154,188.26674814758238L193.84615384615387,183.82519849445026L197.3076923076923,217.15275082838295L200.76923076923077,218.56604214772167L204.23076923076923,211.98959459854444L207.6923076923077,205.61938499252452L211.15384615384616,224.35774246343905L214.6153846153846,184.7343502334041L218.07692307692307,185.6838044018355L221.53846153846155,165.26368903659105L225,217.2097437519772L228.46153846153845,211.4926980989948L231.9230769230769,197.5448522710735L235.3846153846154,218.6425179997426L238.84615384615384,193.91119600929102L242.3076923076923,179.56307535281755L245.76923076923075,175.998054528608L249.23076923076925,173.98142403506137L252.6923076923077,213.58251253347387L256.15384615384613,205.10796773369563L259.6153846153846,199.61786534927535L263.0769230769231,194.6105379768746L266.53846153846155,189.2298801179556L270,206.3908871530359L273.46153846153845,182.61419343015532L276.92307692307696,161.2711039841126L280.3846153846154,194.4587114877299L283.8461538461538,189.49208098348112L287.30769230769226,193.9925958590137L290.7692307692308,179.39250493096648L294.2307692307692,204.49981680678619L297.6923076923077,179.5165727255338L301.15384615384613,174.21745339457325L304.61538461538464,171.86369304360264L308.0769230769231,198.90718652302914L311.53846153846155,194.5699853994076L315,194.8691636736788L318.46153846153845,178.38971000479395L321.9230769230769,180.95309693321792L325.38461538461536,177.09976396525607L328.8461538461538,191.15351137441962L332.3076923076923,189.3265378405604L335.7692307692308,194.79518723806947L339.2307692307692,181.86065243656859L342.6923076923077,186.54551611264742L346.1538461538462,175.23340397502713L349.61538461538464,169.23810681225652L353.0769230769231,194.26755418588542L356.53846153846155,172.3531378954094L360,169.29583749648353L363.46153846153845,182.3460358770748L366.9230769230769,187.7065395289262L370.38461538461536,183.90386242772271L373.84615384615387,176.0846276685397L377.3076923076923,171.59128332640637L380.7692307692308,162.35492443514696L384.2307692307692,164.58813461699046L387.69230769230774,173.36879467297663L391.1538461538462,208.81374127043057L394.6153846153846,185.47536382169548L398.07692307692304,177.27510888430427L401.53846153846155,173.46912165361624L405,174.14850288681026L408.46153846153845,168.0976593945199L411.9230769230769,177.36718692260663L415.3846153846154,189.6431902879106L418.84615384615387,186.89963219742322L422.3076923076923,172.0860467062861L425.7692307692308,182.25493591296313L429.2307692307692,177.7867068824263L432.6923076923077,171.05908280344912L436.15384615384613,167.5399809104544L439.6153846153846,224.51998506724428L443.0769230769231,148.75097254266402L446.53846153846155,183.7225551873617L450,181.99696322580124L453.46153846153845,202.0394785307864L456.9230769230769,162.87370067151122L460.38461538461536,178.08357719304036L463.8461538461538,165.92149269494803L467.3076923076923,161.08601039444113L470.7692307692308,187.91896081680665L474.2307692307692,172.628067558875L477.6923076923077,195.2193655839893L481.15384615384613,164.50192800015247L484.6153846153846,170.72703317762608L488.07692307692304,163.13779955115635L491.5384615384615,155.17004340841248L495.00000000000006,160.8525374118811L498.4615384615385,156.99852729555704L501.92307692307696,189.02608581314547L505.3846153846154,172.50087969909728L508.8461538461538,177.62809427642L512.3076923076923,169.2502723878429L515.7692307692307,159.55821143092336L519.2307692307692,153.4431590050068L522.6923076923077,158.85907328881697L526.1538461538462,155.6332439443152L529.6153846153846,184.56093650745638L533.0769230769231,174.23516762779786L536.5384615384615,172.4905931491336L540,171.9992391097583L543.4615384615385,173.26775060345213L546.9230769230769,160.44028435928902L550.3846153846155,239.44570565435617L553.8461538461539,165.28864819191983L557.3076923076924,174.63073223968757L560.7692307692308,178.14017105039622L564.2307692307692,192.36126409388575L567.6923076923076,166.86860459196663L571.1538461538461,209.90496315987656L574.6153846153845,162.71881807413934L578.0769230769231,182.4193569423802L581.5384615384615,172.01113485107962L585,185.0761034390483L588.4615384615385,195.11863812632825L591.9230769230769,195.56762438682546L595.3846153846154,196.08855874416037L598.8461538461538,196.39686345667815L602.3076923076923,151.33551117519372L605.7692307692308,180.49948527952714L609.2307692307693,200.80260240938506L612.6923076923077,212.4875198408579L616.1538461538462,169.6605714066427L619.6153846153846,204.31522150510258L623.0769230769231,192.81008172075437L626.5384615384615,183.75565341078465L630,202.568932736369L633.4615384615385,191.75411055110303L636.9230769230769,190.27261851020376L640.3846153846154,218.6657724913548L643.8461538461538,204.89577276763134L647.3076923076923,230.9175838118779L650.7692307692307,215.0193060869844L654.2307692307692,213.3169676647344L657.6923076923076,201.50904789308782L661.1538461538462,257.27213016700176L664.6153846153846,200.16468112636662L668.0769230769231,215.95124323504345L671.5384615384615,219.08888912132954L675,222.0032497458167L678.4615384615385,170.1329593161551L681.9230769230769,208.78702032174138L685.3846153846154,147.59701894847277L688.8461538461538,207.51694657274055L692.3076923076924,174.19013987328216L695.7692307692308,217.0743449328701L699.2307692307693,156.6270768952049L702.6923076923077,211.4244618457888L706.1538461538462,226.03087407264954L709.6153846153846,221.54978673187603L713.0769230769231,156.8148036111966L716.5384615384615,207.87150849954423L720,143.36658421896658L723.4615384615385,217.3436857813168L726.9230769230769,226.01698739972437L730.3846153846154,223.8546515924037L733.8461538461538,222.85491137611098L737.3076923076923,220.83802536401134L740.7692307692307,209.2729595307937L744.2307692307692,224.5541332283814L747.6923076923077,206.06678909066173L751.1538461538462,155.7983887894715L754.6153846153846,154.4538527247885L758.0769230769231,213.80702972171392L761.5384615384615,213.33411447653648L765,147.96214747493676L768.4615384615385,207.9527895100882L771.9230769230769,245.61589728206394L775.3846153846155,150.59332837110614L778.8461538461539,164.6066409133585L782.3076923076924,213.4365942889723L785.7692307692308,222.54000182564744L789.2307692307692,221.4374693623683L792.6923076923076,210.15588900508274L796.1538461538461,218.21702873252795L799.6153846153845,206.7892657379737L803.0769230769231,215.15849573905788L806.5384615384615,224.43502978686328L810,224.88198888073012L813.4615384615385,213.21059280837062L816.9230769230769,220.99620479347865L820.3846153846154,228.2027769391596L823.8461538461538,209.28071814665074L827.3076923076923,217.86880369423415L830.7692307692308,208.65604840070014L834.2307692307693,214.88836219202128L837.6923076923077,213.0131723060581L841.1538461538462,212.89019248325434L844.6153846153846,211.99824732964424L848.0769230769231,209.89924416295923L851.5384615384615,208.8016594799553L855,207.38571374703045L858.4615384615385,202.9442493841621L861.9230769230769,225.22274187316543L865.3846153846154,213.19121692117986L868.8461538461538,223.48285241672832L872.3076923076923,211.7630613383986L875.7692307692307,210.4010273979338L879.2307692307692,206.24735435106754L882.6923076923076,251.0990812820681L886.1538461538462,208.83238409223267" style="fill: none; stroke: #2ca02c; stroke-width: 2;"></path></g></g></g></g><g class="mark-group role-legend"><g transform="translate(918,0)"><path class="background" d="M0,0h101v105h-101Z" style="pointer-events: none; fill: none;"></path><g><g class="mark-group role-legend-entry"><g transform="translate(0,16)"><path class="background" d="M0,0h0v0h0Z" style="pointer-events: none; fill: none;"></path><g><g class="mark-group role-scope"><g transform="translate(0,0)"><path class="background" d="M0,0h101v11h-101Z" style="pointer-events: none; fill: none; opacity: 1;"></path><g><g class="mark-symbol role-legend-symbol" style="pointer-events: none;"><path transform="translate(6,6)" d="M-5,0L5,0" style="fill: none; stroke: #1f77b4; stroke-width: 1.5; opacity: 1;"></path></g><g class="mark-text role-legend-label" style="pointer-events: none;"><text text-anchor="start" transform="translate(16,9)" style="font-family: sans-serif; font-size: 10px; fill: #000; opacity: 1;">Clang-Polly</text></g></g></g><g transform="translate(0,13)"><path class="background" d="M0,0h101v11h-101Z" style="pointer-events: none; fill: none; opacity: 1;"></path><g><g class="mark-symbol role-legend-symbol" style="pointer-events: none;"><path transform="translate(6,6)" d="M-5,0L5,0" style="fill: none; stroke: #aec7e8; stroke-width: 1.5; opacity: 1;"></path></g><g class="mark-text role-legend-label" style="pointer-events: none;"><text text-anchor="start" transform="translate(16,9)" style="font-family: sans-serif; font-size: 10px; fill: #000; opacity: 1;">GFortran</text></g></g></g><g transform="translate(0,26)"><path class="background" d="M0,0h101v11h-101Z" style="pointer-events: none; fill: none; opacity: 1;"></path><g><g class="mark-symbol role-legend-symbol" style="pointer-events: none;"><path transform="translate(6,6)" d="M-5,0L5,0" style="fill: none; stroke: #ff7f0e; stroke-width: 1.5; opacity: 1;"></path></g><g class="mark-text role-legend-label" style="pointer-events: none;"><text text-anchor="start" transform="translate(16,9)" style="font-family: sans-serif; font-size: 10px; fill: #000; opacity: 1;">Julia</text></g></g></g><g transform="translate(0,39)"><path class="background" d="M0,0h101v11h-101Z" style="pointer-events: none; fill: none; opacity: 1;"></path><g><g class="mark-symbol role-legend-symbol" style="pointer-events: none;"><path transform="translate(6,6)" d="M-5,0L5,0" style="fill: none; stroke: #ffbb78; stroke-width: 1.5; opacity: 1;"></path></g><g class="mark-text role-legend-label" style="pointer-events: none;"><text text-anchor="start" transform="translate(16,9)" style="font-family: sans-serif; font-size: 10px; fill: #000; opacity: 1;">Julia-builtin</text></g></g></g><g transform="translate(0,52)"><path class="background" d="M0,0h101v11h-101Z" style="pointer-events: none; fill: none; opacity: 1;"></path><g><g class="mark-symbol role-legend-symbol" style="pointer-events: none;"><path transform="translate(6,6)" d="M-5,0L5,0" style="fill: none; stroke: #2ca02c; stroke-width: 1.5; opacity: 1;"></path></g><g class="mark-text role-legend-label" style="pointer-events: none;"><text text-anchor="start" transform="translate(16,9)" style="font-family: sans-serif; font-size: 10px; fill: #000; opacity: 1;">LoopVectorization</text></g></g></g><g transform="translate(0,65)"><path class="background" d="M0,0h101v11h-101Z" style="pointer-events: none; fill: none; opacity: 1;"></path><g><g class="mark-symbol role-legend-symbol" style="pointer-events: none;"><path transform="translate(6,6)" d="M-5,0L5,0" style="fill: none; stroke: #98df8a; stroke-width: 1.5; opacity: 1;"></path></g><g class="mark-text role-legend-label" style="pointer-events: none;"><text text-anchor="start" transform="translate(16,9)" style="font-family: sans-serif; font-size: 10px; fill: #000; opacity: 1;">icc</text></g></g></g><g transform="translate(0,78)"><path class="background" d="M0,0h101v11h-101Z" style="pointer-events: none; fill: none; opacity: 1;"></path><g><g class="mark-symbol role-legend-symbol" style="pointer-events: none;"><path transform="translate(6,6)" d="M-5,0L5,0" style="fill: none; stroke: #d62728; stroke-width: 1.5; opacity: 1;"></path></g><g class="mark-text role-legend-label" style="pointer-events: none;"><text text-anchor="start" transform="translate(16,9)" style="font-family: sans-serif; font-size: 10px; fill: #000; opacity: 1;">ifort</text></g></g></g></g></g></g></g><g class="mark-text role-legend-title" style="pointer-events: none;"><text text-anchor="start" transform="translate(0,9)" style="font-family: sans-serif; font-size: 11px; font-weight: bold; fill: #000; opacity: 1;">Method</text></g></g></g></g><g class="mark-group role-axis"><g transform="translate(0.5,600.5)"><path class="background" d="M0,0h0v0h0Z" style="pointer-events: none; fill: none;"></path><g><g class="mark-rule role-axis-tick" style="pointer-events: none;"><line transform="translate(0,0)" x2="0" y2="5" style="fill: none; stroke: #888; stroke-width: 1; opacity: 1;"></line><line transform="translate(35,0)" x2="0" y2="5" style="fill: none; stroke: #888; stroke-width: 1; opacity: 1;"></line><line transform="translate(69,0)" x2="0" y2="5" style="fill: none; stroke: #888; stroke-width: 1; opacity: 1;"></line><line transform="translate(104,0)" x2="0" y2="5" style="fill: none; stroke: #888; stroke-width: 1; opacity: 1;"></line><line transform="translate(138,0)" x2="0" y2="5" style="fill: none; stroke: #888; stroke-width: 1; opacity: 1;"></line><line transform="translate(173,0)" x2="0" y2="5" style="fill: none; stroke: #888; stroke-width: 1; opacity: 1;"></line><line transform="translate(208,0)" x2="0" y2="5" style="fill: none; stroke: #888; stroke-width: 1; opacity: 1;"></line><line transform="translate(242,0)" x2="0" y2="5" style="fill: none; stroke: #888; stroke-width: 1; opacity: 1;"></line><line transform="translate(277,0)" x2="0" y2="5" style="fill: none; stroke: #888; stroke-width: 1; opacity: 1;"></line><line transform="translate(312,0)" x2="0" y2="5" style="fill: none; stroke: #888; stroke-width: 1; opacity: 1;"></line><line transform="translate(346,0)" x2="0" y2="5" style="fill: none; stroke: #888; stroke-width: 1; opacity: 1;"></line><line transform="translate(381,0)" x2="0" y2="5" style="fill: none; stroke: #888; stroke-width: 1; opacity: 1;"></line><line transform="translate(415,0)" x2="0" y2="5" style="fill: none; stroke: #888; stroke-width: 1; opacity: 1;"></line><line transform="translate(450,0)" x2="0" y2="5" style="fill: none; stroke: #888; stroke-width: 1; opacity: 1;"></line><line transform="translate(485,0)" x2="0" y2="5" style="fill: none; stroke: #888; stroke-width: 1; opacity: 1;"></line><line transform="translate(519,0)" x2="0" y2="5" style="fill: none; stroke: #888; stroke-width: 1; opacity: 1;"></line><line transform="translate(554,0)" x2="0" y2="5" style="fill: none; stroke: #888; stroke-width: 1; opacity: 1;"></line><line transform="translate(588,0)" x2="0" y2="5" style="fill: none; stroke: #888; stroke-width: 1; opacity: 1;"></line><line transform="translate(623,0)" x2="0" y2="5" style="fill: none; stroke: #888; stroke-width: 1; opacity: 1;"></line><line transform="translate(658,0)" x2="0" y2="5" style="fill: none; stroke: #888; stroke-width: 1; opacity: 1;"></line><line transform="translate(692,0)" x2="0" y2="5" style="fill: none; stroke: #888; stroke-width: 1; opacity: 1;"></line><line transform="translate(727,0)" x2="0" y2="5" style="fill: none; stroke: #888; stroke-width: 1; opacity: 1;"></line><line transform="translate(762,0)" x2="0" y2="5" style="fill: none; stroke: #888; stroke-width: 1; opacity: 1;"></line><line transform="translate(796,0)" x2="0" y2="5" style="fill: none; stroke: #888; stroke-width: 1; opacity: 1;"></line><line transform="translate(831,0)" x2="0" y2="5" style="fill: none; stroke: #888; stroke-width: 1; opacity: 1;"></line><line transform="translate(865,0)" x2="0" y2="5" style="fill: none; stroke: #888; stroke-width: 1; opacity: 1;"></line><line transform="translate(900,0)" x2="0" y2="5" style="fill: none; stroke: #888; stroke-width: 1; opacity: 1;"></line></g><g class="mark-text role-axis-label" style="pointer-events: none;"><text text-anchor="start" transform="translate(0,15)" style="font-family: sans-serif; font-size: 10px; fill: #000; opacity: 1;">0</text><text text-anchor="middle" transform="translate(34.61538461538462,15)" style="font-family: sans-serif; font-size: 10px; fill: #000; opacity: 1;">10</text><text text-anchor="middle" transform="translate(69.23076923076924,15)" style="font-family: sans-serif; font-size: 10px; fill: #000; opacity: 1;">20</text><text text-anchor="middle" transform="translate(103.84615384615385,15)" style="font-family: sans-serif; font-size: 10px; fill: #000; opacity: 1;">30</text><text text-anchor="middle" transform="translate(138.46153846153848,15)" style="font-family: sans-serif; font-size: 10px; fill: #000; opacity: 1;">40</text><text text-anchor="middle" transform="translate(173.0769230769231,15)" style="font-family: sans-serif; font-size: 10px; fill: #000; opacity: 1;">50</text><text text-anchor="middle" transform="translate(207.6923076923077,15)" style="font-family: sans-serif; font-size: 10px; fill: #000; opacity: 1;">60</text><text text-anchor="middle" transform="translate(242.3076923076923,15)" style="font-family: sans-serif; font-size: 10px; fill: #000; opacity: 1;">70</text><text text-anchor="middle" transform="translate(276.92307692307696,15)" style="font-family: sans-serif; font-size: 10px; fill: #000; opacity: 1;">80</text><text text-anchor="middle" transform="translate(311.53846153846155,15)" style="font-family: sans-serif; font-size: 10px; fill: #000; opacity: 1;">90</text><text text-anchor="middle" transform="translate(346.1538461538462,15)" style="font-family: sans-serif; font-size: 10px; fill: #000; opacity: 1;">100</text><text text-anchor="middle" transform="translate(380.7692307692308,15)" style="font-family: sans-serif; font-size: 10px; fill: #000; opacity: 1;">110</text><text text-anchor="middle" transform="translate(415.3846153846154,15)" style="font-family: sans-serif; font-size: 10px; fill: #000; opacity: 1;">120</text><text text-anchor="middle" transform="translate(450,15)" style="font-family: sans-serif; font-size: 10px; fill: #000; opacity: 1;">130</text><text text-anchor="middle" transform="translate(484.6153846153846,15)" style="font-family: sans-serif; font-size: 10px; fill: #000; opacity: 1;">140</text><text text-anchor="middle" transform="translate(519.2307692307692,15)" style="font-family: sans-serif; font-size: 10px; fill: #000; opacity: 1;">150</text><text text-anchor="middle" transform="translate(553.8461538461539,15)" style="font-family: sans-serif; font-size: 10px; fill: #000; opacity: 1;">160</text><text text-anchor="middle" transform="translate(588.4615384615385,15)" style="font-family: sans-serif; font-size: 10px; fill: #000; opacity: 1;">170</text><text text-anchor="middle" transform="translate(623.0769230769231,15)" style="font-family: sans-serif; font-size: 10px; fill: #000; opacity: 1;">180</text><text text-anchor="middle" transform="translate(657.6923076923076,15)" style="font-family: sans-serif; font-size: 10px; fill: #000; opacity: 1;">190</text><text text-anchor="middle" transform="translate(692.3076923076924,15)" style="font-family: sans-serif; font-size: 10px; fill: #000; opacity: 1;">200</text><text text-anchor="middle" transform="translate(726.9230769230769,15)" style="font-family: sans-serif; font-size: 10px; fill: #000; opacity: 1;">210</text><text text-anchor="middle" transform="translate(761.5384615384615,15)" style="font-family: sans-serif; font-size: 10px; fill: #000; opacity: 1;">220</text><text text-anchor="middle" transform="translate(796.1538461538461,15)" style="font-family: sans-serif; font-size: 10px; fill: #000; opacity: 1;">230</text><text text-anchor="middle" transform="translate(830.7692307692308,15)" style="font-family: sans-serif; font-size: 10px; fill: #000; opacity: 1;">240</text><text text-anchor="middle" transform="translate(865.3846153846154,15)" style="font-family: sans-serif; font-size: 10px; fill: #000; opacity: 1;">250</text><text text-anchor="end" transform="translate(900,15)" style="font-family: sans-serif; font-size: 10px; fill: #000; opacity: 1;">260</text></g><g class="mark-rule role-axis-domain" style="pointer-events: none;"><line transform="translate(0,0)" x2="900" y2="0" style="fill: none; stroke: #888; stroke-width: 1; opacity: 1;"></line></g><g class="mark-text role-axis-title" style="pointer-events: none;"><text text-anchor="middle" transform="translate(450,30)" style="font-family: sans-serif; font-size: 11px; font-weight: bold; fill: #000; opacity: 1;">Size</text></g></g></g></g><g class="mark-group role-axis"><g transform="translate(0.5,0.5)"><path class="background" d="M0,0h0v0h0Z" style="pointer-events: none; fill: none;"></path><g><g class="mark-rule role-axis-tick" style="pointer-events: none;"><line transform="translate(0,600)" x2="-5" y2="0" style="fill: none; stroke: #888; stroke-width: 1; opacity: 1;"></line><line transform="translate(0,554)" x2="-5" y2="0" style="fill: none; stroke: #888; stroke-width: 1; opacity: 1;"></line><line transform="translate(0,508)" x2="-5" y2="0" style="fill: none; stroke: #888; stroke-width: 1; opacity: 1;"></line><line transform="translate(0,462)" x2="-5" y2="0" style="fill: none; stroke: #888; stroke-width: 1; opacity: 1;"></line><line transform="translate(0,415)" x2="-5" y2="0" style="fill: none; stroke: #888; stroke-width: 1; opacity: 1;"></line><line transform="translate(0,369)" x2="-5" y2="0" style="fill: none; stroke: #888; stroke-width: 1; opacity: 1;"></line><line transform="translate(0,323)" x2="-5" y2="0" style="fill: none; stroke: #888; stroke-width: 1; opacity: 1;"></line><line transform="translate(0,277)" x2="-5" y2="0" style="fill: none; stroke: #888; stroke-width: 1; opacity: 1;"></line><line transform="translate(0,231)" x2="-5" y2="0" style="fill: none; stroke: #888; stroke-width: 1; opacity: 1;"></line><line transform="translate(0,185)" x2="-5" y2="0" style="fill: none; stroke: #888; stroke-width: 1; opacity: 1;"></line><line transform="translate(0,138)" x2="-5" y2="0" style="fill: none; stroke: #888; stroke-width: 1; opacity: 1;"></line><line transform="translate(0,92)" x2="-5" y2="0" style="fill: none; stroke: #888; stroke-width: 1; opacity: 1;"></line><line transform="translate(0,46)" x2="-5" y2="0" style="fill: none; stroke: #888; stroke-width: 1; opacity: 1;"></line><line transform="translate(0,0)" x2="-5" y2="0" style="fill: none; stroke: #888; stroke-width: 1; opacity: 1;"></line></g><g class="mark-text role-axis-label" style="pointer-events: none;"><text text-anchor="end" transform="translate(-7,603)" style="font-family: sans-serif; font-size: 10px; fill: #000; opacity: 1;">0.0</text><text text-anchor="end" transform="translate(-7,556.8461538461539)" style="font-family: sans-serif; font-size: 10px; fill: #000; opacity: 1;">0.1</text><text text-anchor="end" transform="translate(-7,510.6923076923077)" style="font-family: sans-serif; font-size: 10px; fill: #000; opacity: 1;">0.2</text><text text-anchor="end" transform="translate(-7,464.53846153846155)" style="font-family: sans-serif; font-size: 10px; fill: #000; opacity: 1;">0.3</text><text text-anchor="end" transform="translate(-7,418.38461538461536)" style="font-family: sans-serif; font-size: 10px; fill: #000; opacity: 1;">0.4</text><text text-anchor="end" transform="translate(-7,372.2307692307692)" style="font-family: sans-serif; font-size: 10px; fill: #000; opacity: 1;">0.5</text><text text-anchor="end" transform="translate(-7,326.07692307692315)" style="font-family: sans-serif; font-size: 10px; fill: #000; opacity: 1;">0.6</text><text text-anchor="end" transform="translate(-7,279.92307692307696)" style="font-family: sans-serif; font-size: 10px; fill: #000; opacity: 1;">0.7</text><text text-anchor="end" transform="translate(-7,233.76923076923075)" style="font-family: sans-serif; font-size: 10px; fill: #000; opacity: 1;">0.8</text><text text-anchor="end" transform="translate(-7,187.6153846153846)" style="font-family: sans-serif; font-size: 10px; fill: #000; opacity: 1;">0.9</text><text text-anchor="end" transform="translate(-7,141.4615384615385)" style="font-family: sans-serif; font-size: 10px; fill: #000; opacity: 1;">1.0</text><text text-anchor="end" transform="translate(-7,95.3076923076923)" style="font-family: sans-serif; font-size: 10px; fill: #000; opacity: 1;">1.1</text><text text-anchor="end" transform="translate(-7,49.15384615384619)" style="font-family: sans-serif; font-size: 10px; fill: #000; opacity: 1;">1.2</text><text text-anchor="end" transform="translate(-7,3)" style="font-family: sans-serif; font-size: 10px; fill: #000; opacity: 1;">1.3</text></g><g class="mark-rule role-axis-domain" style="pointer-events: none;"><line transform="translate(0,600)" x2="0" y2="-600" style="fill: none; stroke: #888; stroke-width: 1; opacity: 1;"></line></g><g class="mark-text role-axis-title" style="pointer-events: none;"><text text-anchor="middle" transform="translate(-26,300) rotate(-90) translate(0,-2)" style="font-family: sans-serif; font-size: 11px; font-weight: bold; fill: #000; opacity: 1;">GFLOPS</text></g></g></g></g></g></g></g></g></svg>