<?xml version="1.0" encoding="utf-8"?>
<!DOCTYPE svg PUBLIC "-//W3C//DTD SVG 1.1//EN" "http://www.w3.org/Graphics/SVG/1.1/DTD/svg11.dtd">
<svg class="marks" width="1063" height="647" viewBox="0 0 1063 647" version="1.1" xmlns="http://www.w3.org/2000/svg" xmlns:xlink="http://www.w3.org/1999/xlink"><rect width="1063" height="647" style="fill: white;"></rect><g transform="translate(39,10)"><g class="mark-group role-frame root"><g transform="translate(0,0)"><path class="background" d="M0.5,0.5h900v600h-900Z" style="fill: none; stroke: #ddd;"></path><g><g class="mark-group role-axis"><g transform="translate(0.5,600.5)"><path class="background" d="M0,0h0v0h0Z" style="pointer-events: none; fill: none;"></path><g><g class="mark-rule role-axis-grid" style="pointer-events: none;"><line transform="translate(0,-600)" x2="0" y2="600" style="fill: none; stroke: #ddd; stroke-width: 1; opacity: 1;"></line><line transform="translate(35,-600)" x2="0" y2="600" style="fill: none; stroke: #ddd; stroke-width: 1; opacity: 1;"></line><line transform="translate(69,-600)" x2="0" y2="600" style="fill: none; stroke: #ddd; stroke-width: 1; opacity: 1;"></line><line transform="translate(104,-600)" x2="0" y2="600" style="fill: none; stroke: #ddd; stroke-width: 1; opacity: 1;"></line><line transform="translate(138,-600)" x2="0" y2="600" style="fill: none; stroke: #ddd; stroke-width: 1; opacity: 1;"></line><line transform="translate(173,-600)" x2="0" y2="600" style="fill: none; stroke: #ddd; stroke-width: 1; opacity: 1;"></line><line transform="translate(208,-600)" x2="0" y2="600" style="fill: none; stroke: #ddd; stroke-width: 1; opacity: 1;"></line><line transform="translate(242,-600)" x2="0" y2="600" style="fill: none; stroke: #ddd; stroke-width: 1; opacity: 1;"></line><line transform="translate(277,-600)" x2="0" y2="600" style="fill: none; stroke: #ddd; stroke-width: 1; opacity: 1;"></line><line transform="translate(312,-600)" x2="0" y2="600" style="fill: none; stroke: #ddd; stroke-width: 1; opacity: 1;"></line><line transform="translate(346,-600)" x2="0" y2="600" style="fill: none; stroke: #ddd; stroke-width: 1; opacity: 1;"></line><line transform="translate(381,-600)" x2="0" y2="600" style="fill: none; stroke: #ddd; stroke-width: 1; opacity: 1;"></line><line transform="translate(415,-600)" x2="0" y2="600" style="fill: none; stroke: #ddd; stroke-width: 1; opacity: 1;"></line><line transform="translate(450,-600)" x2="0" y2="600" style="fill: none; stroke: #ddd; stroke-width: 1; opacity: 1;"></line><line transform="translate(485,-600)" x2="0" y2="600" style="fill: none; stroke: #ddd; stroke-width: 1; opacity: 1;"></line><line transform="translate(519,-600)" x2="0" y2="600" style="fill: none; stroke: #ddd; stroke-width: 1; opacity: 1;"></line><line transform="translate(554,-600)" x2="0" y2="600" style="fill: none; stroke: #ddd; stroke-width: 1; opacity: 1;"></line><line transform="translate(588,-600)" x2="0" y2="600" style="fill: none; stroke: #ddd; stroke-width: 1; opacity: 1;"></line><line transform="translate(623,-600)" x2="0" y2="600" style="fill: none; stroke: #ddd; stroke-width: 1; opacity: 1;"></line><line transform="translate(658,-600)" x2="0" y2="600" style="fill: none; stroke: #ddd; stroke-width: 1; opacity: 1;"></line><line transform="translate(692,-600)" x2="0" y2="600" style="fill: none; stroke: #ddd; stroke-width: 1; opacity: 1;"></line><line transform="translate(727,-600)" x2="0" y2="600" style="fill: none; stroke: #ddd; stroke-width: 1; opacity: 1;"></line><line transform="translate(762,-600)" x2="0" y2="600" style="fill: none; stroke: #ddd; stroke-width: 1; opacity: 1;"></line><line transform="translate(796,-600)" x2="0" y2="600" style="fill: none; stroke: #ddd; stroke-width: 1; opacity: 1;"></line><line transform="translate(831,-600)" x2="0" y2="600" style="fill: none; stroke: #ddd; stroke-width: 1; opacity: 1;"></line><line transform="translate(865,-600)" x2="0" y2="600" style="fill: none; stroke: #ddd; stroke-width: 1; opacity: 1;"></line><line transform="translate(900,-600)" x2="0" y2="600" style="fill: none; stroke: #ddd; stroke-width: 1; opacity: 1;"></line></g></g><path class="foreground" d="" style="pointer-events: none; display: none; fill: none;"></path></g></g><g class="mark-group role-axis"><g transform="translate(0.5,0.5)"><path class="background" d="M0,0h0v0h0Z" style="pointer-events: none; fill: none;"></path><g><g class="mark-rule role-axis-grid" style="pointer-events: none;"><line transform="translate(0,600)" x2="900" y2="0" style="fill: none; stroke: #ddd; stroke-width: 1; opacity: 1;"></line><line transform="translate(0,550)" x2="900" y2="0" style="fill: none; stroke: #ddd; stroke-width: 1; opacity: 1;"></line><line transform="translate(0,500)" x2="900" y2="0" style="fill: none; stroke: #ddd; stroke-width: 1; opacity: 1;"></line><line transform="translate(0,450)" x2="900" y2="0" style="fill: none; stroke: #ddd; stroke-width: 1; opacity: 1;"></line><line transform="translate(0,400)" x2="900" y2="0" style="fill: none; stroke: #ddd; stroke-width: 1; opacity: 1;"></line><line transform="translate(0,350)" x2="900" y2="0" style="fill: none; stroke: #ddd; stroke-width: 1; opacity: 1;"></line><line transform="translate(0,300)" x2="900" y2="0" style="fill: none; stroke: #ddd; stroke-width: 1; opacity: 1;"></line><line transform="translate(0,250)" x2="900" y2="0" style="fill: none; stroke: #ddd; stroke-width: 1; opacity: 1;"></line><line transform="translate(0,200)" x2="900" y2="0" style="fill: none; stroke: #ddd; stroke-width: 1; opacity: 1;"></line><line transform="translate(0,150)" x2="900" y2="0" style="fill: none; stroke: #ddd; stroke-width: 1; opacity: 1;"></line><line transform="translate(0,100)" x2="900" y2="0" style="fill: none; stroke: #ddd; stroke-width: 1; opacity: 1;"></line><line transform="translate(0,50)" x2="900" y2="0" style="fill: none; stroke: #ddd; stroke-width: 1; opacity: 1;"></line><line transform="translate(0,0)" x2="900" y2="0" style="fill: none; stroke: #ddd; stroke-width: 1; opacity: 1;"></line></g></g><path class="foreground" d="" style="pointer-events: none; display: none; fill: none;"></path></g></g><g class="mark-group role-axis"><g transform="translate(0.5,600.5)"><path class="background" d="M0,0h0v0h0Z" style="pointer-events: none; fill: none;"></path><g><g class="mark-rule role-axis-tick" style="pointer-events: none;"><line transform="translate(0,0)" x2="0" y2="5" style="fill: none; stroke: #888; stroke-width: 1; opacity: 1;"></line><line transform="translate(35,0)" x2="0" y2="5" style="fill: none; stroke: #888; stroke-width: 1; opacity: 1;"></line><line transform="translate(69,0)" x2="0" y2="5" style="fill: none; stroke: #888; stroke-width: 1; opacity: 1;"></line><line transform="translate(104,0)" x2="0" y2="5" style="fill: none; stroke: #888; stroke-width: 1; opacity: 1;"></line><line transform="translate(138,0)" x2="0" y2="5" style="fill: none; stroke: #888; stroke-width: 1; opacity: 1;"></line><line transform="translate(173,0)" x2="0" y2="5" style="fill: none; stroke: #888; stroke-width: 1; opacity: 1;"></line><line transform="translate(208,0)" x2="0" y2="5" style="fill: none; stroke: #888; stroke-width: 1; opacity: 1;"></line><line transform="translate(242,0)" x2="0" y2="5" style="fill: none; stroke: #888; stroke-width: 1; opacity: 1;"></line><line transform="translate(277,0)" x2="0" y2="5" style="fill: none; stroke: #888; stroke-width: 1; opacity: 1;"></line><line transform="translate(312,0)" x2="0" y2="5" style="fill: none; stroke: #888; stroke-width: 1; opacity: 1;"></line><line transform="translate(346,0)" x2="0" y2="5" style="fill: none; stroke: #888; stroke-width: 1; opacity: 1;"></line><line transform="translate(381,0)" x2="0" y2="5" style="fill: none; stroke: #888; stroke-width: 1; opacity: 1;"></line><line transform="translate(415,0)" x2="0" y2="5" style="fill: none; stroke: #888; stroke-width: 1; opacity: 1;"></line><line transform="translate(450,0)" x2="0" y2="5" style="fill: none; stroke: #888; stroke-width: 1; opacity: 1;"></line><line transform="translate(485,0)" x2="0" y2="5" style="fill: none; stroke: #888; stroke-width: 1; opacity: 1;"></line><line transform="translate(519,0)" x2="0" y2="5" style="fill: none; stroke: #888; stroke-width: 1; opacity: 1;"></line><line transform="translate(554,0)" x2="0" y2="5" style="fill: none; stroke: #888; stroke-width: 1; opacity: 1;"></line><line transform="translate(588,0)" x2="0" y2="5" style="fill: none; stroke: #888; stroke-width: 1; opacity: 1;"></line><line transform="translate(623,0)" x2="0" y2="5" style="fill: none; stroke: #888; stroke-width: 1; opacity: 1;"></line><line transform="translate(658,0)" x2="0" y2="5" style="fill: none; stroke: #888; stroke-width: 1; opacity: 1;"></line><line transform="translate(692,0)" x2="0" y2="5" style="fill: none; stroke: #888; stroke-width: 1; opacity: 1;"></line><line transform="translate(727,0)" x2="0" y2="5" style="fill: none; stroke: #888; stroke-width: 1; opacity: 1;"></line><line transform="translate(762,0)" x2="0" y2="5" style="fill: none; stroke: #888; stroke-width: 1; opacity: 1;"></line><line transform="translate(796,0)" x2="0" y2="5" style="fill: none; stroke: #888; stroke-width: 1; opacity: 1;"></line><line transform="translate(831,0)" x2="0" y2="5" style="fill: none; stroke: #888; stroke-width: 1; opacity: 1;"></line><line transform="translate(865,0)" x2="0" y2="5" style="fill: none; stroke: #888; stroke-width: 1; opacity: 1;"></line><line transform="translate(900,0)" x2="0" y2="5" style="fill: none; stroke: #888; stroke-width: 1; opacity: 1;"></line></g><g class="mark-text role-axis-label" style="pointer-events: none;"><text text-anchor="start" transform="translate(0,15)" style="font-family: sans-serif; font-size: 10px; fill: #000; opacity: 1;">0</text><text text-anchor="middle" transform="translate(34.61538461538462,15)" style="font-family: sans-serif; font-size: 10px; fill: #000; opacity: 1;">10</text><text text-anchor="middle" transform="translate(69.23076923076924,15)" style="font-family: sans-serif; font-size: 10px; fill: #000; opacity: 1;">20</text><text text-anchor="middle" transform="translate(103.84615384615385,15)" style="font-family: sans-serif; font-size: 10px; fill: #000; opacity: 1;">30</text><text text-anchor="middle" transform="translate(138.46153846153848,15)" style="font-family: sans-serif; font-size: 10px; fill: #000; opacity: 1;">40</text><text text-anchor="middle" transform="translate(173.0769230769231,15)" style="font-family: sans-serif; font-size: 10px; fill: #000; opacity: 1;">50</text><text text-anchor="middle" transform="translate(207.6923076923077,15)" style="font-family: sans-serif; font-size: 10px; fill: #000; opacity: 1;">60</text><text text-anchor="middle" transform="translate(242.3076923076923,15)" style="font-family: sans-serif; font-size: 10px; fill: #000; opacity: 1;">70</text><text text-anchor="middle" transform="translate(276.92307692307696,15)" style="font-family: sans-serif; font-size: 10px; fill: #000; opacity: 1;">80</text><text text-anchor="middle" transform="translate(311.53846153846155,15)" style="font-family: sans-serif; font-size: 10px; fill: #000; opacity: 1;">90</text><text text-anchor="middle" transform="translate(346.1538461538462,15)" style="font-family: sans-serif; font-size: 10px; fill: #000; opacity: 1;">100</text><text text-anchor="middle" transform="translate(380.7692307692308,15)" style="font-family: sans-serif; font-size: 10px; fill: #000; opacity: 1;">110</text><text text-anchor="middle" transform="translate(415.3846153846154,15)" style="font-family: sans-serif; font-size: 10px; fill: #000; opacity: 1;">120</text><text text-anchor="middle" transform="translate(450,15)" style="font-family: sans-serif; font-size: 10px; fill: #000; opacity: 1;">130</text><text text-anchor="middle" transform="translate(484.6153846153846,15)" style="font-family: sans-serif; font-size: 10px; fill: #000; opacity: 1;">140</text><text text-anchor="middle" transform="translate(519.2307692307692,15)" style="font-family: sans-serif; font-size: 10px; fill: #000; opacity: 1;">150</text><text text-anchor="middle" transform="translate(553.8461538461539,15)" style="font-family: sans-serif; font-size: 10px; fill: #000; opacity: 1;">160</text><text text-anchor="middle" transform="translate(588.4615384615385,15)" style="font-family: sans-serif; font-size: 10px; fill: #000; opacity: 1;">170</text><text text-anchor="middle" transform="translate(623.0769230769231,15)" style="font-family: sans-serif; font-size: 10px; fill: #000; opacity: 1;">180</text><text text-anchor="middle" transform="translate(657.6923076923076,15)" style="font-family: sans-serif; font-size: 10px; fill: #000; opacity: 1;">190</text><text text-anchor="middle" transform="translate(692.3076923076924,15)" style="font-family: sans-serif; font-size: 10px; fill: #000; opacity: 1;">200</text><text text-anchor="middle" transform="translate(726.9230769230769,15)" style="font-family: sans-serif; font-size: 10px; fill: #000; opacity: 1;">210</text><text text-anchor="middle" transform="translate(761.5384615384615,15)" style="font-family: sans-serif; font-size: 10px; fill: #000; opacity: 1;">220</text><text text-anchor="middle" transform="translate(796.1538461538461,15)" style="font-family: sans-serif; font-size: 10px; fill: #000; opacity: 1;">230</text><text text-anchor="middle" transform="translate(830.7692307692308,15)" style="font-family: sans-serif; font-size: 10px; fill: #000; opacity: 1;">240</text><text text-anchor="middle" transform="translate(865.3846153846154,15)" style="font-family: sans-serif; font-size: 10px; fill: #000; opacity: 1;">250</text><text text-anchor="end" transform="translate(900,15)" style="font-family: sans-serif; font-size: 10px; fill: #000; opacity: 1;">260</text></g><g class="mark-rule role-axis-domain" style="pointer-events: none;"><line transform="translate(0,0)" x2="900" y2="0" style="fill: none; stroke: #888; stroke-width: 1; opacity: 1;"></line></g><g class="mark-text role-axis-title" style="pointer-events: none;"><text text-anchor="middle" transform="translate(450,30)" style="font-family: sans-serif; font-size: 11px; font-weight: bold; fill: #000; opacity: 1;">Size</text></g></g><path class="foreground" d="" style="pointer-events: none; display: none; fill: none;"></path></g></g><g class="mark-group role-axis"><g transform="translate(0.5,0.5)"><path class="background" d="M0,0h0v0h0Z" style="pointer-events: none; fill: none;"></path><g><g class="mark-rule role-axis-tick" style="pointer-events: none;"><line transform="translate(0,600)" x2="-5" y2="0" style="fill: none; stroke: #888; stroke-width: 1; opacity: 1;"></line><line transform="translate(0,550)" x2="-5" y2="0" style="fill: none; stroke: #888; stroke-width: 1; opacity: 1;"></line><line transform="translate(0,500)" x2="-5" y2="0" style="fill: none; stroke: #888; stroke-width: 1; opacity: 1;"></line><line transform="translate(0,450)" x2="-5" y2="0" style="fill: none; stroke: #888; stroke-width: 1; opacity: 1;"></line><line transform="translate(0,400)" x2="-5" y2="0" style="fill: none; stroke: #888; stroke-width: 1; opacity: 1;"></line><line transform="translate(0,350)" x2="-5" y2="0" style="fill: none; stroke: #888; stroke-width: 1; opacity: 1;"></line><line transform="translate(0,300)" x2="-5" y2="0" style="fill: none; stroke: #888; stroke-width: 1; opacity: 1;"></line><line transform="translate(0,250)" x2="-5" y2="0" style="fill: none; stroke: #888; stroke-width: 1; opacity: 1;"></line><line transform="translate(0,200)" x2="-5" y2="0" style="fill: none; stroke: #888; stroke-width: 1; opacity: 1;"></line><line transform="translate(0,150)" x2="-5" y2="0" style="fill: none; stroke: #888; stroke-width: 1; opacity: 1;"></line><line transform="translate(0,100)" x2="-5" y2="0" style="fill: none; stroke: #888; stroke-width: 1; opacity: 1;"></line><line transform="translate(0,50)" x2="-5" y2="0" style="fill: none; stroke: #888; stroke-width: 1; opacity: 1;"></line><line transform="translate(0,0)" x2="-5" y2="0" style="fill: none; stroke: #888; stroke-width: 1; opacity: 1;"></line></g><g class="mark-text role-axis-label" style="pointer-events: none;"><text text-anchor="end" transform="translate(-7,603)" style="font-family: sans-serif; font-size: 10px; fill: #000; opacity: 1;">0</text><text text-anchor="end" transform="translate(-7,553)" style="font-family: sans-serif; font-size: 10px; fill: #000; opacity: 1;">5</text><text text-anchor="end" transform="translate(-7,503)" style="font-family: sans-serif; font-size: 10px; fill: #000; opacity: 1;">10</text><text text-anchor="end" transform="translate(-7,453)" style="font-family: sans-serif; font-size: 10px; fill: #000; opacity: 1;">15</text><text text-anchor="end" transform="translate(-7,403.00000000000006)" style="font-family: sans-serif; font-size: 10px; fill: #000; opacity: 1;">20</text><text text-anchor="end" transform="translate(-7,352.99999999999994)" style="font-family: sans-serif; font-size: 10px; fill: #000; opacity: 1;">25</text><text text-anchor="end" transform="translate(-7,303)" style="font-family: sans-serif; font-size: 10px; fill: #000; opacity: 1;">30</text><text text-anchor="end" transform="translate(-7,252.99999999999997)" style="font-family: sans-serif; font-size: 10px; fill: #000; opacity: 1;">35</text><text text-anchor="end" transform="translate(-7,203.00000000000003)" style="font-family: sans-serif; font-size: 10px; fill: #000; opacity: 1;">40</text><text text-anchor="end" transform="translate(-7,153)" style="font-family: sans-serif; font-size: 10px; fill: #000; opacity: 1;">45</text><text text-anchor="end" transform="translate(-7,102.99999999999997)" style="font-family: sans-serif; font-size: 10px; fill: #000; opacity: 1;">50</text><text text-anchor="end" transform="translate(-7,53.00000000000002)" style="font-family: sans-serif; font-size: 10px; fill: #000; opacity: 1;">55</text><text text-anchor="end" transform="translate(-7,3)" style="font-family: sans-serif; font-size: 10px; fill: #000; opacity: 1;">60</text></g><g class="mark-rule role-axis-domain" style="pointer-events: none;"><line transform="translate(0,600)" x2="0" y2="-600" style="fill: none; stroke: #888; stroke-width: 1; opacity: 1;"></line></g><g class="mark-text role-axis-title" style="pointer-events: none;"><text text-anchor="middle" transform="translate(-23,300) rotate(-90) translate(0,-2)" style="font-family: sans-serif; font-size: 11px; font-weight: bold; fill: #000; opacity: 1;">GFLOPS</text></g></g><path class="foreground" d="" style="pointer-events: none; display: none; fill: none;"></path></g></g><g class="mark-group role-scope pathgroup"><g transform="translate(0,0)"><path class="background" d="M0,0h900v600h-900Z" style="fill: none;"></path><g><g class="mark-line role-mark marks"><path d="M6.923076923076923,587.6479917382806L10.384615384615385,586.5164055996249L13.846153846153847,586.3409244984558L17.30769230769231,586.0087351135827L20.76923076923077,585.7973177842566L24.230769230769234,585.6634640844271L27.692307692307693,585.571264807031L31.153846153846157,585.5317496573778L34.61538461538462,585.4936428022869L38.07692307692308,585.4423213021939L41.53846153846154,585.9898128541178L45,585.9342871130937L48.46153846153847,585.8833498093489L51.92307692307693,585.8362476856614L55.38461538461539,585.8096596698593L58.84615384615385,585.7702472756237L62.307692307692314,586.5864180350682L65.76923076923077,586.7024701293877L69.23076923076924,585.6936763645107L72.6923076923077,585.6722408026756L76.15384615384616,585.6442467067958L79.61538461538461,585.6245404264843L83.07692307692308,585.6211453744494L86.53846153846155,585.6098056477281L90,585.6012529365701L93.46153846153847,585.5766768824922L96.92307692307693,585.5788790305129L100.38461538461539,585.552748585287L103.84615384615385,585.5551359516617L107.3076923076923,585.5475937721161L110.76923076923077,585.5391261006812L114.23076923076923,585.532197561738L117.6923076923077,585.5223220863415L121.15384615384615,585.5221078976641L124.61538461538463,585.5043094940456L128.07692307692307,585.4996884735202L131.53846153846155,585.5370293996347L135,585.5012896714142L138.46153846153848,585.4948805460751L141.9230769230769,585.4894891845232L145.3846153846154,585.4856976913024L148.84615384615384,585.4786103668114L152.30769230769232,586.3350633174174L155.76923076923077,585.4746835443038L159.23076923076923,585.4869684499314L162.69230769230768,585.4564114480462L166.15384615384616,585.4820415879017L169.6153846153846,585.4536707056308L173.0769230769231,585.4462023149099L176.53846153846155,585.4444005530318L180,585.4632850547088L183.46153846153845,586.306990881459L186.92307692307693,585.4332814198818L190.3846153846154,585.4513820126177L193.84615384615387,585.4378585086042L197.3076923076923,585.4258799936672L200.76923076923077,585.4439014457341L204.23076923076923,585.4172005914244L207.6923076923077,585.4233654876741L211.15384615384616,585.4142359750052L214.6153846153846,585.4140440158922L218.07692307692307,585.4247942453502L221.53846153846155,585.4152441195569L225,585.4206840556176L228.46153846153845,585.4024325336593L231.9230769230769,585.416690553995L235.3846153846154,585.413790544051L238.84615384615384,585.3975499305393L242.3076923076923,585.41028111043L245.76923076923075,585.4068183366256L249.23076923076925,585.3935526642911L252.6923076923077,585.415982484948L256.15384615384613,585.3902289740894L259.6153846153846,585.3876010452163L263.0769230769231,585.398090592749L266.53846153846155,585.3931656135876L270,585.3853327681221L273.46153846153845,585.3822625756052L276.92307692307696,585.3788988483195L280.3846153846154,586.2644237281875L283.8461538461538,585.3990394441039L287.30769230769226,585.3953784184863L290.7692307692308,585.3645680819913L294.2307692307692,585.373797275412L297.6923076923077,585.3908719092768L301.15384615384613,585.3725829004059L304.61538461538464,586.2428156415241L308.0769230769231,585.378785411034L311.53846153846155,585.3844929151409L315,585.3637819179905L318.46153846153845,585.3577425230744L321.9230769230769,585.3817780517388L325.38461538461536,585.360310313237L328.8461538461538,585.3701213872281L332.3076923076923,585.3632286995515L335.7692307692308,585.3750571454696L339.2307692307692,585.3752306562282L342.6923076923077,585.3679163263693L346.1538461538462,585.3641317916886L349.61538461538464,585.3592293664731L353.0769230769231,585.3712035995501L356.53846153846155,585.3571544557028L360,585.356079068508L363.46153846153845,585.356506656666L366.9230769230769,585.3610459680262L370.38461538461536,585.3534958272818L373.84615384615387,585.3537688813384L377.3076923076923,585.3592113370302L380.7692307692308,585.36245187826L384.2307692307692,585.3552176192973L387.69230769230774,585.3612861595068L391.1538461538462,585.3554659038778L394.6153846153846,586.2393960910348L398.07692307692304,585.3545651154307L401.53846153846155,585.3568730876083L405,585.356870937498L408.46153846153845,585.3616484440706L411.9230769230769,585.3524426082882L415.3846153846154,585.364366297388L418.84615384615387,585.3506412482417L422.3076923076923,585.34852748729L425.7692307692308,585.3493021931073L429.2307692307692,585.3321960854731L432.6923076923077,585.356623078789L436.15384615384613,585.3557534224277L439.6153846153846,585.3556760221113L443.0769230769231,586.2208304268887L446.53846153846155,585.3527493010251L450,585.3432575413608L453.46153846153845,585.3485370483834L456.9230769230769,585.343855916479L460.38461538461536,585.3516523128483L463.8461538461538,585.3348578895785L467.3076923076923,585.3315058375706L470.7692307692308,585.3315917148722L474.2307692307692,585.3428483492658L477.6923076923077,585.3364374230017L481.15384615384613,585.3443306145032L484.6153846153846,585.3414105152943L488.07692307692304,585.3431370423214L491.5384615384615,585.3281800399766L495.00000000000006,585.3376326489295L498.4615384615385,586.2229500252082L501.92307692307696,585.3424837298186L505.3846153846154,585.3443771283437L508.8461538461538,585.3480190970768L512.3076923076923,585.3469959547307L515.7692307692307,585.346329758734L519.2307692307692,585.3381988791867L522.6923076923077,585.3490042219929L526.1538461538462,585.3386240028668L529.6153846153846,585.3378945972235L533.0769230769231,585.3295975547632L536.5384615384615,585.3408825799041L540,585.3334704107714L543.4615384615385,585.3324442484258L546.9230769230769,585.3411120206971L550.3846153846155,585.3254823763201L553.8461538461539,585.3365319819941L557.3076923076924,586.2058030809106L560.7692307692308,585.336619996056L564.2307692307692,585.3339589313315L567.6923076923076,585.3234426508399L571.1538461538461,585.3353083759763L574.6153846153845,585.3282762638237L578.0769230769231,585.3397794069901L581.5384615384615,585.3431085043989L585,585.3249571569762L588.4615384615385,585.332314287932L591.9230769230769,585.3344681905617L595.3846153846154,585.3216278689673L598.8461538461538,585.3208370238511L602.3076923076923,585.3303083333808L605.7692307692308,585.328307735663L609.2307692307693,586.207539608745L612.6923076923077,585.327046416292L616.1538461538462,585.3124420545151L619.6153846153846,585.3310298767121L623.0769230769231,585.3338232709727L626.5384615384615,585.3260385570992L630,585.336798358453L633.4615384615385,585.3380188105858L636.9230769230769,585.3237285326329L640.3846153846154,585.327346502344L643.8461538461538,585.328097870557L647.3076923076923,585.3269438671491L650.7692307692307,585.3258437942657L654.2307692307692,585.3250089414312L657.6923076923076,585.3336201128L661.1538461538462,585.3255612553949L664.6153846153846,585.328070347947L668.0769230769231,585.3152125264078L671.5384615384615,585.3340576770115L675,585.3598961824869L678.4615384615385,585.3248512984838L681.9230769230769,586.2012444444445L685.3846153846154,585.3177596447014L688.8461538461538,585.3234983780391L692.3076923076924,585.3186606300453L695.7692307692308,585.3319451563301L699.2307692307693,585.3245379459752L702.6923076923077,585.3135698218265L706.1538461538462,585.3204826276857L709.6153846153846,585.3112612464431L713.0769230769231,585.3310125784374L716.5384615384615,585.3334554818861L720,585.3143831540947L723.4615384615385,585.3171947973884L726.9230769230769,585.3221893960307L730.3846153846154,585.3178595330702L733.8461538461538,585.3282126123358L737.3076923076923,585.3309635343858L740.7692307692307,585.3368616335025L744.2307692307692,585.3300265649123L747.6923076923077,585.3224645391712L751.1538461538462,585.3324917135878L754.6153846153846,585.3312465502717L758.0769230769231,585.325319289859L761.5384615384615,586.2130905264428L765,585.353575800767L768.4615384615385,585.324897796181L771.9230769230769,585.3312893441883L775.3846153846155,585.3275193298415L778.8461538461539,585.3135164283837L782.3076923076924,585.3318399816203L785.7692307692308,585.3302151418175L789.2307692307692,585.3264702952214L792.6923076923076,585.3456081058868L796.1538461538461,585.315153494448L799.6153846153845,585.3194598636064L803.0769230769231,585.3238037801701L806.5384615384615,585.3258975418959L810,585.3547053326159L813.4615384615385,586.1995137324999L816.9230769230769,585.3250527353407L820.3846153846154,585.3434914144415L823.8461538461538,585.3212502762893L827.3076923076923,585.323395341245L830.7692307692308,585.3268638868826L834.2307692307693,586.2301270751517L837.6923076923077,585.3147498860537L841.1538461538462,585.3224910297313L844.6153846153846,585.3259043070664L848.0769230769231,585.3115603133956L851.5384615384615,585.3104550198974L855,585.3085111657259L858.4615384615385,585.3256497416191L861.9230769230769,585.3245124029539L865.3846153846154,585.3575715480733L868.8461538461538,585.3578986799076L872.3076923076923,585.3644093531734L875.7692307692307,585.3246399445436L879.2307692307692,585.3565949742786L882.6923076923076,585.3534490297244L886.1538461538462,585.3552185520475" style="fill: none; stroke: #ff7f0e; stroke-width: 2;"></path></g></g><path class="foreground" d="" style="display: none; fill: none;"></path></g><g transform="translate(0,0)"><path class="background" d="M0,0h900v600h-900Z" style="fill: none;"></path><g><g class="mark-line role-mark marks"><path d="M6.923076923076923,580.9370937658962L10.384615384615385,578.549753609406L13.846153846153847,578.4948826008429L17.30769230769231,578.3021291760942L20.76923076923077,579.6320606452806L24.230769230769234,576.4425590950323L27.692307692307693,578.7840994495339L31.153846153846157,578.1334653539335L34.61538461538462,577.7716064382499L38.07692307692308,577.4678785007993L41.53846153846154,577.7008562579705L45,577.0582128882855L48.46153846153847,576.9124168514412L51.92307692307693,576.6882008776207L55.38461538461539,576.6285376725202L58.84615384615385,576.6196065989848L62.307692307692314,576.3830395426394L65.76923076923077,576.5205747321884L69.23076923076924,576.2579043333204L72.6923076923077,576.1678455058412L76.15384615384616,576.1013687688342L79.61538461538461,576.1078639744952L83.07692307692308,576.0201511335013L86.53846153846155,575.9537665696735L90,575.9567218602426L93.46153846153847,575.9195569804722L96.92307692307693,575.859445752581L100.38461538461539,575.7424426660634L103.84615384615385,576.3954457095251L107.3076923076923,575.7589696412144L110.76923076923077,575.7447401421207L114.23076923076923,575.7126926861266L117.6923076923077,576.2895636436758L121.15384615384615,575.6394759416673L124.61538461538463,575.6202279517539L128.07692307692307,575.5971479500892L131.53846153846155,575.6299017174625L135,575.5535596104755L138.46153846153848,576.1842220471062L141.9230769230769,575.5354849756014L145.3846153846154,575.4959960777906L148.84615384615384,575.4640543283116L152.30769230769232,575.4662691017518L155.76923076923077,575.4405364914032L159.23076923076923,575.4708489601092L162.69230769230768,575.4121652589537L166.15384615384616,575.4432601880878L169.6153846153846,575.4040373606508L173.0769230769231,575.4633104324231L176.53846153846155,575.3624561208002L180,576.035866958607L183.46153846153845,575.3545623451693L186.92307692307693,575.3299492385787L190.3846153846154,575.3782437996745L193.84615384615387,575.3550295857988L197.3076923076923,575.3170666309156L200.76923076923077,576.0107387054826L204.23076923076923,575.9765355417529L207.6923076923077,575.3086419753087L211.15384615384616,575.2728480963177L214.6153846153846,575.2731950961102L218.07692307692307,575.2828046010698L221.53846153846155,575.2709709496413L225,575.2634660421545L228.46153846153845,575.2301311212202L231.9230769230769,575.2495702656245L235.3846153846154,575.2407949856688L238.84615384615384,575.2099604888358L242.3076923076923,575.2193961029302L245.76923076923075,575.2098701148427L249.23076923076925,575.1668169522092L252.6923076923077,575.231572615923L256.15384615384613,575.2065411351107L259.6153846153846,575.1539480863669L263.0769230769231,575.1758311212236L266.53846153846155,575.1765835878239L270,575.1566102997695L273.46153846153845,575.1511815818442L276.92307692307696,575.140520038386L280.3846153846154,575.1593505712567L283.8461538461538,575.165011840876L287.30769230769226,575.1489623562364L290.7692307692308,575.1307196317873L294.2307692307692,575.1114488348531L297.6923076923077,575.1532517834911L301.15384615384613,575.115456022279L304.61538461538464,575.1090943467574L308.0769230769231,575.1261637357766L311.53846153846155,575.1304881793061L315,575.1132285608217L318.46153846153845,575.0912301353737L321.9230769230769,575.1246870136023L325.38461538461536,575.0991313573371L328.8461538461538,575.0990034732366L332.3076923076923,575.0776278951388L335.7692307692308,575.1131130196663L339.2307692307692,575.0990589778395L342.6923076923077,575.0841906926665L346.1538461538462,575.0787949864399L349.61538461538464,575.0690780488505L353.0769230769231,575.0830480537593L356.53846153846155,575.0593945763555L360,575.0465488695274L363.46153846153845,575.0718218817333L366.9230769230769,575.0607773759319L370.38461538461536,575.0566448801743L373.84615384615387,575.0427307397011L377.3076923076923,575.0627206953601L380.7692307692308,575.0572942560235L384.2307692307692,575.0370052558189L387.69230769230774,575.0540452014412L391.1538461538462,575.0390386937273L394.6153846153846,575.0635454524933L398.07692307692304,575.0369186014235L401.53846153846155,575.0377022883271L405,575.0562195187309L408.46153846153845,575.0573755808684L411.9230769230769,575.0161379038367L415.3846153846154,575.0214276968287L418.84615384615387,575.0261380853476L422.3076923076923,575.0226548078537L425.7692307692308,575.0218031019647L429.2307692307692,575.0158187014327L432.6923076923077,575.0303161338234L436.15384615384613,575.0312696591792L439.6153846153846,575.0261403380939L443.0769230769231,575.0196862752132L446.53846153846155,575.024322630199L450,575.016087795885L453.46153846153845,575.0122481841853L456.9230769230769,575.0235676040305L460.38461538461536,575.0091000506943L463.8461538461538,574.9967645492894L467.3076923076923,574.9983860815674L470.7692307692308,574.9992446469321L474.2307692307692,574.9948668918443L477.6923076923077,575.0044007967758L481.15384615384613,574.9994671943979L484.6153846153846,574.9900545685184L488.07692307692304,574.9907873998268L491.5384615384615,574.9850036122687L495.00000000000006,575.0084112149533L498.4615384615385,575.0041126584792L501.92307692307696,574.9902038988482L505.3846153846154,574.9953768233946L508.8461538461538,574.987880438483L512.3076923076923,574.991739311475L515.7692307692307,574.9877727926412L519.2307692307692,574.9841402719371L522.6923076923077,575.0014833350532L526.1538461538462,574.9762356808828L529.6153846153846,574.9778043259557L533.0769230769231,574.9804831733305L536.5384615384615,574.9770248744027L540,574.9573554959655L543.4615384615385,574.9653186442905L546.9230769230769,574.9774177191307L550.3846153846155,574.9723679689729L553.8461538461539,574.9702368970455L557.3076923076924,574.952993201919L560.7692307692308,574.9643388232654L564.2307692307692,574.9635267119719L567.6923076923076,574.9618320610687L571.1538461538461,574.9614541913495L574.6153846153845,574.9731808953948L578.0769230769231,574.9709383661079L581.5384615384615,574.9620105201636L585,574.9743835559954L588.4615384615385,574.9724916456108L591.9230769230769,574.9597267767821L595.3846153846154,574.9532859220303L598.8461538461538,574.9553048426317L602.3076923076923,574.955257433981L605.7692307692308,574.9632112491825L609.2307692307693,574.9575803690318L612.6923076923077,574.9442282993748L616.1538461538462,574.9373932707654L619.6153846153846,574.9473601905979L623.0769230769231,574.9517953941863L626.5384615384615,574.9400653341853L630,574.9556136699223L633.4615384615385,574.9557677841661L636.9230769230769,574.9516050414317L640.3846153846154,574.9404549115545L643.8461538461538,574.9687392268438L647.3076923076923,574.9356814895079L650.7692307692307,574.9350064242687L654.2307692307692,574.9496937070726L657.6923076923076,574.9433500051036L661.1538461538462,574.9280600261159L664.6153846153846,574.9384947612573L668.0769230769231,574.9355609914425L671.5384615384615,574.9448036309382L675,574.9424365057215L678.4615384615385,574.9338102932767L681.9230769230769,574.9335871307969L685.3846153846154,574.9342580334577L688.8461538461538,574.9434455242128L692.3076923076924,574.9378052151479L695.7692307692308,574.9400882986099L699.2307692307693,574.9458043031491L702.6923076923077,574.9260724064496L706.1538461538462,574.9391786101409L709.6153846153846,574.9262096873257L713.0769230769231,574.9310389163605L716.5384615384615,574.9362423958821L720,574.9199334369971L723.4615384615385,574.9308094567724L726.9230769230769,574.9889907522319L730.3846153846154,574.9375970647937L733.8461538461538,574.9281197599289L737.3076923076923,574.929202504242L740.7692307692307,574.9455486329232L744.2307692307692,574.9298933485617L747.6923076923077,574.9210464741259L751.1538461538462,574.9204076581586L754.6153846153846,574.9516959136851L758.0769230769231,574.9229699845908L761.5384615384615,574.9218976211158L765,574.9289050870078L768.4615384615385,574.9199849129802L771.9230769230769,574.9247201475936L775.3846153846155,574.9193029088589L778.8461538461539,574.9164245139215L782.3076923076924,574.910801486353L785.7692307692308,574.9216151066985L789.2307692307692,574.9216628309217L792.6923076923076,574.9172251576998L796.1538461538461,574.9350591435611L799.6153846153845,574.9539050269613L803.0769230769231,574.9092215345551L806.5384615384615,574.9173662654335L810,574.9262077603738L813.4615384615385,574.9086628020408L816.9230769230769,574.9547147452175L820.3846153846154,574.9185598449209L823.8461538461538,574.9151288436891L827.3076923076923,574.9516473935507L830.7692307692308,574.9293351357994L834.2307692307693,574.9676884502371L837.6923076923077,574.9166565888661L841.1538461538462,574.9151496220403L844.6153846153846,574.9207812352874L848.0769230769231,574.905998165458L851.5384615384615,574.9111208118014L855,574.9487818015376L858.4615384615385,574.9456532157577L861.9230769230769,574.9115252784919L865.3846153846154,574.9795126362292L868.8461538461538,574.9062925397194L872.3076923076923,574.9609071489703L875.7692307692307,574.9463425191502L879.2307692307692,574.9467879765268L882.6923076923076,574.9254858729381L886.1538461538462,574.9109473205378" style="fill: none; stroke: #1f77b4; stroke-width: 2;"></path></g></g><path class="foreground" d="" style="display: none; fill: none;"></path></g><g transform="translate(0,0)"><path class="background" d="M0,0h900v600h-900Z" style="fill: none;"></path><g><g class="mark-line role-mark marks"><path d="M6.923076923076923,580.5339022140221L10.384615384615385,577.6200467597865L13.846153846153847,577.2079646017698L17.30769230769231,576.2537614840003L20.76923076923077,575.6799129014697L24.230769230769234,575.3092075125974L27.692307692307693,575.0704176454931L31.153846153846157,576.5145490181297L34.61538461538462,575.9763617677287L38.07692307692308,575.5907780979827L41.53846153846154,575.4142814100633L45,575.3496353496354L48.46153846153847,575.254363163758L51.92307692307693,575.104139546993L55.38461538461539,575.0286894652284L58.84615384615385,575.0089017752683L62.307692307692314,574.9142249886139L65.76923076923077,575.1594333258377L69.23076923076924,574.8148148148148L72.6923076923077,574.7509635894173L76.15384615384616,574.7277892958612L79.61538461538461,574.668497588113L83.07692307692308,574.6624834233594L86.53846153846155,574.6428693191503L90,574.6201413427561L93.46153846153847,574.6045081967213L96.92307692307693,574.5656944753666L100.38461538461539,574.5378450578806L103.84615384615385,574.5390401384543L107.3076923076923,574.5124652875285L110.76923076923077,574.5057262528924L114.23076923076923,574.4903372489579L117.6923076923077,574.486205777345L121.15384615384615,574.4624754741661L124.61538461538463,574.4596004482398L128.07692307692307,574.4224640070338L131.53846153846155,574.4291666666667L135,574.411677387432L138.46153846153848,574.3951802692271L141.9230769230769,574.3841878809609L145.3846153846154,574.3801794105084L148.84615384615384,574.3926680244399L152.30769230769232,574.3735887253757L155.76923076923077,574.3823485637744L159.23076923076923,574.3862147536315L162.69230769230768,574.3578012973711L166.15384615384616,574.3715239154617L169.6153846153846,574.3482905982905L173.0769230769231,574.3357487922705L176.53846153846155,574.3208084093153L180,574.3338916806254L183.46153846153845,574.3208216820822L186.92307692307693,574.3097014925373L190.3846153846154,574.3234471739564L193.84615384615387,574.3408576791644L197.3076923076923,574.2994741985017L200.76923076923077,574.3425007851407L204.23076923076923,574.2876384966327L207.6923076923077,574.295434499559L211.15384615384616,574.2700833841774L214.6153846153846,574.2866136775007L218.07692307692307,574.2901234567902L221.53846153846155,574.2884572778968L225,574.2783985102421L228.46153846153845,574.2624774085917L231.9230769230769,574.2707349966284L235.3846153846154,574.3010330848699L238.84615384615384,574.2443914081146L242.3076923076923,574.2662959530429L245.76923076923075,574.2628465026879L249.23076923076925,574.242875931609L252.6923076923077,574.2801578514039L256.15384615384613,574.2391454741678L259.6153846153846,574.2236778262978L263.0769230769231,574.2467477968947L266.53846153846155,574.2296481898138L270,574.2389598744676L273.46153846153845,574.2314137905909L276.92307692307696,574.2283914063055L280.3846153846154,574.2474198240632L283.8461538461538,574.2787065997614L287.30769230769226,574.2563527653214L290.7692307692308,574.2121896162528L294.2307692307692,574.2050991263441L297.6923076923077,574.2415799393592L301.15384615384613,574.2071080642252L304.61538461538464,574.2079072136671L308.0769230769231,574.209074716056L311.53846153846155,574.2231374017222L315,574.2067461844299L318.46153846153845,574.205299200459L321.9230769230769,574.2146890673775L325.38461538461536,574.201016762847L328.8461538461538,574.2008441372816L332.3076923076923,574.193803429362L335.7692307692308,574.2206714264993L339.2307692307692,574.2141920811157L342.6923076923077,574.1927139803599L346.1538461538462,574.1955069823922L349.61538461538464,574.1896739049547L353.0769230769231,574.2148615747963L356.53846153846155,574.1858700941804L360,574.1850702682972L363.46153846153845,574.1952582883578L366.9230769230769,574.1837300139209L370.38461538461536,574.1961870923265L373.84615384615387,574.1782240106262L377.3076923076923,574.185273705602L380.7692307692308,574.1949242908936L384.2307692307692,574.1771356009517L387.69230769230774,574.1833633975376L391.1538461538462,574.1791861447144L394.6153846153846,574.2085663253989L398.07692307692304,574.1814903708128L401.53846153846155,574.1858601816848L405,574.2091963959172L408.46153846153845,574.1897918461253L411.9230769230769,574.1706812012488L415.3846153846154,574.1891948884485L418.84615384615387,574.1703593777565L422.3076923076923,574.1673728164657L425.7692307692308,574.1675538860208L429.2307692307692,574.1641133097436L432.6923076923077,574.1758134922563L436.15384615384613,574.1779563719863L439.6153846153846,574.1722085115201L443.0769230769231,574.1694720344249L446.53846153846155,574.183047692055L450,574.1796906595728L453.46153846153845,574.1658770710283L456.9230769230769,574.1772151898734L460.38461538461536,574.1759770539387L463.8461538461538,574.169931543363L467.3076923076923,574.1534649748479L470.7692307692308,574.1578315827539L474.2307692307692,574.1689401973721L477.6923076923077,574.1636141636142L481.15384615384613,574.159218931932L484.6153846153846,574.1529105125977L488.07692307692304,574.1625576221819L491.5384615384615,574.1547601993501L495.00000000000006,574.1684686090491L498.4615384615385,574.1751342481007L501.92307692307696,574.1546994085065L505.3846153846154,574.1626084662498L508.8461538461538,574.1617313995527L512.3076923076923,574.1724986994972L515.7692307692307,574.1695126374792L519.2307692307692,574.1540083247743L522.6923076923077,574.1759105656934L526.1538461538462,574.1514972030274L529.6153846153846,574.1503355007178L533.0769230769231,574.1574632557961L536.5384615384615,574.1553872341502L540,574.1400907602106L543.4615384615385,574.1449373727402L546.9230769230769,574.1620700152207L550.3846153846155,574.1559027276663L553.8461538461539,574.1566161319248L557.3076923076924,574.1447028727L560.7692307692308,574.1535787735713L564.2307692307692,574.1463847421925L567.6923076923076,574.1533730540073L571.1538461538461,574.1426991150443L574.6153846153845,574.1599324834932L578.0769230769231,574.1541874955708L581.5384615384615,574.1596923772902L585,574.1518403764866L588.4615384615385,574.1714682255962L591.9230769230769,574.1429299654613L595.3846153846154,574.1455766156188L598.8461538461538,574.1360519319435L602.3076923076923,574.140498608278L605.7692307692308,574.1522688908748L609.2307692307693,574.1467462012421L612.6923076923077,574.1244916897035L616.1538461538462,574.1306655267973L619.6153846153846,574.1358221074174L623.0769230769231,574.1397523839036L626.5384615384615,574.1277222387394L630,574.161653704086L633.4615384615385,574.153621951441L636.9230769230769,574.1450442032632L640.3846153846154,574.1277725405098L643.8461538461538,574.2634342727114L647.3076923076923,574.3635665801298L650.7692307692307,574.1348256564787L654.2307692307692,574.1487160712461L657.6923076923076,574.1450857968597L661.1538461538462,574.1879000774143L664.6153846153846,574.1387464046516L668.0769230769231,574.1348577123695L671.5384615384615,574.1462941561538L675,574.2302049863263L678.4615384615385,574.1311520865105L681.9230769230769,574.1314925835454L685.3846153846154,574.1410457374327L688.8461538461538,574.1525697041366L692.3076923076924,574.1409470497863L695.7692307692308,574.1487127371273L699.2307692307693,574.2376028760733L702.6923076923077,574.1291928401819L706.1538461538462,574.1628807245636L709.6153846153846,574.1279722457612L713.0769230769231,574.1797722245685L716.5384615384615,574.1489667507745L720,574.2025457644835L723.4615384615385,574.1474954392903L726.9230769230769,574.2409197266384L730.3846153846154,574.1885241708585L733.8461538461538,574.1461664963489L737.3076923076923,574.3798871918204L740.7692307692307,574.1661329767289L744.2307692307692,574.1479422311412L747.6923076923077,574.4494805508577L751.1538461538462,574.2277961823631L754.6153846153846,574.2790468155554L758.0769230769231,574.1940313151806L761.5384615384615,574.3276131045242L765,574.2378208648653L768.4615384615385,574.1349641735844L771.9230769230769,574.3577867559632L775.3846153846155,574.2394216046605L778.8461538461539,574.3889809753092L782.3076923076924,574.3626174405489L785.7692307692308,574.3981470657002L789.2307692307692,574.2848163882908L792.6923076923076,574.3349963582345L796.1538461538461,574.3016759776536L799.6153846153845,574.2123591417168L803.0769230769231,574.3304082411294L806.5384615384615,574.321586368847L810,574.4257376778944L813.4615384615385,574.3198553547202L816.9230769230769,574.4428249063367L820.3846153846154,574.3406138648982L823.8461538461538,574.2503175430855L827.3076923076923,574.7194966064674L830.7692307692308,574.4032121459268L834.2307692307693,574.4911282655423L837.6923076923077,574.2587804575353L841.1538461538462,574.621522203542L844.6153846153846,574.3123345524318L848.0769230769231,574.3942496374029L851.5384615384615,574.3901182199054L855,574.3257988895133L858.4615384615385,574.1628364419931L861.9230769230769,574.5416360720359L865.3846153846154,574.2984380707259L868.8461538461538,574.3981631989597L872.3076923076923,574.5575723867477L875.7692307692307,574.3080802476278L879.2307692307692,574.2701840404443L882.6923076923076,574.2623347776586L886.1538461538462,574.1719271971939" style="fill: none; stroke: #aec7e8; stroke-width: 2;"></path></g></g><path class="foreground" d="" style="display: none; fill: none;"></path></g><g transform="translate(0,0)"><path class="background" d="M0,0h900v600h-900Z" style="fill: none;"></path><g><g class="mark-line role-mark marks"><path d="M6.923076923076923,590.8851937218747L10.384615384615385,587.2708176631382L13.846153846153847,585.7574616239654L17.30769230769231,584.3454293734361L20.76923076923077,582.832512315271L24.230769230769234,583.0237417886515L27.692307692307693,581.8347185196801L31.153846153846157,581.2281736440104L34.61538461538462,580.0021068895288L38.07692307692308,579.8194839595801L41.53846153846154,579.0930053804766L45,578.6821993025154L48.46153846153847,580.4483041896491L51.92307692307693,578.6824945661261L55.38461538461539,579.5317725752508L58.84615384615385,579.4740506916721L62.307692307692314,579.0950111753046L65.76923076923077,578.9170929078556L69.23076923076924,578.5387407290516L72.6923076923077,578.4746796827334L76.15384615384616,578.1402763018066L79.61538461538461,578.1100911050838L83.07692307692308,579.1234428775927L86.53846153846155,577.992306554224L90,577.4953490649173L93.46153846153847,577.3733377963059L96.92307692307693,579.0203846052942L100.38461538461539,577.3494930291508L103.84615384615385,578.4373414510401L107.3076923076923,577.2718419588202L110.76923076923077,576.8994459741897L114.23076923076923,577.1124206708976L117.6923076923077,577.4624412248174L121.15384615384615,577.2801658302421L124.61538461538463,576.8206207259337L128.07692307692307,576.789667896679L131.53846153846155,576.9675361231L135,576.9750667853963L138.46153846153848,576.9021739130435L141.9230769230769,576.9707470384399L145.3846153846154,576.9907158750864L148.84615384615384,576.8176119182831L152.30769230769232,577.1301507886874L155.76923076923077,576.8275444264943L159.23076923076923,576.4888888888888L162.69230769230768,576.8091150497129L166.15384615384616,576.4403007518797L169.6153846153846,576.3118797516105L173.0769230769231,576.3731376473204L176.53846153846155,576.5115537848606L180,576.1415892458608L183.46153846153845,577.3413997627521L186.92307692307693,576.1592843745491L190.3846153846154,576.5696190996902L193.84615384615387,576.2604087812264L197.3076923076923,576.0294245291208L200.76923076923077,575.8730962325444L204.23076923076923,575.898260904981L207.6923076923077,576.0150493807806L211.15384615384616,577.2013983997693L214.6153846153846,575.7943475200948L218.07692307692307,576.5588521400778L221.53846153846155,576.4947339994599L225,575.7339774992398L228.46153846153845,575.9501152934299L231.9230769230769,576.8144254724433L235.3846153846154,575.541242726905L238.84615384615384,575.8274348176686L242.3076923076923,576.9136965800121L245.76923076923075,575.5939395665423L249.23076923076925,575.6222511133856L252.6923076923077,575.9253255381344L256.15384615384613,576.7792466949363L259.6153846153846,575.7074992378823L263.0769230769231,576.7157525313604L266.53846153846155,576.5918855523817L270,575.5789573101624L273.46153846153845,575.656333891655L276.92307692307696,576.8673059341313L280.3846153846154,575.4161340092572L283.8461538461538,576.8682208191678L287.30769230769226,577.7326310986044L290.7692307692308,576.3776364245062L294.2307692307692,575.6067286304417L297.6923076923077,575.6639891609407L301.15384615384613,576.4123480779455L304.61538461538464,575.9950402975821L308.0769230769231,575.2600635690533L311.53846153846155,575.38213998391L315,575.2166258824358L318.46153846153845,575.2565689916082L321.9230769230769,576.4260633948469L325.38461538461536,576.066409610911L328.8461538461538,576.3965169766619L332.3076923076923,576.2283217260685L335.7692307692308,576.2540083135392L339.2307692307692,575.9677348131357L342.6923076923077,576.3603473227207L346.1538461538462,575.0429408224085L349.61538461538464,576.4231720912527L353.0769230769231,576.3463235884132L356.53846153846155,575.195912585441L360,575.3572338001743L363.46153846153845,576.2093652022696L366.9230769230769,575.7869384443768L370.38461538461536,575.2790479093634L373.84615384615387,575.3765150009934L377.3076923076923,576.8973760666163L380.7692307692308,575.3525767760643L384.2307692307692,575.3185096153846L387.69230769230774,575.5721273354181L391.1538461538462,575.9928113249281L394.6153846153846,576.0978881772546L398.07692307692304,575.3462436809842L401.53846153846155,577.2064010841189L405,575.4545454545455L408.46153846153845,576.5742335174078L411.9230769230769,576.6951277359897L415.3846153846154,575.1917873465954L418.84615384615387,575.8239762219287L422.3076923076923,576.2397175374676L425.7692307692308,576.3123866012139L429.2307692307692,575.1663072289729L432.6923076923077,575.1103344234031L436.15384615384613,575.8102766798419L439.6153846153846,575.8766705084328L443.0769230769231,575.7925933651431L446.53846153846155,576.3272051747655L450,576.2716903839643L453.46153846153845,575.0994784954038L456.9230769230769,576.2351072279587L460.38461538461536,575.314567633683L463.8461538461538,576.9956214721199L467.3076923076923,576.940338498638L470.7692307692308,575.1342802011831L474.2307692307692,576.3439353499407L477.6923076923077,576.3200163840899L481.15384615384613,576.2287405734799L484.6153846153846,576.4032689829045L488.07692307692304,576.3873712744701L491.5384615384615,576.5027007759589L495.00000000000006,576.4190312099362L498.4615384615385,575.9941162049522L501.92307692307696,576.455922166378L505.3846153846154,576.4919428082103L508.8461538461538,576.4316372291762L512.3076923076923,575.9478610230143L515.7692307692307,576.422194873589L519.2307692307692,576.9194564456566L522.6923076923077,575.9353212518547L526.1538461538462,576.4465446520664L529.6153846153846,576.432683082827L533.0769230769231,576.4163459176152L536.5384615384615,576.9878072142527L540,576.4288156065544L543.4615384615385,576.3882502761061L546.9230769230769,575.162525019606L550.3846153846155,575.3075517661389L553.8461538461539,576.3919628520592L557.3076923076924,576.991233154237L560.7692307692308,576.4248460989722L564.2307692307692,576.3855805928793L567.6923076923076,576.6293880722128L571.1538461538461,576.3393998261847L574.6153846153845,576.350960446273L578.0769230769231,576.3352899483892L581.5384615384615,575.7216588742485L585,576.5008542292819L588.4615384615385,576.3633302061534L591.9230769230769,576.3449349017816L595.3846153846154,576.2883895484248L598.8461538461538,576.3433515906153L602.3076923076923,576.1578691372322L605.7692307692308,576.2670489770614L609.2307692307693,576.3103721298495L612.6923076923077,576.2935877006347L616.1538461538462,576.3412030834779L619.6153846153846,576.2339271611887L623.0769230769231,576.2434656591273L626.5384615384615,576.3081144315644L630,576.3685959846908L633.4615384615385,576.2713086535015L636.9230769230769,576.2366949901323L640.3846153846154,576.2380746234521L643.8461538461538,576.2483189764838L647.3076923076923,576.2510986113552L650.7692307692307,576.6598428316714L654.2307692307692,576.2930068592353L657.6923076923076,575.9634026453182L661.1538461538462,576.2948310724291L664.6153846153846,576.1582329286712L668.0769230769231,576.1531885728058L671.5384615384615,576.1766425260179L675,576.2084842328417L678.4615384615385,576.2425106678647L681.9230769230769,576.1425833514139L685.3846153846154,576.1586589540786L688.8461538461538,576.2726183343319L692.3076923076924,576.0916953800717L695.7692307692308,576.1245815474142L699.2307692307693,576.2154118348957L702.6923076923077,576.253567627299L706.1538461538462,576.2405126207332L709.6153846153846,576.2085937786185L713.0769230769231,576.6672272821362L716.5384615384615,576.0465039805592L720,576.1225351106725L723.4615384615385,576.087788164602L726.9230769230769,576.1915347679175L730.3846153846154,576.5723191595396L733.8461538461538,576.5612911340371L737.3076923076923,576.1463926070712L740.7692307692307,576.0876228971948L744.2307692307692,576.0352719809459L747.6923076923077,576.5682801813912L751.1538461538462,576.0715182457315L754.6153846153846,576.2291208775042L758.0769230769231,576.5052200248394L761.5384615384615,576.0957101270751L765,576.0606803254583L768.4615384615385,576.3545847091694L771.9230769230769,576.3329152692314L775.3846153846155,576.7554310504572L778.8461538461539,576.8000593055855L782.3076923076924,576.1264761276309L785.7692307692308,576.0566717961193L789.2307692307692,576.0026068538532L792.6923076923076,576.1352971252506L796.1538461538461,576.795791092453L799.6153846153845,576.1428530100964L803.0769230769231,576.7958816219917L806.5384615384615,576.0722980277877L810,576.8647928560245L813.4615384615385,576.1002550799607L816.9230769230769,576.1592152044075L820.3846153846154,576.200466084269L823.8461538461538,576.0289559959474L827.3076923076923,576.187560385881L830.7692307692308,576.1463375419912L834.2307692307693,576.1494498592945L837.6923076923077,576.162373639424L841.1538461538462,576.1379049683727L844.6153846153846,576.1189014966507L848.0769230769231,576.1017314344465L851.5384615384615,576.3330940812721L855,576.0795922368163L858.4615384615385,576.3538705438822L861.9230769230769,576.3880320167746L865.3846153846154,576.1477157930183L868.8461538461538,576.0818919794098L872.3076923076923,576.1453594101126L875.7692307692307,576.1118501931858L879.2307692307692,576.439700376141L882.6923076923076,576.0990222744982L886.1538461538462,576.5187609727927" style="fill: none; stroke: #2ca02c; stroke-width: 2;"></path></g></g><path class="foreground" d="" style="display: none; fill: none;"></path></g><g transform="translate(0,0)"><path class="background" d="M0,0h900v600h-900Z" style="fill: none;"></path><g><g class="mark-line role-mark marks"><path d="M6.923076923076923,586.8765398302766L10.384615384615385,584.3756335324692L13.846153846153847,584.0237164802587L17.30769230769231,583.3449242725305L20.76923076923077,582.9175250880575L24.230769230769234,582.6250908153461L27.692307692307693,582.4157098681814L31.153846153846157,582.5817252839922L34.61538461538462,582.1558963125228L38.07692307692308,582.061567977675L41.53846153846154,582.9109947643979L45,582.766480715014L48.46153846153847,582.5458355159769L51.92307692307693,582.4630667345899L55.38461538461539,582.3853211009174L58.84615384615385,582.4018944519621L62.307692307692314,582.3518103172061L65.76923076923077,582.2070815061791L69.23076923076924,582.1656886207913L72.6923076923077,582.1748581909582L76.15384615384616,582.0868970236058L79.61538461538461,582.0612387379899L83.07692307692308,582.0418144027387L86.53846153846155,582.0169252468265L90,582.0336439247076L93.46153846153847,581.9575471698113L96.92307692307693,582.0062103415688L100.38461538461539,581.915122383151L103.84615384615385,581.8899191161964L107.3076923076923,581.9120903454385L110.76923076923077,581.8855359001041L114.23076923076923,581.864224137931L117.6923076923077,581.8574593796159L121.15384615384615,581.8391907212L124.61538461538463,581.8187819772239L128.07692307692307,581.8023301274533L131.53846153846155,581.782560296846L135,581.7818642993025L138.46153846153848,581.7669928944899L141.9230769230769,581.7411028049326L145.3846153846154,581.7435772555705L148.84615384615384,581.7515239477503L152.30769230769232,581.7439538495673L155.76923076923077,581.717032237506L159.23076923076923,581.7122521606507L162.69230769230768,581.6975338726971L166.15384615384616,581.678360931799L169.6153846153846,581.6964125560538L173.0769230769231,581.6723446461684L176.53846153846155,581.6603069265865L180,581.6648717641897L183.46153846153845,581.6546292739147L186.92307692307693,581.6563055062168L190.3846153846154,581.6562031818506L193.84615384615387,581.7424657534247L197.3076923076923,581.6312481293025L200.76923076923077,581.7331587184974L204.23076923076923,581.6100562478636L207.6923076923077,581.6067081417365L211.15384615384616,581.613475177305L214.6153846153846,581.7560512577124L218.07692307692307,581.6209958596644L221.53846153846155,581.5890642764601L225,581.5932446631301L228.46153846153845,581.5763546798029L231.9230769230769,581.58336752178L235.3846153846154,581.5725069154672L238.84615384615384,581.5830432111408L242.3076923076923,581.5650865312265L245.76923076923075,581.5887509130753L249.23076923076925,581.5577784288286L252.6923076923077,581.6274919385913L256.15384615384613,581.5571756874554L259.6153846153846,581.5467001157854L263.0769230769231,581.5470194692926L266.53846153846155,581.5400816834857L270,581.5833333333334L273.46153846153845,581.609755252028L276.92307692307696,581.5311492106604L280.3846153846154,581.5305514157973L283.8461538461538,581.5337393580071L287.30769230769226,581.5226720520021L290.7692307692308,581.5245283018868L294.2307692307692,581.5724723568331L297.6923076923077,581.5520504731861L301.15384615384613,581.5265674127461L304.61538461538464,581.5062161972326L308.0769230769231,581.5082394946444L311.53846153846155,581.5083393763597L315,581.5059117183395L318.46153846153845,581.547379355451L321.9230769230769,581.5062135238479L325.38461538461536,581.4930080699809L328.8461538461538,581.5045869347704L332.3076923076923,581.4946316572765L335.7692307692308,581.4989127417415L339.2307692307692,581.4869998072365L342.6923076923077,581.4907018596281L346.1538461538462,581.4980083150127L349.61538461538464,581.5027785777522L353.0769230769231,581.4898693904889L356.53846153846155,581.4885864433222L360,581.4815038623843L363.46153846153845,581.4872433105165L366.9230769230769,581.4835495065822L370.38461538461536,581.4838034533607L373.84615384615387,581.4767207234138L377.3076923076923,581.5096947836754L380.7692307692308,581.5388205307702L384.2307692307692,581.4764406240051L387.69230769230774,581.4757031915078L391.1538461538462,581.4684514713541L394.6153846153846,581.5074788023871L398.07692307692304,581.4627771410668L401.53846153846155,581.4747208072497L405,581.4671731651376L408.46153846153845,581.4709980430529L411.9230769230769,581.4709368553923L415.3846153846154,581.4733528085126L418.84615384615387,581.458805125149L422.3076923076923,581.4607054410105L425.7692307692308,581.4592915122766L429.2307692307692,581.4624805860702L432.6923076923077,581.4778012537568L436.15384615384613,581.4869842576396L439.6153846153846,581.4823294230471L443.0769230769231,581.4537222000266L446.53846153846155,581.4512015211619L450,581.4526697697239L453.46153846153845,581.4429651869144L456.9230769230769,581.450364469828L460.38461538461536,581.4516666255458L463.8461538461538,581.4532308533584L467.3076923076923,581.4488267239882L470.7692307692308,581.4494395280236L474.2307692307692,581.4452527578608L477.6923076923077,581.4499762214442L481.15384615384613,581.4424782760998L484.6153846153846,581.463865106783L488.07692307692304,581.4439051708046L491.5384615384615,581.4386120707393L495.00000000000006,581.4446300754207L498.4615384615385,581.453081840423L501.92307692307696,581.4384457992751L505.3846153846154,581.4426105258846L508.8461538461538,581.4354731932141L512.3076923076923,581.4339562433936L515.7692307692307,581.4285222217849L519.2307692307692,581.4384362671118L522.6923076923077,581.4393453298729L526.1538461538462,581.4412549909042L529.6153846153846,581.4375472278973L533.0769230769231,581.4394622962894L536.5384615384615,581.4297406051788L540,581.4424832350237L543.4615384615385,581.4289702975562L546.9230769230769,581.434695877371L550.3846153846155,581.4356801306224L553.8461538461539,581.4410480349345L557.3076923076924,581.4712981027986L560.7692307692308,581.4474504944319L564.2307692307692,581.429064819193L567.6923076923076,581.5110392236151L571.1538461538461,581.4287605932203L574.6153846153845,581.4269232141653L578.0769230769231,581.4469858537635L581.5384615384615,581.4791711700584L585,581.4679119687936L588.4615384615385,581.4870639304851L591.9230769230769,581.4462044923523L595.3846153846154,581.4420451358652L598.8461538461538,581.4265740902985L602.3076923076923,581.4445834429899L605.7692307692308,581.4473309101276L609.2307692307693,581.4403834631516L612.6923076923077,581.4238528398231L616.1538461538462,581.4210470037563L619.6153846153846,581.4225931433405L623.0769230769231,581.4214543749641L626.5384615384615,581.51706629055L630,581.4344494705052L633.4615384615385,581.4231081729279L636.9230769230769,581.4341059015177L640.3846153846154,581.4402784157608L643.8461538461538,581.4623783347622L647.3076923076923,581.6792662744506L650.7692307692307,581.4177426587701L654.2307692307692,581.437056374452L657.6923076923076,581.419358745345L661.1538461538462,581.4706602927995L664.6153846153846,581.470337780301L668.0769230769231,581.4519289633012L671.5384615384615,581.4229012598393L675,581.4995277753928L678.4615384615385,581.425499721271L681.9230769230769,581.4545888966971L685.3846153846154,581.4397745374341L688.8461538461538,581.4238332933232L692.3076923076924,581.4425674753705L695.7692307692308,581.4443492849983L699.2307692307693,581.4709590563295L702.6923076923077,581.4295635946252L706.1538461538462,581.4364432129476L709.6153846153846,581.4403248349067L713.0769230769231,581.4814586638327L716.5384615384615,581.4195636703116L720,581.5065086585148L723.4615384615385,581.4331613109705L726.9230769230769,581.4899857786205L730.3846153846154,581.4556738718167L733.8461538461538,581.4459136220692L737.3076923076923,581.676973185629L740.7692307692307,581.4423592621108L744.2307692307692,581.4333744441767L747.6923076923077,581.8219488270184L751.1538461538462,581.4962484570826L754.6153846153846,581.481298107118L758.0769230769231,581.4742029815341L761.5384615384615,581.5860028556466L765,581.5246090959865L768.4615384615385,581.4250653470879L771.9230769230769,581.5875480788079L775.3846153846155,581.4986855918307L778.8461538461539,581.5940981348687L782.3076923076924,581.6046066235043L785.7692307692308,581.6314004910914L789.2307692307692,581.5290463629865L792.6923076923076,581.6122491914725L796.1538461538461,581.4963035816062L799.6153846153845,581.7116850127011L803.0769230769231,581.6176340595142L806.5384615384615,581.6091974637031L810,581.6179197497586L813.4615384615385,581.5662570170254L816.9230769230769,581.7302779342868L820.3846153846154,581.7635554910457L823.8461538461538,581.6108820569425L827.3076923076923,582.3910019856561L830.7692307692308,581.7461575027729L834.2307692307693,582.5736190851026L837.6923076923077,581.7312576151261L841.1538461538462,581.7719553738098L844.6153846153846,581.6462506822959L848.0769230769231,582.4180150625193L851.5384615384615,581.7209237865441L855,581.6973430650752L858.4615384615385,582.3670914254491L861.9230769230769,582.0266424297405L865.3846153846154,581.8307428960343L868.8461538461538,581.7749178522992L872.3076923076923,582.631202980906L875.7692307692307,581.746962588212L879.2307692307692,581.6453041873137L882.6923076923076,582.1897823155338L886.1538461538462,582.7353237886111" style="fill: none; stroke: #98df8a; stroke-width: 2;"></path></g></g><path class="foreground" d="" style="display: none; fill: none;"></path></g><g transform="translate(0,0)"><path class="background" d="M0,0h900v600h-900Z" style="fill: none;"></path><g><g class="mark-line role-mark marks"><path d="M6.923076923076923,569.9707368981112L10.384615384615385,535.7229627130083L13.846153846153847,492.14427900310534L17.30769230769231,458.2858101308286L20.76923076923077,424.2782789729354L24.230769230769234,401.04943185930375L27.692307692307693,367.3595226255594L31.153846153846157,414.23110519529143L34.61538461538462,374.8851037135026L38.07692307692308,341.51649293160074L41.53846153846154,317.7182804223271L45,306.19021880134915L48.46153846153847,271.09701461290456L51.92307692307693,234.47072290757455L55.38461538461539,155.08900715727654L58.84615384615385,265.41025473118975L62.307692307692314,222.32966386348593L65.76923076923077,292.90168618189625L69.23076923076924,218.15527282645323L72.6923076923077,189.3812067228503L76.15384615384616,129.60703628082297L79.61538461538461,140.7546564697175L83.07692307692308,63.37536752695192L86.53846153846155,199.08378146323827L90,196.79755927032355L93.46153846153847,161.10038052419412L96.92307692307693,123.18377518165337L100.38461538461539,126.84544658493868L103.84615384615385,51.43233454066518L107.3076923076923,110.5300760543904L110.76923076923077,45.0184501845019L114.23076923076923,154.7500664716831L117.6923076923077,135.77218014766976L121.15384615384615,105.53918293323153L124.61538461538463,74.21444589684243L128.07692307692307,99.95527394707425L131.53846153846155,170.8794947463394L135,66.40333146370632L138.46153846153848,14.529681063776302L141.9230769230769,155.18612505188486L145.3846153846154,74.00507139997327L148.84615384615384,114.66410263608535L152.30769230769232,97.82014090343966L155.76923076923077,104.71042699330877L159.23076923076923,120.97477611443415L162.69230769230768,90.9610976416135L166.15384615384616,111.73990915734116L169.6153846153846,159.45834665813874L173.0769230769231,154.58515283842792L176.53846153846155,143.47481931857286L180,141.10012977937515L183.46153846153845,128.644753726187L186.92307692307693,81.32290055499962L190.3846153846154,154.76190476190476L193.84615384615387,109.27835051546393L197.3076923076923,154.320987654321L200.76923076923077,164.9117468046257L204.23076923076923,123.41950551663048L207.6923076923077,136.36363636363637L211.15384615384616,130.31630531630532L214.6153846153846,95.46016059295867L218.07692307692307,118.11884016569059L221.53846153846155,91.10575166264705L225,172.90242017006602L228.46153846153845,115.58840845162557L231.9230769230769,149.58980109779853L235.3846153846154,125.3999879248928L238.84615384615384,118.00262029537873L242.3076923076923,93.77089030689754L245.76923076923075,124.3547760448465L249.23076923076925,43.460688348594935L252.6923076923077,193.83431304174553L256.15384615384613,152.2030999465526L259.6153846153846,138.26653790439403L263.0769230769231,128.92963752665244L266.53846153846155,130.02953061858872L270,84.0066518847006L273.46153846153845,123.70660415003994L276.92307692307696,55.122141227533206L280.3846153846154,169.92716678805536L283.8461538461538,158.1255905850013L287.30769230769226,162.90246329932822L290.7692307692308,74.38142071181653L294.2307692307692,105.71230549096762L297.6923076923077,118.41171213346375L301.15384615384613,97.08733226212709L304.61538461538464,45.92592592592597L308.0769230769231,130.10236128882167L311.53846153846155,137.35668388559898L315,127.19731318219986L318.46153846153845,95.8374211632796L321.9230769230769,121.45484133441818L325.38461538461536,67.83656117146913L328.8461538461538,97.44093682184823L332.3076923076923,32.46206480177092L335.7692307692308,157.83552176917757L339.2307692307692,129.30051533388593L342.6923076923077,119.3855916925074L346.1538461538462,92.76443383559598L349.61538461538464,94.55843777324388L353.0769230769231,82.33124794204802L356.53846153846155,92.92753215716587L360,40.969862805457424L363.46153846153845,128.23624595469252L366.9230769230769,100.94839973873285L370.38461538461536,119.33991885694124L373.84615384615387,65.18863153636087L377.3076923076923,113.27492426328831L380.7692307692308,88.52657004830917L384.2307692307692,97.91144442161486L387.69230769230774,54.22483844135899L391.1538461538462,106.02678716556682L394.6153846153846,127.93748664570674L398.07692307692304,113.2604459839792L401.53846153846155,91.20996441281135L405,130.44188861985467L408.46153846153845,85.36944435817004L411.9230769230769,88.58638584564964L415.3846153846154,70.16263681899702L418.84615384615387,111.87095508923323L422.3076923076923,101.70085666458799L425.7692307692308,105.47732735138588L429.2307692307692,66.68687516395127L432.6923076923077,113.0465336551681L436.15384615384613,67.2132657761401L439.6153846153846,114.6883388890527L443.0769230769231,69.13341804320206L446.53846153846155,128.28486627092641L450,118.06622605428252L453.46153846153845,112.61819639814232L456.9230769230769,90.32176656151418L460.38461538461536,115.29174725983238L463.8461538461538,70.93650701946963L467.3076923076923,85.88709677419351L470.7692307692308,36.905444126074485L474.2307692307692,105.71167430908413L477.6923076923077,102.99662265888854L481.15384615384613,111.74782970626708L484.6153846153846,69.93318485523383L488.07692307692304,104.51973259836984L491.5384615384615,54.52404442888512L495.00000000000006,107.21808774541064L498.4615384615385,70.75038284839212L501.92307692307696,115.01068557278067L505.3846153846154,110.32465119421634L508.8461538461538,109.7711349836525L512.3076923076923,85.48412725828184L515.7692307692307,109.38611029865785L519.2307692307692,60.488733735322086L522.6923076923077,121.5983050150163L526.1538461538462,44.24210265662034L529.6153846153846,106.03707228267614L533.0769230769231,101.72365493944142L536.5384615384615,107.72398553635993L540,67.43217584398029L543.4615384615385,92.79846681460553L546.9230769230769,66.02189321813532L550.3846153846155,95.62610022297855L553.8461538461539,53.93519244643807L557.3076923076924,100.02987784123141L560.7692307692308,103.04681988638467L564.2307692307692,95.56287692651321L567.6923076923076,85.71685662867425L571.1538461538461,99.26971762414803L574.6153846153845,73.05736782902137L578.0769230769231,101.56328847771235L581.5384615384615,63.78185069289224L585,120.78859060402682L588.4615384615385,129.1806420699569L591.9230769230769,117.00641274776538L595.3846153846154,88.42640626589355L598.8461538461538,105.83430458430453L602.3076923076923,63.07949092426455L605.7692307692308,106.18894052926109L609.2307692307693,58.46153846153845L612.6923076923077,97.36409966024908L616.1538461538462,79.13354607871581L619.6153846153846,96.30386535971888L623.0769230769231,71.19815668202763L626.5384615384615,90.40442858450002L630,65.33611849601218L633.4615384615385,105.24637177370293L636.9230769230769,57.6404070863173L640.3846153846154,94.37299035369773L643.8461538461538,151.07854362262424L647.3076923076923,263.3406954354967L650.7692307692307,67.28610692437277L654.2307692307692,108.45313258863527L657.6923076923076,58.05369127516779L661.1538461538462,99.6958696353663L664.6153846153846,44.27773343974464L668.0769230769231,110.14697919084091L671.5384615384615,101.548769086943L675,132.6597744360903L678.4615384615385,68.35558450016276L681.9230769230769,92.4586506654358L685.3846153846154,60.65549890750186L688.8461538461538,100.50675174358214L692.3076923076924,61.17274167987319L695.7692307692308,110.95343207063506L699.2307692307693,132.03265195979222L702.6923076923077,102.9071170084439L706.1538461538462,94.73503785173547L709.6153846153846,102.45490633052444L713.0769230769231,92.99880525686972L716.5384615384615,115.50848021283669L720,72.54159495123356L723.4615384615385,124.41590879979508L726.9230769230769,121.93597755388343L730.3846153846154,146.84648545084426L733.8461538461538,89.30686451440405L737.3076923076923,186.80327868852456L740.7692307692307,115.74796292840703L744.2307692307692,112.75731646825389L747.6923076923077,208.1652010670882L751.1538461538462,129.6633372502938L754.6153846153846,192.93192925883008L758.0769230769231,148.5398671096345L761.5384615384615,149.81670952563337L765,136.8713743864345L768.4615384615385,67.36935791481243L771.9230769230769,217.14007517775462L775.3846153846155,99.0356492629354L778.8461538461539,170.03147482014393L782.3076923076924,193.57236472570685L785.7692307692308,172.14369444173096L789.2307692307692,114.51518980387843L792.6923076923076,222.35904604566443L796.1538461538461,118.00836102476147L799.6153846153845,173.27265029635893L803.0769230769231,112.28186130803259L806.5384615384615,162.0400512504152L810,151.3101320736528L813.4615384615385,161.4196954125012L816.9230769230769,225.26932362369894L820.3846153846154,189.90164920116817L823.8461538461538,203.2025712872919L827.3076923076923,240.04262890610522L830.7692307692308,119.03335134338629L834.2307692307693,269.67414940952125L837.6923076923077,174.38953488372096L841.1538461538462,243.76557010539764L844.6153846153846,185.96359173655154L848.0769230769231,225.10562474741909L851.5384615384615,190.5222098391975L855,226.29157208229734L858.4615384615385,199.16887099865824L861.9230769230769,203.82747603833872L865.3846153846154,237.1243169398907L868.8461538461538,169.1806114239742L872.3076923076923,240.63513198628542L875.7692307692307,209.96702390766694L879.2307692307692,216.09716825930207L882.6923076923076,269.2819745699327L886.1538461538462,221.11477639857168" style="fill: none; stroke: #ffbb78; stroke-width: 2;"></path></g></g><path class="foreground" d="" style="display: none; fill: none;"></path></g></g><g class="mark-group role-legend"><g transform="translate(918,0)"><path class="background" d="M0,0h101v92h-101Z" style="pointer-events: none; fill: none;"></path><g><g class="mark-group role-legend-entry"><g transform="translate(0,16)"><path class="background" d="M0,0h0v0h0Z" style="pointer-events: none; fill: none;"></path><g><g class="mark-group role-scope"><g transform="translate(0,0)"><path class="background" d="M0,0h101v11h-101Z" style="pointer-events: none; fill: none; opacity: 1;"></path><g><g class="mark-symbol role-legend-symbol" style="pointer-events: none;"><path transform="translate(6,6)" d="M-5,0L5,0" style="fill: none; stroke: #1f77b4; stroke-width: 1.5; opacity: 1;"></path></g><g class="mark-text role-legend-label" style="pointer-events: none;"><text text-anchor="start" transform="translate(16,9)" style="font-family: sans-serif; font-size: 10px; fill: #000; opacity: 1;">Clang</text></g></g><path class="foreground" d="" style="pointer-events: none; display: none; fill: none;"></path></g><g transform="translate(0,13)"><path class="background" d="M0,0h101v11h-101Z" style="pointer-events: none; fill: none; opacity: 1;"></path><g><g class="mark-symbol role-legend-symbol" style="pointer-events: none;"><path transform="translate(6,6)" d="M-5,0L5,0" style="fill: none; stroke: #aec7e8; stroke-width: 1.5; opacity: 1;"></path></g><g class="mark-text role-legend-label" style="pointer-events: none;"><text text-anchor="start" transform="translate(16,9)" style="font-family: sans-serif; font-size: 10px; fill: #000; opacity: 1;">GFortran</text></g></g><path class="foreground" d="" style="pointer-events: none; display: none; fill: none;"></path></g><g transform="translate(0,26)"><path class="background" d="M0,0h101v11h-101Z" style="pointer-events: none; fill: none; opacity: 1;"></path><g><g class="mark-symbol role-legend-symbol" style="pointer-events: none;"><path transform="translate(6,6)" d="M-5,0L5,0" style="fill: none; stroke: #ff7f0e; stroke-width: 1.5; opacity: 1;"></path></g><g class="mark-text role-legend-label" style="pointer-events: none;"><text text-anchor="start" transform="translate(16,9)" style="font-family: sans-serif; font-size: 10px; fill: #000; opacity: 1;">Julia</text></g></g><path class="foreground" d="" style="pointer-events: none; display: none; fill: none;"></path></g><g transform="translate(0,39)"><path class="background" d="M0,0h101v11h-101Z" style="pointer-events: none; fill: none; opacity: 1;"></path><g><g class="mark-symbol role-legend-symbol" style="pointer-events: none;"><path transform="translate(6,6)" d="M-5,0L5,0" style="fill: none; stroke: #ffbb78; stroke-width: 1.5; opacity: 1;"></path></g><g class="mark-text role-legend-label" style="pointer-events: none;"><text text-anchor="start" transform="translate(16,9)" style="font-family: sans-serif; font-size: 10px; fill: #000; opacity: 1;">LoopVectorization</text></g></g><path class="foreground" d="" style="pointer-events: none; display: none; fill: none;"></path></g><g transform="translate(0,52)"><path class="background" d="M0,0h101v11h-101Z" style="pointer-events: none; fill: none; opacity: 1;"></path><g><g class="mark-symbol role-legend-symbol" style="pointer-events: none;"><path transform="translate(6,6)" d="M-5,0L5,0" style="fill: none; stroke: #2ca02c; stroke-width: 1.5; opacity: 1;"></path></g><g class="mark-text role-legend-label" style="pointer-events: none;"><text text-anchor="start" transform="translate(16,9)" style="font-family: sans-serif; font-size: 10px; fill: #000; opacity: 1;">icc</text></g></g><path class="foreground" d="" style="pointer-events: none; display: none; fill: none;"></path></g><g transform="translate(0,65)"><path class="background" d="M0,0h101v11h-101Z" style="pointer-events: none; fill: none; opacity: 1;"></path><g><g class="mark-symbol role-legend-symbol" style="pointer-events: none;"><path transform="translate(6,6)" d="M-5,0L5,0" style="fill: none; stroke: #98df8a; stroke-width: 1.5; opacity: 1;"></path></g><g class="mark-text role-legend-label" style="pointer-events: none;"><text text-anchor="start" transform="translate(16,9)" style="font-family: sans-serif; font-size: 10px; fill: #000; opacity: 1;">ifort</text></g></g><path class="foreground" d="" style="pointer-events: none; display: none; fill: none;"></path></g></g></g><path class="foreground" d="" style="pointer-events: none; display: none; fill: none;"></path></g></g><g class="mark-text role-legend-title" style="pointer-events: none;"><text text-anchor="start" transform="translate(0,9)" style="font-family: sans-serif; font-size: 11px; font-weight: bold; fill: #000; opacity: 1;">Method</text></g></g><path class="foreground" d="" style="pointer-events: none; display: none; fill: none;"></path></g></g></g><path class="foreground" d="" style="display: none; fill: none;"></path></g></g></g></svg>
