<?xml version="1.0" encoding="utf-8"?>
<!DOCTYPE svg PUBLIC "-//W3C//DTD SVG 1.1//EN" "http://www.w3.org/Graphics/SVG/1.1/DTD/svg11.dtd">
<svg class="marks" width="1063" height="647" viewBox="0 0 1063 647" version="1.1" xmlns="http://www.w3.org/2000/svg" xmlns:xlink="http://www.w3.org/1999/xlink"><rect width="1063" height="647" style="fill: white;"></rect><g transform="translate(39,10)"><g class="mark-group role-frame root"><g transform="translate(0,0)"><path class="background" d="M0.5,0.5h900v600h-900Z" style="fill: none; stroke: #ddd;"></path><g><g class="mark-group role-axis"><g transform="translate(0.5,600.5)"><path class="background" d="M0,0h0v0h0Z" style="pointer-events: none; fill: none;"></path><g><g class="mark-rule role-axis-grid" style="pointer-events: none;"><line transform="translate(0,-600)" x2="0" y2="600" style="fill: none; stroke: #ddd; stroke-width: 1; opacity: 1;"></line><line transform="translate(35,-600)" x2="0" y2="600" style="fill: none; stroke: #ddd; stroke-width: 1; opacity: 1;"></line><line transform="translate(69,-600)" x2="0" y2="600" style="fill: none; stroke: #ddd; stroke-width: 1; opacity: 1;"></line><line transform="translate(104,-600)" x2="0" y2="600" style="fill: none; stroke: #ddd; stroke-width: 1; opacity: 1;"></line><line transform="translate(138,-600)" x2="0" y2="600" style="fill: none; stroke: #ddd; stroke-width: 1; opacity: 1;"></line><line transform="translate(173,-600)" x2="0" y2="600" style="fill: none; stroke: #ddd; stroke-width: 1; opacity: 1;"></line><line transform="translate(208,-600)" x2="0" y2="600" style="fill: none; stroke: #ddd; stroke-width: 1; opacity: 1;"></line><line transform="translate(242,-600)" x2="0" y2="600" style="fill: none; stroke: #ddd; stroke-width: 1; opacity: 1;"></line><line transform="translate(277,-600)" x2="0" y2="600" style="fill: none; stroke: #ddd; stroke-width: 1; opacity: 1;"></line><line transform="translate(312,-600)" x2="0" y2="600" style="fill: none; stroke: #ddd; stroke-width: 1; opacity: 1;"></line><line transform="translate(346,-600)" x2="0" y2="600" style="fill: none; stroke: #ddd; stroke-width: 1; opacity: 1;"></line><line transform="translate(381,-600)" x2="0" y2="600" style="fill: none; stroke: #ddd; stroke-width: 1; opacity: 1;"></line><line transform="translate(415,-600)" x2="0" y2="600" style="fill: none; stroke: #ddd; stroke-width: 1; opacity: 1;"></line><line transform="translate(450,-600)" x2="0" y2="600" style="fill: none; stroke: #ddd; stroke-width: 1; opacity: 1;"></line><line transform="translate(485,-600)" x2="0" y2="600" style="fill: none; stroke: #ddd; stroke-width: 1; opacity: 1;"></line><line transform="translate(519,-600)" x2="0" y2="600" style="fill: none; stroke: #ddd; stroke-width: 1; opacity: 1;"></line><line transform="translate(554,-600)" x2="0" y2="600" style="fill: none; stroke: #ddd; stroke-width: 1; opacity: 1;"></line><line transform="translate(588,-600)" x2="0" y2="600" style="fill: none; stroke: #ddd; stroke-width: 1; opacity: 1;"></line><line transform="translate(623,-600)" x2="0" y2="600" style="fill: none; stroke: #ddd; stroke-width: 1; opacity: 1;"></line><line transform="translate(658,-600)" x2="0" y2="600" style="fill: none; stroke: #ddd; stroke-width: 1; opacity: 1;"></line><line transform="translate(692,-600)" x2="0" y2="600" style="fill: none; stroke: #ddd; stroke-width: 1; opacity: 1;"></line><line transform="translate(727,-600)" x2="0" y2="600" style="fill: none; stroke: #ddd; stroke-width: 1; opacity: 1;"></line><line transform="translate(762,-600)" x2="0" y2="600" style="fill: none; stroke: #ddd; stroke-width: 1; opacity: 1;"></line><line transform="translate(796,-600)" x2="0" y2="600" style="fill: none; stroke: #ddd; stroke-width: 1; opacity: 1;"></line><line transform="translate(831,-600)" x2="0" y2="600" style="fill: none; stroke: #ddd; stroke-width: 1; opacity: 1;"></line><line transform="translate(865,-600)" x2="0" y2="600" style="fill: none; stroke: #ddd; stroke-width: 1; opacity: 1;"></line><line transform="translate(900,-600)" x2="0" y2="600" style="fill: none; stroke: #ddd; stroke-width: 1; opacity: 1;"></line></g></g><path class="foreground" d="" style="pointer-events: none; display: none; fill: none;"></path></g></g><g class="mark-group role-axis"><g transform="translate(0.5,0.5)"><path class="background" d="M0,0h0v0h0Z" style="pointer-events: none; fill: none;"></path><g><g class="mark-rule role-axis-grid" style="pointer-events: none;"><line transform="translate(0,600)" x2="900" y2="0" style="fill: none; stroke: #ddd; stroke-width: 1; opacity: 1;"></line><line transform="translate(0,563)" x2="900" y2="0" style="fill: none; stroke: #ddd; stroke-width: 1; opacity: 1;"></line><line transform="translate(0,525)" x2="900" y2="0" style="fill: none; stroke: #ddd; stroke-width: 1; opacity: 1;"></line><line transform="translate(0,488)" x2="900" y2="0" style="fill: none; stroke: #ddd; stroke-width: 1; opacity: 1;"></line><line transform="translate(0,450)" x2="900" y2="0" style="fill: none; stroke: #ddd; stroke-width: 1; opacity: 1;"></line><line transform="translate(0,413)" x2="900" y2="0" style="fill: none; stroke: #ddd; stroke-width: 1; opacity: 1;"></line><line transform="translate(0,375)" x2="900" y2="0" style="fill: none; stroke: #ddd; stroke-width: 1; opacity: 1;"></line><line transform="translate(0,338)" x2="900" y2="0" style="fill: none; stroke: #ddd; stroke-width: 1; opacity: 1;"></line><line transform="translate(0,300)" x2="900" y2="0" style="fill: none; stroke: #ddd; stroke-width: 1; opacity: 1;"></line><line transform="translate(0,263)" x2="900" y2="0" style="fill: none; stroke: #ddd; stroke-width: 1; opacity: 1;"></line><line transform="translate(0,225)" x2="900" y2="0" style="fill: none; stroke: #ddd; stroke-width: 1; opacity: 1;"></line><line transform="translate(0,188)" x2="900" y2="0" style="fill: none; stroke: #ddd; stroke-width: 1; opacity: 1;"></line><line transform="translate(0,150)" x2="900" y2="0" style="fill: none; stroke: #ddd; stroke-width: 1; opacity: 1;"></line><line transform="translate(0,113)" x2="900" y2="0" style="fill: none; stroke: #ddd; stroke-width: 1; opacity: 1;"></line><line transform="translate(0,75)" x2="900" y2="0" style="fill: none; stroke: #ddd; stroke-width: 1; opacity: 1;"></line><line transform="translate(0,38)" x2="900" y2="0" style="fill: none; stroke: #ddd; stroke-width: 1; opacity: 1;"></line><line transform="translate(0,0)" x2="900" y2="0" style="fill: none; stroke: #ddd; stroke-width: 1; opacity: 1;"></line></g></g><path class="foreground" d="" style="pointer-events: none; display: none; fill: none;"></path></g></g><g class="mark-group role-axis"><g transform="translate(0.5,600.5)"><path class="background" d="M0,0h0v0h0Z" style="pointer-events: none; fill: none;"></path><g><g class="mark-rule role-axis-tick" style="pointer-events: none;"><line transform="translate(0,0)" x2="0" y2="5" style="fill: none; stroke: #888; stroke-width: 1; opacity: 1;"></line><line transform="translate(35,0)" x2="0" y2="5" style="fill: none; stroke: #888; stroke-width: 1; opacity: 1;"></line><line transform="translate(69,0)" x2="0" y2="5" style="fill: none; stroke: #888; stroke-width: 1; opacity: 1;"></line><line transform="translate(104,0)" x2="0" y2="5" style="fill: none; stroke: #888; stroke-width: 1; opacity: 1;"></line><line transform="translate(138,0)" x2="0" y2="5" style="fill: none; stroke: #888; stroke-width: 1; opacity: 1;"></line><line transform="translate(173,0)" x2="0" y2="5" style="fill: none; stroke: #888; stroke-width: 1; opacity: 1;"></line><line transform="translate(208,0)" x2="0" y2="5" style="fill: none; stroke: #888; stroke-width: 1; opacity: 1;"></line><line transform="translate(242,0)" x2="0" y2="5" style="fill: none; stroke: #888; stroke-width: 1; opacity: 1;"></line><line transform="translate(277,0)" x2="0" y2="5" style="fill: none; stroke: #888; stroke-width: 1; opacity: 1;"></line><line transform="translate(312,0)" x2="0" y2="5" style="fill: none; stroke: #888; stroke-width: 1; opacity: 1;"></line><line transform="translate(346,0)" x2="0" y2="5" style="fill: none; stroke: #888; stroke-width: 1; opacity: 1;"></line><line transform="translate(381,0)" x2="0" y2="5" style="fill: none; stroke: #888; stroke-width: 1; opacity: 1;"></line><line transform="translate(415,0)" x2="0" y2="5" style="fill: none; stroke: #888; stroke-width: 1; opacity: 1;"></line><line transform="translate(450,0)" x2="0" y2="5" style="fill: none; stroke: #888; stroke-width: 1; opacity: 1;"></line><line transform="translate(485,0)" x2="0" y2="5" style="fill: none; stroke: #888; stroke-width: 1; opacity: 1;"></line><line transform="translate(519,0)" x2="0" y2="5" style="fill: none; stroke: #888; stroke-width: 1; opacity: 1;"></line><line transform="translate(554,0)" x2="0" y2="5" style="fill: none; stroke: #888; stroke-width: 1; opacity: 1;"></line><line transform="translate(588,0)" x2="0" y2="5" style="fill: none; stroke: #888; stroke-width: 1; opacity: 1;"></line><line transform="translate(623,0)" x2="0" y2="5" style="fill: none; stroke: #888; stroke-width: 1; opacity: 1;"></line><line transform="translate(658,0)" x2="0" y2="5" style="fill: none; stroke: #888; stroke-width: 1; opacity: 1;"></line><line transform="translate(692,0)" x2="0" y2="5" style="fill: none; stroke: #888; stroke-width: 1; opacity: 1;"></line><line transform="translate(727,0)" x2="0" y2="5" style="fill: none; stroke: #888; stroke-width: 1; opacity: 1;"></line><line transform="translate(762,0)" x2="0" y2="5" style="fill: none; stroke: #888; stroke-width: 1; opacity: 1;"></line><line transform="translate(796,0)" x2="0" y2="5" style="fill: none; stroke: #888; stroke-width: 1; opacity: 1;"></line><line transform="translate(831,0)" x2="0" y2="5" style="fill: none; stroke: #888; stroke-width: 1; opacity: 1;"></line><line transform="translate(865,0)" x2="0" y2="5" style="fill: none; stroke: #888; stroke-width: 1; opacity: 1;"></line><line transform="translate(900,0)" x2="0" y2="5" style="fill: none; stroke: #888; stroke-width: 1; opacity: 1;"></line></g><g class="mark-text role-axis-label" style="pointer-events: none;"><text text-anchor="start" transform="translate(0,15)" style="font-family: sans-serif; font-size: 10px; fill: #000; opacity: 1;">0</text><text text-anchor="middle" transform="translate(34.61538461538462,15)" style="font-family: sans-serif; font-size: 10px; fill: #000; opacity: 1;">10</text><text text-anchor="middle" transform="translate(69.23076923076924,15)" style="font-family: sans-serif; font-size: 10px; fill: #000; opacity: 1;">20</text><text text-anchor="middle" transform="translate(103.84615384615385,15)" style="font-family: sans-serif; font-size: 10px; fill: #000; opacity: 1;">30</text><text text-anchor="middle" transform="translate(138.46153846153848,15)" style="font-family: sans-serif; font-size: 10px; fill: #000; opacity: 1;">40</text><text text-anchor="middle" transform="translate(173.0769230769231,15)" style="font-family: sans-serif; font-size: 10px; fill: #000; opacity: 1;">50</text><text text-anchor="middle" transform="translate(207.6923076923077,15)" style="font-family: sans-serif; font-size: 10px; fill: #000; opacity: 1;">60</text><text text-anchor="middle" transform="translate(242.3076923076923,15)" style="font-family: sans-serif; font-size: 10px; fill: #000; opacity: 1;">70</text><text text-anchor="middle" transform="translate(276.92307692307696,15)" style="font-family: sans-serif; font-size: 10px; fill: #000; opacity: 1;">80</text><text text-anchor="middle" transform="translate(311.53846153846155,15)" style="font-family: sans-serif; font-size: 10px; fill: #000; opacity: 1;">90</text><text text-anchor="middle" transform="translate(346.1538461538462,15)" style="font-family: sans-serif; font-size: 10px; fill: #000; opacity: 1;">100</text><text text-anchor="middle" transform="translate(380.7692307692308,15)" style="font-family: sans-serif; font-size: 10px; fill: #000; opacity: 1;">110</text><text text-anchor="middle" transform="translate(415.3846153846154,15)" style="font-family: sans-serif; font-size: 10px; fill: #000; opacity: 1;">120</text><text text-anchor="middle" transform="translate(450,15)" style="font-family: sans-serif; font-size: 10px; fill: #000; opacity: 1;">130</text><text text-anchor="middle" transform="translate(484.6153846153846,15)" style="font-family: sans-serif; font-size: 10px; fill: #000; opacity: 1;">140</text><text text-anchor="middle" transform="translate(519.2307692307692,15)" style="font-family: sans-serif; font-size: 10px; fill: #000; opacity: 1;">150</text><text text-anchor="middle" transform="translate(553.8461538461539,15)" style="font-family: sans-serif; font-size: 10px; fill: #000; opacity: 1;">160</text><text text-anchor="middle" transform="translate(588.4615384615385,15)" style="font-family: sans-serif; font-size: 10px; fill: #000; opacity: 1;">170</text><text text-anchor="middle" transform="translate(623.0769230769231,15)" style="font-family: sans-serif; font-size: 10px; fill: #000; opacity: 1;">180</text><text text-anchor="middle" transform="translate(657.6923076923076,15)" style="font-family: sans-serif; font-size: 10px; fill: #000; opacity: 1;">190</text><text text-anchor="middle" transform="translate(692.3076923076924,15)" style="font-family: sans-serif; font-size: 10px; fill: #000; opacity: 1;">200</text><text text-anchor="middle" transform="translate(726.9230769230769,15)" style="font-family: sans-serif; font-size: 10px; fill: #000; opacity: 1;">210</text><text text-anchor="middle" transform="translate(761.5384615384615,15)" style="font-family: sans-serif; font-size: 10px; fill: #000; opacity: 1;">220</text><text text-anchor="middle" transform="translate(796.1538461538461,15)" style="font-family: sans-serif; font-size: 10px; fill: #000; opacity: 1;">230</text><text text-anchor="middle" transform="translate(830.7692307692308,15)" style="font-family: sans-serif; font-size: 10px; fill: #000; opacity: 1;">240</text><text text-anchor="middle" transform="translate(865.3846153846154,15)" style="font-family: sans-serif; font-size: 10px; fill: #000; opacity: 1;">250</text><text text-anchor="end" transform="translate(900,15)" style="font-family: sans-serif; font-size: 10px; fill: #000; opacity: 1;">260</text></g><g class="mark-rule role-axis-domain" style="pointer-events: none;"><line transform="translate(0,0)" x2="900" y2="0" style="fill: none; stroke: #888; stroke-width: 1; opacity: 1;"></line></g><g class="mark-text role-axis-title" style="pointer-events: none;"><text text-anchor="middle" transform="translate(450,30)" style="font-family: sans-serif; font-size: 11px; font-weight: bold; fill: #000; opacity: 1;">Size</text></g></g><path class="foreground" d="" style="pointer-events: none; display: none; fill: none;"></path></g></g><g class="mark-group role-axis"><g transform="translate(0.5,0.5)"><path class="background" d="M0,0h0v0h0Z" style="pointer-events: none; fill: none;"></path><g><g class="mark-rule role-axis-tick" style="pointer-events: none;"><line transform="translate(0,600)" x2="-5" y2="0" style="fill: none; stroke: #888; stroke-width: 1; opacity: 1;"></line><line transform="translate(0,563)" x2="-5" y2="0" style="fill: none; stroke: #888; stroke-width: 1; opacity: 1;"></line><line transform="translate(0,525)" x2="-5" y2="0" style="fill: none; stroke: #888; stroke-width: 1; opacity: 1;"></line><line transform="translate(0,488)" x2="-5" y2="0" style="fill: none; stroke: #888; stroke-width: 1; opacity: 1;"></line><line transform="translate(0,450)" x2="-5" y2="0" style="fill: none; stroke: #888; stroke-width: 1; opacity: 1;"></line><line transform="translate(0,413)" x2="-5" y2="0" style="fill: none; stroke: #888; stroke-width: 1; opacity: 1;"></line><line transform="translate(0,375)" x2="-5" y2="0" style="fill: none; stroke: #888; stroke-width: 1; opacity: 1;"></line><line transform="translate(0,338)" x2="-5" y2="0" style="fill: none; stroke: #888; stroke-width: 1; opacity: 1;"></line><line transform="translate(0,300)" x2="-5" y2="0" style="fill: none; stroke: #888; stroke-width: 1; opacity: 1;"></line><line transform="translate(0,263)" x2="-5" y2="0" style="fill: none; stroke: #888; stroke-width: 1; opacity: 1;"></line><line transform="translate(0,225)" x2="-5" y2="0" style="fill: none; stroke: #888; stroke-width: 1; opacity: 1;"></line><line transform="translate(0,188)" x2="-5" y2="0" style="fill: none; stroke: #888; stroke-width: 1; opacity: 1;"></line><line transform="translate(0,150)" x2="-5" y2="0" style="fill: none; stroke: #888; stroke-width: 1; opacity: 1;"></line><line transform="translate(0,113)" x2="-5" y2="0" style="fill: none; stroke: #888; stroke-width: 1; opacity: 1;"></line><line transform="translate(0,75)" x2="-5" y2="0" style="fill: none; stroke: #888; stroke-width: 1; opacity: 1;"></line><line transform="translate(0,38)" x2="-5" y2="0" style="fill: none; stroke: #888; stroke-width: 1; opacity: 1;"></line><line transform="translate(0,0)" x2="-5" y2="0" style="fill: none; stroke: #888; stroke-width: 1; opacity: 1;"></line></g><g class="mark-text role-axis-label" style="pointer-events: none;"><text text-anchor="end" transform="translate(-7,603)" style="font-family: sans-serif; font-size: 10px; fill: #000; opacity: 1;">0</text><text text-anchor="end" transform="translate(-7,565.5)" style="font-family: sans-serif; font-size: 10px; fill: #000; opacity: 1;">5</text><text text-anchor="end" transform="translate(-7,528)" style="font-family: sans-serif; font-size: 10px; fill: #000; opacity: 1;">10</text><text text-anchor="end" transform="translate(-7,490.5)" style="font-family: sans-serif; font-size: 10px; fill: #000; opacity: 1;">15</text><text text-anchor="end" transform="translate(-7,453)" style="font-family: sans-serif; font-size: 10px; fill: #000; opacity: 1;">20</text><text text-anchor="end" transform="translate(-7,415.5)" style="font-family: sans-serif; font-size: 10px; fill: #000; opacity: 1;">25</text><text text-anchor="end" transform="translate(-7,378)" style="font-family: sans-serif; font-size: 10px; fill: #000; opacity: 1;">30</text><text text-anchor="end" transform="translate(-7,340.5)" style="font-family: sans-serif; font-size: 10px; fill: #000; opacity: 1;">35</text><text text-anchor="end" transform="translate(-7,303)" style="font-family: sans-serif; font-size: 10px; fill: #000; opacity: 1;">40</text><text text-anchor="end" transform="translate(-7,265.5)" style="font-family: sans-serif; font-size: 10px; fill: #000; opacity: 1;">45</text><text text-anchor="end" transform="translate(-7,228)" style="font-family: sans-serif; font-size: 10px; fill: #000; opacity: 1;">50</text><text text-anchor="end" transform="translate(-7,190.5)" style="font-family: sans-serif; font-size: 10px; fill: #000; opacity: 1;">55</text><text text-anchor="end" transform="translate(-7,153)" style="font-family: sans-serif; font-size: 10px; fill: #000; opacity: 1;">60</text><text text-anchor="end" transform="translate(-7,115.5)" style="font-family: sans-serif; font-size: 10px; fill: #000; opacity: 1;">65</text><text text-anchor="end" transform="translate(-7,78)" style="font-family: sans-serif; font-size: 10px; fill: #000; opacity: 1;">70</text><text text-anchor="end" transform="translate(-7,40.5)" style="font-family: sans-serif; font-size: 10px; fill: #000; opacity: 1;">75</text><text text-anchor="end" transform="translate(-7,3)" style="font-family: sans-serif; font-size: 10px; fill: #000; opacity: 1;">80</text></g><g class="mark-rule role-axis-domain" style="pointer-events: none;"><line transform="translate(0,600)" x2="0" y2="-600" style="fill: none; stroke: #888; stroke-width: 1; opacity: 1;"></line></g><g class="mark-text role-axis-title" style="pointer-events: none;"><text text-anchor="middle" transform="translate(-23,300) rotate(-90) translate(0,-2)" style="font-family: sans-serif; font-size: 11px; font-weight: bold; fill: #000; opacity: 1;">GFLOPS</text></g></g><path class="foreground" d="" style="pointer-events: none; display: none; fill: none;"></path></g></g><g class="mark-group role-scope pathgroup"><g transform="translate(0,0)"><path class="background" d="M0,0h900v600h-900Z" style="fill: none;"></path><g><g class="mark-line role-mark marks"><path d="M6.923076923076923,568.5581912527799L10.384615384615385,551.288837744534L13.846153846153847,546.6230580539657L17.30769230769231,537.3892990765801L20.76923076923077,538.8058699405333L24.230769230769234,528.6033998381029L27.692307692307693,426.1363636363636L31.153846153846157,456.09669389565244L34.61538461538462,468.79380603096985L38.07692307692308,483.44280280866L41.53846153846154,485.1699502056722L45,493.885322736767L48.46153846153847,496.92460399094836L51.92307692307693,513.4983976959273L55.38461538461539,341.17934421877067L58.84615384615385,405.8027068747759L62.307692307692314,405.25654920827935L65.76923076923077,420.04468661549134L69.23076923076924,426.8318092371802L72.6923076923077,446.6744938151256L76.15384615384616,446.4256828221241L79.61538461538461,480.62846195792554L83.07692307692308,336.94416354975084L86.53846153846155,372.02786284148596L90,376.85007882493176L93.46153846153847,384.7335726921466L96.92307692307693,398.87115342730016L100.38461538461539,430.9314123376623L103.84615384615385,416.50753511895357L107.3076923076923,451.86593260284036L110.76923076923077,328.7245604688332L114.23076923076923,359.55541494605035L117.6923076923077,347.55060326472676L121.15384615384615,382.93445922296115L124.61538461538463,367.3659017316627L128.07692307692307,399.2816433989671L131.53846153846155,406.6494552137575L135,421.0835870467755L138.46153846153848,296.6848284859183L141.9230769230769,310.88708372002674L145.3846153846154,374.16613418530346L148.84615384615384,372.0925174013921L152.30769230769232,373.8317757009346L155.76923076923077,391.54892620700787L159.23076923076923,399.82935153583617L162.69230769230768,418.6195904173107L166.15384615384616,328.8285793409028L169.6153846153846,347.4820588963128L173.0769230769231,354.0699020137335L176.53846153846155,361.1097104163665L180,364.6689419795222L183.46153846153845,400.44157797960656L186.92307692307693,395.0215018193847L190.3846153846154,415.6369502868069L193.84615384615387,321.09375L197.3076923076923,360.8961038961039L200.76923076923077,344.4073654728562L204.23076923076923,350.57463189839274L207.6923076923077,352.13305972567235L211.15384615384616,361.474358974359L214.6153846153846,364.0803337433813L218.07692307692307,389.02966926070036L221.53846153846155,313.5428665459931L225,332.2035185594344L228.46153846153845,336.5322580645161L231.9230769230769,342.3147823911956L235.3846153846154,349.75050700372583L238.84615384615384,366.98594643009466L242.3076923076923,353.37734111145227L245.76923076923075,380.85514850734955L249.23076923076925,309.92149022285076L252.6923076923077,353.306942875585L256.15384615384613,347.3986975397974L259.6153846153846,350.9189048390831L263.0769230769231,352.68805970149253L266.53846153846155,356.53864734299515L270,349.103258672273L273.46153846153845,385.67705878392024L276.92307692307696,306.5100107900731L280.3846153846154,327.33784224250326L283.8461538461538,327.6868101326133L287.30769230769226,347.8458391646032L290.7692307692308,336.39819800021974L294.2307692307692,344.4429032146201L297.6923076923077,338.11289314726093L301.15384615384613,365.45613151864455L304.61538461538464,321.684225362038L308.0769230769231,319.3671413685308L311.53846153846155,340.0824236323025L315,332.1849139161038L318.46153846153845,333.1454005934718L321.9230769230769,339.7251163261177L325.38461538461536,344.056536414384L328.8461538461538,364.75430782710276L332.3076923076923,304.17849387922075L335.7692307692308,317.8532909988912L339.2307692307692,328.34373910563187L342.6923076923077,326.7037679257663L346.1538461538462,334.8563619619144L349.61538461538464,363.5724240312661L353.0769230769231,332.32718362640526L356.53846153846155,359.3082535069249L360,312.90506780870805L363.46153846153845,330.2288574718526L366.9230769230769,326.2130912565695L370.38461538461536,323.51521560704595L373.84615384615387,341.6704785617093L377.3076923076923,342.65346282348946L380.7692307692308,329.6661896556759L384.2307692307692,368.6818971610319L387.69230769230774,313.3763440860215L391.1538461538462,318.760688682233L394.6153846153846,328.8512518409426L398.07692307692304,331.80628896806206L401.53846153846155,326.59123505976095L405,333.40448768864184L408.46153846153845,326.9005937913423L411.9230769230769,357.4682651622002L415.3846153846154,304.26210495795885L418.84615384615387,317.08534145676094L422.3076923076923,319.12408975193887L425.7692307692308,326.9423505680008L429.2307692307692,317.27957082287793L432.6923076923077,335.9504953775804L436.15384615384613,308.06074766355147L439.6153846153846,355.93058907307034L443.0769230769231,300.63628546861565L446.53846153846155,318.66907547982896L450,318.7285840159253L453.46153846153845,323.29718621561807L456.9230769230769,326.2402957486136L460.38461538461536,335.37067819148933L463.8461538461538,318.56376003933786L467.3076923076923,347.9184747233673L470.7692307692308,302.2988070441204L474.2307692307692,314.21748736117183L477.6923076923077,315.5336431444527L481.15384615384613,316.28215218058966L484.6153846153846,321.3839750260145L488.07692307692304,330.36618444846295L491.5384615384615,310.8087739032621L495.00000000000006,349.08598787412177L498.4615384615385,293.15950326898536L501.92307692307696,314.21242004264394L505.3846153846154,314.03724747474746L508.8461538461538,320.71490116573744L512.3076923076923,315.6627978008553L515.7692307692307,333.7634029345372L519.2307692307692,308.5788297440064L522.6923076923077,333.2176287051482L526.1538461538462,303.0483870967742L529.6153846153846,318.562234794908L533.0769230769231,304.99609756097567L536.5384615384615,319.0767149669846L540,321.2934518997575L543.4615384615385,332.1217609955677L546.9230769230769,301.359542127979L550.3846153846155,338.74797373966607L553.8461538461539,297.18897856944056L557.3076923076924,314.7235649546828L560.7692307692308,313.0019727249335L564.2307692307692,320.03739669421486L567.6923076923076,314.301424643839L571.1538461538461,323.98318225190843L574.6153846153845,306.16458978004516L578.0769230769231,330.2293073363174L581.5384615384615,299.8698915763136L585,308.3745094898694L588.4615384615385,310.20448289421944L591.9230769230769,317.2586455331413L595.3846153846154,317.64653042892434L598.8461538461538,324.3011704356622L602.3076923076923,315.59787814042585L605.7692307692308,332.2622394404827L609.2307692307693,296.3370751960634L612.6923076923077,308.05090630024847L616.1538461538462,309.99928212491034L619.6153846153846,315.27547393364927L623.0769230769231,315.16238019720055L626.5384615384615,323.2106884898284L630,303.4400674109964L633.4615384615385,336.9001478834186L636.9230769230769,294.98021481062744L640.3846153846154,309.74541040308634L643.8461538461538,321.545988258317L647.3076923076923,314.10403975633216L650.7692307692307,313.6637438048037L654.2307692307692,320.7243377483444L657.6923076923076,316.07241996175435L661.1538461538462,339.66936251189344L664.6153846153846,294.49723756906076L668.0769230769231,311.93986170922545L671.5384615384615,312.67648643793785L675,320.7265264976959L678.4615384615385,314.98167006109975L681.9230769230769,320.61727175201855L685.3846153846154,300.9387339954529L688.8461538461538,370.3062733145301L692.3076923076924,293.08539447553704L695.7692307692308,310.5132347982466L699.2307692307693,317.8988179156274L702.6923076923077,314.63461329567673L706.1538461538462,339.5169366715759L709.6153846153846,320.2429123374928L713.0769230769231,301.4187958721925L716.5384615384615,337.0024791797044L720,299.42458587619876L723.4615384615385,321.14322551572207L726.9230769230769,313.8986414287895L730.3846153846154,313.22484086086695L733.8461538461538,329.9802092168504L737.3076923076923,315.76101911453975L740.7692307692307,307.20138401363954L744.2307692307692,338.3142038895302L747.6923076923077,299.6698137022265L751.1538461538462,332.4607860612272L754.6153846153846,308.5889482037224L758.0769230769231,314.7442505947661L761.5384615384615,311.27123005661343L765,321.8497632660354L768.4615384615385,305.7499414656989L771.9230769230769,406.7054600329248L775.3846153846155,296.040290777783L778.8461538461539,314.1920164718385L782.3076923076924,330.21004225702217L785.7692307692308,332.64639456335965L789.2307692307692,372.61012762453686L792.6923076923076,346.55140062924073L796.1538461538461,334.1760926969613L799.6153846153845,389.5794544273652L803.0769230769231,321.83697458554576L806.5384615384615,328.85273033531803L810,322.7847045743329L813.4615384615385,328.9661842257207L816.9230769230769,348.8864528448673L820.3846153846154,367.48977305931624L823.8461538461538,339.5466839770637L827.3076923076923,370.20390938062036L830.7692307692308,308.94102726696264L834.2307692307693,331.9532522532305L837.6923076923077,326.32641841372237L841.1538461538462,348.70669225634185L844.6153846153846,373.24531007288806L848.0769230769231,366.1363636363637L851.5384615384615,363.6238588321794L855,381.48638968481373L858.4615384615385,338.0579216354344L861.9230769230769,369.7177959683058L865.3846153846154,364.6628865066005L868.8461538461538,352.10235163410795L872.3076923076923,350.6464229620277L875.7692307692307,342.14383886255916L879.2307692307692,339.9288627525372L882.6923076923076,355.53069619320024L886.1538461538462,330.73472544470224" style="fill: none; stroke: #ff7f0e; stroke-width: 2;"></path></g></g><path class="foreground" d="" style="display: none; fill: none;"></path></g><g transform="translate(0,0)"><path class="background" d="M0,0h900v600h-900Z" style="fill: none;"></path><g><g class="mark-line role-mark marks"><path d="M6.923076923076923,569.5967982796726L10.384615384615385,555.2028377689805L13.846153846153847,549.4855201019465L17.30769230769231,541.6631828316611L20.76923076923077,541.4511469614425L24.230769230769234,534.2674323306605L27.692307692307693,378.3543714575175L31.153846153846157,424.61253112894303L34.61538461538462,444.6808242326414L38.07692307692308,455.6657866471255L41.53846153846154,468.58582487987184L45,481.15287769784175L48.46153846153847,490.37278631304895L51.92307692307693,500.62397198823703L55.38461538461539,292.3728097527611L58.84615384615385,357.6741751192234L62.307692307692314,373.67752471822433L65.76923076923077,395.1388183152665L69.23076923076924,409.9445700959769L72.6923076923077,430.73192395313515L76.15384615384616,427.3071876171603L79.61538461538461,466.8803879861331L83.07692307692308,272.7471733966746L86.53846153846155,324.453993033485L90,350.18061780413836L93.46153846153847,376.0058319576821L96.92307692307693,381.60633484162895L100.38461538461539,401.6656961666063L103.84615384615385,396.22248173491744L107.3076923076923,438.30360338194504L110.76923076923077,279.09154592043654L114.23076923076923,331.74090713935226L117.6923076923077,318.42033667743584L121.15384615384615,368.11342482440944L124.61538461538463,351.8309593078173L128.07692307692307,381.3917927614764L131.53846153846155,393.1203033920921L135,408.3720355731225L138.46153846153848,243.8839656208564L141.9230769230769,271.0549746206973L145.3846153846154,349.4380214393583L148.84615384615384,364.58600316218684L152.30769230769232,353.3573141486811L155.76923076923077,372.94213349749356L159.23076923076923,391.9410812061386L162.69230769230768,408.1681651001226L166.15384615384616,306.29874025194954L169.6153846153846,324.5568652150441L173.0769230769231,327.2377203491357L176.53846153846155,345.23507720672967L180,352.505384063173L183.46153846153845,391.9077915286735L186.92307692307693,389.65205091937764L190.3846153846154,406.1763638394103L193.84615384615387,299.84235417761425L197.3076923076923,341.7409600997506L200.76923076923077,321.61355228143054L204.23076923076923,336.0683277830637L207.6923076923077,339.0711159115457L211.15384615384616,351.5305855242485L214.6153846153846,357.78430618856737L218.07692307692307,383.473067414662L221.53846153846155,296.6366540807435L225,311.40710382513663L228.46153846153845,316.82557487380814L231.9230769230769,330.25096878927525L235.3846153846154,336.62066911545713L238.84615384615384,359.0523286583753L242.3076923076923,348.4003042777877L245.76923076923075,374.38482390108817L249.23076923076925,292.44959156240316L252.6923076923077,338.9752208989627L256.15384615384613,333.0851244584148L259.6153846153846,340.57764961215383L263.0769230769231,342.08265234648616L266.53846153846155,351.94503691550455L270,345.0104778731972L273.46153846153845,377.16176007281126L276.92307692307696,289.7731592953998L280.3846153846154,311.5311889344419L283.8461538461538,307.6687883609911L287.30769230769226,337.8067164179105L290.7692307692308,325.68815032206425L294.2307692307692,340.3551421625621L297.6923076923077,334.4718594910422L301.15384615384613,360.38972439967364L304.61538461538464,309.3970052610279L308.0769230769231,304.775094091424L311.53846153846155,327.5605091340763L315,322.0409372120574L318.46153846153845,324.1587321873602L321.9230769230769,336.2659298233627L325.38461538461536,334.8219509734692L328.8461538461538,360.259167212334L332.3076923076923,290.77894736842103L335.7692307692308,303.78029207379444L339.2307692307692,313.6223313621329L342.6923076923077,318.5704748729168L346.1538461538462,325.6041320789522L349.61538461538464,358.62155892360033L353.0769230769231,329.0625L356.53846153846155,351.6331058542705L360,301.26632419384794L363.46153846153845,318.86250000000007L366.9230769230769,312.7351112893523L370.38461538461536,314.5213494132986L373.84615384615387,336.171018006564L377.3076923076923,337.8888856846234L380.7692307692308,325.96068446918116L384.2307692307692,361.96625553063825L387.69230769230774,304.6426592797784L391.1538461538462,307.64141625763205L394.6153846153846,319.0113617093437L398.07692307692304,324.4431461628971L401.53846153846155,318.36895498867324L405,327.2042044388872L408.46153846153845,323.62693816551473L411.9230769230769,342.49973259172106L415.3846153846154,293.00225733634306L418.84615384615387,305.3217939003599L422.3076923076923,307.24291135725525L425.7692307692308,319.04167152178974L429.2307692307692,308.7186497087841L432.6923076923077,331.6648146277402L436.15384615384613,306.4689675174014L439.6153846153846,348.8768469898644L443.0769230769231,293.620017013288L446.53846153846155,307.8013427440179L450,307.0061529047829L453.46153846153845,315.57277956517504L456.9230769230769,320.8569454042847L460.38461538461536,329.98473541383987L463.8461538461538,315.79202184887856L467.3076923076923,341.1606081984257L470.7692307692308,292.1860009789525L474.2307692307692,304.2699579831933L477.6923076923077,305.6003718223335L481.15384615384613,308.975250059069L484.6153846153846,314.4652650822669L488.07692307692304,327.8475950182521L491.5384615384615,306.7068486899646L495.00000000000006,343.0777000394166L498.4615384615385,284.0661222863972L501.92307692307696,304.86760982054386L505.3846153846154,303.2980349344979L508.8461538461538,313.9886328246653L512.3076923076923,310.02388121690376L515.7692307692307,330.1079805491991L519.2307692307692,304.67881408276713L522.6923076923077,329.51921287681427L526.1538461538462,295.49720901385155L529.6153846153846,310.6497818710616L533.0769230769231,294.50495049504957L536.5384615384615,311.59142265323413L540,318.6398258977149L543.4615384615385,328.1360294117647L546.9230769230769,297.41325221028615L550.3846153846155,332.63706867949566L553.8461538461539,289.70434451944107L557.3076923076924,305.9673042704626L560.7692307692308,304.27662395050817L564.2307692307692,314.13101265822786L567.6923076923076,307.6023192360164L571.1538461538461,320.24601063829783L574.6153846153845,303.8612609575185L578.0769230769231,326.8934331797235L581.5384615384615,292.06229676536026L585,301.83185949398177L588.4615384615385,297.97131147540983L591.9230769230769,312.5499228989977L595.3846153846154,312.7657630216266L598.8461538461538,324.2015394622723L602.3076923076923,309.49804334738116L605.7692307692308,329.3486171761281L609.2307692307693,289.7777079569555L612.6923076923077,300.0715197477099L616.1538461538462,300.3627058299956L619.6153846153846,314.2598097502973L623.0769230769231,310.45069040442974L626.5384615384615,319.4743116185359L630,299.89980814325304L633.4615384615385,332.18042401053754L636.9230769230769,287.6074685193226L640.3846153846154,301.17869615832365L643.8461538461538,314.27710843373495L647.3076923076923,307.77036770007214L650.7692307692307,311.4821691529548L654.2307692307692,316.641106202949L657.6923076923076,311.60714285714283L661.1538461538462,332.6208611174983L664.6153846153846,289.12229644817774L668.0769230769231,306.3834621329212L671.5384615384615,306.36458205849954L675,310.0886503617772L678.4615384615385,308.1546803312876L681.9230769230769,318.35918378962947L685.3846153846154,299.59072059618967L688.8461538461538,360.1022711075213L692.3076923076924,287.039764359352L695.7692307692308,305.4815608919382L699.2307692307693,301.07389105952655L702.6923076923077,310.86575500770414L706.1538461538462,339.79795998430757L709.6153846153846,319.0842245989305L713.0769230769231,296.8687321418567L716.5384615384615,331.78617016053806L720,293.3763201778766L723.4615384615385,314.788369949301L726.9230769230769,303.8943598925694L730.3846153846154,307.4458846570118L733.8461538461538,321.5027216174184L737.3076923076923,311.58020043877144L740.7692307692307,303.92018660311345L744.2307692307692,327.2577398306261L747.6923076923077,295.19163763066206L751.1538461538462,325.5384L754.6153846153846,298.57178390209936L758.0769230769231,306.403519300941L761.5384615384615,307.4662242237497L765,320.0994471413161L768.4615384615385,305.7912725910666L771.9230769230769,405.12516904352105L775.3846153846155,292.312427856868L778.8461538461539,311.79284247186996L782.3076923076924,326.4934901301974L785.7692307692308,326.3434063645451L789.2307692307692,370.3250398503015L792.6923076923076,341.3651748414049L796.1538461538461,332.18114675984754L799.6153846153845,387.6419408202759L803.0769230769231,307.51566295870094L806.5384615384615,316.75883869383745L810,314.20542000982476L813.4615384615385,325.94918849492075L816.9230769230769,341.83880466790276L820.3846153846154,363.9102162589833L823.8461538461538,330.68911511354736L827.3076923076923,368.6417135233013L830.7692307692308,304.5975624472065L834.2307692307693,324.4529302325581L837.6923076923077,317.0767656865717L841.1538461538462,330.01694398622965L844.6153846153846,366.8231246544204L848.0769230769231,359.99035657164364L851.5384615384615,358.9719480194927L855,370.10056154869216L858.4615384615385,331.8781413478306L861.9230769230769,370.31996339124873L865.3846153846154,353.18249396023043L868.8461538461538,341.6164597272259L872.3076923076923,351.7473555112678L875.7692307692307,327.3072874899759L879.2307692307692,331.93671381085835L882.6923076923076,347.1117770863836L886.1538461538462,324.51155583396525" style="fill: none; stroke: #1f77b4; stroke-width: 2;"></path></g></g><path class="foreground" d="" style="display: none; fill: none;"></path></g><g transform="translate(0,0)"><path class="background" d="M0,0h900v600h-900Z" style="fill: none;"></path><g><g class="mark-line role-mark marks"><path d="M6.923076923076923,571.9247970846446L10.384615384615385,560.8596722772617L13.846153846153847,551.8225190839695L17.30769230769231,541.6989304217035L20.76923076923077,537.3253529428275L24.230769230769234,529.3792920353983L27.692307692307693,404.4788316932228L31.153846153846157,468.0975313691599L34.61538461538462,462.85210670824716L38.07692307692308,470.6954903042946L41.53846153846154,484.8055653775625L45,479.09692708084617L48.46153846153847,482.5740408937605L51.92307692307693,493.72170832513285L55.38461538461539,369.7697638029953L58.84615384615385,414.39959271880974L62.307692307692314,435.7379762109981L65.76923076923077,436.12433242762114L69.23076923076924,452.82350626352724L72.6923076923077,452.5805829734732L76.15384615384616,454.05452622321525L79.61538461538461,467.501023164443L83.07692307692308,322.32025770487303L86.53846153846155,372.27925806366255L90,382.96744046202224L93.46153846153847,401.33142128049377L96.92307692307693,407.70952519311885L100.38461538461539,415.130253971562L103.84615384615385,425.4720081116859L107.3076923076923,433.54831433874995L110.76923076923077,331.73450786592633L114.23076923076923,366.6165616519396L117.6923076923077,358.3406204063171L121.15384615384615,397.17307736508224L124.61538461538463,385.814960943274L128.07692307692307,397.55729083346665L131.53846153846155,398.5923626834915L135,419.148092884454L138.46153846153848,281.0955598014389L141.9230769230769,318.59066234153124L145.3846153846154,363.9979013641133L148.84615384615384,377.38668555240787L152.30769230769232,371.97228637413394L155.76923076923077,387.1847181008902L159.23076923076923,393.80158972791196L162.69230769230768,411.95920683669385L166.15384615384616,313.8794194993669L169.6153846153846,347.16922695738356L173.0769230769231,351.1515340776017L176.53846153846155,364.6362668559262L180,369.9299299299299L183.46153846153845,397.72534733988476L186.92307692307693,390.30456852791883L190.3846153846154,403.57142857142856L193.84615384615387,296.8612585291887L197.3076923076923,350.85854333313284L200.76923076923077,340.88684830544315L204.23076923076923,351.9823973176865L207.6923076923077,356.0586734693877L211.15384615384616,364.2830526158891L214.6153846153846,368.33035714285717L218.07692307692307,389.71153846153845L221.53846153846155,294.3999063725203L225,325.1173649027913L228.46153846153845,332.02648367554815L231.9230769230769,340.5234988917993L235.3846153846154,354.06535341830823L238.84615384615384,368.32976422695276L242.3076923076923,353.39897372922235L245.76923076923075,377.83356377462843L249.23076923076925,281.56736791392325L252.6923076923077,337.6425476231337L256.15384615384613,338.5164995214515L259.6153846153846,351.1109932906609L263.0769230769231,352.4478972137148L266.53846153846155,355.0694585071484L270,347.18161818626254L273.46153846153845,367.40765099199825L276.92307692307696,282.57261410788374L280.3846153846154,312.862414187643L283.8461538461538,318.2450086270643L287.30769230769226,342.0607884883636L290.7692307692308,338.5907307859945L294.2307692307692,338.1036994918086L297.6923076923077,333.93806870282845L301.15384615384613,357.52575376884425L304.61538461538464,294.8943566765808L308.0769230769231,307.4052076920292L311.53846153846155,328.69668013003644L315,328.8056251204007L318.46153846153845,329.79625050859124L321.9230769230769,330.76514596630744L325.38461538461536,333.58568967264614L328.8461538461538,356.9459112854557L332.3076923076923,285.8181818181818L335.7692307692308,308.5303356356947L339.2307692307692,316.22955704164735L342.6923076923077,319.4280238637457L346.1538461538462,329.6519552903402L349.61538461538464,355.895867872001L353.0769230769231,329.20472440944883L356.53846153846155,341.0374920229738L360,283.04176516942476L363.46153846153845,313.15845090951495L366.9230769230769,314.8412566765086L370.38461538461536,316.83796191523066L373.84615384615387,330.22040816326535L377.3076923076923,330.3217814437884L380.7692307692308,323.86790764274207L384.2307692307692,350.1228765031495L387.69230769230774,291.0046367851623L391.1538461538462,301.0837234921509L394.6153846153846,315.9121042404846L398.07692307692304,321.87974203338393L401.53846153846155,317.51572430599003L405,325.2632697393276L408.46153846153845,316.4313324601477L411.9230769230769,334.83220737259506L415.3846153846154,273.8609112709832L418.84615384615387,297.4705853753403L422.3076923076923,302.5626155919877L425.7692307692308,317.18800398791893L429.2307692307692,310.3625565109477L432.6923076923077,322.24642732659464L436.15384615384613,311.1683456522359L439.6153846153846,337.15321936411567L443.0769230769231,276.75167120574395L446.53846153846155,301.2282616348659L450,306.20717864812354L453.46153846153845,313.5902218731593L456.9230769230769,317.16086319943986L460.38461538461536,324.543317184383L463.8461538461538,311.2637154748392L467.3076923076923,331.7687290776867L470.7692307692308,274.7815893811412L474.2307692307692,297.475111406087L477.6923076923077,300.1099217785097L481.15384615384613,305.97642729261986L484.6153846153846,311.29852125693156L488.07692307692304,313.44929911824556L491.5384615384615,303.42497885103427L495.00000000000006,329.76290422885563L498.4615384615385,271.562470884189L501.92307692307696,296.3082021071712L505.3846153846154,299.19313779745437L508.8461538461538,307.0238728200766L512.3076923076923,302.2326474037744L515.7692307692307,318.5695466295486L519.2307692307692,300.61051972448337L522.6923076923077,323.3151708384886L526.1538461538462,272.83873833851624L529.6153846153846,304.3732666402536L533.0769230769231,290.56590257879657L536.5384615384615,303.7249734016829L540,306.476208494939L543.4615384615385,314.8659499183451L546.9230769230769,292.7396466840429L550.3846153846155,318.6341218575419L553.8461538461539,272.9131175468484L557.3076923076924,294.21470207253884L560.7692307692308,295.17081169718506L564.2307692307692,304.71168933054395L567.6923076923076,301.4157596865477L571.1538461538461,310.85485214493957L574.6153846153845,296.2311948815494L578.0769230769231,317.49841105902914L581.5384615384615,267.1390250670613L585,294.0149987396017L588.4615384615385,290.1488395560041L591.9230769230769,303.1902316694531L595.3846153846154,311.6238532110092L598.8461538461538,307.8812294266248L602.3076923076923,302.4213691026827L605.7692307692308,317.0106174807943L609.2307692307693,269.419938059764L612.6923076923077,288.2260771152045L616.1538461538462,292.44689760182723L619.6153846153846,301.61219049010293L623.0769230769231,298.7969376594969L626.5384615384615,307.9410222346525L630,290.4639401934917L633.4615384615385,315.4573170731707L636.9230769230769,265.58413387046795L640.3846153846154,286.02047057130517L643.8461538461538,313.83223043985987L647.3076923076923,295.433602021996L650.7692307692307,296.9291815185957L654.2307692307692,303.719262295082L657.6923076923076,303.2589774998388L661.1538461538462,314.0811716252766L664.6153846153846,267.880158281515L668.0769230769231,290.2395316984086L671.5384615384615,296.34942732392585L675,303.16613604359276L678.4615384615385,297.8942823660026L681.9230769230769,302.56386751622983L685.3846153846154,286.10211002260735L688.8461538461538,367.0314446546394L692.3076923076924,263.2329635499207L695.7692307692308,289.33553464809114L699.2307692307693,289.5691867056507L702.6923076923077,294.8988153998026L706.1538461538462,340.20564042303175L709.6153846153846,308.33446736704593L713.0769230769231,285.8144126357354L716.5384615384615,310.69437089599666L720,273.73513929141774L723.4615384615385,295.2988565488565L726.9230769230769,287.53820505696024L730.3846153846154,291.7497963616617L733.8461538461538,316.41708318899396L737.3076923076923,297.90330582828494L740.7692307692307,302.5930830744156L744.2307692307692,318.89308881045497L747.6923076923077,273.1696060656008L751.1538461538462,312.8719512195122L754.6153846153846,286.27368748058404L758.0769230769231,296.35893043348733L761.5384615384615,295.6500295916354L765,303.1402250083425L768.4615384615385,308.4531155755579L771.9230769230769,411.0093445408209L775.3846153846155,268.93810805216316L778.8461538461539,297.78595842307334L782.3076923076924,322.9680520695963L785.7692307692308,323.3473345123799L789.2307692307692,375.27006408300275L792.6923076923076,336.969807238395L796.1538461538461,332.213046412832L799.6153846153845,389.34490819580765L803.0769230769231,296.58855778583427L806.5384615384615,310.2980998618842L810,309.88239694148933L813.4615384615385,329.6218608401812L816.9230769230769,336.55203116304955L820.3846153846154,367.512417218543L823.8461538461538,328.7979722117912L827.3076923076923,372.3942902681418L830.7692307692308,283.38003880146584L834.2307692307693,312.8382387156817L837.6923076923077,311.33451888506596L841.1538461538462,331.37519177935565L844.6153846153846,372.3135067038604L848.0769230769231,355.0901628852123L851.5384615384615,360.3717506754868L855,372.8198744158878L858.4615384615385,318.7014384618144L861.9230769230769,370.22649982560165L865.3846153846154,353.70885489105234L868.8461538461538,344.73663721876187L872.3076923076923,351.8158410985777L875.7692307692307,325.7494623294577L879.2307692307692,330.0187081528161L882.6923076923076,335.78024412008415L886.1538461538462,311.76819592963085" style="fill: none; stroke: #aec7e8; stroke-width: 2;"></path></g></g><path class="foreground" d="" style="display: none; fill: none;"></path></g><g transform="translate(0,0)"><path class="background" d="M0,0h900v600h-900Z" style="fill: none;"></path><g><g class="mark-line role-mark marks"><path d="M6.923076923076923,557.2180703669494L10.384615384615385,532.2644466788904L13.846153846153847,510.1591793420587L17.30769230769231,474.8791817894903L20.76923076923077,461.45082765335934L24.230769230769234,422.71404280856166L27.692307692307693,418.7643020594966L31.153846153846157,466.71442556138624L34.61538461538462,460.58952840017866L38.07692307692308,444.2600869258027L41.53846153846154,444.5961590277713L45,424.3981038590664L48.46153846153847,399.07942448362L51.92307692307693,388.0881928406467L55.38461538461539,346.90628073137407L58.84615384615385,415.1676193125774L62.307692307692314,393.56896026018904L65.76923076923077,386.5909508437656L69.23076923076924,378.8483531564501L72.6923076923077,368.11239715665346L76.15384615384616,343.90331397335154L79.61538461538461,345.1644933880109L83.07692307692308,332.70972890619333L86.53846153846155,376.63745234268106L90,359.33864298155805L93.46153846153847,357.6818829784501L96.92307692307693,347.46471261044985L100.38461538461539,343.04859472087094L103.84615384615385,324.288543037562L107.3076923076923,323.486727378415L110.76923076923077,312.667068838394L114.23076923076923,355.2668333477024L117.6923076923077,341.4185871337445L121.15384615384615,352.7822395594309L124.61538461538463,307.1482648019187L128.07692307692307,321.44076061595894L131.53846153846155,302.53845301623056L135,322.8979226819871L138.46153846153848,284.2223051100336L141.9230769230769,315.2109400952276L145.3846153846154,348.75495074642015L148.84615384615384,341.7819129937852L152.30769230769232,315.59526282983586L155.76923076923077,320.2944637453771L159.23076923076923,313.7506631299735L162.69230769230768,324.1724610713936L166.15384615384616,320.6542411563331L169.6153846153846,345.8257223513783L173.0769230769231,332.8164291701592L176.53846153846155,336.63635641677257L180,326.3809523809524L183.46153846153845,353.1719503790489L186.92307692307693,327.8855302642172L190.3846153846154,333.9902751913925L193.84615384615387,312.2211026342306L197.3076923076923,350.43827941442265L200.76923076923077,329.58199356913184L204.23076923076923,327.71319018404915L207.6923076923077,314.35683614412847L211.15384615384616,316.3363228699552L214.6153846153846,305.2856283824414L218.07692307692307,330.5534849049571L221.53846153846155,306.9524718029291L225,332.7202436738519L228.46153846153845,321.2597239648682L231.9230769230769,320.9271047784158L235.3846153846154,316.7997438087105L238.84615384615384,333.78581522268786L242.3076923076923,294.5651583464609L245.76923076923075,321.9635904830569L249.23076923076925,301.17847993168226L252.6923076923077,344.1089885759718L256.15384615384613,336.8410252114918L259.6153846153846,331.9927130044843L263.0769230769231,323.8695163104612L266.53846153846155,318.781155706196L270,294.7625918153201L273.46153846153845,313.10201506289565L276.92307692307696,297.34185040181336L280.3846153846154,322.46423091278564L283.8461538461538,310.54209183673464L287.30769230769226,331.2792076178821L290.7692307692308,308.335224509645L294.2307692307692,306.28910764816067L297.6923076923077,282.03102169270534L301.15384615384613,307.38402061855675L304.61538461538464,310.94961027555166L308.0769230769231,313.962330949515L311.53846153846155,326.9753147615743L315,314.45792907609615L318.46153846153845,306.5606199653309L321.9230769230769,305.91439429295286L325.38461538461536,292.58748891465996L328.8461538461538,312.2561890472618L332.3076923076923,297.2326719917546L335.7692307692308,315.37647437635576L339.2307692307692,310.84975037107L342.6923076923077,308.34247465990927L346.1538461538462,308.83763416305095L349.61538461538464,333.9452805376972L353.0769230769231,286.5947752126367L356.53846153846155,296.3364709278086L360,301.59876352395673L363.46153846153845,322.60730143068577L366.9230769230769,312.6939605775842L370.38461538461536,305.89936391895003L373.84615384615387,314.86674761935205L377.3076923076923,307.646916915951L380.7692307692308,285.33653846153845L384.2307692307692,311.00521232561704L387.69230769230774,304.13270025282117L391.1538461538462,311.7224435590969L394.6153846153846,316.3497860199715L398.07692307692304,314.68104007445214L401.53846153846155,299.0017251966431L405,301.7094881362691L408.46153846153845,279.0061475409836L411.9230769230769,297.397625698324L415.3846153846154,292.89955674500294L418.84615384615387,309.7388512252768L422.3076923076923,305.6353539740647L425.7692307692308,312.60354897344973L429.2307692307692,293.7673779249587L432.6923076923077,302.60531737027526L436.15384615384613,270.7134955752213L439.6153846153846,304.9742482497418L443.0769230769231,292.4381625441696L446.53846153846155,313.84078494841185L450,308.66993408822043L453.46153846153845,310.28137310073157L456.9230769230769,305.14831773840336L460.38461538461536,306.53557138674745L463.8461538461538,279.71600447677673L467.3076923076923,300.22737534670705L470.7692307692308,294.2017051901319L474.2307692307692,308.41385402705004L477.6923076923077,306.22963381190516L481.15384615384613,301.9206025894406L484.6153846153846,300.7185628742515L488.07692307692304,299.84280639431614L491.5384615384615,278.74668082846523L495.00000000000006,300.38525626292807L498.4615384615385,286.78592583817084L501.92307692307696,307.7314108155256L505.3846153846154,301.8332419089413L508.8461538461538,305.142604880137L512.3076923076923,291.8843777581642L515.7692307692307,306.06152647975074L519.2307692307692,269.2956501690747L522.6923076923077,294.91788225417145L526.1538461538462,293.3416614615865L529.6153846153846,317.3629261363637L533.0769230769231,296.04041013269L536.5384615384615,303.9540446506233L540,299.6864111498258L543.4615384615385,304.406743792325L546.9230769230769,264.03736542115263L550.3846153846155,292.81163632898125L553.8461538461539,288.6684471575734L557.3076923076924,308.30295675198585L560.7692307692308,303.9888535031847L564.2307692307692,305.4562646726372L567.6923076923076,292.85803851321094L571.1538461538461,299.80217071694193L574.6153846153845,273.62842545285645L578.0769230769231,294.6459854014598L581.5384615384615,291.6929403701165L585,305.1872166450777L588.4615384615385,297.3759855453351L591.9230769230769,303.85038525697036L595.3846153846154,302.62062440870386L598.8461538461538,299.8625530910807L602.3076923076923,281.3973258501156L605.7692307692308,296.8645679683254L609.2307692307693,289.1673225247915L612.6923076923077,303.478026872541L616.1538461538462,299.4934166480697L619.6153846153846,311.57670855690486L623.0769230769231,295.86983729662074L626.5384615384615,300.2061652192636L630,274.2027308493404L633.4615384615385,295.119778650482L636.9230769230769,290.3414634146341L640.3846153846154,305.2757328110226L643.8461538461538,318.9915270433841L647.3076923076923,300.78870545600967L650.7692307692307,295.2691371382202L654.2307692307692,299.5562042351078L657.6923076923076,284.35399807982446L661.1538461538462,298.37705077491734L664.6153846153846,285.86017912043843L668.0769230769231,304.81400335633043L671.5384615384615,307.06367132653685L675,306.5972222222223L678.4615384615385,297.78243968655516L681.9230769230769,296.24631675874775L685.3846153846154,270.32647407993665L688.8461538461538,355.892114678012L692.3076923076924,288.37834535011604L695.7692307692308,304.4338134037181L699.2307692307693,298.5799536500579L702.6923076923077,300.9761823459109L706.1538461538462,345.8184431137724L709.6153846153846,307.09082709233036L713.0769230769231,268.04159764402726L716.5384615384615,297.69546812749L720,293.1033715366641L723.4615384615385,314.320210310336L726.9230769230769,301.9638503127319L730.3846153846154,301.2878229753197L733.8461538461538,316.9913077834848L737.3076923076923,295.7742978857684L740.7692307692307,290.73146186440675L744.2307692307692,311.37671400587664L747.6923076923077,295.53485515405873L751.1538461538462,331.37147651006717L754.6153846153846,305.4297520661157L758.0769230769231,307.52690357757797L761.5384615384615,301.9848360457816L765,304.9406538734897L768.4615384615385,293.7763157894737L771.9230769230769,393.51112160489805L775.3846153846155,291.0046367851623L778.8461538461539,313.27791844349684L782.3076923076924,332.51499219584326L785.7692307692308,328.69394202180376L789.2307692307692,369.9503661795842L792.6923076923076,334.8734089377057L796.1538461538461,328.72340425531917L799.6153846153845,380.1555078036643L803.0769230769231,308.48477125015927L806.5384615384615,325.399789740945L810,323.5531004989308L813.4615384615385,334.0338634131601L816.9230769230769,339.0209481808159L820.3846153846154,367.27065189132986L823.8461538461538,322.7064695718948L827.3076923076923,367.13261390887294L830.7692307692308,301.5240804714489L834.2307692307693,328.4839957468651L837.6923076923077,319.7947313119183L841.1538461538462,343.2039190940719L844.6153846153846,370.30864197530866L848.0769230769231,352.963605551969L851.5384615384615,359.5802823045524L855,367.1412213740458L858.4615384615385,331.8322960125846L861.9230769230769,376.8992887985776L865.3846153846154,357.47915271775514L868.8461538461538,341.0917808219178L872.3076923076923,350.3157764894536L875.7692307692307,318.997779155046L879.2307692307692,330.08957868486675L882.6923076923076,331.3451879455606L886.1538461538462,324.25700425700427" style="fill: none; stroke: #2ca02c; stroke-width: 2;"></path></g></g><path class="foreground" d="" style="display: none; fill: none;"></path></g><g transform="translate(0,0)"><path class="background" d="M0,0h900v600h-900Z" style="fill: none;"></path><g><g class="mark-line role-mark marks"><path d="M6.923076923076923,567.800341620801L10.384615384615385,555.1887865124486L13.846153846153847,547.1899791231733L17.30769230769231,563.7508903133903L20.76923076923077,556.1521721361723L24.230769230769234,548.1836325063782L27.692307692307693,539.6213577369916L31.153846153846157,544.1504807421079L34.61538461538462,540.0298186917049L38.07692307692308,537.8475259098452L41.53846153846154,537.4141709276845L45,549.1116695544848L48.46153846153847,545.3615901977759L51.92307692307693,540.598652494319L55.38461538461539,530.5403732777434L58.84615384615385,532.9484790393523L62.307692307692314,531.7452896611936L65.76923076923077,532.6856725005532L69.23076923076924,532.0460576720222L72.6923076923077,540.4781971418101L76.15384615384616,537.8549848942598L79.61538461538461,535.3579643473261L83.07692307692308,527.9010406440212L86.53846153846155,531.6456510550695L90,529.2248316636558L93.46153846153847,528.6720128923337L96.92307692307693,528.7577506948899L100.38461538461539,537.1062818933661L103.84615384615385,534.9194646098003L107.3076923076923,532.769547325103L110.76923076923077,524.7839612858625L114.23076923076923,526.6560139453806L117.6923076923077,526.8092032663872L121.15384615384615,526.6304347826086L124.61538461538463,527.2568968890628L128.07692307692307,532.7571483605856L131.53846153846155,531.1366469952623L135,529.8888286334056L138.46153846153848,524.1948802642445L141.9230769230769,527.2863578106152L145.3846153846154,525.8365277606034L148.84615384615384,525.0703218116805L152.30769230769232,525.9239252757146L155.76923076923077,531.6986872127244L159.23076923076923,530.9823484267075L162.69230769230768,529.009105516872L166.15384615384616,523.9283980189687L169.6153846153846,525.9053110196743L173.0769230769231,525.1860917381974L176.53846153846155,524.9953957996769L180,525.6570759657446L183.46153846153845,530.5489479978022L186.92307692307693,529.7382594727393L190.3846153846154,528.1639970199292L193.84615384615387,523.8279091919353L197.3076923076923,526.6948327729606L200.76923076923077,525.385329080893L204.23076923076923,524.8641442356527L207.6923076923077,525.3075571177504L211.15384615384616,530.2804637902657L214.6153846153846,532.781073204183L218.07692307692307,526.7701580226905L221.53846153846155,527.0614525139665L225,525.3404247947057L228.46153846153845,525.0915466837508L231.9230769230769,524.5595940290639L235.3846153846154,524.7914274779946L238.84615384615384,528.317949222594L242.3076923076923,527.5512176265945L245.76923076923075,529.9632232755803L249.23076923076925,523.19181902696L252.6923076923077,525.9538469921534L256.15384615384613,524.0767725097869L259.6153846153846,524.2834142736486L263.0769230769231,524.17215815486L266.53846153846155,528.1896551724137L270,527.2930921360953L273.46153846153845,527.410372194855L276.92307692307696,523.0696709719996L280.3846153846154,524.2618832050701L283.8461538461538,524.3127041582061L287.30769230769226,523.959181023288L290.7692307692308,524.330052990159L294.2307692307692,527.1730966874852L297.6923076923077,526.2540079768514L301.15384615384613,525.4616899667876L304.61538461538464,523.2403016403638L308.0769230769231,524.2023791654158L311.53846153846155,523.6357586512866L315,526.576668984701L318.46153846153845,523.7935174069628L321.9230769230769,527.455595026643L325.38461538461536,526.6208558587898L328.8461538461538,524.9975557293703L332.3076923076923,523.8766519823788L335.7692307692308,523.5406309751434L339.2307692307692,524.3148525866865L342.6923076923077,523.51872819634L346.1538461538462,523.853320592451L349.61538461538464,526.518220338983L353.0769230769231,525.9429432782492L356.53846153846155,524.7442138644709L360,523.1775388557741L363.46153846153845,523.967573561229L366.9230769230769,523.6237138135097L370.38461538461536,523.0172186478219L373.84615384615387,523.1957857769974L377.3076923076923,525.88906555773L380.7692307692308,525.8007887649096L384.2307692307692,524.7351715216558L387.69230769230774,523.9269406392694L391.1538461538462,522.8925120772947L394.6153846153846,523.8410626465046L398.07692307692304,524.5688691062003L401.53846153846155,523.3986694646604L405,526.1040899276006L408.46153846153845,526.4546998632918L411.9230769230769,524.9042340806056L415.3846153846154,524.3167484232656L418.84615384615387,524.0581139904805L422.3076923076923,524.6402192041935L425.7692307692308,523.8743636291882L429.2307692307692,523.9668011169717L432.6923076923077,526.1852050835525L436.15384615384613,535.6296508299943L439.6153846153846,525.8804289061092L443.0769230769231,539.0849444493045L446.53846153846155,525.9457785068583L450,524.850905032609L453.46153846153845,525.3844120856636L456.9230769230769,526.4018552261057L460.38461538461536,528.4470970812183L463.8461538461538,526.9102576381573L467.3076923076923,527.0725449581018L470.7692307692308,525.6193029490616L474.2307692307692,526.1724100697229L477.6923076923077,526.7869742198101L481.15384615384613,527.8116483516484L484.6153846153846,528.4753427402044L488.07692307692304,529.9210002488181L491.5384615384615,529.3473123007585L495.00000000000006,529.573822965344L498.4615384615385,532.1326624910155L501.92307692307696,529.0184954721177L505.3846153846154,529.8145804818841L508.8461538461538,529.0166563611068L512.3076923076923,528.9066517323015L515.7692307692307,530.4565388300616L519.2307692307692,530.3329447763368L522.6923076923077,530.2579526916803L526.1538461538462,529.2003749369096L529.6153846153846,529.0366508951711L533.0769230769231,529.4989508043833L536.5384615384615,529.4732691732094L540,529.9062507059435L543.4615384615385,531.74024239265L546.9230769230769,540.436214607856L550.3846153846155,530.8491729774955L553.8461538461539,534.9528687299468L557.3076923076924,531.0827338129496L560.7692307692308,529.9082511154402L564.2307692307692,530.2069040113728L567.6923076923076,529.5337511558615L571.1538461538461,531.1313314683649L574.6153846153845,531.6846526278947L578.0769230769231,530.9155155330186L581.5384615384615,529.978206724782L585,538.8656700130947L588.4615384615385,531.4873005838385L591.9230769230769,534.1337473278801L595.3846153846154,532.1492301050511L598.8461538461538,531.4910682226212L602.3076923076923,535.3759228567124L605.7692307692308,531.7374259191273L609.2307692307693,534.1661249187378L612.6923076923077,530.4745183019163L616.1538461538462,530.5079818344457L619.6153846153846,530.4937898766482L623.0769230769231,529.887983706721L626.5384615384615,534.5939354555846L630,532.0246257846451L633.4615384615385,532.6671160942379L636.9230769230769,530.3846339929363L640.3846153846154,529.9793405006419L643.8461538461538,533.8354808225959L647.3076923076923,530.6548331907613L650.7692307692307,529.8861090365945L654.2307692307692,531.9676226753305L657.6923076923076,539.1283360224297L661.1538461538462,530.5440284912197L664.6153846153846,532.8548571428571L668.0769230769231,536.3985496571673L671.5384615384615,532.0515144220558L675,538.021738852526L678.4615384615385,531.8220539517274L681.9230769230769,536.7066502084986L685.3846153846154,532.8130166538973L688.8461538461538,543.2465492435313L692.3076923076924,530.4124766336012L695.7692307692308,531.2752324790201L699.2307692307693,532.4340575851635L702.6923076923077,538.6942558106973L706.1538461538462,541.6482646373114L709.6153846153846,537.5160344244516L713.0769230769231,538.7540467727695L716.5384615384615,534.6876494357307L720,537.0294181440428L723.4615384615385,535.072775070531L726.9230769230769,533.3797393364929L730.3846153846154,534.2412420935567L733.8461538461538,535.7359620495912L737.3076923076923,535.4432000803536L740.7692307692307,536.404835811142L744.2307692307692,536.2755035842875L747.6923076923077,536.403348407582L751.1538461538462,538.2142232330301L754.6153846153846,536.6988780008776L758.0769230769231,536.4487591195361L761.5384615384615,538.0981041227806L765,537.9900271850074L768.4615384615385,541.448844576966L771.9230769230769,544.0230998772834L775.3846153846155,536.7491892746975L778.8461538461539,536.525838332186L782.3076923076924,539.628716313306L785.7692307692308,538.1762555401857L789.2307692307692,542.5643425362658L792.6923076923076,540.3127315414074L796.1538461538461,540.0802217424908L799.6153846153845,545.0805807139052L803.0769230769231,540.471539355667L806.5384615384615,538.45769651383L810,538.6671996345364L813.4615384615385,540.1951187402324L816.9230769230769,541.0617001145362L820.3846153846154,543.3923461805995L823.8461538461538,542.1077987350803L827.3076923076923,542.7393288727799L830.7692307692308,538.8708079807557L834.2307692307693,540.3248545457476L837.6923076923077,539.13754737743L841.1538461538462,542.1737418968324L844.6153846153846,543.8883509140234L848.0769230769231,543.1065916828975L851.5384615384615,541.8102219507228L855,544.6481737125616L858.4615384615385,543.175652173913L861.9230769230769,545.1991826803095L865.3846153846154,542.9862845123024L868.8461538461538,544.2341296288582L872.3076923076923,543.8765622075734L875.7692307692307,541.681095469487L879.2307692307692,543.2657185422242L882.6923076923076,541.3949012843984L886.1538461538462,545.0598987441646" style="fill: none; stroke: #98df8a; stroke-width: 2;"></path></g></g><path class="foreground" d="" style="display: none; fill: none;"></path></g><g transform="translate(0,0)"><path class="background" d="M0,0h900v600h-900Z" style="fill: none;"></path><g><g class="mark-line role-mark marks"><path d="M6.923076923076923,569.3846616541354L10.384615384615385,536.5505240973878L13.846153846153847,502.74100994644226L17.30769230769231,467.0985432016075L20.76923076923077,434.76066427873656L24.230769230769234,418.55554093182417L27.692307692307693,300.45379081350296L31.153846153846157,402.77135386403256L34.61538461538462,382.52967101610216L38.07692307692308,345.8853869636687L41.53846153846154,315.4883698866241L45,305.10693287948686L48.46153846153847,261.3141949772262L51.92307692307693,234.53971178522076L55.38461538461539,133.57774524158123L58.84615384615385,331.06978469102313L62.307692307692314,245.31466171756367L65.76923076923077,237.81879239084358L69.23076923076924,229.84803810387837L72.6923076923077,226.6277425921737L76.15384615384616,161.87748574136447L79.61538461538461,161.10253902351394L83.07692307692308,58.37512537612848L86.53846153846155,232.9420076259498L90,181.33212733348412L93.46153846153847,191.420039180085L96.92307692307693,167.2353415505126L100.38461538461539,188.77985348826525L103.84615384615385,107.31458545825441L107.3076923076923,132.2493016060279L110.76923076923077,89.53017546114788L114.23076923076923,184.38421088114345L117.6923076923077,175.13210855617103L121.15384615384615,147.97124030799054L124.61538461538463,132.71986490470968L128.07692307692307,150.23143783702255L131.53846153846155,100.33078980490868L135,99.77199882519696L138.46153846153848,15.57498318762609L141.9230769230769,156.03150195990952L145.3846153846154,157.47140381282497L148.84615384615384,149.82420599584444L152.30769230769232,157.65145675967312L155.76923076923077,151.8817768283727L159.23076923076923,133.82793481685135L162.69230769230768,178.23302127579424L166.15384615384616,79.3235928143712L169.6153846153846,215.8117124270055L173.0769230769231,186.63981820777607L176.53846153846155,190.74196048043396L180,172.34649576183583L183.46153846153845,197.89468969471116L186.92307692307693,146.2081280231455L190.3846153846154,183.3747125235208L193.84615384615387,109.91619634000345L197.3076923076923,189.2846519928614L200.76923076923077,190.03058688587268L204.23076923076923,186.48327587813287L207.6923076923077,158.5264980282774L211.15384615384616,178.8482023968043L214.6153846153846,142.8504803656375L218.07692307692307,160.6082313102371L221.53846153846155,112.33541880661124L225,201.8569844789357L228.46153846153845,177.6180698151951L231.9230769230769,187.49729729729728L235.3846153846154,161.07802263251935L238.84615384615384,169.60614010209872L242.3076923076923,141.06368912069337L245.76923076923075,160.73844997266266L249.23076923076925,89.88191711044229L252.6923076923077,198.10274458772034L256.15384615384613,185.32398883411537L259.6153846153846,181.03312302839115L263.0769230769231,148.91583976479234L266.53846153846155,171.19093539054967L270,148.63842662632374L273.46153846153845,178.17668575063615L276.92307692307696,108.81839523264907L280.3846153846154,184.8040864721778L283.8461538461538,176.2417618629174L287.30769230769226,186.03228424801003L290.7692307692308,161.0322580645161L294.2307692307692,171.18612289231402L297.6923076923077,161.26395781637711L301.15384615384613,160.98728770723812L304.61538461538464,103.42330259849109L308.0769230769231,179.91646254101775L311.53846153846155,163.07290932167527L315,175.29062751407884L318.46153846153845,149.95412631481392L321.9230769230769,171.37864392139923L325.38461538461536,155.85833807875952L328.8461538461538,155.5856542076127L332.3076923076923,108.53425039501805L335.7692307692308,183.8891779396462L339.2307692307692,162.3624017155111L342.6923076923077,166.82018641913493L346.1538461538462,136.00744005499163L349.61538461538464,171.45716639209226L353.0769230769231,145.94036435553187L356.53846153846155,164.52251599661952L360,109.35483870967741L363.46153846153845,175.8655804480652L366.9230769230769,146.64873417721512L370.38461538461536,165.6806010116037L373.84615384615387,154.14180782491385L377.3076923076923,162.59943694506606L380.7692307692308,139.7523866348448L384.2307692307692,164.77974788751902L387.69230769230774,79.94634800634071L391.1538461538462,179.01674316374684L394.6153846153846,163.41863452228043L398.07692307692304,173.93954707684532L401.53846153846155,138.09248165847748L405,157.41156333206533L408.46153846153845,133.02821069244428L411.9230769230769,161.55233122875183L415.3846153846154,106.6505441354293L418.84615384615387,171.8514908256881L422.3076923076923,177.79073832755935L425.7692307692308,174.0897549127843L429.2307692307692,126.93715743389977L432.6923076923077,169.7351979266298L436.15384615384613,125.88737201365193L439.6153846153846,170.4612389222093L443.0769230769231,102.7976878612716L446.53846153846155,183.0347843175788L450,166.7724609375L453.46153846153845,176.53812657247923L456.9230769230769,151.13522874873726L460.38461538461536,156.68845208845212L463.8461538461538,139.9928239278949L467.3076923076923,152.93641377541206L470.7692307692308,98.3992707383774L474.2307692307692,159.57531977546702L477.6923076923077,166.24110518950786L481.15384615384613,189.65671848972792L484.6153846153846,137.77859983353363L488.07692307692304,161.46117470661173L491.5384615384615,131.7956656346749L495.00000000000006,156.81667516573174L498.4615384615385,109.00581899220008L501.92307692307696,167.6728864948554L505.3846153846154,149.01931501393864L508.8461538461538,167.79288112195277L512.3076923076923,124.91962235264099L515.7692307692307,160.88431944401353L519.2307692307692,119.32475076098186L522.6923076923077,163.54679618063898L526.1538461538462,82.3069037227967L529.6153846153846,171.7497202054696L533.0769230769231,154.09219607149174L536.5384615384615,163.24410066300703L540,138.3090795464691L543.4615384615385,161.09943439703932L546.9230769230769,122.41544878912467L550.3846153846155,154.3735526906992L553.8461538461539,105.52946523254046L557.3076923076924,167.72905630763194L560.7692307692308,161.0939498278406L564.2307692307692,163.12258189321645L567.6923076923076,136.65180381029586L571.1538461538461,163.42755628222872L574.6153846153845,132.73174624285141L578.0769230769231,156.11091461384825L581.5384615384615,94.58426966292133L585,172.2727183743784L588.4615384615385,160.53709151625986L591.9230769230769,180.21759120252224L595.3846153846154,188.79755805080129L598.8461538461538,170.888278731539L602.3076923076923,146.60676532769563L605.7692307692308,157.27493480479225L609.2307692307693,90.70698604081377L612.6923076923077,167.18523133600596L616.1538461538462,154.36183121897412L619.6153846153846,164.79945669542983L623.0769230769231,142.1869227927595L626.5384615384615,218.4666149068323L630,126.21606461745564L633.4615384615385,155.1315378203792L636.9230769230769,78.03627569528417L640.3846153846154,155.0435913123279L643.8461538461538,202.03987730061348L647.3076923076923,165.73999220804518L650.7692307692307,131.46600124766067L654.2307692307692,155.79562079391394L657.6923076923076,145.99033339909258L661.1538461538462,156.21338612727794L664.6153846153846,103.46925839847873L668.0769230769231,192.79366372288436L671.5384615384615,177.6260892527066L675,240.1286000593825L678.4615384615385,121.90922401171301L681.9230769230769,158.59522747546828L685.3846153846154,123.31584970436764L688.8461538461538,343.3995273669767L692.3076923076924,82.28606232869757L695.7692307692308,157.8810831688267L699.2307692307693,152.00981658486177L702.6923076923077,188.23295454545453L706.1538461538462,268.64172859551616L709.6153846153846,184.34663718873637L713.0769230769231,130.61594517220433L716.5384615384615,159.20223495239634L720,149.66446240509435L723.4615384615385,194.33844416927673L726.9230769230769,154.13924351756404L730.3846153846154,161.80118110236222L733.8461538461538,208.15371991247258L737.3076923076923,149.03348405706703L740.7692307692307,202.3028197793216L744.2307692307692,208.13248005319153L747.6923076923077,145.31529465718873L751.1538461538462,250.97968259504708L754.6153846153846,157.84369527145356L758.0769230769231,179.05778894472365L761.5384615384615,219.6141280897491L765,177.84370551149073L768.4615384615385,205.36896313508763L771.9230769230769,399.82801894238355L775.3846153846155,86.72657252888318L778.8461538461539,193.25178020039073L782.3076923076924,258.5470847315436L785.7692307692308,282.38107324147927L789.2307692307692,339.0669658674855L792.6923076923076,278.63945496491397L796.1538461538461,311.4051602413247L799.6153846153845,386.3213724874372L803.0769230769231,186.94113398338752L806.5384615384615,213.60681589818026L810,273.8125496425735L813.4615384615385,284.4214996414485L816.9230769230769,306.41475111625596L820.3846153846154,332.78804895339726L823.8461538461538,296.43520659072755L827.3076923076923,324.81948537746547L830.7692307692308,175.0245934841734L834.2307692307693,254.82765451664025L837.6923076923077,212.0884201776716L841.1538461538462,290.7222815593805L844.6153846153846,367.46599681411595L848.0769230769231,312.8690815637428L851.5384615384615,331.92307692307696L855,365.96421157144147L858.4615384615385,257.95341533629943L861.9230769230769,367.25666126895334L865.3846153846154,351.852832186342L868.8461538461538,335.6557903050646L872.3076923076923,319.51501714760803L875.7692307692307,298.7839558573854L879.2307692307692,323.5121508520722L882.6923076923076,298.8708593636496L886.1538461538462,277.9030144167759" style="fill: none; stroke: #ffbb78; stroke-width: 2;"></path></g></g><path class="foreground" d="" style="display: none; fill: none;"></path></g></g><g class="mark-group role-legend"><g transform="translate(918,0)"><path class="background" d="M0,0h101v92h-101Z" style="pointer-events: none; fill: none;"></path><g><g class="mark-group role-legend-entry"><g transform="translate(0,16)"><path class="background" d="M0,0h0v0h0Z" style="pointer-events: none; fill: none;"></path><g><g class="mark-group role-scope"><g transform="translate(0,0)"><path class="background" d="M0,0h101v11h-101Z" style="pointer-events: none; fill: none; opacity: 1;"></path><g><g class="mark-symbol role-legend-symbol" style="pointer-events: none;"><path transform="translate(6,6)" d="M-5,0L5,0" style="fill: none; stroke: #1f77b4; stroke-width: 1.5; opacity: 1;"></path></g><g class="mark-text role-legend-label" style="pointer-events: none;"><text text-anchor="start" transform="translate(16,9)" style="font-family: sans-serif; font-size: 10px; fill: #000; opacity: 1;">Clang</text></g></g><path class="foreground" d="" style="pointer-events: none; display: none; fill: none;"></path></g><g transform="translate(0,13)"><path class="background" d="M0,0h101v11h-101Z" style="pointer-events: none; fill: none; opacity: 1;"></path><g><g class="mark-symbol role-legend-symbol" style="pointer-events: none;"><path transform="translate(6,6)" d="M-5,0L5,0" style="fill: none; stroke: #aec7e8; stroke-width: 1.5; opacity: 1;"></path></g><g class="mark-text role-legend-label" style="pointer-events: none;"><text text-anchor="start" transform="translate(16,9)" style="font-family: sans-serif; font-size: 10px; fill: #000; opacity: 1;">GFortran</text></g></g><path class="foreground" d="" style="pointer-events: none; display: none; fill: none;"></path></g><g transform="translate(0,26)"><path class="background" d="M0,0h101v11h-101Z" style="pointer-events: none; fill: none; opacity: 1;"></path><g><g class="mark-symbol role-legend-symbol" style="pointer-events: none;"><path transform="translate(6,6)" d="M-5,0L5,0" style="fill: none; stroke: #ff7f0e; stroke-width: 1.5; opacity: 1;"></path></g><g class="mark-text role-legend-label" style="pointer-events: none;"><text text-anchor="start" transform="translate(16,9)" style="font-family: sans-serif; font-size: 10px; fill: #000; opacity: 1;">Julia</text></g></g><path class="foreground" d="" style="pointer-events: none; display: none; fill: none;"></path></g><g transform="translate(0,39)"><path class="background" d="M0,0h101v11h-101Z" style="pointer-events: none; fill: none; opacity: 1;"></path><g><g class="mark-symbol role-legend-symbol" style="pointer-events: none;"><path transform="translate(6,6)" d="M-5,0L5,0" style="fill: none; stroke: #ffbb78; stroke-width: 1.5; opacity: 1;"></path></g><g class="mark-text role-legend-label" style="pointer-events: none;"><text text-anchor="start" transform="translate(16,9)" style="font-family: sans-serif; font-size: 10px; fill: #000; opacity: 1;">LoopVectorization</text></g></g><path class="foreground" d="" style="pointer-events: none; display: none; fill: none;"></path></g><g transform="translate(0,52)"><path class="background" d="M0,0h101v11h-101Z" style="pointer-events: none; fill: none; opacity: 1;"></path><g><g class="mark-symbol role-legend-symbol" style="pointer-events: none;"><path transform="translate(6,6)" d="M-5,0L5,0" style="fill: none; stroke: #2ca02c; stroke-width: 1.5; opacity: 1;"></path></g><g class="mark-text role-legend-label" style="pointer-events: none;"><text text-anchor="start" transform="translate(16,9)" style="font-family: sans-serif; font-size: 10px; fill: #000; opacity: 1;">icc</text></g></g><path class="foreground" d="" style="pointer-events: none; display: none; fill: none;"></path></g><g transform="translate(0,65)"><path class="background" d="M0,0h101v11h-101Z" style="pointer-events: none; fill: none; opacity: 1;"></path><g><g class="mark-symbol role-legend-symbol" style="pointer-events: none;"><path transform="translate(6,6)" d="M-5,0L5,0" style="fill: none; stroke: #98df8a; stroke-width: 1.5; opacity: 1;"></path></g><g class="mark-text role-legend-label" style="pointer-events: none;"><text text-anchor="start" transform="translate(16,9)" style="font-family: sans-serif; font-size: 10px; fill: #000; opacity: 1;">ifort</text></g></g><path class="foreground" d="" style="pointer-events: none; display: none; fill: none;"></path></g></g></g><path class="foreground" d="" style="pointer-events: none; display: none; fill: none;"></path></g></g><g class="mark-text role-legend-title" style="pointer-events: none;"><text text-anchor="start" transform="translate(0,9)" style="font-family: sans-serif; font-size: 11px; font-weight: bold; fill: #000; opacity: 1;">Method</text></g></g><path class="foreground" d="" style="pointer-events: none; display: none; fill: none;"></path></g></g></g><path class="foreground" d="" style="display: none; fill: none;"></path></g></g></g></svg>
