<?xml version="1.0" encoding="utf-8"?>
<!DOCTYPE svg PUBLIC "-//W3C//DTD SVG 1.1//EN" "http://www.w3.org/Graphics/SVG/1.1/DTD/svg11.dtd">
<svg class="marks" width="1063" height="647" viewBox="0 0 1063 647" version="1.1" xmlns="http://www.w3.org/2000/svg" xmlns:xlink="http://www.w3.org/1999/xlink"><rect width="1063" height="647" style="fill: white;"></rect><g transform="translate(39,10)"><g class="mark-group role-frame root"><g transform="translate(0,0)"><path class="background" d="M0.5,0.5h900v600h-900Z" style="fill: none; stroke: #ddd;"></path><g><g class="mark-group role-axis"><g transform="translate(0.5,600.5)"><path class="background" d="M0,0h0v0h0Z" style="pointer-events: none; fill: none;"></path><g><g class="mark-rule role-axis-grid" style="pointer-events: none;"><line transform="translate(0,-600)" x2="0" y2="600" style="fill: none; stroke: #ddd; stroke-width: 1; opacity: 1;"></line><line transform="translate(35,-600)" x2="0" y2="600" style="fill: none; stroke: #ddd; stroke-width: 1; opacity: 1;"></line><line transform="translate(69,-600)" x2="0" y2="600" style="fill: none; stroke: #ddd; stroke-width: 1; opacity: 1;"></line><line transform="translate(104,-600)" x2="0" y2="600" style="fill: none; stroke: #ddd; stroke-width: 1; opacity: 1;"></line><line transform="translate(138,-600)" x2="0" y2="600" style="fill: none; stroke: #ddd; stroke-width: 1; opacity: 1;"></line><line transform="translate(173,-600)" x2="0" y2="600" style="fill: none; stroke: #ddd; stroke-width: 1; opacity: 1;"></line><line transform="translate(208,-600)" x2="0" y2="600" style="fill: none; stroke: #ddd; stroke-width: 1; opacity: 1;"></line><line transform="translate(242,-600)" x2="0" y2="600" style="fill: none; stroke: #ddd; stroke-width: 1; opacity: 1;"></line><line transform="translate(277,-600)" x2="0" y2="600" style="fill: none; stroke: #ddd; stroke-width: 1; opacity: 1;"></line><line transform="translate(312,-600)" x2="0" y2="600" style="fill: none; stroke: #ddd; stroke-width: 1; opacity: 1;"></line><line transform="translate(346,-600)" x2="0" y2="600" style="fill: none; stroke: #ddd; stroke-width: 1; opacity: 1;"></line><line transform="translate(381,-600)" x2="0" y2="600" style="fill: none; stroke: #ddd; stroke-width: 1; opacity: 1;"></line><line transform="translate(415,-600)" x2="0" y2="600" style="fill: none; stroke: #ddd; stroke-width: 1; opacity: 1;"></line><line transform="translate(450,-600)" x2="0" y2="600" style="fill: none; stroke: #ddd; stroke-width: 1; opacity: 1;"></line><line transform="translate(485,-600)" x2="0" y2="600" style="fill: none; stroke: #ddd; stroke-width: 1; opacity: 1;"></line><line transform="translate(519,-600)" x2="0" y2="600" style="fill: none; stroke: #ddd; stroke-width: 1; opacity: 1;"></line><line transform="translate(554,-600)" x2="0" y2="600" style="fill: none; stroke: #ddd; stroke-width: 1; opacity: 1;"></line><line transform="translate(588,-600)" x2="0" y2="600" style="fill: none; stroke: #ddd; stroke-width: 1; opacity: 1;"></line><line transform="translate(623,-600)" x2="0" y2="600" style="fill: none; stroke: #ddd; stroke-width: 1; opacity: 1;"></line><line transform="translate(658,-600)" x2="0" y2="600" style="fill: none; stroke: #ddd; stroke-width: 1; opacity: 1;"></line><line transform="translate(692,-600)" x2="0" y2="600" style="fill: none; stroke: #ddd; stroke-width: 1; opacity: 1;"></line><line transform="translate(727,-600)" x2="0" y2="600" style="fill: none; stroke: #ddd; stroke-width: 1; opacity: 1;"></line><line transform="translate(762,-600)" x2="0" y2="600" style="fill: none; stroke: #ddd; stroke-width: 1; opacity: 1;"></line><line transform="translate(796,-600)" x2="0" y2="600" style="fill: none; stroke: #ddd; stroke-width: 1; opacity: 1;"></line><line transform="translate(831,-600)" x2="0" y2="600" style="fill: none; stroke: #ddd; stroke-width: 1; opacity: 1;"></line><line transform="translate(865,-600)" x2="0" y2="600" style="fill: none; stroke: #ddd; stroke-width: 1; opacity: 1;"></line><line transform="translate(900,-600)" x2="0" y2="600" style="fill: none; stroke: #ddd; stroke-width: 1; opacity: 1;"></line></g></g><path class="foreground" d="" style="pointer-events: none; display: none; fill: none;"></path></g></g><g class="mark-group role-axis"><g transform="translate(0.5,0.5)"><path class="background" d="M0,0h0v0h0Z" style="pointer-events: none; fill: none;"></path><g><g class="mark-rule role-axis-grid" style="pointer-events: none;"><line transform="translate(0,600)" x2="900" y2="0" style="fill: none; stroke: #ddd; stroke-width: 1; opacity: 1;"></line><line transform="translate(0,563)" x2="900" y2="0" style="fill: none; stroke: #ddd; stroke-width: 1; opacity: 1;"></line><line transform="translate(0,525)" x2="900" y2="0" style="fill: none; stroke: #ddd; stroke-width: 1; opacity: 1;"></line><line transform="translate(0,488)" x2="900" y2="0" style="fill: none; stroke: #ddd; stroke-width: 1; opacity: 1;"></line><line transform="translate(0,450)" x2="900" y2="0" style="fill: none; stroke: #ddd; stroke-width: 1; opacity: 1;"></line><line transform="translate(0,413)" x2="900" y2="0" style="fill: none; stroke: #ddd; stroke-width: 1; opacity: 1;"></line><line transform="translate(0,375)" x2="900" y2="0" style="fill: none; stroke: #ddd; stroke-width: 1; opacity: 1;"></line><line transform="translate(0,338)" x2="900" y2="0" style="fill: none; stroke: #ddd; stroke-width: 1; opacity: 1;"></line><line transform="translate(0,300)" x2="900" y2="0" style="fill: none; stroke: #ddd; stroke-width: 1; opacity: 1;"></line><line transform="translate(0,263)" x2="900" y2="0" style="fill: none; stroke: #ddd; stroke-width: 1; opacity: 1;"></line><line transform="translate(0,225)" x2="900" y2="0" style="fill: none; stroke: #ddd; stroke-width: 1; opacity: 1;"></line><line transform="translate(0,188)" x2="900" y2="0" style="fill: none; stroke: #ddd; stroke-width: 1; opacity: 1;"></line><line transform="translate(0,150)" x2="900" y2="0" style="fill: none; stroke: #ddd; stroke-width: 1; opacity: 1;"></line><line transform="translate(0,113)" x2="900" y2="0" style="fill: none; stroke: #ddd; stroke-width: 1; opacity: 1;"></line><line transform="translate(0,75)" x2="900" y2="0" style="fill: none; stroke: #ddd; stroke-width: 1; opacity: 1;"></line><line transform="translate(0,38)" x2="900" y2="0" style="fill: none; stroke: #ddd; stroke-width: 1; opacity: 1;"></line><line transform="translate(0,0)" x2="900" y2="0" style="fill: none; stroke: #ddd; stroke-width: 1; opacity: 1;"></line></g></g><path class="foreground" d="" style="pointer-events: none; display: none; fill: none;"></path></g></g><g class="mark-group role-axis"><g transform="translate(0.5,600.5)"><path class="background" d="M0,0h0v0h0Z" style="pointer-events: none; fill: none;"></path><g><g class="mark-rule role-axis-tick" style="pointer-events: none;"><line transform="translate(0,0)" x2="0" y2="5" style="fill: none; stroke: #888; stroke-width: 1; opacity: 1;"></line><line transform="translate(35,0)" x2="0" y2="5" style="fill: none; stroke: #888; stroke-width: 1; opacity: 1;"></line><line transform="translate(69,0)" x2="0" y2="5" style="fill: none; stroke: #888; stroke-width: 1; opacity: 1;"></line><line transform="translate(104,0)" x2="0" y2="5" style="fill: none; stroke: #888; stroke-width: 1; opacity: 1;"></line><line transform="translate(138,0)" x2="0" y2="5" style="fill: none; stroke: #888; stroke-width: 1; opacity: 1;"></line><line transform="translate(173,0)" x2="0" y2="5" style="fill: none; stroke: #888; stroke-width: 1; opacity: 1;"></line><line transform="translate(208,0)" x2="0" y2="5" style="fill: none; stroke: #888; stroke-width: 1; opacity: 1;"></line><line transform="translate(242,0)" x2="0" y2="5" style="fill: none; stroke: #888; stroke-width: 1; opacity: 1;"></line><line transform="translate(277,0)" x2="0" y2="5" style="fill: none; stroke: #888; stroke-width: 1; opacity: 1;"></line><line transform="translate(312,0)" x2="0" y2="5" style="fill: none; stroke: #888; stroke-width: 1; opacity: 1;"></line><line transform="translate(346,0)" x2="0" y2="5" style="fill: none; stroke: #888; stroke-width: 1; opacity: 1;"></line><line transform="translate(381,0)" x2="0" y2="5" style="fill: none; stroke: #888; stroke-width: 1; opacity: 1;"></line><line transform="translate(415,0)" x2="0" y2="5" style="fill: none; stroke: #888; stroke-width: 1; opacity: 1;"></line><line transform="translate(450,0)" x2="0" y2="5" style="fill: none; stroke: #888; stroke-width: 1; opacity: 1;"></line><line transform="translate(485,0)" x2="0" y2="5" style="fill: none; stroke: #888; stroke-width: 1; opacity: 1;"></line><line transform="translate(519,0)" x2="0" y2="5" style="fill: none; stroke: #888; stroke-width: 1; opacity: 1;"></line><line transform="translate(554,0)" x2="0" y2="5" style="fill: none; stroke: #888; stroke-width: 1; opacity: 1;"></line><line transform="translate(588,0)" x2="0" y2="5" style="fill: none; stroke: #888; stroke-width: 1; opacity: 1;"></line><line transform="translate(623,0)" x2="0" y2="5" style="fill: none; stroke: #888; stroke-width: 1; opacity: 1;"></line><line transform="translate(658,0)" x2="0" y2="5" style="fill: none; stroke: #888; stroke-width: 1; opacity: 1;"></line><line transform="translate(692,0)" x2="0" y2="5" style="fill: none; stroke: #888; stroke-width: 1; opacity: 1;"></line><line transform="translate(727,0)" x2="0" y2="5" style="fill: none; stroke: #888; stroke-width: 1; opacity: 1;"></line><line transform="translate(762,0)" x2="0" y2="5" style="fill: none; stroke: #888; stroke-width: 1; opacity: 1;"></line><line transform="translate(796,0)" x2="0" y2="5" style="fill: none; stroke: #888; stroke-width: 1; opacity: 1;"></line><line transform="translate(831,0)" x2="0" y2="5" style="fill: none; stroke: #888; stroke-width: 1; opacity: 1;"></line><line transform="translate(865,0)" x2="0" y2="5" style="fill: none; stroke: #888; stroke-width: 1; opacity: 1;"></line><line transform="translate(900,0)" x2="0" y2="5" style="fill: none; stroke: #888; stroke-width: 1; opacity: 1;"></line></g><g class="mark-text role-axis-label" style="pointer-events: none;"><text text-anchor="start" transform="translate(0,15)" style="font-family: sans-serif; font-size: 10px; fill: #000; opacity: 1;">0</text><text text-anchor="middle" transform="translate(34.61538461538462,15)" style="font-family: sans-serif; font-size: 10px; fill: #000; opacity: 1;">10</text><text text-anchor="middle" transform="translate(69.23076923076924,15)" style="font-family: sans-serif; font-size: 10px; fill: #000; opacity: 1;">20</text><text text-anchor="middle" transform="translate(103.84615384615385,15)" style="font-family: sans-serif; font-size: 10px; fill: #000; opacity: 1;">30</text><text text-anchor="middle" transform="translate(138.46153846153848,15)" style="font-family: sans-serif; font-size: 10px; fill: #000; opacity: 1;">40</text><text text-anchor="middle" transform="translate(173.0769230769231,15)" style="font-family: sans-serif; font-size: 10px; fill: #000; opacity: 1;">50</text><text text-anchor="middle" transform="translate(207.6923076923077,15)" style="font-family: sans-serif; font-size: 10px; fill: #000; opacity: 1;">60</text><text text-anchor="middle" transform="translate(242.3076923076923,15)" style="font-family: sans-serif; font-size: 10px; fill: #000; opacity: 1;">70</text><text text-anchor="middle" transform="translate(276.92307692307696,15)" style="font-family: sans-serif; font-size: 10px; fill: #000; opacity: 1;">80</text><text text-anchor="middle" transform="translate(311.53846153846155,15)" style="font-family: sans-serif; font-size: 10px; fill: #000; opacity: 1;">90</text><text text-anchor="middle" transform="translate(346.1538461538462,15)" style="font-family: sans-serif; font-size: 10px; fill: #000; opacity: 1;">100</text><text text-anchor="middle" transform="translate(380.7692307692308,15)" style="font-family: sans-serif; font-size: 10px; fill: #000; opacity: 1;">110</text><text text-anchor="middle" transform="translate(415.3846153846154,15)" style="font-family: sans-serif; font-size: 10px; fill: #000; opacity: 1;">120</text><text text-anchor="middle" transform="translate(450,15)" style="font-family: sans-serif; font-size: 10px; fill: #000; opacity: 1;">130</text><text text-anchor="middle" transform="translate(484.6153846153846,15)" style="font-family: sans-serif; font-size: 10px; fill: #000; opacity: 1;">140</text><text text-anchor="middle" transform="translate(519.2307692307692,15)" style="font-family: sans-serif; font-size: 10px; fill: #000; opacity: 1;">150</text><text text-anchor="middle" transform="translate(553.8461538461539,15)" style="font-family: sans-serif; font-size: 10px; fill: #000; opacity: 1;">160</text><text text-anchor="middle" transform="translate(588.4615384615385,15)" style="font-family: sans-serif; font-size: 10px; fill: #000; opacity: 1;">170</text><text text-anchor="middle" transform="translate(623.0769230769231,15)" style="font-family: sans-serif; font-size: 10px; fill: #000; opacity: 1;">180</text><text text-anchor="middle" transform="translate(657.6923076923076,15)" style="font-family: sans-serif; font-size: 10px; fill: #000; opacity: 1;">190</text><text text-anchor="middle" transform="translate(692.3076923076924,15)" style="font-family: sans-serif; font-size: 10px; fill: #000; opacity: 1;">200</text><text text-anchor="middle" transform="translate(726.9230769230769,15)" style="font-family: sans-serif; font-size: 10px; fill: #000; opacity: 1;">210</text><text text-anchor="middle" transform="translate(761.5384615384615,15)" style="font-family: sans-serif; font-size: 10px; fill: #000; opacity: 1;">220</text><text text-anchor="middle" transform="translate(796.1538461538461,15)" style="font-family: sans-serif; font-size: 10px; fill: #000; opacity: 1;">230</text><text text-anchor="middle" transform="translate(830.7692307692308,15)" style="font-family: sans-serif; font-size: 10px; fill: #000; opacity: 1;">240</text><text text-anchor="middle" transform="translate(865.3846153846154,15)" style="font-family: sans-serif; font-size: 10px; fill: #000; opacity: 1;">250</text><text text-anchor="end" transform="translate(900,15)" style="font-family: sans-serif; font-size: 10px; fill: #000; opacity: 1;">260</text></g><g class="mark-rule role-axis-domain" style="pointer-events: none;"><line transform="translate(0,0)" x2="900" y2="0" style="fill: none; stroke: #888; stroke-width: 1; opacity: 1;"></line></g><g class="mark-text role-axis-title" style="pointer-events: none;"><text text-anchor="middle" transform="translate(450,30)" style="font-family: sans-serif; font-size: 11px; font-weight: bold; fill: #000; opacity: 1;">Size</text></g></g><path class="foreground" d="" style="pointer-events: none; display: none; fill: none;"></path></g></g><g class="mark-group role-axis"><g transform="translate(0.5,0.5)"><path class="background" d="M0,0h0v0h0Z" style="pointer-events: none; fill: none;"></path><g><g class="mark-rule role-axis-tick" style="pointer-events: none;"><line transform="translate(0,600)" x2="-5" y2="0" style="fill: none; stroke: #888; stroke-width: 1; opacity: 1;"></line><line transform="translate(0,563)" x2="-5" y2="0" style="fill: none; stroke: #888; stroke-width: 1; opacity: 1;"></line><line transform="translate(0,525)" x2="-5" y2="0" style="fill: none; stroke: #888; stroke-width: 1; opacity: 1;"></line><line transform="translate(0,488)" x2="-5" y2="0" style="fill: none; stroke: #888; stroke-width: 1; opacity: 1;"></line><line transform="translate(0,450)" x2="-5" y2="0" style="fill: none; stroke: #888; stroke-width: 1; opacity: 1;"></line><line transform="translate(0,413)" x2="-5" y2="0" style="fill: none; stroke: #888; stroke-width: 1; opacity: 1;"></line><line transform="translate(0,375)" x2="-5" y2="0" style="fill: none; stroke: #888; stroke-width: 1; opacity: 1;"></line><line transform="translate(0,338)" x2="-5" y2="0" style="fill: none; stroke: #888; stroke-width: 1; opacity: 1;"></line><line transform="translate(0,300)" x2="-5" y2="0" style="fill: none; stroke: #888; stroke-width: 1; opacity: 1;"></line><line transform="translate(0,263)" x2="-5" y2="0" style="fill: none; stroke: #888; stroke-width: 1; opacity: 1;"></line><line transform="translate(0,225)" x2="-5" y2="0" style="fill: none; stroke: #888; stroke-width: 1; opacity: 1;"></line><line transform="translate(0,188)" x2="-5" y2="0" style="fill: none; stroke: #888; stroke-width: 1; opacity: 1;"></line><line transform="translate(0,150)" x2="-5" y2="0" style="fill: none; stroke: #888; stroke-width: 1; opacity: 1;"></line><line transform="translate(0,113)" x2="-5" y2="0" style="fill: none; stroke: #888; stroke-width: 1; opacity: 1;"></line><line transform="translate(0,75)" x2="-5" y2="0" style="fill: none; stroke: #888; stroke-width: 1; opacity: 1;"></line><line transform="translate(0,38)" x2="-5" y2="0" style="fill: none; stroke: #888; stroke-width: 1; opacity: 1;"></line><line transform="translate(0,0)" x2="-5" y2="0" style="fill: none; stroke: #888; stroke-width: 1; opacity: 1;"></line></g><g class="mark-text role-axis-label" style="pointer-events: none;"><text text-anchor="end" transform="translate(-7,603)" style="font-family: sans-serif; font-size: 10px; fill: #000; opacity: 1;">0</text><text text-anchor="end" transform="translate(-7,565.5)" style="font-family: sans-serif; font-size: 10px; fill: #000; opacity: 1;">5</text><text text-anchor="end" transform="translate(-7,528)" style="font-family: sans-serif; font-size: 10px; fill: #000; opacity: 1;">10</text><text text-anchor="end" transform="translate(-7,490.5)" style="font-family: sans-serif; font-size: 10px; fill: #000; opacity: 1;">15</text><text text-anchor="end" transform="translate(-7,453)" style="font-family: sans-serif; font-size: 10px; fill: #000; opacity: 1;">20</text><text text-anchor="end" transform="translate(-7,415.5)" style="font-family: sans-serif; font-size: 10px; fill: #000; opacity: 1;">25</text><text text-anchor="end" transform="translate(-7,378)" style="font-family: sans-serif; font-size: 10px; fill: #000; opacity: 1;">30</text><text text-anchor="end" transform="translate(-7,340.5)" style="font-family: sans-serif; font-size: 10px; fill: #000; opacity: 1;">35</text><text text-anchor="end" transform="translate(-7,303)" style="font-family: sans-serif; font-size: 10px; fill: #000; opacity: 1;">40</text><text text-anchor="end" transform="translate(-7,265.5)" style="font-family: sans-serif; font-size: 10px; fill: #000; opacity: 1;">45</text><text text-anchor="end" transform="translate(-7,228)" style="font-family: sans-serif; font-size: 10px; fill: #000; opacity: 1;">50</text><text text-anchor="end" transform="translate(-7,190.5)" style="font-family: sans-serif; font-size: 10px; fill: #000; opacity: 1;">55</text><text text-anchor="end" transform="translate(-7,153)" style="font-family: sans-serif; font-size: 10px; fill: #000; opacity: 1;">60</text><text text-anchor="end" transform="translate(-7,115.5)" style="font-family: sans-serif; font-size: 10px; fill: #000; opacity: 1;">65</text><text text-anchor="end" transform="translate(-7,78)" style="font-family: sans-serif; font-size: 10px; fill: #000; opacity: 1;">70</text><text text-anchor="end" transform="translate(-7,40.5)" style="font-family: sans-serif; font-size: 10px; fill: #000; opacity: 1;">75</text><text text-anchor="end" transform="translate(-7,3)" style="font-family: sans-serif; font-size: 10px; fill: #000; opacity: 1;">80</text></g><g class="mark-rule role-axis-domain" style="pointer-events: none;"><line transform="translate(0,600)" x2="0" y2="-600" style="fill: none; stroke: #888; stroke-width: 1; opacity: 1;"></line></g><g class="mark-text role-axis-title" style="pointer-events: none;"><text text-anchor="middle" transform="translate(-23,300) rotate(-90) translate(0,-2)" style="font-family: sans-serif; font-size: 11px; font-weight: bold; fill: #000; opacity: 1;">GFLOPS</text></g></g><path class="foreground" d="" style="pointer-events: none; display: none; fill: none;"></path></g></g><g class="mark-group role-scope pathgroup"><g transform="translate(0,0)"><path class="background" d="M0,0h900v600h-900Z" style="fill: none;"></path><g><g class="mark-line role-mark marks"><path d="M6.923076923076923,589.4786076715876L10.384615384615385,588.6955271331611L13.846153846153847,588.7059385828653L17.30769230769231,588.4064297452753L20.76923076923077,588.4029715664832L24.230769230769234,588.3045017828842L27.692307692307693,588.2343478729978L31.153846153846157,588.2118624363229L34.61538461538462,588.1703470031546L38.07692307692308,588.1527415143603L41.53846153846154,588.5955649419219L45,588.5067740558993L48.46153846153847,588.4985937100486L51.92307692307693,588.4557344064386L55.38461538461539,588.4754805806199L58.84615384615385,588.379848628193L62.307692307692314,588.4362643899367L65.76923076923077,588.4079962222572L69.23076923076924,588.3584425748386L72.6923076923077,588.3397274477854L76.15384615384616,588.3187683376975L79.61538461538461,588.3055916775032L83.07692307692308,588.2952951676655L86.53846153846155,588.3039540891211L90,588.2506901134853L93.46153846153847,588.2653157844901L96.92307692307693,588.2538190364277L100.38461538461539,588.2271080368906L103.84615384615385,588.2500511980339L107.3076923076923,588.2139765294344L110.76923076923077,588.215542919036L114.23076923076923,588.141813989239L117.6923076923077,588.2125719769674L121.15384615384615,588.2255936675461L124.61538461538463,588.1929260450161L128.07692307692307,588.1782932610904L131.53846153846155,588.1897491821155L135,588.1570992366412L138.46153846153848,588.18487200278L141.9230769230769,588.1593558366941L145.3846153846154,588.1763221532962L148.84615384615384,588.1712242849975L152.30769230769232,588.1707959936742L155.76923076923077,588.1592524650309L159.23076923076923,588.1676242270075L162.69230769230768,588.1765039251081L166.15384615384616,588.1610446137106L169.6153846153846,588.1050862604911L173.0769230769231,588.1421822104833L176.53846153846155,588.1315761219669L180,588.14809721888L183.46153846153845,588.1305925631339L186.92307692307693,588.1444515306123L190.3846153846154,588.1308662871211L193.84615384615387,588.1370716510903L197.3076923076923,588.1151197819538L200.76923076923077,588.1290304724474L204.23076923076923,588.1329545454545L207.6923076923077,588.1367759944173L211.15384615384616,588.1125657729892L214.6153846153846,588.1067242592637L218.07692307692307,588.1109035804906L221.53846153846155,588.1225408810753L225,588.0881962718086L228.46153846153845,588.1283799670821L231.9230769230769,588.1191617885166L235.3846153846154,588.1074756929036L238.84615384615384,588.0916625796959L242.3076923076923,588.0970526035019L245.76923076923075,588.1106291274349L249.23076923076925,588.1030293212376L252.6923076923077,588.1017861833465L256.15384615384613,588.0928098778908L259.6153846153846,588.1195437904815L263.0769230769231,588.0987087703421L266.53846153846155,588.1056171819683L270,588.0954865640491L273.46153846153845,588.0989575543657L276.92307692307696,588.1002727020839L280.3846153846154,588.0649522043087L283.8461538461538,588.0831514713446L287.30769230769226,588.1069745714517L290.7692307692308,588.1075507614213L294.2307692307692,588.090813305581L297.6923076923077,588.1019733521753L301.15384615384613,588.0955332691881L304.61538461538464,588.1069621777884L308.0769230769231,588.0816231398327L311.53846153846155,588.1037402232384L315,588.0961091819248L318.46153846153845,588.0947863115857L321.9230769230769,588.0887070641608L325.38461538461536,588.0981860823816L328.8461538461538,588.091942544318L332.3076923076923,588.0971241604959L335.7692307692308,588.0509626781677L339.2307692307692,588.0965296004666L342.6923076923077,588.0816459861325L346.1538461538462,588.0952380952381L349.61538461538464,588.0575577551695L353.0769230769231,588.094614121216L356.53846153846155,588.0733639585942L360,588.0771890994605L363.46153846153845,588.0467733569163L366.9230769230769,588.0952816234274L370.38461538461536,588.0878752764336L373.84615384615387,588.0940524701983L377.3076923076923,588.0558599971614L380.7692307692308,588.0615206035984L384.2307692307692,588.0735548672163L387.69230769230774,588.0934443071334L391.1538461538462,588.0533949235747L394.6153846153846,588.0810093439121L398.07692307692304,588.0707504121006L401.53846153846155,588.0891419050264L405,588.0624085194862L408.46153846153845,588.0779665569808L411.9230769230769,588.0733522254369L415.3846153846154,588.0686249025214L418.84615384615387,588.0650889654687L422.3076923076923,588.0787375853556L425.7692307692308,588.0836483931947L429.2307692307692,588.0656001168821L432.6923076923077,588.0771590160991L436.15384615384613,588.0939104656702L439.6153846153846,588.0713734657417L443.0769230769231,588.0627446498471L446.53846153846155,588.0402046165553L450,588.075077617838L453.46153846153845,588.0682766292759L456.9230769230769,588.0552941872281L460.38461538461536,588.0705422174265L463.8461538461538,588.0597380787225L467.3076923076923,588.0544945610824L470.7692307692308,588.0791608745103L474.2307692307692,588.057989710014L477.6923076923077,588.0623306899247L481.15384615384613,588.0687200922177L484.6153846153846,588.0536938418442L488.07692307692304,588.06994032211L491.5384615384615,588.0755012778352L495.00000000000006,588.0787564127185L498.4615384615385,588.0730278027148L501.92307692307696,588.0397998518744L505.3846153846154,588.0620138013433L508.8461538461538,588.0592045385596L512.3076923076923,588.0570130986439L515.7692307692307,588.0587921382679L519.2307692307692,588.0547887024846L522.6923076923077,588.0628918809052L526.1538461538462,588.0788655788656L529.6153846153846,588.041271501208L533.0769230769231,588.0524637578085L536.5384615384615,588.0598898443164L540,588.0531801433076L543.4615384615385,588.0670414288807L546.9230769230769,588.0745222929936L550.3846153846155,588.0557336287908L553.8461538461539,588.0632821585565L557.3076923076924,588.0351621895591L560.7692307692308,588.0603102219083L564.2307692307692,588.0720158450705L567.6923076923076,588.0457638462826L571.1538461538461,588.0669278210171L574.6153846153845,588.0553005732004L578.0769230769231,588.0794663689758L581.5384615384615,588.0525499752655L585,588.0630703721187L588.4615384615385,588.0451427866927L591.9230769230769,588.0631783690327L595.3846153846154,588.0596769240996L598.8461538461538,588.0646460318155L602.3076923076923,588.0604802791112L605.7692307692308,588.0569778218221L609.2307692307693,588.0741380455723L612.6923076923077,588.0364571633945L616.1538461538462,588.0640510091623L619.6153846153846,588.0435282066292L623.0769230769231,588.0492264253561L626.5384615384615,588.0601775097188L630,588.067217630854L633.4615384615385,588.0636826671214L636.9230769230769,588.0555517124017L640.3846153846154,588.089202268782L643.8461538461538,588.0579101972304L647.3076923076923,588.0385800978688L650.7692307692307,588.0662895640015L654.2307692307692,588.0874875432553L657.6923076923076,588.051446728312L661.1538461538462,588.0738250301274L664.6153846153846,588.1387566811857L668.0769230769231,588.047516761295L671.5384615384615,588.1175960776545L675,588.1084437086092L678.4615384615385,588.1143517181634L681.9230769230769,588.124398497594L685.3846153846154,588.0702964460367L688.8461538461538,588.1030722939827L692.3076923076924,588.1037354270759L695.7692307692308,588.1016806450942L699.2307692307693,588.0977481280156L702.6923076923077,588.1064649757224L706.1538461538462,588.046928854307L709.6153846153846,588.0838339000616L713.0769230769231,588.0850515634187L716.5384615384615,588.0976555862015L720,588.0874626124327L723.4615384615385,588.0403894966049L726.9230769230769,588.0971029986134L730.3846153846154,588.0531977808739L733.8461538461538,588.1078568300817L737.3076923076923,588.1143912386862L740.7692307692307,588.0765154531811L744.2307692307692,588.0895904695504L747.6923076923077,588.0480037612189L751.1538461538462,588.1161113519355L754.6153846153846,588.0971547781812L758.0769230769231,588.0438134100299L761.5384615384615,588.1042798376121L765,588.0544951784278L768.4615384615385,588.0855400624192L771.9230769230769,588.0811934883546L775.3846153846155,588.1141719044072L778.8461538461539,588.0752294544084L782.3076923076924,588.0979151854987L785.7692307692308,588.1046231199451L789.2307692307692,588.122765613156L792.6923076923076,588.0777018171704L796.1538461538461,588.0984311227417L799.6153846153845,588.0841392802348L803.0769230769231,588.1111796378553L806.5384615384615,588.1006780115557L810,588.1181986827102L813.4615384615385,588.09415612963L816.9230769230769,588.0933785594162L820.3846153846154,588.048051969726L823.8461538461538,588.1155482858148L827.3076923076923,588.0984109267579L830.7692307692308,588.114870168227L834.2307692307693,588.0512402441602L837.6923076923077,588.0603179476356L841.1538461538462,588.1004728991786L844.6153846153846,588.0371799235977L848.0769230769231,588.0945204712295L851.5384615384615,588.0887440507709L855,588.0709861396949L858.4615384615385,588.0972828734967L861.9230769230769,588.1076723457069L865.3846153846154,588.1138120673428L868.8461538461538,588.1136521028847L872.3076923076923,588.1054892363019L875.7692307692307,588.102763240375L879.2307692307692,588.0908023494699L882.6923076923076,588.1164356563369L886.1538461538462,588.09578828447" style="fill: none; stroke: #ff7f0e; stroke-width: 2;"></path></g></g><path class="foreground" d="" style="display: none; fill: none;"></path></g><g transform="translate(0,0)"><path class="background" d="M0,0h900v600h-900Z" style="fill: none;"></path><g><g class="mark-line role-mark marks"><path d="M6.923076923076923,568.833506827506L10.384615384615385,554.4693649908373L13.846153846153847,548.7400796166231L17.30769230769231,542.6582989370639L20.76923076923077,540.4789561726329L24.230769230769234,539.7832873865904L27.692307692307693,407.62049914269386L31.153846153846157,439.0166423519711L34.61538461538462,446.04987138825766L38.07692307692308,455.6691631146065L41.53846153846154,462.729851664502L45,472.7533346526816L48.46153846153847,470.2507041103718L51.92307692307693,486.07250096861685L55.38461538461539,309.7935546447828L58.84615384615385,360.86389154323933L62.307692307692314,401.7634343521681L65.76923076923077,394.64219685893505L69.23076923076924,404.7649072239237L72.6923076923077,419.9423584981186L76.15384615384616,429.69021114764485L79.61538461538461,463.53637169525996L83.07692307692308,258.5438256095707L86.53846153846155,365.6281191360243L90,353.5502144533463L93.46153846153847,370.61610789600326L96.92307692307693,395.2456984390428L100.38461538461539,401.76463827373027L103.84615384615385,415.3159475619684L107.3076923076923,435.4964609468981L110.76923076923077,246.29519062586306L114.23076923076923,288.65780411628094L117.6923076923077,320.9941118450548L121.15384615384615,346.4228397077622L124.61538461538463,351.8965777744202L128.07692307692307,400.13922429945455L131.53846153846155,393.7846063941173L135,406.24863760217977L138.46153846153848,220.64816380107598L141.9230769230769,311.1868960757247L145.3846153846154,304.98055229209206L148.84615384615384,327.4263676748007L152.30769230769232,372.22478545722987L155.76923076923077,363.30445544554453L159.23076923076923,392.42132799876896L162.69230769230768,416.22895732741745L166.15384615384616,304.5748765770707L169.6153846153846,326.8913373182265L173.0769230769231,323.6191797450793L176.53846153846155,344.27243985194326L180,372.4957107034447L183.46153846153845,372.9651347068146L186.92307692307693,380.34384969868836L190.3846153846154,411.2459216965742L193.84615384615387,298.37054918527457L197.3076923076923,319.8380224536724L200.76923076923077,323.3909454404746L204.23076923076923,366.5908493294767L207.6923076923077,357.96245517823246L211.15384615384616,362.17980851170483L214.6153846153846,350.1351006882488L218.07692307692307,390.0508228460794L221.53846153846155,316.3434903047091L225,309.33604920951814L228.46153846153845,329.7518382352941L231.9230769230769,348.3941044302252L235.3846153846154,353.82574000185576L238.84615384615384,342.03194352630095L242.3076923076923,353.05239580130876L245.76923076923075,386.66614420062695L249.23076923076925,291.7483677064981L252.6923076923077,304.8304532509532L256.15384615384613,309.10096754779875L259.6153846153846,325.8457568807339L263.0769230769231,333.14168377823404L266.53846153846155,366.46663577386465L270,343.4291148137429L273.46153846153845,385.9005145797599L276.92307692307696,304.18110045919605L280.3846153846154,324.8943517224369L283.8461538461538,322.56462117228267L287.30769230769226,318.20741097208855L290.7692307692308,326.86451612903227L294.2307692307692,358.29780255821584L297.6923076923077,340.76767121404765L301.15384615384613,362.7460225476768L304.61538461538464,312.5380304243395L308.0769230769231,318.32025938709336L311.53846153846155,322.3697032830404L315,315.2184760620364L318.46153846153845,332.4933602464676L321.9230769230769,331.8500538437489L325.38461538461536,318.1612522783317L328.8461538461538,358.3604577908442L332.3076923076923,298.51443232841564L335.7692307692308,307.6678792731323L339.2307692307692,303.35455961238966L342.6923076923077,331.9464192688383L346.1538461538462,337.45366829440485L349.61538461538464,336.0280516091621L353.0769230769231,325.0512258675826L356.53846153846155,356.15524441907274L360,305.63883637250717L363.46153846153845,295.5691943567848L366.9230769230769,313.8254095085897L370.38461538461536,324.35056964814L373.84615384615387,327.89216882166386L377.3076923076923,333.53176580961036L380.7692307692308,308.5576650609238L384.2307692307692,356.9878875069612L387.69230769230774,289.8662012798138L391.1538461538462,315.1688292754045L394.6153846153846,313.21602676897334L398.07692307692304,310.5754376930999L401.53846153846155,321.712895377129L405,335.2726376459882L408.46153846153845,315.986753695527L411.9230769230769,348.270826071802L415.3846153846154,291.9893750873759L418.84615384615387,306.2399678972713L422.3076923076923,309.21669578008635L425.7692307692308,312.20906812281794L429.2307692307692,317.64604217075697L432.6923076923077,333.3082329317268L436.15384615384613,316.5694682675815L439.6153846153846,351.5767697511476L443.0769230769231,293.2961385993246L446.53846153846155,306.7310549777117L450,302.98769771529L453.46153846153845,315.06348482875376L456.9230769230769,314.3239246447631L460.38461538461536,324.1839916839917L463.8461538461538,316.3085501858736L467.3076923076923,344.73387894100847L470.7692307692308,289.41920189648357L474.2307692307692,302.82546154482986L477.6923076923077,305.5646725949878L481.15384615384613,307.500890524816L484.6153846153846,318.41195913461536L488.07692307692304,321.966929911155L491.5384615384615,311.82446570019425L495.00000000000006,345.1121810538665L498.4615384615385,291.2123335669237L501.92307692307696,300.6825033497097L505.3846153846154,303.03868006993L508.8461538461538,317.01443097781424L512.3076923076923,304.6261237440508L515.7692307692307,334.88550154537796L519.2307692307692,313.29702178692787L522.6923076923077,339.1775076260542L526.1538461538462,292.8940783986656L529.6153846153846,293.3476317682112L533.0769230769231,305.9714119019837L536.5384615384615,311.56426553672316L540,311.76590803529956L543.4615384615385,329.35347054770926L546.9230769230769,302.7262538526198L550.3846153846155,331.9923921177351L553.8461538461539,289.7338403041825L557.3076923076924,299.2239261012013L560.7692307692308,306.17228661749215L564.2307692307692,309.0485699561969L567.6923076923076,310.0743997294555L571.1538461538461,320.8534378769602L574.6153846153845,307.9961768617021L578.0769230769231,342.10563533507394L581.5384615384615,292.98182748912205L585,302.1732640876748L588.4615384615385,297.7731299212599L591.9230769230769,311.37048076178684L595.3846153846154,307.5773315760912L598.8461538461538,320.68895476504173L602.3076923076923,300.31907460600877L605.7692307692308,327.1166748200433L609.2307692307693,286.82578701133934L612.6923076923077,302.3511549925484L616.1538461538462,298.10103878633885L619.6153846153846,306.6685215767933L623.0769230769231,308.3862770012706L626.5384615384615,324.4886551019062L630,302.9603319735547L633.4615384615385,330.3197435735489L636.9230769230769,291.22746781115876L640.3846153846154,327.20133158289576L643.8461538461538,302.32217573221754L647.3076923076923,306.4814022383147L650.7692307692307,307.7018875267562L654.2307692307692,318.67147445796525L657.6923076923076,301.2753115264797L661.1538461538462,354.08017870360584L664.6153846153846,317.2666025024061L668.0769230769231,298.8428979074192L671.5384615384615,322.3520222183648L675,324.5034947153086L678.4615384615385,332.8438965855787L681.9230769230769,333.87040821814657L685.3846153846154,302.6643269287966L688.8461538461538,356.7037295812653L692.3076923076924,308.13780473846856L695.7692307692308,319.91041813930724L699.2307692307693,301.8106264687339L702.6923076923077,346.5682278603126L706.1538461538462,306.31316765373333L709.6153846153846,337.6652386780906L713.0769230769231,303.83764847555966L716.5384615384615,335.9474383760271L720,309.21665788086455L723.4615384615385,309.85530085959886L726.9230769230769,316.9519254971055L730.3846153846154,312.52772713460956L733.8461538461538,313.6251874062969L737.3076923076923,336.92252592323086L740.7692307692307,309.9647327637592L744.2307692307692,326.37134964483033L747.6923076923077,292.4018822069393L751.1538461538462,329.89708925679327L754.6153846153846,311.0899728222L758.0769230769231,304.04474397444585L761.5384615384615,331.917111950997L765,353.8158727021151L768.4615384615385,289.4939961456738L771.9230769230769,345.0051276895234L775.3846153846155,312.0734506503443L778.8461538461539,328.4295060585662L782.3076923076924,329.33541147132166L785.7692307692308,311.18570863372605L789.2307692307692,325.0265516096914L792.6923076923076,342.461000693321L796.1538461538461,306.1623246492986L799.6153846153845,335.754553928613L803.0769230769231,320.59118114083304L806.5384615384615,327.34677196990583L810,323.19138812894016L813.4615384615385,354.294325993649L816.9230769230769,341.82941903584674L820.3846153846154,335.5313157797556L823.8461538461538,367.3289304123711L827.3076923076923,341.07908489761087L830.7692307692308,308.94102726696264L834.2307692307693,362.86257525297805L837.6923076923077,335.01863089534754L841.1538461538462,333.10831649473573L844.6153846153846,321.03781558928375L848.0769230769231,347.51954671417263L851.5384615384615,341.2718798202669L855,356.7043819592143L858.4615384615385,325.57270341207345L861.9230769230769,346.3378417404698L865.3846153846154,357.1983546617916L868.8461538461538,349.1685142393205L872.3076923076923,347.8116239955149L875.7692307692307,368.6093705698894L879.2307692307692,333.8104329816841L882.6923076923076,360.6821724446497L886.1538461538462,329.33920704845815" style="fill: none; stroke: #1f77b4; stroke-width: 2;"></path></g></g><path class="foreground" d="" style="display: none; fill: none;"></path></g><g transform="translate(0,0)"><path class="background" d="M0,0h900v600h-900Z" style="fill: none;"></path><g><g class="mark-line role-mark marks"><path d="M6.923076923076923,571.9325458158535L10.384615384615385,560.861013986014L13.846153846153847,552.091092397106L17.30769230769231,547.5040250897259L20.76923076923077,542.4749475646702L24.230769230769234,531.8480495745046L27.692307692307693,418.13597478613235L31.153846153846157,471.1111792264109L34.61538461538462,478.29639216955184L38.07692307692308,472.05699616886267L41.53846153846154,474.64710974633715L45,483.86656384529346L48.46153846153847,485.94870034166274L51.92307692307693,480.95206426899347L55.38461538461539,378.44918380191365L58.84615384615385,426.35641258101L62.307692307692314,443.5355714771515L65.76923076923077,440.49992355908876L69.23076923076924,451.014335948066L72.6923076923077,455.86351522842637L76.15384615384616,449.9237415522993L79.61538461538461,466.3404848447511L83.07692307692308,305.8699654403928L86.53846153846155,399.21104077452986L90,387.87394016957285L93.46153846153847,409.9133455689565L96.92307692307693,422.8588305909927L100.38461538461539,413.28596097973946L103.84615384615385,429.2716229577664L107.3076923076923,433.6636687595452L110.76923076923077,314.32024169184297L114.23076923076923,351.7009260422809L117.6923076923077,365.6435562135044L121.15384615384615,378.1027682651428L124.61538461538463,387.83733308432164L128.07692307692307,401.9806005142944L131.53846153846155,399.09653049804143L135,407.9925742574258L138.46153846153848,266.3188471192081L141.9230769230769,348.33875386737236L145.3846153846154,342.8707919073964L148.84615384615384,355.4345570860469L152.30769230769232,388.41076632950455L155.76923076923077,386.97400990099004L159.23076923076923,397.8040920332758L162.69230769230768,413.3301299045599L166.15384615384616,311.7739403453689L169.6153846153846,347.44039270687233L173.0769230769231,353.00271212708253L176.53846153846155,365.6673968343697L180,390.1898734177215L183.46153846153845,384.0663812854214L186.92307692307693,388.98348373914524L190.3846153846154,401.9881404661669L193.84615384615387,296.19329838158194L197.3076923076923,340.6576723220435L200.76923076923077,346.4171692089393L204.23076923076923,376.4993957095378L207.6923076923077,370.9352230761553L211.15384615384616,370.22830005919394L214.6153846153846,369.8653936453279L218.07692307692307,385.53270389903946L221.53846153846155,317.72336630452406L225,326.20711562897077L228.46153846153845,340.9964246852168L231.9230769230769,362.19345828909104L235.3846153846154,366.4697856608424L238.84615384615384,356.7457366757202L242.3076923076923,353.9708584930428L245.76923076923075,383.9410039965637L249.23076923076925,283.70074972084865L252.6923076923077,318.7070472422834L256.15384615384613,323.8900606380174L259.6153846153846,342.008573484152L263.0769230769231,349.3207261724659L266.53846153846155,363.72025786286383L270,346.29272281275547L273.46153846153845,375.56691580877174L276.92307692307696,298.4478935698447L280.3846153846154,328.96115993681906L283.8461538461538,333.52708058124176L287.30769230769226,333.1264717052792L290.7692307692308,335.710928319624L294.2307692307692,356.6536785101043L297.6923076923077,344.69795932180443L301.15384615384613,351.59652509652517L304.61538461538464,298.7574844590213L308.0769230769231,324.03524951326983L311.53846153846155,329.11475409836066L315,323.9305791606746L318.46153846153845,341.4654847872959L321.9230769230769,339.37360726585183L325.38461538461536,321.8786810086405L328.8461538461538,346.36103851119435L332.3076923076923,287.65550239234454L335.7692307692308,308.89407910701283L339.2307692307692,311.5309281820018L342.6923076923077,334.2914097384648L346.1538461538462,335.2653279150476L349.61538461538464,335.7829096291137L353.0769230769231,324.8149245769493L356.53846153846155,349.4555922575865L360,289.9042724060392L363.46153846153845,300.01486235175764L366.9230769230769,319.13671415501244L370.38461538461536,326.7754866483654L373.84615384615387,327.05148205928236L377.3076923076923,333.3441396508728L380.7692307692308,311.44674085850556L384.2307692307692,340.4541023692298L387.69230769230774,282.13057736261555L391.1538461538462,311.518118189067L394.6153846153846,316.09868928296066L398.07692307692304,314.91419634806135L401.53846153846155,317.8594921720826L405,333.98959031884414L408.46153846153845,313.5303040082618L411.9230769230769,339.71752104716876L415.3846153846154,271.761866452132L418.84615384615387,306.47092584439275L422.3076923076923,308.743630671005L425.7692307692308,314.46688673100834L429.2307692307692,319.158811563476L432.6923076923077,330.4941152597402L436.15384615384613,315.6936690192774L439.6153846153846,337.111217641419L443.0769230769231,282.8662517079095L446.53846153846155,301.0177552314521L450,300.81227436823104L453.46153846153845,315.6467071704734L456.9230769230769,310.5082095387021L460.38461538461536,325.3929745525387L463.8461538461538,307.8462274684957L467.3076923076923,332.94017928973676L470.7692307692308,268.4139482564679L474.2307692307692,297.74258738829764L477.6923076923077,301.0330391955674L481.15384615384613,308.88353817064524L484.6153846153846,314.4652650822669L488.07692307692304,315.0171451056813L491.5384615384615,307.23010932280596L495.00000000000006,328.6660942866063L498.4615384615385,278.0516317584023L501.92307692307696,291.73326816927323L505.3846153846154,300.6839207048458L508.8461538461538,312.2861842105263L512.3076923076923,302.4864173857463L515.7692307692307,323.0576753742295L519.2307692307692,306.22119815668196L522.6923076923077,326.49096810612474L526.1538461538462,271.6718680338832L529.6153846153846,288.32001879699243L533.0769230769231,298.88568014339774L536.5384615384615,306.8158977794793L540,306.698175630967L543.4615384615385,318.945850473976L546.9230769230769,295.24032937571815L550.3846153846155,319.9298375184638L553.8461538461539,272.289156626506L557.3076923076924,291.18599327228554L560.7692307692308,298.00451263537906L564.2307692307692,303.62664041994753L567.6923076923076,304.554148358749L571.1538461538461,314.2820396740472L574.6153846153845,299.45337895637294L578.0769230769231,325.3323420361502L581.5384615384615,269.73568281938327L585,295.7279829545455L588.4615384615385,292.01354062186556L591.9230769230769,303.75625744934445L595.3846153846154,300.6618522339497L598.8461538461538,311.6775595013222L602.3076923076923,292.5866050808314L605.7692307692308,314.3608266276518L609.2307692307693,271.07187473973516L612.6923076923077,289.75165048543687L616.1538461538462,290.5385322506512L619.6153846153846,300.056718061674L623.0769230769231,298.68708971553605L626.5384615384615,313.8630291820797L630,293.0957052539786L633.4615384615385,314.3723660445514L636.9230769230769,267.41351413822326L640.3846153846154,326.79141622839967L643.8461538461538,294.2121317157712L647.3076923076923,297.5410419917238L650.7692307692307,297.09215567654775L654.2307692307692,308.4046673922786L657.6923076923076,287.80099030048154L661.1538461538462,354.9611474028026L664.6153846153846,301.5013336720437L668.0769230769231,284.1415602553871L671.5384615384615,320.52475247524745L675,325.4551503482644L678.4615384615385,336.4945125887669L681.9230769230769,332.04010072565796L685.3846153846154,288.2750233863424L688.8461538461538,345.9558490566037L692.3076923076924,284.7570775126715L695.7692307692308,303.36150302332277L699.2307692307693,316.2215676648666L702.6923076923077,346.95879888268155L706.1538461538462,298.62319663751L709.6153846153846,336.98274592578053L713.0769230769231,291.7218392114409L716.5384615384615,328.5612609926963L720,290.34691815426066L723.4615384615385,296.1964051931049L726.9230769230769,311.3874345549739L730.3846153846154,311.4903430749682L733.8461538461538,299.2568489555999L737.3076923076923,338.5515254237288L740.7692307692307,303.48415600243754L744.2307692307692,310.3696741854637L747.6923076923077,273.5104281009879L751.1538461538462,318.49927325581393L754.6153846153846,306.7413609524732L758.0769230769231,291.5963536413153L761.5384615384615,328.80685563612394L765,349.46783472803344L768.4615384615385,278.91108840061315L771.9230769230769,346.3313662732547L775.3846153846155,297.2485921158488L778.8461538461539,317.4820545367006L782.3076923076924,332.64676902865585L785.7692307692308,307.0780016942352L789.2307692307692,321.4323540537133L792.6923076923076,341.06469289752926L796.1538461538461,305.46943231441054L799.6153846153845,332.39743942731275L803.0769230769231,313.95273227460297L806.5384615384615,317.49867357766715L810,319.44261372769654L813.4615384615385,356.2168922895821L816.9230769230769,344.4585987261147L820.3846153846154,329.1601429543908L823.8461538461538,372.93960448957773L827.3076923076923,329.81163049526987L830.7692307692308,290.57048959298896L834.2307692307693,365.3794791369642L837.6923076923077,324.68161203495447L841.1538461538462,330.50980778179473L844.6153846153846,319.8124907721837L848.0769230769231,349.9938749509996L851.5384615384615,349.90956826137693L855,358.0890219250505L858.4615384615385,316.0428736964079L861.9230769230769,352.1437417696119L865.3846153846154,356.80562761314735L868.8461538461538,357.1169720609579L872.3076923076923,351.5416717810237L875.7692307692307,364.4554519741399L879.2307692307692,329.91233254531124L882.6923076923076,357.39070318672634L886.1538461538462,322.4250074743381" style="fill: none; stroke: #aec7e8; stroke-width: 2;"></path></g></g><path class="foreground" d="" style="display: none; fill: none;"></path></g><g transform="translate(0,0)"><path class="background" d="M0,0h900v600h-900Z" style="fill: none;"></path><g><g class="mark-line role-mark marks"><path d="M6.923076923076923,566.6476826394344L10.384615384615385,535.6409463864223L13.846153846153847,517.3981624522319L17.30769230769231,492.503982510846L20.76923076923077,460.8538893637807L24.230769230769234,437.89704959196484L27.692307692307693,428.8087654478278L31.153846153846157,476.4793535473349L34.61538461538462,451.098513418165L38.07692307692308,446.2591841905244L41.53846153846154,436.517393737097L45,417.75517356630246L48.46153846153847,393.5782849440822L51.92307692307693,379.2269126183131L55.38461538461539,350.2033680421648L58.84615384615385,402.78701964340655L62.307692307692314,423.3467336683417L65.76923076923077,394.72162592297866L69.23076923076924,370.64823955248437L72.6923076923077,358.55014345959063L76.15384615384616,340.16198543617185L79.61538461538461,344.6573051056821L83.07692307692308,315.3328926878998L86.53846153846155,394.7534012521198L90,361.5246832678026L93.46153846153847,345.26207605344297L96.92307692307693,354.6241178275545L100.38461538461539,336.8391989397732L103.84615384615385,341.4981852934818L107.3076923076923,318.80424451759467L110.76923076923077,279.56018064009425L114.23076923076923,328.09987148889303L117.6923076923077,335.67939682019335L121.15384615384615,329.31109185441943L124.61538461538463,307.02970012363073L128.07692307692307,331.41247337655636L131.53846153846155,298.41481564685074L135,285.62807466336835L138.46153846153848,257.1946453184298L141.9230769230769,347.3503006799467L145.3846153846154,318.15421567219704L148.84615384615384,315.2938546204999L152.30769230769232,332.5263157894737L155.76923076923077,308.72844827586204L159.23076923076923,320.95981796555833L162.69230769230768,326.4495920745921L166.15384615384616,314.26903997665596L169.6153846153846,350.3445604305986L173.0769230769231,330.35276203366885L176.53846153846155,327.7278325123153L180,348.9733508082132L183.46153846153845,326.70927127050743L186.92307692307693,319.27665357897916L190.3846153846154,340.958089865001L193.84615384615387,306.2160176340926L197.3076923076923,336.7349857006673L200.76923076923077,334.3223488602577L204.23076923076923,352.7285642654187L207.6923076923077,326.7531849029646L211.15384615384616,317.35031277926726L214.6153846153846,283.248238867705L218.07692307692307,321.29344054634583L221.53846153846155,323.3165562913908L225,325.0051049058145L228.46153846153845,327.3044189852701L231.9230769230769,341.1623787749359L235.3846153846154,330.78086153533917L238.84615384615384,307.6288397730921L242.3076923076923,289.3336648433615L245.76923076923075,325.70783346768457L249.23076923076925,296.8536920960098L252.6923076923077,319.172101033295L256.15384615384613,310.6148107211937L259.6153846153846,316.7630216332441L263.0769230769231,312.4529284164859L266.53846153846155,323.72583854462766L270,284.35708472737133L273.46153846153845,324.25891344524877L276.92307692307696,304.4786930103416L280.3846153846154,331.0309071178811L283.8461538461538,325.2761866613258L287.30769230769226,311.4140211096965L290.7692307692308,302.05663189269745L294.2307692307692,323.62647665479096L297.6923076923077,291.97174472255114L301.15384615384613,299.1981609911946L304.61538461538464,310.8226249313564L308.0769230769231,330.4254112308565L311.53846153846155,323.0397908216285L315,306.4699749791493L318.46153846153845,312.32947919096335L321.9230769230769,305.63963963963965L325.38461538461536,276.61571582346613L328.8461538461538,298.7433321333901L332.3076923076923,297.09608816137137L335.7692307692308,316.0693636732485L339.2307692307692,305.008431703204L342.6923076923077,320.63769481349L346.1538461538462,313.87811367935115L349.61538461538464,306.43302808499664L353.0769230769231,276.4271526640415L356.53846153846155,308.8218063841565L360,303.07649718556803L363.46153846153845,304.8735040940584L366.9230769230769,313.56792962111365L370.38461538461536,312.9306784660767L373.84615384615387,303.5758421367351L377.3076923076923,305.50610763697637L380.7692307692308,261.7518088138566L384.2307692307692,301.53372387587075L387.69230769230774,291.3425538758444L391.1538461538462,320.0422733004701L394.6153846153846,317.9271406684446L398.07692307692304,303.37100888380684L401.53846153846155,299.27432077125326L405,309.7376517545318L408.46153846153845,270.25167941058106L411.9230769230769,305.9497247646657L415.3846153846154,289.4364410363396L418.84615384615387,314.4191934644923L422.3076923076923,309.78589998470716L425.7692307692308,305.5671306896236L429.2307692307692,301.0157084032332L432.6923076923077,307.6760821716801L436.15384615384613,276.18141097424416L439.6153846153846,304.21041654680397L443.0769230769231,293.8176061911882L446.53846153846155,311.37867709573203L450,300.35460992907804L453.46153846153845,307.48295454545456L456.9230769230769,293.989462447054L460.38461538461536,303.80885153325886L463.8461538461538,273.5621858624746L467.3076923076923,301.9767218160831L470.7692307692308,286.37297602819433L474.2307692307692,308.3664743876183L477.6923076923077,302.91080386638936L481.15384615384613,300.5315463165573L484.6153846153846,299.5310809186005L488.07692307692304,296.79096889952154L491.5384615384615,274.114589935353L495.00000000000006,299.41808854046576L498.4615384615385,290.5980105324752L501.92307692307696,303.1682537924925L505.3846153846154,304.00893051622734L508.8461538461538,308.0793070565798L512.3076923076923,288.8520815538307L515.7692307692307,307.6704017349995L519.2307692307692,274.9660095173351L522.6923076923077,299.304147703765L526.1538461538462,289.0033783783784L529.6153846153846,300.15596745027125L533.0769230769231,301.97220579538737L536.5384615384615,303.26576576576576L540,296.21695711768166L543.4615384615385,304.0448723985309L546.9230769230769,266.60626374777416L550.3846153846155,296.42799962328127L553.8461538461539,285.6702619414483L557.3076923076924,303.4875740175848L560.7692307692308,303.5692771084337L564.2307692307692,300.0843293492696L567.6923076923076,294.85317672183663L571.1538461538461,300.2169876500562L574.6153846153845,271.18483855872717L578.0769230769231,300.23204350025287L581.5384615384615,289.8327874504396L585,305.4256997249636L588.4615384615385,299.52295523118323L591.9230769230769,302.5983168474793L595.3846153846154,291.22789783889976L598.8461538461538,299.38967228611943L602.3076923076923,266.5926757643808L605.7692307692308,292.834526431718L609.2307692307693,290.167098140739L612.6923076923077,303.8956634544106L616.1538461538462,295.64454155051607L619.6153846153846,301.1100746268657L623.0769230769231,292.0840787119857L626.5384615384615,302.2151921294646L630,268.8119510664993L633.4615384615385,294.46529516994633L636.9230769230769,290.2303552206674L640.3846153846154,334.8591870215093L643.8461538461538,305.58069683620346L647.3076923076923,303.0999866817607L650.7692307692307,295.7423536560664L654.2307692307692,299.65526905829597L657.6923076923076,266.757167680278L661.1538461538462,339.07059912487375L664.6153846153846,318.92357373519917L668.0769230769231,300.07909693716454L671.5384615384615,324.0921113155474L675,328.939533713519L678.4615384615385,329.47973047608525L681.9230769230769,320.1115730527745L685.3846153846154,271.97073106706915L688.8461538461538,335.5785545954438L692.3076923076924,308.55477455854617L695.7692307692308,314.36578130198507L699.2307692307693,307.4612010796221L702.6923076923077,348.2801945096536L706.1538461538462,301.72353701725785L709.6153846153846,330.77140488393127L713.0769230769231,276.09015804597703L716.5384615384615,319.8621936211671L720,306.75881133379403L723.4615384615385,317.9944554154641L726.9230769230769,316.1374192245558L730.3846153846154,307.400644329897L733.8461538461538,299.63518188489354L737.3076923076923,329.3399073554183L740.7692307692307,288.45427382349806L744.2307692307692,299.43967055943705L747.6923076923077,299.6849757673668L751.1538461538462,328.03734825149485L754.6153846153846,317.80411698956783L758.0769230769231,298.42543275632494L761.5384615384615,333.2612924140912L765,346.5309549006838L768.4615384615385,267.82735105989315L771.9230769230769,331.0178389614797L775.3846153846155,312.8359816859682L778.8461538461539,328.0290102389079L782.3076923076924,339.27253072827L785.7692307692308,313.977035263387L789.2307692307692,317.8751117354106L792.6923076923076,329.45587521243027L796.1538461538461,286.7423714644002L799.6153846153845,318.9437972487297L803.0769230769231,325.8046987374141L806.5384615384615,324.1412601626016L810,322.67458488917134L813.4615384615385,355.99724503586646L816.9230769230769,340.1097935880545L820.3846153846154,325.11620542739803L823.8461538461538,365.55396851160526L827.3076923076923,321.717645485461L830.7692307692308,313.0128956623681L834.2307692307693,377.1694550597298L837.6923076923077,328.94910701321334L841.1538461538462,330.71222905787255L844.6153846153846,316.8336628492558L848.0769230769231,348.2918105574741L851.5384615384615,343.063936063936L855,347.8803519917026L858.4615384615385,321.3403930208592L861.9230769230769,349.2266757605558L865.3846153846154,359.1358360536815L868.8461538461538,352.36982859609094L872.3076923076923,350.3234759011996L875.7692307692307,354.41161866931486L879.2307692307692,323.1678669987212L882.6923076923076,350.8732984765167L886.1538461538462,332.87810491991945" style="fill: none; stroke: #2ca02c; stroke-width: 2;"></path></g></g><path class="foreground" d="" style="display: none; fill: none;"></path></g><g transform="translate(0,0)"><path class="background" d="M0,0h900v600h-900Z" style="fill: none;"></path><g><g class="mark-line role-mark marks"><path d="M6.923076923076923,586.7985282989328L10.384615384615385,579.0540102294207L13.846153846153847,571.485319020694L17.30769230769231,563.7483710460846L20.76923076923077,556.0534409645941L24.230769230769234,548.4187536001316L27.692307692307693,542.1902583623017L31.153846153846157,564.3793510100049L34.61538461538462,560.5564483728405L38.07692307692308,555.8075548476046L41.53846153846154,552.5872516683286L45,548.0927694654271L48.46153846153847,544.447962276861L51.92307692307693,539.060010621349L55.38461538461539,532.0798207235086L58.84615384615385,553.606282520717L62.307692307692314,549.8619413174742L65.76923076923077,547.0168326029444L69.23076923076924,544.698189465383L72.6923076923077,541.6567909999454L76.15384615384616,539.009685708638L79.61538461538461,537.4675505284629L83.07692307692308,535.8041958041958L86.53846153846155,547.3035974077503L90,547.5921196643561L93.46153846153847,542.6427028694848L96.92307692307693,542.3196768609348L100.38461538461539,538.6780853254031L103.84615384615385,536.3172207114712L107.3076923076923,534.0221312799526L110.76923076923077,527.288928491869L114.23076923076923,542.1629408497639L117.6923076923077,540.0040705563093L121.15384615384615,538.1272283111052L124.61538461538463,537.2214952087467L128.07692307692307,535.115133616951L131.53846153846155,535.7780706174179L135,531.7236826663537L138.46153846153848,529.6416938110749L141.9230769230769,540.3319877505568L145.3846153846154,537.97938712902L148.84615384615384,536.85828116107L152.30769230769232,535.5403949730701L155.76923076923077,534.3243243243244L159.23076923076923,533.1186032510536L162.69230769230768,531.7289112819448L166.15384615384616,525.832228744556L169.6153846153846,536.7486496059506L173.0769230769231,535.63021088769L176.53846153846155,534.2986627043091L180,533.265799916121L183.46153846153845,531.8463368220741L186.92307692307693,531.2115698911468L190.3846153846154,531.0410334346504L193.84615384615387,528.7463245121625L197.3076923076923,536.717461044913L200.76923076923077,536.0923205292487L204.23076923076923,533.5806321271438L207.6923076923077,532.763015263821L211.15384615384616,531.5775620871672L214.6153846153846,537.6589181797946L218.07692307692307,529.6741131918146L221.53846153846155,528.5018995790123L225,534.1994096091205L228.46153846153845,533.0909163922577L231.9230769230769,532.1836367945021L235.3846153846154,531.4225892753286L238.84615384615384,530.7888986013986L242.3076923076923,529.4891087618976L245.76923076923075,536.5458090630863L249.23076923076925,528.2033456441451L252.6923076923077,534.4921423062091L256.15384615384613,532.8469750889681L259.6153846153846,532.0845170454546L263.0769230769231,531.1738317757009L266.53846153846155,530.3530956329464L270,529.8698128559804L273.46153846153845,528.7365663621708L276.92307692307696,525.8990192517253L280.3846153846154,532.3963552610312L283.8461538461538,531.7971360381862L287.30769230769226,536.0084875418913L290.7692307692308,530.8819913952059L294.2307692307692,529.5512771489753L297.6923076923077,529.38520293545L301.15384615384613,528.0942180165413L304.61538461538464,526.9920141969831L308.0769230769231,533.0375613313884L311.53846153846155,531.691910840664L315,537.1231836588852L318.46153846153845,530.7209347114335L321.9230769230769,531.3186659192826L325.38461538461536,529.3895330617361L328.8461538461538,528.3284023668639L332.3076923076923,531.4445740956826L335.7692307692308,533.293622108541L339.2307692307692,531.545728980322L342.6923076923077,530.8872573419611L346.1538461538462,537.6589086641893L349.61538461538464,533.6245215616228L353.0769230769231,531.3542744773339L356.53846153846155,528.7254979449889L360,528.2161261777107L363.46153846153845,532.6035623531668L366.9230769230769,533.8356733789026L370.38461538461536,531.020343067763L373.84615384615387,533.1583441952447L377.3076923076923,529.5035601265823L380.7692307692308,533.2345176786256L384.2307692307692,531.2895289332108L387.69230769230774,534.8131241084166L391.1538461538462,534.1537917087968L394.6153846153846,534.6432374866879L398.07692307692304,531.882221055183L401.53846153846155,534.1682974559687L405,533.1719761075162L408.46153846153845,532.966696873584L411.9230769230769,531.2127590673575L415.3846153846154,529.7950443560721L418.84615384615387,533.9725700339559L422.3076923076923,535.5244113749873L425.7692307692308,534.0327793167129L429.2307692307692,532.3683030323938L432.6923076923077,533.6136659002299L436.15384615384613,544.0042601455089L439.6153846153846,531.4494649821661L443.0769230769231,543.7847147470399L446.53846153846155,532.9797365594794L450,534.5458687727825L453.46153846153845,537.5152782934003L456.9230769230769,536.0223476558L460.38461538461536,535.6405701566647L463.8461538461538,536.4852267998335L467.3076923076923,537.5134455589318L470.7692307692308,536.0823959886163L474.2307692307692,539.794517963168L477.6923076923077,539.7879779794673L481.15384615384613,540.1397832478799L484.6153846153846,540.3451815425748L488.07692307692304,540.1669420512216L491.5384615384615,543.19560750348L495.00000000000006,540.1279651870393L498.4615384615385,541.1708684719966L501.92307692307696,541.1303693780745L505.3846153846154,542.0970662803331L508.8461538461538,541.1167450309895L512.3076923076923,542.1609195402299L515.7692307692307,542.3591370041541L519.2307692307692,542.7406638590048L522.6923076923077,541.5781937662024L526.1538461538462,541.3674090881949L529.6153846153846,543.2468625213919L533.0769230769231,543.7946801985167L536.5384615384615,544.0043232670372L540,543.9667720090293L543.4615384615385,544.630946088795L546.9230769230769,547.8040341095441L550.3846153846155,544.5658847403994L553.8461538461539,541.7496519970018L557.3076923076924,545.237323943662L560.7692307692308,544.8473710235701L564.2307692307692,544.083267307121L567.6923076923076,544.3214807598636L571.1538461538461,543.8555381231198L574.6153846153845,544.0257774662248L578.0769230769231,542.9686522638696L581.5384615384615,544.5735849056604L585,547.1230832897718L588.4615384615385,544.0848874793244L591.9230769230769,542.9218974861446L595.3846153846154,544.2397185347248L598.8461538461538,544.7068305971338L602.3076923076923,546.2294191391559L605.7692307692308,544.9896803369916L609.2307692307693,543.7930151139954L612.6923076923077,545.8893592522352L616.1538461538462,545.8157065253839L619.6153846153846,545.7098195300872L623.0769230769231,545.8250822918443L626.5384615384615,545.411891164286L630,545.9236353858564L633.4615384615385,545.374619399739L636.9230769230769,544.5767477691468L640.3846153846154,546.781053722788L643.8461538461538,546.356593860972L647.3076923076923,546.4978580171359L650.7692307692307,546.4433933113071L654.2307692307692,546.799043313709L657.6923076923076,547.976241607704L661.1538461538462,547.436687761329L664.6153846153846,543.9970450510563L668.0769230769231,547.9134952840535L671.5384615384615,548.5367266175477L675,546.8831485417535L678.4615384615385,548.0391241619282L681.9230769230769,546.7649194719685L685.3846153846154,547.3935190544851L688.8461538461538,547.6546528022559L692.3076923076924,547.9001726445259L695.7692307692308,547.8266451266572L699.2307692307693,547.3499438333013L702.6923076923077,547.5052453316548L706.1538461538462,546.8944602912476L709.6153846153846,546.8618287301036L713.0769230769231,547.7207374340542L716.5384615384615,547.4627120436974L720,547.0719631548648L723.4615384615385,547.7681309612011L726.9230769230769,548.1731203509968L730.3846153846154,547.6605058365759L733.8461538461538,548.0983262082458L737.3076923076923,548.0232229021215L740.7692307692307,547.6060622375363L744.2307692307692,546.8357042342457L747.6923076923077,547.0780399274047L751.1538461538462,548.2685596856744L754.6153846153846,548.1618458537587L758.0769230769231,547.7151450117993L761.5384615384615,548.3009952749572L765,549.6504891655886L768.4615384615385,549.1247004339659L771.9230769230769,548.6761360876816L775.3846153846155,547.9874469503569L778.8461538461539,548.8101044467179L782.3076923076924,548.7467239628834L785.7692307692308,547.8057795431977L789.2307692307692,548.3944407677035L792.6923076923076,548.2518168520281L796.1538461538461,547.819881014088L799.6153846153845,547.9367031941107L803.0769230769231,548.0974134019059L806.5384615384615,548.6357413178985L810,549.1059595407327L813.4615384615385,549.8419468585269L816.9230769230769,549.0311143010946L820.3846153846154,547.7003534575304L823.8461538461538,551.5314148423554L827.3076923076923,547.8643909457951L830.7692307692308,548.0633367043132L834.2307692307693,550.116350739633L837.6923076923077,549.8333131777321L841.1538461538462,548.630270878821L844.6153846153846,548.3138141409739L848.0769230769231,550.1917469883439L851.5384615384615,550.694992044271L855,548.377404883099L858.4615384615385,548.4240642449834L861.9230769230769,549.9843248783636L865.3846153846154,551.4136160768725L868.8461538461538,549.3494031742429L872.3076923076923,550.7649086962074L875.7692307692307,549.8636341297096L879.2307692307692,549.6298995144115L882.6923076923076,549.7299497341183L886.1538461538462,554.9768845304166" style="fill: none; stroke: #98df8a; stroke-width: 2;"></path></g></g><path class="foreground" d="" style="display: none; fill: none;"></path></g><g transform="translate(0,0)"><path class="background" d="M0,0h900v600h-900Z" style="fill: none;"></path><g><g class="mark-line role-mark marks"><path d="M6.923076923076923,568.5737219066436L10.384615384615385,539.6212001266624L13.846153846153847,522.2983577690159L17.30769230769231,499.3911152038613L20.76923076923077,469.70813561260076L24.230769230769234,442.485307586628L27.692307692307693,306.88808664259926L31.153846153846157,448.27359896437014L34.61538461538462,437.45674854293566L38.07692307692308,390.3468274696574L41.53846153846154,355.9506632534326L45,368.8223684210526L48.46153846153847,319.05202257871446L51.92307692307693,300.5052364363661L55.38461538461539,132.7019890864284L58.84615384615385,333.34394864025325L62.307692307692314,355.5834556053456L65.76923076923077,308.67049403233125L69.23076923076924,260.5172254393559L72.6923076923077,268.6621509538291L76.15384615384616,228.5821386508549L79.61538461538461,242.36135196424996L83.07692307692308,94.6018046292664L86.53846153846155,305.57167886343586L90,268.46249575743866L93.46153846153847,246.86329931933747L96.92307692307693,239.67850358030103L100.38461538461539,227.20514902742L103.84615384615385,231.178994044027L107.3076923076923,224.21392663315245L110.76923076923077,29.50614117580004L114.23076923076923,246.5809787544288L117.6923076923077,229.00556014726868L121.15384615384615,215.91663592770186L124.61538461538463,183.54870663172548L128.07692307692307,230.1400030270925L131.53846153846155,179.66727702577415L135,198.4685970636216L138.46153846153848,56.603773584905646L141.9230769230769,237.94322074686445L145.3846153846154,207.17222619899783L148.84615384615384,222.5775465279167L152.30769230769232,204.48203905201962L155.76923076923077,200.2689445831065L159.23076923076923,193.13518311714347L162.69230769230768,227.79965550347325L166.15384615384616,144.09548802167103L169.6153846153846,260.0164652099799L173.0769230769231,243.46486113424876L176.53846153846155,223.255413614022L180,232.15136750008892L183.46153846153845,235.20807566387776L186.92307692307693,200.03765212129363L190.3846153846154,226.2355848434926L193.84615384615387,140.04560300733345L197.3076923076923,248.73441872297124L200.76923076923077,240.59829059829065L204.23076923076923,240.1593157126642L207.6923076923077,218.45386533665834L211.15384615384616,220.64009275547738L214.6153846153846,180.92347156904657L218.07692307692307,217.99086585642033L221.53846153846155,159.62560080951184L225,236.733764920089L228.46153846153845,233.5510688836104L231.9230769230769,237.98387096774198L235.3846153846154,211.15947764147208L238.84615384615384,209.42767983528503L242.3076923076923,187.13322759714512L245.76923076923075,212.6280737704918L249.23076923076925,150.94775460289424L252.6923076923077,226.9436666117608L256.15384615384613,221.41307884177425L259.6153846153846,216.0255380661741L263.0769230769231,193.53129484490563L266.53846153846155,224.23906439854198L270,183.1533129131066L273.46153846153845,213.20294355927624L276.92307692307696,148.72248645061387L280.3846153846154,213.29562381221427L283.8461538461538,212.97201043338683L287.30769230769226,216.23731734550228L290.7692307692308,199.42809083263236L294.2307692307692,214.97759253239218L297.6923076923077,165.84254143646407L301.15384615384613,206.13878559767824L304.61538461538464,144.83224914203765L308.0769230769231,221.87588401697315L311.53846153846155,214.99668627288534L315,211.24053921368076L318.46153846153845,181.75695461200584L321.9230769230769,204.40340003188777L325.38461538461536,157.54451038575672L328.8461538461538,202.75460299194472L332.3076923076923,148.87125671870996L335.7692307692308,215.4359673024523L339.2307692307692,203.87868985038412L342.6923076923077,197.9319498069498L346.1538461538462,189.55374029214113L349.61538461538464,202.5128929976697L353.0769230769231,175.75437754857285L356.53846153846155,195.54550551298823L360,133.75807663410976L363.46153846153845,209.77514053716428L366.9230769230769,199.0652440090957L370.38461538461536,207.93728597327606L373.84615384615387,184.47611064543173L377.3076923076923,195.29054234571203L380.7692307692308,147.63039255213866L384.2307692307692,193.2610524953072L387.69230769230774,142.58258258258255L391.1538461538462,206.18105950653117L394.6153846153846,214.29469273743015L398.07692307692304,193.08744440996998L401.53846153846155,197.9955814420566L405,193.68677042801548L408.46153846153845,162.03806167400882L411.9230769230769,188.23573011011925L415.3846153846154,139.89286721172823L418.84615384615387,203.23396793587182L422.3076923076923,221.46742021276594L425.7692307692308,196.76782834617447L429.2307692307692,179.2144236960721L432.6923076923077,202.79383909879365L436.15384615384613,171.21107580571945L439.6153846153846,192.27133038133638L443.0769230769231,148.44455424142296L446.53846153846155,197.6242177128769L450,188.762007761308L453.46153846153845,197.65346777406606L456.9230769230769,165.53585397653188L460.38461538461536,181.39991338509608L463.8461538461538,157.22077168552363L467.3076923076923,190.29900088157504L470.7692307692308,135.91656007084524L474.2307692307692,191.52556115046508L477.6923076923077,195.6923538031171L481.15384615384613,193.2521795125817L484.6153846153846,160.4865894767697L488.07692307692304,184.23640270305737L491.5384615384615,141.7817252851711L495.00000000000006,191.19955156950672L498.4615384615385,147.71362586605085L501.92307692307696,204.361606352205L505.3846153846154,195.2778770550393L508.8461538461538,191.4910889033865L512.3076923076923,167.4029554818923L515.7692307692307,198.63488124778442L519.2307692307692,168.29741768494546L522.6923076923077,189.28725320524143L526.1538461538462,130.87017454452794L529.6153846153846,193.88406980304114L533.0769230769231,189.71641791044777L536.5384615384615,191.53415341534154L540,172.33175976017364L543.4615384615385,194.6933840598401L546.9230769230769,155.4750183303656L550.3846153846155,177.62857891633362L553.8461538461539,136.774880255455L557.3076923076924,184.23355139011196L560.7692307692308,194.9182841693233L564.2307692307692,191.4187070317212L567.6923076923076,172.46727340730575L571.1538461538461,177.14855646241935L574.6153846153845,154.03928537429002L578.0769230769231,191.87609993113466L581.5384615384615,135.3549178475742L585,194.87567677816506L588.4615384615385,203.06474200150822L591.9230769230769,190.12450527704493L595.3846153846154,165.2921516653221L598.8461538461538,185.80836860957345L602.3076923076923,141.39988911769368L605.7692307692308,178.23639014906024L609.2307692307693,142.92415708664456L612.6923076923077,191.65329176037616L616.1538461538462,175.70528305850232L619.6153846153846,197.5541818540045L623.0769230769231,163.64212527727892L626.5384615384615,184.2098845311567L630,162.62323943661968L633.4615384615385,180.64746611667653L636.9230769230769,134.5438861332758L640.3846153846154,294.3768384927861L643.8461538461538,194.13047478836955L647.3076923076923,184.78790277519096L650.7692307692307,161.12582781456956L654.2307692307692,190.87068810635998L657.6923076923076,134.7467906600626L661.1538461538462,339.87318941893636L664.6153846153846,246.73731679819613L668.0769230769231,182.11636603607568L671.5384615384615,268.3766413268832L675,282.44006681076837L678.4615384615385,303.65198451113264L681.9230769230769,267.70885098381575L685.3846153846154,148.30019880715705L688.8461538461538,290.0854713970046L692.3076923076924,227.4108708357685L695.7692307692308,249.08185162477005L699.2307692307693,215.0850843444806L702.6923076923077,325.88963376460765L706.1538461538462,178.35028607755885L709.6153846153846,292.7997076023392L713.0769230769231,151.47227057945776L716.5384615384615,285.3874172185431L720,215.81278729628087L723.4615384615385,232.24197702060223L726.9230769230769,291.6337611056269L730.3846153846154,214.97473377195954L733.8461538461538,183.79140034863445L737.3076923076923,309.68393977415303L740.7692307692307,240.1017011834319L744.2307692307692,228.20543149129452L747.6923076923077,143.25552825552822L751.1538461538462,294.49178200692046L754.6153846153846,275.57370027306314L758.0769230769231,182.42095738869168L761.5384615384615,247.5325565455791L765,312.4744897959183L768.4615384615385,140.3620803159974L771.9230769230769,288.44540808805465L775.3846153846155,256.5317298400086L778.8461538461539,262.60584914536616L782.3076923076924,281.86663409868095L785.7692307692308,236.75858351302045L789.2307692307692,260.2265853283437L792.6923076923076,274.7311004086398L796.1538461538461,256.21336459554516L799.6153846153845,281.45296844273815L803.0769230769231,279.03465693840326L806.5384615384615,286.31163328197226L810,290.95219123505973L813.4615384615385,327.76107717290444L816.9230769230769,311.21431476209847L820.3846153846154,274.9774212580557L823.8461538461538,355.4645493329722L827.3076923076923,285.83696402381156L830.7692307692308,231.43631436314365L834.2307692307693,353.36949643642174L837.6923076923077,299.9915625376673L841.1538461538462,327.59434474274553L844.6153846153846,243.3043559983083L848.0769230769231,323.7016679302502L851.5384615384615,323.765215523414L855,320.53432851907735L858.4615384615385,247.2918634462286L861.9230769230769,317.3004505954297L865.3846153846154,339.7619280885666L868.8461538461538,332.4865121390748L872.3076923076923,333.44L875.7692307692307,337.9291769692688L879.2307692307692,301.23887698398283L882.6923076923076,325.173616866112L886.1538461538462,258.4713479931333" style="fill: none; stroke: #ffbb78; stroke-width: 2;"></path></g></g><path class="foreground" d="" style="display: none; fill: none;"></path></g></g><g class="mark-group role-legend"><g transform="translate(918,0)"><path class="background" d="M0,0h101v92h-101Z" style="pointer-events: none; fill: none;"></path><g><g class="mark-group role-legend-entry"><g transform="translate(0,16)"><path class="background" d="M0,0h0v0h0Z" style="pointer-events: none; fill: none;"></path><g><g class="mark-group role-scope"><g transform="translate(0,0)"><path class="background" d="M0,0h101v11h-101Z" style="pointer-events: none; fill: none; opacity: 1;"></path><g><g class="mark-symbol role-legend-symbol" style="pointer-events: none;"><path transform="translate(6,6)" d="M-5,0L5,0" style="fill: none; stroke: #1f77b4; stroke-width: 1.5; opacity: 1;"></path></g><g class="mark-text role-legend-label" style="pointer-events: none;"><text text-anchor="start" transform="translate(16,9)" style="font-family: sans-serif; font-size: 10px; fill: #000; opacity: 1;">Clang</text></g></g><path class="foreground" d="" style="pointer-events: none; display: none; fill: none;"></path></g><g transform="translate(0,13)"><path class="background" d="M0,0h101v11h-101Z" style="pointer-events: none; fill: none; opacity: 1;"></path><g><g class="mark-symbol role-legend-symbol" style="pointer-events: none;"><path transform="translate(6,6)" d="M-5,0L5,0" style="fill: none; stroke: #aec7e8; stroke-width: 1.5; opacity: 1;"></path></g><g class="mark-text role-legend-label" style="pointer-events: none;"><text text-anchor="start" transform="translate(16,9)" style="font-family: sans-serif; font-size: 10px; fill: #000; opacity: 1;">GFortran</text></g></g><path class="foreground" d="" style="pointer-events: none; display: none; fill: none;"></path></g><g transform="translate(0,26)"><path class="background" d="M0,0h101v11h-101Z" style="pointer-events: none; fill: none; opacity: 1;"></path><g><g class="mark-symbol role-legend-symbol" style="pointer-events: none;"><path transform="translate(6,6)" d="M-5,0L5,0" style="fill: none; stroke: #ff7f0e; stroke-width: 1.5; opacity: 1;"></path></g><g class="mark-text role-legend-label" style="pointer-events: none;"><text text-anchor="start" transform="translate(16,9)" style="font-family: sans-serif; font-size: 10px; fill: #000; opacity: 1;">Julia</text></g></g><path class="foreground" d="" style="pointer-events: none; display: none; fill: none;"></path></g><g transform="translate(0,39)"><path class="background" d="M0,0h101v11h-101Z" style="pointer-events: none; fill: none; opacity: 1;"></path><g><g class="mark-symbol role-legend-symbol" style="pointer-events: none;"><path transform="translate(6,6)" d="M-5,0L5,0" style="fill: none; stroke: #ffbb78; stroke-width: 1.5; opacity: 1;"></path></g><g class="mark-text role-legend-label" style="pointer-events: none;"><text text-anchor="start" transform="translate(16,9)" style="font-family: sans-serif; font-size: 10px; fill: #000; opacity: 1;">LoopVectorization</text></g></g><path class="foreground" d="" style="pointer-events: none; display: none; fill: none;"></path></g><g transform="translate(0,52)"><path class="background" d="M0,0h101v11h-101Z" style="pointer-events: none; fill: none; opacity: 1;"></path><g><g class="mark-symbol role-legend-symbol" style="pointer-events: none;"><path transform="translate(6,6)" d="M-5,0L5,0" style="fill: none; stroke: #2ca02c; stroke-width: 1.5; opacity: 1;"></path></g><g class="mark-text role-legend-label" style="pointer-events: none;"><text text-anchor="start" transform="translate(16,9)" style="font-family: sans-serif; font-size: 10px; fill: #000; opacity: 1;">icc</text></g></g><path class="foreground" d="" style="pointer-events: none; display: none; fill: none;"></path></g><g transform="translate(0,65)"><path class="background" d="M0,0h101v11h-101Z" style="pointer-events: none; fill: none; opacity: 1;"></path><g><g class="mark-symbol role-legend-symbol" style="pointer-events: none;"><path transform="translate(6,6)" d="M-5,0L5,0" style="fill: none; stroke: #98df8a; stroke-width: 1.5; opacity: 1;"></path></g><g class="mark-text role-legend-label" style="pointer-events: none;"><text text-anchor="start" transform="translate(16,9)" style="font-family: sans-serif; font-size: 10px; fill: #000; opacity: 1;">ifort</text></g></g><path class="foreground" d="" style="pointer-events: none; display: none; fill: none;"></path></g></g></g><path class="foreground" d="" style="pointer-events: none; display: none; fill: none;"></path></g></g><g class="mark-text role-legend-title" style="pointer-events: none;"><text text-anchor="start" transform="translate(0,9)" style="font-family: sans-serif; font-size: 11px; font-weight: bold; fill: #000; opacity: 1;">Method</text></g></g><path class="foreground" d="" style="pointer-events: none; display: none; fill: none;"></path></g></g></g><path class="foreground" d="" style="display: none; fill: none;"></path></g></g></g></svg>
