<?xml version="1.0" encoding="utf-8"?>
<!DOCTYPE svg PUBLIC "-//W3C//DTD SVG 1.1//EN" "http://www.w3.org/Graphics/SVG/1.1/DTD/svg11.dtd">
<svg class="marks" width="1066" height="647" viewBox="0 0 1066 647" version="1.1" xmlns="http://www.w3.org/2000/svg" xmlns:xlink="http://www.w3.org/1999/xlink"><rect width="1066" height="647" style="fill: white;"></rect><g transform="translate(42,10)"><g class="mark-group role-frame root"><g transform="translate(0,0)"><path class="background" d="M0.5,0.5h900v600h-900Z" style="fill: none; stroke: #ddd;"></path><g><g class="mark-group role-axis"><g transform="translate(0.5,600.5)"><path class="background" d="M0,0h0v0h0Z" style="pointer-events: none; fill: none;"></path><g><g class="mark-rule role-axis-grid" style="pointer-events: none;"><line transform="translate(0,-600)" x2="0" y2="600" style="fill: none; stroke: #ddd; stroke-width: 1; opacity: 1;"></line><line transform="translate(35,-600)" x2="0" y2="600" style="fill: none; stroke: #ddd; stroke-width: 1; opacity: 1;"></line><line transform="translate(69,-600)" x2="0" y2="600" style="fill: none; stroke: #ddd; stroke-width: 1; opacity: 1;"></line><line transform="translate(104,-600)" x2="0" y2="600" style="fill: none; stroke: #ddd; stroke-width: 1; opacity: 1;"></line><line transform="translate(138,-600)" x2="0" y2="600" style="fill: none; stroke: #ddd; stroke-width: 1; opacity: 1;"></line><line transform="translate(173,-600)" x2="0" y2="600" style="fill: none; stroke: #ddd; stroke-width: 1; opacity: 1;"></line><line transform="translate(208,-600)" x2="0" y2="600" style="fill: none; stroke: #ddd; stroke-width: 1; opacity: 1;"></line><line transform="translate(242,-600)" x2="0" y2="600" style="fill: none; stroke: #ddd; stroke-width: 1; opacity: 1;"></line><line transform="translate(277,-600)" x2="0" y2="600" style="fill: none; stroke: #ddd; stroke-width: 1; opacity: 1;"></line><line transform="translate(312,-600)" x2="0" y2="600" style="fill: none; stroke: #ddd; stroke-width: 1; opacity: 1;"></line><line transform="translate(346,-600)" x2="0" y2="600" style="fill: none; stroke: #ddd; stroke-width: 1; opacity: 1;"></line><line transform="translate(381,-600)" x2="0" y2="600" style="fill: none; stroke: #ddd; stroke-width: 1; opacity: 1;"></line><line transform="translate(415,-600)" x2="0" y2="600" style="fill: none; stroke: #ddd; stroke-width: 1; opacity: 1;"></line><line transform="translate(450,-600)" x2="0" y2="600" style="fill: none; stroke: #ddd; stroke-width: 1; opacity: 1;"></line><line transform="translate(485,-600)" x2="0" y2="600" style="fill: none; stroke: #ddd; stroke-width: 1; opacity: 1;"></line><line transform="translate(519,-600)" x2="0" y2="600" style="fill: none; stroke: #ddd; stroke-width: 1; opacity: 1;"></line><line transform="translate(554,-600)" x2="0" y2="600" style="fill: none; stroke: #ddd; stroke-width: 1; opacity: 1;"></line><line transform="translate(588,-600)" x2="0" y2="600" style="fill: none; stroke: #ddd; stroke-width: 1; opacity: 1;"></line><line transform="translate(623,-600)" x2="0" y2="600" style="fill: none; stroke: #ddd; stroke-width: 1; opacity: 1;"></line><line transform="translate(658,-600)" x2="0" y2="600" style="fill: none; stroke: #ddd; stroke-width: 1; opacity: 1;"></line><line transform="translate(692,-600)" x2="0" y2="600" style="fill: none; stroke: #ddd; stroke-width: 1; opacity: 1;"></line><line transform="translate(727,-600)" x2="0" y2="600" style="fill: none; stroke: #ddd; stroke-width: 1; opacity: 1;"></line><line transform="translate(762,-600)" x2="0" y2="600" style="fill: none; stroke: #ddd; stroke-width: 1; opacity: 1;"></line><line transform="translate(796,-600)" x2="0" y2="600" style="fill: none; stroke: #ddd; stroke-width: 1; opacity: 1;"></line><line transform="translate(831,-600)" x2="0" y2="600" style="fill: none; stroke: #ddd; stroke-width: 1; opacity: 1;"></line><line transform="translate(865,-600)" x2="0" y2="600" style="fill: none; stroke: #ddd; stroke-width: 1; opacity: 1;"></line><line transform="translate(900,-600)" x2="0" y2="600" style="fill: none; stroke: #ddd; stroke-width: 1; opacity: 1;"></line></g></g><path class="foreground" d="" style="pointer-events: none; display: none; fill: none;"></path></g></g><g class="mark-group role-axis"><g transform="translate(0.5,0.5)"><path class="background" d="M0,0h0v0h0Z" style="pointer-events: none; fill: none;"></path><g><g class="mark-rule role-axis-grid" style="pointer-events: none;"><line transform="translate(0,600)" x2="900" y2="0" style="fill: none; stroke: #ddd; stroke-width: 1; opacity: 1;"></line><line transform="translate(0,554)" x2="900" y2="0" style="fill: none; stroke: #ddd; stroke-width: 1; opacity: 1;"></line><line transform="translate(0,508)" x2="900" y2="0" style="fill: none; stroke: #ddd; stroke-width: 1; opacity: 1;"></line><line transform="translate(0,462)" x2="900" y2="0" style="fill: none; stroke: #ddd; stroke-width: 1; opacity: 1;"></line><line transform="translate(0,415)" x2="900" y2="0" style="fill: none; stroke: #ddd; stroke-width: 1; opacity: 1;"></line><line transform="translate(0,369)" x2="900" y2="0" style="fill: none; stroke: #ddd; stroke-width: 1; opacity: 1;"></line><line transform="translate(0,323)" x2="900" y2="0" style="fill: none; stroke: #ddd; stroke-width: 1; opacity: 1;"></line><line transform="translate(0,277)" x2="900" y2="0" style="fill: none; stroke: #ddd; stroke-width: 1; opacity: 1;"></line><line transform="translate(0,231)" x2="900" y2="0" style="fill: none; stroke: #ddd; stroke-width: 1; opacity: 1;"></line><line transform="translate(0,185)" x2="900" y2="0" style="fill: none; stroke: #ddd; stroke-width: 1; opacity: 1;"></line><line transform="translate(0,138)" x2="900" y2="0" style="fill: none; stroke: #ddd; stroke-width: 1; opacity: 1;"></line><line transform="translate(0,92)" x2="900" y2="0" style="fill: none; stroke: #ddd; stroke-width: 1; opacity: 1;"></line><line transform="translate(0,46)" x2="900" y2="0" style="fill: none; stroke: #ddd; stroke-width: 1; opacity: 1;"></line><line transform="translate(0,0)" x2="900" y2="0" style="fill: none; stroke: #ddd; stroke-width: 1; opacity: 1;"></line></g></g><path class="foreground" d="" style="pointer-events: none; display: none; fill: none;"></path></g></g><g class="mark-group role-axis"><g transform="translate(0.5,600.5)"><path class="background" d="M0,0h0v0h0Z" style="pointer-events: none; fill: none;"></path><g><g class="mark-rule role-axis-tick" style="pointer-events: none;"><line transform="translate(0,0)" x2="0" y2="5" style="fill: none; stroke: #888; stroke-width: 1; opacity: 1;"></line><line transform="translate(35,0)" x2="0" y2="5" style="fill: none; stroke: #888; stroke-width: 1; opacity: 1;"></line><line transform="translate(69,0)" x2="0" y2="5" style="fill: none; stroke: #888; stroke-width: 1; opacity: 1;"></line><line transform="translate(104,0)" x2="0" y2="5" style="fill: none; stroke: #888; stroke-width: 1; opacity: 1;"></line><line transform="translate(138,0)" x2="0" y2="5" style="fill: none; stroke: #888; stroke-width: 1; opacity: 1;"></line><line transform="translate(173,0)" x2="0" y2="5" style="fill: none; stroke: #888; stroke-width: 1; opacity: 1;"></line><line transform="translate(208,0)" x2="0" y2="5" style="fill: none; stroke: #888; stroke-width: 1; opacity: 1;"></line><line transform="translate(242,0)" x2="0" y2="5" style="fill: none; stroke: #888; stroke-width: 1; opacity: 1;"></line><line transform="translate(277,0)" x2="0" y2="5" style="fill: none; stroke: #888; stroke-width: 1; opacity: 1;"></line><line transform="translate(312,0)" x2="0" y2="5" style="fill: none; stroke: #888; stroke-width: 1; opacity: 1;"></line><line transform="translate(346,0)" x2="0" y2="5" style="fill: none; stroke: #888; stroke-width: 1; opacity: 1;"></line><line transform="translate(381,0)" x2="0" y2="5" style="fill: none; stroke: #888; stroke-width: 1; opacity: 1;"></line><line transform="translate(415,0)" x2="0" y2="5" style="fill: none; stroke: #888; stroke-width: 1; opacity: 1;"></line><line transform="translate(450,0)" x2="0" y2="5" style="fill: none; stroke: #888; stroke-width: 1; opacity: 1;"></line><line transform="translate(485,0)" x2="0" y2="5" style="fill: none; stroke: #888; stroke-width: 1; opacity: 1;"></line><line transform="translate(519,0)" x2="0" y2="5" style="fill: none; stroke: #888; stroke-width: 1; opacity: 1;"></line><line transform="translate(554,0)" x2="0" y2="5" style="fill: none; stroke: #888; stroke-width: 1; opacity: 1;"></line><line transform="translate(588,0)" x2="0" y2="5" style="fill: none; stroke: #888; stroke-width: 1; opacity: 1;"></line><line transform="translate(623,0)" x2="0" y2="5" style="fill: none; stroke: #888; stroke-width: 1; opacity: 1;"></line><line transform="translate(658,0)" x2="0" y2="5" style="fill: none; stroke: #888; stroke-width: 1; opacity: 1;"></line><line transform="translate(692,0)" x2="0" y2="5" style="fill: none; stroke: #888; stroke-width: 1; opacity: 1;"></line><line transform="translate(727,0)" x2="0" y2="5" style="fill: none; stroke: #888; stroke-width: 1; opacity: 1;"></line><line transform="translate(762,0)" x2="0" y2="5" style="fill: none; stroke: #888; stroke-width: 1; opacity: 1;"></line><line transform="translate(796,0)" x2="0" y2="5" style="fill: none; stroke: #888; stroke-width: 1; opacity: 1;"></line><line transform="translate(831,0)" x2="0" y2="5" style="fill: none; stroke: #888; stroke-width: 1; opacity: 1;"></line><line transform="translate(865,0)" x2="0" y2="5" style="fill: none; stroke: #888; stroke-width: 1; opacity: 1;"></line><line transform="translate(900,0)" x2="0" y2="5" style="fill: none; stroke: #888; stroke-width: 1; opacity: 1;"></line></g><g class="mark-text role-axis-label" style="pointer-events: none;"><text text-anchor="start" transform="translate(0,15)" style="font-family: sans-serif; font-size: 10px; fill: #000; opacity: 1;">0</text><text text-anchor="middle" transform="translate(34.61538461538462,15)" style="font-family: sans-serif; font-size: 10px; fill: #000; opacity: 1;">10</text><text text-anchor="middle" transform="translate(69.23076923076924,15)" style="font-family: sans-serif; font-size: 10px; fill: #000; opacity: 1;">20</text><text text-anchor="middle" transform="translate(103.84615384615385,15)" style="font-family: sans-serif; font-size: 10px; fill: #000; opacity: 1;">30</text><text text-anchor="middle" transform="translate(138.46153846153848,15)" style="font-family: sans-serif; font-size: 10px; fill: #000; opacity: 1;">40</text><text text-anchor="middle" transform="translate(173.0769230769231,15)" style="font-family: sans-serif; font-size: 10px; fill: #000; opacity: 1;">50</text><text text-anchor="middle" transform="translate(207.6923076923077,15)" style="font-family: sans-serif; font-size: 10px; fill: #000; opacity: 1;">60</text><text text-anchor="middle" transform="translate(242.3076923076923,15)" style="font-family: sans-serif; font-size: 10px; fill: #000; opacity: 1;">70</text><text text-anchor="middle" transform="translate(276.92307692307696,15)" style="font-family: sans-serif; font-size: 10px; fill: #000; opacity: 1;">80</text><text text-anchor="middle" transform="translate(311.53846153846155,15)" style="font-family: sans-serif; font-size: 10px; fill: #000; opacity: 1;">90</text><text text-anchor="middle" transform="translate(346.1538461538462,15)" style="font-family: sans-serif; font-size: 10px; fill: #000; opacity: 1;">100</text><text text-anchor="middle" transform="translate(380.7692307692308,15)" style="font-family: sans-serif; font-size: 10px; fill: #000; opacity: 1;">110</text><text text-anchor="middle" transform="translate(415.3846153846154,15)" style="font-family: sans-serif; font-size: 10px; fill: #000; opacity: 1;">120</text><text text-anchor="middle" transform="translate(450,15)" style="font-family: sans-serif; font-size: 10px; fill: #000; opacity: 1;">130</text><text text-anchor="middle" transform="translate(484.6153846153846,15)" style="font-family: sans-serif; font-size: 10px; fill: #000; opacity: 1;">140</text><text text-anchor="middle" transform="translate(519.2307692307692,15)" style="font-family: sans-serif; font-size: 10px; fill: #000; opacity: 1;">150</text><text text-anchor="middle" transform="translate(553.8461538461539,15)" style="font-family: sans-serif; font-size: 10px; fill: #000; opacity: 1;">160</text><text text-anchor="middle" transform="translate(588.4615384615385,15)" style="font-family: sans-serif; font-size: 10px; fill: #000; opacity: 1;">170</text><text text-anchor="middle" transform="translate(623.0769230769231,15)" style="font-family: sans-serif; font-size: 10px; fill: #000; opacity: 1;">180</text><text text-anchor="middle" transform="translate(657.6923076923076,15)" style="font-family: sans-serif; font-size: 10px; fill: #000; opacity: 1;">190</text><text text-anchor="middle" transform="translate(692.3076923076924,15)" style="font-family: sans-serif; font-size: 10px; fill: #000; opacity: 1;">200</text><text text-anchor="middle" transform="translate(726.9230769230769,15)" style="font-family: sans-serif; font-size: 10px; fill: #000; opacity: 1;">210</text><text text-anchor="middle" transform="translate(761.5384615384615,15)" style="font-family: sans-serif; font-size: 10px; fill: #000; opacity: 1;">220</text><text text-anchor="middle" transform="translate(796.1538461538461,15)" style="font-family: sans-serif; font-size: 10px; fill: #000; opacity: 1;">230</text><text text-anchor="middle" transform="translate(830.7692307692308,15)" style="font-family: sans-serif; font-size: 10px; fill: #000; opacity: 1;">240</text><text text-anchor="middle" transform="translate(865.3846153846154,15)" style="font-family: sans-serif; font-size: 10px; fill: #000; opacity: 1;">250</text><text text-anchor="end" transform="translate(900,15)" style="font-family: sans-serif; font-size: 10px; fill: #000; opacity: 1;">260</text></g><g class="mark-rule role-axis-domain" style="pointer-events: none;"><line transform="translate(0,0)" x2="900" y2="0" style="fill: none; stroke: #888; stroke-width: 1; opacity: 1;"></line></g><g class="mark-text role-axis-title" style="pointer-events: none;"><text text-anchor="middle" transform="translate(450,30)" style="font-family: sans-serif; font-size: 11px; font-weight: bold; fill: #000; opacity: 1;">Size</text></g></g><path class="foreground" d="" style="pointer-events: none; display: none; fill: none;"></path></g></g><g class="mark-group role-axis"><g transform="translate(0.5,0.5)"><path class="background" d="M0,0h0v0h0Z" style="pointer-events: none; fill: none;"></path><g><g class="mark-rule role-axis-tick" style="pointer-events: none;"><line transform="translate(0,600)" x2="-5" y2="0" style="fill: none; stroke: #888; stroke-width: 1; opacity: 1;"></line><line transform="translate(0,554)" x2="-5" y2="0" style="fill: none; stroke: #888; stroke-width: 1; opacity: 1;"></line><line transform="translate(0,508)" x2="-5" y2="0" style="fill: none; stroke: #888; stroke-width: 1; opacity: 1;"></line><line transform="translate(0,462)" x2="-5" y2="0" style="fill: none; stroke: #888; stroke-width: 1; opacity: 1;"></line><line transform="translate(0,415)" x2="-5" y2="0" style="fill: none; stroke: #888; stroke-width: 1; opacity: 1;"></line><line transform="translate(0,369)" x2="-5" y2="0" style="fill: none; stroke: #888; stroke-width: 1; opacity: 1;"></line><line transform="translate(0,323)" x2="-5" y2="0" style="fill: none; stroke: #888; stroke-width: 1; opacity: 1;"></line><line transform="translate(0,277)" x2="-5" y2="0" style="fill: none; stroke: #888; stroke-width: 1; opacity: 1;"></line><line transform="translate(0,231)" x2="-5" y2="0" style="fill: none; stroke: #888; stroke-width: 1; opacity: 1;"></line><line transform="translate(0,185)" x2="-5" y2="0" style="fill: none; stroke: #888; stroke-width: 1; opacity: 1;"></line><line transform="translate(0,138)" x2="-5" y2="0" style="fill: none; stroke: #888; stroke-width: 1; opacity: 1;"></line><line transform="translate(0,92)" x2="-5" y2="0" style="fill: none; stroke: #888; stroke-width: 1; opacity: 1;"></line><line transform="translate(0,46)" x2="-5" y2="0" style="fill: none; stroke: #888; stroke-width: 1; opacity: 1;"></line><line transform="translate(0,0)" x2="-5" y2="0" style="fill: none; stroke: #888; stroke-width: 1; opacity: 1;"></line></g><g class="mark-text role-axis-label" style="pointer-events: none;"><text text-anchor="end" transform="translate(-7,603)" style="font-family: sans-serif; font-size: 10px; fill: #000; opacity: 1;">0.0</text><text text-anchor="end" transform="translate(-7,556.8461538461539)" style="font-family: sans-serif; font-size: 10px; fill: #000; opacity: 1;">0.1</text><text text-anchor="end" transform="translate(-7,510.6923076923077)" style="font-family: sans-serif; font-size: 10px; fill: #000; opacity: 1;">0.2</text><text text-anchor="end" transform="translate(-7,464.53846153846155)" style="font-family: sans-serif; font-size: 10px; fill: #000; opacity: 1;">0.3</text><text text-anchor="end" transform="translate(-7,418.38461538461536)" style="font-family: sans-serif; font-size: 10px; fill: #000; opacity: 1;">0.4</text><text text-anchor="end" transform="translate(-7,372.2307692307692)" style="font-family: sans-serif; font-size: 10px; fill: #000; opacity: 1;">0.5</text><text text-anchor="end" transform="translate(-7,326.07692307692315)" style="font-family: sans-serif; font-size: 10px; fill: #000; opacity: 1;">0.6</text><text text-anchor="end" transform="translate(-7,279.92307692307696)" style="font-family: sans-serif; font-size: 10px; fill: #000; opacity: 1;">0.7</text><text text-anchor="end" transform="translate(-7,233.76923076923075)" style="font-family: sans-serif; font-size: 10px; fill: #000; opacity: 1;">0.8</text><text text-anchor="end" transform="translate(-7,187.6153846153846)" style="font-family: sans-serif; font-size: 10px; fill: #000; opacity: 1;">0.9</text><text text-anchor="end" transform="translate(-7,141.4615384615385)" style="font-family: sans-serif; font-size: 10px; fill: #000; opacity: 1;">1.0</text><text text-anchor="end" transform="translate(-7,95.3076923076923)" style="font-family: sans-serif; font-size: 10px; fill: #000; opacity: 1;">1.1</text><text text-anchor="end" transform="translate(-7,49.15384615384619)" style="font-family: sans-serif; font-size: 10px; fill: #000; opacity: 1;">1.2</text><text text-anchor="end" transform="translate(-7,3)" style="font-family: sans-serif; font-size: 10px; fill: #000; opacity: 1;">1.3</text></g><g class="mark-rule role-axis-domain" style="pointer-events: none;"><line transform="translate(0,600)" x2="0" y2="-600" style="fill: none; stroke: #888; stroke-width: 1; opacity: 1;"></line></g><g class="mark-text role-axis-title" style="pointer-events: none;"><text text-anchor="middle" transform="translate(-26,300) rotate(-90) translate(0,-2)" style="font-family: sans-serif; font-size: 11px; font-weight: bold; fill: #000; opacity: 1;">GFLOPS</text></g></g><path class="foreground" d="" style="pointer-events: none; display: none; fill: none;"></path></g></g><g class="mark-group role-scope pathgroup"><g transform="translate(0,0)"><path class="background" d="M0,0h900v600h-900Z" style="fill: none;"></path><g><g class="mark-line role-mark marks"><path d="M6.923076923076923,547.0952294704664L10.384615384615385,541.2708916158367L13.846153846153847,535.9934814131825L17.30769230769231,532.4945954887627L20.76923076923077,530.4622401543724L24.230769230769234,528.8066048164976L27.692307692307693,526.8783945844079L31.153846153846157,525.9384186090595L34.61538461538462,524.8839951607222L38.07692307692308,524.5825557353364L41.53846153846154,523.2532993872841L45,524.1528968834972L48.46153846153847,523.1651669944976L51.92307692307693,523.3850214333163L55.38461538461539,522.5049504190914L58.84615384615385,523.4235457422118L62.307692307692314,524.2474522888673L65.76923076923077,524.6363310226708L69.23076923076924,522.9235899178856L72.6923076923077,522.2135942933485L76.15384615384616,522.877305467334L79.61538461538461,523.3009176029358L83.07692307692308,522.1037312507113L86.53846153846155,522.924328818827L90,521.3127369796468L93.46153846153847,522.5365427614043L96.92307692307693,521.0067112867654L100.38461538461539,520.4515184006915L103.84615384615385,520.9067791482842L107.3076923076923,520.1082894706162L110.76923076923077,521.9269901927778L114.23076923076923,520.3165957663927L117.6923076923077,521.345758647147L121.15384615384615,519.9430004679851L124.61538461538463,521.0309181530948L128.07692307692307,519.7998609141732L131.53846153846155,519.3040033238626L135,520.1500586166471L138.46153846153848,520.7907661564382L141.9230769230769,519.7528568373485L145.3846153846154,519.860228924122L148.84615384615384,519.2184858162691L152.30769230769232,519.2847667749905L155.76923076923077,519.5805734284196L159.23076923076923,518.6644538146551L162.69230769230768,519.4369549859714L166.15384615384616,520.1225596986606L169.6153846153846,518.8168551672129L173.0769230769231,518.7625013083461L176.53846153846155,518.7463635405155L180,518.2926042942807L183.46153846153845,518.2670889214562L186.92307692307693,519.9799960237998L190.3846153846154,518.8384885922986L193.84615384615387,518.8780180592984L197.3076923076923,518.4075310355174L200.76923076923077,519.2182866953692L204.23076923076923,518.8210940372942L207.6923076923077,519.177256455363L211.15384615384616,518.233353915658L214.6153846153846,518.1751184851173L218.07692307692307,518.5931033074933L221.53846153846155,519.5179664030439L225,518.1516237874315L228.46153846153845,518.0141611903398L231.9230769230769,518.3358875774115L235.3846153846154,518.2618907809747L238.84615384615384,517.8919029838656L242.3076923076923,518.1351652230579L245.76923076923075,518.0748749487968L249.23076923076925,518.082213600628L252.6923076923077,519.0958547323105L256.15384615384613,517.7842044731289L259.6153846153846,518.3853463720376L263.0769230769231,518.0128062074057L266.53846153846155,518.0110996386164L270,517.8404297010073L273.46153846153845,518.6401535444743L276.92307692307696,517.8472948559474L280.3846153846154,518.8750181116593L283.8461538461538,517.5665619139554L287.30769230769226,517.810849089173L290.7692307692308,519.000578567296L294.2307692307692,517.56739706439L297.6923076923077,517.7085991324317L301.15384615384613,517.5138267052937L304.61538461538464,517.268116176138L308.0769230769231,517.3125212513429L311.53846153846155,518.0077658539672L315,518.5873943725959L318.46153846153845,517.4427055461172L321.9230769230769,517.4098857370907L325.38461538461536,517.5419030334298L328.8461538461538,517.3977310689786L332.3076923076923,517.6234411191177L335.7692307692308,517.3587993067028L339.2307692307692,518.2536746157209L342.6923076923077,517.3649754500818L346.1538461538462,517.4557328480821L349.61538461538464,517.3073972667406L353.0769230769231,518.6857614668451L356.53846153846155,517.5882268895556L360,517.5639077878327L363.46153846153845,517.3606718417055L366.9230769230769,517.2385075170685L370.38461538461536,517.9084199957281L373.84615384615387,518.3744568194398L377.3076923076923,516.958312501488L380.7692307692308,517.4630599758369L384.2307692307692,517.7054185599598L387.69230769230774,517.4552731880487L391.1538461538462,517.3875959546729L394.6153846153846,517.2163985185516L398.07692307692304,518.1722917076943L401.53846153846155,517.1604291730325L405,517.5441226065125L408.46153846153845,517.2183373659676L411.9230769230769,517.5391472231947L415.3846153846154,516.9947152420878L418.84615384615387,518.0154267945203L422.3076923076923,516.9495057206778L425.7692307692308,517.2308375626035L429.2307692307692,518.1603217145973L432.6923076923077,518.3268429375343L436.15384615384613,516.7620511291303L439.6153846153846,520.6177076634336L443.0769230769231,517.075391233693L446.53846153846155,518.4319340981127L450,518.1323952670291L453.46153846153845,516.684333262667L456.9230769230769,519.1315919419499L460.38461538461536,517.0902838814872L463.8461538461538,517.2753700925263L467.3076923076923,517.3702496894633L470.7692307692308,516.8892309085148L474.2307692307692,516.7416048005031L477.6923076923077,517.0820303431701L481.15384615384613,517.4428544467511L484.6153846153846,516.9158666845382L488.07692307692304,517.7198837228722L491.5384615384615,517.7326521102103L495.00000000000006,517.7168875518335L498.4615384615385,517.3430997585431L501.92307692307696,517.6872050006378L505.3846153846154,517.2079942832115L508.8461538461538,517.7191426629965L512.3076923076923,517.1488184026656L515.7692307692307,518.0261478860863L519.2307692307692,517.098419444143L522.6923076923077,517.1912533695845L526.1538461538462,517.6049557846704L529.6153846153846,517.1682224412197L533.0769230769231,517.4669582580584L536.5384615384615,517.4603832027442L540,516.8961606998217L543.4615384615385,518.3321081463795L546.9230769230769,518.3534419402254L550.3846153846155,521.702871212422L553.8461538461539,517.4608981981157L557.3076923076924,517.9075397549207L560.7692307692308,517.6926174912481L564.2307692307692,518.7799036653254L567.6923076923076,519.1660774482392L571.1538461538461,518.892822658513L574.6153846153845,519.6097697922515L578.0769230769231,517.5435012088399L581.5384615384615,517.9587351971677L585,519.0132070769997L588.4615384615385,520.4405410043212L591.9230769230769,517.8780787144676L595.3846153846154,517.4208764134852L598.8461538461538,516.954405349413L602.3076923076923,518.6725870530497L605.7692307692308,518.9877324280534L609.2307692307693,518.3336770468138L612.6923076923077,517.871780991416L616.1538461538462,518.1979028638393L619.6153846153846,518.089049558413L623.0769230769231,518.9493433395872L626.5384615384615,519.6977203321527L630,519.3161079627317L633.4615384615385,519.9720120697949L636.9230769230769,519.427820756094L640.3846153846154,518.5572153904851L643.8461538461538,518.6060928736571L647.3076923076923,517.9350648400758L650.7692307692307,519.0132249680504L654.2307692307692,519.8320290131704L657.6923076923076,517.5591729883354L661.1538461538462,529.9198297528849L664.6153846153846,519.2938209331652L668.0769230769231,519.3582083315923L671.5384615384615,523.189103938868L675,519.7288619336425L678.4615384615385,526.0572678915004L681.9230769230769,520.5009382503481L685.3846153846154,520.7693641541397L688.8461538461538,521.6329745339984L692.3076923076924,520.9694415173867L695.7692307692308,519.4501773298335L699.2307692307693,520.5938427469813L702.6923076923077,521.458372292474L706.1538461538462,531.9107273981442L709.6153846153846,519.993755610194L713.0769230769231,523.1639541967648L716.5384615384615,526.8521081552243L720,521.3179247602656L723.4615384615385,520.3587033838024L726.9230769230769,521.7162774226016L730.3846153846154,521.0053411870414L733.8461538461538,520.5794205794206L737.3076923076923,520.6492111488479L740.7692307692307,521.462125660599L744.2307692307692,520.8117714222574L747.6923076923077,521.2789737110647L751.1538461538462,520.3547943110567L754.6153846153846,521.1292744255039L758.0769230769231,524.6481861660034L761.5384615384615,520.3244965956831L765,520.8811666149551L768.4615384615385,520.4244031830239L771.9230769230769,532.5006053757365L775.3846153846155,521.9915374748242L778.8461538461539,520.619053779121L782.3076923076924,520.9610575830171L785.7692307692308,521.5975224356577L789.2307692307692,520.1890259910738L792.6923076923076,520.8060035274182L796.1538461538461,521.3033982105077L799.6153846153845,520.6907798739979L803.0769230769231,523.728952862082L806.5384615384615,522.6174990728491L810,520.7688357420585L813.4615384615385,526.927482003949L816.9230769230769,520.22625097182L820.3846153846154,521.1415071843303L823.8461538461538,528.9389611552892L827.3076923076923,530.1407901787888L830.7692307692308,527.3739635659384L834.2307692307693,520.8772448209068L837.6923076923077,520.7293770813998L841.1538461538462,522.0991552727331L844.6153846153846,524.7927176336419L848.0769230769231,522.7405554270817L851.5384615384615,522.1379361277867L855,521.6494845360825L858.4615384615385,523.0355443373195L861.9230769230769,521.0259229500571L865.3846153846154,523.0820509401938L868.8461538461538,521.7995451288282L872.3076923076923,521.2114264275218L875.7692307692307,520.0210748155953L879.2307692307692,520.049942555569L882.6923076923076,533.6608377812369L886.1538461538462,521.2727570936526" style="fill: none; stroke: #ffbb78; stroke-width: 2;"></path></g></g><path class="foreground" d="" style="display: none; fill: none;"></path></g><g transform="translate(0,0)"><path class="background" d="M0,0h900v600h-900Z" style="fill: none;"></path><g><g class="mark-line role-mark marks"><path d="M6.923076923076923,542.8977394637842L10.384615384615385,541.2308479043329L13.846153846153847,537.8977288981008L17.30769230769231,538.3023186386705L20.76923076923077,537.3176381201623L24.230769230769234,536.907536907537L27.692307692307693,535.8568797112581L31.153846153846157,536.1288007567987L34.61538461538462,535.7499304617231L38.07692307692308,536.0196123201903L41.53846153846154,535.4962607743954L45,535.3716918074248L48.46153846153847,538.3893691460487L51.92307692307693,536.1763941111476L55.38461538461539,536.787869356986L58.84615384615385,534.815418153942L62.307692307692314,535.7448920184073L65.76923076923077,536.2286411716843L69.23076923076924,535.9774534822276L72.6923076923077,534.6206735972149L76.15384615384616,535.2792112677445L79.61538461538461,535.8839689722043L83.07692307692308,536.0147267692357L86.53846153846155,536.6212912752677L90,535.4513530262342L93.46153846153847,537.356392696623L96.92307692307693,535.7445547853517L100.38461538461539,535.4074455116328L103.84615384615385,535.2631979158175L107.3076923076923,535.1488815913137L110.76923076923077,536.24873829309L114.23076923076923,535.6017940849156L117.6923076923077,534.9386831343774L121.15384615384615,535.0692879156312L124.61538461538463,535.1501282378238L128.07692307692307,534.898275262609L131.53846153846155,534.832790122023L135,534.9240780911064L138.46153846153848,534.7517069419523L141.9230769230769,534.7521617640582L145.3846153846154,534.6487708357581L148.84615384615384,535.1741648813775L152.30769230769232,534.870532355395L155.76923076923077,534.6503510548124L159.23076923076923,534.5201204415074L162.69230769230768,534.4925997212451L166.15384615384616,534.6432590498652L169.6153846153846,535.0002313707948L173.0769230769231,534.5057684911537L176.53846153846155,534.3187988862903L180,535.2863786163686L183.46153846153845,533.6954838474595L186.92307692307693,534.3680832831052L190.3846153846154,533.9306760295285L193.84615384615387,533.7631235324773L197.3076923076923,533.6106397588651L200.76923076923077,534.898298567992L204.23076923076923,535.1842225115354L207.6923076923077,535.1582666874237L211.15384615384616,534.6649012895865L214.6153846153846,535.0678888600912L218.07692307692307,535.3722846196157L221.53846153846155,534.5030454940974L225,535.4542773827856L228.46153846153845,534.9098161257095L231.9230769230769,534.4502873914638L235.3846153846154,535.3694081865416L238.84615384615384,534.4251908638769L242.3076923076923,535.6161304388921L245.76923076923075,535.4719211265925L249.23076923076925,534.5911041830595L252.6923076923077,534.8940914158305L256.15384615384613,537.2681053497819L259.6153846153846,534.6119813793277L263.0769230769231,535.4256522741276L266.53846153846155,535.3015799792411L270,535.2242386719809L273.46153846153845,536.3278285163126L276.92307692307696,535.8889208406258L280.3846153846154,537.032141879988L283.8461538461538,536.1550350731186L287.30769230769226,535.397747161123L290.7692307692308,536.291101990578L294.2307692307692,536.177138640934L297.6923076923077,536.2699937169015L301.15384615384613,535.6346954971385L304.61538461538464,536.0357303149391L308.0769230769231,536.3513296800302L311.53846153846155,535.9232056519904L315,535.7231381680249L318.46153846153845,535.9933304369268L321.9230769230769,537.1334274410004L325.38461538461536,536.5814100516276L328.8461538461538,536.4222159739182L332.3076923076923,537.6645556109016L335.7692307692308,535.7097487856593L339.2307692307692,534.5436614667384L342.6923076923077,535.4660744982582L346.1538461538462,534.4465454500049L349.61538461538464,535.8838098444226L353.0769230769231,534.3879023426425L356.53846153846155,535.6883123086648L360,537.4155732794568L363.46153846153845,535.5028601410236L366.9230769230769,535.8016602102933L370.38461538461536,534.2650615678881L373.84615384615387,534.6116787056642L377.3076923076923,534.8669238680734L380.7692307692308,535.0244685731764L384.2307692307692,534.6742366544347L387.69230769230774,534.6418331568443L391.1538461538462,535.4425076491424L394.6153846153846,534.536266653055L398.07692307692304,534.6474331441259L401.53846153846155,535.4014611242791L405,534.0889276373148L408.46153846153845,533.9942198328102L411.9230769230769,534.4670454325105L415.3846153846154,534.1095124307286L418.84615384615387,533.7026062636467L422.3076923076923,534.044871112276L425.7692307692308,534.7256338360366L429.2307692307692,535.613085082709L432.6923076923077,533.550910473343L436.15384615384613,534.4160374187159L439.6153846153846,540.2928270797886L443.0769230769231,533.9364941611407L446.53846153846155,534.2334457765807L450,533.6734693877552L453.46153846153845,533.6025274966632L456.9230769230769,533.6262285090281L460.38461538461536,534.984520123839L463.8461538461538,533.6414658303071L467.3076923076923,533.8475258974686L470.7692307692308,534.2172948321266L474.2307692307692,533.7867559502963L477.6923076923077,534.5363222025858L481.15384615384613,534.0871034186388L484.6153846153846,533.4789839240877L488.07692307692304,534.1193327830299L491.5384615384615,533.5102231933822L495.00000000000006,533.7947637676798L498.4615384615385,535.3675596017325L501.92307692307696,533.5091138369827L505.3846153846154,533.9884253677357L508.8461538461538,533.7051457434494L512.3076923076923,533.9703312637097L515.7692307692307,533.6332457351566L519.2307692307692,534.0722129028005L522.6923076923077,534.388714279507L526.1538461538462,534.0845192578727L529.6153846153846,533.4131215319334L533.0769230769231,534.2489148224578L536.5384615384615,534.2416935945753L540,533.5854625957015L543.4615384615385,534.7310948824189L546.9230769230769,534.244294929597L550.3846153846155,540.7615310101587L553.8461538461539,534.0718205105313L557.3076923076924,534.2351603613662L560.7692307692308,534.6251370383573L564.2307692307692,533.926954829818L567.6923076923076,534.0659340659341L571.1538461538461,533.8884919230435L574.6153846153845,534.7843168067886L578.0769230769231,534.5641199788411L581.5384615384615,534.3005748699699L585,534.6186085498742L588.4615384615385,535.6556187784661L591.9230769230769,534.8550747642782L595.3846153846154,534.5713216973417L598.8461538461538,534.5362352659229L602.3076923076923,534.6613845027318L605.7692307692308,534.8319906654584L609.2307692307693,534.8224590943038L612.6923076923077,535.0514329048277L616.1538461538462,534.8450740313696L619.6153846153846,535.045691787574L623.0769230769231,534.7495106213297L626.5384615384615,534.720276987996L630,535.0046425255339L633.4615384615385,535.5599767593359L636.9230769230769,534.4425838172943L640.3846153846154,535.0835433858318L643.8461538461538,535.4151716474919L647.3076923076923,535.3790863224825L650.7692307692307,535.1694330773829L654.2307692307692,535.6942357310953L657.6923076923076,535.4349081929703L661.1538461538462,543.1815364783461L664.6153846153846,536.0131528519138L668.0769230769231,535.7772724751816L671.5384615384615,537.1748094734343L675,536.1339767243826L678.4615384615385,536.6781895131328L681.9230769230769,536.041729795247L685.3846153846154,536.1214767338072L688.8461538461538,536.97512259236L692.3076923076924,536.2075381425761L695.7692307692308,536.1093452002543L699.2307692307693,536.2393863830056L702.6923076923077,536.4151288141787L706.1538461538462,538.9047783052066L709.6153846153846,536.2172140923658L713.0769230769231,537.1890578866862L716.5384615384615,541.9360267786183L720,537.3817754875741L723.4615384615385,536.6551494211069L726.9230769230769,537.2015829188306L730.3846153846154,536.6810043012904L733.8461538461538,536.4717868808247L737.3076923076923,535.5486184306744L740.7692307692307,537.0174526404599L744.2307692307692,536.6180574662945L747.6923076923077,536.5017148456639L751.1538461538462,536.9189102765976L754.6153846153846,536.5922708498963L758.0769230769231,536.9136667850936L761.5384615384615,535.7554814688633L765,536.6852886405959L768.4615384615385,536.7052517534356L771.9230769230769,545.1661817138641L775.3846153846155,536.6632264996537L778.8461538461539,535.7308120768945L782.3076923076924,537.685828121338L785.7692307692308,536.2446109844637L789.2307692307692,536.8021324660566L792.6923076923076,536.3222631086229L796.1538461538461,537.1461624999431L799.6153846153845,536.2843574879671L803.0769230769231,538.7361694261798L806.5384615384615,537.0494283565758L810,537.4239527203198L813.4615384615385,537.5257540109795L816.9230769230769,536.8635074640175L820.3846153846154,537.8143175755455L823.8461538461538,541.8033622007132L827.3076923076923,540.1542467948718L830.7692307692308,539.3742921738105L834.2307692307693,536.7827398517935L837.6923076923077,538.0691390671984L841.1538461538462,537.1511089079036L844.6153846153846,539.2974425315952L848.0769230769231,537.3743226202242L851.5384615384615,538.5913453737566L855,537.7015137439204L858.4615384615385,538.4019274235612L861.9230769230769,538.1834882883778L865.3846153846154,538.3035956664446L868.8461538461538,537.5627067768924L872.3076923076923,538.6433359845472L875.7692307692307,538.073169935707L879.2307692307692,538.6675896040759L882.6923076923076,544.7425129516006L886.1538461538462,538.634129970995" style="fill: none; stroke: #ff7f0e; stroke-width: 2;"></path></g></g><path class="foreground" d="" style="display: none; fill: none;"></path></g><g transform="translate(0,0)"><path class="background" d="M0,0h900v600h-900Z" style="fill: none;"></path><g><g class="mark-line role-mark marks"><path d="M6.923076923076923,525.6207576904463L10.384615384615385,519.4690503755957L13.846153846153847,515.9995783111361L17.30769230769231,513.7562407544378L20.76923076923077,512.2043946921824L24.230769230769234,511.0591614064029L27.692307692307693,510.1785190581156L31.153846153846157,509.4716888834535L34.61538461538462,508.9178440187224L38.07692307692308,508.4382284382284L41.53846153846154,508.05114015489335L45,507.711258152646L48.46153846153847,507.40183037079044L51.92307692307693,510.868019741357L55.38461538461539,510.3434790349082L58.84615384615385,512.41957680048L62.307692307692314,512.0385060656391L65.76923076923077,511.6550367979556L69.23076923076924,511.4400349250566L72.6923076923077,510.9277546777547L76.15384615384616,510.690054645959L79.61538461538461,510.2618839618242L83.07692307692308,510.138258707674L86.53846153846155,512.1716552803774L90,509.6833016009225L93.46153846153847,511.6739450699779L96.92307692307693,509.20633900157515L100.38461538461539,508.9346929162705L103.84615384615385,508.84164371777945L107.3076923076923,508.6654476088167L110.76923076923077,510.9886724676497L114.23076923076923,511.1764437343072L117.6923076923077,510.8611504649533L121.15384615384615,512.9001272099483L124.61538461538463,512.4728782971805L128.07692307692307,512.4860186604068L131.53846153846155,512.4686609566111L135,512.646031129778L138.46153846153848,512.6367326137997L141.9230769230769,512.4915035458166L145.3846153846154,512.2444415141433L148.84615384615384,513.0913564917512L152.30769230769232,511.75398716453395L155.76923076923077,512.0219478468465L159.23076923076923,511.71317162100576L162.69230769230768,511.745485873712L166.15384615384616,511.3501984028188L169.6153846153846,512.7090925634161L173.0769230769231,512.8344879026164L176.53846153846155,512.3028921472819L180,512.23457498632L183.46153846153845,512.0195623028351L186.92307692307693,512.0704129421268L190.3846153846154,511.8036302514514L193.84615384615387,511.755378796052L197.3076923076923,511.55188568109713L200.76923076923077,511.88960007857645L204.23076923076923,511.43894358886195L207.6923076923077,511.33477114785524L211.15384615384616,511.3105249181199L214.6153846153846,511.20766722323947L218.07692307692307,517.7697602541527L221.53846153846155,510.992984516488L225,511.0500141511341L228.46153846153845,510.9801280934168L231.9230769230769,512.3444227646937L235.3846153846154,511.5323984536051L238.84615384615384,511.3345923795256L242.3076923076923,511.4297764656263L245.76923076923075,511.528989375982L249.23076923076925,512.0582606040406L252.6923076923077,511.510396140112L256.15384615384613,511.47766214487626L259.6153846153846,511.5326419610118L263.0769230769231,511.62388209540546L266.53846153846155,511.44938383529586L270,511.32895176562323L273.46153846153845,511.9147517530483L276.92307692307696,511.18359574402797L280.3846153846154,512.1040925470065L283.8461538461538,511.9484576337368L287.30769230769226,513.0209270569804L290.7692307692308,511.7282287768748L294.2307692307692,511.9042775572048L297.6923076923077,512.0933478501129L301.15384615384613,511.81505225832143L304.61538461538464,511.91963415599434L308.0769230769231,511.8239561431512L311.53846153846155,511.73874669020296L315,512.5572809907599L318.46153846153845,512.2676799205651L321.9230769230769,511.61589426800833L325.38461538461536,511.7780787344905L328.8461538461538,511.6570835374945L332.3076923076923,510.8672780396289L335.7692307692308,510.82010632419355L339.2307692307692,510.74182818643516L342.6923076923077,510.98359197066503L346.1538461538462,511.0108610008188L349.61538461538464,510.9877585673878L353.0769230769231,510.82138200782265L356.53846153846155,510.95019395447554L360,510.95234805948354L363.46153846153845,511.01338689197956L366.9230769230769,510.91382763729735L370.38461538461536,510.73877809000373L373.84615384615387,510.9219444993483L377.3076923076923,510.9813605462416L380.7692307692308,511.2366676784031L384.2307692307692,511.11737025507324L387.69230769230774,510.69912485732976L391.1538461538462,511.41893097027116L394.6153846153846,511.8202960154235L398.07692307692304,511.5965552307385L401.53846153846155,511.12167928242116L405,511.31734983243103L408.46153846153845,511.29620172662777L411.9230769230769,511.27128122281596L415.3846153846154,511.0616680523215L418.84615384615387,511.1621670527999L422.3076923076923,511.33072602178174L425.7692307692308,510.9139966423975L429.2307692307692,511.5719128546494L432.6923076923077,511.9660980496988L436.15384615384613,511.18681899615257L439.6153846153846,514.9735906442256L443.0769230769231,510.1676411649251L446.53846153846155,511.0282043764183L450,510.3036535550033L453.46153846153845,511.07048589969384L456.9230769230769,510.71852505498344L460.38461538461536,511.00822467762544L463.8461538461538,510.6958909945756L467.3076923076923,510.7026528628269L470.7692307692308,510.2543593025116L474.2307692307692,510.6855974705118L477.6923076923077,510.8552015088742L481.15384615384613,511.61337505622555L484.6153846153846,511.0631134262935L488.07692307692304,511.38838609159023L491.5384615384615,510.9444653030439L495.00000000000006,510.54262153173266L498.4615384615385,510.95027599001395L501.92307692307696,511.8366371974474L505.3846153846154,511.84152821312995L508.8461538461538,511.4798382936415L512.3076923076923,511.6740445453913L515.7692307692307,511.6349316801619L519.2307692307692,511.5085034797437L522.6923076923077,511.1474022298429L526.1538461538462,511.4329712406876L529.6153846153846,511.56940881294224L533.0769230769231,511.5093887881793L536.5384615384615,511.57993815349437L540,511.4572658331626L543.4615384615385,511.91722629652094L546.9230769230769,511.82515946221054L550.3846153846155,515.8073609291749L553.8461538461539,511.00123609394313L557.3076923076924,511.5399041362415L560.7692307692308,510.92273326078237L564.2307692307692,510.97552412087356L567.6923076923076,511.54607337813445L571.1538461538461,511.1072491473508L574.6153846153845,511.02786929910627L578.0769230769231,511.97316775487025L581.5384615384615,511.835071489944L585,511.20825080254076L588.4615384615385,512.237698570711L591.9230769230769,511.4974881533473L595.3846153846154,511.0465331051212L598.8461538461538,511.2426035502959L602.3076923076923,511.8627851022217L605.7692307692308,513.0759884101318L609.2307692307693,511.43146155371096L612.6923076923077,511.7861698656145L616.1538461538462,511.5815423863417L619.6153846153846,512.7977785355873L623.0769230769231,512.2292498498286L626.5384615384615,511.9442800269194L630,511.84804281666493L633.4615384615385,512.608268177349L636.9230769230769,512.456882635809L640.3846153846154,512.039395483104L643.8461538461538,512.5883835686668L647.3076923076923,512.5716350138488L650.7692307692307,512.2124334588924L654.2307692307692,512.4101122293712L657.6923076923076,513.0381716657005L661.1538461538462,516.8595245177345L664.6153846153846,512.0879120879121L668.0769230769231,511.76134415361753L671.5384615384615,512.8155194367463L675,512.1865547858328L678.4615384615385,513.0093869972704L681.9230769230769,512.1346376854688L685.3846153846154,512.2483047967972L688.8461538461538,512.368901969131L692.3076923076924,512.2049721250787L695.7692307692308,512.4901134145545L699.2307692307693,512.5906907643266L702.6923076923077,512.1332573456741L706.1538461538462,513.1341948945048L709.6153846153846,512.1817480829918L713.0769230769231,512.3391821160584L716.5384615384615,513.6024041070161L720,512.6796434418774L723.4615384615385,512.6570640514864L726.9230769230769,512.5479771514239L730.3846153846154,512.6360317712251L733.8461538461538,512.6139556612004L737.3076923076923,512.41296123691L740.7692307692307,512.6168001687776L744.2307692307692,512.7488180508491L747.6923076923077,512.3275809583082L751.1538461538462,512.452931683701L754.6153846153846,512.7511406387578L758.0769230769231,512.5859006512816L761.5384615384615,512.6175029789488L765,512.2505161734342L768.4615384615385,512.5680190617472L771.9230769230769,516.5736589745668L775.3846153846155,512.0654798123539L778.8461538461539,512.2402147839484L782.3076923076924,512.1249432959627L785.7692307692308,512.0473213824456L789.2307692307692,512.4972815310417L792.6923076923076,511.94509065041433L796.1538461538461,512.3057859117339L799.6153846153845,512.2290404088379L803.0769230769231,511.8926001177297L806.5384615384615,512.0843185591388L810,512.1379759192971L813.4615384615385,512.4038616850763L816.9230769230769,512.3637646447205L820.3846153846154,512.3520710059172L823.8461538461538,513.2336857455341L827.3076923076923,514.1574378928465L830.7692307692308,512.9651679349173L834.2307692307693,512.4580755306397L837.6923076923077,512.3706984996801L841.1538461538462,512.6187408228701L844.6153846153846,512.4297164732624L848.0769230769231,512.2005411313587L851.5384615384615,512.3119697725814L855,512.2334282854723L858.4615384615385,512.4376235759345L861.9230769230769,512.0912744411559L865.3846153846154,512.4813293502614L868.8461538461538,512.6282873171779L872.3076923076923,512.3661148977604L875.7692307692307,512.1309122061624L879.2307692307692,512.180111445974L882.6923076923076,516.7016011803329L886.1538461538462,511.93720939565765" style="fill: none; stroke: #1f77b4; stroke-width: 2;"></path></g></g><path class="foreground" d="" style="display: none; fill: none;"></path></g><g transform="translate(0,0)"><path class="background" d="M0,0h900v600h-900Z" style="fill: none;"></path><g><g class="mark-line role-mark marks"><path d="M6.923076923076923,525.8301418681053L10.384615384615385,519.6367459234572L13.846153846153847,494.3179110667926L17.30769230769231,498.6211389175398L20.76923076923077,483.82807488190355L24.230769230769234,488.59030343746497L27.692307692307693,479.86403122246L31.153846153846157,483.86820117210345L34.61538461538462,477.11797046454444L38.07692307692308,485.8315044940522L41.53846153846154,474.31054183300654L45,484.50038109011314L48.46153846153847,479.0985433084097L51.92307692307693,475.7082287159464L55.38461538461539,471.7296274548183L58.84615384615385,481.5866786794059L62.307692307692314,470.1902359072577L65.76923076923077,474.2767283378495L69.23076923076924,469.19555264879006L72.6923076923077,472.7854287168523L76.15384615384616,474.8262457297679L79.61538461538461,478.9191560533567L83.07692307692308,467.6972637076713L86.53846153846155,470.8124282853735L90,467.8843296903251L93.46153846153847,470.91688234545376L96.92307692307693,466.9100436505878L100.38461538461539,469.2188553211598L103.84615384615385,466.13326954955613L107.3076923076923,468.04294211297594L110.76923076923077,475.2522671163105L114.23076923076923,468.41171618059656L117.6923076923077,474.48731338825337L121.15384615384615,467.98447809905446L124.61538461538463,465.99774231121563L128.07692307692307,468.03295351847044L131.53846153846155,464.59382773397357L135,475.36081711198284L138.46153846153848,465.3621304462888L141.9230769230769,466.67119390258193L145.3846153846154,473.95834875149865L148.84615384615384,467.1792708556937L152.30769230769232,473.9004099828842L155.76923076923077,466.46694407746895L159.23076923076923,464.34557744329055L162.69230769230768,466.17670530952506L166.15384615384616,473.5201814812417L169.6153846153846,465.7851352955647L173.0769230769231,464.7943450827838L176.53846153846155,475.7682158036736L180,464.4582601680034L183.46153846153845,465.57239253204466L186.92307692307693,463.80161783864025L190.3846153846154,474.0641322100224L193.84615384615387,464.9894849589195L197.3076923076923,465.66581732203935L200.76923076923077,463.8777765077914L204.23076923076923,476.3237659925569L207.6923076923077,464.32728947699L211.15384615384616,475.2585899417429L214.6153846153846,463.4229050335268L218.07692307692307,473.0758038159338L221.53846153846155,472.778297474275L225,465.10193529324863L228.46153846153845,463.45369358451364L231.9230769230769,464.990874139075L235.3846153846154,472.88478286663025L238.84615384615384,465.36739893946697L242.3076923076923,463.1875686936367L245.76923076923075,473.3252089675123L249.23076923076925,469.35216065788927L252.6923076923077,467.24417032088843L256.15384615384613,466.59224940976577L259.6153846153846,467.2552303029018L263.0769230769231,464.70427170430605L266.53846153846155,467.0177474408909L270,474.039704875637L273.46153846153845,476.3535713574543L276.92307692307696,466.020757138512L280.3846153846154,476.45339160013793L283.8461538461538,465.83050743663745L287.30769230769226,466.5759363360413L290.7692307692308,474.7541698196414L294.2307692307692,466.51557467008115L297.6923076923077,465.43079748334725L301.15384615384613,469.498476635914L304.61538461538464,473.48078002908346L308.0769230769231,466.525469119668L311.53846153846155,466.2606175127043L315,489.53526035525954L318.46153846153845,469.2888728011658L321.9230769230769,466.38864795761066L325.38461538461536,474.53166663045204L328.8461538461538,468.2906723066931L332.3076923076923,474.22868354782395L335.7692307692308,465.99833851380987L339.2307692307692,474.0925034668407L342.6923076923077,476.1911622746985L346.1538461538462,465.0671414762769L349.61538461538464,465.1773989761802L353.0769230769231,473.9104348009612L356.53846153846155,465.4656055069156L360,473.79654332444034L363.46153846153845,466.8566621887986L366.9230769230769,467.31638489253953L370.38461538461536,466.8843456344765L373.84615384615387,464.8253177415259L377.3076923076923,466.48874460383297L380.7692307692308,464.60833984607586L384.2307692307692,465.0498821977568L387.69230769230774,473.53873252689186L391.1538461538462,475.56661449739966L394.6153846153846,465.0253648920197L398.07692307692304,475.85439947922316L401.53846153846155,464.25099631361536L405,464.85471882273447L408.46153846153845,464.2075913517599L411.9230769230769,474.92645829333696L415.3846153846154,464.2400838694593L418.84615384615387,475.18722177216637L422.3076923076923,464.3286705666384L425.7692307692308,468.1264804814404L429.2307692307692,464.5594724940173L432.6923076923077,464.9243576402786L436.15384615384613,464.18393361403406L439.6153846153846,482.89301224851215L443.0769230769231,463.5015955513067L446.53846153846155,476.2669053937398L450,474.6141975308642L453.46153846153845,466.17783932260335L456.9230769230769,473.6318090436226L460.38461538461536,466.15640032352815L463.8461538461538,464.0334310810161L467.3076923076923,465.35086238903705L470.7692307692308,464.9224584731008L474.2307692307692,466.3845830406481L477.6923076923077,464.08461379337484L481.15384615384613,466.86107149698813L484.6153846153846,473.11883330685407L488.07692307692304,466.1844103256285L491.5384615384615,465.55075725716654L495.00000000000006,467.19629675966473L498.4615384615385,465.38662314904195L501.92307692307696,466.8822005384647L505.3846153846154,474.33701397469804L508.8461538461538,477.18905041061333L512.3076923076923,465.7246432168878L515.7692307692307,476.47200406500446L519.2307692307692,466.9416075683056L522.6923076923077,468.79977933317247L526.1538461538462,473.55502747572206L529.6153846153846,467.21148871425464L533.0769230769231,466.90108330509264L536.5384615384615,469.05116770947393L540,467.8308841383464L543.4615384615385,475.6440203739627L546.9230769230769,466.7466445374513L550.3846153846155,483.29440380591274L553.8461538461539,468.07994107334287L557.3076923076924,470.0566882089701L560.7692307692308,468.09917428117274L564.2307692307692,478.1876092534623L567.6923076923076,477.44873834816053L571.1538461538461,467.0860020843146L574.6153846153845,475.91546800668857L578.0769230769231,470.2359884993771L581.5384615384615,469.2732985901554L585,468.9232985235866L588.4615384615385,476.24016501311337L591.9230769230769,471.24149587908244L595.3846153846154,468.43684119926854L598.8461538461538,473.4034389006017L602.3076923076923,468.47517069419524L605.7692307692308,478.0291794823089L609.2307692307693,468.1994997514538L612.6923076923077,473.92450584816913L616.1538461538462,468.6039599923607L619.6153846153846,473.40225805622L623.0769230769231,478.4860379652894L626.5384615384615,479.1581489381378L630,469.5431686599332L633.4615384615385,479.48788596273437L636.9230769230769,472.03471194032136L640.3846153846154,472.45044527434646L643.8461538461538,474.0298751304205L647.3076923076923,472.79509332044455L650.7692307692307,473.48453484083194L654.2307692307692,478.38926298767433L657.6923076923076,475.7144859594748L661.1538461538462,492.5361756962643L664.6153846153846,477.5229280794131L668.0769230769231,480.03689642398064L671.5384615384615,481.2692640308668L675,479.43737441393165L678.4615384615385,486.72455294369985L681.9230769230769,483.6971895947359L685.3846153846154,482.8358187308374L688.8461538461538,484.23638083709886L692.3076923076924,480.5014553607156L695.7692307692308,480.68777659791976L699.2307692307693,479.69168319465246L702.6923076923077,481.6601264148805L706.1538461538462,492.8656835392586L709.6153846153846,481.40776142306623L713.0769230769231,481.0136940145845L716.5384615384615,486.5486308848402L720,479.89541454637464L723.4615384615385,481.2789273978825L726.9230769230769,480.9228309805592L730.3846153846154,484.78000754856373L733.8461538461538,481.8698532307457L737.3076923076923,482.1760853921189L740.7692307692307,481.65113260972157L744.2307692307692,484.825199175027L747.6923076923077,483.77791213337076L751.1538461538462,485.2134368992338L754.6153846153846,482.10231134066345L758.0769230769231,498.54065323141066L761.5384615384615,482.208277182618L765,482.7042185324913L768.4615384615385,484.63254363702623L771.9230769230769,499.4400811694412L775.3846153846155,482.40219054743096L778.8461538461539,483.280544226868L782.3076923076924,484.4757045916093L785.7692307692308,485.8794013157265L789.2307692307692,482.8520937619207L792.6923076923076,483.26640225783586L796.1538461538461,483.0087712405867L799.6153846153845,480.29365193608754L803.0769230769231,482.39571119155755L806.5384615384615,485.7666480869182L810,485.4377299698346L813.4615384615385,497.83200973856583L816.9230769230769,481.8047060516658L820.3846153846154,484.2196797232997L823.8461538461538,493.5702414047535L827.3076923076923,493.95530445328563L830.7692307692308,492.26878937052055L834.2307692307693,485.5774436716505L837.6923076923077,483.6007996432669L841.1538461538462,485.40138335778664L844.6153846153846,484.6779387710657L848.0769230769231,486.26132463001517L851.5384615384615,484.9494454589996L855,484.46246199423086L858.4615384615385,485.922177849332L861.9230769230769,486.3835126810905L865.3846153846154,486.90000452399977L868.8461538461538,485.9557453768913L872.3076923076923,483.6923076923077L875.7692307692307,485.710843917754L879.2307692307692,480.2627305963817L882.6923076923076,507.2850892608258L886.1538461538462,484.8178532327489" style="fill: none; stroke: #aec7e8; stroke-width: 2;"></path></g></g><path class="foreground" d="" style="display: none; fill: none;"></path></g><g transform="translate(0,0)"><path class="background" d="M0,0h900v600h-900Z" style="fill: none;"></path><g><g class="mark-line role-mark marks"><path d="M6.923076923076923,520.2771811053993L10.384615384615385,480.426109160549L13.846153846153847,440.6507955497069L17.30769230769231,400.65848548338823L20.76923076923077,359.7097595360429L24.230769230769234,328.57299961832797L27.692307692307693,264.76275701032586L31.153846153846157,379.0436634805199L34.61538461538462,354.9505558878229L38.07692307692308,330.689422309534L41.53846153846154,305.6428299031849L45,285.769816672795L48.46153846153847,256.0332187434542L51.92307692307693,234.50846214944698L55.38461538461539,176.0801752173624L58.84615384615385,315.54297406000813L62.307692307692314,289.7322330848342L65.76923076923077,280.20141418470104L69.23076923076924,255.37445556957022L72.6923076923077,233.77335837746728L76.15384615384616,231.89255545154396L79.61538461538461,210.9360655551904L83.07692307692308,135.68387758867954L86.53846153846155,275.0696980406016L90,267.38311235170966L93.46153846153847,247.31830321970406L96.92307692307693,241.23639507351655L100.38461538461539,223.09153852698077L103.84615384615385,205.3947487520945L107.3076923076923,197.79361166520044L110.76923076923077,136.46505053154667L114.23076923076923,226.31050710078216L117.6923076923077,212.70448227836215L121.15384615384615,203.0139730077734L124.61538461538463,192.66942106255672L128.07692307692307,179.73500622750646L131.53846153846155,168.37649288230392L135,157.03998013409483L138.46153846153848,93.26675648581522L141.9230769230769,183.20513391556995L145.3846153846154,185.22349980777963L148.84615384615384,174.18708853788573L152.30769230769232,166.8498168498168L155.76923076923077,151.48220995328882L159.23076923076923,142.09506554943252L162.69230769230768,136.0059625907323L166.15384615384616,82.77738674871011L169.6153846153846,163.00058340154763L173.0769230769231,152.41563912413883L176.53846153846155,157.0659162215185L180,140.17449429687346L183.46153846153845,126.05468809045148L186.92307692307693,122.50745465551644L190.3846153846154,111.40505805869753L193.84615384615387,79.22912205567442L197.3076923076923,150.79189253831856L200.76923076923077,137.12195735802135L204.23076923076923,141.6621664695361L207.6923076923077,125.15327050886214L211.15384615384616,123.04666661358507L214.6153846153846,110.74177592188481L218.07692307692307,121.7209987514961L221.53846153846155,72.25931160857444L225,129.8693814829044L228.46153846153845,122.59839349022434L231.9230769230769,120.21914281221073L235.3846153846154,119.20729725630667L238.84615384615384,108.67712091237051L242.3076923076923,101.74494692453099L245.76923076923075,99.51518060722424L249.23076923076925,87.14553358677253L252.6923076923077,124.81520591341074L256.15384615384613,116.51542649727756L259.6153846153846,111.78938232315913L263.0769230769231,107.97030557633647L266.53846153846155,98.7697253296234L270,97.29032258064507L273.46153846153845,93.64028713854043L276.92307692307696,50.21114161846323L280.3846153846154,123.02846025085078L283.8461538461538,102.24035645447947L287.30769230769226,99.96014670154436L290.7692307692308,103.08362505971185L294.2307692307692,83.88267955342856L297.6923076923077,77.76112986899166L301.15384615384613,76.12972912573439L304.61538461538464,54.31462905822235L308.0769230769231,101.18217970681943L311.53846153846155,98.891527574154L315,92.2134382399739L318.46153846153845,93.38327400811113L321.9230769230769,79.60249831665465L325.38461538461536,83.88016386385738L328.8461538461538,72.22171476261947L332.3076923076923,53.243009002953734L335.7692307692308,107.3309402223157L339.2307692307692,100.22409633821225L342.6923076923077,98.88742672568486L346.1538461538462,93.85157749591681L349.61538461538464,88.7842228279977L353.0769230769231,94.55011087166989L356.53846153846155,78.69107020300655L360,60.629828804922205L363.46153846153845,90.70808170114563L366.9230769230769,89.22968602169468L370.38461538461536,86.38788956708032L373.84615384615387,72.1570564267194L377.3076923076923,67.65532717391207L380.7692307692308,65.14256467125885L384.2307692307692,64.0625965166429L387.69230769230774,50.36377322773078L391.1538461538462,95.97104281034203L394.6153846153846,79.07202367237056L398.07692307692304,87.19795483865865L401.53846153846155,69.72672362755216L405,68.63607399901812L408.46153846153845,59.794572641922784L411.9230769230769,68.67800720373735L415.3846153846154,37.00669273668198L418.84615384615387,87.64490496665091L422.3076923076923,76.67862043517863L425.7692307692308,73.54305396096441L429.2307692307692,67.25839646255629L432.6923076923077,60.74384947115854L436.15384615384613,59.558348758124936L439.6153846153846,151.55361274162382L443.0769230769231,35.41152610457521L446.53846153846155,85.60705768904988L450,81.97054342305738L453.46153846153845,69.34660062438643L456.9230769230769,69.98567345790896L460.38461538461536,64.11379331743503L463.8461538461538,58.50293073097512L467.3076923076923,61.740138504195244L470.7692307692308,90.21015272959296L474.2307692307692,84.6111349910584L477.6923076923077,71.6443539924317L481.15384615384613,68.7860410681987L484.6153846153846,70.3850366500969L488.07692307692304,64.9640667846271L491.5384615384615,54.25410343660826L495.00000000000006,67.12872373498166L498.4615384615385,56.856670510273474L501.92307692307696,75.45832426641093L505.3846153846154,77.1045706161711L508.8461538461538,94.56552883421516L512.3076923076923,61.196456348690795L515.7692307692307,90.60685650645036L519.2307692307692,70.58787938680963L522.6923076923077,71.5739977992772L526.1538461538462,84.24543194937388L529.6153846153846,75.63291841846595L533.0769230769231,88.3268684809851L536.5384615384615,83.14597884181813L540,79.50034485401171L543.4615384615385,110.66394589610206L546.9230769230769,72.84076999821795L550.3846153846155,146.2758723401387L553.8461538461539,66.42137915512805L557.3076923076924,100.27930997488063L560.7692307692308,91.493110719547L564.2307692307692,95.95156622816765L567.6923076923076,109.20236298436168L571.1538461538461,67.22995752948815L574.6153846153845,95.05876176370502L578.0769230769231,85.52908593602373L581.5384615384615,64.6239954075774L585,115.68875072857966L588.4615384615385,102.77128119693708L591.9230769230769,114.50915637084458L595.3846153846154,113.72750077820302L598.8461538461538,105.11876405025926L602.3076923076923,98.89622129757846L605.7692307692308,100.91498918649143L609.2307692307693,70.87125758355648L612.6923076923077,115.37966061675237L616.1538461538462,111.90709050924367L619.6153846153846,113.28144255309003L623.0769230769231,110.6634976908341L626.5384615384615,118.04733727810648L630,110.28504616377049L633.4615384615385,109.6261379464768L636.9230769230769,85.9960017494646L640.3846153846154,116.98998865841237L643.8461538461538,119.97130004569773L647.3076923076923,108.50852754649978L650.7692307692307,120.6157955370966L654.2307692307692,111.10137886370903L657.6923076923076,111.30873408422659L661.1538461538462,163.9306280176897L664.6153846153846,102.94897601344464L668.0769230769231,121.624869772055L671.5384615384615,126.72465158459214L675,118.46912707466379L678.4615384615385,126.73335632976881L681.9230769230769,124.9639958945602L685.3846153846154,121.73402410585939L688.8461538461538,120.04349592884111L692.3076923076924,103.8440739242076L695.7692307692308,122.93158250605052L699.2307692307693,122.96815122431204L702.6923076923077,118.51292870724292L706.1538461538462,133.68622105147915L709.6153846153846,116.05177624451161L713.0769230769231,115.01809662489339L716.5384615384615,128.63516601140356L720,97.26957358872646L723.4615384615385,118.08845531802086L726.9230769230769,122.3211653004659L730.3846153846154,125.60673125406356L733.8461538461538,111.84983668630977L737.3076923076923,113.4416067221471L740.7692307692307,112.5702702685013L744.2307692307692,117.72632854820077L747.6923076923077,108.19257397772017L751.1538461538462,118.1723427298746L754.6153846153846,118.57822344113312L758.0769230769231,159.88765042564197L761.5384615384615,115.4094456444253L765,114.3323926927075L768.4615384615385,119.93373894203995L771.9230769230769,170.7587606901108L775.3846153846155,101.47734920578695L778.8461538461539,112.65737105726275L782.3076923076924,124.54154378340019L785.7692307692308,119.75017735887306L789.2307692307692,113.34959566931764L792.6923076923076,112.6705896561345L796.1538461538461,110.56901089382671L799.6153846153845,107.24583759650264L803.0769230769231,94.18639330134282L806.5384615384615,119.70905984842881L810,114.32982079334182L813.4615384615385,157.82495483863045L816.9230769230769,114.02220778241686L820.3846153846154,110.6197186115504L823.8461538461538,129.16257684558562L827.3076923076923,121.79712605347721L830.7692307692308,116.54434617282878L834.2307692307693,113.76837549982095L837.6923076923077,114.17236269776771L841.1538461538462,118.48937844217153L844.6153846153846,113.486867555549L848.0769230769231,117.15515244903851L851.5384615384615,109.36746142127151L855,106.37031347510921L858.4615384615385,103.6331360946746L861.9230769230769,112.50815749401788L865.3846153846154,116.75408516360926L868.8461538461538,110.4151049618612L872.3076923076923,111.33172529951032L875.7692307692307,108.82938356097225L879.2307692307692,106.09583128715525L882.6923076923076,181.80805208777238L886.1538461538462,104.52379478928148" style="fill: none; stroke: #98df8a; stroke-width: 2;"></path></g></g><path class="foreground" d="" style="display: none; fill: none;"></path></g><g transform="translate(0,0)"><path class="background" d="M0,0h900v600h-900Z" style="fill: none;"></path><g><g class="mark-line role-mark marks"><path d="M6.923076923076923,523.3900601350963L10.384615384615385,485.1423425034651L13.846153846153847,446.9073053616923L17.30769230769231,408.58646501290144L20.76923076923077,370.26560883063127L24.230769230769234,339.4204374666186L27.692307692307693,289.09175787125884L31.153846153846157,382.79831041146406L34.61538461538462,358.702755032068L38.07692307692308,334.698238498228L41.53846153846154,310.50402884312916L45,286.59296903651705L48.46153846153847,262.16614158299615L51.92307692307693,259.5823785604807L55.38461538461539,186.88915169669292L58.84615384615385,316.02927844743647L62.307692307692314,300.32794931286804L65.76923076923077,294.32879259468854L69.23076923076924,262.3923769669037L72.6923076923077,249.48038549608717L76.15384615384616,223.48313930321154L79.61538461538461,224.4779858389557L83.07692307692308,154.36380075875965L86.53846153846155,285.86453752630985L90,272.16545950263L93.46153846153847,255.0342917860708L96.92307692307693,245.42408221014222L100.38461538461539,232.66921757487793L103.84615384615385,214.066181079387L107.3076923076923,213.52673194742638L110.76923076923077,142.50318225512223L114.23076923076923,222.39336766505778L117.6923076923077,217.34554815263476L121.15384615384615,203.6724713195301L124.61538461538463,194.08736216328975L128.07692307692307,178.57333044722537L131.53846153846155,167.11874213306302L135,162.6333210739242L138.46153846153848,104.89737351051221L141.9230769230769,191.40398932552282L145.3846153846154,180.91670057743596L148.84615384615384,169.7157542562663L152.30769230769232,162.9190291330397L155.76923076923077,149.70253352399962L159.23076923076923,139.7766357787399L162.69230769230768,133.4125204938602L166.15384615384616,90.02935121473949L169.6153846153846,168.6224322763826L173.0769230769231,163.84278857223825L176.53846153846155,156.72718448743683L180,141.7505809450039L183.46153846153845,131.3225890350759L186.92307692307693,124.15324736839757L190.3846153846154,122.29861002930431L193.84615384615387,84.2474253739467L197.3076923076923,154.6065919667285L200.76923076923077,145.7353871676122L204.23076923076923,138.87540292092794L207.6923076923077,131.0354708150766L211.15384615384616,123.26872341356845L214.6153846153846,114.44035643648584L218.07692307692307,144.9402798609908L221.53846153846155,79.01050199508926L225,142.08113754716402L228.46153846153845,127.86640881125074L231.9230769230769,120.05180481487213L235.3846153846154,117.42518514938804L238.84615384615384,109.71246083685133L242.3076923076923,102.23894419163766L245.76923076923075,97.48473671971105L249.23076923076925,94.94802333426864L252.6923076923077,126.30982862802486L256.15384615384613,120.66504101086231L259.6153846153846,113.3144456969303L263.0769230769231,107.30537939052134L266.53846153846155,103.31518361823566L270,99.54280489198763L273.46153846153845,97.39928141050156L276.92307692307696,54.674212727756945L280.3846153846154,127.82667868391103L283.8461538461538,102.8883170183393L287.30769230769226,96.79869528584422L290.7692307692308,103.57004398831451L294.2307692307692,92.73941654614455L297.6923076923077,86.51812781899291L301.15384615384613,82.19268953345755L304.61538461538464,67.88722307847979L308.0769230769231,104.82528926271033L311.53846153846155,96.34517422706838L315,93.71402605271129L318.46153846153845,101.10531651135236L321.9230769230769,83.19037078029876L325.38461538461536,102.63042585616301L328.8461538461538,71.6337231510026L332.3076923076923,61.9243098971554L335.7692307692308,111.47990719290203L339.2307692307692,111.76165830223934L342.6923076923077,104.59453421699301L346.1538461538462,102.80864473662494L349.61538461538464,90.1976691686891L353.0769230769231,94.60541259244894L356.53846153846155,83.0066310880701L360,51.40897889210336L363.46153846153845,94.33754810335356L366.9230769230769,89.11459490821242L370.38461538461536,85.41893766304771L373.84615384615387,80.16439921756519L377.3076923076923,71.40589187174895L380.7692307692308,71.41493598393838L384.2307692307692,66.62103116561889L387.69230769230774,53.817126269956404L391.1538461538462,94.12794873913792L394.6153846153846,83.99104331307727L398.07692307692304,87.53014540188195L401.53846153846155,74.22117399494614L405,72.90814313306062L408.46153846153845,65.99651443812174L411.9230769230769,68.45896180603732L415.3846153846154,45.2547357149095L418.84615384615387,91.99450759273327L422.3076923076923,85.99658569328463L425.7692307692308,72.4734503513693L429.2307692307692,81.06598394041671L432.6923076923077,66.22117498685631L436.15384615384613,66.59949973788206L439.6153846153846,151.77545538845246L443.0769230769231,39.46944434036488L446.53846153846155,88.97383887241894L450,84.84991282220446L453.46153846153845,74.73615555331835L456.9230769230769,77.83345048589835L460.38461538461536,65.58865537645373L463.8461538461538,59.23451643500353L467.3076923076923,57.523044682503574L470.7692307692308,56.71865207648574L474.2307692307692,83.9214312085052L477.6923076923077,70.1216892130735L481.15384615384613,67.9626608986759L484.6153846153846,81.00323500593913L488.07692307692304,65.2536331116496L491.5384615384615,67.34540857139079L495.00000000000006,85.54989574810638L498.4615384615385,71.99379542358342L501.92307692307696,92.96309370774686L505.3846153846154,93.76001360388781L508.8461538461538,90.45343850918515L512.3076923076923,71.75159999512182L515.7692307692307,83.49162793971763L519.2307692307692,86.27659539326989L522.6923076923077,70.79085975206773L526.1538461538462,46.12854135401771L529.6153846153846,92.84193059812986L533.0769230769231,80.98132416005201L536.5384615384615,80.3396977441304L540,86.00098180335634L543.4615384615385,80.05936744261976L546.9230769230769,77.79026953196717L550.3846153846155,149.60390493718492L553.8461538461539,56.06397875150502L557.3076923076924,108.08888766100078L560.7692307692308,102.0069212853097L564.2307692307692,88.36407270096514L567.6923076923076,110.7151349423374L571.1538461538461,81.54904955419875L574.6153846153845,90.7138438450119L578.0769230769231,74.35159157958147L581.5384615384615,89.7220155210174L585,100.95073324791686L588.4615384615385,113.59264681355741L591.9230769230769,110.77238518330145L595.3846153846154,105.2811556223135L598.8461538461538,95.07888379031344L602.3076923076923,103.84725621183055L605.7692307692308,107.01479353508986L609.2307692307693,79.37754556833075L612.6923076923077,105.83127843144997L616.1538461538462,120.83045437693703L619.6153846153846,105.64837391762774L623.0769230769231,117.89490171509117L626.5384615384615,114.7247134604471L630,109.96498136104694L633.4615384615385,116.22456839577985L636.9230769230769,85.24517634290592L640.3846153846154,117.9739445375426L643.8461538461538,119.50732624676928L647.3076923076923,104.73753513695246L650.7692307692307,118.1220553388838L654.2307692307692,110.51322421069305L657.6923076923076,107.97101854284156L661.1538461538462,169.9919951971183L664.6153846153846,102.80656925146114L668.0769230769231,118.20262117744953L671.5384615384615,126.39779600137753L675,118.85951885951884L678.4615384615385,127.05262260507277L681.9230769230769,124.60638193886284L685.3846153846154,117.98372276187976L688.8461538461538,114.59843830070069L692.3076923076924,102.86967430925309L695.7692307692308,121.81202633670827L699.2307692307693,123.18892729355242L702.6923076923077,118.41409157400875L706.1538461538462,134.35288746861445L709.6153846153846,116.51371849518746L713.0769230769231,115.18269732221368L716.5384615384615,126.72492632862506L720,101.55519090886823L723.4615384615385,120.40864862363271L726.9230769230769,120.06500706782579L730.3846153846154,125.59051365105698L733.8461538461538,114.6395618493117L737.3076923076923,114.60981414898465L740.7692307692307,113.1046963507696L744.2307692307692,118.40387529981034L747.6923076923077,108.43289842913755L751.1538461538462,118.2423533958335L754.6153846153846,120.34267581581312L758.0769230769231,158.48450741762588L761.5384615384615,116.18337685710193L765,114.50205675059601L768.4615384615385,119.87856183920054L771.9230769230769,179.61498522246185L775.3846153846155,100.35483145008229L778.8461538461539,116.55348163346602L782.3076923076924,123.7435499477332L785.7692307692308,122.94087255505812L789.2307692307692,113.59610792275959L792.6923076923076,113.97308180332384L796.1538461538461,111.20408570668079L799.6153846153845,108.41443760072953L803.0769230769231,99.09291386483869L806.5384615384615,122.81885376953285L810,114.53281767751821L813.4615384615385,157.81294113322696L816.9230769230769,114.43334834472701L820.3846153846154,111.6895059178505L823.8461538461538,130.23188850031818L827.3076923076923,121.53255715260994L830.7692307692308,115.72889348556023L834.2307692307693,112.99086400264757L837.6923076923077,114.21078531392143L841.1538461538462,118.41203681074288L844.6153846153846,113.40254560384776L848.0769230769231,117.14090012904393L851.5384615384615,106.13786661965338L855,106.8525038554426L858.4615384615385,97.72377357135483L861.9230769230769,112.6719911434445L865.3846153846154,117.25308903998568L868.8461538461538,110.28362309781095L872.3076923076923,111.75989115528257L875.7692307692307,107.88542001931121L879.2307692307692,105.10740475343836L882.6923076923076,170.37948717948728L886.1538461538462,104.91017459352427" style="fill: none; stroke: #d62728; stroke-width: 2;"></path></g></g><path class="foreground" d="" style="display: none; fill: none;"></path></g><g transform="translate(0,0)"><path class="background" d="M0,0h900v600h-900Z" style="fill: none;"></path><g><g class="mark-line role-mark marks"><path d="M6.923076923076923,534.2118996478777L10.384615384615385,501.8017230069533L13.846153846153847,469.0782677139531L17.30769230769231,436.55688573721363L20.76923076923077,402.62160350719125L24.230769230769234,371.1796400320991L27.692307692307693,376.6713286713287L31.153846153846157,412.12339270556424L34.61538461538462,391.2482141172936L38.07692307692308,370.2478356756152L41.53846153846154,349.5092320267145L45,332.6413743736578L48.46153846153847,307.9994415747592L51.92307692307693,296.4926002295605L55.38461538461539,254.8306826787839L58.84615384615385,340.7911152925777L62.307692307692314,325.65153530863813L65.76923076923077,301.32211538461536L69.23076923076924,281.90706571256544L72.6923076923077,263.0735368813138L76.15384615384616,264.3412459036523L79.61538461538461,250.47890596931634L83.07692307692308,229.21496755475533L86.53846153846155,300.7071999227631L90,294.7614041385677L93.46153846153847,286.08024190949095L96.92307692307693,274.2274819197896L100.38461538461539,254.64447636845284L103.84615384615385,257.7657888577228L107.3076923076923,228.6490210852476L110.76923076923077,236.8251980767799L114.23076923076923,267.27839564861694L117.6923076923077,275.3134520033409L121.15384615384615,258.6775903932872L124.61538461538463,271.1108921500403L128.07692307692307,238.6281041792853L131.53846153846155,216.85099817679173L135,216.68283220174584L138.46153846153848,212.22339304531087L141.9230769230769,249.79014665862258L145.3846153846154,257.62382362037727L148.84615384615384,245.1798464721832L152.30769230769232,237.30998201740178L155.76923076923077,227.0247528223827L159.23076923076923,207.25110445277213L162.69230769230768,208.06861938619005L166.15384615384616,207.1518090709046L169.6153846153846,245.64023850286318L173.0769230769231,242.59143094720565L176.53846153846155,243.89124188849115L180,211.8931675779886L183.46153846153845,204.4184294818959L186.92307692307693,196.80764572168107L190.3846153846154,211.19655712728087L193.84615384615387,175.5897057818943L197.3076923076923,222.1015866905925L200.76923076923077,226.18398083062854L204.23076923076923,230.41514211830855L207.6923076923077,202.40119560854254L211.15384615384616,214.69936554944277L214.6153846153846,189.15395841058066L218.07692307692307,195.9752474867244L221.53846153846155,180.6666442433823L225,213.89653384388336L228.46153846153845,217.32529404373204L231.9230769230769,201.9423335212108L235.3846153846154,213.143737172371L238.84615384615384,199.8450278768214L242.3076923076923,185.59025052545311L245.76923076923075,186.42187039276925L249.23076923076925,197.16492608557286L252.6923076923077,216.12620508326026L256.15384615384613,211.0288981756621L259.6153846153846,206.90858167702626L263.0769230769231,189.75358600124076L266.53846153846155,194.89354060190465L270,202.580467105944L273.46153846153845,194.11701479703345L276.92307692307696,163.5903952684331L280.3846153846154,219.18497134218836L283.8461538461538,204.7942165007292L287.30769230769226,199.98548764467003L290.7692307692308,202.0033966876886L294.2307692307692,179.90880249297462L297.6923076923077,186.2111552998953L301.15384615384613,170.14059063844394L304.61538461538464,178.42079252856757L308.0769230769231,194.36279268434748L311.53846153846155,200.28883006481325L315,195.49799568300946L318.46153846153845,190.95189210237527L321.9230769230769,186.80150772532355L325.38461538461536,180.37786830529618L328.8461538461538,177.55016507927988L332.3076923076923,175.86909470329869L335.7692307692308,190.1146323784696L339.2307692307692,203.26537444688114L342.6923076923077,191.92638535447855L346.1538461538462,192.14544897509788L349.61538461538464,172.89931685224778L353.0769230769231,186.42610763522276L356.53846153846155,164.14568533140482L360,171.83860835950708L363.46153846153845,196.4059997005235L366.9230769230769,183.791906076589L370.38461538461536,188.4463799488294L373.84615384615387,173.8887885653194L377.3076923076923,180.7422663798947L380.7692307692308,166.2331442919794L384.2307692307692,173.0494639281497L387.69230769230774,172.45971186989954L391.1538461538462,189.3251455465533L394.6153846153846,189.0905277827578L398.07692307692304,191.1160337171761L401.53846153846155,181.99614977901896L405,170.8647676322925L408.46153846153845,164.2016873127143L411.9230769230769,177.21747231647404L415.3846153846154,165.98908275007528L418.84615384615387,195.59633776809056L422.3076923076923,186.63298963257188L425.7692307692308,183.79980625663458L429.2307692307692,179.8020330856847L432.6923076923077,176.42327568573114L436.15384615384613,172.811205875107L439.6153846153846,230.2048872250983L443.0769230769231,164.6731007862423L446.53846153846155,192.08673025373574L450,179.67954291392374L453.46153846153845,170.50495077233097L456.9230769230769,182.70486020630614L460.38461538461536,163.6152501764916L463.8461538461538,171.07529600054738L467.3076923076923,171.9780623224341L470.7692307692308,158.01099312689485L474.2307692307692,177.0990999950276L477.6923076923077,172.56652638886425L481.15384615384613,179.31734088982398L484.6153846153846,170.82841527609182L488.07692307692304,166.57782674256484L491.5384615384615,177.49292177801664L495.00000000000006,162.2725350886647L498.4615384615385,162.81632708607313L501.92307692307696,192.62504582042413L505.3846153846154,184.65698863135898L508.8461538461538,192.09759854542975L512.3076923076923,163.29658620548332L515.7692307692307,177.1321371879359L519.2307692307692,173.7070017267643L522.6923076923077,158.1246625144014L526.1538461538462,165.19978705376894L529.6153846153846,180.8844342852969L533.0769230769231,173.4537749886782L536.5384615384615,190.88381949094008L540,164.34694198070696L543.4615384615385,173.26352659890873L546.9230769230769,184.14801423270885L550.3846153846155,236.48526211504097L553.8461538461539,180.39489278719665L557.3076923076924,213.6230854131357L560.7692307692308,203.19069110030313L564.2307692307692,188.72067648663392L567.6923076923076,194.9300631504843L571.1538461538461,168.30050769853713L574.6153846153845,183.80612091236756L578.0769230769231,171.1023271912958L581.5384615384615,187.29568817500018L585,199.26865992686592L588.4615384615385,192.06139274089443L591.9230769230769,187.7337839394754L595.3846153846154,195.43216727676318L598.8461538461538,204.4776751314597L602.3076923076923,196.12765669002152L605.7692307692308,173.7473187024895L609.2307692307693,186.5947847705793L612.6923076923077,205.01682544196402L616.1538461538462,199.07406302911062L619.6153846153846,195.47095159800605L623.0769230769231,194.63478888999052L626.5384615384615,210.1668405924931L630,194.2138909957741L633.4615384615385,203.70361999259782L636.9230769230769,202.99517721103297L640.3846153846154,220.45332495287772L643.8461538461538,221.53872184610174L647.3076923076923,195.96006912295675L650.7692307692307,212.92878247580228L654.2307692307692,208.22050877299498L657.6923076923076,200.66425142715946L661.1538461538462,247.52598707543615L664.6153846153846,221.84510115202087L668.0769230769231,207.02394068699357L671.5384615384615,224.41702693961912L675,226.8953376114486L678.4615384615385,235.1359252136536L681.9230769230769,224.80514313418982L685.3846153846154,214.49710756191058L688.8461538461538,226.80941724317728L692.3076923076924,219.98081275672254L695.7692307692308,232.81506116682425L699.2307692307693,229.2882510159997L702.6923076923077,220.06517151278348L706.1538461538462,228.38521637048132L709.6153846153846,228.0450823814818L713.0769230769231,225.8792069462611L716.5384615384615,223.46173467621117L720,220.16773556980758L723.4615384615385,222.85266964937L726.9230769230769,230.8818792880484L730.3846153846154,218.36635130743784L733.8461538461538,219.7125742319475L737.3076923076923,218.19983839305112L740.7692307692307,222.45194748069412L744.2307692307692,221.30752762766087L747.6923076923077,222.76403565735868L751.1538461538462,228.57454150472776L754.6153846153846,230.03755753246588L758.0769230769231,213.34525773782426L761.5384615384615,224.22071668722225L765,213.79295633439278L768.4615384615385,216.58236105615504L771.9230769230769,255.5240558472074L775.3846153846155,212.39983651833592L778.8461538461539,220.33791286550974L782.3076923076924,220.4240922888018L785.7692307692308,216.89735014149733L789.2307692307692,226.09144422991787L792.6923076923076,216.39802539145L796.1538461538461,222.95115199087613L799.6153846153845,213.93036985587776L803.0769230769231,218.4791917323848L806.5384615384615,230.96017718650202L810,226.01394620748547L813.4615384615385,229.58012628473975L816.9230769230769,225.52799380782136L820.3846153846154,212.6625765052282L823.8461538461538,220.66423604885145L827.3076923076923,214.94295773771765L830.7692307692308,214.3863271414229L834.2307692307693,216.58933048966776L837.6923076923077,217.5450658738882L841.1538461538462,223.0350715660835L844.6153846153846,226.11094085197666L848.0769230769231,225.60512463382375L851.5384615384615,211.50103474087447L855,218.90919661349508L858.4615384615385,209.78694932020076L861.9230769230769,229.28039702233247L865.3846153846154,228.0218080793846L868.8461538461538,226.6963219592555L872.3076923076923,226.43480485103802L875.7692307692307,222.60207750889444L879.2307692307692,222.1008238600322L882.6923076923076,248.87886928466327L886.1538461538462,211.6401988995509" style="fill: none; stroke: #2ca02c; stroke-width: 2;"></path></g></g><path class="foreground" d="" style="display: none; fill: none;"></path></g></g><g class="mark-group role-legend"><g transform="translate(918,0)"><path class="background" d="M0,0h101v105h-101Z" style="pointer-events: none; fill: none;"></path><g><g class="mark-group role-legend-entry"><g transform="translate(0,16)"><path class="background" d="M0,0h0v0h0Z" style="pointer-events: none; fill: none;"></path><g><g class="mark-group role-scope"><g transform="translate(0,0)"><path class="background" d="M0,0h101v11h-101Z" style="pointer-events: none; fill: none; opacity: 1;"></path><g><g class="mark-symbol role-legend-symbol" style="pointer-events: none;"><path transform="translate(6,6)" d="M-5,0L5,0" style="fill: none; stroke: #1f77b4; stroke-width: 1.5; opacity: 1;"></path></g><g class="mark-text role-legend-label" style="pointer-events: none;"><text text-anchor="start" transform="translate(16,9)" style="font-family: sans-serif; font-size: 10px; fill: #000; opacity: 1;">Clang</text></g></g><path class="foreground" d="" style="pointer-events: none; display: none; fill: none;"></path></g><g transform="translate(0,13)"><path class="background" d="M0,0h101v11h-101Z" style="pointer-events: none; fill: none; opacity: 1;"></path><g><g class="mark-symbol role-legend-symbol" style="pointer-events: none;"><path transform="translate(6,6)" d="M-5,0L5,0" style="fill: none; stroke: #aec7e8; stroke-width: 1.5; opacity: 1;"></path></g><g class="mark-text role-legend-label" style="pointer-events: none;"><text text-anchor="start" transform="translate(16,9)" style="font-family: sans-serif; font-size: 10px; fill: #000; opacity: 1;">GFortran</text></g></g><path class="foreground" d="" style="pointer-events: none; display: none; fill: none;"></path></g><g transform="translate(0,26)"><path class="background" d="M0,0h101v11h-101Z" style="pointer-events: none; fill: none; opacity: 1;"></path><g><g class="mark-symbol role-legend-symbol" style="pointer-events: none;"><path transform="translate(6,6)" d="M-5,0L5,0" style="fill: none; stroke: #ff7f0e; stroke-width: 1.5; opacity: 1;"></path></g><g class="mark-text role-legend-label" style="pointer-events: none;"><text text-anchor="start" transform="translate(16,9)" style="font-family: sans-serif; font-size: 10px; fill: #000; opacity: 1;">Julia</text></g></g><path class="foreground" d="" style="pointer-events: none; display: none; fill: none;"></path></g><g transform="translate(0,39)"><path class="background" d="M0,0h101v11h-101Z" style="pointer-events: none; fill: none; opacity: 1;"></path><g><g class="mark-symbol role-legend-symbol" style="pointer-events: none;"><path transform="translate(6,6)" d="M-5,0L5,0" style="fill: none; stroke: #ffbb78; stroke-width: 1.5; opacity: 1;"></path></g><g class="mark-text role-legend-label" style="pointer-events: none;"><text text-anchor="start" transform="translate(16,9)" style="font-family: sans-serif; font-size: 10px; fill: #000; opacity: 1;">Julia-builtin</text></g></g><path class="foreground" d="" style="pointer-events: none; display: none; fill: none;"></path></g><g transform="translate(0,52)"><path class="background" d="M0,0h101v11h-101Z" style="pointer-events: none; fill: none; opacity: 1;"></path><g><g class="mark-symbol role-legend-symbol" style="pointer-events: none;"><path transform="translate(6,6)" d="M-5,0L5,0" style="fill: none; stroke: #2ca02c; stroke-width: 1.5; opacity: 1;"></path></g><g class="mark-text role-legend-label" style="pointer-events: none;"><text text-anchor="start" transform="translate(16,9)" style="font-family: sans-serif; font-size: 10px; fill: #000; opacity: 1;">LoopVectorization</text></g></g><path class="foreground" d="" style="pointer-events: none; display: none; fill: none;"></path></g><g transform="translate(0,65)"><path class="background" d="M0,0h101v11h-101Z" style="pointer-events: none; fill: none; opacity: 1;"></path><g><g class="mark-symbol role-legend-symbol" style="pointer-events: none;"><path transform="translate(6,6)" d="M-5,0L5,0" style="fill: none; stroke: #98df8a; stroke-width: 1.5; opacity: 1;"></path></g><g class="mark-text role-legend-label" style="pointer-events: none;"><text text-anchor="start" transform="translate(16,9)" style="font-family: sans-serif; font-size: 10px; fill: #000; opacity: 1;">icc</text></g></g><path class="foreground" d="" style="pointer-events: none; display: none; fill: none;"></path></g><g transform="translate(0,78)"><path class="background" d="M0,0h101v11h-101Z" style="pointer-events: none; fill: none; opacity: 1;"></path><g><g class="mark-symbol role-legend-symbol" style="pointer-events: none;"><path transform="translate(6,6)" d="M-5,0L5,0" style="fill: none; stroke: #d62728; stroke-width: 1.5; opacity: 1;"></path></g><g class="mark-text role-legend-label" style="pointer-events: none;"><text text-anchor="start" transform="translate(16,9)" style="font-family: sans-serif; font-size: 10px; fill: #000; opacity: 1;">ifort</text></g></g><path class="foreground" d="" style="pointer-events: none; display: none; fill: none;"></path></g></g></g><path class="foreground" d="" style="pointer-events: none; display: none; fill: none;"></path></g></g><g class="mark-text role-legend-title" style="pointer-events: none;"><text text-anchor="start" transform="translate(0,9)" style="font-family: sans-serif; font-size: 11px; font-weight: bold; fill: #000; opacity: 1;">Method</text></g></g><path class="foreground" d="" style="pointer-events: none; display: none; fill: none;"></path></g></g></g><path class="foreground" d="" style="display: none; fill: none;"></path></g></g></g></svg>
