<svg class="marks" width="1067" height="647" viewBox="0 0 1067 647" version="1.1" xmlns="http://www.w3.org/2000/svg" xmlns:xlink="http://www.w3.org/1999/xlink"><g transform="translate(39,10)"><g class="mark-group role-frame root"><g transform="translate(0,0)"><path class="background" d="M0.5,0.5h900v600h-900Z" style="fill: none; stroke: #ddd;"></path><g><g class="mark-group role-axis"><g transform="translate(0.5,600.5)"><path class="background" d="M0,0h0v0h0Z" style="pointer-events: none; fill: none;"></path><g><g class="mark-rule role-axis-grid" style="pointer-events: none;"><line transform="translate(0,-600)" x2="0" y2="600" style="fill: none; stroke: #ddd; stroke-width: 1; opacity: 1;"></line><line transform="translate(35,-600)" x2="0" y2="600" style="fill: none; stroke: #ddd; stroke-width: 1; opacity: 1;"></line><line transform="translate(69,-600)" x2="0" y2="600" style="fill: none; stroke: #ddd; stroke-width: 1; opacity: 1;"></line><line transform="translate(104,-600)" x2="0" y2="600" style="fill: none; stroke: #ddd; stroke-width: 1; opacity: 1;"></line><line transform="translate(138,-600)" x2="0" y2="600" style="fill: none; stroke: #ddd; stroke-width: 1; opacity: 1;"></line><line transform="translate(173,-600)" x2="0" y2="600" style="fill: none; stroke: #ddd; stroke-width: 1; opacity: 1;"></line><line transform="translate(208,-600)" x2="0" y2="600" style="fill: none; stroke: #ddd; stroke-width: 1; opacity: 1;"></line><line transform="translate(242,-600)" x2="0" y2="600" style="fill: none; stroke: #ddd; stroke-width: 1; opacity: 1;"></line><line transform="translate(277,-600)" x2="0" y2="600" style="fill: none; stroke: #ddd; stroke-width: 1; opacity: 1;"></line><line transform="translate(312,-600)" x2="0" y2="600" style="fill: none; stroke: #ddd; stroke-width: 1; opacity: 1;"></line><line transform="translate(346,-600)" x2="0" y2="600" style="fill: none; stroke: #ddd; stroke-width: 1; opacity: 1;"></line><line transform="translate(381,-600)" x2="0" y2="600" style="fill: none; stroke: #ddd; stroke-width: 1; opacity: 1;"></line><line transform="translate(415,-600)" x2="0" y2="600" style="fill: none; stroke: #ddd; stroke-width: 1; opacity: 1;"></line><line transform="translate(450,-600)" x2="0" y2="600" style="fill: none; stroke: #ddd; stroke-width: 1; opacity: 1;"></line><line transform="translate(485,-600)" x2="0" y2="600" style="fill: none; stroke: #ddd; stroke-width: 1; opacity: 1;"></line><line transform="translate(519,-600)" x2="0" y2="600" style="fill: none; stroke: #ddd; stroke-width: 1; opacity: 1;"></line><line transform="translate(554,-600)" x2="0" y2="600" style="fill: none; stroke: #ddd; stroke-width: 1; opacity: 1;"></line><line transform="translate(588,-600)" x2="0" y2="600" style="fill: none; stroke: #ddd; stroke-width: 1; opacity: 1;"></line><line transform="translate(623,-600)" x2="0" y2="600" style="fill: none; stroke: #ddd; stroke-width: 1; opacity: 1;"></line><line transform="translate(658,-600)" x2="0" y2="600" style="fill: none; stroke: #ddd; stroke-width: 1; opacity: 1;"></line><line transform="translate(692,-600)" x2="0" y2="600" style="fill: none; stroke: #ddd; stroke-width: 1; opacity: 1;"></line><line transform="translate(727,-600)" x2="0" y2="600" style="fill: none; stroke: #ddd; stroke-width: 1; opacity: 1;"></line><line transform="translate(762,-600)" x2="0" y2="600" style="fill: none; stroke: #ddd; stroke-width: 1; opacity: 1;"></line><line transform="translate(796,-600)" x2="0" y2="600" style="fill: none; stroke: #ddd; stroke-width: 1; opacity: 1;"></line><line transform="translate(831,-600)" x2="0" y2="600" style="fill: none; stroke: #ddd; stroke-width: 1; opacity: 1;"></line><line transform="translate(865,-600)" x2="0" y2="600" style="fill: none; stroke: #ddd; stroke-width: 1; opacity: 1;"></line><line transform="translate(900,-600)" x2="0" y2="600" style="fill: none; stroke: #ddd; stroke-width: 1; opacity: 1;"></line></g></g></g></g><g class="mark-group role-axis"><g transform="translate(0.5,0.5)"><path class="background" d="M0,0h0v0h0Z" style="pointer-events: none; fill: none;"></path><g><g class="mark-rule role-axis-grid" style="pointer-events: none;"><line transform="translate(0,600)" x2="900" y2="0" style="fill: none; stroke: #ddd; stroke-width: 1; opacity: 1;"></line><line transform="translate(0,560)" x2="900" y2="0" style="fill: none; stroke: #ddd; stroke-width: 1; opacity: 1;"></line><line transform="translate(0,520)" x2="900" y2="0" style="fill: none; stroke: #ddd; stroke-width: 1; opacity: 1;"></line><line transform="translate(0,480)" x2="900" y2="0" style="fill: none; stroke: #ddd; stroke-width: 1; opacity: 1;"></line><line transform="translate(0,440)" x2="900" y2="0" style="fill: none; stroke: #ddd; stroke-width: 1; opacity: 1;"></line><line transform="translate(0,400)" x2="900" y2="0" style="fill: none; stroke: #ddd; stroke-width: 1; opacity: 1;"></line><line transform="translate(0,360)" x2="900" y2="0" style="fill: none; stroke: #ddd; stroke-width: 1; opacity: 1;"></line><line transform="translate(0,320)" x2="900" y2="0" style="fill: none; stroke: #ddd; stroke-width: 1; opacity: 1;"></line><line transform="translate(0,280)" x2="900" y2="0" style="fill: none; stroke: #ddd; stroke-width: 1; opacity: 1;"></line><line transform="translate(0,240)" x2="900" y2="0" style="fill: none; stroke: #ddd; stroke-width: 1; opacity: 1;"></line><line transform="translate(0,200)" x2="900" y2="0" style="fill: none; stroke: #ddd; stroke-width: 1; opacity: 1;"></line><line transform="translate(0,160)" x2="900" y2="0" style="fill: none; stroke: #ddd; stroke-width: 1; opacity: 1;"></line><line transform="translate(0,120)" x2="900" y2="0" style="fill: none; stroke: #ddd; stroke-width: 1; opacity: 1;"></line><line transform="translate(0,80)" x2="900" y2="0" style="fill: none; stroke: #ddd; stroke-width: 1; opacity: 1;"></line><line transform="translate(0,40)" x2="900" y2="0" style="fill: none; stroke: #ddd; stroke-width: 1; opacity: 1;"></line><line transform="translate(0,0)" x2="900" y2="0" style="fill: none; stroke: #ddd; stroke-width: 1; opacity: 1;"></line></g></g></g></g><g class="mark-group role-scope pathgroup"><g transform="translate(0,0)"><path class="background" d="M0,0h900v600h-900Z" style="fill: none;"></path><g><g class="mark-line role-mark marks"><path d="M6.923076923076923,588.8933713570286L10.384615384615385,580.7858672376874L13.846153846153847,573.0856274277994L17.30769230769231,566.7191214383768L20.76923076923077,561.786956289123L24.230769230769234,557.0847262503044L27.692307692307693,553.001231389231L31.153846153846157,553.4800517829822L34.61538461538462,550.2444044250065L38.07692307692308,547.0732377593552L41.53846153846154,545.6054943945056L45,543.1454478164322L48.46153846153847,540.861197979312L51.92307692307693,538.3430773753144L55.38461538461539,536.9005495029063L58.84615384615385,535.0297754286944L62.307692307692314,533.9530420106888L65.76923076923077,533.1523465185757L69.23076923076924,532.3026073451671L72.6923076923077,530.8838461878063L76.15384615384616,530.0362595651277L79.61538461538461,528.7745792449152L83.07692307692308,528.1326216437877L86.53846153846155,527.1948895509569L90,526.7853997712964L93.46153846153847,526.1623351264188L96.92307692307693,525.6783536585366L100.38461538461539,524.9648521989906L103.84615384615385,524.6178007115157L107.3076923076923,524.6589969477649L110.76923076923077,400.0839148863295L114.23076923076923,432.3992646394021L117.6923076923077,424.9369005552751L121.15384615384615,444.0122310495525L124.61538461538463,430.64794230873497L128.07692307692307,445.99555944291194L131.53846153846155,452.2315341088104L135,456.08986092951386L138.46153846153848,445.90937545143737L141.9230769230769,460.11095700416087L145.3846153846154,458.9730487101294L148.84615384615384,464.5130863523863L152.30769230769232,465.2695278888794L155.76923076923077,471.27592944013907L159.23076923076923,476.0114627871419L162.69230769230768,476.84226134577557L166.15384615384616,468.55820633527486L169.6153846153846,482.7440850265387L173.0769230769231,481.87724319658355L176.53846153846155,483.64202539417994L180,480.246506089536L183.46153846153845,500.31937544357703L186.92307692307693,498.8991938978937L190.3846153846154,501.82555780933063L193.84615384615387,478.5437645236251L197.3076923076923,489.81771937261556L200.76923076923077,489.2327955218966L204.23076923076923,488.2504012841091L207.6923076923077,488.3980469658219L211.15384615384616,501.61940643796686L214.6153846153846,490.9348843807632L218.07692307692307,491.0438542310068L221.53846153846155,386.29888394882494L225,434.55702398433675L228.46153846153845,413.787640661344L231.9230769230769,429.31558935361215L235.3846153846154,420.6361520558572L238.84615384615384,436.47604327666147L242.3076923076923,431.1072813442482L245.76923076923075,435.5167631943878L249.23076923076925,439.90117356392835L252.6923076923077,442.44216128316947L256.15384615384613,439.8127833845254L259.6153846153846,443.91259105098857L263.0769230769231,436.90526613017084L266.53846153846155,445.5889055277036L270,466.4178285212427L273.46153846153845,463.1884693374253L276.92307692307696,430.5084745762712L280.3846153846154,473.65819737897834L283.8461538461538,450.8264004437049L287.30769230769226,446.6555370061213L290.7692307692308,444.53013110058384L294.2307692307692,453.730134629011L297.6923076923077,464.2520648516366L301.15384615384613,458.6921122232018L304.61538461538464,443.5871541102808L308.0769230769231,454.11030389849583L311.53846153846155,459.6997690531178L315,462.2511782644857L318.46153846153845,452.55782444594985L321.9230769230769,464.90628254078445L325.38461538461536,463.65950880802365L328.8461538461538,466.72956232823327L332.3076923076923,344.0710913635101L335.7692307692308,398.295728602819L339.2307692307692,412.04457733079647L342.6923076923077,403.7837837837838L346.1538461538462,390.21345780668173L349.61538461538464,411.68350341008147L353.0769230769231,403.533361309274L356.53846153846155,409.1811141643767L360,374.5844839264315L363.46153846153845,402.3701638201464L366.9230769230769,427.16800546915056L370.38461538461536,406.53210664663914L373.84615384615387,402.52821670428887L377.3076923076923,421.5098276509619L380.7692307692308,407.10300239128514L384.2307692307692,425.5708049864328L387.69230769230774,425.4477986935178L391.1538461538462,415.92023065833735L394.6153846153846,413.3950223356732L398.07692307692304,430.7741522712731L401.53846153846155,442.1699288908438L405,433.776799605358L408.46153846153845,447.65864332603934L411.9230769230769,435.95120008688417L415.3846153846154,408.2476800798968L418.84615384615387,438.4385668471326L422.3076923076923,437.36110636844796L425.7692307692308,439.7139451728248L429.2307692307692,430.80055020632744L432.6923076923077,441.63182566831364L436.15384615384613,456.9407524217166L439.6153846153846,454.81514820291903L443.0769230769231,340.5428232085514L446.53846153846155,372.7900328540342L450,379.4003671221701L453.46153846153845,379.49245101188563L456.9230769230769,377.66648058058854L460.38461538461536,401.560736196319L463.8461538461538,402.75582712574226L467.3076923076923,417.3455508626244L470.7692307692308,369.25068226120857L474.2307692307692,399.4831903315194L477.6923076923077,401.37283660897623L481.15384615384613,400.4093359589373L484.6153846153846,421.0454234193106L488.07692307692304,411.9110690633869L491.5384615384615,399.92487331230734L495.00000000000006,407.10440319374726L498.4615384615385,371.00735065741793L501.92307692307696,436.5032563263455L505.3846153846154,408.15531484041014L508.8461538461538,417.4254677127339L512.3076923076923,401.45289737779217L515.7692307692307,417.6509240246407L519.2307692307692,411.85605494997753L522.6923076923077,419.92102145583783L526.1538461538462,385.39278131634813L529.6153846153846,410.1524009056196L533.0769230769231,437.87626751737497L536.5384615384615,410.65904836961874L540,415.85143613834845L543.4615384615385,431.1808686718794L546.9230769230769,424.01644881774126L550.3846153846155,415.73055547119384L553.8461538461539,338.6171468683195L557.3076923076924,376.15026370169323L560.7692307692308,387.01139097417456L564.2307692307692,382.875988675831L567.6923076923076,369.3027815218723L571.1538461538461,399.5705521472392L574.6153846153845,367.312645134051L578.0769230769231,387.49888881833766L581.5384615384615,364.41436875838417L585,394.6544441448728L588.4615384615385,371.6994173990322L591.9230769230769,410.33274956217156L595.3846153846154,367.10096437709115L598.8461538461538,397.16028464927143L602.3076923076923,411.45259224661373L605.7692307692308,382.08017077798854L609.2307692307693,351.8516823071641L612.6923076923077,399.62264150943395L616.1538461538462,397.5980580043439L619.6153846153846,407.4632695370009L623.0769230769231,400.43116723129043L626.5384615384615,407.86464137000763L630,405.66165038575497L633.4615384615385,413.70419303247337L636.9230769230769,391.94985558901243L640.3846153846154,414.64306265443594L643.8461538461538,410.607999452561L647.3076923076923,414.8686387399907L650.7692307692307,423.8158933244714L654.2307692307692,419.87519697447215L657.6923076923076,412.63178382586693L661.1538461538462,423.1224242424243L664.6153846153846,333.7618488760495L668.0769230769231,376.9187004042521L671.5384615384615,368.11558485567286L675,364.74773409224485L678.4615384615385,376.8781762741397L681.9230769230769,381.68828885841856L685.3846153846154,363.83843860124693L688.8461538461538,380.5886834268301L692.3076923076924,359.9831988239177L695.7692307692308,383.4452261306533L699.2307692307693,385.7073458937832L702.6923076923077,385.2789266291074L706.1538461538462,380.04228329809723L709.6153846153846,372.04461470658026L713.0769230769231,385.8750315364561L716.5384615384615,405.73954437266235L720,347.8273540640574L723.4615384615385,400.20887330385733L726.9230769230769,428.9703315881326L730.3846153846154,396.8778039692799L733.8461538461538,382.6517288627387L737.3076923076923,426.30551301684534L740.7692307692307,445.2053405441947L744.2307692307692,421.21446528717854L747.6923076923077,384.70601807344747L751.1538461538462,404.54913354778455L754.6153846153846,401.1548117154811L758.0769230769231,391.0651274232193L761.5384615384615,392.9633194310769L765,410.1234327923024L768.4615384615385,410.24545192030035L771.9230769230769,413.1717854794777L775.3846153846155,363.8869063958277L778.8461538461539,407.45459731862695L782.3076923076924,373.47377758066307L785.7692307692308,374.83504478916325L789.2307692307692,401.4551704382698L792.6923076923076,369.36338647608574L796.1538461538461,379.88141058982626L799.6153846153845,395.7473684210526L803.0769230769231,356.3881869271678L806.5384615384615,455.46059637912674L810,378.58471492114836L813.4615384615385,404.04506342588485L816.9230769230769,444.4897389361999L820.3846153846154,420.9039457951375L823.8461538461538,522.2670509125841L827.3076923076923,481.7798934133595L830.7692307692308,346.87808986706705L834.2307692307693,402.529536761581L837.6923076923077,387.19476744186045L841.1538461538462,415.8315789473684L844.6153846153846,464.459874786568L848.0769230769231,444.91667743185633L851.5384615384615,429.9037312908439L855,447.0569064928553L858.4615384615385,418.8928150765607L861.9230769230769,447.8036207425591L865.3846153846154,479.5819083859159L868.8461538461538,474.8490266189909L872.3076923076923,444.11414544338754L875.7692307692307,446.57478427612654L879.2307692307692,456.7425335849895L882.6923076923076,501.0499885870806L886.1538461538462,485.1001534078457" style="fill: none; stroke: #ffbb78; stroke-width: 2;"></path></g></g></g><g transform="translate(0,0)"><path class="background" d="M0,0h900v600h-900Z" style="fill: none;"></path><g><g class="mark-line role-mark marks"><path d="M6.923076923076923,591.5486092715231L10.384615384615385,582.7367610985523L13.846153846153847,577.4807270669778L17.30769230769231,573.8009718994296L20.76923076923077,566.6471702968907L24.230769230769234,558.3283839035937L27.692307692307693,550.0433431630613L31.153846153846157,550.1765518974616L34.61538461538462,541.1622859898722L38.07692307692308,533.6397711580194L41.53846153846154,532.7182874558325L45,536.5124183006536L48.46153846153847,528.008057031142L51.92307692307693,521.0548921913925L55.38461538461539,521.2019381601422L58.84615384615385,522.6994883142028L62.307692307692314,518.5791456788164L65.76923076923077,514.8749071483887L69.23076923076924,517.4407954991495L72.6923076923077,520.5897523594716L76.15384615384616,514.5185464131048L79.61538461538461,510.1679169705021L83.07692307692308,512.323860901877L86.53846153846155,513.2088475921837L90,509.8961123815746L93.46153846153847,514.8198636806231L96.92307692307693,508.42078471822214L100.38461538461539,510.4417276228385L103.84615384615385,507.2437148433016L107.3076923076923,503.4954972958795L110.76923076923077,473.406213728507L114.23076923076923,503.3756805807622L117.6923076923077,492.76962697959516L121.15384615384615,492.52005140249037L124.61538461538463,496.1463780474023L128.07692307692307,504.8367854962191L131.53846153846155,506.64226728470175L135,502.46358725850087L138.46153846153848,495.94849450477983L141.9230769230769,505.4112351120698L145.3846153846154,498.3324109238726L148.84615384615384,499.25817267393126L152.30769230769232,497.684835226719L155.76923076923077,503.8345899440307L159.23076923076923,501.09142134498705L162.69230769230768,502.22335716717737L166.15384615384616,495.4706994328923L169.6153846153846,502.73726851851853L173.0769230769231,499.63714969505133L176.53846153846155,498.43811011323703L180,493.7211358946644L183.46153846153845,506.56910028272074L186.92307692307693,503.1711771542421L190.3846153846154,501.02249488752557L193.84615384615387,494.9765572672472L197.3076923076923,504.7353760445682L200.76923076923077,501.9884915143128L204.23076923076923,499.6685401354662L207.6923076923077,497.7998580553584L211.15384615384616,501.32590824714936L214.6153846153846,500.2400570946603L218.07692307692307,499.3342210386151L221.53846153846155,479.12947251936555L225,498.38864838864833L228.46153846153845,493.6458524079839L231.9230769230769,499.0441920611717L235.3846153846154,492.69594476997156L238.84615384615384,503.7063255296556L242.3076923076923,501.5866639887527L245.76923076923075,500.91941471937105L249.23076923076925,489.34898612593383L252.6923076923077,515.03808680248L256.15384615384613,500.4765751211632L259.6153846153846,500.59398164056745L263.0769230769231,497.4725112173956L266.53846153846155,502.94912017460103L270,500.4753033125824L273.46153846153845,503.5021260146888L276.92307692307696,489.9398108340499L280.3846153846154,504.94748279608837L283.8461538461538,500.3482771396814L287.30769230769226,497.35358635818056L290.7692307692308,494.9000786130994L294.2307692307692,500.5619910540199L297.6923076923077,499.0383740330654L301.15384615384613,498.96774193548384L304.61538461538464,491.8561619923193L308.0769230769231,499.119637029372L311.53846153846155,498.674797701419L315,500.0181104738907L318.46153846153845,494.3774129392037L321.9230769230769,502.7587660740637L325.38461538461536,497.9934341065695L328.8461538461538,499.73614775725594L332.3076923076923,478.2613003095976L335.7692307692308,497.2921712433907L339.2307692307692,501.6613336746448L342.6923076923077,507.1572777596874L346.1538461538462,492.51284807362873L349.61538461538464,501.69402856651175L353.0769230769231,498.5611811407479L356.53846153846155,497.90273242825225L360,481.43600986571664L363.46153846153845,497.57117260601234L366.9230769230769,495.7975622681505L370.38461538461536,496.9851216298724L373.84615384615387,498.19451371571074L377.3076923076923,509.00765864332607L380.7692307692308,496.8927843208862L384.2307692307692,507.33850823238697L387.69230769230774,496.9208193930856L391.1538461538462,497.0152951003831L394.6153846153846,495.88921950102997L398.07692307692304,499.39459253859076L401.53846153846155,493.12506205116324L405,504.7390396659707L408.46153846153845,502.88686757141613L411.9230769230769,499.01830282861897L415.3846153846154,485.4984593976742L418.84615384615387,499.2331736973416L422.3076923076923,500.0906192314147L425.7692307692308,498.7631740366921L429.2307692307692,495.22911816478336L432.6923076923077,499.4368463395012L436.15384615384613,502.0211682661153L439.6153846153846,496.90635985937996L443.0769230769231,473.9934627956162L446.53846153846155,496.27898279730744L450,491.9022642957656L453.46153846153845,492.427756534821L456.9230769230769,489.5922440832621L460.38461538461536,500.6821818590157L463.8461538461538,498.1479905839644L467.3076923076923,497.00480361684095L470.7692307692308,482.1122406705121L474.2307692307692,497.42314523842055L477.6923076923077,497.66792047286407L481.15384615384613,497.90078604927663L484.6153846153846,494.189891355692L488.07692307692304,499.77440292393976L491.5384615384615,497.4657556014619L495.00000000000006,498.2320373250389L498.4615384615385,485.9131391630274L501.92307692307696,497.1840743306573L505.3846153846154,497.5766797469368L508.8461538461538,497.7572746628815L512.3076923076923,491.8499012508229L515.7692307692307,499.54298642533934L519.2307692307692,497.5020879204312L522.6923076923077,497.6232881837911L526.1538461538462,483.20252764612957L529.6153846153846,494.63711038595704L533.0769230769231,499.8585453393856L536.5384615384615,494.5153854597344L540,493.473407747866L543.4615384615385,496.0177177810588L546.9230769230769,499.9639350831497L550.3846153846155,494.7282948157401L553.8461538461539,478.3799833722633L557.3076923076924,497.52520260921125L560.7692307692308,492.9580911593759L564.2307692307692,496.0422576543089L567.6923076923076,502.3561444908332L571.1538461538461,495.76952526799386L574.6153846153845,493.8009442142788L578.0769230769231,502.96102992345163L581.5384615384615,481.0744759296324L585,494.2576823398741L588.4615384615385,493.2101616628176L591.9230769230769,497.6513825691285L595.3846153846154,491.37506884523594L598.8461538461538,503.811666398843L602.3076923076923,496.13722126929673L605.7692307692308,494.5873849066345L609.2307692307693,479.937984496124L612.6923076923077,501.62034856335373L616.1538461538462,496.0498687664042L619.6153846153846,497.7877023686099L623.0769230769231,497.68690297623743L626.5384615384615,498.4784629687016L630,499.987922705314L633.4615384615385,503.01476976542136L636.9230769230769,482.20927198399585L640.3846153846154,502.75607330586735L643.8461538461538,500.728837876614L647.3076923076923,497.84853574819243L650.7692307692307,492.7995147103427L654.2307692307692,499.2355430183357L657.6923076923076,494.6600525240735L661.1538461538462,497.9695147531814L664.6153846153846,485.6575682382134L668.0769230769231,498.9583615895836L671.5384615384615,494.87884924237136L675,495.499828237719L678.4615384615385,490.4278379920137L681.9230769230769,498.54519312463236L685.3846153846154,493.2498298162015L688.8461538461538,499.36213468869124L692.3076923076924,481.05857865001485L695.7692307692308,497.7513445112306L699.2307692307693,491.680382267056L702.6923076923077,496.99681309754425L706.1538461538462,491.10035326442494L709.6153846153846,497.25566896888944L713.0769230769231,497.0999030067895L716.5384615384615,502.6214419635248L720,483.8706213931016L723.4615384615385,498.7811377592399L726.9230769230769,504.2553191489362L730.3846153846154,497.30465371085864L733.8461538461538,493.09229305423406L737.3076923076923,502.2535818162232L740.7692307692307,509.24296472453426L744.2307692307692,502.6893321404137L747.6923076923077,481.7263451422777L751.1538461538462,496.6609974214078L754.6153846153846,496.3715656345399L758.0769230769231,493.95611077331273L761.5384615384615,489.7305917867517L765,501.56001209311694L768.4615384615385,496.26604925278895L771.9230769230769,498.1954040636675L775.3846153846155,484.89763147330393L778.8461538461539,513.2576568858428L782.3076923076924,497.391391693034L785.7692307692308,495.8326173750442L789.2307692307692,502.574146090053L792.6923076923076,502.8375561628607L796.1538461538461,498.29856772084975L799.6153846153845,500.12446773665243L803.0769230769231,482.7363834422658L806.5384615384615,516.27236273905L810,496.03455641524664L813.4615384615385,500.1220780395171L816.9230769230769,508.6426638235053L820.3846153846154,506.0444109898381L823.8461538461538,540.8124134688227L827.3076923076923,524.8284257279158L830.7692307692308,490.14447146330997L834.2307692307693,506.9885499239331L837.6923076923077,497.50787539376967L841.1538461538462,502.62769509832214L844.6153846153846,512.1920283175399L848.0769230769231,513.7106918238993L851.5384615384615,510.28685790527015L855,511.2338134730103L858.4615384615385,496.00710149215877L861.9230769230769,512.6315789473684L865.3846153846154,521.9627918591584L868.8461538461538,520.9275180420458L872.3076923076923,510.38419474334097L875.7692307692307,513.9085406859449L879.2307692307692,526.1323563086787L882.6923076923076,532.3572245916987L886.1538461538462,532.6004010901424" style="fill: none; stroke: #aec7e8; stroke-width: 2;"></path></g></g></g><g transform="translate(0,0)"><path class="background" d="M0,0h900v600h-900Z" style="fill: none;"></path><g><g class="mark-line role-mark marks"><path d="M6.923076923076923,582.5406881485527L10.384615384615385,569.9548872180451L13.846153846153847,555.8376547051096L17.30769230769231,544.6418656302054L20.76923076923077,536.099799509913L24.230769230769234,530.2478629421653L27.692307692307693,469.20569847289124L31.153846153846157,472.3935307841354L34.61538461538462,473.7216540684749L38.07692307692308,477.79459349282786L41.53846153846154,479.6039603960396L45,484.242139186482L48.46153846153847,485.46007035401544L51.92307692307693,482.67298731381476L55.38461538461539,346.27001373797924L58.84615384615385,355.7206715859266L62.307692307692314,367.8172052799272L65.76923076923077,395.0227795438231L69.23076923076924,411.96560226701183L72.6923076923077,418.5644353995929L76.15384615384616,427.23477487407064L79.61538461538461,433.42410079252176L83.07692307692308,230.98121085594985L86.53846153846155,300.66766962165383L90,314.0032352575197L93.46153846153847,375.56912938791027L96.92307692307693,360.9597852829345L100.38461538461539,363.35861105567744L103.84615384615385,381.53176169102215L107.3076923076923,392.3656412305234L110.76923076923077,100.97339881576117L114.23076923076923,323.711943793911L117.6923076923077,245.68760313169255L121.15384615384615,281.5069061002503L124.61538461538463,280.23541395506754L128.07692307692307,315.8520737826228L131.53846153846155,373.18385118221397L135,353.751651726724L138.46153846153848,187.63403775004704L141.9230769230769,287.7270343209712L145.3846153846154,263.4354522542705L148.84615384615384,296.79931965372117L152.30769230769232,304.8910782958255L155.76923076923077,346.689810497927L159.23076923076923,361.55751422514777L162.69230769230768,397.44034456009535L166.15384615384616,327.07180527383366L169.6153846153846,368.48533547609486L173.0769230769231,373.7140756736888L176.53846153846155,381.9010068754276L180,359.7343397595005L183.46153846153845,428.6307269029866L186.92307692307693,431.5737359985148L190.3846153846154,432.85001739937366L193.84615384615387,322.5744597249509L197.3076923076923,363.73927655434693L200.76923076923077,361.7936013450032L204.23076923076923,373.2031547664406L207.6923076923077,368.98178986574595L211.15384615384616,408.97586017939034L214.6153846153846,410.81307991835905L218.07692307692307,412.4076195932397L221.53846153846155,316.002803720613L225,387.82172002510987L228.46153846153845,349.44946589975353L231.9230769230769,407.3790573742127L235.3846153846154,370.8946772366931L238.84615384615384,385.62101313320824L242.3076923076923,390.01499892864797L245.76923076923075,387.2322464915058L249.23076923076925,327.4561780638504L252.6923076923077,374.8592983779706L256.15384615384613,366.68086919471665L259.6153846153846,382.04010462074984L263.0769230769231,381.77009540001893L266.53846153846155,376.20081155043886L270,405.71611049018037L273.46153846153845,412.37128898910186L276.92307692307696,312.11309842561855L280.3846153846154,383.4474791649476L283.8461538461538,400.8736210853632L287.30769230769226,375.43802461087114L290.7692307692308,339.29429152041376L294.2307692307692,381.01083579601425L297.6923076923077,398.8987832234383L301.15384615384613,385.3222718570516L304.61538461538464,332.61976694000856L308.0769230769231,352.87419078075027L311.53846153846155,372.9820627802691L315,375.79531609584404L318.46153846153845,337.6520728399845L321.9230769230769,379.2355305979197L325.38461538461536,369.5507596009649L328.8461538461538,382.56941516593383L332.3076923076923,309.80083444855546L335.7692307692308,361.4350912778904L339.2307692307692,379.34520390580127L342.6923076923077,367.05882352941177L346.1538461538462,346.787364689498L349.61538461538464,382.9459013777328L353.0769230769231,361.3214039917412L356.53846153846155,369.8199175526144L360,322.1679938350886L363.46153846153845,346.0847535697835L366.9230769230769,361.9365432491128L370.38461538461536,347.8887971373521L373.84615384615387,357.3286174971393L377.3076923076923,370.99320019275035L380.7692307692308,346.05025359995335L384.2307692307692,372.29015863237333L387.69230769230774,324.5196003074558L391.1538461538462,347.06503796632546L394.6153846153846,344.1592388035217L398.07692307692304,364.02656621728784L401.53846153846155,370.84251856757646L405,381.26764314247674L408.46153846153845,381.8884344269428L411.9230769230769,368.5795996186844L415.3846153846154,309.4496132720547L418.84615384615387,359.3809632503994L422.3076923076923,375.77771268360044L425.7692307692308,363.97815912636503L429.2307692307692,360.08321775312066L432.6923076923077,363.3472169632715L436.15384615384613,382.43672647852344L439.6153846153846,392.1018287279465L443.0769230769231,310.74297484184194L446.53846153846155,348.6464714273726L450,353.8137822198842L453.46153846153845,347.2193126022913L456.9230769230769,341.7497632673227L460.38461538461536,368.9599999999999L463.8461538461538,376.1533367096497L467.3076923076923,391.8109449184307L470.7692307692308,307.20021107251216L474.2307692307692,360.2554686252595L477.6923076923077,357.7002902469087L481.15384615384613,361.4139075403257L484.6153846153846,371.7446684620424L488.07692307692304,367.9655700634619L491.5384615384615,356.40907546528746L495.00000000000006,365.75335600501165L498.4615384615385,312.1998612074948L501.92307692307696,381.47330128621536L505.3846153846154,355.0764811490125L508.8461538461538,375.3158305172862L512.3076923076923,343.07100179612183L515.7692307692307,366.4281956864808L519.2307692307692,354.53429701350063L522.6923076923077,364.452479338843L526.1538461538462,308.4783723039312L529.6153846153846,347.85822478036954L533.0769230769231,364.9720393572591L536.5384615384615,347.2216742289734L540,343.83157894736837L543.4615384615385,373.2010121257928L546.9230769230769,365.93376418980006L550.3846153846155,353.66508908685967L553.8461538461539,312.38984657515016L557.3076923076924,359.0105256167613L560.7692307692308,364.19728524211405L564.2307692307692,359.91350932679273L567.6923076923076,354.82224247948955L571.1538461538461,381.5008025682183L574.6153846153845,342.3985042735043L578.0769230769231,362.0102401560405L581.5384615384615,327.1537080513741L585,365.30028076422656L588.4615384615385,350.11580150078737L591.9230769230769,385.282095214784L595.3846153846154,329.0576652601969L598.8461538461538,360.65575955482984L602.3076923076923,380.42969812347025L605.7692307692308,348.85532700061503L609.2307692307693,315.58353828496473L612.6923076923077,360.5655510620004L616.1538461538462,351.7657428263637L619.6153846153846,361.71789786812104L623.0769230769231,366.68266922707636L626.5384615384615,359.96336549029184L630,357.23699880905116L633.4615384615385,362.7487676004369L636.9230769230769,328.2552422995886L640.3846153846154,359.58555288883684L643.8461538461538,354.42058562555457L647.3076923076923,364.87476886871735L650.7692307692307,359.1892122072391L654.2307692307692,360.7995446479392L657.6923076923076,355.4821776310219L661.1538461538462,362.7406347554631L664.6153846153846,311.8780734034585L668.0769230769231,358.358741485566L671.5384615384615,352.7444732779292L675,350.8681124287492L678.4615384615385,356.25912061417415L681.9230769230769,361.8056834223286L685.3846153846154,345.59377027903963L688.8461538461538,360.9789956542732L692.3076923076924,329.37163476446875L695.7692307692308,356.8914161927971L699.2307692307693,361.5979550849005L702.6923076923077,358.9412108803744L706.1538461538462,358.3450678667344L709.6153846153846,349.03705473112177L713.0769230769231,355.8342922899884L716.5384615384615,380.17699115044246L720,325.9690904484418L723.4615384615385,362.06985769728334L726.9230769230769,395.3754543345449L730.3846153846154,362.56258124729175L733.8461538461538,340.189320037575L737.3076923076923,365.73162073194345L740.7692307692307,425.6220847215611L744.2307692307692,390.90018094089265L747.6923076923077,337.3712355755699L751.1538461538462,361.7656730890846L754.6153846153846,353.73773358810763L758.0769230769231,349.6652965355255L761.5384615384615,343.4062292909211L765,364.08163265306126L768.4615384615385,370.35374519473464L771.9230769230769,362.28967495219877L775.3846153846155,336.50518576867535L778.8461538461539,404.48006179395577L782.3076923076924,357.2337307402859L785.7692307692308,360.3302325581396L789.2307692307692,386.44757112046835L792.6923076923076,355.9843344061422L796.1538461538461,369.32301319088623L799.6153846153845,385.2243912255987L803.0769230769231,332.2189054726368L806.5384615384615,440.7830486106019L810,358.41164791528786L813.4615384615385,373.2032854209445L816.9230769230769,423.2854763226779L820.3846153846154,380.7611241217799L823.8461538461538,518.4097947425279L827.3076923076923,462.35074402072416L830.7692307692308,325.8122099250268L834.2307692307693,372.6548585967315L837.6923076923077,376.8777978855129L841.1538461538462,383.58438702583834L844.6153846153846,464.38268792710704L848.0769230769231,422.08225268618L851.5384615384615,400.04625805385757L855,426.0984821492197L858.4615384615385,374.8961478634825L861.9230769230769,398.86131386861314L865.3846153846154,465.8870232283675L868.8461538461538,450.02440040468963L872.3076923076923,412.78301886792445L875.7692307692307,416.85550786838337L879.2307692307692,458.47874965725254L882.6923076923076,487.52918792700854L886.1538461538462,481.0167029774873" style="fill: none; stroke: #ff7f0e; stroke-width: 2;"></path></g></g></g><g transform="translate(0,0)"><path class="background" d="M0,0h900v600h-900Z" style="fill: none;"></path><g><g class="mark-line role-mark marks"><path d="M6.923076923076923,582.8092062809206L10.384615384615385,566.1578996894702L13.846153846153847,546.1999326825984L17.30769230769231,527.9116755664598L20.76923076923077,503.347905037326L24.230769230769234,504.2779544898458L27.692307692307693,488.9525717521014L31.153846153846157,499.1154775730563L34.61538461538462,486.1923727113836L38.07692307692308,473.2736822656848L41.53846153846154,460.17636684303346L45,447.09726061824574L48.46153846153847,434.0136287661253L51.92307692307693,420.88920254057865L55.38461538461539,373.13769852825874L58.84615384615385,413.4017239684049L62.307692307692314,369.8728821221272L65.76923076923077,390.08890996384326L69.23076923076924,360.32804945223086L72.6923076923077,373.7984659585123L76.15384615384616,344.448419797257L79.61538461538461,338.2351589429337L83.07692307692308,322.20479531724885L86.53846153846155,357.0404505888377L90,342.565632214436L93.46153846153847,317.54669252497996L96.92307692307693,346.38977635782743L100.38461538461539,335.9502116850127L103.84615384615385,276.14879649890594L107.3076923076923,287.4322539183833L110.76923076923077,296.04948231813904L114.23076923076923,331.87005575446386L117.6923076923077,283.42930553635745L121.15384615384615,280.82063692866177L124.61538461538463,260.36506347362933L128.07692307692307,272.7084077646779L131.53846153846155,344.4957337726036L135,259.6483428546024L138.46153846153848,254.9934523952986L141.9230769230769,325.98995229145584L145.3846153846154,299.88601785384054L148.84615384615384,300.46799064018717L152.30769230769232,282.6122595640994L155.76923076923077,332.0662089967577L159.23076923076923,352.15226939970717L162.69230769230768,403.7518275873614L166.15384615384616,340.58227440887885L169.6153846153846,424.12483805924353L173.0769230769231,419.73905081641993L176.53846153846155,428.27657998143127L180,388.44813782619707L183.46153846153845,419.9342671145436L186.92307692307693,407.16519399973845L190.3846153846154,415.61733442354864L193.84615384615387,360.3065318086777L197.3076923076923,417.07503072446724L200.76923076923077,419.95722578673997L204.23076923076923,411.0088224838686L207.6923076923077,387.2707127908408L211.15384615384616,410.92652780956746L214.6153846153846,371.6967937849048L218.07692307692307,363.6002075047553L221.53846153846155,344.8154731525316L225,359.39915160671745L228.46153846153845,355.11141891066114L231.9230769230769,366.114624153901L235.3846153846154,346.9100639576723L238.84615384615384,371.23866343670545L242.3076923076923,359.7521551724137L245.76923076923075,371.154282662394L249.23076923076925,345.014756090504L252.6923076923077,424.7341688216962L256.15384615384613,339.03250109505035L259.6153846153846,349.11250682687063L263.0769230769231,342.5571391552216L266.53846153846155,348.21935861765996L270,344.8929266709928L273.46153846153845,354.0492610837438L276.92307692307696,327.4566166294049L280.3846153846154,388.74667954600335L283.8461538461538,335.8994501178319L287.30769230769226,341.5009380863039L290.7692307692308,346.98341550874045L294.2307692307692,360.42443836524905L297.6923076923077,340.8549404344779L301.15384615384613,345.51567622089595L304.61538461538464,329.15974468829234L308.0769230769231,338.3001569340051L311.53846153846155,346.558197747184L315,348.10646387832696L318.46153846153845,325.7290991574854L321.9230769230769,359.0807799442897L325.38461538461536,351.2562460412414L328.8461538461538,327.8347406513872L332.3076923076923,321.0231572574542L335.7692307692308,344.4942294636795L339.2307692307692,334.32918395574L342.6923076923077,400.6914082358922L346.1538461538462,352.8881200963736L349.61538461538464,338.4861885534833L353.0769230769231,343.96456256921374L356.53846153846155,322.3138332678968L360,357.5703238821024L363.46153846153845,324.34054256782093L366.9230769230769,334.60879834661944L370.38461538461536,360.44358424438985L373.84615384615387,328.63374629209557L377.3076923076923,368.55946235511834L380.7692307692308,339.75696311431335L384.2307692307692,372.5073855243723L387.69230769230774,384.68008410934215L391.1538461538462,329.3556591776176L394.6153846153846,338.58996278789095L398.07692307692304,320.5050985364822L401.53846153846155,328.16161616161617L405,330.7523356826749L408.46153846153845,332.11628901239845L411.9230769230769,326.3427988619894L415.3846153846154,307.9551792323683L418.84615384615387,351.2266956152358L422.3076923076923,333.07562020524057L425.7692307692308,344.1063709828979L429.2307692307692,330.73113781193763L432.6923076923077,342.23260929337357L436.15384615384613,326.7077894132836L439.6153846153846,333.09859802344283L443.0769230769231,317.706518617785L446.53846153846155,315.57897735365333L450,333.02909298345696L453.46153846153845,355.6283374866501L456.9230769230769,321.92046814736005L460.38461538461536,328.59225163022626L463.8461538461538,330.90666888685377L467.3076923076923,332.66237470458805L470.7692307692308,315.23927639738275L474.2307692307692,319.85405696753594L477.6923076923077,356.11539966561133L481.15384615384613,319.0013331717367L484.6153846153846,366.5894806483625L488.07692307692304,360.8460587429412L491.5384615384615,335.4565208478537L495.00000000000006,315.7667953667954L498.4615384615385,327.056887828555L501.92307692307696,365.37871390709995L505.3846153846154,314.358458961474L508.8461538461538,333.0677475390852L512.3076923076923,311.1362044096435L515.7692307692307,337.65435745937964L519.2307692307692,349.1464009476692L522.6923076923077,320.22240116568884L526.1538461538462,343.37799375216935L529.6153846153846,318.6101198302092L533.0769230769231,328.57224606580826L536.5384615384615,315.0481838398814L540,335.1814193899412L543.4615384615385,330.64881846742236L546.9230769230769,334.2665158672078L550.3846153846155,336.9046147842206L553.8461538461539,317.97431748545466L557.3076923076924,318.02012510198534L560.7692307692308,331.4504988488104L564.2307692307692,341.49280700535127L567.6923076923076,338.50203132053196L571.1538461538461,331.3669521091024L574.6153846153845,317.05695491737526L578.0769230769231,324.4753369557547L581.5384615384615,319.54290581304565L585,329.11455863423885L588.4615384615385,334.8797588624599L591.9230769230769,331.79545975693645L595.3846153846154,316.3372371755359L598.8461538461538,328.491171229548L602.3076923076923,329.4801672144749L605.7692307692308,317.0900692840646L609.2307692307693,323.0665091478017L612.6923076923077,334.8210399032647L616.1538461538462,313.8496274554075L619.6153846153846,323.92048252092565L623.0769230769231,342.71858427157485L626.5384615384615,314.48331673306774L630,333.9793869629233L633.4615384615385,333.694708591498L636.9230769230769,322.10945973675723L640.3846153846154,313.7266616878267L643.8461538461538,320.0593391773432L647.3076923076923,333.38331533134243L650.7692307692307,328.07949991985896L654.2307692307692,319.6153846153847L657.6923076923076,332.7328253694049L661.1538461538462,322.20826194555497L664.6153846153846,323.1046569854782L668.0769230769231,319.31679748822603L671.5384615384615,315.954716981132L675,322.9928668993777L678.4615384615385,336.7865707434053L681.9230769230769,328.81383567227624L685.3846153846154,341.03969879120154L688.8461538461538,335.9493248874812L692.3076923076924,326.44896563515124L695.7692307692308,319.2343998841755L699.2307692307693,330.32846474125967L702.6923076923077,331.9826997496017L706.1538461538462,327.6439790575916L709.6153846153846,338.77233877233874L713.0769230769231,321.0360241914278L716.5384615384615,355.8722358722358L720,326.28981748015053L723.4615384615385,333.196921573418L726.9230769230769,362.15195847097687L730.3846153846154,317.94481928474136L733.8461538461538,320.0012459894714L737.3076923076923,340.1844004123239L740.7692307692307,419.55870764381405L744.2307692307692,364.44359513344796L747.6923076923077,329.1064274516634L751.1538461538462,318.63647227533465L754.6153846153846,321.6342070581345L758.0769230769231,321.367571021902L761.5384615384615,335.5642820556599L765,337.31688460116305L768.4615384615385,335.45893719806764L771.9230769230769,358.1568389057751L775.3846153846155,342.3651359070633L778.8461538461539,386.1292026051751L782.3076923076924,326.9666900537904L785.7692307692308,328.78581532287245L789.2307692307692,384.2539946046898L792.6923076923076,334.9679919137466L796.1538461538461,336.4006311768125L799.6153846153845,338.2232942234577L803.0769230769231,329.1306353533235L806.5384615384615,431.2827286147152L810,355.76482395249644L813.4615384615385,358.22692448011674L816.9230769230769,418.2986705815186L820.3846153846154,343.70584432868174L823.8461538461538,515.3556485355648L827.3076923076923,461.00255505535955L830.7692307692308,335.99174974217937L834.2307692307693,336.9519927536232L837.6923076923077,344.08506609373285L841.1538461538462,353.21700971685306L844.6153846153846,469.71716177033755L848.0769230769231,401.159420289855L851.5384615384615,379.82172093869383L855,410.76612903225805L858.4615384615385,385.08255438106056L861.9230769230769,388.9507275976513L865.3846153846154,463.61900605531605L868.8461538461538,436.8272468272468L872.3076923076923,402.7672955974843L875.7692307692307,404.9695307739184L879.2307692307692,452.77042446371513L882.6923076923076,484.13737805692904L886.1538461538462,483.65185744085926" style="fill: none; stroke: #98df8a; stroke-width: 2;"></path></g></g></g><g transform="translate(0,0)"><path class="background" d="M0,0h900v600h-900Z" style="fill: none;"></path><g><g class="mark-line role-mark marks"><path d="M6.923076923076923,582.5730484081988L10.384615384615385,565.4624027657735L13.846153846153847,545.8994753765443L17.30769230769231,524.5012091898428L20.76923076923077,501.55363748458694L24.230769230769234,504.8182570191231L27.692307692307693,481.78778194618127L31.153846153846157,475.7835461102325L34.61538461538462,459.1648973814579L38.07692307692308,442.50630176449397L41.53846153846154,423.28888888888883L45,425.5256927279823L48.46153846153847,392.06245655312546L51.92307692307693,390.63871740099995L55.38461538461539,376.615493206282L58.84615384615385,384.71573613658273L62.307692307692314,364.1239249052067L65.76923076923077,373.1404985121428L69.23076923076924,359.3910971015607L72.6923076923077,355.99654190110397L76.15384615384616,330.6771406127258L79.61538461538461,316.7503928975157L83.07692307692308,337.38913624220834L86.53846153846155,340.1310024535576L90,328.69180732111727L93.46153846153847,316.89613102007905L96.92307692307693,337.4315043202127L100.38461538461539,294.7894257778473L103.84615384615385,281.9812388497765L107.3076923076923,270.3919421120129L110.76923076923077,282.3670205629544L114.23076923076923,339.56228402172127L117.6923076923077,277.1157608022781L121.15384615384615,267.31406374957146L124.61538461538463,255.7624325459656L128.07692307692307,246.35344392960894L131.53846153846155,329.56729746064985L135,229.54521792626943L138.46153846153848,236.55741225314367L141.9230769230769,292.3891467674786L145.3846153846154,264.62123458512843L148.84615384615384,278.59578849914504L152.30769230769232,244.8994091419871L155.76923076923077,303.33256778155175L159.23076923076923,312.16707542160754L162.69230769230768,376.6917740336967L166.15384615384616,317.885126607771L169.6153846153846,413.5952050523944L173.0769230769231,399.52257437815825L176.53846153846155,409.3674199459035L180,339.0417070805043L183.46153846153845,396.4196920811169L186.92307692307693,383.0156402255972L190.3846153846154,380.7503730547857L193.84615384615387,318.0773400795085L197.3076923076923,403.42060200159824L200.76923076923077,395.54783790415433L204.23076923076923,387.8986225071491L207.6923076923077,348.7730061349693L211.15384615384616,389.1174680462568L214.6153846153846,349.9183040137593L218.07692307692307,348.9417058087106L221.53846153846155,311.1900519246614L225,343.702488482779L228.46153846153845,315.9292946627767L231.9230769230769,335.95403418220775L235.3846153846154,331.63401238655393L238.84615384615384,323.82180283089144L242.3076923076923,341.398102362295L245.76923076923075,324.10085517241384L249.23076923076925,323.2150027578599L252.6923076923077,320.8930764973475L256.15384615384613,320.2007325434378L259.6153846153846,318.87222946544983L263.0769230769231,338.60774657260754L266.53846153846155,319.5424541486593L270,335.30719031101177L273.46153846153845,342.1544443769366L276.92307692307696,308.8703563305535L280.3846153846154,333.29268292682923L283.8461538461538,340.93623579271815L287.30769230769226,321.12134399352294L290.7692307692308,318.37956495709443L294.2307692307692,310.0722311396469L297.6923076923077,332.7069027827972L301.15384615384613,318.70296385766045L304.61538461538464,328.6852938600333L308.0769230769231,317.4351199500579L311.53846153846155,319.504804778807L315,319.2881355932203L318.46153846153845,308.7154779316871L321.9230769230769,318.64020819778773L325.38461538461536,317.2027524403904L328.8461538461538,313.87810097487517L332.3076923076923,309.3432153276038L335.7692307692308,318.27232577288714L339.2307692307692,335.86358635863587L342.6923076923077,322.37093690248565L346.1538461538462,315.0997150997151L349.61538461538464,336.3571751631453L353.0769230769231,322.9294274300932L356.53846153846155,310.47281162584426L360,316.2085929813053L363.46153846153845,314.913698364471L366.9230769230769,329.13879346712463L370.38461538461536,316.8016820233751L373.84615384615387,326.8064176133036L377.3076923076923,315.91846494112025L380.7692307692308,321.3265776140027L384.2307692307692,318.40932464861163L387.69230769230774,339.84549178202934L391.1538461538462,317.68737563564L394.6153846153846,328.3870630649459L398.07692307692304,316.2778224725127L401.53846153846155,325.82140492078844L405,338.3712040772988L408.46153846153845,327.52948850356034L411.9230769230769,314.7834843907351L415.3846153846154,311.91997777160316L418.84615384615387,315.66272859686035L422.3076923076923,331.1200321156162L425.7692307692308,315.6054514124588L429.2307692307692,335.010771219302L432.6923076923077,315.8947421586948L436.15384615384613,325.65833053328856L439.6153846153846,330.8468919482687L443.0769230769231,323.7746452489111L446.53846153846155,310.7310478029937L450,331.37886882423066L453.46153846153845,313.5058430717863L456.9230769230769,317.82995951417007L460.38461538461536,318.6515861093929L463.8461538461538,329.93983957219245L467.3076923076923,329.39866369710467L470.7692307692308,312.8941014142808L474.2307692307692,314.0688079217977L477.6923076923077,314.7441125072813L481.15384615384613,315.3676801571387L484.6153846153846,335.552057566899L488.07692307692304,316.86209352005693L491.5384615384615,327.30879038317056L495.00000000000006,314.31077305184726L498.4615384615385,319.00323722050746L501.92307692307696,332.4425355921419L505.3846153846154,311.4042873260624L508.8461538461538,334.1862074267702L512.3076923076923,313.27497341078293L515.7692307692307,331.82137329659133L519.2307692307692,314.4330305794629L522.6923076923077,315.5319895512496L526.1538461538462,312.9269239729751L529.6153846153846,313.6075852576846L533.0769230769231,327.2651477035866L536.5384615384615,311.7036037049537L540,317.9354558296207L543.4615384615385,333.7132439823098L546.9230769230769,333.3262117772733L550.3846153846155,324.93556832477645L553.8461538461539,321.3700214278425L557.3076923076924,315.14406401318723L560.7692307692308,332.3321115537847L564.2307692307692,315.9250225533763L567.6923076923076,330.45036016285627L571.1538461538461,332.7326274454807L574.6153846153845,314.62118515162297L578.0769230769231,320.6910365548323L581.5384615384615,325.3138686131386L585,329.4902411798532L588.4615384615385,327.3493042218404L591.9230769230769,329.89311163895485L595.3846153846154,313.9273380301147L598.8461538461538,320.0935234977788L602.3076923076923,329.316048278945L605.7692307692308,315.437711555054L609.2307692307693,307.7440442093203L612.6923076923077,334.17012636746557L616.1538461538462,312.99796189058907L619.6153846153846,320.6277831407841L623.0769230769231,345.0491803278688L626.5384615384615,313.3860334322762L630,324.43414445731935L633.4615384615385,328.488533703961L636.9230769230769,330.36152117643707L640.3846153846154,315.1731312230644L643.8461538461538,317.9290664492458L647.3076923076923,335.049880035358L650.7692307692307,329.26847950976634L654.2307692307692,317.9271542789458L657.6923076923076,321.4774809528402L661.1538461538462,318.1211165126686L664.6153846153846,333.30439500813884L668.0769230769231,319.7655245917055L671.5384615384615,319.265268065268L675,341.49505707730214L678.4615384615385,329.98769987699876L681.9230769230769,316.8862275449102L685.3846153846154,319.54573906822856L688.8461538461538,333.87915103320825L692.3076923076924,330.36737445230875L695.7692307692308,318.11616954474096L699.2307692307693,331.5702914281955L702.6923076923077,324.95244451860503L706.1538461538462,326.3455531809962L709.6153846153846,318.08546320520554L713.0769230769231,317.54526091586797L716.5384615384615,345.59757762868844L720,325.80410051652564L723.4615384615385,320.96841163882584L726.9230769230769,362.83150146213575L730.3846153846154,319.4732365079865L733.8461538461538,320.3583872573419L737.3076923076923,330.20337773549L740.7692307692307,414.38443611308134L744.2307692307692,363.27497359408505L747.6923076923077,332.0257026959113L751.1538461538462,321.03672985781986L754.6153846153846,317.48900249673045L758.0769230769231,320.6372320596458L761.5384615384615,335.573311479888L765,330.96843047474783L768.4615384615385,335.6629010090175L771.9230769230769,324.55983660470105L775.3846153846155,331.4996655518394L778.8461538461539,363.38851022395323L782.3076923076924,329.2103780774711L785.7692307692308,325.2885512461682L789.2307692307692,393.95957193816884L792.6923076923076,330.7956878850102L796.1538461538461,334.68193596923845L799.6153846153845,336.16316440049445L803.0769230769231,331.19360745796564L806.5384615384615,422.2364112639162L810,320.20439448134897L813.4615384615385,331.5264948954788L816.9230769230769,421.7585406832546L820.3846153846154,356.79151331457024L823.8461538461538,514.4221181447349L827.3076923076923,457.54473470914644L830.7692307692308,324.159948918509L834.2307692307693,341.0085095314184L837.6923076923077,343.09340157192463L841.1538461538462,358.21885556351725L844.6153846153846,458.357223576994L848.0769230769231,404.63791700569567L851.5384615384615,387.7562472599737L855,407.6336118555888L858.4615384615385,372.39707651031546L861.9230769230769,389.3987771739131L865.3846153846154,463.80475049030287L868.8461538461538,439.9669778370483L872.3076923076923,425.03375120540016L875.7692307692307,397.7438976222451L879.2307692307692,420.6269548898311L882.6923076923076,480.1161504424779L886.1538461538462,473.0168571982174" style="fill: none; stroke: #ff9896; stroke-width: 2;"></path></g></g></g><g transform="translate(0,0)"><path class="background" d="M0,0h900v600h-900Z" style="fill: none;"></path><g><g class="mark-line role-mark marks"><path d="M6.923076923076923,589.5016436554898L10.384615384615385,583.1279086165562L13.846153846153847,570.5193125115505L17.30769230769231,572.6435386906403L20.76923076923077,565.3799126637555L24.230769230769234,561.1588371391208L27.692307692307693,555.0444373059214L31.153846153846157,550.8550888554917L34.61538461538462,540.9230397121737L38.07692307692308,541.6546618647459L41.53846153846154,542.8171979618478L45,536.7014546803413L48.46153846153847,530.403939370624L51.92307692307693,534.8834473370196L55.38461538461539,511.5089099963287L58.84615384615385,525.5813878912263L62.307692307692314,522.9678002234884L65.76923076923077,524.7941301713125L69.23076923076924,512.933693446055L72.6923076923077,524.5314423020571L76.15384615384616,519.1219995751611L79.61538461538461,521.23511060692L83.07692307692308,504.71172109552106L86.53846153846155,517.4463401210787L90,514.5305123273299L93.46153846153847,516.444753896417L96.92307692307693,504.6073977936405L100.38461538461539,516.0732815331529L103.84615384615385,512.8414137112964L107.3076923076923,513.3938690516829L110.76923076923077,507.88291818584526L114.23076923076923,509.62944049024924L117.6923076923077,507.2436434324947L121.15384615384615,509.1462038790185L124.61538461538463,499.77565199879166L128.07692307692307,508.726496366769L131.53846153846155,506.0988507894983L135,507.0864835309866L138.46153846153848,499.4659126610116L141.9230769230769,505.3605179555234L145.3846153846154,503.74614367562805L148.84615384615384,504.51412382102257L152.30769230769232,500.60022248572795L155.76923076923077,505.77181208053685L159.23076923076923,510.6378221716178L162.69230769230768,508.1576440017323L166.15384615384616,504.7343394666116L169.6153846153846,507.96358409199814L173.0769230769231,508.99990899990894L176.53846153846155,507.9129049389272L180,504.1984056687334L183.46153846153845,513.801304181051L186.92307692307693,517.0648464163822L190.3846153846154,516.4133738601823L193.84615384615387,505.321156313684L197.3076923076923,513.9223738243476L200.76923076923077,506.3735040356248L204.23076923076923,507.2104491536719L207.6923076923077,506.13388957695065L211.15384615384616,518.5643158067517L214.6153846153846,506.8121212121212L218.07692307692307,507.8744269715081L221.53846153846155,505.72530065021004L225,507.51887928204L228.46153846153845,506.8334937439846L231.9230769230769,508.45314571224634L235.3846153846154,512.0262128739033L238.84615384615384,508.65700277126416L242.3076923076923,507.19696969696975L245.76923076923075,507.79127076876176L249.23076923076925,511.50647256863766L252.6923076923077,507.84262862083875L256.15384615384613,506.84434363481716L259.6153846153846,507.41164098578025L263.0769230769231,505.7962216282336L266.53846153846155,507.18211862932685L270,512.1020948711774L273.46153846153845,507.2391726188019L276.92307692307696,505.0640735094153L280.3846153846154,512.8287315756695L283.8461538461538,506.22036262203625L287.30769230769226,506.25439425439424L290.7692307692308,504.9296842105263L294.2307692307692,506.305722159183L297.6923076923077,506.30562153602534L301.15384615384613,506.0298739088264L304.61538461538464,504.43193212495174L308.0769230769231,505.797004496971L311.53846153846155,505.1973227021689L315,505.52869875222814L318.46153846153845,504.58394983442537L321.9230769230769,505.4657239471257L325.38461538461536,504.950921070324L328.8461538461538,505.7564286646652L332.3076923076923,503.86767499906864L335.7692307692308,504.9205797833707L339.2307692307692,504.6208413137547L342.6923076923077,505.07177695527344L346.1538461538462,503.8098182692638L349.61538461538464,504.7493914029413L353.0769230769231,504.5973473063698L356.53846153846155,504.47874461380155L360,502.8430271726926L363.46153846153845,504.5454545454545L366.9230769230769,504.1910040503091L370.38461538461536,504.47794994040527L373.84615384615387,502.89777654445174L377.3076923076923,504.15511826903685L380.7692307692308,503.9714295162197L384.2307692307692,504.1974988660662L387.69230769230774,516.007030661496L391.1538461538462,504.14263371911164L394.6153846153846,503.4741435335623L398.07692307692304,503.61957974007044L401.53846153846155,503.5585020605626L405,503.71724986812023L408.46153846153845,516.1154286402796L411.9230769230769,503.6568357315372L415.3846153846154,509.7291875626881L418.84615384615387,503.6712941640897L422.3076923076923,503.4196353254169L425.7692307692308,503.6338736902449L429.2307692307692,503.37459938415134L432.6923076923077,509.9319806317731L436.15384615384613,515.7380747031115L439.6153846153846,503.9340063730308L443.0769230769231,514.9545808460939L446.53846153846155,503.68049777520525L450,505.7412765364102L453.46153846153845,503.58988764044943L456.9230769230769,514.72061342687L460.38461538461536,505.16552740919445L463.8461538461538,504.82790605227416L467.3076923076923,511.7290926703261L470.7692307692308,505.6166014628338L474.2307692307692,511.61983989954484L477.6923076923077,508.83676400191473L481.15384615384613,503.10836223828824L484.6153846153846,508.03519061583575L488.07692307692304,509.05999847526107L491.5384615384615,505.27774515560776L495.00000000000006,503.9276485788114L498.4615384615385,501.74840085287843L501.92307692307696,505.6010775620159L505.3846153846154,502.7443823428767L508.8461538461538,503.13123388994734L512.3076923076923,501.7427385892116L515.7692307692307,502.69121192198116L519.2307692307692,507.1973602804702L522.6923076923077,503.62041635844867L526.1538461538462,501.73737373737373L529.6153846153846,502.61466458658344L533.0769230769231,510.36190116224134L536.5384615384615,507.471596379742L540,505.3350189633376L543.4615384615385,507.6470588235294L546.9230769230769,501.97702954746245L550.3846153846155,507.10637516075695L553.8461538461539,511.4875961621575L557.3076923076924,502.7445830597505L560.7692307692308,506.62159758050166L564.2307692307692,507.0607783121994L567.6923076923076,504.8686886550535L571.1538461538461,506.65180867478136L574.6153846153845,506.30397823869436L578.0769230769231,506.69454667112745L581.5384615384615,511.1055118110236L585,506.77764177886576L588.4615384615385,506.18406102905374L591.9230769230769,502.43243243243245L595.3846153846154,505.1186658114176L598.8461538461538,506.5156957676089L602.3076923076923,505.9751552795031L605.7692307692308,507.0631970260223L609.2307692307693,502.4761904761905L612.6923076923077,506.3268052025714L616.1538461538462,505.75146872908454L619.6153846153846,506.33340641672146L623.0769230769231,509.0270953250035L626.5384615384615,505.06121857567194L630,505.53543419364036L633.4615384615385,502.01448321263985L636.9230769230769,504.40883743911905L640.3846153846154,506.1235685387095L643.8461538461538,505.3784615384615L647.3076923076923,505.7502863688431L650.7692307692307,509.84823364366787L654.2307692307692,506.0406391793253L657.6923076923076,506.3918060417477L661.1538461538462,506.1823325189662L664.6153846153846,511.24059471498225L668.0769230769231,506.80760570427816L671.5384615384615,506.5118300937714L675,504.18897637795277L678.4615384615385,515.6711667215454L681.9230769230769,505.95177511208044L685.3846153846154,506.38409647185244L688.8461538461538,505.86319605396085L692.3076923076924,504.1227229146692L695.7692307692308,505.5389291559504L699.2307692307693,505.2336991232654L702.6923076923077,506.01744683277263L706.1538461538462,505.1325012822705L709.6153846153846,505.93172915500844L713.0769230769231,505.7501388117712L716.5384615384615,511.0093457943925L720,504.34667256245854L723.4615384615385,507.3278879813302L726.9230769230769,512.3391144461561L730.3846153846154,506.8403431680268L733.8461538461538,503.8373896763841L737.3076923076923,511.0847623713866L740.7692307692307,516.1859443631039L744.2307692307692,512.0319710737904L747.6923076923077,509.70389007160827L751.1538461538462,506.4162567695136L754.6153846153846,505.35895648710544L758.0769230769231,505.2200978212539L761.5384615384615,509.773034440975L765,505.88949371357L768.4615384615385,506.1167730260025L771.9230769230769,509.6985654621391L775.3846153846155,517.2388767473507L778.8461538461539,517.8865415027776L782.3076923076924,509.99030751608075L785.7692307692308,510.957318126836L789.2307692307692,515.1939312369999L792.6923076923076,508.78239693859797L796.1538461538461,510.687151781192L799.6153846153845,511.386224934612L803.0769230769231,505.60505085934756L806.5384615384615,524.1667830702612L810,509.14506160036507L813.4615384615385,514.1735954619628L816.9230769230769,518.2504036400999L820.3846153846154,513.2625564606416L823.8461538461538,546.0931217434751L827.3076923076923,526.3049929041414L830.7692307692308,510.1333957406974L834.2307692307693,510.6583602522689L837.6923076923077,513.5491013765361L841.1538461538462,510.06511061188746L844.6153846153846,525.1213683813357L848.0769230769231,518.904313169183L851.5384615384615,515.6424464192368L855,517.8634175894449L858.4615384615385,516.101353886028L861.9230769230769,517.1165029075596L865.3846153846154,525.8995791096094L868.8461538461538,524.9787145366319L872.3076923076923,521.154669894776L875.7692307692307,520.2926343316108L879.2307692307692,522.7838783998085L882.6923076923076,532.0408643168813L886.1538461538462,533.7451347116211" style="fill: none; stroke: #1f77b4; stroke-width: 2;"></path></g></g></g><g transform="translate(0,0)"><path class="background" d="M0,0h900v600h-900Z" style="fill: none;"></path><g><g class="mark-line role-mark marks"><path d="M6.923076923076923,591.62316861839L10.384615384615385,588.136851876409L13.846153846153847,576.8957259995647L17.30769230769231,582.2795296151561L20.76923076923077,575.0937818911215L24.230769230769234,575.8668466036887L27.692307692307693,575.4671903125511L31.153846153846157,568.8126210905065L34.61538461538462,557.0091558756787L38.07692307692308,561.3135052677592L41.53846153846154,565.1542926009324L45,559.771163779765L48.46153846153847,548.554320633228L51.92307692307693,555.2000279454016L55.38461538461539,525.037742540149L58.84615384615385,550.7843829703747L62.307692307692314,539.1974789544034L65.76923076923077,546.8546414946688L69.23076923076924,513.2859913918697L72.6923076923077,541.5940086716595L76.15384615384616,529.0859636609808L79.61538461538461,536.7452907452907L83.07692307692308,501.0366919044846L86.53846153846155,533.5011017954703L90,520.3385892116182L93.46153846153847,527.2146369468087L96.92307692307693,485.7428644411879L100.38461538461539,523.4421173018495L103.84615384615385,509.0634896697331L107.3076923076923,519.8935590394665L110.76923076923077,486.7519595184997L114.23076923076923,526.5140415700153L117.6923076923077,504.01941582219195L121.15384615384615,518.4270952927669L124.61538461538463,474.9874577380303L128.07692307692307,513.5667044321142L131.53846153846155,506.3788009299138L135,512.5715364605186L138.46153846153848,469.95139936316406L141.9230769230769,509.737957354279L145.3846153846154,493.88945324170896L148.84615384615384,509.4867180188611L152.30769230769232,463.98257013696264L155.76923076923077,510.82220660576246L159.23076923076923,495.01176470588234L162.69230769230768,509.9111521095305L166.15384615384616,471.16081758580793L169.6153846153846,509.61791831357044L173.0769230769231,498.6164122137405L176.53846153846155,508.95248096613284L180,477.61893817513214L183.46153846153845,510.931430836306L186.92307692307693,500.63043107854827L190.3846153846154,511.4785280561855L193.84615384615387,475.7635406994738L197.3076923076923,507.8232498758777L200.76923076923077,500.3333086438041L204.23076923076923,507.75142440704917L207.6923076923077,483.78661932047453L211.15384615384616,509.77206595538314L214.6153846153846,500.92145112442813L218.07692307692307,508.00254968998087L221.53846153846155,471.53834091265486L225,505.88104254845183L228.46153846153845,493.90488948425985L231.9230769230769,506.5910627893669L235.3846153846154,483.3133556242508L238.84615384615384,506.0205290169759L242.3076923076923,495.23758618846546L245.76923076923075,498.72425916624815L249.23076923076925,488.8269354492815L252.6923076923077,502.15535268016527L256.15384615384613,490.97063215530113L259.6153846153846,501.9845111326235L263.0769230769231,482.1945747501529L266.53846153846155,495.7945613435532L270,498.0050293378039L273.46153846153845,501.88392506222976L276.92307692307696,475.02712085050985L280.3846153846154,502.9198520345252L283.8461538461538,486.28552637760134L287.30769230769226,494.45740062984083L290.7692307692308,476.43333171182564L294.2307692307692,497.79157497642257L297.6923076923077,486.72367581365666L301.15384615384613,495.4878797177048L304.61538461538464,471.41552511415523L308.0769230769231,494.16323349292946L311.53846153846155,485.19685039370074L315,491.1960583042497L318.46153846153845,472.9817833173538L321.9230769230769,493.6366780677145L325.38461538461536,481.70857214575574L328.8461538461538,490.9077172968685L332.3076923076923,469.2096030275555L335.7692307692308,488.9916307193157L339.2307692307692,480.82519001085774L342.6923076923077,490.6329113924051L346.1538461538462,471.67662509523996L349.61538461538464,491.5904486732423L353.0769230769231,483.77042312526186L356.53846153846155,488.3813907611376L360,465.8948428842652L363.46153846153845,488.1455882819187L366.9230769230769,484.6591601706605L370.38461538461536,488.14654570830425L373.84615384615387,470.9109773811994L377.3076923076923,486.46918299092215L380.7692307692308,479.5163584637269L384.2307692307692,487.5967678873974L387.69230769230774,488.96307536671725L391.1538461538462,484.473310068502L394.6153846153846,475.432014240723L398.07692307692304,483.4471688017374L401.53846153846155,474.0327649615513L405,482.1800073773515L408.46153846153845,492.8132918497611L411.9230769230769,489.9475422576258L415.3846153846154,467.90722054776563L418.84615384615387,489.6337709655129L422.3076923076923,475.302354806858L425.7692307692308,488.58326429163213L429.2307692307692,469.0488791556407L432.6923076923077,488.7933335310341L436.15384615384613,490.9209584609659L439.6153846153846,490.48378883041926L443.0769230769231,485.7428446898155L446.53846153846155,489.4469357249626L450,479.2389912763867L453.46153846153845,488.25655217320525L456.9230769230769,486.66579940158704L460.38461538461536,488.5556780595369L463.8461538461538,477.0305437611286L467.3076923076923,494.29267443883765L470.7692307692308,464.97627448594716L474.2307692307692,490.3295547504967L477.6923076923077,475.23176204671273L481.15384615384613,486.7865932262979L484.6153846153846,484.44758872774435L488.07692307692304,488.3599480574176L491.5384615384615,477.886449659349L495.00000000000006,485.4558185128133L498.4615384615385,463.771638800381L501.92307692307696,489.3166189583128L505.3846153846154,479.47273562568466L508.8461538461538,483.97852348993285L512.3076923076923,470.0059347181009L515.7692307692307,482.62366586260447L519.2307692307692,474.8304996349223L522.6923076923077,482.2224374495561L526.1538461538462,470.00597812708793L529.6153846153846,482.6567525794728L533.0769230769231,486.8736335811106L536.5384615384615,484.3097913322632L540,462.30426479949074L543.4615384615385,484.53899601842454L546.9230769230769,476.21157024793393L550.3846153846155,482.72305551260246L553.8461538461539,481.18352349642237L557.3076923076924,481.21892542101045L560.7692307692308,475.1029149315883L564.2307692307692,481.0964421570821L567.6923076923076,470.6923076923077L571.1538461538461,476.43254283444907L574.6153846153845,468.81218757438705L578.0769230769231,480.0731025585896L581.5384615384615,466.1470971821523L585,476.95853527194396L588.4615384615385,474.4978829660189L591.9230769230769,478.2639467110741L595.3846153846154,465.9993205752463L598.8461538461538,478.62110919598496L602.3076923076923,471.3302167445814L605.7692307692308,476.15003538570414L609.2307692307693,461.21863799283153L612.6923076923077,475.34467323187107L616.1538461538462,469.7471736896198L619.6153846153846,479.07915841117085L623.0769230769231,471.54326494201604L626.5384615384615,474.25007197006045L630,472.9298935456028L633.4615384615385,476.8899917287014L636.9230769230769,460.6318822681897L640.3846153846154,475.4322111010009L643.8461538461538,472.2923588039867L647.3076923076923,474.8649132224011L650.7692307692307,476.35473150253625L654.2307692307692,477.47899159663865L657.6923076923076,470.470039468963L661.1538461538462,476.12563667232604L664.6153846153846,478.93596059113304L668.0769230769231,474.1481544049328L671.5384615384615,468.52052401746727L675,476.4519535374868L678.4615384615385,482.4029999234713L681.9230769230769,475.2523304403729L685.3846153846154,472.9308808038246L688.8461538461538,473.2159436529534L692.3076923076924,458.1560283687943L695.7692307692308,473.13235986811117L699.2307692307693,469.50027984328773L702.6923076923077,473.15429011158136L706.1538461538462,463.31882748994167L709.6153846153846,473.59001353587L713.0769230769231,474.672179562906L716.5384615384615,479.2985915492958L720,464.5460237946148L723.4615384615385,475.72972972972974L726.9230769230769,477.79702112919983L730.3846153846154,472.74260397313134L733.8461538461538,462.1243960426413L737.3076923076923,477.43077130892885L740.7692307692307,490.78638287724317L744.2307692307692,479.38682322243966L747.6923076923077,459.5333433689598L751.1538461538462,472.0581442738759L754.6153846153846,467.02853945159484L758.0769230769231,470.33186887461983L761.5384615384615,460.78953045229014L765,473.7387707619725L768.4615384615385,478.91652846876724L771.9230769230769,479.9831060697478L775.3846153846155,477.99890584159016L778.8461538461539,484.19306874070685L782.3076923076924,473.0794557992172L785.7692307692308,474.7700346315086L789.2307692307692,480.30393737048126L792.6923076923076,470.29186247835764L796.1538461538461,468.5959138048811L799.6153846153845,474.7688336071345L803.0769230769231,460.30625486633795L806.5384615384615,502.32717132190885L810,468.08961695976865L813.4615384615385,476.1424165965798L816.9230769230769,483.2307772944075L820.3846153846154,481.0860590663703L823.8461538461538,540.1242039058164L827.3076923076923,506.5275732286041L830.7692307692308,460.49891014773556L834.2307692307693,480.5409296585768L837.6923076923077,470.1679321620573L841.1538461538462,474.2032381763954L844.6153846153846,509.27156354769886L848.0769230769231,493.7798619713325L851.5384615384615,482.2302228276734L855,487.2656719175867L858.4615384615385,469.90163934426226L861.9230769230769,484.05610098176714L865.3846153846154,508.43161673137496L868.8461538461538,502.25204608044686L872.3076923076923,497.0302809193725L875.7692307692307,489.69195639998276L879.2307692307692,509.0971855296065L882.6923076923076,521.6235762068343L886.1538461538462,522.9939486516656" style="fill: none; stroke: #d62728; stroke-width: 2;"></path></g></g></g><g transform="translate(0,0)"><path class="background" d="M0,0h900v600h-900Z" style="fill: none;"></path><g><g class="mark-line role-mark marks"><path d="M6.923076923076923,579.3754838709677L10.384615384615385,557.4642223536368L13.846153846153847,540.0731090074046L17.30769230769231,521.6532036703004L20.76923076923077,495.6567196689174L24.230769230769234,501.3462704669497L27.692307692307693,433.6016673179627L31.153846153846157,456.13481342784536L34.61538461538462,429.34978154716015L38.07692307692308,421.0870453616673L41.53846153846154,397.63426432682456L45,406.8126296381655L48.46153846153847,348.8896049494103L51.92307692307693,345.30724025788777L55.38461538461539,305.4880380003475L58.84615384615385,380.7663190421012L62.307692307692314,352.49738524113883L65.76923076923077,378.15132950167373L69.23076923076924,336.80676782597027L72.6923076923077,359.57421643997634L76.15384615384616,301.3842542263396L79.61538461538461,297.19751230583313L83.07692307692308,246.93662247405578L86.53846153846155,414.27722888240066L90,401.03100586142807L93.46153846153847,417.8891433806688L96.92307692307693,398.46164580022486L100.38461538461539,381.42254786756064L103.84615384615385,348.75046624393883L107.3076923076923,353.410905344977L110.76923076923077,7.248194771881344L114.23076923076923,308.2393855962904L117.6923076923077,188.71946422060594L121.15384615384615,208.2931258568198L124.61538461538463,177.42675342416493L128.07692307692307,177.8710841397409L131.53846153846155,273.53689609667435L135,169.88779652888596L138.46153846153848,39.99550317588212L141.9230769230769,302.0090604687808L145.3846153846154,224.41693512779835L148.84615384615384,270.5229250908094L152.30769230769232,311.59450702763775L155.76923076923077,358.5924042326306L159.23076923076923,379.6426968309543L162.69230769230768,401.44045578872107L166.15384615384616,341.05015737501174L169.6153846153846,432.69269697913427L173.0769230769231,433.8152371254839L176.53846153846155,440.8684405025868L180,416.5401592105009L183.46153846153845,430.83784657667127L186.92307692307693,424.07573587304L190.3846153846154,429.53868160686613L193.84615384615387,383.020180414768L197.3076923076923,420.44316092371935L200.76923076923077,422.803421543817L204.23076923076923,412.316666473001L207.6923076923077,396.8125063445335L211.15384615384616,408.30029344203524L214.6153846153846,412.17285081691864L218.07692307692307,407.73615174105873L221.53846153846155,337.545508383251L225,425.7459771910639L228.46153846153845,408.80110243454294L231.9230769230769,425.7375776397516L235.3846153846154,396.13919067863327L238.84615384615384,415.44723325903675L242.3076923076923,413.4576948700866L245.76923076923075,403.7566909975669L249.23076923076925,329.5957498188843L252.6923076923077,419.64633217700316L256.15384615384613,408.2129410734612L259.6153846153846,424.41080068674887L263.0769230769231,393.25279642058166L266.53846153846155,408.98840206185565L270,397.520592395374L273.46153846153845,413.82653441718253L276.92307692307696,341.7793019971757L280.3846153846154,426.118067978533L283.8461538461538,418.9674900720199L287.30769230769226,421.49381356481183L290.7692307692308,410.0289425859864L294.2307692307692,427.75062581952557L297.6923076923077,416.5219548499132L301.15384615384613,421.86396799246876L304.61538461538464,372.0173695444174L308.0769230769231,419.4952429784082L311.53846153846155,411.6388582059182L315,412.1263683285122L318.46153846153845,393.56097560975616L321.9230769230769,411.83509191776346L325.38461538461536,400.6655010997687L328.8461538461538,405.2648613658431L332.3076923076923,315.62138393890297L335.7692307692308,412.04971701254027L339.2307692307692,404.6092116417067L342.6923076923077,413.68887950153123L346.1538461538462,388.66170021662174L349.61538461538464,408.7412113952398L353.0769230769231,405.2495840266223L356.53846153846155,405.22031823745414L360,325.67370490140127L363.46153846153845,411.4489311163895L366.9230769230769,399.23764145324594L370.38461538461536,417.18163672654697L373.84615384615387,397.95794639849873L377.3076923076923,414.0769397956966L380.7692307692308,408.93898855212944L384.2307692307692,418.3636363636364L387.69230769230774,343.66577737412723L391.1538461538462,418.8223238215356L394.6153846153846,414.7325070288678L398.07692307692304,418.3171150543789L401.53846153846155,392.949222089246L405,417.5864079287083L408.46153846153845,411.6230499302414L411.9230769230769,417.6524083537886L415.3846153846154,350.6613438507046L418.84615384615387,417.0732469155084L422.3076923076923,400.60878949131103L425.7692307692308,414.28976945797694L429.2307692307692,383.18213866039946L432.6923076923077,405.3641636498112L436.15384615384613,393.1550018321729L439.6153846153846,407.4364809909339L443.0769230769231,305.57380322467924L446.53846153846155,420.09121929794924L450,399.42884693839704L453.46153846153845,408.55778281331703L456.9230769230769,368.76871397171647L460.38461538461536,406.75019630603254L463.8461538461538,400.77941890298865L467.3076923076923,412.3672865323981L470.7692307692308,327.7664663314117L474.2307692307692,414.65984835126085L477.6923076923077,407.8607686729514L481.15384615384613,411.29861522899296L484.6153846153846,398.09425701776973L488.07692307692304,416.89757252812313L491.5384615384615,406.28169497340883L495.00000000000006,416.24185628550345L498.4615384615385,316.1072447233314L501.92307692307696,419.7434091674577L505.3846153846154,407.6421296893129L508.8461538461538,416.21092919413144L512.3076923076923,382.7369017676857L515.7692307692307,413.0273408127049L519.2307692307692,402.42112525873426L522.6923076923077,410.88657839390976L526.1538461538462,332.6892761587967L529.6153846153846,418.56418537057965L533.0769230769231,410.72625698324026L536.5384615384615,416.11761329208787L540,380.4034805027393L543.4615384615385,417.69052975438376L546.9230769230769,409.0342321667623L550.3846153846155,409.5055100310823L553.8461538461539,317.97431748545466L557.3076923076924,412.8785417794622L560.7692307692308,405.7498843484965L564.2307692307692,412.33820889372845L567.6923076923076,373.6911380232593L571.1538461538461,410.7348724039046L574.6153846153845,402.6486825221569L578.0769230769231,410.2466405851335L581.5384615384615,336.3123123123123L585,416.4931894114623L588.4615384615385,412.56890848952594L591.9230769230769,417.59146626742773L595.3846153846154,389.6809739624989L598.8461538461538,416.774312038936L602.3076923076923,405.4179118866287L605.7692307692308,422.5537770696023L609.2307692307693,343.05960421850926L612.6923076923077,420.9899292907649L616.1538461538462,409.3392706703574L619.6153846153846,420.36651599565505L623.0769230769231,417.5611472813655L626.5384615384615,417.62716582005424L630,408.7321808798585L633.4615384615385,417.2371921686336L636.9230769230769,341.4092037426007L640.3846153846154,417.94607533495133L643.8461538461538,408.04660678988796L647.3076923076923,419.8460894484335L650.7692307692307,381.5034619188922L654.2307692307692,417.7034957897423L657.6923076923076,400.97856798290957L661.1538461538462,413.3307748888676L664.6153846153846,316.82104791473284L668.0769230769231,416.17535778911L671.5384615384615,402.1110745974367L675,413.56486210418797L678.4615384615385,384.13429795603L681.9230769230769,409.026490609366L685.3846153846154,403.42303192378404L688.8461538461538,414.49350040988406L692.3076923076924,324.9283667621777L695.7692307692308,413.24653312788905L699.2307692307693,405.571791613723L702.6923076923077,409.5262306447886L706.1538461538462,385.2446890857487L709.6153846153846,417.97509474824034L713.0769230769231,413.958790004384L716.5384615384615,430.250569476082L720,322.0251863274222L723.4615384615385,418.99513104734274L726.9230769230769,434.35064325288755L730.3846153846154,413.6806863360536L733.8461538461538,385.6066147241215L737.3076923076923,430.3645541222659L740.7692307692307,466.7365051651389L744.2307692307692,440.19014693171994L747.6923076923077,336.8156818502327L751.1538461538462,412.2260990928123L754.6153846153846,400.46604387530175L758.0769230769231,407.0756234915527L761.5384615384615,396.8733606127374L765,419.47514322676034L768.4615384615385,410.53724171071605L771.9230769230769,416.2269031781227L775.3846153846155,365.0478011472276L778.8461538461539,444.98201025798056L782.3076923076924,409.985119047619L785.7692307692308,418.7672557812362L789.2307692307692,436.695201445064L792.6923076923076,414.72884649355234L796.1538461538461,410.9194888749888L799.6153846153845,424.34038350753013L803.0769230769231,330.65273824789665L806.5384615384615,475.0468956786927L810,410.41807322773303L813.4615384615385,428.02646944336317L816.9230769230769,442.5999717394376L820.3846153846154,432.293797118758L823.8461538461538,528.9841717599122L827.3076923076923,492.06670130851717L830.7692307692308,342.3971377459749L834.2307692307693,430.8895035667491L837.6923076923077,424.7767222679333L841.1538461538462,421.1720169594186L844.6153846153846,474.08449214825777L848.0769230769231,454.6258173891983L851.5384615384615,446.1033759298112L855,460.6861905577439L858.4615384615385,414.0328067125255L861.9230769230769,462.7992918787342L865.3846153846154,490.79631328353645L868.8461538461538,487.87363737486095L872.3076923076923,444.5434516523868L875.7692307692307,478.782312281034L879.2307692307692,468.34141115249224L882.6923076923076,509.3380738262051L886.1538461538462,492.60794756247435" style="fill: none; stroke: #2ca02c; stroke-width: 2;"></path></g></g></g></g><g class="mark-group role-legend"><g transform="translate(918,0)"><path class="background" d="M0,0h105v118h-105Z" style="pointer-events: none; fill: none;"></path><g><g class="mark-group role-legend-entry"><g transform="translate(0,16)"><path class="background" d="M0,0h0v0h0Z" style="pointer-events: none; fill: none;"></path><g><g class="mark-group role-scope"><g transform="translate(0,0)"><path class="background" d="M0,0h105v11h-105Z" style="pointer-events: none; fill: none; opacity: 1;"></path><g><g class="mark-symbol role-legend-symbol" style="pointer-events: none;"><path transform="translate(6,6)" d="M-5,0L5,0" style="fill: none; stroke: #1f77b4; stroke-width: 1.5; opacity: 1;"></path></g><g class="mark-text role-legend-label" style="pointer-events: none;"><text text-anchor="start" transform="translate(16,9)" style="font-family: sans-serif; font-size: 10px; fill: #000; opacity: 1;">Clang++ &amp; Eigen-3</text></g></g></g><g transform="translate(0,13)"><path class="background" d="M0,0h105v11h-105Z" style="pointer-events: none; fill: none; opacity: 1;"></path><g><g class="mark-symbol role-legend-symbol" style="pointer-events: none;"><path transform="translate(6,6)" d="M-5,0L5,0" style="fill: none; stroke: #aec7e8; stroke-width: 1.5; opacity: 1;"></path></g><g class="mark-text role-legend-label" style="pointer-events: none;"><text text-anchor="start" transform="translate(16,9)" style="font-family: sans-serif; font-size: 10px; fill: #000; opacity: 1;">Clang-Polly</text></g></g></g><g transform="translate(0,26)"><path class="background" d="M0,0h105v11h-105Z" style="pointer-events: none; fill: none; opacity: 1;"></path><g><g class="mark-symbol role-legend-symbol" style="pointer-events: none;"><path transform="translate(6,6)" d="M-5,0L5,0" style="fill: none; stroke: #ff7f0e; stroke-width: 1.5; opacity: 1;"></path></g><g class="mark-text role-legend-label" style="pointer-events: none;"><text text-anchor="start" transform="translate(16,9)" style="font-family: sans-serif; font-size: 10px; fill: #000; opacity: 1;">GFortran</text></g></g></g><g transform="translate(0,39)"><path class="background" d="M0,0h105v11h-105Z" style="pointer-events: none; fill: none; opacity: 1;"></path><g><g class="mark-symbol role-legend-symbol" style="pointer-events: none;"><path transform="translate(6,6)" d="M-5,0L5,0" style="fill: none; stroke: #ffbb78; stroke-width: 1.5; opacity: 1;"></path></g><g class="mark-text role-legend-label" style="pointer-events: none;"><text text-anchor="start" transform="translate(16,9)" style="font-family: sans-serif; font-size: 10px; fill: #000; opacity: 1;">Julia</text></g></g></g><g transform="translate(0,52)"><path class="background" d="M0,0h105v11h-105Z" style="pointer-events: none; fill: none; opacity: 1;"></path><g><g class="mark-symbol role-legend-symbol" style="pointer-events: none;"><path transform="translate(6,6)" d="M-5,0L5,0" style="fill: none; stroke: #2ca02c; stroke-width: 1.5; opacity: 1;"></path></g><g class="mark-text role-legend-label" style="pointer-events: none;"><text text-anchor="start" transform="translate(16,9)" style="font-family: sans-serif; font-size: 10px; fill: #000; opacity: 1;">LoopVectorization</text></g></g></g><g transform="translate(0,65)"><path class="background" d="M0,0h105v11h-105Z" style="pointer-events: none; fill: none; opacity: 1;"></path><g><g class="mark-symbol role-legend-symbol" style="pointer-events: none;"><path transform="translate(6,6)" d="M-5,0L5,0" style="fill: none; stroke: #98df8a; stroke-width: 1.5; opacity: 1;"></path></g><g class="mark-text role-legend-label" style="pointer-events: none;"><text text-anchor="start" transform="translate(16,9)" style="font-family: sans-serif; font-size: 10px; fill: #000; opacity: 1;">icc</text></g></g></g><g transform="translate(0,78)"><path class="background" d="M0,0h105v11h-105Z" style="pointer-events: none; fill: none; opacity: 1;"></path><g><g class="mark-symbol role-legend-symbol" style="pointer-events: none;"><path transform="translate(6,6)" d="M-5,0L5,0" style="fill: none; stroke: #d62728; stroke-width: 1.5; opacity: 1;"></path></g><g class="mark-text role-legend-label" style="pointer-events: none;"><text text-anchor="start" transform="translate(16,9)" style="font-family: sans-serif; font-size: 10px; fill: #000; opacity: 1;">icpc &amp; Eigen-3</text></g></g></g><g transform="translate(0,91)"><path class="background" d="M0,0h105v11h-105Z" style="pointer-events: none; fill: none; opacity: 1;"></path><g><g class="mark-symbol role-legend-symbol" style="pointer-events: none;"><path transform="translate(6,6)" d="M-5,0L5,0" style="fill: none; stroke: #ff9896; stroke-width: 1.5; opacity: 1;"></path></g><g class="mark-text role-legend-label" style="pointer-events: none;"><text text-anchor="start" transform="translate(16,9)" style="font-family: sans-serif; font-size: 10px; fill: #000; opacity: 1;">ifort</text></g></g></g></g></g></g></g><g class="mark-text role-legend-title" style="pointer-events: none;"><text text-anchor="start" transform="translate(0,9)" style="font-family: sans-serif; font-size: 11px; font-weight: bold; fill: #000; opacity: 1;">Method</text></g></g></g></g><g class="mark-group role-axis"><g transform="translate(0.5,600.5)"><path class="background" d="M0,0h0v0h0Z" style="pointer-events: none; fill: none;"></path><g><g class="mark-rule role-axis-tick" style="pointer-events: none;"><line transform="translate(0,0)" x2="0" y2="5" style="fill: none; stroke: #888; stroke-width: 1; opacity: 1;"></line><line transform="translate(35,0)" x2="0" y2="5" style="fill: none; stroke: #888; stroke-width: 1; opacity: 1;"></line><line transform="translate(69,0)" x2="0" y2="5" style="fill: none; stroke: #888; stroke-width: 1; opacity: 1;"></line><line transform="translate(104,0)" x2="0" y2="5" style="fill: none; stroke: #888; stroke-width: 1; opacity: 1;"></line><line transform="translate(138,0)" x2="0" y2="5" style="fill: none; stroke: #888; stroke-width: 1; opacity: 1;"></line><line transform="translate(173,0)" x2="0" y2="5" style="fill: none; stroke: #888; stroke-width: 1; opacity: 1;"></line><line transform="translate(208,0)" x2="0" y2="5" style="fill: none; stroke: #888; stroke-width: 1; opacity: 1;"></line><line transform="translate(242,0)" x2="0" y2="5" style="fill: none; stroke: #888; stroke-width: 1; opacity: 1;"></line><line transform="translate(277,0)" x2="0" y2="5" style="fill: none; stroke: #888; stroke-width: 1; opacity: 1;"></line><line transform="translate(312,0)" x2="0" y2="5" style="fill: none; stroke: #888; stroke-width: 1; opacity: 1;"></line><line transform="translate(346,0)" x2="0" y2="5" style="fill: none; stroke: #888; stroke-width: 1; opacity: 1;"></line><line transform="translate(381,0)" x2="0" y2="5" style="fill: none; stroke: #888; stroke-width: 1; opacity: 1;"></line><line transform="translate(415,0)" x2="0" y2="5" style="fill: none; stroke: #888; stroke-width: 1; opacity: 1;"></line><line transform="translate(450,0)" x2="0" y2="5" style="fill: none; stroke: #888; stroke-width: 1; opacity: 1;"></line><line transform="translate(485,0)" x2="0" y2="5" style="fill: none; stroke: #888; stroke-width: 1; opacity: 1;"></line><line transform="translate(519,0)" x2="0" y2="5" style="fill: none; stroke: #888; stroke-width: 1; opacity: 1;"></line><line transform="translate(554,0)" x2="0" y2="5" style="fill: none; stroke: #888; stroke-width: 1; opacity: 1;"></line><line transform="translate(588,0)" x2="0" y2="5" style="fill: none; stroke: #888; stroke-width: 1; opacity: 1;"></line><line transform="translate(623,0)" x2="0" y2="5" style="fill: none; stroke: #888; stroke-width: 1; opacity: 1;"></line><line transform="translate(658,0)" x2="0" y2="5" style="fill: none; stroke: #888; stroke-width: 1; opacity: 1;"></line><line transform="translate(692,0)" x2="0" y2="5" style="fill: none; stroke: #888; stroke-width: 1; opacity: 1;"></line><line transform="translate(727,0)" x2="0" y2="5" style="fill: none; stroke: #888; stroke-width: 1; opacity: 1;"></line><line transform="translate(762,0)" x2="0" y2="5" style="fill: none; stroke: #888; stroke-width: 1; opacity: 1;"></line><line transform="translate(796,0)" x2="0" y2="5" style="fill: none; stroke: #888; stroke-width: 1; opacity: 1;"></line><line transform="translate(831,0)" x2="0" y2="5" style="fill: none; stroke: #888; stroke-width: 1; opacity: 1;"></line><line transform="translate(865,0)" x2="0" y2="5" style="fill: none; stroke: #888; stroke-width: 1; opacity: 1;"></line><line transform="translate(900,0)" x2="0" y2="5" style="fill: none; stroke: #888; stroke-width: 1; opacity: 1;"></line></g><g class="mark-text role-axis-label" style="pointer-events: none;"><text text-anchor="start" transform="translate(0,15)" style="font-family: sans-serif; font-size: 10px; fill: #000; opacity: 1;">0</text><text text-anchor="middle" transform="translate(34.61538461538462,15)" style="font-family: sans-serif; font-size: 10px; fill: #000; opacity: 1;">10</text><text text-anchor="middle" transform="translate(69.23076923076924,15)" style="font-family: sans-serif; font-size: 10px; fill: #000; opacity: 1;">20</text><text text-anchor="middle" transform="translate(103.84615384615385,15)" style="font-family: sans-serif; font-size: 10px; fill: #000; opacity: 1;">30</text><text text-anchor="middle" transform="translate(138.46153846153848,15)" style="font-family: sans-serif; font-size: 10px; fill: #000; opacity: 1;">40</text><text text-anchor="middle" transform="translate(173.0769230769231,15)" style="font-family: sans-serif; font-size: 10px; fill: #000; opacity: 1;">50</text><text text-anchor="middle" transform="translate(207.6923076923077,15)" style="font-family: sans-serif; font-size: 10px; fill: #000; opacity: 1;">60</text><text text-anchor="middle" transform="translate(242.3076923076923,15)" style="font-family: sans-serif; font-size: 10px; fill: #000; opacity: 1;">70</text><text text-anchor="middle" transform="translate(276.92307692307696,15)" style="font-family: sans-serif; font-size: 10px; fill: #000; opacity: 1;">80</text><text text-anchor="middle" transform="translate(311.53846153846155,15)" style="font-family: sans-serif; font-size: 10px; fill: #000; opacity: 1;">90</text><text text-anchor="middle" transform="translate(346.1538461538462,15)" style="font-family: sans-serif; font-size: 10px; fill: #000; opacity: 1;">100</text><text text-anchor="middle" transform="translate(380.7692307692308,15)" style="font-family: sans-serif; font-size: 10px; fill: #000; opacity: 1;">110</text><text text-anchor="middle" transform="translate(415.3846153846154,15)" style="font-family: sans-serif; font-size: 10px; fill: #000; opacity: 1;">120</text><text text-anchor="middle" transform="translate(450,15)" style="font-family: sans-serif; font-size: 10px; fill: #000; opacity: 1;">130</text><text text-anchor="middle" transform="translate(484.6153846153846,15)" style="font-family: sans-serif; font-size: 10px; fill: #000; opacity: 1;">140</text><text text-anchor="middle" transform="translate(519.2307692307692,15)" style="font-family: sans-serif; font-size: 10px; fill: #000; opacity: 1;">150</text><text text-anchor="middle" transform="translate(553.8461538461539,15)" style="font-family: sans-serif; font-size: 10px; fill: #000; opacity: 1;">160</text><text text-anchor="middle" transform="translate(588.4615384615385,15)" style="font-family: sans-serif; font-size: 10px; fill: #000; opacity: 1;">170</text><text text-anchor="middle" transform="translate(623.0769230769231,15)" style="font-family: sans-serif; font-size: 10px; fill: #000; opacity: 1;">180</text><text text-anchor="middle" transform="translate(657.6923076923076,15)" style="font-family: sans-serif; font-size: 10px; fill: #000; opacity: 1;">190</text><text text-anchor="middle" transform="translate(692.3076923076924,15)" style="font-family: sans-serif; font-size: 10px; fill: #000; opacity: 1;">200</text><text text-anchor="middle" transform="translate(726.9230769230769,15)" style="font-family: sans-serif; font-size: 10px; fill: #000; opacity: 1;">210</text><text text-anchor="middle" transform="translate(761.5384615384615,15)" style="font-family: sans-serif; font-size: 10px; fill: #000; opacity: 1;">220</text><text text-anchor="middle" transform="translate(796.1538461538461,15)" style="font-family: sans-serif; font-size: 10px; fill: #000; opacity: 1;">230</text><text text-anchor="middle" transform="translate(830.7692307692308,15)" style="font-family: sans-serif; font-size: 10px; fill: #000; opacity: 1;">240</text><text text-anchor="middle" transform="translate(865.3846153846154,15)" style="font-family: sans-serif; font-size: 10px; fill: #000; opacity: 1;">250</text><text text-anchor="end" transform="translate(900,15)" style="font-family: sans-serif; font-size: 10px; fill: #000; opacity: 1;">260</text></g><g class="mark-rule role-axis-domain" style="pointer-events: none;"><line transform="translate(0,0)" x2="900" y2="0" style="fill: none; stroke: #888; stroke-width: 1; opacity: 1;"></line></g><g class="mark-text role-axis-title" style="pointer-events: none;"><text text-anchor="middle" transform="translate(450,30)" style="font-family: sans-serif; font-size: 11px; font-weight: bold; fill: #000; opacity: 1;">Size</text></g></g></g></g><g class="mark-group role-axis"><g transform="translate(0.5,0.5)"><path class="background" d="M0,0h0v0h0Z" style="pointer-events: none; fill: none;"></path><g><g class="mark-rule role-axis-tick" style="pointer-events: none;"><line transform="translate(0,600)" x2="-5" y2="0" style="fill: none; stroke: #888; stroke-width: 1; opacity: 1;"></line><line transform="translate(0,560)" x2="-5" y2="0" style="fill: none; stroke: #888; stroke-width: 1; opacity: 1;"></line><line transform="translate(0,520)" x2="-5" y2="0" style="fill: none; stroke: #888; stroke-width: 1; opacity: 1;"></line><line transform="translate(0,480)" x2="-5" y2="0" style="fill: none; stroke: #888; stroke-width: 1; opacity: 1;"></line><line transform="translate(0,440)" x2="-5" y2="0" style="fill: none; stroke: #888; stroke-width: 1; opacity: 1;"></line><line transform="translate(0,400)" x2="-5" y2="0" style="fill: none; stroke: #888; stroke-width: 1; opacity: 1;"></line><line transform="translate(0,360)" x2="-5" y2="0" style="fill: none; stroke: #888; stroke-width: 1; opacity: 1;"></line><line transform="translate(0,320)" x2="-5" y2="0" style="fill: none; stroke: #888; stroke-width: 1; opacity: 1;"></line><line transform="translate(0,280)" x2="-5" y2="0" style="fill: none; stroke: #888; stroke-width: 1; opacity: 1;"></line><line transform="translate(0,240)" x2="-5" y2="0" style="fill: none; stroke: #888; stroke-width: 1; opacity: 1;"></line><line transform="translate(0,200)" x2="-5" y2="0" style="fill: none; stroke: #888; stroke-width: 1; opacity: 1;"></line><line transform="translate(0,160)" x2="-5" y2="0" style="fill: none; stroke: #888; stroke-width: 1; opacity: 1;"></line><line transform="translate(0,120)" x2="-5" y2="0" style="fill: none; stroke: #888; stroke-width: 1; opacity: 1;"></line><line transform="translate(0,80)" x2="-5" y2="0" style="fill: none; stroke: #888; stroke-width: 1; opacity: 1;"></line><line transform="translate(0,40)" x2="-5" y2="0" style="fill: none; stroke: #888; stroke-width: 1; opacity: 1;"></line><line transform="translate(0,0)" x2="-5" y2="0" style="fill: none; stroke: #888; stroke-width: 1; opacity: 1;"></line></g><g class="mark-text role-axis-label" style="pointer-events: none;"><text text-anchor="end" transform="translate(-7,603)" style="font-family: sans-serif; font-size: 10px; fill: #000; opacity: 1;">0</text><text text-anchor="end" transform="translate(-7,563)" style="font-family: sans-serif; font-size: 10px; fill: #000; opacity: 1;">2</text><text text-anchor="end" transform="translate(-7,523)" style="font-family: sans-serif; font-size: 10px; fill: #000; opacity: 1;">4</text><text text-anchor="end" transform="translate(-7,483)" style="font-family: sans-serif; font-size: 10px; fill: #000; opacity: 1;">6</text><text text-anchor="end" transform="translate(-7,443.00000000000006)" style="font-family: sans-serif; font-size: 10px; fill: #000; opacity: 1;">8</text><text text-anchor="end" transform="translate(-7,403.00000000000006)" style="font-family: sans-serif; font-size: 10px; fill: #000; opacity: 1;">10</text><text text-anchor="end" transform="translate(-7,363)" style="font-family: sans-serif; font-size: 10px; fill: #000; opacity: 1;">12</text><text text-anchor="end" transform="translate(-7,323)" style="font-family: sans-serif; font-size: 10px; fill: #000; opacity: 1;">14</text><text text-anchor="end" transform="translate(-7,283)" style="font-family: sans-serif; font-size: 10px; fill: #000; opacity: 1;">16</text><text text-anchor="end" transform="translate(-7,243)" style="font-family: sans-serif; font-size: 10px; fill: #000; opacity: 1;">18</text><text text-anchor="end" transform="translate(-7,203.00000000000003)" style="font-family: sans-serif; font-size: 10px; fill: #000; opacity: 1;">20</text><text text-anchor="end" transform="translate(-7,163.00000000000003)" style="font-family: sans-serif; font-size: 10px; fill: #000; opacity: 1;">22</text><text text-anchor="end" transform="translate(-7,122.99999999999997)" style="font-family: sans-serif; font-size: 10px; fill: #000; opacity: 1;">24</text><text text-anchor="end" transform="translate(-7,82.99999999999999)" style="font-family: sans-serif; font-size: 10px; fill: #000; opacity: 1;">26</text><text text-anchor="end" transform="translate(-7,42.99999999999999)" style="font-family: sans-serif; font-size: 10px; fill: #000; opacity: 1;">28</text><text text-anchor="end" transform="translate(-7,3)" style="font-family: sans-serif; font-size: 10px; fill: #000; opacity: 1;">30</text></g><g class="mark-rule role-axis-domain" style="pointer-events: none;"><line transform="translate(0,600)" x2="0" y2="-600" style="fill: none; stroke: #888; stroke-width: 1; opacity: 1;"></line></g><g class="mark-text role-axis-title" style="pointer-events: none;"><text text-anchor="middle" transform="translate(-23,300) rotate(-90) translate(0,-2)" style="font-family: sans-serif; font-size: 11px; font-weight: bold; fill: #000; opacity: 1;">GFLOPS</text></g></g></g></g></g></g></g></g></svg>