<svg class="marks" width="886" height="527" viewBox="0 0 886 527" version="1.1" xmlns="http://www.w3.org/2000/svg" xmlns:xlink="http://www.w3.org/1999/xlink"><g transform="translate(42,10)"><g class="mark-group role-frame root"><g transform="translate(0,0)"><path class="background" d="M0.5,0.5h720v480h-720Z" style="fill: none; stroke: #ddd;"></path><g><g class="mark-group role-axis"><g transform="translate(0.5,480.5)"><path class="background" d="M0,0h0v0h0Z" style="pointer-events: none; fill: none;"></path><g><g class="mark-rule role-axis-grid" style="pointer-events: none;"><line transform="translate(0,-480)" x2="0" y2="480" style="fill: none; stroke: #ddd; stroke-width: 1; opacity: 1;"></line><line transform="translate(55,-480)" x2="0" y2="480" style="fill: none; stroke: #ddd; stroke-width: 1; opacity: 1;"></line><line transform="translate(111,-480)" x2="0" y2="480" style="fill: none; stroke: #ddd; stroke-width: 1; opacity: 1;"></line><line transform="translate(166,-480)" x2="0" y2="480" style="fill: none; stroke: #ddd; stroke-width: 1; opacity: 1;"></line><line transform="translate(222,-480)" x2="0" y2="480" style="fill: none; stroke: #ddd; stroke-width: 1; opacity: 1;"></line><line transform="translate(277,-480)" x2="0" y2="480" style="fill: none; stroke: #ddd; stroke-width: 1; opacity: 1;"></line><line transform="translate(332,-480)" x2="0" y2="480" style="fill: none; stroke: #ddd; stroke-width: 1; opacity: 1;"></line><line transform="translate(388,-480)" x2="0" y2="480" style="fill: none; stroke: #ddd; stroke-width: 1; opacity: 1;"></line><line transform="translate(443,-480)" x2="0" y2="480" style="fill: none; stroke: #ddd; stroke-width: 1; opacity: 1;"></line><line transform="translate(498,-480)" x2="0" y2="480" style="fill: none; stroke: #ddd; stroke-width: 1; opacity: 1;"></line><line transform="translate(554,-480)" x2="0" y2="480" style="fill: none; stroke: #ddd; stroke-width: 1; opacity: 1;"></line><line transform="translate(609,-480)" x2="0" y2="480" style="fill: none; stroke: #ddd; stroke-width: 1; opacity: 1;"></line><line transform="translate(665,-480)" x2="0" y2="480" style="fill: none; stroke: #ddd; stroke-width: 1; opacity: 1;"></line><line transform="translate(720,-480)" x2="0" y2="480" style="fill: none; stroke: #ddd; stroke-width: 1; opacity: 1;"></line></g></g></g></g><g class="mark-group role-axis"><g transform="translate(0.5,0.5)"><path class="background" d="M0,0h0v0h0Z" style="pointer-events: none; fill: none;"></path><g><g class="mark-rule role-axis-grid" style="pointer-events: none;"><line transform="translate(0,480)" x2="720" y2="0" style="fill: none; stroke: #ddd; stroke-width: 1; opacity: 1;"></line><line transform="translate(0,420)" x2="720" y2="0" style="fill: none; stroke: #ddd; stroke-width: 1; opacity: 1;"></line><line transform="translate(0,360)" x2="720" y2="0" style="fill: none; stroke: #ddd; stroke-width: 1; opacity: 1;"></line><line transform="translate(0,300)" x2="720" y2="0" style="fill: none; stroke: #ddd; stroke-width: 1; opacity: 1;"></line><line transform="translate(0,240)" x2="720" y2="0" style="fill: none; stroke: #ddd; stroke-width: 1; opacity: 1;"></line><line transform="translate(0,180)" x2="720" y2="0" style="fill: none; stroke: #ddd; stroke-width: 1; opacity: 1;"></line><line transform="translate(0,120)" x2="720" y2="0" style="fill: none; stroke: #ddd; stroke-width: 1; opacity: 1;"></line><line transform="translate(0,60)" x2="720" y2="0" style="fill: none; stroke: #ddd; stroke-width: 1; opacity: 1;"></line><line transform="translate(0,0)" x2="720" y2="0" style="fill: none; stroke: #ddd; stroke-width: 1; opacity: 1;"></line></g></g></g></g><g class="mark-group role-scope pathgroup"><g transform="translate(0,0)"><path class="background" d="M0,0h720v480h-720Z" style="fill: none;"></path><g><g class="mark-line role-mark marks"><path d="M5.538461538461538,396.63421418636995L8.307692307692308,363.4702308626974L11.076923076923077,341.3648202812988L13.846153846153847,335.3727008712488L16.615384615384617,315.68092364208866L19.384615384615387,312.9691497366441L22.153846153846153,307.73407672262283L24.923076923076923,303.96278142394283L27.692307692307693,312.7911328631063L30.461538461538463,315.33437763585977L33.23076923076923,309.9649219071508L36,307.99349432521296L38.769230769230774,305.2953817526121L41.53846153846154,302.50319670243266L44.30769230769231,302.1829701449554L47.07692307692308,301.63723585343627L49.84615384615385,301.6688359798955L52.61538461538462,304.496264432873L55.38461538461539,302.48696210979017L58.15384615384616,308.1794826484701L60.92307692307693,315.8442791580946L63.69230769230769,315.2013335157795L66.46153846153847,315.7509073103289L69.23076923076924,313.7266844309097L72,314.29660507353464L74.76923076923077,314.2084001282462L77.53846153846155,312.70367155956376L80.3076923076923,313.0911844725549L83.07692307692308,313.090098500581L85.84615384615385,312.5502883668589L88.61538461538461,172.45704300553345L91.38461538461539,189.8529797847204L94.15384615384616,192.74160099543758L96.92307692307692,202.81498961492326L99.6923076923077,197.12711410423202L102.46153846153845,206.34134064151678L105.23076923076924,206.34575989577922L108,213.64377182770667L110.76923076923077,214.91832720431023L113.53846153846153,225.84091576166716L116.30769230769232,227.6739974126779L119.07692307692308,231.16177115300306L121.84615384615385,238.83069427527408L124.61538461538461,242.2966507177033L127.38461538461539,244.38107347198252L130.15384615384616,248.4966649563879L132.92307692307693,246.12529002320184L135.69230769230768,253.11313474301588L138.46153846153848,254.23638778220453L141.23076923076923,258.2763185396781L144,260.4567180031864L146.76923076923077,266.4843021448554L149.53846153846155,274.97209917735717L152.3076923076923,278.3853371154266L155.0769230769231,277.91073124406455L157.84615384615384,286.8549172346641L160.6153846153846,286.84854186265284L163.3846153846154,288.1397099412857L166.15384615384616,287.3026861014966L168.92307692307693,293.7964989059081L171.6923076923077,295.9797592043273L174.46153846153845,311.4146341463414L177.23076923076923,173.29073482428112L180,177.8873239436619L182.76923076923077,175.29715762273898L185.53846153846152,180.90267520105039L188.30769230769232,180.28744809964863L191.07692307692307,187.34662963898L193.84615384615384,188.5360556038227L196.61538461538458,194.6200765016024L199.3846153846154,197.98092209856915L202.15384615384616,203.18466502182577L204.9230769230769,205.86325177223873L207.69230769230768,233.17749889739784L210.46153846153848,228.35118455106513L213.23076923076923,231.92259150189312L216,233.67395377888818L218.76923076923075,238.19218046311425L221.53846153846155,241.25268652133866L224.30769230769232,247.3045763082987L227.07692307692307,250.05138312099663L229.84615384615384,269.30588346397207L232.61538461538464,268.08564765740937L235.3846153846154,259.08256880733944L238.15384615384616,268.68670566875124L240.9230769230769,267.72643253234753L243.6923076923077,278.41647260693713L246.46153846153845,275.0408188132082L249.23076923076923,273.9437505615958L251.99999999999997,277.0892723180795L254.76923076923077,274.7381047580967L257.53846153846155,279.9987289885927L260.3076923076923,280.68818004277875L263.07692307692304,277.53330044400593L265.84615384615387,209.03038071153912L268.61538461538464,212.82564325626527L271.38461538461536,212.97247706422016L274.15384615384613,217.010214730717L276.92307692307696,215.4206948169401L279.6923076923077,219.51959544879895L282.46153846153845,221.74645908931285L285.2307692307692,226.12771560236996L288,220.3263095316731L290.7692307692308,228.94736842105263L293.53846153846155,229.70913660465257L296.3076923076923,240.1452910144426L299.0769230769231,237.38256762559038L301.84615384615387,241.44050935137287L304.6153846153846,241.82580708085436L307.38461538461536,245.54455445544554L310.1538461538462,242.88524590163934L312.9230769230769,249.49779315280924L315.6923076923077,251.47007553747818L318.46153846153845,255.10536667603253L321.2307692307692,253.01184668989544L324,258.1574718800214L326.7692307692308,260.6008918980502L329.53846153846155,265.7910746281095L332.3076923076923,262.15461554490514L335.0769230769231,266.77045299522536L337.84615384615387,267.1992436776176L340.6153846153846,270.0619408121129L343.3846153846154,268.47611827141776L346.1538461538462,271.2755383765875L348.9230769230769,270.8235294117647L351.6923076923077,272.63101945359836L354.46153846153845,219.87462666972985L357.2307692307692,217.37030995106034L360,216.51366683857657L362.7692307692308,218.05787862530372L365.53846153846155,216.13226452905806L368.30769230769226,217.4828150572832L371.07692307692304,220.79999999999998L373.84615384615387,222.25549836218997L376.61538461538464,218.11026081524284L379.3846153846154,224.5806282133073L382.15384615384613,223.98398398398402L384.9230769230769,233.17619701934257L387.6923076923077,232.24348917477252L390.46153846153845,234.53208009807926L393.23076923076917,234.31336963097397L396.00000000000006,234.2965098936064L398.7692307692308,235.04936943982796L401.53846153846155,238.24133993148075L404.3076923076923,238.2881276396058L407.0769230769231,241.59985389462153L409.8461538461538,241.83601836018354L412.6153846153846,248.15352697095437L415.38461538461536,250.65226563159226L418.1538461538462,253.59309494451293L420.92307692307696,253.97586458248963L423.6923076923077,259.5884003741815L426.46153846153845,259.1859389454209L429.2307692307692,259.2788680967594L432,257.9510426110607L434.7692307692307,261.0752371846731L437.5384615384615,261.51616176257426L440.3076923076923,261.5996566032337L443.0769230769231,232.90167865707437L445.84615384615387,229.59276742139372L448.61538461538464,229.23076923076923L451.38461538461536,231.2916731276167L454.15384615384613,229.30904037674665L456.9230769230769,232.6303906073606L459.6923076923077,233.05174077648277L462.4615384615385,235.84016244832836L465.2307692307693,230.5827232796486L468,238.57142857142858L470.7692307692308,236.39664804469274L473.53846153846155,244.56273764258552L476.3076923076923,241.4430785676109L479.07692307692304,244.16791799960828L481.8461538461538,244.69830639448773L484.61538461538464,246.5487620010106L487.3846153846154,245.12691631063086L490.1538461538462,249.13043478260872L492.9230769230769,249.3527176207999L495.6923076923077,251.25953972667577L498.46153846153845,250.72484166080218L501.2307692307692,253.9182156133828L503.99999999999994,258.2679611650485L506.76923076923083,259.8016348773842L509.53846153846155,257.54057292233966L512.3076923076924,263.3805476864967L515.0769230769231,263.78367177786987L517.8461538461538,266.92257184706295L520.6153846153846,263.87956814841095L523.3846153846154,268.21447879294243L526.1538461538461,269.25667828106856L528.9230769230769,269.0494223670965L531.6923076923077,238.48794264610035L534.4615384615385,239.26703814830688L537.2307692307693,236.94169299137977L540,238.47069355942915L542.7692307692307,237.55114855318925L545.5384615384615,239.88919667590025L548.3076923076923,240.4620294847763L551.0769230769231,244.32272390821612L553.8461538461539,239.43749064977806L556.6153846153846,246.476226993865L559.3846153846154,247.70429117688712L562.1538461538462,248.44322258981407L564.9230769230769,246.4556962025316L567.6923076923076,250.67607928319305L570.4615384615385,248.7004474980789L573.2307692307692,250.57193605683838L576,249.776247848537L578.7692307692308,252.27602905569006L581.5384615384615,255.4086589229144L584.3076923076923,256.041388518024L587.0769230769231,255.2687458526874L589.8461538461538,259.8768562115175L592.6153846153846,265.5594826581738L595.3846153846154,265.1988899167437L598.1538461538462,267.75744311535414L600.9230769230769,265.5494692304786L603.6923076923077,265.461354104254L606.4615384615385,268.3205799436166L609.2307692307692,267.5L612,269.01089449541286L614.7692307692307,268.7668894894041L617.5384615384615,277.2658707342645L620.3076923076924,245.79925650557615L623.0769230769231,253.84085096920057L625.8461538461538,249.1438857014287L628.6153846153846,270.1003751394099L631.3846153846154,250.36211699164346L634.1538461538462,260.9447891033861L636.9230769230769,252.57615752300777L639.6923076923076,254.6025515210991L642.4615384615385,248.38933123861892L645.2307692307693,260.4114784359792L648,261.14158734370335L650.7692307692308,258.9631007339998L653.5384615384615,258.61134017218063L656.3076923076923,262.3002701659591L659.0769230769231,261.19502500320556L661.8461538461538,262.34252466481155L664.6153846153846,267.1638404219435L667.3846153846154,264.4383527889857L670.1538461538462,264.0264430433984L672.9230769230769,274.74859368238856L675.6923076923077,270.7168071884937L678.4615384615385,281.42225639054396L681.2307692307692,284.4928274567636L684,275.51228197067906L686.7692307692308,276.7904349256842L689.5384615384615,282.04054591228294L692.3076923076924,283.72223959962463L695.0769230769231,280.3251519217109L697.8461538461538,285.0126156433978L700.6153846153846,285.3797037074427L703.3846153846154,290.30897642407376L706.1538461538461,283.3389400748124L708.9230769230769,272.737582694529" style="fill: none; stroke: #e45756; stroke-width: 2;"></path></g></g></g><g transform="translate(0,0)"><path class="background" d="M0,0h720v480h-720Z" style="fill: none;"></path><g><g class="mark-line role-mark marks"><path d="M5.538461538461538,377.1281464530892L8.307692307692308,331.06532767367224L11.076923076923077,302.45941738937074L13.846153846153847,293.78988326848247L16.615384615384617,281.33607725186005L19.384615384615387,267.71078976640706L22.153846153846153,262.2808757342284L24.923076923076923,260.14699810058625L27.692307692307693,278.23887587822014L30.461538461538463,278.85780731775L33.23076923076923,279.5009400102546L36,279.9878567091682L38.769230769230774,280.41722820167263L41.53846153846154,280.26051751452206L44.30769230769231,279.53871848572413L47.07692307692308,281.5793714746172L49.84615384615385,281.71176145775814L52.61538461538462,282.9359611639196L55.38461538461539,282.9631933183767L58.15384615384616,289.9119240328851L60.92307692307693,294.10747374922795L63.69230769230769,294.75625008783146L66.46153846153847,296.54539462008466L69.23076923076924,295.7330735509011L72,297.31911099369245L74.76923076923077,297.29803799439424L77.53846153846155,298.5178408051235L80.3076923076923,298.924203758327L83.07692307692308,299.4529387010801L85.84615384615385,299.26136674508945L88.61538461538461,132.5976987254682L91.38461538461539,145.04129764155635L94.15384615384616,151.41894247530502L96.92307692307692,153.4198033045709L99.6923076923077,155.27164579231768L102.46153846153845,159.3480597014925L105.23076923076924,165.32925254650658L108,168.29477741087547L110.76923076923077,169.47620523512998L113.53846153846153,181.13510837596212L116.30769230769232,186.7113604896888L119.07692307692308,192.44181380417334L121.84615384615385,196.80572109654352L124.61538461538461,203.5358132172537L127.38461538461539,210.50285660323905L130.15384615384616,219.5921508272412L132.92307692307693,221.1829436038514L135.69230769230768,232.56690792795825L138.46153846153848,236.5051324898544L141.23076923076923,242.4542808091364L144,246.19300106044537L146.76923076923077,252.9172176672838L149.53846153846155,258.8258657068387L152.3076923076923,262.0883202641354L155.0769230769231,261.86788154897494L157.84615384615384,272.2496857980729L160.6153846153846,275.6563087470972L163.3846153846154,278.2160764237082L166.15384615384616,275.7842529448233L168.92307692307693,285.56195553862995L171.6923076923077,284.7723065531285L174.46153846153845,288.4054910242872L177.23076923076923,125.37898700007106L180,145.58399376380407L182.76923076923077,148.43289177705574L185.53846153846152,156.84123418843836L188.30769230769232,163.56095093576127L191.07692307692307,170.50034709243337L193.84615384615384,174.74869485105944L196.61538461538458,180.20851433536052L199.3846153846154,182.3033354310887L202.15384615384616,190.9082800654081L204.9230769230769,193.8355771985105L207.69230769230768,198.26086956521738L210.46153846153848,203.4912718204489L213.23076923076923,207.53895912966772L216,211.11272727272726L218.76923076923075,215.61606693264127L221.53846153846155,221.01582014987508L224.30769230769232,222.7969827760074L227.07692307692307,226.6061663757999L229.84615384615384,249.29026920823134L232.61538461538464,232.37888804595207L235.3846153846154,235.9010748199937L238.15384615384616,237.62713008267252L240.9230769230769,240.88232423463575L243.6923076923077,243.413467589679L246.46153846153845,249.10089224433764L249.23076923076923,250.86330935251794L251.99999999999997,253.1384883383335L254.76923076923077,253.10771562065915L257.53846153846155,256.54190250136935L260.3076923076923,258.2678096364174L263.07692307692304,260.1084990958408L265.84615384615387,177.89733364874454L268.61538461538464,183.94939172749392L271.38461538461536,185.53525134366103L274.15384615384613,191.49042464612822L276.92307692307696,188.63383474139707L279.6923076923077,197.53231492361925L282.46153846153845,199.84L285.2307692307692,205.69338170289302L288,198.11560800221255L290.7692307692308,210.46185781006741L293.53846153846155,211.0286222456441L296.3076923076923,215.24088334500095L299.0769230769231,216.29196353567093L301.84615384615387,220.09333132620804L304.6153846153846,221.86804474850985L307.38461538461536,225.40531315774504L310.1538461538462,224.7815370826798L312.9230769230769,232.49927951583462L315.6923076923077,233.31639853231718L318.46153846153845,237.35160371066513L321.2307692307692,236.16241466043832L324,241.65731549417353L326.7692307692308,241.2581467837914L329.53846153846155,243.028522039758L332.3076923076923,239.7683717082586L335.0769230769231,251.28691778832183L337.84615384615387,251.81524425014257L340.6153846153846,253.9886391701654L343.3846153846154,252.17980647531942L346.1538461538462,257.07882838608214L348.9230769230769,255.91722421036255L351.6923076923077,257.7717019822283L354.46153846153845,190.24801123069722L357.2307692307692,182.1402563571238L360,182.60201408696662L362.7692307692308,184.31548573260662L365.53846153846155,184.02922169148633L368.30769230769226,185.98845202089635L371.07692307692304,188.40217610316336L373.84615384615387,189.20609780241537L376.61538461538464,189.33862003965035L379.3846153846154,195.1638418079096L382.15384615384613,196.40574948665295L384.9230769230769,200.10068320747934L387.6923076923077,201.5142252527627L390.46153846153845,204.67838044308624L393.23076923076917,206.1496965610249L396.00000000000006,210.29469548133594L398.7692307692308,214.7729437916799L401.53846153846155,215.45766947828798L404.3076923076923,216.8509246960253L407.0769230769231,219.86448784376248L409.8461538461538,222.533566841798L412.6153846153846,223.00498275201224L415.38461538461536,223.05161656267722L418.1538461538462,228.2873332114787L420.92307692307696,230.20408163265304L423.6923076923077,235.9185082872928L426.46153846153845,237.00712589073632L429.2307692307692,240.6533036377134L432,238.52107468572837L434.7692307692307,242.43256185155627L437.5384615384615,243.9464411557435L440.3076923076923,245.04271530824292L443.0769230769231,206.80512593901898L445.84615384615387,197.62540599061708L448.61538461538464,198.1606332829316L451.38461538461536,199.37363310296558L454.15384615384613,198.07605487063728L456.9230769230769,202.5392537565423L459.6923076923077,202.1780524469684L462.4615384615385,204.4684507733857L465.2307692307693,199.51592985922449L468,209.30276381909545L470.7692307692308,210L473.53846153846155,215.02702702702697L476.3076923076923,210.6539941163159L479.07692307692304,215.52203836579292L481.8461538461538,217.141212862384L484.61538461538464,219.97467285774584L487.3846153846154,221.08325252805093L490.1538461538462,225.64585575888054L492.9230769230769,225.91706539074963L495.6923076923077,229.19564089257912L498.46153846153845,227.84908094163174L501.2307692307692,232.0827845719661L503.99999999999994,230.84346362446234L506.76923076923083,233.7846566327463L509.53846153846155,231.6385967045662L512.3076923076924,242.73056369591447L515.0769230769231,243.0653950953678L517.8461538461538,245.83481349911193L520.6153846153846,243.04101367122374L523.3846153846154,248.57142857142858L526.1538461538461,248.17673675805165L528.9230769230769,249.40683294906722L531.6923076923077,209.1228070175439L534.4615384615385,206.11764705882348L537.2307692307693,206.957776975821L540,207.24353256021408L542.7692307692307,205.75081385025155L545.5384615384615,208.10223642172522L548.3076923076923,207.87107913669064L551.0769230769231,210.12374978809964L553.8461538461539,206.15803814713894L556.6153846153846,213.07182380978466L559.3846153846154,220.13941698352343L562.1538461538462,216.04716630371277L564.9230769230769,216.26235022072734L567.6923076923076,220.840748695919L570.4615384615385,221.1845632492034L573.2307692307692,223.6634252827942L576,225.7529973681645L578.7692307692308,228.38524746799158L581.5384615384615,231.555929352397L584.3076923076923,233.6558054153281L587.0769230769231,232.23045267489707L589.8461538461538,234.45142754534027L592.6153846153846,234.689652108233L595.3846153846154,238.11450149746085L598.1538461538462,248.9137222678718L600.9230769230769,242.12202480724105L603.6923076923077,245.2610013931L606.4615384615385,247.79790353026223L609.2307692307692,245.32861394899845L612,248.35694050991498L614.7692307692307,249.9000697188008L617.5384615384615,254.08359401500022L620.3076923076924,217.08920187793422L623.0769230769231,227.830399206546L625.8461538461538,218.28848361178422L628.6153846153846,242.86816081860178L631.3846153846154,225.19337915327992L634.1538461538462,225.88292055323254L636.9230769230769,225.89079314467912L639.6923076923076,224.07895260456044L642.4615384615385,216.6654487882109L645.2307692307693,231.49498632634456L648,229.86543345589627L650.7692307692308,228.35709154157368L653.5384615384615,229.2494489483319L656.3076923076923,236.83575226325618L659.0769230769231,234.3247912467607L661.8461538461538,237.90658413055712L664.6153846153846,246.30303030303028L667.3846153846154,240.8365512763558L670.1538461538462,238.96710728558253L672.9230769230769,249.76215901368798L675.6923076923077,249.9368204996632L678.4615384615385,260.47048110487174L681.2307692307692,264.21308079313405L684,253.65685429240054L686.7692307692308,256.11215179164907L689.5384615384615,264.5834414741759L692.3076923076924,263.003371660759L695.0769230769231,262.09003215434075L697.8461538461538,264.84434320425214L700.6153846153846,266.23866943866943L703.3846153846154,268.0851759958557L706.1538461538461,271.17639218404287L708.9230769230769,253.37198955133908" style="fill: none; stroke: #4c78a8; stroke-width: 2;"></path></g></g></g><g transform="translate(0,0)"><path class="background" d="M0,0h720v480h-720Z" style="fill: none;"></path><g><g class="mark-line role-mark marks"><path d="M5.538461538461538,408.2298942326881L8.307692307692308,373.4993330369053L11.076923076923077,346.24972079517534L13.846153846153847,328.1192815994578L16.615384615384617,309.78174535827026L19.384615384615387,301.95347346491815L22.153846153846153,303.18039646208337L24.923076923076923,309.0946083418108L27.692307692307693,300.2762268586541L30.461538461538463,298.2711791334339L33.23076923076923,301.8358746768185L36,309.5177028157234L38.769230769230774,309.90664910371686L41.53846153846154,310.02262694029963L44.30769230769231,202.34461962288034L47.07692307692308,223.90054492543345L49.84615384615385,236.83938601549966L52.61538461538462,241.59147818568874L55.38461538461539,245.8075479713942L58.15384615384616,245.77364680153084L60.92307692307693,249.92826199965347L63.69230769230769,254.1001395132537L66.46153846153847,164.1657449161916L69.23076923076924,186.25202162561803L72,192.28104415711147L74.76923076923077,203.88978316447307L77.53846153846155,207.47322998241967L80.3076923076923,221.30881879227888L83.07692307692308,223.75173949345947L85.84615384615385,234.03134371059522L88.61538461538461,137.18067922149547L91.38461538461539,166.18325349324778L94.15384615384616,173.74329795382425L96.92307692307692,180.1726121979287L99.6923076923077,180.28718333349775L102.46153846153845,195.36060733867563L105.23076923076924,197.52174684892597L108,198.28842386211986L110.76923076923077,126.97508896797149L113.53846153846153,152.09131403118033L116.30769230769232,153.40671683702118L119.07692307692308,162.57013246964866L121.84615384615385,165.6146183034982L124.61538461538461,178.12993251744254L127.38461538461539,182.36927907257575L130.15384615384616,187.90555978674792L132.92307692307693,107.13479623824448L135.69230769230768,145.67692210499712L138.46153846153848,148.65699347214053L141.23076923076923,153.77713458755426L144,158.63181420658816L146.76923076923077,168.77208880833703L149.53846153846155,175.74867679699506L152.3076923076923,180.17035775127766L155.0769230769231,108.87317120434061L157.84615384615384,142.911037471323L160.6153846153846,145.2209359204304L163.3846153846154,152.57592107291507L166.15384615384616,151.7243441213843L168.92307692307693,160.55184064193705L171.6923076923077,167.3323994396638L174.46153846153845,171.21194715680642L177.23076923076923,112.53588516746412L180,148.10650506092446L182.76923076923077,147.49796353154957L185.53846153846152,152.89697259782218L188.30769230769232,168.72180451127818L191.07692307692307,175.82786670165308L193.84615384615384,178.43757900591592L196.61538461538458,183.3815075484876L199.3846153846154,149.72822956485314L202.15384615384616,161.6457492087744L204.9230769230769,163.14214727493788L207.69230769230768,172.36919694168202L210.46153846153848,182.94416243654825L213.23076923076923,195.0052724077328L216,198.24894157493642L218.76923076923075,203.03197532868043L221.53846153846155,155.48919595659828L224.30769230769232,180.53602738582282L227.07692307692307,182.93889427740058L229.84615384615384,189.95878433034164L232.61538461538464,191.66616811247383L235.3846153846154,204.1292554446104L238.15384615384616,204.16589861751152L240.9230769230769,208.38020621604636L243.6923076923077,159.4178510517339L246.46153846153845,185.90889968256394L249.23076923076923,186.65970227213367L251.99999999999997,193.30812584718552L254.76923076923077,188.14198912695875L257.53846153846155,201.6662244627222L260.3076923076923,202.9755057196406L263.07692307692304,206.9947614126367L265.84615384615387,160.44611260053617L268.61538461538464,181.66530452123314L271.38461538461536,182.11660856494058L274.15384615384613,187.85174776040753L276.92307692307696,181.824060731733L279.6923076923077,192.24420576596938L282.46153846153845,195.99008785762558L285.2307692307692,199.2223921115861L288,154.70033335697562L290.7692307692308,180.40376850605657L293.53846153846155,179.72012102874427L296.3076923076923,185.59747664685187L299.0769230769231,180.14009764381234L301.84615384615387,188.49204052098406L304.6153846153846,188.81388493259578L307.38461538461536,192.1759542107463L310.1538461538462,158.21780979478172L312.9230769230769,176.85449078310884L315.6923076923077,175.35243996901625L318.46153846153845,181.29684341471L321.2307692307692,177.07235414470824L324,187.50860673826688L326.7692307692308,187.6359850785113L329.53846153846155,191.8547166638641L332.3076923076923,158.96821741133115L335.0769230769231,178.73469387755102L337.84615384615387,179.13619782239425L340.6153846153846,182.90240893448473L343.3846153846154,178.3457671099578L346.1538461538462,186.6765993109228L348.9230769230769,188.7191311206844L351.6923076923077,192.33410015926378L354.46153846153845,180.90568771887453L357.2307692307692,183.44827586206895L360,181.83834257367954L362.7692307692308,185.459190915543L365.53846153846155,177.89632178963214L368.30769230769226,186.8850436868254L371.07692307692304,191.214580284688L373.84615384615387,191.93410257248394L376.61538461538464,164.12531346024795L379.3846153846154,183.58059774620278L382.15384615384613,181.55392045638712L384.9230769230769,186.4118682423938L387.6923076923077,180.2183060714398L390.46153846153845,190.01287415513355L393.23076923076917,190.07535496152923L396.00000000000006,191.80966450258524L398.7692307692308,173.59204304581775L401.53846153846155,182.72652806490615L404.3076923076923,182.05460434983803L407.0769230769231,184.8143820902273L409.8461538461538,183.5689481348717L412.6153846153846,195.67899925792426L415.38461538461536,196.1950506421635L418.1538461538462,199.0984191738909L420.92307692307696,171.22372206240317L423.6923076923077,188.90147225368062L426.46153846153845,188.69521000711893L429.2307692307692,192.65597147950086L432,189.40874035989714L434.7692307692307,199.52134175068306L437.5384615384615,200.2449888641425L440.3076923076923,202.74997729543185L443.0769230769231,192.0715350223547L445.84615384615387,192.5422483468038L448.61538461538464,192.848210240145L451.38461538461536,196.7970336364439L454.15384615384613,193.17021464534935L456.9230769230769,200.91364524072344L459.6923076923077,198.91508238276293L462.4615384615385,203.58620689655172L465.2307692307693,177.36720554272512L468,193.9395950879522L470.7692307692308,193.33716821431506L473.53846153846155,198.0958466453674L476.3076923076923,190.16883116883116L479.07692307692304,197.94799718903727L481.8461538461538,198.09905878722418L484.61538461538464,199.1916122169883L487.3846153846154,183.3849083551535L490.1538461538462,192.09869022235762L492.9230769230769,190.3015608425519L495.6923076923077,193.578783613601L498.46153846153845,190.37854655900435L501.2307692307692,200.21799136527707L503.99999999999994,199.8233438485804L506.76923076923083,202.88320416981006L509.53846153846155,182.10035005834305L512.3076923076924,196.77069757870908L515.0769230769231,197.0277966101695L517.8461538461538,200.39236479321318L520.6153846153846,196.16029822926373L523.3846153846154,204.84515675882767L526.1538461538461,205.19719820786267L528.9230769230769,207.22742205417464L531.6923076923077,199.05989385898414L534.4615384615385,201.74149996903446L537.2307692307693,202.29766929711877L540,204.15949960906954L542.7692307692307,199.13438807055832L545.5384615384615,205.8568583811643L548.3076923076923,205.74013921113692L551.0769230769231,207.84774061200068L553.8461538461539,187.83114287444738L556.6153846153846,202.99505372676103L559.3846153846154,201.97751285383356L562.1538461538462,204.18049619803517L564.9230769230769,199.79899497487432L567.6923076923076,208.46809194663237L570.4615384615385,207.07664408768466L573.2307692307692,209.2926752593524L576,194.7038556193601L578.7692307692308,204.323475529966L581.5384615384615,205.59219693450999L584.3076923076923,206.08868704393524L587.0769230769231,203.1108840061318L589.8461538461538,212.1332027424094L592.6153846153846,214.09747640146404L595.3846153846154,215.23375142531353L598.1538461538462,210.33656151117074L600.9230769230769,209.16412213740452L603.6923076923077,209.63473336479464L606.4615384615385,216.8052078117176L609.2307692307692,209.72622411636627L612,215.28888089564316L614.7692307692307,217.2409217568225L617.5384615384615,227.25977147193993L620.3076923076924,205.25325943760504L623.0769230769231,222.10726511981738L625.8461538461538,214.79343471330714L628.6153846153846,238.78825539847756L631.3846153846154,213.4535863183868L634.1538461538462,225.86248492159226L636.9230769230769,224.58777341559167L639.6923076923076,223.29235190803126L642.4615384615385,201.4206570753704L645.2307692307693,227.6125448443467L648,219.17786561264822L650.7692307692308,217.09409812751832L653.5384615384615,217.69579490386116L656.3076923076923,224.63442239492943L659.0769230769231,221.3572808912129L661.8461538461538,223.35570469798654L664.6153846153846,223.57913403280622L667.3846153846154,221.57595450852963L670.1538461538462,215.2968978581342L672.9230769230769,232.35668789808918L675.6923076923077,225.2013923421183L678.4615384615385,247.52169720347155L681.2307692307692,249.5790671217292L684,234.01666499347454L686.7692307692308,227.59903266460032L689.5384615384615,240.76095311299L692.3076923076924,233.94569159886282L695.0769230769231,233.6676078278648L697.8461538461538,236.4240687679083L700.6153846153846,245.5099434409779L703.3846153846154,241.26793009183893L706.1538461538461,245.74162679425837L708.9230769230769,241.32051514601844" style="fill: none; stroke: #f58518; stroke-width: 2;"></path></g></g></g><g transform="translate(0,0)"><path class="background" d="M0,0h720v480h-720Z" style="fill: none;"></path><g><g class="mark-line role-mark marks"><path d="M5.538461538461538,425.2650822669104L8.307692307692308,397.5064577234372L11.076923076923077,370.6648389307745L13.846153846153847,378.84095663481656L16.615384615384617,320.6260736781828L19.384615384615387,295.8090185676392L22.153846153846153,271.40400029234775L24.923076923076923,309.6612215337571L27.692307692307693,291.6217798594848L30.461538461538463,273.23375050464267L33.23076923076923,256.34464040056014L36,238.34164747277163L38.769230769230774,219.4277495696136L41.53846153846154,201.57726757953256L44.30769230769231,172.93459977236327L47.07692307692308,246.58531910815813L49.84615384615385,232.7964569633144L52.61538461538462,220.74109218579488L55.38461538461539,206.57715858659625L58.15384615384616,197.25058369624608L60.92307692307693,182.7558552345925L63.69230769230769,170.50549218047496L66.46153846153847,147.2518181492494L69.23076923076924,212.9041194274868L72,200.81939406591684L74.76923076923077,191.0751026064709L77.53846153846155,176.82313180623356L80.3076923076923,177.10809546092656L83.07692307692308,158.3818562007399L85.84615384615385,149.53098226738393L88.61538461538461,132.45111354316379L91.38461538461539,203.17327766179542L94.15384615384616,197.68248960275346L96.92307692307692,200.8342695257168L99.6923076923077,177.91712256550016L102.46153846153845,196.25947137798616L105.23076923076924,182.34863800058295L108,184.45602824953758L110.76923076923077,145.60626799452496L113.53846153846153,178.39991494050665L116.30769230769232,170.6164161030215L119.07692307692308,173.22835986041366L121.84615384615385,160.9847581606677L124.61538461538461,168.0851284175642L127.38461538461539,160.04604127271227L130.15384615384616,165.79502956835728L132.92307692307693,130.15065246410768L135.69230769230768,160.7817589576547L138.46153846153848,157.0972847924023L141.23076923076923,161.1803278688524L144,152.26241205034185L146.76923076923077,163.61123906034084L149.53846153846155,161.52980073273164L152.3076923076923,167.81147056339216L155.0769230769231,130.00000000000003L157.84615384615384,166.01503759398494L160.6153846153846,160.73394495412845L163.3846153846154,169.63249799079418L166.15384615384616,148.5783277995774L168.92307692307693,172.91562351985925L171.6923076923077,172.17836737374398L174.46153846153845,183.9647577092511L177.23076923076923,123.6830835117773L180,193.37898780691492L182.76923076923077,194.03319680965726L185.53846153846152,198.5627509523319L188.30769230769232,186.19912335629306L191.07692307692307,201.3014906234973L193.84615384615384,190.09451795841198L196.61538461538458,195.25297849295993L199.3846153846154,174.86211901306237L202.15384615384616,207.095144541117L204.9230769230769,200.37693599552156L207.69230769230768,202.6402342870016L210.46153846153848,189.12371134020614L213.23076923076923,198.8957746478873L216,196.66553133514986L218.76923076923075,198.03197422233237L221.53846153846155,185.5412967560062L224.30769230769232,194.7429116793256L227.07692307692307,193.06241948705937L229.84615384615384,194.4898191332044L232.61538461538464,187.34373220995104L235.3846153846154,195.00974658869393L238.15384615384616,191.87291909021621L240.9230769230769,193.76095338240447L243.6923076923077,181.8037598159752L246.46153846153845,193.97113524773093L249.23076923076923,189.78886756238003L251.99999999999997,192.65212727922776L254.76923076923077,185.37824168729148L257.53846153846155,192.25673729685252L260.3076923076923,189.4163107585926L263.07692307692304,190.11191311833647L265.84615384615387,165.6377254984703L268.61538461538464,178.2222222222222L271.38461538461536,172.1323505106931L274.15384615384613,175.95956364567007L276.92307692307696,161.30423349986853L279.6923076923077,171.86440677966098L282.46153846153845,166.74428510577874L285.2307692307692,171.69875967929826L288,153.44962620149522L290.7692307692308,170.23921542641312L293.53846153846155,166.33436491736347L296.3076923076923,169.61309714139537L299.0769230769231,162.1242124212421L301.84615384615387,167.89587852494577L304.6153846153846,164.81607817829808L307.38461538461536,168.476821192053L310.1538461538462,159.78795180722892L312.9230769230769,169.22484850225445L315.6923076923077,165.95668230362307L318.46153846153845,169.91767554479418L321.2307692307692,165.0232078390923L324,171.49560845411375L326.7692307692308,171.71398078975452L329.53846153846155,173.4982858846326L332.3076923076923,160.63540552924997L335.0769230769231,174.65827803154357L337.84615384615387,174.03262347077475L340.6153846153846,175.1022856000533L343.3846153846154,171.358024691358L346.1538461538462,177.7740821286939L348.9230769230769,175.96250672915548L351.6923076923077,177.46898263027293L354.46153846153845,172.72377644066745L357.2307692307692,179.3995160278433L360,177.46854182087338L362.7692307692308,179.29571341622471L365.53846153846155,174.61629895920908L368.30769230769226,179.8610623815873L371.07692307692304,179.85482198409952L373.84615384615387,182.1897810218978L376.61538461538464,172.8052759935424L379.3846153846154,183.44498545799155L382.15384615384613,181.79556937427125L384.9230769230769,185.11428210632656L387.6923076923077,183.62832596546838L390.46153846153845,185.4384961176951L393.23076923076917,184.83081644189616L396.00000000000006,185.61829878484627L398.7692307692308,186.35205875459013L401.53846153846155,186.459191926973L404.3076923076923,185.27102803738316L407.0769230769231,186.22055513878468L409.8461538461538,184.0882659907559L412.6153846153846,186.4682061945934L415.38461538461536,184.4045676998368L418.1538461538462,186.24573378839588L420.92307692307696,178.6263498920086L423.6923076923077,186.7275178923348L426.46153846153845,184.76190476190476L429.2307692307692,187.20484359233095L432,182.73692727824414L434.7692307692307,187.7922842838912L437.5384615384615,186.34716540035063L440.3076923076923,187.22163613695213L443.0769230769231,189.0087545890991L445.84615384615387,186.50412603150787L448.61538461538464,185.39977686872442L451.38461538461536,186.40307523338825L454.15384615384613,182.20102714600145L456.9230769230769,185.32544378698225L459.6923076923077,183.56086259133838L462.4615384615385,186.52719665271965L465.2307692307693,178.2249778565102L468,187.80574624968216L470.7692307692308,184.14723093885164L473.53846153846155,188.1419002728851L476.3076923076923,184.45952656844892L479.07692307692304,186.10690749328774L481.8461538461538,185.2274927395934L484.61538461538464,186.82953914491944L487.3846153846154,184.88355569590271L490.1538461538462,186.55696988512884L492.9230769230769,186.43120393120392L495.6923076923077,187.57827862653153L498.46153846153845,184.69068660774977L501.2307692307692,188.64976415094335L503.99999999999994,187.92750657702422L506.76923076923083,189.07624739002088L509.53846153846155,183.69940519367472L512.3076923076924,190.2315789473684L515.0769230769231,190.55201109570044L517.8461538461538,193.0708018771679L520.6153846153846,190.15974440894564L523.3846153846154,196.20126448893572L526.1538461538461,194.2332174027167L528.9230769230769,194.6887966804979L531.6923076923077,197.34553775743709L534.4615384615385,196.1513677427506L537.2307692307693,195.58173046801573L540,196.53893695920888L542.7692307692307,194.37307360374803L545.5384615384615,197.92696155236828L548.3076923076923,197.80125335720683L551.0769230769231,199.38895417156286L553.8461538461539,194.33647184224552L556.6153846153846,199.74460742018982L559.3846153846154,200.1910610713067L562.1538461538462,201.10001122460434L564.9230769230769,199.86156079044326L567.6923076923076,202.62725779967158L570.4615384615385,203.6273291925466L573.2307692307692,203.3349397590361L576,204.04570461278036L578.7692307692308,203.07692307692304L581.5384615384615,205.73373910352296L584.3076923076923,205.4442228019027L587.0769230769231,201.07273382405924L589.8461538461538,204.06598395802854L592.6153846153846,205.55920071577688L595.3846153846154,204.9765582588955L598.1538461538462,213.8456442530639L600.9230769230769,205.51037183888593L603.6923076923077,204.7903156074362L606.4615384615385,207.8350515463917L609.2307692307692,205.5045871559633L612,206.24197898260945L614.7692307692307,206.87600570088728L617.5384615384615,210.02567220645858L620.3076923076924,206.6440677966101L623.0769230769231,210.63170441001193L625.8461538461538,206.9475738490198L628.6153846153846,234.74964460590743L631.3846153846154,206.38805187999475L634.1538461538462,215.61449008617086L636.9230769230769,211.0894596988485L639.6923076923076,210.2755525730822L642.4615384615385,204.62557310239427L645.2307692307693,218.0009610764056L648,216.75350061834283L650.7692307692308,210.48232292552544L653.5384615384615,210.04705787716685L656.3076923076923,217.82942133395306L659.0769230769231,213.29269722189662L661.8461538461538,214.1161928306551L664.6153846153846,236.5741942271946L667.3846153846154,218.4663677130045L670.1538461538462,213.76895797177994L672.9230769230769,222.22737482791104L675.6923076923077,226.01331256196005L678.4615384615385,235.43908294728294L681.2307692307692,244.00815613166327L684,225.86087678052826L686.7692307692308,229.55252129241583L689.5384615384615,240.3003465537158L692.3076923076924,232.07427894112996L695.0769230769231,229.571414431357L697.8461538461538,232.07492141676656L700.6153846153846,236.95158850226926L703.3846153846154,237.42330139508755L706.1538461538461,233.3112895606991L708.9230769230769,244.13001912045885" style="fill: none; stroke: #54a24b; stroke-width: 2;"></path></g></g></g><g transform="translate(0,0)"><path class="background" d="M0,0h720v480h-720Z" style="fill: none;"></path><g><g class="mark-line role-mark marks"><path d="M5.538461538461538,394.26936829558997L8.307692307692308,356.4654358093602L11.076923076923077,326.25457346427885L13.846153846153847,307.69083053288523L16.615384615384617,291.74969030369004L19.384615384615387,282.6568876796593L22.153846153846153,273.12764261035545L24.923076923076923,268.61782162494785L27.692307692307693,282.36613847426975L30.461538461538463,281.9384902143522L33.23076923076923,278.9844005549477L36,278.38198945811536L38.769230769230774,274.13403777954693L41.53846153846154,277.6245851300684L44.30769230769231,275.9902914161524L47.07692307692308,276.35324816265944L49.84615384615385,276.80781430945063L52.61538461538462,275.93147950420126L55.38461538461539,276.5252404742376L58.15384615384616,276.58438959306204L60.92307692307693,279.8602449668411L63.69230769230769,282.71633222376454L66.46153846153847,284.58896027271527L69.23076923076924,287.1526584500513L72,288.7737320003669L74.76923076923077,288.35179995688725L77.53846153846155,290.2607478625977L80.3076923076923,292.81665702718334L83.07692307692308,292.7499226680914L85.84615384615385,291.97827976485326L88.61538461538461,252.84413218839447L91.38461538461539,314.1919967546579L94.15384615384616,297.52592519781786L96.92307692307692,275.0346003738808L99.6923076923077,257.57437070938215L102.46153846153845,261.9850527345114L105.23076923076924,262.3610997797177L108,260.9124988570906L110.76923076923077,283.34302325581393L113.53846153846153,268.96789430012126L116.30769230769232,274.79215983334905L119.07692307692308,275.23809523809524L121.84615384615385,284.86202365308804L124.61538461538461,281.18456859292456L127.38461538461539,284.91766298217914L130.15384615384616,285.1252519435646L132.92307692307693,298.78651685393254L135.69230769230768,289.51146818711936L138.46153846153848,292.6377663482733L141.23076923076923,293.3051742344245L144,299.3872535634318L146.76923076923077,296.6755631472189L149.53846153846155,298.7735177463643L152.3076923076923,299.06989393527334L155.0769230769231,308.4639498432602L157.84615384615384,302.4789936856759L160.6153846153846,303.8856325947105L163.3846153846154,303.88059701492534L166.15384615384616,308.6903007714311L168.92307692307693,306.3957837470248L171.6923076923077,308.6633361764347L174.46153846153845,308.6348431781512L177.23076923076923,188.8363954505687L180,287.8467153284671L182.76923076923077,266.74882786336235L185.53846153846152,266.5208902772355L188.30769230769232,198.81741909708353L191.07692307692307,240.04416026496153L193.84615384615384,205.737059935619L196.61538461538458,209.85467534373927L199.3846153846154,230.0449141347424L202.15384615384616,223.6435539151068L204.9230769230769,226.027710690225L207.69230769230768,227.76694255510938L210.46153846153848,234.6426491711635L213.23076923076923,233.36577946768057L216,237.57059136920614L218.76923076923075,238.55784153766564L221.53846153846155,250.69556563087468L224.30769230769232,243.6561770265762L227.07692307692307,248.72464691515347L229.84615384615384,250.7992603246353L232.61538461538464,255.83150734211986L235.3846153846154,255.55889596059743L238.15384615384616,257.80951707558506L240.9230769230769,258.6216867469879L243.6923076923077,267.22897800776195L246.46153846153845,264.5533141210374L249.23076923076923,265.92233009708735L251.99999999999997,268.3440678986336L254.76923076923077,272.39008608238487L257.53846153846155,271.29811996418977L260.3076923076923,274.9025487256372L263.07692307692304,275.08815727882666L265.84615384615387,201.10813990801157L268.61538461538464,260.42667864361107L271.38461538461536,243.46887244231607L274.15384615384613,244.89214328121906L276.92307692307696,198.7282432118821L279.6923076923077,225.53987297106562L282.46153846153845,204.63055416874687L285.2307692307692,208.61382555193632L288,220.69456812110417L290.7692307692308,212.16066005844266L293.53846153846155,216.26663221805967L296.3076923076923,217.8518541857021L299.0769230769231,224.38794897312948L301.84615384615387,223.3311529999405L304.6153846153846,226.5709590936608L307.38461538461536,228.26222684703433L310.1538461538462,242.94446352199293L312.9230769230769,234.97860199714688L315.6923076923077,238.08832574732438L318.46153846153845,240.22288127976992L321.2307692307692,245.61609532855542L324,245.53637135578828L326.7692307692308,249.2674243461591L329.53846153846155,250.24870952604408L332.3076923076923,255.55791710945803L335.0769230769231,253.125L337.84615384615387,255.33125389893948L340.6153846153846,256.5911217805265L343.3846153846154,259.98580553584105L346.1538461538462,259.4117647058824L348.9230769230769,261.4100326326174L351.6923076923077,262.9961435775734L354.46153846153845,202.70100062976698L357.2307692307692,248.98174721616348L360,235.06192568917297L362.7692307692308,235.51331395805516L365.53846153846155,196.10416736852738L368.30769230769226,218.44598450876478L371.07692307692304,200.34782608695653L373.84615384615387,201.59848365187173L376.61538461538464,210.17740053904018L379.3846153846154,206.2864956165044L382.15384615384613,208.78048780487805L384.9230769230769,210.3879310344828L387.6923076923077,215.46754020250143L390.46153846153845,212.44543429844094L393.23076923076917,215.88554086277904L396.00000000000006,217.3748538633223L398.7692307692308,228.25680699286647L401.53846153846155,222.06518428266827L404.3076923076923,224.677307425399L407.0769230769231,227.68338648883733L409.8461538461538,234.59148659927664L412.6153846153846,233.03867403314914L415.38461538461536,236.73498612727107L418.1538461538462,238.3364043169255L420.92307692307696,244.21764109496448L423.6923076923077,241.51821862348174L426.46153846153845,243.56582748658687L429.2307692307692,244.76692338873124L432,247.2600570161546L434.7692307692307,247.13447547524052L437.5384615384615,249.34659525631218L440.3076923076923,250.22429625169352L443.0769230769231,207.5995770179767L445.84615384615387,240.5874703587547L448.61538461538464,228.8332276474318L451.38461538461536,228.9756631974333L454.15384615384613,201.7719132893497L456.9230769230769,216.33884164928605L459.6923076923077,202.91854072963517L462.4615384615385,204.73877851361294L465.2307692307693,212.2141004480075L468,208.3643239836117L470.7692307692308,210.52143684820393L473.53846153846155,213.02269288956128L476.3076923076923,214.8147047901968L479.07692307692304,213.51235706381408L481.8461538461538,215.77265167401836L484.61538461538464,216.48937687152429L487.3846153846154,228.0800593031875L490.1538461538462,220.85132634176435L492.9230769230769,224.01178361006964L495.6923076923077,226.6151123926863L498.46153846153845,231.09186986693828L501.2307692307692,231.41240095585462L503.99999999999994,233.89655172413794L506.76923076923083,234.91963365075517L509.53846153846155,239.73178048350096L512.3076923076924,238.08776143886573L515.0769230769231,240L517.8461538461538,241.6811659699469L520.6153846153846,243.81543233811553L523.3846153846154,244.00876232201537L526.1538461538461,246.33578365616788L528.9230769230769,246.34597005415736L531.6923076923077,211.12105454105696L534.4615384615385,239.56333279820188L537.2307692307693,228.76307487962805L540,229.40443667358755L542.7692307692307,207.23612174015418L545.5384615384615,219.4243723208818L548.3076923076923,208.15270511125166L551.0769230769231,209.48173322005096L553.8461538461539,216.37903710585277L556.6153846153846,212.86693349416086L559.3846153846154,215.1746407620688L562.1538461538462,215.83669997873693L564.9230769230769,219.2090630359091L567.6923076923076,218.0679175065902L570.4615384615385,221.44611186903137L573.2307692307692,221.48303812668868L576,230.90058256135995L578.7692307692308,225.6020866541081L581.5384615384615,230.1902748414376L584.3076923076923,231.15479115479116L587.0769230769231,234.14156079854803L589.8461538461538,233.87688984881208L592.6153846153846,236.68958223162346L595.3846153846154,237.4934725848564L598.1538461538462,250.11321371643442L600.9230769230769,239.77656468198552L603.6923076923077,241.31983502062243L606.4615384615385,242.7477532931183L609.2307692307692,245.52666479122288L612,245.08498922671777L614.7692307692307,246.93004825611047L617.5384615384615,253.07438955139128L620.3076923076924,220.0275103163686L623.0769230769231,243.03832860859774L625.8461538461538,234.33998403830805L628.6153846153846,251.16834309715927L631.3846153846154,216.20310723759002L634.1538461538462,230.00395538327663L636.9230769230769,218.43692307692305L639.6923076923076,220.94501510574017L642.4615384615385,222.9067417066307L645.2307692307693,226.76265675801207L648,225.06258692628654L650.7692307692308,224.0307692307692L653.5384615384615,227.1619076320349L656.3076923076923,229.3716443884919L659.0769230769231,228.51374253923805L661.8461538461538,234.60087703661443L664.6153846153846,250.94581215761337L667.3846153846154,235.77904176989915L670.1538461538462,235.34877270836222L672.9230769230769,239.88660907127434L675.6923076923077,244.5375172323245L678.4615384615385,251.62524866588774L681.2307692307692,258.3285197458426L684,247.6029086310465L686.7692307692308,254.02982343792883L689.5384615384615,260.2747301232462L692.3076923076924,256.90210950462193L695.0769230769231,256.3498143673758L697.8461538461538,259.2509665878008L700.6153846153846,259.8618327148159L703.3846153846154,263.2994117155045L706.1538461538461,263.75752222160884L708.9230769230769,251.33059143833628" style="fill: none; stroke: #eeca3b; stroke-width: 2;"></path></g></g></g><g transform="translate(0,0)"><path class="background" d="M0,0h720v480h-720Z" style="fill: none;"></path><g><g class="mark-line role-mark marks"><path d="M5.538461538461538,421.2832653061224L8.307692307692308,387.34833344078396L11.076923076923077,350.2174974236589L13.846153846153847,361.03327903188267L16.615384615384617,284.94113075578L19.384615384615387,256.0976100291623L22.153846153846153,210.92207914277657L24.923076923076923,315.41767299811454L27.692307692307693,266.8968584748695L30.461538461538463,234.10512962816142L33.23076923076923,205.50824794928036L36,234.50020533880905L38.769230769230774,174.8348559381588L41.53846153846154,141.74732626849632L44.30769230769231,97.4161980574016L47.07692307692308,234.27667599464652L49.84615384615385,200.26062654361107L52.61538461538462,184.74662216374077L55.38461538461539,167.9671682626539L58.15384615384616,172.20667177914112L60.92307692307693,138.25086726310025L63.69230769230769,122.21975368268524L66.46153846153847,89.59723839221013L69.23076923076924,168.8150488036813L72,139.79607115366363L74.76923076923077,139.46401122769498L77.53846153846155,110.74006228246935L80.3076923076923,118.32956140239972L83.07692307692308,89.46093517323531L85.84615384615385,80.53691275167785L88.61538461538461,44.569457750526894L91.38461538461539,135.96298085479648L94.15384615384616,115.91298281220269L96.92307692307692,114.31446054127264L99.6923076923077,91.8645508298629L102.46153846153845,97.30539676720925L105.23076923076924,73.76649746192889L108,75.12548580462415L110.76923076923077,33.61369181950438L113.53846153846153,123.47557181377626L116.30769230769232,112.21390454999715L119.07692307692308,112.73342392057901L121.84615384615385,92.06004044752028L124.61538461538461,106.43807805098129L127.38461538461539,94.6847239884527L130.15384615384616,94.12286911435514L132.92307692307693,31.43789209535754L135.69230769230768,133.90242671913623L138.46153846153848,123.58083123798255L141.23076923076923,121.9589924919064L144,106.9373942470389L146.76923076923077,120.40970546729183L149.53846153846155,107.11185916389928L152.3076923076923,106.81165048543683L155.0769230769231,49.07326676979325L157.84615384615384,144.73421786529198L160.6153846153846,139.41776561333666L163.3846153846154,135.6978440590046L166.15384615384616,121.23509230517888L168.92307692307693,134.11172928892606L171.6923076923077,126.11551528878819L174.46153846153845,125.20055730732558L177.23076923076923,81.97735608355924L180,149.83068240123137L182.76923076923077,143.12849162011173L185.53846153846152,142.01780415430267L188.30769230769232,127.3064394888499L191.07692307692307,140.05865102639294L193.84615384615384,129.5063469675599L196.61538461538458,132.24489795918367L199.3846153846154,84.16718965733652L202.15384615384616,156.68827930174558L204.9230769230769,149.38775510204079L207.69230769230768,149.83105390185034L210.46153846153848,133.49999999999997L213.23076923076923,147.25761772853187L216,140.09704274988502L218.76923076923075,141.26054590570718L221.53846153846155,98.15800960279348L224.30769230769232,160.6304260718579L227.07692307692307,155.7331921651667L229.84615384615384,156.80659284058711L232.61538461538464,140.05995415270672L235.3846153846154,154.70951792336214L238.15384615384616,145.234899328859L240.9230769230769,149.06223734240544L243.6923076923077,113.32061730535807L246.46153846153845,167.59242707402285L249.23076923076923,162.19886822958767L251.99999999999997,163.45332808192197L254.76923076923077,148.1711307720276L257.53846153846155,161.25185157051163L260.3076923076923,152.14318494722346L263.07692307692304,155.03526093088854L265.84615384615387,151.47403623534598L268.61538461538464,171.32187795968068L271.38461538461536,167.7771445811404L274.15384615384613,167.88177339901478L276.92307692307696,154.9363014617138L279.6923076923077,164.8035185008127L282.46153846153845,159.7866463472712L285.2307692307692,163.35573776260685L288,135.9388230660671L290.7692307692308,178.266903340326L293.53846153846155,171.9429624599864L296.3076923076923,174.72797031259825L299.0769230769231,160.46015640147357L301.84615384615387,173.07938442785317L304.6153846153846,164.350475487028L307.38461538461536,168.82028665931637L310.1538461538462,153.12240568213258L312.9230769230769,181.54648132059074L315.6923076923077,176.78123996145192L318.46153846153845,177.73413897280966L321.2307692307692,166.468380017326L324,178.28446548898194L326.7692307692308,170.86561687815316L329.53846153846155,174.59989306718944L332.3076923076923,152.19365358083527L335.0769230769231,186.3652035539053L337.84615384615387,182.40951908775403L340.6153846153846,184.3708609271523L343.3846153846154,170.93748961483493L346.1538461538462,184.21609440045071L348.9230769230769,176.16455696202527L351.6923076923077,178.7211960214987L354.46153846153845,182.77211088443534L357.2307692307692,191.48387096774195L360,186.81739928841952L362.7692307692308,187.7099693629609L365.53846153846155,175.33175218372185L368.30769230769226,186.69409586504838L371.07692307692304,180.86812732534102L373.84615384615387,186.02441790646472L376.61538461538464,163.23026245882477L379.3846153846154,194.04190956357334L382.15384615384613,188.9471465902386L384.9230769230769,192.21295649673414L387.6923076923077,180.75795856493178L390.46153846153845,191.86760473297088L393.23076923076917,184.0900259067357L396.00000000000006,188.72971592471805L398.7692307692308,177.34256724110156L401.53846153846155,196.5364873912073L404.3076923076923,192.59457649815866L407.0769230769231,194.7065894437766L409.8461538461538,182.19004389091037L412.6153846153846,192.16999356084995L415.38461538461536,187.04893295968958L418.1538461538462,192.89064943187736L420.92307692307696,172.27919285478L423.6923076923077,200.11086913482475L426.46153846153845,193.81756419222702L429.2307692307692,197.82553729456382L432,183.30708661417316L434.7692307692307,195.988932353783L437.5384615384615,190.242214532872L440.3076923076923,194.31779898933183L443.0769230769231,207.74352651048088L445.84615384615387,203.14551083591329L448.61538461538464,198.36103457470446L451.38461538461536,201.0088711080188L454.15384615384613,188.95401989782198L456.9230769230769,199.62808154909152L459.6923076923077,194.6963979416809L462.4615384615385,198.19536285259898L465.2307692307693,176.88256227758006L468,208.47129243128302L470.7692307692308,201.88471657498204L473.53846153846155,207.77169301966833L476.3076923076923,192.08514755684564L479.07692307692304,203.3907649896623L481.8461538461538,197.57613232338844L484.61538461538464,200.0636219041127L487.3846153846154,189.13165266106438L490.1538461538462,207.37813671762328L492.9230769230769,202.23465310570288L495.6923076923077,206.33069082672708L498.46153846153845,192.95154185022025L501.2307692307692,205.17797552836478L503.99999999999994,200.1176470588235L506.76923076923083,203.56571115824042L509.53846153846155,182.77232045404935L512.3076923076924,210.54032889584963L515.0769230769231,206.55660377358492L517.8461538461538,209.23945831461393L520.6153846153846,198.01864956021421L523.3846153846154,208.70813397129183L526.1538461538461,203.46964693929385L528.9230769230769,207.04131001116482L531.6923076923077,217.811320754717L534.4615384615385,215.08018867924528L537.2307692307693,210.90693538826318L540,214.1987829614604L542.7692307692307,201.33036627172666L545.5384615384615,213.01848049281313L548.3076923076923,205.66057441253267L551.0769230769231,211.74567512918446L553.8461538461539,190.8087045141178L556.6153846153846,216.94849368318756L559.3846153846154,214.21626876957978L562.1538461538462,216.2292993630573L564.9230769230769,204.20312156517915L567.6923076923076,216.89839572192514L570.4615384615385,215.90834021469857L573.2307692307692,214.04437123590873L576,203.3579042265472L578.7692307692308,219.6411092985318L581.5384615384615,220.45980377800555L584.3076923076923,218.74038742334272L587.0769230769231,207.15407854984892L589.8461538461538,218.08465811147283L592.6153846153846,216.42048980760967L595.3846153846154,217.39220583384383L598.1538461538462,216.3408803262551L600.9230769230769,221.22623877467288L603.6923076923077,217.20000000000002L606.4615384615385,224.21094544971905L609.2307692307692,210.87319525808383L612,221.56358368816117L614.7692307692307,217.19442601194424L617.5384615384615,225.20785513899514L620.3076923076924,229.31609052474505L623.0769230769231,231.23323413102852L625.8461538461538,225.2098336230444L628.6153846153846,264.3200444506181L631.3846153846154,218.6350742532955L634.1538461538462,236.64561835823193L636.9230769230769,225.26130733578395L639.6923076923076,226.7695700110253L642.4615384615385,203.28640900947016L645.2307692307693,246.54272970561993L648,234.18886198547216L650.7692307692308,229.76688223793053L653.5384615384615,220.9256185586907L656.3076923076923,234.5163747143945L659.0769230769231,226.21356335514577L661.8461538461538,232.01931044421224L664.6153846153846,245.82205877391272L667.3846153846154,240.85289595079445L670.1538461538462,228.60277876736728L672.9230769230769,248.78200961913433L675.6923076923077,243.5596572181938L678.4615384615385,257.39612188365646L681.2307692307692,261.03126220006607L684,246.14640664270036L686.7692307692308,233.7799043062201L689.5384615384615,269.3876170068794L692.3076923076924,254.98879426266245L695.0769230769231,256.73794746595286L697.8461538461538,247.82933268594667L700.6153846153846,258.62318424527757L703.3846153846154,260.85544308794084L706.1538461538461,254.3063758679305L708.9230769230769,265.47252866692025" style="fill: none; stroke: #72b7b2; stroke-width: 2;"></path></g></g></g></g><g class="mark-group role-legend"><g transform="translate(738,0)"><path class="background" d="M0,0h101v92h-101Z" style="pointer-events: none; fill: none;"></path><g><g class="mark-group role-legend-entry"><g transform="translate(0,16)"><path class="background" d="M0,0h0v0h0Z" style="pointer-events: none; fill: none;"></path><g><g class="mark-group role-scope"><g transform="translate(0,0)"><path class="background" d="M0,0h101v11h-101Z" style="pointer-events: none; fill: none; opacity: 1;"></path><g><g class="mark-symbol role-legend-symbol" style="pointer-events: none;"><path transform="translate(6,6)" d="M-5,0L5,0" style="fill: none; stroke: #4c78a8; stroke-width: 1.5; opacity: 1;"></path></g><g class="mark-text role-legend-label" style="pointer-events: none;"><text text-anchor="start" transform="translate(16,9)" style="font-family: sans-serif; font-size: 10px; fill: #000; opacity: 1;">Clang-Polly</text></g></g></g><g transform="translate(0,13)"><path class="background" d="M0,0h101v11h-101Z" style="pointer-events: none; fill: none; opacity: 1;"></path><g><g class="mark-symbol role-legend-symbol" style="pointer-events: none;"><path transform="translate(6,6)" d="M-5,0L5,0" style="fill: none; stroke: #f58518; stroke-width: 1.5; opacity: 1;"></path></g><g class="mark-text role-legend-label" style="pointer-events: none;"><text text-anchor="start" transform="translate(16,9)" style="font-family: sans-serif; font-size: 10px; fill: #000; opacity: 1;">GFortran</text></g></g></g><g transform="translate(0,26)"><path class="background" d="M0,0h101v11h-101Z" style="pointer-events: none; fill: none; opacity: 1;"></path><g><g class="mark-symbol role-legend-symbol" style="pointer-events: none;"><path transform="translate(6,6)" d="M-5,0L5,0" style="fill: none; stroke: #e45756; stroke-width: 1.5; opacity: 1;"></path></g><g class="mark-text role-legend-label" style="pointer-events: none;"><text text-anchor="start" transform="translate(16,9)" style="font-family: sans-serif; font-size: 10px; fill: #000; opacity: 1;">Julia</text></g></g></g><g transform="translate(0,39)"><path class="background" d="M0,0h101v11h-101Z" style="pointer-events: none; fill: none; opacity: 1;"></path><g><g class="mark-symbol role-legend-symbol" style="pointer-events: none;"><path transform="translate(6,6)" d="M-5,0L5,0" style="fill: none; stroke: #72b7b2; stroke-width: 1.5; opacity: 1;"></path></g><g class="mark-text role-legend-label" style="pointer-events: none;"><text text-anchor="start" transform="translate(16,9)" style="font-family: sans-serif; font-size: 10px; fill: #000; opacity: 1;">LoopVectorization</text></g></g></g><g transform="translate(0,52)"><path class="background" d="M0,0h101v11h-101Z" style="pointer-events: none; fill: none; opacity: 1;"></path><g><g class="mark-symbol role-legend-symbol" style="pointer-events: none;"><path transform="translate(6,6)" d="M-5,0L5,0" style="fill: none; stroke: #54a24b; stroke-width: 1.5; opacity: 1;"></path></g><g class="mark-text role-legend-label" style="pointer-events: none;"><text text-anchor="start" transform="translate(16,9)" style="font-family: sans-serif; font-size: 10px; fill: #000; opacity: 1;">icc</text></g></g></g><g transform="translate(0,65)"><path class="background" d="M0,0h101v11h-101Z" style="pointer-events: none; fill: none; opacity: 1;"></path><g><g class="mark-symbol role-legend-symbol" style="pointer-events: none;"><path transform="translate(6,6)" d="M-5,0L5,0" style="fill: none; stroke: #eeca3b; stroke-width: 1.5; opacity: 1;"></path></g><g class="mark-text role-legend-label" style="pointer-events: none;"><text text-anchor="start" transform="translate(16,9)" style="font-family: sans-serif; font-size: 10px; fill: #000; opacity: 1;">ifort</text></g></g></g></g></g></g></g><g class="mark-text role-legend-title" style="pointer-events: none;"><text text-anchor="start" transform="translate(0,9)" style="font-family: sans-serif; font-size: 11px; font-weight: bold; fill: #000; opacity: 1;">Method</text></g></g></g></g><g class="mark-group role-axis"><g transform="translate(0.5,480.5)"><path class="background" d="M0,0h0v0h0Z" style="pointer-events: none; fill: none;"></path><g><g class="mark-rule role-axis-tick" style="pointer-events: none;"><line transform="translate(0,0)" x2="0" y2="5" style="fill: none; stroke: #888; stroke-width: 1; opacity: 1;"></line><line transform="translate(55,0)" x2="0" y2="5" style="fill: none; stroke: #888; stroke-width: 1; opacity: 1;"></line><line transform="translate(111,0)" x2="0" y2="5" style="fill: none; stroke: #888; stroke-width: 1; opacity: 1;"></line><line transform="translate(166,0)" x2="0" y2="5" style="fill: none; stroke: #888; stroke-width: 1; opacity: 1;"></line><line transform="translate(222,0)" x2="0" y2="5" style="fill: none; stroke: #888; stroke-width: 1; opacity: 1;"></line><line transform="translate(277,0)" x2="0" y2="5" style="fill: none; stroke: #888; stroke-width: 1; opacity: 1;"></line><line transform="translate(332,0)" x2="0" y2="5" style="fill: none; stroke: #888; stroke-width: 1; opacity: 1;"></line><line transform="translate(388,0)" x2="0" y2="5" style="fill: none; stroke: #888; stroke-width: 1; opacity: 1;"></line><line transform="translate(443,0)" x2="0" y2="5" style="fill: none; stroke: #888; stroke-width: 1; opacity: 1;"></line><line transform="translate(498,0)" x2="0" y2="5" style="fill: none; stroke: #888; stroke-width: 1; opacity: 1;"></line><line transform="translate(554,0)" x2="0" y2="5" style="fill: none; stroke: #888; stroke-width: 1; opacity: 1;"></line><line transform="translate(609,0)" x2="0" y2="5" style="fill: none; stroke: #888; stroke-width: 1; opacity: 1;"></line><line transform="translate(665,0)" x2="0" y2="5" style="fill: none; stroke: #888; stroke-width: 1; opacity: 1;"></line><line transform="translate(720,0)" x2="0" y2="5" style="fill: none; stroke: #888; stroke-width: 1; opacity: 1;"></line></g><g class="mark-text role-axis-label" style="pointer-events: none;"><text text-anchor="start" transform="translate(0,15)" style="font-family: sans-serif; font-size: 10px; fill: #000; opacity: 1;">0</text><text text-anchor="middle" transform="translate(55.38461538461539,15)" style="font-family: sans-serif; font-size: 10px; fill: #000; opacity: 1;">20</text><text text-anchor="middle" transform="translate(110.76923076923077,15)" style="font-family: sans-serif; font-size: 10px; fill: #000; opacity: 1;">40</text><text text-anchor="middle" transform="translate(166.15384615384616,15)" style="font-family: sans-serif; font-size: 10px; fill: #000; opacity: 1;">60</text><text text-anchor="middle" transform="translate(221.53846153846155,15)" style="font-family: sans-serif; font-size: 10px; fill: #000; opacity: 1;">80</text><text text-anchor="middle" transform="translate(276.92307692307696,15)" style="font-family: sans-serif; font-size: 10px; fill: #000; opacity: 1;">100</text><text text-anchor="middle" transform="translate(332.3076923076923,15)" style="font-family: sans-serif; font-size: 10px; fill: #000; opacity: 1;">120</text><text text-anchor="middle" transform="translate(387.6923076923077,15)" style="font-family: sans-serif; font-size: 10px; fill: #000; opacity: 1;">140</text><text text-anchor="middle" transform="translate(443.0769230769231,15)" style="font-family: sans-serif; font-size: 10px; fill: #000; opacity: 1;">160</text><text text-anchor="middle" transform="translate(498.46153846153845,15)" style="font-family: sans-serif; font-size: 10px; fill: #000; opacity: 1;">180</text><text text-anchor="middle" transform="translate(553.8461538461539,15)" style="font-family: sans-serif; font-size: 10px; fill: #000; opacity: 1;">200</text><text text-anchor="middle" transform="translate(609.2307692307692,15)" style="font-family: sans-serif; font-size: 10px; fill: #000; opacity: 1;">220</text><text text-anchor="middle" transform="translate(664.6153846153846,15)" style="font-family: sans-serif; font-size: 10px; fill: #000; opacity: 1;">240</text><text text-anchor="end" transform="translate(720,15)" style="font-family: sans-serif; font-size: 10px; fill: #000; opacity: 1;">260</text></g><g class="mark-rule role-axis-domain" style="pointer-events: none;"><line transform="translate(0,0)" x2="720" y2="0" style="fill: none; stroke: #888; stroke-width: 1; opacity: 1;"></line></g><g class="mark-text role-axis-title" style="pointer-events: none;"><text text-anchor="middle" transform="translate(360,30)" style="font-family: sans-serif; font-size: 11px; font-weight: bold; fill: #000; opacity: 1;">Size</text></g></g></g></g><g class="mark-group role-axis"><g transform="translate(0.5,0.5)"><path class="background" d="M0,0h0v0h0Z" style="pointer-events: none; fill: none;"></path><g><g class="mark-rule role-axis-tick" style="pointer-events: none;"><line transform="translate(0,480)" x2="-5" y2="0" style="fill: none; stroke: #888; stroke-width: 1; opacity: 1;"></line><line transform="translate(0,420)" x2="-5" y2="0" style="fill: none; stroke: #888; stroke-width: 1; opacity: 1;"></line><line transform="translate(0,360)" x2="-5" y2="0" style="fill: none; stroke: #888; stroke-width: 1; opacity: 1;"></line><line transform="translate(0,300)" x2="-5" y2="0" style="fill: none; stroke: #888; stroke-width: 1; opacity: 1;"></line><line transform="translate(0,240)" x2="-5" y2="0" style="fill: none; stroke: #888; stroke-width: 1; opacity: 1;"></line><line transform="translate(0,180)" x2="-5" y2="0" style="fill: none; stroke: #888; stroke-width: 1; opacity: 1;"></line><line transform="translate(0,120)" x2="-5" y2="0" style="fill: none; stroke: #888; stroke-width: 1; opacity: 1;"></line><line transform="translate(0,60)" x2="-5" y2="0" style="fill: none; stroke: #888; stroke-width: 1; opacity: 1;"></line><line transform="translate(0,0)" x2="-5" y2="0" style="fill: none; stroke: #888; stroke-width: 1; opacity: 1;"></line></g><g class="mark-text role-axis-label" style="pointer-events: none;"><text text-anchor="end" transform="translate(-7,483)" style="font-family: sans-serif; font-size: 10px; fill: #000; opacity: 1;">0.0</text><text text-anchor="end" transform="translate(-7,423)" style="font-family: sans-serif; font-size: 10px; fill: #000; opacity: 1;">0.5</text><text text-anchor="end" transform="translate(-7,363)" style="font-family: sans-serif; font-size: 10px; fill: #000; opacity: 1;">1.0</text><text text-anchor="end" transform="translate(-7,303)" style="font-family: sans-serif; font-size: 10px; fill: #000; opacity: 1;">1.5</text><text text-anchor="end" transform="translate(-7,243)" style="font-family: sans-serif; font-size: 10px; fill: #000; opacity: 1;">2.0</text><text text-anchor="end" transform="translate(-7,183)" style="font-family: sans-serif; font-size: 10px; fill: #000; opacity: 1;">2.5</text><text text-anchor="end" transform="translate(-7,123)" style="font-family: sans-serif; font-size: 10px; fill: #000; opacity: 1;">3.0</text><text text-anchor="end" transform="translate(-7,63)" style="font-family: sans-serif; font-size: 10px; fill: #000; opacity: 1;">3.5</text><text text-anchor="end" transform="translate(-7,3)" style="font-family: sans-serif; font-size: 10px; fill: #000; opacity: 1;">4.0</text></g><g class="mark-rule role-axis-domain" style="pointer-events: none;"><line transform="translate(0,480)" x2="0" y2="-480" style="fill: none; stroke: #888; stroke-width: 1; opacity: 1;"></line></g><g class="mark-text role-axis-title" style="pointer-events: none;"><text text-anchor="middle" transform="translate(-26,240) rotate(-90) translate(0,-2)" style="font-family: sans-serif; font-size: 11px; font-weight: bold; fill: #000; opacity: 1;">GFLOPS</text></g></g></g></g></g></g></g></g></svg>