<svg class="marks" width="883" height="527" viewBox="0 0 883 527" version="1.1" xmlns="http://www.w3.org/2000/svg" xmlns:xlink="http://www.w3.org/1999/xlink"><g transform="translate(39,10)"><g class="mark-group role-frame root"><g transform="translate(0,0)"><path class="background" d="M0.5,0.5h720v480h-720Z" style="fill: none; stroke: #ddd;"></path><g><g class="mark-group role-axis"><g transform="translate(0.5,480.5)"><path class="background" d="M0,0h0v0h0Z" style="pointer-events: none; fill: none;"></path><g><g class="mark-rule role-axis-grid" style="pointer-events: none;"><line transform="translate(0,-480)" x2="0" y2="480" style="fill: none; stroke: #ddd; stroke-width: 1; opacity: 1;"></line><line transform="translate(55,-480)" x2="0" y2="480" style="fill: none; stroke: #ddd; stroke-width: 1; opacity: 1;"></line><line transform="translate(111,-480)" x2="0" y2="480" style="fill: none; stroke: #ddd; stroke-width: 1; opacity: 1;"></line><line transform="translate(166,-480)" x2="0" y2="480" style="fill: none; stroke: #ddd; stroke-width: 1; opacity: 1;"></line><line transform="translate(222,-480)" x2="0" y2="480" style="fill: none; stroke: #ddd; stroke-width: 1; opacity: 1;"></line><line transform="translate(277,-480)" x2="0" y2="480" style="fill: none; stroke: #ddd; stroke-width: 1; opacity: 1;"></line><line transform="translate(332,-480)" x2="0" y2="480" style="fill: none; stroke: #ddd; stroke-width: 1; opacity: 1;"></line><line transform="translate(388,-480)" x2="0" y2="480" style="fill: none; stroke: #ddd; stroke-width: 1; opacity: 1;"></line><line transform="translate(443,-480)" x2="0" y2="480" style="fill: none; stroke: #ddd; stroke-width: 1; opacity: 1;"></line><line transform="translate(498,-480)" x2="0" y2="480" style="fill: none; stroke: #ddd; stroke-width: 1; opacity: 1;"></line><line transform="translate(554,-480)" x2="0" y2="480" style="fill: none; stroke: #ddd; stroke-width: 1; opacity: 1;"></line><line transform="translate(609,-480)" x2="0" y2="480" style="fill: none; stroke: #ddd; stroke-width: 1; opacity: 1;"></line><line transform="translate(665,-480)" x2="0" y2="480" style="fill: none; stroke: #ddd; stroke-width: 1; opacity: 1;"></line><line transform="translate(720,-480)" x2="0" y2="480" style="fill: none; stroke: #ddd; stroke-width: 1; opacity: 1;"></line></g></g></g></g><g class="mark-group role-axis"><g transform="translate(0.5,0.5)"><path class="background" d="M0,0h0v0h0Z" style="pointer-events: none; fill: none;"></path><g><g class="mark-rule role-axis-grid" style="pointer-events: none;"><line transform="translate(0,480)" x2="720" y2="0" style="fill: none; stroke: #ddd; stroke-width: 1; opacity: 1;"></line><line transform="translate(0,440)" x2="720" y2="0" style="fill: none; stroke: #ddd; stroke-width: 1; opacity: 1;"></line><line transform="translate(0,400)" x2="720" y2="0" style="fill: none; stroke: #ddd; stroke-width: 1; opacity: 1;"></line><line transform="translate(0,360)" x2="720" y2="0" style="fill: none; stroke: #ddd; stroke-width: 1; opacity: 1;"></line><line transform="translate(0,320)" x2="720" y2="0" style="fill: none; stroke: #ddd; stroke-width: 1; opacity: 1;"></line><line transform="translate(0,280)" x2="720" y2="0" style="fill: none; stroke: #ddd; stroke-width: 1; opacity: 1;"></line><line transform="translate(0,240)" x2="720" y2="0" style="fill: none; stroke: #ddd; stroke-width: 1; opacity: 1;"></line><line transform="translate(0,200)" x2="720" y2="0" style="fill: none; stroke: #ddd; stroke-width: 1; opacity: 1;"></line><line transform="translate(0,160)" x2="720" y2="0" style="fill: none; stroke: #ddd; stroke-width: 1; opacity: 1;"></line><line transform="translate(0,120)" x2="720" y2="0" style="fill: none; stroke: #ddd; stroke-width: 1; opacity: 1;"></line><line transform="translate(0,80)" x2="720" y2="0" style="fill: none; stroke: #ddd; stroke-width: 1; opacity: 1;"></line><line transform="translate(0,40)" x2="720" y2="0" style="fill: none; stroke: #ddd; stroke-width: 1; opacity: 1;"></line><line transform="translate(0,0)" x2="720" y2="0" style="fill: none; stroke: #ddd; stroke-width: 1; opacity: 1;"></line></g></g></g></g><g class="mark-group role-scope pathgroup"><g transform="translate(0,0)"><path class="background" d="M0,0h720v480h-720Z" style="fill: none;"></path><g><g class="mark-line role-mark marks"><path d="M5.538461538461538,477.6726424719429L8.307692307692308,476.50921810099834L11.076923076923077,475.3452849438857L13.846153846153847,475.42961818077737L16.615384615384617,473.01894491401924L19.384615384615387,471.85424865180005L22.153846153846153,471.3686486486487L24.923076923076923,471.7789600137292L27.692307692307693,468.62029646522234L30.461538461538463,467.4751853964632L33.23076923076923,466.08756262252234L36,468.1244851258581L38.769230769230774,464.0695503456139L41.53846153846154,466.3014012010294L44.30769230769231,461.05812574139975L47.07692307692308,464.2716263978214L49.84615384615385,463.4089124913415L52.61538461538462,462.39879329349657L55.38461538461539,460.9314545020301L58.15384615384616,460.5742092457421L60.92307692307693,460.5030525030525L63.69230769230769,459.67548422800223L66.46153846153847,451.5914010378058L69.23076923076924,452.00757310146554L72,452.56538690279524L74.76923076923077,456.03202134756503L77.53846153846155,453.2944690001195L80.3076923076923,454.2923444179204L83.07692307692308,454.7408383865014L85.84615384615385,445.1672647948772L88.61538461538461,444.29487806582347L91.38461538461539,450.2908742028331L94.15384615384616,448.99063285355265L96.92307692307692,441.7284119701431L99.6923076923077,441.1799027552674L102.46153846153845,446.8769411896619L105.23076923076924,447.5494646680942L108,437.5145313139583L110.76923076923077,435.46817262776267L113.53846153846153,444.264451972462L116.30769230769232,441.1580961215143L119.07692307692308,435.94045174537985L121.84615384615385,432.997591651057L124.61538461538461,431.83268534656116L127.38461538461539,430.7424892703863L130.15384615384616,438.9271392571491L132.92307692307693,436.7848443843031L135.69230769230768,428.72324529785703L138.46153846153848,427.47022830449373L141.23076923076923,426.31366602940204L144,421.6489107519326L146.76923076923077,424.340414337389L149.53846153846155,423.3610089332633L152.3076923076923,422.61744527932046L155.0769230769231,435.4213284096013L157.84615384615384,431.46709367494L160.6153846153846,433.2033786859542L163.3846153846154,433.6073347463893L166.15384615384616,426.54752596894895L168.92307692307693,419.895841046526L171.6923076923077,416.8733023018555L174.46153846153845,410.2196917094848L177.23076923076923,412.19083007099727L180,413.4111759799833L182.76923076923077,412.4214171208721L185.53846153846152,420.14426523297493L188.30769230769232,423.87167546310667L191.07692307692307,424.37598544572467L193.84615384615384,409.5766129032258L196.61538461538458,407.4692598042352L199.3846153846154,404.4217722850381L202.15384615384616,410.77541314944716L204.9230769230769,408.8329414601797L207.69230769230768,420.9418501332807L210.46153846153848,403.985718759787L213.23076923076923,402.5196294662549L216,401.9853429376762L218.76923076923075,422.41944622132866L221.53846153846155,402.4336632460987L224.30769230769232,400.63520893415966L227.07692307692307,401.7301691673142L229.84615384615384,394.3668669638819L232.61538461538464,422.6397536777283L235.3846153846154,426.0076530612245L238.15384615384616,405.00153072381374L240.9230769230769,397.0815327682941L243.6923076923077,391.79008160703074L246.46153846153845,398.25882894282756L249.23076923076923,411.57563625965116L251.99999999999997,393.742846966639L254.76923076923077,391.6782300246498L257.53846153846155,409.0002874389192L260.3076923076923,393.5124171708441L263.07692307692304,388.7707481356748L265.84615384615387,412.32522339201984L268.61538461538464,408.2474379782054L271.38461538461536,388.4285797881678L274.15384615384613,387.4779351515861L276.92307692307696,406.307514450867L279.6923076923077,403.6100616990982L282.46153846153845,385.32806324110675L285.2307692307692,402.2523683213338L288,378.00565041149736L290.7692307692308,383.7022571937281L293.53846153846155,402.77530142491776L296.3076923076923,405.7370323592178L299.0769230769231,381.1779267663744L301.84615384615387,394.8350656991567L304.6153846153846,399.86102221815855L307.38461538461536,375.5971019614773L310.1538461538462,376.5276556352696L312.9230769230769,399.39987467549906L315.6923076923077,401.0540587519555L318.46153846153845,368.7550736051372L321.2307692307692,377.1925106950386L324,397.9611428571429L326.7692307692308,376.10112049456313L329.53846153846155,373.8851808373861L332.3076923076923,393.85557908013874L335.0769230769231,377.37933967781385L337.84615384615387,396.92197248098455L340.6153846153846,375.6609412390322L343.3846153846154,394.06922943120543L346.1538461538462,373.3860877934021L348.9230769230769,375.69527763362737L351.6923076923077,392.11255862428345L354.46153846153845,369.9565615736998L357.2307692307692,390.44070750196045L360,371.0611472998529L362.7692307692308,374.7248362720403L365.53846153846155,370.73972602739724L368.30769230769226,386.4873060648801L371.07692307692304,382.27339709853095L373.84615384615387,372.73161984459057L376.61538461538464,365.340521114106L379.3846153846154,388.36381951731374L382.15384615384613,366.51531085678937L384.9230769230769,381.54218152724684L387.6923076923077,381.8891820580475L390.46153846153845,364.0063947191996L393.23076923076917,380.378076161127L396.00000000000006,375.4800715497867L398.7692307692308,383.21042642034666L401.53846153846155,384.1632449919124L404.3076923076923,378.75300261096606L407.0769230769231,346.8880571623001L409.8461538461538,378.8277282086479L412.6153846153846,381.9059737255226L415.38461538461536,343.6612021857924L418.1538461538462,379.9818778835363L420.92307692307696,383.782641509434L423.6923076923077,361.90564668311805L426.46153846153845,375.1847612539506L429.2307692307692,380.8358784761292L432,359.5667618448434L434.7692307692307,380.53462669953086L437.5384615384615,358.708608314466L440.3076923076923,357.3753625991104L443.0769230769231,375.4759367057473L445.84615384615387,357.78862717106824L448.61538461538464,376.7223266792015L451.38461538461536,361.4924038505406L454.15384615384613,369.12205676466846L456.9230769230769,354.0330222541278L459.6923076923077,359.30024157892336L462.4615384615385,356.69406477320115L465.2307692307693,366.2536432000679L468,357.74370148440687L470.7692307692308,359.9787347155768L473.53846153846155,375.0327029005046L476.3076923076923,366.834069609017L479.07692307692304,354.8500612828544L481.8461538461538,352.82190524239786L484.61538461538464,369.6835443037974L487.3846153846154,354.029373456097L490.1538461538462,370.9082462253194L492.9230769230769,352.3168887288441L495.6923076923077,376.4443476366805L498.46153846153845,351.82269091559056L501.2307692307692,361.0059405940594L503.99999999999994,368.55515850144087L506.76923076923083,348.34508600063197L509.53846153846155,367.5551635540898L512.3076923076924,365.69478908188586L515.0769230769231,367.45695716620423L517.8461538461538,374.19378661459257L520.6153846153846,350.0118014578271L523.3846153846154,358.6061021321188L526.1538461538461,369.00879765395894L528.9230769230769,350.062924226254L531.6923076923077,346.00192695103794L534.4615384615385,345.7215455140799L537.2307692307693,359.94314783891883L540,350.49841640273377L542.7692307692307,358.15658279695725L545.5384615384615,316.9373183893732L548.3076923076923,368.3519285941983L551.0769230769231,343.9117710166073L553.8461538461539,357.51019466030624L556.6153846153846,343.9972826086956L559.3846153846154,352L562.1538461538462,360.79964591324875L564.9230769230769,358.8088663333084L567.6923076923076,341.5376790709502L570.4615384615385,349.6984996427721L573.2307692307692,359.8424852329906L576,342.0029975020816L578.7692307692308,359.6774310201425L581.5384615384615,310.24627546366673L584.3076923076923,341.23737206999004L587.0769230769231,337.85197963562916L589.8461538461538,348.15428238492916L592.6153846153846,357.5252543408707L595.3846153846154,341.43729526428604L598.1538461538462,345.19772860779324L600.9230769230769,358.7745266781411L603.6923076923077,343.74679374044L606.4615384615385,351.281104629698L609.2307692307692,350.2814814814814L612,328.1434977578475L614.7692307692307,357.4365376612568L617.5384615384615,355.3788959555852L620.3076923076924,329.0245305362883L623.0769230769231,346.8648950009292L625.8461538461538,359.90119500634216L628.6153846153846,344.8374911171784L631.3846153846154,352.65182271545973L634.1538461538462,329.9138803207896L636.9230769230769,357.4646944648953L639.6923076923076,321.2310877253514L642.4615384615385,351.09219858156024L645.2307692307693,333.0924629080119L648,320.7284841754581L650.7692307692308,331.80213692125045L653.5384615384615,357.2704406624636L656.3076923076923,342.81351125331787L659.0769230769231,356.0400444938821L661.8461538461538,317.32524665783967L664.6153846153846,349.28050908344454L667.3846153846154,328.01836169370796L670.1538461538462,356.16868089483154L672.9230769230769,341.7383845604003L675.6923076923077,355.60262862638245L678.4615384615385,314.56271186440677L681.2307692307692,315.50453172205437L684,311.95901639344265L686.7692307692308,314.1671701913394L689.5384615384615,325.35391090845314L692.3076923076924,320.11557909944617L695.0769230769231,309.18665926463683L697.8461538461538,296.718908310894L700.6153846153846,311.72754590984977L703.3846153846154,324.58055598218397L706.1538461538461,319.1728072260518L708.9230769230769,298.0854365468652" style="fill: none; stroke: #e45756; stroke-width: 2;"></path></g></g></g><g transform="translate(0,0)"><path class="background" d="M0,0h720v480h-720Z" style="fill: none;"></path><g><g class="mark-line role-mark marks"><path d="M5.538461538461538,463.78926038500504L8.307692307692308,461.7142857142857L11.076923076923077,453.5427862753204L13.846153846153847,451.9985999299965L16.615384615384617,446.4335664335664L19.384615384615387,446.0297239915074L22.153846153846153,443.5015682919875L24.923076923076923,441.3007256113948L27.692307692307693,439.4423320659062L30.461538461538463,437.6107899807322L33.23076923076923,436.0640732265446L36,434.7826086956522L38.769230769230774,433.39159384103203L41.53846153846154,432.23880597014926L44.30769230769231,431.6707570322824L47.07692307692308,432.1295318549806L49.84615384615385,432.6237868070406L52.61538461538462,433.15148713206963L55.38461538461539,434.72595949582217L58.15384615384616,436.0591700484357L60.92307692307693,436.64019728729966L63.69230769230769,437.376L66.46153846153847,437.97370727432076L69.23076923076924,438.43561472852093L72,438.66481002586033L74.76923076923077,438.88653901114606L77.53846153846155,439.0341418764302L80.3076923076923,439.1526260133944L83.07692307692308,439.3971210838273L85.84615384615385,439.53748162665363L88.61538461538461,319.9499843701156L91.38461538461539,326.86774941995355L94.15384615384616,354.1323461360481L96.92307692307692,352.0292504570384L99.6923076923077,355.4055807916937L102.46153846153845,365.6259659969088L105.23076923076924,377.9523329976502L108,376.87654933068916L110.76923076923077,380.43559427504664L113.53846153846153,384.21959410132865L116.30769230769232,391.9916098584164L119.07692307692308,390.88914819136517L121.84615384615385,396.5128205128205L124.61538461538461,401.8003913894325L127.38461538461539,404.99602162603287L130.15384615384616,407.0845384839367L132.92307692307693,412.15739676363955L135.69230769230768,410.5166784953868L138.46153846153848,411.91924354715053L141.23076923076923,413.1816393442623L144,412.23253159396654L146.76923076923077,415.6324916337085L149.53846153846155,416.8899948766742L152.3076923076923,417.89406689767344L155.0769230769231,418.9076996652319L157.84615384615384,419.7274352691875L160.6153846153846,420.7457453614843L163.3846153846154,421.8341668210162L166.15384615384616,426.0175794455713L168.92307692307693,424.9254777790343L171.6923076923077,426.746500107689L174.46153846153845,427.1843598906874L177.23076923076923,234.6717776712985L180,250.3180212014134L182.76923076923077,267.48239082310323L185.53846153846152,294.5007786814328L188.30769230769232,307.6299112801014L191.07692307692307,306.4150943396226L193.84615384615384,315.2650176678445L196.61538461538458,317.03848363009763L199.3846153846154,323.5710207965203L202.15384615384616,333.7987720836988L204.9230769230769,343.6680497925311L207.69230769230768,351.19372515311056L210.46153846153848,356.19404810436197L213.23076923076923,360.5079611650485L216,364.37800241120283L218.76923076923075,371.4242476354256L221.53846153846155,370.93142272262025L224.30769230769232,373.91150442477874L227.07692307692307,376.74743973530803L229.84615384615384,374.63330950679057L232.61538461538464,382.00102286841525L235.3846153846154,384.2618325456726L238.15384615384616,382.22513349946604L240.9230769230769,388.60421052631574L243.6923076923077,390.81594313277486L246.46153846153845,393.63403220905496L249.23076923076923,397.11632735451866L251.99999999999997,400.3100570926658L254.76923076923077,403.2033490319205L257.53846153846155,405.94539010632457L260.3076923076923,408.57540249595115L263.07692307692304,410.44930928450134L265.84615384615387,181.747572815534L268.61538461538464,208.24374015058655L271.38461538461536,214.5072807314595L274.15384615384613,231.6073388740787L276.92307692307696,243.348617068481L279.6923076923077,266.99247921889435L282.46153846153845,268.97644317887654L285.2307692307692,294.0135562584726L288,270.7432024169184L290.7692307692308,304.40677966101697L293.53846153846155,308.40753494024716L296.3076923076923,319.40957746478875L299.0769230769231,320.64691221268345L301.84615384615387,323.77187948350075L304.6153846153846,332.5584905660377L307.38461538461536,324.73405093200313L310.1538461538462,337.56482956355524L312.9230769230769,341.59515225895524L315.6923076923077,346.3765690376569L318.46153846153845,343.23676174871525L321.2307692307692,354.6166655384824L324,358.07505057756316L326.7692307692308,361.74821137190906L329.53846153846155,366.9538937473972L332.3076923076923,374.9143610013175L335.0769230769231,376.44337142550563L337.84615384615387,380.11578731266684L340.6153846153846,383.6724434189209L343.3846153846154,386.98542274052477L346.1538461538462,388.73306481142436L348.9230769230769,390.9641716920894L351.6923076923077,392.8017233950883L354.46153846153845,149.09032153821298L357.2307692307692,172.94852722404048L360,194.2574257425742L362.7692307692308,194.713488498707L365.53846153846155,207.26370217166487L368.30769230769226,224.85453672587613L371.07692307692304,256.7969987494789L373.84615384615387,254.44967074317964L376.61538461538464,261.85408931259406L379.3846153846154,279.30272202364586L382.15384615384613,276.9070987938495L384.9230769230769,302.5135005591947L387.6923076923077,300.1880273202089L390.46153846153845,302.999764391738L393.23076923076917,315.54859297940243L396.00000000000006,312.1505439576595L398.7692307692308,315.7811741179831L401.53846153846155,317.9847456441116L404.3076923076923,328.68384500551696L407.0769230769231,321.14131023281L409.8461538461538,334.51465156365435L412.6153846153846,342.5277633327555L415.38461538461536,340.1914545879057L418.1538461538462,352.0178523989161L420.92307692307696,356.02495142652623L423.6923076923077,359.8653278204371L426.46153846153845,356.57096920062304L429.2307692307692,366.46002663360423L432,368.96261557014606L434.7692307692307,371.6763216002078L437.5384615384615,370.1780433549963L440.3076923076923,377.1787525869415L443.0769230769231,119.54334038054968L445.84615384615387,133.83050847457633L448.61538461538464,157.97438129585873L451.38461538461536,146.99999999999994L454.15384615384613,201.3969603571049L456.9230769230769,200.6482364156339L459.6923076923077,193.46177105831535L462.4615384615385,224.07209971236819L465.2307692307693,257.96328758061844L468,241.97938144329896L470.7692307692308,241.55844155844153L473.53846153846155,260.2745634505512L476.3076923076923,279.0564822944103L479.07692307692304,274.58179654967284L481.8461538461538,279.4056746805284L484.61538461538464,287.109822599572L487.3846153846154,280.04496620419775L490.1538461538462,302.2430188679245L492.9230769230769,308.91085294648764L495.6923076923077,316.12213039485766L498.46153846153845,321.58887785501486L501.2307692307692,330.0487146195793L503.99999999999994,330.8162992651971L506.76923076923083,337.64088559446014L509.53846153846155,345.4819708230113L512.3076923076924,343.06978470675574L515.0769230769231,351.3109017496635L517.8461538461538,353.0442636220338L520.6153846153846,358.882276843467L523.3846153846154,359.70668583752695L526.1538461538461,409.6293008806148L528.9230769230769,364.35248925569545L531.6923076923077,116.21052631578941L534.4615384615385,124.67726330338627L537.2307692307693,141.9539954213452L540,166.17801047120417L542.7692307692307,192.63401210787006L545.5384615384615,161.7738251642243L548.3076923076923,211.1559633027523L551.0769230769231,216.14135213604305L553.8461538461539,228.6594858086327L556.6153846153846,217.3245033112583L559.3846153846154,239.2703933129338L562.1538461538462,250.56172140430348L564.9230769230769,269.62335313872387L567.6923076923076,249.21601804850536L570.4615384615385,275.9424317617866L573.2307692307692,282.38096376898244L576,289.741421779229L578.7692307692308,291.09592611479405L581.5384615384615,282.7830382873611L584.3076923076923,300.074196824718L587.0769230769231,294.9278169977563L589.8461538461538,318.8075335642108L592.6153846153846,321.39162756121357L595.3846153846154,323.8572665542542L598.1538461538462,323.764705882353L600.9230769230769,327.9616619037151L603.6923076923077,326.0016844718294L606.4615384615385,336.20765522640187L609.2307692307692,395.0350740452065L612,332.4011566992163L614.7692307692307,345.22879804759L617.5384615384615,348.7168108867687L620.3076923076924,84.02388852023881L623.0769230769231,122.29162522379147L625.8461538461538,132.38799076212462L628.6153846153846,146.6941025169943L631.3846153846154,162.90681284259983L634.1538461538462,139.8516866462224L636.9230769230769,182.34636871508383L639.6923076923076,153.59405940594058L642.4615384615385,196.3399372753002L645.2307692307693,176.49808491565486L648,188.90684099929953L650.7692307692308,202.34702182759892L653.5384615384615,235.18430455401807L656.3076923076923,245.42391371722556L659.0769230769231,252.81300813008127L661.8461538461538,240.89518200613995L664.6153846153846,267.6016643550623L667.3846153846154,257.0142542588944L670.1538461538462,282.6590328187302L672.9230769230769,288.4056939501779L675.6923076923077,293.8195733282311L678.4615384615385,291.14139364066875L681.2307692307692,297.2073784237004L684,297.628141633881L686.7692307692308,304.1388332665866L689.5384615384615,307.8273094112032L692.3076923076924,317.5071376131821L695.0769230769231,312.37916439676485L697.8461538461538,314.60845928915614L700.6153846153846,318.32024702249663L703.3846153846154,324.4439315252933L706.1538461538461,340.37489251934653L708.9230769230769,71.42246630054912" style="fill: none; stroke: #72b7b2; stroke-width: 2;"></path></g></g></g><g transform="translate(0,0)"><path class="background" d="M0,0h720v480h-720Z" style="fill: none;"></path><g><g class="mark-line role-mark marks"><path d="M5.538461538461538,467.8465628560577L8.307692307692308,464.3444227005871L11.076923076923077,460.52935807727414L13.846153846153847,458.5061794734014L16.615384615384617,452.5949186411647L19.384615384615387,451.508522004579L22.153846153846153,450.7294763320375L24.923076923076923,450.04368629082586L27.692307692307693,449.5470118005329L30.461538461538463,449.0522243713733L33.23076923076923,448.64794252122795L36,448.25396825396825L38.769230769230774,447.9679679679679L41.53846153846154,447.63061968408266L44.30769230769231,447.3920693612138L47.07692307692308,447.1707140268213L49.84615384615385,446.94865020103384L52.61538461538462,446.7946643341352L55.38461538461539,446.626996554964L58.15384615384616,446.4671328671329L60.92307692307693,446.34625322997414L63.69230769230769,446.2227122381477L66.46153846153847,446.10267738800036L69.23076923076924,445.99727705922396L72,445.89940100106674L74.76923076923077,445.8001426420477L77.53846153846155,445.7207697615579L80.3076923076923,445.6347309833024L83.07692307692308,445.5614665708124L85.84615384615385,445.4902398215282L88.61538461538461,358.500237304224L91.38461538461539,361.45487202514596L94.15384615384616,392.91820073635347L96.92307692307692,365.9702708206068L99.6923076923077,368.88888888888886L102.46153846153845,374.9982263213906L105.23076923076924,398.23561054330287L108,384.7909673481843L110.76923076923077,388.7541030398173L113.53846153846153,393.01513140430046L116.30769230769232,419.99570968895245L119.07692307692308,400.79834063148195L121.84615384615385,403.6377850162866L124.61538461538461,406.6714242022632L127.38461538461539,408.6567048321366L130.15384615384616,410.3884358784285L132.92307692307693,424.61618422002454L135.69230769230768,413.36033353186417L138.46153846153848,414.64180569185476L141.23076923076923,415.92328250275114L144,415.0700726505742L146.76923076923077,417.98153304997805L149.53846153846155,418.98874973466354L152.3076923076923,420.0764192139738L155.0769230769231,421.18600368324127L157.84615384615384,423.06774254081444L160.6153846153846,425.11088721626265L163.3846153846154,427.06938592055735L166.15384615384616,432.8163667734779L168.92307692307693,430.08095213666445L171.6923076923077,431.575401488445L174.46153846153845,431.4809057113889L177.23076923076923,271.4035445100835L180,295.6028368794326L182.76923076923077,292.96493092454836L185.53846153846152,311.9485812823326L188.30769230769232,341.39862280030604L191.07692307692307,322.3983995427265L193.84615384615384,330.03618817852833L196.61538461538458,336.7994952681388L199.3846153846154,344.3347872215018L202.15384615384616,349.93289488351354L204.9230769230769,355.38811630847033L207.69230769230768,359.7592778335005L210.46153846153848,363.652523704626L213.23076923076923,367.2406779661017L216,370.44358523725833L218.76923076923075,389.0306483017235L221.53846153846155,376.1487858361082L224.30769230769232,378.9144284821986L227.07692307692307,381.2313494757487L229.84615384615384,381.76087762211847L232.61538461538464,386.7886031966644L235.3846153846154,390.1198596119462L238.15384615384616,390.700481206919L240.9230769230769,398.0258452823508L243.6923076923077,401.1987438313145L246.46153846153845,404.285211455389L249.23076923076923,406.5561694290976L251.99999999999997,408.60709191953964L254.76923076923077,410.274420372482L257.53846153846155,412.07874736745714L260.3076923076923,413.19132994380516L263.07692307692304,414.334417696812L265.84615384615387,229.26542605288932L268.61538461538464,245.38170823885108L271.38461538461536,259.1891739498168L274.15384615384613,271.26553225168175L276.92307692307696,281.883986117997L279.6923076923077,311.2902079632146L282.46153846153845,299.70938847727524L285.2307692307692,323.651282051282L288,305.9334031413612L290.7692307692308,312.4193709435847L293.53846153846155,318.34519606907736L296.3076923076923,344.53164356435644L299.0769230769231,328.7186048549645L301.84615384615387,333.29605927921864L304.6153846153846,349.7117450907744L307.38461538461536,341.42122939935956L310.1538461538462,345.1066525871172L312.9230769230769,348.5234625473623L315.6923076923077,353.1196765874399L318.46153846153845,354.7479708069027L321.2307692307692,364.87239729007393L324,370.2123758594347L326.7692307692308,374.3642989291921L329.53846153846155,378.1714408325287L332.3076923076923,388.2647242056836L335.0769230769231,383.6397583745195L337.84615384615387,385.96066682773613L340.6153846153846,388.5610960946966L343.3846153846154,395.6825396825397L346.1538461538462,392.11506220771196L348.9230769230769,393.6408756612619L351.6923076923077,400.3638939167388L354.46153846153845,161.78993163455561L357.2307692307692,188.0651281325216L360,206.01265822784805L362.7692307692308,244.75631951466127L365.53846153846155,235.65859872611463L368.30769230769226,243.26592427616924L371.07692307692304,273.39673965467347L373.84615384615387,297.37982396750164L376.61538461538464,271.01865025956545L379.3846153846154,298.9043996030433L382.15384615384613,286.05011870218937L384.9230769230769,310.3094801223242L387.6923076923077,302.9620253164557L390.46153846153845,302.43785488958997L393.23076923076917,325.5095728009811L396.00000000000006,329.67583936800526L398.7692307692308,330.31948964978517L401.53846153846155,329.55425601039633L404.3076923076923,349.43727598566306L407.0769230769231,331.8775793525588L409.8461538461538,346.79082351614903L412.6153846153846,360.94926120711244L415.38461538461536,347.28785357737104L418.1538461538462,360.2033122793057L420.92307692307696,365.5583482944345L423.6923076923077,367.3612700756876L426.46153846153845,361.5350339972031L429.2307692307692,375.7772151898734L432,374.6915745329775L434.7692307692307,376.49807636619363L437.5384615384615,378.30413183084937L440.3076923076923,378.9139072847682L443.0769230769231,136.44277270284795L445.84615384615387,156.1359174427385L448.61538461538464,175.61443517103558L451.38461538461536,228.6840937590431L454.15384615384613,221.09866666666665L456.9230769230769,215.44387601564853L459.6923076923077,255.76743006845263L462.4615384615385,247.48013937282226L465.2307692307693,258.1833801420783L468,254.51619365609344L470.7692307692308,249.62441712590075L473.53846153846155,276.48744130580604L476.3076923076923,291.120555670174L479.07692307692304,283.2713288705313L481.8461538461538,296.3141610472035L484.61538461538464,306.65012406947886L487.3846153846154,305.47550145935537L490.1538461538462,322.8593054318789L492.9230769230769,316.621026613784L495.6923076923077,327.69532750160016L498.46153846153845,327.6489626996339L501.2307692307692,333.29444642040545L503.99999999999994,344.9079149411382L506.76923076923083,342.1190251275269L509.53846153846155,343.70876671619607L512.3076923076924,349.0812203028554L515.0769230769231,355.7609187693855L517.8461538461538,358.1820708825573L520.6153846153846,356.95219319862L523.3846153846154,358.6696745085401L526.1538461538461,409.60987931518383L528.9230769230769,363.6177134764803L531.6923076923077,124.51198887987942L534.4615384615385,137.23199999999997L537.2307692307693,148.955268495783L540,183.52135451345953L542.7692307692307,210.22784810126583L545.5384615384615,168.38713508164273L548.3076923076923,215.64717674574007L551.0769230769231,224.635838150289L553.8461538461539,228.50129808826995L556.6153846153846,248.4962492787074L559.3846153846154,243.97365725157323L562.1538461538462,263.87091612214965L564.9230769230769,269.40574088440655L567.6923076923076,264.08812083635644L570.4615384615385,281.6397515527951L573.2307692307692,300.9972353228168L576,287.85930811060973L578.7692307692308,317.36741463414637L581.5384615384615,285.46034692811975L584.3076923076923,309.85178445051054L587.0769230769231,315.2098236039372L589.8461538461538,312.6960460879413L592.6153846153846,326.5555005624297L595.3846153846154,321.1744002963787L598.1538461538462,326.5232744783306L600.9230769230769,335.94801299675083L603.6923076923077,324.54074372398975L606.4615384615385,337.49932628312445L609.2307692307692,396.1279453175768L612,334.738873994638L614.7692307692307,348.3219076005961L617.5384615384615,352.02018745493865L620.3076923076924,64.59032370344593L623.0769230769231,133.59275669427848L625.8461538461538,160.99752737548565L628.6153846153846,157.0765396938412L631.3846153846154,177.23751765390043L634.1538461538462,149.55529475489755L636.9230769230769,206.56600966902195L639.6923076923076,177.94633507853402L642.4615384615385,218.52512704686612L645.2307692307693,185.4048410061699L648,197.7221424794138L650.7692307692308,210.21209288949598L653.5384615384615,260.8149828418542L656.3076923076923,258.4299765807963L659.0769230769231,278.7609456164529L661.8461538461538,240.6102120185673L664.6153846153846,290.96726410902085L667.3846153846154,257.50416281221095L670.1538461538462,300.2047412789344L672.9230769230769,283.89861891030506L675.6923076923077,302.86073527401936L678.4615384615385,304.53802639849147L681.2307692307692,304.0824853185099L684,294.3018192101046L686.7692307692308,310.526243567753L689.5384615384615,311.25392302785457L692.3076923076924,319.9228543876567L695.0769230769231,312.6596661506924L697.8461538461538,316.3607024978607L700.6153846153846,320.25484369428267L703.3846153846154,333.20264285195674L706.1538461538461,325.7598784194529L708.9230769230769,31.71954425942147" style="fill: none; stroke: #4c78a8; stroke-width: 2;"></path></g></g></g><g transform="translate(0,0)"><path class="background" d="M0,0h720v480h-720Z" style="fill: none;"></path><g><g class="mark-line role-mark marks"><path d="M5.538461538461538,470.2290076335878L8.307692307692308,466.31308810949525L11.076923076923077,461.76118552294105L13.846153846153847,454.8822605965463L16.615384615384617,449.90595611285266L19.384615384615387,444.8241206030151L22.153846153846153,445.9030367607885L24.923076923076923,443.1525076765609L27.692307692307693,440.64928676832267L30.461538461538463,438.3431952662722L33.23076923076923,434.48079658605974L36,437.80933062880325L38.769230769230774,437.34145876975816L41.53846153846154,436.9120287253142L44.30769230769231,419.46559470323956L47.07692307692308,415.7429718875502L49.84615384615385,414.69387755102036L52.61538461538462,415.7701246566659L55.38461538461539,413.761126060857L58.15384615384616,418.60771057920704L60.92307692307693,419.89071038251365L63.69230769230769,442.8845184064549L66.46153846153847,389.0478446234012L69.23076923076924,387.40740740740745L72,390.46061127851914L74.76923076923077,392.9734085414988L77.53846153846155,392.1051598979792L80.3076923076923,398.8669347788075L83.07692307692308,401.2856674319449L85.84615384615385,402.6741573033708L88.61538461538461,365.04714863044455L91.38461538461539,367.2517616912235L94.15384615384616,402.4850384724993L96.92307692307692,375.98811292719165L99.6923076923077,378.71637066994896L102.46153846153845,382.58351160111897L105.23076923076924,408.0983916745506L108,388.1136798704167L110.76923076923077,349.97155627793575L113.53846153846153,354.03993855606757L116.30769230769232,395.3859339551298L119.07692307692308,363.6855452240068L121.84615384615385,368.2362279726941L124.61538461538461,371.8106686701728L127.38461538461539,376.9496846531184L130.15384615384616,381.0213438735178L132.92307692307693,382.87087390919436L135.69230769230768,344.3598615916955L138.46153846153848,348.9813298395021L141.23076923076923,354.2874749653366L144,354.43404769091455L146.76923076923077,368.3121951219512L149.53846153846155,373.65007392804335L152.3076923076923,377.53846153846155L155.0769230769231,324.9290411907234L157.84615384615384,329.9259503044265L160.6153846153846,361.69065849923425L163.3846153846154,342.1897810218978L166.15384615384616,389.59276018099547L168.92307692307693,356.7975739196361L171.6923076923077,362.38689769760265L174.46153846153845,360.44734655111L177.23076923076923,309.6456496423224L180,315.8067571834544L182.76923076923077,321.46524545863986L185.53846153846152,330.5542841194529L188.30769230769232,361.985667752443L191.07692307692307,347.94827586206895L193.84615384615384,353.97161522865514L196.61538461538458,357.85340652244105L199.3846153846154,308.0340349305867L202.15384615384616,316.8295343308628L204.9230769230769,325.6256851996868L207.69230769230768,334.97217517541736L210.46153846153848,341.5630769230769L213.23076923076923,346.6123333694592L216,351.05677939807634L218.76923076923075,372.20283421546867L221.53846153846155,310.13815090329433L224.30769230769232,318.28328753434926L227.07692307692307,325.65614696184645L229.84615384615384,323.9760084675997L232.61538461538464,336.951203920733L235.3846153846154,343.2057994361659L238.15384615384616,351.8538267922066L240.9230769230769,348.0136674259681L243.6923076923077,299.9907857691323L246.46153846153845,308.6053012048193L249.23076923076923,331.01905550952773L251.99999999999997,324.35056179775285L254.76923076923077,329.2693726937269L257.53846153846155,337.55921809122265L260.3076923076923,338.9867667761614L263.07692307692304,342.35678027556196L265.84615384615387,294.56628398791537L268.61538461538464,302.4406779661017L271.38461538461536,309.1413612565445L274.15384615384613,316.22272821362037L276.92307692307696,318.9359129383313L279.6923076923077,328.6136534133533L282.46153846153845,330.2188332567754L285.2307692307692,337.76656587472996L288,284.2929126442194L290.7692307692308,301.98557488332625L293.53846153846155,308.11159582022924L296.3076923076923,316.3986990625598L299.0769230769231,319.2371018811697L301.84615384615387,323.25182186234815L304.6153846153846,330.324338128884L307.38461538461536,325.2486698648059L310.1538461538462,294.33229620410697L312.9230769230769,300.4223503678664L315.6923076923077,306.2111587982833L318.46153846153845,304.2172707277421L321.2307692307692,316.912305391855L324,320.66388344551416L326.7692307692308,325.37530742744707L329.53846153846155,330.4406353200189L332.3076923076923,292.55936675461743L335.0769230769231,292.75399361022363L337.84615384615387,299.25590879599594L340.6153846153846,305.8916046758767L343.3846153846154,315.50369325255207L346.1538461538462,315.3658536585366L348.9230769230769,320.00762631077214L351.6923076923077,331.0950877450621L354.46153846153845,279.1999214839533L357.2307692307692,286.80820762672164L360,290.7713323012476L362.7692307692308,302.52042719104935L365.53846153846155,303.91186780170256L368.30769230769226,308.73825827761215L371.07692307692304,312.9155160308916L373.84615384615387,349.62138623442604L376.61538461538464,280.9865421587476L379.3846153846154,290.7666781887315L382.15384615384613,292.8464279653827L384.9230769230769,298.6009144350097L387.6923076923077,304.07547169811323L390.46153846153845,309.1479738958871L393.23076923076917,329.9863711544823L396.00000000000006,347.46624876661446L398.7692307692308,296.04864L401.53846153846155,287.32562972815697L404.3076923076923,309.69685470334963L407.0769230769231,293.40152477763655L409.8461538461538,303.41298662482257L412.6153846153846,334.53460503790654L415.38461538461536,309.1217806948705L418.1538461538462,318.69628043885467L420.92307692307696,277.1300568371782L423.6923076923077,282.235807860262L426.46153846153845,281.20045226942335L429.2307692307692,309.11902789284727L432,300.59719121353976L434.7692307692307,305.4681147312726L437.5384615384615,332.27800222495455L440.3076923076923,314.16642717178314L443.0769230769231,271.2123438648053L445.84615384615387,277.8615976749666L448.61538461538464,282.2916539284622L451.38461538461536,311.0538751135921L454.15384615384613,293.30633777714405L456.9230769230769,299.2797859935523L459.6923076923077,325.6029822926374L462.4615384615385,308.2457812701275L465.2307692307693,272.6554336064306L468,279.19696405982586L470.7692307692308,282.05920956686595L473.53846153846155,291.8434399117972L476.3076923076923,298.4014810896588L479.07692307692304,304.42710054658704L481.8461538461538,310.6247256766641L484.61538461538464,314.7682119205298L487.3846153846154,304.30807701925477L490.1538461538462,303.3319164895612L492.9230769230769,289.48428178832364L495.6923076923077,295.7023663679154L498.46153846153845,301.3870246085012L501.2307692307692,307.0165190327986L503.99999999999994,334.1732884625044L506.76923076923083,320.22680750916754L509.53846153846155,274.3074768972277L512.3076923076924,278.4388646288209L515.0769230769231,306.3637532885121L517.8461538461538,295.564175416924L520.6153846153846,298.6441128496345L523.3846153846154,305.9543252595156L526.1538461538461,378.6428978319874L528.9230769230769,316.244652262711L531.6923076923077,267.8006644518272L534.4615384615385,274.5176690225363L537.2307692307693,277.3047176601453L540,289.95117187499994L542.7692307692307,302.93912649920793L545.5384615384615,296.2882672428897L548.3076923076923,306.6277308156768L551.0769230769231,314.3967864781678L553.8461538461539,278.2309830679808L556.6153846153846,312.9915704027474L559.3846153846154,290.2290992528093L562.1538461538462,310.1376416281998L564.9230769230769,303.0350753167654L567.6923076923076,330.19880897846997L570.4615384615385,315.00140590480015L573.2307692307692,325.8022717711401L576,286.0189230230113L578.7692307692308,295.2199767454737L581.5384615384615,289.91553766793265L584.3076923076923,302.40953938690444L587.0769230769231,329.58975271304035L589.8461538461538,312.1256916996048L592.6153846153846,320.7962280005602L595.3846153846154,321.0566317545648L598.1538461538462,282.40114580349467L600.9230769230769,299.29505115890584L603.6923076923077,285.47429658220057L606.4615384615385,299.6630187900062L609.2307692307692,368.5331466216861L612,304.3801932848461L614.7692307692307,324.2406755805771L617.5384615384615,322.3438179317688L620.3076923076924,272.52714617169374L623.0769230769231,286.39732455903766L625.8461538461538,299.1183583362601L628.6153846153846,297.29128613956306L631.3846153846154,309.4623716415811L634.1538461538462,303.23584631762316L636.9230769230769,315.1423559573607L639.6923076923076,310.2666052510363L642.4615384615385,293.3045452252434L645.2307692307693,284.942744686434L648,290.480909829407L650.7692307692308,296.0498552431425L653.5384615384615,317.4283370039297L656.3076923076923,311.34625346074836L659.0769230769231,316.4833800388015L661.8461538461538,313.5356643356643L664.6153846153846,300.62968515742125L667.3846153846154,289.27558664483803L670.1538461538462,306.9817138759412L672.9230769230769,305.03736502055756L675.6923076923077,310.5493528565826L678.4615384615385,322.35161107970606L681.2307692307692,311.2707239390548L684,314.474684608915L686.7692307692308,280.63014665121204L689.5384615384615,282.30698785586304L692.3076923076924,320.26302072892025L695.0769230769231,296.0709265469245L697.8461538461538,300.2706766917293L700.6153846153846,304.7497174650091L703.3846153846154,313.04829861827176L706.1538461538461,311.69683164216195L708.9230769230769,280.2391038497285" style="fill: none; stroke: #f58518; stroke-width: 2;"></path></g></g></g><g transform="translate(0,0)"><path class="background" d="M0,0h720v480h-720Z" style="fill: none;"></path><g><g class="mark-line role-mark marks"><path d="M5.538461538461538,470.689554844341L8.307692307692308,466.06271777003485L11.076923076923077,460.54711246200606L13.846153846153847,456.9982748706153L16.615384615384617,452.4296381390006L19.384615384615387,447.81609195402297L22.153846153846153,442.4523320621883L24.923076923076923,441.06003244997294L27.692307692307693,436.82676740420936L30.461538461538463,432.5094441446303L33.23076923076923,427.1511147811726L36,423.859649122807L38.769230769230774,419.5737793363906L41.53846153846154,415.11759935117595L44.30769230769231,410.90418353576246L47.07692307692308,412.0679320679321L49.84615384615385,408.05395953035224L52.61538461538462,404.0948813982522L55.38461538461539,399.6787148594378L58.15384615384616,396.06295278541097L60.92307692307693,391.9559779889945L63.69230769230769,417.69048425330175L66.46153846153847,383.63864491844413L69.23076923076924,387.59990759990757L72,384.0811620936131L74.76923076923077,380.3690036900369L77.53846153846155,376.559685984761L80.3076923076923,372.96424452133795L83.07692307692308,370.1601830663615L85.84615384615385,365.476795197414L88.61538461538461,364.9179590919307L91.38461538461539,396.2702188392007L94.15384615384616,397.0099160945843L96.92307692307692,380.44444444444446L99.6923076923077,362.83157038242473L102.46153846153845,386.2252494851893L105.23076923076924,396.1726182269406L108,369.02720967455093L110.76923076923077,366.2019914651493L113.53846153846153,363.33629735016893L116.30769230769232,387.23670029017546L119.07692307692308,357.732361826906L121.84615384615385,354.7553816046967L124.61538461538461,351.931696905016L127.38461538461539,349.10901653921394L130.15384615384616,358.10017831090937L132.92307692307693,372.0134983127109L135.69230769230768,352.66525905473446L138.46153846153848,349.9821225418495L141.23076923076923,347.639902676399L144,337.680465275402L146.76923076923077,354.22129931770985L149.53846153846155,340.080971659919L152.3076923076923,349.59098992294014L155.0769230769231,346.9241051537204L157.84615384615384,344.8888888888889L160.6153846153846,353.9130434782609L163.3846153846154,340.3756840704038L166.15384615384616,370.32021957914L168.92307692307693,335.4716422330815L171.6923076923077,333.0805687203791L174.46153846153845,320.2867565424266L177.23076923076923,338.64640044217214L180,336.43775044908114L182.76923076923077,334.188804422944L185.53846153846152,312.8134747348721L188.30769230769232,321.39941690962104L191.07692307692307,327.6242055816524L193.84615384615384,308.07621389059614L196.61538461538458,305.55282555282554L199.3846153846154,303.04147465437785L202.15384615384616,301.078431372549L204.9230769230769,298.1122558819007L207.69230769230768,303.58129961775944L210.46153846153848,305.96217765042985L213.23076923076923,290.752688172043L216,301.7142857142857L218.76923076923075,327.36661428744105L221.53846153846155,298.1052631578947L224.30769230769232,295.46408209806157L227.07692307692307,294.03405221339386L229.84615384615384,278.2069594286582L232.61538461538464,289.3359840954274L235.3846153846154,284.7089262613195L238.15384615384616,284.18386224562397L240.9230769230769,294.01524675672056L243.6923076923077,292.0534473543559L246.46153846153845,290.2979063875183L249.23076923076923,294.8094747682801L251.99999999999997,285.8277933520224L254.76923076923077,286.1779359430605L257.53846153846155,293.06438631790746L260.3076923076923,279.98722044728436L263.07692307692304,290.5452276980661L265.84615384615387,288.5987277036297L268.61538461538464,286.58083832335325L271.38461538461536,284.5136652938975L274.15384615384613,282.5189067764882L276.92307692307696,280.623674691281L279.6923076923077,282.4251621588545L282.46153846153845,233.58598822285975L285.2307692307692,280.44218181818184L288,218.9803921568627L290.7692307692308,255.83544811005743L293.53846153846155,253.9722518676627L296.3076923076923,273.5681351840676L299.0769230769231,265.1826779492285L301.84615384615387,262.62557704304425L304.6153846153846,268.31687936431496L307.38461538461536,221.29643117261477L310.1538461538462,255.18422705010676L312.9230769230769,255.09749719835636L315.6923076923077,273.1226158038147L318.46153846153845,229.77402668118702L321.2307692307692,265.4993058769088L324,248.69165120593695L326.7692307692308,244.6184949457132L329.53846153846155,259.64596848934195L332.3076923076923,276.27403080191186L335.0769230769231,256.30534351145036L337.84615384615387,253.98609179415854L340.6153846153846,252.6867845993757L343.3846153846154,268.90020236446907L346.1538461538462,248.7232318555388L348.9230769230769,246.87301771038315L351.6923076923077,277.205994005994L354.46153846153845,257.3961484060494L357.2307692307692,254.33118091277225L360,253.44962930658528L362.7692307692308,216.68209255533202L365.53846153846155,250.1647058823529L368.30769230769226,219.50839357921828L371.07692307692304,217.48547616129423L373.84615384615387,238.27937717038202L376.61538461538464,213.63264305844876L379.3846153846154,236.71503166314852L382.15384615384613,209.6823529411765L384.9230769230769,207.48975837115162L387.6923076923077,223.8754721300217L390.46153846153845,222.04601121666477L393.23076923076917,240.45087071240107L396.00000000000006,260.5786694825765L398.7692307692308,245.1570247933884L401.53846153846155,214.94053064958823L404.3076923076923,233.7809664486178L407.0769230769231,179.95556123100496L409.8461538461538,209.3946465339739L412.6153846153846,244.24312017422295L415.38461538461536,174.65104431991844L418.1538461538462,215.09120842937105L420.92307692307696,239.4963373589388L423.6923076923077,211.78855012064045L426.46153846153845,189.58754129306274L429.2307692307692,232.52022774947557L432,205.0519351637446L434.7692307692307,225.46221726341412L437.5384615384615,220.2846565199507L440.3076923076923,222.11506849315066L443.0769230769231,220.78248530306095L445.84615384615387,219.1094890510949L448.61538461538464,162.3591756624141L451.38461538461536,207.09835550434684L454.15384615384613,162.6037050490374L456.9230769230769,183.06687682954288L459.6923076923077,201.2873949579832L462.4615384615385,180.31121589760863L465.2307692307693,196.38022813688207L468,176.34712230215823L470.7692307692308,142.1139020144242L473.53846153846155,192.0151722684648L476.3076923076923,189.5967043413964L479.07692307692304,195.30608462884803L481.8461538461538,187.0554034126817L484.61538461538464,185.37181377712238L487.3846153846154,199.2150913264797L490.1538461538462,208.87704839482507L492.9230769230769,182.26538300544155L495.6923076923077,187.80882352941174L498.46153846153845,195.699604743083L501.2307692307692,182.32493054841032L503.99999999999994,216.9483678451939L506.76923076923083,196.5353231902316L509.53846153846155,208.28381374722835L512.3076923076924,191.2547602773167L515.0769230769231,211.50690869683012L517.8461538461538,193.55936751317677L520.6153846153846,192.4134366925065L523.3846153846154,181.42557817750543L526.1538461538461,317.79942202718615L528.9230769230769,198.2851342622497L531.6923076923077,186.51926938892603L534.4615384615385,186.25480860788417L537.2307692307693,151.44564526382703L540,187.69201913157647L542.7692307692307,187.0720897615708L545.5384615384615,102.12312492499694L548.3076923076923,158.2726440988106L551.0769230769231,155.59245283018862L553.8461538461539,154.7914547304171L556.6153846153846,179.93611655926034L559.3846153846154,150.0962501277204L562.1538461538462,183.07906295754026L564.9230769230769,174.48739810737374L567.6923076923076,173.96469599327543L570.4615384615385,143.8382848392036L573.2307692307692,195.35719201651753L576,161.91044776119395L578.7692307692308,189.10344827586212L581.5384615384615,129.07056978567698L584.3076923076923,157.53857921407396L587.0769230769231,177.0128755364807L589.8461538461538,154.5131931166348L592.6153846153846,180.8155339805825L595.3846153846154,168.7737728672342L598.1538461538462,167.8068541459444L600.9230769230769,192.48938992042437L603.6923076923077,140.90774620474892L606.4615384615385,162.49469387755104L609.2307692307692,292.539928422627L612,135.4365977370269L614.7692307692307,210.97437452615617L617.5384615384615,207.69809014514894L620.3076923076924,84.24273239747978L623.0769230769231,172.8778821520068L625.8461538461538,203.16775231818528L628.6153846153846,168.09696552909824L631.3846153846154,201.86888498817066L634.1538461538462,93.7256226255804L636.9230769230769,137.3793103448275L639.6923076923076,90.39316239316233L642.4615384615385,166.27005076142132L645.2307692307693,89.57416920012578L648,90.99781591263655L650.7692307692308,102.86746987951803L653.5384615384615,178.0046433432071L656.3076923076923,135.36681222707418L659.0769230769231,159.51204717775906L661.8461538461538,82.52044532306729L664.6153846153846,173.7197604790419L667.3846153846154,117.68397291196388L670.1538461538462,169.4815766235851L672.9230769230769,139.1389205792014L675.6923076923077,166.20999275887038L678.4615384615385,161.17886509810302L681.2307692307692,147.78776613720854L684,96.76878276062891L686.7692307692308,142.29067984324416L689.5384615384615,163.6486765757888L692.3076923076924,171.3093858632677L695.0769230769231,113.34088832023392L697.8461538461538,104.50191106553555L700.6153846153846,104.23787400111505L703.3846153846154,157.16793893129764L706.1538461538461,114.11849192100536L708.9230769230769,71.54481932521462" style="fill: none; stroke: #eeca3b; stroke-width: 2;"></path></g></g></g><g transform="translate(0,0)"><path class="background" d="M0,0h720v480h-720Z" style="fill: none;"></path><g><g class="mark-line role-mark marks"><path d="M5.538461538461538,471.1185123508187L8.307692307692308,466.6740699611327L11.076923076923077,462.4993163795461L13.846153846153847,458.7120808940926L16.615384615384617,454.4408945686901L19.384615384615387,450.2917771883289L22.153846153846153,445.8666666666667L24.923076923076923,443.9188173390128L27.692307692307693,439.889696665831L30.461538461538463,435.84545910687405L33.23076923076923,432.023988005997L36,428.0389707719211L38.769230769230774,423.859649122807L41.53846153846154,419.9098647971958L44.30769230769231,415.66222669012313L47.07692307692308,418.8626657675882L49.84615384615385,415.2517985611511L52.61538461538462,411.71608265947884L55.38461538461539,408.04137620868L58.15384615384616,404.5113457649966L60.92307692307693,400.863309352518L63.69230769230769,425.73071818315884L66.46153846153847,393.7660004491354L69.23076923076924,398.0831456072087L72,395.3783563873068L74.76923076923077,392.0162932790224L77.53846153846155,387.0732213233769L80.3076923076923,385.65270435136233L83.07692307692308,396.6521965619031L85.84615384615385,378.5038918476034L88.61538461538461,370.55151774262504L91.38461538461539,402.28436856049456L94.15384615384616,406.8030139935414L96.92307692307692,391.13932085052363L99.6923076923077,378.2691628399858L102.46153846153845,392.59412372656135L105.23076923076924,400.9742388758782L108,380.96810030153944L110.76923076923077,378.44493811488417L113.53846153846153,375.98858411289046L116.30769230769232,393.06293706293707L119.07692307692308,370.4284121675426L121.84615384615385,368.3425852498017L124.61538461538461,365.2040816326531L127.38461538461539,362.615629984051L130.15384615384616,370.7135590757157L132.92307692307693,380.6947967900595L135.69230769230768,366.11272515979084L138.46153846153848,363.82224803950044L141.23076923076923,361.3953488372093L144,341.1713665943601L146.76923076923077,366.089552238806L149.53846153846155,354.4733401133227L152.3076923076923,361.90220311660397L155.0769230769231,359.6903225806451L157.84615384615384,357.5090077977951L160.6153846153846,374.08522792185533L163.3846153846154,352.28385698808233L166.15384615384616,375.9262072707542L168.92307692307693,347.97237643872717L171.6923076923077,345.73526622408883L174.46153846153845,333.31507647487257L177.23076923076923,352.12800000000004L180,350.9687034277198L182.76923076923077,347.1020408163265L185.53846153846152,327.1413074507565L188.30769230769232,335.29064039408865L191.07692307692307,340.95612708018155L193.84615384615384,320.3652446854045L196.61538461538458,318.1309370988447L199.3846153846154,316.01481903676256L202.15384615384616,314.35093696763204L204.9230769230769,312.36734693877554L207.69230769230768,331.02522679259346L210.46153846153848,320.28608992900337L213.23076923076923,305.69494405891515L216,316.3198109491926L218.76923076923075,345.6806722689076L221.53846153846155,312.14491992648993L224.30769230769232,311.3967964578721L227.07692307692307,309.2708089097303L229.84615384615384,287.9259473531964L232.61538461538464,304.9470664928292L235.3846153846154,303.11678166905347L238.15384615384616,303.9283429302623L240.9230769230769,309.9366515837104L243.6923076923077,308.2759125869858L246.46153846153845,308.3778501628664L249.23076923076923,322.24586029169865L251.99999999999997,301.98702729164114L254.76923076923077,299.94269621648095L257.53846153846155,320.36597938144325L260.3076923076923,296.38812171575216L263.07692307692304,305.5623205054566L265.84615384615387,303.7261344055141L268.61538461538464,302.05348330081483L271.38461538461536,301.28556759840274L274.15384615384613,299.54430379746833L276.92307692307696,297.3257142857143L279.6923076923077,315.1155142477786L282.46153846153845,257.54564060581254L285.2307692307692,312.1590376185136L288,224.82441343352247L290.7692307692308,275.37673738112653L293.53846153846155,273.98054474708164L296.3076923076923,305.6409419920481L299.0769230769231,280.54627383015594L301.84615384615387,279.4410037987798L304.6153846153846,299.33415536374844L307.38461538461536,228.83578708946774L310.1538461538462,272.99167437557816L312.9230769230769,272.0092123445417L315.6923076923077,302.5556529360211L318.46153846153845,240.31294823314641L321.2307692307692,281.78062860808205L324,287.04416013206765L326.7692307692308,262.8310880829015L329.53846153846155,276.8497276513938L332.3076923076923,303.1532362161165L335.0769230769231,273.25879208979154L337.84615384615387,271.90609326646035L340.6153846153846,269.7516843118383L343.3846153846154,297.96326230712714L346.1538461538462,266.8345246986023L348.9230769230769,264.7617826226354L351.6923076923077,302.36891844592225L354.46153846153845,272.66801783542763L357.2307692307692,271.1752076159611L360,269.96057818659665L362.7692307692308,249.21591535324592L365.53846153846155,266.3837197529614L368.30769230769226,241.51312542068655L371.07692307692304,239.7469433538979L373.84615384615387,249.48616600790513L376.61538461538464,235.4203420342034L379.3846153846154,269.9666219067716L382.15384615384613,231.99100517202606L384.9230769230769,230.0814398200225L387.6923076923077,244.89178398823282L390.46153846153845,243.41129540205753L393.23076923076917,279.40539107379584L396.00000000000006,280.8961672473868L398.7692307692308,273.86566362170873L401.53846153846155,235.59633027522932L404.3076923076923,269.72211209226884L407.0769230769231,199.94660309892734L409.8461538461538,230.95989051479103L412.6153846153846,274.84744594711003L415.38461538461536,193.78775217858419L418.1538461538462,239.26750448833027L420.92307692307696,272.1669803250642L423.6923076923077,235.22450205184666L426.46153846153845,208.1272365805169L429.2307692307692,264.71324296141813L432,230.97333466493558L434.7692307692307,244.80899718837864L437.5384615384615,247.64449351366272L440.3076923076923,241.18624318737076L443.0769230769231,239.6616859317733L445.84615384615387,237.17833553500662L448.61538461538464,187.2461277557942L451.38461538461536,224.64451631872976L454.15384615384613,183.3635849270114L456.9230769230769,206.69844559585493L459.6923076923077,219.86823529411762L462.4615384615385,203.75783918037885L465.2307692307693,231.31394702722724L468,200.85398367262576L470.7692307692308,166.62438011763345L473.53846153846155,213.26202791060797L476.3076923076923,225.9105360443623L479.07692307692304,210.6417299824664L481.8461538461538,212.3179980750722L484.61538461538464,207.63388510223953L487.3846153846154,216.49456725365303L490.1538461538462,243.1900895622332L492.9230769230769,202.1802558343912L495.6923076923077,221.98430877446117L498.46153846153845,213.47660954145428L501.2307692307692,198.323045467822L503.99999999999994,257.33731343283586L506.76923076923083,209.21014626920942L509.53846153846155,220.853291038858L512.3076923076924,206.25069431586746L515.0769230769231,252.19952494061755L517.8461538461538,226.19954147915425L520.6153846153846,215.68546046266158L523.3846153846154,200.48704663212436L526.1538461538461,324.0744932606235L528.9230769230769,211.4440534834623L531.6923076923077,208.34132955651944L534.4615384615385,209.22742034582637L537.2307692307693,167.06267029972753L540,205.7715995073025L542.7692307692307,220.9357479533614L545.5384615384615,128.95785953177256L548.3076923076923,314.901677904971L551.0769230769231,170.28081791626096L553.8461538461539,168.93646005643666L556.6153846153846,207.86854141961715L559.3846153846154,165.67289719626157L562.1538461538462,221.59815242494227L564.9230769230769,187.76698333034594L567.6923076923076,202.49999999999994L570.4615384615385,159.35495179666958L573.2307692307692,229.94800483675937L576,181.7963942954525L578.7692307692308,222.67015868125094L581.5384615384615,150.2063273727648L584.3076923076923,176.0230734565119L587.0769230769231,203.5143603133159L589.8461538461538,175.28398818580507L592.6153846153846,219.91970802919707L595.3846153846154,183.7448275862069L598.1538461538462,182.31557165028454L600.9230769230769,231.00301507537688L603.6923076923077,156.07027981779305L606.4615384615385,178.98563934990105L609.2307692307692,298.8115029170324L612,151.00083822296736L614.7692307692307,240.36665990671264L617.5384615384615,238.10991101148016L620.3076923076924,92.04724238812435L623.0769230769231,186.15246343655522L625.8461538461538,233.85253393356527L628.6153846153846,183.05524183648413L631.3846153846154,232.5855249745158L634.1538461538462,123.34638994446064L636.9230769230769,184.30949891418L639.6923076923076,110.76959999999997L642.4615384615385,202.24642348887724L645.2307692307693,104.11465482438432L648,102.80597014925371L650.7692307692308,100.81162931556625L653.5384615384615,208.94848027592153L656.3076923076923,158.03773584905653L659.0769230769231,197.34958020655316L661.8461538461538,96.17843866171008L664.6153846153846,204.43358954098127L667.3846153846154,120.49052729818013L670.1538461538462,202.11724137931031L672.9230769230769,143.56760502381982L675.6923076923077,199.8005603850851L678.4615384615385,174.03234627705285L681.2307692307692,187.39217145408543L684,125.24683259951472L686.7692307692308,183.2243767313019L689.5384615384615,197.66929133858264L692.3076923076924,179.52628017144139L695.0769230769231,137.03675842024273L697.8461538461538,125.98628933028644L700.6153846153846,130.26792354925195L703.3846153846154,195.77037244469335L706.1538461538461,119.90458521070764L708.9230769230769,81.56728334956183" style="fill: none; stroke: #b279a2; stroke-width: 2;"></path></g></g></g><g transform="translate(0,0)"><path class="background" d="M0,0h720v480h-720Z" style="fill: none;"></path><g><g class="mark-line role-mark marks"><path d="M5.538461538461538,471.40939597315435L8.307692307692308,467.1244635193133L11.076923076923077,462.3057782692839L13.846153846153847,458.2372143634385L16.615384615384617,453.86332698066974L19.384615384615387,449.49060201579954L22.153846153846153,444.562569213732L24.923076923076923,443.86449184441653L27.692307692307693,439.8494353826851L30.461538461538463,435.84545910687405L33.23076923076923,430.7566042575019L36,427.8042659974906L38.769230769230774,423.7609841827768L41.53846153846154,419.68333752199044L44.30769230769231,415.7268390660306L47.07692307692308,410.0411522633745L49.84615384615385,406.19169656586365L52.61538461538462,401.75032175032175L55.38461538461539,396.6449596249023L58.15384615384616,394.0445126630852L60.92307692307693,389.72044113875353L63.69230769230769,415.47255830264777L66.46153846153847,380.2079002079002L69.23076923076924,384.1227229146692L72,378.6601705237515L74.76923076923077,376.45254074784276L77.53846153846155,364.89208633093523L80.3076923076923,368.9686527877483L83.07692307692308,378.0242192479286L85.84615384615385,361.2544888676083L88.61538461538461,334.834136660051L91.38461538461539,359.8908098271155L94.15384615384616,387.1989082224497L96.92307692307692,352.32102143182857L99.6923076923077,348.6431014823261L102.46153846153845,344.90187129164764L105.23076923076924,368.31741366642177L108,338.0204778156996L110.76923076923077,334.47930877671666L113.53846153846153,342.9335562055997L116.30769230769232,381.94075587334015L119.07692307692308,336.15722349989545L121.84615384615385,332.8735632183908L124.61538461538461,329.3408662900189L127.38461538461539,326.1538461538462L130.15384615384616,322.7436219155165L132.92307692307693,359.9061767005473L135.69230769230768,323.4192131016577L138.46153846153848,320.60569834628416L141.23076923076923,316.9956052736716L144,300.2247191011236L146.76923076923077,310.6709265175719L149.53846153846155,307.44158178550026L152.3076923076923,304.2811501597444L155.0769230769231,300.94324540367705L157.84615384615384,308.1838733986435L160.6153846153846,349.02062729584634L163.3846153846154,301.61753590325014L166.15384615384616,349.66023375917365L168.92307692307693,295.46606163736055L171.6923076923077,292.6534466477809L174.46153846153845,274.7046843177189L177.23076923076923,264.05735976381277L180,290.1496896677619L182.76923076923077,287.15850986121256L185.53846153846152,293.3054684778823L188.30769230769232,309.74436090225566L191.07692307692307,278.4665936473165L193.84615384615384,275.71298155924774L196.61538461538458,272.47351114358787L199.3846153846154,269.7426537689359L202.15384615384616,276.8695652173913L204.9230769230769,274.3643949930459L207.69230769230768,316.2445414847161L210.46153846153848,267.4868926948619L213.23076923076923,265.9624739402363L216,262.99426186750134L218.76923076923075,321.0052883404684L221.53846153846155,257.58470894874023L224.30769230769232,265.71428571428567L227.07692307692307,262.8533598146309L229.84615384615384,233.93737261441538L232.61538461538464,257.99801783944497L235.3846153846154,255.05788951372804L238.15384615384616,280.95472298567915L240.9230769230769,250.03138939368907L243.6923076923077,246.88741721854302L246.46153846153845,254.46943300601836L249.23076923076923,281.0565620246162L251.99999999999997,250.31077457012145L254.76923076923077,247.5667140375809L257.53846153846155,273.96923076923076L260.3076923076923,242.51381651665878L263.07692307692304,239.94946304485154L265.84615384615387,217.70491803278685L268.61538461538464,256.1107905366417L271.38461538461536,240.17130620985014L274.15384615384613,237.6499388004896L276.92307692307696,235.16449885233354L279.6923076923077,262.57454545454544L282.46153846153845,230.19133629266798L285.2307692307692,251.8470066518847L288,198.7288708586883L290.7692307692308,234.45776088862902L293.53846153846155,232.87775025499056L296.3076923076923,252.74940207281423L299.0769230769231,228.25174825174824L301.84615384615387,225.66136794516552L304.6153846153846,245.4116077384923L307.38461538461536,190.27732463295268L310.1538461538462,218.20306793279764L312.9230769230769,224.12919677008074L315.6923076923077,246.92555640828854L318.46153846153845,191.32726702227794L321.2307692307692,217.3361665958351L324,254.62906724511927L326.7692307692308,212.76962312269765L329.53846153846155,210.46677058240047L332.3076923076923,234.90927676974184L335.0769230769231,214.36835599505562L337.84615384615387,213.19906964016968L340.6153846153846,209.94065934065932L343.3846153846154,228.50704225352115L346.1538461538462,206.71317193270409L348.9230769230769,203.3918417799752L351.6923076923077,223.13956725294187L354.46153846153845,186.12713445257566L357.2307692307692,197.85221674876846L360,195.62611194744767L362.7692307692308,192.33630993268312L365.53846153846155,191.25112905433147L368.30769230769226,188.82454458293384L371.07692307692304,190.87257019438442L373.84615384615387,216.5274725274725L376.61538461538464,182.62325581395348L379.3846153846154,204.72558139534888L382.15384615384613,188.45995241871526L384.9230769230769,185.4519421980644L387.6923076923077,183.17548746518105L390.46153846153845,182.08274950429606L393.23076923076917,201.47159160633203L396.00000000000006,203.21240009687577L398.7692307692308,203.08758421559187L401.53846153846155,184.49062858600027L404.3076923076923,208.48586387434557L407.0769230769231,127.32343679712096L409.8461538461538,179.48780487804876L412.6153846153846,200.2706131078224L415.38461538461536,119.69373967872684L418.1538461538462,173.39634146341461L420.92307692307696,183.38566719570255L423.6923076923077,179.4159292035398L426.46153846153845,120.81632653061227L429.2307692307692,187.73622743895248L432,173.37137235612394L434.7692307692307,171.1399384615384L437.5384615384615,158.11980627071114L440.3076923076923,165.7744807121662L443.0769230769231,139.37133724027697L445.84615384615387,171.7685950413223L448.61538461538464,169.8541142651814L451.38461538461536,170.68122996557037L454.15384615384613,174.0504201680672L456.9230769230769,167.8494496390105L459.6923076923077,166.6622579121398L462.4615384615385,159.82151853184598L465.2307692307693,169.5951913073632L468,169.07734806629833L470.7692307692308,103.59329547028672L473.53846153846155,163.906094599283L476.3076923076923,184.41371895495104L479.07692307692304,161.9378881987578L481.8461538461538,159.39873198847263L484.61538461538464,158.74124267830476L487.3846153846154,148.49116191374029L490.1538461538462,192.65813528336378L492.9230769230769,167.38028788045267L495.6923076923077,203.3479017598143L498.46153846153845,164.69917808219174L501.2307692307692,162.63448881088192L503.99999999999994,185.08029197080293L506.76923076923083,157.4292015880018L509.53846153846155,193.2355694227769L512.3076923076924,163.63753075853205L515.0769230769231,174.98060941828248L517.8461538461538,191.93060909791828L520.6153846153846,158.61048128342242L523.3846153846154,156.9009625668449L526.1538461538461,297.0904925544101L528.9230769230769,153.41206675224643L531.6923076923077,142.90333919156416L534.4615384615385,152.1317887129344L537.2307692307693,150.43298969072166L540,148.69897959183672L542.7692307692307,169.32328441094802L545.5384615384615,80.85587526936244L548.3076923076923,185.62440703190393L551.0769230769231,141.9030612244897L553.8461538461539,154.39397025870844L556.6153846153846,125.23144876325085L559.3846153846154,146.96565239814336L562.1538461538462,159.11867088607596L564.9230769230769,163.60799534251893L567.6923076923076,117.77139066990935L570.4615384615385,140.2307295428748L573.2307692307692,153.31279620853078L576,137.07354306343478L578.7692307692308,164.9032258064516L581.5384615384615,96.51548040671763L584.3076923076923,139.81198305426668L587.0769230769231,115.71188991614703L589.8461538461538,136.10181818181812L592.6153846153846,161.74767398585783L595.3846153846154,134.8598975595058L598.1538461538462,133.254594757457L600.9230769230769,153.73454990123219L603.6923076923077,96.41215323645969L606.4615384615385,142.76531791907513L609.2307692307692,269.1886701872299L612,90.8335353090228L614.7692307692307,162.9761458054141L617.5384615384615,144.71338538237222L620.3076923076924,61.62935265248885L623.0769230769231,135.4182236274791L625.8461538461538,144.30777808753828L628.6153846153846,134.73708250071374L631.3846153846154,155.5673462120538L634.1538461538462,78.03030968592137L636.9230769230769,125.17710645690569L639.6923076923076,74.69769484083422L642.4615384615385,149.90493145807366L645.2307692307693,43.59596906491678L648,38.77598206912816L650.7692307692308,36.890409342927875L653.5384615384615,141.77494844436472L656.3076923076923,127.4445788738948L659.0769230769231,156.18386108273745L661.8461538461538,33.82200420462507L664.6153846153846,152.01094391244868L667.3846153846154,75.70277078085644L670.1538461538462,150.03940970741274L672.9230769230769,119.02304832713752L675.6923076923077,123.46869000822737L678.4615384615385,95.54290202238357L681.2307692307692,105.90961849491002L684,36.74772650724145L686.7692307692308,81.56478037993767L689.5384615384615,103.63914893617019L692.3076923076924,97.02127659574464L695.0769230769231,63.55989204899318L697.8461538461538,61.205240174672454L700.6153846153846,27.858676207513433L703.3846153846154,96.62549575070815L706.1538461538461,57.14285714285715L708.9230769230769,55.79266017001858" style="fill: none; stroke: #54a24b; stroke-width: 2;"></path></g></g></g></g><g class="mark-group role-legend"><g transform="translate(738,0)"><path class="background" d="M0,0h101v105h-101Z" style="pointer-events: none; fill: none;"></path><g><g class="mark-group role-legend-entry"><g transform="translate(0,16)"><path class="background" d="M0,0h0v0h0Z" style="pointer-events: none; fill: none;"></path><g><g class="mark-group role-scope"><g transform="translate(0,0)"><path class="background" d="M0,0h101v11h-101Z" style="pointer-events: none; fill: none; opacity: 1;"></path><g><g class="mark-symbol role-legend-symbol" style="pointer-events: none;"><path transform="translate(6,6)" d="M-5,0L5,0" style="fill: none; stroke: #4c78a8; stroke-width: 1.5; opacity: 1;"></path></g><g class="mark-text role-legend-label" style="pointer-events: none;"><text text-anchor="start" transform="translate(16,9)" style="font-family: sans-serif; font-size: 10px; fill: #000; opacity: 1;">Clang-Polly</text></g></g></g><g transform="translate(0,13)"><path class="background" d="M0,0h101v11h-101Z" style="pointer-events: none; fill: none; opacity: 1;"></path><g><g class="mark-symbol role-legend-symbol" style="pointer-events: none;"><path transform="translate(6,6)" d="M-5,0L5,0" style="fill: none; stroke: #f58518; stroke-width: 1.5; opacity: 1;"></path></g><g class="mark-text role-legend-label" style="pointer-events: none;"><text text-anchor="start" transform="translate(16,9)" style="font-family: sans-serif; font-size: 10px; fill: #000; opacity: 1;">GFortran</text></g></g></g><g transform="translate(0,26)"><path class="background" d="M0,0h101v11h-101Z" style="pointer-events: none; fill: none; opacity: 1;"></path><g><g class="mark-symbol role-legend-symbol" style="pointer-events: none;"><path transform="translate(6,6)" d="M-5,0L5,0" style="fill: none; stroke: #e45756; stroke-width: 1.5; opacity: 1;"></path></g><g class="mark-text role-legend-label" style="pointer-events: none;"><text text-anchor="start" transform="translate(16,9)" style="font-family: sans-serif; font-size: 10px; fill: #000; opacity: 1;">IntelMKL</text></g></g></g><g transform="translate(0,39)"><path class="background" d="M0,0h101v11h-101Z" style="pointer-events: none; fill: none; opacity: 1;"></path><g><g class="mark-symbol role-legend-symbol" style="pointer-events: none;"><path transform="translate(6,6)" d="M-5,0L5,0" style="fill: none; stroke: #72b7b2; stroke-width: 1.5; opacity: 1;"></path></g><g class="mark-text role-legend-label" style="pointer-events: none;"><text text-anchor="start" transform="translate(16,9)" style="font-family: sans-serif; font-size: 10px; fill: #000; opacity: 1;">Julia</text></g></g></g><g transform="translate(0,52)"><path class="background" d="M0,0h101v11h-101Z" style="pointer-events: none; fill: none; opacity: 1;"></path><g><g class="mark-symbol role-legend-symbol" style="pointer-events: none;"><path transform="translate(6,6)" d="M-5,0L5,0" style="fill: none; stroke: #54a24b; stroke-width: 1.5; opacity: 1;"></path></g><g class="mark-text role-legend-label" style="pointer-events: none;"><text text-anchor="start" transform="translate(16,9)" style="font-family: sans-serif; font-size: 10px; fill: #000; opacity: 1;">LoopVectorization</text></g></g></g><g transform="translate(0,65)"><path class="background" d="M0,0h101v11h-101Z" style="pointer-events: none; fill: none; opacity: 1;"></path><g><g class="mark-symbol role-legend-symbol" style="pointer-events: none;"><path transform="translate(6,6)" d="M-5,0L5,0" style="fill: none; stroke: #eeca3b; stroke-width: 1.5; opacity: 1;"></path></g><g class="mark-text role-legend-label" style="pointer-events: none;"><text text-anchor="start" transform="translate(16,9)" style="font-family: sans-serif; font-size: 10px; fill: #000; opacity: 1;">icc</text></g></g></g><g transform="translate(0,78)"><path class="background" d="M0,0h101v11h-101Z" style="pointer-events: none; fill: none; opacity: 1;"></path><g><g class="mark-symbol role-legend-symbol" style="pointer-events: none;"><path transform="translate(6,6)" d="M-5,0L5,0" style="fill: none; stroke: #b279a2; stroke-width: 1.5; opacity: 1;"></path></g><g class="mark-text role-legend-label" style="pointer-events: none;"><text text-anchor="start" transform="translate(16,9)" style="font-family: sans-serif; font-size: 10px; fill: #000; opacity: 1;">ifort</text></g></g></g></g></g></g></g><g class="mark-text role-legend-title" style="pointer-events: none;"><text text-anchor="start" transform="translate(0,9)" style="font-family: sans-serif; font-size: 11px; font-weight: bold; fill: #000; opacity: 1;">Method</text></g></g></g></g><g class="mark-group role-axis"><g transform="translate(0.5,480.5)"><path class="background" d="M0,0h0v0h0Z" style="pointer-events: none; fill: none;"></path><g><g class="mark-rule role-axis-tick" style="pointer-events: none;"><line transform="translate(0,0)" x2="0" y2="5" style="fill: none; stroke: #888; stroke-width: 1; opacity: 1;"></line><line transform="translate(55,0)" x2="0" y2="5" style="fill: none; stroke: #888; stroke-width: 1; opacity: 1;"></line><line transform="translate(111,0)" x2="0" y2="5" style="fill: none; stroke: #888; stroke-width: 1; opacity: 1;"></line><line transform="translate(166,0)" x2="0" y2="5" style="fill: none; stroke: #888; stroke-width: 1; opacity: 1;"></line><line transform="translate(222,0)" x2="0" y2="5" style="fill: none; stroke: #888; stroke-width: 1; opacity: 1;"></line><line transform="translate(277,0)" x2="0" y2="5" style="fill: none; stroke: #888; stroke-width: 1; opacity: 1;"></line><line transform="translate(332,0)" x2="0" y2="5" style="fill: none; stroke: #888; stroke-width: 1; opacity: 1;"></line><line transform="translate(388,0)" x2="0" y2="5" style="fill: none; stroke: #888; stroke-width: 1; opacity: 1;"></line><line transform="translate(443,0)" x2="0" y2="5" style="fill: none; stroke: #888; stroke-width: 1; opacity: 1;"></line><line transform="translate(498,0)" x2="0" y2="5" style="fill: none; stroke: #888; stroke-width: 1; opacity: 1;"></line><line transform="translate(554,0)" x2="0" y2="5" style="fill: none; stroke: #888; stroke-width: 1; opacity: 1;"></line><line transform="translate(609,0)" x2="0" y2="5" style="fill: none; stroke: #888; stroke-width: 1; opacity: 1;"></line><line transform="translate(665,0)" x2="0" y2="5" style="fill: none; stroke: #888; stroke-width: 1; opacity: 1;"></line><line transform="translate(720,0)" x2="0" y2="5" style="fill: none; stroke: #888; stroke-width: 1; opacity: 1;"></line></g><g class="mark-text role-axis-label" style="pointer-events: none;"><text text-anchor="start" transform="translate(0,15)" style="font-family: sans-serif; font-size: 10px; fill: #000; opacity: 1;">0</text><text text-anchor="middle" transform="translate(55.38461538461539,15)" style="font-family: sans-serif; font-size: 10px; fill: #000; opacity: 1;">20</text><text text-anchor="middle" transform="translate(110.76923076923077,15)" style="font-family: sans-serif; font-size: 10px; fill: #000; opacity: 1;">40</text><text text-anchor="middle" transform="translate(166.15384615384616,15)" style="font-family: sans-serif; font-size: 10px; fill: #000; opacity: 1;">60</text><text text-anchor="middle" transform="translate(221.53846153846155,15)" style="font-family: sans-serif; font-size: 10px; fill: #000; opacity: 1;">80</text><text text-anchor="middle" transform="translate(276.92307692307696,15)" style="font-family: sans-serif; font-size: 10px; fill: #000; opacity: 1;">100</text><text text-anchor="middle" transform="translate(332.3076923076923,15)" style="font-family: sans-serif; font-size: 10px; fill: #000; opacity: 1;">120</text><text text-anchor="middle" transform="translate(387.6923076923077,15)" style="font-family: sans-serif; font-size: 10px; fill: #000; opacity: 1;">140</text><text text-anchor="middle" transform="translate(443.0769230769231,15)" style="font-family: sans-serif; font-size: 10px; fill: #000; opacity: 1;">160</text><text text-anchor="middle" transform="translate(498.46153846153845,15)" style="font-family: sans-serif; font-size: 10px; fill: #000; opacity: 1;">180</text><text text-anchor="middle" transform="translate(553.8461538461539,15)" style="font-family: sans-serif; font-size: 10px; fill: #000; opacity: 1;">200</text><text text-anchor="middle" transform="translate(609.2307692307692,15)" style="font-family: sans-serif; font-size: 10px; fill: #000; opacity: 1;">220</text><text text-anchor="middle" transform="translate(664.6153846153846,15)" style="font-family: sans-serif; font-size: 10px; fill: #000; opacity: 1;">240</text><text text-anchor="end" transform="translate(720,15)" style="font-family: sans-serif; font-size: 10px; fill: #000; opacity: 1;">260</text></g><g class="mark-rule role-axis-domain" style="pointer-events: none;"><line transform="translate(0,0)" x2="720" y2="0" style="fill: none; stroke: #888; stroke-width: 1; opacity: 1;"></line></g><g class="mark-text role-axis-title" style="pointer-events: none;"><text text-anchor="middle" transform="translate(360,30)" style="font-family: sans-serif; font-size: 11px; font-weight: bold; fill: #000; opacity: 1;">Size</text></g></g></g></g><g class="mark-group role-axis"><g transform="translate(0.5,0.5)"><path class="background" d="M0,0h0v0h0Z" style="pointer-events: none; fill: none;"></path><g><g class="mark-rule role-axis-tick" style="pointer-events: none;"><line transform="translate(0,480)" x2="-5" y2="0" style="fill: none; stroke: #888; stroke-width: 1; opacity: 1;"></line><line transform="translate(0,440)" x2="-5" y2="0" style="fill: none; stroke: #888; stroke-width: 1; opacity: 1;"></line><line transform="translate(0,400)" x2="-5" y2="0" style="fill: none; stroke: #888; stroke-width: 1; opacity: 1;"></line><line transform="translate(0,360)" x2="-5" y2="0" style="fill: none; stroke: #888; stroke-width: 1; opacity: 1;"></line><line transform="translate(0,320)" x2="-5" y2="0" style="fill: none; stroke: #888; stroke-width: 1; opacity: 1;"></line><line transform="translate(0,280)" x2="-5" y2="0" style="fill: none; stroke: #888; stroke-width: 1; opacity: 1;"></line><line transform="translate(0,240)" x2="-5" y2="0" style="fill: none; stroke: #888; stroke-width: 1; opacity: 1;"></line><line transform="translate(0,200)" x2="-5" y2="0" style="fill: none; stroke: #888; stroke-width: 1; opacity: 1;"></line><line transform="translate(0,160)" x2="-5" y2="0" style="fill: none; stroke: #888; stroke-width: 1; opacity: 1;"></line><line transform="translate(0,120)" x2="-5" y2="0" style="fill: none; stroke: #888; stroke-width: 1; opacity: 1;"></line><line transform="translate(0,80)" x2="-5" y2="0" style="fill: none; stroke: #888; stroke-width: 1; opacity: 1;"></line><line transform="translate(0,40)" x2="-5" y2="0" style="fill: none; stroke: #888; stroke-width: 1; opacity: 1;"></line><line transform="translate(0,0)" x2="-5" y2="0" style="fill: none; stroke: #888; stroke-width: 1; opacity: 1;"></line></g><g class="mark-text role-axis-label" style="pointer-events: none;"><text text-anchor="end" transform="translate(-7,483)" style="font-family: sans-serif; font-size: 10px; fill: #000; opacity: 1;">0</text><text text-anchor="end" transform="translate(-7,443)" style="font-family: sans-serif; font-size: 10px; fill: #000; opacity: 1;">5</text><text text-anchor="end" transform="translate(-7,403)" style="font-family: sans-serif; font-size: 10px; fill: #000; opacity: 1;">10</text><text text-anchor="end" transform="translate(-7,363)" style="font-family: sans-serif; font-size: 10px; fill: #000; opacity: 1;">15</text><text text-anchor="end" transform="translate(-7,323.00000000000006)" style="font-family: sans-serif; font-size: 10px; fill: #000; opacity: 1;">20</text><text text-anchor="end" transform="translate(-7,282.99999999999994)" style="font-family: sans-serif; font-size: 10px; fill: #000; opacity: 1;">25</text><text text-anchor="end" transform="translate(-7,243)" style="font-family: sans-serif; font-size: 10px; fill: #000; opacity: 1;">30</text><text text-anchor="end" transform="translate(-7,202.99999999999997)" style="font-family: sans-serif; font-size: 10px; fill: #000; opacity: 1;">35</text><text text-anchor="end" transform="translate(-7,163.00000000000003)" style="font-family: sans-serif; font-size: 10px; fill: #000; opacity: 1;">40</text><text text-anchor="end" transform="translate(-7,123)" style="font-family: sans-serif; font-size: 10px; fill: #000; opacity: 1;">45</text><text text-anchor="end" transform="translate(-7,82.99999999999999)" style="font-family: sans-serif; font-size: 10px; fill: #000; opacity: 1;">50</text><text text-anchor="end" transform="translate(-7,43.000000000000014)" style="font-family: sans-serif; font-size: 10px; fill: #000; opacity: 1;">55</text><text text-anchor="end" transform="translate(-7,3)" style="font-family: sans-serif; font-size: 10px; fill: #000; opacity: 1;">60</text></g><g class="mark-rule role-axis-domain" style="pointer-events: none;"><line transform="translate(0,480)" x2="0" y2="-480" style="fill: none; stroke: #888; stroke-width: 1; opacity: 1;"></line></g><g class="mark-text role-axis-title" style="pointer-events: none;"><text text-anchor="middle" transform="translate(-23,240) rotate(-90) translate(0,-2)" style="font-family: sans-serif; font-size: 11px; font-weight: bold; fill: #000; opacity: 1;">GFLOPS</text></g></g></g></g></g></g></g></g></svg>