<?xml version="1.0" encoding="UTF-8"?>
<svg xmlns="http://www.w3.org/2000/svg"
     xmlns:xlink="http://www.w3.org/1999/xlink"
     xmlns:gadfly="http://www.gadflyjl.org/ns"
     version="1.2"
     width="304.8mm" height="203.2mm" viewBox="0 0 304.8 203.2"
     stroke="none"
     fill="#000000"
     stroke-width="0.3"
     font-size="3.88"
>
<defs>
  <marker id="arrow" markerWidth="15" markerHeight="7" refX="5" refY="3.5" orient="auto" markerUnits="strokeWidth">
    <path d="M0,0 L15,3.5 L0,7 z" stroke="context-stroke" fill="context-stroke"/>
  </marker>
</defs>
<g class="plotroot xscalable yscalable" id="img-5b5fa23a-1">
  <g font-size="3.88" font-family="'PT Sans','Helvetica Neue','Helvetica',sans-serif" fill="#564A55" stroke="#000000" stroke-opacity="0.000" id="img-5b5fa23a-2">
    <g transform="translate(145.6,191.59)">
      <g class="primitive">
        <text text-anchor="middle" dy="0.6em">Size</text>
      </g>
    </g>
  </g>
  <g class="guide xlabels" font-size="2.82" font-family="'PT Sans Caption','Helvetica Neue','Helvetica',sans-serif" fill="#6C606B" id="img-5b5fa23a-3">
    <g transform="translate(19.96,184.92)">
      <g class="primitive">
        <text text-anchor="middle" dy="0.6em">0</text>
      </g>
    </g>
    <g transform="translate(39.29,184.92)">
      <g class="primitive">
        <text text-anchor="middle" dy="0.6em">20</text>
      </g>
    </g>
    <g transform="translate(58.62,184.92)">
      <g class="primitive">
        <text text-anchor="middle" dy="0.6em">40</text>
      </g>
    </g>
    <g transform="translate(77.95,184.92)">
      <g class="primitive">
        <text text-anchor="middle" dy="0.6em">60</text>
      </g>
    </g>
    <g transform="translate(97.28,184.92)">
      <g class="primitive">
        <text text-anchor="middle" dy="0.6em">80</text>
      </g>
    </g>
    <g transform="translate(116.61,184.92)">
      <g class="primitive">
        <text text-anchor="middle" dy="0.6em">100</text>
      </g>
    </g>
    <g transform="translate(135.93,184.92)">
      <g class="primitive">
        <text text-anchor="middle" dy="0.6em">120</text>
      </g>
    </g>
    <g transform="translate(155.26,184.92)">
      <g class="primitive">
        <text text-anchor="middle" dy="0.6em">140</text>
      </g>
    </g>
    <g transform="translate(174.59,184.92)">
      <g class="primitive">
        <text text-anchor="middle" dy="0.6em">160</text>
      </g>
    </g>
    <g transform="translate(193.92,184.92)">
      <g class="primitive">
        <text text-anchor="middle" dy="0.6em">180</text>
      </g>
    </g>
    <g transform="translate(213.25,184.92)">
      <g class="primitive">
        <text text-anchor="middle" dy="0.6em">200</text>
      </g>
    </g>
    <g transform="translate(232.58,184.92)">
      <g class="primitive">
        <text text-anchor="middle" dy="0.6em">220</text>
      </g>
    </g>
    <g transform="translate(251.91,184.92)">
      <g class="primitive">
        <text text-anchor="middle" dy="0.6em">240</text>
      </g>
    </g>
    <g transform="translate(271.24,184.92)">
      <g class="primitive">
        <text text-anchor="middle" dy="0.6em">260</text>
      </g>
    </g>
  </g>
  <g class="guide colorkey" id="img-5b5fa23a-4">
    <g fill="#4C404B" font-size="2.82" font-family="'PT Sans','Helvetica Neue','Helvetica',sans-serif" id="img-5b5fa23a-5">
      <g transform="translate(277.87,87.95)" id="img-5b5fa23a-6">
        <g class="primitive">
          <text dy="0.35em">LoopVectorization</text>
        </g>
      </g>
      <g transform="translate(277.87,91.57)" id="img-5b5fa23a-7">
        <g class="primitive">
          <text dy="0.35em">Julia</text>
        </g>
      </g>
      <g transform="translate(277.87,95.2)" id="img-5b5fa23a-8">
        <g class="primitive">
          <text dy="0.35em">Clang</text>
        </g>
      </g>
      <g transform="translate(277.87,98.83)" id="img-5b5fa23a-9">
        <g class="primitive">
          <text dy="0.35em">GFortran</text>
        </g>
      </g>
      <g transform="translate(277.87,102.45)" id="img-5b5fa23a-10">
        <g class="primitive">
          <text dy="0.35em">icc</text>
        </g>
      </g>
      <g transform="translate(277.87,106.08)" id="img-5b5fa23a-11">
        <g class="primitive">
          <text dy="0.35em">ifort</text>
        </g>
      </g>
    </g>
    <g stroke-width="0.3" id="img-5b5fa23a-12">
      <g stroke="#FFFFFF" fill-opacity="1" fill="#FC93C0" id="img-5b5fa23a-13">
        <g transform="translate(275.05,106.08)" id="img-5b5fa23a-14">
          <circle cx="0" cy="0" r="0.9" class="primitive"/>
        </g>
      </g>
      <g stroke="#FFFFFF" fill-opacity="1" fill="#EF54F2" id="img-5b5fa23a-15">
        <g transform="translate(275.05,102.45)" id="img-5b5fa23a-16">
          <circle cx="0" cy="0" r="0.9" class="primitive"/>
        </g>
      </g>
      <g stroke="#FFFFFF" fill-opacity="1" fill="#B341FB" id="img-5b5fa23a-17">
        <g transform="translate(275.05,98.83)" id="img-5b5fa23a-18">
          <circle cx="0" cy="0" r="0.9" class="primitive"/>
        </g>
      </g>
      <g stroke="#FFFFFF" fill-opacity="1" fill="#732CF8" id="img-5b5fa23a-19">
        <g transform="translate(275.05,95.2)" id="img-5b5fa23a-20">
          <circle cx="0" cy="0" r="0.9" class="primitive"/>
        </g>
      </g>
      <g stroke="#FFFFFF" fill-opacity="1" fill="#FF0000" id="img-5b5fa23a-21">
        <g transform="translate(275.05,91.57)" id="img-5b5fa23a-22">
          <circle cx="0" cy="0" r="0.9" class="primitive"/>
        </g>
      </g>
      <g stroke="#FFFFFF" fill-opacity="1" fill="#000000" id="img-5b5fa23a-23">
        <g transform="translate(275.05,87.95)" id="img-5b5fa23a-24">
          <circle cx="0" cy="0" r="0.9" class="primitive"/>
        </g>
      </g>
    </g>
    <g fill="#362A35" font-size="3.88" font-family="'PT Sans','Helvetica Neue','Helvetica',sans-serif" stroke="#000000" stroke-opacity="0.000" id="img-5b5fa23a-25">
      <g transform="translate(274.24,84.63)" id="img-5b5fa23a-26">
        <g class="primitive">
          <text dy="-0em">Methods</text>
        </g>
      </g>
    </g>
  </g>
  <g clip-path="url(#img-5b5fa23a-27)">
    <g id="img-5b5fa23a-28">
      <g pointer-events="visible" stroke-width="0.3" fill="#000000" fill-opacity="0.000" stroke="#000000" stroke-opacity="0.000" class="guide background" id="img-5b5fa23a-29">
        <g transform="translate(145.6,94.46)" id="img-5b5fa23a-30">
          <path d="M-127.64,-89.46 L127.64,-89.46 127.64,89.46 -127.64,89.46  z" class="primitive"/>
        </g>
      </g>
      <g class="guide ygridlines xfixed" stroke-dasharray="0.5,0.5" stroke-width="0.2" stroke="#D0D0E0" id="img-5b5fa23a-31">
        <g transform="translate(145.6,181.91)" id="img-5b5fa23a-32">
          <path fill="none" d="M-127.64,0 L127.64,0 " class="primitive"/>
        </g>
        <g transform="translate(145.6,153.11)" id="img-5b5fa23a-33">
          <path fill="none" d="M-127.64,0 L127.64,0 " class="primitive"/>
        </g>
        <g transform="translate(145.6,124.3)" id="img-5b5fa23a-34">
          <path fill="none" d="M-127.64,0 L127.64,0 " class="primitive"/>
        </g>
        <g transform="translate(145.6,95.49)" id="img-5b5fa23a-35">
          <path fill="none" d="M-127.64,0 L127.64,0 " class="primitive"/>
        </g>
        <g transform="translate(145.6,66.68)" id="img-5b5fa23a-36">
          <path fill="none" d="M-127.64,0 L127.64,0 " class="primitive"/>
        </g>
        <g transform="translate(145.6,37.87)" id="img-5b5fa23a-37">
          <path fill="none" d="M-127.64,0 L127.64,0 " class="primitive"/>
        </g>
        <g transform="translate(145.6,9.07)" id="img-5b5fa23a-38">
          <path fill="none" d="M-127.64,0 L127.64,0 " class="primitive"/>
        </g>
      </g>
      <g class="guide xgridlines yfixed" stroke-dasharray="0.5,0.5" stroke-width="0.2" stroke="#D0D0E0" id="img-5b5fa23a-39">
        <g transform="translate(19.96,94.46)" id="img-5b5fa23a-40">
          <path fill="none" d="M0,-89.46 L0,89.46 " class="primitive"/>
        </g>
        <g transform="translate(39.29,94.46)" id="img-5b5fa23a-41">
          <path fill="none" d="M0,-89.46 L0,89.46 " class="primitive"/>
        </g>
        <g transform="translate(58.62,94.46)" id="img-5b5fa23a-42">
          <path fill="none" d="M0,-89.46 L0,89.46 " class="primitive"/>
        </g>
        <g transform="translate(77.95,94.46)" id="img-5b5fa23a-43">
          <path fill="none" d="M0,-89.46 L0,89.46 " class="primitive"/>
        </g>
        <g transform="translate(97.28,94.46)" id="img-5b5fa23a-44">
          <path fill="none" d="M0,-89.46 L0,89.46 " class="primitive"/>
        </g>
        <g transform="translate(116.61,94.46)" id="img-5b5fa23a-45">
          <path fill="none" d="M0,-89.46 L0,89.46 " class="primitive"/>
        </g>
        <g transform="translate(135.93,94.46)" id="img-5b5fa23a-46">
          <path fill="none" d="M0,-89.46 L0,89.46 " class="primitive"/>
        </g>
        <g transform="translate(155.26,94.46)" id="img-5b5fa23a-47">
          <path fill="none" d="M0,-89.46 L0,89.46 " class="primitive"/>
        </g>
        <g transform="translate(174.59,94.46)" id="img-5b5fa23a-48">
          <path fill="none" d="M0,-89.46 L0,89.46 " class="primitive"/>
        </g>
        <g transform="translate(193.92,94.46)" id="img-5b5fa23a-49">
          <path fill="none" d="M0,-89.46 L0,89.46 " class="primitive"/>
        </g>
        <g transform="translate(213.25,94.46)" id="img-5b5fa23a-50">
          <path fill="none" d="M0,-89.46 L0,89.46 " class="primitive"/>
        </g>
        <g transform="translate(232.58,94.46)" id="img-5b5fa23a-51">
          <path fill="none" d="M0,-89.46 L0,89.46 " class="primitive"/>
        </g>
        <g transform="translate(251.91,94.46)" id="img-5b5fa23a-52">
          <path fill="none" d="M0,-89.46 L0,89.46 " class="primitive"/>
        </g>
        <g transform="translate(271.24,94.46)" id="img-5b5fa23a-53">
          <path fill="none" d="M0,-89.46 L0,89.46 " class="primitive"/>
        </g>
      </g>
      <g class="plotpanel" id="img-5b5fa23a-54">
        <metadata>
          <boundingbox value="17.958333333333343mm 5.0mm 255.2816666666666mm 178.915mm"/>
          <unitbox value="-2.0693909225371265 61.41153822432915 264.1387818450742 -62.105787306931866"/>
        </metadata>
        <g stroke-width="0.3" fill="#000000" fill-opacity="0.000" class="geometry" id="img-5b5fa23a-55">
          <g class="color_RGB{Float64}(0.98704,0.57494,0.75486)" stroke-dasharray="none" stroke="#FC93C0" id="img-5b5fa23a-56">
            <g transform="translate(144.63,176.86)" id="img-5b5fa23a-57">
              <path fill="none" d="M-122.74,1.1 L-121.77,0.5 -120.81,0.48 -119.84,0.23 -118.88,0.1 -117.91,0.05 -116.94,0.24 -115.98,0.3 -115.01,0.34 -114.04,0.08 -113.08,0.02 -112.11,0.01 -111.14,-0.03 -110.18,-0.04 -109.21,-0.05 -108.24,0.19 -107.28,0.19 -106.31,-0.1 -105.35,0.18 -104.38,-0.13 -103.41,-0.11 -102.45,0.14 -101.48,0.14 -100.51,0.13 -99.55,0.13 -98.58,0.13 -97.61,0.12 -96.65,0.12 -95.68,0.13 -94.71,0.11 -93.75,-0.14 -92.78,-0.16 -91.81,-0.17 -90.85,-0.18 -89.88,-0.18 -88.92,-0.2 -87.95,-0.19 -86.98,-0.18 -86.02,-0.19 -85.05,-0.17 -84.08,-0.18 -83.12,0.08 -82.15,0.08 -81.18,0.07 -80.22,0.07 -79.25,0.08 -78.28,0.07 -77.32,0.07 -76.35,-0.21 -75.38,0.06 -74.42,0.07 -73.45,-0.22 -72.49,0.08 -71.52,0.07 -70.55,0.06 -69.59,0.06 -68.62,0.06 -67.65,0.06 -66.69,0.06 -65.72,0.06 -64.75,0.07 -63.79,0.06 -62.82,0.07 -61.85,0.05 -60.89,0.05 -59.92,0.07 -58.95,0.05 -57.99,0.05 -57.02,0.05 -56.06,0.06 -55.09,0.05 -54.12,0.05 -53.16,0.05 -52.19,0.04 -51.22,0.05 -50.26,0.04 -49.29,0.05 -48.32,0.04 -47.36,0.05 -46.39,0.04 -45.42,0.04 -44.46,0.04 -43.49,0.04 -42.52,0.04 -41.56,0.05 -40.59,0.04 -39.63,0.04 -38.66,0.04 -37.69,0.04 -36.73,0.05 -35.76,0.04 -34.79,0.04 -33.83,0.04 -32.86,0.04 -31.89,0.05 -30.93,0.04 -29.96,0.04 -28.99,0.04 -28.03,0.04 -27.06,0.03 -26.09,0.04 -25.13,0.04 -24.16,0.03 -23.2,0.03 -22.23,0.04 -21.26,0.03 -20.3,0.04 -19.33,0.03 -18.36,0.04 -17.4,0.04 -16.43,0.04 -15.46,0.03 -14.5,0.03 -13.53,0.03 -12.56,0.03 -11.6,0.03 -10.63,0.03 -9.66,0.03 -8.7,0.03 -7.73,0.04 -6.77,0.04 -5.8,0.03 -4.83,0.03 -3.87,0.04 -2.9,0.04 -1.93,0.03 -0.97,0.04 0,0.04 0.97,0.04 1.93,0.04 2.9,0.04 3.87,0.04 4.83,0.04 5.8,0.04 6.77,0.04 7.73,0.03 8.7,0.04 9.66,0.04 10.63,0.04 11.6,0.04 12.56,0.04 13.53,0.04 14.5,0.04 15.46,0.04 16.43,0.04 17.4,0.04 18.36,0.03 19.33,0.03 20.3,0.03 21.26,0.03 22.23,0.04 23.2,0.03 24.16,0.03 25.13,0.04 26.09,0.03 27.06,0.03 28.03,0.04 28.99,0.03 29.96,0.03 30.93,0.03 31.89,0.03 32.86,0.03 33.83,0.03 34.79,0.03 35.76,0.04 36.73,0.03 37.69,0.03 38.66,0.04 39.63,0.03 40.59,0.03 41.56,0.03 42.52,0.03 43.49,0.04 44.46,0.03 45.42,0.04 46.39,0.03 47.36,0.03 48.32,0.03 49.29,0.03 50.26,0.03 51.22,0.03 52.19,0.03 53.16,0.03 54.12,0.03 55.09,0.03 56.06,0.03 57.02,0.03 57.99,0.03 58.95,0.03 59.92,0.03 60.89,0.03 61.85,0.04 62.82,0.04 63.79,0.04 64.75,0.03 65.72,0.03 66.69,0.03 67.65,0.03 68.62,0.03 69.59,0.04 70.55,0.04 71.52,0.04 72.49,0.04 73.45,0.03 74.42,-0.14 75.38,0.03 76.35,0.04 77.32,-0.05 78.28,0.04 79.25,-0.13 80.22,-0.11 81.18,-0.02 82.15,-0.16 83.12,-0.15 84.08,-0.17 85.05,-0.17 86.02,-0.17 86.98,-0.16 87.95,-0.17 88.92,-0.17 89.88,-0.17 90.85,-0.17 91.81,-0.18 92.78,-0.17 93.75,-0.26 94.71,-0.23 95.68,-0.18 96.65,-0.25 97.61,-0.25 98.58,-0.24 99.55,-0.24 100.51,-0.26 101.48,-0.26 102.45,-0.16 103.41,-0.25 104.38,-0.22 105.35,-0.25 106.31,-0.25 107.28,-0.22 108.24,-0.2 109.21,-0.24 110.18,-0.22 111.14,-0.23 112.11,-0.2 113.08,-0.23 114.04,-0.21 115.01,-0.2 115.98,-0.17 116.94,-0.17 117.91,-0.16 118.88,-0.16 119.84,-0.14 120.81,-0.26 121.77,-0.21 122.74,-0.09 " class="primitive"/>
            </g>
          </g>
        </g>
        <g stroke-width="0.3" fill="#000000" fill-opacity="0.000" class="geometry" id="img-5b5fa23a-58">
          <g class="color_RGB{Float64}(0.9360050000000001,0.3313625,0.949375)" stroke-dasharray="none" stroke="#EF54F2" id="img-5b5fa23a-59">
            <g transform="translate(144.63,177.47)" id="img-5b5fa23a-60">
              <path fill="none" d="M-122.74,1.92 L-121.77,1.57 -120.81,1.19 -119.84,0.93 -118.88,0.75 -117.91,0.92 -116.94,0.78 -115.98,0.67 -115.01,0.82 -114.04,1.01 -113.08,0.8 -112.11,0.43 -111.14,0.4 -110.18,0.62 -109.21,0.6 -108.24,0.61 -107.28,0.56 -106.31,0.53 -105.35,0.47 -104.38,0.47 -103.41,0.43 -102.45,0.4 -101.48,0.34 -100.51,0.35 -99.55,0.33 -98.58,0.3 -97.61,0.29 -96.65,0.24 -95.68,0.25 -94.71,0.23 -93.75,0.2 -92.78,0.3 -91.81,0.23 -90.85,0.26 -89.88,0.04 -88.92,0.23 -87.95,0.19 -86.98,0.21 -86.02,-0.06 -85.05,0.19 -84.08,0.14 -83.12,0.17 -82.15,0.09 -81.18,0.15 -80.22,0.1 -79.25,0.13 -78.28,0.06 -77.32,0.12 -76.35,0.07 -75.38,0.09 -74.42,0.04 -73.45,0.09 -72.49,0.05 -71.52,0.08 -70.55,0.01 -69.59,0.06 -68.62,0.03 -67.65,0.05 -66.69,-0 -65.72,0.04 -64.75,-0 -63.79,0.03 -62.82,-0.02 -61.85,0.02 -60.89,0 -59.92,0.02 -58.95,-0.03 -57.99,0.02 -57.02,-0.02 -56.06,-0 -55.09,-0.04 -54.12,-0 -53.16,-0.03 -52.19,-0.01 -51.22,-0.05 -50.26,-0.02 -49.29,-0.05 -48.32,-0.02 -47.36,-0.07 -46.39,-0.03 -45.42,-0.05 -44.46,-0.04 -43.49,-0.08 -42.52,-0.05 -41.56,-0.07 -40.59,-0.05 -39.63,-0.09 -38.66,-0.05 -37.69,-0.08 -36.73,-0.06 -35.76,-0.1 -34.79,-0.06 -33.83,-0.09 -32.86,-0.07 -31.89,-0.12 -30.93,-0.07 -29.96,-0.11 -28.99,-0.09 -28.03,-0.13 -27.06,-0.09 -26.09,-0.11 -25.13,-0.1 -24.16,-0.14 -23.2,-0.1 -22.23,-0.12 -21.26,-0.1 -20.3,-0.14 -19.33,-0.11 -18.36,-0.13 -17.4,-0.11 -16.43,-0.15 -15.46,-0.11 -14.5,-0.14 -13.53,-0.12 -12.56,-0.15 -11.6,-0.12 -10.63,-0.14 -9.66,-0.12 -8.7,-0.15 -7.73,-0.13 -6.77,-0.14 -5.8,-0.13 -4.83,-0.16 -3.87,-0.13 -2.9,-0.15 -1.93,-0.13 -0.97,-0.16 0,-0.02 0.97,-0.13 1.93,-0.1 2.9,-0.13 3.87,-0.1 4.83,-0.12 5.8,-0.06 6.77,-0.08 7.73,-0.04 8.7,-0.06 9.66,-0.06 10.63,-0.1 11.6,-0.05 12.56,-0.06 13.53,-0.05 14.5,-0.08 15.46,-0.04 16.43,-0.05 17.4,-0.05 18.36,-0.07 19.33,-0.05 20.3,-0.06 21.26,-0.06 22.23,-0.08 23.2,-0.06 24.16,-0.07 25.13,-0.06 26.09,-0.09 27.06,-0.07 28.03,-0.08 28.99,-0.07 29.96,-0.1 30.93,-0.06 31.89,-0.08 32.86,-0.07 33.83,-0.1 34.79,-0.07 35.76,-0.08 36.73,-0.07 37.69,-0.1 38.66,-0.08 39.63,-0.09 40.59,-0.08 41.56,-0.11 42.52,-0.08 43.49,-0.1 44.46,-0.08 45.42,-0.2 46.39,-0.08 47.36,-0.1 48.32,-0.08 49.29,-0.12 50.26,-0.09 51.22,-0.1 52.19,-0.09 53.16,-0.12 54.12,-0.09 55.09,-0.1 56.06,-0.09 57.02,-0.12 57.99,-0.1 58.95,-0.11 59.92,-0.1 60.89,-0.13 61.85,-0.11 62.82,-0.12 63.79,-0.1 64.75,-0.13 65.72,-0.1 66.69,-0.12 67.65,-0.11 68.62,-0.14 69.59,-0.11 70.55,-0.13 71.52,-0.11 72.49,-0.14 73.45,-0.11 74.42,-0.13 75.38,-0.11 76.35,-0.27 77.32,-0.26 78.28,-0.29 79.25,-0.29 80.22,-0.31 81.18,-0.3 82.15,-0.31 83.12,-0.3 84.08,-0.33 85.05,-0.31 86.02,-0.33 86.98,-0.31 87.95,-0.34 88.92,-0.31 89.88,-0.33 90.85,-0.32 91.81,-0.34 92.78,-0.31 93.75,-0.33 94.71,-0.31 95.68,-0.34 96.65,-0.31 97.61,-0.32 98.58,-0.31 99.55,-0.35 100.51,-0.22 101.48,-0.21 102.45,-0.09 103.41,-0.1 104.38,-0.04 105.35,-0.06 106.31,-0.05 107.28,-0.09 108.24,-0.06 109.21,-0.06 110.18,-0.05 111.14,-0.1 112.11,-0.07 113.08,-0.08 114.04,-0.07 115.01,-0.12 115.98,-0.07 116.94,-0.1 117.91,-0.08 118.88,-0.11 119.84,-0.09 120.81,-0.1 121.77,-0.09 122.74,-0.13 " class="primitive"/>
            </g>
          </g>
        </g>
        <g stroke-width="0.3" fill="#000000" fill-opacity="0.000" class="geometry" id="img-5b5fa23a-61">
          <g class="color_RGB{Float64}(0.7018800000000001,0.25504499999999997,0.9848349999999999)" stroke-dasharray="none" stroke="#B341FB" id="img-5b5fa23a-62">
            <g transform="translate(144.63,176.01)" id="img-5b5fa23a-63">
              <path fill="none" d="M-122.74,1.1 L-121.77,0.48 -120.81,0.49 -119.84,0.32 -118.88,0.37 -117.91,0.02 -116.94,0.03 -115.98,0.31 -115.01,0.53 -114.04,0.19 -113.08,0.12 -112.11,0.07 -111.14,0.04 -110.18,0.32 -109.21,0.31 -108.24,-0.03 -107.28,0.13 -106.31,0.18 -105.35,0.24 -104.38,0.19 -103.41,0.21 -102.45,0.09 -101.48,0.18 -100.51,-0.14 -99.55,-0.15 -98.58,-0.02 -97.61,-0.18 -96.65,-0.02 -95.68,0.14 -94.71,0.06 -93.75,0.13 -92.78,0.13 -91.81,-0.13 -90.85,-0.19 -89.88,0.13 -88.92,-0.21 -87.95,-0.21 -86.98,-0.23 -86.02,-0.23 -85.05,-0.19 -84.08,-0.23 -83.12,-0.23 -82.15,-0.25 -81.18,-0.24 -80.22,-0.25 -79.25,0.09 -78.28,-0.24 -77.32,0.07 -76.35,0.08 -75.38,0.07 -74.42,0.07 -73.45,0.07 -72.49,-0.27 -71.52,0.07 -70.55,0.07 -69.59,-0.28 -68.62,0.06 -67.65,0.06 -66.69,-0.28 -65.72,0.06 -64.75,0.07 -63.79,0.05 -62.82,0.06 -61.85,0.06 -60.89,0.05 -59.92,-0.28 -58.95,0.05 -57.99,0.05 -57.02,0.05 -56.06,0.04 -55.09,0.04 -54.12,0.04 -53.16,0.04 -52.19,0.03 -51.22,0.04 -50.26,0.04 -49.29,0.04 -48.32,0.03 -47.36,0.04 -46.39,0.04 -45.42,0.03 -44.46,0.03 -43.49,0.03 -42.52,0.03 -41.56,0.03 -40.59,0.03 -39.63,0.03 -38.66,0.03 -37.69,0.03 -36.73,0.03 -35.76,0.03 -34.79,0.03 -33.83,0.03 -32.86,0.02 -31.89,0.03 -30.93,0.02 -29.96,0.02 -28.99,0.02 -28.03,0.02 -27.06,0.02 -26.09,0.03 -25.13,0.02 -24.16,0.02 -23.2,0.02 -22.23,0.02 -21.26,0.02 -20.3,0.02 -19.33,0.02 -18.36,0.02 -17.4,0.02 -16.43,0.02 -15.46,0.02 -14.5,0.02 -13.53,0.02 -12.56,0.02 -11.6,0.02 -10.63,0.01 -9.66,0.02 -8.7,0.01 -7.73,0.01 -6.77,0.01 -5.8,0.02 -4.83,0.01 -3.87,0.01 -2.9,0.01 -1.93,0.01 -0.97,0.01 0,0.01 0.97,0.01 1.93,0.01 2.9,0.01 3.87,0.01 4.83,0.01 5.8,0.01 6.77,0.01 7.73,0.01 8.7,0.01 9.66,0.01 10.63,0.01 11.6,0.01 12.56,0.01 13.53,0.01 14.5,0.01 15.46,0.01 16.43,0.01 17.4,0.01 18.36,0.01 19.33,0.01 20.3,0.01 21.26,0.01 22.23,0.01 23.2,0.01 24.16,0.01 25.13,0 26.09,0.01 27.06,0.01 28.03,0.01 28.99,0.01 29.96,0 30.93,0.01 31.89,0.01 32.86,0 33.83,0.01 34.79,0 35.76,0.01 36.73,0 37.69,0.01 38.66,0.01 39.63,0.01 40.59,0 41.56,0 42.52,0 43.49,0 44.46,0 45.42,0 46.39,0 47.36,0 48.32,0 49.29,0 50.26,0 51.22,0 52.19,0 53.16,0 54.12,0.01 55.09,0 56.06,0 57.02,0 57.99,0 58.95,0 59.92,0 60.89,0 61.85,0 62.82,0 63.79,0 64.75,0 65.72,0 66.69,0 67.65,0 68.62,-0 69.59,0 70.55,0 71.52,0 72.49,0 73.45,-0 74.42,-0 75.38,0 76.35,0 77.32,-0 78.28,0 79.25,0 80.22,-0 81.18,0 82.15,-0 83.12,0.01 84.08,-0 85.05,0 86.02,-0 86.98,-0.15 87.95,0.01 88.92,0 89.88,0 90.85,-0 91.81,-0 92.78,-0.05 93.75,-0.03 94.71,0.01 95.68,0 96.65,0.01 97.61,0 98.58,0.02 99.55,-0.17 100.51,0.01 101.48,0 102.45,0.03 103.41,-0.16 104.38,0.01 105.35,-0.07 106.31,0.01 107.28,-0.2 108.24,-0.22 109.21,-0.23 110.18,-0.23 111.14,-0.24 112.11,-0.23 113.08,-0.24 114.04,-0.24 115.01,-0.24 115.98,-0.24 116.94,-0.32 117.91,-0.33 118.88,-0.33 119.84,-0.33 120.81,-0.34 121.77,-0.35 122.74,-0.35 " class="primitive"/>
            </g>
          </g>
        </g>
        <g stroke-width="0.3" fill="#000000" fill-opacity="0.000" class="geometry" id="img-5b5fa23a-64">
          <g class="color_RGB{Float64}(0.45187999999999995,0.172285,0.9716199999999999)" stroke-dasharray="none" stroke="#732CF8" id="img-5b5fa23a-65">
            <g transform="translate(144.63,175.31)" id="img-5b5fa23a-66">
              <path fill="none" d="M-122.74,1.43 L-121.77,0.63 -120.81,0.67 -119.84,0.49 -118.88,0.98 -117.91,0.14 -116.94,0.93 -115.98,0.72 -115.01,0.51 -114.04,0.6 -113.08,0.42 -112.11,0.26 -111.14,0.29 -110.18,0.28 -109.21,0.5 -108.24,0.44 -107.28,0.35 -106.31,0.32 -105.35,0.38 -104.38,0.16 -103.41,0.05 -102.45,0.01 -101.48,0.19 -100.51,0.01 -99.55,0.16 -98.58,0.28 -97.61,0.09 -96.65,0.22 -95.68,0.08 -94.71,0.13 -93.75,0.24 -92.78,0.22 -91.81,0.23 -90.85,0.22 -89.88,0.05 -88.92,-0.05 -87.95,-0.06 -86.98,-0.13 -86.02,-0.09 -85.05,-0.08 -84.08,-0.11 -83.12,-0.12 -82.15,-0.11 -81.18,-0.13 -80.22,-0.13 -79.25,-0.11 -78.28,0.18 -77.32,-0.11 -76.35,0.13 -75.38,0.15 -74.42,0.14 -73.45,0.13 -72.49,0.21 -71.52,0.15 -70.55,0.15 -69.59,-0.14 -68.62,0.13 -67.65,0.12 -66.69,0.12 -65.72,-0.16 -64.75,0.14 -63.79,0.12 -62.82,0.13 -61.85,0.12 -60.89,0.14 -59.92,0.12 -58.95,0.12 -57.99,0.11 -57.02,0.11 -56.06,0.1 -55.09,0.04 -54.12,0.02 -53.16,0.05 -52.19,0.04 -51.22,0 -50.26,0.09 -49.29,0.1 -48.32,0.09 -47.36,0.1 -46.39,0.1 -45.42,0.08 -44.46,0.08 -43.49,0.09 -42.52,0.08 -41.56,0.09 -40.59,0.09 -39.63,0.08 -38.66,0.08 -37.69,0.08 -36.73,0.08 -35.76,-0.04 -34.79,0.07 -33.83,0.07 -32.86,0.04 -31.89,0.08 -30.93,-0.13 -29.96,0.05 -28.99,0.06 -28.03,0.08 -27.06,0.07 -26.09,0.1 -25.13,0.07 -24.16,0.06 -23.2,0.07 -22.23,0.08 -21.26,-0.03 -20.3,0.08 -19.33,0.06 -18.36,0.05 -17.4,0.06 -16.43,-0.02 -15.46,-0.06 -14.5,0.07 -13.53,-0.09 -12.56,0.06 -11.6,0.06 -10.63,0.05 -9.66,0.06 -8.7,0.05 -7.73,0.03 -6.77,0.05 -5.8,0.06 -4.83,0.05 -3.87,-0.07 -2.9,0.04 -1.93,-0.06 -0.97,-0.04 0,0.04 0.97,-0.15 1.93,-0.08 2.9,-0.18 3.87,0.05 4.83,-0.01 5.8,-0 6.77,-0.11 7.73,0.04 8.7,0.05 9.66,-0.1 10.63,0.05 11.6,0.05 12.56,-0.02 13.53,0.04 14.5,-0.12 15.46,-0.1 16.43,-0.24 17.4,0.05 18.36,0.04 19.33,0.04 20.3,-0.08 21.26,0.04 22.23,-0.09 23.2,0.04 24.16,0.04 25.13,0.02 26.09,-0.16 27.06,-0.16 28.03,-0.21 28.99,-0.16 29.96,-0.17 30.93,-0.22 31.89,-0.17 32.86,-0.07 33.83,-0.05 34.79,0.03 35.76,0.01 36.73,0.02 37.69,-0.04 38.66,-0.14 39.63,-0.01 40.59,-0.19 41.56,-0.06 42.52,-0.24 43.49,-0.1 44.46,-0.25 45.42,-0.08 46.39,-0.16 47.36,-0.16 48.32,-0.1 49.29,-0.13 50.26,-0.15 51.22,-0.08 52.19,-0 53.16,-0.17 54.12,-0.06 55.09,-0.26 56.06,0.01 57.02,-0.24 57.99,-0.26 58.95,-0.25 59.92,-0.02 60.89,-0.04 61.85,-0.24 62.82,-0.14 63.79,-0.15 64.75,-0.09 65.72,-0.12 66.69,-0.23 67.65,-0.09 68.62,-0.22 69.59,-0.09 70.55,-0.15 71.52,-0.24 72.49,-0.24 73.45,-0.14 74.42,-0.13 75.38,-0.28 76.35,-0.05 77.32,-0.23 78.28,-0.26 79.25,-0.28 80.22,-0.11 81.18,-0.13 82.15,-0.1 83.12,-0.24 84.08,-0.25 85.05,-0.26 86.02,-0.15 86.98,-0.22 87.95,-0.28 88.92,-0.26 89.88,-0.22 90.85,-0.15 91.81,-0.25 92.78,-0.22 93.75,-0.23 94.71,-0.09 95.68,-0.19 96.65,-0.15 97.61,-0.28 98.58,-0.13 99.55,-0.19 100.51,-0.19 101.48,-0.17 102.45,-0.2 103.41,-0.24 104.38,-0.06 105.35,-0.04 106.31,-0.1 107.28,-0.27 108.24,-0.02 109.21,-0.18 110.18,-0.27 111.14,-0.21 112.11,-0.04 113.08,-0.21 114.04,-0.11 115.01,-0.02 115.98,-0.09 116.94,-0.1 117.91,-0.19 118.88,-0.14 119.84,-0.24 120.81,-0.28 121.77,-0.31 122.74,-0.23 " class="primitive"/>
            </g>
          </g>
        </g>
        <g stroke-width="0.3" fill="#000000" fill-opacity="0.000" class="geometry" id="img-5b5fa23a-67">
          <g class="color_RGB{Float64}(1.0,0.0,0.0)" stroke-dasharray="none" stroke="#FF0000" id="img-5b5fa23a-68">
            <g transform="translate(144.63,176.3)" id="img-5b5fa23a-69">
              <path fill="none" d="M-122.74,1.33 L-121.77,0.49 -120.81,0.62 -119.84,0.07 -118.88,-0.09 -117.91,-0.01 -116.94,0.04 -115.98,0.18 -115.01,0.63 -114.04,0.38 -113.08,-0.03 -112.11,-0.07 -111.14,0.3 -110.18,0.97 -109.21,0.92 -108.24,0.31 -107.28,0.93 -106.31,0.27 -105.35,0.26 -104.38,0.31 -103.41,0.83 -102.45,0.69 -101.48,0.09 -100.51,0.22 -99.55,0.1 -98.58,0.75 -97.61,0.19 -96.65,0.82 -95.68,0.75 -94.71,0.11 -93.75,-0.23 -92.78,-0.13 -91.81,-0.15 -90.85,0.01 -89.88,-0.43 -88.92,-0.45 -87.95,-0.2 -86.98,-0.47 -86.02,-0.15 -85.05,0.65 -84.08,0.82 -83.12,-0.14 -82.15,-0.19 -81.18,-0.24 -80.22,0.77 -79.25,0.56 -78.28,-0.1 -77.32,-0.52 -76.35,-0.08 -75.38,0.11 -74.42,-0.2 -73.45,0.1 -72.49,-0.12 -71.52,-0.08 -70.55,-0.19 -69.59,-0.27 -68.62,-0.21 -67.65,-0.18 -66.69,-0.21 -65.72,0.77 -64.75,0.11 -63.79,-0.22 -62.82,0.71 -61.85,0.09 -60.89,0.81 -59.92,0.79 -58.95,-0.16 -57.99,0.09 -57.02,0.09 -56.06,0.08 -55.09,-0.31 -54.12,-0.23 -53.16,-0.16 -52.19,-0.16 -51.22,-0.23 -50.26,0.08 -49.29,0.08 -48.32,-0.23 -47.36,0.67 -46.39,0.08 -45.42,0.71 -44.46,-0.25 -43.49,0.73 -42.52,0.07 -41.56,0.07 -40.59,0.76 -39.63,-0.24 -38.66,-0.33 -37.69,-0.26 -36.73,-0.18 -35.76,-0.2 -34.79,-0.25 -33.83,-0.22 -32.86,0.67 -31.89,-0.22 -30.93,0.65 -29.96,0.06 -28.99,-0.37 -28.03,-0.36 -27.06,-0.39 -26.09,0.75 -25.13,0.62 -24.16,-0.24 -23.2,-0.13 -22.23,0.06 -21.26,0.05 -20.3,0.06 -19.33,0.05 -18.36,-0.33 -17.4,-0.23 -16.43,-0.27 -15.46,0.02 -14.5,-0.13 -13.53,0.67 -12.56,0.77 -11.6,-0.23 -10.63,-0.1 -9.66,-0.4 -8.7,-0.43 -7.73,-0.09 -6.77,0.77 -5.8,0.72 -4.83,-0.18 -3.87,-0.37 -2.9,-0.37 -1.93,-0.11 -0.97,-0.26 0,-0.3 0.97,-0.41 1.93,0.69 2.9,0.68 3.87,-0.42 4.83,-0.09 5.8,0.05 6.77,-0.26 7.73,-0.42 8.7,0.73 9.66,-0.12 10.63,-0.26 11.6,-0.01 12.56,0.02 13.53,0.66 14.5,-0.24 15.46,-0.22 16.43,-0.52 17.4,-0.41 18.36,-0.53 19.33,-0.2 20.3,-0.35 21.26,-0.27 22.23,-0.53 23.2,0.04 24.16,-0.17 25.13,-0.02 26.09,0.74 27.06,-0.34 28.03,-0.13 28.99,-0.15 29.96,0.67 30.93,-0.28 31.89,-0.19 32.86,0.64 33.83,0.58 34.79,-0.52 35.76,-0.49 36.73,0.64 37.69,0.76 38.66,0.65 39.63,-0.2 40.59,-0.03 41.56,-0.29 42.52,0.59 43.49,-0.14 44.46,-0.21 45.42,-0.44 46.39,0.04 47.36,-0.31 48.32,-0.54 49.29,-0.47 50.26,-0.35 51.22,0.04 52.19,-0.43 53.16,-0.54 54.12,-0.35 55.09,-0.2 56.06,0.67 57.02,-0.33 57.99,0.57 58.95,-0.19 59.92,-0.55 60.89,-0.17 61.85,-0.15 62.82,-0.5 63.79,-0.58 64.75,0.63 65.72,0.73 66.69,-0.04 67.65,-0.23 68.62,-0.09 69.59,-0.56 70.55,-0.55 71.52,0.68 72.49,-0.09 73.45,0.69 74.42,-0.37 75.38,-0.36 76.35,-0.34 77.32,-0.34 78.28,-0.49 79.25,-0.51 80.22,-0.58 81.18,-0.22 82.15,0.61 83.12,-0.25 84.08,0.57 85.05,-0.09 86.02,-0.58 86.98,-0.2 87.95,-0.56 88.92,0.58 89.88,-0.28 90.85,-0.33 91.81,-0.32 92.78,-0.51 93.75,-0.35 94.71,-0.5 95.68,0.53 96.65,-0.19 97.61,-0.54 98.58,-0.21 99.55,0.03 100.51,0.57 101.48,-0.2 102.45,-0.53 103.41,0.53 104.38,-0.21 105.35,-0.55 106.31,0.52 107.28,0.52 108.24,-0.22 109.21,-0.56 110.18,-0.36 111.14,-0.58 112.11,-0.55 113.08,-0.55 114.04,-0.55 115.01,-0.31 115.98,-0.31 116.94,0.52 117.91,-0.46 118.88,-0.46 119.84,-0.46 120.81,0.52 121.77,-0.31 122.74,-0.31 " class="primitive"/>
            </g>
          </g>
        </g>
        <g stroke-width="0.3" fill="#000000" fill-opacity="0.000" class="geometry" id="img-5b5fa23a-70">
          <g class="color_RGB{Float64}(0.0,0.0,0.0)" stroke-dasharray="none" stroke="#000000" id="img-5b5fa23a-71">
            <g transform="translate(144.63,49.23)" id="img-5b5fa23a-72">
              <path fill="none" d="M-122.74,125.85 L-121.77,117.55 -120.81,108.46 -119.84,97.27 -118.88,84.22 -117.91,70.47 -116.94,55.41 -115.98,76.92 -115.01,77.19 -114.04,69.66 -113.08,60.27 -112.11,50.9 -111.14,32.05 -110.18,28.09 -109.21,10.01 -108.24,38.63 -107.28,25.36 -106.31,31.91 -105.35,23.27 -104.38,18.32 -103.41,4.05 -102.45,1.83 -101.48,-24.99 -100.51,12.93 -99.55,5.03 -98.58,1.52 -97.61,1.08 -96.65,0.29 -95.68,-12.13 -94.71,-21.32 -93.75,-42.15 -92.78,-2.77 -91.81,-10.51 -90.85,-12.57 -89.88,-22.06 -88.92,-19.04 -87.95,-25.17 -86.98,-22.55 -86.02,-42.06 -85.05,-3.32 -84.08,-10.2 -83.12,-19.96 -82.15,-21.47 -81.18,-20.44 -80.22,-15.17 -79.25,-7.71 -78.28,-23.26 -77.32,4.93 -76.35,8.91 -75.38,12.01 -74.42,-2.34 -73.45,-0.63 -72.49,-4.98 -71.52,3.85 -70.55,-20.5 -69.59,7.95 -68.62,2.51 -67.65,8.53 -66.69,-3.44 -65.72,8.76 -64.75,-2.4 -63.79,-7.11 -62.82,-19.74 -61.85,11.97 -60.89,8.86 -59.92,6.63 -58.95,-6.88 -57.99,2.3 -57.02,-3.75 -56.06,-4.32 -55.09,-37.75 -54.12,8.02 -53.16,2.84 -52.19,2.65 -51.22,-9.29 -50.26,1.38 -49.29,-5.46 -48.32,0.34 -47.36,-32.54 -46.39,7.36 -45.42,0.96 -44.46,3.46 -43.49,-9.89 -42.52,3.54 -41.56,-5.03 -40.59,2.77 -39.63,-36.07 -38.66,4.34 -37.69,-3.33 -36.73,3.66 -35.76,-10.49 -34.79,2.54 -33.83,-4.69 -32.86,-1.66 -31.89,-33.93 -30.93,4.75 -29.96,-5.96 -28.99,-0.78 -28.03,-7.97 -27.06,5.04 -26.09,-3.7 -25.13,1.3 -24.16,-38.48 -23.2,0.88 -22.23,-2.11 -21.26,2.57 -20.3,-10.81 -19.33,0.66 -18.36,-5.1 -17.4,-4.39 -16.43,-34.7 -15.46,3.56 -14.5,-2.58 -13.53,0.86 -12.56,-12.81 -11.6,-3.33 -10.63,-7.8 -9.66,-0.09 -8.7,-32.79 -7.73,3.24 -6.77,-3.53 -5.8,2.12 -4.83,-14.8 -3.87,-1.88 -2.9,-9.72 -1.93,0.84 -0.97,-26.1 0,9.32 0.97,-3.21 1.93,1.13 2.9,-10.88 3.87,-2.91 4.83,-11.03 5.8,-2.16 6.77,-40.14 7.73,0.62 8.7,-4.13 9.66,-0.42 10.63,-14.93 11.6,0.34 12.56,-8.51 13.53,-5.64 14.5,-40.5 15.46,2.51 16.43,0.71 17.4,3.19 18.36,-8.39 19.33,-0.02 20.3,-8.76 21.26,-2.62 22.23,-42.23 23.2,3.59 24.16,-3.31 25.13,-0.74 26.09,-14.54 27.06,-1 28.03,-9.07 28.99,-2.38 29.96,-39.41 30.93,5.28 31.89,-7.62 32.86,2.81 33.83,-11.64 34.79,-2.53 35.76,-8.47 36.73,2.11 37.69,-36.47 38.66,5.29 39.63,-0.77 40.59,5.56 41.56,4.65 42.52,3.07 43.49,-3.17 44.46,-2.29 45.42,-36.94 46.39,2.14 47.36,-5.73 48.32,0.34 49.29,-11.16 50.26,-1.69 51.22,-5.67 52.19,-2.37 53.16,-37.67 54.12,3.51 55.09,-4.7 56.06,1.16 57.02,-11.83 57.99,-3.32 58.95,-6.82 59.92,0.52 60.89,-38.67 61.85,9.78 62.82,-6.49 63.79,3.52 64.75,-11.15 65.72,-2.56 66.69,-10.4 67.65,0.38 68.62,-39.13 69.59,-0.43 70.55,-4.31 71.52,1.4 72.49,-8.55 73.45,4.63 74.42,-0.87 75.38,2 76.35,-39.24 77.32,4.69 78.28,-2.83 79.25,2.36 80.22,-10.63 81.18,0.34 82.15,-9.45 83.12,4.99 84.08,-41.97 85.05,2.05 86.02,-5.33 86.98,7.49 87.95,-5.86 88.92,3.1 89.88,-1.91 90.85,0.62 91.81,-38.89 92.78,4.25 93.75,1.8 94.71,12.83 95.68,-10.02 96.65,7.69 97.61,-2.34 98.58,12.51 99.55,-33.34 100.51,8.5 101.48,0.96 102.45,17.7 103.41,-3.67 104.38,14.06 105.35,-2.27 106.31,5.7 107.28,-27.38 108.24,10.58 109.21,1.24 110.18,5.12 111.14,-1.64 112.11,10.5 113.08,2.77 114.04,6.52 115.01,-21.76 115.98,11.07 116.94,9.93 117.91,12.54 118.88,5.61 119.84,20 120.81,19.99 121.77,30.41 122.74,10.44 " class="primitive"/>
            </g>
          </g>
        </g>
      </g>
    </g>
  </g>
  <g class="guide ylabels" font-size="2.82" font-family="'PT Sans Caption','Helvetica Neue','Helvetica',sans-serif" fill="#6C606B" id="img-5b5fa23a-73">
    <g transform="translate(16.96,181.91)" id="img-5b5fa23a-74">
      <g class="primitive">
        <text text-anchor="end" dy="0.35em">0</text>
      </g>
    </g>
    <g transform="translate(16.96,153.11)" id="img-5b5fa23a-75">
      <g class="primitive">
        <text text-anchor="end" dy="0.35em">10</text>
      </g>
    </g>
    <g transform="translate(16.96,124.3)" id="img-5b5fa23a-76">
      <g class="primitive">
        <text text-anchor="end" dy="0.35em">20</text>
      </g>
    </g>
    <g transform="translate(16.96,95.49)" id="img-5b5fa23a-77">
      <g class="primitive">
        <text text-anchor="end" dy="0.35em">30</text>
      </g>
    </g>
    <g transform="translate(16.96,66.68)" id="img-5b5fa23a-78">
      <g class="primitive">
        <text text-anchor="end" dy="0.35em">40</text>
      </g>
    </g>
    <g transform="translate(16.96,37.87)" id="img-5b5fa23a-79">
      <g class="primitive">
        <text text-anchor="end" dy="0.35em">50</text>
      </g>
    </g>
    <g transform="translate(16.96,9.07)" id="img-5b5fa23a-80">
      <g class="primitive">
        <text text-anchor="end" dy="0.35em">60</text>
      </g>
    </g>
  </g>
  <g font-size="3.88" font-family="'PT Sans','Helvetica Neue','Helvetica',sans-serif" fill="#564A55" stroke="#000000" stroke-opacity="0.000" id="img-5b5fa23a-81">
    <g transform="translate(8.81,92.46)" id="img-5b5fa23a-82">
      <g class="primitive">
        <text text-anchor="middle" dy="0.35em" transform="rotate(-90,0, 2)">GFLOPS</text>
      </g>
    </g>
  </g>
</g>
<defs>
  <clipPath id="img-5b5fa23a-27">
    <path d="M17.96,5 L273.24,5 273.24,183.92 17.96,183.92 " />
  </clipPath>
</defs>
</svg>
