<?xml version="1.0" encoding="UTF-8"?>
<svg xmlns="http://www.w3.org/2000/svg"
     xmlns:xlink="http://www.w3.org/1999/xlink"
     xmlns:gadfly="http://www.gadflyjl.org/ns"
     version="1.2"
     width="304.8mm" height="203.2mm" viewBox="0 0 304.8 203.2"
     stroke="none"
     fill="#000000"
     stroke-width="0.3"
     font-size="3.88"
>
<defs>
  <marker id="arrow" markerWidth="15" markerHeight="7" refX="5" refY="3.5" orient="auto" markerUnits="strokeWidth">
    <path d="M0,0 L15,3.5 L0,7 z" stroke="context-stroke" fill="context-stroke"/>
  </marker>
</defs>
<g class="plotroot xscalable yscalable" id="img-ff67a15e-1">
  <g font-size="3.88" font-family="'PT Sans','Helvetica Neue','Helvetica',sans-serif" fill="#564A55" stroke="#000000" stroke-opacity="0.000" id="img-ff67a15e-2">
    <g transform="translate(151.79,191.59)">
      <g class="primitive">
        <text text-anchor="middle" dy="0.6em">Size</text>
      </g>
    </g>
  </g>
  <g class="guide xlabels" font-size="2.82" font-family="'PT Sans Caption','Helvetica Neue','Helvetica',sans-serif" fill="#6C606B" id="img-ff67a15e-3">
    <g transform="translate(32.34,184.92)">
      <g class="primitive">
        <text text-anchor="middle" dy="0.6em">0</text>
      </g>
    </g>
    <g transform="translate(50.72,184.92)">
      <g class="primitive">
        <text text-anchor="middle" dy="0.6em">20</text>
      </g>
    </g>
    <g transform="translate(69.1,184.92)">
      <g class="primitive">
        <text text-anchor="middle" dy="0.6em">40</text>
      </g>
    </g>
    <g transform="translate(87.47,184.92)">
      <g class="primitive">
        <text text-anchor="middle" dy="0.6em">60</text>
      </g>
    </g>
    <g transform="translate(105.85,184.92)">
      <g class="primitive">
        <text text-anchor="middle" dy="0.6em">80</text>
      </g>
    </g>
    <g transform="translate(124.23,184.92)">
      <g class="primitive">
        <text text-anchor="middle" dy="0.6em">100</text>
      </g>
    </g>
    <g transform="translate(142.6,184.92)">
      <g class="primitive">
        <text text-anchor="middle" dy="0.6em">120</text>
      </g>
    </g>
    <g transform="translate(160.98,184.92)">
      <g class="primitive">
        <text text-anchor="middle" dy="0.6em">140</text>
      </g>
    </g>
    <g transform="translate(179.36,184.92)">
      <g class="primitive">
        <text text-anchor="middle" dy="0.6em">160</text>
      </g>
    </g>
    <g transform="translate(197.73,184.92)">
      <g class="primitive">
        <text text-anchor="middle" dy="0.6em">180</text>
      </g>
    </g>
    <g transform="translate(216.11,184.92)">
      <g class="primitive">
        <text text-anchor="middle" dy="0.6em">200</text>
      </g>
    </g>
    <g transform="translate(234.49,184.92)">
      <g class="primitive">
        <text text-anchor="middle" dy="0.6em">220</text>
      </g>
    </g>
    <g transform="translate(252.86,184.92)">
      <g class="primitive">
        <text text-anchor="middle" dy="0.6em">240</text>
      </g>
    </g>
    <g transform="translate(271.24,184.92)">
      <g class="primitive">
        <text text-anchor="middle" dy="0.6em">260</text>
      </g>
    </g>
  </g>
  <g class="guide colorkey" id="img-ff67a15e-4">
    <g fill="#4C404B" font-size="2.82" font-family="'PT Sans','Helvetica Neue','Helvetica',sans-serif" id="img-ff67a15e-5">
      <g transform="translate(277.87,87.95)" id="img-ff67a15e-6">
        <g class="primitive">
          <text dy="0.35em">LoopVectorization</text>
        </g>
      </g>
      <g transform="translate(277.87,91.57)" id="img-ff67a15e-7">
        <g class="primitive">
          <text dy="0.35em">Julia</text>
        </g>
      </g>
      <g transform="translate(277.87,95.2)" id="img-ff67a15e-8">
        <g class="primitive">
          <text dy="0.35em">Clang</text>
        </g>
      </g>
      <g transform="translate(277.87,98.83)" id="img-ff67a15e-9">
        <g class="primitive">
          <text dy="0.35em">GFortran</text>
        </g>
      </g>
      <g transform="translate(277.87,102.45)" id="img-ff67a15e-10">
        <g class="primitive">
          <text dy="0.35em">icc</text>
        </g>
      </g>
      <g transform="translate(277.87,106.08)" id="img-ff67a15e-11">
        <g class="primitive">
          <text dy="0.35em">ifort</text>
        </g>
      </g>
    </g>
    <g stroke-width="0.3" id="img-ff67a15e-12">
      <g stroke="#FFFFFF" fill-opacity="1" fill="#FC93C0" id="img-ff67a15e-13">
        <g transform="translate(275.05,106.08)" id="img-ff67a15e-14">
          <circle cx="0" cy="0" r="0.9" class="primitive"/>
        </g>
      </g>
      <g stroke="#FFFFFF" fill-opacity="1" fill="#EF54F2" id="img-ff67a15e-15">
        <g transform="translate(275.05,102.45)" id="img-ff67a15e-16">
          <circle cx="0" cy="0" r="0.9" class="primitive"/>
        </g>
      </g>
      <g stroke="#FFFFFF" fill-opacity="1" fill="#B341FB" id="img-ff67a15e-17">
        <g transform="translate(275.05,98.83)" id="img-ff67a15e-18">
          <circle cx="0" cy="0" r="0.9" class="primitive"/>
        </g>
      </g>
      <g stroke="#FFFFFF" fill-opacity="1" fill="#732CF8" id="img-ff67a15e-19">
        <g transform="translate(275.05,95.2)" id="img-ff67a15e-20">
          <circle cx="0" cy="0" r="0.9" class="primitive"/>
        </g>
      </g>
      <g stroke="#FFFFFF" fill-opacity="1" fill="#FF0000" id="img-ff67a15e-21">
        <g transform="translate(275.05,91.57)" id="img-ff67a15e-22">
          <circle cx="0" cy="0" r="0.9" class="primitive"/>
        </g>
      </g>
      <g stroke="#FFFFFF" fill-opacity="1" fill="#000000" id="img-ff67a15e-23">
        <g transform="translate(275.05,87.95)" id="img-ff67a15e-24">
          <circle cx="0" cy="0" r="0.9" class="primitive"/>
        </g>
      </g>
    </g>
    <g fill="#362A35" font-size="3.88" font-family="'PT Sans','Helvetica Neue','Helvetica',sans-serif" stroke="#000000" stroke-opacity="0.000" id="img-ff67a15e-25">
      <g transform="translate(274.24,84.63)" id="img-ff67a15e-26">
        <g class="primitive">
          <text dy="-0em">Methods</text>
        </g>
      </g>
    </g>
  </g>
  <g clip-path="url(#img-ff67a15e-27)">
    <g id="img-ff67a15e-28">
      <g pointer-events="visible" stroke-width="0.3" fill="#000000" fill-opacity="0.000" stroke="#000000" stroke-opacity="0.000" class="guide background" id="img-ff67a15e-29">
        <g transform="translate(151.79,94.46)" id="img-ff67a15e-30">
          <path d="M-121.45,-89.46 L121.45,-89.46 121.45,89.46 -121.45,89.46  z" class="primitive"/>
        </g>
      </g>
      <g class="guide ygridlines xfixed" stroke-dasharray="0.5,0.5" stroke-width="0.2" stroke="#D0D0E0" id="img-ff67a15e-31">
        <g transform="translate(151.79,181.91)" id="img-ff67a15e-32">
          <path fill="none" d="M-121.45,0 L121.45,0 " class="primitive"/>
        </g>
        <g transform="translate(151.79,172.71)" id="img-ff67a15e-33">
          <path fill="none" d="M-121.45,0 L121.45,0 " class="primitive"/>
        </g>
        <g transform="translate(151.79,163.5)" id="img-ff67a15e-34">
          <path fill="none" d="M-121.45,0 L121.45,0 " class="primitive"/>
        </g>
        <g transform="translate(151.79,154.3)" id="img-ff67a15e-35">
          <path fill="none" d="M-121.45,0 L121.45,0 " class="primitive"/>
        </g>
        <g transform="translate(151.79,145.09)" id="img-ff67a15e-36">
          <path fill="none" d="M-121.45,0 L121.45,0 " class="primitive"/>
        </g>
        <g transform="translate(151.79,135.88)" id="img-ff67a15e-37">
          <path fill="none" d="M-121.45,0 L121.45,0 " class="primitive"/>
        </g>
        <g transform="translate(151.79,126.68)" id="img-ff67a15e-38">
          <path fill="none" d="M-121.45,0 L121.45,0 " class="primitive"/>
        </g>
        <g transform="translate(151.79,117.47)" id="img-ff67a15e-39">
          <path fill="none" d="M-121.45,0 L121.45,0 " class="primitive"/>
        </g>
        <g transform="translate(151.79,108.27)" id="img-ff67a15e-40">
          <path fill="none" d="M-121.45,0 L121.45,0 " class="primitive"/>
        </g>
        <g transform="translate(151.79,99.06)" id="img-ff67a15e-41">
          <path fill="none" d="M-121.45,0 L121.45,0 " class="primitive"/>
        </g>
        <g transform="translate(151.79,89.85)" id="img-ff67a15e-42">
          <path fill="none" d="M-121.45,0 L121.45,0 " class="primitive"/>
        </g>
        <g transform="translate(151.79,80.65)" id="img-ff67a15e-43">
          <path fill="none" d="M-121.45,0 L121.45,0 " class="primitive"/>
        </g>
        <g transform="translate(151.79,71.44)" id="img-ff67a15e-44">
          <path fill="none" d="M-121.45,0 L121.45,0 " class="primitive"/>
        </g>
        <g transform="translate(151.79,62.24)" id="img-ff67a15e-45">
          <path fill="none" d="M-121.45,0 L121.45,0 " class="primitive"/>
        </g>
        <g transform="translate(151.79,53.03)" id="img-ff67a15e-46">
          <path fill="none" d="M-121.45,0 L121.45,0 " class="primitive"/>
        </g>
        <g transform="translate(151.79,43.82)" id="img-ff67a15e-47">
          <path fill="none" d="M-121.45,0 L121.45,0 " class="primitive"/>
        </g>
        <g transform="translate(151.79,34.62)" id="img-ff67a15e-48">
          <path fill="none" d="M-121.45,0 L121.45,0 " class="primitive"/>
        </g>
        <g transform="translate(151.79,25.41)" id="img-ff67a15e-49">
          <path fill="none" d="M-121.45,0 L121.45,0 " class="primitive"/>
        </g>
        <g transform="translate(151.79,16.21)" id="img-ff67a15e-50">
          <path fill="none" d="M-121.45,0 L121.45,0 " class="primitive"/>
        </g>
        <g transform="translate(151.79,7)" id="img-ff67a15e-51">
          <path fill="none" d="M-121.45,0 L121.45,0 " class="primitive"/>
        </g>
      </g>
      <g class="guide xgridlines yfixed" stroke-dasharray="0.5,0.5" stroke-width="0.2" stroke="#D0D0E0" id="img-ff67a15e-52">
        <g transform="translate(32.34,94.46)" id="img-ff67a15e-53">
          <path fill="none" d="M0,-89.46 L0,89.46 " class="primitive"/>
        </g>
        <g transform="translate(50.72,94.46)" id="img-ff67a15e-54">
          <path fill="none" d="M0,-89.46 L0,89.46 " class="primitive"/>
        </g>
        <g transform="translate(69.1,94.46)" id="img-ff67a15e-55">
          <path fill="none" d="M0,-89.46 L0,89.46 " class="primitive"/>
        </g>
        <g transform="translate(87.47,94.46)" id="img-ff67a15e-56">
          <path fill="none" d="M0,-89.46 L0,89.46 " class="primitive"/>
        </g>
        <g transform="translate(105.85,94.46)" id="img-ff67a15e-57">
          <path fill="none" d="M0,-89.46 L0,89.46 " class="primitive"/>
        </g>
        <g transform="translate(124.23,94.46)" id="img-ff67a15e-58">
          <path fill="none" d="M0,-89.46 L0,89.46 " class="primitive"/>
        </g>
        <g transform="translate(142.6,94.46)" id="img-ff67a15e-59">
          <path fill="none" d="M0,-89.46 L0,89.46 " class="primitive"/>
        </g>
        <g transform="translate(160.98,94.46)" id="img-ff67a15e-60">
          <path fill="none" d="M0,-89.46 L0,89.46 " class="primitive"/>
        </g>
        <g transform="translate(179.36,94.46)" id="img-ff67a15e-61">
          <path fill="none" d="M0,-89.46 L0,89.46 " class="primitive"/>
        </g>
        <g transform="translate(197.73,94.46)" id="img-ff67a15e-62">
          <path fill="none" d="M0,-89.46 L0,89.46 " class="primitive"/>
        </g>
        <g transform="translate(216.11,94.46)" id="img-ff67a15e-63">
          <path fill="none" d="M0,-89.46 L0,89.46 " class="primitive"/>
        </g>
        <g transform="translate(234.49,94.46)" id="img-ff67a15e-64">
          <path fill="none" d="M0,-89.46 L0,89.46 " class="primitive"/>
        </g>
        <g transform="translate(252.86,94.46)" id="img-ff67a15e-65">
          <path fill="none" d="M0,-89.46 L0,89.46 " class="primitive"/>
        </g>
        <g transform="translate(271.24,94.46)" id="img-ff67a15e-66">
          <path fill="none" d="M0,-89.46 L0,89.46 " class="primitive"/>
        </g>
      </g>
      <g class="plotpanel" id="img-ff67a15e-67">
        <metadata>
          <boundingbox value="30.345mm 5.0mm 242.89499999999995mm 178.915mm"/>
          <unitbox value="-2.176688503317357 3.3441913516454256 264.3533770066347 -3.3819969797905287"/>
        </metadata>
        <g stroke-width="0.3" fill="#000000" fill-opacity="0.000" class="geometry" id="img-ff67a15e-68">
          <g class="color_RGB{Float64}(0.98704,0.57494,0.75486)" stroke-dasharray="none" stroke="#FC93C0" id="img-ff67a15e-69">
            <g transform="translate(150.87,107.19)" id="img-ff67a15e-70">
              <path fill="none" d="M-116.69,23.73 L-115.77,2 -114.85,-13.86 -113.93,-25.6 -113.02,-31.65 -112.1,-25.94 -111.18,-47 -110.26,-40.6 -109.34,-42.42 -108.42,-41.43 -107.5,-42.58 -106.58,-44.28 -105.67,-41.99 -104.75,-44.28 -103.83,-43.27 -102.91,-45.68 -101.99,-39.12 -101.07,-38 -100.15,-35.74 -99.23,-34.75 -98.31,-34.12 -97.4,-34.33 -96.48,-34.38 -95.56,-32.88 -94.64,-34.28 -93.72,-30.74 -92.8,-31.33 -91.88,-32.66 -90.96,-29.5 -90.05,-27.08 -89.13,-24.22 -88.21,-20.66 -87.29,-20.41 -86.37,-15.92 -85.45,-13.76 -84.53,-12.74 -83.61,-12.27 -82.69,-12.51 -81.78,-12.23 -80.86,-16.31 -79.94,-14.84 -79.02,-15.42 -78.1,-9.95 -77.18,-15.28 -76.26,-14.88 -75.34,-14.71 -74.42,-15.53 -73.51,-15.96 -72.59,-15.2 -71.67,-15.1 -70.75,-9.56 -69.83,-14.73 -68.91,-9.36 -67.99,-9.15 -67.07,-8.2 -66.16,-8.65 -65.24,-13.1 -64.32,-8.4 -63.4,-7.53 -62.48,-7.81 -61.56,-7.07 -60.64,-12.35 -59.72,-7.16 -58.8,-7.06 -57.89,-6.95 -56.97,-6.83 -56.05,-6.11 -55.13,-11.18 -54.21,-5.96 -53.29,-5.84 -52.37,-5.91 -51.45,-5.88 -50.54,-5.49 -49.62,-5.47 -48.7,-4.99 -47.78,-5.14 -46.86,-4.79 -45.94,-4.5 -45.02,-4.59 -44.1,-9.28 -43.18,-4.26 -42.27,-4.02 -41.35,-8.01 -40.43,-3.16 -39.51,-2.75 -38.59,-2.04 -37.67,-2.24 -36.75,-2.02 -35.83,-1.8 -34.92,-1.34 -34,-0.72 -33.08,-0.36 -32.16,0.01 -31.24,0.47 -30.32,0.36 -29.4,0.42 -28.48,0.73 -27.56,1.09 -26.65,1.61 -25.73,1.98 -24.81,2.24 -23.89,2.6 -22.97,-1.74 -22.05,2.62 -21.13,2.8 -20.21,3.05 -19.3,3.55 -18.38,3.64 -17.46,4.01 -16.54,4.25 -15.62,4.14 -14.7,0.46 -13.78,0.49 -12.86,0.69 -11.94,1.2 -11.03,1.35 -10.11,5.49 -9.19,1.76 -8.27,1.73 -7.35,1.76 -6.43,1.98 -5.51,4.14 -4.59,2.45 -3.68,2.37 -2.76,2.7 -1.84,3.77 -0.92,2.93 0,2.94 0.92,2.84 1.84,3.45 2.76,3.45 3.68,3.67 4.59,3.97 5.51,3.94 6.43,3.94 7.35,3.99 8.27,4.02 9.19,4.13 10.11,4.43 11.03,4.62 11.94,4.56 12.86,8.71 13.78,6.01 14.7,4.79 15.62,5.26 16.54,6.42 17.46,9.12 18.38,9.13 19.3,9.24 20.21,9.44 21.13,9.37 22.05,9.49 22.97,7.23 23.89,9.52 24.81,9.79 25.73,6.73 26.65,9.92 27.56,10.07 28.48,10.01 29.4,10.05 30.32,10.09 31.24,10.18 32.16,10.43 33.08,8.58 34,10.72 34.92,10.69 35.83,12.37 36.75,10.83 37.67,10.74 38.59,10.74 39.51,11.15 40.43,11.16 41.35,11.24 42.27,11.35 43.18,11.33 44.1,11.4 45.02,11.41 45.94,10.88 46.86,11.66 47.78,11.7 48.7,11.79 49.62,12 50.54,12.02 51.45,12.04 52.37,12.12 53.29,12.16 54.21,12.31 55.13,12.44 56.05,12.42 56.97,12.53 57.89,12.6 58.8,12.57 59.72,12.59 60.64,12.61 61.56,12.75 62.48,12.83 63.4,12.98 64.32,11.22 65.24,12.97 66.16,12.99 67.07,13.01 67.99,13.06 68.91,13.24 69.83,13.52 70.75,13.29 71.67,13.4 72.59,13.41 73.51,13.44 74.42,13.45 75.34,13.46 76.26,13.69 77.18,13.86 78.1,13.93 79.02,13.87 79.94,13.88 80.86,13.71 81.78,13.77 82.69,14.01 83.61,14.01 84.53,13.98 85.45,14.09 86.37,14.09 87.29,14.32 88.21,14.4 89.13,14.32 90.05,14.32 90.96,14.55 91.88,14.47 92.8,14.88 93.72,14.74 94.64,14.59 95.56,14.55 96.48,14.67 97.4,14.63 98.31,14.61 99.23,14.68 100.15,14.91 101.07,14.79 101.99,14.84 102.91,14.77 103.83,14.82 104.75,14.97 105.67,14.89 106.58,14.98 107.5,15.06 108.42,15.12 109.34,15.12 110.26,15.04 111.18,15.14 112.1,15.06 113.02,15.11 113.93,15.23 114.85,15.27 115.77,15.27 116.69,15.25 " class="primitive"/>
            </g>
          </g>
        </g>
        <g stroke-width="0.3" fill="#000000" fill-opacity="0.000" class="geometry" id="img-ff67a15e-71">
          <g class="color_RGB{Float64}(0.9360050000000001,0.3313625,0.949375)" stroke-dasharray="none" stroke="#EF54F2" id="img-ff67a15e-72">
            <g transform="translate(150.87,113.54)" id="img-ff67a15e-73">
              <path fill="none" d="M-116.69,19.09 L-115.77,4.02 -114.85,-13.43 -113.93,-15.49 -113.02,-29.97 -112.1,-32.79 -111.18,-0.17 -110.26,-3 -109.34,-0.85 -108.42,-1.56 -107.5,-5.17 -106.58,-7.96 -105.67,-5.83 -104.75,-6.57 -103.83,-6.09 -102.91,-7.35 -101.99,-4.82 -101.07,-8.76 -100.15,-8.68 -99.23,-6.5 -98.31,-8.25 -97.4,-6.81 -96.48,-2.39 -95.56,-1.52 -94.64,-0.97 -93.72,-1.14 -92.8,1.47 -91.88,-0.32 -90.96,2.89 -90.05,2.79 -89.13,-5.68 -88.21,-4.09 -87.29,-2.96 -86.37,-3.08 -85.45,-1.5 -84.53,-2.45 -83.61,-4.95 -82.69,-4.82 -81.78,-10.41 -80.86,-10.55 -79.94,-9.35 -79.02,-9.35 -78.1,-8.23 -77.18,-5.25 -76.26,-7.12 -75.34,-3.17 -74.42,-10.18 -73.51,-5.81 -72.59,-5.13 -71.67,-9.16 -70.75,-3.93 -69.83,-3.84 -68.91,-6.72 -67.99,-2.61 -67.07,-5.51 -66.16,-5.44 -65.24,-4.12 -64.32,-4.25 -63.4,-2.71 -62.48,2.57 -61.56,-1.32 -60.64,-5.18 -59.72,-3.33 -58.8,-2.92 -57.89,2.15 -56.97,-2.77 -56.05,-1.69 -55.13,2.33 -54.21,-4.97 -53.29,-1.04 -52.37,-2.55 -51.45,-2.7 -50.54,2.3 -49.62,-1.48 -48.7,-0.78 -47.78,-0.6 -46.86,4.94 -45.94,4.88 -45.02,-1.52 -44.1,-0.03 -43.18,-1.52 -42.27,-1.22 -41.35,-0.45 -40.43,-0.46 -39.51,-0.18 -38.59,-0.38 -37.67,3.95 -36.75,-1.63 -35.83,-1.05 -34.92,-1.52 -34,-0.61 -33.08,-0.63 -32.16,-0.13 -31.24,0.21 -30.32,0.04 -29.4,-1.41 -28.48,1.18 -27.56,-0.68 -26.65,3.71 -25.73,-0.21 -24.81,0.07 -23.89,4.95 -22.97,-1.56 -22.05,-1.22 -21.13,-0.81 -20.21,-1.17 -19.3,-0.68 -18.38,4.69 -17.46,-4.08 -16.54,0.32 -15.62,-4.44 -14.7,-5.27 -13.78,-4.46 -12.86,1.02 -11.94,-4 -11.03,1.11 -10.11,-4 -9.19,-0.37 -8.27,-5.19 -7.35,-5.3 -6.43,-4.65 -5.51,-4.17 -4.59,-4.41 -3.68,-3.73 -2.76,-3.81 -1.84,2.13 -0.92,4.53 0,-5.21 0.92,1.04 1.84,-4.04 2.76,-3.85 3.68,-4.54 4.59,-4.09 5.51,-3.65 6.43,-4.39 7.35,0.7 8.27,1.13 9.19,-4.48 10.11,-4.48 11.03,-3.78 11.94,1.25 12.86,4.77 13.78,-3.38 14.7,-3.77 15.62,4.6 16.54,-3.94 17.46,-0.6 18.38,-4.07 19.3,2.13 20.21,-4.05 21.13,-4.66 22.05,-0.84 22.97,4.66 23.89,-0.98 24.81,-4.34 25.73,-0.63 26.65,-4.54 27.56,4.98 28.48,0.84 29.4,4.5 30.32,-1.34 31.24,-1.13 32.16,-0.42 33.08,-0.09 34,0.15 34.92,0.01 35.83,3.37 36.75,-1.01 37.67,-1.12 38.59,-1.03 39.51,0.22 40.43,0.14 41.35,0.38 42.27,3.71 43.18,-0.36 44.1,-0.4 45.02,-0.3 45.94,-0.18 46.86,-0.05 47.78,-0.08 48.7,5.8 49.62,6.44 50.54,0.62 51.45,0.73 52.37,1.1 53.29,1.06 54.21,1.86 55.13,2.37 56.05,1.89 56.97,2.34 57.89,3.55 58.8,7.08 59.72,1.85 60.64,2.46 61.56,2.78 62.48,2.85 63.4,3.29 64.32,3.3 65.24,8.22 66.16,3.11 67.07,3.21 67.99,3.5 68.91,3.75 69.83,4.4 70.75,4.05 71.67,4.1 72.59,3.69 73.51,8.99 74.42,3.78 75.34,4.16 76.26,4.65 77.18,8.55 78.1,5.21 79.02,5.02 79.94,4.88 80.86,4.37 81.78,4.48 82.69,9.98 83.61,9.71 84.53,5.43 85.45,5.01 86.37,5.43 87.29,6.46 88.21,6.01 89.13,5.98 90.05,10.74 90.96,6.2 91.88,6.21 92.8,7.74 93.72,7.16 94.64,6.55 95.56,6.17 96.48,6.74 97.4,11.16 98.31,6.29 99.23,6.5 100.15,6.43 101.07,6.66 101.99,6.85 102.91,6.26 103.83,6.46 104.75,6.38 105.67,7.1 106.58,6.74 107.5,7.14 108.42,7.27 109.34,7.14 110.26,7.13 111.18,11.59 112.1,11.4 113.02,6.91 113.93,7.69 114.85,11.76 115.77,7.64 116.69,9.51 " class="primitive"/>
            </g>
          </g>
        </g>
        <g stroke-width="0.3" fill="#000000" fill-opacity="0.000" class="geometry" id="img-ff67a15e-74">
          <g class="color_RGB{Float64}(0.7018800000000001,0.25504499999999997,0.9848349999999999)" stroke-dasharray="none" stroke="#B341FB" id="img-ff67a15e-75">
            <g transform="translate(150.87,63.32)" id="img-ff67a15e-76">
              <path fill="none" d="M-116.69,87.51 L-115.77,70.24 -114.85,60.35 -113.93,52.02 -113.02,54.31 -112.1,53.17 -111.18,43.31 -110.26,51.27 -109.34,51.61 -108.42,54.16 -107.5,52.97 -106.58,52.81 -105.67,46.04 -104.75,47.42 -103.83,14.9 -102.91,19.18 -101.99,23.38 -101.07,24.74 -100.15,26.48 -99.23,27.75 -98.31,21.22 -97.4,24.97 -96.48,-4.59 -95.56,3.42 -94.64,5.97 -93.72,10.49 -92.8,12.42 -91.88,14.63 -90.96,6.51 -90.05,11.2 -89.13,-24.21 -88.21,-14.7 -87.29,-9.54 -86.37,-6.44 -85.45,-6.48 -84.53,-4.19 -83.61,-9.19 -82.69,-7.04 -81.78,-30.82 -80.86,-20.86 -79.94,-15.65 -79.02,-13.03 -78.1,-12.95 -77.18,-10.32 -76.26,-15.85 -75.34,-14.93 -74.42,-36.97 -73.51,-26.66 -72.59,-21.23 -71.67,-17.46 -70.75,-16.02 -69.83,-13.36 -68.91,-18.37 -67.99,-15.84 -67.07,-38.23 -66.16,-28.38 -65.24,-24.81 -64.32,-20.81 -63.4,-22.45 -62.48,-17.12 -61.56,-20.15 -60.64,-18 -59.72,-35.72 -58.8,-20.7 -57.89,-19.5 -56.97,-17.04 -56.05,-14.49 -55.13,-6.56 -54.21,-13.84 -53.29,-7.28 -52.37,-25.14 -51.45,-11.32 -50.54,-10.29 -49.62,-6.85 -48.7,-6.33 -47.78,0.55 -46.86,-6.38 -45.94,-0.8 -45.02,-16.06 -44.1,-3.52 -43.18,-3.81 -42.27,-0.72 -41.35,-1.9 -40.43,0.19 -39.51,-1.95 -38.59,2.27 -37.67,-17.04 -36.75,-2.85 -35.83,-3.48 -34.92,-0.49 -34,-2.51 -33.08,2.62 -32.16,-0.65 -31.24,1.07 -30.32,-16.99 -29.4,-12.51 -28.48,-11.23 -27.56,-8.35 -26.65,-10.07 -25.73,-6.05 -24.81,-8.23 -23.89,-5.21 -22.97,-20.72 -22.05,-13.5 -21.13,-11.63 -20.21,-9.84 -19.3,-9.8 -18.38,-7.13 -17.46,-9.53 -16.54,-7.11 -15.62,-17.3 -14.7,-13.24 -13.78,-11.65 -12.86,-9.53 -11.94,-10.8 -11.03,-7.57 -10.11,-9.47 -9.19,-6.8 -8.27,-19.12 -7.35,-11.18 -6.43,-10.56 -5.51,-9.35 -4.59,-10.48 -3.68,-7.38 -2.76,-9.14 -1.84,-8.08 -0.92,-7.74 0,-10.08 0.92,-10.33 1.84,-8.6 2.76,-9.68 3.68,-6.51 4.59,-9.07 5.51,-7.08 6.43,-15.4 7.35,-9.62 8.27,-9.24 9.19,-7.92 10.11,-10 11.03,-6.16 11.94,-8.58 12.86,-5.55 13.78,-11.72 14.7,-8.87 15.62,-8.58 16.54,-7.36 17.46,-8.76 18.38,-4.56 19.3,-7.7 20.21,-3.3 21.13,-13.19 22.05,-5.61 22.97,-5.54 23.89,-4.18 24.81,-5.93 25.73,-2.49 26.65,-4.09 27.56,-2.74 28.48,-4.3 29.4,-5.51 30.32,-4.99 31.24,-4.15 32.16,-5.2 33.08,-1.6 34,-3.73 34.92,-1.98 35.83,-8.85 36.75,-4.44 37.67,-4.8 38.59,-1.61 39.51,-3.99 40.43,-1.49 41.35,-3.09 42.27,-1.56 43.18,-5.87 44.1,-3.9 45.02,-3.71 45.94,-2.11 46.86,-2.96 47.78,-1.5 48.7,-2.31 49.62,3 50.54,-5.96 51.45,-0.48 52.37,-0.39 53.29,1.02 54.21,0.77 55.13,4.05 56.05,0.78 56.97,1.34 57.89,2.46 58.8,0.75 59.72,0.33 60.64,1.2 61.56,-0.08 62.48,2.91 63.4,1.82 64.32,3.01 65.24,-2.33 66.16,1.38 67.07,1.39 67.99,3.43 68.91,1.69 69.83,8.17 70.75,2.28 71.67,4.12 72.59,0.35 73.51,4.38 74.42,3.26 75.34,4.68 76.26,4.58 77.18,9.33 78.1,6.13 79.02,8.48 79.94,3.95 80.86,4.49 81.78,4.51 82.69,8.85 83.61,5.4 84.53,9.33 85.45,6.93 86.37,7.84 87.29,7.8 88.21,8.89 89.13,8.5 90.05,9.3 90.96,8.73 91.88,10.23 92.8,11.5 93.72,11.95 94.64,5.74 95.56,10.14 96.48,10.09 97.4,10.89 98.31,7.89 99.23,11.17 100.15,10.91 101.07,11.27 101.99,5.44 102.91,8.85 103.83,9.04 104.75,10.47 105.67,9.1 106.58,11.6 107.5,10.67 108.42,12.9 109.34,6.73 110.26,11.81 111.18,11.28 112.1,12.64 113.02,11.56 113.93,14.14 114.85,12.57 115.77,13.76 116.69,15.37 " class="primitive"/>
            </g>
          </g>
        </g>
        <g stroke-width="0.3" fill="#000000" fill-opacity="0.000" class="geometry" id="img-ff67a15e-77">
          <g class="color_RGB{Float64}(0.45187999999999995,0.172285,0.9716199999999999)" stroke-dasharray="none" stroke="#732CF8" id="img-ff67a15e-78">
            <g transform="translate(150.87,74.19)" id="img-ff67a15e-79">
              <path fill="none" d="M-116.69,66.28 L-115.77,50.9 -114.85,46.37 -113.93,37.87 -113.02,32.64 -112.1,29.45 -111.18,27.19 -110.26,24.53 -109.34,29.15 -108.42,26.92 -107.5,24.95 -106.58,24.61 -105.67,24.39 -104.75,24.48 -103.83,24.01 -102.91,23.98 -101.99,24.67 -101.07,25.16 -100.15,26.5 -99.23,27.96 -98.31,29.39 -97.4,29.85 -96.48,30.51 -95.56,30.36 -94.64,30.85 -93.72,31.03 -92.8,31.44 -91.88,31.41 -90.96,31.64 -90.05,31.67 -89.13,-49.78 -88.21,-39.8 -87.29,-31.92 -86.37,-31.1 -85.45,-31.83 -84.53,-29.73 -83.61,-26.38 -82.69,-24.99 -81.78,-25.46 -80.86,-19.26 -79.94,-15.1 -79.02,-12.98 -78.1,-11.32 -77.18,-7.36 -76.26,-5.41 -75.34,-2.6 -74.42,-3.06 -73.51,2.14 -72.59,4.19 -71.67,7.39 -70.75,9.3 -69.83,12.74 -68.91,14.49 -67.99,18.88 -67.07,17.93 -66.16,22.8 -65.24,23.55 -64.32,25.31 -63.4,24.27 -62.48,26.78 -61.56,27.15 -60.64,28.23 -59.72,-57.37 -58.8,-41.57 -57.89,-40.06 -56.97,-35.84 -56.05,-35.07 -55.13,-31.62 -54.21,-30.16 -53.29,-27.43 -52.37,-27.24 -51.45,-22.32 -50.54,-21.46 -49.62,-18.62 -48.7,-17.42 -47.78,-15.3 -46.86,-13.85 -45.94,-11.97 -45.02,-10.49 -44.1,-9 -43.18,-6.29 -42.27,-4.03 -41.35,-2.56 -40.43,-0.04 -39.51,2.26 -38.59,4.94 -37.67,5.18 -36.75,8.37 -35.83,8.6 -34.92,9.96 -34,9.69 -33.08,11.72 -32.16,11.31 -31.24,12.56 -30.32,-30.12 -29.4,-21.47 -28.48,-17.05 -27.56,-16.08 -26.65,-19.21 -25.73,-16.28 -24.81,-14.8 -23.89,-12.62 -22.97,-15.68 -22.05,-11.64 -21.13,-10.56 -20.21,-8.89 -19.3,-8.29 -18.38,-6.24 -17.46,-5.8 -16.54,-3.6 -15.62,-3.48 -14.7,-1.02 -13.78,2.56 -12.86,4.36 -11.94,3.45 -11.03,3.48 -10.11,4.63 -9.19,8.24 -8.27,7.77 -7.35,14.03 -6.43,14.27 -5.51,15.74 -4.59,14.29 -3.68,16.73 -2.76,16.36 -1.84,17.19 -0.92,-24.86 0,-21.53 0.92,-21.16 1.84,-19.29 2.76,-22.6 3.68,-19.13 4.59,-19.37 5.51,-18.32 6.43,-22.56 7.35,-17.03 8.27,-15.86 9.19,-13.97 10.11,-15.53 11.03,-12.66 11.94,-12.16 12.86,-10.39 13.78,-11.73 14.7,-8.53 15.62,-7.33 16.54,-5.92 17.46,-6.49 18.38,-4.64 19.3,-3.77 20.21,0.89 21.13,-0.25 22.05,4.99 22.97,5.04 23.89,6.7 24.81,4.81 25.73,7.57 26.65,7.21 27.56,8.75 28.48,-18.59 29.4,-15.4 30.32,-14.05 31.24,-13.37 32.16,-15.39 33.08,-12.45 34,-12.27 34.92,-11.39 35.83,-15.19 36.75,-10.05 37.67,-10.23 38.59,-8.2 39.51,-9.01 40.43,-7.63 41.35,-7.19 42.27,-6.25 43.18,-7.13 44.1,-4.01 45.02,-1.03 45.94,-0.08 46.86,-1.09 47.78,-0.21 48.7,0.48 49.62,6.52 50.54,3.1 51.45,9.08 52.37,8.89 53.29,11 54.21,9.2 55.13,12.6 56.05,11.54 56.97,12.22 57.89,-13.57 58.8,-12.27 59.72,-11.35 60.64,-10.54 61.56,-12.93 62.48,-10.06 63.4,-10.1 64.32,-9.32 65.24,-13.86 66.16,-9.09 67.07,-8.23 67.99,-7.01 68.91,-7.93 69.83,-2.43 70.75,-5.38 71.67,-4.7 72.59,-6.34 73.51,-1.74 74.42,-1.59 75.34,-0.21 76.26,0.53 77.18,3.84 78.1,3.07 79.02,6.35 79.94,5.47 80.86,7 81.78,6.82 82.69,10.77 83.61,7.69 84.53,10.62 85.45,9.77 86.37,10.92 87.29,-4.44 88.21,-3.37 89.13,-3.01 90.05,-2.48 90.96,-2.99 91.88,-2.08 92.8,0.66 93.72,0.23 94.64,-3.91 95.56,0.43 96.48,0.85 97.4,1.07 98.31,-1.49 99.23,0.68 100.15,2.04 101.07,1.76 101.99,-1.7 102.91,3.29 103.83,4.17 104.75,5.36 105.67,4.29 106.58,6.76 107.5,7.15 108.42,9.96 109.34,8.01 110.26,12 111.18,12.02 112.1,13.35 113.02,12.12 113.93,14.75 114.85,13.91 115.77,15.36 116.69,3.37 " class="primitive"/>
            </g>
          </g>
        </g>
        <g stroke-width="0.3" fill="#000000" fill-opacity="0.000" class="geometry" id="img-ff67a15e-80">
          <g class="color_RGB{Float64}(1.0,0.0,0.0)" stroke-dasharray="none" stroke="#FF0000" id="img-ff67a15e-81">
            <g transform="translate(150.87,78.06)" id="img-ff67a15e-82">
              <path fill="none" d="M-116.69,67.6 L-115.77,55.46 -114.85,48.65 -113.93,40.97 -113.02,34.48 -112.1,29.84 -111.18,26.12 -110.26,22.92 -109.34,30.26 -108.42,28.28 -107.5,28.77 -106.58,27.18 -105.67,26.38 -104.75,26.48 -103.83,26.99 -102.91,25.31 -101.99,25.42 -101.07,25.6 -100.15,26.9 -99.23,27.85 -98.31,29.66 -97.4,29.86 -96.48,30.48 -95.56,30.31 -94.64,30.47 -93.72,30.37 -92.8,30.67 -91.88,30.56 -90.96,30.67 -90.05,30.54 -89.13,-34.23 -88.21,-24.42 -87.29,-23.82 -86.37,-21.47 -85.45,-22.46 -84.53,-18.07 -83.61,-18.51 -82.69,-16.83 -81.78,-19.05 -80.86,-13.03 -79.94,-11.47 -79.02,-9.67 -78.1,-8.8 -77.18,-5.45 -76.26,-3.25 -75.34,-1.32 -74.42,-1.61 -73.51,2.86 -72.59,5.17 -71.67,7.72 -70.75,9.38 -69.83,12.22 -68.91,15.01 -67.99,17.72 -67.07,17.1 -66.16,21.6 -65.24,22.4 -64.32,23.19 -63.4,23.18 -62.48,25.05 -61.56,25.34 -60.64,26.11 -59.72,-46.06 -58.8,-32.1 -57.89,-31.78 -56.97,-31.05 -56.05,-32.28 -55.13,-28.53 -54.21,-27.41 -53.29,-25.17 -52.37,-24.76 -51.45,-20.36 -50.54,-18.83 -49.62,-17.1 -48.7,-16.33 -47.78,-15.04 -46.86,-13.26 -45.94,-12.08 -45.02,-11.49 -44.1,-8.09 -43.18,-5.83 -42.27,-3.35 -41.35,-2.53 -40.43,0.55 -39.51,1.9 -38.59,4.19 -37.67,4.62 -36.75,7.66 -35.83,8.54 -34.92,8.95 -34,8.85 -33.08,9.89 -32.16,9.55 -31.24,10.74 -30.32,-27.17 -29.4,-22.73 -28.48,-22.29 -27.56,-20.16 -26.65,-21.61 -25.73,-17.86 -24.81,-16.61 -23.89,-14.75 -22.97,-17.33 -22.05,-13.01 -21.13,-12.66 -20.21,-11.24 -19.3,-10.74 -18.38,-8.47 -17.46,-7.86 -16.54,-5.75 -15.62,-4.64 -14.7,-0.95 -13.78,1.39 -12.86,0.96 -11.94,0.31 -11.03,1.72 -10.11,5.44 -9.19,6.08 -8.27,5.59 -7.35,9.53 -6.43,9.46 -5.51,10.41 -4.59,9.56 -3.68,12.03 -2.76,11.73 -1.84,12.01 -0.92,-20.03 0,-20.23 0.92,-20.59 1.84,-19.19 2.76,-20.12 3.68,-17.79 4.59,-18.15 5.51,-17.32 6.43,-19.98 7.35,-16.51 8.27,-16.13 9.19,-15.05 10.11,-15.35 11.03,-13.58 11.94,-13.17 12.86,-12.3 13.78,-11.46 14.7,-5.76 15.62,-8.11 16.54,-7.08 17.46,-7.6 18.38,-5.96 19.3,-2.73 20.21,-1.13 21.13,-1.63 22.05,1.61 22.97,1.81 23.89,3.51 24.81,1.97 25.73,3.78 26.65,4.69 27.56,5.08 28.48,-16.46 29.4,-16.26 30.32,-16.11 31.24,-15.67 32.16,-16.22 33.08,-13.55 34,-13.45 34.92,-13.14 35.83,-14.7 36.75,-10.44 37.67,-11.22 38.59,-8.86 39.51,-10.56 40.43,-8.26 41.35,-8.22 42.27,-7 43.18,-6.99 44.1,-3.89 45.02,-2.12 45.94,-2.25 46.86,-3.1 47.78,-1.89 48.7,1.43 49.62,9.87 50.54,3.05 51.45,6.32 52.37,6.53 53.29,7.76 54.21,6.69 55.13,9.04 56.05,8.54 56.97,9.1 57.89,-10.76 58.8,-10.78 59.72,-10.9 60.64,-10.12 61.56,-11.13 62.48,-9 63.4,-9.22 64.32,-8.77 65.24,-12.12 66.16,-8.55 67.07,-8.1 67.99,-7.07 68.91,-7.9 69.83,-3.23 70.75,-6.35 71.67,-5.41 72.59,-5.96 73.51,-2.14 74.42,-2.73 75.34,-1.45 76.26,-0.38 77.18,2.2 78.1,3.24 79.02,5.73 79.94,5.06 80.86,5.43 81.78,5.23 82.69,8.67 83.61,6.21 84.53,8.22 85.45,7.67 86.37,8.37 87.29,-3.72 88.21,-3.41 89.13,-3.04 90.05,-3.22 90.96,-3.88 91.88,-2.57 92.8,0.07 93.72,-0.73 94.64,-3.91 95.56,-0.23 96.48,-0.39 97.4,0.28 98.31,-2.65 99.23,-0.23 100.15,0.89 101.07,0.51 101.99,-1.76 102.91,3.13 103.83,2.48 104.75,3.57 105.67,2.88 106.58,4.75 107.5,6.71 108.42,9.59 109.34,6.72 110.26,10.32 111.18,10.1 112.1,11.33 113.02,10.46 113.93,12.37 114.85,11.84 115.77,12.82 116.69,3.52 " class="primitive"/>
            </g>
          </g>
        </g>
        <g stroke-width="0.3" fill="#000000" fill-opacity="0.000" class="geometry" id="img-ff67a15e-83">
          <g class="color_RGB{Float64}(0.0,0.0,0.0)" stroke-dasharray="none" stroke="#000000" id="img-ff67a15e-84">
            <g transform="translate(150.87,57.28)" id="img-ff67a15e-85">
              <path fill="none" d="M-116.69,91.32 L-115.77,73.85 -114.85,55.62 -113.93,38.95 -113.02,21.22 -112.1,5.82 -111.18,-9.59 -110.26,36.78 -109.34,27.15 -108.42,18.14 -107.5,7.48 -106.58,-0.54 -105.67,-10 -104.75,-18.91 -103.83,-24.64 -102.91,14 -101.99,8.11 -101.07,1.83 -100.15,-6.56 -99.23,-11.04 -98.31,-17.23 -97.4,-24.01 -96.48,-38.14 -95.56,-5.92 -94.64,-11.82 -93.72,-16.05 -92.8,-23.88 -91.88,-26.26 -90.96,-32.26 -90.05,-36.44 -89.13,-50.28 -88.21,-9.45 -87.29,-13.4 -86.37,-17.22 -85.45,-21.05 -84.53,-24.85 -83.61,-27.55 -82.69,-32.25 -81.78,-42.73 -80.86,-15.37 -79.94,-18.11 -79.02,-20.74 -78.1,-22.07 -77.18,-22.14 -76.26,-26.75 -75.34,-27.47 -74.42,-42.15 -73.51,-13.38 -72.59,-17.64 -71.67,-17.6 -70.75,-22.9 -69.83,-20.92 -68.91,-24.02 -67.99,-24.54 -67.07,-41.39 -66.16,-13.82 -65.24,-17.03 -64.32,-17.43 -63.4,-23.59 -62.48,-19.73 -61.56,-22.51 -60.64,-22.41 -59.72,-37.29 -58.8,3.18 -57.89,-1.76 -56.97,1.02 -56.05,-9.4 -55.13,-0.94 -54.21,-4.57 -53.29,-2.27 -52.37,-28.45 -51.45,-2.24 -50.54,-4.43 -49.62,-3.35 -48.7,-10.37 -47.78,-5.11 -46.86,-8.06 -45.94,-5.86 -45.02,-16.93 -44.1,-2.76 -43.18,-4.39 -42.27,-3.61 -41.35,-8.5 -40.43,-5.07 -39.51,-7.49 -38.59,-6.7 -37.67,-18.66 -36.75,-3.43 -35.83,-5.7 -34.92,-4.79 -34,-9.47 -33.08,-5.98 -32.16,-8.02 -31.24,-7.16 -30.32,-12.11 -29.4,-3.94 -28.48,-5.35 -27.56,-4.23 -26.65,-9.8 -25.73,-6.05 -24.81,-7.86 -23.89,-6.82 -22.97,-16.97 -22.05,-2.53 -21.13,-4.42 -20.21,-3.65 -19.3,-7.37 -18.38,-4.65 -17.46,-6.53 -16.54,-5.68 -15.62,-12.06 -14.7,-1.22 -13.78,-2.96 -12.86,-2.19 -11.94,-5.66 -11.03,-3.05 -10.11,-4.22 -9.19,-3.87 -8.27,-13.88 -7.35,-0.2 -6.43,-1.98 -5.51,-1.49 -4.59,-5.24 -3.68,-1.64 -2.76,-3.03 -1.84,-2.94 -0.92,-0.68 0,0.61 0.92,-0.9 1.84,0.44 2.76,-3.08 3.68,0.2 4.59,-0.86 5.51,-0.44 6.43,-8.85 7.35,2.17 8.27,0.53 9.19,1.39 10.11,-1.92 11.03,0.81 11.94,-0.28 12.86,0.31 13.78,-3.35 14.7,3.04 15.62,2.09 16.54,2.33 17.46,-0.69 18.38,1.35 19.3,0.04 20.21,1.17 21.13,-5.93 22.05,3.11 22.97,1.94 23.89,2.6 24.81,-0.45 25.73,2 26.65,1.03 27.56,2.07 28.48,5.22 29.4,3.88 30.32,3.01 31.24,3.04 32.16,0.42 33.08,3.08 34,1.68 34.92,2.62 35.83,-3.41 36.75,5.3 37.67,4.03 38.59,5.61 39.51,2.47 40.43,5.07 41.35,3.15 42.27,3.45 43.18,1.4 44.1,7.77 45.02,5.01 45.94,5.69 46.86,3.8 47.78,4.65 48.7,4.33 49.62,7.95 50.54,-0.64 51.45,7.48 52.37,7.17 53.29,8.4 54.21,6.77 55.13,9.41 56.05,7.2 56.97,7.12 57.89,10.17 58.8,8.86 59.72,7.69 60.64,8.51 61.56,6.31 62.48,8.96 63.4,9.03 64.32,8.8 65.24,2.74 66.16,10.05 67.07,9.53 67.99,10.52 68.91,8.42 69.83,14.52 70.75,9.77 71.67,10.44 72.59,7.21 73.51,12.84 74.42,11.27 75.34,12.33 76.26,12.64 77.18,15.67 78.1,13.55 79.02,13.81 79.94,9.64 80.86,12.67 81.78,11.82 82.69,15.94 83.61,11.71 84.53,14.96 85.45,13.04 86.37,13.35 87.29,16.09 88.21,17.08 89.13,17.44 90.05,17.34 90.96,15.81 91.88,16.92 92.8,19.33 93.72,18.63 94.64,12.9 95.56,19.09 96.48,18.87 97.4,18.67 98.31,15.33 99.23,17.62 100.15,17.92 101.07,17.49 101.99,12.34 102.91,18.31 103.83,17.55 104.75,18.55 105.67,16.96 106.58,18.04 107.5,17.82 108.42,18.2 109.34,13.86 110.26,19.59 111.18,19.03 112.1,19.1 113.02,18.11 113.93,20.48 114.85,19.42 115.77,20.01 116.69,23.07 " class="primitive"/>
            </g>
          </g>
        </g>
      </g>
    </g>
  </g>
  <g class="guide ylabels" font-size="2.82" font-family="'PT Sans Caption','Helvetica Neue','Helvetica',sans-serif" fill="#6C606B" id="img-ff67a15e-86">
    <g transform="translate(29.34,181.91)" id="img-ff67a15e-87">
      <g class="primitive">
        <text text-anchor="end" dy="0.35em">0.00000000</text>
      </g>
    </g>
    <g transform="translate(29.34,172.71)" id="img-ff67a15e-88">
      <g class="primitive">
        <text text-anchor="end" dy="0.35em">0.17402030</text>
      </g>
    </g>
    <g transform="translate(29.34,163.5)" id="img-ff67a15e-89">
      <g class="primitive">
        <text text-anchor="end" dy="0.35em">0.34804060</text>
      </g>
    </g>
    <g transform="translate(29.34,154.3)" id="img-ff67a15e-90">
      <g class="primitive">
        <text text-anchor="end" dy="0.35em">0.52206090</text>
      </g>
    </g>
    <g transform="translate(29.34,145.09)" id="img-ff67a15e-91">
      <g class="primitive">
        <text text-anchor="end" dy="0.35em">0.69608120</text>
      </g>
    </g>
    <g transform="translate(29.34,135.88)" id="img-ff67a15e-92">
      <g class="primitive">
        <text text-anchor="end" dy="0.35em">0.87010151</text>
      </g>
    </g>
    <g transform="translate(29.34,126.68)" id="img-ff67a15e-93">
      <g class="primitive">
        <text text-anchor="end" dy="0.35em">1.04412181</text>
      </g>
    </g>
    <g transform="translate(29.34,117.47)" id="img-ff67a15e-94">
      <g class="primitive">
        <text text-anchor="end" dy="0.35em">1.21814211</text>
      </g>
    </g>
    <g transform="translate(29.34,108.27)" id="img-ff67a15e-95">
      <g class="primitive">
        <text text-anchor="end" dy="0.35em">1.39216241</text>
      </g>
    </g>
    <g transform="translate(29.34,99.06)" id="img-ff67a15e-96">
      <g class="primitive">
        <text text-anchor="end" dy="0.35em">1.56618271</text>
      </g>
    </g>
    <g transform="translate(29.34,89.85)" id="img-ff67a15e-97">
      <g class="primitive">
        <text text-anchor="end" dy="0.35em">1.74020301</text>
      </g>
    </g>
    <g transform="translate(29.34,80.65)" id="img-ff67a15e-98">
      <g class="primitive">
        <text text-anchor="end" dy="0.35em">1.91422331</text>
      </g>
    </g>
    <g transform="translate(29.34,71.44)" id="img-ff67a15e-99">
      <g class="primitive">
        <text text-anchor="end" dy="0.35em">2.08824361</text>
      </g>
    </g>
    <g transform="translate(29.34,62.24)" id="img-ff67a15e-100">
      <g class="primitive">
        <text text-anchor="end" dy="0.35em">2.26226392</text>
      </g>
    </g>
    <g transform="translate(29.34,53.03)" id="img-ff67a15e-101">
      <g class="primitive">
        <text text-anchor="end" dy="0.35em">2.43628422</text>
      </g>
    </g>
    <g transform="translate(29.34,43.82)" id="img-ff67a15e-102">
      <g class="primitive">
        <text text-anchor="end" dy="0.35em">2.61030452</text>
      </g>
    </g>
    <g transform="translate(29.34,34.62)" id="img-ff67a15e-103">
      <g class="primitive">
        <text text-anchor="end" dy="0.35em">2.78432482</text>
      </g>
    </g>
    <g transform="translate(29.34,25.41)" id="img-ff67a15e-104">
      <g class="primitive">
        <text text-anchor="end" dy="0.35em">2.95834512</text>
      </g>
    </g>
    <g transform="translate(29.34,16.21)" id="img-ff67a15e-105">
      <g class="primitive">
        <text text-anchor="end" dy="0.35em">3.13236542</text>
      </g>
    </g>
    <g transform="translate(29.34,7)" id="img-ff67a15e-106">
      <g class="primitive">
        <text text-anchor="end" dy="0.35em">3.30638572</text>
      </g>
    </g>
  </g>
  <g font-size="3.88" font-family="'PT Sans','Helvetica Neue','Helvetica',sans-serif" fill="#564A55" stroke="#000000" stroke-opacity="0.000" id="img-ff67a15e-107">
    <g transform="translate(8.81,92.46)" id="img-ff67a15e-108">
      <g class="primitive">
        <text text-anchor="middle" dy="0.35em" transform="rotate(-90,0, 2)">GFLOPS</text>
      </g>
    </g>
  </g>
</g>
<defs>
  <clipPath id="img-ff67a15e-27">
    <path d="M30.34,5 L273.24,5 273.24,183.92 30.34,183.92 " />
  </clipPath>
</defs>
</svg>
