<?xml version="1.0" encoding="utf-8"?>
<!DOCTYPE svg PUBLIC "-//W3C//DTD SVG 1.1//EN" "http://www.w3.org/Graphics/SVG/1.1/DTD/svg11.dtd">
<svg class="marks" width="1081" height="647" viewBox="0 0 1081 647" version="1.1" xmlns="http://www.w3.org/2000/svg" xmlns:xlink="http://www.w3.org/1999/xlink"><rect width="1081" height="647" style="fill: white;"></rect><g transform="translate(39,10)"><g class="mark-group role-frame root"><g transform="translate(0,0)"><path class="background" d="M0.5,0.5h900v600h-900Z" style="fill: none; stroke: #ddd;"></path><g><g class="mark-group role-axis"><g transform="translate(0.5,600.5)"><path class="background" d="M0,0h0v0h0Z" style="pointer-events: none; fill: none;"></path><g><g class="mark-rule role-axis-grid" style="pointer-events: none;"><line transform="translate(0,-600)" x2="0" y2="600" style="fill: none; stroke: #ddd; stroke-width: 1; opacity: 1;"></line><line transform="translate(35,-600)" x2="0" y2="600" style="fill: none; stroke: #ddd; stroke-width: 1; opacity: 1;"></line><line transform="translate(69,-600)" x2="0" y2="600" style="fill: none; stroke: #ddd; stroke-width: 1; opacity: 1;"></line><line transform="translate(104,-600)" x2="0" y2="600" style="fill: none; stroke: #ddd; stroke-width: 1; opacity: 1;"></line><line transform="translate(138,-600)" x2="0" y2="600" style="fill: none; stroke: #ddd; stroke-width: 1; opacity: 1;"></line><line transform="translate(173,-600)" x2="0" y2="600" style="fill: none; stroke: #ddd; stroke-width: 1; opacity: 1;"></line><line transform="translate(208,-600)" x2="0" y2="600" style="fill: none; stroke: #ddd; stroke-width: 1; opacity: 1;"></line><line transform="translate(242,-600)" x2="0" y2="600" style="fill: none; stroke: #ddd; stroke-width: 1; opacity: 1;"></line><line transform="translate(277,-600)" x2="0" y2="600" style="fill: none; stroke: #ddd; stroke-width: 1; opacity: 1;"></line><line transform="translate(312,-600)" x2="0" y2="600" style="fill: none; stroke: #ddd; stroke-width: 1; opacity: 1;"></line><line transform="translate(346,-600)" x2="0" y2="600" style="fill: none; stroke: #ddd; stroke-width: 1; opacity: 1;"></line><line transform="translate(381,-600)" x2="0" y2="600" style="fill: none; stroke: #ddd; stroke-width: 1; opacity: 1;"></line><line transform="translate(415,-600)" x2="0" y2="600" style="fill: none; stroke: #ddd; stroke-width: 1; opacity: 1;"></line><line transform="translate(450,-600)" x2="0" y2="600" style="fill: none; stroke: #ddd; stroke-width: 1; opacity: 1;"></line><line transform="translate(485,-600)" x2="0" y2="600" style="fill: none; stroke: #ddd; stroke-width: 1; opacity: 1;"></line><line transform="translate(519,-600)" x2="0" y2="600" style="fill: none; stroke: #ddd; stroke-width: 1; opacity: 1;"></line><line transform="translate(554,-600)" x2="0" y2="600" style="fill: none; stroke: #ddd; stroke-width: 1; opacity: 1;"></line><line transform="translate(588,-600)" x2="0" y2="600" style="fill: none; stroke: #ddd; stroke-width: 1; opacity: 1;"></line><line transform="translate(623,-600)" x2="0" y2="600" style="fill: none; stroke: #ddd; stroke-width: 1; opacity: 1;"></line><line transform="translate(658,-600)" x2="0" y2="600" style="fill: none; stroke: #ddd; stroke-width: 1; opacity: 1;"></line><line transform="translate(692,-600)" x2="0" y2="600" style="fill: none; stroke: #ddd; stroke-width: 1; opacity: 1;"></line><line transform="translate(727,-600)" x2="0" y2="600" style="fill: none; stroke: #ddd; stroke-width: 1; opacity: 1;"></line><line transform="translate(762,-600)" x2="0" y2="600" style="fill: none; stroke: #ddd; stroke-width: 1; opacity: 1;"></line><line transform="translate(796,-600)" x2="0" y2="600" style="fill: none; stroke: #ddd; stroke-width: 1; opacity: 1;"></line><line transform="translate(831,-600)" x2="0" y2="600" style="fill: none; stroke: #ddd; stroke-width: 1; opacity: 1;"></line><line transform="translate(865,-600)" x2="0" y2="600" style="fill: none; stroke: #ddd; stroke-width: 1; opacity: 1;"></line><line transform="translate(900,-600)" x2="0" y2="600" style="fill: none; stroke: #ddd; stroke-width: 1; opacity: 1;"></line></g></g><path class="foreground" d="" style="pointer-events: none; display: none; fill: none;"></path></g></g><g class="mark-group role-axis"><g transform="translate(0.5,0.5)"><path class="background" d="M0,0h0v0h0Z" style="pointer-events: none; fill: none;"></path><g><g class="mark-rule role-axis-grid" style="pointer-events: none;"><line transform="translate(0,600)" x2="900" y2="0" style="fill: none; stroke: #ddd; stroke-width: 1; opacity: 1;"></line><line transform="translate(0,550)" x2="900" y2="0" style="fill: none; stroke: #ddd; stroke-width: 1; opacity: 1;"></line><line transform="translate(0,500)" x2="900" y2="0" style="fill: none; stroke: #ddd; stroke-width: 1; opacity: 1;"></line><line transform="translate(0,450)" x2="900" y2="0" style="fill: none; stroke: #ddd; stroke-width: 1; opacity: 1;"></line><line transform="translate(0,400)" x2="900" y2="0" style="fill: none; stroke: #ddd; stroke-width: 1; opacity: 1;"></line><line transform="translate(0,350)" x2="900" y2="0" style="fill: none; stroke: #ddd; stroke-width: 1; opacity: 1;"></line><line transform="translate(0,300)" x2="900" y2="0" style="fill: none; stroke: #ddd; stroke-width: 1; opacity: 1;"></line><line transform="translate(0,250)" x2="900" y2="0" style="fill: none; stroke: #ddd; stroke-width: 1; opacity: 1;"></line><line transform="translate(0,200)" x2="900" y2="0" style="fill: none; stroke: #ddd; stroke-width: 1; opacity: 1;"></line><line transform="translate(0,150)" x2="900" y2="0" style="fill: none; stroke: #ddd; stroke-width: 1; opacity: 1;"></line><line transform="translate(0,100)" x2="900" y2="0" style="fill: none; stroke: #ddd; stroke-width: 1; opacity: 1;"></line><line transform="translate(0,50)" x2="900" y2="0" style="fill: none; stroke: #ddd; stroke-width: 1; opacity: 1;"></line><line transform="translate(0,0)" x2="900" y2="0" style="fill: none; stroke: #ddd; stroke-width: 1; opacity: 1;"></line></g></g><path class="foreground" d="" style="pointer-events: none; display: none; fill: none;"></path></g></g><g class="mark-group role-axis"><g transform="translate(0.5,600.5)"><path class="background" d="M0,0h0v0h0Z" style="pointer-events: none; fill: none;"></path><g><g class="mark-rule role-axis-tick" style="pointer-events: none;"><line transform="translate(0,0)" x2="0" y2="5" style="fill: none; stroke: #888; stroke-width: 1; opacity: 1;"></line><line transform="translate(35,0)" x2="0" y2="5" style="fill: none; stroke: #888; stroke-width: 1; opacity: 1;"></line><line transform="translate(69,0)" x2="0" y2="5" style="fill: none; stroke: #888; stroke-width: 1; opacity: 1;"></line><line transform="translate(104,0)" x2="0" y2="5" style="fill: none; stroke: #888; stroke-width: 1; opacity: 1;"></line><line transform="translate(138,0)" x2="0" y2="5" style="fill: none; stroke: #888; stroke-width: 1; opacity: 1;"></line><line transform="translate(173,0)" x2="0" y2="5" style="fill: none; stroke: #888; stroke-width: 1; opacity: 1;"></line><line transform="translate(208,0)" x2="0" y2="5" style="fill: none; stroke: #888; stroke-width: 1; opacity: 1;"></line><line transform="translate(242,0)" x2="0" y2="5" style="fill: none; stroke: #888; stroke-width: 1; opacity: 1;"></line><line transform="translate(277,0)" x2="0" y2="5" style="fill: none; stroke: #888; stroke-width: 1; opacity: 1;"></line><line transform="translate(312,0)" x2="0" y2="5" style="fill: none; stroke: #888; stroke-width: 1; opacity: 1;"></line><line transform="translate(346,0)" x2="0" y2="5" style="fill: none; stroke: #888; stroke-width: 1; opacity: 1;"></line><line transform="translate(381,0)" x2="0" y2="5" style="fill: none; stroke: #888; stroke-width: 1; opacity: 1;"></line><line transform="translate(415,0)" x2="0" y2="5" style="fill: none; stroke: #888; stroke-width: 1; opacity: 1;"></line><line transform="translate(450,0)" x2="0" y2="5" style="fill: none; stroke: #888; stroke-width: 1; opacity: 1;"></line><line transform="translate(485,0)" x2="0" y2="5" style="fill: none; stroke: #888; stroke-width: 1; opacity: 1;"></line><line transform="translate(519,0)" x2="0" y2="5" style="fill: none; stroke: #888; stroke-width: 1; opacity: 1;"></line><line transform="translate(554,0)" x2="0" y2="5" style="fill: none; stroke: #888; stroke-width: 1; opacity: 1;"></line><line transform="translate(588,0)" x2="0" y2="5" style="fill: none; stroke: #888; stroke-width: 1; opacity: 1;"></line><line transform="translate(623,0)" x2="0" y2="5" style="fill: none; stroke: #888; stroke-width: 1; opacity: 1;"></line><line transform="translate(658,0)" x2="0" y2="5" style="fill: none; stroke: #888; stroke-width: 1; opacity: 1;"></line><line transform="translate(692,0)" x2="0" y2="5" style="fill: none; stroke: #888; stroke-width: 1; opacity: 1;"></line><line transform="translate(727,0)" x2="0" y2="5" style="fill: none; stroke: #888; stroke-width: 1; opacity: 1;"></line><line transform="translate(762,0)" x2="0" y2="5" style="fill: none; stroke: #888; stroke-width: 1; opacity: 1;"></line><line transform="translate(796,0)" x2="0" y2="5" style="fill: none; stroke: #888; stroke-width: 1; opacity: 1;"></line><line transform="translate(831,0)" x2="0" y2="5" style="fill: none; stroke: #888; stroke-width: 1; opacity: 1;"></line><line transform="translate(865,0)" x2="0" y2="5" style="fill: none; stroke: #888; stroke-width: 1; opacity: 1;"></line><line transform="translate(900,0)" x2="0" y2="5" style="fill: none; stroke: #888; stroke-width: 1; opacity: 1;"></line></g><g class="mark-text role-axis-label" style="pointer-events: none;"><text text-anchor="start" transform="translate(0,15)" style="font-family: sans-serif; font-size: 10px; fill: #000; opacity: 1;">0</text><text text-anchor="middle" transform="translate(34.61538461538462,15)" style="font-family: sans-serif; font-size: 10px; fill: #000; opacity: 1;">10</text><text text-anchor="middle" transform="translate(69.23076923076924,15)" style="font-family: sans-serif; font-size: 10px; fill: #000; opacity: 1;">20</text><text text-anchor="middle" transform="translate(103.84615384615385,15)" style="font-family: sans-serif; font-size: 10px; fill: #000; opacity: 1;">30</text><text text-anchor="middle" transform="translate(138.46153846153848,15)" style="font-family: sans-serif; font-size: 10px; fill: #000; opacity: 1;">40</text><text text-anchor="middle" transform="translate(173.0769230769231,15)" style="font-family: sans-serif; font-size: 10px; fill: #000; opacity: 1;">50</text><text text-anchor="middle" transform="translate(207.6923076923077,15)" style="font-family: sans-serif; font-size: 10px; fill: #000; opacity: 1;">60</text><text text-anchor="middle" transform="translate(242.3076923076923,15)" style="font-family: sans-serif; font-size: 10px; fill: #000; opacity: 1;">70</text><text text-anchor="middle" transform="translate(276.92307692307696,15)" style="font-family: sans-serif; font-size: 10px; fill: #000; opacity: 1;">80</text><text text-anchor="middle" transform="translate(311.53846153846155,15)" style="font-family: sans-serif; font-size: 10px; fill: #000; opacity: 1;">90</text><text text-anchor="middle" transform="translate(346.1538461538462,15)" style="font-family: sans-serif; font-size: 10px; fill: #000; opacity: 1;">100</text><text text-anchor="middle" transform="translate(380.7692307692308,15)" style="font-family: sans-serif; font-size: 10px; fill: #000; opacity: 1;">110</text><text text-anchor="middle" transform="translate(415.3846153846154,15)" style="font-family: sans-serif; font-size: 10px; fill: #000; opacity: 1;">120</text><text text-anchor="middle" transform="translate(450,15)" style="font-family: sans-serif; font-size: 10px; fill: #000; opacity: 1;">130</text><text text-anchor="middle" transform="translate(484.6153846153846,15)" style="font-family: sans-serif; font-size: 10px; fill: #000; opacity: 1;">140</text><text text-anchor="middle" transform="translate(519.2307692307692,15)" style="font-family: sans-serif; font-size: 10px; fill: #000; opacity: 1;">150</text><text text-anchor="middle" transform="translate(553.8461538461539,15)" style="font-family: sans-serif; font-size: 10px; fill: #000; opacity: 1;">160</text><text text-anchor="middle" transform="translate(588.4615384615385,15)" style="font-family: sans-serif; font-size: 10px; fill: #000; opacity: 1;">170</text><text text-anchor="middle" transform="translate(623.0769230769231,15)" style="font-family: sans-serif; font-size: 10px; fill: #000; opacity: 1;">180</text><text text-anchor="middle" transform="translate(657.6923076923076,15)" style="font-family: sans-serif; font-size: 10px; fill: #000; opacity: 1;">190</text><text text-anchor="middle" transform="translate(692.3076923076924,15)" style="font-family: sans-serif; font-size: 10px; fill: #000; opacity: 1;">200</text><text text-anchor="middle" transform="translate(726.9230769230769,15)" style="font-family: sans-serif; font-size: 10px; fill: #000; opacity: 1;">210</text><text text-anchor="middle" transform="translate(761.5384615384615,15)" style="font-family: sans-serif; font-size: 10px; fill: #000; opacity: 1;">220</text><text text-anchor="middle" transform="translate(796.1538461538461,15)" style="font-family: sans-serif; font-size: 10px; fill: #000; opacity: 1;">230</text><text text-anchor="middle" transform="translate(830.7692307692308,15)" style="font-family: sans-serif; font-size: 10px; fill: #000; opacity: 1;">240</text><text text-anchor="middle" transform="translate(865.3846153846154,15)" style="font-family: sans-serif; font-size: 10px; fill: #000; opacity: 1;">250</text><text text-anchor="end" transform="translate(900,15)" style="font-family: sans-serif; font-size: 10px; fill: #000; opacity: 1;">260</text></g><g class="mark-rule role-axis-domain" style="pointer-events: none;"><line transform="translate(0,0)" x2="900" y2="0" style="fill: none; stroke: #888; stroke-width: 1; opacity: 1;"></line></g><g class="mark-text role-axis-title" style="pointer-events: none;"><text text-anchor="middle" transform="translate(450,30)" style="font-family: sans-serif; font-size: 11px; font-weight: bold; fill: #000; opacity: 1;">Size</text></g></g><path class="foreground" d="" style="pointer-events: none; display: none; fill: none;"></path></g></g><g class="mark-group role-axis"><g transform="translate(0.5,0.5)"><path class="background" d="M0,0h0v0h0Z" style="pointer-events: none; fill: none;"></path><g><g class="mark-rule role-axis-tick" style="pointer-events: none;"><line transform="translate(0,600)" x2="-5" y2="0" style="fill: none; stroke: #888; stroke-width: 1; opacity: 1;"></line><line transform="translate(0,550)" x2="-5" y2="0" style="fill: none; stroke: #888; stroke-width: 1; opacity: 1;"></line><line transform="translate(0,500)" x2="-5" y2="0" style="fill: none; stroke: #888; stroke-width: 1; opacity: 1;"></line><line transform="translate(0,450)" x2="-5" y2="0" style="fill: none; stroke: #888; stroke-width: 1; opacity: 1;"></line><line transform="translate(0,400)" x2="-5" y2="0" style="fill: none; stroke: #888; stroke-width: 1; opacity: 1;"></line><line transform="translate(0,350)" x2="-5" y2="0" style="fill: none; stroke: #888; stroke-width: 1; opacity: 1;"></line><line transform="translate(0,300)" x2="-5" y2="0" style="fill: none; stroke: #888; stroke-width: 1; opacity: 1;"></line><line transform="translate(0,250)" x2="-5" y2="0" style="fill: none; stroke: #888; stroke-width: 1; opacity: 1;"></line><line transform="translate(0,200)" x2="-5" y2="0" style="fill: none; stroke: #888; stroke-width: 1; opacity: 1;"></line><line transform="translate(0,150)" x2="-5" y2="0" style="fill: none; stroke: #888; stroke-width: 1; opacity: 1;"></line><line transform="translate(0,100)" x2="-5" y2="0" style="fill: none; stroke: #888; stroke-width: 1; opacity: 1;"></line><line transform="translate(0,50)" x2="-5" y2="0" style="fill: none; stroke: #888; stroke-width: 1; opacity: 1;"></line><line transform="translate(0,0)" x2="-5" y2="0" style="fill: none; stroke: #888; stroke-width: 1; opacity: 1;"></line></g><g class="mark-text role-axis-label" style="pointer-events: none;"><text text-anchor="end" transform="translate(-7,603)" style="font-family: sans-serif; font-size: 10px; fill: #000; opacity: 1;">0</text><text text-anchor="end" transform="translate(-7,553)" style="font-family: sans-serif; font-size: 10px; fill: #000; opacity: 1;">5</text><text text-anchor="end" transform="translate(-7,503)" style="font-family: sans-serif; font-size: 10px; fill: #000; opacity: 1;">10</text><text text-anchor="end" transform="translate(-7,453)" style="font-family: sans-serif; font-size: 10px; fill: #000; opacity: 1;">15</text><text text-anchor="end" transform="translate(-7,403.00000000000006)" style="font-family: sans-serif; font-size: 10px; fill: #000; opacity: 1;">20</text><text text-anchor="end" transform="translate(-7,352.99999999999994)" style="font-family: sans-serif; font-size: 10px; fill: #000; opacity: 1;">25</text><text text-anchor="end" transform="translate(-7,303)" style="font-family: sans-serif; font-size: 10px; fill: #000; opacity: 1;">30</text><text text-anchor="end" transform="translate(-7,252.99999999999997)" style="font-family: sans-serif; font-size: 10px; fill: #000; opacity: 1;">35</text><text text-anchor="end" transform="translate(-7,203.00000000000003)" style="font-family: sans-serif; font-size: 10px; fill: #000; opacity: 1;">40</text><text text-anchor="end" transform="translate(-7,153)" style="font-family: sans-serif; font-size: 10px; fill: #000; opacity: 1;">45</text><text text-anchor="end" transform="translate(-7,102.99999999999997)" style="font-family: sans-serif; font-size: 10px; fill: #000; opacity: 1;">50</text><text text-anchor="end" transform="translate(-7,53.00000000000002)" style="font-family: sans-serif; font-size: 10px; fill: #000; opacity: 1;">55</text><text text-anchor="end" transform="translate(-7,3)" style="font-family: sans-serif; font-size: 10px; fill: #000; opacity: 1;">60</text></g><g class="mark-rule role-axis-domain" style="pointer-events: none;"><line transform="translate(0,600)" x2="0" y2="-600" style="fill: none; stroke: #888; stroke-width: 1; opacity: 1;"></line></g><g class="mark-text role-axis-title" style="pointer-events: none;"><text text-anchor="middle" transform="translate(-23,300) rotate(-90) translate(0,-2)" style="font-family: sans-serif; font-size: 11px; font-weight: bold; fill: #000; opacity: 1;">GFLOPS</text></g></g><path class="foreground" d="" style="pointer-events: none; display: none; fill: none;"></path></g></g><g class="mark-group role-scope pathgroup"><g transform="translate(0,0)"><path class="background" d="M0,0h900v600h-900Z" style="fill: none;"></path><g><g class="mark-line role-mark marks"><path d="M6.923076923076923,569.1570654401385L10.384615384615385,536.4732366183092L13.846153846153847,491.07313738892685L17.30769230769231,456.9918836658776L20.76923076923077,424.5015594316738L24.230769230769234,419.3379531150633L27.692307692307693,371.07419712070873L31.153846153846157,412.8061866040741L34.61538461538462,376.09126176717945L38.07692307692308,340.68164355017257L41.53846153846154,309.09701805963874L45,313.1593101184741L48.46153846153847,268.36497968230515L51.92307692307693,247.34712008291794L55.38461538461539,159.86243987101054L58.84615384615385,257.4393447818581L62.307692307692314,215.01929130280325L65.76923076923077,243.94966675221454L69.23076923076924,233.9172780166962L72.6923076923077,173.18925299308637L76.15384615384616,139.683290891283L79.61538461538461,115.93053745928343L83.07692307692308,34.881364800266354L86.53846153846155,221.2997586323333L90,188.0239817046789L93.46153846153847,218.80441323971917L96.92307692307693,127.92795508496933L100.38461538461539,104.37607123986747L103.84615384615385,55.58950196930099L107.3076923076923,150.30926165803106L110.76923076923077,36.18562174790267L114.23076923076923,221.53197470133523L117.6923076923077,133.2790719877793L121.15384615384615,121.69752227171485L124.61538461538463,65.80305577893124L128.07692307692307,102.58352961702874L131.53846153846155,78.37595810882594L135,68.91003697110779L138.46153846153848,32.514845129192736L141.9230769230769,106.73866605634078L145.3846153846154,84.05276237813024L148.84615384615384,121.01099936275727L152.30769230769232,96.5847471063898L155.76923076923077,105.01540568298526L159.23076923076923,192.04406761354434L162.69230769230768,103.30117899249738L166.15384615384616,55.44421389675909L169.6153846153846,164.4578511039974L173.0769230769231,244.02378758690008L176.53846153846155,147.29711282506318L180,121.33287053106561L183.46153846153845,131.14383897889053L186.92307692307693,82.9927900965855L190.3846153846154,137.91895048971165L193.84615384615387,80.8452624403545L197.3076923076923,176.72618591462953L200.76923076923077,211.54734411085448L204.23076923076923,126.69759257778132L207.6923076923077,99.55024940714709L211.15384615384616,151.3051496666194L214.6153846153846,98.94188007974245L218.07692307692307,123.59669561533575L221.53846153846155,65.60245587106681L225,131.50479420781426L228.46153846153845,159.79075020806087L231.9230769230769,123.31188706352678L235.3846153846154,116.5856958366644L238.84615384615384,113.1316169393648L242.3076923076923,98.70614431004394L245.76923076923075,96.61066729323309L249.23076923076925,104.42557498734753L252.6923076923077,144.39247636290483L256.15384615384613,182.04729123017069L259.6153846153846,140.70605187319887L263.0769230769231,127.74648639982904L266.53846153846155,145.18074705439966L270,72.60211106011924L273.46153846153845,151.26039757507405L276.92307692307696,77.39766237924957L280.3846153846154,164.06262213922787L283.8461538461538,123.78280794334127L287.30769230769226,128.1084348137536L290.7692307692308,88.45337376800602L294.2307692307692,155.07144294626684L297.6923076923077,87.94606090773327L301.15384615384613,104.08658787255906L304.61538461538464,44.4450696300464L308.0769230769231,110.89151666801203L311.53846153846155,131.31381892443835L315,133.67728044387397L318.46153846153845,103.6252826861896L321.9230769230769,113.94049586776862L325.38461538461536,62.910492233125396L328.8461538461538,103.39860818902726L332.3076923076923,56.62890173410406L335.7692307692308,149.49162089846504L339.2307692307692,123.80910714936746L342.6923076923077,114.23615160349854L346.1538461538462,104.8784039609727L349.61538461538464,128.56599157265185L353.0769230769231,82.1038761392336L356.53846153846155,110.39261596932366L360,68.82750153468385L363.46153846153845,137.92307963230377L366.9230769230769,117.41796936680879L370.38461538461536,105.28563258562617L373.84615384615387,91.3083632632119L377.3076923076923,115.75881083672992L380.7692307692308,70.28906199703849L384.2307692307692,99.36866186362548L387.69230769230774,68.28524613521405L391.1538461538462,113.10208920789549L394.6153846153846,86.51172056577458L398.07692307692304,118.11904834808165L401.53846153846155,69.18252337068225L405,99.04944953564186L408.46153846153845,58.652639832723416L411.9230769230769,93.38333884496288L415.3846153846154,60.2664650855145L418.84615384615387,132.1778084079945L422.3076923076923,115.05526097233762L425.7692307692308,125.67836724657275L429.2307692307692,86.00530921246678L432.6923076923077,110.41378674776519L436.15384615384613,80.6606587344858L439.6153846153846,94.31100728491076L443.0769230769231,73.86330006611463L446.53846153846155,121.82651025996422L450,126.34529147982066L453.46153846153845,116.78371484413823L456.9230769230769,88.34086656110547L460.38461538461536,104.68935301093687L463.8461538461538,85.7787810383747L467.3076923076923,98.27535950252614L470.7692307692308,41.0263399602975L474.2307692307692,119.16423038669035L477.6923076923077,106.58700887005818L481.15384615384613,109.61928934010152L484.6153846153846,97.25390790029577L488.07692307692304,111.53746097814773L491.5384615384615,71.08779509334977L495.00000000000006,98.78095375410008L498.4615384615385,68.51611735970818L501.92307692307696,120.65312143767184L505.3846153846154,94.38816799218641L508.8461538461538,104.1967810507136L512.3076923076923,78.09243491362699L515.7692307692307,118.6007653061224L519.2307692307692,62.21441124780311L522.6923076923077,106.03160443481585L526.1538461538462,44.79202742340176L529.6153846153846,108.41678333196086L533.0769230769231,103.29924849082172L536.5384615384615,116.48514265419678L540,91.50442477876103L543.4615384615385,102.69048184191792L546.9230769230769,58.5851884926963L550.3846153846155,106.8537005163511L553.8461538461539,44.4728108246107L557.3076923076924,108.14041745730547L560.7692307692308,114.1587716432539L564.2307692307692,103.98308807379755L567.6923076923076,93.31560283687944L571.1538461538461,100.40479274611398L574.6153846153845,73.15613870665413L578.0769230769231,102.71344661212505L581.5384615384615,52.85692564999247L585,129.19906913604186L588.4615384615385,105.88353615608975L591.9230769230769,121.60812241362721L595.3846153846154,88.89430894308947L598.8461538461538,109.92775958389525L602.3076923076923,62.06939799331113L605.7692307692308,95.6161596589808L609.2307692307693,56.16854280698136L612.6923076923077,99.81874530428247L616.1538461538462,100.90066716085984L619.6153846153846,99.08313408129483L623.0769230769231,85.90629083442218L626.5384615384615,105.20877754086715L630,51.322225470135386L633.4615384615385,91.41236376630341L636.9230769230769,41.482775351771025L640.3846153846154,108.34460030420823L643.8461538461538,93.99294502279967L647.3076923076923,97.40192762935406L650.7692307692307,67.47496233271298L654.2307692307692,96.76224413690231L657.6923076923076,66.02279648481684L661.1538461538462,97.30323417362412L664.6153846153846,42.54758939690444L668.0769230769231,113.7206266318538L671.5384615384615,79.23490151391835L675,106.8469636862985L678.4615384615385,80.90612828868933L681.9230769230769,181.37500000000003L685.3846153846154,96.24489795918363L688.8461538461538,82.69786383894264L692.3076923076924,47.199414681733074L695.7692307692308,118.09079427448776L699.2307692307693,119.35421286031038L702.6923076923077,104.69951923076917L706.1538461538462,80.48758995447199L709.6153846153846,102.0040429387983L713.0769230769231,129.50368486271435L716.5384615384615,104.16377373902392L720,52.76190476190479L723.4615384615385,126.5385105840347L726.9230769230769,97.72209567198185L730.3846153846154,201.6961372487106L733.8461538461538,119.49688698823972L737.3076923076923,142.21688034188028L740.7692307692307,89.28627656782997L744.2307692307692,120.3997558742753L747.6923076923077,79.49074681716768L751.1538461538462,128.63863863863864L754.6153846153846,164.04705374487378L758.0769230769231,137.68598321614874L761.5384615384615,184.2764753435731L765,136.76802053113144L768.4615384615385,92.99364599092279L771.9230769230769,150.65748910385886L775.3846153846155,71.14390228780458L778.8461538461539,157.81482813543647L782.3076923076924,148.3056754928991L785.7692307692308,169.91702670856242L789.2307692307692,169.60600009740423L792.6923076923076,237.11604998575325L796.1538461538461,107.98774482985007L799.6153846153845,140.92257085020245L803.0769230769231,118.51820669332764L806.5384615384615,203.5256465332073L810,136.58983422113798L813.4615384615385,235.02507483575005L816.9230769230769,209.18314277459032L820.3846153846154,183.1887031297744L823.8461538461538,137.2666987025468L827.3076923076923,236.87944058036047L830.7692307692308,88.34778973769461L834.2307692307693,145.99181533934149L837.6923076923077,153.26752221125372L841.1538461538462,129.40180957292205L844.6153846153846,103.76936654245934L848.0769230769231,132.8366066932198L851.5384615384615,113.62897125567322L855,182.34889058913538L858.4615384615385,78.25948103792419L861.9230769230769,153.36370185177336L865.3846153846154,175.01699932002714L868.8461538461538,199.82924824390972L872.3076923076923,134.2875630904621L875.7692307692307,210.28830313014834L879.2307692307692,205.1652386780906L882.6923076923076,226.41939844542082L886.1538461538462,196.24845981010367" style="fill: none; stroke: #1f77b4; stroke-width: 2;"></path></g></g><path class="foreground" d="" style="display: none; fill: none;"></path></g><g transform="translate(0,0)"><path class="background" d="M0,0h900v600h-900Z" style="fill: none;"></path><g><g class="mark-line role-mark marks"><path d="M6.923076923076923,588.101148771206L10.384615384615385,587.1129006906626L13.846153846153847,586.9628299018931L17.30769230769231,585.9927518153289L20.76923076923077,586.5819347371232L24.230769230769234,586.477903516219L27.692307692307693,586.4120538232213L31.153846153846157,586.3852086217125L34.61538461538462,586.3398955403777L38.07692307692308,586.3140385894877L41.53846153846154,586.7007116857717L45,586.7732364826845L48.46153846153847,586.7127475741061L51.92307692307693,586.6863905325445L55.38461538461539,586.642624208709L58.84615384615385,586.6226472890644L62.307692307692314,586.5812828455087L65.76923076923077,586.5639758546273L69.23076923076924,586.5319865319865L72.6923076923077,586.5250733928465L76.15384615384616,586.5021818301126L79.61538461538461,586.4929408230701L83.07692307692308,586.4681292105718L86.53846153846155,586.4658302018979L90,586.449178523701L93.46153846153847,586.5117544623422L96.92307692307693,586.4304622276521L100.38461538461539,586.4290460370195L103.84615384615385,586.4120781527531L107.3076923076923,586.4501949075226L110.76923076923077,585.5427290092185L114.23076923076923,586.4284143391247L117.6923076923077,586.3830376940133L121.15384615384615,586.3826587327535L124.61538461538463,586.3663366336633L128.07692307692307,586.3693334895162L131.53846153846155,586.3622222222222L135,586.3652183083738L138.46153846153848,586.3515479953836L141.9230769230769,586.35421640722L145.3846153846154,586.3448841127454L148.84615384615384,586.3441654357459L152.30769230769232,586.3350633174174L155.76923076923077,586.3371170026988L159.23076923076923,586.3778543567993L162.69230769230768,586.3279571849856L166.15384615384616,586.320678936891L169.6153846153846,585.4500409938331L173.0769230769231,586.3423099170898L176.53846153846155,586.3134924319806L180,586.3055977597045L183.46153846153845,586.3054201319185L186.92307692307693,586.2992648278149L190.3846153846154,586.3122171945702L193.84615384615387,586.294411023703L197.3076923076923,586.3108456429068L200.76923076923077,586.3134214053226L204.23076923076923,586.2914659006672L207.6923076923077,586.2844848837991L211.15384615384616,586.2955500671607L214.6153846153846,586.2933131974158L218.07692307692307,586.2901554404145L221.53846153846155,585.4094375995306L225,586.2772258311043L228.46153846153845,586.2919975565057L231.9230769230769,586.2738996708456L235.3846153846154,586.2803686121196L238.84615384615384,586.2706948025512L242.3076923076923,586.272700306516L245.76923076923075,586.2665064102564L249.23076923076925,586.2793087342363L252.6923076923077,586.2642144524972L256.15384615384613,586.2773077036469L259.6153846153846,586.2609732618783L263.0769230769231,586.2660848159337L266.53846153846155,586.2644281217209L270,586.2541365974243L273.46153846153845,586.2616701412719L276.92307692307696,586.2577678977416L280.3846153846154,586.2662841382028L283.8461538461538,586.2488270817794L287.30769230769226,586.2580524036938L290.7692307692308,586.2619969306182L294.2307692307692,585.3911936819069L297.6923076923077,586.2518861941522L301.15384615384613,586.2475952289342L304.61538461538464,586.2420967927349L308.0769230769231,586.2441899663911L311.53846153846155,586.2544670486534L315,586.2483515839447L318.46153846153845,586.2439770554494L321.9230769230769,586.2457436856876L325.38461538461536,586.2370123325576L328.8461538461538,586.24324154689L332.3076923076923,586.2416354918594L335.7692307692308,586.24557149245L339.2307692307692,586.2392960690446L342.6923076923077,586.2350054525626L346.1538461538462,586.2377151368943L349.61538461538464,586.2465699103815L353.0769230769231,585.3703565845307L356.53846153846155,586.2359576286708L360,586.2401125504194L363.46153846153845,586.2378753056414L366.9230769230769,586.2374361449951L370.38461538461536,586.2326611163376L373.84615384615387,586.2357351103707L377.3076923076923,586.2344097160694L380.7692307692308,586.2300261743304L384.2307692307692,586.2341528815632L387.69230769230774,586.2337159309517L391.1538461538462,586.2298274549606L394.6153846153846,585.3508911521324L398.07692307692304,586.2290211931888L401.53846153846155,586.2220000361386L405,586.2264139776037L408.46153846153845,586.2238905863524L411.9230769230769,586.2249446393115L415.3846153846154,586.2316435975455L418.84615384615387,586.2306028402144L422.3076923076923,586.2277450292015L425.7692307692308,586.2282467845401L429.2307692307692,586.2241827275267L432.6923076923077,586.227984217594L436.15384615384613,586.2258537008589L439.6153846153846,586.218063744339L443.0769230769231,586.2242379579301L446.53846153846155,586.2220566318927L450,586.2282854622848L453.46153846153845,586.2240701128095L456.9230769230769,586.2203841627086L460.38461538461536,586.2201744055502L463.8461538461538,586.2211729869051L467.3076923076923,586.2190977751287L470.7692307692308,586.215289651121L474.2307692307692,585.3495109968318L477.6923076923077,586.2184458993504L481.15384615384613,586.2186259618854L484.6153846153846,586.2184206607878L488.07692307692304,586.221329854458L491.5384615384615,586.2189130731934L495.00000000000006,586.2180559630191L498.4615384615385,586.2203650208544L501.92307692307696,586.2157200760512L505.3846153846154,586.2113734517989L508.8461538461538,586.2096447234069L512.3076923076923,586.2127287739604L515.7692307692307,586.2224891124602L519.2307692307692,585.345389065553L522.6923076923077,586.2156606839948L526.1538461538462,586.2115547317388L529.6153846153846,586.2122046793959L533.0769230769231,586.2134667400722L536.5384615384615,586.2164332985728L540,586.2145168223334L543.4615384615385,586.2110756817411L546.9230769230769,586.2097067692628L550.3846153846155,586.2165256601861L553.8461538461539,586.2086886529071L557.3076923076924,586.2139163243534L560.7692307692308,586.2177491103203L564.2307692307692,586.2101001712773L567.6923076923076,586.2141659732022L571.1538461538461,586.2130956601003L574.6153846153845,586.2128761680524L578.0769230769231,586.21147257784L581.5384615384615,586.2055562104149L585,586.2075499032755L588.4615384615385,586.203391163206L591.9230769230769,585.3413011553637L595.3846153846154,586.2059961766214L598.8461538461538,586.2096284571268L602.3076923076923,586.2021376697952L605.7692307692308,586.2072208593182L609.2307692307693,586.2058776532347L612.6923076923077,586.2058632326774L616.1538461538462,586.2084752272436L619.6153846153846,586.2072344681767L623.0769230769231,586.2086578980973L626.5384615384615,586.2054164107238L630,586.2025604900459L633.4615384615385,586.2064311984843L636.9230769230769,586.2035174855515L640.3846153846154,586.204864840514L643.8461538461538,586.2045120824165L647.3076923076923,586.2012000510659L650.7692307692307,585.3323991866088L654.2307692307692,586.2033138928585L657.6923076923076,586.2061990065407L661.1538461538462,586.205966218711L664.6153846153846,585.3293755208675L668.0769230769231,586.2054565337679L671.5384615384615,586.1966987471981L675,586.2042141251944L678.4615384615385,586.1995456706641L681.9230769230769,586.2023987535683L685.3846153846154,586.2091142163649L688.8461538461538,586.200356256316L692.3076923076924,586.1977697219662L695.7692307692308,586.2022323383704L699.2307692307693,586.1981885903476L702.6923076923077,586.2014106783744L706.1538461538462,586.2007302687015L709.6153846153846,586.198766355068L713.0769230769231,586.2027364563769L716.5384615384615,586.2036591602114L720,586.1986710726557L723.4615384615385,586.2018135533382L726.9230769230769,586.2210549338254L730.3846153846154,586.1972039041755L733.8461538461538,586.2008730469773L737.3076923076923,586.2100057393272L740.7692307692307,586.1976360545123L744.2307692307692,585.3308481068659L747.6923076923077,586.200028186217L751.1538461538462,586.2044975537292L754.6153846153846,586.20453423902L758.0769230769231,586.2053954369728L761.5384615384615,586.221609700469L765,586.2085844936956L768.4615384615385,586.2161481854391L771.9230769230769,586.2088783323926L775.3846153846155,586.2050852446397L778.8461538461539,586.1986875823869L782.3076923076924,586.1965315346107L785.7692307692308,585.3372378550016L789.2307692307692,586.2201279240564L792.6923076923076,586.2003136091836L796.1538461538461,586.1968722324291L799.6153846153845,586.2000073020905L803.0769230769231,586.1999942689002L806.5384615384615,586.2163740419253L810,586.2337877447922L813.4615384615385,586.208433961488L816.9230769230769,586.2221265053579L820.3846153846154,586.209009675197L823.8461538461538,586.2002688441708L827.3076923076923,586.200853194791L830.7692307692308,586.2095384026048L834.2307692307693,586.2001431171017L837.6923076923077,586.1969468210032L841.1538461538462,586.2060071564807L844.6153846153846,586.2118910641962L848.0769230769231,586.2253644708424L851.5384615384615,586.1998156884787L855,586.2074115250198L858.4615384615385,586.2060631326757L861.9230769230769,586.2044354511496L865.3846153846154,586.2073531358961L868.8461538461538,586.204847676114L872.3076923076923,585.3429294101834L875.7692307692307,586.2006533477733L879.2307692307692,586.218444735407L882.6923076923076,586.2168177454147L886.1538461538462,586.2146585068289" style="fill: none; stroke: #aec7e8; stroke-width: 2;"></path></g></g><path class="foreground" d="" style="display: none; fill: none;"></path></g><g transform="translate(0,0)"><path class="background" d="M0,0h900v600h-900Z" style="fill: none;"></path><g><g class="mark-line role-mark marks"><path d="M6.923076923076923,581.1696396170058L10.384615384615385,578.5475898839974L13.846153846153847,578.4420125853147L17.30769230769231,581.0005657629916L20.76923076923077,579.5450821271118L24.230769230769234,576.418966737438L27.692307692307693,578.7851767597266L31.153846153846157,578.0430153921192L34.61538461538462,577.7200404672124L38.07692307692308,577.5171334042302L41.53846153846154,577.2045814321632L45,577.5704582715279L48.46153846153847,576.950747094632L51.92307692307693,576.7547857793984L55.38461538461539,576.6084385917763L58.84615384615385,576.565083739665L62.307692307692314,576.4559487057705L65.76923076923077,576.2989186405767L69.23076923076924,576.250533586868L72.6923076923077,576.2264150943396L76.15384615384616,576.0892150096262L79.61538461538461,576.0609589724819L83.07692307692308,575.9646539027982L86.53846153846155,575.936650705319L90,575.8846453624318L93.46153846153847,576.0328767123287L96.92307692307693,575.8317214700194L100.38461538461539,575.7971954969952L103.84615384615385,575.7573836988212L107.3076923076923,575.8628331658886L110.76923076923077,575.7379790940766L114.23076923076923,575.7746663177179L117.6923076923077,575.680224403927L121.15384615384615,575.6233173358305L124.61538461538463,575.6337093563371L128.07692307692307,575.6176008381352L131.53846153846155,575.5522358330844L135,576.192799926342L138.46153846153848,575.5571531272466L141.9230769230769,575.5271045645286L145.3846153846154,575.5060034305317L148.84615384615384,575.4984800062358L152.30769230769232,576.0813953488372L155.76923076923077,575.4650416933932L159.23076923076923,575.5325806012787L162.69230769230768,575.4314687602224L166.15384615384616,575.423228964046L169.6153846153846,575.4010727415175L173.0769230769231,575.4548079699682L176.53846153846155,575.3679460754275L180,575.3694475700584L183.46153846153845,575.3571059964909L186.92307692307693,575.3213521182854L190.3846153846154,575.3593675131768L193.84615384615387,575.3287981859411L197.3076923076923,575.3413098799053L200.76923076923077,575.3553113553113L204.23076923076923,575.288345095419L207.6923076923077,575.2697296642017L211.15384615384616,575.286372870761L214.6153846153846,575.2890905653243L218.07692307692307,575.2873310625206L221.53846153846155,575.250755287009L225,575.2216510849692L228.46153846153845,575.2665330661323L231.9230769230769,575.2270735270248L235.3846153846154,575.244693581911L238.84615384615384,575.210719754977L242.3076923076923,575.2186588921284L245.76923076923075,575.2012616835952L249.23076923076925,575.2317247969422L252.6923076923077,575.1895163498932L256.15384615384613,575.195310418332L259.6153846153846,575.173944649255L263.0769230769231,575.1921376417978L266.53846153846155,575.1784175142217L270,575.1524324324324L273.46153846153845,575.1686287359281L276.92307692307696,575.1711547238704L280.3846153846154,575.1742788461538L283.8461538461538,575.1412478524672L287.30769230769226,575.1505442508859L290.7692307692308,575.1544149630274L294.2307692307692,575.1522324047662L297.6923076923077,575.1385126450873L301.15384615384613,575.1226726987993L304.61538461538464,575.1161515924771L308.0769230769231,575.0962623217621L311.53846153846155,575.1394681254401L315,575.1127886009264L318.46153846153845,575.1088968464027L321.9230769230769,575.1015189744805L325.38461538461536,575.0974801061008L328.8461538461538,575.0998117372111L332.3076923076923,575.0938717113107L335.7692307692308,575.1014912362629L339.2307692307692,575.0846190236384L342.6923076923077,575.0737538148525L346.1538461538462,575.0871948181366L349.61538461538464,575.0955725015439L353.0769230769231,575.0841010903558L356.53846153846155,575.0817928099699L360,575.0776654287185L363.46153846153845,575.0781198058639L366.9230769230769,575.0786733815202L370.38461538461536,575.056325212421L373.84615384615387,575.0634455525234L377.3076923076923,575.0657992197916L380.7692307692308,575.0497307263112L384.2307692307692,575.0587044534414L387.69230769230774,575.0584217359267L391.1538461538462,575.0470727529801L394.6153846153846,575.0370604718431L398.07692307692304,575.0468928622959L401.53846153846155,575.0360677921709L405,575.0348119937778L408.46153846153845,575.0310650731532L411.9230769230769,575.0347924379596L415.3846153846154,575.0351832588876L418.84615384615387,575.0298962659765L422.3076923076923,575.0317742253799L425.7692307692308,575.026653849515L429.2307692307692,575.0205938285409L432.6923076923077,575.0209236498368L436.15384615384613,575.0229510624121L439.6153846153846,574.9965348069522L443.0769230769231,575.015652891524L446.53846153846155,575.0055661577608L450,575.0241239318096L453.46153846153845,575.0083951547964L456.9230769230769,575.0134545791965L460.38461538461536,575.0005819366853L463.8461538461538,575.0084328077156L467.3076923076923,574.9995965399264L470.7692307692308,574.9912907921005L474.2307692307692,575.0066189890572L477.6923076923077,575.0051727066381L481.15384615384613,574.9948993574712L484.6153846153846,575.0011253995168L488.07692307692304,575.0022558671035L491.5384615384615,575.0010574601994L495.00000000000006,574.9934900048196L498.4615384615385,575.0041126584792L501.92307692307696,574.9811006425782L505.3846153846154,574.9793204399671L508.8461538461538,574.9665746703465L512.3076923076923,574.9826664158447L515.7692307692307,574.9937387778359L519.2307692307692,574.9910098401386L522.6923076923077,574.984704940885L526.1538461538462,574.9763951095508L529.6153846153846,574.9767029484447L533.0769230769231,574.9812594633504L536.5384615384615,574.9799373924124L540,574.9794676714101L543.4615384615385,574.9714493913583L546.9230769230769,574.9691529142533L550.3846153846155,574.9805270787125L553.8461538461539,574.9621728599619L557.3076923076924,574.9754670906923L560.7692307692308,574.9821680909764L564.2307692307692,574.9615836622467L567.6923076923076,574.9642997941215L571.1538461538461,574.972556738605L574.6153846153845,574.9725123547482L578.0769230769231,574.9709383661079L581.5384615384615,574.9542994054485L585,574.9586371935181L588.4615384615385,574.9501603536448L591.9230769230769,574.9686791882774L595.3846153846154,574.9585237853395L598.8461538461538,574.9524690962975L602.3076923076923,574.942088889538L605.7692307692308,574.9467053564124L609.2307692307693,574.948407016075L612.6923076923077,574.953183564633L616.1538461538462,574.9565039497483L619.6153846153846,574.9485124016355L623.0769230769231,574.9566925374763L626.5384615384615,574.9371332397308L630,574.9402330155848L633.4615384615385,574.9454074964023L636.9230769230769,574.9430991998189L640.3846153846154,574.9454188430948L643.8461538461538,574.9467738431458L647.3076923076923,574.9370552126547L650.7692307692307,574.9467118101305L654.2307692307692,574.9349078721438L657.6923076923076,574.9465210078545L661.1538461538462,574.9408246964463L664.6153846153846,574.9391962953928L668.0769230769231,574.9377434062629L671.5384615384615,574.9169074436346L675,574.9404937276125L678.4615384615385,574.9298651045306L681.9230769230769,574.9291102202125L685.3846153846154,574.9434932665629L688.8461538461538,574.9281418170308L692.3076923076924,574.9241270461728L695.7692307692308,574.9322223195514L699.2307692307693,574.9225263005676L702.6923076923077,574.9324425869337L706.1538461538462,574.9270996505603L709.6153846153846,574.9233933667255L713.0769230769231,574.9331294845289L716.5384615384615,574.9266662306684L720,574.9242088467334L723.4615384615385,574.931147983728L726.9230769230769,574.9244925194914L730.3846153846154,574.9158345126555L733.8461538461538,574.9265564904636L737.3076923076923,574.9555789350634L740.7692307692307,574.9204477732142L744.2307692307692,574.9489143706027L747.6923076923077,574.9227909094359L751.1538461538462,574.9230788508347L754.6153846153846,574.9457923985314L758.0769230769231,574.9570914318009L761.5384615384615,574.9078255990192L765,574.9787696971706L768.4615384615385,574.916155455958L771.9230769230769,574.9290332147094L775.3846153846155,574.9116310533979L778.8461538461539,574.9168631542746L782.3076923076924,574.9197876408844L785.7692307692308,574.9027905111162L789.2307692307692,574.9614531360232L792.6923076923076,574.9541503486483L796.1538461538461,574.9166025147549L799.6153846153845,574.9199051136866L803.0769230769231,574.9531779075274L806.5384615384615,574.9260207131136L810,574.9477344414421L813.4615384615385,574.9386697133828L816.9230769230769,574.931041512771L820.3846153846154,574.9445558167849L823.8461538461538,574.909377051914L827.3076923076923,574.9188461796749L830.7692307692308,574.9134061609723L834.2307692307693,574.9138835605128L837.6923076923077,574.9031885636213L841.1538461538462,574.9135197139066L844.6153846153846,574.9084084716895L848.0769230769231,574.948690755007L851.5384615384615,574.9179716356668L855,574.9174599028769L858.4615384615385,574.9083151147471L861.9230769230769,574.9168986935105L865.3846153846154,574.9378458577271L868.8461538461538,574.9334846818172L872.3076923076923,574.9539943484737L875.7692307692307,574.9157328624548L879.2307692307692,574.9405485436449L882.6923076923076,574.9234950240574L886.1538461538462,574.9225242421242" style="fill: none; stroke: #ff7f0e; stroke-width: 2;"></path></g></g><path class="foreground" d="" style="display: none; fill: none;"></path></g><g transform="translate(0,0)"><path class="background" d="M0,0h900v600h-900Z" style="fill: none;"></path><g><g class="mark-line role-mark marks"><path d="M6.923076923076923,580.5406340057636L10.384615384615385,577.6244062514047L13.846153846153847,577.4183981693363L17.30769230769231,576.4089225816173L20.76923076923077,575.7853658536585L24.230769230769234,575.3713329103158L27.692307692307693,575.1847116148875L31.153846153846157,576.4878863192245L34.61538461538462,575.8756808074752L38.07692307692308,575.6592737845697L41.53846153846154,575.4660252555623L45,575.2966466036114L48.46153846153847,575.2690566317821L51.92307692307693,575.1687873279667L55.38461538461539,575.0043076216185L58.84615384615385,574.9553958301473L62.307692307692314,574.9281812664374L65.76923076923077,574.8540860459823L69.23076923076924,574.8168874989713L72.6923076923077,574.7594643124345L76.15384615384616,574.7345795109968L79.61538461538461,574.7139041192183L83.07692307692308,574.6690379951496L86.53846153846155,574.6497835645387L90,574.6265455463033L93.46153846153847,574.720692368214L96.92307692307693,574.5616490647665L100.38461538461539,574.5446452416986L103.84615384615385,574.5568230950877L107.3076923076923,574.6571729957806L110.76923076923077,574.4907828023798L114.23076923076923,574.5752935521527L117.6923076923077,574.5002757323126L121.15384615384615,574.4833360562L124.61538461538463,574.4457761453701L128.07692307692307,574.4252747252747L131.53846153846155,574.434492813997L135,574.4521292362415L138.46153846153848,574.3758831841733L141.9230769230769,574.3864838218159L145.3846153846154,574.4020486555698L148.84615384615384,574.3822330888345L152.30769230769232,574.3735887253757L155.76923076923077,574.3785352783566L159.23076923076923,574.4535189262126L162.69230769230768,574.3630529765155L166.15384615384616,574.3463452973539L169.6153846153846,574.3305452487265L173.0769230769231,574.3837020071123L176.53846153846155,574.3297532656023L180,574.316683428316L183.46153846153845,574.3332437516797L186.92307692307693,574.3150259067357L190.3846153846154,574.3285742811502L193.84615384615387,574.3223196223871L197.3076923076923,574.3257565193139L200.76923076923077,574.3298321213754L204.23076923076923,574.2876384966327L207.6923076923077,574.2986729380144L211.15384615384616,574.2920425912379L214.6153846153846,574.307843522705L218.07692307692307,574.2852242844621L221.53846153846155,574.28370942128L225,574.2618074965957L228.46153846153845,574.3320623916811L231.9230769230769,574.2577163096644L235.3846153846154,574.2640125720272L238.84615384615384,574.2583169009605L242.3076923076923,574.2702702702703L245.76923076923075,574.2574346650646L249.23076923076925,574.272952853598L252.6923076923077,574.2450604122246L256.15384615384613,574.2917897876335L259.6153846153846,574.2292351641244L263.0769230769231,574.2562005138692L266.53846153846155,574.2401860560213L270,574.2293317386755L273.46153846153845,574.2407982907644L276.92307692307696,574.2405947392098L280.3846153846154,574.2551472624873L283.8461538461538,574.2282544979032L287.30769230769226,574.2342639649748L290.7692307692308,574.2465165210297L294.2307692307692,574.2435045190514L297.6923076923077,574.2257390020909L301.15384615384613,574.2205437461182L304.61538461538464,574.2099282999648L308.0769230769231,574.2080867283419L311.53846153846155,574.2347129705861L315,574.2284668192219L318.46153846153845,574.2089980283205L321.9230769230769,574.2015686136893L325.38461538461536,574.201016762847L328.8461538461538,574.2108182612789L332.3076923076923,574.2226755951891L335.7692307692308,574.2177627337202L339.2307692307692,574.2048219420483L342.6923076923077,574.183116923363L346.1538461538462,574.2017724899843L349.61538461538464,574.2257330975135L353.0769230769231,574.2028266798909L356.53846153846155,574.1917804298675L360,574.2093303784329L363.46153846153845,574.1973897959746L366.9230769230769,574.1945420156715L370.38461538461536,574.1900278477656L373.84615384615387,574.1933468686553L377.3076923076923,574.1935195359415L380.7692307692308,574.1894197952219L384.2307692307692,574.1904996611422L387.69230769230774,574.1911746907753L391.1538461538462,574.1785718534027L394.6153846153846,574.1720832359131L398.07692307692304,574.1814903708128L401.53846153846155,574.1715782580222L405,574.1782896707832L408.46153846153845,574.1768395789014L411.9230769230769,574.1715125635689L415.3846153846154,574.1878341188751L418.84615384615387,574.1821482288263L422.3076923076923,574.1921401833889L425.7692307692308,574.1789651225829L429.2307692307692,574.1733030332971L432.6923076923077,574.184095945263L436.15384615384613,574.1786975115525L439.6153846153846,574.1612559721816L443.0769230769231,574.1759382880879L446.53846153846155,574.1672526047612L450,574.1762093947184L453.46153846153845,574.1818809348921L456.9230769230769,574.1688831526716L460.38461538461536,574.1608881327387L463.8461538461538,574.1708057978863L467.3076923076923,574.1683341670836L470.7692307692308,574.1565571884144L474.2307692307692,574.1685219517329L477.6923076923077,574.1636141636142L481.15384615384613,574.1573891218657L484.6153846153846,574.1707428624585L488.07692307692304,574.1696663991746L491.5384615384615,574.1734537810694L495.00000000000006,574.1642451042325L498.4615384615385,574.1707821040753L501.92307692307696,574.1580629301868L505.3846153846154,574.1581863692442L508.8461538461538,574.14045066417L512.3076923076923,574.1615665376022L515.7692307692307,574.1751684970405L519.2307692307692,574.1637847184696L522.6923076923077,574.1538697481514L526.1538461538462,574.1656087823038L529.6153846153846,574.1510071255512L533.0769230769231,574.1563036845209L536.5384615384615,574.157840122496L540,574.1606030891455L543.4615384615385,574.1581716033622L546.9230769230769,574.1488493354287L550.3846153846155,574.1725209281083L553.8461538461539,574.1526254209405L557.3076923076924,574.1630460912444L560.7692307692308,574.179008594496L564.2307692307692,574.1477165408413L567.6923076923076,574.16870519245L571.1538461538461,574.153384785498L574.6153846153845,574.1659175761453L578.0769230769231,574.1664396325316L581.5384615384615,574.1375462880612L585,574.1422043755192L588.4615384615385,574.1385663301294L591.9230769230769,574.1590597188722L595.3846153846154,574.1442474281924L598.8461538461538,574.1549707156754L602.3076923076923,574.1428370476057L605.7692307692308,574.1413564457248L609.2307692307693,574.1475077445739L612.6923076923077,574.152119156123L616.1538461538462,574.1459387329961L619.6153846153846,574.141593004377L623.0769230769231,574.1554054054054L626.5384615384615,574.1418967230317L630,574.1413640454804L633.4615384615385,574.1454054986875L636.9230769230769,574.1378411654221L640.3846153846154,574.1335236113705L643.8461538461538,574.1378127610923L647.3076923076923,574.1346798123864L650.7692307692307,574.1442864212406L654.2307692307692,574.1357235951036L657.6923076923076,574.1482442542293L661.1538461538462,574.1444247108755L664.6153846153846,574.1378926126305L668.0769230769231,574.1516450322475L671.5384615384615,574.1230809053112L675,574.1433102802766L678.4615384615385,574.167886272121L681.9230769230769,574.1383879047779L685.3846153846154,574.2271445862804L688.8461538461538,574.122564922585L692.3076923076924,574.125203573766L695.7692307692308,574.1395630793792L699.2307692307693,574.2077161044679L702.6923076923077,574.1375020304494L706.1538461538462,574.1312320602593L709.6153846153846,574.1229118674026L713.0769230769231,574.3473328995138L716.5384615384615,574.1409827685361L720,574.1298628209638L723.4615384615385,574.1868573454674L726.9230769230769,574.1851288161039L730.3846153846154,574.2512221923596L733.8461538461538,574.1566603302598L737.3076923076923,574.2303413020599L740.7692307692307,574.1341183037198L744.2307692307692,574.231274983358L747.6923076923077,574.2481444684705L751.1538461538462,574.1568256509921L754.6153846153846,574.3969120680968L758.0769230769231,574.1455873819195L761.5384615384615,574.1979183979379L765,574.2385402510688L768.4615384615385,574.137998092363L771.9230769230769,574.3322504250668L775.3846153846155,574.2058471326793L778.8461538461539,574.3016467848131L782.3076923076924,574.2812882281679L785.7692307692308,574.3538494418405L789.2307692307692,574.2460723371888L792.6923076923076,574.3662121673922L796.1538461538461,574.2657158555012L799.6153846153845,574.1565245632628L803.0769230769231,574.254281067636L806.5384615384615,574.206185509385L810,574.2363930751028L813.4615384615385,574.2910229096267L816.9230769230769,574.4855927156511L820.3846153846154,574.2391304347826L823.8461538461538,574.3507294321962L827.3076923076923,574.2304211791743L830.7692307692308,574.2601637129293L834.2307692307693,574.2489000628535L837.6923076923077,574.2446631277228L841.1538461538462,574.2916741362973L844.6153846153846,574.2746613120504L848.0769230769231,574.2627585893795L851.5384615384615,574.267125908917L855,574.312L858.4615384615385,574.3253822089295L861.9230769230769,574.2950268751646L865.3846153846154,574.3001787498156L868.8461538461538,574.2572455930353L872.3076923076923,574.2838154268331L875.7692307692307,574.3472674722881L879.2307692307692,574.2651127103272L882.6923076923076,574.2442246531297L886.1538461538462,574.2438771783004" style="fill: none; stroke: #ffbb78; stroke-width: 2;"></path></g></g><path class="foreground" d="" style="display: none; fill: none;"></path></g><g transform="translate(0,0)"><path class="background" d="M0,0h900v600h-900Z" style="fill: none;"></path><g><g class="mark-line role-mark marks"><path d="M6.923076923076923,590.0911117427926L10.384615384615385,587.2722186554159L13.846153846153847,585.8788957275563L17.30769230769231,584.997835425755L20.76923076923077,582.9940378234008L24.230769230769234,581.8816583806819L27.692307692307693,583.072734344613L31.153846153846157,581.6003297890487L34.61538461538462,580.0088750832039L38.07692307692308,579.5709603734234L41.53846153846154,579.4095382286147L45,579.04143565801L48.46153846153847,579.577076310144L51.92307692307693,580.2100579470199L55.38461538461539,579.594686116176L58.84615384615385,579.3010954030522L62.307692307692314,579.0526093386858L65.76923076923077,578.8792015601698L69.23076923076924,578.6197138814651L72.6923076923077,578.3300213173393L76.15384615384616,578.2075815262374L79.61538461538461,578.0413701688293L83.07692307692308,577.9004384833635L86.53846153846155,577.7799354684512L90,577.5933448152601L93.46153846153847,577.6695996876783L96.92307692307693,577.2927847346452L100.38461538461539,577.5486809045226L103.84615384615385,577.1060900793057L107.3076923076923,576.9373566260808L110.76923076923077,577.1533565194567L114.23076923076923,577.1895022178413L117.6923076923077,577.5217324996187L121.15384615384615,576.9643449725305L124.61538461538463,577.260811229229L128.07692307692307,576.8910733790091L131.53846153846155,577.0708014197646L135,576.7389348686578L138.46153846153848,576.868781358959L141.9230769230769,576.8719650372288L145.3846153846154,577.024210848912L148.84615384615384,576.8398172708518L152.30769230769232,576.9038596491228L155.76923076923077,576.7178412011363L159.23076923076923,576.4334381551363L162.69230769230768,576.4941161742613L166.15384615384616,576.2632567723168L169.6153846153846,577.8252838594013L173.0769230769231,576.5167421814565L176.53846153846155,576.5028164523329L180,576.5708460754332L183.46153846153845,576.3879549050632L186.92307692307693,576.317599847124L190.3846153846154,576.3182132166705L193.84615384615387,576.0761084185963L197.3076923076923,577.3765052838536L200.76923076923077,577.237701003025L204.23076923076923,575.9843350513372L207.6923076923077,576.1775009731413L211.15384615384616,576.101477199743L214.6153846153846,576.2293114110073L218.07692307692307,575.8913066781006L221.53846153846155,576.9598305869896L225,577.2359913793103L228.46153846153845,575.626357711803L231.9230769230769,576.8685399048226L235.3846153846154,575.5008414884996L238.84615384615384,576.8115402246161L242.3076923076923,576.6732007840941L245.76923076923075,575.6036666951348L249.23076923076925,576.7631703844329L252.6923076923077,576.7918534648393L256.15384615384613,577.9663905325443L259.6153846153846,575.7450856055802L263.0769230769231,576.7245834024699L266.53846153846155,575.4426956436994L270,576.430427054373L273.46153846153845,575.4513061385039L276.92307692307696,575.2451593820391L280.3846153846154,576.4515992821704L283.8461538461538,576.7051151416345L287.30769230769226,577.8396533454435L290.7692307692308,575.3139470272273L294.2307692307692,577.2162347659945L297.6923076923077,577.6805779915857L301.15384615384613,576.3672929637996L304.61538461538464,575.6999409332545L308.0769230769231,575.2823157972025L311.53846153846155,575.3772977612474L315,576.4642057043502L318.46153846153845,575.2884400707576L321.9230769230769,575.3564963797264L325.38461538461536,575.1773143404832L328.8461538461538,575.7108254440681L332.3076923076923,576.3238783189519L335.7692307692308,577.2470839260312L339.2307692307692,576.3557898395412L342.6923076923077,575.3856494955016L346.1538461538462,575.1272897524434L349.61538461538464,577.3887476367429L353.0769230769231,576.3583382345079L356.53846153846155,576.4948063965385L360,577.1870967741936L363.46153846153845,576.3716245177882L366.9230769230769,576.7693130959331L370.38461538461536,575.3572965992252L373.84615384615387,575.333631885356L377.3076923076923,575.6774364470563L380.7692307692308,575.9125027811282L384.2307692307692,575.2806429532419L387.69230769230774,575.7650695517774L391.1538461538462,576.3886834319527L394.6153846153846,577.1410243145369L398.07692307692304,575.1189685701638L401.53846153846155,575.0404259730057L405,576.6392282441752L408.46153846153845,575.7112953538007L411.9230769230769,575.1779141104295L415.3846153846154,576.40095244522L418.84615384615387,575.0851359873473L422.3076923076923,575.1840881897177L425.7692307692308,575.1049743008973L429.2307692307692,575.1337056098326L432.6923076923077,575.145966278047L436.15384615384613,574.92246081228L439.6153846153846,575.9842167957117L443.0769230769231,575.1715531150552L446.53846153846155,576.4274108206748L450,576.1178397160409L453.46153846153845,575.2111922099772L456.9230769230769,576.2653846153846L460.38461538461536,575.818765177954L463.8461538461538,576.3073006411151L467.3076923076923,576.3043777533039L470.7692307692308,576.2285576043486L474.2307692307692,576.9205786618445L477.6923076923077,576.2745500381075L481.15384615384613,576.2557199759996L484.6153846153846,576.8762058100962L488.07692307692304,576.2389623172103L491.5384615384615,576.6332422170567L495.00000000000006,576.9368610305776L498.4615384615385,575.2352048558422L501.92307692307696,575.537433868771L505.3846153846154,576.4264897215717L508.8461538461538,576.6884328358209L512.3076923076923,576.4016375781082L515.7692307692307,576.4903417903661L519.2307692307692,576.9563043334197L522.6923076923077,576.4220367644375L526.1538461538462,576.372725358679L529.6153846153846,576.4238869634764L533.0769230769231,576.6838041812451L536.5384615384615,576.4630456706527L540,575.5236207661588L543.4615384615385,576.3935709939834L546.9230769230769,575.1302126063617L550.3846153846155,575.6777267813991L553.8461538461539,576.373122254977L557.3076923076924,576.423603308615L560.7692307692308,576.4606691183066L564.2307692307692,576.3755760007114L567.6923076923076,576.3549202835969L571.1538461538461,576.4089873437077L574.6153846153845,576.3164068029687L578.0769230769231,576.3962003952944L581.5384615384615,576.6615593398416L585,576.764673509918L588.4615384615385,576.889244302279L591.9230769230769,576.3915577106654L595.3846153846154,576.3445998701824L598.8461538461538,576.8561083338261L602.3076923076923,576.3585001860298L605.7692307692308,576.7918993977596L609.2307692307693,576.1958963741813L612.6923076923077,576.2626298641969L616.1538461538462,576.3018562434279L619.6153846153846,576.2335123719932L623.0769230769231,576.2681338946026L626.5384615384615,576.3267448780073L630,576.2538954275377L633.4615384615385,576.2222519222656L636.9230769230769,576.090395480226L640.3846153846154,576.1951033901495L643.8461538461538,576.2188346609519L647.3076923076923,576.2379035642765L650.7692307692307,576.1952719219356L654.2307692307692,576.1831046127176L657.6923076923076,576.06035427711L661.1538461538462,576.2040572013982L664.6153846153846,576.099676212487L668.0769230769231,576.1864594811085L671.5384615384615,576.1678573823128L675,576.1258882273862L678.4615384615385,576.166647203083L681.9230769230769,576.2209182882743L685.3846153846154,576.1797062082276L688.8461538461538,576.2105728117601L692.3076923076924,576.13323271853L695.7692307692308,576.1999528723603L699.2307692307693,576.4449485208225L702.6923076923077,576.497267447907L706.1538461538462,576.1564334679186L709.6153846153846,576.1211215727956L713.0769230769231,576.0391126581396L716.5384615384615,576.964797328493L720,576.0878343449975L723.4615384615385,576.1705848752656L726.9230769230769,576.1000755539828L730.3846153846154,576.1337958218368L733.8461538461538,576.1069241786489L737.3076923076923,576.1081906579228L740.7692307692307,576.0606377417669L744.2307692307692,576.1273672890326L747.6923076923077,576.0239412351501L751.1538461538462,576.0846717334672L754.6153846153846,576.1731770257318L758.0769230769231,576.0980250178092L761.5384615384615,576.0961962505773L765,576.050736969627L768.4615384615385,575.9343717954978L771.9230769230769,576.0669191919192L775.3846153846155,576.0140823683574L778.8461538461539,576.0638963596264L782.3076923076924,576.0865003015723L785.7692307692308,576.0838654897796L789.2307692307692,576.0934266445562L792.6923076923076,576.1441736999L796.1538461538461,576.1210595632595L799.6153846153845,576.1439823276486L803.0769230769231,576.0833494518822L806.5384615384615,576.1403431667826L810,576.1508347253964L813.4615384615385,576.3784331880718L816.9230769230769,576.9545946866899L820.3846153846154,576.1201155389944L823.8461538461538,575.9797450672254L827.3076923076923,576.0922916323008L830.7692307692308,576.1091484004451L834.2307692307693,576.1614271607681L837.6923076923077,577.0047095181233L841.1538461538462,576.1419315891546L844.6153846153846,576.1808922234042L848.0769230769231,576.3054992465037L851.5384615384615,576.0723431274727L855,576.1321078200116L858.4615384615385,576.1554232336663L861.9230769230769,576.1956845775819L865.3846153846154,576.172749249862L868.8461538461538,576.096358490903L872.3076923076923,576.0926382365251L875.7692307692307,576.1716929733897L879.2307692307692,576.0185069783815L882.6923076923076,576.1306586916857L886.1538461538462,576.0864236484499" style="fill: none; stroke: #2ca02c; stroke-width: 2;"></path></g></g><path class="foreground" d="" style="display: none; fill: none;"></path></g><g transform="translate(0,0)"><path class="background" d="M0,0h900v600h-900Z" style="fill: none;"></path><g><g class="mark-line role-mark marks"><path d="M6.923076923076923,586.2784944697729L10.384615384615385,584.3754650448061L13.846153846153847,584.0889211677219L17.30769230769231,583.4219858156029L20.76923076923077,582.9709424812179L24.230769230769234,582.6649093412163L27.692307692307693,582.4475217979204L31.153846153846157,582.3170060539351L34.61538461538462,582.3934545077935L38.07692307692308,582.0943593314763L41.53846153846154,582.7932803823716L45,582.663528843833L48.46153846153847,582.5577134481496L51.92307692307693,582.6303042534942L55.38461538461539,582.4287829168723L58.84615384615385,582.3223923559749L62.307692307692314,582.265867106693L65.76923076923077,582.2796506171948L69.23076923076924,582.2228031763668L72.6923076923077,582.1681957186545L76.15384615384616,582.0924664987718L79.61538461538461,582.098138747885L83.07692307692308,582.0571707793794L86.53846153846155,582.0488271900431L90,582.0184634642466L93.46153846153847,581.9696220211249L96.92307692307693,581.9532175620324L100.38461538461539,581.9681538704083L103.84615384615385,581.8949195329757L107.3076923076923,581.8920416759033L110.76923076923077,581.8874206638227L114.23076923076923,581.864224137931L117.6923076923077,581.8406948807984L121.15384615384615,581.8534332520042L124.61538461538463,581.812778603269L128.07692307692307,581.806597873671L131.53846153846155,581.800118623962L135,581.8394437420986L138.46153846153848,581.8035857639818L141.9230769230769,581.7562563840654L145.3846153846154,581.7324561403509L148.84615384615384,581.7652859960552L152.30769230769232,581.7317939609236L155.76923076923077,581.7344935533507L159.23076923076923,581.7029501525941L162.69230769230768,581.6975338726971L166.15384615384616,581.687783440086L169.6153846153846,581.6996951219512L173.0769230769231,581.6802448381396L176.53846153846155,581.6663902479477L180,581.6648717641897L183.46153846153845,581.6680102883029L186.92307692307693,581.6454383886256L190.3846153846154,581.645072634472L193.84615384615387,581.7549623545517L197.3076923076923,581.6373549652582L200.76923076923077,581.6310667137764L204.23076923076923,581.6186245884327L207.6923076923077,581.6138917262513L211.15384615384616,581.6246913580247L214.6153846153846,581.6133479643229L218.07692307692307,581.609474229333L221.53846153846155,581.6085153588125L225,581.5899420720767L228.46153846153845,581.5795626974453L231.9230769230769,581.5780325890163L235.3846153846154,581.5712108779744L238.84615384615384,581.5733995082416L242.3076923076923,581.5663103852708L245.76923076923075,581.5681593323869L249.23076923076925,581.5558485590507L252.6923076923077,581.564306064306L256.15384615384613,581.5553486160369L259.6153846153846,581.5452755905512L263.0769230769231,581.5992354252946L266.53846153846155,581.5519071674354L270,581.5415915621152L273.46153846153845,581.5454592892801L276.92307692307696,581.5852275612275L280.3846153846154,581.5403329912946L283.8461538461538,581.5319492689232L287.30769230769226,581.5258782515419L290.7692307692308,581.5191199580933L294.2307692307692,581.5228510395042L297.6923076923077,581.521684816954L301.15384615384613,581.5739202657808L304.61538461538464,581.5080346106304L308.0769230769231,581.5133168588687L311.53846153846155,581.511070531842L315,581.5163530848313L318.46153846153845,581.500642838776L321.9230769230769,581.5108646446356L325.38461538461536,581.4893590802104L328.8461538461538,581.5063704632297L332.3076923076923,581.4981282254159L335.7692307692308,581.5023360162827L339.2307692307692,581.4993767705382L342.6923076923077,581.4865885908577L346.1538461538462,581.4968000348296L349.61538461538464,581.4980422281258L353.0769230769231,581.4875444839857L356.53846153846155,581.4893464159619L360,581.4800116837727L363.46153846153845,581.4795600747043L366.9230769230769,581.4758279590749L370.38461538461536,581.4739336944002L373.84615384615387,581.4730862305773L377.3076923076923,581.4786659452917L380.7692307692308,581.4786468697382L384.2307692307692,581.4736553480926L387.69230769230774,581.4747376468135L391.1538461538462,581.4736707348297L394.6153846153846,581.469788975744L398.07692307692304,581.4736226247178L401.53846153846155,581.4649640241136L405,581.4690916619553L408.46153846153845,581.464904312964L411.9230769230769,581.4727906600891L415.3846153846154,581.4633924717748L418.84615384615387,581.470399928531L422.3076923076923,581.4623353407476L425.7692307692308,581.4650370060752L429.2307692307692,581.4580096897987L432.6923076923077,581.4812878217463L436.15384615384613,581.4853332601597L439.6153846153846,581.4862054529987L443.0769230769231,581.4565621192653L446.53846153846155,581.4604399997379L450,581.4800489911687L453.46153846153845,581.4489832254454L456.9230769230769,581.4436244722037L460.38461538461536,581.4481192895437L463.8461538461538,581.4495114006514L467.3076923076923,581.451270108302L470.7692307692308,581.4425420657826L474.2307692307692,581.4460080246555L477.6923076923077,581.4477439171146L481.15384615384613,581.4396469398249L484.6153846153846,581.4454919561864L488.07692307692304,581.4410521113613L491.5384615384615,581.461699872369L495.00000000000006,581.461649628575L498.4615384615385,581.4702403793084L501.92307692307696,581.4496206105523L505.3846153846154,581.4409948067646L508.8461538461538,581.504639535996L512.3076923076923,581.4338636737584L515.7692307692307,581.454621394526L519.2307692307692,581.4390667611293L522.6923076923077,581.4395230798697L526.1538461538462,581.4580766380112L529.6153846153846,581.4362483731475L533.0769230769231,581.5060412289796L536.5384615384615,581.4288117713392L540,581.5260133158883L543.4615384615385,581.4555166599546L546.9230769230769,581.4428139156595L550.3846153846155,581.437283772519L553.8461538461539,581.4305159090812L557.3076923076924,581.4317919416142L560.7692307692308,581.4276020830819L564.2307692307692,581.435094987957L567.6923076923076,581.4260180039647L571.1538461538461,581.4321878184401L574.6153846153845,581.4550838466532L578.0769230769231,581.465698213078L581.5384615384615,581.4626419351474L585,581.7040847087195L588.4615384615385,581.4451834143431L591.9230769230769,581.4474509218481L595.3846153846154,581.4327959271825L598.8461538461538,581.4267096934343L602.3076923076923,581.4470582298193L605.7692307692308,581.4477275804808L609.2307692307693,581.4429342176206L612.6923076923077,581.4263145780586L616.1538461538462,581.4200215938764L619.6153846153846,581.4213892252333L623.0769230769231,581.423835364188L626.5384615384615,581.44520552509L630,581.4201152193854L633.4615384615385,581.4362527716187L636.9230769230769,581.4215806530749L640.3846153846154,581.4208391876357L643.8461538461538,581.4172780526645L647.3076923076923,581.4329306381491L650.7692307692307,581.4235451976527L654.2307692307692,581.4176295625352L657.6923076923076,581.435490067367L661.1538461538462,581.436828399533L664.6153846153846,581.4161590880784L668.0769230769231,581.4225991750327L671.5384615384615,581.4241957071476L675,581.4245155876885L678.4615384615385,581.4395943875883L681.9230769230769,581.448487626289L685.3846153846154,581.4400329723272L688.8461538461538,581.4272669087057L692.3076923076924,581.4464662339327L695.7692307692308,581.4281426439094L699.2307692307693,581.5766660646559L702.6923076923077,581.5242342565682L706.1538461538462,581.429036424154L709.6153846153846,581.4339099950364L713.0769230769231,581.5138694922421L716.5384615384615,581.426196444007L720,581.4286183222106L723.4615384615385,581.5038719528142L726.9230769230769,581.4343379312053L730.3846153846154,581.5109867963015L733.8461538461538,581.4641436196022L737.3076923076923,581.5305093715651L740.7692307692307,581.4566362744258L744.2307692307692,581.4570325588859L747.6923076923077,581.4913308286468L751.1538461538462,581.4969327705842L754.6153846153846,581.6294362687137L758.0769230769231,581.4743292616425L761.5384615384615,581.5430859475767L765,581.473490908523L768.4615384615385,581.4234179502587L771.9230769230769,581.625805806589L775.3846153846155,581.5191688964478L778.8461538461539,581.5979156599199L782.3076923076924,581.5372904240955L785.7692307692308,581.5915648345645L789.2307692307692,581.5133974985199L792.6923076923076,581.6786822581639L796.1538461538461,581.5969877422391L799.6153846153845,581.510847233772L803.0769230769231,581.7248404183077L806.5384615384615,581.5601429773086L810,581.5475923807787L813.4615384615385,581.739398513205L816.9230769230769,581.7129525012506L820.3846153846154,581.723379576462L823.8461538461538,581.6446377717713L827.3076923076923,581.8369423511082L830.7692307692308,581.7008902875681L834.2307692307693,581.7940656933499L837.6923076923077,581.6371466777332L841.1538461538462,581.6192912362168L844.6153846153846,581.6273265090882L848.0769230769231,581.6148252514297L851.5384615384615,581.6997561205558L855,581.6572048076855L858.4615384615385,581.7009405332371L861.9230769230769,581.7519096128143L865.3846153846154,581.6796762518601L868.8461538461538,581.6099061107028L872.3076923076923,581.7979676379988L875.7692307692307,582.2432817895211L879.2307692307692,581.7696582056086L882.6923076923076,582.4086996513329L886.1538461538462,582.0881739169579" style="fill: none; stroke: #98df8a; stroke-width: 2;"></path></g></g><path class="foreground" d="" style="display: none; fill: none;"></path></g></g><g class="mark-group role-legend"><g transform="translate(918,0)"><path class="background" d="M0,0h119v92h-119Z" style="pointer-events: none; fill: none;"></path><g><g class="mark-group role-legend-entry"><g transform="translate(0,16)"><path class="background" d="M0,0h0v0h0Z" style="pointer-events: none; fill: none;"></path><g><g class="mark-group role-scope"><g transform="translate(0,0)"><path class="background" d="M0,0h119v11h-119Z" style="pointer-events: none; fill: none; opacity: 1;"></path><g><g class="mark-symbol role-legend-symbol" style="pointer-events: none;"><path transform="translate(6,6)" d="M-5,0L5,0" style="fill: none; stroke: #1f77b4; stroke-width: 1.5; opacity: 1;"></path></g><g class="mark-text role-legend-label" style="pointer-events: none;"><text text-anchor="start" transform="translate(16,9)" style="font-family: sans-serif; font-size: 10px; fill: #000; opacity: 1;">01. LoopVectorization</text></g></g><path class="foreground" d="" style="pointer-events: none; display: none; fill: none;"></path></g><g transform="translate(0,13)"><path class="background" d="M0,0h119v11h-119Z" style="pointer-events: none; fill: none; opacity: 1;"></path><g><g class="mark-symbol role-legend-symbol" style="pointer-events: none;"><path transform="translate(6,6)" d="M-5,0L5,0" style="fill: none; stroke: #aec7e8; stroke-width: 1.5; opacity: 1;"></path></g><g class="mark-text role-legend-label" style="pointer-events: none;"><text text-anchor="start" transform="translate(16,9)" style="font-family: sans-serif; font-size: 10px; fill: #000; opacity: 1;">02. Julia</text></g></g><path class="foreground" d="" style="pointer-events: none; display: none; fill: none;"></path></g><g transform="translate(0,26)"><path class="background" d="M0,0h119v11h-119Z" style="pointer-events: none; fill: none; opacity: 1;"></path><g><g class="mark-symbol role-legend-symbol" style="pointer-events: none;"><path transform="translate(6,6)" d="M-5,0L5,0" style="fill: none; stroke: #ff7f0e; stroke-width: 1.5; opacity: 1;"></path></g><g class="mark-text role-legend-label" style="pointer-events: none;"><text text-anchor="start" transform="translate(16,9)" style="font-family: sans-serif; font-size: 10px; fill: #000; opacity: 1;">03. Clang</text></g></g><path class="foreground" d="" style="pointer-events: none; display: none; fill: none;"></path></g><g transform="translate(0,39)"><path class="background" d="M0,0h119v11h-119Z" style="pointer-events: none; fill: none; opacity: 1;"></path><g><g class="mark-symbol role-legend-symbol" style="pointer-events: none;"><path transform="translate(6,6)" d="M-5,0L5,0" style="fill: none; stroke: #ffbb78; stroke-width: 1.5; opacity: 1;"></path></g><g class="mark-text role-legend-label" style="pointer-events: none;"><text text-anchor="start" transform="translate(16,9)" style="font-family: sans-serif; font-size: 10px; fill: #000; opacity: 1;">04. GFortran</text></g></g><path class="foreground" d="" style="pointer-events: none; display: none; fill: none;"></path></g><g transform="translate(0,52)"><path class="background" d="M0,0h119v11h-119Z" style="pointer-events: none; fill: none; opacity: 1;"></path><g><g class="mark-symbol role-legend-symbol" style="pointer-events: none;"><path transform="translate(6,6)" d="M-5,0L5,0" style="fill: none; stroke: #2ca02c; stroke-width: 1.5; opacity: 1;"></path></g><g class="mark-text role-legend-label" style="pointer-events: none;"><text text-anchor="start" transform="translate(16,9)" style="font-family: sans-serif; font-size: 10px; fill: #000; opacity: 1;">05. icc</text></g></g><path class="foreground" d="" style="pointer-events: none; display: none; fill: none;"></path></g><g transform="translate(0,65)"><path class="background" d="M0,0h119v11h-119Z" style="pointer-events: none; fill: none; opacity: 1;"></path><g><g class="mark-symbol role-legend-symbol" style="pointer-events: none;"><path transform="translate(6,6)" d="M-5,0L5,0" style="fill: none; stroke: #98df8a; stroke-width: 1.5; opacity: 1;"></path></g><g class="mark-text role-legend-label" style="pointer-events: none;"><text text-anchor="start" transform="translate(16,9)" style="font-family: sans-serif; font-size: 10px; fill: #000; opacity: 1;">06. ifort</text></g></g><path class="foreground" d="" style="pointer-events: none; display: none; fill: none;"></path></g></g></g><path class="foreground" d="" style="pointer-events: none; display: none; fill: none;"></path></g></g><g class="mark-text role-legend-title" style="pointer-events: none;"><text text-anchor="start" transform="translate(0,9)" style="font-family: sans-serif; font-size: 11px; font-weight: bold; fill: #000; opacity: 1;">Method</text></g></g><path class="foreground" d="" style="pointer-events: none; display: none; fill: none;"></path></g></g></g><path class="foreground" d="" style="display: none; fill: none;"></path></g></g></g></svg>
