<?xml version="1.0" encoding="UTF-8"?>
<svg xmlns="http://www.w3.org/2000/svg"
     xmlns:xlink="http://www.w3.org/1999/xlink"
     xmlns:gadfly="http://www.gadflyjl.org/ns"
     version="1.2"
     width="304.8mm" height="203.2mm" viewBox="0 0 304.8 203.2"
     stroke="none"
     fill="#000000"
     stroke-width="0.3"
     font-size="3.88"
>
<defs>
  <marker id="arrow" markerWidth="15" markerHeight="7" refX="5" refY="3.5" orient="auto" markerUnits="strokeWidth">
    <path d="M0,0 L15,3.5 L0,7 z" stroke="context-stroke" fill="context-stroke"/>
  </marker>
</defs>
<g class="plotroot xscalable yscalable" id="img-62464005-1">
  <g font-size="3.88" font-family="'PT Sans','Helvetica Neue','Helvetica',sans-serif" fill="#564A55" stroke="#000000" stroke-opacity="0.000" id="img-62464005-2">
    <g transform="translate(144.63,191.59)">
      <g class="primitive">
        <text text-anchor="middle" dy="0.6em">Size</text>
      </g>
    </g>
  </g>
  <g class="guide xlabels" font-size="2.82" font-family="'PT Sans Caption','Helvetica Neue','Helvetica',sans-serif" fill="#6C606B" id="img-62464005-3">
    <g transform="translate(21.63,184.92)">
      <g class="primitive">
        <text text-anchor="middle" dy="0.6em">0</text>
      </g>
    </g>
    <g transform="translate(40.55,184.92)">
      <g class="primitive">
        <text text-anchor="middle" dy="0.6em">20</text>
      </g>
    </g>
    <g transform="translate(59.48,184.92)">
      <g class="primitive">
        <text text-anchor="middle" dy="0.6em">40</text>
      </g>
    </g>
    <g transform="translate(78.4,184.92)">
      <g class="primitive">
        <text text-anchor="middle" dy="0.6em">60</text>
      </g>
    </g>
    <g transform="translate(97.32,184.92)">
      <g class="primitive">
        <text text-anchor="middle" dy="0.6em">80</text>
      </g>
    </g>
    <g transform="translate(116.25,184.92)">
      <g class="primitive">
        <text text-anchor="middle" dy="0.6em">100</text>
      </g>
    </g>
    <g transform="translate(135.17,184.92)">
      <g class="primitive">
        <text text-anchor="middle" dy="0.6em">120</text>
      </g>
    </g>
    <g transform="translate(154.09,184.92)">
      <g class="primitive">
        <text text-anchor="middle" dy="0.6em">140</text>
      </g>
    </g>
    <g transform="translate(173.01,184.92)">
      <g class="primitive">
        <text text-anchor="middle" dy="0.6em">160</text>
      </g>
    </g>
    <g transform="translate(191.94,184.92)">
      <g class="primitive">
        <text text-anchor="middle" dy="0.6em">180</text>
      </g>
    </g>
    <g transform="translate(210.86,184.92)">
      <g class="primitive">
        <text text-anchor="middle" dy="0.6em">200</text>
      </g>
    </g>
    <g transform="translate(229.78,184.92)">
      <g class="primitive">
        <text text-anchor="middle" dy="0.6em">220</text>
      </g>
    </g>
    <g transform="translate(248.7,184.92)">
      <g class="primitive">
        <text text-anchor="middle" dy="0.6em">240</text>
      </g>
    </g>
    <g transform="translate(267.63,184.92)">
      <g class="primitive">
        <text text-anchor="middle" dy="0.6em">260</text>
      </g>
    </g>
  </g>
  <g class="guide colorkey" id="img-62464005-4">
    <g fill="#4C404B" font-size="2.82" font-family="'PT Sans','Helvetica Neue','Helvetica',sans-serif" id="img-62464005-5">
      <g transform="translate(274.25,77.07)" id="img-62464005-6">
        <g class="primitive">
          <text dy="0.35em">LoopVectorization</text>
        </g>
      </g>
      <g transform="translate(274.25,80.69)" id="img-62464005-7">
        <g class="primitive">
          <text dy="0.35em">Julia</text>
        </g>
      </g>
      <g transform="translate(274.25,84.32)" id="img-62464005-8">
        <g class="primitive">
          <text dy="0.35em">Clang</text>
        </g>
      </g>
      <g transform="translate(274.25,87.95)" id="img-62464005-9">
        <g class="primitive">
          <text dy="0.35em">GFortran</text>
        </g>
      </g>
      <g transform="translate(274.25,91.57)" id="img-62464005-10">
        <g class="primitive">
          <text dy="0.35em">icc</text>
        </g>
      </g>
      <g transform="translate(274.25,95.2)" id="img-62464005-11">
        <g class="primitive">
          <text dy="0.35em">ifort</text>
        </g>
      </g>
      <g transform="translate(274.25,98.83)" id="img-62464005-12">
        <g class="primitive">
          <text dy="0.35em">g++ with Eigen-3</text>
        </g>
      </g>
      <g transform="translate(274.25,102.45)" id="img-62464005-13">
        <g class="primitive">
          <text dy="0.35em">clang++ with Eigen-3</text>
        </g>
      </g>
      <g transform="translate(274.25,106.08)" id="img-62464005-14">
        <g class="primitive">
          <text dy="0.35em">GFortran-builtin</text>
        </g>
      </g>
      <g transform="translate(274.25,109.71)" id="img-62464005-15">
        <g class="primitive">
          <text dy="0.35em">OpenBLAS</text>
        </g>
      </g>
      <g transform="translate(274.25,113.33)" id="img-62464005-16">
        <g class="primitive">
          <text dy="0.35em">ifort-builtin</text>
        </g>
      </g>
      <g transform="translate(274.25,116.96)" id="img-62464005-17">
        <g class="primitive">
          <text dy="0.35em">MKL</text>
        </g>
      </g>
    </g>
    <g stroke-width="0.3" id="img-62464005-18">
      <g stroke="#FFFFFF" fill-opacity="1" fill="#77C80D" id="img-62464005-19">
        <g transform="translate(271.44,116.96)" id="img-62464005-20">
          <circle cx="0" cy="0" r="0.9" class="primitive"/>
        </g>
      </g>
      <g stroke="#FFFFFF" fill-opacity="1" fill="#458874" id="img-62464005-21">
        <g transform="translate(271.44,113.33)" id="img-62464005-22">
          <circle cx="0" cy="0" r="0.9" class="primitive"/>
        </g>
      </g>
      <g stroke="#FFFFFF" fill-opacity="1" fill="#2F5EB8" id="img-62464005-23">
        <g transform="translate(271.44,109.71)" id="img-62464005-24">
          <circle cx="0" cy="0" r="0.9" class="primitive"/>
        </g>
      </g>
      <g stroke="#FFFFFF" fill-opacity="1" fill="#33AE26" id="img-62464005-25">
        <g transform="translate(271.44,106.08)" id="img-62464005-26">
          <circle cx="0" cy="0" r="0.9" class="primitive"/>
        </g>
      </g>
      <g stroke="#FFFFFF" fill-opacity="1" fill="#F2ED37" id="img-62464005-27">
        <g transform="translate(271.44,102.45)" id="img-62464005-28">
          <circle cx="0" cy="0" r="0.9" class="primitive"/>
        </g>
      </g>
      <g stroke="#FFFFFF" fill-opacity="1" fill="#FCC884" id="img-62464005-29">
        <g transform="translate(271.44,98.83)" id="img-62464005-30">
          <circle cx="0" cy="0" r="0.9" class="primitive"/>
        </g>
      </g>
      <g stroke="#FFFFFF" fill-opacity="1" fill="#FC93C0" id="img-62464005-31">
        <g transform="translate(271.44,95.2)" id="img-62464005-32">
          <circle cx="0" cy="0" r="0.9" class="primitive"/>
        </g>
      </g>
      <g stroke="#FFFFFF" fill-opacity="1" fill="#EF54F2" id="img-62464005-33">
        <g transform="translate(271.44,91.57)" id="img-62464005-34">
          <circle cx="0" cy="0" r="0.9" class="primitive"/>
        </g>
      </g>
      <g stroke="#FFFFFF" fill-opacity="1" fill="#B341FB" id="img-62464005-35">
        <g transform="translate(271.44,87.95)" id="img-62464005-36">
          <circle cx="0" cy="0" r="0.9" class="primitive"/>
        </g>
      </g>
      <g stroke="#FFFFFF" fill-opacity="1" fill="#732CF8" id="img-62464005-37">
        <g transform="translate(271.44,84.32)" id="img-62464005-38">
          <circle cx="0" cy="0" r="0.9" class="primitive"/>
        </g>
      </g>
      <g stroke="#FFFFFF" fill-opacity="1" fill="#FF0000" id="img-62464005-39">
        <g transform="translate(271.44,80.69)" id="img-62464005-40">
          <circle cx="0" cy="0" r="0.9" class="primitive"/>
        </g>
      </g>
      <g stroke="#FFFFFF" fill-opacity="1" fill="#000000" id="img-62464005-41">
        <g transform="translate(271.44,77.07)" id="img-62464005-42">
          <circle cx="0" cy="0" r="0.9" class="primitive"/>
        </g>
      </g>
    </g>
    <g fill="#362A35" font-size="3.88" font-family="'PT Sans','Helvetica Neue','Helvetica',sans-serif" stroke="#000000" stroke-opacity="0.000" id="img-62464005-43">
      <g transform="translate(270.63,73.75)" id="img-62464005-44">
        <g class="primitive">
          <text dy="-0em">Methods</text>
        </g>
      </g>
    </g>
  </g>
  <g clip-path="url(#img-62464005-45)">
    <g id="img-62464005-46">
      <g pointer-events="visible" stroke-width="0.3" fill="#000000" fill-opacity="0.000" stroke="#000000" stroke-opacity="0.000" class="guide background" id="img-62464005-47">
        <g transform="translate(144.63,94.46)" id="img-62464005-48">
          <path d="M-125,-89.46 L125,-89.46 125,89.46 -125,89.46  z" class="primitive"/>
        </g>
      </g>
      <g class="guide ygridlines xfixed" stroke-dasharray="0.5,0.5" stroke-width="0.2" stroke="#D0D0E0" id="img-62464005-49">
        <g transform="translate(144.63,181.91)" id="img-62464005-50">
          <path fill="none" d="M-125,0 L125,0 " class="primitive"/>
        </g>
        <g transform="translate(144.63,167.34)" id="img-62464005-51">
          <path fill="none" d="M-125,0 L125,0 " class="primitive"/>
        </g>
        <g transform="translate(144.63,152.76)" id="img-62464005-52">
          <path fill="none" d="M-125,0 L125,0 " class="primitive"/>
        </g>
        <g transform="translate(144.63,138.19)" id="img-62464005-53">
          <path fill="none" d="M-125,0 L125,0 " class="primitive"/>
        </g>
        <g transform="translate(144.63,123.61)" id="img-62464005-54">
          <path fill="none" d="M-125,0 L125,0 " class="primitive"/>
        </g>
        <g transform="translate(144.63,109.03)" id="img-62464005-55">
          <path fill="none" d="M-125,0 L125,0 " class="primitive"/>
        </g>
        <g transform="translate(144.63,94.46)" id="img-62464005-56">
          <path fill="none" d="M-125,0 L125,0 " class="primitive"/>
        </g>
        <g transform="translate(144.63,79.88)" id="img-62464005-57">
          <path fill="none" d="M-125,0 L125,0 " class="primitive"/>
        </g>
        <g transform="translate(144.63,65.3)" id="img-62464005-58">
          <path fill="none" d="M-125,0 L125,0 " class="primitive"/>
        </g>
        <g transform="translate(144.63,50.73)" id="img-62464005-59">
          <path fill="none" d="M-125,0 L125,0 " class="primitive"/>
        </g>
        <g transform="translate(144.63,36.15)" id="img-62464005-60">
          <path fill="none" d="M-125,0 L125,0 " class="primitive"/>
        </g>
        <g transform="translate(144.63,21.58)" id="img-62464005-61">
          <path fill="none" d="M-125,0 L125,0 " class="primitive"/>
        </g>
        <g transform="translate(144.63,7)" id="img-62464005-62">
          <path fill="none" d="M-125,0 L125,0 " class="primitive"/>
        </g>
      </g>
      <g class="guide xgridlines yfixed" stroke-dasharray="0.5,0.5" stroke-width="0.2" stroke="#D0D0E0" id="img-62464005-63">
        <g transform="translate(21.63,94.46)" id="img-62464005-64">
          <path fill="none" d="M0,-89.46 L0,89.46 " class="primitive"/>
        </g>
        <g transform="translate(40.55,94.46)" id="img-62464005-65">
          <path fill="none" d="M0,-89.46 L0,89.46 " class="primitive"/>
        </g>
        <g transform="translate(59.48,94.46)" id="img-62464005-66">
          <path fill="none" d="M0,-89.46 L0,89.46 " class="primitive"/>
        </g>
        <g transform="translate(78.4,94.46)" id="img-62464005-67">
          <path fill="none" d="M0,-89.46 L0,89.46 " class="primitive"/>
        </g>
        <g transform="translate(97.32,94.46)" id="img-62464005-68">
          <path fill="none" d="M0,-89.46 L0,89.46 " class="primitive"/>
        </g>
        <g transform="translate(116.25,94.46)" id="img-62464005-69">
          <path fill="none" d="M0,-89.46 L0,89.46 " class="primitive"/>
        </g>
        <g transform="translate(135.17,94.46)" id="img-62464005-70">
          <path fill="none" d="M0,-89.46 L0,89.46 " class="primitive"/>
        </g>
        <g transform="translate(154.09,94.46)" id="img-62464005-71">
          <path fill="none" d="M0,-89.46 L0,89.46 " class="primitive"/>
        </g>
        <g transform="translate(173.01,94.46)" id="img-62464005-72">
          <path fill="none" d="M0,-89.46 L0,89.46 " class="primitive"/>
        </g>
        <g transform="translate(191.94,94.46)" id="img-62464005-73">
          <path fill="none" d="M0,-89.46 L0,89.46 " class="primitive"/>
        </g>
        <g transform="translate(210.86,94.46)" id="img-62464005-74">
          <path fill="none" d="M0,-89.46 L0,89.46 " class="primitive"/>
        </g>
        <g transform="translate(229.78,94.46)" id="img-62464005-75">
          <path fill="none" d="M0,-89.46 L0,89.46 " class="primitive"/>
        </g>
        <g transform="translate(248.7,94.46)" id="img-62464005-76">
          <path fill="none" d="M0,-89.46 L0,89.46 " class="primitive"/>
        </g>
        <g transform="translate(267.63,94.46)" id="img-62464005-77">
          <path fill="none" d="M0,-89.46 L0,89.46 " class="primitive"/>
        </g>
      </g>
      <g class="plotpanel" id="img-62464005-78">
        <metadata>
          <boundingbox value="19.63166666666666mm 5.0mm 249.99499999999995mm 178.915mm"/>
          <unitbox value="-2.113864102928922 121.37209501757997 264.22772820585783 -122.74419003515995"/>
        </metadata>
        <g stroke-width="0.3" fill="#000000" fill-opacity="0.000" class="geometry" id="img-62464005-79">
          <g class="color_RGB{Float64}(0.46484,0.78619,0.051424)" stroke-dasharray="none" stroke="#77C80D" id="img-62464005-80">
            <g transform="translate(143.68,53.46)" id="img-62464005-81">
              <path fill="none" d="M-120.16,128.22 L-119.21,127.94 -118.27,127.23 -117.32,126.08 -116.37,124.76 -115.43,122.63 -114.48,119.84 -113.54,117.53 -112.59,115.01 -111.64,110.28 -110.7,105.83 -109.75,104.96 -108.81,97.47 -107.86,94.96 -106.91,83.49 -105.97,85.48 -105.02,80.63 -104.07,74.57 -103.13,71.06 -102.18,60.85 -101.24,54.17 -100.29,51.73 -99.34,33.41 -98.4,67.02 -97.45,55.5 -96.51,51.74 -95.56,46.84 -94.61,40.65 -93.67,35.83 -92.72,31.8 -91.78,17.19 -90.83,34.48 -89.88,32.88 -88.94,28.88 -87.99,25.62 -87.04,29.46 -86.1,16.75 -85.15,14.14 -84.21,-3.67 -83.26,19.98 -82.31,19.67 -81.37,16.98 -80.42,7.67 -79.48,3.58 -78.53,3.64 -77.58,-2.87 -76.64,-20.32 -75.69,14.95 -74.74,9.31 -73.8,7.15 -72.85,2.77 -71.91,1.92 -70.96,-3.38 -70.01,-4.96 -69.07,-18.59 -68.12,2.62 -67.18,-2.81 -66.23,-4.48 -65.28,-11.74 -64.34,-9.88 -63.39,-15.64 -62.44,-17.26 -61.5,-28.85 -60.55,-3.73 -59.61,-11.14 -58.66,-10.59 -57.71,-16.77 -56.77,-14.55 -55.82,-15.63 -54.88,-16.1 -53.93,-32.72 -52.98,6.38 -52.04,-3.39 -51.09,-5.78 -50.15,-10.98 -49.2,-8.98 -48.25,-12.22 -47.31,-13.03 -46.36,-24.92 -45.41,-7.7 -44.47,-11.39 -43.52,-10.83 -42.58,-17.47 -41.63,-3.01 -40.68,-18.08 -39.74,-19.09 -38.79,-32.91 -37.85,-9.65 -36.9,-16.08 -35.95,-14.34 -35.01,-21.31 -34.06,-15.12 -33.11,-23.17 -32.17,-21.88 -31.22,-37.65 -30.28,-8.66 -29.33,-7.52 -28.38,-6.74 -27.44,-15.08 -26.49,-7.61 -25.55,-8.83 -24.6,-1.12 -23.65,-28.19 -22.71,-11.4 -21.76,-16.91 -20.81,-13.16 -19.87,-23.43 -18.92,-16.43 -17.98,-20.3 -17.03,-18.77 -16.08,-36.73 -15.14,-13.6 -14.19,-12.56 -13.25,-11.42 -12.3,-21.35 -11.35,-12.4 -10.41,-19.7 -9.46,-16.57 -8.52,-39.13 -7.57,-9.14 -6.62,-13.6 -5.68,-10.3 -4.73,-21.91 -3.78,-13.84 -2.84,-19 -1.89,-16.64 -0.95,-34.28 -0,-12.83 0.95,-17.97 1.89,-14.54 2.84,-26.3 3.78,-17.6 4.73,-22.75 5.68,-20.11 6.62,-38.89 7.57,-14.66 8.52,-17.95 9.46,-16.5 10.41,-27.22 11.35,-19.42 12.3,-23.93 13.25,-22 14.19,-41.06 15.14,-11.7 16.08,-17.46 17.03,-13.83 17.98,-23.03 18.92,-15.7 19.87,-21.25 20.81,-18.61 21.76,-38.25 22.71,-13.74 23.65,-18.45 24.6,-15.28 25.55,-16.66 26.49,-18.63 27.44,-23.75 28.38,-20.76 29.33,-41.92 30.28,-16.4 31.22,-16.68 32.17,-13.88 33.11,-24.13 34.06,-17.23 35.01,-21.43 35.95,-19.15 36.9,-40.8 37.85,-13.17 38.79,-17.79 39.74,-14.48 40.68,-24.83 41.63,-16.45 42.58,-19.53 43.52,-18.87 44.47,-38.47 45.41,-14.82 46.36,-16.23 47.31,-12.78 48.25,-23.57 49.2,-15.42 50.15,-19.44 51.09,-17.28 52.04,-36.25 52.98,-16.65 53.93,-20.98 54.88,-17.98 55.82,-27.76 56.77,-20.81 57.71,-24 58.66,-23.69 59.61,-24.12 60.55,-4.06 61.5,-7.33 62.44,2.15 63.39,-11.49 64.34,0.37 65.28,-3.4 66.23,5.53 67.18,-14.99 68.12,-4.07 69.07,-5.64 70.01,3.55 70.96,-8.24 71.91,2.07 72.85,1 73.8,8.61 74.74,-19.09 75.69,-6.95 76.64,-7.27 77.58,0.19 78.53,-11.32 79.48,-1.48 80.42,-3.59 81.37,5.25 82.31,-18.72 83.26,-6.78 84.21,-8.94 85.15,-0.93 86.1,-12.29 87.04,-2.97 87.99,-4.54 88.94,3.14 89.88,-17.1 90.83,-4.64 91.78,-6.27 92.72,1.75 93.67,-9.93 94.61,0.62 95.56,-2.77 96.51,4.88 97.45,-18.83 98.4,-7.58 99.34,-9.43 100.29,-1.8 101.24,-11.68 102.18,-3.24 103.13,-4.43 104.07,1.58 105.02,-20.89 105.97,-9.61 106.91,-11.21 107.86,-2.68 108.81,-13.28 109.75,-5.25 110.7,-6.51 111.64,0.85 112.59,-17.48 113.54,-7.66 114.48,-8.42 115.43,-2.42 116.37,-11.89 117.32,-3.55 118.27,-5.34 119.21,0.58 120.16,-18.88 " class="primitive"/>
            </g>
          </g>
        </g>
        <g stroke-width="0.3" fill="#000000" fill-opacity="0.000" class="geometry" id="img-62464005-82">
          <g class="color_RGB{Float64}(0.271475,0.531685,0.455665)" stroke-dasharray="none" stroke="#458874" id="img-62464005-83">
            <g transform="translate(143.68,91.48)" id="img-62464005-84">
              <path fill="none" d="M-120.16,90.27 L-119.21,89.96 -118.27,89.31 -117.32,88.59 -116.37,86.96 -115.43,86.04 -114.48,83.27 -113.54,82.08 -112.59,80.03 -111.64,79.85 -110.7,73.2 -109.75,72.94 -108.81,70.35 -107.86,71.21 -106.91,60.11 -105.97,64.06 -105.02,55.74 -104.07,59.09 -103.13,50.62 -102.18,55.45 -101.24,53.44 -100.29,57.59 -99.34,32.02 -98.4,41.7 -97.45,39.39 -96.51,46.36 -95.56,37.51 -94.61,44.56 -93.67,35.71 -92.72,42.34 -91.78,19.6 -90.83,31.71 -89.88,30.55 -88.94,37.8 -87.99,22.22 -87.04,30.51 -86.1,29.84 -85.15,37.75 -84.21,17.5 -83.26,27.7 -82.31,20.31 -81.37,28.25 -80.42,19.37 -79.48,28.1 -78.53,26.79 -77.58,33.52 -76.64,6.22 -75.69,16.39 -74.74,15.48 -73.8,22.86 -72.85,14.18 -71.91,22.31 -70.96,15.03 -70.01,22.91 -69.07,6.42 -68.12,14.77 -67.18,13.94 -66.23,23.96 -65.28,6.45 -64.34,15.22 -63.39,15.3 -62.44,22.29 -61.5,2.76 -60.55,16.02 -59.61,8.27 -58.66,11.61 -57.71,8.19 -56.77,12.65 -55.82,15.98 -54.88,22.18 -53.93,-5.46 -52.98,6.99 -52.04,4.93 -51.09,12.84 -50.15,6.39 -49.2,16.75 -48.25,5.22 -47.31,15.83 -46.36,-7.5 -45.41,3.32 -44.47,7.51 -43.52,10.33 -42.58,-0.62 -41.63,6.68 -40.68,7.05 -39.74,13.23 -38.79,-4.93 -37.85,7.77 -36.9,-5.28 -35.95,6.23 -35.01,-4.82 -34.06,3.32 -33.11,3.21 -32.17,10.81 -31.22,-9.58 -30.28,-0.58 -29.33,-0.47 -28.38,5.55 -27.44,-5.25 -26.49,2.01 -25.55,-0.33 -24.6,5.83 -23.65,-13.45 -22.71,-4.45 -21.76,-4.08 -20.81,2.54 -19.87,-11.91 -18.92,-4.05 -17.98,-3.92 -17.03,2.52 -16.08,-8.82 -15.14,-6.15 -14.19,-14.02 -13.25,-6.77 -12.3,-13.29 -11.35,-5.88 -10.41,-5.6 -9.46,0.63 -8.52,-16.01 -7.57,-6.15 -6.62,-11.49 -5.68,-4.79 -4.73,-10.84 -3.78,-3.94 -2.84,-10.85 -1.89,-4.59 -0.95,-21.74 -0,-12.83 0.95,-12.41 1.89,-0.85 2.84,-12.8 3.78,-12.62 4.73,-6.22 5.68,-6 6.62,-12.38 7.57,-7.79 8.52,-17.83 9.46,-5.44 10.41,-17.01 11.35,-10.23 12.3,-10.09 13.25,-4.48 14.19,-19.63 15.14,-14.13 16.08,-11.59 17.03,-12.18 17.98,-18.1 18.92,-10.69 19.87,-18.26 20.81,-11.88 21.76,-24.23 22.71,-15.95 23.65,-9.5 24.6,-4.37 25.55,-15.47 26.49,-14.86 27.44,-15.33 28.38,-9.15 29.33,-24.37 30.28,-16.42 31.22,-22.89 32.17,-16.29 33.11,-22.66 34.06,-15.94 35.01,-15.22 35.95,-9.61 36.9,-28.13 37.85,-19.78 38.79,-19.6 39.74,-13.3 40.68,-18.32 41.63,-12.75 42.58,-11.18 43.52,-12.5 44.47,-18.9 45.41,-19.21 46.36,-19.15 47.31,-9.41 48.25,-24.89 49.2,-18.18 50.15,-17.35 51.09,-12.1 52.04,-16.17 52.98,-9.81 53.93,-21.2 54.88,-15.56 55.82,-19.98 56.77,-8.67 57.71,-14.38 58.66,-9.38 59.61,-27.44 60.55,-30.73 61.5,-27 62.44,-25.14 63.39,-22.16 64.34,-24.14 65.28,-29.24 66.23,-26.54 67.18,-28.83 68.12,-23.86 69.07,-27.33 70.01,-19.67 70.96,-24.08 71.91,-21.52 72.85,-20.24 73.8,-18.28 74.74,-30.52 75.69,-23.97 76.64,-29.96 77.58,-25.68 78.53,-25.63 79.48,-28.08 80.42,-24.14 81.37,-25.64 82.31,-31.4 83.26,-28.6 84.21,-23.1 85.15,-26.7 86.1,-28.41 87.04,-21.58 87.99,-24.83 88.94,-22.65 89.88,-33.27 90.83,-24.39 91.78,-26.79 92.72,-20.27 93.67,-30.73 94.61,-27.2 95.56,-28.12 96.51,-25.58 97.45,-23.17 98.4,-24.77 99.34,-24.77 100.29,-27.85 101.24,-28.36 102.18,-27.46 103.13,-26.4 104.07,-26.04 105.02,-34.3 105.97,-26.02 106.91,-25.97 107.86,-27.45 108.81,-29.54 109.75,-28.29 110.7,-26.15 111.64,-28.36 112.59,-31.15 113.54,-28 114.48,-29.32 115.43,-28.38 116.37,-31.44 117.32,-29.61 118.27,-29.91 119.21,-27.4 120.16,-31.37 " class="primitive"/>
            </g>
          </g>
        </g>
        <g stroke-width="0.3" fill="#000000" fill-opacity="0.000" class="geometry" id="img-62464005-85">
          <g class="color_RGB{Float64}(0.184295,0.36709,0.72131)" stroke-dasharray="none" stroke="#2F5EB8" id="img-62464005-86">
            <g transform="translate(143.68,130.02)" id="img-62464005-87">
              <path fill="none" d="M-120.16,51.24 L-119.21,50.44 -118.27,47.65 -117.32,47.03 -116.37,46.07 -115.43,45.82 -114.48,34.26 -113.54,36.84 -112.59,38.37 -111.64,39.5 -110.7,21.86 -109.75,31.16 -108.81,32.13 -107.86,34.19 -106.91,12.33 -105.97,27.89 -105.02,28.9 -104.07,31.28 -103.13,8.88 -102.18,21.03 -101.24,22.81 -100.29,26.02 -99.34,2.91 -98.4,16.5 -97.45,18.46 -96.51,21.93 -95.56,-0.74 -94.61,11.78 -93.67,14.59 -92.72,18.81 -91.78,-5.26 -90.83,7.76 -89.88,11.91 -88.94,16.13 -87.99,-6.83 -87.04,6.22 -86.1,10.2 -85.15,14.38 -84.21,-6.81 -83.26,4.69 -82.31,10.26 -81.37,13.67 -80.42,-9.42 -79.48,3.7 -78.53,6.05 -77.58,10.64 -76.64,-8.95 -75.69,3.31 -74.74,4.67 -73.8,8.22 -72.85,-13.03 -71.91,0.33 -70.96,5.53 -70.01,9.47 -69.07,-11.55 -68.12,0.67 -67.18,2.5 -66.23,8.89 -65.28,-13.87 -64.34,0.39 -63.39,4.34 -62.44,8.51 -61.5,-13.03 -60.55,3.31 -59.61,1.91 -58.66,7.49 -57.71,-11.64 -56.77,0.49 -55.82,3 -54.88,6.06 -53.93,-14.97 -52.98,-0.28 -52.04,0.06 -51.09,5.14 -50.15,-15.73 -49.2,0.23 -48.25,-0.68 -47.31,5.96 -46.36,-16.53 -45.41,-1.36 -44.47,0.46 -43.52,2.97 -42.58,-14.41 -41.63,0.27 -40.68,-1.09 -39.74,4.61 -38.79,-17.83 -37.85,-0.51 -36.9,-2.76 -35.95,3.63 -35.01,-18.61 -34.06,-2.43 -33.11,-3.08 -32.17,3.55 -31.22,-16.27 -30.28,-1.58 -29.33,-1.66 -28.38,2.54 -27.44,-18.49 -26.49,-3.7 -25.55,-2.05 -24.6,2.4 -23.65,-19.29 -22.71,-2.18 -21.76,-2.69 -20.81,0.24 -19.87,-16.84 -18.92,-4.84 -17.98,-3.39 -17.03,-0.29 -16.08,-17.12 -15.14,-2.87 -14.19,-3.89 -13.25,-0.9 -12.3,-20.98 -11.35,-3.81 -10.41,-6.26 -9.46,-1.1 -8.52,-19.04 -7.57,-3.39 -6.62,-6.17 -5.68,0.17 -4.73,-21.36 -3.78,-6.33 -2.84,-4.2 -1.89,-1.3 -0.95,-12.62 -0,-2.7 0.95,-4.06 1.89,1.71 2.84,-5.79 3.78,-1.09 4.73,-1.41 5.68,1.24 6.62,-6.67 7.57,-2.37 8.52,-3.82 9.46,2.79 10.41,-9.31 11.35,-1.27 12.3,-3.79 13.25,0.71 14.19,-8.97 15.14,-1.96 16.08,-1.69 17.03,0.27 17.98,-9.1 18.92,-3.32 19.87,-3.59 20.81,0.5 21.76,-9.71 22.71,-3.01 23.65,-2.12 24.6,-0.2 25.55,-7.71 26.49,-3.62 27.44,-3.21 28.38,1.84 29.33,-9.88 30.28,-3.71 31.22,-4.6 32.17,-0.65 33.11,-10.86 34.06,-4 35.01,-4.28 35.95,2.47 36.9,-10.41 37.85,-1.89 38.79,-3.62 39.74,0.21 40.68,-9.26 41.63,-2.02 42.58,-3.47 43.52,-0.45 44.47,-11.06 45.41,-4.17 46.36,-5.51 47.31,-0.56 48.25,-12.16 49.2,-4.8 50.15,-4.52 51.09,-1.13 52.04,-10.25 52.98,-2.66 53.93,-3.76 54.88,-1.87 55.82,-12.41 56.77,-2.36 57.71,-5.29 58.66,-1.77 59.61,-12.4 60.55,-4.23 61.5,-5.95 62.44,-1.66 63.39,-10.56 64.34,-5.27 65.28,-5.8 66.23,-2.1 67.18,-13.19 68.12,-3.92 69.07,-6.63 70.01,-0.51 70.96,-11.02 71.91,-3.34 72.85,-4.28 73.8,-0.43 74.74,-13.25 75.69,-3.93 76.64,-6.47 77.58,-1.59 78.53,-11.12 79.48,-5.16 80.42,-4.26 81.37,-2.5 82.31,-13.81 83.26,-5.06 84.21,-4.5 85.15,-2.57 86.1,-14.06 87.04,-3.36 87.99,-4.28 88.94,-2.52 89.88,-14.5 90.83,-2.95 91.78,-6.3 92.72,-0.75 93.67,-14.17 94.61,-5.2 95.56,-6.68 96.51,-2.87 97.45,-11.61 98.4,-5.22 99.34,-4.74 100.29,-2.62 101.24,-14.22 102.18,-5.22 103.13,-6.45 104.07,-3.27 105.02,-14.14 105.97,-2.63 106.91,-4.59 107.86,-2.69 108.81,-14.46 109.75,-5.34 110.7,-4.56 111.64,-2.09 112.59,-12.87 113.54,-3.16 114.48,-5.16 115.43,0.84 116.37,-13.03 117.32,2.83 118.27,-3.21 119.21,2.25 120.16,-10.95 " class="primitive"/>
            </g>
          </g>
        </g>
        <g stroke-width="0.3" fill="#000000" fill-opacity="0.000" class="geometry" id="img-62464005-88">
          <g class="color_RGB{Float64}(0.19818750000000002,0.6815825,0.147585)" stroke-dasharray="none" stroke="#33AE26" id="img-62464005-89">
            <g transform="translate(143.68,157.95)" id="img-62464005-90">
              <path fill="none" d="M-120.16,23.13 L-119.21,22.18 -118.27,20.28 -117.32,19.25 -116.37,18.96 -115.43,19.03 -114.48,14.86 -113.54,15.56 -112.59,14.9 -111.64,16.39 -110.7,14.88 -109.75,13.75 -108.81,13.64 -107.86,14.02 -106.91,6.28 -105.97,11.43 -105.02,10.84 -104.07,12.24 -103.13,9.08 -102.18,11.38 -101.24,10.31 -100.29,10.32 -99.34,3.04 -98.4,8.25 -97.45,6.63 -96.51,8.18 -95.56,7.78 -94.61,7.91 -93.67,8.04 -92.72,8.95 -91.78,6.01 -90.83,7.32 -89.88,7.06 -88.94,7.62 -87.99,4.98 -87.04,5.64 -86.1,5.7 -85.15,6.61 -84.21,4.45 -83.26,5.82 -82.31,8.03 -81.37,6.85 -80.42,3.95 -79.48,4.63 -78.53,4.4 -77.58,5.43 -76.64,2.86 -75.69,4.35 -74.74,3.83 -73.8,4.76 -72.85,2 -71.91,3.29 -70.96,3.14 -70.01,4.74 -69.07,2.83 -68.12,2.99 -67.18,2.66 -66.23,3.31 -65.28,0.48 -64.34,1.94 -63.39,1.52 -62.44,2.66 -61.5,2.95 -60.55,3.36 -59.61,1.45 -58.66,2.86 -57.71,0.96 -56.77,1.01 -55.82,1.99 -54.88,1.93 -53.93,0.59 -52.98,1.78 -52.04,0.42 -51.09,1.39 -50.15,-1.44 -49.2,1.66 -48.25,-0.34 -47.31,2.24 -46.36,-1.72 -45.41,0.38 -44.47,0.35 -43.52,0.54 -42.58,-0.96 -41.63,0.93 -40.68,0.48 -39.74,1.64 -38.79,-2.57 -37.85,1.21 -36.9,-1.17 -35.95,1.06 -35.01,-2.92 -34.06,2.03 -33.11,-1.68 -32.17,1.47 -31.22,-1.66 -30.28,0.82 -29.33,-0.25 -28.38,0.13 -27.44,-3.58 -26.49,-1.9 -25.55,-0.75 -24.6,0.69 -23.65,-3.9 -22.71,0.27 -21.76,-0.64 -20.81,-1.6 -19.87,-2.49 -18.92,-2.52 -17.98,-1.25 -17.03,-1.44 -16.08,-2.53 -15.14,-0.09 -14.19,-2.94 -13.25,-1.95 -12.3,-4.88 -11.35,-1.22 -10.41,-3.46 -9.46,-1.75 -8.52,-3.68 -7.57,-0.34 -6.62,-1.8 -5.68,-0.86 -4.73,-5 -3.78,-3.47 -2.84,-2.82 -1.89,1.55 -0.95,-5.27 -0,-0.63 0.95,-3.76 1.89,-2.87 2.84,-5.42 3.78,-1.38 4.73,-2.48 5.68,-2.44 6.62,-3.58 7.57,-1.82 8.52,0.79 9.46,-2.93 10.41,-5.8 11.35,-3.72 12.3,-3.89 13.25,-3.12 14.19,-0.14 15.14,-2.42 16.08,0.94 17.03,-3.31 17.98,-1.62 18.92,0.14 19.87,-5.1 20.81,-3.02 21.76,-6.12 22.71,0.53 23.65,-3.21 24.6,-3.65 25.55,-4.42 26.49,0.04 27.44,-4.03 28.38,1.55 29.33,-2.54 30.28,-3.74 31.22,-0.39 32.17,0.62 33.11,-2.17 34.06,-4.36 35.01,-0.38 35.95,-1.38 36.9,-7.11 37.85,-3.82 38.79,-5.08 39.74,-0.14 40.68,-6.94 41.63,-0.27 42.58,-0.22 43.52,-3.75 44.47,-2.47 45.41,-4.46 46.36,-1.24 47.31,-3.46 48.25,-7.42 49.2,-5.11 50.15,-0.97 51.09,0.09 52.04,-0.52 52.98,-2.33 53.93,-5.88 54.88,-4.72 55.82,-3.07 56.77,-0.51 57.71,-1.23 58.66,-0.12 59.61,-7.52 60.55,-4.81 61.5,-5.96 62.44,-4.95 63.39,-2.66 64.34,-0.47 65.28,-6.33 66.23,-4.38 67.18,-7.41 68.12,-0.1 69.07,-1.5 70.01,-3.31 70.96,-5.44 71.91,-5.74 72.85,-0.05 73.8,-2.33 74.74,-8.22 75.69,-0.51 76.64,-1.25 77.58,-0.17 78.53,-6.01 79.48,-6.07 80.42,-4.25 81.37,-4.59 82.31,-7.87 83.26,-5.08 84.21,-4.32 85.15,-0.64 86.1,-3.67 87.04,-3.91 87.99,-4.4 88.94,-4.66 89.88,-3.95 90.83,-2.73 91.78,-6.69 92.72,-3.48 93.67,-8.21 94.61,-6.12 95.56,-6.98 96.51,-5.13 97.45,-6.05 98.4,-5.31 99.34,-4.66 100.29,-5.72 101.24,-8.45 102.18,-6.16 103.13,-7.03 104.07,-5.18 105.02,-8.5 105.97,-3.1 106.91,-4.78 107.86,-5.88 108.81,-8.53 109.75,-6.58 110.7,-5.01 111.64,-0.95 112.59,-8.53 113.54,-5.85 114.48,-7.04 115.43,-6.09 116.37,-8.89 117.32,-6.7 118.27,-6.12 119.21,-3.09 120.16,-6.56 " class="primitive"/>
            </g>
          </g>
        </g>
        <g stroke-width="0.3" fill="#000000" fill-opacity="0.000" class="geometry" id="img-62464005-91">
          <g class="color_RGB{Float64}(0.9472050000000001,0.93113,0.21654)" stroke-dasharray="none" stroke="#F2ED37" id="img-62464005-92">
            <g transform="translate(143.68,81.23)" id="img-62464005-93">
              <path fill="none" d="M-120.16,100.09 L-119.21,99.63 -118.27,99.19 -117.32,98.81 -116.37,98.52 -115.43,96.68 -114.48,86.23 -113.54,87.74 -112.59,87.64 -111.64,87.84 -110.7,82.9 -109.75,84 -108.81,84.92 -107.86,86.43 -106.91,49.43 -105.97,61.99 -105.02,65.32 -104.07,69.34 -103.13,60.2 -102.18,66.42 -101.24,69.45 -100.29,72.87 -99.34,19.41 -98.4,34.57 -97.45,42.53 -96.51,51.76 -95.56,41.12 -94.61,50.4 -93.67,55.18 -92.72,61.33 -91.78,18.37 -90.83,30.91 -89.88,34.38 -88.94,40.61 -87.99,35.19 -87.04,41.24 -86.1,42.85 -85.15,47.12 -84.21,5.34 -83.26,18.43 -82.31,24.78 -81.37,30.1 -80.42,24.7 -79.48,30.55 -78.53,34.06 -77.58,38.27 -76.64,-1.69 -75.69,10.69 -74.74,14.75 -73.8,21.57 -72.85,17.2 -71.91,24.16 -70.96,26.04 -70.01,32.89 -69.07,2.69 -68.12,10.93 -67.18,15.35 -66.23,20.88 -65.28,18.08 -64.34,23.94 -63.39,25 -62.44,28.69 -61.5,-12.58 -60.55,3.56 -59.61,2.43 -58.66,8.58 -57.71,6.36 -56.77,10.03 -55.82,13.91 -54.88,16.58 -53.93,-12.16 -52.98,-3.32 -52.04,-3.47 -51.09,3.07 -50.15,-2.33 -49.2,4.07 -48.25,5.59 -47.31,14.83 -46.36,-15.33 -45.41,-4.04 -44.47,0.76 -43.52,2.84 -42.58,2.11 -41.63,7.49 -40.68,5.15 -39.74,14.13 -38.79,-24.64 -37.85,-7.23 -36.9,-10.37 -35.95,-0.07 -35.01,-11.03 -34.06,-3.56 -33.11,-2.33 -32.17,7.29 -31.22,-20 -30.28,-10.47 -29.33,-9.04 -28.38,-5.96 -27.44,-15.34 -26.49,-9.34 -25.55,-3.05 -24.6,1.69 -23.65,-25.13 -22.71,-9.47 -21.76,-7.36 -20.81,-9.04 -19.87,-7.02 -18.92,-2.53 -17.98,-1.62 -17.03,-1.71 -16.08,-24.48 -15.14,-15.46 -14.19,-20.78 -13.25,-14.84 -12.3,-20.73 -11.35,-10.54 -10.41,-13.08 -9.46,-7.98 -8.52,-29.41 -7.57,-25.5 -6.62,-15.98 -5.68,-12.23 -4.73,-23.77 -3.78,-17.53 -2.84,-12.03 -1.89,-11.39 -0.95,-31.33 -0,-22.23 0.95,-21.04 1.89,-16.25 2.84,-13.06 3.78,-8.44 4.73,-7.6 5.68,-8.93 6.62,-26.63 7.57,-23.66 8.52,-21.39 9.46,-12.28 10.41,-21.57 11.35,-16.08 12.3,-14.84 13.25,-11.36 14.19,-28.05 15.14,-22.04 16.08,-17.68 17.03,-20.67 17.98,-24.59 18.92,-18.16 19.87,-18.23 20.81,-14.18 21.76,-32.28 22.71,-23.03 23.65,-14.35 24.6,-11.37 25.55,-17.36 26.49,-16.55 27.44,-11.22 28.38,-6.04 29.33,-37.39 30.28,-28.03 31.22,-24.06 32.17,-20.63 33.11,-25.64 34.06,-21.36 35.01,-19.53 35.95,-9.66 36.9,-38.95 37.85,-29.33 38.79,-28.62 39.74,-23.32 40.68,-27.83 41.63,-22.53 42.58,-20.27 43.52,-17.71 44.47,-33.93 45.41,-25.45 46.36,-23.82 47.31,-16.71 48.25,-24.1 49.2,-19.08 50.15,-17.11 51.09,-14.94 52.04,-28.05 52.98,-19.53 53.93,-27.05 54.88,-23.16 55.82,-26.84 56.77,-22.2 57.71,-20.69 58.66,-17.7 59.61,-35.45 60.55,-26.51 61.5,-25.56 62.44,-20.01 63.39,-27.1 64.34,-20.11 65.28,-20.32 66.23,-18.02 67.18,-30.83 68.12,-20 69.07,-23.67 70.01,-12.6 70.96,-23.91 71.91,-11.32 72.85,-10.3 73.8,-7.07 74.74,-33.07 75.69,-18.38 76.64,-22.19 77.58,-17.17 78.53,-16.13 79.48,-19.74 80.42,-11.48 81.37,-14.39 82.31,-30.51 83.26,-23.14 84.21,-14.29 85.15,-22.17 86.1,-24.68 87.04,-12.46 87.99,-19.2 88.94,-16.07 89.88,-27.66 90.83,-12.13 91.78,-18.13 92.72,-9.42 93.67,-21 94.61,-14.55 95.56,-16 96.51,-12.89 97.45,-27.94 98.4,-20.81 99.34,-13.74 100.29,-19.32 101.24,-13.12 102.18,-18.95 103.13,-15.55 104.07,-14.72 105.02,-29.32 105.97,-14.62 106.91,-13.36 107.86,-17.43 108.81,-20.44 109.75,-19.46 110.7,-10.09 111.64,-13.34 112.59,-24.16 113.54,-20.46 114.48,-18.64 115.43,-18.03 116.37,-19.08 117.32,-17.44 118.27,-12.43 119.21,-7.77 120.16,-17.59 " class="primitive"/>
            </g>
          </g>
        </g>
        <g stroke-width="0.3" fill="#000000" fill-opacity="0.000" class="geometry" id="img-62464005-94">
          <g class="color_RGB{Float64}(0.9876875,0.782915,0.516455)" stroke-dasharray="none" stroke="#FCC884" id="img-62464005-95">
            <g transform="translate(143.68,80.2)" id="img-62464005-96">
              <path fill="none" d="M-120.16,101.08 L-119.21,100.7 -118.27,100.42 -117.32,100.17 -116.37,99.9 -115.43,97.45 -114.48,87.02 -113.54,88.46 -112.59,87.63 -111.64,87.56 -110.7,83.15 -109.75,83.96 -108.81,84.03 -107.86,85.09 -106.91,50.8 -105.97,62.41 -105.02,64.82 -104.07,67.29 -103.13,59.55 -102.18,65.53 -101.24,67.68 -100.29,71.72 -99.34,17.14 -98.4,35.72 -97.45,40.16 -96.51,49.29 -95.56,41.86 -94.61,48.66 -93.67,53.27 -92.72,58.76 -91.78,19.63 -90.83,34.4 -89.88,39.28 -88.94,45.52 -87.99,37.86 -87.04,43.37 -86.1,48.62 -85.15,53.64 -84.21,9.38 -83.26,23.87 -82.31,29.8 -81.37,35.51 -80.42,27.96 -79.48,34.64 -78.53,38.92 -77.58,43.57 -76.64,-1.95 -75.69,13.3 -74.74,17.2 -73.8,24.04 -72.85,17.82 -71.91,25.45 -70.96,28.53 -70.01,36.08 -69.07,2.63 -68.12,12.62 -67.18,17.21 -66.23,22.98 -65.28,19.53 -64.34,25.33 -63.39,25.93 -62.44,31.32 -61.5,-12.98 -60.55,6.5 -59.61,5.91 -58.66,12.45 -57.71,7.21 -56.77,12.72 -55.82,18.36 -54.88,22.55 -53.93,-15.31 -52.98,-2.66 -52.04,-1.45 -51.09,4.8 -50.15,-2.31 -49.2,5.8 -48.25,8.59 -47.31,15.55 -46.36,-17.02 -45.41,-2.96 -44.47,0.26 -43.52,4.71 -42.58,-2.56 -41.63,6.58 -40.68,7.47 -39.74,14.27 -38.79,-25.89 -37.85,-8.81 -36.9,-8.9 -35.95,-0.7 -35.01,-10.67 -34.06,-1.94 -33.11,0.19 -32.17,8.86 -31.22,-30.75 -30.28,-13.5 -29.33,-11.85 -28.38,-7.02 -27.44,-15.6 -26.49,-7.57 -25.55,-2.89 -24.6,3.72 -23.65,-26.56 -22.71,-11.98 -21.76,-9.18 -20.81,-7.4 -19.87,-11 -18.92,-4.21 -17.98,-2.01 -17.03,1.68 -16.08,-30.22 -15.14,-18.09 -14.19,-19.43 -13.25,-13.5 -12.3,-20.64 -11.35,-11.31 -10.41,-11.33 -9.46,-4.26 -8.52,-35.77 -7.57,-25.2 -6.62,-20.04 -5.68,-14.66 -4.73,-24.24 -3.78,-16.84 -2.84,-13.16 -1.89,-8.53 -0.95,-30.09 -0,-21.71 0.95,-20.68 1.89,-15.36 2.84,-17.18 3.78,-10.34 4.73,-8.5 5.68,-6.52 6.62,-31.2 7.57,-22.83 8.52,-20.29 9.46,-16.47 10.41,-21.61 11.35,-15.27 12.3,-13.2 13.25,-8.98 14.19,-34.07 15.14,-24.4 16.08,-20.64 17.03,-20.06 17.98,-24.9 18.92,-17.97 19.87,-17.37 20.81,-12.49 21.76,-33.69 22.71,-22.61 23.65,-16.94 24.6,-13.77 25.55,-19.96 26.49,-16.32 27.44,-13.78 28.38,-7.99 29.33,-38.31 30.28,-27.62 31.22,-23.57 32.17,-20.49 33.11,-21.46 34.06,-20.82 35.01,-18.7 35.95,-11.7 36.9,-40.75 37.85,-29.6 38.79,-28.68 39.74,-23.39 40.68,-28.34 41.63,-22.62 42.58,-20.06 43.52,-16.75 44.47,-34.77 45.41,-25.65 46.36,-23.73 47.31,-19.74 48.25,-24.49 49.2,-18.96 50.15,-16.31 51.09,-13.25 52.04,-34.23 52.98,-23.64 53.93,-26.62 54.88,-22.45 55.82,-26.65 56.77,-21.4 57.71,-19.88 58.66,-13.24 59.61,-37.02 60.55,-26.63 61.5,-25.58 62.44,-19.46 63.39,-27.76 64.34,-19.96 65.28,-19.89 66.23,-16.98 67.18,-31.55 68.12,-23.44 69.07,-23.73 70.01,-16.67 70.96,-24.72 71.91,-17.72 72.85,-16.38 73.8,-9.69 74.74,-33.85 75.69,-20.78 76.64,-21.89 77.58,-19.16 78.53,-20.6 79.48,-19.24 80.42,-14.65 81.37,-12.9 82.31,-30.9 83.26,-22.76 84.21,-19.03 85.15,-21.64 86.1,-25.02 87.04,-19.25 87.99,-18.56 88.94,-15.26 89.88,-28.58 90.83,-16 91.78,-15.45 92.72,-13.06 93.67,-20.95 94.61,-14.1 95.56,-15.07 96.51,-11.74 97.45,-27.47 98.4,-19.88 99.34,-17.95 100.29,-18.09 101.24,-20.06 102.18,-17.72 103.13,-14.8 104.07,-13.24 105.02,-29.03 105.97,-19.02 106.91,-17.52 107.86,-16.3 108.81,-19.68 109.75,-17.9 110.7,-12.41 111.64,-11.79 112.59,-23.63 113.54,-19.52 114.48,-17.25 115.43,-16.77 116.37,-18.29 117.32,-16.15 118.27,-13.63 119.21,-8.74 120.16,-21.05 " class="primitive"/>
            </g>
          </g>
        </g>
        <g stroke-width="0.3" fill="#000000" fill-opacity="0.000" class="geometry" id="img-62464005-97">
          <g class="color_RGB{Float64}(0.98704,0.57494,0.75486)" stroke-dasharray="none" stroke="#FC93C0" id="img-62464005-98">
            <g transform="translate(143.68,132.95)" id="img-62464005-99">
              <path fill="none" d="M-120.16,48.33 L-119.21,47.53 -118.27,45.38 -117.32,44.96 -116.37,44.02 -115.43,43.61 -114.48,31.99 -113.54,35.37 -112.59,35.83 -111.64,37.55 -110.7,21.7 -109.75,28.32 -108.81,29.38 -107.86,31.24 -106.91,11.02 -105.97,24.67 -105.02,26.11 -104.07,28.27 -103.13,7 -102.18,18.49 -101.24,19.9 -100.29,23.35 -99.34,3.32 -98.4,14.08 -97.45,15.22 -96.51,20.24 -95.56,-2.94 -94.61,9.27 -93.67,12.37 -92.72,16.12 -91.78,-5.76 -90.83,5.82 -89.88,9.17 -88.94,15.02 -87.99,-7.24 -87.04,4.06 -86.1,9.54 -85.15,13.6 -84.21,-9.55 -83.26,2.42 -82.31,7.17 -81.37,11.77 -80.42,-8.88 -79.48,0.44 -78.53,3.1 -77.58,8.39 -76.64,-12.17 -75.69,0.48 -74.74,1.45 -73.8,7.34 -72.85,-13.6 -71.91,-0.1 -70.96,3.12 -70.01,8.98 -69.07,-9.75 -68.12,-0.15 -67.18,1.96 -66.23,7.18 -65.28,-11.3 -64.34,1 -63.39,4.65 -62.44,7.4 -61.5,-12.15 -60.55,3.93 -59.61,1.48 -58.66,5.83 -57.71,-8.29 -56.77,-0.13 -55.82,3.03 -54.88,5.48 -53.93,-9.57 -52.98,0.26 -52.04,0 -51.09,4.22 -50.15,-13.13 -49.2,-1.81 -48.25,-1.24 -47.31,3.42 -46.36,-14.3 -45.41,-1.7 -44.47,-0.37 -43.52,2.44 -42.58,-14.81 -41.63,0.37 -40.68,-3.17 -39.74,2.15 -38.79,-15.47 -37.85,0.4 -36.9,-2.59 -35.95,1.54 -35.01,-15.42 -34.06,-2.85 -33.11,-3.07 -32.17,3.9 -31.22,-16.73 -30.28,-0.2 -29.33,-0.94 -28.38,0.68 -27.44,-12.82 -26.49,-4.04 -25.55,-1.95 -24.6,2.53 -23.65,-17.68 -22.71,-1.03 -21.76,-1.86 -20.81,-0.31 -19.87,-13.57 -18.92,-4.88 -17.98,-2.73 -17.03,-0.9 -16.08,-14.25 -15.14,-5 -14.19,-6.17 -13.25,-1.41 -12.3,-18.4 -11.35,-3.83 -10.41,-3.69 -9.46,-1.61 -8.52,-16.65 -7.57,-5.51 -6.62,-3.57 -5.68,0.7 -4.73,-18.96 -3.78,-6.28 -2.84,-4.73 -1.89,-2.14 -0.95,-13.41 -0,-3.33 0.95,-4.78 1.89,-0.35 2.84,-4.76 3.78,0.18 4.73,-0.89 5.68,0.83 6.62,-5.87 7.57,-2.9 8.52,-3.77 9.46,0.8 10.41,-8.36 11.35,-3.11 12.3,-3.45 13.25,0.31 14.19,-5.26 15.14,-1.11 16.08,-1.14 17.03,0.12 17.98,-8.22 18.92,-3.04 19.87,-4.03 20.81,0.24 21.76,-8.5 22.71,-2.86 23.65,-2.04 24.6,2.19 25.55,-6.88 26.49,-3.19 27.44,-2.59 28.38,2.47 29.33,-9.33 30.28,-3.48 31.22,-4.4 32.17,-0.89 33.11,-9.44 34.06,-3.72 35.01,-3.65 35.95,2.87 36.9,-8.26 37.85,-1.79 38.79,-1.46 39.74,1.03 40.68,-8.43 41.63,-1.81 42.58,-3.01 43.52,-0.3 44.47,-9.11 45.41,-3.43 46.36,-4.84 47.31,0.32 48.25,-10.41 49.2,-4.23 50.15,-4.84 51.09,-1.15 52.04,-7.87 52.98,-1.26 53.93,-3.8 54.88,-1.88 55.82,-11.05 56.77,-4.19 57.71,-4.84 58.66,1.21 59.61,-11.93 60.55,-3.78 61.5,-5.43 62.44,-1.74 63.39,-11.36 64.34,-4.68 65.28,-5.68 66.23,-2.2 67.18,-11.94 68.12,-2.91 69.07,-6.23 70.01,0.49 70.96,-11.5 71.91,-5.15 72.85,-6.06 73.8,0.64 74.74,-12.23 75.69,-2.89 76.64,-5.97 77.58,-0.71 78.53,-8.12 79.48,-4.74 80.42,-3.22 81.37,-2.3 82.31,-12.34 83.26,-4.65 84.21,-2.96 85.15,-2.6 86.1,-12 87.04,-5.15 87.99,-6.03 88.94,-2.42 89.88,-12.5 90.83,-1.56 91.78,-5.74 92.72,0.44 93.67,-11.42 94.61,-4.82 95.56,-6.28 96.51,-2.64 97.45,-12.29 98.4,-4.69 99.34,-2.96 100.29,-2.59 101.24,-11.04 102.18,-4.55 103.13,-5.86 104.07,-2.97 105.02,-12.35 105.97,-4.43 106.91,-2.78 107.86,-2.1 108.81,-10.9 109.75,-4.38 110.7,-1.59 111.64,-1.53 112.59,-10.62 113.54,-2.93 114.48,-2.93 115.43,0.43 116.37,-7.95 117.32,1.22 118.27,-0.84 119.21,4.17 120.16,-4.83 " class="primitive"/>
            </g>
          </g>
        </g>
        <g stroke-width="0.3" fill="#000000" fill-opacity="0.000" class="geometry" id="img-62464005-100">
          <g class="color_RGB{Float64}(0.9360050000000001,0.3313625,0.949375)" stroke-dasharray="none" stroke="#EF54F2" id="img-62464005-101">
            <g transform="translate(143.68,155.55)" id="img-62464005-102">
              <path fill="none" d="M-120.16,25.06 L-119.21,24.24 -118.27,18.45 -117.32,19.43 -116.37,19.02 -115.43,18.97 -114.48,8.53 -113.54,12.4 -112.59,13.14 -111.64,14.61 -110.7,1.31 -109.75,9.36 -108.81,9.77 -107.86,11.19 -106.91,-2.7 -105.97,9.89 -105.02,9.52 -104.07,9.12 -103.13,-3.28 -102.18,7.12 -101.24,5.35 -100.29,7.32 -99.34,-5.52 -98.4,4.78 -97.45,3.34 -96.51,6.03 -95.56,-5.2 -94.61,3.46 -93.67,3.32 -92.72,5.59 -91.78,-8.08 -90.83,3.15 -89.88,3.46 -88.94,4.97 -87.99,-7.2 -87.04,4.13 -86.1,3.17 -85.15,5.84 -84.21,-7.62 -83.26,3.96 -82.31,4.53 -81.37,4.37 -80.42,-7.15 -79.48,2.5 -78.53,0.91 -77.58,4.47 -76.64,-8.88 -75.69,2.55 -74.74,0.74 -73.8,2.43 -72.85,-8.28 -71.91,1.26 -70.96,0.73 -70.01,3.76 -69.07,-9.26 -68.12,1.97 -67.18,0.82 -66.23,3.23 -65.28,-10.13 -64.34,1.83 -63.39,0.87 -62.44,4.1 -61.5,-10.4 -60.55,2.82 -59.61,0.74 -58.66,3.54 -57.71,-7.74 -56.77,2.46 -55.82,1.17 -54.88,3.45 -53.93,-9.63 -52.98,1.49 -52.04,0.92 -51.09,3.21 -50.15,-10.12 -49.2,1.44 -48.25,0.36 -47.31,2.69 -46.36,-10.53 -45.41,1.97 -44.47,1.2 -43.52,2.95 -42.58,-9.97 -41.63,2.26 -40.68,-1.78 -39.74,2.73 -38.79,-10.16 -37.85,1.5 -36.9,0.31 -35.95,2.69 -35.01,-9.46 -34.06,1.72 -33.11,-0.06 -32.17,2.83 -31.22,-10.26 -30.28,1.6 -29.33,0.02 -28.38,2.83 -27.44,-9.18 -26.49,1.53 -25.55,-0.2 -24.6,2.21 -23.65,-11.11 -22.71,1.41 -21.76,-0.35 -20.81,2.54 -19.87,-9.35 -18.92,1.37 -17.98,-0.99 -17.03,2.12 -16.08,-10.36 -15.14,1.26 -14.19,-1.13 -13.25,2.23 -12.3,-10.8 -11.35,0.78 -10.41,-1.11 -9.46,1.99 -8.52,-10.83 -7.57,1.26 -6.62,-0.5 -5.68,2.15 -4.73,-10.69 -3.78,0.76 -2.84,-0.66 -1.89,1.36 -0.95,-11.73 -0,1.76 0.95,-0.81 1.89,1.59 2.84,-10.96 3.78,1.32 4.73,-0.58 5.68,1.68 6.62,-10.51 7.57,1.04 8.52,-0.54 9.46,1.86 10.41,-10.77 11.35,1 12.3,-0.73 13.25,1.46 14.19,-10.23 15.14,0.98 16.08,-1.09 17.03,1.82 17.98,-10.44 18.92,0.87 19.87,-0.93 20.81,1.54 21.76,-11.11 22.71,1.06 23.65,-1.13 24.6,1.79 25.55,-9.71 26.49,0.89 27.44,-0.91 28.38,1.59 29.33,-10.33 30.28,0.99 31.22,-1.21 32.17,1.57 33.11,-10.7 34.06,0.77 35.01,-1.09 35.95,2.08 36.9,-9.22 37.85,3.59 38.79,3.7 39.74,5.14 40.68,-5.65 41.63,3.5 42.58,-0.44 43.52,2.16 44.47,-11.38 45.41,1.69 46.36,-0.82 47.31,2.4 48.25,-11.41 49.2,1.54 50.15,-0.29 51.09,2.77 52.04,-10.88 52.98,1.01 53.93,0.16 54.88,2.38 55.82,-11.42 56.77,1.66 57.71,-0.21 58.66,2.25 59.61,-9.45 60.55,2.03 61.5,-1.35 62.44,2.8 63.39,-9.88 64.34,1.12 65.28,-0.27 66.23,2.47 67.18,-10.54 68.12,2.04 69.07,-0.41 70.01,2.46 70.96,-9.79 71.91,2.08 72.85,-0.16 73.8,3.38 74.74,-10.13 75.69,1.98 76.64,-0.3 77.58,1.52 78.53,-8.26 79.48,2.16 80.42,0.25 81.37,2.34 82.31,-9.82 83.26,0.72 84.21,-0.07 85.15,3.23 86.1,-8.7 87.04,2.05 87.99,0.33 88.94,2.88 89.88,-10.38 90.83,2.08 91.78,0.21 92.72,3.93 93.67,-9.15 94.61,2.96 95.56,-1.43 96.51,1.74 97.45,-9.77 98.4,0.68 99.34,-0.08 100.29,3.83 101.24,-8.64 102.18,3.67 103.13,0.76 104.07,2.73 105.02,-11.03 105.97,2.67 106.91,0.05 107.86,2.53 108.81,-10.29 109.75,2.47 110.7,1.22 111.64,2.67 112.59,-7.28 113.54,2.49 114.48,0.43 115.43,3.73 116.37,-3.85 117.32,7.21 118.27,4.67 119.21,10.01 120.16,-3.21 " class="primitive"/>
            </g>
          </g>
        </g>
        <g stroke-width="0.3" fill="#000000" fill-opacity="0.000" class="geometry" id="img-62464005-103">
          <g class="color_RGB{Float64}(0.7018800000000001,0.25504499999999997,0.9848349999999999)" stroke-dasharray="none" stroke="#B341FB" id="img-62464005-104">
            <g transform="translate(143.68,154.43)" id="img-62464005-105">
              <path fill="none" d="M-120.16,26.63 L-119.21,25.69 -118.27,23.91 -117.32,22.74 -116.37,22.12 -115.43,21.34 -114.48,16.29 -113.54,17.09 -112.59,17.63 -111.64,16.91 -110.7,15.82 -109.75,14.58 -108.81,15.57 -107.86,15.04 -106.91,4.71 -105.97,10.52 -105.02,10.95 -104.07,11.79 -103.13,7.06 -102.18,9.71 -101.24,9.32 -100.29,10.08 -99.34,-4.57 -98.4,4.87 -97.45,4.46 -96.51,5.93 -95.56,4.42 -94.61,3.87 -93.67,5.19 -92.72,6.87 -91.78,-4.55 -90.83,1.29 -89.88,1.93 -88.94,3.29 -87.99,0.56 -87.04,2.96 -86.1,4.49 -85.15,4.95 -84.21,-11.09 -83.26,2.24 -82.31,2.58 -81.37,2.53 -80.42,-3.75 -79.48,-0.22 -78.53,0.88 -77.58,2.62 -76.64,-13.75 -75.69,-0.99 -74.74,-1.45 -73.8,0.58 -72.85,-3.92 -71.91,0.35 -70.96,0.51 -70.01,1.4 -69.07,-16.55 -68.12,-1.58 -67.18,-0.89 -66.23,-0.2 -65.28,-7.72 -64.34,-1.61 -63.39,-0.7 -62.44,1.48 -61.5,-18.48 -60.55,0.21 -59.61,0.94 -58.66,3.49 -57.71,-0.94 -56.77,4.01 -55.82,2.7 -54.88,4.36 -53.93,-12.36 -52.98,2.93 -52.04,2.34 -51.09,3.81 -50.15,-1.59 -49.2,3.34 -48.25,2.61 -47.31,4.23 -46.36,-13.18 -45.41,2.83 -44.47,1.92 -43.52,3.52 -42.58,-2.26 -41.63,3.24 -40.68,2.15 -39.74,3.73 -38.79,-14.88 -37.85,2.29 -36.9,1.43 -35.95,3.16 -35.01,-3.02 -34.06,2.57 -33.11,1.7 -32.17,3.29 -31.22,-15.2 -30.28,2.14 -29.33,1.29 -28.38,2.8 -27.44,-3.32 -26.49,2.49 -25.55,1.38 -24.6,3.24 -23.65,-16.05 -22.71,1.76 -21.76,1.03 -20.81,2.59 -19.87,-3.68 -18.92,1.95 -17.98,1.25 -17.03,2.97 -16.08,-16.82 -15.14,1.9 -14.19,0.7 -13.25,2.62 -12.3,-4.03 -11.35,1.97 -10.41,0.93 -9.46,2.95 -8.52,-17.27 -7.57,1.78 -6.62,0.56 -5.68,2.44 -4.73,-3.93 -3.78,2.28 -2.84,1.36 -1.89,3.32 -0.95,-18.03 -0,2.29 0.95,0.97 1.89,2.67 2.84,-3.55 3.78,2.51 4.73,1.19 5.68,3.19 6.62,-19.51 7.57,2.13 8.52,0.82 9.46,2.56 10.41,-3.78 11.35,2.26 12.3,1.02 13.25,2.99 14.19,-19.7 15.14,2.09 16.08,0.67 17.03,2.55 17.98,-3.94 18.92,2.31 19.87,0.89 20.81,2.92 21.76,-20.32 22.71,1.93 23.65,0.57 24.6,2.37 25.55,-4.37 26.49,2.09 27.44,0.72 28.38,2.76 29.33,-20.21 30.28,1.97 31.22,0.42 32.17,2.41 33.11,-4.36 34.06,2.02 35.01,0.66 35.95,2.75 36.9,-20.47 37.85,1.71 38.79,0.42 39.74,2.55 40.68,-4.5 41.63,1.94 42.58,0.51 43.52,2.54 44.47,-20.55 45.41,1.77 46.36,0.22 47.31,2.14 48.25,-4.69 49.2,1.87 50.15,0.52 51.09,2.45 52.04,-20.67 52.98,1.69 53.93,0.28 54.88,2.09 55.82,-4.65 56.77,1.85 57.71,0.4 58.66,2.27 59.61,-20.66 60.55,0.8 61.5,-0.48 62.44,1.18 63.39,-4.82 64.34,1 65.28,-0.37 66.23,1.47 67.18,-20.67 68.12,0.65 69.07,-0.76 70.01,1.02 70.96,-5.03 71.91,0.79 72.85,-0.57 73.8,1.25 74.74,-20.89 75.69,0.68 76.64,-0.69 77.58,1.07 78.53,-5.01 79.48,0.77 80.42,-0.46 81.37,1.36 82.31,-20.82 83.26,0.7 84.21,-0.71 85.15,1.02 86.1,-5.06 87.04,0.87 87.99,-0.57 88.94,1.19 89.88,-21.1 90.83,0.77 91.78,-0.65 92.72,1.05 93.67,-5.03 94.61,0.82 95.56,-0.56 96.51,1.23 97.45,-20.71 98.4,0.69 99.34,-0.75 100.29,0.93 101.24,-5.06 102.18,0.77 103.13,-0.6 104.07,1.16 105.02,-20.47 105.97,0.82 106.91,-0.69 107.86,1.04 108.81,-5.07 109.75,0.84 110.7,-0.48 111.64,1.32 112.59,-20.69 113.54,0.78 114.48,-0.71 115.43,1 116.37,-5.05 117.32,0.89 118.27,-0.63 119.21,1.29 120.16,-15.7 " class="primitive"/>
            </g>
          </g>
        </g>
        <g stroke-width="0.3" fill="#000000" fill-opacity="0.000" class="geometry" id="img-62464005-106">
          <g class="color_RGB{Float64}(0.45187999999999995,0.172285,0.9716199999999999)" stroke-dasharray="none" stroke="#732CF8" id="img-62464005-107">
            <g transform="translate(143.68,162.92)" id="img-62464005-108">
              <path fill="none" d="M-120.16,17.44 L-119.21,16.06 -118.27,14.8 -117.32,16.25 -116.37,14.87 -115.43,15.06 -114.48,15.79 -113.54,16.71 -112.59,13.65 -111.64,13.28 -110.7,13.06 -109.75,12.56 -108.81,12.37 -107.86,15.64 -106.91,15.37 -105.97,12.4 -105.02,12.31 -104.07,15.1 -103.13,12.13 -102.18,14.77 -101.24,11.62 -100.29,11.95 -99.34,14.52 -98.4,11.86 -97.45,14.34 -96.51,11.79 -95.56,14.02 -94.61,13.91 -93.67,11.39 -92.72,11.36 -91.78,-9.05 -90.83,-1.41 -89.88,-0.73 -88.94,-0.51 -87.99,-1.47 -87.04,0.06 -86.1,0.29 -85.15,1.37 -84.21,-0.37 -83.26,1.74 -82.31,2.52 -81.37,2.46 -80.42,2.56 -79.48,2.92 -78.53,3.33 -77.58,3.33 -76.64,3.39 -75.69,4.35 -74.74,4.23 -73.8,4.14 -72.85,4.78 -71.91,5.11 -70.96,5.41 -70.01,5.7 -69.07,5.23 -68.12,5.82 -67.18,5.97 -66.23,6.14 -65.28,6.12 -64.34,6.28 -63.39,6.53 -62.44,6.8 -61.5,-17.86 -60.55,-2.66 -59.61,-2.93 -58.66,-1.04 -57.71,-4.03 -56.77,-1.18 -55.82,-2.36 -54.88,-1.04 -53.93,-6.81 -52.98,-0.5 -52.04,-1.11 -51.09,-0.22 -50.15,-1.44 -49.2,0.2 -48.25,0.2 -47.31,0.92 -46.36,-2.27 -45.41,1.28 -44.47,1.31 -43.52,1.72 -42.58,1.14 -41.63,2.13 -40.68,2.05 -39.74,2.59 -38.79,0.51 -37.85,3.09 -36.9,2.97 -35.95,3.42 -35.01,2.9 -34.06,3.77 -33.11,3.74 -32.17,4.21 -31.22,-19.08 -30.28,-2.18 -29.33,-3.15 -28.38,-1.87 -27.44,-5.4 -26.49,-1.6 -25.55,-2.71 -24.6,-1.41 -23.65,-11.42 -22.71,-1.12 -21.76,-1.56 -20.81,-0.6 -19.87,-3.93 -18.92,-1.46 -17.98,-1.8 -17.03,-0.9 -16.08,-5.86 -15.14,-0.55 -14.19,-0.65 -13.25,-0.06 -12.3,-1.33 -11.35,0.31 -10.41,0.17 -9.46,0.72 -8.52,-2.92 -7.57,1.19 -6.62,0.95 -5.68,1.58 -4.73,0.48 -3.78,1.85 -2.84,1.74 -1.89,2.21 -0.95,-21.15 -0,-1.78 0.95,-3.05 1.89,-1.57 2.84,-6.24 3.78,-1.38 4.73,-2.65 5.68,-1.27 6.62,-13.23 7.57,-1.25 8.52,-2.26 9.46,-1.05 10.41,-4.65 11.35,-0.93 12.3,-1.87 13.25,-0.71 14.19,-9.31 15.14,-0.43 16.08,-1.04 17.03,-0.14 17.98,-2.41 18.92,-0.02 19.87,-0.36 20.81,0.6 21.76,-5.74 22.71,-0.12 23.65,-0.74 24.6,0.18 25.55,-1.72 26.49,0.54 27.44,0.07 28.38,0.93 29.33,-20.69 30.28,-2.4 31.22,-3.71 32.17,-2.14 33.11,-6.74 34.06,-2.11 35.01,-3.29 35.95,-1.87 36.9,-14.73 37.85,-1.85 38.79,-2.81 39.74,-1.25 40.68,-4.85 41.63,-1.42 42.58,-2.26 43.52,-1.21 44.47,-9.28 45.41,-1.06 46.36,-1.78 47.31,-0.81 48.25,-3.08 49.2,-0.55 50.15,-1.08 51.09,-0.24 52.04,-7.5 52.98,0.1 53.93,-0.32 54.88,0.39 55.82,-1.4 56.77,0.73 57.71,0.34 58.66,0.97 59.61,-20.89 60.55,-2.55 61.5,-3.82 62.44,-2.37 63.39,-7.11 64.34,-2.18 65.28,-3.49 66.23,-2.11 67.18,-16.77 68.12,-1.99 69.07,-3.19 70.01,-1.82 70.96,-5.9 71.91,-1.78 72.85,-2.8 73.8,-1.53 74.74,-12.01 75.69,-1.42 76.64,-2.34 77.58,-1.24 78.53,-4.34 79.48,-1.07 80.42,-1.83 81.37,-0.75 82.31,-8.23 83.26,-0.54 84.21,-1.27 85.15,-0.31 86.1,-2.82 87.04,0 87.99,-0.7 88.94,0.25 89.88,-20.43 90.83,-2.47 91.78,-3.77 92.72,-2.31 93.67,-6.98 94.61,-2.22 95.56,-3.52 96.51,-2.12 97.45,-17.02 98.4,-2.02 99.34,-3.18 100.29,-1.92 101.24,-5.73 102.18,-1.77 103.13,-2.8 104.07,-1.6 105.02,-12.41 105.97,-1.5 106.91,-2.42 107.86,-1.31 108.81,-4.39 109.75,-1.15 110.7,-1.91 111.64,-0.87 112.59,-9.5 113.54,-0.67 114.48,-1.4 115.43,-0.44 116.37,-3.16 117.32,-0.19 118.27,-0.88 119.21,0.11 120.16,-18.25 " class="primitive"/>
            </g>
          </g>
        </g>
        <g stroke-width="0.3" fill="#000000" fill-opacity="0.000" class="geometry" id="img-62464005-109">
          <g class="color_RGB{Float64}(1.0,0.0,0.0)" stroke-dasharray="none" stroke="#FF0000" id="img-62464005-110">
            <g transform="translate(143.68,164.21)" id="img-62464005-111">
              <path fill="none" d="M-120.16,16.63 L-119.21,15.61 -118.27,14.63 -117.32,14.27 -116.37,14.45 -115.43,13.62 -114.48,13.29 -113.54,13.13 -112.59,13.37 -111.64,13.36 -110.7,12.9 -109.75,12.88 -108.81,12.89 -107.86,12.79 -106.91,12.71 -105.97,12.63 -105.02,12.41 -104.07,12.47 -103.13,12.47 -102.18,12.44 -101.24,12.34 -100.29,12.36 -99.34,12.33 -98.4,12.19 -97.45,12.29 -96.51,12.27 -95.56,12.24 -94.61,12.19 -93.67,12.2 -92.72,12.16 -91.78,-15.82 -90.83,-3.5 -89.88,-3.02 -88.94,-1.45 -87.99,-3.26 -87.04,-2.16 -86.1,-2.09 -85.15,0.89 -84.21,-1.35 -83.26,0.53 -82.31,1.67 -81.37,1.95 -80.42,2.3 -79.48,2.8 -78.53,3.17 -77.58,3.41 -76.64,3.64 -75.69,4.38 -74.74,4.5 -73.8,4.65 -72.85,5.13 -71.91,5.49 -70.96,5.7 -70.01,6.11 -69.07,5.86 -68.12,6.16 -67.18,6.46 -66.23,6.7 -65.28,6.75 -64.34,6.9 -63.39,7.08 -62.44,7.28 -61.5,-20.49 -60.55,-3.91 -59.61,-3.82 -58.66,-1.64 -57.71,-4.89 -56.77,-0.89 -55.82,-2.35 -54.88,-0.84 -53.93,-9.88 -52.98,-0.12 -52.04,-0.57 -51.09,0.47 -50.15,-1.35 -49.2,2.19 -48.25,1.4 -47.31,1.82 -46.36,-2.69 -45.41,2.23 -44.47,2.81 -43.52,3.22 -42.58,2.46 -41.63,3.19 -40.68,2.98 -39.74,3.69 -38.79,0.98 -37.85,4.13 -36.9,3.89 -35.95,4.74 -35.01,3.5 -34.06,4.71 -33.11,4.49 -32.17,5.05 -31.22,-21.33 -30.28,-2.54 -29.33,-3.63 -28.38,-2.33 -27.44,-6.09 -26.49,-1.53 -25.55,-2.99 -24.6,-1.57 -23.65,-11.51 -22.71,-1.15 -21.76,-2.73 -20.81,-1.57 -19.87,-4.19 -18.92,-1.11 -17.98,-1.6 -17.03,-0.29 -16.08,-7.08 -15.14,0.34 -14.19,-0.32 -13.25,1.26 -12.3,-1.2 -11.35,1.15 -10.41,0.85 -9.46,1.79 -8.52,-2.83 -7.57,2.15 -6.62,1.71 -5.68,2.5 -4.73,1.31 -3.78,3.1 -2.84,2.53 -1.89,3.27 -0.95,-21.3 -0,-3 0.95,-4.22 1.89,-2.41 2.84,-6.88 3.78,-2.04 4.73,-3.03 5.68,-1.78 6.62,-15.32 7.57,-1.78 8.52,-2.33 9.46,-1.27 10.41,-4.33 11.35,-0.92 12.3,-1.57 13.25,-0.37 14.19,-10.18 15.14,-0.96 16.08,-1 17.03,0.09 17.98,-2.34 18.92,0.42 19.87,-0.38 20.81,0.56 21.76,-5.53 22.71,0.99 23.65,0.63 24.6,1.19 25.55,0.35 26.49,1.93 27.44,1.37 28.38,1.91 29.33,-20.81 30.28,-2.98 31.22,-4.45 32.17,-2.65 33.11,-7.08 34.06,-2.71 35.01,-3.78 35.95,-2.06 36.9,-16.61 37.85,-2.2 38.79,-3.16 39.74,-1.49 40.68,-5.16 41.63,-1.44 42.58,-2.26 43.52,-0.96 44.47,-10.77 45.41,-0.75 46.36,-1.24 47.31,-0.32 48.25,-2.58 49.2,0.1 50.15,-0.04 51.09,0.56 52.04,-6.24 52.98,1.05 53.93,0.69 54.88,1.51 55.82,-0.6 56.77,1.82 57.71,1.4 58.66,1.91 59.61,-20.64 60.55,-3.15 61.5,-4.21 62.44,-2.7 63.39,-7.44 64.34,-2.66 65.28,-3.88 66.23,-2.44 67.18,-17.53 68.12,-2.08 69.07,-3.29 70.01,-1.62 70.96,-5.64 71.91,-1.68 72.85,-2.49 73.8,-1.04 74.74,-12.32 75.69,-0.82 76.64,-1.53 77.58,-0.45 78.53,-3.57 79.48,-0.44 80.42,-0.8 81.37,0.26 82.31,-7.75 83.26,0.59 84.21,-0.35 85.15,0.69 86.1,-1.75 87.04,1.15 87.99,0.28 88.94,1.23 89.88,-20.85 90.83,-2.88 91.78,-4.31 92.72,-2.67 93.67,-7.48 94.61,-2.57 95.56,-3.78 96.51,-2.4 97.45,-17.67 98.4,-2.08 99.34,-3.41 100.29,-1.88 101.24,-5.88 102.18,-1.84 103.13,-2.75 104.07,0.27 105.02,-12.67 105.97,-1.21 106.91,-1.97 107.86,-0.89 108.81,-4.02 109.75,-0.73 110.7,-1.18 111.64,-0.18 112.59,-8.83 113.54,0.16 114.48,-0.57 115.43,0.35 116.37,-2.32 117.32,0.56 118.27,0 119.21,0.93 120.16,-17.73 " class="primitive"/>
            </g>
          </g>
        </g>
        <g stroke-width="0.3" fill="#000000" fill-opacity="0.000" class="geometry" id="img-62464005-112">
          <g class="color_RGB{Float64}(0.0,0.0,0.0)" stroke-dasharray="none" stroke="#000000" id="img-62464005-113">
            <g transform="translate(143.68,45.43)" id="img-62464005-114">
              <path fill="none" d="M-120.16,135.02 L-119.21,132.77 -118.27,126.76 -117.32,119.04 -116.37,109.34 -115.43,103.41 -114.48,83.91 -113.54,88.65 -112.59,84.7 -111.64,72.05 -110.7,64.25 -109.75,56.08 -108.81,42.69 -107.86,26.81 -106.91,9.51 -105.97,43.93 -105.02,40.69 -104.07,35.13 -103.13,24.12 -102.18,14.5 -101.24,5.04 -100.29,0.66 -99.34,-21.18 -98.4,23.84 -97.45,18.44 -96.51,12.05 -95.56,16.82 -94.61,9.85 -93.67,1.13 -92.72,-1.29 -91.78,-16.06 -90.83,9.23 -89.88,5.24 -88.94,4.97 -87.99,-7.19 -87.04,2.05 -86.1,2.92 -85.15,-10.44 -84.21,-22.25 -83.26,4.03 -82.31,-2.08 -81.37,1.11 -80.42,-10.26 -79.48,-8.93 -78.53,-11.21 -77.58,-12.4 -76.64,-33.22 -75.69,7.46 -74.74,0.66 -73.8,1.16 -72.85,-7.2 -71.91,-1.45 -70.96,-1.9 -70.01,0.59 -69.07,-19.6 -68.12,1.19 -67.18,3.09 -66.23,2.6 -65.28,-3.49 -64.34,2.42 -63.39,-3.5 -62.44,-3.62 -61.5,-25.72 -60.55,7.73 -59.61,2.25 -58.66,3.71 -57.71,-6.56 -56.77,-1.69 -55.82,-6.46 -54.88,-6.24 -53.93,-33.93 -52.98,15.39 -52.04,7.25 -51.09,8.65 -50.15,0.95 -49.2,4.45 -48.25,-0.62 -47.31,0.28 -46.36,-27.74 -45.41,4.59 -44.47,7.39 -43.52,5.08 -42.58,-2.47 -41.63,-0.1 -40.68,-3.62 -39.74,-4.03 -38.79,-32.48 -37.85,-0.2 -36.9,-4.43 -35.95,2.29 -35.01,-8.16 -34.06,-3.11 -33.11,-7.75 -32.17,-6.3 -31.22,-34.02 -30.28,21.6 -29.33,14.87 -28.38,1.08 -27.44,9.86 -26.49,1.6 -25.55,-3.68 -24.6,0.65 -23.65,-28.62 -22.71,18.89 -21.76,-0.57 -20.81,-1.48 -19.87,-7.84 -18.92,-0.56 -17.98,-2.46 -17.03,-3.68 -16.08,-32.44 -15.14,-1.09 -14.19,-4.37 -13.25,-3.69 -12.3,-10.34 -11.35,-7.44 -10.41,-7.61 -9.46,-6.45 -8.52,-35.51 -7.57,2.38 -6.62,12.91 -5.68,0.28 -4.73,-6.97 -3.78,-4.45 -2.84,-7.76 -1.89,-3.62 -0.95,-29.69 -0,0.11 0.95,-2.17 1.89,-3.39 2.84,-8.28 3.78,-6.66 4.73,-8.48 5.68,-8.54 6.62,-33.85 7.57,-2.29 8.52,-4.97 9.46,-5.33 10.41,-11.73 11.35,-8.06 12.3,-10.46 13.25,-10.68 14.19,-35.69 15.14,0.68 16.08,-3.53 17.03,-1.31 17.98,-7.46 18.92,-4.14 19.87,-7.32 20.81,-6.22 21.76,-33.66 22.71,-5.44 23.65,-2.95 24.6,-2.38 25.55,-8.92 26.49,-5.34 27.44,-9.37 28.38,-9.66 29.33,-36.66 30.28,-5.63 31.22,-8.29 32.17,-4.25 33.11,-11.45 34.06,-7.52 35.01,-10.73 35.95,-10.67 36.9,-37.23 37.85,-2.95 38.79,-5.64 39.74,-6.04 40.68,-7.1 41.63,-4.03 42.58,-6.39 43.52,-6.5 44.47,-31.59 45.41,-5.03 46.36,-7.12 47.31,11.13 48.25,-9.98 49.2,-5.59 50.15,-7.64 51.09,-7.51 52.04,-35.18 52.98,11.68 53.93,-9.01 54.88,-7.78 55.82,-11.21 56.77,-8.64 57.71,-8.17 58.66,9.47 59.61,-35.44 60.55,-1.01 61.5,11.05 62.44,-3.71 63.39,-6.65 64.34,-4.31 65.28,-7.09 66.23,-3.71 67.18,-28.23 68.12,-2.77 69.07,-5.12 70.01,12.54 70.96,-10.03 71.91,-8.41 72.85,-7.78 73.8,10.81 74.74,-32.29 75.69,-2.69 76.64,-6.32 77.58,-5.75 78.53,-9.12 79.48,-8.76 80.42,-9.34 81.37,-8.19 82.31,-32.65 83.26,0.39 84.21,-0.49 85.15,-2.08 86.1,-5.93 87.04,-4.01 87.99,-4.55 88.94,-4.67 89.88,-28.92 90.83,-3.95 91.78,-3.94 92.72,-1.74 93.67,-6.79 94.61,-4.35 95.56,-8.09 96.51,-8.15 97.45,-31.79 98.4,-4.61 99.34,-6.34 100.29,-3.75 101.24,-6.69 102.18,-5.74 103.13,-7.31 104.07,-7.69 105.02,-32.96 105.97,-3.05 106.91,-2.73 107.86,-3.69 108.81,-5.32 109.75,-3.07 110.7,-5.17 111.64,-4.5 112.59,-28.39 113.54,-5.34 114.48,-7.05 115.43,-5.58 116.37,-11.08 117.32,-6.38 118.27,-8.29 119.21,10.12 120.16,-31.33 " class="primitive"/>
            </g>
          </g>
        </g>
      </g>
    </g>
  </g>
  <g class="guide ylabels" font-size="2.82" font-family="'PT Sans Caption','Helvetica Neue','Helvetica',sans-serif" fill="#6C606B" id="img-62464005-115">
    <g transform="translate(18.63,181.91)" id="img-62464005-116">
      <g class="primitive">
        <text text-anchor="end" dy="0.35em">0</text>
      </g>
    </g>
    <g transform="translate(18.63,167.34)" id="img-62464005-117">
      <g class="primitive">
        <text text-anchor="end" dy="0.35em">10</text>
      </g>
    </g>
    <g transform="translate(18.63,152.76)" id="img-62464005-118">
      <g class="primitive">
        <text text-anchor="end" dy="0.35em">20</text>
      </g>
    </g>
    <g transform="translate(18.63,138.19)" id="img-62464005-119">
      <g class="primitive">
        <text text-anchor="end" dy="0.35em">30</text>
      </g>
    </g>
    <g transform="translate(18.63,123.61)" id="img-62464005-120">
      <g class="primitive">
        <text text-anchor="end" dy="0.35em">40</text>
      </g>
    </g>
    <g transform="translate(18.63,109.03)" id="img-62464005-121">
      <g class="primitive">
        <text text-anchor="end" dy="0.35em">50</text>
      </g>
    </g>
    <g transform="translate(18.63,94.46)" id="img-62464005-122">
      <g class="primitive">
        <text text-anchor="end" dy="0.35em">60</text>
      </g>
    </g>
    <g transform="translate(18.63,79.88)" id="img-62464005-123">
      <g class="primitive">
        <text text-anchor="end" dy="0.35em">70</text>
      </g>
    </g>
    <g transform="translate(18.63,65.3)" id="img-62464005-124">
      <g class="primitive">
        <text text-anchor="end" dy="0.35em">80</text>
      </g>
    </g>
    <g transform="translate(18.63,50.73)" id="img-62464005-125">
      <g class="primitive">
        <text text-anchor="end" dy="0.35em">90</text>
      </g>
    </g>
    <g transform="translate(18.63,36.15)" id="img-62464005-126">
      <g class="primitive">
        <text text-anchor="end" dy="0.35em">100</text>
      </g>
    </g>
    <g transform="translate(18.63,21.58)" id="img-62464005-127">
      <g class="primitive">
        <text text-anchor="end" dy="0.35em">110</text>
      </g>
    </g>
    <g transform="translate(18.63,7)" id="img-62464005-128">
      <g class="primitive">
        <text text-anchor="end" dy="0.35em">120</text>
      </g>
    </g>
  </g>
  <g font-size="3.88" font-family="'PT Sans','Helvetica Neue','Helvetica',sans-serif" fill="#564A55" stroke="#000000" stroke-opacity="0.000" id="img-62464005-129">
    <g transform="translate(8.81,92.46)" id="img-62464005-130">
      <g class="primitive">
        <text text-anchor="middle" dy="0.35em" transform="rotate(-90,0, 2)">GFLOPS</text>
      </g>
    </g>
  </g>
</g>
<defs>
  <clipPath id="img-62464005-45">
    <path d="M19.63,5 L269.63,5 269.63,183.92 19.63,183.92 " />
  </clipPath>
</defs>
</svg>
