<?xml version="1.0" encoding="UTF-8"?>
<svg xmlns="http://www.w3.org/2000/svg"
     xmlns:xlink="http://www.w3.org/1999/xlink"
     xmlns:gadfly="http://www.gadflyjl.org/ns"
     version="1.2"
     width="304.8mm" height="203.2mm" viewBox="0 0 304.8 203.2"
     stroke="none"
     fill="#000000"
     stroke-width="0.3"
     font-size="3.88"
>
<defs>
  <marker id="arrow" markerWidth="15" markerHeight="7" refX="5" refY="3.5" orient="auto" markerUnits="strokeWidth">
    <path d="M0,0 L15,3.5 L0,7 z" stroke="context-stroke" fill="context-stroke"/>
  </marker>
</defs>
<g class="plotroot xscalable yscalable" id="img-fe1c22f0-1">
  <g font-size="3.88" font-family="'PT Sans','Helvetica Neue','Helvetica',sans-serif" fill="#564A55" stroke="#000000" stroke-opacity="0.000" id="img-fe1c22f0-2">
    <g transform="translate(145.6,191.59)">
      <g class="primitive">
        <text text-anchor="middle" dy="0.6em">Size</text>
      </g>
    </g>
  </g>
  <g class="guide xlabels" font-size="2.82" font-family="'PT Sans Caption','Helvetica Neue','Helvetica',sans-serif" fill="#6C606B" id="img-fe1c22f0-3">
    <g transform="translate(19.96,184.92)">
      <g class="primitive">
        <text text-anchor="middle" dy="0.6em">0</text>
      </g>
    </g>
    <g transform="translate(39.29,184.92)">
      <g class="primitive">
        <text text-anchor="middle" dy="0.6em">20</text>
      </g>
    </g>
    <g transform="translate(58.62,184.92)">
      <g class="primitive">
        <text text-anchor="middle" dy="0.6em">40</text>
      </g>
    </g>
    <g transform="translate(77.95,184.92)">
      <g class="primitive">
        <text text-anchor="middle" dy="0.6em">60</text>
      </g>
    </g>
    <g transform="translate(97.28,184.92)">
      <g class="primitive">
        <text text-anchor="middle" dy="0.6em">80</text>
      </g>
    </g>
    <g transform="translate(116.61,184.92)">
      <g class="primitive">
        <text text-anchor="middle" dy="0.6em">100</text>
      </g>
    </g>
    <g transform="translate(135.93,184.92)">
      <g class="primitive">
        <text text-anchor="middle" dy="0.6em">120</text>
      </g>
    </g>
    <g transform="translate(155.26,184.92)">
      <g class="primitive">
        <text text-anchor="middle" dy="0.6em">140</text>
      </g>
    </g>
    <g transform="translate(174.59,184.92)">
      <g class="primitive">
        <text text-anchor="middle" dy="0.6em">160</text>
      </g>
    </g>
    <g transform="translate(193.92,184.92)">
      <g class="primitive">
        <text text-anchor="middle" dy="0.6em">180</text>
      </g>
    </g>
    <g transform="translate(213.25,184.92)">
      <g class="primitive">
        <text text-anchor="middle" dy="0.6em">200</text>
      </g>
    </g>
    <g transform="translate(232.58,184.92)">
      <g class="primitive">
        <text text-anchor="middle" dy="0.6em">220</text>
      </g>
    </g>
    <g transform="translate(251.91,184.92)">
      <g class="primitive">
        <text text-anchor="middle" dy="0.6em">240</text>
      </g>
    </g>
    <g transform="translate(271.24,184.92)">
      <g class="primitive">
        <text text-anchor="middle" dy="0.6em">260</text>
      </g>
    </g>
  </g>
  <g class="guide colorkey" id="img-fe1c22f0-4">
    <g fill="#4C404B" font-size="2.82" font-family="'PT Sans','Helvetica Neue','Helvetica',sans-serif" id="img-fe1c22f0-5">
      <g transform="translate(277.87,87.95)" id="img-fe1c22f0-6">
        <g class="primitive">
          <text dy="0.35em">LoopVectorization</text>
        </g>
      </g>
      <g transform="translate(277.87,91.57)" id="img-fe1c22f0-7">
        <g class="primitive">
          <text dy="0.35em">Julia</text>
        </g>
      </g>
      <g transform="translate(277.87,95.2)" id="img-fe1c22f0-8">
        <g class="primitive">
          <text dy="0.35em">Clang</text>
        </g>
      </g>
      <g transform="translate(277.87,98.83)" id="img-fe1c22f0-9">
        <g class="primitive">
          <text dy="0.35em">GFortran</text>
        </g>
      </g>
      <g transform="translate(277.87,102.45)" id="img-fe1c22f0-10">
        <g class="primitive">
          <text dy="0.35em">icc</text>
        </g>
      </g>
      <g transform="translate(277.87,106.08)" id="img-fe1c22f0-11">
        <g class="primitive">
          <text dy="0.35em">ifort</text>
        </g>
      </g>
    </g>
    <g stroke-width="0.3" id="img-fe1c22f0-12">
      <g stroke="#FFFFFF" fill-opacity="1" fill="#FC93C0" id="img-fe1c22f0-13">
        <g transform="translate(275.05,106.08)" id="img-fe1c22f0-14">
          <circle cx="0" cy="0" r="0.9" class="primitive"/>
        </g>
      </g>
      <g stroke="#FFFFFF" fill-opacity="1" fill="#EF54F2" id="img-fe1c22f0-15">
        <g transform="translate(275.05,102.45)" id="img-fe1c22f0-16">
          <circle cx="0" cy="0" r="0.9" class="primitive"/>
        </g>
      </g>
      <g stroke="#FFFFFF" fill-opacity="1" fill="#B341FB" id="img-fe1c22f0-17">
        <g transform="translate(275.05,98.83)" id="img-fe1c22f0-18">
          <circle cx="0" cy="0" r="0.9" class="primitive"/>
        </g>
      </g>
      <g stroke="#FFFFFF" fill-opacity="1" fill="#732CF8" id="img-fe1c22f0-19">
        <g transform="translate(275.05,95.2)" id="img-fe1c22f0-20">
          <circle cx="0" cy="0" r="0.9" class="primitive"/>
        </g>
      </g>
      <g stroke="#FFFFFF" fill-opacity="1" fill="#FF0000" id="img-fe1c22f0-21">
        <g transform="translate(275.05,91.57)" id="img-fe1c22f0-22">
          <circle cx="0" cy="0" r="0.9" class="primitive"/>
        </g>
      </g>
      <g stroke="#FFFFFF" fill-opacity="1" fill="#000000" id="img-fe1c22f0-23">
        <g transform="translate(275.05,87.95)" id="img-fe1c22f0-24">
          <circle cx="0" cy="0" r="0.9" class="primitive"/>
        </g>
      </g>
    </g>
    <g fill="#362A35" font-size="3.88" font-family="'PT Sans','Helvetica Neue','Helvetica',sans-serif" stroke="#000000" stroke-opacity="0.000" id="img-fe1c22f0-25">
      <g transform="translate(274.24,84.63)" id="img-fe1c22f0-26">
        <g class="primitive">
          <text dy="-0em">Methods</text>
        </g>
      </g>
    </g>
  </g>
  <g clip-path="url(#img-fe1c22f0-27)">
    <g id="img-fe1c22f0-28">
      <g pointer-events="visible" stroke-width="0.3" fill="#000000" fill-opacity="0.000" stroke="#000000" stroke-opacity="0.000" class="guide background" id="img-fe1c22f0-29">
        <g transform="translate(145.6,94.46)" id="img-fe1c22f0-30">
          <path d="M-127.64,-89.46 L127.64,-89.46 127.64,89.46 -127.64,89.46  z" class="primitive"/>
        </g>
      </g>
      <g class="guide ygridlines xfixed" stroke-dasharray="0.5,0.5" stroke-width="0.2" stroke="#D0D0E0" id="img-fe1c22f0-31">
        <g transform="translate(145.6,181.91)" id="img-fe1c22f0-32">
          <path fill="none" d="M-127.64,0 L127.64,0 " class="primitive"/>
        </g>
        <g transform="translate(145.6,162.48)" id="img-fe1c22f0-33">
          <path fill="none" d="M-127.64,0 L127.64,0 " class="primitive"/>
        </g>
        <g transform="translate(145.6,143.04)" id="img-fe1c22f0-34">
          <path fill="none" d="M-127.64,0 L127.64,0 " class="primitive"/>
        </g>
        <g transform="translate(145.6,123.61)" id="img-fe1c22f0-35">
          <path fill="none" d="M-127.64,0 L127.64,0 " class="primitive"/>
        </g>
        <g transform="translate(145.6,104.17)" id="img-fe1c22f0-36">
          <path fill="none" d="M-127.64,0 L127.64,0 " class="primitive"/>
        </g>
        <g transform="translate(145.6,84.74)" id="img-fe1c22f0-37">
          <path fill="none" d="M-127.64,0 L127.64,0 " class="primitive"/>
        </g>
        <g transform="translate(145.6,65.3)" id="img-fe1c22f0-38">
          <path fill="none" d="M-127.64,0 L127.64,0 " class="primitive"/>
        </g>
        <g transform="translate(145.6,45.87)" id="img-fe1c22f0-39">
          <path fill="none" d="M-127.64,0 L127.64,0 " class="primitive"/>
        </g>
        <g transform="translate(145.6,26.43)" id="img-fe1c22f0-40">
          <path fill="none" d="M-127.64,0 L127.64,0 " class="primitive"/>
        </g>
        <g transform="translate(145.6,7)" id="img-fe1c22f0-41">
          <path fill="none" d="M-127.64,0 L127.64,0 " class="primitive"/>
        </g>
      </g>
      <g class="guide xgridlines yfixed" stroke-dasharray="0.5,0.5" stroke-width="0.2" stroke="#D0D0E0" id="img-fe1c22f0-42">
        <g transform="translate(19.96,94.46)" id="img-fe1c22f0-43">
          <path fill="none" d="M0,-89.46 L0,89.46 " class="primitive"/>
        </g>
        <g transform="translate(39.29,94.46)" id="img-fe1c22f0-44">
          <path fill="none" d="M0,-89.46 L0,89.46 " class="primitive"/>
        </g>
        <g transform="translate(58.62,94.46)" id="img-fe1c22f0-45">
          <path fill="none" d="M0,-89.46 L0,89.46 " class="primitive"/>
        </g>
        <g transform="translate(77.95,94.46)" id="img-fe1c22f0-46">
          <path fill="none" d="M0,-89.46 L0,89.46 " class="primitive"/>
        </g>
        <g transform="translate(97.28,94.46)" id="img-fe1c22f0-47">
          <path fill="none" d="M0,-89.46 L0,89.46 " class="primitive"/>
        </g>
        <g transform="translate(116.61,94.46)" id="img-fe1c22f0-48">
          <path fill="none" d="M0,-89.46 L0,89.46 " class="primitive"/>
        </g>
        <g transform="translate(135.93,94.46)" id="img-fe1c22f0-49">
          <path fill="none" d="M0,-89.46 L0,89.46 " class="primitive"/>
        </g>
        <g transform="translate(155.26,94.46)" id="img-fe1c22f0-50">
          <path fill="none" d="M0,-89.46 L0,89.46 " class="primitive"/>
        </g>
        <g transform="translate(174.59,94.46)" id="img-fe1c22f0-51">
          <path fill="none" d="M0,-89.46 L0,89.46 " class="primitive"/>
        </g>
        <g transform="translate(193.92,94.46)" id="img-fe1c22f0-52">
          <path fill="none" d="M0,-89.46 L0,89.46 " class="primitive"/>
        </g>
        <g transform="translate(213.25,94.46)" id="img-fe1c22f0-53">
          <path fill="none" d="M0,-89.46 L0,89.46 " class="primitive"/>
        </g>
        <g transform="translate(232.58,94.46)" id="img-fe1c22f0-54">
          <path fill="none" d="M0,-89.46 L0,89.46 " class="primitive"/>
        </g>
        <g transform="translate(251.91,94.46)" id="img-fe1c22f0-55">
          <path fill="none" d="M0,-89.46 L0,89.46 " class="primitive"/>
        </g>
        <g transform="translate(271.24,94.46)" id="img-fe1c22f0-56">
          <path fill="none" d="M0,-89.46 L0,89.46 " class="primitive"/>
        </g>
      </g>
      <g class="plotpanel" id="img-fe1c22f0-57">
        <metadata>
          <boundingbox value="17.958333333333343mm 5.0mm 255.2816666666666mm 178.915mm"/>
          <unitbox value="-2.0693909225371265 91.02907126318497 264.1387818450742 -92.05814252636996"/>
        </metadata>
        <g stroke-width="0.3" fill="#000000" fill-opacity="0.000" class="geometry" id="img-fe1c22f0-58">
          <g class="color_RGB{Float64}(0.98704,0.57494,0.75486)" stroke-dasharray="none" stroke="#FC93C0" id="img-fe1c22f0-59">
            <g transform="translate(144.63,173.11)" id="img-fe1c22f0-60">
              <path fill="none" d="M-122.74,2.61 L-121.77,2.92 -120.81,0.81 -119.84,2.15 -118.88,0.63 -117.91,1.47 -116.94,0.44 -115.98,0.85 -115.01,0.01 -114.04,0.8 -113.08,-0.09 -112.11,0.37 -111.14,-0.08 -110.18,0.33 -109.21,0.04 -108.24,0.08 -107.28,-0.42 -106.31,-0.01 -105.35,0.02 -104.38,-0.1 -103.41,-0.51 -102.45,-0.13 -101.48,0.39 -100.51,0.65 -99.55,0.48 -98.58,0.62 -97.61,0.42 -96.65,0.57 -95.68,0.38 -94.71,0.52 -93.75,0.35 -92.78,0.47 -91.81,0.31 -90.85,0.46 -89.88,0.27 -88.92,-0.1 -87.95,0.25 -86.98,0.36 -86.02,0.22 -85.05,0.33 -84.08,-0.31 -83.12,0.3 -82.15,0.17 -81.18,0.28 -80.22,-0.34 -79.25,0.26 -78.28,0.14 -77.32,0.24 -76.35,-0.38 -75.38,-0.2 -74.42,-0.33 -73.45,-0.25 -72.49,-0.37 -71.52,-0.27 -70.55,-0.42 -69.59,-0.27 -68.62,-0.44 -67.65,-0.33 -66.69,-0.37 -65.72,-0.34 -64.75,-0.41 -63.79,-0.37 -62.82,-0.45 -61.85,-0.38 -60.89,-0.47 -59.92,0.11 -58.95,0.02 -57.99,0.09 -57.02,-0.5 -56.06,0.08 -55.09,-0.5 -54.12,0.08 -53.16,-0.52 -52.19,0.06 -51.22,-0.52 -50.26,0.05 -49.29,-0.02 -48.32,0.05 -47.36,-0.03 -46.39,0.04 -45.42,-0.03 -44.46,0.03 -43.49,-0.04 -42.52,0.02 -41.56,-0.05 -40.59,0.01 -39.63,-0.05 -38.66,0.01 -37.69,-0.05 -36.73,0 -35.76,-0.06 -34.79,-0 -33.83,-0.06 -32.86,-0.01 -31.89,-0.07 -30.93,-0.02 -29.96,-0.07 -28.99,-0.02 -28.03,-0.08 -27.06,-0.03 -26.09,-0.08 -25.13,-0.03 -24.16,-0.09 -23.2,-0.04 -22.23,-0.09 -21.26,-0.04 -20.3,-0.09 -19.33,-0.05 -18.36,-0.1 -17.4,-0.05 -16.43,-0.1 -15.46,-0.06 -14.5,-0.1 -13.53,-0.06 -12.56,-0.11 -11.6,-0.06 -10.63,-0.11 -9.66,-0.07 -8.7,-0.12 -7.73,-0.07 -6.77,-0.12 -5.8,-0.07 -4.83,-0.12 -3.87,-0.08 -2.9,-0.11 -1.93,-0.08 -0.97,-0.12 0,-0.08 0.97,-0.12 1.93,-0.09 2.9,-0.13 3.87,-0.09 4.83,-0.13 5.8,-0.09 6.77,-0.13 7.73,-0.09 8.7,-0.13 9.66,-0.1 10.63,-0.14 11.6,-0.09 12.56,-0.14 13.53,-0.1 14.5,-0.13 15.46,-0.1 16.43,-0.14 17.4,-0.1 18.36,-0.14 19.33,-0.11 20.3,-0.15 21.26,-0.11 22.23,-0.14 23.2,-0.11 24.16,-0.15 25.13,-0.11 26.09,-0.13 27.06,-0.12 28.03,-0.08 28.99,-0.12 29.96,-0.13 30.93,-0.12 31.89,-0.15 32.86,-0.12 33.83,-0.15 34.79,-0.12 35.76,-0.15 36.73,-0.13 37.69,-0.15 38.66,-0.07 39.63,-0.13 40.59,-0.09 41.56,-0.15 42.52,-0.12 43.49,-0.14 44.46,-0.13 45.42,-0.14 46.39,-0.14 47.36,-0.16 48.32,-0.12 49.29,-0.15 50.26,-0.12 51.22,-0.15 52.19,-0.12 53.16,-0.16 54.12,-0.12 55.09,-0.15 56.06,-0.12 57.02,-0.17 57.99,-0.1 58.95,-0.07 59.92,-0.14 60.89,-0.11 61.85,-0.06 62.82,-0.16 63.79,-0.14 64.75,-0.17 65.72,-0.09 66.69,-0.14 67.65,-0.12 68.62,-0.16 69.59,-0.12 70.55,-0.15 71.52,-0.04 72.49,-0.12 73.45,-0.09 74.42,-0.04 75.38,-0.11 76.35,-0.12 77.32,-0.08 78.28,-0.13 79.25,-0.11 80.22,-0.13 81.18,-0.16 82.15,-0.11 83.12,-0.09 84.08,-0.11 85.05,-0.05 86.02,-0.08 86.98,-0.1 87.95,-0.08 88.92,-0.04 89.88,-0.03 90.85,-0.08 91.81,-0.1 92.78,-0.04 93.75,-0.05 94.71,-0.05 95.68,-0.04 96.65,-0.03 97.61,-0.09 98.58,-0 99.55,-0.04 100.51,0.06 101.48,-0.06 102.45,0.01 103.41,-0.02 104.38,0.03 105.35,0.04 106.31,-0.01 107.28,-0.06 108.24,-0.01 109.21,-0.02 110.18,0.11 111.14,0.01 112.11,0.04 113.08,0.03 114.04,0.03 115.01,0.03 115.98,0.07 116.94,0.01 117.91,0.07 118.88,0.06 119.84,0.1 120.81,-0.18 121.77,0.14 122.74,1.51 " class="primitive"/>
            </g>
          </g>
        </g>
        <g stroke-width="0.3" fill="#000000" fill-opacity="0.000" class="geometry" id="img-fe1c22f0-61">
          <g class="color_RGB{Float64}(0.9360050000000001,0.3313625,0.949375)" stroke-dasharray="none" stroke="#EF54F2" id="img-fe1c22f0-62">
            <g transform="translate(144.63,125.69)" id="img-fe1c22f0-63">
              <path fill="none" d="M-122.74,46.14 L-121.77,40.49 -120.81,32.03 -119.84,37.19 -118.88,35.11 -117.91,28.31 -116.94,17.4 -115.98,26.14 -115.01,24.25 -114.04,20.24 -113.08,10.09 -112.11,20.84 -111.14,19.15 -110.18,12.88 -109.21,6.77 -108.24,19.33 -107.28,14.19 -106.31,11.64 -105.35,3.86 -104.38,14.48 -103.41,13.85 -102.45,13.71 -101.48,1.92 -100.51,12.91 -99.55,9.86 -98.58,8.36 -97.61,0.52 -96.65,9.56 -95.68,11.04 -94.71,6.67 -93.75,-0.58 -92.78,8.62 -91.81,5.25 -90.85,4.2 -89.88,-2.13 -88.92,5.4 -87.95,6.2 -86.98,2.97 -86.02,-3.11 -85.05,4.06 -84.08,5.33 -83.12,1.18 -82.15,1.92 -81.18,3.62 -80.22,5.35 -79.25,3.06 -78.28,-1.89 -77.32,2.78 -76.35,1.79 -75.38,6.17 -74.42,0.19 -73.45,2.5 -72.49,2.97 -71.52,0.73 -70.55,-4.87 -69.59,7.4 -68.62,0.11 -67.65,2.37 -66.69,-4.79 -65.72,1.07 -64.75,2.23 -63.79,-1.05 -62.82,-5.64 -61.85,0.33 -60.89,-1.08 -59.92,-1.25 -58.95,-0.99 -57.99,2.32 -57.02,-1.46 -56.06,1.53 -55.09,-3.44 -54.12,0.76 -53.16,-2.23 -52.19,-0.26 -51.22,1.8 -50.26,1.92 -49.29,-0.71 -48.32,0.21 -47.36,-3.67 -46.39,-1.78 -45.42,4.74 -44.46,-2.59 -43.49,-7.25 -42.52,-1.27 -41.56,-1.71 -40.59,-0.65 -39.63,-7.34 -38.66,0.77 -37.69,-0.93 -36.73,-3.3 -35.76,-2.69 -34.79,-1.31 -33.83,-3.4 -32.86,-0.97 -31.89,-5.17 -30.93,-1.92 -29.96,2.18 -28.99,-2.32 -28.03,-5.42 -27.06,2.87 -26.09,2.27 -25.13,-4.07 -24.16,-5.63 -23.2,-3.19 -22.23,-3.78 -21.26,-1.91 -20.3,-5.74 -19.33,3.51 -18.36,-2.69 -17.4,2.69 -16.43,-7.56 -15.46,-1.72 -14.5,-2.62 -13.53,1.94 -12.56,-6.36 -11.6,-1.39 -10.63,-4.52 -9.66,-3.68 -8.7,-6.07 -7.73,-1.98 -6.77,-3.18 -5.8,-4.1 -4.83,-6.47 -3.87,3.53 -2.9,-3.15 -1.93,-4.35 -0.97,-1.86 0,-2.65 0.97,-4 1.93,-2.66 2.9,-6.44 3.87,-0.81 4.83,-2.26 5.8,-1.95 6.77,-6.79 7.73,2.27 8.7,-4.21 9.66,-3.4 10.63,-2.96 11.6,2.19 12.56,-5.34 13.53,-3.82 14.5,-6.97 15.46,1.71 16.43,1.01 17.4,-3.75 18.36,-3.44 19.33,-3.47 20.3,-5.26 21.26,-3.84 22.23,-1.98 23.2,-1.72 24.16,-2.32 25.13,0.87 26.09,-2.39 27.06,-3.34 28.03,-4.66 28.99,-4.41 29.96,-7.73 30.93,1.1 31.89,-2.92 32.86,4.6 33.83,-4.07 34.79,-4.07 35.76,0.53 36.73,-4.86 37.69,-8.25 38.66,0.6 39.63,-2.92 40.59,-2.87 41.56,-7.41 42.52,-4.09 43.49,-5.51 44.46,-5.04 45.42,-1.7 46.39,-4.65 47.36,-5.24 48.32,-4.7 49.29,-7.86 50.26,-4.29 51.22,-1.75 52.19,-4.09 53.16,-8.37 54.12,-4.83 55.09,-5.66 56.06,-4.92 57.02,-8.35 57.99,-4.34 58.95,-6.04 59.92,-5.04 60.89,-8.02 61.85,-5 62.82,-6.08 63.79,-3.71 64.75,-8.49 65.72,-0.33 66.69,0.05 67.65,-5.1 68.62,-8.2 69.59,-4.28 70.55,-2.58 71.52,-5.13 72.49,-4.58 73.45,1.69 74.42,-5.71 75.38,-5.61 76.35,-8.18 77.32,-4.15 78.28,-5.58 79.25,-4.6 80.22,-7.77 81.18,-4.62 82.15,-4.93 83.12,0.58 84.08,-8.22 85.05,-4.19 86.02,-4.73 86.98,-4.78 87.95,-1.76 88.92,-3.99 89.88,-6.35 90.85,-5.44 91.81,-7.78 92.78,1.18 93.75,-4.78 94.71,-3.84 95.68,-1.95 96.65,-4.13 97.61,-5.13 98.58,0.8 99.55,-7.22 100.51,-2.19 101.48,-5.35 102.45,-3.93 103.41,-7.51 104.38,-3.25 105.35,-3.97 106.31,0.26 107.28,-7.78 108.24,-3.48 109.21,0.22 110.18,-1.17 111.14,-4.33 112.11,0.89 113.08,-0.22 114.04,-0.64 115.01,-4.71 115.98,-1.77 116.94,-3.42 117.91,-2.39 118.88,-6.32 119.84,2.07 120.81,-4.76 121.77,0.62 122.74,-7.27 " class="primitive"/>
            </g>
          </g>
        </g>
        <g stroke-width="0.3" fill="#000000" fill-opacity="0.000" class="geometry" id="img-fe1c22f0-64">
          <g class="color_RGB{Float64}(0.7018800000000001,0.25504499999999997,0.9848349999999999)" stroke-dasharray="none" stroke="#B341FB" id="img-fe1c22f0-65">
            <g transform="translate(144.63,112.47)" id="img-fe1c22f0-66">
              <path fill="none" d="M-122.74,63.47 L-121.77,60.76 -120.81,50.45 -119.84,53.05 -118.88,53.13 -117.91,51.48 -116.94,19.52 -115.98,35.4 -115.01,37.46 -114.04,40.34 -113.08,26.68 -112.11,33.54 -111.14,36.59 -110.18,38.96 -109.21,1.31 -108.24,26.8 -107.28,27.37 -106.31,32.1 -105.35,11.91 -104.38,23.09 -103.41,27.32 -102.45,30.84 -101.48,-6.32 -100.51,14.6 -99.55,14.86 -98.58,22.28 -97.61,0.57 -96.65,11.98 -95.68,14.15 -94.71,22.44 -93.75,-10.66 -92.78,10.17 -91.81,8.85 -90.85,15.11 -89.88,-5.35 -88.92,7.94 -87.95,14.34 -86.98,17.19 -86.02,-16.59 -85.05,-1.51 -84.08,10.02 -83.12,10.96 -82.15,-1.17 -81.18,7.11 -80.22,12.88 -79.25,19.39 -78.28,-5.44 -77.32,3.35 -76.35,5.98 -75.38,10.93 -74.42,4.94 -73.45,6.27 -72.49,7.94 -71.52,13.06 -70.55,-8.31 -69.59,6.37 -68.62,3.66 -67.65,12.39 -66.69,-3.65 -65.72,3.65 -64.75,6.67 -63.79,10.15 -62.82,-11.01 -61.85,-1.62 -60.89,0.02 -59.92,5.54 -58.95,-1.98 -57.99,6.2 -57.02,-0.42 -56.06,12.46 -55.09,-6.49 -54.12,-0.52 -53.16,-0.65 -52.19,5.62 -51.22,-0.43 -50.26,4.93 -49.29,-0.57 -48.32,9.74 -47.36,-11.65 -46.39,-4.63 -45.42,3.05 -44.46,1.19 -43.49,-8.76 -42.52,-2.12 -41.56,-1.68 -40.59,8.04 -39.63,-13.23 -38.66,-5.08 -37.69,1.34 -36.73,0.7 -35.76,-6.53 -34.79,-1.06 -33.83,-5.73 -32.86,6.32 -31.89,-8.97 -30.93,-4.61 -29.96,-1.79 -28.99,0.68 -28.03,-4.31 -27.06,0.95 -26.09,-4.46 -25.13,1.51 -24.16,-8.87 -23.2,-7.57 -22.23,-3.55 -21.26,2 -20.3,-5.57 -19.33,-3.42 -18.36,-3.63 -17.4,4.66 -16.43,-10.68 -15.46,-4.05 -14.5,-2.97 -13.53,-0.98 -12.56,-7.17 -11.6,-2.2 -10.63,-7.06 -9.66,1.03 -8.7,-10.53 -7.73,-4.9 -6.77,-3.51 -5.8,-1.9 -4.83,-7.5 -3.87,-2.75 -2.9,-2.86 -1.93,-0.05 -0.97,-10.96 0,-5.57 0.97,-4.88 1.93,-1.08 2.9,-8.46 3.87,-5.44 4.83,-9.22 5.8,-0.86 6.77,-12.01 7.73,-5.82 8.7,-5.47 9.66,-2.25 10.63,-9.19 11.6,-4.42 12.56,-9.45 13.53,0.09 14.5,-12.49 15.46,-7.09 16.43,-4.37 17.4,-2.5 18.36,-11.24 19.33,-4.88 20.3,-10.2 21.26,-0.93 22.23,-11.92 23.2,-9.18 24.16,-6.01 25.13,-2.96 26.09,-9.43 27.06,-5.46 28.03,-9.71 28.99,-1.31 29.96,-13.38 30.93,-7.37 31.89,-7.02 32.86,-1.56 33.83,-10.25 34.79,-6.08 35.76,-10.53 36.73,-2.76 37.69,-13.29 38.66,-8.4 39.63,-7.62 40.59,-4.42 41.56,-10.45 42.52,-6.35 43.49,-10.57 44.46,-2.47 45.42,-11.17 46.39,-9.13 47.36,-7.94 48.32,-4.91 49.29,-11.23 50.26,-7.04 51.22,-9.48 52.19,-2.32 53.16,-13.74 54.12,-8.96 55.09,-8.53 56.06,-5.03 57.02,-11.35 57.99,-6.57 58.95,-11.89 59.92,-3.5 60.89,-13.32 61.85,-9.59 62.82,-8.8 63.79,-4.4 64.75,-12.11 65.72,-6.99 66.69,-8.9 67.65,-4.11 68.62,-13.64 69.59,-7.86 70.55,-8.12 71.52,-6.05 72.49,-9.49 73.45,-5.56 74.42,-11.22 75.38,-4.71 76.35,-13.36 77.32,-7.83 78.28,-8.48 79.25,-5.23 80.22,-10.58 81.18,-7.95 82.15,-10.09 83.12,-2.25 84.08,-12.79 85.05,-7.64 86.02,-6.86 86.98,-5.35 87.95,-9.03 88.92,-6.55 89.88,-12.85 90.85,-5.24 91.81,-13.04 92.78,-6.52 93.75,-6.69 94.71,-3.75 95.68,-7.38 96.65,-6.86 97.61,-10.64 98.58,-1.93 99.55,-9.87 100.51,-4.37 101.48,-6.74 102.45,-3.56 103.41,-8.21 104.38,-3.95 105.35,-7.74 106.31,-4.24 107.28,-11.52 108.24,-6.39 109.21,-5.65 110.18,-1.92 111.14,-6.91 112.11,-2.94 113.08,-5.25 114.04,-1.49 115.01,-8.69 115.98,-3.93 116.94,-3.14 117.91,-1.19 118.88,-6.63 119.84,-2.46 120.81,-8.64 121.77,-0.98 122.74,-8.52 " class="primitive"/>
            </g>
          </g>
        </g>
        <g stroke-width="0.3" fill="#000000" fill-opacity="0.000" class="geometry" id="img-fe1c22f0-67">
          <g class="color_RGB{Float64}(0.45187999999999995,0.172285,0.9716199999999999)" stroke-dasharray="none" stroke="#732CF8" id="img-fe1c22f0-68">
            <g transform="translate(144.63,116.58)" id="img-fe1c22f0-69">
              <path fill="none" d="M-122.74,57.53 L-121.77,54.49 -120.81,52.66 -119.84,51.23 -118.88,50.45 -117.91,50.04 -116.94,9.9 -115.98,21.42 -115.01,25.82 -114.04,28.83 -113.08,31.01 -112.11,33.18 -111.14,36.01 -110.18,40 -109.21,-7.42 -108.24,16.32 -107.28,9.82 -106.31,16.24 -105.35,18.99 -104.38,23.64 -103.41,28.91 -102.45,31.73 -101.48,-15.48 -100.51,2.1 -99.55,4.3 -98.58,10.12 -97.61,9.18 -96.65,14.11 -95.68,17.6 -94.71,24.44 -93.75,-21.06 -92.78,-0.27 -91.81,-3.35 -90.85,2.44 -89.88,6.22 -88.92,13.13 -87.95,19.07 -86.98,20 -86.02,-25.88 -85.05,-15.18 -84.08,1.29 -83.12,-1.44 -82.15,8.76 -81.18,9.56 -80.22,16.07 -79.25,18.02 -78.28,-3.83 -77.32,-2.34 -76.35,-1.46 -75.38,2.53 -74.42,8.24 -73.45,7.92 -72.49,9.95 -71.52,15.22 -70.55,-8.16 -69.59,2.93 -68.62,-3.15 -67.65,5.16 -66.69,1.79 -65.72,5.31 -64.75,10.76 -63.79,11.88 -62.82,-9.38 -61.85,-5.49 -60.89,-4.67 -59.92,-1.28 -58.95,2.62 -57.99,8.62 -57.02,3.2 -56.06,12.74 -55.09,-4.94 -54.12,-4.11 -53.16,-5.69 -52.19,-0.71 -51.22,4.37 -50.26,7.07 -49.29,2.42 -48.32,11.86 -47.36,-10.67 -46.39,-7.39 -45.42,-2.16 -44.46,-3.75 -43.49,-2.84 -42.52,0.93 -41.56,2.44 -40.59,10.28 -39.63,-11.29 -38.66,-7.89 -37.69,-2.47 -36.73,-4.28 -35.76,-2.5 -34.79,2.29 -33.83,-2.15 -32.86,7.65 -31.89,-6.63 -30.93,-5.01 -29.96,-6.18 -28.99,-3.32 -28.03,-0.48 -27.06,3.45 -26.09,-1.01 -25.13,3.93 -24.16,-6.82 -23.2,-8.64 -22.23,-5.15 -21.26,-0.75 -20.3,-0.77 -19.33,-1.28 -18.36,-0.33 -17.4,4.77 -16.43,-8.3 -15.46,-5.95 -14.5,-5.41 -13.53,-3.15 -12.56,-1.67 -11.6,-0.07 -10.63,-3.22 -9.66,2.75 -8.7,-9.5 -7.73,-6.35 -6.77,-4.34 -5.8,-4.09 -4.83,-2.99 -3.87,-0.65 -2.9,-3.75 -1.93,2.83 -0.97,-8.21 0,-5.51 0.97,-5.41 1.93,-4.26 2.9,-4.49 3.87,-1.7 4.83,-6.65 5.8,2.52 6.77,-10.07 7.73,-5.66 8.7,-6.07 9.66,-4.6 10.63,-4.55 11.6,-3.38 12.56,-5.73 13.53,2.95 14.5,-10.5 15.46,-8.96 16.43,-7.61 17.4,-5.08 18.36,-5.7 19.33,-1.3 20.3,-6.31 21.26,0.99 22.23,-9.16 23.2,-9.73 24.16,-6.22 25.13,-4.92 26.09,-5.96 27.06,-3.25 28.03,-7.07 28.99,1.64 29.96,-10.1 30.93,-7.49 31.89,-6.79 32.86,-3.68 33.83,-5.09 34.79,-2.35 35.76,-7.4 36.73,-0 37.69,-10.1 38.66,-7.83 39.63,-8.31 40.59,-6.45 41.56,-6.66 42.52,-3.52 43.49,-7.14 44.46,0.34 45.42,-9.73 46.39,-8.53 47.36,-8.49 48.32,-6.66 49.29,-7.11 50.26,-3.22 51.22,-7.09 52.19,0.11 53.16,-11.09 54.12,-8.38 55.09,-8.64 56.06,-6.74 57.02,-7.49 57.99,-3.98 58.95,-8.28 59.92,-0.51 60.89,-10.32 61.85,-8.8 62.82,-8.01 63.79,-5.69 64.75,-7.41 65.72,-4.03 66.69,-9.82 67.65,-1.36 68.62,-11.27 69.59,-7.18 70.55,-7.97 71.52,-6.37 72.49,-6.24 73.45,-4.2 74.42,-9.02 75.38,-1.43 76.35,-10.27 77.32,-7 78.28,-8.14 79.25,-6.03 80.22,-6.44 81.18,-4.32 82.15,-8.03 83.12,0.62 84.08,-10.7 85.05,-7.17 86.02,-7.29 86.98,-6.09 87.95,-6.68 88.92,-4.77 89.88,-9.66 90.85,-2.55 91.81,-10.37 92.78,-6.56 93.75,-7.12 94.71,-5.41 95.68,-5.02 96.65,-4.38 97.61,-8.67 98.58,0.3 99.55,-9.23 100.51,-4.69 101.48,-7.44 102.45,-5.43 103.41,-6.05 104.38,-3.15 105.35,-7.42 106.31,-1.89 107.28,-9.53 108.24,-6.22 109.21,-6.41 110.18,-4.32 111.14,-4.35 112.11,-2.19 113.08,-6.91 114.04,-0.92 115.01,-8.91 115.98,-5.66 116.94,-6.02 117.91,-4.31 118.88,-5.11 119.84,-1.2 120.81,-8.46 121.77,-0.6 122.74,-6.44 " class="primitive"/>
            </g>
          </g>
        </g>
        <g stroke-width="0.3" fill="#000000" fill-opacity="0.000" class="geometry" id="img-fe1c22f0-70">
          <g class="color_RGB{Float64}(1.0,0.0,0.0)" stroke-dasharray="none" stroke="#FF0000" id="img-fe1c22f0-71">
            <g transform="translate(144.63,170.16)" id="img-fe1c22f0-72">
              <path fill="none" d="M-122.74,5.2 L-121.77,3.05 -120.81,1.6 -119.84,1.19 -118.88,0.81 -117.91,0.25 -116.94,0.22 -115.98,-0.01 -115.01,0.08 -114.04,1.36 -113.08,-0.08 -112.11,-0.28 -111.14,-0.36 -110.18,-0.38 -109.21,-0.38 -108.24,-0.3 -107.28,-0.41 -106.31,0.08 -105.35,0.1 -104.38,0 -103.41,-0.51 -102.45,-0.65 -101.48,-0.67 -100.51,-0.72 -99.55,-0.05 -98.58,-0.05 -97.61,-0.07 -96.65,-0.75 -95.68,-0.76 -94.71,-0.07 -93.75,-0.09 -92.78,-0.09 -91.81,-0.32 -90.85,-0.1 -89.88,-0.12 -88.92,-0.23 -87.95,-0.04 -86.98,0.06 -86.02,-0.11 -85.05,-0.4 -84.08,-0.06 -83.12,0.41 -82.15,0.95 -81.18,-0.12 -80.22,-0.06 -79.25,-0.13 -78.28,-0.17 -77.32,-0.12 -76.35,-0.13 -75.38,-0.14 -74.42,-0.13 -73.45,-0.14 -72.49,-0.84 -71.52,0.39 -70.55,-0.14 -69.59,0.14 -68.62,-0.14 -67.65,-0.82 -66.69,-0.81 -65.72,-0.79 -64.75,-0.74 -63.79,-0.82 -62.82,-0.82 -61.85,-0.86 -60.89,-0.83 -59.92,-0.83 -58.95,-0.2 -57.99,-0.83 -57.02,-0.81 -56.06,-0.83 -55.09,-0.77 -54.12,-0.84 -53.16,-0.85 -52.19,-0.39 -51.22,0.68 -50.26,-0.45 -49.29,-0.55 -48.32,0.09 -47.36,0.63 -46.39,0.07 -45.42,0.04 -44.46,0.04 -43.49,0.03 -42.52,0.11 -41.56,0.14 -40.59,0.09 -39.63,0.03 -38.66,0.52 -37.69,-0.16 -36.73,-0.18 -35.76,-0.88 -34.79,-0.14 -33.83,-0.17 -32.86,0.05 -31.89,0.11 -30.93,0.05 -29.96,1.03 -28.99,0.03 -28.03,-0 -27.06,0.56 -26.09,0.02 -25.13,0.05 -24.16,0.07 -23.2,0 -22.23,0.02 -21.26,0.01 -20.3,0 -19.33,0.49 -18.36,0 -17.4,-0.02 -16.43,0.05 -15.46,-0.04 -14.5,-0.03 -13.53,0.56 -12.56,-0 -11.6,-0.03 -10.63,-0 -9.66,1 -8.7,-0.04 -7.73,-0.03 -6.77,0.03 -5.8,-0.03 -4.83,-0.01 -3.87,0.01 -2.9,0.02 -1.93,0.02 -0.97,-0.04 0,-0.02 0.97,-0 1.93,0 2.9,-0.01 3.87,-0.04 4.83,-0.06 5.8,-0.05 6.77,-0.04 7.73,-0.05 8.7,-0.03 9.66,-0 10.63,-0.04 11.6,-0.07 12.56,-0.05 13.53,-0.05 14.5,-0.07 15.46,0.5 16.43,-0.07 17.4,-0.01 18.36,-0.02 19.33,-0.01 20.3,-0.06 21.26,-0.07 22.23,0.49 23.2,-0.08 24.16,-0.06 25.13,0.45 26.09,-0.05 27.06,-0.08 28.03,-0.07 28.99,-0.07 29.96,-0.03 30.93,0.44 31.89,-0.02 32.86,-0.03 33.83,-0.07 34.79,-0.07 35.76,-0.03 36.73,-0.08 37.69,-0.07 38.66,0.48 39.63,-0.09 40.59,-0.05 41.56,-0.08 42.52,-0.09 43.49,-0.07 44.46,-0.07 45.42,0.97 46.39,-0.09 47.36,-0.1 48.32,-0.05 49.29,-0.07 50.26,-0.08 51.22,-0.05 52.19,-0.09 53.16,1 54.12,-0.1 55.09,-0.09 56.06,-0.11 57.02,-0.07 57.99,0.15 58.95,-0.09 59.92,-0.05 60.89,-0.09 61.85,-0.1 62.82,-0.09 63.79,-0.1 64.75,-0.1 65.72,-0.07 66.69,-0.08 67.65,-0.07 68.62,-0.07 69.59,-0.09 70.55,-0.1 71.52,-0.11 72.49,-0.1 73.45,-0.07 74.42,-0.1 75.38,-0.1 76.35,-0.07 77.32,-0.1 78.28,-0.1 79.25,-0.1 80.22,-0.11 81.18,-0.1 82.15,-0.11 83.12,0.97 84.08,-0.07 85.05,-0.1 86.02,-0.11 86.98,-0.07 87.95,-0.08 88.92,-0.08 89.88,-0.11 90.85,-0.11 91.81,-0.1 92.78,0.96 93.75,-0.1 94.71,-0.11 95.68,0.97 96.65,-0.11 97.61,-0.1 98.58,0.95 99.55,-0.08 100.51,-0.11 101.48,-0.09 102.45,-0.12 103.41,-0.11 104.38,-0.08 105.35,-0.08 106.31,0.4 107.28,-0.09 108.24,-0.11 109.21,0.95 110.18,-0.06 111.14,-0.08 112.11,-0.08 113.08,0.99 114.04,-0.11 115.01,-0.09 115.98,-0.11 116.94,-0.12 117.91,0.41 118.88,-0.12 119.84,0.93 120.81,-0.12 121.77,-0.12 122.74,-0.1 " class="primitive"/>
            </g>
          </g>
        </g>
        <g stroke-width="0.3" fill="#000000" fill-opacity="0.000" class="geometry" id="img-fe1c22f0-73">
          <g class="color_RGB{Float64}(0.0,0.0,0.0)" stroke-dasharray="none" stroke="#000000" id="img-fe1c22f0-74">
            <g transform="translate(144.63,75.59)" id="img-fe1c22f0-75">
              <path fill="none" d="M-122.74,98.9 L-121.77,91.49 -120.81,81.51 -119.84,73.18 -118.88,63.85 -117.91,53.93 -116.94,32.14 -115.98,56.05 -115.01,45.3 -114.04,39.65 -113.08,31.38 -112.11,28.36 -111.14,12.71 -110.18,5.66 -109.21,-18.87 -108.24,25.91 -107.28,23.07 -106.31,11.71 -105.35,-0.26 -104.38,-6.3 -103.41,-12.74 -102.45,-16.01 -101.48,-46.65 -100.51,7.72 -99.55,-4.64 -98.58,-9.59 -97.61,-14.23 -96.65,-23.42 -95.68,-29.44 -94.71,-24.84 -93.75,-57.91 -92.78,-7.9 -91.81,-16.54 -90.85,-21.03 -89.88,-29.36 -88.92,-30.39 -87.95,-33.16 -86.98,-31.68 -86.02,-59.61 -85.05,-16.85 -84.08,-21.79 -83.12,-16.91 -82.15,-22.28 -81.18,-17.1 -80.22,-13.89 -79.25,-8.62 -78.28,-27.41 -77.32,2.66 -76.35,2.6 -75.38,6.93 -74.42,-3.39 -73.45,3.99 -72.49,0.57 -71.52,1.55 -70.55,-22.16 -69.59,8.84 -68.62,1.12 -67.65,2.76 -66.69,-0.01 -65.72,3.18 -64.75,-4.78 -63.79,3.52 -62.82,-23.59 -61.85,4.06 -60.89,1.23 -59.92,2.13 -58.95,-8.09 -57.99,-1.63 -57.02,-1.18 -56.06,-1.98 -55.09,-24.74 -54.12,9.74 -53.16,1.6 -52.19,4.43 -51.22,-3.61 -50.26,0.07 -49.29,-1.63 -48.32,-0.56 -47.36,-27.02 -46.39,6.79 -45.42,-0.02 -44.46,3.81 -43.49,-2.52 -42.52,1.28 -41.56,1.64 -40.59,0.03 -39.63,-25.77 -38.66,6.89 -37.69,2.06 -36.73,0.44 -35.76,-6.64 -34.79,4.88 -33.83,1.39 -32.86,1.58 -31.89,-24.56 -30.93,6.79 -29.96,2.07 -28.99,0.49 -28.03,-4.93 -27.06,1.48 -26.09,2.53 -25.13,2.63 -24.16,-26.34 -23.2,6.2 -22.23,0.4 -21.26,2.37 -20.3,-7.98 -19.33,-0.66 -18.36,-0.32 -17.4,0.54 -16.43,-27.59 -15.46,5.35 -14.5,-1.64 -13.53,7.13 -12.56,-6.72 -11.6,2.15 -10.63,0.02 -9.66,-0.75 -8.7,-28.68 -7.73,5.51 -6.77,-4.41 -5.8,2.47 -4.83,-7.75 -3.87,1.6 -2.9,2.59 -1.93,5.04 -0.97,-20.08 0,7.93 0.97,1 1.93,2.92 2.9,-4.94 3.87,1.01 4.83,0.74 5.8,-0.22 6.77,-28.67 7.73,3.28 8.7,-2.27 9.66,6.31 10.63,-9.49 11.6,1.99 12.56,2.74 13.53,0.88 14.5,-26.7 15.46,3.09 16.43,-1.06 17.4,1.12 18.36,-9.14 19.33,0.17 20.3,1.96 21.26,-1.24 22.23,-28.17 23.2,5.21 24.16,-2.18 25.13,0.99 26.09,-7.61 27.06,1.46 28.03,-0.41 28.99,-1.66 29.96,-28.71 30.93,2.58 31.89,-1.71 32.86,0.74 33.83,-6.34 34.79,-0.59 35.76,1.81 36.73,0.92 37.69,-25.46 38.66,4.8 39.63,1.52 40.59,9.01 41.56,3.05 42.52,2.08 43.49,0.23 44.46,-1.6 45.42,-16.91 46.39,1.98 47.36,-3.5 48.32,-0.59 49.29,-7.95 50.26,0.89 51.22,1.83 52.19,-1.38 53.16,-18.07 54.12,0.95 55.09,-4.04 56.06,-0.41 57.02,-8 57.99,4.29 58.95,-0.33 59.92,0.39 60.89,-26.62 61.85,1.64 62.82,-1.55 63.79,0.66 64.75,-9.37 65.72,-0.06 66.69,-0.72 67.65,1.39 68.62,-24.93 69.59,7.21 70.55,-2.33 71.52,2.34 72.49,-3.13 73.45,5.16 74.42,9.31 75.38,1.47 76.35,-16.26 77.32,6.18 78.28,-3.1 79.25,1.66 80.22,-8.26 81.18,-0.6 82.15,0.47 83.12,2.2 84.08,-22.95 85.05,9.36 86.02,4.33 86.98,3.34 87.95,-3.84 88.92,6.49 89.88,5.45 90.85,0.61 91.81,-25.01 92.78,12.66 93.75,2.94 94.71,10.18 95.68,9.84 96.65,3.64 97.61,4.28 98.58,10.33 99.55,-11.97 100.51,19.64 101.48,4.82 102.45,10.1 103.41,3.24 104.38,13.67 105.35,17.65 106.31,5.65 107.28,-17.51 108.24,9.75 109.21,7.67 110.18,13.92 111.14,1.47 112.11,8.59 113.08,13.06 114.04,8.52 115.01,-12.24 115.98,12.35 116.94,9.53 117.91,17.74 118.88,8.44 119.84,20.79 120.81,25.12 121.77,28.56 122.74,5.99 " class="primitive"/>
            </g>
          </g>
        </g>
      </g>
    </g>
  </g>
  <g class="guide ylabels" font-size="2.82" font-family="'PT Sans Caption','Helvetica Neue','Helvetica',sans-serif" fill="#6C606B" id="img-fe1c22f0-76">
    <g transform="translate(16.96,181.91)" id="img-fe1c22f0-77">
      <g class="primitive">
        <text text-anchor="end" dy="0.35em">0</text>
      </g>
    </g>
    <g transform="translate(16.96,162.48)" id="img-fe1c22f0-78">
      <g class="primitive">
        <text text-anchor="end" dy="0.35em">10</text>
      </g>
    </g>
    <g transform="translate(16.96,143.04)" id="img-fe1c22f0-79">
      <g class="primitive">
        <text text-anchor="end" dy="0.35em">20</text>
      </g>
    </g>
    <g transform="translate(16.96,123.61)" id="img-fe1c22f0-80">
      <g class="primitive">
        <text text-anchor="end" dy="0.35em">30</text>
      </g>
    </g>
    <g transform="translate(16.96,104.17)" id="img-fe1c22f0-81">
      <g class="primitive">
        <text text-anchor="end" dy="0.35em">40</text>
      </g>
    </g>
    <g transform="translate(16.96,84.74)" id="img-fe1c22f0-82">
      <g class="primitive">
        <text text-anchor="end" dy="0.35em">50</text>
      </g>
    </g>
    <g transform="translate(16.96,65.3)" id="img-fe1c22f0-83">
      <g class="primitive">
        <text text-anchor="end" dy="0.35em">60</text>
      </g>
    </g>
    <g transform="translate(16.96,45.87)" id="img-fe1c22f0-84">
      <g class="primitive">
        <text text-anchor="end" dy="0.35em">70</text>
      </g>
    </g>
    <g transform="translate(16.96,26.43)" id="img-fe1c22f0-85">
      <g class="primitive">
        <text text-anchor="end" dy="0.35em">80</text>
      </g>
    </g>
    <g transform="translate(16.96,7)" id="img-fe1c22f0-86">
      <g class="primitive">
        <text text-anchor="end" dy="0.35em">90</text>
      </g>
    </g>
  </g>
  <g font-size="3.88" font-family="'PT Sans','Helvetica Neue','Helvetica',sans-serif" fill="#564A55" stroke="#000000" stroke-opacity="0.000" id="img-fe1c22f0-87">
    <g transform="translate(8.81,92.46)" id="img-fe1c22f0-88">
      <g class="primitive">
        <text text-anchor="middle" dy="0.35em" transform="rotate(-90,0, 2)">GFLOPS</text>
      </g>
    </g>
  </g>
</g>
<defs>
  <clipPath id="img-fe1c22f0-27">
    <path d="M17.96,5 L273.24,5 273.24,183.92 17.96,183.92 " />
  </clipPath>
</defs>
</svg>
