<?xml version="1.0" encoding="utf-8"?>
<!DOCTYPE svg PUBLIC "-//W3C//DTD SVG 1.1//EN" "http://www.w3.org/Graphics/SVG/1.1/DTD/svg11.dtd">
<svg class="marks" width="1063" height="647" viewBox="0 0 1063 647" version="1.1" xmlns="http://www.w3.org/2000/svg" xmlns:xlink="http://www.w3.org/1999/xlink"><rect width="1063" height="647" style="fill: white;"></rect><g transform="translate(39,10)"><g class="mark-group role-frame root"><g transform="translate(0,0)"><path class="background" d="M0.5,0.5h900v600h-900Z" style="fill: none; stroke: #ddd;"></path><g><g class="mark-group role-axis"><g transform="translate(0.5,600.5)"><path class="background" d="M0,0h0v0h0Z" style="pointer-events: none; fill: none;"></path><g><g class="mark-rule role-axis-grid" style="pointer-events: none;"><line transform="translate(0,-600)" x2="0" y2="600" style="fill: none; stroke: #ddd; stroke-width: 1; opacity: 1;"></line><line transform="translate(35,-600)" x2="0" y2="600" style="fill: none; stroke: #ddd; stroke-width: 1; opacity: 1;"></line><line transform="translate(69,-600)" x2="0" y2="600" style="fill: none; stroke: #ddd; stroke-width: 1; opacity: 1;"></line><line transform="translate(104,-600)" x2="0" y2="600" style="fill: none; stroke: #ddd; stroke-width: 1; opacity: 1;"></line><line transform="translate(138,-600)" x2="0" y2="600" style="fill: none; stroke: #ddd; stroke-width: 1; opacity: 1;"></line><line transform="translate(173,-600)" x2="0" y2="600" style="fill: none; stroke: #ddd; stroke-width: 1; opacity: 1;"></line><line transform="translate(208,-600)" x2="0" y2="600" style="fill: none; stroke: #ddd; stroke-width: 1; opacity: 1;"></line><line transform="translate(242,-600)" x2="0" y2="600" style="fill: none; stroke: #ddd; stroke-width: 1; opacity: 1;"></line><line transform="translate(277,-600)" x2="0" y2="600" style="fill: none; stroke: #ddd; stroke-width: 1; opacity: 1;"></line><line transform="translate(312,-600)" x2="0" y2="600" style="fill: none; stroke: #ddd; stroke-width: 1; opacity: 1;"></line><line transform="translate(346,-600)" x2="0" y2="600" style="fill: none; stroke: #ddd; stroke-width: 1; opacity: 1;"></line><line transform="translate(381,-600)" x2="0" y2="600" style="fill: none; stroke: #ddd; stroke-width: 1; opacity: 1;"></line><line transform="translate(415,-600)" x2="0" y2="600" style="fill: none; stroke: #ddd; stroke-width: 1; opacity: 1;"></line><line transform="translate(450,-600)" x2="0" y2="600" style="fill: none; stroke: #ddd; stroke-width: 1; opacity: 1;"></line><line transform="translate(485,-600)" x2="0" y2="600" style="fill: none; stroke: #ddd; stroke-width: 1; opacity: 1;"></line><line transform="translate(519,-600)" x2="0" y2="600" style="fill: none; stroke: #ddd; stroke-width: 1; opacity: 1;"></line><line transform="translate(554,-600)" x2="0" y2="600" style="fill: none; stroke: #ddd; stroke-width: 1; opacity: 1;"></line><line transform="translate(588,-600)" x2="0" y2="600" style="fill: none; stroke: #ddd; stroke-width: 1; opacity: 1;"></line><line transform="translate(623,-600)" x2="0" y2="600" style="fill: none; stroke: #ddd; stroke-width: 1; opacity: 1;"></line><line transform="translate(658,-600)" x2="0" y2="600" style="fill: none; stroke: #ddd; stroke-width: 1; opacity: 1;"></line><line transform="translate(692,-600)" x2="0" y2="600" style="fill: none; stroke: #ddd; stroke-width: 1; opacity: 1;"></line><line transform="translate(727,-600)" x2="0" y2="600" style="fill: none; stroke: #ddd; stroke-width: 1; opacity: 1;"></line><line transform="translate(762,-600)" x2="0" y2="600" style="fill: none; stroke: #ddd; stroke-width: 1; opacity: 1;"></line><line transform="translate(796,-600)" x2="0" y2="600" style="fill: none; stroke: #ddd; stroke-width: 1; opacity: 1;"></line><line transform="translate(831,-600)" x2="0" y2="600" style="fill: none; stroke: #ddd; stroke-width: 1; opacity: 1;"></line><line transform="translate(865,-600)" x2="0" y2="600" style="fill: none; stroke: #ddd; stroke-width: 1; opacity: 1;"></line><line transform="translate(900,-600)" x2="0" y2="600" style="fill: none; stroke: #ddd; stroke-width: 1; opacity: 1;"></line></g></g><path class="foreground" d="" style="pointer-events: none; display: none; fill: none;"></path></g></g><g class="mark-group role-axis"><g transform="translate(0.5,0.5)"><path class="background" d="M0,0h0v0h0Z" style="pointer-events: none; fill: none;"></path><g><g class="mark-rule role-axis-grid" style="pointer-events: none;"><line transform="translate(0,600)" x2="900" y2="0" style="fill: none; stroke: #ddd; stroke-width: 1; opacity: 1;"></line><line transform="translate(0,540)" x2="900" y2="0" style="fill: none; stroke: #ddd; stroke-width: 1; opacity: 1;"></line><line transform="translate(0,480)" x2="900" y2="0" style="fill: none; stroke: #ddd; stroke-width: 1; opacity: 1;"></line><line transform="translate(0,420)" x2="900" y2="0" style="fill: none; stroke: #ddd; stroke-width: 1; opacity: 1;"></line><line transform="translate(0,360)" x2="900" y2="0" style="fill: none; stroke: #ddd; stroke-width: 1; opacity: 1;"></line><line transform="translate(0,300)" x2="900" y2="0" style="fill: none; stroke: #ddd; stroke-width: 1; opacity: 1;"></line><line transform="translate(0,240)" x2="900" y2="0" style="fill: none; stroke: #ddd; stroke-width: 1; opacity: 1;"></line><line transform="translate(0,180)" x2="900" y2="0" style="fill: none; stroke: #ddd; stroke-width: 1; opacity: 1;"></line><line transform="translate(0,120)" x2="900" y2="0" style="fill: none; stroke: #ddd; stroke-width: 1; opacity: 1;"></line><line transform="translate(0,60)" x2="900" y2="0" style="fill: none; stroke: #ddd; stroke-width: 1; opacity: 1;"></line><line transform="translate(0,0)" x2="900" y2="0" style="fill: none; stroke: #ddd; stroke-width: 1; opacity: 1;"></line></g></g><path class="foreground" d="" style="pointer-events: none; display: none; fill: none;"></path></g></g><g class="mark-group role-axis"><g transform="translate(0.5,600.5)"><path class="background" d="M0,0h0v0h0Z" style="pointer-events: none; fill: none;"></path><g><g class="mark-rule role-axis-tick" style="pointer-events: none;"><line transform="translate(0,0)" x2="0" y2="5" style="fill: none; stroke: #888; stroke-width: 1; opacity: 1;"></line><line transform="translate(35,0)" x2="0" y2="5" style="fill: none; stroke: #888; stroke-width: 1; opacity: 1;"></line><line transform="translate(69,0)" x2="0" y2="5" style="fill: none; stroke: #888; stroke-width: 1; opacity: 1;"></line><line transform="translate(104,0)" x2="0" y2="5" style="fill: none; stroke: #888; stroke-width: 1; opacity: 1;"></line><line transform="translate(138,0)" x2="0" y2="5" style="fill: none; stroke: #888; stroke-width: 1; opacity: 1;"></line><line transform="translate(173,0)" x2="0" y2="5" style="fill: none; stroke: #888; stroke-width: 1; opacity: 1;"></line><line transform="translate(208,0)" x2="0" y2="5" style="fill: none; stroke: #888; stroke-width: 1; opacity: 1;"></line><line transform="translate(242,0)" x2="0" y2="5" style="fill: none; stroke: #888; stroke-width: 1; opacity: 1;"></line><line transform="translate(277,0)" x2="0" y2="5" style="fill: none; stroke: #888; stroke-width: 1; opacity: 1;"></line><line transform="translate(312,0)" x2="0" y2="5" style="fill: none; stroke: #888; stroke-width: 1; opacity: 1;"></line><line transform="translate(346,0)" x2="0" y2="5" style="fill: none; stroke: #888; stroke-width: 1; opacity: 1;"></line><line transform="translate(381,0)" x2="0" y2="5" style="fill: none; stroke: #888; stroke-width: 1; opacity: 1;"></line><line transform="translate(415,0)" x2="0" y2="5" style="fill: none; stroke: #888; stroke-width: 1; opacity: 1;"></line><line transform="translate(450,0)" x2="0" y2="5" style="fill: none; stroke: #888; stroke-width: 1; opacity: 1;"></line><line transform="translate(485,0)" x2="0" y2="5" style="fill: none; stroke: #888; stroke-width: 1; opacity: 1;"></line><line transform="translate(519,0)" x2="0" y2="5" style="fill: none; stroke: #888; stroke-width: 1; opacity: 1;"></line><line transform="translate(554,0)" x2="0" y2="5" style="fill: none; stroke: #888; stroke-width: 1; opacity: 1;"></line><line transform="translate(588,0)" x2="0" y2="5" style="fill: none; stroke: #888; stroke-width: 1; opacity: 1;"></line><line transform="translate(623,0)" x2="0" y2="5" style="fill: none; stroke: #888; stroke-width: 1; opacity: 1;"></line><line transform="translate(658,0)" x2="0" y2="5" style="fill: none; stroke: #888; stroke-width: 1; opacity: 1;"></line><line transform="translate(692,0)" x2="0" y2="5" style="fill: none; stroke: #888; stroke-width: 1; opacity: 1;"></line><line transform="translate(727,0)" x2="0" y2="5" style="fill: none; stroke: #888; stroke-width: 1; opacity: 1;"></line><line transform="translate(762,0)" x2="0" y2="5" style="fill: none; stroke: #888; stroke-width: 1; opacity: 1;"></line><line transform="translate(796,0)" x2="0" y2="5" style="fill: none; stroke: #888; stroke-width: 1; opacity: 1;"></line><line transform="translate(831,0)" x2="0" y2="5" style="fill: none; stroke: #888; stroke-width: 1; opacity: 1;"></line><line transform="translate(865,0)" x2="0" y2="5" style="fill: none; stroke: #888; stroke-width: 1; opacity: 1;"></line><line transform="translate(900,0)" x2="0" y2="5" style="fill: none; stroke: #888; stroke-width: 1; opacity: 1;"></line></g><g class="mark-text role-axis-label" style="pointer-events: none;"><text text-anchor="start" transform="translate(0,15)" style="font-family: sans-serif; font-size: 10px; fill: #000; opacity: 1;">0</text><text text-anchor="middle" transform="translate(34.61538461538462,15)" style="font-family: sans-serif; font-size: 10px; fill: #000; opacity: 1;">10</text><text text-anchor="middle" transform="translate(69.23076923076924,15)" style="font-family: sans-serif; font-size: 10px; fill: #000; opacity: 1;">20</text><text text-anchor="middle" transform="translate(103.84615384615385,15)" style="font-family: sans-serif; font-size: 10px; fill: #000; opacity: 1;">30</text><text text-anchor="middle" transform="translate(138.46153846153848,15)" style="font-family: sans-serif; font-size: 10px; fill: #000; opacity: 1;">40</text><text text-anchor="middle" transform="translate(173.0769230769231,15)" style="font-family: sans-serif; font-size: 10px; fill: #000; opacity: 1;">50</text><text text-anchor="middle" transform="translate(207.6923076923077,15)" style="font-family: sans-serif; font-size: 10px; fill: #000; opacity: 1;">60</text><text text-anchor="middle" transform="translate(242.3076923076923,15)" style="font-family: sans-serif; font-size: 10px; fill: #000; opacity: 1;">70</text><text text-anchor="middle" transform="translate(276.92307692307696,15)" style="font-family: sans-serif; font-size: 10px; fill: #000; opacity: 1;">80</text><text text-anchor="middle" transform="translate(311.53846153846155,15)" style="font-family: sans-serif; font-size: 10px; fill: #000; opacity: 1;">90</text><text text-anchor="middle" transform="translate(346.1538461538462,15)" style="font-family: sans-serif; font-size: 10px; fill: #000; opacity: 1;">100</text><text text-anchor="middle" transform="translate(380.7692307692308,15)" style="font-family: sans-serif; font-size: 10px; fill: #000; opacity: 1;">110</text><text text-anchor="middle" transform="translate(415.3846153846154,15)" style="font-family: sans-serif; font-size: 10px; fill: #000; opacity: 1;">120</text><text text-anchor="middle" transform="translate(450,15)" style="font-family: sans-serif; font-size: 10px; fill: #000; opacity: 1;">130</text><text text-anchor="middle" transform="translate(484.6153846153846,15)" style="font-family: sans-serif; font-size: 10px; fill: #000; opacity: 1;">140</text><text text-anchor="middle" transform="translate(519.2307692307692,15)" style="font-family: sans-serif; font-size: 10px; fill: #000; opacity: 1;">150</text><text text-anchor="middle" transform="translate(553.8461538461539,15)" style="font-family: sans-serif; font-size: 10px; fill: #000; opacity: 1;">160</text><text text-anchor="middle" transform="translate(588.4615384615385,15)" style="font-family: sans-serif; font-size: 10px; fill: #000; opacity: 1;">170</text><text text-anchor="middle" transform="translate(623.0769230769231,15)" style="font-family: sans-serif; font-size: 10px; fill: #000; opacity: 1;">180</text><text text-anchor="middle" transform="translate(657.6923076923076,15)" style="font-family: sans-serif; font-size: 10px; fill: #000; opacity: 1;">190</text><text text-anchor="middle" transform="translate(692.3076923076924,15)" style="font-family: sans-serif; font-size: 10px; fill: #000; opacity: 1;">200</text><text text-anchor="middle" transform="translate(726.9230769230769,15)" style="font-family: sans-serif; font-size: 10px; fill: #000; opacity: 1;">210</text><text text-anchor="middle" transform="translate(761.5384615384615,15)" style="font-family: sans-serif; font-size: 10px; fill: #000; opacity: 1;">220</text><text text-anchor="middle" transform="translate(796.1538461538461,15)" style="font-family: sans-serif; font-size: 10px; fill: #000; opacity: 1;">230</text><text text-anchor="middle" transform="translate(830.7692307692308,15)" style="font-family: sans-serif; font-size: 10px; fill: #000; opacity: 1;">240</text><text text-anchor="middle" transform="translate(865.3846153846154,15)" style="font-family: sans-serif; font-size: 10px; fill: #000; opacity: 1;">250</text><text text-anchor="end" transform="translate(900,15)" style="font-family: sans-serif; font-size: 10px; fill: #000; opacity: 1;">260</text></g><g class="mark-rule role-axis-domain" style="pointer-events: none;"><line transform="translate(0,0)" x2="900" y2="0" style="fill: none; stroke: #888; stroke-width: 1; opacity: 1;"></line></g><g class="mark-text role-axis-title" style="pointer-events: none;"><text text-anchor="middle" transform="translate(450,30)" style="font-family: sans-serif; font-size: 11px; font-weight: bold; fill: #000; opacity: 1;">Size</text></g></g><path class="foreground" d="" style="pointer-events: none; display: none; fill: none;"></path></g></g><g class="mark-group role-axis"><g transform="translate(0.5,0.5)"><path class="background" d="M0,0h0v0h0Z" style="pointer-events: none; fill: none;"></path><g><g class="mark-rule role-axis-tick" style="pointer-events: none;"><line transform="translate(0,600)" x2="-5" y2="0" style="fill: none; stroke: #888; stroke-width: 1; opacity: 1;"></line><line transform="translate(0,540)" x2="-5" y2="0" style="fill: none; stroke: #888; stroke-width: 1; opacity: 1;"></line><line transform="translate(0,480)" x2="-5" y2="0" style="fill: none; stroke: #888; stroke-width: 1; opacity: 1;"></line><line transform="translate(0,420)" x2="-5" y2="0" style="fill: none; stroke: #888; stroke-width: 1; opacity: 1;"></line><line transform="translate(0,360)" x2="-5" y2="0" style="fill: none; stroke: #888; stroke-width: 1; opacity: 1;"></line><line transform="translate(0,300)" x2="-5" y2="0" style="fill: none; stroke: #888; stroke-width: 1; opacity: 1;"></line><line transform="translate(0,240)" x2="-5" y2="0" style="fill: none; stroke: #888; stroke-width: 1; opacity: 1;"></line><line transform="translate(0,180)" x2="-5" y2="0" style="fill: none; stroke: #888; stroke-width: 1; opacity: 1;"></line><line transform="translate(0,120)" x2="-5" y2="0" style="fill: none; stroke: #888; stroke-width: 1; opacity: 1;"></line><line transform="translate(0,60)" x2="-5" y2="0" style="fill: none; stroke: #888; stroke-width: 1; opacity: 1;"></line><line transform="translate(0,0)" x2="-5" y2="0" style="fill: none; stroke: #888; stroke-width: 1; opacity: 1;"></line></g><g class="mark-text role-axis-label" style="pointer-events: none;"><text text-anchor="end" transform="translate(-7,603)" style="font-family: sans-serif; font-size: 10px; fill: #000; opacity: 1;">0</text><text text-anchor="end" transform="translate(-7,543)" style="font-family: sans-serif; font-size: 10px; fill: #000; opacity: 1;">5</text><text text-anchor="end" transform="translate(-7,483)" style="font-family: sans-serif; font-size: 10px; fill: #000; opacity: 1;">10</text><text text-anchor="end" transform="translate(-7,423)" style="font-family: sans-serif; font-size: 10px; fill: #000; opacity: 1;">15</text><text text-anchor="end" transform="translate(-7,363)" style="font-family: sans-serif; font-size: 10px; fill: #000; opacity: 1;">20</text><text text-anchor="end" transform="translate(-7,303)" style="font-family: sans-serif; font-size: 10px; fill: #000; opacity: 1;">25</text><text text-anchor="end" transform="translate(-7,243)" style="font-family: sans-serif; font-size: 10px; fill: #000; opacity: 1;">30</text><text text-anchor="end" transform="translate(-7,183.00000000000003)" style="font-family: sans-serif; font-size: 10px; fill: #000; opacity: 1;">35</text><text text-anchor="end" transform="translate(-7,122.99999999999997)" style="font-family: sans-serif; font-size: 10px; fill: #000; opacity: 1;">40</text><text text-anchor="end" transform="translate(-7,62.999999999999986)" style="font-family: sans-serif; font-size: 10px; fill: #000; opacity: 1;">45</text><text text-anchor="end" transform="translate(-7,3)" style="font-family: sans-serif; font-size: 10px; fill: #000; opacity: 1;">50</text></g><g class="mark-rule role-axis-domain" style="pointer-events: none;"><line transform="translate(0,600)" x2="0" y2="-600" style="fill: none; stroke: #888; stroke-width: 1; opacity: 1;"></line></g><g class="mark-text role-axis-title" style="pointer-events: none;"><text text-anchor="middle" transform="translate(-23,300) rotate(-90) translate(0,-2)" style="font-family: sans-serif; font-size: 11px; font-weight: bold; fill: #000; opacity: 1;">GFLOPS</text></g></g><path class="foreground" d="" style="pointer-events: none; display: none; fill: none;"></path></g></g><g class="mark-group role-scope pathgroup"><g transform="translate(0,0)"><path class="background" d="M0,0h900v600h-900Z" style="fill: none;"></path><g><g class="mark-line role-mark marks"><path d="M6.923076923076923,573.6910801167694L10.384615384615385,565.0082922586257L13.846153846153847,559.724292977033L17.30769230769231,557.0928779675135L20.76923076923077,554.5526526661536L24.230769230769234,553.2901314571376L27.692307692307693,552.3486543731377L31.153846153846157,551.9786256679479L34.61538461538462,551.0691126485548L38.07692307692308,550.1577276559426L41.53846153846154,550.0091705822847L45,549.6661540557902L48.46153846153847,549.5066071265834L51.92307692307693,549.1680622332667L55.38461538461539,549.1440257084429L58.84615384615385,550.6065683646112L62.307692307692314,548.7985126655822L65.76923076923077,548.6550930767622L69.23076923076924,548.4555618722759L72.6923076923077,548.4033035099794L76.15384615384616,548.2542843666474L79.61538461538461,548.2775588454574L83.07692307692308,548.1269436405553L86.53846153846155,548.671497584541L90,548.3999501101733L93.46153846153847,548.1122698197325L96.92307692307693,549.399351419758L100.38461538461539,549.2432972153397L103.84615384615385,547.8427612655801L107.3076923076923,549.3409993862851L110.76923076923077,547.8579375267437L114.23076923076923,548.0058845163663L117.6923076923077,547.7406610105104L121.15384615384615,549.2397423248796L124.61538461538463,549.4904158441062L128.07692307692307,548.9207133058985L131.53846153846155,547.6092008536874L135,547.6107609185052L138.46153846153848,548.9505458412838L141.9230769230769,548.6517728797317L145.3846153846154,548.8568484633149L148.84615384615384,548.8876994478132L152.30769230769232,548.7750972762645L155.76923076923077,548.589562764457L159.23076923076923,547.6770909090909L162.69230769230768,548.5634060038809L166.15384615384616,547.6868739333679L169.6153846153846,547.7375160051216L173.0769230769231,548.4275457579129L176.53846153846155,547.5065294815987L180,547.5301055835632L183.46153846153845,548.3146026878326L186.92307692307693,547.5197176885753L190.3846153846154,548.6049804280836L193.84615384615387,547.4715493882914L197.3076923076923,548.48468832582L200.76923076923077,547.4696876913656L204.23076923076923,547.4449378330373L207.6923076923077,548.1721947776994L211.15384615384616,548.3440626063287L214.6153846153846,548.1776367961935L218.07692307692307,548.0810516191087L221.53846153846155,548.1197069415125L225,548.0532786885246L228.46153846153845,547.3376792698826L231.9230769230769,547.3158439765274L235.3846153846154,548.2103876139233L238.84615384615384,547.9811472336779L242.3076923076923,548.1481481481482L245.76923076923075,547.9678202792957L249.23076923076925,547.9302806499262L252.6923076923077,547.2913454545454L256.15384615384613,547.9496785015376L259.6153846153846,548.1426247288504L263.0769230769231,547.9018437458549L266.53846153846155,547.9262926766263L270,548.0196004523182L273.46153846153845,548.0298799902033L276.92307692307696,547.863589170194L280.3846153846154,548.0296652947115L283.8461538461538,548.002426080364L287.30769230769226,548.0344623576394L290.7692307692308,547.8620689655172L294.2307692307692,547.8025285972305L297.6923076923077,547.9891068289152L301.15384615384613,547.8968786907373L304.61538461538464,547.9171831728867L308.0769230769231,547.1985099500049L311.53846153846155,547.1958584987058L315,547.307423580786L318.46153846153845,547.205136829231L321.9230769230769,547.892974218127L325.38461538461536,547.7296215745976L328.8461538461538,547.9061739573312L332.3076923076923,547.7847025495751L335.7692307692308,547.8683288519514L339.2307692307692,547.6579305922899L342.6923076923077,547.7307330335668L346.1538461538462,547.7150985467873L349.61538461538464,547.8379746835443L353.0769230769231,547.8124369913202L356.53846153846155,547.8258479785926L360,547.7475548819476L363.46153846153845,547.6856159285448L366.9230769230769,547.7037645448323L370.38461538461536,547.7202909904869L373.84615384615387,547.627143265908L377.3076923076923,547.7206272513534L380.7692307692308,547.7841473991496L384.2307692307692,547.7424425132023L387.69230769230774,547.6531451365449L391.1538461538462,547.7457171514543L394.6153846153846,547.7732994503872L398.07692307692304,547.6948429623885L401.53846153846155,547.6589951377633L405,547.722565427384L408.46153846153845,547.6637800788592L411.9230769230769,547.6857717172815L415.3846153846154,547.5784289232307L418.84615384615387,547.6923992994746L422.3076923076923,547.6177693435694L425.7692307692308,547.6469670240195L429.2307692307692,547.6928310570814L432.6923076923077,547.5075342127366L436.15384615384613,547.63869173686L439.6153846153846,547.6755879967559L443.0769230769231,547.6844477836213L446.53846153846155,547.595492435937L450,547.6199881493186L453.46153846153845,547.4946907432959L456.9230769230769,547.5993100703197L460.38461538461536,547.5980424901617L463.8461538461538,547.6703381476879L467.3076923076923,547.6167664670659L470.7692307692308,547.5239697926373L474.2307692307692,547.6020417938225L477.6923076923077,547.5293958752583L481.15384615384613,547.5991916828419L484.6153846153846,547.5805288619111L488.07692307692304,547.5665934065934L491.5384615384615,547.4962857069921L495.00000000000006,547.5693026997134L498.4615384615385,547.5194283162126L501.92307692307696,547.5499847141547L505.3846153846154,547.527313535495L508.8461538461538,547.5883863603938L512.3076923076923,547.5014274804677L515.7692307692307,547.5627648489059L519.2307692307692,547.4876441515651L522.6923076923077,547.5016760533176L526.1538461538462,547.492079053497L529.6153846153846,547.3902898502826L533.0769230769231,547.5667978021263L536.5384615384615,547.5273813474942L540,547.477370347644L543.4615384615385,547.5306933792456L546.9230769230769,547.4257634257634L550.3846153846155,547.5156313604168L553.8461538461539,547.5262248301917L557.3076923076924,547.4610867686071L560.7692307692308,547.4677080675864L564.2307692307692,547.5053171912833L567.6923076923076,547.4637201018786L571.1538461538461,547.506663390106L574.6153846153845,547.3782470723694L578.0769230769231,547.4744636064847L581.5384615384615,547.4653187101954L585,547.3696400343255L588.4615384615385,547.4184600840149L591.9230769230769,547.4578397089782L595.3846153846154,547.4629942371643L598.8461538461538,547.4789804643481L602.3076923076923,547.4464449814506L605.7692307692308,547.3553377769164L609.2307692307693,547.4131069779054L612.6923076923077,547.4470985832106L616.1538461538462,547.4090250768905L619.6153846153846,547.4467421367466L623.0769230769231,547.4143143557267L626.5384615384615,547.4236400110136L630,547.3242647001505L633.4615384615385,547.4229555634225L636.9230769230769,547.3993435031949L640.3846153846154,547.4155526266239L643.8461538461538,547.360532243388L647.3076923076923,547.4107733930954L650.7692307692307,547.4028435327502L654.2307692307692,547.3833956705705L657.6923076923076,547.4166738068717L661.1538461538462,547.3980491942324L664.6153846153846,547.3150063051702L668.0769230769231,547.4066250467187L671.5384615384615,547.4116317458578L675,547.8896136612499L678.4615384615385,547.3756958387332L681.9230769230769,547.3159961137656L685.3846153846154,547.3996777269887L688.8461538461538,547.3734007348152L692.3076923076924,547.3921732963703L695.7692307692308,547.3703448275862L699.2307692307693,547.3799647261854L702.6923076923077,547.3053812642994L706.1538461538462,547.4412079714227L709.6153846153846,547.3749148297516L713.0769230769231,547.3553189289776L716.5384615384615,547.3488534582974L720,547.3648854961832L723.4615384615385,547.3850296113036L726.9230769230769,547.3488306763115L730.3846153846154,547.4638962962106L733.8461538461538,547.3052174212904L737.3076923076923,547.3497849682572L740.7692307692307,547.2744696341194L744.2307692307692,547.3501725235335L747.6923076923077,547.3458102134863L751.1538461538462,547.3332273362757L754.6153846153846,547.4075295649343L758.0769230769231,547.3871469055672L761.5384615384615,547.283725847184L765,547.3601580743668L768.4615384615385,547.3444992615404L771.9230769230769,547.2365864314395L775.3846153846155,547.362148319183L778.8461538461539,547.3476254811492L782.3076923076924,547.3422010188405L785.7692307692308,547.4714118669986L789.2307692307692,547.3336611093729L792.6923076923076,547.3447654673427L796.1538461538461,547.3354415553994L799.6153846153845,547.259732268739L803.0769230769231,547.3442352512396L806.5384615384615,547.4405660780303L810,547.3311329473228L813.4615384615385,547.3961665071324L816.9230769230769,547.4612201110705L820.3846153846154,547.2751718616272L823.8461538461538,547.3203982639775L827.3076923076923,547.4247015403496L830.7692307692308,547.3300611846971L834.2307692307693,547.3957707146631L837.6923076923077,547.4803893123731L841.1538461538462,547.5599843280659L844.6153846153846,547.6674250258532L848.0769230769231,547.4380271714635L851.5384615384615,547.5778290169301L855,547.3426159801993L858.4615384615385,547.3183659930384L861.9230769230769,547.4698729130326L865.3846153846154,547.6837224570186L868.8461538461538,547.583529776422L872.3076923076923,547.7094939595636L875.7692307692307,547.3338442178627L879.2307692307692,547.4828757147588L882.6923076923076,547.5901115356199L886.1538461538462,547.6102355107959" style="fill: none; stroke: #ff7f0e; stroke-width: 2;"></path></g></g><path class="foreground" d="" style="display: none; fill: none;"></path></g><g transform="translate(0,0)"><path class="background" d="M0,0h900v600h-900Z" style="fill: none;"></path><g><g class="mark-line role-mark marks"><path d="M6.923076923076923,552.0056577086281L10.384615384615385,532.5797165633304L13.846153846153847,521.44117861571L17.30769230769231,508.3619995608578L20.76923076923077,500.2803315749811L24.230769230769234,504.53403693931403L27.692307692307693,354.7455946296438L31.153846153846157,357.57595031652215L34.61538461538462,372.7766850172836L38.07692307692308,365.62798753030825L41.53846153846154,386.70678517818897L45,395.04083389117335L48.46153846153847,390.25194569247003L51.92307692307693,410.21245750339455L55.38461538461539,155.71753716128555L58.84615384615385,233.17431192660547L62.307692307692314,260.7604947270118L65.76923076923077,276.71329885767216L69.23076923076924,290.03293664000375L72.6923076923077,314.9854640327991L76.15384615384616,341.2017353579176L79.61538461538461,353.31492299522034L83.07692307692308,78.04935952819201L86.53846153846155,208.732519482617L90,200.28903838116943L93.46153846153847,234.34388138968797L96.92307692307693,272.8325020825206L100.38461538461539,256.99929922915203L103.84615384615385,280.6529301578807L107.3076923076923,309.2828380767695L110.76923076923077,153.61669374093734L114.23076923076923,182.06438127090294L117.6923076923077,169.14287947475378L121.15384615384615,217.72754312908975L124.61538461538463,218.9467697641354L128.07692307692307,247.88688760806917L131.53846153846155,262.52668439141434L135,275.4646657571624L138.46153846153848,93.71086919736035L141.9230769230769,72.68519985461728L145.3846153846154,103.72649134060288L148.84615384615384,156.02492556948002L152.30769230769232,180.27678501141463L155.76923076923077,212.47654784240146L159.23076923076923,231.024873920848L162.69230769230768,268.9907448215073L166.15384615384616,169.06940496928573L169.6153846153846,152.8537520540442L173.0769230769231,165.2915103989089L176.53846153846155,188.4876686831084L180,217.43810250364106L183.46153846153845,229.462657613967L186.92307692307693,208.41024290698442L190.3846153846154,264.85635149079457L193.84615384615387,166.09875203472603L197.3076923076923,145.71898560657988L200.76923076923077,187.95797057940558L204.23076923076923,177.1813039595117L207.6923076923077,212.9848229342327L211.15384615384616,197.45240494246167L214.6153846153846,188.66135123793535L218.07692307692307,230.6597060314243L221.53846153846155,149.62324152428184L225,174.3703703703704L228.46153846153845,143.10041647385475L231.9230769230769,164.29456544724042L235.3846153846154,209.61677472754866L238.84615384615384,188.80440304826425L242.3076923076923,213.55670103092774L245.76923076923075,240.72528240363346L249.23076923076925,108.14820939486344L252.6923076923077,131.8863212286494L256.15384615384613,146.8137931034483L259.6153846153846,180.02927900451385L263.0769230769231,158.57742257742262L266.53846153846155,205.16880891173957L270,163.50967136884057L273.46153846153845,205.69424335101237L276.92307692307696,104.59968801382851L280.3846153846154,155.51880448318803L283.8461538461538,153.61152015620553L287.30769230769226,191.43658696126172L290.7692307692308,172.8078349903546L294.2307692307692,177.83029001074115L297.6923076923077,174.8856408269644L301.15384615384613,195.39443170651822L304.61538461538464,126.76522129858458L308.0769230769231,120.09978839514419L311.53846153846155,140.23372287145233L315,176.5839964910082L318.46153846153845,152.3463719739443L321.9230769230769,161.32935535428874L325.38461538461536,146.62960983431327L328.8461538461538,204.5868744822507L332.3076923076923,121.55134240997585L335.7692307692308,125.04323235179757L339.2307692307692,119.96807840392019L342.6923076923077,172.1761936785474L346.1538461538462,148.28709708031502L349.61538461538464,193.9504390243902L353.0769230769231,168.20088935391064L356.53846153846155,210.37518002880458L360,102.69663210766953L363.46153846153845,138.84885764499117L366.9230769230769,118.50049515349754L370.38461538461536,142.18961123815754L373.84615384615387,135.35325131810197L377.3076923076923,164.71777066060042L380.7692307692308,147.51153340869516L384.2307692307692,192.78659840580644L387.69230769230774,92.53516657852987L391.1538461538462,146.5706576924193L394.6153846153846,114.98295575814863L398.07692307692304,150.23755938984746L401.53846153846155,148.6790963795995L405,147.61768994006158L408.46153846153845,130.91521617069054L411.9230769230769,193.29241165704622L415.3846153846154,108.76254180602007L418.84615384615387,116.2821883198912L422.3076923076923,133.86103349811174L425.7692307692308,132.92835739580497L429.2307692307692,143.39350180505411L432.6923076923077,164.01313089864587L436.15384615384613,141.58471337579618L439.6153846153846,181.21156966939262L443.0769230769231,138.6699792960662L446.53846153846155,130.0714285714286L450,126.72112018669783L453.46153846153845,153.23583460949465L456.9230769230769,129.95292250727312L460.38461538461536,152.86159183842057L463.8461538461538,128.49248592115856L467.3076923076923,175.5821917808219L470.7692307692308,104.1645257728572L474.2307692307692,125.62038490129679L477.6923076923077,114.54487519915035L481.15384615384613,129.6184262868964L484.6153846153846,147.40218088518287L488.07692307692304,148.91291291291293L491.5384615384615,133.97401812688818L495.00000000000006,173.97916666666663L498.4615384615385,104.74430221667197L501.92307692307696,120.66383549396514L505.3846153846154,124.02977232924695L508.8461538461538,146.1042009884678L512.3076923076923,132.5435715032953L515.7692307692307,159.60676779463245L519.2307692307692,127.53474009264013L522.6923076923077,167.9141662796098L526.1538461538462,111.07717842323646L529.6153846153846,110.41254869797011L533.0769230769231,131.01357115160926L536.5384615384615,138.89359300028227L540,132.7048192771084L543.4615384615385,155.75616220514178L546.9230769230769,107.9083969465649L550.3846153846155,167.1570289550986L553.8461538461539,103.00723258469739L557.3076923076924,118.6706717640633L560.7692307692308,129.6691557585874L564.2307692307692,140.0868901145524L567.6923076923076,129.1526645499013L571.1538461538461,153.90361445783134L574.6153846153845,118.3838245373543L578.0769230769231,162.25621297222435L581.5384615384615,107.55251453985628L585,117.83813306852034L588.4615384615385,118.49068931721658L591.9230769230769,139.04922339850097L595.3846153846154,129.20383805289026L598.8461538461538,150.2050979814351L602.3076923076923,121.73579061483662L605.7692307692308,165.14930048026727L609.2307692307693,99.95220384584947L612.6923076923077,123.76184798807745L616.1538461538462,118.29363541511404L619.6153846153846,131.71199312222376L623.0769230769231,130.1677566107477L626.5384615384615,144.64509095864278L630,112.88235294117645L633.4615384615385,154.3247439493769L636.9230769230769,100.1719496309162L640.3846153846154,116.7566445182724L643.8461538461538,118.64793343336517L647.3076923076923,126.12754085292946L650.7692307692307,128.62343096234312L654.2307692307692,149.6239802224969L657.6923076923076,105.18040717597255L661.1538461538462,159.32472761724313L664.6153846153846,106.35053170539585L668.0769230769231,121.15470414014753L671.5384615384615,126.76627218934907L675,178.67036011080336L678.4615384615385,122.69541384980813L681.9230769230769,138.0420119033726L685.3846153846154,110.87908996391656L688.8461538461538,159.82106467607468L692.3076923076924,122.49985370706294L695.7692307692308,112.95331521096803L699.2307692307693,137.24616410940632L702.6923076923077,134.6708734639654L706.1538461538462,130.95779005524864L709.6153846153846,140.29170464904286L713.0769230769231,107.28833238474668L716.5384615384615,148.7949207660145L720,105.88646288209608L723.4615384615385,116.73496393513754L726.9230769230769,116.71232876712327L730.3846153846154,147.1086067617433L733.8461538461538,128.049827559582L737.3076923076923,138.2981143370248L740.7692307692307,105.7724170766545L744.2307692307692,146.02830733679957L747.6923076923077,99.14097774035682L751.1538461538462,114.27638165545835L754.6153846153846,126.43141852286044L758.0769230769231,133.56006864988566L761.5384615384615,125.74090974590516L765,155.13845604322L768.4615384615385,108.1244618395304L771.9230769230769,156.22414698162734L775.3846153846155,107.58146918747296L778.8461538461539,120.00836586726157L782.3076923076924,130.67411377865858L785.7692307692308,135.28222811671083L789.2307692307692,131.94438804784394L792.6923076923076,138.22402555358917L796.1538461538461,112.04557786218119L799.6153846153845,145.33272074179266L803.0769230769231,110.47275969683461L806.5384615384615,118.31263048016697L810,124.06374094588833L813.4615384615385,138.4341199606687L816.9230769230769,133.0051787916153L820.3846153846154,140.09729078868153L823.8461538461538,107.08629441624362L827.3076923076923,145.66890205864004L830.7692307692308,105.12129380053905L834.2307692307693,123.19822937625753L837.6923076923077,131.45125107851595L841.1538461538462,142.4470695483724L844.6153846153846,135.14203697324612L848.0769230769231,163.65677226240956L851.5384615384615,120.12500971779522L855,162.5672711935892L858.4615384615385,116.33260090204698L861.9230769230769,144.1267255361326L865.3846153846154,144.43134312359302L868.8461538461538,171.63603639636037L872.3076923076923,153.8053316800992L875.7692307692307,168.70669837495052L879.2307692307692,132.64216469585594L882.6923076923076,190.10258945677032L886.1538461538462,149.3226361031519" style="fill: none; stroke: #1f77b4; stroke-width: 2;"></path></g></g><path class="foreground" d="" style="display: none; fill: none;"></path></g><g transform="translate(0,0)"><path class="background" d="M0,0h900v600h-900Z" style="fill: none;"></path><g><g class="mark-line role-mark marks"><path d="M6.923076923076923,569.2873354516569L10.384615384615385,552.0218337156871L13.846153846153847,536.2522729523621L17.30769230769231,523.5234590616376L20.76923076923077,513.8993521941221L24.230769230769234,502.0563636553765L27.692307692307693,386.36746143057496L31.153846153846157,398.4521831359378L34.61538461538462,405.7578599681931L38.07692307692308,408.4265592151367L41.53846153846154,417.0867994059295L45,421.07342548920406L48.46153846153847,423.284220263638L51.92307692307693,417.29790276930464L55.38461538461539,287.2570210573162L58.84615384615385,334.6449845105036L62.307692307692314,356.3266616718399L65.76923076923077,356.4017641499527L69.23076923076924,368.61900621948774L72.6923076923077,374.67878878954093L76.15384615384616,370.92489044081464L79.61538461538461,378.1402410095834L83.07692307692308,180.76839298456454L86.53846153846155,272.98144926800154L90,268.7000989931671L93.46153846153847,290.0988490761619L96.92307692307693,328.13357005250634L100.38461538461539,305.80062495236643L103.84615384615385,326.3553094548576L107.3076923076923,326.08971729242836L110.76923076923077,211.86634028371722L114.23076923076923,249.5702037635007L117.6923076923077,237.0891603347119L121.15384615384615,279.0992505428311L124.61538461538463,276.4248623131393L128.07692307692307,290.30951337132836L131.53846153846155,276.7761607761608L135,297.2543662796371L138.46153846153848,131.74844829605334L141.9230769230769,160.71321385435607L145.3846153846154,181.45289460848684L148.84615384615384,216.00503024133172L152.30769230769232,237.4332139906362L155.76923076923077,259.99999999999994L159.23076923076923,271.2634224354581L162.69230769230768,293.61163992385093L166.15384615384616,181.240199572345L169.6153846153846,194.9019932180961L173.0769230769231,208.0541039040885L176.53846153846155,229.64751867104073L180,257.84890212132495L183.46153846153845,263.9873343497127L186.92307692307693,243.81534039877852L190.3846153846154,270.12348318811144L193.84615384615387,159.40495867768595L197.3076923076923,177.54095225954492L200.76923076923077,217.27957169148394L204.23076923076923,211.08275371049896L207.6923076923077,248.16352603002235L211.15384615384616,231.13460396306897L214.6153846153846,218.2820055167938L218.07692307692307,240.30386494891164L221.53846153846155,153.784043575777L225,188.70095440084836L228.46153846153845,170.87428234157858L231.9230769230769,189.1423728813559L235.3846153846154,228.11932191510795L238.84615384615384,215.8560316413975L242.3076923076923,226.67441281434142L245.76923076923075,248.32905235960175L249.23076923076925,98.13741102030056L252.6923076923077,142.43819856895655L256.15384615384613,172.82732834806254L259.6153846153846,200.0658327847267L263.0769230769231,188.69270449521L266.53846153846155,225.88431797092485L270,185.22802718057255L273.46153846153845,213.38728411463273L276.92307692307696,97.41659538066727L280.3846153846154,164.14898033947983L283.8461538461538,164.6618796366089L287.30769230769226,200.55254743125138L290.7692307692308,195.9795102098098L294.2307692307692,202.4008632317238L297.6923076923077,185.47043066144653L301.15384615384613,200.7947516401125L304.61538461538464,111.15120102115807L308.0769230769231,129.22276849120504L311.53846153846155,160.6633653494632L315,187.43788158950565L318.46153846153845,175.2085193125505L321.9230769230769,176.99938351941904L325.38461538461536,160.93646043566017L328.8461538461538,202.32967168600337L332.3076923076923,111.71924812518262L335.7692307692308,126.53280710409469L339.2307692307692,129.39015853407454L342.6923076923077,175.47233681145346L346.1538461538462,169.1007845503923L349.61538461538464,192.99745746137296L353.0769230769231,165.66356779512367L356.53846153846155,204.00658697243222L360,82.06807283457964L363.46153846153845,130.48729571752366L366.9230769230769,125.25348403704459L370.38461538461536,152.25330692057L373.84615384615387,149.4165693545841L377.3076923076923,175.10828025477707L380.7692307692308,154.84220018034264L384.2307692307692,189.39392949325318L387.69230769230774,69.1550497866287L391.1538461538462,139.78810989075714L394.6153846153846,116.04539231494724L398.07692307692304,154.12507437033128L401.53846153846155,150.7178631051753L405,154.6162679425838L408.46153846153845,143.2992475400348L411.9230769230769,184.6736442578641L415.3846153846154,76.67458432304039L418.84615384615387,114.96248660235808L422.3076923076923,139.502547925261L425.7692307692308,140.33004676655443L429.2307692307692,144.48097589311652L432.6923076923077,167.1656991547L436.15384615384613,143.90874524714832L439.6153846153846,165.70651707639L443.0769230769231,110.91105973250612L446.53846153846155,121.830551447285L450,122.46000415541245L453.46153846153845,149.9332776242207L456.9230769230769,135.20810722458316L460.38461538461536,151.17462686567166L463.8461538461538,132.73285071913764L467.3076923076923,170.23465495318462L470.7692307692308,69.59283078545064L474.2307692307692,117.88006421758432L477.6923076923077,112.69272902119826L481.15384615384613,130.30975173783514L484.6153846153846,144.22068546242113L488.07692307692304,144.52244225657924L491.5384615384615,132.50869416979197L495.00000000000006,162.58823529411765L498.4615384615385,83.22547542452254L501.92307692307696,106.09166282818985L505.3846153846154,120.67195767195764L508.8461538461538,139.417406749556L512.3076923076923,127.35180875819758L515.7692307692307,152.5141784408655L519.2307692307692,128.65064695009238L522.6923076923077,159.98448585753474L526.1538461538462,76.13471157052354L529.6153846153846,100.4251490741709L533.0769230769231,120.03333333333339L536.5384615384615,131.44359464627144L540,131.02739467220857L543.4615384615385,148.77997128499635L546.9230769230769,107.24179970972423L550.3846153846155,152.7039028620989L553.8461538461539,74.29031608616872L557.3076923076924,108.6522951124326L560.7692307692308,117.80815995676843L564.2307692307692,128.5250521920668L567.6923076923076,127.04215153866043L571.1538461538461,144.0522124620311L574.6153846153845,114.76702632714719L578.0769230769231,149.2151176610411L581.5384615384615,71.62558502340093L585,99.44639175257733L588.4615384615385,110.86036671368127L591.9230769230769,124.6881274900399L595.3846153846154,121.81792251010212L598.8461538461538,137.3207032434071L602.3076923076923,113.48530917684126L605.7692307692308,146.75710969239697L609.2307692307693,71.29317269076306L612.6923076923077,103.98789289871935L616.1538461538462,105.99694283093861L619.6153846153846,120.37246844731435L623.0769230769231,118.25072886297374L626.5384615384615,134.13885403596828L630,107.19836639439906L633.4615384615385,140.1348949919224L636.9230769230769,66.17529757304068L640.3846153846154,98.71481906950024L643.8461538461538,107.80500732268641L647.3076923076923,115.14470196424934L650.7692307692307,117.0679169457468L654.2307692307692,131.31695394906097L657.6923076923076,103.27802509105624L661.1538461538462,138.8161368284068L664.6153846153846,75.7211377579475L668.0769230769231,97.99854660765013L671.5384615384615,115.59974763406937L675,155.41609353507567L678.4615384615385,110.7769523690617L681.9230769230769,126.03951149425285L685.3846153846154,104.39263803680983L688.8461538461538,136.1922149500517L692.3076923076924,75.57840616966575L695.7692307692308,92.43724596625196L699.2307692307693,123.08834651082839L702.6923076923077,117.77456547926346L706.1538461538462,118.86290733918963L709.6153846153846,125.48292466928659L713.0769230769231,99.42500289117618L716.5384615384615,128.90347615198058L720,74.99518172625068L723.4615384615385,96.89905149051489L726.9230769230769,96.5922444183314L730.3846153846154,125.10933333333341L733.8461538461538,113.99014047177305L737.3076923076923,121.74059528730876L740.7692307692307,95.30635838150287L744.2307692307692,126.68272850474318L747.6923076923077,63.66369886171523L751.1538461538462,91.57637345188942L754.6153846153846,110.28458857402639L758.0769230769231,123.77493307374058L761.5384615384615,110.69924178601521L765,141.5045787124384L768.4615384615385,103.01848739495803L771.9230769230769,128.67887009849466L775.3846153846155,82.61706429437929L778.8461538461539,96.90666406858935L782.3076923076924,113.03902416226572L785.7692307692308,111.59615295265527L789.2307692307692,136.32390363342222L792.6923076923076,123.92132081349291L796.1538461538461,97.761437148043L799.6153846153845,124.35357860700861L803.0769230769231,75.66515448163898L806.5384615384615,100.45304465493902L810,109.36776913954411L813.4615384615385,118.11882458616705L816.9230769230769,125.81344685113305L820.3846153846154,125.56823451473997L823.8461538461538,93.40745287154755L827.3076923076923,126.42916361862963L830.7692307692308,69.57974089288138L834.2307692307693,106.22920486747793L837.6923076923077,112.62366907355283L841.1538461538462,122.34442285578334L844.6153846153846,122.6074446759169L848.0769230769231,155.62853824938304L851.5384615384615,117.49925740639404L855,153.38443320055976L858.4615384615385,97.12160320641286L861.9230769230769,150.8928736285197L865.3846153846154,143.77929652556617L868.8461538461538,186.49322737363664L872.3076923076923,144.35790658413063L875.7692307692307,159.4968120635564L879.2307692307692,135.29891956782708L882.6923076923076,168.390056614824L886.1538461538462,127.88530263436684" style="fill: none; stroke: #aec7e8; stroke-width: 2;"></path></g></g><path class="foreground" d="" style="display: none; fill: none;"></path></g><g transform="translate(0,0)"><path class="background" d="M0,0h900v600h-900Z" style="fill: none;"></path><g><g class="mark-line role-mark marks"><path d="M6.923076923076923,546.1289938479857L10.384615384615385,514.298796760148L13.846153846153847,486.71015453308684L17.30769230769231,454.9243726366449L20.76923076923077,423.0081712062257L24.230769230769234,391.0324885328373L27.692307692307693,356.32098531501657L31.153846153846157,408.77806782230033L34.61538461538462,383.9523256852067L38.07692307692308,345.99584913451196L41.53846153846154,342.94636412976206L45,304.0020995407255L48.46153846153847,268.33345275167414L51.92307692307693,255.09032599239177L55.38461538461539,198.7437431708206L58.84615384615385,300.86516471379576L62.307692307692314,282.87389210691606L65.76923076923077,265.68347062053823L69.23076923076924,237.7009940581791L72.6923076923077,218.58564256631217L76.15384615384616,215.24699366911938L79.61538461538461,176.8508453842457L83.07692307692308,149.6713106993101L86.53846153846155,256.50951415680373L90,209.71962015129566L93.46153846153847,196.98088604943445L96.92307692307693,226.9309827456864L100.38461538461539,167.21430722891563L103.84615384615385,174.43071296285513L107.3076923076923,146.73750740667595L110.76923076923077,165.75107936677142L114.23076923076923,235.3172970200065L117.6923076923077,191.1186402137456L121.15384615384615,192.2219200435138L124.61538461538463,157.69514464557602L128.07692307692307,157.49443090193148L131.53846153846155,129.47966036784146L135,109.17601132274449L138.46153846153848,117.91431620673882L141.9230769230769,142.06386163671021L145.3846153846154,129.3753198457917L148.84615384615384,128.1916897940038L152.30769230769232,115.69617961781577L155.76923076923077,139.4758064516128L159.23076923076923,124.75613783992063L162.69230769230768,151.56134938799877L166.15384615384616,176.14212282442062L169.6153846153846,182.14980378774948L173.0769230769231,177.42977877206067L176.53846153846155,171.33301017935042L180,185.40698985343855L183.46153846153845,179.26872246696036L186.92307692307693,117.97747346244229L190.3846153846154,175.67214467441383L193.84615384615387,174.2136439267887L197.3076923076923,171.25557927420923L200.76923076923077,198.37537309065374L204.23076923076923,159.2576961271103L207.6923076923077,182.15748748293126L211.15384615384616,148.45993694604724L214.6153846153846,103.34030020900633L218.07692307692307,136.00229226361034L221.53846153846155,158.6160266229993L225,195.07751735657993L228.46153846153845,162.2062623166192L231.9230769230769,152.6107914450114L235.3846153846154,181.56321159248853L238.84615384615384,142.1060240963856L242.3076923076923,141.11706197398618L245.76923076923075,168.82012578616354L249.23076923076925,116.81267133719157L252.6923076923077,152.81118881118877L256.15384615384613,157.58257425742573L259.6153846153846,164.24050632911394L263.0769230769231,127.88104354020122L266.53846153846155,167.42920723226703L270,88.77693363844395L273.46153846153845,123.9915254237288L276.92307692307696,112.57311154436476L280.3846153846154,175.09714285714287L283.8461538461538,158.9579196977614L287.30769230769226,176.58840808948148L290.7692307692308,141.47519311937566L294.2307692307692,138.23379674955945L297.6923076923077,105.21533101045289L301.15384615384613,121.5690770362912L304.61538461538464,133.52496954933014L308.0769230769231,138.71424493291462L311.53846153846155,151.37446548564444L315,161.82628149012749L318.46153846153845,127.80063583222238L321.9230769230769,122.79766050238344L325.38461538461536,81.63657931629464L328.8461538461538,136.49494917707773L332.3076923076923,128.4218975355867L335.7692307692308,141.07142125217754L339.2307692307692,128.75950932893522L342.6923076923077,161.7264357737834L346.1538461538462,125.43950018277883L349.61538461538464,155.58520959179933L353.0769230769231,104.29041406693138L356.53846153846155,147.19036375048572L360,107.1085014041358L363.46153846153845,145.91156874621439L366.9230769230769,130.68304668304665L370.38461538461536,133.84418867673472L373.84615384615387,110.42878137675625L377.3076923076923,133.85440907779596L380.7692307692308,86.59040261476751L384.2307692307692,135.74362763206497L387.69230769230774,98.14159639144928L391.1538461538462,156.64200612731187L394.6153846153846,121.89281957260083L398.07692307692304,142.22448460167988L401.53846153846155,123.75028193042823L405,114.83028811350806L408.46153846153845,79.52432432432433L411.9230769230769,138.24302292126208L415.3846153846154,110.40000000000003L418.84615384615387,130.8698520403356L422.3076923076923,140.9784120457158L425.7692307692308,124.61168787159968L429.2307692307692,119.64716692189896L432.6923076923077,136.63323157435664L436.15384615384613,93.38255537479674L439.6153846153846,121.60341969815937L443.0769230769231,129.43071345605577L446.53846153846155,142.63873358033007L450,130.42767638245712L453.46153846153845,143.5071065327944L456.9230769230769,109.64014485256072L460.38461538461536,123.65441225001652L463.8461538461538,78.12736857102153L467.3076923076923,127.22533062054929L470.7692307692308,104.71775013946771L474.2307692307692,141.19555839590998L477.6923076923077,120.629786533953L481.15384615384613,122.78424408749697L484.6153846153846,127.56203229617962L488.07692307692304,122.94953930601842L491.5384615384615,89.96205827650331L495.00000000000006,124.74887023886367L498.4615384615385,109.94624652455983L501.92307692307696,129.7039473684211L505.3846153846154,130.65688073394494L508.8461538461538,138.21118793211818L512.3076923076923,111.86191828708772L515.7692307692307,132.9479220377437L519.2307692307692,84.03776978417258L522.6923076923077,123.42172131147542L526.1538461538462,111.43194775577898L529.6153846153846,123.12402636309163L533.0769230769231,133.72552043176563L536.5384615384615,133.27302161698887L540,116.22061976222959L543.4615384615385,130.97696110437457L546.9230769230769,65.67453572552733L550.3846153846155,122.77930970667157L553.8461538461539,103.90424622399543L557.3076923076924,130.3833037300178L560.7692307692308,135.7863522067112L564.2307692307692,132.14708675010792L567.6923076923076,114.18593943686915L571.1538461538461,129.92805755395688L574.6153846153845,77.5142671251975L578.0769230769231,119.52064859386877L581.5384615384615,108.39344262295083L585,128.07030617203955L588.4615384615385,125.88661037394462L591.9230769230769,131.6297110552764L595.3846153846154,112.62731163692156L598.8461538461538,127.80232018561489L602.3076923076923,84.53480220330496L605.7692307692308,123.74599786552827L609.2307692307693,101.37268208001264L612.6923076923077,132.43719364986467L616.1538461538462,122.13987875203314L619.6153846153846,127.41204540524906L623.0769230769231,113.78549360011768L626.5384615384615,122.48899685624464L630,76.38155753583882L633.4615384615385,116.50700636942679L636.9230769230769,100.5695278038903L640.3846153846154,124.52329065649683L643.8461538461538,122.71698113207543L647.3076923076923,121.83953348079638L650.7692307692307,112.7271744272488L654.2307692307692,127.36515760799065L657.6923076923076,70.60599525555308L661.1538461538462,120.20346850622145L664.6153846153846,108.31932003922844L668.0769230769231,128.08371630853313L671.5384615384615,133.23946744482947L675,152.28558236176846L678.4615384615385,107.20845123561598L681.9230769230769,117.9593278129567L685.3846153846154,77.82606424653954L688.8461538461538,117.8967595631676L692.3076923076924,112.34088328452754L695.7692307692308,122.1034442769338L699.2307692307693,139.85538971807628L702.6923076923077,127.87622149837125L706.1538461538462,114.57121619303565L709.6153846153846,121.18961184026801L713.0769230769231,74.76374226428828L716.5384615384615,112.72668487652604L720,107.32075471698121L723.4615384615385,125.863360647015L726.9230769230769,119.24330679206969L730.3846153846154,139.64803081757822L733.8461538461538,115.14669487043894L737.3076923076923,119.53091418782114L740.7692307692307,72.80717792449636L744.2307692307692,111.88467311972666L747.6923076923077,99.772743995375L751.1538461538462,122.55685884691852L754.6153846153846,141.02655872745348L758.0769230769231,137.79081632653066L761.5384615384615,112.51110891675708L765,141.14562033710968L768.4615384615385,87.4886068206147L771.9230769230769,135.37070623797752L775.3846153846155,128.12539184952973L778.8461538461539,127.34553775743704L782.3076923076924,137.07552870090632L785.7692307692308,131.45014486293735L789.2307692307692,145.21245389827604L792.6923076923076,121.23678675318868L796.1538461538461,97.92500232623065L799.6153846153845,114.83513838748492L803.0769230769231,121.0844855410651L806.5384615384615,128.30376080753013L810,135.193741677763L813.4615384615385,138.86865048503952L816.9230769230769,141.9847623654614L820.3846153846154,128.67113652256182L823.8461538461538,101.83755819968955L827.3076923076923,122.88072718339276L830.7692307692308,107.89848396013073L834.2307692307693,137.203187250996L837.6923076923077,148.26422656634023L841.1538461538462,146.06790518898146L844.6153846153846,137.3731002171181L848.0769230769231,168.80414113669988L851.5384615384615,96.60479530256072L855,141.3195253187882L858.4615384615385,122.98916473406076L861.9230769230769,162.64854771784235L865.3846153846154,162.20169625381993L868.8461538461538,190.28964901654493L872.3076923076923,148.87989692516632L875.7692307692307,165.05775764439414L879.2307692307692,132.27676889725998L882.6923076923076,154.18921189716016L886.1538461538462,163.57824639289677" style="fill: none; stroke: #2ca02c; stroke-width: 2;"></path></g></g><path class="foreground" d="" style="display: none; fill: none;"></path></g><g transform="translate(0,0)"><path class="background" d="M0,0h900v600h-900Z" style="fill: none;"></path><g><g class="mark-line role-mark marks"><path d="M6.923076923076923,582.537136915979L10.384615384615385,572.3058130388513L13.846153846153847,559.5529185621837L17.30769230769231,547.4209632468211L20.76923076923077,536.2598846553843L24.230769230769234,524.6725172891923L27.692307692307693,514.1259829857034L31.153846153846157,543.040186548722L34.61538461538462,537.5275345188846L38.07692307692308,529.6498073217726L41.53846153846154,524.298318577297L45,516.1351528862293L48.46153846153847,509.6911845227231L51.92307692307693,505.6033664494084L55.38461538461539,493.15987704187086L58.84615384615385,525.277566539924L62.307692307692314,520.5328836424958L65.76923076923077,516.6251986675666L69.23076923076924,513.2178669097539L72.6923076923077,509.765295887663L76.15384615384616,502.90490707050844L79.61538461538461,499.7529029261496L83.07692307692308,495.3939286032226L86.53846153846155,515.8137999339716L90,512.9613733905579L93.46153846153847,509.666524934702L96.92307692307693,505.07122507122506L100.38461538461539,504.0469798657718L103.84615384615385,499.2094861660079L107.3076923076923,494.9501661129568L110.76923076923077,484.3962368566685L114.23076923076923,508.0226331769252L117.6923076923077,504.3913689805847L121.15384615384615,501.39850942569046L124.61538461538463,499.5119726339795L128.07692307692307,496.338351136223L131.53846153846155,493.032721404075L135,492.69305256686135L138.46153846153848,487.47845405446816L141.9230769230769,505.20087079719406L145.3846153846154,501.0263004091175L148.84615384615384,500.1301340393844L152.30769230769232,498.2561988793714L155.76923076923077,495.48717624363553L159.23076923076923,493.27324102853913L162.69230769230768,490.0236376948018L166.15384615384616,482.6385103802525L169.6153846153846,500.6828109611262L173.0769230769231,497.55215657014946L176.53846153846155,495.5126850241229L180,493.9709754925517L183.46153846153845,491.71996346801876L186.92307692307693,489.47157190635454L190.3846153846154,488.36830680173665L193.84615384615387,485.82795954788816L197.3076923076923,499.1945247148289L200.76923076923077,497.34083293441836L204.23076923076923,495.27121493673127L207.6923076923077,492.7507447864946L211.15384615384616,490.32162982228004L214.6153846153846,499.2255991775365L218.07692307692307,487.05872506625747L221.53846153846155,487.76197991873465L225,494.5774044930077L228.46153846153845,493.0270855904659L231.9230769230769,491.46381163084703L235.3846153846154,490.1227722772277L238.84615384615384,489.12317820312796L242.3076923076923,486.9742198100407L245.76923076923075,498.9124152167502L249.23076923076925,484.62404538511896L252.6923076923077,496.9851227139202L256.15384615384613,494.63271080928126L259.6153846153846,491.7452830188679L263.0769230769231,490.5328874024526L266.53846153846155,490.4225403152745L270,488.0245398773006L273.46153846153845,486.5778173719376L276.92307692307696,481.8995929443691L280.3846153846154,492.4253335476611L283.8461538461538,491.49691504508786L287.30769230769226,500.42117196910647L290.7692307692308,489.6485740570377L294.2307692307692,489.7359168100546L297.6923076923077,486.96553790830086L301.15384615384613,485.22441091206423L304.61538461538464,483.71174089068825L308.0769230769231,492.5466152413885L311.53846153846155,491.79490537620325L315,499.46893596762675L318.46153846153845,489.26013340174444L321.9230769230769,490.62079226334384L325.38461538461536,488.2628316389784L328.8461538461538,485.84449404761904L332.3076923076923,492.33398236169967L335.7692307692308,492.74497094322754L339.2307692307692,489.5407340587472L342.6923076923077,490.0761999010391L346.1538461538462,500.17615971814445L349.61538461538464,494.659377372817L353.0769230769231,491.68583822403673L356.53846153846155,488.41268368136116L360,488.6186774356385L363.46153846153845,492.6033807659249L366.9230769230769,492.79528553388525L370.38461538461536,489.4340087104715L373.84615384615387,490.48895434462446L377.3076923076923,488.55929008230265L380.7692307692308,494.014598540146L384.2307692307692,487.60524079953495L387.69230769230774,496.00617710407613L391.1538461538462,491.80161993769474L394.6153846153846,491.1843703825316L398.07692307692304,494.51026392961876L401.53846153846155,496.3007064334555L405,492.13765932792586L408.46153846153845,492.16445844880604L411.9230769230769,488.3711117121991L415.3846153846154,486.3069897050855L418.84615384615387,495.18287418845415L422.3076923076923,496.25039294744755L425.7692307692308,493.68162871611145L429.2307692307692,491.8266027520088L432.6923076923077,491.28951945704443L436.15384615384613,509.6419384538125L439.6153846153846,490.65811511365143L443.0769230769231,510.1546732614715L446.53846153846155,493.87050989464467L450,494.63003148017975L453.46153846153845,499.183758099352L456.9230769230769,498.6774607337305L460.38461538461536,498.73562508769464L463.8461538461538,498.1134846461949L467.3076923076923,498.7830774256779L470.7692307692308,498.9641451332173L474.2307692307692,503.4672246873739L477.6923076923077,503.7800673667525L481.15384615384613,503.3665784054134L484.6153846153846,503.91464205897194L488.07692307692304,503.4535326604456L491.5384615384615,509.1711711711712L495.00000000000006,504.3409387970373L498.4615384615385,506.4355134812325L501.92307692307696,506.2102293848812L505.3846153846154,506.8372611192047L508.8461538461538,505.97568466854364L512.3076923076923,507.29042698867175L515.7692307692307,507.6147114619668L519.2307692307692,508.0141886610954L522.6923076923077,506.50632148097526L526.1538461538462,506.8295016506217L529.6153846153846,509.3087967183227L533.0769230769231,510.4344187940834L536.5384615384615,510.34627837635134L540,511.2348870889878L543.4615384615385,510.00472491677704L546.9230769230769,517.0874279574093L550.3846153846155,511.3435329711889L553.8461538461539,506.74951789157916L557.3076923076924,512.5174290677476L560.7692307692308,511.44050021503955L564.2307692307692,509.97598285913597L567.6923076923076,510.8941145901L571.1538461538461,509.25593098490293L574.6153846153845,509.31578183226054L578.0769230769231,508.40018676240925L581.5384615384615,510.8163568773234L585,515.5379731238131L588.4615384615385,510.3439885641291L591.9230769230769,508.2098881314725L595.3846153846154,510.87972356354936L598.8461538461538,511.6959879667929L602.3076923076923,513.5685637918247L605.7692307692308,511.43699587485645L609.2307692307693,508.8152380952381L612.6923076923077,514.8974553589262L616.1538461538462,513.5960217094886L619.6153846153846,513.1945444162606L623.0769230769231,513.7082876390413L626.5384615384615,512.6807076223575L630,513.6348461803914L633.4615384615385,511.9607726903697L636.9230769230769,511.21564191230345L640.3846153846154,514.2430756003193L643.8461538461538,514.4400450980154L647.3076923076923,514.2751874639492L650.7692307692307,514.6270084660471L654.2307692307692,514.6581563938305L657.6923076923076,516.1392441099104L661.1538461538462,515.7606655724716L664.6153846153846,508.33986227070505L668.0769230769231,516.5022525987298L671.5384615384615,515.9919906338561L675,513.7256428507875L678.4615384615385,515.4088338154656L681.9230769230769,513.4002472079719L685.3846153846154,515.3395789005684L688.8461538461538,514.1140524335013L692.3076923076924,515.1846500847114L695.7692307692308,515.6192640825603L699.2307692307693,516.1139171621485L702.6923076923077,514.9220633330297L706.1538461538462,514.4825029715736L709.6153846153846,513.486048741107L713.0769230769231,516.093744548045L716.5384615384615,514.9796621049867L720,513.5736780258519L723.4615384615385,515.7112344990021L726.9230769230769,516.0713119571606L730.3846153846154,515.6078424084743L733.8461538461538,515.4611540376565L737.3076923076923,515.4120421144987L740.7692307692307,515.9214867479639L744.2307692307692,514.9563052947701L747.6923076923077,515.5480075598265L751.1538461538462,515.9647278039733L754.6153846153846,516.6166734039168L758.0769230769231,516.7060205680037L761.5384615384615,517.4944849254629L765,516.9239158530179L768.4615384615385,517.6966035511678L771.9230769230769,516.2735443403623L775.3846153846155,515.9441264627386L778.8461538461539,517.5106631096344L782.3076923076924,516.993921626423L785.7692307692308,516.0296199255507L789.2307692307692,517.1414373447096L792.6923076923076,515.9797370529193L796.1538461538461,516.5150389899741L799.6153846153845,515.3112022219284L803.0769230769231,516.3899029126213L806.5384615384615,516.6883114929213L810,516.8943977382635L813.4615384615385,517.4387160602397L816.9230769230769,516.7400633134014L820.3846153846154,515.632355539848L823.8461538461538,517.7020276478004L827.3076923076923,515.3824413622831L830.7692307692308,515.5133735979292L834.2307692307693,516.1368307805556L837.6923076923077,517.2761855962776L841.1538461538462,517.0357381452529L844.6153846153846,516.9111669049688L848.0769230769231,517.1660116216929L851.5384615384615,517.0657279518462L855,515.8724077328646L858.4615384615385,517.2319018404908L861.9230769230769,517.6323994842339L865.3846153846154,518.5527299208525L868.8461538461538,518.6981022267206L872.3076923076923,518.5933126802692L875.7692307692307,516.7043919242177L879.2307692307692,518.4934881560613L882.6923076923076,518.8137657520916L886.1538461538462,515.9345804382683" style="fill: none; stroke: #98df8a; stroke-width: 2;"></path></g></g><path class="foreground" d="" style="display: none; fill: none;"></path></g><g transform="translate(0,0)"><path class="background" d="M0,0h900v600h-900Z" style="fill: none;"></path><g><g class="mark-line role-mark marks"><path d="M6.923076923076923,566.5911949685535L10.384615384615385,535.7884007029877L13.846153846153847,509.43983889914415L17.30769230769231,489.8399108917378L20.76923076923077,448.807651434644L24.230769230769234,403.87142175572524L27.692307692307693,338.4829599594526L31.153846153846157,414.3827008811037L34.61538461538462,390.49328129898487L38.07692307692308,343.5274302213667L41.53846153846154,310.14368525687973L45,291.44906649197515L48.46153846153847,242.18666254778546L51.92307692307693,233.96804862704792L55.38461538461539,188.812089919635L58.84615384615385,299.6913895607749L62.307692307692314,271.91791663117465L65.76923076923077,212.0523199869527L69.23076923076924,201.36879616737076L72.6923076923077,204.96010737454327L76.15384615384616,184.47106555626735L79.61538461538461,179.63405458765774L83.07692307692308,164.71819933273815L86.53846153846155,268.68495742667926L90,231.82228903951585L93.46153846153847,214.87615671470004L96.92307692307693,162.12475140119324L100.38461538461539,172.530166225692L103.84615384615385,133.8459856408762L107.3076923076923,150.64351851851853L110.76923076923077,66.22481020122358L114.23076923076923,202.62020905923345L117.6923076923077,156.97206377635445L121.15384615384615,150.03535167849768L124.61538461538463,126.96988530425443L128.07692307692307,137.40070058563163L131.53846153846155,95.71902956227227L135,110.67363331513683L138.46153846153848,85.34189933825932L141.9230769230769,140.3943403908795L145.3846153846154,115.4946048354523L148.84615384615384,131.16881355932205L152.30769230769232,88.53719602858652L155.76923076923077,145.28708095245804L159.23076923076923,116.32429777436684L162.69230769230768,152.81667128219323L166.15384615384616,97.73883308399228L169.6153846153846,191.96601132955692L173.0769230769231,171.28446536650975L176.53846153846155,166.28739578224616L180,148.85417518606369L183.46153846153845,181.84763572679515L186.92307692307693,137.9338201025323L190.3846153846154,160.03137031227715L193.84615384615387,100.08283191372982L197.3076923076923,187.71087335158003L200.76923076923077,187.23926380368093L204.23076923076923,174.6996466431096L207.6923076923077,138.4615384615385L211.15384615384616,161.98268897864975L214.6153846153846,110.59352181239466L218.07692307692307,137.80340221486478L221.53846153846155,103.54464975343114L225,176.5451508303037L228.46153846153845,174.55642265524008L231.9230769230769,162.98926270579815L235.3846153846154,157.94742021650504L238.84615384615384,160.69976882098703L242.3076923076923,125.80645161290325L245.76923076923075,150.32183461276833L249.23076923076925,74.85549707021558L252.6923076923077,158.3821259309411L256.15384615384613,156.62656553183987L259.6153846153846,163.1529969121442L263.0769230769231,141.73389222591933L266.53846153846155,163.2465093885412L270,124.93412154978103L273.46153846153845,137.59176755447947L276.92307692307696,76.38697027761687L280.3846153846154,157.24644392987105L283.8461538461538,143.78181818181812L287.30769230769226,164.2457107420933L290.7692307692308,130.36737357259375L294.2307692307692,142.2196914794492L297.6923076923077,127.2574850299401L301.15384615384613,133.3708068902992L304.61538461538464,72.62670623145402L308.0769230769231,158.95353121801435L311.53846153846155,145.9192085737839L315,160.1720962020373L318.46153846153845,129.2810359516102L321.9230769230769,144.02480940690012L325.38461538461536,118.77621304144704L328.8461538461538,159.1763438285645L332.3076923076923,71.29808773903264L335.7692307692308,147.44958887153334L339.2307692307692,140.8753640654816L342.6923076923077,161.87735169823134L346.1538461538462,131.1692042516518L349.61538461538464,147.3407290015848L353.0769230769231,122.9760154117836L356.53846153846155,138.71104074051516L360,59.017683655643836L363.46153846153845,159.75224406476326L366.9230769230769,138.44581883036554L370.38461538461536,150.31570261572747L373.84615384615387,119.42664243053751L377.3076923076923,145.1456300268097L380.7692307692308,126.97109067017078L384.2307692307692,129.17155931386978L387.69230769230774,77.18078337516783L391.1538461538462,152.46525212610595L394.6153846153846,146.62532064071146L398.07692307692304,150.27504584097343L401.53846153846155,110.31265980852707L405,127.65945930707862L408.46153846153845,110.3859346720676L411.9230769230769,123.5289460663038L415.3846153846154,57.23486248218346L418.84615384615387,136.029452884705L422.3076923076923,131.9929714232868L425.7692307692308,137.75521207764197L429.2307692307692,106.62654013526979L432.6923076923077,142.01270151441125L436.15384615384613,109.01946516281605L439.6153846153846,119.18459200374099L443.0769230769231,88.93944954128439L446.53846153846155,142.4476372752513L450,138.2513661202185L453.46153846153845,135.989396600285L456.9230769230769,111.70481083605787L460.38461538461536,137.06786401539458L463.8461538461538,124.76092244818521L467.3076923076923,128.61897366002088L470.7692307692308,56.86137901252337L474.2307692307692,146.57003286259882L477.6923076923077,129.80623298033277L481.15384615384613,139.34445580715848L484.6153846153846,112.10762331838559L488.07692307692304,137.61602188948856L491.5384615384615,122.6532570013926L495.00000000000006,125.28968630277274L498.4615384615385,61.659635391810696L501.92307692307696,142.04007545289534L505.3846153846154,130.82567883474198L508.8461538461538,141.28657648283033L512.3076923076923,101.73773416592329L515.7692307692307,127.22739134973378L519.2307692307692,118.69975533030409L522.6923076923077,129.3530304563392L526.1538461538462,59.286883365200694L529.6153846153846,133.7398945518453L533.0769230769231,131.5131209450954L536.5384615384615,139.50014093770545L540,106.11380819737361L543.4615384615385,128.86760985664756L546.9230769230769,111.21451194932337L550.3846153846155,126.5469567612228L553.8461538461539,59.490788656592805L557.3076923076924,134.76297730072145L560.7692307692308,127.63578613022769L564.2307692307692,130.81059556786707L567.6923076923076,98.83229813664589L571.1538461538461,128.13084112149534L574.6153846153845,121.25498211548293L578.0769230769231,120.00708681346491L581.5384615384615,51.020594965674974L585,119.30995792426361L588.4615384615385,120.91662603608002L591.9230769230769,149.73097826086962L595.3846153846154,108.09878555709511L598.8461538461538,134.0367854689766L602.3076923076923,108.17773530817021L605.7692307692308,128.70398310199153L609.2307692307693,58.74912205567448L612.6923076923077,128.81775287525798L616.1538461538462,117.61056795283234L619.6153846153846,137.57594623275548L623.0769230769231,100.78549848942593L626.5384615384615,123.54430740714335L630,110.23439878234402L633.4615384615385,125.73717459215553L636.9230769230769,54.539251303111705L640.3846153846154,131.82458257895792L643.8461538461538,121.746696483025L647.3076923076923,132.7694524495677L650.7692307692307,97.3034929930977L654.2307692307692,131.70850202429142L657.6923076923076,113.86890223777147L661.1538461538462,125.37474489795912L664.6153846153846,56.236008676789595L668.0769230769231,133.12877856967324L671.5384615384615,136.20007249003257L675,137.30390694900092L678.4615384615385,100.04057416267943L681.9230769230769,126.8609334847308L685.3846153846154,103.56201117318437L688.8461538461538,129.08166715243368L692.3076923076924,78.09401982731042L695.7692307692308,132.1144479137099L699.2307692307693,183.2365693686476L702.6923076923077,133.32763406239587L706.1538461538462,98.92793484034708L709.6153846153846,122.01717216770743L713.0769230769231,113.49083960885686L716.5384615384615,118.65660792951536L720,59.59735488611311L723.4615384615385,136.10682492581597L726.9230769230769,117.69688521953574L730.3846153846154,185.51095290251916L733.8461538461538,103.78438058126316L737.3076923076923,122.50549450549448L740.7692307692307,114.58048425646882L744.2307692307692,117.87412444399001L747.6923076923077,69.87724184025843L751.1538461538462,137.00809716599187L754.6153846153846,130.60443497627583L758.0769230769231,145.60449563440463L761.5384615384615,103.58974358974355L765,155.01924880532357L768.4615384615385,113.69178678533423L771.9230769230769,128.10884733463587L775.3846153846155,109.11643967005564L778.8461538461539,149.82346018046292L782.3076923076924,140.22133968758274L785.7692307692308,132.76220108454086L789.2307692307692,121.61963190184044L792.6923076923076,125.44186665483741L796.1538461538461,108.89232729589513L799.6153846153845,124.561320754717L803.0769230769231,88.96509354928787L806.5384615384615,144.46544916090818L810,180.8703613372857L813.4615384615385,143.7429126842702L816.9230769230769,122.8462959852175L820.3846153846154,132.30710204081626L823.8461538461538,121.41743632221988L827.3076923076923,129.4316520615435L830.7692307692308,57.73224421985319L834.2307692307693,155.58591200630136L837.6923076923077,150.93008570139835L841.1538461538462,178.8113286713287L844.6153846153846,126.2202457577531L848.0769230769231,172.82051282051287L851.5384615384615,147.12898019075567L855,172.07275477926007L858.4615384615385,119.0948256036796L861.9230769230769,171.10193285859611L865.3846153846154,197.49976323515483L868.8461538461538,241.52058462568337L872.3076923076923,163.35515184199002L875.7692307692307,208.69535510937973L879.2307692307692,181.1982434926494L882.6923076923076,226.59817030260382L886.1538461538462,175.9533113422989" style="fill: none; stroke: #ffbb78; stroke-width: 2;"></path></g></g><path class="foreground" d="" style="display: none; fill: none;"></path></g></g><g class="mark-group role-legend"><g transform="translate(918,0)"><path class="background" d="M0,0h101v92h-101Z" style="pointer-events: none; fill: none;"></path><g><g class="mark-group role-legend-entry"><g transform="translate(0,16)"><path class="background" d="M0,0h0v0h0Z" style="pointer-events: none; fill: none;"></path><g><g class="mark-group role-scope"><g transform="translate(0,0)"><path class="background" d="M0,0h101v11h-101Z" style="pointer-events: none; fill: none; opacity: 1;"></path><g><g class="mark-symbol role-legend-symbol" style="pointer-events: none;"><path transform="translate(6,6)" d="M-5,0L5,0" style="fill: none; stroke: #1f77b4; stroke-width: 1.5; opacity: 1;"></path></g><g class="mark-text role-legend-label" style="pointer-events: none;"><text text-anchor="start" transform="translate(16,9)" style="font-family: sans-serif; font-size: 10px; fill: #000; opacity: 1;">Clang-Polly</text></g></g><path class="foreground" d="" style="pointer-events: none; display: none; fill: none;"></path></g><g transform="translate(0,13)"><path class="background" d="M0,0h101v11h-101Z" style="pointer-events: none; fill: none; opacity: 1;"></path><g><g class="mark-symbol role-legend-symbol" style="pointer-events: none;"><path transform="translate(6,6)" d="M-5,0L5,0" style="fill: none; stroke: #aec7e8; stroke-width: 1.5; opacity: 1;"></path></g><g class="mark-text role-legend-label" style="pointer-events: none;"><text text-anchor="start" transform="translate(16,9)" style="font-family: sans-serif; font-size: 10px; fill: #000; opacity: 1;">GFortran</text></g></g><path class="foreground" d="" style="pointer-events: none; display: none; fill: none;"></path></g><g transform="translate(0,26)"><path class="background" d="M0,0h101v11h-101Z" style="pointer-events: none; fill: none; opacity: 1;"></path><g><g class="mark-symbol role-legend-symbol" style="pointer-events: none;"><path transform="translate(6,6)" d="M-5,0L5,0" style="fill: none; stroke: #ff7f0e; stroke-width: 1.5; opacity: 1;"></path></g><g class="mark-text role-legend-label" style="pointer-events: none;"><text text-anchor="start" transform="translate(16,9)" style="font-family: sans-serif; font-size: 10px; fill: #000; opacity: 1;">Julia</text></g></g><path class="foreground" d="" style="pointer-events: none; display: none; fill: none;"></path></g><g transform="translate(0,39)"><path class="background" d="M0,0h101v11h-101Z" style="pointer-events: none; fill: none; opacity: 1;"></path><g><g class="mark-symbol role-legend-symbol" style="pointer-events: none;"><path transform="translate(6,6)" d="M-5,0L5,0" style="fill: none; stroke: #ffbb78; stroke-width: 1.5; opacity: 1;"></path></g><g class="mark-text role-legend-label" style="pointer-events: none;"><text text-anchor="start" transform="translate(16,9)" style="font-family: sans-serif; font-size: 10px; fill: #000; opacity: 1;">LoopVectorization</text></g></g><path class="foreground" d="" style="pointer-events: none; display: none; fill: none;"></path></g><g transform="translate(0,52)"><path class="background" d="M0,0h101v11h-101Z" style="pointer-events: none; fill: none; opacity: 1;"></path><g><g class="mark-symbol role-legend-symbol" style="pointer-events: none;"><path transform="translate(6,6)" d="M-5,0L5,0" style="fill: none; stroke: #2ca02c; stroke-width: 1.5; opacity: 1;"></path></g><g class="mark-text role-legend-label" style="pointer-events: none;"><text text-anchor="start" transform="translate(16,9)" style="font-family: sans-serif; font-size: 10px; fill: #000; opacity: 1;">icc</text></g></g><path class="foreground" d="" style="pointer-events: none; display: none; fill: none;"></path></g><g transform="translate(0,65)"><path class="background" d="M0,0h101v11h-101Z" style="pointer-events: none; fill: none; opacity: 1;"></path><g><g class="mark-symbol role-legend-symbol" style="pointer-events: none;"><path transform="translate(6,6)" d="M-5,0L5,0" style="fill: none; stroke: #98df8a; stroke-width: 1.5; opacity: 1;"></path></g><g class="mark-text role-legend-label" style="pointer-events: none;"><text text-anchor="start" transform="translate(16,9)" style="font-family: sans-serif; font-size: 10px; fill: #000; opacity: 1;">ifort</text></g></g><path class="foreground" d="" style="pointer-events: none; display: none; fill: none;"></path></g></g></g><path class="foreground" d="" style="pointer-events: none; display: none; fill: none;"></path></g></g><g class="mark-text role-legend-title" style="pointer-events: none;"><text text-anchor="start" transform="translate(0,9)" style="font-family: sans-serif; font-size: 11px; font-weight: bold; fill: #000; opacity: 1;">Method</text></g></g><path class="foreground" d="" style="pointer-events: none; display: none; fill: none;"></path></g></g></g><path class="foreground" d="" style="display: none; fill: none;"></path></g></g></g></svg>
