<?xml version="1.0" encoding="UTF-8"?>
<svg xmlns="http://www.w3.org/2000/svg"
     xmlns:xlink="http://www.w3.org/1999/xlink"
     xmlns:gadfly="http://www.gadflyjl.org/ns"
     version="1.2"
     width="304.8mm" height="203.2mm" viewBox="0 0 304.8 203.2"
     stroke="none"
     fill="#000000"
     stroke-width="0.3"
     font-size="3.88"
>
<defs>
  <marker id="arrow" markerWidth="15" markerHeight="7" refX="5" refY="3.5" orient="auto" markerUnits="strokeWidth">
    <path d="M0,0 L15,3.5 L0,7 z" stroke="context-stroke" fill="context-stroke"/>
  </marker>
</defs>
<g class="plotroot xscalable yscalable" id="img-dcd95dae-1">
  <g font-size="3.88" font-family="'PT Sans','Helvetica Neue','Helvetica',sans-serif" fill="#564A55" stroke="#000000" stroke-opacity="0.000" id="img-dcd95dae-2">
    <g transform="translate(151.79,191.59)">
      <g class="primitive">
        <text text-anchor="middle" dy="0.6em">Size</text>
      </g>
    </g>
  </g>
  <g class="guide xlabels" font-size="2.82" font-family="'PT Sans Caption','Helvetica Neue','Helvetica',sans-serif" fill="#6C606B" id="img-dcd95dae-3">
    <g transform="translate(32.34,184.92)">
      <g class="primitive">
        <text text-anchor="middle" dy="0.6em">0</text>
      </g>
    </g>
    <g transform="translate(50.72,184.92)">
      <g class="primitive">
        <text text-anchor="middle" dy="0.6em">20</text>
      </g>
    </g>
    <g transform="translate(69.1,184.92)">
      <g class="primitive">
        <text text-anchor="middle" dy="0.6em">40</text>
      </g>
    </g>
    <g transform="translate(87.47,184.92)">
      <g class="primitive">
        <text text-anchor="middle" dy="0.6em">60</text>
      </g>
    </g>
    <g transform="translate(105.85,184.92)">
      <g class="primitive">
        <text text-anchor="middle" dy="0.6em">80</text>
      </g>
    </g>
    <g transform="translate(124.23,184.92)">
      <g class="primitive">
        <text text-anchor="middle" dy="0.6em">100</text>
      </g>
    </g>
    <g transform="translate(142.6,184.92)">
      <g class="primitive">
        <text text-anchor="middle" dy="0.6em">120</text>
      </g>
    </g>
    <g transform="translate(160.98,184.92)">
      <g class="primitive">
        <text text-anchor="middle" dy="0.6em">140</text>
      </g>
    </g>
    <g transform="translate(179.36,184.92)">
      <g class="primitive">
        <text text-anchor="middle" dy="0.6em">160</text>
      </g>
    </g>
    <g transform="translate(197.73,184.92)">
      <g class="primitive">
        <text text-anchor="middle" dy="0.6em">180</text>
      </g>
    </g>
    <g transform="translate(216.11,184.92)">
      <g class="primitive">
        <text text-anchor="middle" dy="0.6em">200</text>
      </g>
    </g>
    <g transform="translate(234.49,184.92)">
      <g class="primitive">
        <text text-anchor="middle" dy="0.6em">220</text>
      </g>
    </g>
    <g transform="translate(252.86,184.92)">
      <g class="primitive">
        <text text-anchor="middle" dy="0.6em">240</text>
      </g>
    </g>
    <g transform="translate(271.24,184.92)">
      <g class="primitive">
        <text text-anchor="middle" dy="0.6em">260</text>
      </g>
    </g>
  </g>
  <g class="guide colorkey" id="img-dcd95dae-4">
    <g fill="#4C404B" font-size="2.82" font-family="'PT Sans','Helvetica Neue','Helvetica',sans-serif" id="img-dcd95dae-5">
      <g transform="translate(277.87,87.95)" id="img-dcd95dae-6">
        <g class="primitive">
          <text dy="0.35em">LoopVectorization</text>
        </g>
      </g>
      <g transform="translate(277.87,91.57)" id="img-dcd95dae-7">
        <g class="primitive">
          <text dy="0.35em">Julia</text>
        </g>
      </g>
      <g transform="translate(277.87,95.2)" id="img-dcd95dae-8">
        <g class="primitive">
          <text dy="0.35em">Clang</text>
        </g>
      </g>
      <g transform="translate(277.87,98.83)" id="img-dcd95dae-9">
        <g class="primitive">
          <text dy="0.35em">GFortran</text>
        </g>
      </g>
      <g transform="translate(277.87,102.45)" id="img-dcd95dae-10">
        <g class="primitive">
          <text dy="0.35em">icc</text>
        </g>
      </g>
      <g transform="translate(277.87,106.08)" id="img-dcd95dae-11">
        <g class="primitive">
          <text dy="0.35em">ifort</text>
        </g>
      </g>
    </g>
    <g stroke-width="0.3" id="img-dcd95dae-12">
      <g stroke="#FFFFFF" fill-opacity="1" fill="#FC93C0" id="img-dcd95dae-13">
        <g transform="translate(275.05,106.08)" id="img-dcd95dae-14">
          <circle cx="0" cy="0" r="0.9" class="primitive"/>
        </g>
      </g>
      <g stroke="#FFFFFF" fill-opacity="1" fill="#EF54F2" id="img-dcd95dae-15">
        <g transform="translate(275.05,102.45)" id="img-dcd95dae-16">
          <circle cx="0" cy="0" r="0.9" class="primitive"/>
        </g>
      </g>
      <g stroke="#FFFFFF" fill-opacity="1" fill="#B341FB" id="img-dcd95dae-17">
        <g transform="translate(275.05,98.83)" id="img-dcd95dae-18">
          <circle cx="0" cy="0" r="0.9" class="primitive"/>
        </g>
      </g>
      <g stroke="#FFFFFF" fill-opacity="1" fill="#732CF8" id="img-dcd95dae-19">
        <g transform="translate(275.05,95.2)" id="img-dcd95dae-20">
          <circle cx="0" cy="0" r="0.9" class="primitive"/>
        </g>
      </g>
      <g stroke="#FFFFFF" fill-opacity="1" fill="#FF0000" id="img-dcd95dae-21">
        <g transform="translate(275.05,91.57)" id="img-dcd95dae-22">
          <circle cx="0" cy="0" r="0.9" class="primitive"/>
        </g>
      </g>
      <g stroke="#FFFFFF" fill-opacity="1" fill="#000000" id="img-dcd95dae-23">
        <g transform="translate(275.05,87.95)" id="img-dcd95dae-24">
          <circle cx="0" cy="0" r="0.9" class="primitive"/>
        </g>
      </g>
    </g>
    <g fill="#362A35" font-size="3.88" font-family="'PT Sans','Helvetica Neue','Helvetica',sans-serif" stroke="#000000" stroke-opacity="0.000" id="img-dcd95dae-25">
      <g transform="translate(274.24,84.63)" id="img-dcd95dae-26">
        <g class="primitive">
          <text dy="-0em">Methods</text>
        </g>
      </g>
    </g>
  </g>
  <g clip-path="url(#img-dcd95dae-27)">
    <g id="img-dcd95dae-28">
      <g pointer-events="visible" stroke-width="0.3" fill="#000000" fill-opacity="0.000" stroke="#000000" stroke-opacity="0.000" class="guide background" id="img-dcd95dae-29">
        <g transform="translate(151.79,94.46)" id="img-dcd95dae-30">
          <path d="M-121.45,-89.46 L121.45,-89.46 121.45,89.46 -121.45,89.46  z" class="primitive"/>
        </g>
      </g>
      <g class="guide ygridlines xfixed" stroke-dasharray="0.5,0.5" stroke-width="0.2" stroke="#D0D0E0" id="img-dcd95dae-31">
        <g transform="translate(151.79,181.91)" id="img-dcd95dae-32">
          <path fill="none" d="M-121.45,0 L121.45,0 " class="primitive"/>
        </g>
        <g transform="translate(151.79,172.71)" id="img-dcd95dae-33">
          <path fill="none" d="M-121.45,0 L121.45,0 " class="primitive"/>
        </g>
        <g transform="translate(151.79,163.5)" id="img-dcd95dae-34">
          <path fill="none" d="M-121.45,0 L121.45,0 " class="primitive"/>
        </g>
        <g transform="translate(151.79,154.3)" id="img-dcd95dae-35">
          <path fill="none" d="M-121.45,0 L121.45,0 " class="primitive"/>
        </g>
        <g transform="translate(151.79,145.09)" id="img-dcd95dae-36">
          <path fill="none" d="M-121.45,0 L121.45,0 " class="primitive"/>
        </g>
        <g transform="translate(151.79,135.88)" id="img-dcd95dae-37">
          <path fill="none" d="M-121.45,0 L121.45,0 " class="primitive"/>
        </g>
        <g transform="translate(151.79,126.68)" id="img-dcd95dae-38">
          <path fill="none" d="M-121.45,0 L121.45,0 " class="primitive"/>
        </g>
        <g transform="translate(151.79,117.47)" id="img-dcd95dae-39">
          <path fill="none" d="M-121.45,0 L121.45,0 " class="primitive"/>
        </g>
        <g transform="translate(151.79,108.27)" id="img-dcd95dae-40">
          <path fill="none" d="M-121.45,0 L121.45,0 " class="primitive"/>
        </g>
        <g transform="translate(151.79,99.06)" id="img-dcd95dae-41">
          <path fill="none" d="M-121.45,0 L121.45,0 " class="primitive"/>
        </g>
        <g transform="translate(151.79,89.85)" id="img-dcd95dae-42">
          <path fill="none" d="M-121.45,0 L121.45,0 " class="primitive"/>
        </g>
        <g transform="translate(151.79,80.65)" id="img-dcd95dae-43">
          <path fill="none" d="M-121.45,0 L121.45,0 " class="primitive"/>
        </g>
        <g transform="translate(151.79,71.44)" id="img-dcd95dae-44">
          <path fill="none" d="M-121.45,0 L121.45,0 " class="primitive"/>
        </g>
        <g transform="translate(151.79,62.24)" id="img-dcd95dae-45">
          <path fill="none" d="M-121.45,0 L121.45,0 " class="primitive"/>
        </g>
        <g transform="translate(151.79,53.03)" id="img-dcd95dae-46">
          <path fill="none" d="M-121.45,0 L121.45,0 " class="primitive"/>
        </g>
        <g transform="translate(151.79,43.82)" id="img-dcd95dae-47">
          <path fill="none" d="M-121.45,0 L121.45,0 " class="primitive"/>
        </g>
        <g transform="translate(151.79,34.62)" id="img-dcd95dae-48">
          <path fill="none" d="M-121.45,0 L121.45,0 " class="primitive"/>
        </g>
        <g transform="translate(151.79,25.41)" id="img-dcd95dae-49">
          <path fill="none" d="M-121.45,0 L121.45,0 " class="primitive"/>
        </g>
        <g transform="translate(151.79,16.21)" id="img-dcd95dae-50">
          <path fill="none" d="M-121.45,0 L121.45,0 " class="primitive"/>
        </g>
        <g transform="translate(151.79,7)" id="img-dcd95dae-51">
          <path fill="none" d="M-121.45,0 L121.45,0 " class="primitive"/>
        </g>
      </g>
      <g class="guide xgridlines yfixed" stroke-dasharray="0.5,0.5" stroke-width="0.2" stroke="#D0D0E0" id="img-dcd95dae-52">
        <g transform="translate(32.34,94.46)" id="img-dcd95dae-53">
          <path fill="none" d="M0,-89.46 L0,89.46 " class="primitive"/>
        </g>
        <g transform="translate(50.72,94.46)" id="img-dcd95dae-54">
          <path fill="none" d="M0,-89.46 L0,89.46 " class="primitive"/>
        </g>
        <g transform="translate(69.1,94.46)" id="img-dcd95dae-55">
          <path fill="none" d="M0,-89.46 L0,89.46 " class="primitive"/>
        </g>
        <g transform="translate(87.47,94.46)" id="img-dcd95dae-56">
          <path fill="none" d="M0,-89.46 L0,89.46 " class="primitive"/>
        </g>
        <g transform="translate(105.85,94.46)" id="img-dcd95dae-57">
          <path fill="none" d="M0,-89.46 L0,89.46 " class="primitive"/>
        </g>
        <g transform="translate(124.23,94.46)" id="img-dcd95dae-58">
          <path fill="none" d="M0,-89.46 L0,89.46 " class="primitive"/>
        </g>
        <g transform="translate(142.6,94.46)" id="img-dcd95dae-59">
          <path fill="none" d="M0,-89.46 L0,89.46 " class="primitive"/>
        </g>
        <g transform="translate(160.98,94.46)" id="img-dcd95dae-60">
          <path fill="none" d="M0,-89.46 L0,89.46 " class="primitive"/>
        </g>
        <g transform="translate(179.36,94.46)" id="img-dcd95dae-61">
          <path fill="none" d="M0,-89.46 L0,89.46 " class="primitive"/>
        </g>
        <g transform="translate(197.73,94.46)" id="img-dcd95dae-62">
          <path fill="none" d="M0,-89.46 L0,89.46 " class="primitive"/>
        </g>
        <g transform="translate(216.11,94.46)" id="img-dcd95dae-63">
          <path fill="none" d="M0,-89.46 L0,89.46 " class="primitive"/>
        </g>
        <g transform="translate(234.49,94.46)" id="img-dcd95dae-64">
          <path fill="none" d="M0,-89.46 L0,89.46 " class="primitive"/>
        </g>
        <g transform="translate(252.86,94.46)" id="img-dcd95dae-65">
          <path fill="none" d="M0,-89.46 L0,89.46 " class="primitive"/>
        </g>
        <g transform="translate(271.24,94.46)" id="img-dcd95dae-66">
          <path fill="none" d="M0,-89.46 L0,89.46 " class="primitive"/>
        </g>
      </g>
      <g class="plotpanel" id="img-dcd95dae-67">
        <metadata>
          <boundingbox value="30.345mm 5.0mm 242.89499999999995mm 178.915mm"/>
          <unitbox value="-2.176688503317357 2.8358799570602815 264.3533770066347 -2.867939194061783"/>
        </metadata>
        <g stroke-width="0.3" fill="#000000" fill-opacity="0.000" class="geometry" id="img-dcd95dae-68">
          <g class="color_RGB{Float64}(0.98704,0.57494,0.75486)" stroke-dasharray="none" stroke="#FC93C0" id="img-dcd95dae-69">
            <g transform="translate(150.87,123.12)" id="img-dcd95dae-70">
              <path fill="none" d="M-116.69,44.42 L-115.77,37.13 -114.85,27.62 -113.93,34.38 -113.02,29.68 -112.1,24.75 -111.18,15.56 -110.26,24.39 -109.34,21.37 -108.42,16.58 -107.5,9.46 -106.58,19.81 -105.67,18.35 -104.75,15.18 -103.83,7.99 -102.91,15.31 -101.99,13.47 -101.07,10.57 -100.15,3.71 -99.23,13.18 -98.31,15.56 -97.4,13.72 -96.48,6.56 -95.56,10.55 -94.64,12.13 -93.72,10.95 -92.8,3.19 -91.88,8.94 -90.96,9.84 -90.05,4.21 -89.13,3.39 -88.21,5.37 -87.29,7.32 -86.37,6.24 -85.45,0.6 -84.53,6.88 -83.61,5.41 -82.69,2.74 -81.78,-0.06 -80.86,4.3 -79.94,2.63 -79.02,1.76 -78.1,-1.27 -77.18,2.65 -76.26,2.43 -75.34,1.92 -74.42,-1.68 -73.51,1.93 -72.59,2.57 -71.67,1.7 -70.75,-0.77 -69.83,4.11 -68.91,3.17 -67.99,1.94 -67.07,-2.01 -66.16,1.25 -65.24,2.05 -64.32,-0.14 -63.4,-2.95 -62.48,0.65 -61.56,-0.6 -60.64,-1.18 -59.72,-2.37 -58.8,-0.4 -57.89,0.88 -56.97,-0.71 -56.05,-2.15 -55.13,0.31 -54.21,-0.72 -53.29,-1.72 -52.37,-3.42 -51.45,-1.12 -50.54,-3.44 -49.62,-2.94 -48.7,-3.93 -47.78,-1.72 -46.86,-2.25 -45.94,-3.21 -45.02,-5.06 -44.1,-1.45 -43.18,-1.8 -42.27,-4.07 -41.35,-4.85 -40.43,-2.26 -39.51,-0.14 -38.59,-0.57 -37.67,-0.56 -36.75,1.35 -35.83,-0.4 -34.92,-1.35 -34,-3.05 -33.08,4.02 -32.16,-0.39 -31.24,-1.37 -30.32,-5.74 -29.4,-1.37 -28.48,-3.59 -27.56,-2.65 -26.65,-4.62 -25.73,-2.81 -24.81,-3.49 -23.89,-1.03 -22.97,-5.37 -22.05,-1.62 -21.13,-2.02 -20.21,-2.32 -19.3,-3.95 -18.38,-1.53 -17.46,-1.41 -16.54,-2.19 -15.62,-5.56 -14.7,-1.54 -13.78,-2.07 -12.86,-3.09 -11.94,-3.9 -11.03,-2.19 -10.11,-2.69 -9.19,-2.52 -8.27,-5.96 -7.35,-4.13 -6.43,-4.41 -5.51,-4.63 -4.59,-6.43 -3.68,-4.45 -2.76,-3.45 -1.84,-5.32 -0.92,-8.62 0,-3.77 0.92,-4.97 1.84,-5.4 2.76,-3.5 3.68,-1.7 4.59,-1.39 5.51,-3 6.43,-0.07 7.35,-3.62 8.27,-1.83 9.19,-0 10.11,-2.33 11.03,-2.24 11.94,-1.63 12.86,-2.97 13.78,-2.76 14.7,-0.83 15.62,-1.45 16.54,-2.5 17.46,-6.53 18.38,-1.01 19.3,-0.52 20.21,-0.72 21.13,-2.43 22.05,-0.12 22.97,-1.25 23.89,-1.29 24.81,-1.26 25.73,-1.3 26.65,-2.11 27.56,-1.62 28.48,-2.15 29.4,-0.59 30.32,-0.86 31.24,-1.89 32.16,-3.46 33.08,-0.91 34,-3.6 34.92,-2.39 35.83,-3.06 36.75,-2.1 37.67,-0.19 38.59,-2.48 39.51,-3.46 40.43,-1.4 41.35,-2.2 42.27,-3.17 43.18,-3.16 44.1,-2.33 45.02,-2.69 45.94,-2.78 46.86,-3.43 47.78,-2.92 48.7,-3.89 49.62,-3.35 50.54,-5.31 51.45,-2.84 52.37,-2.81 53.29,-3.35 54.21,-3.78 55.13,-3.56 56.05,-4.04 56.97,-3.65 57.89,-4.02 58.8,-2.79 59.72,-3.88 60.64,-3.9 61.56,-5.26 62.48,-4.08 63.4,-5.32 64.32,-4.61 65.24,-4.6 66.16,-3.32 67.07,-0.78 67.99,-4.79 68.91,-5.21 69.83,-4.77 70.75,-3.01 71.67,-5.51 72.59,-2.76 73.51,-4.05 74.42,-4.62 75.34,-2.41 76.26,-6.34 77.18,-5.69 78.1,-4.63 79.02,-4.71 79.94,-5.42 80.86,-1.91 81.78,-4.72 82.69,-2.43 83.61,-5.23 84.53,-4.23 85.45,-2.98 86.37,-5.23 87.29,-4.99 88.21,-2.38 89.13,-2.41 90.05,-4.71 90.96,-3.81 91.88,-2.52 92.8,-3.17 93.72,-3.14 94.64,-4.13 95.56,-2.08 96.48,-2.86 97.4,-4.02 98.31,-3.87 99.23,-0.2 100.15,8.41 101.07,-5.08 101.99,-6.04 102.91,-4.55 103.83,-4.64 104.75,-5.01 105.67,-5.42 106.58,-4.63 107.5,-5.08 108.42,-5.66 109.34,-2.47 110.26,-0.96 111.18,-2.74 112.1,-2.63 113.02,-3.23 113.93,-1.64 114.85,-2.95 115.77,-2.64 116.69,-5 " class="primitive"/>
            </g>
          </g>
        </g>
        <g stroke-width="0.3" fill="#000000" fill-opacity="0.000" class="geometry" id="img-dcd95dae-71">
          <g class="color_RGB{Float64}(0.9360050000000001,0.3313625,0.949375)" stroke-dasharray="none" stroke="#EF54F2" id="img-dcd95dae-72">
            <g transform="translate(150.87,122.66)" id="img-dcd95dae-73">
              <path fill="none" d="M-116.69,43.69 L-115.77,35.96 -114.85,26.7 -113.93,33.82 -113.02,29.17 -112.1,23.8 -111.18,13.53 -110.26,26.07 -109.34,20.97 -108.42,16.12 -107.5,7.92 -106.58,19.74 -105.67,18.32 -104.75,13.26 -103.83,6.61 -102.91,15.38 -101.99,13.11 -101.07,10.88 -100.15,5.07 -99.23,13.47 -98.31,15.45 -97.4,13.47 -96.48,6.93 -95.56,12.64 -94.64,12.09 -93.72,11.04 -92.8,2.55 -91.88,9.08 -90.96,8.41 -90.05,4.7 -89.13,2.79 -88.21,8.23 -87.29,7.12 -86.37,5.9 -85.45,0.01 -84.53,7.25 -83.61,5.81 -82.69,2.85 -81.78,-0.74 -80.86,4.49 -79.94,2.59 -79.02,1.84 -78.1,-1.75 -77.18,3.24 -76.26,2.42 -75.34,2.03 -74.42,-2.11 -73.51,2.35 -72.59,3.24 -71.67,1.79 -70.75,-0.92 -69.83,3.88 -68.91,3.55 -67.99,1.97 -67.07,-2.49 -66.16,1.57 -65.24,1.95 -64.32,-0.11 -63.4,-2.97 -62.48,1.43 -61.56,-0.51 -60.64,-1.51 -59.72,-4.74 -58.8,0.26 -57.89,0.19 -56.97,-0.28 -56.05,-3.11 -55.13,0.71 -54.21,-0.33 -53.29,-0.82 -52.37,-3.54 -51.45,-0.72 -50.54,-1.74 -49.62,-2.55 -48.7,-3.5 -47.78,-1.35 -46.86,-1.84 -45.94,-2.88 -45.02,-3.96 -44.1,1.15 -43.18,-2.75 -42.27,-3.05 -41.35,-1.24 -40.43,-2.06 -39.51,0.23 -38.59,0.37 -37.67,-2.35 -36.75,2.27 -35.83,-0.84 -34.92,-0.84 -34,-2.93 -33.08,1.42 -32.16,-0.28 -31.24,-0.95 -30.32,-6.73 -29.4,-1.11 -28.48,-3.5 -27.56,-2.24 -26.65,-4.78 -25.73,-2.47 -24.81,-4.25 -23.89,-4.24 -22.97,-3.56 -22.05,-2.99 -21.13,-2.54 -20.21,-1.48 -19.3,-3.46 -18.38,-1.13 -17.46,-1.04 -16.54,-2.01 -15.62,-6.18 -14.7,-1.12 -13.78,-1.59 -12.86,-2.75 -11.94,-3.88 -11.03,-1.77 -10.11,-2.2 -9.19,-4.24 -8.27,-5.81 -7.35,-3.68 -6.43,-3.62 -5.51,-6.85 -4.59,-6.09 -3.68,-4.36 -2.76,-3.32 -1.84,-4.96 -0.92,-6.23 0,-3.37 0.92,-5.11 1.84,-5.56 2.76,-3.65 3.68,-2.33 4.59,0.15 5.51,-5.1 6.43,0.02 7.35,-2.55 8.27,-2.88 9.19,-0.54 10.11,-4.07 11.03,-1.32 11.94,-2.5 12.86,-1.82 13.78,-2.88 14.7,-1.61 15.62,-1.84 16.54,-2.63 17.46,-3.89 18.38,-1.35 19.3,-0.8 20.21,-0.94 21.13,-2.38 22.05,-0.31 22.97,-1.48 23.89,-1.77 24.81,-1.66 25.73,-1.8 26.65,-2.62 27.56,-1.25 28.48,-1.81 29.4,-0.8 30.32,-1.86 31.24,-1.44 32.16,-3.45 33.08,-1.01 34,-3.67 34.92,-2.79 35.83,-4.01 36.75,-2.67 37.67,-0.63 38.59,-3.19 39.51,-3.65 40.43,-1.73 41.35,-2.13 42.27,-3.45 43.18,-2.92 44.1,-2.13 45.02,-3.47 45.94,-3.15 46.86,-3.59 47.78,-1.23 48.7,-4.72 49.62,-3.57 50.54,-4.73 51.45,-3.11 52.37,-3.44 53.29,-3.51 54.21,-3.82 55.13,-4.12 56.05,-4.42 56.97,-4.29 57.89,-3.77 58.8,-3.22 59.72,-2.46 60.64,-4.34 61.56,-5.55 62.48,-4.35 63.4,-4.9 64.32,-3.64 65.24,-6.28 66.16,-3.71 67.07,-0.56 67.99,-5.12 68.91,-5.09 69.83,-4.49 70.75,-2.25 71.67,-5.9 72.59,-2.13 73.51,-4.89 74.42,-5.91 75.34,-2.77 76.26,-5.22 77.18,-6.85 78.1,-4.82 79.02,-4.91 79.94,-5.56 80.86,-1.89 81.78,-3.71 82.69,-2.21 83.61,-3.04 84.53,-4.85 85.45,-2.29 86.37,-5.34 87.29,-5.36 88.21,-2.94 89.13,-2.67 90.05,-5.33 90.96,-3.04 91.88,-2.47 92.8,-2.27 93.72,-1.57 94.64,-3.65 95.56,-2.97 96.48,-2.52 97.4,-4.19 98.31,-3.15 99.23,-0.19 100.15,7.34 101.07,-5.39 101.99,-6.12 102.91,-5.63 103.83,-4.89 104.75,-5.42 105.67,-5.52 106.58,-5.32 107.5,-1.42 108.42,-5.41 109.34,-2.18 110.26,1.29 111.18,-2.1 112.1,-3.15 113.02,-2.06 113.93,-1.59 114.85,-2.91 115.77,-2.67 116.69,-5.06 " class="primitive"/>
            </g>
          </g>
        </g>
        <g stroke-width="0.3" fill="#000000" fill-opacity="0.000" class="geometry" id="img-dcd95dae-74">
          <g class="color_RGB{Float64}(0.7018800000000001,0.25504499999999997,0.9848349999999999)" stroke-dasharray="none" stroke="#B341FB" id="img-dcd95dae-75">
            <g transform="translate(150.87,94.21)" id="img-dcd95dae-76">
              <path fill="none" d="M-116.69,78.24 L-115.77,77.25 -114.85,58.53 -113.93,63.46 -113.02,65.25 -112.1,67.71 -111.18,31.27 -110.26,46.97 -109.34,53.51 -108.42,57.71 -107.5,30.65 -106.58,41.78 -105.67,50.59 -104.75,53.33 -103.83,12.13 -102.91,29.94 -101.99,38.66 -101.07,46.16 -100.15,14.95 -99.23,29.41 -98.31,36.72 -97.4,40.79 -96.48,1.48 -95.56,17.33 -94.64,26.72 -93.72,33.68 -92.8,8.12 -91.88,20.73 -90.96,29.89 -90.05,32.96 -89.13,3.98 -88.21,16.21 -87.29,24.07 -86.37,27.92 -85.45,5.81 -84.53,15.74 -83.61,25.09 -82.69,28.98 -81.78,-3.1 -80.86,7.1 -79.94,17.77 -79.02,21.79 -78.1,-0.49 -77.18,10.66 -76.26,17.85 -75.34,23.07 -74.42,-2.89 -73.51,2.58 -72.59,11.72 -71.67,16.96 -70.75,-2.64 -69.83,14.87 -68.91,20.1 -67.99,23.13 -67.07,-5.19 -66.16,-1.4 -65.24,7.46 -64.32,12.31 -63.4,-4.64 -62.48,1.8 -61.56,9.67 -60.64,12.52 -59.72,-7.81 -58.8,-2.77 -57.89,3.14 -56.97,9.48 -56.05,-8.42 -55.13,-2.34 -54.21,7.78 -53.29,13.2 -52.37,-9.13 -51.45,-2.22 -50.54,2.76 -49.62,9.88 -48.7,-10.75 -47.78,-2.46 -46.86,3.45 -45.94,8.16 -45.02,-11.66 -44.1,-8.26 -43.18,0.05 -42.27,5.24 -41.35,-13.85 -40.43,-4.78 -39.51,4.55 -38.59,7.05 -37.67,-11.23 -36.75,-5.69 -35.83,6.04 -34.92,5.28 -34,-5.07 -33.08,-2.93 -32.16,4.51 -31.24,5.24 -30.32,-13.02 -29.4,2.99 -28.48,2.61 -27.56,2.53 -26.65,-10.79 -25.73,-6.78 -24.81,-0.15 -23.89,2.33 -22.97,-14.6 -22.05,-6.54 -21.13,-0.84 -20.21,1.78 -19.3,-13.33 -18.38,-6.42 -17.46,1.25 -16.54,1.7 -15.62,-10.89 -14.7,-7.79 -13.78,-3.96 -12.86,1.71 -11.94,-12.17 -11.03,-8.13 -10.11,0.13 -9.19,0.36 -8.27,-19.06 -7.35,-11.4 -6.43,-8.49 -5.51,-3.81 -4.59,-15.78 -3.68,-11.37 -2.76,-3.81 -1.84,-0.96 -0.92,-21.94 0,-11.89 0.92,-9.28 1.84,-3.89 2.76,-18.1 3.68,-13.46 4.59,-3.34 5.51,-4.11 6.43,-17.51 7.35,-10.18 8.27,-9.33 9.19,-3.68 10.11,-13.55 11.03,-10.19 11.94,-2.82 12.86,-1.97 13.78,-19.1 14.7,-12.06 15.62,-8.43 16.54,-1.12 17.46,-13.96 18.38,-10.59 19.3,-6.15 20.21,-0.32 21.13,-15.06 22.05,-9.32 22.97,-0.43 23.89,-7.23 24.81,-15.99 25.73,-8.35 26.65,-4.9 27.56,-5.28 28.48,-18.91 29.4,-14.29 30.32,-10.43 31.24,-6.33 32.16,-5.2 33.08,-10.91 34,-5.71 34.92,-3.12 35.83,-18 36.75,-8.75 37.67,-2.48 38.59,-1.97 39.51,-10.6 40.43,-13.97 41.35,-4.99 42.27,-5.69 43.18,-14.78 44.1,-6.49 45.02,-5.11 45.94,-1.34 46.86,-17.33 47.78,-14.19 48.7,-1.04 49.62,2.82 50.54,-22.16 51.45,-17.29 52.37,-16.72 53.29,-10.36 54.21,-13.75 55.13,-13.02 56.05,2.39 56.97,-7.7 57.89,-20.28 58.8,-16.1 59.72,-10.81 60.64,-11 61.56,-20.51 62.48,-13.46 63.4,-11.52 64.32,-6.11 65.24,-19.06 66.16,-12.56 67.07,-12.37 67.99,-8.86 68.91,-15.56 69.83,-12.32 70.75,-4.99 71.67,-7.4 72.59,-18.74 73.51,-16.1 74.42,-8.61 75.34,-4.66 76.26,-16.78 77.18,-13.28 78.1,-9.57 79.02,-3.17 79.94,-14.24 80.86,-13.23 81.78,-11.32 82.69,-9.05 83.61,-11.74 84.53,-12.43 85.45,-10.92 86.37,-8.01 87.29,-16.05 88.21,-16.12 89.13,-4.11 90.05,-7.46 90.96,-18.69 91.88,-13.33 92.8,-10.49 93.72,-9.41 94.64,-19.24 95.56,-17.4 96.48,-14.63 97.4,-10.58 98.31,-17.81 99.23,-7.16 100.15,-8.96 101.07,-7.82 101.99,-9.53 102.91,-12.1 103.83,-11.01 104.75,-8.09 105.67,-13.81 106.58,-12.79 107.5,-9.15 108.42,-3.68 109.34,-12.94 110.26,-14.73 111.18,-14.9 112.1,-8.32 113.02,-12.79 113.93,-12.07 114.85,-6.98 115.77,-10.01 116.69,-20.63 " class="primitive"/>
            </g>
          </g>
        </g>
        <g stroke-width="0.3" fill="#000000" fill-opacity="0.000" class="geometry" id="img-dcd95dae-77">
          <g class="color_RGB{Float64}(0.45187999999999995,0.172285,0.9716199999999999)" stroke-dasharray="none" stroke="#732CF8" id="img-dcd95dae-78">
            <g transform="translate(150.87,168.81)" id="img-dcd95dae-79">
              <path fill="none" d="M-116.69,3.01 L-115.77,2.4 -114.85,1.79 -113.93,1.4 -113.02,0.55 -112.1,0.82 -111.18,0.8 -110.26,0.65 -109.34,0.54 -108.42,0.46 -107.5,0.36 -106.58,0.28 -105.67,0.21 -104.75,0.15 -103.83,0.21 -102.91,0.13 -101.99,-0.11 -101.07,0.07 -100.15,0.18 -99.23,0.02 -98.31,-0.02 -97.4,-0.29 -96.48,0.77 -95.56,0.53 -94.64,0.71 -93.72,0.57 -92.8,0.58 -91.88,0.6 -90.96,0.53 -90.05,0.5 -89.13,0.49 -88.21,0.25 -87.29,0.46 -86.37,0.37 -85.45,0.18 -84.53,0.19 -83.61,0.21 -82.69,0.34 -81.78,0.03 -80.86,0.09 -79.94,0.31 -79.02,0.11 -78.1,0.27 -77.18,0.25 -76.26,0.11 -75.34,0.1 -74.42,0.18 -73.51,0.14 -72.59,0.22 -71.67,-0.05 -70.75,0.17 -69.83,0.15 -68.91,0.21 -67.99,-0.04 -67.07,0.12 -66.16,0.1 -65.24,-0.14 -64.32,-0.16 -63.4,0.1 -62.48,0.11 -61.56,-0.07 -60.64,0.07 -59.72,-0.21 -58.8,-0.23 -57.89,-0.22 -56.97,-0.21 -56.05,-0.21 -55.13,-0.22 -54.21,-0.23 -53.29,-0.44 -52.37,-0.16 -51.45,-0.2 -50.54,-0.23 -49.62,-0.23 -48.7,-0.19 -47.78,-0.23 -46.86,-0.45 -45.94,-0.22 -45.02,-0.24 -44.1,-0.23 -43.18,-0.51 -42.27,-0.24 -41.35,-0.24 -40.43,-0.26 -39.51,-0.26 -38.59,-0.25 -37.67,0.01 -36.75,0.01 -35.83,0.01 -34.92,0.03 -34,0.01 -33.08,-0.01 -32.16,0.02 -31.24,-0.01 -30.32,-0.17 -29.4,0 -28.48,0 -27.56,0.01 -26.65,0.02 -25.73,0 -24.81,-0.16 -23.89,0 -22.97,-0.03 -22.05,-0.31 -21.13,-0.02 -20.21,-0.04 -19.3,-0.24 -18.38,-0.03 -17.46,-0.07 -16.54,-0.04 -15.62,-0.08 -14.7,-0.07 -13.78,-0.27 -12.86,-0.05 -11.94,-0.06 -11.03,-0.05 -10.11,-0.3 -9.19,-0.06 -8.27,-0.08 -7.35,-0.15 -6.43,-0.09 -5.51,-0.07 -4.59,-0.38 -3.68,-0.09 -2.76,-0.33 -1.84,-0.05 -0.92,-0.12 0,-0.08 0.92,-0.35 1.84,-0.11 2.76,-0.13 3.68,-0.15 4.59,-0.13 5.51,-0.4 6.43,-0.14 7.35,-0.43 8.27,-0.14 9.19,-0.15 10.11,-0.12 11.03,-0.14 11.94,-0.15 12.86,-0.13 13.78,-0.35 14.7,-0.13 15.62,-0.16 16.54,-0.16 17.46,-0.43 18.38,-0.26 19.3,-0.17 20.21,-0.18 21.13,-0.01 22.05,-0.03 22.97,-0 23.89,-0.27 24.81,-0.01 25.73,0.01 26.65,-0 27.56,-0.03 28.48,-0.03 29.4,-0.05 30.32,-0.02 31.24,-0.01 32.16,-0.04 33.08,-0.26 34,-0.06 34.92,0.07 35.83,-0.05 36.75,-0.04 37.67,0.04 38.59,-0.05 39.51,-0.02 40.43,-0.05 41.35,-0.03 42.27,-0.04 43.18,-0.07 44.1,-0.04 45.02,-0.16 45.94,-0.06 46.86,-0.03 47.78,-0.06 48.7,-0.05 49.62,-0.05 50.54,-0.08 51.45,-0.29 52.37,-0.07 53.29,-0.06 54.21,-0.06 55.13,-0.31 56.05,-0.06 56.97,-0.06 57.89,-0.18 58.8,-0.17 59.72,-0.18 60.64,-0.19 61.56,-0.19 62.48,-0.15 63.4,-0.13 64.32,-0.17 65.24,-0.48 66.16,-0.16 67.07,-0.15 67.99,-0.42 68.91,-0.15 69.83,-0.14 70.75,-0.14 71.67,-0.17 72.59,-0.16 73.51,-0.14 74.42,-0.12 75.34,-0.14 76.26,-0.32 77.18,-0.11 78.1,-0.23 79.02,-0.11 79.94,0.05 80.86,0.03 81.78,-0.02 82.69,-0.03 83.61,-0.01 84.53,-0.25 85.45,-0 86.37,-0.01 87.29,-0.23 88.21,-0.05 89.13,-0.05 90.05,-0.04 90.96,-0.04 91.88,-0.06 92.8,-0.05 93.72,-0.04 94.64,-0.08 95.56,-0.05 96.48,-0.14 97.4,-0.07 98.31,-0.26 99.23,0.15 100.15,-0.07 101.07,-0.05 101.99,-0.07 102.91,-0.03 103.83,-0.03 104.75,-0.05 105.67,-0.06 106.58,-0.06 107.5,-0.05 108.42,-0.04 109.34,0.02 110.26,-0.06 111.18,-0.07 112.1,-0.05 113.02,-0.05 113.93,-0.05 114.85,-0.05 115.77,-0.05 116.69,-0.17 " class="primitive"/>
            </g>
          </g>
        </g>
        <g stroke-width="0.3" fill="#000000" fill-opacity="0.000" class="geometry" id="img-dcd95dae-80">
          <g class="color_RGB{Float64}(1.0,0.0,0.0)" stroke-dasharray="none" stroke="#FF0000" id="img-dcd95dae-81">
            <g transform="translate(150.87,163.67)" id="img-dcd95dae-82">
              <path fill="none" d="M-116.69,6.39 L-115.77,4.07 -114.85,3.08 -113.93,3.05 -113.02,2.67 -112.1,1.8 -111.18,1.47 -110.26,1.86 -109.34,1.56 -108.42,1.52 -107.5,0.74 -106.58,0.45 -105.67,1.29 -104.75,0.33 -103.83,0.71 -102.91,0.31 -101.99,0.53 -101.07,0.39 -100.15,-0.39 -99.23,0.28 -98.31,0.12 -97.4,0.06 -96.48,-0.01 -95.56,0.92 -94.64,1.21 -93.72,1.12 -92.8,1.23 -91.88,0.59 -90.96,0.58 -90.05,0.59 -89.13,0.45 -88.21,0.35 -87.29,0.33 -86.37,0.57 -85.45,0.26 -84.53,0.78 -83.61,0.43 -82.69,0.48 -81.78,0.2 -80.86,0.12 -79.94,0.17 -79.02,0.31 -78.1,-0.04 -77.18,0.08 -76.26,0.34 -75.34,0.05 -74.42,0.1 -73.51,0.08 -72.59,0.45 -71.67,0.02 -70.75,0.2 -69.83,0.18 -68.91,1.01 -67.99,0.27 -67.07,0.21 -66.16,0.2 -65.24,0.1 -64.32,0.34 -63.4,-0.09 -62.48,-0.11 -61.56,-0.09 -60.64,-0.21 -59.72,-0.19 -58.8,-0.15 -57.89,0.03 -56.97,0.07 -56.05,-0.09 -55.13,-0.16 -54.21,-0.2 -53.29,-0.2 -52.37,0.01 -51.45,0.05 -50.54,-0.14 -49.62,0.02 -48.7,-0.04 -47.78,-0.25 -46.86,-0.05 -45.94,0 -45.02,-0.19 -44.1,-0.15 -43.18,-0.05 -42.27,-0.36 -41.35,-0.12 -40.43,-0.05 -39.51,-0.16 -38.59,0.71 -37.67,0 -36.75,-0.24 -35.83,-0.09 -34.92,-0.05 -34,0.04 -33.08,0.32 -32.16,0.12 -31.24,-0.12 -30.32,-0.38 -29.4,0.04 -28.48,-0.33 -27.56,-0.25 -26.65,-0.46 -25.73,-0.45 -24.81,0.49 -23.89,-0.37 -22.97,-0.39 -22.05,0.03 -21.13,-0.19 -20.21,0.44 -19.3,0.63 -18.38,-0.21 -17.46,0.69 -16.54,-0.07 -15.62,-0.15 -14.7,-0.22 -13.78,-0.27 -12.86,-0.33 -11.94,0.06 -11.03,0.71 -10.11,2.83 -9.19,0.48 -8.27,-0.44 -7.35,-0.46 -6.43,-0.34 -5.51,-0.51 -4.59,-0.39 -3.68,-1.12 -2.76,-0.17 -1.84,0.02 -0.92,-1.13 0,-0.23 0.92,-0.25 1.84,-0.33 2.76,-0.54 3.68,0.44 4.59,-0.12 5.51,-0.19 6.43,-0.2 7.35,-0.31 8.27,-0.49 9.19,-0.15 10.11,0.43 11.03,-0.3 11.94,-0.45 12.86,-0.39 13.78,-0.17 14.7,-0.27 15.62,0.41 16.54,0.14 17.46,-0.51 18.38,-0.41 19.3,-0.16 20.21,0.92 21.13,-0.45 22.05,-0.53 22.97,-0.41 23.89,-0.5 24.81,-0.5 25.73,-0.55 26.65,-0.49 27.56,-0.5 28.48,-0.4 29.4,-0.45 30.32,0.43 31.24,1.87 32.16,-0.51 33.08,0.21 34,-0.32 34.92,-0.11 35.83,-0.49 36.75,-0.22 37.67,-0.32 38.59,-0.41 39.51,-0.56 40.43,0.45 41.35,-0.29 42.27,-0.55 43.18,-0.34 44.1,-0.5 45.02,-0.55 45.94,-0.42 46.86,-0.48 47.78,-0.47 48.7,-0.57 49.62,-0.48 50.54,-0.36 51.45,-0.44 52.37,-0.42 53.29,-0 54.21,-0.49 55.13,-0.61 56.05,-0.19 56.97,-0.25 57.89,-0.24 58.8,-0.48 59.72,-0.53 60.64,-0.46 61.56,-0.09 62.48,-0.58 63.4,-0.54 64.32,-0.54 65.24,-0.5 66.16,-0.58 67.07,-0.42 67.99,-0.4 68.91,-0.64 69.83,-0.53 70.75,-0.52 71.67,-0.37 72.59,-0.41 73.51,-0.48 74.42,0.28 75.34,-0.37 76.26,-0.37 77.18,-0.62 78.1,-0.48 79.02,-0.62 79.94,-0.58 80.86,-0.57 81.78,-0.64 82.69,-0.36 83.61,-0.11 84.53,-0.4 85.45,-0.14 86.37,-0.54 87.29,-0.6 88.21,-0.33 89.13,-0.62 90.05,-0.52 90.96,-0.56 91.88,-0.57 92.8,-0.4 93.72,0.32 94.64,-0.63 95.56,-0.51 96.48,-0.57 97.4,-0.36 98.31,-0.53 99.23,0.26 100.15,0.32 101.07,-0.65 101.99,-0.45 102.91,-0.43 103.83,-1.15 104.75,-0.29 105.67,-0.39 106.58,-0.6 107.5,-0.49 108.42,-0.43 109.34,-0.42 110.26,0.17 111.18,-0.38 112.1,-0.55 113.02,-0.71 113.93,0.34 114.85,-0.51 115.77,-0.44 116.69,-0.38 " class="primitive"/>
            </g>
          </g>
        </g>
        <g stroke-width="0.3" fill="#000000" fill-opacity="0.000" class="geometry" id="img-dcd95dae-83">
          <g class="color_RGB{Float64}(0.0,0.0,0.0)" stroke-dasharray="none" stroke="#000000" id="img-dcd95dae-84">
            <g transform="translate(150.87,36.03)" id="img-dcd95dae-85">
              <path fill="none" d="M-116.69,125.7 L-115.77,115.6 -114.85,105.51 -113.93,94.39 -113.02,84.13 -112.1,74.09 -111.18,62.65 -110.26,77.22 -109.34,69.55 -108.42,61.86 -107.5,53.78 -106.58,46.68 -105.67,44.21 -104.75,36.86 -103.83,18.21 -102.91,58.5 -101.99,56.9 -101.07,52.77 -100.15,42.82 -99.23,37.55 -98.31,32.4 -97.4,27.26 -96.48,22.1 -95.56,40.77 -94.64,36.84 -93.72,32.27 -92.8,28.11 -91.88,23.98 -90.96,24.76 -90.05,15.52 -89.13,4.17 -88.21,34.18 -87.29,30.74 -86.37,20.22 -85.45,23.68 -84.53,20.32 -83.61,16.92 -82.69,15.3 -81.78,2.02 -80.86,22.03 -79.94,20.25 -79.02,15.96 -78.1,12.94 -77.18,9.64 -76.26,6.86 -75.34,3.09 -74.42,-7.66 -73.51,21.81 -72.59,20.08 -71.67,13.63 -70.75,15.07 -69.83,17.46 -68.91,14.72 -67.99,8.82 -67.07,4.9 -66.16,11.93 -65.24,9.64 -64.32,7.47 -63.4,4.94 -62.48,2.46 -61.56,2.31 -60.64,-1.38 -59.72,-15.92 -58.8,8.48 -57.89,6.32 -56.97,3.89 -56.05,1.12 -55.13,-0.62 -54.21,-2.82 -53.29,4.92 -52.37,1.7 -51.45,6.49 -50.54,5.66 -49.62,2.99 -48.7,-5.21 -47.78,-1.27 -46.86,-9.38 -45.94,-11.52 -45.02,-8.87 -44.1,2.19 -43.18,0.44 -42.27,-2.75 -41.35,-4.61 -40.43,-4.88 -39.51,1.73 -38.59,0.12 -37.67,-1.65 -36.75,3.59 -35.83,4.31 -34.92,0.44 -34,4.51 -33.08,-2.67 -32.16,-1.93 -31.24,-5.9 -30.32,-21.17 -29.4,-2.15 -28.48,-3.62 -27.56,-6.77 -26.65,-8.4 -25.73,-9.79 -24.81,-11.52 -23.89,-12.97 -22.97,-12.9 -22.05,-7.48 -21.13,-1.89 -20.21,-2.35 -19.3,-4.94 -18.38,-6.17 -17.46,-7.79 -16.54,-8.82 -15.62,-22.74 -14.7,0.9 -13.78,1.71 -12.86,0.49 -11.94,-0.81 -11.03,-2.04 -10.11,-3.39 -9.19,-6.76 -8.27,-17.19 -7.35,-11.36 -6.43,-11.21 -5.51,-13.11 -4.59,-13.45 -3.68,-16.02 -2.76,-18.31 -1.84,-18.73 -0.92,-23.5 0,-8.95 0.92,-10.08 1.84,-13.02 2.76,-14.69 3.68,-13.57 4.59,-7.72 5.51,-17.91 6.43,-9.39 7.35,-12.97 8.27,-14.31 9.19,-7.42 10.11,-7.38 11.03,-9.71 11.94,-10.84 12.86,-11.98 13.78,-15.65 14.7,-1.23 15.62,-2.25 16.54,-5.32 17.46,-15.45 18.38,-7.37 19.3,-8.51 20.21,-9.49 21.13,-10.61 22.05,-7.17 22.97,-8.42 23.89,-9.47 24.81,-10.11 25.73,-11.45 26.65,-11.36 27.56,-13.09 28.48,-16.7 29.4,-5.25 30.32,-6.16 31.24,-7.46 32.16,-6.88 33.08,-9.48 34,-10.28 34.92,-11.58 35.83,-10.37 36.75,-8.37 37.67,-7.04 38.59,-10.54 39.51,-7.4 40.43,-9.63 41.35,-12.95 42.27,-13.76 43.18,-17.1 44.1,-4.98 45.02,-7.33 45.94,-8.22 46.86,-16.48 47.78,-9.91 48.7,-20.05 49.62,-11.58 50.54,-20.04 51.45,-18.63 52.37,-18.99 53.29,-9.28 54.21,-21.36 55.13,-21.67 56.05,-20.65 56.97,-13.58 57.89,-17.79 58.8,-16.62 59.72,-17.59 60.64,-16.59 61.56,-19.2 62.48,-20.1 63.4,-20.92 64.32,-19.52 65.24,-23.54 66.16,-18.42 67.07,-17.61 67.99,-20.5 68.91,-21.35 69.83,-22.25 70.75,-14.4 71.67,-24.01 72.59,-17.45 73.51,-17.73 74.42,-19.34 75.34,-10.1 76.26,-20.17 77.18,-20.99 78.1,-21.71 79.02,-22.58 79.94,-23.33 80.86,-11.21 81.78,-21.04 82.69,-12.71 83.61,-11.41 84.53,-15.04 85.45,-15.42 86.37,-16.11 87.29,-19.07 88.21,-10.35 89.13,-10.73 90.05,-11.42 90.96,-10.45 91.88,-13.23 92.8,-13.5 93.72,-14.2 94.64,-14.87 95.56,-12.44 96.48,-10.6 97.4,-13.41 98.31,-14.16 99.23,-8.68 100.15,-15.55 101.07,-16.35 101.99,-20.39 102.91,-10.1 103.83,-8.91 104.75,-11.86 105.67,-12.02 106.58,-11.55 107.5,-11.08 108.42,-13.9 109.34,-7.46 110.26,-2.64 111.18,-12.05 112.1,-9.82 113.02,12.41 113.93,-7.55 114.85,-2.93 115.77,-16.9 116.69,-29.03 " class="primitive"/>
            </g>
          </g>
        </g>
      </g>
    </g>
  </g>
  <g class="guide ylabels" font-size="2.82" font-family="'PT Sans Caption','Helvetica Neue','Helvetica',sans-serif" fill="#6C606B" id="img-dcd95dae-86">
    <g transform="translate(29.34,181.91)" id="img-dcd95dae-87">
      <g class="primitive">
        <text text-anchor="end" dy="0.35em">0.00000000</text>
      </g>
    </g>
    <g transform="translate(29.34,172.71)" id="img-dcd95dae-88">
      <g class="primitive">
        <text text-anchor="end" dy="0.35em">0.14756951</text>
      </g>
    </g>
    <g transform="translate(29.34,163.5)" id="img-dcd95dae-89">
      <g class="primitive">
        <text text-anchor="end" dy="0.35em">0.29513902</text>
      </g>
    </g>
    <g transform="translate(29.34,154.3)" id="img-dcd95dae-90">
      <g class="primitive">
        <text text-anchor="end" dy="0.35em">0.44270853</text>
      </g>
    </g>
    <g transform="translate(29.34,145.09)" id="img-dcd95dae-91">
      <g class="primitive">
        <text text-anchor="end" dy="0.35em">0.59027805</text>
      </g>
    </g>
    <g transform="translate(29.34,135.88)" id="img-dcd95dae-92">
      <g class="primitive">
        <text text-anchor="end" dy="0.35em">0.73784756</text>
      </g>
    </g>
    <g transform="translate(29.34,126.68)" id="img-dcd95dae-93">
      <g class="primitive">
        <text text-anchor="end" dy="0.35em">0.88541707</text>
      </g>
    </g>
    <g transform="translate(29.34,117.47)" id="img-dcd95dae-94">
      <g class="primitive">
        <text text-anchor="end" dy="0.35em">1.03298658</text>
      </g>
    </g>
    <g transform="translate(29.34,108.27)" id="img-dcd95dae-95">
      <g class="primitive">
        <text text-anchor="end" dy="0.35em">1.18055609</text>
      </g>
    </g>
    <g transform="translate(29.34,99.06)" id="img-dcd95dae-96">
      <g class="primitive">
        <text text-anchor="end" dy="0.35em">1.32812560</text>
      </g>
    </g>
    <g transform="translate(29.34,89.85)" id="img-dcd95dae-97">
      <g class="primitive">
        <text text-anchor="end" dy="0.35em">1.47569512</text>
      </g>
    </g>
    <g transform="translate(29.34,80.65)" id="img-dcd95dae-98">
      <g class="primitive">
        <text text-anchor="end" dy="0.35em">1.62326463</text>
      </g>
    </g>
    <g transform="translate(29.34,71.44)" id="img-dcd95dae-99">
      <g class="primitive">
        <text text-anchor="end" dy="0.35em">1.77083414</text>
      </g>
    </g>
    <g transform="translate(29.34,62.24)" id="img-dcd95dae-100">
      <g class="primitive">
        <text text-anchor="end" dy="0.35em">1.91840365</text>
      </g>
    </g>
    <g transform="translate(29.34,53.03)" id="img-dcd95dae-101">
      <g class="primitive">
        <text text-anchor="end" dy="0.35em">2.06597316</text>
      </g>
    </g>
    <g transform="translate(29.34,43.82)" id="img-dcd95dae-102">
      <g class="primitive">
        <text text-anchor="end" dy="0.35em">2.21354267</text>
      </g>
    </g>
    <g transform="translate(29.34,34.62)" id="img-dcd95dae-103">
      <g class="primitive">
        <text text-anchor="end" dy="0.35em">2.36111219</text>
      </g>
    </g>
    <g transform="translate(29.34,25.41)" id="img-dcd95dae-104">
      <g class="primitive">
        <text text-anchor="end" dy="0.35em">2.50868170</text>
      </g>
    </g>
    <g transform="translate(29.34,16.21)" id="img-dcd95dae-105">
      <g class="primitive">
        <text text-anchor="end" dy="0.35em">2.65625121</text>
      </g>
    </g>
    <g transform="translate(29.34,7)" id="img-dcd95dae-106">
      <g class="primitive">
        <text text-anchor="end" dy="0.35em">2.80382072</text>
      </g>
    </g>
  </g>
  <g font-size="3.88" font-family="'PT Sans','Helvetica Neue','Helvetica',sans-serif" fill="#564A55" stroke="#000000" stroke-opacity="0.000" id="img-dcd95dae-107">
    <g transform="translate(8.81,92.46)" id="img-dcd95dae-108">
      <g class="primitive">
        <text text-anchor="middle" dy="0.35em" transform="rotate(-90,0, 2)">GFLOPS</text>
      </g>
    </g>
  </g>
</g>
<defs>
  <clipPath id="img-dcd95dae-27">
    <path d="M30.34,5 L273.24,5 273.24,183.92 30.34,183.92 " />
  </clipPath>
</defs>
</svg>
