<?xml version="1.0" encoding="utf-8"?>
<!DOCTYPE svg PUBLIC "-//W3C//DTD SVG 1.1//EN" "http://www.w3.org/Graphics/SVG/1.1/DTD/svg11.dtd">
<svg class="marks" width="1063" height="647" viewBox="0 0 1063 647" version="1.1" xmlns="http://www.w3.org/2000/svg" xmlns:xlink="http://www.w3.org/1999/xlink"><rect width="1063" height="647" style="fill: white;"></rect><g transform="translate(39,10)"><g class="mark-group role-frame root"><g transform="translate(0,0)"><path class="background" d="M0.5,0.5h900v600h-900Z" style="fill: none; stroke: #ddd;"></path><g><g class="mark-group role-axis"><g transform="translate(0.5,600.5)"><path class="background" d="M0,0h0v0h0Z" style="pointer-events: none; fill: none;"></path><g><g class="mark-rule role-axis-grid" style="pointer-events: none;"><line transform="translate(0,-600)" x2="0" y2="600" style="fill: none; stroke: #ddd; stroke-width: 1; opacity: 1;"></line><line transform="translate(35,-600)" x2="0" y2="600" style="fill: none; stroke: #ddd; stroke-width: 1; opacity: 1;"></line><line transform="translate(69,-600)" x2="0" y2="600" style="fill: none; stroke: #ddd; stroke-width: 1; opacity: 1;"></line><line transform="translate(104,-600)" x2="0" y2="600" style="fill: none; stroke: #ddd; stroke-width: 1; opacity: 1;"></line><line transform="translate(138,-600)" x2="0" y2="600" style="fill: none; stroke: #ddd; stroke-width: 1; opacity: 1;"></line><line transform="translate(173,-600)" x2="0" y2="600" style="fill: none; stroke: #ddd; stroke-width: 1; opacity: 1;"></line><line transform="translate(208,-600)" x2="0" y2="600" style="fill: none; stroke: #ddd; stroke-width: 1; opacity: 1;"></line><line transform="translate(242,-600)" x2="0" y2="600" style="fill: none; stroke: #ddd; stroke-width: 1; opacity: 1;"></line><line transform="translate(277,-600)" x2="0" y2="600" style="fill: none; stroke: #ddd; stroke-width: 1; opacity: 1;"></line><line transform="translate(312,-600)" x2="0" y2="600" style="fill: none; stroke: #ddd; stroke-width: 1; opacity: 1;"></line><line transform="translate(346,-600)" x2="0" y2="600" style="fill: none; stroke: #ddd; stroke-width: 1; opacity: 1;"></line><line transform="translate(381,-600)" x2="0" y2="600" style="fill: none; stroke: #ddd; stroke-width: 1; opacity: 1;"></line><line transform="translate(415,-600)" x2="0" y2="600" style="fill: none; stroke: #ddd; stroke-width: 1; opacity: 1;"></line><line transform="translate(450,-600)" x2="0" y2="600" style="fill: none; stroke: #ddd; stroke-width: 1; opacity: 1;"></line><line transform="translate(485,-600)" x2="0" y2="600" style="fill: none; stroke: #ddd; stroke-width: 1; opacity: 1;"></line><line transform="translate(519,-600)" x2="0" y2="600" style="fill: none; stroke: #ddd; stroke-width: 1; opacity: 1;"></line><line transform="translate(554,-600)" x2="0" y2="600" style="fill: none; stroke: #ddd; stroke-width: 1; opacity: 1;"></line><line transform="translate(588,-600)" x2="0" y2="600" style="fill: none; stroke: #ddd; stroke-width: 1; opacity: 1;"></line><line transform="translate(623,-600)" x2="0" y2="600" style="fill: none; stroke: #ddd; stroke-width: 1; opacity: 1;"></line><line transform="translate(658,-600)" x2="0" y2="600" style="fill: none; stroke: #ddd; stroke-width: 1; opacity: 1;"></line><line transform="translate(692,-600)" x2="0" y2="600" style="fill: none; stroke: #ddd; stroke-width: 1; opacity: 1;"></line><line transform="translate(727,-600)" x2="0" y2="600" style="fill: none; stroke: #ddd; stroke-width: 1; opacity: 1;"></line><line transform="translate(762,-600)" x2="0" y2="600" style="fill: none; stroke: #ddd; stroke-width: 1; opacity: 1;"></line><line transform="translate(796,-600)" x2="0" y2="600" style="fill: none; stroke: #ddd; stroke-width: 1; opacity: 1;"></line><line transform="translate(831,-600)" x2="0" y2="600" style="fill: none; stroke: #ddd; stroke-width: 1; opacity: 1;"></line><line transform="translate(865,-600)" x2="0" y2="600" style="fill: none; stroke: #ddd; stroke-width: 1; opacity: 1;"></line><line transform="translate(900,-600)" x2="0" y2="600" style="fill: none; stroke: #ddd; stroke-width: 1; opacity: 1;"></line></g></g><path class="foreground" d="" style="pointer-events: none; display: none; fill: none;"></path></g></g><g class="mark-group role-axis"><g transform="translate(0.5,0.5)"><path class="background" d="M0,0h0v0h0Z" style="pointer-events: none; fill: none;"></path><g><g class="mark-rule role-axis-grid" style="pointer-events: none;"><line transform="translate(0,600)" x2="900" y2="0" style="fill: none; stroke: #ddd; stroke-width: 1; opacity: 1;"></line><line transform="translate(0,563)" x2="900" y2="0" style="fill: none; stroke: #ddd; stroke-width: 1; opacity: 1;"></line><line transform="translate(0,525)" x2="900" y2="0" style="fill: none; stroke: #ddd; stroke-width: 1; opacity: 1;"></line><line transform="translate(0,488)" x2="900" y2="0" style="fill: none; stroke: #ddd; stroke-width: 1; opacity: 1;"></line><line transform="translate(0,450)" x2="900" y2="0" style="fill: none; stroke: #ddd; stroke-width: 1; opacity: 1;"></line><line transform="translate(0,413)" x2="900" y2="0" style="fill: none; stroke: #ddd; stroke-width: 1; opacity: 1;"></line><line transform="translate(0,375)" x2="900" y2="0" style="fill: none; stroke: #ddd; stroke-width: 1; opacity: 1;"></line><line transform="translate(0,338)" x2="900" y2="0" style="fill: none; stroke: #ddd; stroke-width: 1; opacity: 1;"></line><line transform="translate(0,300)" x2="900" y2="0" style="fill: none; stroke: #ddd; stroke-width: 1; opacity: 1;"></line><line transform="translate(0,263)" x2="900" y2="0" style="fill: none; stroke: #ddd; stroke-width: 1; opacity: 1;"></line><line transform="translate(0,225)" x2="900" y2="0" style="fill: none; stroke: #ddd; stroke-width: 1; opacity: 1;"></line><line transform="translate(0,188)" x2="900" y2="0" style="fill: none; stroke: #ddd; stroke-width: 1; opacity: 1;"></line><line transform="translate(0,150)" x2="900" y2="0" style="fill: none; stroke: #ddd; stroke-width: 1; opacity: 1;"></line><line transform="translate(0,113)" x2="900" y2="0" style="fill: none; stroke: #ddd; stroke-width: 1; opacity: 1;"></line><line transform="translate(0,75)" x2="900" y2="0" style="fill: none; stroke: #ddd; stroke-width: 1; opacity: 1;"></line><line transform="translate(0,38)" x2="900" y2="0" style="fill: none; stroke: #ddd; stroke-width: 1; opacity: 1;"></line><line transform="translate(0,0)" x2="900" y2="0" style="fill: none; stroke: #ddd; stroke-width: 1; opacity: 1;"></line></g></g><path class="foreground" d="" style="pointer-events: none; display: none; fill: none;"></path></g></g><g class="mark-group role-axis"><g transform="translate(0.5,600.5)"><path class="background" d="M0,0h0v0h0Z" style="pointer-events: none; fill: none;"></path><g><g class="mark-rule role-axis-tick" style="pointer-events: none;"><line transform="translate(0,0)" x2="0" y2="5" style="fill: none; stroke: #888; stroke-width: 1; opacity: 1;"></line><line transform="translate(35,0)" x2="0" y2="5" style="fill: none; stroke: #888; stroke-width: 1; opacity: 1;"></line><line transform="translate(69,0)" x2="0" y2="5" style="fill: none; stroke: #888; stroke-width: 1; opacity: 1;"></line><line transform="translate(104,0)" x2="0" y2="5" style="fill: none; stroke: #888; stroke-width: 1; opacity: 1;"></line><line transform="translate(138,0)" x2="0" y2="5" style="fill: none; stroke: #888; stroke-width: 1; opacity: 1;"></line><line transform="translate(173,0)" x2="0" y2="5" style="fill: none; stroke: #888; stroke-width: 1; opacity: 1;"></line><line transform="translate(208,0)" x2="0" y2="5" style="fill: none; stroke: #888; stroke-width: 1; opacity: 1;"></line><line transform="translate(242,0)" x2="0" y2="5" style="fill: none; stroke: #888; stroke-width: 1; opacity: 1;"></line><line transform="translate(277,0)" x2="0" y2="5" style="fill: none; stroke: #888; stroke-width: 1; opacity: 1;"></line><line transform="translate(312,0)" x2="0" y2="5" style="fill: none; stroke: #888; stroke-width: 1; opacity: 1;"></line><line transform="translate(346,0)" x2="0" y2="5" style="fill: none; stroke: #888; stroke-width: 1; opacity: 1;"></line><line transform="translate(381,0)" x2="0" y2="5" style="fill: none; stroke: #888; stroke-width: 1; opacity: 1;"></line><line transform="translate(415,0)" x2="0" y2="5" style="fill: none; stroke: #888; stroke-width: 1; opacity: 1;"></line><line transform="translate(450,0)" x2="0" y2="5" style="fill: none; stroke: #888; stroke-width: 1; opacity: 1;"></line><line transform="translate(485,0)" x2="0" y2="5" style="fill: none; stroke: #888; stroke-width: 1; opacity: 1;"></line><line transform="translate(519,0)" x2="0" y2="5" style="fill: none; stroke: #888; stroke-width: 1; opacity: 1;"></line><line transform="translate(554,0)" x2="0" y2="5" style="fill: none; stroke: #888; stroke-width: 1; opacity: 1;"></line><line transform="translate(588,0)" x2="0" y2="5" style="fill: none; stroke: #888; stroke-width: 1; opacity: 1;"></line><line transform="translate(623,0)" x2="0" y2="5" style="fill: none; stroke: #888; stroke-width: 1; opacity: 1;"></line><line transform="translate(658,0)" x2="0" y2="5" style="fill: none; stroke: #888; stroke-width: 1; opacity: 1;"></line><line transform="translate(692,0)" x2="0" y2="5" style="fill: none; stroke: #888; stroke-width: 1; opacity: 1;"></line><line transform="translate(727,0)" x2="0" y2="5" style="fill: none; stroke: #888; stroke-width: 1; opacity: 1;"></line><line transform="translate(762,0)" x2="0" y2="5" style="fill: none; stroke: #888; stroke-width: 1; opacity: 1;"></line><line transform="translate(796,0)" x2="0" y2="5" style="fill: none; stroke: #888; stroke-width: 1; opacity: 1;"></line><line transform="translate(831,0)" x2="0" y2="5" style="fill: none; stroke: #888; stroke-width: 1; opacity: 1;"></line><line transform="translate(865,0)" x2="0" y2="5" style="fill: none; stroke: #888; stroke-width: 1; opacity: 1;"></line><line transform="translate(900,0)" x2="0" y2="5" style="fill: none; stroke: #888; stroke-width: 1; opacity: 1;"></line></g><g class="mark-text role-axis-label" style="pointer-events: none;"><text text-anchor="start" transform="translate(0,15)" style="font-family: sans-serif; font-size: 10px; fill: #000; opacity: 1;">0</text><text text-anchor="middle" transform="translate(34.61538461538462,15)" style="font-family: sans-serif; font-size: 10px; fill: #000; opacity: 1;">10</text><text text-anchor="middle" transform="translate(69.23076923076924,15)" style="font-family: sans-serif; font-size: 10px; fill: #000; opacity: 1;">20</text><text text-anchor="middle" transform="translate(103.84615384615385,15)" style="font-family: sans-serif; font-size: 10px; fill: #000; opacity: 1;">30</text><text text-anchor="middle" transform="translate(138.46153846153848,15)" style="font-family: sans-serif; font-size: 10px; fill: #000; opacity: 1;">40</text><text text-anchor="middle" transform="translate(173.0769230769231,15)" style="font-family: sans-serif; font-size: 10px; fill: #000; opacity: 1;">50</text><text text-anchor="middle" transform="translate(207.6923076923077,15)" style="font-family: sans-serif; font-size: 10px; fill: #000; opacity: 1;">60</text><text text-anchor="middle" transform="translate(242.3076923076923,15)" style="font-family: sans-serif; font-size: 10px; fill: #000; opacity: 1;">70</text><text text-anchor="middle" transform="translate(276.92307692307696,15)" style="font-family: sans-serif; font-size: 10px; fill: #000; opacity: 1;">80</text><text text-anchor="middle" transform="translate(311.53846153846155,15)" style="font-family: sans-serif; font-size: 10px; fill: #000; opacity: 1;">90</text><text text-anchor="middle" transform="translate(346.1538461538462,15)" style="font-family: sans-serif; font-size: 10px; fill: #000; opacity: 1;">100</text><text text-anchor="middle" transform="translate(380.7692307692308,15)" style="font-family: sans-serif; font-size: 10px; fill: #000; opacity: 1;">110</text><text text-anchor="middle" transform="translate(415.3846153846154,15)" style="font-family: sans-serif; font-size: 10px; fill: #000; opacity: 1;">120</text><text text-anchor="middle" transform="translate(450,15)" style="font-family: sans-serif; font-size: 10px; fill: #000; opacity: 1;">130</text><text text-anchor="middle" transform="translate(484.6153846153846,15)" style="font-family: sans-serif; font-size: 10px; fill: #000; opacity: 1;">140</text><text text-anchor="middle" transform="translate(519.2307692307692,15)" style="font-family: sans-serif; font-size: 10px; fill: #000; opacity: 1;">150</text><text text-anchor="middle" transform="translate(553.8461538461539,15)" style="font-family: sans-serif; font-size: 10px; fill: #000; opacity: 1;">160</text><text text-anchor="middle" transform="translate(588.4615384615385,15)" style="font-family: sans-serif; font-size: 10px; fill: #000; opacity: 1;">170</text><text text-anchor="middle" transform="translate(623.0769230769231,15)" style="font-family: sans-serif; font-size: 10px; fill: #000; opacity: 1;">180</text><text text-anchor="middle" transform="translate(657.6923076923076,15)" style="font-family: sans-serif; font-size: 10px; fill: #000; opacity: 1;">190</text><text text-anchor="middle" transform="translate(692.3076923076924,15)" style="font-family: sans-serif; font-size: 10px; fill: #000; opacity: 1;">200</text><text text-anchor="middle" transform="translate(726.9230769230769,15)" style="font-family: sans-serif; font-size: 10px; fill: #000; opacity: 1;">210</text><text text-anchor="middle" transform="translate(761.5384615384615,15)" style="font-family: sans-serif; font-size: 10px; fill: #000; opacity: 1;">220</text><text text-anchor="middle" transform="translate(796.1538461538461,15)" style="font-family: sans-serif; font-size: 10px; fill: #000; opacity: 1;">230</text><text text-anchor="middle" transform="translate(830.7692307692308,15)" style="font-family: sans-serif; font-size: 10px; fill: #000; opacity: 1;">240</text><text text-anchor="middle" transform="translate(865.3846153846154,15)" style="font-family: sans-serif; font-size: 10px; fill: #000; opacity: 1;">250</text><text text-anchor="end" transform="translate(900,15)" style="font-family: sans-serif; font-size: 10px; fill: #000; opacity: 1;">260</text></g><g class="mark-rule role-axis-domain" style="pointer-events: none;"><line transform="translate(0,0)" x2="900" y2="0" style="fill: none; stroke: #888; stroke-width: 1; opacity: 1;"></line></g><g class="mark-text role-axis-title" style="pointer-events: none;"><text text-anchor="middle" transform="translate(450,30)" style="font-family: sans-serif; font-size: 11px; font-weight: bold; fill: #000; opacity: 1;">Size</text></g></g><path class="foreground" d="" style="pointer-events: none; display: none; fill: none;"></path></g></g><g class="mark-group role-axis"><g transform="translate(0.5,0.5)"><path class="background" d="M0,0h0v0h0Z" style="pointer-events: none; fill: none;"></path><g><g class="mark-rule role-axis-tick" style="pointer-events: none;"><line transform="translate(0,600)" x2="-5" y2="0" style="fill: none; stroke: #888; stroke-width: 1; opacity: 1;"></line><line transform="translate(0,563)" x2="-5" y2="0" style="fill: none; stroke: #888; stroke-width: 1; opacity: 1;"></line><line transform="translate(0,525)" x2="-5" y2="0" style="fill: none; stroke: #888; stroke-width: 1; opacity: 1;"></line><line transform="translate(0,488)" x2="-5" y2="0" style="fill: none; stroke: #888; stroke-width: 1; opacity: 1;"></line><line transform="translate(0,450)" x2="-5" y2="0" style="fill: none; stroke: #888; stroke-width: 1; opacity: 1;"></line><line transform="translate(0,413)" x2="-5" y2="0" style="fill: none; stroke: #888; stroke-width: 1; opacity: 1;"></line><line transform="translate(0,375)" x2="-5" y2="0" style="fill: none; stroke: #888; stroke-width: 1; opacity: 1;"></line><line transform="translate(0,338)" x2="-5" y2="0" style="fill: none; stroke: #888; stroke-width: 1; opacity: 1;"></line><line transform="translate(0,300)" x2="-5" y2="0" style="fill: none; stroke: #888; stroke-width: 1; opacity: 1;"></line><line transform="translate(0,263)" x2="-5" y2="0" style="fill: none; stroke: #888; stroke-width: 1; opacity: 1;"></line><line transform="translate(0,225)" x2="-5" y2="0" style="fill: none; stroke: #888; stroke-width: 1; opacity: 1;"></line><line transform="translate(0,188)" x2="-5" y2="0" style="fill: none; stroke: #888; stroke-width: 1; opacity: 1;"></line><line transform="translate(0,150)" x2="-5" y2="0" style="fill: none; stroke: #888; stroke-width: 1; opacity: 1;"></line><line transform="translate(0,113)" x2="-5" y2="0" style="fill: none; stroke: #888; stroke-width: 1; opacity: 1;"></line><line transform="translate(0,75)" x2="-5" y2="0" style="fill: none; stroke: #888; stroke-width: 1; opacity: 1;"></line><line transform="translate(0,38)" x2="-5" y2="0" style="fill: none; stroke: #888; stroke-width: 1; opacity: 1;"></line><line transform="translate(0,0)" x2="-5" y2="0" style="fill: none; stroke: #888; stroke-width: 1; opacity: 1;"></line></g><g class="mark-text role-axis-label" style="pointer-events: none;"><text text-anchor="end" transform="translate(-7,603)" style="font-family: sans-serif; font-size: 10px; fill: #000; opacity: 1;">0</text><text text-anchor="end" transform="translate(-7,565.5)" style="font-family: sans-serif; font-size: 10px; fill: #000; opacity: 1;">5</text><text text-anchor="end" transform="translate(-7,528)" style="font-family: sans-serif; font-size: 10px; fill: #000; opacity: 1;">10</text><text text-anchor="end" transform="translate(-7,490.5)" style="font-family: sans-serif; font-size: 10px; fill: #000; opacity: 1;">15</text><text text-anchor="end" transform="translate(-7,453)" style="font-family: sans-serif; font-size: 10px; fill: #000; opacity: 1;">20</text><text text-anchor="end" transform="translate(-7,415.5)" style="font-family: sans-serif; font-size: 10px; fill: #000; opacity: 1;">25</text><text text-anchor="end" transform="translate(-7,378)" style="font-family: sans-serif; font-size: 10px; fill: #000; opacity: 1;">30</text><text text-anchor="end" transform="translate(-7,340.5)" style="font-family: sans-serif; font-size: 10px; fill: #000; opacity: 1;">35</text><text text-anchor="end" transform="translate(-7,303)" style="font-family: sans-serif; font-size: 10px; fill: #000; opacity: 1;">40</text><text text-anchor="end" transform="translate(-7,265.5)" style="font-family: sans-serif; font-size: 10px; fill: #000; opacity: 1;">45</text><text text-anchor="end" transform="translate(-7,228)" style="font-family: sans-serif; font-size: 10px; fill: #000; opacity: 1;">50</text><text text-anchor="end" transform="translate(-7,190.5)" style="font-family: sans-serif; font-size: 10px; fill: #000; opacity: 1;">55</text><text text-anchor="end" transform="translate(-7,153)" style="font-family: sans-serif; font-size: 10px; fill: #000; opacity: 1;">60</text><text text-anchor="end" transform="translate(-7,115.5)" style="font-family: sans-serif; font-size: 10px; fill: #000; opacity: 1;">65</text><text text-anchor="end" transform="translate(-7,78)" style="font-family: sans-serif; font-size: 10px; fill: #000; opacity: 1;">70</text><text text-anchor="end" transform="translate(-7,40.5)" style="font-family: sans-serif; font-size: 10px; fill: #000; opacity: 1;">75</text><text text-anchor="end" transform="translate(-7,3)" style="font-family: sans-serif; font-size: 10px; fill: #000; opacity: 1;">80</text></g><g class="mark-rule role-axis-domain" style="pointer-events: none;"><line transform="translate(0,600)" x2="0" y2="-600" style="fill: none; stroke: #888; stroke-width: 1; opacity: 1;"></line></g><g class="mark-text role-axis-title" style="pointer-events: none;"><text text-anchor="middle" transform="translate(-23,300) rotate(-90) translate(0,-2)" style="font-family: sans-serif; font-size: 11px; font-weight: bold; fill: #000; opacity: 1;">GFLOPS</text></g></g><path class="foreground" d="" style="pointer-events: none; display: none; fill: none;"></path></g></g><g class="mark-group role-scope pathgroup"><g transform="translate(0,0)"><path class="background" d="M0,0h900v600h-900Z" style="fill: none;"></path><g><g class="mark-line role-mark marks"><path d="M6.923076923076923,591.47017747045L10.384615384615385,591.0493306630126L13.846153846153847,591.0400121162785L17.30769230769231,590.9027414881216L20.76923076923077,590.8116641901931L24.230769230769234,590.7560187483294L27.692307692307693,590.7169228127415L31.153846153846157,587.5817118495846L34.61538461538462,590.681868011401L38.07692307692308,590.6624500665779L41.53846153846154,590.9048877146631L45,587.9474773464593L48.46153846153847,590.8491333713076L51.92307692307693,590.8273381294964L55.38461538461539,590.8078994614003L58.84615384615385,590.7898519027682L62.307692307692314,587.7477477477477L65.76923076923077,587.7529435242466L69.23076923076924,590.7516547284432L72.6923076923077,590.7413963444756L76.15384615384616,590.7336776983602L79.61538461538461,590.7247223845704L83.07692307692308,590.719656283566L86.53846153846155,590.7124125874126L90,590.7172859450727L93.46153846153847,590.7080375887234L96.92307692307693,587.5697409326425L100.38461538461539,590.6952880944117L103.84615384615385,587.5811688311688L107.3076923076923,590.7049385525717L110.76923076923077,590.6995298475566L114.23076923076923,590.6744912351401L117.6923076923077,590.6750601037581L121.15384615384615,590.6748164069497L124.61538461538463,590.6622965641953L128.07692307692307,587.4992838215284L131.53846153846155,590.655737704918L135,590.6567980343033L138.46153846153848,590.6653244257344L141.9230769230769,587.4757494302577L145.3846153846154,590.6478439851969L148.84615384615384,590.641969672912L152.30769230769232,587.4605029210059L155.76923076923077,590.6416506578709L159.23076923076923,590.6498232480766L162.69230769230768,590.6339163978583L166.15384615384616,590.6350420811017L169.6153846153846,590.6322867896814L173.0769230769231,590.635741355504L176.53846153846155,590.6266958733748L180,590.6292299747221L183.46153846153845,590.6413154250176L186.92307692307693,590.622020431328L190.3846153846154,590.6224926450923L193.84615384615387,590.6244284474875L197.3076923076923,590.6155702052467L200.76923076923077,590.6146608315098L204.23076923076923,590.6205224117163L207.6923076923077,590.6167589999386L211.15384615384616,590.6104162131138L214.6153846153846,590.6098402115186L218.07692307692307,590.6071813052193L221.53846153846155,587.3925114067065L225,590.6053801883502L228.46153846153845,587.3861003861005L231.9230769230769,590.6094029434445L235.3846153846154,590.6037230651536L238.84615384615384,587.3877519218782L242.3076923076923,590.6072405809304L245.76923076923075,590.602574787262L249.23076923076925,590.6032215413924L252.6923076923077,590.6027758184307L256.15384615384613,590.60107156319L259.6153846153846,590.6015345503151L263.0769230769231,590.5966776051177L266.53846153846155,590.5977848534222L270,590.5989359252482L273.46153846153845,590.6006815658295L276.92307692307696,590.5938767982294L280.3846153846154,590.5964826493104L283.8461538461538,590.5948240869747L287.30769230769226,587.3653605489147L290.7692307692308,590.5929837402624L294.2307692307692,587.3628163797243L297.6923076923077,587.3610776035384L301.15384615384613,590.5931621015693L304.61538461538464,590.5930774287592L308.0769230769231,590.5878145386766L311.53846153846155,590.5899772209567L315,590.589437234839L318.46153846153845,590.5892407105422L321.9230769230769,590.5846254333089L325.38461538461536,590.5859397849104L328.8461538461538,590.5868073166342L332.3076923076923,590.5867273368154L335.7692307692308,590.5886379326575L339.2307692307692,590.5851824514463L342.6923076923077,590.5846242521964L346.1538461538462,590.5842909047942L349.61538461538464,587.3436724565757L353.0769230769231,587.3469290422274L356.53846153846155,587.3411617721376L360,590.5844439589251L363.46153846153845,590.5828571237163L366.9230769230769,590.5842956575462L370.38461538461536,590.5832462455488L373.84615384615387,590.5836019071379L377.3076923076923,590.5804268205476L380.7692307692308,590.5818468187979L384.2307692307692,590.5788629344208L387.69230769230774,590.5815288762212L391.1538461538462,590.5797371892793L394.6153846153846,590.5793426536054L398.07692307692304,590.5784843439197L401.53846153846155,590.579514380786L405,590.5789804653975L408.46153846153845,587.3272705208832L411.9230769230769,587.331409626719L415.3846153846154,587.3309412089428L418.84615384615387,590.5797907772428L422.3076923076923,590.5765659294277L425.7692307692308,590.5788729505194L429.2307692307692,590.576166899005L432.6923076923077,590.5770204050743L436.15384615384613,590.5752119679848L439.6153846153846,590.5759624770293L443.0769230769231,590.5751565573623L446.53846153846155,590.5755871026203L450,590.5753838078992L453.46153846153845,590.5748189724615L456.9230769230769,590.574028894499L460.38461538461536,590.5747965848827L463.8461538461538,590.5740259633318L467.3076923076923,587.3249721810089L470.7692307692308,587.3208131488819L474.2307692307692,587.3201919153919L477.6923076923077,590.5726066648806L481.15384615384613,590.5723806826662L484.6153846153846,590.5742218735384L488.07692307692304,590.5718374451847L491.5384615384615,590.5717994887837L495.00000000000006,590.5722382932562L498.4615384615385,590.5739069669603L501.92307692307696,590.572345723299L505.3846153846154,590.5710538823685L508.8461538461538,590.5726024725491L512.3076923076923,590.5714343589848L515.7692307692307,590.5723057093184L519.2307692307692,590.5720680158537L522.6923076923077,590.5711623849015L526.1538461538462,587.3130394335624L529.6153846153846,587.3144330773252L533.0769230769231,587.3147208121827L536.5384615384615,590.5703685119456L540,590.5708815753487L543.4615384615385,590.5695130441045L546.9230769230769,590.5709994489966L550.3846153846155,590.5656590343003L553.8461538461539,590.5706708574796L557.3076923076924,590.5685868550898L560.7692307692308,590.5662063637952L564.2307692307692,590.5694510175107L567.6923076923076,590.5692693551581L571.1538461538461,590.5686298217347L574.6153846153845,590.5663330925729L578.0769230769231,590.5674432855142L581.5384615384615,590.5694653367786L585,587.3119277083247L588.4615384615385,587.3105056168167L591.9230769230769,587.3075567856852L595.3846153846154,590.5678126945785L598.8461538461538,590.5674734026776L602.3076923076923,590.566357277966L605.7692307692308,590.5672484599589L609.2307692307693,590.5670147414279L612.6923076923077,590.567008300764L616.1538461538462,590.5671554663055L619.6153846153846,590.5666234087115L623.0769230769231,590.5666624801617L626.5384615384615,590.5655920802992L630,590.5658088728053L633.4615384615385,590.565686818225L636.9230769230769,590.5654224604074L640.3846153846154,587.3044175877247L643.8461538461538,587.308950504507L647.3076923076923,590.5667755578735L650.7692307692307,587.3044904030629L654.2307692307692,590.5651716815993L657.6923076923076,590.5648870922777L661.1538461538462,590.5651820704427L664.6153846153846,590.5635383518877L668.0769230769231,590.5650212767648L671.5384615384615,590.5643025265605L675,590.5638550066273L678.4615384615385,590.5639978423364L681.9230769230769,590.5645871748569L685.3846153846154,590.5633116791174L688.8461538461538,590.5634191743341L692.3076923076924,587.30095491839L695.7692307692308,587.299543130187L699.2307692307693,590.5639663005923L702.6923076923077,590.5636718750001L706.1538461538462,587.300169457449L709.6153846153846,590.5639963370286L713.0769230769231,590.5637747761102L716.5384615384615,590.5660013261912L720,590.5637628897723L723.4615384615385,590.5630370356564L726.9230769230769,590.5663780361155L730.3846153846154,590.5631156330267L733.8461538461538,587.2980449527863L737.3076923076923,590.5668218057999L740.7692307692307,587.297651834545L744.2307692307692,590.562806937201L747.6923076923077,590.5630319423183L751.1538461538462,590.56265915307L754.6153846153846,590.5627044201476L758.0769230769231,590.569210732082L761.5384615384615,587.307561780767L765,590.5637202162674L768.4615384615385,590.5624918334152L771.9230769230769,590.5673649398526L775.3846153846155,590.5619787648063L778.8461538461539,587.2963479414364L782.3076923076924,590.5621118687545L785.7692307692308,587.2969133379609L789.2307692307692,590.5634889674162L792.6923076923076,590.5655170516197L796.1538461538461,590.5622557394667L799.6153846153845,590.5619164080631L803.0769230769231,590.5669278350515L806.5384615384615,590.5675054167859L810,590.5655616967797L813.4615384615385,590.5835005015045L816.9230769230769,587.3088800880718L820.3846153846154,590.5782252738434L823.8461538461538,590.5711655961146L827.3076923076923,590.5729943305374L830.7692307692308,590.5605690393348L834.2307692307693,590.5605816871911L837.6923076923077,590.5648163358142L841.1538461538462,587.2959762211307L844.6153846153846,590.5714157955404L848.0769230769231,590.5665624695698L851.5384615384615,590.5606162925554L855,590.5638217343994L858.4615384615385,590.5768690022135L861.9230769230769,590.574726725137L865.3846153846154,590.5739328952739L868.8461538461538,590.5600007756366L872.3076923076923,590.5721282098157L875.7692307692307,590.5632491391332L879.2307692307692,590.5720091783708L882.6923076923076,587.3054829947389L886.1538461538462,587.3024672222324" style="fill: none; stroke: #ff7f0e; stroke-width: 2;"></path></g></g><path class="foreground" d="" style="display: none; fill: none;"></path></g><g transform="translate(0,0)"><path class="background" d="M0,0h900v600h-900Z" style="fill: none;"></path><g><g class="mark-line role-mark marks"><path d="M6.923076923076923,549.6750296325563L10.384615384615385,536.959582323121L13.846153846153847,536.8712057532456L17.30769230769231,525.6695482168936L20.76923076923077,530.109495295124L24.230769230769234,522.1618200324684L27.692307692307693,521.5247713766665L31.153846153846157,521.7802612056175L34.61538461538462,520.5910390848427L38.07692307692308,525.972323379461L41.53846153846154,521.1580798414441L45,520.7436521120076L48.46153846153847,520.3747550293965L51.92307692307693,519.988644513507L55.38461538461539,519.6266975289642L58.84615384615385,526.8387360602444L62.307692307692314,521.2365237182559L65.76923076923077,519.5492511795832L69.23076923076924,519.4869734986129L72.6923076923077,519.3268900048154L76.15384615384616,526.6451807329773L79.61538461538461,525.336248408701L83.07692307692308,524.2593786257573L86.53846153846155,523.5611510791367L90,527.6140085663895L93.46153846153847,524.1306832095339L96.92307692307693,523.8458022245924L100.38461538461539,523.3103275640109L103.84615384615385,522.945205479452L107.3076923076923,529.557606071059L110.76923076923077,529.6816933268702L114.23076923076923,522.8882039320226L117.6923076923077,522.7070113797263L121.15384615384615,522.3763045999227L124.61538461538463,525.6457177141143L128.07692307692307,522.8197160263339L131.53846153846155,522.7150186567164L135,522.3703464840102L138.46153846153848,522.649140546006L141.9230769230769,521.6384668508288L145.3846153846154,522.5753518971849L148.84615384615384,521.4240479960004L152.30769230769232,521.6163219942047L155.76923076923077,528.3434518647008L159.23076923076923,521.9131693198264L162.69230769230768,521.365952397571L166.15384615384616,521.9605499103407L169.6153846153846,528.3385446276294L173.0769230769231,528.1493527403877L176.53846153846155,521.8228429985855L180,520.7213954863507L183.46153846153845,520.640926213162L186.92307692307693,527.9430195749079L190.3846153846154,527.7716220855832L193.84615384615387,521.4742561618277L197.3076923076923,521.994633273703L200.76923076923077,528.1998772389934L204.23076923076923,521.1907369044096L207.6923076923077,520.6865766206837L211.15384615384616,520.6222637405538L214.6153846153846,520.5398832684825L218.07692307692307,520.5027805705669L221.53846153846155,520.9254436436315L225,524.2139138998311L228.46153846153845,520.3810424909685L231.9230769230769,520.4769182673938L235.3846153846154,520.6727664155005L238.84615384615384,520.7173643309607L242.3076923076923,520.2056325435851L245.76923076923075,522.9497502497502L249.23076923076925,520.1160261058739L252.6923076923077,520.4921597690837L256.15384615384613,527.0438871473355L259.6153846153846,520.1350222717149L263.0769230769231,527.0201169358835L266.53846153846155,520.250290114991L270,519.9225766491173L273.46153846153845,519.9227634094798L276.92307692307696,520.4523298888672L280.3846153846154,526.985467399843L283.8461538461538,519.6748805396796L287.30769230769226,519.9756286443148L290.7692307692308,520.0675255442026L294.2307692307692,519.9245914464534L297.6923076923077,519.6224002727582L301.15384615384613,520.2505991240394L304.61538461538464,519.4452149791956L308.0769230769231,527.075781644884L311.53846153846155,527.0605268733668L315,519.3039208193213L318.46153846153845,517.9657924743443L321.9230769230769,519.7301281118067L325.38461538461536,526.6112956810631L328.8461538461538,519.3575233022636L332.3076923076923,519.4295117937465L335.7692307692308,523.1586279784781L339.2307692307692,526.601330695918L342.6923076923077,519.2799237775338L346.1538461538462,519.5887991927347L349.61538461538464,519.2608169346329L353.0769230769231,519.2727604673807L356.53846153846155,519.1822011113103L360,519.193718504629L363.46153846153845,523.2619554536521L366.9230769230769,519.4767017031083L370.38461538461536,519.4221958489733L373.84615384615387,526.4219275677815L377.3076923076923,519.3940562975575L380.7692307692308,526.4481525625745L384.2307692307692,519.1035841186466L387.69230769230774,519.3138936535163L391.1538461538462,519.1032298136646L394.6153846153846,519.308984660336L398.07692307692304,519.0228353263218L401.53846153846155,526.2882921589688L405,519.1182399555123L408.46153846153845,519.2563787692727L411.9230769230769,518.9692352571582L415.3846153846154,519.2399049881235L418.84615384615387,519.0350667938932L422.3076923076923,519.2601259360109L425.7692307692308,519.1216981132075L429.2307692307692,526.2826201398811L432.6923076923077,523.0221213292117L436.15384615384613,526.3261146496815L439.6153846153846,518.9289797366554L443.0769230769231,519.9018404907976L446.53846153846155,526.1365535248042L450,519.0460983581921L453.46153846153845,518.9078830331332L456.9230769230769,519.0334572490706L460.38461538461536,518.9511086354979L463.8461538461538,519.0284360189573L467.3076923076923,518.8826537736508L470.7692307692308,518.9830974302597L474.2307692307692,518.8934926283681L477.6923076923077,519.0495082513752L481.15384615384613,518.6960790785174L484.6153846153846,519.7495183044316L488.07692307692304,526.1112487611497L491.5384615384615,518.8833848677983L495.00000000000006,526.3759777482845L498.4615384615385,518.7310955367024L501.92307692307696,522.8357081174439L505.3846153846154,518.777382624548L508.8461538461538,518.918555032372L512.3076923076923,518.6945762613177L515.7692307692307,518.939647766323L519.2307692307692,526.2816394706412L522.6923076923077,518.6862972700827L526.1538461538462,518.8808723908135L529.6153846153846,518.736454476149L533.0769230769231,518.8745204303383L536.5384615384615,526.2433483422022L540,522.610864468499L543.4615384615385,518.8675263320941L546.9230769230769,518.7888143290894L550.3846153846155,526.0908121617904L553.8461538461539,518.7594892600243L557.3076923076924,518.6699601338714L560.7692307692308,518.793593010557L564.2307692307692,518.7229180162672L567.6923076923076,518.5801794957025L571.1538461538461,518.8083292400532L574.6153846153845,518.7561567811307L578.0769230769231,526.0569464950405L581.5384615384615,518.7353778058805L585,518.7213467848135L588.4615384615385,518.5402573285581L591.9230769230769,518.7254207359609L595.3846153846154,518.690234964432L598.8461538461538,525.9657470461557L602.3076923076923,518.6831960565398L605.7692307692308,518.6506489718536L609.2307692307693,518.5027135222138L612.6923076923077,526.0397070804325L616.1538461538462,521.6107812318081L619.6153846153846,518.6809025220455L623.0769230769231,518.4595949626939L626.5384615384615,518.7016582650499L630,518.572668029152L633.4615384615385,518.4863598182582L636.9230769230769,526.0937901278957L640.3846153846154,518.6455964055334L643.8461538461538,518.6329342753316L647.3076923076923,518.4640741011667L650.7692307692307,518.5872235872237L654.2307692307692,526.0188509145252L657.6923076923076,521.4266204612575L661.1538461538462,518.4235241502683L664.6153846153846,518.5541250064981L668.0769230769231,518.5880502605595L671.5384615384615,526.0344349220051L675,518.409526934922L678.4615384615385,518.5479096684072L681.9230769230769,518.558396563359L685.3846153846154,518.5326618423626L688.8461538461538,518.4137621794561L692.3076923076924,518.529049984824L695.7692307692308,518.5721229845084L699.2307692307693,518.5147072643548L702.6923076923077,526.0447955521148L706.1538461538462,518.3774055101758L709.6153846153846,518.5388667599124L713.0769230769231,518.4452014530546L716.5384615384615,525.9842911721672L720,518.5048827692171L723.4615384615385,518.408891135235L726.9230769230769,519.0971223021583L730.3846153846154,522.410777747403L733.8461538461538,518.4847364078637L737.3076923076923,525.9540008448432L740.7692307692307,518.4464432867298L744.2307692307692,518.3134095634097L747.6923076923077,518.4190243701744L751.1538461538462,518.5134502368383L754.6153846153846,518.5872062557943L758.0769230769231,519.0855651414508L761.5384615384615,518.7534560391816L765,525.980892666112L768.4615384615385,518.5372588674549L771.9230769230769,519.4393232872535L775.3846153846155,518.3770956135651L778.8461538461539,518.4746570843964L782.3076923076924,518.4712554459412L785.7692307692308,517.2227506961156L789.2307692307692,518.4301273767768L792.6923076923076,518.4805230431601L796.1538461538461,522.3759926343653L799.6153846153845,526.0051823896634L803.0769230769231,526.0945980873611L806.5384615384615,517.2839141033915L810,526.4675647493759L813.4615384615385,518.9083554071174L816.9230769230769,518.7724194729136L820.3846153846154,519.2601100350623L823.8461538461538,519.0491615853658L827.3076923076923,517.3052401498808L830.7692307692308,511.98887876899477L834.2307692307693,512.2861736905693L837.6923076923077,512.3581539472758L841.1538461538462,512.3249117862841L844.6153846153846,515.8396806918344L848.0769230769231,519.2198995155212L851.5384615384615,518.7931252236513L855,512.6092854735423L858.4615384615385,512.6188406766063L861.9230769230769,512.5761421319796L865.3846153846154,511.96599608921883L868.8461538461538,512.4623754931235L872.3076923076923,512.6148333621136L875.7692307692307,512.6645602808039L879.2307692307692,512.1692381613368L882.6923076923076,512.447594356559L886.1538461538462,512.4291014274037" style="fill: none; stroke: #1f77b4; stroke-width: 2;"></path></g></g><path class="foreground" d="" style="display: none; fill: none;"></path></g><g transform="translate(0,0)"><path class="background" d="M0,0h900v600h-900Z" style="fill: none;"></path><g><g class="mark-line role-mark marks"><path d="M6.923076923076923,580.7827766416724L10.384615384615385,570.3289542347231L13.846153846153847,559.6517692369413L17.30769230769231,552.1505231780957L20.76923076923077,546.5916804033744L24.230769230769234,536.7115793657614L27.692307692307693,436.4918691759547L31.153846153846157,481.9348846071403L34.61538461538462,472.52027779250386L38.07692307692308,486.642294165007L41.53846153846154,483.4025306760703L45,489.8155465533271L48.46153846153847,489.66060915852927L51.92307692307693,487.43658399098086L55.38461538461539,387.91884057971015L58.84615384615385,428.42290954026896L62.307692307692314,459.9193361933876L65.76923076923077,452.9703864683703L69.23076923076924,455.8846443332321L72.6923076923077,459.86915887850466L76.15384615384616,456.4917262656009L79.61538461538461,461.43260883307346L83.07692307692308,320.3019453123218L86.53846153846155,378.22823425520806L90,387.7982125710909L93.46153846153847,408.2415402939362L96.92307692307693,408.5038163320864L100.38461538461539,415.36594937070123L103.84615384615385,416.7788712930455L107.3076923076923,436.8219741480611L110.76923076923077,322.9136032397431L114.23076923076923,352.25279041126447L117.6923076923077,391.3978419071518L121.15384615384615,384.685559799036L124.61538461538463,391.3636363636364L128.07692307692307,410.59209710423517L131.53846153846155,407.1971042207349L135,414.2456896551724L138.46153846153848,300.6805347748443L141.9230769230769,327.97170602040325L145.3846153846154,357.2913669064748L148.84615384615384,365.149203042927L152.30769230769232,374.05949656750573L155.76923076923077,391.3804945054945L159.23076923076923,397.27231740306587L162.69230769230768,410.35115480439026L166.15384615384616,316.20133320452123L169.6153846153846,341.7299417868894L173.0769230769231,374.9735262972114L176.53846153846155,381.46457990115323L180,376.8254790264112L183.46153846153845,382.80927835051546L186.92307692307693,394.20458319495185L190.3846153846154,397.9212511788745L193.84615384615387,328.83011190233975L197.3076923076923,349.94114451285765L200.76923076923077,363.86809072891435L204.23076923076923,363.582006072551L207.6923076923077,360.8627696155049L211.15384615384616,384.2312648441054L214.6153846153846,377.3576620230164L218.07692307692307,376.7546933973825L221.53846153846155,309.28523714094854L225,325.6912618392912L228.46153846153845,335.5565548619193L231.9230769230769,364.0668941510557L235.3846153846154,360.67655946957734L238.84615384615384,368.2118158676283L242.3076923076923,351.13968310170844L245.76923076923075,368.78457510592375L249.23076923076925,284.0199723786253L252.6923076923077,326.39697986577187L256.15384615384613,327.8365384615385L259.6153846153846,348.3258275821733L263.0769230769231,358.66295264623955L266.53846153846155,353.50207874786014L270,339.7055492638732L273.46153846153845,375.00371116530596L276.92307692307696,306.0518731988473L280.3846153846154,309.69586257422685L283.8461538461538,327.6435549201811L287.30769230769226,343.9966482075196L290.7692307692308,343.5279025016036L294.2307692307692,349.1831733714519L297.6923076923077,330.9586305278173L301.15384615384613,350.7544794188862L304.61538461538464,273.84259641588903L308.0769230769231,309.73881803484824L311.53846153846155,331.9360176503033L315,323.948624093078L318.46153846153845,328.12848370335377L321.9230769230769,344.1421113689095L325.38461538461536,333.32442851345866L328.8461538461538,343.8362644701692L332.3076923076923,295.368461987167L335.7692307692308,300.53731902146785L339.2307692307692,308.71750433275565L342.6923076923077,320.66445792751074L346.1538461538462,337.8700657894737L349.61538461538464,332.61696035242295L353.0769230769231,325.42521733987815L356.53846153846155,352.2548002075765L360,268.19234867493896L363.46153846153845,316.9132454903766L366.9230769230769,321.48467370876807L370.38461538461536,326.1518619266485L373.84615384615387,328.2650668453269L377.3076923076923,333.3519626826263L380.7692307692308,322.3188840557972L384.2307692307692,331.12066752246466L387.69230769230774,310.2608695652174L391.1538461538462,293.6305043281897L394.6153846153846,307.004008016032L398.07692307692304,315.16301134604015L401.53846153846155,312.1409395973154L405,334.7173668531128L408.46153846153845,309.5179658354604L411.9230769230769,333.3912908655976L415.3846153846154,273.802967042729L418.84615384615387,306.23072201938817L422.3076923076923,306.14586559306287L425.7692307692308,315.5615931343636L429.2307692307692,323.0332356161481L432.6923076923077,331.6557785560345L436.15384615384613,308.72449420093824L439.6153846153846,335.7175903614458L443.0769230769231,272.79220575796495L446.53846153846155,301.99410091646473L450,301.1131532406284L453.46153846153845,315.96047122967576L456.9230769230769,310.5553565030456L460.38461538461536,327.04362998224946L463.8461538461538,306.0739504429323L467.3076923076923,332.30434699128296L470.7692307692308,269.25105189340815L474.2307692307692,298.3521885734094L477.6923076923077,299.93697478991595L481.15384615384613,308.87207012014966L484.6153846153846,316.1410018552875L488.07692307692304,315.42240476012273L491.5384615384615,308.1937875978964L495.00000000000006,329.45444640448267L498.4615384615385,277.3837705918243L501.92307692307696,291.1175871869719L505.3846153846154,309.69985045930355L508.8461538461538,312.67624361247266L512.3076923076923,303.874456579366L515.7692307692307,320.73525059194947L519.2307692307692,306.3715455475947L522.6923076923077,323.8408378455401L526.1538461538462,270.987341772152L529.6153846153846,288.7750260688217L533.0769230769231,299.33479168738194L536.5384615384615,308.48996003045295L540,306.9751629049013L543.4615384615385,317.63274932614553L546.9230769230769,292.2048157818393L550.3846153846155,323.08182989690727L553.8461538461539,271.9268268167655L557.3076923076924,291.79077683484104L560.7692307692308,296.6355394378966L564.2307692307692,304.0926362683438L567.6923076923076,303.6349494425719L571.1538461538461,315.49975411851483L574.6153846153845,294.8062890896456L578.0769230769231,320.78150765606597L581.5384615384615,273.89578613502493L585,289.2099086796961L588.4615384615385,292.0907495612936L591.9230769230769,305.88296781319036L595.3846153846154,302.47988641741597L598.8461538461538,312.04742680350137L602.3076923076923,295.40045766590396L605.7692307692308,316.94907575208407L609.2307692307693,269.61351848753554L612.6923076923077,290.85616438356163L616.1538461538462,291.62519083969465L619.6153846153846,301.63398334794044L623.0769230769231,299.1698223128459L626.5384615384615,313.1753416191719L630,291.2785087719298L633.4615384615385,313.3753440289991L636.9230769230769,267.2853399105904L640.3846153846154,287.056260757315L643.8461538461538,296.54719317556413L647.3076923076923,296.9448409461664L650.7692307692307,299.07445742904844L654.2307692307692,307.0165648118366L657.6923076923076,291.9176706827309L661.1538461538462,312.898740818468L664.6153846153846,270.0947567909033L668.0769230769231,283.97341628959276L671.5384615384615,292.4375080117934L675,294.2942493221515L678.4615384615385,295.50913838120107L681.9230769230769,303.7746946839081L685.3846153846154,289.8610163181733L688.8461538461538,310.38617070092914L692.3076923076924,264.6060765487307L695.7692307692308,289.7845528455284L699.2307692307693,285.36377381312366L702.6923076923077,301.7231053079762L706.1538461538462,291.81390486147416L709.6153846153846,301.97522109127317L713.0769230769231,308.07219164778246L716.5384615384615,308.56462712045237L720,270.7949391262831L723.4615384615385,281.75271428571426L726.9230769230769,288.7661906343407L730.3846153846154,297.9499015590912L733.8461538461538,294.8202588272887L737.3076923076923,302.7162349676225L740.7692307692307,286.5644962155779L744.2307692307692,303.81991557364694L747.6923076923077,263.1383430545331L751.1538461538462,289.56321096173735L754.6153846153846,288.835310429826L758.0769230769231,320.21287060761347L761.5384615384615,308.4750566893424L765,319.87280701754383L768.4615384615385,283.7111793426285L771.9230769230769,309.8591726536402L775.3846153846155,267.2852090701061L778.8461538461539,286.0560554474708L782.3076923076924,294.87935154383166L785.7692307692308,289.5403317266799L789.2307692307692,302.76873402394733L792.6923076923076,312.3708379936333L796.1538461538461,286.3782200316191L799.6153846153845,313.89707737594614L803.0769230769231,301.04291004138526L806.5384615384615,290.47768635692887L810,307.20558631102165L813.4615384615385,332.6503588107985L816.9230769230769,320.81931121245475L820.3846153846154,365.57178631051755L823.8461538461538,321.8842421441774L827.3076923076923,324.93381047701774L830.7692307692308,290.739882932581L834.2307692307693,292.52086447433976L837.6923076923077,315.2534035007436L841.1538461538462,335.7221461668071L844.6153846153846,352.18438836472853L848.0769230769231,344.9617601972807L851.5384615384615,343.098155423853L855,330.11423565332035L858.4615384615385,305.77217469608286L861.9230769230769,330.8984375L865.3846153846154,324.9784296807593L868.8461538461538,347.234730482394L872.3076923076923,341.1852704257768L875.7692307692307,351.9257249680832L879.2307692307692,316.7427685950413L882.6923076923076,335.2740436809503L886.1538461538462,321.98170021627016" style="fill: none; stroke: #aec7e8; stroke-width: 2;"></path></g></g><path class="foreground" d="" style="display: none; fill: none;"></path></g><g transform="translate(0,0)"><path class="background" d="M0,0h900v600h-900Z" style="fill: none;"></path><g><g class="mark-line role-mark marks"><path d="M6.923076923076923,563.2558475310424L10.384615384615385,539.7547393364929L13.846153846153847,517.3376729048007L17.30769230769231,494.21471737170714L20.76923076923077,477.6164494019621L24.230769230769234,442.6934168402866L27.692307692307693,416.4375468654139L31.153846153846157,470.04367834022315L34.61538461538462,451.04742243002005L38.07692307692308,448.55949096965594L41.53846153846154,429.15132393466195L45,419.991935483871L48.46153846153847,392.98925573892996L51.92307692307693,377.8825230925187L55.38461538461539,348.54544500603373L58.84615384615385,411.7411577414498L62.307692307692314,423.487371594135L65.76923076923077,394.94595851008194L69.23076923076924,376.08335439660743L72.6923076923077,361.33771148708814L76.15384615384616,359.8779598063275L79.61538461538461,334.97600258307426L83.07692307692308,315.87579953219745L86.53846153846155,365.1582180536118L90,356.4406439170729L93.46153846153847,345.3258335199505L96.92307692307693,335.85357323281386L100.38461538461539,328.2573159507268L103.84615384615385,312.29785633696883L107.3076923076923,327.78729150925307L110.76923076923077,279.556248235915L114.23076923076923,332.5763098983543L117.6923076923077,357.72796438232643L121.15384615384615,317.7843456499053L124.61538461538463,310.1798736023335L128.07692307692307,329.0674178315956L131.53846153846155,304.3027433505083L135,294.96264254817146L138.46153846153848,284.6134503087369L141.9230769230769,311.8262466655193L145.3846153846154,317.6910634333187L148.84615384615384,299.8096585894753L152.30769230769232,296.08554906897604L155.76923076923077,316.70348232848227L159.23076923076923,313.8417479847263L162.69230769230768,322.78789370078744L166.15384615384616,313.8236726741354L169.6153846153846,339.08846842239836L173.0769230769231,358.2296723300971L176.53846153846155,342.024504084014L180,319.2736747821839L183.46153846153845,321.76235239279055L186.92307692307693,324.8242173044186L190.3846153846154,328.56112323175444L193.84615384615387,333.42222814854324L197.3076923076923,340.3813612434194L200.76923076923077,349.43918682089026L204.23076923076923,329.2248795070465L207.6923076923077,312.1715683200602L211.15384615384616,338.6938202247191L214.6153846153846,309.53001837254783L218.07692307692307,308.2795296016603L221.53846153846155,315.058926233086L225,322.25444702242845L228.46153846153845,315.0531014314299L231.9230769230769,336.39386418299983L235.3846153846154,318.01881277568157L238.84615384615384,321.6179617834395L242.3076923076923,279.4674465137756L245.76923076923075,302.5327830916384L249.23076923076925,297.20859207981266L252.6923076923077,328.26930767863485L256.15384615384613,314.05187713310573L259.6153846153846,321.8046935608999L263.0769230769231,324.1338549904271L266.53846153846155,310.3772721467796L270,274.2539193729003L273.46153846153845,321.36224807407984L276.92307692307696,310.9458023379383L280.3846153846154,315.1762002042901L283.8461538461538,313.5935412026726L287.30769230769226,328.32862942199887L290.7692307692308,310.57546145494024L294.2307692307692,312.09516740243L297.6923076923077,270.1294309701492L301.15384615384613,296.03606441198474L304.61538461538464,290.09416195856875L308.0769230769231,317.93674067867613L311.53846153846155,326.20625662778366L315,303.05431534540344L318.46153846153845,294.9694378687771L321.9230769230769,308.3835779452598L325.38461538461536,284.1188840600028L328.8461538461538,293.42591667499255L332.3076923076923,303.45058203728826L335.7692307692308,305.81424067262213L339.2307692307692,302.7476071577196L342.6923076923077,303.60883339545285L346.1538461538462,312.4955706600521L349.61538461538464,297.23678959795143L353.0769230769231,271.02777580953733L356.53846153846155,308.6157101092476L360,285.1096033402924L363.46153846153845,321.1029727852915L366.9230769230769,316.12206479738427L370.38461538461536,310.2621654702439L373.84615384615387,301.98900721401577L377.3076923076923,302.62514723203765L380.7692307692308,276.9013283867879L384.2307692307692,289.9281202710704L387.69230769230774,312.49183569523916L391.1538461538462,299.52983697323896L394.6153846153846,302.3282134195635L398.07692307692304,302.73476523476523L401.53846153846155,291.1261139616527L405,307.45914462105765L408.46153846153845,261.2542534584195L411.9230769230769,294.0993674817868L415.3846153846154,290.3008152937869L418.84615384615387,311.6488770119559L422.3076923076923,303.67727428874804L425.7692307692308,302.48820099944476L429.2307692307692,303.6192664711396L432.6923076923077,307.9246569317382L436.15384615384613,272.02598917657735L439.6153846153846,302.0073177800318L443.0769230769231,289.0410551073268L446.53846153846155,311.7511802465782L450,300.52119527449616L453.46153846153845,306.70855534331963L456.9230769230769,293.0699088145896L460.38461538461536,304.05176655840967L463.8461538461538,265.71416055836227L467.3076923076923,299.96610607185517L470.7692307692308,286.7583183901175L474.2307692307692,307.99875945660136L477.6923076923077,300.02347321171186L481.15384615384613,299.9966509702038L484.6153846153846,300.08401008120967L488.07692307692304,296.67002393298765L491.5384615384615,273.96994483545745L495.00000000000006,299.4873789764868L498.4615384615385,290.64628105620346L501.92307692307696,301.7924021062L505.3846153846154,309.79284570208216L508.8461538461538,305.6466346153846L512.3076923076923,288.88674340883773L515.7692307692307,303.0394985312631L519.2307692307692,274.6711272397369L522.6923076923077,297.6151965883087L526.1538461538462,289.56054378754345L529.6153846153846,298.06297420333834L533.0769230769231,301.7076058005327L536.5384615384615,302.7474526928675L540,294.8726521781886L543.4615384615385,302.19392589784894L546.9230769230769,260.8152173913044L550.3846153846155,298.3315395414132L553.8461538461539,285.8517805582291L557.3076923076924,303.27460046687014L560.7692307692308,300.38413323782237L564.2307692307692,300.2170353982301L567.6923076923076,293.0779557862705L571.1538461538461,299.82813040470427L574.6153846153845,264.5928400954654L578.0769230769231,297.40043400561655L581.5384615384615,289.8595190898905L585,300.87666338097586L588.4615384615385,296.65349469004695L591.9230769230769,301.2877573912347L595.3846153846154,291.4299738219895L598.8461538461538,299.8389443876347L602.3076923076923,267.7119738314539L605.7692307692308,301.68175567270225L609.2307692307693,285.6792678074016L612.6923076923077,304.2026436611374L616.1538461538462,295.27721203892287L619.6153846153846,299.7480890783478L623.0769230769231,291.78542117436393L626.5384615384615,300.8502828904963L630,263.7224301297874L633.4615384615385,292.6619520621896L636.9230769230769,287.06394084384516L640.3846153846154,297.4703618968386L643.8461538461538,299.3804947863423L647.3076923076923,296.88303079747095L650.7692307692307,291.7885233568156L654.2307692307692,295.94582415381535L657.6923076923076,266.2013198926681L661.1538461538462,292.1281771247022L664.6153846153846,285.9231540260608L668.0769230769231,296.7855774755793L671.5384615384615,298.94033502729155L675,295.8477101631117L678.4615384615385,290.5067610261595L681.9230769230769,292.45151967182545L685.3846153846154,267.6080595823913L688.8461538461538,291.1470822118913L692.3076923076924,284.71810089020767L695.7692307692308,301.3146526730836L699.2307692307693,290.97059697059694L702.6923076923077,301.8754255560599L706.1538461538462,287.42032400589096L709.6153846153846,294.2895247332687L713.0769230769231,266.13661606812286L716.5384615384615,291.6729217224448L720,286.9731018045625L723.4615384615385,295.89781041825927L726.9230769230769,298.35032188841205L730.3846153846154,299.15054589781647L733.8461538461538,290.70221838398015L737.3076923076923,294.56953904641216L740.7692307692307,265.3298561357254L744.2307692307692,289.8548913329475L747.6923076923077,283.38088141366836L751.1538461538462,302.5589546693089L754.6153846153846,295.098374679213L758.0769230769231,319.08179437706724L761.5384615384615,299.078363485639L765,309.95680018630645L768.4615384615385,263.3426198767747L771.9230769230769,292.390476421502L775.3846153846155,283.9990121017536L778.8461538461539,299.50244413407825L782.3076923076924,308.16984091418334L785.7692307692308,292.6196547206887L789.2307692307692,301.429794134871L792.6923076923076,303.40116665927343L796.1538461538461,268.725442043222L799.6153846153845,303.62748301097747L803.0769230769231,314.9507788161994L806.5384615384615,307.3462075088787L810,307.8427351858051L813.4615384615385,327.18092525863074L816.9230769230769,313.74047647841337L820.3846153846154,360.2347751849744L823.8461538461538,309.8155737704917L827.3076923076923,313.935052437252L830.7692307692308,304.47869301034166L834.2307692307693,309.37845845924414L837.6923076923077,320.76923076923083L841.1538461538462,331.0393148042298L844.6153846153846,346.93825843445796L848.0769230769231,340.7895850973751L851.5384615384615,330.2642894598846L855,319.57721979883917L858.4615384615385,318.6509758897819L861.9230769230769,334.2903599878996L865.3846153846154,327.2283836516738L868.8461538461538,343.971839739912L872.3076923076923,335.2182870597469L875.7692307692307,335.52571456348437L879.2307692307692,301.4557398468406L882.6923076923076,326.98365001481875L886.1538461538462,333.89892041654724" style="fill: none; stroke: #2ca02c; stroke-width: 2;"></path></g></g><path class="foreground" d="" style="display: none; fill: none;"></path></g><g transform="translate(0,0)"><path class="background" d="M0,0h900v600h-900Z" style="fill: none;"></path><g><g class="mark-line role-mark marks"><path d="M6.923076923076923,589.0689812105845L10.384615384615385,582.6681441213263L13.846153846153847,574.4732721696708L17.30769230769231,567.1094567207113L20.76923076923077,559.4722341799397L24.230769230769234,551.7856393717717L27.692307692307693,544.2124287501738L31.153846153846157,564.324378585086L34.61538461538462,560.1455594311778L38.07692307692308,557.0258896441424L41.53846153846154,551.7998060135791L45,550.3456041526035L48.46153846153847,543.679699504866L51.92307692307693,541.7598028443161L55.38461538461539,533.3724143706557L58.84615384615385,552.524113142114L62.307692307692314,550.9082575037348L65.76923076923077,549.2271955876114L69.23076923076924,545.5429139511764L72.6923076923077,542.2052421549066L76.15384615384616,540.0174961119751L79.61538461538461,536.4302544769085L83.07692307692308,534.5104333868379L86.53846153846155,547.2652372443915L90,545.829928979951L93.46153846153847,542.214796394156L96.92307692307693,541.1723163841808L100.38461538461539,539.2237714674375L103.84615384615385,538.2234185733513L107.3076923076923,537.556059525023L110.76923076923077,528.2558522914607L114.23076923076923,541.7585989932886L117.6923076923077,540.1178223185265L121.15384615384615,538.524993440042L124.61538461538463,536.440721429182L128.07692307692307,534.9970000413787L131.53846153846155,533.2531722054381L135,531.6273945234458L138.46153846153848,531.256552343867L141.9230769230769,540.1674983424643L145.3846153846154,538.8976805786667L148.84615384615384,537.2845171588189L152.30769230769232,535.889877280696L155.76923076923077,534.2176502436383L159.23076923076923,533.1564789579868L162.69230769230768,531.5891425795483L166.15384615384616,526.1306343119381L169.6153846153846,536.8939393939394L173.0769230769231,536.3730121764589L176.53846153846155,534.7703579858379L180,533.2378001549187L183.46153846153845,531.8614643117609L186.92307692307693,530.9646272398106L190.3846153846154,530.7935582271667L193.84615384615387,529.3631304655066L197.3076923076923,536.8736856542014L200.76923076923077,535.3817644931903L204.23076923076923,533.8597550071531L207.6923076923077,533.2149924339425L211.15384615384616,531.9251133559088L214.6153846153846,537.4480712166172L218.07692307692307,530.4951412972565L221.53846153846155,530.261066969353L225,534.1511490506072L228.46153846153845,533.2998398718975L231.9230769230769,532.285266395867L235.3846153846154,532.1981139308441L238.84615384615384,530.3121651614879L242.3076923076923,529.3455724356315L245.76923076923075,536.218368562072L249.23076923076925,527.8742907027499L252.6923076923077,534.9997608342103L256.15384615384613,533.1683736957979L259.6153846153846,532.1102328663385L263.0769230769231,531.4875802400223L266.53846153846155,531.1523224043716L270,530.1476812246735L273.46153846153845,528.9275187566988L276.92307692307696,525.9057477526559L280.3846153846154,532.7604292259465L283.8461538461538,532.2766411248914L287.30769230769226,537.639510117146L290.7692307692308,530.35224897422L294.2307692307692,530.6282476090067L297.6923076923077,529.4327621043179L301.15384615384613,528.8050534857986L304.61538461538464,527.6394283620374L308.0769230769231,533.1085243078553L311.53846153846155,532.3186316272364L315,537.1606058802523L318.46153846153845,530.6586133778834L321.9230769230769,532.2803058216655L325.38461538461536,530.0385021424579L328.8461538461538,528.6085432435785L332.3076923076923,532.5426258683048L335.7692307692308,531.9580568317169L339.2307692307692,531.7098879036306L342.6923076923077,531.6956818802952L346.1538461538462,537.7714871394406L349.61538461538464,533.6955801386623L353.0769230769231,531.2938312529134L356.53846153846155,528.6653570298491L360,529.9268292682926L363.46153846153845,533.1706998193401L366.9230769230769,533.0252454417953L370.38461538461536,531.1732047715592L373.84615384615387,531.5933762649494L377.3076923076923,530.0730508239856L380.7692307692308,533.7562797887415L384.2307692307692,530.4252845564463L387.69230769230774,533.3377792597532L391.1538461538462,533.3641331041258L394.6153846153846,532.3622336517267L398.07692307692304,533.2255860921907L401.53846153846155,534.7888555247254L405,531.3395948072384L408.46153846153845,530.7898327550582L411.9230769230769,529.7760686087666L415.3846153846154,529.1447977770916L418.84615384615387,535.2639929255098L422.3076923076923,534.9832122790187L425.7692307692308,533.8608777644437L429.2307692307692,531.9882046834346L432.6923076923077,532.0953200627173L436.15384615384613,543.3539486203616L439.6153846153846,530.7896375323933L443.0769230769231,542.8887005495257L446.53846153846155,533.318850372419L450,533.9357983811626L453.46153846153845,537.433087415287L456.9230769230769,535.5752109735232L460.38461538461536,535.708452109464L463.8461538461538,535.541008531126L467.3076923076923,536.8185464136168L470.7692307692308,536.642218102684L474.2307692307692,539.0647917091057L477.6923076923077,539.4546678635547L481.15384615384613,539.5922633643943L484.6153846153846,540.1035424955659L488.07692307692304,539.755977279209L491.5384615384615,543.2369954958933L495.00000000000006,539.992922737002L498.4615384615385,541.1970374324414L501.92307692307696,541.3660075679695L505.3846153846154,541.5503892640544L508.8461538461538,541.1532177107584L512.3076923076923,542.123761760683L515.7692307692307,541.9418008409393L519.2307692307692,542.3227713217259L522.6923076923077,541.1762712207361L526.1538461538462,541.8821765379L529.6153846153846,542.9518043503192L533.0769230769231,543.9530314544679L536.5384615384615,543.8029738753944L540,544.6316916488223L543.4615384615385,544.2696215775287L546.9230769230769,547.9525460313307L550.3846153846155,544.2610541423853L553.8461538461539,541.7506915320781L557.3076923076924,544.8562978659503L560.7692307692308,545.0872240912448L564.2307692307692,543.9175620416205L567.6923076923076,544.5133731372264L571.1538461538461,543.2710536207488L574.6153846153845,543.1701793830775L578.0769230769231,542.6513208825237L581.5384615384615,545.632875056655L585,547.3082404861814L588.4615384615385,544.0755524526469L591.9230769230769,542.8019284760896L595.3846153846154,544.5601657921425L598.8461538461538,544.9302599108134L602.3076923076923,546.2226773101517L605.7692307692308,545.0431034482759L609.2307692307693,543.5818464922932L612.6923076923077,546.2345882574635L616.1538461538462,545.9577798290325L619.6153846153846,545.6787780067814L623.0769230769231,545.7966488656791L626.5384615384615,545.3375973303671L630,545.8876061860161L633.4615384615385,544.871049165935L636.9230769230769,544.4933648801564L640.3846153846154,546.3036509733467L643.8461538461538,546.2808115744349L647.3076923076923,546.5811906929933L650.7692307692307,546.6614587032171L654.2307692307692,546.5267047856103L657.6923076923076,547.1858864027538L661.1538461538462,545.9682000348492L664.6153846153846,543.3483595689801L668.0769230769231,547.6291834371726L671.5384615384615,547.3029870415111L675,546.0232965931864L678.4615384615385,546.9937773929983L681.9230769230769,546.6017644202234L685.3846153846154,547.0648225613437L688.8461538461538,546.3441000191282L692.3076923076924,546.6839508237852L695.7692307692308,547.3278303816106L699.2307692307693,546.9445634216484L702.6923076923077,546.9127884654246L706.1538461538462,546.1364951425758L709.6153846153846,545.956594315454L713.0769230769231,548.9894218803032L716.5384615384615,546.7950147541462L720,546.3565107458912L723.4615384615385,547.3135412035153L726.9230769230769,547.8539697849333L730.3846153846154,547.0250249643034L733.8461538461538,547.3539923011199L737.3076923076923,546.9273485453194L740.7692307692307,547.4121207208668L744.2307692307692,546.7732867928618L747.6923076923077,547.0648537054176L751.1538461538462,547.2444312640042L754.6153846153846,547.8023672513008L758.0769230769231,547.730786983614L761.5384615384615,547.9736622461281L765,548.1003825446302L768.4615384615385,549.4553571428571L771.9230769230769,548.3416097704053L775.3846153846155,547.5937546078608L778.8461538461539,548.2486470234516L782.3076923076924,548.0330210511196L785.7692307692308,547.6506549696419L789.2307692307692,548.320402959821L792.6923076923076,547.8286542497991L796.1538461538461,547.8364269141532L799.6153846153845,547.3052272445628L803.0769230769231,548.1135028466441L806.5384615384615,547.9748098430641L810,548.5155823660417L813.4615384615385,548.5691825047843L816.9230769230769,548.5607492883065L820.3846153846154,548.6472809017769L823.8461538461538,549.1070975561631L827.3076923076923,548.0610785830938L830.7692307692308,547.7563099336994L834.2307692307693,547.4557242700536L837.6923076923077,548.6591537287367L841.1538461538462,548.0822581423735L844.6153846153846,549.5179128399184L848.0769230769231,549.1968647938186L851.5384615384615,548.9871869462884L855,547.8607983108787L858.4615384615385,548.4203325615659L861.9230769230769,549.0524258516905L865.3846153846154,548.8149147316698L868.8461538461538,549.5906600647639L872.3076923076923,549.9179810725552L875.7692307692307,549.1219312245178L879.2307692307692,549.87697426148L882.6923076923076,549.4528835073986L886.1538461538462,549.4036222274701" style="fill: none; stroke: #98df8a; stroke-width: 2;"></path></g></g><path class="foreground" d="" style="display: none; fill: none;"></path></g><g transform="translate(0,0)"><path class="background" d="M0,0h900v600h-900Z" style="fill: none;"></path><g><g class="mark-line role-mark marks"><path d="M6.923076923076923,579.9866041527126L10.384615384615385,563.8450931913275L13.846153846153847,540.0071077415151L17.30769230769231,527.605015026727L20.76923076923077,498.349104086974L24.230769230769234,466.72179680759274L27.692307692307693,370.3395499121365L31.153846153846157,464.8240287983575L34.61538461538462,438.1249672105346L38.07692307692308,419.6050331076557L41.53846153846154,384.79923075986807L45,385.5038144710818L48.46153846153847,342.262053392103L51.92307692307693,333.23252688172045L55.38461538461539,173.77802283516453L58.84615384615385,361.4847679091368L62.307692307692314,360.6703910614525L65.76923076923077,322.6927143598133L69.23076923076924,292.2235077077014L72.6923076923077,283.62102335307355L76.15384615384616,281.0656805169914L79.61538461538461,244.2882639525349L83.07692307692308,79.09276434769623L86.53846153846155,278.60642467620994L90,265.62864462608275L93.46153846153847,241.53493696548833L96.92307692307693,233.79389095061373L100.38461538461539,243.97796817625465L103.84615384615385,204.50166751385458L107.3076923076923,228.1465485795993L110.76923076923077,62.773324236738894L114.23076923076923,241.2714075589947L117.6923076923077,239.04637123930107L121.15384615384615,210.53915119163966L124.61538461538463,189.72576380181505L128.07692307692307,214.56388012618297L131.53846153846155,172.1372182646269L135,188.5718460789089L138.46153846153848,70.42948569666126L141.9230769230769,204.8775817025681L145.3846153846154,214.24896139040285L148.84615384615384,189.61359856846937L152.30769230769232,166.86246446426821L155.76923076923077,209.78841104835348L159.23076923076923,186.84532924961715L162.69230769230768,210.66065043861474L166.15384615384616,135.12857708031123L169.6153846153846,242.70996864773326L173.0769230769231,251.79892874762132L176.53846153846155,248.71399470360564L180,234.11771454795783L183.46153846153845,233.27104239197217L186.92307692307693,204.52920903714426L190.3846153846154,217.56321269211696L193.84615384615387,148.8194085288448L197.3076923076923,239.9726229793151L200.76923076923077,231.01342050929114L204.23076923076923,231.0660847880299L207.6923076923077,201.28561501042398L211.15384615384616,224.30511561609129L214.6153846153846,183.9120468630615L218.07692307692307,214.67486484428542L221.53846153846155,144.57137873899018L225,225.02610329945702L228.46153846153845,214.33928199430594L231.9230769230769,221.3130210400953L235.3846153846154,198.14600231749705L238.84615384615384,211.0044857417494L242.3076923076923,167.25774052781048L245.76923076923075,201.40930232558136L249.23076923076925,132.7253446447508L252.6923076923077,222.3613272565584L256.15384615384613,214.25966850828738L259.6153846153846,211.6593567251462L263.0769230769231,196.93503365989818L266.53846153846155,211.278089165424L270,159.23063810443773L273.46153846153845,210.1668136390359L276.92307692307696,125.96723597072153L280.3846153846154,218.27574405516398L283.8461538461538,197.92652423137048L287.30769230769226,202.39777185393822L290.7692307692308,179.4109396914446L294.2307692307692,201.2750685326793L297.6923076923077,157.58171297502992L301.15384615384613,192.9023904382471L304.61538461538464,129.2058278145695L308.0769230769231,219.21459991621285L311.53846153846155,221.20996006194468L315,202.00839755402916L318.46153846153845,177.51794336421776L321.9230769230769,193.0320457620863L325.38461538461536,181.17600892230163L328.8461538461538,188.02659320550563L332.3076923076923,130.02577548662342L335.7692307692308,210.26680203045677L339.2307692307692,198.6857845145432L342.6923076923077,194.02964467005074L346.1538461538462,178.355586788475L349.61538461538464,202.90730069076056L353.0769230769231,157.11030424439716L356.53846153846155,185.39540229885057L360,126.03070342931343L363.46153846153845,199.63329535744805L366.9230769230769,183.47374159549335L370.38461538461536,192.86057943729742L373.84615384615387,182.6980007015083L377.3076923076923,184.82236458940017L380.7692307692308,162.5110772393747L384.2307692307692,180.73661384487073L387.69230769230774,133.2550249881443L391.1538461538462,192.31836230950853L394.6153846153846,181.0656722078251L398.07692307692304,186.92123958843703L401.53846153846155,175.09623549391443L405,184.4410714285714L408.46153846153845,138.17578772802662L411.9230769230769,179.06103247293922L415.3846153846154,120.10977880876924L418.84615384615387,208.60562810759004L422.3076923076923,173.86295832932353L425.7692307692308,184.53438461538457L429.2307692307692,175.41288945267786L432.6923076923077,191.0345611308249L436.15384615384613,159.7262529907094L439.6153846153846,180.95212796925946L443.0769230769231,126.83406678747087L446.53846153846155,195.70741234756105L450,176.46191646191645L453.46153846153845,181.6524330008604L456.9230769230769,158.2501491350169L460.38461538461536,178.54475520119598L463.8461538461538,142.77517831669044L467.3076923076923,171.1171096345514L470.7692307692308,121.14176311896261L474.2307692307692,184.4561977252337L477.6923076923077,168.94905023965913L481.15384615384613,180.87154402381967L484.6153846153846,158.9610848016001L488.07692307692304,185.89369731425208L491.5384615384615,139.75832438238453L495.00000000000006,180.19394261424014L498.4615384615385,123.56089502928373L501.92307692307696,186.93834940984317L505.3846153846154,177.56310619248944L508.8461538461538,195.1527463484879L512.3076923076923,156.36675562333204L515.7692307692307,173.12207811793093L519.2307692307692,153.44634351358917L522.6923076923077,174.03477024967768L526.1538461538462,119.40483570985738L529.6153846153846,176.58568591289546L533.0769230769231,166.74571049897918L536.5384615384615,186.82346990389476L540,162.65689418231796L543.4615384615385,174.6289716780022L546.9230769230769,132.36512693935114L550.3846153846155,180.04983388704318L553.8461538461539,122.91861552853138L557.3076923076924,179.0169415960767L560.7692307692308,167.9511927434714L564.2307692307692,173.85766101979206L567.6923076923076,155.5820508666774L571.1538461538461,173.75619090499777L574.6153846153845,134.66573954504818L578.0769230769231,183.46183131589217L581.5384615384615,126.7854559800118L585,176.53374292580824L588.4615384615385,169.27018391521193L591.9230769230769,183.7638160098248L595.3846153846154,158.37021426062518L598.8461538461538,184.7265752530199L602.3076923076923,134.5991238998514L605.7692307692308,167.922153369481L609.2307692307693,120.58266569555714L612.6923076923077,189.8503439778211L616.1538461538462,166.8800257317466L619.6153846153846,174.32244451391063L623.0769230769231,153.26051692440785L626.5384615384615,171.01494300092432L630,128.1745056418277L633.4615384615385,166.7768364448052L636.9230769230769,129.88020039207143L640.3846153846154,174.7722178912492L643.8461538461538,161.00816082802547L647.3076923076923,172.5675870002876L650.7692307692307,150.8014354066986L654.2307692307692,178.05933852140075L657.6923076923076,139.07971159623474L661.1538461538462,166.95582348012292L664.6153846153846,119.8038414384961L668.0769230769231,175.35340665236055L671.5384615384615,170.48066595059075L675,168.896718833363L678.4615384615385,147.14866863905328L681.9230769230769,164.69187120612295L685.3846153846154,125.66805845511475L688.8461538461538,165.70381042490968L692.3076923076924,125.13966480446928L695.7692307692308,170.5962404134711L699.2307692307693,158.36078098471984L702.6923076923077,178.18340558766857L706.1538461538462,147.45927505330494L709.6153846153846,166.5598204174082L713.0769230769231,125.80280455740571L716.5384615384615,174.87763598163565L720,122.32767578801531L723.4615384615385,172.67494053556356L726.9230769230769,168.50970762029013L730.3846153846154,175.43548990276744L733.8461538461538,146.576990030068L737.3076923076923,179.8556435212086L740.7692307692307,122.88037260990366L744.2307692307692,161.08970062555855L747.6923076923077,118.79631127649246L751.1538461538462,171.39866504854373L754.6153846153846,169.92618354744835L758.0769230769231,283.56908150064686L761.5384615384615,165.3613184955627L765,275.2762423736768L768.4615384615385,146.3352826510721L771.9230769230769,197.45746301822103L775.3846153846155,124.42462087421941L778.8461538461539,175.23772703342985L782.3076923076924,181.85501476820346L785.7692307692308,166.11098269713375L789.2307692307692,220.26125816431767L792.6923076923076,237.4259801529201L796.1538461538461,140.29784623773173L799.6153846153845,188.0644526519738L803.0769230769231,224.8737290915054L806.5384615384615,197.12196612537105L810,222.8518178380422L813.4615384615385,278.7486312619764L816.9230769230769,242.41704013293725L820.3846153846154,320.7973684210527L823.8461538461538,284.9541964753097L827.3076923076923,243.51798825256972L830.7692307692308,270.82025997310626L834.2307692307693,185.9938782355901L837.6923076923077,252.78260869565224L841.1538461538462,286.1583434073951L844.6153846153846,338.2288433685082L848.0769230769231,330.94788187730717L851.5384615384615,283.1688087709933L855,235.01090934684677L858.4615384615385,250.65443043613845L861.9230769230769,311.6916189503629L865.3846153846154,261.19260204081627L868.8461538461538,304.7587936927996L872.3076923076923,307.0636758321274L875.7692307692307,321.2532447571555L879.2307692307692,290.4572138180176L882.6923076923076,296.32293688875865L886.1538461538462,258.3177264363116" style="fill: none; stroke: #ffbb78; stroke-width: 2;"></path></g></g><path class="foreground" d="" style="display: none; fill: none;"></path></g></g><g class="mark-group role-legend"><g transform="translate(918,0)"><path class="background" d="M0,0h101v92h-101Z" style="pointer-events: none; fill: none;"></path><g><g class="mark-group role-legend-entry"><g transform="translate(0,16)"><path class="background" d="M0,0h0v0h0Z" style="pointer-events: none; fill: none;"></path><g><g class="mark-group role-scope"><g transform="translate(0,0)"><path class="background" d="M0,0h101v11h-101Z" style="pointer-events: none; fill: none; opacity: 1;"></path><g><g class="mark-symbol role-legend-symbol" style="pointer-events: none;"><path transform="translate(6,6)" d="M-5,0L5,0" style="fill: none; stroke: #1f77b4; stroke-width: 1.5; opacity: 1;"></path></g><g class="mark-text role-legend-label" style="pointer-events: none;"><text text-anchor="start" transform="translate(16,9)" style="font-family: sans-serif; font-size: 10px; fill: #000; opacity: 1;">Clang-Polly</text></g></g><path class="foreground" d="" style="pointer-events: none; display: none; fill: none;"></path></g><g transform="translate(0,13)"><path class="background" d="M0,0h101v11h-101Z" style="pointer-events: none; fill: none; opacity: 1;"></path><g><g class="mark-symbol role-legend-symbol" style="pointer-events: none;"><path transform="translate(6,6)" d="M-5,0L5,0" style="fill: none; stroke: #aec7e8; stroke-width: 1.5; opacity: 1;"></path></g><g class="mark-text role-legend-label" style="pointer-events: none;"><text text-anchor="start" transform="translate(16,9)" style="font-family: sans-serif; font-size: 10px; fill: #000; opacity: 1;">GFortran</text></g></g><path class="foreground" d="" style="pointer-events: none; display: none; fill: none;"></path></g><g transform="translate(0,26)"><path class="background" d="M0,0h101v11h-101Z" style="pointer-events: none; fill: none; opacity: 1;"></path><g><g class="mark-symbol role-legend-symbol" style="pointer-events: none;"><path transform="translate(6,6)" d="M-5,0L5,0" style="fill: none; stroke: #ff7f0e; stroke-width: 1.5; opacity: 1;"></path></g><g class="mark-text role-legend-label" style="pointer-events: none;"><text text-anchor="start" transform="translate(16,9)" style="font-family: sans-serif; font-size: 10px; fill: #000; opacity: 1;">Julia</text></g></g><path class="foreground" d="" style="pointer-events: none; display: none; fill: none;"></path></g><g transform="translate(0,39)"><path class="background" d="M0,0h101v11h-101Z" style="pointer-events: none; fill: none; opacity: 1;"></path><g><g class="mark-symbol role-legend-symbol" style="pointer-events: none;"><path transform="translate(6,6)" d="M-5,0L5,0" style="fill: none; stroke: #ffbb78; stroke-width: 1.5; opacity: 1;"></path></g><g class="mark-text role-legend-label" style="pointer-events: none;"><text text-anchor="start" transform="translate(16,9)" style="font-family: sans-serif; font-size: 10px; fill: #000; opacity: 1;">LoopVectorization</text></g></g><path class="foreground" d="" style="pointer-events: none; display: none; fill: none;"></path></g><g transform="translate(0,52)"><path class="background" d="M0,0h101v11h-101Z" style="pointer-events: none; fill: none; opacity: 1;"></path><g><g class="mark-symbol role-legend-symbol" style="pointer-events: none;"><path transform="translate(6,6)" d="M-5,0L5,0" style="fill: none; stroke: #2ca02c; stroke-width: 1.5; opacity: 1;"></path></g><g class="mark-text role-legend-label" style="pointer-events: none;"><text text-anchor="start" transform="translate(16,9)" style="font-family: sans-serif; font-size: 10px; fill: #000; opacity: 1;">icc</text></g></g><path class="foreground" d="" style="pointer-events: none; display: none; fill: none;"></path></g><g transform="translate(0,65)"><path class="background" d="M0,0h101v11h-101Z" style="pointer-events: none; fill: none; opacity: 1;"></path><g><g class="mark-symbol role-legend-symbol" style="pointer-events: none;"><path transform="translate(6,6)" d="M-5,0L5,0" style="fill: none; stroke: #98df8a; stroke-width: 1.5; opacity: 1;"></path></g><g class="mark-text role-legend-label" style="pointer-events: none;"><text text-anchor="start" transform="translate(16,9)" style="font-family: sans-serif; font-size: 10px; fill: #000; opacity: 1;">ifort</text></g></g><path class="foreground" d="" style="pointer-events: none; display: none; fill: none;"></path></g></g></g><path class="foreground" d="" style="pointer-events: none; display: none; fill: none;"></path></g></g><g class="mark-text role-legend-title" style="pointer-events: none;"><text text-anchor="start" transform="translate(0,9)" style="font-family: sans-serif; font-size: 11px; font-weight: bold; fill: #000; opacity: 1;">Method</text></g></g><path class="foreground" d="" style="pointer-events: none; display: none; fill: none;"></path></g></g></g><path class="foreground" d="" style="display: none; fill: none;"></path></g></g></g></svg>
