<?xml version="1.0" encoding="UTF-8"?>
<svg xmlns="http://www.w3.org/2000/svg"
     xmlns:xlink="http://www.w3.org/1999/xlink"
     xmlns:gadfly="http://www.gadflyjl.org/ns"
     version="1.2"
     width="304.8mm" height="203.2mm" viewBox="0 0 304.8 203.2"
     stroke="none"
     fill="#000000"
     stroke-width="0.3"
     font-size="3.88"
>
<defs>
  <marker id="arrow" markerWidth="15" markerHeight="7" refX="5" refY="3.5" orient="auto" markerUnits="strokeWidth">
    <path d="M0,0 L15,3.5 L0,7 z" stroke="context-stroke" fill="context-stroke"/>
  </marker>
</defs>
<g class="plotroot xscalable yscalable" id="img-a97eb029-1">
  <g font-size="3.88" font-family="'PT Sans','Helvetica Neue','Helvetica',sans-serif" fill="#564A55" stroke="#000000" stroke-opacity="0.000" id="img-a97eb029-2">
    <g transform="translate(144.63,191.59)">
      <g class="primitive">
        <text text-anchor="middle" dy="0.6em">Size</text>
      </g>
    </g>
  </g>
  <g class="guide xlabels" font-size="2.82" font-family="'PT Sans Caption','Helvetica Neue','Helvetica',sans-serif" fill="#6C606B" id="img-a97eb029-3">
    <g transform="translate(21.63,184.92)">
      <g class="primitive">
        <text text-anchor="middle" dy="0.6em">0</text>
      </g>
    </g>
    <g transform="translate(40.55,184.92)">
      <g class="primitive">
        <text text-anchor="middle" dy="0.6em">20</text>
      </g>
    </g>
    <g transform="translate(59.48,184.92)">
      <g class="primitive">
        <text text-anchor="middle" dy="0.6em">40</text>
      </g>
    </g>
    <g transform="translate(78.4,184.92)">
      <g class="primitive">
        <text text-anchor="middle" dy="0.6em">60</text>
      </g>
    </g>
    <g transform="translate(97.32,184.92)">
      <g class="primitive">
        <text text-anchor="middle" dy="0.6em">80</text>
      </g>
    </g>
    <g transform="translate(116.25,184.92)">
      <g class="primitive">
        <text text-anchor="middle" dy="0.6em">100</text>
      </g>
    </g>
    <g transform="translate(135.17,184.92)">
      <g class="primitive">
        <text text-anchor="middle" dy="0.6em">120</text>
      </g>
    </g>
    <g transform="translate(154.09,184.92)">
      <g class="primitive">
        <text text-anchor="middle" dy="0.6em">140</text>
      </g>
    </g>
    <g transform="translate(173.01,184.92)">
      <g class="primitive">
        <text text-anchor="middle" dy="0.6em">160</text>
      </g>
    </g>
    <g transform="translate(191.94,184.92)">
      <g class="primitive">
        <text text-anchor="middle" dy="0.6em">180</text>
      </g>
    </g>
    <g transform="translate(210.86,184.92)">
      <g class="primitive">
        <text text-anchor="middle" dy="0.6em">200</text>
      </g>
    </g>
    <g transform="translate(229.78,184.92)">
      <g class="primitive">
        <text text-anchor="middle" dy="0.6em">220</text>
      </g>
    </g>
    <g transform="translate(248.7,184.92)">
      <g class="primitive">
        <text text-anchor="middle" dy="0.6em">240</text>
      </g>
    </g>
    <g transform="translate(267.63,184.92)">
      <g class="primitive">
        <text text-anchor="middle" dy="0.6em">260</text>
      </g>
    </g>
  </g>
  <g class="guide colorkey" id="img-a97eb029-4">
    <g fill="#4C404B" font-size="2.82" font-family="'PT Sans','Helvetica Neue','Helvetica',sans-serif" id="img-a97eb029-5">
      <g transform="translate(274.25,77.07)" id="img-a97eb029-6">
        <g class="primitive">
          <text dy="0.35em">LoopVectorization</text>
        </g>
      </g>
      <g transform="translate(274.25,80.69)" id="img-a97eb029-7">
        <g class="primitive">
          <text dy="0.35em">Julia</text>
        </g>
      </g>
      <g transform="translate(274.25,84.32)" id="img-a97eb029-8">
        <g class="primitive">
          <text dy="0.35em">Clang</text>
        </g>
      </g>
      <g transform="translate(274.25,87.95)" id="img-a97eb029-9">
        <g class="primitive">
          <text dy="0.35em">GFortran</text>
        </g>
      </g>
      <g transform="translate(274.25,91.57)" id="img-a97eb029-10">
        <g class="primitive">
          <text dy="0.35em">icc</text>
        </g>
      </g>
      <g transform="translate(274.25,95.2)" id="img-a97eb029-11">
        <g class="primitive">
          <text dy="0.35em">ifort</text>
        </g>
      </g>
      <g transform="translate(274.25,98.83)" id="img-a97eb029-12">
        <g class="primitive">
          <text dy="0.35em">g++ with Eigen-3</text>
        </g>
      </g>
      <g transform="translate(274.25,102.45)" id="img-a97eb029-13">
        <g class="primitive">
          <text dy="0.35em">clang++ with Eigen-3</text>
        </g>
      </g>
      <g transform="translate(274.25,106.08)" id="img-a97eb029-14">
        <g class="primitive">
          <text dy="0.35em">GFortran-builtin</text>
        </g>
      </g>
      <g transform="translate(274.25,109.71)" id="img-a97eb029-15">
        <g class="primitive">
          <text dy="0.35em">OpenBLAS</text>
        </g>
      </g>
      <g transform="translate(274.25,113.33)" id="img-a97eb029-16">
        <g class="primitive">
          <text dy="0.35em">ifort-builtin</text>
        </g>
      </g>
      <g transform="translate(274.25,116.96)" id="img-a97eb029-17">
        <g class="primitive">
          <text dy="0.35em">MKL</text>
        </g>
      </g>
    </g>
    <g stroke-width="0.3" id="img-a97eb029-18">
      <g stroke="#FFFFFF" fill-opacity="1" fill="#77C80D" id="img-a97eb029-19">
        <g transform="translate(271.44,116.96)" id="img-a97eb029-20">
          <circle cx="0" cy="0" r="0.9" class="primitive"/>
        </g>
      </g>
      <g stroke="#FFFFFF" fill-opacity="1" fill="#458874" id="img-a97eb029-21">
        <g transform="translate(271.44,113.33)" id="img-a97eb029-22">
          <circle cx="0" cy="0" r="0.9" class="primitive"/>
        </g>
      </g>
      <g stroke="#FFFFFF" fill-opacity="1" fill="#2F5EB8" id="img-a97eb029-23">
        <g transform="translate(271.44,109.71)" id="img-a97eb029-24">
          <circle cx="0" cy="0" r="0.9" class="primitive"/>
        </g>
      </g>
      <g stroke="#FFFFFF" fill-opacity="1" fill="#33AE26" id="img-a97eb029-25">
        <g transform="translate(271.44,106.08)" id="img-a97eb029-26">
          <circle cx="0" cy="0" r="0.9" class="primitive"/>
        </g>
      </g>
      <g stroke="#FFFFFF" fill-opacity="1" fill="#F2ED37" id="img-a97eb029-27">
        <g transform="translate(271.44,102.45)" id="img-a97eb029-28">
          <circle cx="0" cy="0" r="0.9" class="primitive"/>
        </g>
      </g>
      <g stroke="#FFFFFF" fill-opacity="1" fill="#FCC884" id="img-a97eb029-29">
        <g transform="translate(271.44,98.83)" id="img-a97eb029-30">
          <circle cx="0" cy="0" r="0.9" class="primitive"/>
        </g>
      </g>
      <g stroke="#FFFFFF" fill-opacity="1" fill="#FC93C0" id="img-a97eb029-31">
        <g transform="translate(271.44,95.2)" id="img-a97eb029-32">
          <circle cx="0" cy="0" r="0.9" class="primitive"/>
        </g>
      </g>
      <g stroke="#FFFFFF" fill-opacity="1" fill="#EF54F2" id="img-a97eb029-33">
        <g transform="translate(271.44,91.57)" id="img-a97eb029-34">
          <circle cx="0" cy="0" r="0.9" class="primitive"/>
        </g>
      </g>
      <g stroke="#FFFFFF" fill-opacity="1" fill="#B341FB" id="img-a97eb029-35">
        <g transform="translate(271.44,87.95)" id="img-a97eb029-36">
          <circle cx="0" cy="0" r="0.9" class="primitive"/>
        </g>
      </g>
      <g stroke="#FFFFFF" fill-opacity="1" fill="#732CF8" id="img-a97eb029-37">
        <g transform="translate(271.44,84.32)" id="img-a97eb029-38">
          <circle cx="0" cy="0" r="0.9" class="primitive"/>
        </g>
      </g>
      <g stroke="#FFFFFF" fill-opacity="1" fill="#FF0000" id="img-a97eb029-39">
        <g transform="translate(271.44,80.69)" id="img-a97eb029-40">
          <circle cx="0" cy="0" r="0.9" class="primitive"/>
        </g>
      </g>
      <g stroke="#FFFFFF" fill-opacity="1" fill="#000000" id="img-a97eb029-41">
        <g transform="translate(271.44,77.07)" id="img-a97eb029-42">
          <circle cx="0" cy="0" r="0.9" class="primitive"/>
        </g>
      </g>
    </g>
    <g fill="#362A35" font-size="3.88" font-family="'PT Sans','Helvetica Neue','Helvetica',sans-serif" stroke="#000000" stroke-opacity="0.000" id="img-a97eb029-43">
      <g transform="translate(270.63,73.75)" id="img-a97eb029-44">
        <g class="primitive">
          <text dy="-0em">Methods</text>
        </g>
      </g>
    </g>
  </g>
  <g clip-path="url(#img-a97eb029-45)">
    <g id="img-a97eb029-46">
      <g pointer-events="visible" stroke-width="0.3" fill="#000000" fill-opacity="0.000" stroke="#000000" stroke-opacity="0.000" class="guide background" id="img-a97eb029-47">
        <g transform="translate(144.63,94.46)" id="img-a97eb029-48">
          <path d="M-125,-89.46 L125,-89.46 125,89.46 -125,89.46  z" class="primitive"/>
        </g>
      </g>
      <g class="guide ygridlines xfixed" stroke-dasharray="0.5,0.5" stroke-width="0.2" stroke="#D0D0E0" id="img-a97eb029-49">
        <g transform="translate(144.63,181.91)" id="img-a97eb029-50">
          <path fill="none" d="M-125,0 L125,0 " class="primitive"/>
        </g>
        <g transform="translate(144.63,166.2)" id="img-a97eb029-51">
          <path fill="none" d="M-125,0 L125,0 " class="primitive"/>
        </g>
        <g transform="translate(144.63,150.49)" id="img-a97eb029-52">
          <path fill="none" d="M-125,0 L125,0 " class="primitive"/>
        </g>
        <g transform="translate(144.63,134.77)" id="img-a97eb029-53">
          <path fill="none" d="M-125,0 L125,0 " class="primitive"/>
        </g>
        <g transform="translate(144.63,119.06)" id="img-a97eb029-54">
          <path fill="none" d="M-125,0 L125,0 " class="primitive"/>
        </g>
        <g transform="translate(144.63,103.35)" id="img-a97eb029-55">
          <path fill="none" d="M-125,0 L125,0 " class="primitive"/>
        </g>
        <g transform="translate(144.63,87.63)" id="img-a97eb029-56">
          <path fill="none" d="M-125,0 L125,0 " class="primitive"/>
        </g>
        <g transform="translate(144.63,71.92)" id="img-a97eb029-57">
          <path fill="none" d="M-125,0 L125,0 " class="primitive"/>
        </g>
        <g transform="translate(144.63,56.2)" id="img-a97eb029-58">
          <path fill="none" d="M-125,0 L125,0 " class="primitive"/>
        </g>
        <g transform="translate(144.63,40.49)" id="img-a97eb029-59">
          <path fill="none" d="M-125,0 L125,0 " class="primitive"/>
        </g>
        <g transform="translate(144.63,24.78)" id="img-a97eb029-60">
          <path fill="none" d="M-125,0 L125,0 " class="primitive"/>
        </g>
        <g transform="translate(144.63,9.06)" id="img-a97eb029-61">
          <path fill="none" d="M-125,0 L125,0 " class="primitive"/>
        </g>
      </g>
      <g class="guide xgridlines yfixed" stroke-dasharray="0.5,0.5" stroke-width="0.2" stroke="#D0D0E0" id="img-a97eb029-62">
        <g transform="translate(21.63,94.46)" id="img-a97eb029-63">
          <path fill="none" d="M0,-89.46 L0,89.46 " class="primitive"/>
        </g>
        <g transform="translate(40.55,94.46)" id="img-a97eb029-64">
          <path fill="none" d="M0,-89.46 L0,89.46 " class="primitive"/>
        </g>
        <g transform="translate(59.48,94.46)" id="img-a97eb029-65">
          <path fill="none" d="M0,-89.46 L0,89.46 " class="primitive"/>
        </g>
        <g transform="translate(78.4,94.46)" id="img-a97eb029-66">
          <path fill="none" d="M0,-89.46 L0,89.46 " class="primitive"/>
        </g>
        <g transform="translate(97.32,94.46)" id="img-a97eb029-67">
          <path fill="none" d="M0,-89.46 L0,89.46 " class="primitive"/>
        </g>
        <g transform="translate(116.25,94.46)" id="img-a97eb029-68">
          <path fill="none" d="M0,-89.46 L0,89.46 " class="primitive"/>
        </g>
        <g transform="translate(135.17,94.46)" id="img-a97eb029-69">
          <path fill="none" d="M0,-89.46 L0,89.46 " class="primitive"/>
        </g>
        <g transform="translate(154.09,94.46)" id="img-a97eb029-70">
          <path fill="none" d="M0,-89.46 L0,89.46 " class="primitive"/>
        </g>
        <g transform="translate(173.01,94.46)" id="img-a97eb029-71">
          <path fill="none" d="M0,-89.46 L0,89.46 " class="primitive"/>
        </g>
        <g transform="translate(191.94,94.46)" id="img-a97eb029-72">
          <path fill="none" d="M0,-89.46 L0,89.46 " class="primitive"/>
        </g>
        <g transform="translate(210.86,94.46)" id="img-a97eb029-73">
          <path fill="none" d="M0,-89.46 L0,89.46 " class="primitive"/>
        </g>
        <g transform="translate(229.78,94.46)" id="img-a97eb029-74">
          <path fill="none" d="M0,-89.46 L0,89.46 " class="primitive"/>
        </g>
        <g transform="translate(248.7,94.46)" id="img-a97eb029-75">
          <path fill="none" d="M0,-89.46 L0,89.46 " class="primitive"/>
        </g>
        <g transform="translate(267.63,94.46)" id="img-a97eb029-76">
          <path fill="none" d="M0,-89.46 L0,89.46 " class="primitive"/>
        </g>
      </g>
      <g class="plotpanel" id="img-a97eb029-77">
        <metadata>
          <boundingbox value="19.63166666666666mm 5.0mm 249.99499999999995mm 178.915mm"/>
          <unitbox value="-2.113864102928922 112.58445851095999 264.22772820585783 -113.85721049367442"/>
        </metadata>
        <g stroke-width="0.3" fill="#000000" fill-opacity="0.000" class="geometry" id="img-a97eb029-78">
          <g class="color_RGB{Float64}(0.46484,0.78619,0.051424)" stroke-dasharray="none" stroke="#77C80D" id="img-a97eb029-79">
            <g transform="translate(143.68,50.71)" id="img-a97eb029-80">
              <path fill="none" d="M-120.16,131.04 L-119.21,130.65 -118.27,129.95 -117.32,128.77 -116.37,127.27 -115.43,125.13 -114.48,122.48 -113.54,120.7 -112.59,117.33 -111.64,113.65 -110.7,109.91 -109.75,104.96 -108.81,99.76 -107.86,94.65 -106.91,89.01 -105.97,92.02 -105.02,87.57 -104.07,82.67 -103.13,76.86 -102.18,71.95 -101.24,65.86 -100.29,59.31 -99.34,52.3 -98.4,71.57 -97.45,67.92 -96.51,62.96 -95.56,59.22 -94.61,54.68 -93.67,50.19 -92.72,46.83 -91.78,39.24 -90.83,50.74 -89.88,49.3 -88.94,45.78 -87.99,39.42 -87.04,37.09 -86.1,32.21 -85.15,30.33 -84.21,18.36 -83.26,33.92 -82.31,33.44 -81.37,29.22 -80.42,23.65 -79.48,19.9 -78.53,16.44 -77.58,13.95 -76.64,-2.11 -75.69,25.03 -74.74,22.99 -73.8,19.02 -72.85,15.1 -71.91,12.68 -70.96,10.73 -70.01,8.36 -69.07,-1.6 -68.12,14.5 -67.18,8.9 -66.23,8.02 -65.28,3.64 -64.34,1.12 -63.39,-2.1 -62.44,-5.69 -61.5,-13.57 -60.55,6.52 -59.61,1.44 -58.66,0.51 -57.71,-4.54 -56.77,-5.51 -55.82,-7.25 -54.88,-10.78 -53.93,-19.3 -52.98,7.77 -52.04,3.48 -51.09,3.45 -50.15,-0.73 -49.2,-1.93 -48.25,-4.81 -47.31,-3.14 -46.36,-14.76 -45.41,-1.41 -44.47,-4.9 -43.52,-6.19 -42.58,-9.08 -41.63,-3.96 -40.68,-5.61 -39.74,-13.62 -38.79,-23.12 -37.85,-7.7 -36.9,-10.17 -35.95,-10.74 -35.01,-14.44 -34.06,-14.3 -33.11,-17.36 -32.17,-18.6 -31.22,-30.16 -30.28,-6.76 -29.33,-8.67 -28.38,-11.37 -27.44,-14.19 -26.49,-13.77 -25.55,-15.51 -24.6,-14.03 -23.65,-26.39 -22.71,-15.17 -21.76,-14.85 -20.81,-17.17 -19.87,-20.18 -18.92,-19.46 -17.98,-20.32 -17.03,-22.14 -16.08,-33.09 -15.14,-14.31 -14.19,-16.88 -13.25,-18.34 -12.3,-22.69 -11.35,-20.3 -10.41,-24.76 -9.46,-23.78 -8.52,-37.17 -7.57,-11.57 -6.62,-14.68 -5.68,-16.19 -4.73,-20.56 -3.78,-17.8 -2.84,-21.03 -1.89,-21.57 -0.95,-31.8 -0,-14.94 0.95,-17.98 1.89,-20.12 2.84,-25.23 3.78,-22.56 4.73,-27.05 5.68,-25.56 6.62,-37.85 7.57,-18.02 8.52,-20.53 9.46,-23.06 10.41,-27.7 11.35,-25.12 12.3,-27.47 13.25,-29.21 14.19,-40.26 15.14,-16.32 16.08,-19.39 17.03,-20.17 17.98,-25.26 18.92,-24.35 19.87,-24.86 20.81,-25.54 21.76,-37.47 22.71,-19.8 23.65,-21.9 24.6,-24.14 25.55,-28.87 26.49,-26.37 27.44,-28.51 28.38,-28.9 29.33,-42.26 30.28,-22.98 31.22,-24.86 32.17,-27.74 33.11,-31.65 34.06,-28.93 35.01,-30.97 35.95,-31.75 36.9,-43.37 37.85,-17.36 38.79,-21.91 39.74,-25.83 40.68,-22.47 41.63,-22.14 42.58,-26.54 43.52,-28.65 44.47,-40.3 45.41,-22.79 46.36,-24.91 47.31,-27.57 48.25,-30.83 49.2,-28.58 50.15,-30.93 51.09,-31.58 52.04,-43.71 52.98,-26.02 53.93,-26.8 54.88,-29.65 55.82,-33.24 56.77,-30.43 57.71,-32.88 58.66,-33.71 59.61,-30.84 60.55,-12 61.5,-14.44 62.44,-4.81 63.39,-18.95 64.34,-6.27 65.28,-9.32 66.23,0.07 67.18,-21.73 68.12,-9.21 69.07,-11.36 70.01,-2.02 70.96,-15.37 71.91,-2.22 72.85,-6.03 73.8,1.86 74.74,-24.66 75.69,-11.65 76.64,-13.9 77.58,-4.5 78.53,-17.83 79.48,-6.99 80.42,-9.42 81.37,0.31 82.31,-27.35 83.26,-14.35 84.21,-16.57 85.15,-6.84 86.1,-18.95 87.04,-8.01 87.99,-9.69 88.94,-1.92 89.88,-23.01 90.83,-11.88 91.78,-13.48 92.72,-4.29 93.67,-16.22 94.61,-7.05 95.56,-8.29 96.51,-0.31 97.45,-26.98 98.4,-15.02 99.34,-15.02 100.29,-8.81 101.24,-21.14 102.18,-9.2 103.13,-11.82 104.07,-3.82 105.02,-27.37 105.97,-16.77 106.91,-18.04 107.86,-10.11 108.81,-22.1 109.75,-12.39 110.7,-12.56 111.64,-5.42 112.59,-26.54 113.54,-14.58 114.48,-17.22 115.43,-7.82 116.37,-20.41 117.32,-10.34 118.27,-12.9 119.21,-5.65 120.16,-28.34 " class="primitive"/>
            </g>
          </g>
        </g>
        <g stroke-width="0.3" fill="#000000" fill-opacity="0.000" class="geometry" id="img-a97eb029-81">
          <g class="color_RGB{Float64}(0.271475,0.531685,0.455665)" stroke-dasharray="none" stroke="#458874" id="img-a97eb029-82">
            <g transform="translate(143.68,92.07)" id="img-a97eb029-83">
              <path fill="none" d="M-120.16,89.66 L-119.21,89.32 -118.27,88.6 -117.32,87.86 -116.37,86.06 -115.43,85.06 -114.48,82.32 -113.54,81.39 -112.59,79.53 -111.64,78.79 -110.7,72.65 -109.75,72.46 -108.81,70.13 -107.86,71.34 -106.91,63.4 -105.97,65.24 -105.02,57.65 -104.07,60.35 -103.13,54.76 -102.18,57.63 -101.24,56.74 -100.29,59.13 -99.34,38.8 -98.4,45.21 -97.45,44.05 -96.51,49.33 -95.56,42.17 -94.61,46.84 -93.67,38.93 -92.72,43.92 -91.78,28.19 -90.83,36.21 -89.88,36.11 -88.94,40.95 -87.99,27.19 -87.04,34.42 -86.1,33.67 -85.15,39.29 -84.21,23.17 -83.26,30.7 -82.31,24.21 -81.37,31.11 -80.42,22.3 -79.48,30.14 -78.53,28.71 -77.58,34.67 -76.64,10.27 -75.69,19.52 -74.74,20.61 -73.8,25.59 -72.85,17.28 -71.91,24.85 -70.96,18.5 -70.01,24.64 -69.07,8.99 -68.12,17.29 -67.18,16.87 -66.23,24.1 -65.28,9.93 -64.34,17.36 -63.39,19.64 -62.44,24.29 -61.5,8.62 -60.55,14.95 -59.61,6.41 -58.66,13.56 -57.71,6.56 -56.77,13.73 -55.82,14.12 -54.88,20.03 -53.93,-2.37 -52.98,6.76 -52.04,6.39 -51.09,16.62 -50.15,10.65 -49.2,14.04 -48.25,10.11 -47.31,12.8 -46.36,-4.03 -45.41,6.91 -44.47,4.42 -43.52,10.73 -42.58,-4.3 -41.63,7.5 -40.68,7.79 -39.74,9.67 -38.79,-3.55 -37.85,3.95 -36.9,-4.12 -35.95,2.6 -35.01,-3.9 -34.06,7.06 -33.11,6.8 -32.17,10.12 -31.22,-14.19 -30.28,-5.62 -29.33,-5.34 -28.38,1.5 -27.44,-5.03 -26.49,5.82 -25.55,-5.11 -24.6,1.1 -23.65,-12.23 -22.71,-0.02 -21.76,-4.09 -20.81,2.15 -19.87,-6.23 -18.92,-4.65 -17.98,-4.35 -17.03,1.82 -16.08,-8.3 -15.14,-6.35 -14.19,-13.44 -13.25,-2.02 -12.3,-13.47 -11.35,-6.45 -10.41,-5.92 -9.46,3.82 -8.52,-20.28 -7.57,-12.36 -6.62,-6.82 -5.68,-5.64 -4.73,-11.75 -3.78,-5.06 -2.84,-11.85 -1.89,-5.42 -0.95,-20.92 -0,-13.74 0.95,-13.27 1.89,-7.29 2.84,-20.78 3.78,-9.75 4.73,-7.21 5.68,-3.73 6.62,-15.05 7.57,-6.74 8.52,-12.56 9.46,-7.41 10.41,-12.29 11.35,-6.39 12.3,-11.71 13.25,-6.2 14.19,-19.73 15.14,-15.39 16.08,-13.31 17.03,-13.6 17.98,-19.67 18.92,-7.52 19.87,-13.66 20.81,-13.51 21.76,-25.14 22.71,-17.34 23.65,-17.27 24.6,-11.93 25.55,-24.51 26.49,-17.05 27.44,-10.87 28.38,-11.24 29.33,-17.67 30.28,-18.89 31.22,-24.58 32.17,-18.24 33.11,-24.26 34.06,-17.61 35.01,-16.61 35.95,-5.96 36.9,-28.1 37.85,-19.98 38.79,-14.19 39.74,-9.34 40.68,-19.22 41.63,-13.39 42.58,-13.66 43.52,-15.22 44.47,-20.29 45.41,-20.6 46.36,-14.04 47.31,-9.71 48.25,-26.06 49.2,-13.74 50.15,-19.51 51.09,-13.69 52.04,-24.43 52.98,-17.96 53.93,-22.21 54.88,-11.84 55.82,-22.25 56.77,-10.94 57.71,-16.72 58.66,-11.84 59.61,-21.06 60.55,-31.77 61.5,-23.09 62.44,-26.04 63.39,-28.36 64.34,-26.14 65.28,-24.08 66.23,-25.64 67.18,-25.92 68.12,-22.41 69.07,-22.02 70.01,-24.45 70.96,-25.22 71.91,-26.94 72.85,-26.91 73.8,-20.7 74.74,-30.33 75.69,-26.88 76.64,-26.62 77.58,-28.11 78.53,-30.66 79.48,-28.05 80.42,-24.62 81.37,-21.62 82.31,-32.74 83.26,-30.71 84.21,-25.1 85.15,-23.58 86.1,-28.92 87.04,-26.65 87.99,-29.36 88.94,-23.04 89.88,-30.67 90.83,-31.28 91.78,-28.72 92.72,-25.92 93.67,-32.04 94.61,-30.68 95.56,-25.24 96.51,-23.54 97.45,-29.98 98.4,-27.94 99.34,-29.68 100.29,-26.31 101.24,-27.43 102.18,-25.4 103.13,-29.33 104.07,-26.53 105.02,-36.59 105.97,-32.65 106.91,-30.67 107.86,-29.23 108.81,-28.8 109.75,-30.68 110.7,-31.72 111.64,-29.46 112.59,-34.1 113.54,-31.79 114.48,-31.35 115.43,-29.44 116.37,-34.81 117.32,-32.2 118.27,-31.26 119.21,-27.77 120.16,-34.53 " class="primitive"/>
            </g>
          </g>
        </g>
        <g stroke-width="0.3" fill="#000000" fill-opacity="0.000" class="geometry" id="img-a97eb029-84">
          <g class="color_RGB{Float64}(0.184295,0.36709,0.72131)" stroke-dasharray="none" stroke="#2F5EB8" id="img-a97eb029-85">
            <g transform="translate(143.68,131.67)" id="img-a97eb029-86">
              <path fill="none" d="M-120.16,49.68 L-119.21,49.02 -118.27,47.16 -117.32,46.71 -116.37,45.74 -115.43,45.28 -114.48,38.66 -113.54,40.75 -112.59,39.72 -111.64,40.53 -110.7,32.24 -109.75,34.2 -108.81,34.07 -107.86,35.71 -106.91,23.98 -105.97,30.33 -105.02,30.74 -104.07,31.72 -103.13,19.18 -102.18,25.35 -101.24,26.59 -100.29,28.3 -99.34,14.23 -98.4,21.75 -97.45,21.87 -96.51,24.52 -95.56,10.53 -94.61,17.6 -93.67,18.02 -92.72,20.56 -91.78,5.06 -90.83,14.09 -89.88,14.91 -88.94,17.8 -87.99,5 -87.04,11.95 -86.1,12.99 -85.15,16.26 -84.21,1.61 -83.26,10.29 -82.31,10.22 -81.37,14.92 -80.42,-0.96 -79.48,8.28 -78.53,8.42 -77.58,13.28 -76.64,-2.97 -75.69,6.95 -74.74,7.48 -73.8,10.75 -72.85,-5.03 -71.91,4.87 -70.96,5.64 -70.01,8.99 -69.07,-6.89 -68.12,4.66 -67.18,5.31 -66.23,8.26 -65.28,-7.42 -64.34,3.44 -63.39,4.88 -62.44,8.22 -61.5,-6.53 -60.55,1.8 -59.61,2.35 -58.66,6.42 -57.71,-9.47 -56.77,1.56 -55.82,1.86 -54.88,6 -53.93,-10.98 -52.98,0.48 -52.04,1.7 -51.09,4.88 -50.15,-9.87 -49.2,0.38 -48.25,2.29 -47.31,3.73 -46.36,-12.98 -45.41,-0.46 -44.47,-0.05 -43.52,3.17 -42.58,-11.74 -41.63,-0.77 -40.68,0.59 -39.74,2.43 -38.79,-14.81 -37.85,-1.62 -36.9,-2.47 -35.95,1.6 -35.01,-15.63 -34.06,-2.3 -33.11,-1.56 -32.17,0.82 -31.22,-15.33 -30.28,-3.66 -29.33,-4.1 -28.38,0.02 -27.44,-17.24 -26.49,-2.12 -25.55,-3.67 -24.6,0.08 -23.65,-17.55 -22.71,-2.86 -21.76,-5.32 -20.81,-1.28 -19.87,-15.67 -18.92,-5.38 -17.98,-5.13 -17.03,-1.29 -16.08,-15.81 -15.14,-6.03 -14.19,-6.71 -13.25,-0.66 -12.3,-20.03 -11.35,-6.37 -10.41,-6.34 -9.46,-2.4 -8.52,-20.12 -7.57,-6.72 -6.62,-6.16 -5.68,-2.62 -4.73,-20.76 -3.78,-7.13 -2.84,-7.44 -1.89,-2.49 -0.95,-10.09 -0,-5.81 0.95,-5.98 1.89,-1.87 2.84,-11.49 3.78,-4.12 4.73,-3.36 5.68,0.16 6.62,-11.5 7.57,-2.81 8.52,-4.01 9.46,-0.75 10.41,-10.74 11.35,-3.5 12.3,-5.79 13.25,-1.95 14.19,-10.31 15.14,-3.9 16.08,-4.08 17.03,-2.08 17.98,-12.48 18.92,-5.21 19.87,-4.16 20.81,-1.9 21.76,-12.54 22.71,-5.17 23.65,-6.05 24.6,-2.14 25.55,-13.18 26.49,-5.36 27.44,-4 28.38,-2.19 29.33,-10.21 30.28,-5.1 31.22,-6.31 32.17,-2.71 33.11,-13.77 34.06,-5.74 35.01,-5.41 35.95,0.43 36.9,-13.54 37.85,-3.46 38.79,-3.54 39.74,0.4 40.68,-11.4 41.63,-3.55 42.58,-2.81 43.52,-2.47 44.47,-11.13 45.41,-5.9 46.36,-5.18 47.31,-1.56 48.25,-15 49.2,-4.38 50.15,-7.16 51.09,-3.42 52.04,-14.98 52.98,-6.34 53.93,-5.73 54.88,-1.96 55.82,-14.95 56.77,-3.94 57.71,-7.12 58.66,-3.25 59.61,-9.38 60.55,-6.01 61.5,-5.29 62.44,-3.18 63.39,-14.63 64.34,-5.79 65.28,-5.5 66.23,-3.75 67.18,-12.67 68.12,-4.25 69.07,-7.69 70.01,-3.75 70.96,-15.42 71.91,-4.91 72.85,-7.52 73.8,-2.32 74.74,-14.81 75.69,-6.38 76.64,-6.85 77.58,-3.91 78.53,-15.65 79.48,-6.03 80.42,-5.71 81.37,-1.8 82.31,-15.18 83.26,-6.44 84.21,-6.1 85.15,-2.49 86.1,-15.57 87.04,-6.16 87.99,-7.54 88.94,-2 89.88,-12.24 90.83,-6.55 91.78,-5.98 92.72,-4.08 93.67,-15.72 94.61,-6.65 95.56,-6.64 96.51,-3.18 97.45,-15.42 98.4,-6.61 99.34,-7.77 100.29,-3.67 101.24,-13.6 102.18,-5.58 103.13,-8 104.07,-4.37 105.02,-15.85 105.97,-7.23 106.91,-7.91 107.86,-4.38 108.81,-13.7 109.75,-6.76 110.7,-7.72 111.64,-3.65 112.59,-14.9 113.54,-5.32 114.48,-5.21 115.43,-0.94 116.37,-14.86 117.32,0.46 118.27,-5.82 119.21,0.12 120.16,-14.62 " class="primitive"/>
            </g>
          </g>
        </g>
        <g stroke-width="0.3" fill="#000000" fill-opacity="0.000" class="geometry" id="img-a97eb029-87">
          <g class="color_RGB{Float64}(0.19818750000000002,0.6815825,0.147585)" stroke-dasharray="none" stroke="#33AE26" id="img-a97eb029-88">
            <g transform="translate(143.68,157.2)" id="img-a97eb029-89">
              <path fill="none" d="M-120.16,24.13 L-119.21,23.36 -118.27,21.77 -117.32,20.92 -116.37,20.51 -115.43,19.96 -114.48,17.27 -113.54,17.17 -112.59,17.48 -111.64,17.8 -110.7,14.21 -109.75,14.74 -108.81,15.31 -107.86,15.83 -106.91,8.47 -105.97,12.32 -105.02,13.31 -104.07,13.83 -103.13,11.42 -102.18,11.37 -101.24,12.13 -100.29,11.75 -99.34,1.39 -98.4,7.45 -97.45,9.24 -96.51,9.12 -95.56,6.5 -94.61,6.45 -93.67,7.47 -92.72,9.13 -91.78,6.34 -90.83,9.85 -89.88,7.48 -88.94,7.97 -87.99,5.97 -87.04,6.25 -86.1,6.19 -85.15,7.83 -84.21,4.9 -83.26,5.99 -82.31,6.73 -81.37,7.2 -80.42,4.42 -79.48,4.78 -78.53,4.42 -77.58,6.5 -76.64,2.91 -75.69,4.69 -74.74,4.94 -73.8,5.34 -72.85,2.47 -71.91,3.66 -70.96,3.01 -70.01,4.18 -69.07,1.58 -68.12,4.53 -67.18,3.77 -66.23,3.64 -65.28,2.06 -64.34,1.79 -63.39,2.79 -62.44,3.35 -61.5,0.65 -60.55,1.94 -59.61,1.43 -58.66,2.16 -57.71,-0.46 -56.77,0.94 -55.82,0.38 -54.88,1.63 -53.93,-1.09 -52.98,0.95 -52.04,0.09 -51.09,1.21 -50.15,-0.45 -49.2,-0.12 -48.25,1.01 -47.31,0.55 -46.36,-2.12 -45.41,0.73 -44.47,-0.65 -43.52,0.26 -42.58,-2.63 -41.63,0.52 -40.68,0.01 -39.74,0.02 -38.79,-3.06 -37.85,-0.7 -36.9,-1.58 -35.95,-0.47 -35.01,-3.52 -34.06,-0.23 -33.11,-0.52 -32.17,-0.68 -31.22,-3.38 -30.28,-1.44 -29.33,-2.42 -28.38,-1.41 -27.44,-3.82 -26.49,-0.87 -25.55,-2.91 -24.6,-1.37 -23.65,-4.58 -22.71,-0.05 -21.76,-3.03 -20.81,-1.63 -19.87,-3 -18.92,-2.97 -17.98,-3.38 -17.03,-1.97 -16.08,-3.31 -15.14,-2.49 -14.19,-2 -13.25,-2.52 -12.3,-5.21 -11.35,-3.32 -10.41,-4.09 -9.46,-2.35 -8.52,-5.75 -7.57,-2.99 -6.62,-3.82 -5.68,-2.86 -4.73,-5.81 -3.78,-4.08 -2.84,-4.49 -1.89,-2.91 -0.95,-5.57 -0,-3.79 0.95,-4.77 1.89,-3.64 2.84,-6.43 3.78,0.83 4.73,0.71 5.68,-2.06 6.62,-5.38 7.57,0.65 8.52,-2.68 9.46,-3.07 10.41,-1.34 11.35,-0.15 12.3,-0.26 13.25,0.41 14.19,-6.92 15.14,-2.71 16.08,0.27 17.03,0.07 17.98,-3.13 18.92,-0.24 19.87,0.09 20.81,0.01 21.76,-2.18 22.71,-4.16 23.65,-5.82 24.6,-0.14 25.55,-6.76 26.49,-5.19 27.44,-0.33 28.38,0.34 29.33,-2.6 30.28,-0.22 31.22,-0.97 32.17,-4.65 33.11,-2.55 34.06,-0.2 35.01,-0.91 35.95,0.45 36.9,-3.28 37.85,-0.33 38.79,-4.09 39.74,0.13 40.68,-2.78 41.63,-0.91 42.58,0.03 43.52,-2.24 44.47,-5.96 45.41,-5.02 46.36,-1.56 47.31,0.36 48.25,-3 49.2,-0.42 50.15,-1.38 51.09,-0.59 52.04,-6.13 52.98,-0.96 53.93,-0.58 54.88,-0.73 55.82,-3.36 56.77,-0.63 57.71,-1.65 58.66,-1.17 59.61,-1.36 60.55,-5.37 61.5,-0.39 62.44,-0.05 63.39,-8.11 64.34,-1.32 65.28,-0.35 66.23,-5.07 67.18,-8.96 68.12,-0.13 69.07,-6.97 70.01,-1.04 70.96,-8.87 71.91,-1.22 72.85,-7.34 73.8,-3.28 74.74,-8.76 75.69,-5.98 76.64,-1.45 77.58,-0.98 78.53,-8.81 79.48,-1.34 80.42,-5.16 81.37,-0.12 82.31,-8.91 83.26,-1.45 84.21,-7.6 85.15,-3.99 86.1,-4.33 87.04,-6.74 87.99,-7.57 88.94,-5.38 89.88,-6.56 90.83,-6.27 91.78,-7.61 92.72,-6.1 93.67,-9.37 94.61,-1.5 95.56,-6.48 96.51,-4.32 97.45,-9.28 98.4,-1.59 99.34,-7.73 100.29,-5.44 101.24,-7 102.18,-5.81 103.13,-7.87 104.07,-5.71 105.02,-9.61 105.97,-3.75 106.91,-7.84 107.86,-1.74 108.81,-7.49 109.75,-7.3 110.7,-7.81 111.64,-5.69 112.59,-4.38 113.54,-6.62 114.48,-1.38 115.43,-6.97 116.37,-7.33 117.32,-1.94 118.27,-8.16 119.21,-3.72 120.16,-9.29 " class="primitive"/>
            </g>
          </g>
        </g>
        <g stroke-width="0.3" fill="#000000" fill-opacity="0.000" class="geometry" id="img-a97eb029-90">
          <g class="color_RGB{Float64}(0.9472050000000001,0.93113,0.21654)" stroke-dasharray="none" stroke="#F2ED37" id="img-a97eb029-91">
            <g transform="translate(143.68,79.19)" id="img-a97eb029-92">
              <path fill="none" d="M-120.16,101.96 L-119.21,101.46 -118.27,101.06 -117.32,100.61 -116.37,100.25 -115.43,98.64 -114.48,91.44 -113.54,91.81 -112.59,91.22 -111.64,91.1 -110.7,87.22 -109.75,87.43 -108.81,87.99 -107.86,88.89 -106.91,65.04 -105.97,70.96 -105.02,72.68 -104.07,74.77 -103.13,67.42 -102.18,71.69 -101.24,74.01 -100.29,76 -99.34,40.6 -98.4,48.64 -97.45,52.59 -96.51,58.33 -95.56,49.81 -94.61,55.65 -93.67,59.23 -92.72,63.96 -91.78,31.58 -90.83,40.18 -89.88,42.23 -88.94,45.03 -87.99,40.57 -87.04,44.98 -86.1,46.72 -85.15,50.38 -84.21,16.74 -83.26,26.42 -82.31,28.18 -81.37,33.84 -80.42,28.8 -79.48,34.19 -78.53,35.6 -77.58,40.86 -76.64,6.91 -75.69,16.61 -74.74,21.44 -73.8,25.41 -72.85,20.76 -71.91,27.09 -70.96,29.83 -70.01,34.42 -69.07,6.69 -68.12,15.82 -67.18,21.33 -66.23,24.15 -65.28,25.05 -64.34,28.8 -63.39,25.8 -62.44,30.24 -61.5,-3.57 -60.55,4.16 -59.61,5.48 -58.66,11.19 -57.71,5.37 -56.77,11.79 -55.82,12.26 -54.88,17.5 -53.93,-13.59 -52.98,-2.19 -52.04,-1.6 -51.09,4.2 -50.15,4.09 -49.2,4.8 -48.25,10.8 -47.31,11.38 -46.36,-10.9 -45.41,0.68 -44.47,-1.11 -43.52,4.19 -42.58,-1.28 -41.63,9.03 -40.68,9.37 -39.74,11.14 -38.79,-14.44 -37.85,-10.67 -36.9,-9.59 -35.95,-3.71 -35.01,-9.42 -34.06,1.76 -33.11,2.32 -32.17,3.86 -31.22,-25 -30.28,-15.45 -29.33,-8.57 -28.38,-9.82 -27.44,-15.13 -26.49,-3.03 -25.55,-8.9 -24.6,1.88 -23.65,-23 -22.71,-9.32 -21.76,-13.66 -20.81,-8.6 -19.87,-7.15 -18.92,-7.74 -17.98,-7.53 -17.03,-1.86 -16.08,-22.91 -15.14,-21.19 -14.19,-13.69 -13.25,-14.9 -12.3,-20.72 -11.35,-14.4 -10.41,-13.55 -9.46,-8.28 -8.52,-34.64 -7.57,-25.28 -6.62,-16.8 -5.68,-18.84 -4.73,-24.48 -3.78,-18 -2.84,-17.66 -1.89,-11.43 -0.95,-27.82 -0,-22.6 0.95,-21.96 1.89,-17.03 2.84,-21.04 3.78,-11.97 4.73,-7.48 5.68,-6.6 6.62,-29.65 7.57,-17.79 8.52,-16.62 9.46,-15.28 10.41,-16.5 11.35,-16.7 12.3,-16.19 13.25,-12.43 14.19,-35.92 15.14,-21.72 16.08,-19.96 17.03,-21.34 17.98,-25.88 18.92,-20.45 19.87,-14.15 20.81,-9.31 21.76,-33.15 22.71,-24.37 23.65,-22.59 24.6,-19.19 25.55,-23.09 26.49,-11.83 27.44,-16.8 28.38,-13.33 29.33,-37.57 30.28,-21.81 31.22,-26.97 32.17,-22.91 33.11,-20.49 34.06,-22.71 35.01,-20.67 35.95,-17.26 36.9,-38.54 37.85,-27.36 38.79,-20.87 39.74,-16.47 40.68,-27.73 41.63,-23.35 42.58,-15.11 43.52,-20.11 44.47,-26.19 45.41,-26.8 46.36,-26 47.31,-15.86 48.25,-25.8 49.2,-14.94 50.15,-20.26 51.09,-16.97 52.04,-39.21 52.98,-22.23 53.93,-21.15 54.88,-25.75 55.82,-29.73 56.77,-17.86 57.71,-23.45 58.66,-20.32 59.61,-26.46 60.55,-31.23 61.5,-24.01 62.44,-18.03 63.39,-30.39 64.34,-25.33 65.28,-16.81 66.23,-14.47 67.18,-36.14 68.12,-19.36 69.07,-26.07 70.01,-23.09 70.96,-27.79 71.91,-21.56 72.85,-22.11 73.8,-14.27 74.74,-34.33 75.69,-28.64 76.64,-22.95 77.58,-24.01 78.53,-27.83 79.48,-23.66 80.42,-15.44 81.37,-12.32 82.31,-35.98 83.26,-29.92 84.21,-28.18 85.15,-18.25 86.1,-27.35 87.04,-23.25 87.99,-22.68 88.94,-19.45 89.88,-23.03 90.83,-26.13 91.78,-23.84 92.72,-19.13 93.67,-23.43 94.61,-21.95 95.56,-15 96.51,-12.58 97.45,-33.4 98.4,-27.32 99.34,-24.35 100.29,-20.15 101.24,-20.55 102.18,-16.78 103.13,-16.11 104.07,-18.17 105.02,-35.29 105.97,-27.61 106.91,-25.06 107.86,-23.42 108.81,-20.78 109.75,-25.19 110.7,-21.41 111.64,-18.79 112.59,-30.49 113.54,-23.81 114.48,-18.58 115.43,-20.83 116.37,-18.79 117.32,-22.1 118.27,-22.21 119.21,-9.85 120.16,-32.1 " class="primitive"/>
            </g>
          </g>
        </g>
        <g stroke-width="0.3" fill="#000000" fill-opacity="0.000" class="geometry" id="img-a97eb029-93">
          <g class="color_RGB{Float64}(0.9876875,0.782915,0.516455)" stroke-dasharray="none" stroke="#FCC884" id="img-a97eb029-94">
            <g transform="translate(143.68,72.47)" id="img-a97eb029-95">
              <path fill="none" d="M-120.16,108.69 L-119.21,108.27 -118.27,107.97 -117.32,107.53 -116.37,107.28 -115.43,105.07 -114.48,97.25 -113.54,96.95 -112.59,95.77 -111.64,95.48 -110.7,90.28 -109.75,91.01 -108.81,91.3 -107.86,92.08 -106.91,62.85 -105.97,69.78 -105.02,71.21 -104.07,74.73 -103.13,64.75 -102.18,72.04 -101.24,72.96 -100.29,77.86 -99.34,26.27 -98.4,40.99 -97.45,46.29 -96.51,53.75 -95.56,44.58 -94.61,52.23 -93.67,56.74 -92.72,63.25 -91.78,26 -90.83,39.68 -89.88,43.37 -88.94,49.62 -87.99,39.16 -87.04,46.71 -86.1,52.05 -85.15,57.77 -84.21,12.52 -83.26,26.47 -82.31,30.11 -81.37,37.28 -80.42,27.5 -79.48,36.04 -78.53,40.3 -77.58,47.01 -76.64,0.14 -75.69,14.18 -74.74,19.91 -73.8,25.76 -72.85,14.84 -71.91,26.25 -70.96,31.02 -70.01,37.19 -69.07,-1.38 -68.12,12.28 -67.18,19.59 -66.23,26.31 -65.28,21.04 -64.34,27.64 -63.39,25.65 -62.44,33.33 -61.5,-7.11 -60.55,2.56 -59.61,5.32 -58.66,13.38 -57.71,2.78 -56.77,12.43 -55.82,15.45 -54.88,23.96 -53.93,-21.76 -52.98,-5.27 -52.04,-3.16 -51.09,4.45 -50.15,0.02 -49.2,5.04 -48.25,10.41 -47.31,15.8 -46.36,-15.86 -45.41,-2.52 -44.47,-1.45 -43.52,5.15 -42.58,-3.47 -41.63,7.19 -40.68,9.16 -39.74,14.83 -38.79,-26.61 -37.85,-12.97 -36.9,-9.75 -35.95,-3.45 -35.01,-9.33 -34.06,-2.21 -33.11,2.23 -32.17,6.75 -31.22,-29.89 -30.28,-17.33 -29.33,-16.18 -28.38,-8.56 -27.44,-17.99 -26.49,-5.85 -25.55,-6.24 -24.6,3.84 -23.65,-24.86 -22.71,-13.75 -21.76,-13.44 -20.81,-7.79 -19.87,-12.68 -18.92,-7.5 -17.98,-5.31 -17.03,1.77 -16.08,-32.49 -15.14,-22.62 -14.19,-20.47 -13.25,-11.34 -12.3,-22.8 -11.35,-14.14 -10.41,-12.13 -9.46,-4.41 -8.52,-39.32 -7.57,-27.14 -6.62,-21.5 -5.68,-19.01 -4.73,-27.29 -3.78,-18.44 -2.84,-16.17 -1.89,-8.76 -0.95,-30.42 -0,-24 0.95,-22.2 1.89,-12.95 2.84,-23.39 3.78,-13.73 4.73,-7.89 5.68,-4.53 6.62,-35.71 7.57,-24.31 8.52,-16.48 9.46,-14.98 10.41,-18.14 11.35,-16.33 12.3,-14.49 13.25,-9.41 14.19,-40.51 15.14,-25.49 16.08,-23.05 17.03,-21.99 17.98,-27.66 18.92,-20.6 19.87,-15.21 20.81,-9.42 21.76,-36.42 22.71,-25.17 23.65,-22.8 24.6,-19.23 25.55,-19.37 26.49,-15.16 27.44,-16.01 28.38,-11.42 29.33,-39.47 30.28,-24.65 31.22,-27.29 32.17,-22.79 33.11,-23.55 34.06,-22.83 35.01,-19.05 35.95,-12.03 36.9,-40.88 37.85,-27.97 38.79,-26.8 39.74,-20.59 40.68,-29.33 41.63,-23.76 42.58,-19 43.52,-18.53 44.47,-36.85 45.41,-27.53 46.36,-26.17 47.31,-19.66 48.25,-26.25 49.2,-18.71 50.15,-19.06 51.09,-14.54 52.04,-40.43 52.98,-26.54 53.93,-25.17 54.88,-24.85 55.82,-30.15 56.77,-20.64 57.71,-21.49 58.66,-17.34 59.61,-31.29 60.55,-30.56 61.5,-26.92 62.44,-21.43 63.39,-30.05 64.34,-23.57 65.28,-22.48 66.23,-18.78 67.18,-35.61 68.12,-22.88 69.07,-24.5 70.01,-20.87 70.96,-26.38 71.91,-18.54 72.85,-18.73 73.8,-14.15 74.74,-31.38 75.69,-26.01 76.64,-23.84 77.58,-20.54 78.53,-25.72 79.48,-20.66 80.42,-15.86 81.37,-12.37 82.31,-34.2 83.26,-28.03 84.21,-25.65 85.15,-20.43 86.1,-25.69 87.04,-20.19 87.99,-19.65 88.94,-15.43 89.88,-24.87 90.83,-23.27 91.78,-20.78 92.72,-14.87 93.67,-20.18 94.61,-15.65 95.56,-14.19 96.51,-10.95 97.45,-29.69 98.4,-24.37 99.34,-21.07 100.29,-18.79 101.24,-21.47 102.18,-14.99 103.13,-15.95 104.07,-12.28 105.02,-30.68 105.97,-23.46 106.91,-20.59 107.86,-18.32 108.81,-21.2 109.75,-20.51 110.7,-16.75 111.64,-13.23 112.59,-25.96 113.54,-19.8 114.48,-21.72 115.43,-16.34 116.37,-18.61 117.32,-17.31 118.27,-16.99 119.21,-7 120.16,-26.12 " class="primitive"/>
            </g>
          </g>
        </g>
        <g stroke-width="0.3" fill="#000000" fill-opacity="0.000" class="geometry" id="img-a97eb029-96">
          <g class="color_RGB{Float64}(0.98704,0.57494,0.75486)" stroke-dasharray="none" stroke="#FC93C0" id="img-a97eb029-97">
            <g transform="translate(143.68,149.85)" id="img-a97eb029-98">
              <path fill="none" d="M-120.16,31.37 L-119.21,30.58 -118.27,27.73 -117.32,27.53 -116.37,27.17 -115.43,27.11 -114.48,15.26 -113.54,19.53 -112.59,20.14 -111.64,21.19 -110.7,9.99 -109.75,16.68 -108.81,16.94 -107.86,18.81 -106.91,5.28 -105.97,11.18 -105.02,12.9 -104.07,15.41 -103.13,2.21 -102.18,8.45 -101.24,10.77 -100.29,13.26 -99.34,0.1 -98.4,4.88 -97.45,6.87 -96.51,9.6 -95.56,0.15 -94.61,3.07 -93.67,5.8 -92.72,8.4 -91.78,-4.08 -90.83,2.9 -89.88,3.33 -88.94,5.61 -87.99,-0.93 -87.04,-0.62 -86.1,4.61 -85.15,6.59 -84.21,-4.43 -83.26,-1.32 -82.31,1.05 -81.37,3.77 -80.42,-4.94 -79.48,-1.48 -78.53,0.67 -77.58,3.15 -76.64,-5.69 -75.69,-2.58 -74.74,-0.26 -73.8,2.19 -72.85,-6.23 -71.91,-2.84 -70.96,-0.89 -70.01,1.6 -69.07,-6.06 -68.12,-0.1 -67.18,1.42 -66.23,0.83 -65.28,-5.28 -64.34,-3.15 -63.39,-1.07 -62.44,2.28 -61.5,-1.31 -60.55,-3.25 -59.61,-1.76 -58.66,-0.09 -57.71,-4.92 -56.77,-3.73 -55.82,-1.8 -54.88,-0.04 -53.93,-6.08 -52.98,-2.76 -52.04,-2.94 -51.09,1.63 -50.15,-5.56 -49.2,-3.96 -48.25,0.49 -47.31,2.87 -46.36,-6.13 -45.41,-1.27 -44.47,-2.62 -43.52,-1.33 -42.58,-6.11 -41.63,-0.54 -40.68,0.03 -39.74,-2.05 -38.79,-3.48 -37.85,-4.49 -36.9,-3.4 -35.95,-1.85 -35.01,-1.95 -34.06,-1.61 -33.11,-0.13 -32.17,-1.54 -31.22,-2.92 -30.28,-3.83 -29.33,-3.79 -28.38,-2.27 -27.44,-6.23 -26.49,-1.6 -25.55,-3.87 -24.6,0.55 -23.65,-4.18 -22.71,-2.45 -21.76,-3.97 -20.81,-2.54 -19.87,-1.91 -18.92,-4.9 -17.98,-3.04 -17.03,-2.26 -16.08,-3.15 -15.14,-4.43 -14.19,-0.63 -13.25,0.44 -12.3,-5.83 -11.35,-4.55 -10.41,-3.81 -9.46,-2.69 -8.52,-6.68 -7.57,-4.32 -6.62,1.38 -5.68,-1.53 -4.73,-6.16 -3.78,-5.79 -2.84,-4.67 -1.89,-3.72 -0.95,3.37 -0,-3.4 0.95,-4.06 1.89,0.69 2.84,0.28 3.78,-0.12 4.73,0.1 5.68,1.5 6.62,0.01 7.57,1.01 8.52,1.29 9.46,1.04 10.41,1.8 11.35,-2.57 12.3,-2.41 13.25,-0.94 14.19,-1.21 15.14,-0.89 16.08,0.99 17.03,-0.82 17.98,-1.86 18.92,-3.7 19.87,0.1 20.81,1.54 21.76,-2.55 22.71,-3.47 23.65,-2.4 24.6,-1.68 25.55,-2.19 26.49,-3.89 27.44,0.07 28.38,-1.49 29.33,0.08 30.28,-3.51 31.22,-2.89 32.17,-0.9 33.11,0.51 34.06,-4.15 35.01,-3.87 35.95,0.54 36.9,-0.37 37.85,-3.91 38.79,1.75 39.74,4.52 40.68,-3.16 41.63,-3.53 42.58,-0.84 43.52,-3.04 44.47,-3.84 45.41,-4.42 46.36,-4.24 47.31,-0 48.25,-3.39 49.2,-1.09 50.15,-4.38 51.09,-1.72 52.04,-4.13 52.98,-5.05 53.93,-0.77 54.88,-3.06 55.82,-3.74 56.77,-1.24 57.71,-4.11 58.66,-3.15 59.61,3.79 60.55,-4.61 61.5,-1.88 62.44,-3.18 63.39,-3.62 64.34,-1.59 65.28,-4.08 66.23,-3.57 67.18,-4.07 68.12,-4.72 69.07,-4.35 70.01,-3.08 70.96,-4.11 71.91,0.21 72.85,-3.92 73.8,-0.07 74.74,-4.27 75.69,-4.78 76.64,-1.93 77.58,-2.97 78.53,-3.54 79.48,-4.5 80.42,-4.1 81.37,0.02 82.31,-4.02 83.26,-4.16 84.21,-3.95 85.15,0.22 86.1,-3.3 87.04,-3.98 87.99,-3.75 88.94,-2.68 89.88,0.22 90.83,-3.82 91.78,-3.72 92.72,-2.87 93.67,-3.03 94.61,-0.15 95.56,-1.07 96.51,-0.42 97.45,-3.87 98.4,-2.92 99.34,-2.95 100.29,-0.14 101.24,0.45 102.18,-0.91 103.13,0.25 104.07,0.12 105.02,-3.58 105.97,-1.47 106.91,-2.69 107.86,-1.96 108.81,0.8 109.75,-2.87 110.7,-2.39 111.64,-1.86 112.59,-2.83 113.54,-3.12 114.48,-2.72 115.43,-1.46 116.37,-2.22 117.32,-0.46 118.27,-1.7 119.21,4.13 120.16,3.33 " class="primitive"/>
            </g>
          </g>
        </g>
        <g stroke-width="0.3" fill="#000000" fill-opacity="0.000" class="geometry" id="img-a97eb029-99">
          <g class="color_RGB{Float64}(0.9360050000000001,0.3313625,0.949375)" stroke-dasharray="none" stroke="#EF54F2" id="img-a97eb029-100">
            <g transform="translate(143.68,161.09)" id="img-a97eb029-101">
              <path fill="none" d="M-120.16,19.41 L-119.21,18.43 -118.27,12.84 -117.32,14.92 -116.37,15.44 -115.43,15.54 -114.48,3.23 -113.54,8.9 -112.59,10.09 -111.64,11.34 -110.7,-1.02 -109.75,7.03 -108.81,8.1 -107.86,9.79 -106.91,-1.67 -105.97,5.57 -105.02,5.22 -104.07,6.7 -103.13,-4.1 -102.18,3.87 -101.24,5.25 -100.29,6.51 -99.34,-4.98 -98.4,2.23 -97.45,3.55 -96.51,4.74 -95.56,-4.04 -94.61,1.12 -93.67,2.49 -92.72,4.62 -91.78,-5.83 -90.83,1.55 -89.88,2.02 -88.94,2.63 -87.99,-4.24 -87.04,1.31 -86.1,2.4 -85.15,3.26 -84.21,-5.86 -83.26,0.13 -82.31,0.92 -81.37,2.3 -80.42,-5.07 -79.48,0.01 -78.53,0.5 -77.58,1.91 -76.64,-6.33 -75.69,-0.64 -74.74,-0.25 -73.8,1.18 -72.85,-6.57 -71.91,-0.42 -70.96,-0.24 -70.01,1.22 -69.07,-6.36 -68.12,0.04 -67.18,0.65 -66.23,1.08 -65.28,-5.98 -64.34,-0.29 -63.39,0.12 -62.44,-0.23 -61.5,-4.4 -60.55,-0.15 -59.61,-0.15 -58.66,0.69 -57.71,-5.87 -56.77,-0.5 -55.82,-0.3 -54.88,0.52 -53.93,-6.24 -52.98,-0.57 -52.04,-0.32 -51.09,0.18 -50.15,-6.06 -49.2,-0.84 -48.25,0.06 -47.31,0.71 -46.36,-6.15 -45.41,-0.41 -44.47,-0.71 -43.52,0.33 -42.58,-6.19 -41.63,-0.7 -40.68,-1.48 -39.74,-0.04 -38.79,-5.08 -37.85,-0.98 -36.9,-0.27 -35.95,0.4 -35.01,-4.47 -34.06,0.25 -33.11,-0.15 -32.17,0.05 -31.22,-4.25 -30.28,-0.75 -29.33,-0.64 -28.38,-0 -27.44,-6.28 -26.49,-0.45 -25.55,-0.72 -24.6,0.14 -23.65,-7.29 -22.71,-1 -21.76,-0.31 -20.81,-0.23 -19.87,-4.52 -18.92,-0.82 -17.98,-0.77 -17.03,-0.14 -16.08,-4.98 -15.14,-1.06 -14.19,0.61 -13.25,0.46 -12.3,-5.93 -11.35,-0.67 -10.41,-0.28 -9.46,-0.12 -8.52,-6.21 -7.57,-0.86 -6.62,0.49 -5.68,0.3 -4.73,-6.2 -3.78,-0.83 -2.84,-0.87 -1.89,-0.07 -0.95,-3.7 -0,-2 0.95,-1.98 1.89,-0.63 2.84,-6.4 3.78,-0.24 4.73,-0.56 5.68,0.02 6.62,-5.55 7.57,-0.35 8.52,-0.26 9.46,0.07 10.41,-4.33 11.35,-0.78 12.3,-0.69 13.25,-0.33 14.19,-5.35 15.14,-0.76 16.08,-0.29 17.03,0.36 17.98,-5.74 18.92,-1.02 19.87,-0.34 20.81,-0.1 21.76,-6.4 22.71,-1.14 23.65,-0.48 24.6,-0.02 25.55,-5.72 26.49,-0.87 27.44,0.02 28.38,-0.01 29.33,-3.72 30.28,-0.55 31.22,-0.64 32.17,0.71 33.11,-4.22 34.06,-0.55 35.01,-0.92 35.95,0.13 36.9,-4.64 37.85,1.01 38.79,2.33 39.74,3.63 40.68,-4.04 41.63,0.37 42.58,-0.53 43.52,-0.5 44.47,-5.66 45.41,-0.52 46.36,-0.94 47.31,0.19 48.25,-5.56 49.2,0.35 50.15,-0.84 51.09,1.04 52.04,-5.56 52.98,-0.32 53.93,-0.23 54.88,0.65 55.82,-4.94 56.77,0.64 57.71,-0.7 58.66,0.49 59.61,-2.54 60.55,0.46 61.5,-0.03 62.44,1.2 63.39,-4.21 64.34,1.59 65.28,-0.07 66.23,0.8 67.18,-4.31 68.12,-0.16 69.07,-0 70.01,1.23 70.96,-3.69 71.91,2.51 72.85,0.34 73.8,1.24 74.74,-3.35 75.69,1 76.64,0.56 77.58,1.86 78.53,-3.25 79.48,0.26 80.42,0.31 81.37,1.68 82.31,-3.52 83.26,1.29 84.21,0.32 85.15,1.82 86.1,-2.66 87.04,1.58 87.99,0.54 88.94,1.81 89.88,-1.04 90.83,1.52 91.78,0.53 92.72,1.92 93.67,-2.48 94.61,1.73 95.56,0.93 96.51,1.43 97.45,-3.07 98.4,2.3 99.34,0.55 100.29,2.36 101.24,-2.75 102.18,2.11 103.13,1.26 104.07,3.29 105.02,-1.88 105.97,3 106.91,0.62 107.86,2.33 108.81,-1.71 109.75,2.46 110.7,1.44 111.64,2.27 112.59,-2.84 113.54,2.01 114.48,0.74 115.43,2.59 116.37,-2.05 117.32,3.57 118.27,1.99 119.21,5.59 120.16,1.35 " class="primitive"/>
            </g>
          </g>
        </g>
        <g stroke-width="0.3" fill="#000000" fill-opacity="0.000" class="geometry" id="img-a97eb029-102">
          <g class="color_RGB{Float64}(0.7018800000000001,0.25504499999999997,0.9848349999999999)" stroke-dasharray="none" stroke="#B341FB" id="img-a97eb029-103">
            <g transform="translate(143.68,172.08)" id="img-a97eb029-104">
              <path fill="none" d="M-120.16,8.7 L-119.21,7.66 -118.27,6.91 -117.32,6.56 -116.37,5.73 -115.43,5.71 -114.48,4.97 -113.54,5.15 -112.59,4.5 -111.64,5.01 -110.7,3.98 -109.75,3.89 -108.81,3.2 -107.86,3.22 -106.91,1.14 -105.97,2.33 -105.02,1.55 -104.07,1.95 -103.13,1.48 -102.18,1.87 -101.24,1.44 -100.29,1.78 -99.34,1.4 -98.4,1.73 -97.45,1.38 -96.51,1.68 -95.56,1.36 -94.61,1.64 -93.67,0.73 -92.72,1.02 -91.78,-0.43 -90.83,0.21 -89.88,-0.28 -88.94,0.04 -87.99,-0.3 -87.04,0.05 -86.1,0.3 -85.15,0.58 -84.21,0.33 -83.26,0.59 -82.31,0.36 -81.37,0.63 -80.42,0.43 -79.48,0.67 -78.53,-0.26 -77.58,0.62 -76.64,-0.63 -75.69,-0.07 -74.74,-0.52 -73.8,-0.11 -72.85,-0.44 -71.91,-0.08 -70.96,-0.39 -70.01,-0.04 -69.07,-0.29 -68.12,0.54 -67.18,0.08 -66.23,0.01 -65.28,-0.01 -64.34,0.07 -63.39,-0.23 -62.44,0.3 -61.5,-0.51 -60.55,-0.38 -59.61,-0.87 -58.66,-0.4 -57.71,-0.8 -56.77,-0.34 -55.82,-0.72 -54.88,-0.36 -53.93,-0.68 -52.98,-0.27 -52.04,-0.64 -51.09,-0.31 -50.15,-0.57 -49.2,-0.23 -48.25,-0.47 -47.31,-0.32 -46.36,-1.1 -45.41,-0.32 -44.47,-1.09 -43.52,-0.69 -42.58,-1.06 -41.63,-0.08 -40.68,-0.48 -39.74,-0.64 -38.79,-0.95 -37.85,-0.6 -36.9,-0.92 -35.95,-0.57 -35.01,-0.44 -34.06,-0.48 -33.11,-0.89 -32.17,-0.61 -31.22,-1.27 -30.28,-0.93 -29.33,-1.31 -28.38,-0.9 -27.44,-1.23 -26.49,-0.85 -25.55,-1.19 -24.6,-0.86 -23.65,-1.16 -22.71,-0.84 -21.76,-0.7 -20.81,-0.8 -19.87,-0.68 -18.92,-0.76 -17.98,-1.09 -17.03,-0.82 -16.08,-1.12 -15.14,-1.07 -14.19,-1.83 -13.25,-0.56 -12.3,-1.36 -11.35,-1.06 -10.41,-1.33 -9.46,-1.03 -8.52,-1.3 -7.57,-1.45 -6.62,-1.43 -5.68,-1.46 -4.73,-1.83 -3.78,-1.59 -2.84,-1.91 -1.89,-1.59 -0.95,3.8 -0,-1.92 0.95,-2.24 1.89,-1.81 2.84,-1.59 3.78,-1.48 4.73,-1.78 5.68,-1.48 6.62,-1.8 7.57,-1.3 8.52,-1.6 9.46,-1.4 10.41,-1.61 11.35,-1.59 12.3,-1.95 13.25,-1.29 14.19,-2.21 15.14,-1.59 16.08,-1.75 17.03,-1.9 17.98,-2.14 18.92,-1.89 19.87,-1.79 20.81,-1.59 21.76,-2.1 22.71,-1.8 23.65,-2.08 24.6,-1.78 25.55,-2.01 26.49,-1.75 27.44,-1.75 28.38,-1.74 29.33,3.43 30.28,-1.93 31.22,-2.02 32.17,-1.64 33.11,-1.88 34.06,-1.87 35.01,-2.02 35.95,-1.22 36.9,-1.78 37.85,-1.81 38.79,-1.84 39.74,-0.98 40.68,-2 41.63,-1.55 42.58,-1.67 43.52,-1.64 44.47,-2.2 45.41,-1.7 46.36,-2.11 47.31,-1.47 48.25,-2.13 49.2,-1.48 50.15,-1.95 51.09,-1.33 52.04,-1.59 52.98,-1.06 53.93,-0.98 54.88,-1.03 55.82,-1.15 56.77,-0.14 57.71,-0.98 58.66,-0.43 59.61,4.06 60.55,0.02 61.5,-0.19 62.44,0.41 63.39,-0.15 64.34,0.69 65.28,0.02 66.23,0.59 67.18,0.17 68.12,0.7 69.07,0.36 70.01,0.84 70.96,0.44 71.91,1.23 72.85,0.39 73.8,0.88 74.74,0.46 75.69,0.8 76.64,0.39 77.58,0.83 78.53,0.41 79.48,0.81 80.42,0.41 81.37,0.85 82.31,0.35 83.26,0.82 84.21,0.35 85.15,0.85 86.1,0.41 87.04,0.85 87.99,0.4 88.94,0.88 89.88,3.97 90.83,0.81 91.78,0.35 92.72,0.84 93.67,0.42 94.61,0.83 95.56,0.39 96.51,0.85 97.45,0.43 98.4,0.82 99.34,0.36 100.29,0.85 101.24,0.4 102.18,0.87 103.13,0.46 104.07,1.42 105.02,1.06 105.97,1.34 106.91,0.38 107.86,0.83 108.81,0.4 109.75,0.81 110.7,0.44 111.64,0.83 112.59,0.36 113.54,0.83 114.48,0.36 115.43,0.84 116.37,0.42 117.32,0.84 118.27,0.39 119.21,0.85 120.16,4.41 " class="primitive"/>
            </g>
          </g>
        </g>
        <g stroke-width="0.3" fill="#000000" fill-opacity="0.000" class="geometry" id="img-a97eb029-105">
          <g class="color_RGB{Float64}(0.45187999999999995,0.172285,0.9716199999999999)" stroke-dasharray="none" stroke="#732CF8" id="img-a97eb029-106">
            <g transform="translate(143.68,174.62)" id="img-a97eb029-107">
              <path fill="none" d="M-120.16,6.02 L-119.21,5.09 -118.27,4.4 -117.32,4.12 -116.37,3.86 -115.43,3.58 -114.48,2.5 -113.54,2.7 -112.59,2.87 -111.64,2.14 -110.7,1.66 -109.75,1.52 -108.81,1.28 -107.86,1.48 -106.91,1.12 -105.97,1.13 -105.02,1.42 -104.07,1.29 -103.13,0.92 -102.18,1 -101.24,0.95 -100.29,0.88 -99.34,0.56 -98.4,0.65 -97.45,0.61 -96.51,0.6 -95.56,-0.02 -94.61,0.11 -93.67,0.09 -92.72,0.03 -91.78,-0.21 -90.83,-0.07 -89.88,-0.19 -88.94,0.2 -87.99,-0.03 -87.04,0.08 -86.1,0.06 -85.15,0.06 -84.21,-0.15 -83.26,-0.05 -82.31,-0.07 -81.37,-0.09 -80.42,-0.25 -79.48,-0.17 -78.53,-0.16 -77.58,-0.17 -76.64,-0.33 -75.69,-0.25 -74.74,-0.26 -73.8,-0.28 -72.85,-0.42 -71.91,-0.32 -70.96,-0.34 -70.01,-0.34 -69.07,-0.48 -68.12,-0.37 -67.18,-0.4 -66.23,-0.41 -65.28,-0.53 -64.34,-0.45 -63.39,-0.45 -62.44,-0.45 -61.5,-0.48 -60.55,-0.5 -59.61,-0.5 -58.66,-0.5 -57.71,-0.6 -56.77,-0.55 -55.82,-0.55 -54.88,-0.55 -53.93,-0.43 -52.98,-0.54 -52.04,-0.58 -51.09,-0.59 -50.15,-0.69 -49.2,-0.63 -48.25,-0.61 -47.31,-0.62 -46.36,-0.45 -45.41,-0.66 -44.47,-0.65 -43.52,-0.66 -42.58,-0.71 -41.63,-0.68 -40.68,-0.68 -39.74,-0.69 -38.79,-0.76 -37.85,-0.72 -36.9,-0.71 -35.95,-0.72 -35.01,-0.75 -34.06,-0.68 -33.11,-0.73 -32.17,-0.73 -31.22,-0.39 -30.28,-0.76 -29.33,-0.76 -28.38,-0.76 -27.44,-0.82 -26.49,-0.78 -25.55,-0.82 -24.6,-1.03 -23.65,-1.14 -22.71,-0.81 -21.76,-0.81 -20.81,-1.11 -19.87,-1.17 -18.92,-1.16 -17.98,-1.16 -17.03,-1.29 -16.08,-1.01 -15.14,-1.32 -14.19,-1.31 -13.25,-1.32 -12.3,-1.3 -11.35,-1.33 -10.41,-1.31 -9.46,-1.33 -8.52,-1.04 -7.57,-1.36 -6.62,-1.33 -5.68,-1.33 -4.73,-1.32 -3.78,-1.38 -2.84,-1.36 -1.89,-1.35 -0.95,1.44 -0,-1.37 0.95,-1.32 1.89,-0.81 2.84,-0.98 3.78,-1.39 4.73,-0.88 5.68,-0.91 6.62,-1.09 7.57,-0.96 8.52,-1.39 9.46,-1.37 10.41,-1.35 11.35,-1.36 12.3,-1.41 13.25,-1.38 14.19,-1.05 15.14,-1.43 16.08,-1.36 17.03,-1.41 17.98,-1.37 18.92,-1.43 19.87,-1.41 20.81,-0.91 21.76,-0.7 22.71,-1.45 23.65,-0.95 24.6,-1.42 25.55,-1.37 26.49,-0.96 27.44,-1.37 28.38,-0.95 29.33,1.66 30.28,-1.44 31.22,-0.95 32.17,-1 33.11,-1.33 34.06,-1.02 35.01,-1.4 35.95,-0.98 36.9,-0.65 37.85,-1.37 38.79,-0.99 39.74,-0.83 40.68,-1.34 41.63,-1.1 42.58,-1.23 43.52,-1.35 44.47,-0.99 45.41,-1.46 46.36,-1.31 47.31,-1.38 48.25,-1.14 49.2,-1.26 50.15,-1.15 51.09,-1.16 52.04,-0.8 52.98,-1.11 53.93,-0.89 54.88,-0.7 55.82,-0.53 56.77,-0.49 57.71,-0.41 58.66,-0.16 59.61,2.26 60.55,0.1 61.5,0.2 62.44,0.4 63.39,0.49 64.34,1.89 65.28,0.6 66.23,0.74 67.18,0.75 68.12,0.97 69.07,1.02 70.01,1.02 70.96,0.98 71.91,2.14 72.85,1.01 73.8,1.06 74.74,1.11 75.69,1.09 76.64,1.03 77.58,1.05 78.53,1.01 79.48,1.04 80.42,1.05 81.37,1.03 82.31,0.98 83.26,1.05 84.21,1.07 85.15,1.06 86.1,1.1 87.04,1.07 87.99,1.09 88.94,1.05 89.88,2.83 90.83,1.05 91.78,1.1 92.72,1.06 93.67,1.09 94.61,1.07 95.56,1.08 96.51,1.04 97.45,1.04 98.4,1.14 99.34,1.08 100.29,1.07 101.24,1.04 102.18,1.08 103.13,1.08 104.07,2.25 105.02,1.57 105.97,2.18 106.91,1.09 107.86,1.07 108.81,1.08 109.75,1.12 110.7,1.09 111.64,1.07 112.59,1.03 113.54,1.09 114.48,1.08 115.43,1.11 116.37,1.05 117.32,1.08 118.27,1.07 119.21,1.07 120.16,3.03 " class="primitive"/>
            </g>
          </g>
        </g>
        <g stroke-width="0.3" fill="#000000" fill-opacity="0.000" class="geometry" id="img-a97eb029-108">
          <g class="color_RGB{Float64}(1.0,0.0,0.0)" stroke-dasharray="none" stroke="#FF0000" id="img-a97eb029-109">
            <g transform="translate(143.68,176.95)" id="img-a97eb029-110">
              <path fill="none" d="M-120.16,3.49 L-119.21,2.92 -118.27,1.84 -117.32,2.32 -116.37,2.37 -115.43,0.76 -114.48,1.72 -113.54,1.62 -112.59,0.52 -111.64,0.31 -110.7,0.18 -109.75,0.99 -108.81,1.41 -107.86,-0.21 -106.91,1.3 -105.97,1.26 -105.02,0.42 -104.07,-0.5 -103.13,-0.55 -102.18,0.69 -101.24,1.11 -100.29,0.07 -99.34,1.07 -98.4,-0.74 -97.45,-0.75 -96.51,1.03 -95.56,-0.82 -94.61,0.99 -93.67,-0.86 -92.72,0.97 -91.78,0.76 -90.83,1.47 -89.88,-0.88 -88.94,-0.88 -87.99,-0.89 -87.04,-0.92 -86.1,1.49 -85.15,-0.2 -84.21,1.47 -83.26,-0.25 -82.31,-0.04 -81.37,-1.02 -80.42,0.71 -79.48,-0.98 -78.53,0.71 -77.58,0.71 -76.64,0.71 -75.69,-1.01 -74.74,0.7 -73.8,0.7 -72.85,-1.02 -71.91,-1.02 -70.96,0.7 -70.01,-0.33 -69.07,0.69 -68.12,-1.06 -67.18,-1.06 -66.23,-1.06 -65.28,-1.1 -64.34,-1.07 -63.39,-1.08 -62.44,0.69 -61.5,0.69 -60.55,0.68 -59.61,0.68 -58.66,-0.38 -57.71,0.68 -56.77,0.68 -55.82,0.68 -54.88,0.68 -53.93,-0.39 -52.98,-1.1 -52.04,-0.54 -51.09,-0.55 -50.15,-0.56 -49.2,0.12 -48.25,1.05 -47.31,1.04 -46.36,1.04 -45.41,1.03 -44.47,-0.6 -43.52,-0.63 -42.58,-0.61 -41.63,-0.64 -40.68,-0.66 -39.74,-0.68 -38.79,-0.79 -37.85,0.48 -36.9,0.48 -35.95,0.48 -35.01,0.47 -34.06,-0.44 -33.11,-1.14 -32.17,0.86 -31.22,-0.23 -30.28,0.86 -29.33,-0.94 -28.38,-0.94 -27.44,0.84 -26.49,-1.03 -25.55,-0.97 -24.6,0.96 -23.65,0.95 -22.71,-0.77 -21.76,-0.71 -20.81,-0.3 -19.87,-0.99 -18.92,0.79 -17.98,0.81 -17.03,0.91 -16.08,-0.97 -15.14,0.88 -14.19,-1.02 -13.25,-1.12 -12.3,0.88 -11.35,-1.05 -10.41,-0.37 -9.46,0.76 -8.52,-1.01 -7.57,0.85 -6.62,-1.16 -5.68,0.83 -4.73,-0.25 -3.78,-0.9 -2.84,-1.1 -1.89,0.73 -0.95,0.82 -0,0.74 0.95,-1.12 1.89,-0.97 2.84,0.8 3.78,-0.31 4.73,0.79 5.68,-0.99 6.62,-1.05 7.57,-1.12 8.52,0.77 9.46,0.77 10.41,-1.25 11.35,-0.35 12.3,0.76 13.25,-1.03 14.19,0.75 15.14,-1.05 16.08,0.74 17.03,-1.06 17.98,0.74 18.92,-1.07 19.87,0.73 20.81,-1.2 21.76,0.72 22.71,-1.19 23.65,0.72 24.6,-0.42 25.55,-1.1 26.49,0.72 27.44,-1.2 28.38,0.71 29.33,0.71 30.28,-1.13 31.22,-1.14 32.17,0.71 33.11,-1.13 34.06,-0.46 35.01,0.69 35.95,-1.28 36.9,-1.05 37.85,-1.12 38.79,-1.13 39.74,0.68 40.68,-0.49 41.63,0.68 42.58,0.68 43.52,0.68 44.47,0.67 45.41,-1.25 46.36,-1.14 47.31,-1.16 48.25,0.66 49.2,-1.28 50.15,0.66 51.09,-0.51 52.04,0.66 52.98,-1.13 53.93,-1.19 54.88,0.66 55.82,0.65 56.77,0.65 57.71,-1.04 58.66,-1 59.61,-0.07 60.55,0.65 61.5,0.65 62.44,-0.86 63.39,-0.84 64.34,0.64 65.28,-0.8 66.23,-0.75 67.18,0.64 68.12,0.63 69.07,-0.49 70.01,-0.65 70.96,0.63 71.91,0.63 72.85,0.63 73.8,-0.61 74.74,-0.46 75.69,-0.62 76.64,-0.65 77.58,0.62 78.53,-0.51 79.48,0.62 80.42,0.62 81.37,-0.62 82.31,0.62 83.26,0.61 84.21,-0.66 85.15,-0.61 86.1,-0.67 87.04,0.61 87.99,0.61 88.94,-0.52 89.88,0.07 90.83,0.6 91.78,0.6 92.72,-0.61 93.67,-0.66 94.61,-0.63 95.56,0.6 96.51,0.6 97.45,-0.62 98.4,0.6 99.34,-0.66 100.29,-0.62 101.24,0.59 102.18,-0.52 103.13,-0.65 104.07,0.59 105.02,-0.37 105.97,0.59 106.91,-0.66 107.86,0.59 108.81,-0.68 109.75,0.58 110.7,-0.66 111.64,-0.53 112.59,-0.5 113.54,-0.6 114.48,-0.65 115.43,-0.59 116.37,0.58 117.32,0.58 118.27,-0.65 119.21,0.58 120.16,0.59 " class="primitive"/>
            </g>
          </g>
        </g>
        <g stroke-width="0.3" fill="#000000" fill-opacity="0.000" class="geometry" id="img-a97eb029-111">
          <g class="color_RGB{Float64}(0.0,0.0,0.0)" stroke-dasharray="none" stroke="#000000" id="img-a97eb029-112">
            <g transform="translate(143.68,44.8)" id="img-a97eb029-113">
              <path fill="none" d="M-120.16,135.38 L-119.21,132.44 -118.27,126.82 -117.32,119.87 -116.37,109.16 -115.43,100.91 -114.48,83.85 -113.54,93.18 -112.59,92.54 -111.64,78.38 -110.7,74.78 -109.75,60.59 -108.81,48.46 -107.86,36.71 -106.91,29.14 -105.97,49.07 -105.02,37.86 -104.07,40.86 -103.13,32.97 -102.18,24.01 -101.24,11.68 -100.29,6.95 -99.34,-7.46 -98.4,29.83 -97.45,24.11 -96.51,16.21 -95.56,21.03 -94.61,14.24 -93.67,6.05 -92.72,-1 -91.78,-6.81 -90.83,13.02 -89.88,12.95 -88.94,7.56 -87.99,5.71 -87.04,4.06 -86.1,-0.68 -85.15,-5.41 -84.21,-13.75 -83.26,11.28 -82.31,3.73 -81.37,2.41 -80.42,-2.24 -79.48,-2.36 -78.53,-6.73 -77.58,-11.74 -76.64,-20.48 -75.69,9.85 -74.74,8.51 -73.8,7.33 -72.85,-1.53 -71.91,-0.76 -70.96,-7.91 -70.01,-3.42 -69.07,-15.75 -68.12,9.52 -67.18,-3.18 -66.23,-5.07 -65.28,-11.27 -64.34,-9.08 -63.39,-16.26 -62.44,-17.06 -61.5,-18.97 -60.55,-1.54 -59.61,-10.07 -58.66,-8.4 -57.71,-13.77 -56.77,-15.13 -55.82,-15.35 -54.88,-15.87 -53.93,-33.07 -52.98,13.33 -52.04,-1.1 -51.09,-3.1 -50.15,-10.72 -49.2,-7 -48.25,-11.07 -47.31,-13.15 -46.36,-26.05 -45.41,-4.45 -44.47,-2.47 -43.52,-4.78 -42.58,-13.77 -41.63,0.57 -40.68,-8.88 -39.74,-15.19 -38.79,-31.08 -37.85,-1.08 -36.9,-11.84 -35.95,-6.4 -35.01,-16.7 -34.06,-6.02 -33.11,-14.71 -32.17,-13.78 -31.22,-34.26 -30.28,0.5 -29.33,-3.74 -28.38,-1.63 -27.44,-8.76 -26.49,-2.01 -25.55,-3.66 -24.6,-5.56 -23.65,-26.88 -22.71,-1.9 -21.76,-6.28 -20.81,-7.11 -19.87,-12.46 -18.92,-4.72 -17.98,-8.91 -17.03,-6.63 -16.08,-31.24 -15.14,-4.24 -14.19,-10.79 -13.25,-4.86 -12.3,-11.51 -11.35,-7.19 -10.41,-11.9 -9.46,-6.78 -8.52,-34.2 -7.57,-0.33 -6.62,10.62 -5.68,-2.65 -4.73,-10.56 -3.78,-6.63 -2.84,-7.18 -1.89,-4.71 -0.95,-29.21 -0,-0.96 0.95,-3.89 1.89,-5.31 2.84,-10.91 3.78,-6.71 4.73,-10.1 5.68,-9.09 6.62,-31.88 7.57,12.31 8.52,-5.03 9.46,-5.32 10.41,-0.15 11.35,-9.43 12.3,-12.04 13.25,4.95 14.19,-37.22 15.14,1.22 16.08,-5.79 17.03,-2.81 17.98,-8.77 18.92,-7.04 19.87,3.25 20.81,-5.38 21.76,-31.55 22.71,-4.64 23.65,-4.01 24.6,-4.39 25.55,-7.86 26.49,-6.13 27.44,-9.12 28.38,-9.84 29.33,-35.68 30.28,-7.38 31.22,-8.57 32.17,-3.83 33.11,-9.92 34.06,-7.74 35.01,-10.33 35.95,6.5 36.9,-33.2 37.85,-1.99 38.79,-7.34 39.74,-6.25 40.68,-7.82 41.63,-2.76 42.58,6.79 43.52,-5.35 44.47,-28.72 45.41,-3.99 46.36,-4.96 47.31,-5.18 48.25,-9.72 49.2,11.27 50.15,-6.22 51.09,-5.49 52.04,-30.82 52.98,10.35 53.93,-6.15 54.88,-5.78 55.82,-11.06 56.77,7.98 57.71,-6.02 58.66,-5.85 59.61,-32.86 60.55,-0.87 61.5,-0.44 62.44,-1.66 63.39,-7.16 64.34,-4.04 65.28,-5.15 66.23,-4.86 67.18,-27.77 68.12,-1.11 69.07,-4.37 70.01,-3.93 70.96,-11.82 71.91,-8.85 72.85,-6.82 73.8,-7.26 74.74,-30.56 75.69,-3.24 76.64,-5.07 77.58,-4.38 78.53,-8.96 79.48,-4.96 80.42,-8.63 81.37,-7.1 82.31,-30.1 83.26,2.74 84.21,1.09 85.15,-0.54 86.1,-4.45 87.04,0.29 87.99,-1.38 88.94,-2.98 89.88,-25.76 90.83,-2.1 91.78,-0.19 92.72,0.37 93.67,-7.06 94.61,-2.55 95.56,-4.37 96.51,-4.05 97.45,-28.35 98.4,-2.42 99.34,-3.34 100.29,-1.09 101.24,-8.38 102.18,-2.92 103.13,-4.14 104.07,-4.03 105.02,-29.02 105.97,1.46 106.91,-1.52 107.86,-0.85 108.81,-4.84 109.75,-0.77 110.7,-1.55 111.64,-1.83 112.59,-25.9 113.54,-2.63 114.48,8.38 115.43,-2.8 116.37,-8.18 117.32,-3.54 118.27,-5.55 119.21,0.41 120.16,-28.85 " class="primitive"/>
            </g>
          </g>
        </g>
      </g>
    </g>
  </g>
  <g class="guide ylabels" font-size="2.82" font-family="'PT Sans Caption','Helvetica Neue','Helvetica',sans-serif" fill="#6C606B" id="img-a97eb029-114">
    <g transform="translate(18.63,181.91)" id="img-a97eb029-115">
      <g class="primitive">
        <text text-anchor="end" dy="0.35em">0</text>
      </g>
    </g>
    <g transform="translate(18.63,166.2)" id="img-a97eb029-116">
      <g class="primitive">
        <text text-anchor="end" dy="0.35em">10</text>
      </g>
    </g>
    <g transform="translate(18.63,150.49)" id="img-a97eb029-117">
      <g class="primitive">
        <text text-anchor="end" dy="0.35em">20</text>
      </g>
    </g>
    <g transform="translate(18.63,134.77)" id="img-a97eb029-118">
      <g class="primitive">
        <text text-anchor="end" dy="0.35em">30</text>
      </g>
    </g>
    <g transform="translate(18.63,119.06)" id="img-a97eb029-119">
      <g class="primitive">
        <text text-anchor="end" dy="0.35em">40</text>
      </g>
    </g>
    <g transform="translate(18.63,103.35)" id="img-a97eb029-120">
      <g class="primitive">
        <text text-anchor="end" dy="0.35em">50</text>
      </g>
    </g>
    <g transform="translate(18.63,87.63)" id="img-a97eb029-121">
      <g class="primitive">
        <text text-anchor="end" dy="0.35em">60</text>
      </g>
    </g>
    <g transform="translate(18.63,71.92)" id="img-a97eb029-122">
      <g class="primitive">
        <text text-anchor="end" dy="0.35em">70</text>
      </g>
    </g>
    <g transform="translate(18.63,56.2)" id="img-a97eb029-123">
      <g class="primitive">
        <text text-anchor="end" dy="0.35em">80</text>
      </g>
    </g>
    <g transform="translate(18.63,40.49)" id="img-a97eb029-124">
      <g class="primitive">
        <text text-anchor="end" dy="0.35em">90</text>
      </g>
    </g>
    <g transform="translate(18.63,24.78)" id="img-a97eb029-125">
      <g class="primitive">
        <text text-anchor="end" dy="0.35em">100</text>
      </g>
    </g>
    <g transform="translate(18.63,9.06)" id="img-a97eb029-126">
      <g class="primitive">
        <text text-anchor="end" dy="0.35em">110</text>
      </g>
    </g>
  </g>
  <g font-size="3.88" font-family="'PT Sans','Helvetica Neue','Helvetica',sans-serif" fill="#564A55" stroke="#000000" stroke-opacity="0.000" id="img-a97eb029-127">
    <g transform="translate(8.81,92.46)" id="img-a97eb029-128">
      <g class="primitive">
        <text text-anchor="middle" dy="0.35em" transform="rotate(-90,0, 2)">GFLOPS</text>
      </g>
    </g>
  </g>
</g>
<defs>
  <clipPath id="img-a97eb029-45">
    <path d="M19.63,5 L269.63,5 269.63,183.92 19.63,183.92 " />
  </clipPath>
</defs>
</svg>
