<?xml version="1.0" encoding="utf-8"?>
<!DOCTYPE svg PUBLIC "-//W3C//DTD SVG 1.1//EN" "http://www.w3.org/Graphics/SVG/1.1/DTD/svg11.dtd">
<svg class="marks" width="1066" height="647" viewBox="0 0 1066 647" version="1.1" xmlns="http://www.w3.org/2000/svg" xmlns:xlink="http://www.w3.org/1999/xlink"><rect width="1066" height="647" style="fill: white;"></rect><g transform="translate(42,10)"><g class="mark-group role-frame root"><g transform="translate(0,0)"><path class="background" d="M0.5,0.5h900v600h-900Z" style="fill: none; stroke: #ddd;"></path><g><g class="mark-group role-axis"><g transform="translate(0.5,600.5)"><path class="background" d="M0,0h0v0h0Z" style="pointer-events: none; fill: none;"></path><g><g class="mark-rule role-axis-grid" style="pointer-events: none;"><line transform="translate(0,-600)" x2="0" y2="600" style="fill: none; stroke: #ddd; stroke-width: 1; opacity: 1;"></line><line transform="translate(35,-600)" x2="0" y2="600" style="fill: none; stroke: #ddd; stroke-width: 1; opacity: 1;"></line><line transform="translate(69,-600)" x2="0" y2="600" style="fill: none; stroke: #ddd; stroke-width: 1; opacity: 1;"></line><line transform="translate(104,-600)" x2="0" y2="600" style="fill: none; stroke: #ddd; stroke-width: 1; opacity: 1;"></line><line transform="translate(138,-600)" x2="0" y2="600" style="fill: none; stroke: #ddd; stroke-width: 1; opacity: 1;"></line><line transform="translate(173,-600)" x2="0" y2="600" style="fill: none; stroke: #ddd; stroke-width: 1; opacity: 1;"></line><line transform="translate(208,-600)" x2="0" y2="600" style="fill: none; stroke: #ddd; stroke-width: 1; opacity: 1;"></line><line transform="translate(242,-600)" x2="0" y2="600" style="fill: none; stroke: #ddd; stroke-width: 1; opacity: 1;"></line><line transform="translate(277,-600)" x2="0" y2="600" style="fill: none; stroke: #ddd; stroke-width: 1; opacity: 1;"></line><line transform="translate(312,-600)" x2="0" y2="600" style="fill: none; stroke: #ddd; stroke-width: 1; opacity: 1;"></line><line transform="translate(346,-600)" x2="0" y2="600" style="fill: none; stroke: #ddd; stroke-width: 1; opacity: 1;"></line><line transform="translate(381,-600)" x2="0" y2="600" style="fill: none; stroke: #ddd; stroke-width: 1; opacity: 1;"></line><line transform="translate(415,-600)" x2="0" y2="600" style="fill: none; stroke: #ddd; stroke-width: 1; opacity: 1;"></line><line transform="translate(450,-600)" x2="0" y2="600" style="fill: none; stroke: #ddd; stroke-width: 1; opacity: 1;"></line><line transform="translate(485,-600)" x2="0" y2="600" style="fill: none; stroke: #ddd; stroke-width: 1; opacity: 1;"></line><line transform="translate(519,-600)" x2="0" y2="600" style="fill: none; stroke: #ddd; stroke-width: 1; opacity: 1;"></line><line transform="translate(554,-600)" x2="0" y2="600" style="fill: none; stroke: #ddd; stroke-width: 1; opacity: 1;"></line><line transform="translate(588,-600)" x2="0" y2="600" style="fill: none; stroke: #ddd; stroke-width: 1; opacity: 1;"></line><line transform="translate(623,-600)" x2="0" y2="600" style="fill: none; stroke: #ddd; stroke-width: 1; opacity: 1;"></line><line transform="translate(658,-600)" x2="0" y2="600" style="fill: none; stroke: #ddd; stroke-width: 1; opacity: 1;"></line><line transform="translate(692,-600)" x2="0" y2="600" style="fill: none; stroke: #ddd; stroke-width: 1; opacity: 1;"></line><line transform="translate(727,-600)" x2="0" y2="600" style="fill: none; stroke: #ddd; stroke-width: 1; opacity: 1;"></line><line transform="translate(762,-600)" x2="0" y2="600" style="fill: none; stroke: #ddd; stroke-width: 1; opacity: 1;"></line><line transform="translate(796,-600)" x2="0" y2="600" style="fill: none; stroke: #ddd; stroke-width: 1; opacity: 1;"></line><line transform="translate(831,-600)" x2="0" y2="600" style="fill: none; stroke: #ddd; stroke-width: 1; opacity: 1;"></line><line transform="translate(865,-600)" x2="0" y2="600" style="fill: none; stroke: #ddd; stroke-width: 1; opacity: 1;"></line><line transform="translate(900,-600)" x2="0" y2="600" style="fill: none; stroke: #ddd; stroke-width: 1; opacity: 1;"></line></g></g><path class="foreground" d="" style="pointer-events: none; display: none; fill: none;"></path></g></g><g class="mark-group role-axis"><g transform="translate(0.5,0.5)"><path class="background" d="M0,0h0v0h0Z" style="pointer-events: none; fill: none;"></path><g><g class="mark-rule role-axis-grid" style="pointer-events: none;"><line transform="translate(0,600)" x2="900" y2="0" style="fill: none; stroke: #ddd; stroke-width: 1; opacity: 1;"></line><line transform="translate(0,554)" x2="900" y2="0" style="fill: none; stroke: #ddd; stroke-width: 1; opacity: 1;"></line><line transform="translate(0,508)" x2="900" y2="0" style="fill: none; stroke: #ddd; stroke-width: 1; opacity: 1;"></line><line transform="translate(0,462)" x2="900" y2="0" style="fill: none; stroke: #ddd; stroke-width: 1; opacity: 1;"></line><line transform="translate(0,415)" x2="900" y2="0" style="fill: none; stroke: #ddd; stroke-width: 1; opacity: 1;"></line><line transform="translate(0,369)" x2="900" y2="0" style="fill: none; stroke: #ddd; stroke-width: 1; opacity: 1;"></line><line transform="translate(0,323)" x2="900" y2="0" style="fill: none; stroke: #ddd; stroke-width: 1; opacity: 1;"></line><line transform="translate(0,277)" x2="900" y2="0" style="fill: none; stroke: #ddd; stroke-width: 1; opacity: 1;"></line><line transform="translate(0,231)" x2="900" y2="0" style="fill: none; stroke: #ddd; stroke-width: 1; opacity: 1;"></line><line transform="translate(0,185)" x2="900" y2="0" style="fill: none; stroke: #ddd; stroke-width: 1; opacity: 1;"></line><line transform="translate(0,138)" x2="900" y2="0" style="fill: none; stroke: #ddd; stroke-width: 1; opacity: 1;"></line><line transform="translate(0,92)" x2="900" y2="0" style="fill: none; stroke: #ddd; stroke-width: 1; opacity: 1;"></line><line transform="translate(0,46)" x2="900" y2="0" style="fill: none; stroke: #ddd; stroke-width: 1; opacity: 1;"></line><line transform="translate(0,0)" x2="900" y2="0" style="fill: none; stroke: #ddd; stroke-width: 1; opacity: 1;"></line></g></g><path class="foreground" d="" style="pointer-events: none; display: none; fill: none;"></path></g></g><g class="mark-group role-axis"><g transform="translate(0.5,600.5)"><path class="background" d="M0,0h0v0h0Z" style="pointer-events: none; fill: none;"></path><g><g class="mark-rule role-axis-tick" style="pointer-events: none;"><line transform="translate(0,0)" x2="0" y2="5" style="fill: none; stroke: #888; stroke-width: 1; opacity: 1;"></line><line transform="translate(35,0)" x2="0" y2="5" style="fill: none; stroke: #888; stroke-width: 1; opacity: 1;"></line><line transform="translate(69,0)" x2="0" y2="5" style="fill: none; stroke: #888; stroke-width: 1; opacity: 1;"></line><line transform="translate(104,0)" x2="0" y2="5" style="fill: none; stroke: #888; stroke-width: 1; opacity: 1;"></line><line transform="translate(138,0)" x2="0" y2="5" style="fill: none; stroke: #888; stroke-width: 1; opacity: 1;"></line><line transform="translate(173,0)" x2="0" y2="5" style="fill: none; stroke: #888; stroke-width: 1; opacity: 1;"></line><line transform="translate(208,0)" x2="0" y2="5" style="fill: none; stroke: #888; stroke-width: 1; opacity: 1;"></line><line transform="translate(242,0)" x2="0" y2="5" style="fill: none; stroke: #888; stroke-width: 1; opacity: 1;"></line><line transform="translate(277,0)" x2="0" y2="5" style="fill: none; stroke: #888; stroke-width: 1; opacity: 1;"></line><line transform="translate(312,0)" x2="0" y2="5" style="fill: none; stroke: #888; stroke-width: 1; opacity: 1;"></line><line transform="translate(346,0)" x2="0" y2="5" style="fill: none; stroke: #888; stroke-width: 1; opacity: 1;"></line><line transform="translate(381,0)" x2="0" y2="5" style="fill: none; stroke: #888; stroke-width: 1; opacity: 1;"></line><line transform="translate(415,0)" x2="0" y2="5" style="fill: none; stroke: #888; stroke-width: 1; opacity: 1;"></line><line transform="translate(450,0)" x2="0" y2="5" style="fill: none; stroke: #888; stroke-width: 1; opacity: 1;"></line><line transform="translate(485,0)" x2="0" y2="5" style="fill: none; stroke: #888; stroke-width: 1; opacity: 1;"></line><line transform="translate(519,0)" x2="0" y2="5" style="fill: none; stroke: #888; stroke-width: 1; opacity: 1;"></line><line transform="translate(554,0)" x2="0" y2="5" style="fill: none; stroke: #888; stroke-width: 1; opacity: 1;"></line><line transform="translate(588,0)" x2="0" y2="5" style="fill: none; stroke: #888; stroke-width: 1; opacity: 1;"></line><line transform="translate(623,0)" x2="0" y2="5" style="fill: none; stroke: #888; stroke-width: 1; opacity: 1;"></line><line transform="translate(658,0)" x2="0" y2="5" style="fill: none; stroke: #888; stroke-width: 1; opacity: 1;"></line><line transform="translate(692,0)" x2="0" y2="5" style="fill: none; stroke: #888; stroke-width: 1; opacity: 1;"></line><line transform="translate(727,0)" x2="0" y2="5" style="fill: none; stroke: #888; stroke-width: 1; opacity: 1;"></line><line transform="translate(762,0)" x2="0" y2="5" style="fill: none; stroke: #888; stroke-width: 1; opacity: 1;"></line><line transform="translate(796,0)" x2="0" y2="5" style="fill: none; stroke: #888; stroke-width: 1; opacity: 1;"></line><line transform="translate(831,0)" x2="0" y2="5" style="fill: none; stroke: #888; stroke-width: 1; opacity: 1;"></line><line transform="translate(865,0)" x2="0" y2="5" style="fill: none; stroke: #888; stroke-width: 1; opacity: 1;"></line><line transform="translate(900,0)" x2="0" y2="5" style="fill: none; stroke: #888; stroke-width: 1; opacity: 1;"></line></g><g class="mark-text role-axis-label" style="pointer-events: none;"><text text-anchor="start" transform="translate(0,15)" style="font-family: sans-serif; font-size: 10px; fill: #000; opacity: 1;">0</text><text text-anchor="middle" transform="translate(34.61538461538462,15)" style="font-family: sans-serif; font-size: 10px; fill: #000; opacity: 1;">10</text><text text-anchor="middle" transform="translate(69.23076923076924,15)" style="font-family: sans-serif; font-size: 10px; fill: #000; opacity: 1;">20</text><text text-anchor="middle" transform="translate(103.84615384615385,15)" style="font-family: sans-serif; font-size: 10px; fill: #000; opacity: 1;">30</text><text text-anchor="middle" transform="translate(138.46153846153848,15)" style="font-family: sans-serif; font-size: 10px; fill: #000; opacity: 1;">40</text><text text-anchor="middle" transform="translate(173.0769230769231,15)" style="font-family: sans-serif; font-size: 10px; fill: #000; opacity: 1;">50</text><text text-anchor="middle" transform="translate(207.6923076923077,15)" style="font-family: sans-serif; font-size: 10px; fill: #000; opacity: 1;">60</text><text text-anchor="middle" transform="translate(242.3076923076923,15)" style="font-family: sans-serif; font-size: 10px; fill: #000; opacity: 1;">70</text><text text-anchor="middle" transform="translate(276.92307692307696,15)" style="font-family: sans-serif; font-size: 10px; fill: #000; opacity: 1;">80</text><text text-anchor="middle" transform="translate(311.53846153846155,15)" style="font-family: sans-serif; font-size: 10px; fill: #000; opacity: 1;">90</text><text text-anchor="middle" transform="translate(346.1538461538462,15)" style="font-family: sans-serif; font-size: 10px; fill: #000; opacity: 1;">100</text><text text-anchor="middle" transform="translate(380.7692307692308,15)" style="font-family: sans-serif; font-size: 10px; fill: #000; opacity: 1;">110</text><text text-anchor="middle" transform="translate(415.3846153846154,15)" style="font-family: sans-serif; font-size: 10px; fill: #000; opacity: 1;">120</text><text text-anchor="middle" transform="translate(450,15)" style="font-family: sans-serif; font-size: 10px; fill: #000; opacity: 1;">130</text><text text-anchor="middle" transform="translate(484.6153846153846,15)" style="font-family: sans-serif; font-size: 10px; fill: #000; opacity: 1;">140</text><text text-anchor="middle" transform="translate(519.2307692307692,15)" style="font-family: sans-serif; font-size: 10px; fill: #000; opacity: 1;">150</text><text text-anchor="middle" transform="translate(553.8461538461539,15)" style="font-family: sans-serif; font-size: 10px; fill: #000; opacity: 1;">160</text><text text-anchor="middle" transform="translate(588.4615384615385,15)" style="font-family: sans-serif; font-size: 10px; fill: #000; opacity: 1;">170</text><text text-anchor="middle" transform="translate(623.0769230769231,15)" style="font-family: sans-serif; font-size: 10px; fill: #000; opacity: 1;">180</text><text text-anchor="middle" transform="translate(657.6923076923076,15)" style="font-family: sans-serif; font-size: 10px; fill: #000; opacity: 1;">190</text><text text-anchor="middle" transform="translate(692.3076923076924,15)" style="font-family: sans-serif; font-size: 10px; fill: #000; opacity: 1;">200</text><text text-anchor="middle" transform="translate(726.9230769230769,15)" style="font-family: sans-serif; font-size: 10px; fill: #000; opacity: 1;">210</text><text text-anchor="middle" transform="translate(761.5384615384615,15)" style="font-family: sans-serif; font-size: 10px; fill: #000; opacity: 1;">220</text><text text-anchor="middle" transform="translate(796.1538461538461,15)" style="font-family: sans-serif; font-size: 10px; fill: #000; opacity: 1;">230</text><text text-anchor="middle" transform="translate(830.7692307692308,15)" style="font-family: sans-serif; font-size: 10px; fill: #000; opacity: 1;">240</text><text text-anchor="middle" transform="translate(865.3846153846154,15)" style="font-family: sans-serif; font-size: 10px; fill: #000; opacity: 1;">250</text><text text-anchor="end" transform="translate(900,15)" style="font-family: sans-serif; font-size: 10px; fill: #000; opacity: 1;">260</text></g><g class="mark-rule role-axis-domain" style="pointer-events: none;"><line transform="translate(0,0)" x2="900" y2="0" style="fill: none; stroke: #888; stroke-width: 1; opacity: 1;"></line></g><g class="mark-text role-axis-title" style="pointer-events: none;"><text text-anchor="middle" transform="translate(450,30)" style="font-family: sans-serif; font-size: 11px; font-weight: bold; fill: #000; opacity: 1;">Size</text></g></g><path class="foreground" d="" style="pointer-events: none; display: none; fill: none;"></path></g></g><g class="mark-group role-axis"><g transform="translate(0.5,0.5)"><path class="background" d="M0,0h0v0h0Z" style="pointer-events: none; fill: none;"></path><g><g class="mark-rule role-axis-tick" style="pointer-events: none;"><line transform="translate(0,600)" x2="-5" y2="0" style="fill: none; stroke: #888; stroke-width: 1; opacity: 1;"></line><line transform="translate(0,554)" x2="-5" y2="0" style="fill: none; stroke: #888; stroke-width: 1; opacity: 1;"></line><line transform="translate(0,508)" x2="-5" y2="0" style="fill: none; stroke: #888; stroke-width: 1; opacity: 1;"></line><line transform="translate(0,462)" x2="-5" y2="0" style="fill: none; stroke: #888; stroke-width: 1; opacity: 1;"></line><line transform="translate(0,415)" x2="-5" y2="0" style="fill: none; stroke: #888; stroke-width: 1; opacity: 1;"></line><line transform="translate(0,369)" x2="-5" y2="0" style="fill: none; stroke: #888; stroke-width: 1; opacity: 1;"></line><line transform="translate(0,323)" x2="-5" y2="0" style="fill: none; stroke: #888; stroke-width: 1; opacity: 1;"></line><line transform="translate(0,277)" x2="-5" y2="0" style="fill: none; stroke: #888; stroke-width: 1; opacity: 1;"></line><line transform="translate(0,231)" x2="-5" y2="0" style="fill: none; stroke: #888; stroke-width: 1; opacity: 1;"></line><line transform="translate(0,185)" x2="-5" y2="0" style="fill: none; stroke: #888; stroke-width: 1; opacity: 1;"></line><line transform="translate(0,138)" x2="-5" y2="0" style="fill: none; stroke: #888; stroke-width: 1; opacity: 1;"></line><line transform="translate(0,92)" x2="-5" y2="0" style="fill: none; stroke: #888; stroke-width: 1; opacity: 1;"></line><line transform="translate(0,46)" x2="-5" y2="0" style="fill: none; stroke: #888; stroke-width: 1; opacity: 1;"></line><line transform="translate(0,0)" x2="-5" y2="0" style="fill: none; stroke: #888; stroke-width: 1; opacity: 1;"></line></g><g class="mark-text role-axis-label" style="pointer-events: none;"><text text-anchor="end" transform="translate(-7,603)" style="font-family: sans-serif; font-size: 10px; fill: #000; opacity: 1;">0.0</text><text text-anchor="end" transform="translate(-7,556.8461538461539)" style="font-family: sans-serif; font-size: 10px; fill: #000; opacity: 1;">0.2</text><text text-anchor="end" transform="translate(-7,510.6923076923077)" style="font-family: sans-serif; font-size: 10px; fill: #000; opacity: 1;">0.4</text><text text-anchor="end" transform="translate(-7,464.53846153846155)" style="font-family: sans-serif; font-size: 10px; fill: #000; opacity: 1;">0.6</text><text text-anchor="end" transform="translate(-7,418.38461538461536)" style="font-family: sans-serif; font-size: 10px; fill: #000; opacity: 1;">0.8</text><text text-anchor="end" transform="translate(-7,372.2307692307692)" style="font-family: sans-serif; font-size: 10px; fill: #000; opacity: 1;">1.0</text><text text-anchor="end" transform="translate(-7,326.07692307692315)" style="font-family: sans-serif; font-size: 10px; fill: #000; opacity: 1;">1.2</text><text text-anchor="end" transform="translate(-7,279.92307692307696)" style="font-family: sans-serif; font-size: 10px; fill: #000; opacity: 1;">1.4</text><text text-anchor="end" transform="translate(-7,233.76923076923075)" style="font-family: sans-serif; font-size: 10px; fill: #000; opacity: 1;">1.6</text><text text-anchor="end" transform="translate(-7,187.6153846153846)" style="font-family: sans-serif; font-size: 10px; fill: #000; opacity: 1;">1.8</text><text text-anchor="end" transform="translate(-7,141.4615384615385)" style="font-family: sans-serif; font-size: 10px; fill: #000; opacity: 1;">2.0</text><text text-anchor="end" transform="translate(-7,95.3076923076923)" style="font-family: sans-serif; font-size: 10px; fill: #000; opacity: 1;">2.2</text><text text-anchor="end" transform="translate(-7,49.15384615384619)" style="font-family: sans-serif; font-size: 10px; fill: #000; opacity: 1;">2.4</text><text text-anchor="end" transform="translate(-7,3)" style="font-family: sans-serif; font-size: 10px; fill: #000; opacity: 1;">2.6</text></g><g class="mark-rule role-axis-domain" style="pointer-events: none;"><line transform="translate(0,600)" x2="0" y2="-600" style="fill: none; stroke: #888; stroke-width: 1; opacity: 1;"></line></g><g class="mark-text role-axis-title" style="pointer-events: none;"><text text-anchor="middle" transform="translate(-26,300) rotate(-90) translate(0,-2)" style="font-family: sans-serif; font-size: 11px; font-weight: bold; fill: #000; opacity: 1;">GFLOPS</text></g></g><path class="foreground" d="" style="pointer-events: none; display: none; fill: none;"></path></g></g><g class="mark-group role-scope pathgroup"><g transform="translate(0,0)"><path class="background" d="M0,0h900v600h-900Z" style="fill: none;"></path><g><g class="mark-line role-mark marks"><path d="M6.923076923076923,571.5757244914912L10.384615384615385,561.4870079753023L13.846153846153847,563.6045835325357L17.30769230769231,558.9283109835466L20.76923076923077,550.3014931751269L24.230769230769234,561.2873342559936L27.692307692307693,564.4394754281644L31.153846153846157,554.3355803860005L34.61538461538462,555.390738224467L38.07692307692308,558.8568421962335L41.53846153846154,554.4949026876737L45,555.0682246282486L48.46153846153847,553.6671157689143L51.92307692307693,553.8550157087063L55.38461538461539,552.5761339026808L58.84615384615385,551.8390058497826L62.307692307692314,550.7078834020868L65.76923076923077,551.458074998931L69.23076923076924,551.2832750343433L72.6923076923077,551.7411181367421L76.15384615384616,550.7654810204718L79.61538461538461,553.5172477561075L83.07692307692308,550.8527698194473L86.53846153846155,553.2039034184029L90,549.5067065735506L93.46153846153847,552.6469493344057L96.92307692307693,548.2288248604865L100.38461538461539,548.7701870644072L103.84615384615385,551.4248334102551L107.3076923076923,548.2819757133972L110.76923076923077,548.5938894479996L114.23076923076923,548.8875413264645L117.6923076923077,550.4927433015325L121.15384615384615,551.2132592270972L124.61538461538463,552.535829564284L128.07692307692307,555.5572343198172L131.53846153846155,550.9511662927564L135,552.8762719270866L138.46153846153848,551.8656334277814L141.9230769230769,557.3695288922953L145.3846153846154,554.3093637675491L148.84615384615384,550.1432255014181L152.30769230769232,550.4156203208416L155.76923076923077,548.5521615843221L159.23076923076923,548.1701752501715L162.69230769230768,550.2491335560311L166.15384615384616,548.4489949343978L169.6153846153846,550.4091138104237L173.0769230769231,554.5351004830064L176.53846153846155,550.3245235279559L180,555.6484466328952L183.46153846153845,550.9060922434287L186.92307692307693,555.6704775906799L190.3846153846154,551.1762519897201L193.84615384615387,552.8280992700513L197.3076923076923,552.7244961097434L200.76923076923077,553.1708217309687L204.23076923076923,551.3826074190539L207.6923076923077,555.769815824577L211.15384615384616,547.3382248075204L214.6153846153846,550.5687835876515L218.07692307692307,552.211954394528L221.53846153846155,551.2068203958395L225,550.4086328651908L228.46153846153845,549.6148472873042L231.9230769230769,551.9834453488648L235.3846153846154,553.5743085402655L238.84615384615384,551.5814030029011L242.3076923076923,548.6574283736567L245.76923076923075,552.0003473291833L249.23076923076925,550.7181236381889L252.6923076923077,547.57889784447L256.15384615384613,553.976609074223L259.6153846153846,552.4155706827044L263.0769230769231,550.003309943069L266.53846153846155,553.7016102199452L270,550.6520972858654L273.46153846153845,553.6007536461119L276.92307692307696,553.657671989694L280.3846153846154,551.9508525527639L283.8461538461538,552.7637525166263L287.30769230769226,549.9107158783041L290.7692307692308,551.3818433472543L294.2307692307692,554.6430841093928L297.6923076923077,549.7711233841583L301.15384615384613,556.2913299279046L304.61538461538464,551.2846476538072L308.0769230769231,551.2121440285309L311.53846153846155,550.2194863888791L315,554.1398308372779L318.46153846153845,552.1066819977634L321.9230769230769,548.9566737119653L325.38461538461536,553.7094731764186L328.8461538461538,552.186542740862L332.3076923076923,550.4852573292221L335.7692307692308,552.8025063428149L339.2307692307692,550.7344856890281L342.6923076923077,553.9372812219747L346.1538461538462,555.1077645055144L349.61538461538464,551.8539192633722L353.0769230769231,548.6770824553472L356.53846153846155,553.4088910109818L360,552.0034636675704L363.46153846153845,548.5172655613528L366.9230769230769,554.4374616218511L370.38461538461536,551.8357129252071L373.84615384615387,549.2106913232901L377.3076923076923,552.650880070235L380.7692307692308,554.9403300734609L384.2307692307692,555.7427967221782L387.69230769230774,552.3671278285976L391.1538461538462,550.0316792470448L394.6153846153846,555.2911305621L398.07692307692304,550.7095289591017L401.53846153846155,553.1605920468394L405,553.935072030365L408.46153846153845,550.1491361191052L411.9230769230769,551.2087148092633L415.3846153846154,553.1785141403777L418.84615384615387,553.4094820168646L422.3076923076923,555.0356384686319L425.7692307692308,552.9391335174563L429.2307692307692,553.5331418032727L432.6923076923077,552.211797314303L436.15384615384613,551.8386761934515L439.6153846153846,555.2063438024732L443.0769230769231,552.2375354361222L446.53846153846155,551.8410502882056L450,548.0870699926244L453.46153846153845,555.1163557593983L456.9230769230769,555.5928356441506L460.38461538461536,552.0952998692496L463.8461538461538,556.189856410464L467.3076923076923,554.2907145731052L470.7692307692308,556.6176397859566L474.2307692307692,552.0202075476241L477.6923076923077,553.2194695857416L481.15384615384613,551.7147058116697L484.6153846153846,555.1604969513883L488.07692307692304,554.1328814262954L491.5384615384615,554.563571143882L495.00000000000006,553.2285065782041L498.4615384615385,552.6098490137024L501.92307692307696,554.7641676291463L505.3846153846154,555.0264527628013L508.8461538461538,554.4054470292616L512.3076923076923,554.687712613961L515.7692307692307,553.7261758244287L519.2307692307692,553.7185530205835L522.6923076923077,555.7770573918664L526.1538461538462,549.416274584689L529.6153846153846,555.4326118196332L533.0769230769231,555.8551517912911L536.5384615384615,555.2056894428669L540,554.192759661685L543.4615384615385,552.6068205258642L546.9230769230769,555.3529986529411L550.3846153846155,553.9279687739693L553.8461538461539,561.3144074817936L557.3076923076924,553.7412481109728L560.7692307692308,552.5495244585047L564.2307692307692,552.6172693609154L567.6923076923076,557.4599369209153L571.1538461538461,556.4326879527947L574.6153846153845,556.7931837980636L578.0769230769231,555.9163820992092L581.5384615384615,554.3398255218158L585,556.9025928521373L588.4615384615385,555.4887421606574L591.9230769230769,557.3573174178317L595.3846153846154,554.2087748154382L598.8461538461538,554.9134933750319L602.3076923076923,557.364784291945L605.7692307692308,556.0326757975134L609.2307692307693,554.3752221635241L612.6923076923077,553.7547083541989L616.1538461538462,559.3297791317593L619.6153846153846,553.6584576550921L623.0769230769231,556.1514101210751L626.5384615384615,556.203987077174L630,557.8736208625877L633.4615384615385,554.8964837331581L636.9230769230769,557.5500388006068L640.3846153846154,556.617516432759L643.8461538461538,555.2625718230813L647.3076923076923,558.9558244684742L650.7692307692307,556.2213770084608L654.2307692307692,556.0018313170739L657.6923076923076,556.0307322040173L661.1538461538462,558.4297622588672L664.6153846153846,556.1917220608144L668.0769230769231,558.7950212429813L671.5384615384615,555.4091326999693L675,559.0462322533673L678.4615384615385,559.7340254333043L681.9230769230769,556.957452696896L685.3846153846154,558.6345213721639L688.8461538461538,557.4589375423095L692.3076923076924,555.7319718455341L695.7692307692308,555.9542157586028L699.2307692307693,556.3158236197314L702.6923076923077,555.1711446448288L706.1538461538462,554.343009332826L709.6153846153846,555.5712882159163L713.0769230769231,558.3105660453728L716.5384615384615,558.4145287984411L720,555.3529904194959L723.4615384615385,559.0570719602978L726.9230769230769,555.4417630916344L730.3846153846154,560.2479323272858L733.8461538461538,555.0958449535779L737.3076923076923,557.2426529629034L740.7692307692307,557.7584335090108L744.2307692307692,559.6786797111869L747.6923076923077,557.8254049867553L751.1538461538462,559.1275521735855L754.6153846153846,557.4816664066158L758.0769230769231,557.5449751861042L761.5384615384615,556.6260309532415L765,557.823354283824L768.4615384615385,557.1039360037099L771.9230769230769,562.8597441819151L775.3846153846155,558.3126550868486L778.8461538461539,576.7195888851844L782.3076923076924,557.7906716139154L785.7692307692308,558.3256838626767L789.2307692307692,560.0004678307856L792.6923076923076,559.8585994332292L796.1538461538461,558.4914967725634L799.6153846153845,559.3567457245408L803.0769230769231,560.4151855538178L806.5384615384615,558.3893895919898L810,559.6171103798983L813.4615384615385,556.7985587263847L816.9230769230769,559.7267333716346L820.3846153846154,558.8470220524397L823.8461538461538,557.0510815427925L827.3076923076923,560.8198862301299L830.7692307692308,557.5531764372967L834.2307692307693,561.1488755743035L837.6923076923077,561.7858533966375L841.1538461538462,561.1251833088921L844.6153846153846,556.4283120732862L848.0769230769231,561.0563014613159L851.5384615384615,559.6780802832369L855,558.8655553150032L858.4615384615385,559.3184750989699L861.9230769230769,560.3986640513174L865.3846153846154,560.2806831722494L868.8461538461538,560.3130682267373L872.3076923076923,558.9946085503835L875.7692307692307,562.4004280109381L879.2307692307692,560.2607561929595L882.6923076923076,561.1114500091502L886.1538461538462,558.3319769523747" style="fill: none; stroke: #ff7f0e; stroke-width: 2;"></path></g></g><path class="foreground" d="" style="display: none; fill: none;"></path></g><g transform="translate(0,0)"><path class="background" d="M0,0h900v600h-900Z" style="fill: none;"></path><g><g class="mark-line role-mark marks"><path d="M6.923076923076923,561.1168052726495L10.384615384615385,557.4476148966511L13.846153846153847,555.6242975887125L17.30769230769231,554.7546941247729L20.76923076923077,553.960403682756L24.230769230769234,553.4793966799999L27.692307692307693,556.6105854831729L31.153846153846157,555.8889915948322L34.61538461538462,555.6463886593904L38.07692307692308,555.1738751710038L41.53846153846154,555.1180381870311L45,555.261432427075L48.46153846153847,555.3573767056913L51.92307692307693,555.0208417358726L55.38461538461539,554.221917578543L58.84615384615385,553.8703866159971L62.307692307692314,554.0134457045276L65.76923076923077,553.9471893752807L69.23076923076924,553.7098332279055L72.6923076923077,553.9439909746419L76.15384615384616,553.9277574854057L79.61538461538461,553.7620609760905L83.07692307692308,555.3693803644559L86.53846153846155,555.2181170852487L90,555.3540226554043L93.46153846153847,555.4143314651722L96.92307692307693,554.9766786494017L100.38461538461539,555.2841628372922L103.84615384615385,554.8478121964462L107.3076923076923,555.3001612107334L110.76923076923077,554.3611349187922L114.23076923076923,554.7491120369133L117.6923076923077,554.397935550247L121.15384615384615,554.481482335998L124.61538461538463,554.6212363780901L128.07692307692307,554.4969679529559L131.53846153846155,554.4704705484153L135,554.0429404428866L138.46153846153848,553.9034839669345L141.9230769230769,554.0752861369723L145.3846153846154,553.9728778707176L148.84615384615384,553.9536502440635L152.30769230769232,554.0558330538079L155.76923076923077,553.8019102083246L159.23076923076923,554.1149868826476L162.69230769230768,553.8497738266361L166.15384615384616,553.4745581257209L169.6153846153846,553.5881781777334L173.0769230769231,553.5613957557485L176.53846153846155,553.5552347146863L180,553.6477811889479L183.46153846153845,553.4773273274577L186.92307692307693,553.7089953137502L190.3846153846154,553.6333231985406L193.84615384615387,553.1676741371055L197.3076923076923,553.0564437986814L200.76923076923077,553.1591157533239L204.23076923076923,553.3505902086501L207.6923076923077,553.4244157976292L211.15384615384616,553.129204379431L214.6153846153846,553.4536902060079L218.07692307692307,553.304867984684L221.53846153846155,552.8547531473647L225,552.8528048585584L228.46153846153845,552.9153313931763L231.9230769230769,552.9429643427027L235.3846153846154,552.9753733688372L238.84615384615384,552.8991326694506L242.3076923076923,552.8752480791877L245.76923076923075,553.0370309599746L249.23076923076925,553.0857645743838L252.6923076923077,552.8688315582691L256.15384615384613,553.0804421954446L259.6153846153846,553.0520454490472L263.0769230769231,553.1118037100855L266.53846153846155,552.9592790566227L270,553.0545384467142L273.46153846153845,553.3255337818075L276.92307692307696,552.9772810819882L280.3846153846154,552.805503753877L283.8461538461538,553.0817293387956L287.30769230769226,552.9360620336724L290.7692307692308,552.9305407944653L294.2307692307692,553.0218490755733L297.6923076923077,552.9734393633801L301.15384615384613,553.0946055048522L304.61538461538464,553.4868407588109L308.0769230769231,553.4792039739704L311.53846153846155,553.5715433336604L315,553.5968573533022L318.46153846153845,553.5297541364006L321.9230769230769,553.6152554945959L325.38461538461536,553.6089612795305L328.8461538461538,553.636997443644L332.3076923076923,553.4563108717377L335.7692307692308,553.3544209108978L339.2307692307692,553.450077583204L342.6923076923077,553.4638365436845L346.1538461538462,553.4516929347348L349.61538461538464,553.5015804811371L353.0769230769231,553.500823171956L356.53846153846155,553.2716578034538L360,553.299348339431L363.46153846153845,553.2544140879819L366.9230769230769,553.2882710015512L370.38461538461536,553.3678992927339L373.84615384615387,553.4198501354048L377.3076923076923,553.3053380438757L380.7692307692308,553.3822303942748L384.2307692307692,553.4193655914619L387.69230769230774,553.1922216485975L391.1538461538462,553.1828125023079L394.6153846153846,553.1564463643078L398.07692307692304,553.2751331466535L401.53846153846155,553.2264214618497L405,553.2642212595298L408.46153846153845,553.2285158830524L411.9230769230769,553.2909978711792L415.3846153846154,553.0880463071956L418.84615384615387,553.2729677602714L422.3076923076923,553.1440481764456L425.7692307692308,553.2343837153436L429.2307692307692,553.2831715383545L432.6923076923077,553.2189653540732L436.15384615384613,553.2612222668529L439.6153846153846,553.2947318843333L443.0769230769231,553.1957119012521L446.53846153846155,552.9936091490077L450,553.1048168186159L453.46153846153845,552.9865686205271L456.9230769230769,553.0941089818966L460.38461538461536,553.0474030854131L463.8461538461538,553.1420024224662L467.3076923076923,553.1045103618769L470.7692307692308,553.055538048202L474.2307692307692,553.1321271096244L477.6923076923077,553.0099196858483L481.15384615384613,553.0850852617414L484.6153846153846,554.7762116224702L488.07692307692304,553.1611229239957L491.5384615384615,553.1623560919647L495.00000000000006,553.1951776849736L498.4615384615385,553.2295005474247L501.92307692307696,552.8743912942208L505.3846153846154,553.0771482047608L508.8461538461538,553.0291040460376L512.3076923076923,553.0609531650699L515.7692307692307,553.0641705614873L519.2307692307692,553.1309120350217L522.6923076923077,553.1793785859635L526.1538461538462,553.3733917970371L529.6153846153846,553.3583985367341L533.0769230769231,553.4628505992096L536.5384615384615,553.4156445455284L540,553.4999466742507L543.4615384615385,553.5260217002817L546.9230769230769,553.3820945687877L550.3846153846155,553.5185054757607L553.8461538461539,553.414413690202L557.3076923076924,553.3623671701963L560.7692307692308,553.4481799698842L564.2307692307692,553.4625832466128L567.6923076923076,553.4526250665715L571.1538461538461,553.4170258417873L574.6153846153845,553.4760694516042L578.0769230769231,553.5121091212768L581.5384615384615,553.373627729123L585,553.4211270704341L588.4615384615385,553.4183946598604L591.9230769230769,553.4651669085631L595.3846153846154,553.3945506548247L598.8461538461538,553.4187099271326L602.3076923076923,553.4615172343523L605.7692307692308,553.516962498603L609.2307692307693,553.3692484323942L612.6923076923077,553.4469397499824L616.1538461538462,553.3707410940962L619.6153846153846,553.3370476954768L623.0769230769231,553.3970322751089L626.5384615384615,553.5617011387404L630,553.4614319171976L633.4615384615385,553.4634961512224L636.9230769230769,553.4267049152664L640.3846153846154,553.3403982769797L643.8461538461538,553.3631576863692L647.3076923076923,553.4378008698251L650.7692307692307,553.6203858987234L654.2307692307692,553.4793241440641L657.6923076923076,553.4627068206836L661.1538461538462,553.6049830399667L664.6153846153846,552.9590672918515L668.0769230769231,552.9431241816294L671.5384615384615,552.9449812022476L675,552.9964747356051L678.4615384615385,552.9603421066029L681.9230769230769,553.0730612230167L685.3846153846154,553.1649162645473L688.8461538461538,553.1742262156356L692.3076923076924,553.146101480032L695.7692307692308,553.1468531468531L699.2307692307693,553.3045660693056L702.6923076923077,553.3520997299937L706.1538461538462,553.376595494179L709.6153846153846,553.5150905888844L713.0769230769231,553.325025489974L716.5384615384615,553.5137886636523L720,553.4025822735656L723.4615384615385,553.3731929323576L726.9230769230769,553.4068469747732L730.3846153846154,553.4534865765149L733.8461538461538,553.4065934065934L737.3076923076923,553.724490534884L740.7692307692307,553.5291094527003L744.2307692307692,553.4215315289292L747.6923076923077,553.6745782098942L751.1538461538462,553.6582240635544L754.6153846153846,553.723031636747L758.0769230769231,553.6471966078497L761.5384615384615,553.6523363435907L765,553.8085318358844L768.4615384615385,553.8876964619539L771.9230769230769,553.6841522261376L775.3846153846155,553.5141117874931L778.8461538461539,553.6442487964673L782.3076923076924,553.5667324128863L785.7692307692308,553.6296225682788L789.2307692307692,553.6142249710089L792.6923076923076,553.5704148250273L796.1538461538461,553.5838014193939L799.6153846153845,553.6897816803993L803.0769230769231,553.6343106101484L806.5384615384615,553.6072210791797L810,553.6361294754014L813.4615384615385,553.5973566948154L816.9230769230769,553.6300225955398L820.3846153846154,553.5679533981597L823.8461538461538,553.65141187926L827.3076923076923,553.6054456983125L830.7692307692308,553.4661272184378L834.2307692307693,553.5299259563966L837.6923076923077,553.6354056902003L841.1538461538462,553.6286090491003L844.6153846153846,553.5836350608422L848.0769230769231,553.630393226883L851.5384615384615,553.5021453278476L855,553.5981764897427L858.4615384615385,553.4709193245778L861.9230769230769,553.8498606846531L865.3846153846154,553.4664399965255L868.8461538461538,553.5426075368327L872.3076923076923,553.4955248669763L875.7692307692307,553.5117323157772L879.2307692307692,553.5093713393205L882.6923076923076,553.4150143713158L886.1538461538462,552.9979130583793" style="fill: none; stroke: #1f77b4; stroke-width: 2;"></path></g></g><path class="foreground" d="" style="display: none; fill: none;"></path></g><g transform="translate(0,0)"><path class="background" d="M0,0h900v600h-900Z" style="fill: none;"></path><g><g class="mark-line role-mark marks"><path d="M6.923076923076923,562.3087612951097L10.384615384615385,556.7009414725151L13.846153846153847,555.2923151660096L17.30769230769231,554.2813076647664L20.76923076923077,553.0238346539801L24.230769230769234,551.7744897156839L27.692307692307693,454.5842708895614L31.153846153846157,440.82558510449763L34.61538461538462,475.5870204526453L38.07692307692308,487.380503683399L41.53846153846154,495.0929139392874L45,505.36337670580764L48.46153846153847,522.7744926869362L51.92307692307693,515.3910661162042L55.38461538461539,315.9981995214518L58.84615384615385,363.15826209964496L62.307692307692314,412.9371419041232L65.76923076923077,424.88965383227384L69.23076923076924,446.49359875218136L72.6923076923077,465.24891439205953L76.15384615384616,473.73944064367674L79.61538461538461,481.42580650760726L83.07692307692308,274.3808768551036L86.53846153846155,327.267753583543L90,367.90430324685417L93.46153846153847,386.8449240290396L96.92307692307693,417.27209397084664L100.38461538461539,436.7770043757332L103.84615384615385,439.8970741235218L107.3076923076923,454.16898356301056L110.76923076923077,272.7731937946824L114.23076923076923,315.982319715593L117.6923076923077,344.3931265378565L121.15384615384615,375.8983108464271L124.61538461538463,384.7343336842867L128.07692307692307,428.5916784269304L131.53846153846155,424.9027782316609L135,446.8847352024922L138.46153846153848,268.3176705566652L141.9230769230769,291.27238844600896L145.3846153846154,337.2439541219602L148.84615384615384,350.25982246116337L152.30769230769232,371.2837548108645L155.76923076923077,387.7662777029158L159.23076923076923,404.070795694833L162.69230769230768,416.45516764164336L166.15384615384616,271.5888791563497L169.6153846153846,273.35160839160835L173.0769230769231,302.76678578633965L176.53846153846155,337.7079271185795L180,352.3292249843326L183.46153846153845,372.78662267912017L186.92307692307693,384.76838198523546L190.3846153846154,400.8348431866917L193.84615384615387,238.02845016880892L197.3076923076923,282.2324231275526L200.76923076923077,289.5030173687967L204.23076923076923,324.2425484809971L207.6923076923077,342.25445053176225L211.15384615384616,351.94738039588805L214.6153846153846,368.94556378778185L218.07692307692307,382.4630228489636L221.53846153846155,229.1319474899863L225,244.0812022146059L228.46153846153845,281.56309882288525L231.9230769230769,305.124237464663L235.3846153846154,319.84631294825977L238.84615384615384,343.7876137490291L242.3076923076923,354.64798592254294L245.76923076923075,368.7262935402612L249.23076923076925,236.28562672387372L252.6923076923077,242.86327353875197L256.15384615384613,278.56277506354826L259.6153846153846,294.7162831785118L263.0769230769231,323.9767411120733L266.53846153846155,327.85036336920695L270,342.83076652550443L273.46153846153845,369.4719326028763L276.92307692307696,230.31977152488412L280.3846153846154,236.9281684570379L283.8461538461538,285.5759468957438L287.30769230769226,290.83293423643266L290.7692307692308,292.6959287436818L294.2307692307692,323.48706667171365L297.6923076923077,342.1092712263155L301.15384615384613,349.79283871985734L304.61538461538464,195.06056188750443L308.0769230769231,230.30994651533553L311.53846153846155,254.41566930787886L315,273.1946144430844L318.46153846153845,293.91664791824326L321.9230769230769,313.409781909143L325.38461538461536,330.746520955234L328.8461538461538,341.7596531390521L332.3076923076923,203.73401048162913L335.7692307692308,228.34862361457567L339.2307692307692,246.76991802071578L342.6923076923077,270.10140325719556L346.1538461538462,301.6326979329023L349.61538461538464,312.0227629011888L353.0769230769231,316.6272004611062L356.53846153846155,342.70810373962235L360,210.76577172331704L363.46153846153845,230.75628620433005L366.9230769230769,238.0463684284181L370.38461538461536,268.97647103849766L373.84615384615387,279.7658086791548L377.3076923076923,290.2385759772652L380.7692307692308,309.86247774513316L384.2307692307692,332.84395120298205L387.69230769230774,198.24418698382686L391.1538461538462,229.9611404619482L394.6153846153846,255.7235161158423L398.07692307692304,257.4062877252241L401.53846153846155,271.67857446005155L405,299.57401243045695L408.46153846153845,312.8863079296482L411.9230769230769,331.6648008955701L415.3846153846154,202.4734982332155L418.84615384615387,230.05447274788244L422.3076923076923,238.1100096428079L425.7692307692308,251.90379000205075L429.2307692307692,277.8793962916302L432.6923076923077,281.6921017022591L436.15384615384613,300.5656083864099L439.6153846153846,314.6635860255746L443.0769230769231,201.80995475113124L446.53846153846155,206.08973485428203L450,264.3513122931332L453.46153846153845,246.65143856920685L456.9230769230769,261.0065680783334L460.38461538461536,273.1863062591296L463.8461538461538,290.46363754515113L467.3076923076923,308.61513811644L470.7692307692308,198.1919124402162L474.2307692307692,235.3862183133689L477.6923076923077,231.6125734730386L481.15384615384613,244.46164726741188L484.6153846153846,272.6649472109482L488.07692307692304,291.82276726934447L491.5384615384615,299.52246455767863L495.00000000000006,308.24930467279L498.4615384615385,209.69757860444537L501.92307692307696,210.33301456257792L505.3846153846154,221.03430225146664L508.8461538461538,242.95845152678123L512.3076923076923,257.18231390348274L515.7692307692307,269.66006074597186L519.2307692307692,291.2946195155198L522.6923076923077,291.9170624040501L526.1538461538462,182.3245451169699L529.6153846153846,218.60208273089285L533.0769230769231,229.21755955980169L536.5384615384615,241.71181046704956L540,249.02454961262012L543.4615384615385,268.80470135510626L546.9230769230769,337.6012653344649L550.3846153846155,309.21430966339165L553.8461538461539,192.0149153542975L557.3076923076924,211.6766087929814L560.7692307692308,218.06607154601218L564.2307692307692,246.24435211008498L567.6923076923076,251.80520085351702L571.1538461538461,268.3754365783194L574.6153846153845,284.9845537396762L578.0769230769231,294.3686471068317L581.5384615384615,204.05002385050915L585,194.10271345517683L588.4615384615385,219.9587456260375L591.9230769230769,246.99357777895148L595.3846153846154,244.92921273672317L598.8461538461538,288.3629016957635L602.3076923076923,278.29347769392734L605.7692307692308,288.12105000423844L609.2307692307693,201.7519276809377L612.6923076923077,257.7526221766276L616.1538461538462,231.56673829714387L619.6153846153846,242.85057784037005L623.0769230769231,251.93158611300203L626.5384615384615,265.87896930452575L630,275.3425373004405L633.4615384615385,288.35370237239397L636.9230769230769,249.64449674794122L640.3846153846154,201.9245776133945L643.8461538461538,221.23430985471205L647.3076923076923,247.72854608766977L650.7692307692307,243.72366771553735L654.2307692307692,263.3597432554408L657.6923076923076,269.109890678552L661.1538461538462,285.3115430701638L664.6153846153846,191.85259515096377L668.0769230769231,213.18639642333582L671.5384615384615,221.477151920622L675,237.89998118262704L678.4615384615385,236.71367536690786L681.9230769230769,248.43203614235074L685.3846153846154,266.8538337553789L688.8461538461538,279.10628410665566L692.3076923076924,241.24915334528714L695.7692307692308,198.03386207116904L699.2307692307693,222.6733785414153L702.6923076923077,243.89972391121754L706.1538461538462,245.67529896056294L709.6153846153846,257.7120557574175L713.0769230769231,271.62305263974804L716.5384615384615,266.5338027998349L720,192.4962956750259L723.4615384615385,214.15729117803207L726.9230769230769,217.95053292133457L730.3846153846154,238.89647619408575L733.8461538461538,253.47335954576445L737.3076923076923,255.09765923196653L740.7692307692307,252.76250590877996L744.2307692307692,260.22149057168514L747.6923076923077,204.14077438264084L751.1538461538462,191.12932168919727L754.6153846153846,226.46321965307632L758.0769230769231,238.7403149212697L761.5384615384615,229.70322490152304L765,242.06532252064582L768.4615384615385,252.362787854937L771.9230769230769,271.8667429363884L775.3846153846155,197.04568388438562L778.8461538461539,188.21218745730295L782.3076923076924,196.69816546098463L785.7692307692308,219.4118187357453L789.2307692307692,246.9685149467512L792.6923076923076,245.09196274124307L796.1538461538461,259.181449701278L799.6153846153845,258.00585873928605L803.0769230769231,187.54046958137138L806.5384615384615,178.28799241245588L810,204.96139729148211L813.4615384615385,204.31263086257826L816.9230769230769,228.86763009012395L820.3846153846154,239.94736419359535L823.8461538461538,249.46807411456837L827.3076923076923,264.9852408405488L830.7692307692308,200.35740394768905L834.2307692307693,189.23858108348034L837.6923076923077,234.0516566268804L841.1538461538462,219.94134897360703L844.6153846153846,232.03876201923072L848.0769230769231,233.7364752123484L851.5384615384615,240.3920203368743L855,256.21665204296994L858.4615384615385,203.2545328686413L861.9230769230769,194.74629589514828L865.3846153846154,259.37069233404776L868.8461538461538,210.83123671011407L872.3076923076923,216.71895149175035L875.7692307692307,228.13543133290935L879.2307692307692,234.6296041465988L882.6923076923076,241.99029126213594L886.1538461538462,175.7722855971142" style="fill: none; stroke: #aec7e8; stroke-width: 2;"></path></g></g><path class="foreground" d="" style="display: none; fill: none;"></path></g><g transform="translate(0,0)"><path class="background" d="M0,0h900v600h-900Z" style="fill: none;"></path><g><g class="mark-line role-mark marks"><path d="M6.923076923076923,538.5230769230769L10.384615384615385,507.24709374227064L13.846153846153847,476.4287920914427L17.30769230769231,475.86772478006594L20.76923076923077,450.8485260695741L24.230769230769234,456.311171688253L27.692307692307693,447.57787666878573L31.153846153846157,425.89190619735217L34.61538461538462,407.2904275361853L38.07692307692308,387.64670265256433L41.53846153846154,369.595940829388L45,348.1724224855055L48.46153846153847,365.3211327318795L51.92307692307693,312.1866897147795L55.38461538461539,290.13647642679894L58.84615384615385,340.8333375765692L62.307692307692314,324.7683932055197L65.76923076923077,304.274775032361L69.23076923076924,294.93649604915254L72.6923076923077,282.31335138849585L76.15384615384616,262.8896054045755L79.61538461538461,245.39584127212996L83.07692307692308,226.50283023281196L86.53846153846155,279.48717948717945L90,271.51242525645955L93.46153846153847,248.82206515458898L96.92307692307693,245.87504752249401L100.38461538461539,239.46676430449688L103.84615384615385,220.28848267582055L107.3076923076923,207.76077016050652L110.76923076923077,178.11860130252705L114.23076923076923,254.19300138739013L117.6923076923077,239.3446111288435L121.15384615384615,229.1474482963844L124.61538461538463,223.0821737988973L128.07692307692307,276.15425666047L131.53846153846155,194.4088385172074L135,261.65413533834584L138.46153846153848,169.5272499613208L141.9230769230769,225.34519509830596L145.3846153846154,229.9341232255439L148.84615384615384,204.0469285932208L152.30769230769232,204.256279818792L155.76923076923077,181.45528799462105L159.23076923076923,174.32470098546275L162.69230769230768,165.12341569303848L166.15384615384616,194.42360767107778L169.6153846153846,208.61467818715528L173.0769230769231,223.86497949843624L176.53846153846155,192.14319394731766L180,195.18562468214952L183.46153846153845,206.84837550509195L186.92307692307693,199.09367662859648L190.3846153846154,166.79314785105123L193.84615384615387,146.42274724111826L197.3076923076923,205.49563168926562L200.76923076923077,174.8813385356942L204.23076923076923,192.6776528112831L207.6923076923077,184.61120565367077L211.15384615384616,154.93824595537276L214.6153846153846,145.73681846409121L218.07692307692307,138.92493049119548L221.53846153846155,121.83696302396072L225,174.3799291347583L228.46153846153845,178.3502788994997L231.9230769230769,174.14618222317992L235.3846153846154,148.53389736168322L238.84615384615384,159.73672148422932L242.3076923076923,158.71336366522067L245.76923076923075,150.0201046291706L249.23076923076925,126.55522617357968L252.6923076923077,153.50902767226896L256.15384615384613,182.84286212702696L259.6153846153846,140.07336594041783L263.0769230769231,159.29267750354012L266.53846153846155,131.39416942054126L270,124.50119712689542L273.46153846153845,188.42990847455846L276.92307692307696,124.3527477379384L280.3846153846154,146.81157374735352L283.8461538461538,176.5788320711022L287.30769230769226,135.1554699891871L290.7692307692308,133.64357530214974L294.2307692307692,113.50197418652547L297.6923076923077,119.48354601665127L301.15384615384613,144.66796833698683L304.61538461538464,65.17559749301051L308.0769230769231,131.98119638446482L311.53846153846155,166.89714232885842L315,149.88947163105195L318.46153846153845,123.3044194307008L321.9230769230769,112.53990692355325L325.38461538461536,137.97449481646402L328.8461538461538,100.5213413608691L332.3076923076923,77.6105470658971L335.7692307692308,127.37164844079723L339.2307692307692,122.72335564058241L342.6923076923077,130.61054732989516L346.1538461538462,113.79227278760737L349.61538461538464,163.68049561647555L353.0769230769231,119.55383535851614L356.53846153846155,89.47696045953914L360,119.09465187498736L363.46153846153845,151.62766635404762L366.9230769230769,102.6629895061767L370.38461538461536,115.50022479607789L373.84615384615387,133.92721150563582L377.3076923076923,88.66099676977142L380.7692307692308,110.67115767713402L384.2307692307692,154.14468608532252L387.69230769230774,74.50302506482276L391.1538461538462,120.55532103689788L394.6153846153846,117.96282213289577L398.07692307692304,91.8824143848392L401.53846153846155,86.21816685987812L405,124.27375500858611L408.46153846153845,131.21931045259882L411.9230769230769,95.0567484134543L415.3846153846154,67.26878547718213L418.84615384615387,154.1216169685283L422.3076923076923,96.8605246740849L425.7692307692308,119.02921941879394L429.2307692307692,123.52978004090318L432.6923076923077,120.37737469309992L436.15384615384613,119.54335417232937L439.6153846153846,127.52809130653293L443.0769230769231,115.21260101665895L446.53846153846155,122.98504315343943L450,141.70628672974703L453.46153846153845,96.05131335900576L456.9230769230769,90.32013093289677L460.38461538461536,105.06032984356682L463.8461538461538,70.25348782027818L467.3076923076923,104.06615696676542L470.7692307692308,58.28796262938249L474.2307692307692,101.80770653186278L477.6923076923077,92.84449588638289L481.15384615384613,120.26722132130014L484.6153846153846,92.020673261858L488.07692307692304,103.58183191282761L491.5384615384615,119.81974290520354L495.00000000000006,80.08102633355844L498.4615384615385,108.55586173364524L501.92307692307696,105.97027417228706L505.3846153846154,88.51408838396469L508.8461538461538,83.48250726946564L512.3076923076923,80.71105064356172L515.7692307692307,81.83578139708372L519.2307692307692,76.40684494162701L522.6923076923077,60.04852922395823L526.1538461538462,113.0008828638966L529.6153846153846,90.33560296358934L533.0769230769231,86.99688361636892L536.5384615384615,80.60065046766705L540,116.5684474929958L543.4615384615385,79.34190070806433L546.9230769230769,70.21372156198105L550.3846153846155,64.54569036561932L553.8461538461539,51.834276455540305L557.3076923076924,69.3239793046618L560.7692307692308,102.8668748225944L564.2307692307692,96.53469593982669L567.6923076923076,96.5161173613571L571.1538461538461,105.87821233189672L574.6153846153845,103.4472135793721L578.0769230769231,72.49133564094632L581.5384615384615,59.05203461422992L585,128.16081157242155L588.4615384615385,98.40711051266501L591.9230769230769,96.75555983440833L595.3846153846154,109.10752719874995L598.8461538461538,119.47852790136425L602.3076923076923,81.92720542117323L605.7692307692308,70.47476789286821L609.2307692307693,60.27542762794658L612.6923076923077,114.10191613098384L616.1538461538462,104.19353876557835L619.6153846153846,71.08461599323215L623.0769230769231,100.07339164371378L626.5384615384615,106.53378109855672L630,62.822218416997046L633.4615384615385,67.05015885241164L636.9230769230769,50.64765178136301L640.3846153846154,106.95929403386293L643.8461538461538,70.35566921351129L647.3076923076923,104.60029355958898L650.7692307692307,98.61246260857027L654.2307692307692,65.550842600023L657.6923076923076,133.18640026014378L661.1538461538462,57.689077850922345L664.6153846153846,81.39045371035051L668.0769230769231,75.08280652521056L671.5384615384615,66.91459129454245L675,69.66918506564951L678.4615384615385,81.2960446320005L681.9230769230769,67.6983994252095L685.3846153846154,74.79478570489772L688.8461538461538,64.1537958231079L692.3076923076924,67.31292965891225L695.7692307692308,87.00128677270473L699.2307692307693,88.38924416065828L702.6923076923077,78.0448792580306L706.1538461538462,74.58791208791209L709.6153846153846,74.51760134568062L713.0769230769231,69.81269002803036L716.5384615384615,78.29235790571465L720,92.92405820211278L723.4615384615385,80.82314820669309L726.9230769230769,99.67515169330309L730.3846153846154,81.6836286614661L733.8461538461538,62.77857264535547L737.3076923076923,65.67653734633096L740.7692307692307,106.94606811628087L744.2307692307692,69.45815353608444L747.6923076923077,74.43595349833912L751.1538461538462,80.2951509122732L754.6153846153846,66.25517578376147L758.0769230769231,63.80377335247318L761.5384615384615,72.41363658523869L765,108.07384728806788L768.4615384615385,94.40324763628796L771.9230769230769,52.03576475759875L775.3846153846155,79.3232066598194L778.8461538461539,44.84871247153821L782.3076923076924,67.94362399697343L785.7692307692308,78.10680799285812L789.2307692307692,57.956099785058335L792.6923076923076,55.430674109489516L796.1538461538461,53.0588311942146L799.6153846153845,65.2233115246495L803.0769230769231,93.22141818063511L806.5384615384615,66.85017391262281L810,110.79809462579277L813.4615384615385,61.1837911597398L816.9230769230769,56.23712497681268L820.3846153846154,51.29246105939369L823.8461538461538,88.52026450855143L827.3076923076923,49.3772986745479L830.7692307692308,43.379674263007175L834.2307692307693,96.64676986027271L837.6923076923077,76.56651817763314L841.1538461538462,132.12068270582512L844.6153846153846,51.99893598212193L848.0769230769231,46.943328657400876L851.5384615384615,66.3902327365412L855,40.14150452606384L858.4615384615385,23.296928042398335L861.9230769230769,76.61961559556174L865.3846153846154,128.53844486799767L868.8461538461538,111.46298378031155L872.3076923076923,44.678169704356165L875.7692307692307,45.564326350321636L879.2307692307692,37.879783118971424L882.6923076923076,32.8779374454349L886.1538461538462,23.05532221288853" style="fill: none; stroke: #2ca02c; stroke-width: 2;"></path></g></g><path class="foreground" d="" style="display: none; fill: none;"></path></g><g transform="translate(0,0)"><path class="background" d="M0,0h900v600h-900Z" style="fill: none;"></path><g><g class="mark-line role-mark marks"><path d="M6.923076923076923,534.7563431333065L10.384615384615385,499.9699909972992L13.846153846153847,466.70224831543135L17.30769230769231,471.12116416678134L20.76923076923077,445.3626865029883L24.230769230769234,451.5391692024627L27.692307692307693,439.05160203266496L31.153846153846157,402.41442206969293L34.61538461538462,390.15250178548916L38.07692307692308,369.79638009049773L41.53846153846154,337.10334139869445L45,314.0267175572519L48.46153846153847,345.64280388222386L51.92307692307693,271.65999590990094L55.38461538461539,245.01824804009385L58.84615384615385,316.2465017226577L62.307692307692314,298.2649056307983L65.76923076923077,275.4786299431805L69.23076923076924,263.66163956525406L72.6923076923077,257.74102763700097L76.15384615384616,230.13583248636897L79.61538461538461,210.19376531923444L83.07692307692308,176.4131645808402L86.53846153846155,259.4089140672991L90,245.7014377847465L93.46153846153847,226.46076216088838L96.92307692307693,218.447702229727L100.38461538461539,218.46804842001544L103.84615384615385,185.2304736924739L107.3076923076923,177.49210193286413L110.76923076923077,128.90270047007454L114.23076923076923,246.0024961983186L117.6923076923077,221.19919690981632L121.15384615384615,208.97871672854674L124.61538461538463,211.1558503934448L128.07692307692307,276.8143310668202L131.53846153846155,177.98315021851244L135,261.29581300351754L138.46153846153848,164.98974649853832L141.9230769230769,210.97703485418145L145.3846153846154,216.69491913684885L148.84615384615384,187.4703808588106L152.30769230769232,189.97645371048975L155.76923076923077,169.36144045811793L159.23076923076923,162.59626522740876L162.69230769230768,150.39042615519077L166.15384615384616,176.8595822344814L169.6153846153846,178.67159054247125L173.0769230769231,188.1042861992167L176.53846153846155,161.62225824936868L180,151.48191277562825L183.46153846153845,167.7943181228332L186.92307692307693,158.6677070926937L190.3846153846154,123.76324934587252L193.84615384615387,111.9387558467495L197.3076923076923,181.58907238877794L200.76923076923077,150.47281753553276L204.23076923076923,178.28454731109596L207.6923076923077,171.65737377993452L211.15384615384616,127.49254591173424L214.6153846153846,119.04885654885663L218.07692307692307,111.85229024872673L221.53846153846155,91.96623745472532L225,148.78676804701462L228.46153846153845,165.19796900431675L231.9230769230769,149.32023094761232L235.3846153846154,119.77605842942506L238.84615384615384,146.9321360321102L242.3076923076923,129.26490108084198L245.76923076923075,121.65574701075828L249.23076923076925,119.2436573595698L252.6923076923077,127.99777745462121L256.15384615384613,174.29047444895303L259.6153846153846,115.23034830512324L263.0769230769231,208.93970893970896L266.53846153846155,107.88472813096612L270,95.72577232331778L273.46153846153845,122.48506648739006L276.92307692307696,85.84053022695315L280.3846153846154,117.39187885145934L283.8461538461538,149.3855257168866L287.30769230769226,105.4370133367504L290.7692307692308,121.63569285935931L294.2307692307692,83.18871906558823L297.6923076923077,87.68125805702576L301.15384615384613,130.42539581001108L304.61538461538464,53.61457094573441L308.0769230769231,116.33974968894097L311.53846153846155,152.76151300363108L315,136.0126893347036L318.46153846153845,103.55563469078521L321.9230769230769,92.81669347553041L325.38461538461536,122.81651487594691L328.8461538461538,81.51346980778425L332.3076923076923,72.9204370885657L335.7692307692308,104.34602898500806L339.2307692307692,99.25861632490695L342.6923076923077,94.26223439697938L346.1538461538462,89.05084348802448L349.61538461538464,153.08263748231076L353.0769230769231,94.62620568039127L356.53846153846155,59.64135065815961L360,103.98493881393162L363.46153846153845,151.3242279855683L366.9230769230769,79.49689869055825L370.38461538461536,95.82515789925954L373.84615384615387,83.11730757096012L377.3076923076923,64.63884879688071L380.7692307692308,90.12769114928298L384.2307692307692,119.4340543177752L387.69230769230774,53.58839388881758L391.1538461538462,101.32183565077281L394.6153846153846,93.32191394892833L398.07692307692304,64.44495821911018L401.53846153846155,59.92046832176836L405,102.12479173296889L408.46153846153845,102.70819711449232L411.9230769230769,74.9146368205069L415.3846153846154,50.52956813405516L418.84615384615387,154.10710104441483L422.3076923076923,80.86751040756161L425.7692307692308,109.258720595935L429.2307692307692,100.36791557363375L432.6923076923077,103.54070259175643L436.15384615384613,92.06549032218334L439.6153846153846,93.06784081818833L443.0769230769231,79.6382520750102L446.53846153846155,105.9675085700469L450,96.71996719967201L453.46153846153845,79.45546955846845L456.9230769230769,66.80510144959293L460.38461538461536,90.64867162648243L463.8461538461538,70.31810456219733L467.3076923076923,91.61748824068337L470.7692307692308,44.25018376322163L474.2307692307692,88.8040237740778L477.6923076923077,111.51001793393365L481.15384615384613,111.6885757688121L484.6153846153846,75.56791178940149L488.07692307692304,94.58726524475085L491.5384615384615,89.59371045475358L495.00000000000006,65.80773042616454L498.4615384615385,81.61313176132008L501.92307692307696,124.3337026885169L505.3846153846154,69.4210033831765L508.8461538461538,65.80406882818785L512.3076923076923,62.13551188723545L515.7692307692307,66.86719466688102L519.2307692307692,54.81450712635323L522.6923076923077,40.03884940180746L526.1538461538462,106.05168538576079L529.6153846153846,78.65831328886937L533.0769230769231,75.34600215964386L536.5384615384615,100.56294322819555L540,104.47034857401533L543.4615384615385,66.04526060878904L546.9230769230769,53.05175674671205L550.3846153846155,49.36202358329103L553.8461538461539,40.08234644427726L557.3076923076924,50.79810007794019L560.7692307692308,85.46246878519312L564.2307692307692,91.80397907817057L567.6923076923076,79.09541691104214L571.1538461538461,78.376282574745L574.6153846153845,65.59157217680165L578.0769230769231,30.443088105111073L581.5384615384615,57.59793370641402L585,118.57389304197805L588.4615384615385,83.63055629491618L591.9230769230769,80.67060608780412L595.3846153846154,96.1095087781951L598.8461538461538,94.99459703968031L602.3076923076923,68.15371590749153L605.7692307692308,56.98728501091244L609.2307692307693,41.404846957100986L612.6923076923077,76.58092503207669L616.1538461538462,78.36090653502042L619.6153846153846,52.16459426662246L623.0769230769231,73.09426080785755L626.5384615384615,64.45448376625357L630,43.30994567146249L633.4615384615385,62.94014983006922L636.9230769230769,42.63376987303531L640.3846153846154,99.14634146341466L643.8461538461538,84.81833044254444L647.3076923076923,81.63548163548154L650.7692307692307,76.4431382442948L654.2307692307692,90.87511527447451L657.6923076923076,104.28843248896113L661.1538461538462,50.05398684684095L664.6153846153846,66.31912206542991L668.0769230769231,62.76823848634541L671.5384615384615,52.817995304963205L675,57.22820788440863L678.4615384615385,69.35938243149309L681.9230769230769,51.83215243754595L685.3846153846154,60.62286794119811L688.8461538461538,49.633301169285794L692.3076923076924,44.713788551542024L695.7692307692308,75.39122664264342L699.2307692307693,74.7515915259901L702.6923076923077,76.49066138737663L706.1538461538462,58.665570828089095L709.6153846153846,70.8436432403841L713.0769230769231,52.776529903804395L716.5384615384615,47.50838477571244L720,70.26602260383197L723.4615384615385,61.83205078824674L726.9230769230769,86.29634869394111L730.3846153846154,66.65037395306817L733.8461538461538,45.9441130446893L737.3076923076923,51.71776861506861L740.7692307692307,81.43178902206651L744.2307692307692,55.615387266716L747.6923076923077,52.94509207307863L751.1538461538462,70.15327103443619L754.6153846153846,55.590157769224625L758.0769230769231,53.00599812018749L761.5384615384615,62.66678766066662L765,67.2595615387175L768.4615384615385,86.46155808602387L771.9230769230769,44.741308885082056L775.3846153846155,74.73148353950101L778.8461538461539,27.02315571327545L782.3076923076924,51.698661552252L785.7692307692308,67.37625182611797L789.2307692307692,49.90848739225464L792.6923076923076,43.175584189991724L796.1538461538461,45.43710216139931L799.6153846153845,51.552651767761624L803.0769230769231,66.33014565321145L806.5384615384615,55.14859830872554L810,103.94120784685587L813.4615384615385,49.096820451143586L816.9230769230769,45.21552145440324L820.3846153846154,42.672694520078025L823.8461538461538,78.74951102754879L827.3076923076923,42.59880923520687L830.7692307692308,34.91260001714214L834.2307692307693,86.95312464233456L837.6923076923077,65.26210537982821L841.1538461538462,107.95626806740468L844.6153846153846,41.8410380527606L848.0769230769231,35.022360034004095L851.5384615384615,62.905458200193685L855,17.984392371042702L858.4615384615385,16.98730719115582L861.9230769230769,61.740249799951386L865.3846153846154,117.89750157157266L868.8461538461538,86.45670031630006L872.3076923076923,35.08414244890443L875.7692307692307,31.483803652793195L879.2307692307692,25.405287894989613L882.6923076923076,21.777058840521168L886.1538461538462,3.218703414532187" style="fill: none; stroke: #98df8a; stroke-width: 2;"></path></g></g><path class="foreground" d="" style="display: none; fill: none;"></path></g><g transform="translate(0,0)"><path class="background" d="M0,0h900v600h-900Z" style="fill: none;"></path><g><g class="mark-line role-mark marks"><path d="M6.923076923076923,556.4117108076268L10.384615384615385,520.8859088749274L13.846153846153847,496.5034965034965L17.30769230769231,509.03627622377627L20.76923076923077,490.82630077105216L24.230769230769234,453.2937062937063L27.692307692307693,438.0765853987979L31.153846153846157,437.01129977642154L34.61538461538462,434.26331871927727L38.07692307692308,398.2880148804425L41.53846153846154,380.10797723062245L45,386.7825096140151L48.46153846153847,426.7865711401956L51.92307692307693,325.09126933167L55.38461538461539,323.3541233541234L58.84615384615385,379.16234591738004L62.307692307692314,373.7442845615923L65.76923076923077,343.09598110455266L69.23076923076924,340.3667298261741L72.6923076923077,367.93393925958765L76.15384615384616,323.11731810665134L79.61538461538461,306.2086813918925L83.07692307692308,294.1483242579952L86.53846153846155,343.9895813698443L90,332.0419693301049L93.46153846153847,306.0902288476096L96.92307692307693,319.16162036601906L100.38461538461539,336.35240639433346L103.84615384615385,295.3662639547331L107.3076923076923,290.07260681901835L110.76923076923077,273.12222020901635L114.23076923076923,334.52078718002616L117.6923076923077,313.10733952215645L121.15384615384615,310.5201908530198L124.61538461538463,307.63081929212154L128.07692307692307,330.85460870074303L131.53846153846155,277.1126590169627L135,315.63890654799746L138.46153846153848,263.4439214138738L141.9230769230769,294.2830923261961L145.3846153846154,316.00042673252267L148.84615384615384,294.5610980231486L152.30769230769232,285.44152973499104L155.76923076923077,265.69590010986514L159.23076923076923,269.7022379110903L162.69230769230768,260.5347484783235L166.15384615384616,301.29104299712685L169.6153846153846,282.23515786907234L173.0769230769231,268.05654292979375L176.53846153846155,280.7646034376867L180,263.4753876133186L183.46153846153845,273.5389996791853L186.92307692307693,253.41956945138665L190.3846153846154,253.1086282023024L193.84615384615387,249.73518284993696L197.3076923076923,292.71790999533516L200.76923076923077,268.0476038301755L204.23076923076923,277.8771473478128L207.6923076923077,278.4043659043659L211.15384615384616,251.91429574991216L214.6153846153846,238.42191368074978L218.07692307692307,243.1108401135649L221.53846153846155,240.74746097769585L225,254.4583023082651L228.46153846153845,264.8593697051847L231.9230769230769,254.8530276461008L235.3846153846154,261.09029092454506L238.84615384615384,255.93351372245837L242.3076923076923,239.44746494628126L245.76923076923075,227.06588732568733L249.23076923076925,258.72520893102154L252.6923076923077,255.94509674218622L256.15384615384613,266.6433151089655L259.6153846153846,271.7248318671806L263.0769230769231,265.00865760871187L266.53846153846155,243.785299700807L270,231.97580478104146L273.46153846153845,256.6874222401313L276.92307692307696,237.706454042733L280.3846153846154,248.7279771644934L283.8461538461538,262.16761267290144L287.30769230769226,251.82545231314907L290.7692307692308,211.30740945055388L294.2307692307692,241.09756202114184L297.6923076923077,252.01419511011625L301.15384615384613,249.56824843539567L304.61538461538464,196.6820470512846L308.0769230769231,244.76083099066224L311.53846153846155,244.38602626406356L315,227.10457457367136L318.46153846153845,229.74406284202968L321.9230769230769,228.7296991061311L325.38461538461536,236.87146442592893L328.8461538461538,220.82546643116711L332.3076923076923,212.33133064118977L335.7692307692308,251.40318998586716L339.2307692307692,259.2641398532451L342.6923076923077,248.62562265710537L346.1538461538462,258.19999323630145L349.61538461538464,249.29808491148842L353.0769230769231,238.66477701052378L356.53846153846155,244.1165386970653L360,237.2179289026276L363.46153846153845,238.7220300263779L366.9230769230769,236.20843491151282L370.38461538461536,240.50162883642903L373.84615384615387,217.3977653914304L377.3076923076923,207.10896638983093L380.7692307692308,222.0835164835165L384.2307692307692,245.98427296039614L387.69230769230774,213.06731475724857L391.1538461538462,240.31065403317007L394.6153846153846,259.47805500582615L398.07692307692304,231.17358648371865L401.53846153846155,230.2161997464182L405,230.99936793314143L408.46153846153845,245.35176151873478L411.9230769230769,242.07234006486914L415.3846153846154,217.7906097477143L418.84615384615387,248.20404693896552L422.3076923076923,227.97168537349805L425.7692307692308,222.36813676150527L429.2307692307692,250.55937949905535L432.6923076923077,223.24088450093262L436.15384615384613,244.28069587513366L439.6153846153846,226.41761714714042L443.0769230769231,221.67757221938942L446.53846153846155,224.44624226694054L450,255.0486377831222L453.46153846153845,218.68333769354064L456.9230769230769,213.24769509234756L460.38461538461536,211.47453417523644L463.8461538461538,210.3925750157691L467.3076923076923,214.5027299036036L470.7692307692308,223.22358646098667L474.2307692307692,244.46206092993955L477.6923076923077,221.25836817400668L481.15384615384613,223.80679532349103L484.6153846153846,225.95508797629552L488.07692307692304,247.26151328728537L491.5384615384615,227.41465899660471L495.00000000000006,216.181644521285L498.4615384615385,223.4607076999343L501.92307692307696,229.76284380881492L505.3846153846154,219.596573138117L508.8461538461538,222.82731384540315L512.3076923076923,213.62054964001075L515.7692307692307,238.46085807256006L519.2307692307692,220.4540597063961L522.6923076923077,219.74865255408247L526.1538461538462,208.43337278382597L529.6153846153846,234.82895037980757L533.0769230769231,226.63490780714997L536.5384615384615,213.73547843295347L540,210.43999047197744L543.4615384615385,220.21416373272314L546.9230769230769,219.51573530382L550.3846153846155,209.80019299296342L553.8461538461539,207.60514321965275L557.3076923076924,220.9159219826088L560.7692307692308,240.49196285410454L564.2307692307692,231.80801243084977L567.6923076923076,212.78001153538645L571.1538461538461,229.26045707811343L574.6153846153845,224.3717060707798L578.0769230769231,217.89749520797784L581.5384615384615,207.59132161719273L585,217.93396698349167L588.4615384615385,213.16224285700483L591.9230769230769,220.51539945747422L595.3846153846154,204.64910320732872L598.8461538461538,204.5890183835721L602.3076923076923,209.16994991865053L605.7692307692308,209.94091848143003L609.2307692307693,211.97206904151443L612.6923076923077,233.27031712681935L616.1538461538462,235.0352316044819L619.6153846153846,219.90547297760122L623.0769230769231,223.70528628155284L626.5384615384615,220.57739418836914L630,208.1067522825323L633.4615384615385,217.37471825045378L636.9230769230769,219.56448851317214L640.3846153846154,216.39709541522146L643.8461538461538,221.10361962760487L647.3076923076923,226.60253389229575L650.7692307692307,211.5137227509532L654.2307692307692,226.41719523019663L657.6923076923076,216.1365552059545L661.1538461538462,224.27900757006185L664.6153846153846,207.6858877814337L668.0769230769231,227.8477298947506L671.5384615384615,218.79830609618435L675,231.78926765617354L678.4615384615385,211.06786497770858L681.9230769230769,207.66186893942685L685.3846153846154,210.42556290734944L688.8461538461538,210.3589515085561L692.3076923076924,209.1020718448365L695.7692307692308,215.20450226513353L699.2307692307693,207.12273429465188L702.6923076923077,231.55918475987687L706.1538461538462,213.61264433890136L709.6153846153846,217.44538273818134L713.0769230769231,212.52115999105692L716.5384615384615,208.23200231946421L720,211.57715857901985L723.4615384615385,221.72778148307398L726.9230769230769,221.18713428861122L730.3846153846154,217.16100601950023L733.8461538461538,224.93312967800057L737.3076923076923,214.63398455690444L740.7692307692307,194.64142373279554L744.2307692307692,200.85450943233693L747.6923076923077,213.1330278775981L751.1538461538462,210.3202235261999L754.6153846153846,224.62419866984305L758.0769230769231,225.2148985900822L761.5384615384615,205.98846857967587L765,209.21066333437471L768.4615384615385,231.5507124895222L771.9230769230769,219.0207505166192L775.3846153846155,212.8497027238789L778.8461538461539,197.65394000431922L782.3076923076924,195.1942155233911L785.7692307692308,211.03510813903503L789.2307692307692,220.616149922986L792.6923076923076,212.97339309443674L796.1538461538461,219.6632591701744L799.6153846153845,198.0336844831253L803.0769230769231,208.67604482618827L806.5384615384615,189.28451140837456L810,209.90384776735527L813.4615384615385,184.03605602181003L816.9230769230769,211.54718879625443L820.3846153846154,220.9550992911214L823.8461538461538,209.31770271359943L827.3076923076923,217.913655678379L830.7692307692308,212.83261074206447L834.2307692307693,202.5546727223396L837.6923076923077,209.72553524883816L841.1538461538462,213.18628917349642L844.6153846153846,214.65921112286532L848.0769230769231,186.02793529447302L851.5384615384615,184.88256724486791L855,190.36084028545577L858.4615384615385,174.13154272997951L861.9230769230769,209.22283469444838L865.3846153846154,195.88252378210643L868.8461538461538,230.51920672845762L872.3076923076923,194.2353371094464L875.7692307692307,193.2491343825896L879.2307692307692,176.81983793744692L882.6923076923076,176.24272603572567L886.1538461538462,186.52728500632549" style="fill: none; stroke: #ffbb78; stroke-width: 2;"></path></g></g><path class="foreground" d="" style="display: none; fill: none;"></path></g></g><g class="mark-group role-legend"><g transform="translate(918,0)"><path class="background" d="M0,0h101v92h-101Z" style="pointer-events: none; fill: none;"></path><g><g class="mark-group role-legend-entry"><g transform="translate(0,16)"><path class="background" d="M0,0h0v0h0Z" style="pointer-events: none; fill: none;"></path><g><g class="mark-group role-scope"><g transform="translate(0,0)"><path class="background" d="M0,0h101v11h-101Z" style="pointer-events: none; fill: none; opacity: 1;"></path><g><g class="mark-symbol role-legend-symbol" style="pointer-events: none;"><path transform="translate(6,6)" d="M-5,0L5,0" style="fill: none; stroke: #1f77b4; stroke-width: 1.5; opacity: 1;"></path></g><g class="mark-text role-legend-label" style="pointer-events: none;"><text text-anchor="start" transform="translate(16,9)" style="font-family: sans-serif; font-size: 10px; fill: #000; opacity: 1;">Clang-Polly</text></g></g><path class="foreground" d="" style="pointer-events: none; display: none; fill: none;"></path></g><g transform="translate(0,13)"><path class="background" d="M0,0h101v11h-101Z" style="pointer-events: none; fill: none; opacity: 1;"></path><g><g class="mark-symbol role-legend-symbol" style="pointer-events: none;"><path transform="translate(6,6)" d="M-5,0L5,0" style="fill: none; stroke: #aec7e8; stroke-width: 1.5; opacity: 1;"></path></g><g class="mark-text role-legend-label" style="pointer-events: none;"><text text-anchor="start" transform="translate(16,9)" style="font-family: sans-serif; font-size: 10px; fill: #000; opacity: 1;">GFortran</text></g></g><path class="foreground" d="" style="pointer-events: none; display: none; fill: none;"></path></g><g transform="translate(0,26)"><path class="background" d="M0,0h101v11h-101Z" style="pointer-events: none; fill: none; opacity: 1;"></path><g><g class="mark-symbol role-legend-symbol" style="pointer-events: none;"><path transform="translate(6,6)" d="M-5,0L5,0" style="fill: none; stroke: #ff7f0e; stroke-width: 1.5; opacity: 1;"></path></g><g class="mark-text role-legend-label" style="pointer-events: none;"><text text-anchor="start" transform="translate(16,9)" style="font-family: sans-serif; font-size: 10px; fill: #000; opacity: 1;">Julia</text></g></g><path class="foreground" d="" style="pointer-events: none; display: none; fill: none;"></path></g><g transform="translate(0,39)"><path class="background" d="M0,0h101v11h-101Z" style="pointer-events: none; fill: none; opacity: 1;"></path><g><g class="mark-symbol role-legend-symbol" style="pointer-events: none;"><path transform="translate(6,6)" d="M-5,0L5,0" style="fill: none; stroke: #ffbb78; stroke-width: 1.5; opacity: 1;"></path></g><g class="mark-text role-legend-label" style="pointer-events: none;"><text text-anchor="start" transform="translate(16,9)" style="font-family: sans-serif; font-size: 10px; fill: #000; opacity: 1;">LoopVectorization</text></g></g><path class="foreground" d="" style="pointer-events: none; display: none; fill: none;"></path></g><g transform="translate(0,52)"><path class="background" d="M0,0h101v11h-101Z" style="pointer-events: none; fill: none; opacity: 1;"></path><g><g class="mark-symbol role-legend-symbol" style="pointer-events: none;"><path transform="translate(6,6)" d="M-5,0L5,0" style="fill: none; stroke: #2ca02c; stroke-width: 1.5; opacity: 1;"></path></g><g class="mark-text role-legend-label" style="pointer-events: none;"><text text-anchor="start" transform="translate(16,9)" style="font-family: sans-serif; font-size: 10px; fill: #000; opacity: 1;">icc</text></g></g><path class="foreground" d="" style="pointer-events: none; display: none; fill: none;"></path></g><g transform="translate(0,65)"><path class="background" d="M0,0h101v11h-101Z" style="pointer-events: none; fill: none; opacity: 1;"></path><g><g class="mark-symbol role-legend-symbol" style="pointer-events: none;"><path transform="translate(6,6)" d="M-5,0L5,0" style="fill: none; stroke: #98df8a; stroke-width: 1.5; opacity: 1;"></path></g><g class="mark-text role-legend-label" style="pointer-events: none;"><text text-anchor="start" transform="translate(16,9)" style="font-family: sans-serif; font-size: 10px; fill: #000; opacity: 1;">ifort</text></g></g><path class="foreground" d="" style="pointer-events: none; display: none; fill: none;"></path></g></g></g><path class="foreground" d="" style="pointer-events: none; display: none; fill: none;"></path></g></g><g class="mark-text role-legend-title" style="pointer-events: none;"><text text-anchor="start" transform="translate(0,9)" style="font-family: sans-serif; font-size: 11px; font-weight: bold; fill: #000; opacity: 1;">Method</text></g></g><path class="foreground" d="" style="pointer-events: none; display: none; fill: none;"></path></g></g></g><path class="foreground" d="" style="display: none; fill: none;"></path></g></g></g></svg>
