<?xml version="1.0" encoding="utf-8"?>
<!DOCTYPE svg PUBLIC "-//W3C//DTD SVG 1.1//EN" "http://www.w3.org/Graphics/SVG/1.1/DTD/svg11.dtd">
<svg class="marks" width="1066" height="642" viewBox="0 0 1066 642" version="1.1" xmlns="http://www.w3.org/2000/svg" xmlns:xlink="http://www.w3.org/1999/xlink"><rect width="1066" height="642" style="fill: white;"></rect><g transform="translate(42,5)"><g class="mark-group role-frame root"><g transform="translate(0,0)"><path class="background" d="M0.5,0.5h900v600h-900Z" style="fill: none; stroke: #ddd;"></path><g><g class="mark-group role-axis"><g transform="translate(0.5,600.5)"><path class="background" d="M0,0h0v0h0Z" style="pointer-events: none; fill: none;"></path><g><g class="mark-rule role-axis-grid" style="pointer-events: none;"><line transform="translate(0,-600)" x2="0" y2="600" style="fill: none; stroke: #ddd; stroke-width: 1; opacity: 1;"></line><line transform="translate(35,-600)" x2="0" y2="600" style="fill: none; stroke: #ddd; stroke-width: 1; opacity: 1;"></line><line transform="translate(69,-600)" x2="0" y2="600" style="fill: none; stroke: #ddd; stroke-width: 1; opacity: 1;"></line><line transform="translate(104,-600)" x2="0" y2="600" style="fill: none; stroke: #ddd; stroke-width: 1; opacity: 1;"></line><line transform="translate(138,-600)" x2="0" y2="600" style="fill: none; stroke: #ddd; stroke-width: 1; opacity: 1;"></line><line transform="translate(173,-600)" x2="0" y2="600" style="fill: none; stroke: #ddd; stroke-width: 1; opacity: 1;"></line><line transform="translate(208,-600)" x2="0" y2="600" style="fill: none; stroke: #ddd; stroke-width: 1; opacity: 1;"></line><line transform="translate(242,-600)" x2="0" y2="600" style="fill: none; stroke: #ddd; stroke-width: 1; opacity: 1;"></line><line transform="translate(277,-600)" x2="0" y2="600" style="fill: none; stroke: #ddd; stroke-width: 1; opacity: 1;"></line><line transform="translate(312,-600)" x2="0" y2="600" style="fill: none; stroke: #ddd; stroke-width: 1; opacity: 1;"></line><line transform="translate(346,-600)" x2="0" y2="600" style="fill: none; stroke: #ddd; stroke-width: 1; opacity: 1;"></line><line transform="translate(381,-600)" x2="0" y2="600" style="fill: none; stroke: #ddd; stroke-width: 1; opacity: 1;"></line><line transform="translate(415,-600)" x2="0" y2="600" style="fill: none; stroke: #ddd; stroke-width: 1; opacity: 1;"></line><line transform="translate(450,-600)" x2="0" y2="600" style="fill: none; stroke: #ddd; stroke-width: 1; opacity: 1;"></line><line transform="translate(485,-600)" x2="0" y2="600" style="fill: none; stroke: #ddd; stroke-width: 1; opacity: 1;"></line><line transform="translate(519,-600)" x2="0" y2="600" style="fill: none; stroke: #ddd; stroke-width: 1; opacity: 1;"></line><line transform="translate(554,-600)" x2="0" y2="600" style="fill: none; stroke: #ddd; stroke-width: 1; opacity: 1;"></line><line transform="translate(588,-600)" x2="0" y2="600" style="fill: none; stroke: #ddd; stroke-width: 1; opacity: 1;"></line><line transform="translate(623,-600)" x2="0" y2="600" style="fill: none; stroke: #ddd; stroke-width: 1; opacity: 1;"></line><line transform="translate(658,-600)" x2="0" y2="600" style="fill: none; stroke: #ddd; stroke-width: 1; opacity: 1;"></line><line transform="translate(692,-600)" x2="0" y2="600" style="fill: none; stroke: #ddd; stroke-width: 1; opacity: 1;"></line><line transform="translate(727,-600)" x2="0" y2="600" style="fill: none; stroke: #ddd; stroke-width: 1; opacity: 1;"></line><line transform="translate(762,-600)" x2="0" y2="600" style="fill: none; stroke: #ddd; stroke-width: 1; opacity: 1;"></line><line transform="translate(796,-600)" x2="0" y2="600" style="fill: none; stroke: #ddd; stroke-width: 1; opacity: 1;"></line><line transform="translate(831,-600)" x2="0" y2="600" style="fill: none; stroke: #ddd; stroke-width: 1; opacity: 1;"></line><line transform="translate(865,-600)" x2="0" y2="600" style="fill: none; stroke: #ddd; stroke-width: 1; opacity: 1;"></line><line transform="translate(900,-600)" x2="0" y2="600" style="fill: none; stroke: #ddd; stroke-width: 1; opacity: 1;"></line></g></g><path class="foreground" d="" style="pointer-events: none; display: none; fill: none;"></path></g></g><g class="mark-group role-axis"><g transform="translate(0.5,0.5)"><path class="background" d="M0,0h0v0h0Z" style="pointer-events: none; fill: none;"></path><g><g class="mark-rule role-axis-grid" style="pointer-events: none;"><line transform="translate(0,600)" x2="900" y2="0" style="fill: none; stroke: #ddd; stroke-width: 1; opacity: 1;"></line><line transform="translate(0,566)" x2="900" y2="0" style="fill: none; stroke: #ddd; stroke-width: 1; opacity: 1;"></line><line transform="translate(0,531)" x2="900" y2="0" style="fill: none; stroke: #ddd; stroke-width: 1; opacity: 1;"></line><line transform="translate(0,497)" x2="900" y2="0" style="fill: none; stroke: #ddd; stroke-width: 1; opacity: 1;"></line><line transform="translate(0,463)" x2="900" y2="0" style="fill: none; stroke: #ddd; stroke-width: 1; opacity: 1;"></line><line transform="translate(0,429)" x2="900" y2="0" style="fill: none; stroke: #ddd; stroke-width: 1; opacity: 1;"></line><line transform="translate(0,394)" x2="900" y2="0" style="fill: none; stroke: #ddd; stroke-width: 1; opacity: 1;"></line><line transform="translate(0,360)" x2="900" y2="0" style="fill: none; stroke: #ddd; stroke-width: 1; opacity: 1;"></line><line transform="translate(0,326)" x2="900" y2="0" style="fill: none; stroke: #ddd; stroke-width: 1; opacity: 1;"></line><line transform="translate(0,291)" x2="900" y2="0" style="fill: none; stroke: #ddd; stroke-width: 1; opacity: 1;"></line><line transform="translate(0,257)" x2="900" y2="0" style="fill: none; stroke: #ddd; stroke-width: 1; opacity: 1;"></line><line transform="translate(0,223)" x2="900" y2="0" style="fill: none; stroke: #ddd; stroke-width: 1; opacity: 1;"></line><line transform="translate(0,189)" x2="900" y2="0" style="fill: none; stroke: #ddd; stroke-width: 1; opacity: 1;"></line><line transform="translate(0,154)" x2="900" y2="0" style="fill: none; stroke: #ddd; stroke-width: 1; opacity: 1;"></line><line transform="translate(0,120)" x2="900" y2="0" style="fill: none; stroke: #ddd; stroke-width: 1; opacity: 1;"></line><line transform="translate(0,86)" x2="900" y2="0" style="fill: none; stroke: #ddd; stroke-width: 1; opacity: 1;"></line><line transform="translate(0,51)" x2="900" y2="0" style="fill: none; stroke: #ddd; stroke-width: 1; opacity: 1;"></line><line transform="translate(0,17)" x2="900" y2="0" style="fill: none; stroke: #ddd; stroke-width: 1; opacity: 1;"></line></g></g><path class="foreground" d="" style="pointer-events: none; display: none; fill: none;"></path></g></g><g class="mark-group role-axis"><g transform="translate(0.5,600.5)"><path class="background" d="M0,0h0v0h0Z" style="pointer-events: none; fill: none;"></path><g><g class="mark-rule role-axis-tick" style="pointer-events: none;"><line transform="translate(0,0)" x2="0" y2="5" style="fill: none; stroke: #888; stroke-width: 1; opacity: 1;"></line><line transform="translate(35,0)" x2="0" y2="5" style="fill: none; stroke: #888; stroke-width: 1; opacity: 1;"></line><line transform="translate(69,0)" x2="0" y2="5" style="fill: none; stroke: #888; stroke-width: 1; opacity: 1;"></line><line transform="translate(104,0)" x2="0" y2="5" style="fill: none; stroke: #888; stroke-width: 1; opacity: 1;"></line><line transform="translate(138,0)" x2="0" y2="5" style="fill: none; stroke: #888; stroke-width: 1; opacity: 1;"></line><line transform="translate(173,0)" x2="0" y2="5" style="fill: none; stroke: #888; stroke-width: 1; opacity: 1;"></line><line transform="translate(208,0)" x2="0" y2="5" style="fill: none; stroke: #888; stroke-width: 1; opacity: 1;"></line><line transform="translate(242,0)" x2="0" y2="5" style="fill: none; stroke: #888; stroke-width: 1; opacity: 1;"></line><line transform="translate(277,0)" x2="0" y2="5" style="fill: none; stroke: #888; stroke-width: 1; opacity: 1;"></line><line transform="translate(312,0)" x2="0" y2="5" style="fill: none; stroke: #888; stroke-width: 1; opacity: 1;"></line><line transform="translate(346,0)" x2="0" y2="5" style="fill: none; stroke: #888; stroke-width: 1; opacity: 1;"></line><line transform="translate(381,0)" x2="0" y2="5" style="fill: none; stroke: #888; stroke-width: 1; opacity: 1;"></line><line transform="translate(415,0)" x2="0" y2="5" style="fill: none; stroke: #888; stroke-width: 1; opacity: 1;"></line><line transform="translate(450,0)" x2="0" y2="5" style="fill: none; stroke: #888; stroke-width: 1; opacity: 1;"></line><line transform="translate(485,0)" x2="0" y2="5" style="fill: none; stroke: #888; stroke-width: 1; opacity: 1;"></line><line transform="translate(519,0)" x2="0" y2="5" style="fill: none; stroke: #888; stroke-width: 1; opacity: 1;"></line><line transform="translate(554,0)" x2="0" y2="5" style="fill: none; stroke: #888; stroke-width: 1; opacity: 1;"></line><line transform="translate(588,0)" x2="0" y2="5" style="fill: none; stroke: #888; stroke-width: 1; opacity: 1;"></line><line transform="translate(623,0)" x2="0" y2="5" style="fill: none; stroke: #888; stroke-width: 1; opacity: 1;"></line><line transform="translate(658,0)" x2="0" y2="5" style="fill: none; stroke: #888; stroke-width: 1; opacity: 1;"></line><line transform="translate(692,0)" x2="0" y2="5" style="fill: none; stroke: #888; stroke-width: 1; opacity: 1;"></line><line transform="translate(727,0)" x2="0" y2="5" style="fill: none; stroke: #888; stroke-width: 1; opacity: 1;"></line><line transform="translate(762,0)" x2="0" y2="5" style="fill: none; stroke: #888; stroke-width: 1; opacity: 1;"></line><line transform="translate(796,0)" x2="0" y2="5" style="fill: none; stroke: #888; stroke-width: 1; opacity: 1;"></line><line transform="translate(831,0)" x2="0" y2="5" style="fill: none; stroke: #888; stroke-width: 1; opacity: 1;"></line><line transform="translate(865,0)" x2="0" y2="5" style="fill: none; stroke: #888; stroke-width: 1; opacity: 1;"></line><line transform="translate(900,0)" x2="0" y2="5" style="fill: none; stroke: #888; stroke-width: 1; opacity: 1;"></line></g><g class="mark-text role-axis-label" style="pointer-events: none;"><text text-anchor="start" transform="translate(0,15)" style="font-family: sans-serif; font-size: 10px; fill: #000; opacity: 1;">0</text><text text-anchor="middle" transform="translate(34.61538461538462,15)" style="font-family: sans-serif; font-size: 10px; fill: #000; opacity: 1;">10</text><text text-anchor="middle" transform="translate(69.23076923076924,15)" style="font-family: sans-serif; font-size: 10px; fill: #000; opacity: 1;">20</text><text text-anchor="middle" transform="translate(103.84615384615385,15)" style="font-family: sans-serif; font-size: 10px; fill: #000; opacity: 1;">30</text><text text-anchor="middle" transform="translate(138.46153846153848,15)" style="font-family: sans-serif; font-size: 10px; fill: #000; opacity: 1;">40</text><text text-anchor="middle" transform="translate(173.0769230769231,15)" style="font-family: sans-serif; font-size: 10px; fill: #000; opacity: 1;">50</text><text text-anchor="middle" transform="translate(207.6923076923077,15)" style="font-family: sans-serif; font-size: 10px; fill: #000; opacity: 1;">60</text><text text-anchor="middle" transform="translate(242.3076923076923,15)" style="font-family: sans-serif; font-size: 10px; fill: #000; opacity: 1;">70</text><text text-anchor="middle" transform="translate(276.92307692307696,15)" style="font-family: sans-serif; font-size: 10px; fill: #000; opacity: 1;">80</text><text text-anchor="middle" transform="translate(311.53846153846155,15)" style="font-family: sans-serif; font-size: 10px; fill: #000; opacity: 1;">90</text><text text-anchor="middle" transform="translate(346.1538461538462,15)" style="font-family: sans-serif; font-size: 10px; fill: #000; opacity: 1;">100</text><text text-anchor="middle" transform="translate(380.7692307692308,15)" style="font-family: sans-serif; font-size: 10px; fill: #000; opacity: 1;">110</text><text text-anchor="middle" transform="translate(415.3846153846154,15)" style="font-family: sans-serif; font-size: 10px; fill: #000; opacity: 1;">120</text><text text-anchor="middle" transform="translate(450,15)" style="font-family: sans-serif; font-size: 10px; fill: #000; opacity: 1;">130</text><text text-anchor="middle" transform="translate(484.6153846153846,15)" style="font-family: sans-serif; font-size: 10px; fill: #000; opacity: 1;">140</text><text text-anchor="middle" transform="translate(519.2307692307692,15)" style="font-family: sans-serif; font-size: 10px; fill: #000; opacity: 1;">150</text><text text-anchor="middle" transform="translate(553.8461538461539,15)" style="font-family: sans-serif; font-size: 10px; fill: #000; opacity: 1;">160</text><text text-anchor="middle" transform="translate(588.4615384615385,15)" style="font-family: sans-serif; font-size: 10px; fill: #000; opacity: 1;">170</text><text text-anchor="middle" transform="translate(623.0769230769231,15)" style="font-family: sans-serif; font-size: 10px; fill: #000; opacity: 1;">180</text><text text-anchor="middle" transform="translate(657.6923076923076,15)" style="font-family: sans-serif; font-size: 10px; fill: #000; opacity: 1;">190</text><text text-anchor="middle" transform="translate(692.3076923076924,15)" style="font-family: sans-serif; font-size: 10px; fill: #000; opacity: 1;">200</text><text text-anchor="middle" transform="translate(726.9230769230769,15)" style="font-family: sans-serif; font-size: 10px; fill: #000; opacity: 1;">210</text><text text-anchor="middle" transform="translate(761.5384615384615,15)" style="font-family: sans-serif; font-size: 10px; fill: #000; opacity: 1;">220</text><text text-anchor="middle" transform="translate(796.1538461538461,15)" style="font-family: sans-serif; font-size: 10px; fill: #000; opacity: 1;">230</text><text text-anchor="middle" transform="translate(830.7692307692308,15)" style="font-family: sans-serif; font-size: 10px; fill: #000; opacity: 1;">240</text><text text-anchor="middle" transform="translate(865.3846153846154,15)" style="font-family: sans-serif; font-size: 10px; fill: #000; opacity: 1;">250</text><text text-anchor="end" transform="translate(900,15)" style="font-family: sans-serif; font-size: 10px; fill: #000; opacity: 1;">260</text></g><g class="mark-rule role-axis-domain" style="pointer-events: none;"><line transform="translate(0,0)" x2="900" y2="0" style="fill: none; stroke: #888; stroke-width: 1; opacity: 1;"></line></g><g class="mark-text role-axis-title" style="pointer-events: none;"><text text-anchor="middle" transform="translate(450,30)" style="font-family: sans-serif; font-size: 11px; font-weight: bold; fill: #000; opacity: 1;">Size</text></g></g><path class="foreground" d="" style="pointer-events: none; display: none; fill: none;"></path></g></g><g class="mark-group role-axis"><g transform="translate(0.5,0.5)"><path class="background" d="M0,0h0v0h0Z" style="pointer-events: none; fill: none;"></path><g><g class="mark-rule role-axis-tick" style="pointer-events: none;"><line transform="translate(0,600)" x2="-5" y2="0" style="fill: none; stroke: #888; stroke-width: 1; opacity: 1;"></line><line transform="translate(0,566)" x2="-5" y2="0" style="fill: none; stroke: #888; stroke-width: 1; opacity: 1;"></line><line transform="translate(0,531)" x2="-5" y2="0" style="fill: none; stroke: #888; stroke-width: 1; opacity: 1;"></line><line transform="translate(0,497)" x2="-5" y2="0" style="fill: none; stroke: #888; stroke-width: 1; opacity: 1;"></line><line transform="translate(0,463)" x2="-5" y2="0" style="fill: none; stroke: #888; stroke-width: 1; opacity: 1;"></line><line transform="translate(0,429)" x2="-5" y2="0" style="fill: none; stroke: #888; stroke-width: 1; opacity: 1;"></line><line transform="translate(0,394)" x2="-5" y2="0" style="fill: none; stroke: #888; stroke-width: 1; opacity: 1;"></line><line transform="translate(0,360)" x2="-5" y2="0" style="fill: none; stroke: #888; stroke-width: 1; opacity: 1;"></line><line transform="translate(0,326)" x2="-5" y2="0" style="fill: none; stroke: #888; stroke-width: 1; opacity: 1;"></line><line transform="translate(0,291)" x2="-5" y2="0" style="fill: none; stroke: #888; stroke-width: 1; opacity: 1;"></line><line transform="translate(0,257)" x2="-5" y2="0" style="fill: none; stroke: #888; stroke-width: 1; opacity: 1;"></line><line transform="translate(0,223)" x2="-5" y2="0" style="fill: none; stroke: #888; stroke-width: 1; opacity: 1;"></line><line transform="translate(0,189)" x2="-5" y2="0" style="fill: none; stroke: #888; stroke-width: 1; opacity: 1;"></line><line transform="translate(0,154)" x2="-5" y2="0" style="fill: none; stroke: #888; stroke-width: 1; opacity: 1;"></line><line transform="translate(0,120)" x2="-5" y2="0" style="fill: none; stroke: #888; stroke-width: 1; opacity: 1;"></line><line transform="translate(0,86)" x2="-5" y2="0" style="fill: none; stroke: #888; stroke-width: 1; opacity: 1;"></line><line transform="translate(0,51)" x2="-5" y2="0" style="fill: none; stroke: #888; stroke-width: 1; opacity: 1;"></line><line transform="translate(0,17)" x2="-5" y2="0" style="fill: none; stroke: #888; stroke-width: 1; opacity: 1;"></line></g><g class="mark-text role-axis-label" style="pointer-events: none;"><text text-anchor="end" transform="translate(-7,603)" style="font-family: sans-serif; font-size: 10px; fill: #000; opacity: 1;">0.0</text><text text-anchor="end" transform="translate(-7,568.7142857142857)" style="font-family: sans-serif; font-size: 10px; fill: #000; opacity: 1;">0.2</text><text text-anchor="end" transform="translate(-7,534.4285714285714)" style="font-family: sans-serif; font-size: 10px; fill: #000; opacity: 1;">0.4</text><text text-anchor="end" transform="translate(-7,500.1428571428571)" style="font-family: sans-serif; font-size: 10px; fill: #000; opacity: 1;">0.6</text><text text-anchor="end" transform="translate(-7,465.85714285714283)" style="font-family: sans-serif; font-size: 10px; fill: #000; opacity: 1;">0.8</text><text text-anchor="end" transform="translate(-7,431.57142857142856)" style="font-family: sans-serif; font-size: 10px; fill: #000; opacity: 1;">1.0</text><text text-anchor="end" transform="translate(-7,397.2857142857143)" style="font-family: sans-serif; font-size: 10px; fill: #000; opacity: 1;">1.2</text><text text-anchor="end" transform="translate(-7,363.00000000000006)" style="font-family: sans-serif; font-size: 10px; fill: #000; opacity: 1;">1.4</text><text text-anchor="end" transform="translate(-7,328.71428571428567)" style="font-family: sans-serif; font-size: 10px; fill: #000; opacity: 1;">1.6</text><text text-anchor="end" transform="translate(-7,294.4285714285714)" style="font-family: sans-serif; font-size: 10px; fill: #000; opacity: 1;">1.8</text><text text-anchor="end" transform="translate(-7,260.14285714285717)" style="font-family: sans-serif; font-size: 10px; fill: #000; opacity: 1;">2.0</text><text text-anchor="end" transform="translate(-7,225.8571428571428)" style="font-family: sans-serif; font-size: 10px; fill: #000; opacity: 1;">2.2</text><text text-anchor="end" transform="translate(-7,191.57142857142856)" style="font-family: sans-serif; font-size: 10px; fill: #000; opacity: 1;">2.4</text><text text-anchor="end" transform="translate(-7,157.28571428571428)" style="font-family: sans-serif; font-size: 10px; fill: #000; opacity: 1;">2.6</text><text text-anchor="end" transform="translate(-7,123.00000000000004)" style="font-family: sans-serif; font-size: 10px; fill: #000; opacity: 1;">2.8</text><text text-anchor="end" transform="translate(-7,88.71428571428574)" style="font-family: sans-serif; font-size: 10px; fill: #000; opacity: 1;">3.0</text><text text-anchor="end" transform="translate(-7,54.42857142857138)" style="font-family: sans-serif; font-size: 10px; fill: #000; opacity: 1;">3.2</text><text text-anchor="end" transform="translate(-7,20.14285714285715)" style="font-family: sans-serif; font-size: 10px; fill: #000; opacity: 1;">3.4</text></g><g class="mark-rule role-axis-domain" style="pointer-events: none;"><line transform="translate(0,600)" x2="0" y2="-600" style="fill: none; stroke: #888; stroke-width: 1; opacity: 1;"></line></g><g class="mark-text role-axis-title" style="pointer-events: none;"><text text-anchor="middle" transform="translate(-26,300) rotate(-90) translate(0,-2)" style="font-family: sans-serif; font-size: 11px; font-weight: bold; fill: #000; opacity: 1;">GFLOPS</text></g></g><path class="foreground" d="" style="pointer-events: none; display: none; fill: none;"></path></g></g><g class="mark-group role-scope pathgroup"><g transform="translate(0,0)"><path class="background" d="M0,0h900v600h-900Z" style="fill: none;"></path><g><g class="mark-line role-mark marks"><path d="M6.923076923076923,486.8469488885742L10.384615384615385,436.5943512075317L13.846153846153847,413.5853348810757L17.30769230769231,374.52743576522073L20.76923076923077,356.8723274282223L24.230769230769234,338.7325102880657L27.692307692307693,328.387385926936L31.153846153846157,329.00893910078054L34.61538461538462,346.7020969964504L38.07692307692308,341.5600484031054L41.53846153846154,344.5828633301181L45,341.33382191278855L48.46153846153847,338.7112154979074L51.92307692307693,337.82724026906726L55.38461538461539,334.98579401888895L58.84615384615385,335.6905300366787L62.307692307692314,335.29661616876683L65.76923076923077,337.27740153618885L69.23076923076924,338.9241083922465L72.6923076923077,343.20226436155366L76.15384615384616,347.3790280256114L79.61538461538461,349.4291536788389L83.07692307692308,350.2103263744937L86.53846153846155,350.83731825837805L90,351.44464064422124L93.46153846153847,351.99278629395855L96.92307692307693,353.6047457302779L100.38461538461539,352.8389255820299L103.84615384615385,353.00262637589634L107.3076923076923,354.31985140313594L110.76923076923077,124.32695014711312L114.23076923076923,161.09891882903597L117.6923076923077,164.20233463035015L121.15384615384615,171.08463485400327L124.61538461538463,168.7104314656654L128.07692307692307,174.53848747235037L131.53846153846155,172.68019233402322L135,175.17700957934193L138.46153846153848,178.1882704367961L141.9230769230769,200.07741436036375L145.3846153846154,201.55891458750676L148.84615384615384,209.50653574332352L152.30769230769232,214.26042541500289L155.76923076923077,226.31865962127904L159.23076923076923,233.80241929792368L162.69230769230768,241.0406003871755L166.15384615384616,242.204277220694L169.6153846153846,256.18860510805496L173.0769230769231,263.06238851329033L176.53846153846155,273.5866086813818L180,278.8627359589839L183.46153846153845,288.86513321797736L186.92307692307693,302.4644359847726L190.3846153846154,307.300848162315L193.84615384615387,307.5829637150644L197.3076923076923,319.0942992462983L200.76923076923077,326.25824945003666L204.23076923076923,326.1886857314741L207.6923076923077,326.94114396242054L211.15384615384616,333.2532244897959L214.6153846153846,334.3676995636267L218.07692307692307,337.6296921130324L221.53846153846155,84.76059739696763L225,131.21585197056888L228.46153846153845,127.4547170819456L231.9230769230769,134.40919736001703L235.3846153846154,134.84683255675625L238.84615384615384,150.29328698674775L242.3076923076923,153.5527143156571L245.76923076923075,163.76738305941845L249.23076923076925,164.3229386527082L252.6923076923077,179.87124278081023L256.15384615384613,184.730497436608L259.6153846153846,189.7613605315242L263.0769230769231,193.18734793187355L266.53846153846155,198.9439515256437L270,203.9209384541218L273.46153846153845,209.49711081869665L276.92307692307696,210.48372284589996L280.3846153846154,219.48471490634802L283.8461538461538,225.63899822954087L287.30769230769226,256.7982770997846L290.7692307692308,250.9215357741257L294.2307692307692,260.27980829742944L297.6923076923077,274.8826535461939L301.15384615384613,278.73553169912924L304.61538461538464,287.43889055173094L308.0769230769231,299.4935284186831L311.53846153846155,295.4541228967184L315,297.15129774213966L318.46153846153845,294.32850040191727L321.9230769230769,301.0117899657036L325.38461538461536,300.6634232640424L328.8461538461538,305.4858111653816L332.3076923076923,151.16357301012698L335.7692307692308,172.63399442714308L339.2307692307692,174.8194542084744L342.6923076923077,177.8401620411499L346.1538461538462,176.63825625261984L349.61538461538464,191.29859825443003L353.0769230769231,188.49756829976818L356.53846153846155,194.7157675694423L360,189.74358974358972L363.46153846153845,204.5244581309961L366.9230769230769,204.92307692307688L370.38461538461536,209.53413394528985L373.84615384615387,210.10005290153413L377.3076923076923,218.4111071329116L380.7692307692308,223.51288617851367L384.2307692307692,231.62018898363675L387.69230769230774,233.8330848639982L391.1538461538462,244.01088803835677L394.6153846153846,247.55064275184714L398.07692307692304,251.68045467798711L401.53846153846155,248.5242958141622L405,255.29524364362697L408.46153846153845,266.6158853265009L411.9230769230769,270.05862928768784L415.3846153846154,268.43479874216825L418.84615384615387,280.8891811193126L422.3076923076923,280.9948979591836L425.7692307692308,283.7270386562754L429.2307692307692,283.4096440911644L432.6923076923077,288.54539162533166L436.15384615384613,304.68295833781895L439.6153846153846,290.73988934159837L443.0769230769231,175.75783528242982L446.53846153846155,175.74198771329904L450,178.04408691845822L453.46153846153845,179.6450854873998L456.9230769230769,173.22745320476454L460.38461538461536,182.3947512301804L463.8461538461538,181.68977444623224L467.3076923076923,182.1812596006144L470.7692307692308,178.80102293117818L474.2307692307692,193.12951430454493L477.6923076923077,194.16535414560767L481.15384615384613,200.33544986222594L484.6153846153846,198.4653719890835L488.07692307692304,205.96094552929077L491.5384615384615,206.06994665085944L495.00000000000006,211.99635712715505L498.4615384615385,215.52861746202248L501.92307692307696,219.2674300101912L505.3846153846154,221.1696869851729L508.8461538461538,223.1204527081649L512.3076923076923,224.25774205915346L515.7692307692307,231.73504695996047L519.2307692307692,240.87521801173295L522.6923076923077,253.36723007412814L526.1538461538462,258.6984969486468L529.6153846153846,263.28776258752913L533.0769230769231,263.84621703770637L536.5384615384615,267.19045707403797L540,265.7142857142857L543.4615384615385,269.3782348890419L546.9230769230769,270.268082732672L550.3846153846155,271.6748583043847L553.8461538461539,191.33814547473622L557.3076923076924,198.74360585120698L560.7692307692308,193.72259404569576L564.2307692307692,198.01503759398494L567.6923076923076,198.5063923440243L571.1538461538461,203.79473703243852L574.6153846153845,202.9788757608306L578.0769230769231,205.51181102362207L581.5384615384615,196.3174919134113L585,213.62337356688968L588.4615384615385,214.34541313816962L591.9230769230769,217.15587373901724L595.3846153846154,215.59694262030357L598.8461538461538,222.64403238443455L602.3076923076923,222.1771858714534L605.7692307692308,226.6704376723467L609.2307692307693,229.86256881460642L612.6923076923077,237.9036892311229L616.1538461538462,237.12083823696898L619.6153846153846,245.34297088554186L623.0769230769231,239.01610282168713L626.5384615384615,247.64459973794217L630,263.2696390658174L633.4615384615385,264.1643671664616L636.9230769230769,258.9463137680555L640.3846153846154,269.3465727098013L643.8461538461538,269.80681296773884L647.3076923076923,272.83302442088603L650.7692307692307,271.9694113845656L654.2307692307692,280.04158004157995L657.6923076923076,277.8446037417608L661.1538461538462,282.7178474094796L664.6153846153846,209.22384701912267L668.0769230769231,212.44846205599737L671.5384615384615,215.78631096967487L675,216.64033701948392L678.4615384615385,212.4136315727837L681.9230769230769,220.04984049418385L685.3846153846154,216.41043946683106L688.8461538461538,236.40516158501768L692.3076923076924,208.9303954472493L695.7692307692308,224.02944648933953L699.2307692307693,228.0438118418964L702.6923076923077,224.857324032974L706.1538461538462,226.00329400892804L709.6153846153846,244.23664202523116L713.0769230769231,233.43410175222428L716.5384615384615,243.82432218170288L720,232.83525362650352L723.4615384615385,245.41213063763607L726.9230769230769,260.5291383625312L730.3846153846154,250.9630014955459L733.8461538461538,244.15608295354542L737.3076923076923,254.21465869293107L740.7692307692307,259.76065173718524L744.2307692307692,271.21735949686723L747.6923076923077,265.7014478282576L751.1538461538462,272.48495618109115L754.6153846153846,280.2991071428571L758.0769230769231,287.20209916952956L761.5384615384615,288.33499821047957L765,278.12366737739865L768.4615384615385,279.2856602999449L771.9230769230769,283.1026570942195L775.3846153846155,231.39931740614327L778.8461538461539,229.34165927617752L782.3076923076924,227.99253113537617L785.7692307692308,230.08308764406326L789.2307692307692,240.4936911503967L792.6923076923076,257.4420344053852L796.1538461538461,240.0284562485179L799.6153846153845,253.3262895739783L803.0769230769231,236.49853461174212L806.5384615384615,256.0957917643472L810,256.405556828359L813.4615384615385,259.2930094453119L816.9230769230769,239.3054637496574L820.3846153846154,251.43289715583433L823.8461538461538,258.9177655741718L827.3076923076923,254.95322980058748L830.7692307692308,279.485758616868L834.2307692307693,280.9605864172205L837.6923076923077,278.29242496079354L841.1538461538462,297.2194561470701L844.6153846153846,262.07214931082234L848.0769230769231,266.7956656346749L851.5384615384615,294.6070465244852L855,285.23983659766884L858.4615384615385,277.4018850264469L861.9230769230769,287.40322891122577L865.3846153846154,302.4468118736762L868.8461538461538,291.16491028197095L872.3076923076923,297.7851513894649L875.7692307692307,295.61386888973095L879.2307692307692,298.80022321428567L882.6923076923076,311.84320880479083L886.1538461538462,284.1251170271503" style="fill: none; stroke: #ff7f0e; stroke-width: 2;"></path></g></g><path class="foreground" d="" style="display: none; fill: none;"></path></g><g transform="translate(0,0)"><path class="background" d="M0,0h900v600h-900Z" style="fill: none;"></path><g><g class="mark-line role-mark marks"><path d="M6.923076923076923,447.95692112765283L10.384615384615385,394.6762199734525L13.846153846153847,362.6446805137149L17.30769230769231,346.6435136165347L20.76923076923077,309.63274891687246L24.230769230769234,311.9738949149469L27.692307692307693,297.4131350541403L31.153846153846157,308.22487574184987L34.61538461538462,324.47008954636544L38.07692307692308,318.84013810851536L41.53846153846154,316.42146711947345L45,314.9694808726657L48.46153846153847,316.29277935647843L51.92307692307693,323.06148117398493L55.38461538461539,322.34320557491293L58.84615384615385,321.16030407106564L62.307692307692314,322.46586802050797L65.76923076923077,323.4847949430499L69.23076923076924,327.53483901970213L72.6923076923077,331.99880722407323L76.15384615384616,336.2619543101152L79.61538461538461,337.7597699647105L83.07692307692308,338.4756338875727L86.53846153846155,339.38053765986496L90,339.4116880404623L93.46153846153847,340.6199122706957L96.92307692307693,343.06307010176374L100.38461538461539,342.476566354218L103.84615384615385,342.85234801000524L107.3076923076923,344.2944424957787L110.76923076923077,103.33131709412811L114.23076923076923,123.49690418090411L117.6923076923077,130.87108013937285L121.15384615384615,131.9687187214713L124.61538461538463,132.24651872661698L128.07692307692307,140.46718297025237L131.53846153846155,147.5842115685022L135,149.359720918473L138.46153846153848,155.49699787310124L141.9230769230769,170.08456556987088L145.3846153846154,176.96026907714938L148.84615384615384,185.25476063372247L152.30769230769232,190.4135875556281L155.76923076923077,200.6061995190087L159.23076923076923,211.00002044613453L162.69230769230768,223.0943795508653L166.15384615384616,229.00257637099736L169.6153846153846,245.3301807127174L173.0769230769231,250.78857873233972L176.53846153846155,260.1924124160465L180,262.72334176389L183.46153846153845,273.870930983401L186.92307692307693,282.61883983115746L190.3846153846154,296.0976171290434L193.84615384615387,289.21451695348446L197.3076923076923,310.5796868844565L200.76923076923077,311.6674598406891L204.23076923076923,317.4195837275307L207.6923076923077,317.00625724881513L211.15384615384616,323.7306134043978L214.6153846153846,328.3814846531753L218.07692307692307,330.49129191577845L221.53846153846155,96.82998861013394L225,123.22296827969438L228.46153846153845,127.3957962237264L231.9230769230769,139.56931472701086L235.3846153846154,147.89339714301772L238.84615384615384,156.17495711835332L242.3076923076923,162.98727944193666L245.76923076923075,172.58517778758394L249.23076923076925,174.78595024607293L252.6923076923077,185.61555781264425L256.15384615384613,191.48622952830763L259.6153846153846,199.22135923594251L263.0769230769231,204.50304437338477L266.53846153846155,210.04923620754957L270,216.68068243344433L273.46153846153845,222.05980066445179L276.92307692307696,230.5301981932755L280.3846153846154,232.28529907037895L283.8461538461538,236.78329608752207L287.30769230769226,241.74004271422683L290.7692307692308,247.57962929638296L294.2307692307692,250.53359162188949L297.6923076923077,255.9357351229396L301.15384615384613,260.73228826233867L304.61538461538464,264.45819963673205L308.0769230769231,271.37338028650544L311.53846153846155,270.65446868402523L315,275.38854244078965L318.46153846153845,278.8388751603115L321.9230769230769,281.1040856031128L325.38461538461536,286.67582819215806L328.8461538461538,310.28841444851815L332.3076923076923,165.17729461549683L335.7692307692308,175.08555783709784L339.2307692307692,179.08323052102108L342.6923076923077,184.3392463524719L346.1538461538462,183.61962347121067L349.61538461538464,196.14517657051383L353.0769230769231,196.10431216761702L356.53846153846155,204.5894982927805L360,196.68831368686705L363.46153846153845,214.97881172706045L366.9230769230769,215.65390100296037L370.38461538461536,221.58002455996723L373.84615384615387,221.28290825901234L377.3076923076923,229.45221355172677L380.7692307692308,232.0826968549248L384.2307692307692,236.70663105858281L387.69230769230774,234.87041400201946L391.1538461538462,245.16632541569874L394.6153846153846,247.56169686542282L398.07692307692304,252.79103260398045L401.53846153846155,252.2541219877781L405,259.779651097124L408.46153846153845,258.6984262016163L411.9230769230769,261.05919003115264L415.3846153846154,256.68178929790594L418.84615384615387,278.4053156146179L422.3076923076923,279.09469604152275L425.7692307692308,283.0369049062224L429.2307692307692,277.5442509838368L432.6923076923077,286.9081210621932L436.15384615384613,286.27630375114364L439.6153846153846,308.1333413130648L443.0769230769231,186.74541996195813L446.53846153846155,173.46333192030522L450,174.27838144123717L453.46153846153845,176.8096138844559L456.9230769230769,177.2291483757682L460.38461538461536,182.35193602405937L463.8461538461538,184.00444587104096L467.3076923076923,185.19606320337763L470.7692307692308,184.63446238731524L474.2307692307692,192.54127398201314L477.6923076923077,196.0432180734379L481.15384615384613,200.98875687744203L484.6153846153846,201.30385264894156L488.07692307692304,208.12039231890037L491.5384615384615,209.61886605040127L495.00000000000006,215.54594392756005L498.4615384615385,223.019634394042L501.92307692307696,222.0430267503793L505.3846153846154,224.9541284403669L508.8461538461538,226.2551357851489L512.3076923076923,230.1034386357282L515.7692307692307,231.9826557075621L519.2307692307692,232.4444204035268L522.6923076923077,246.29372784712592L526.1538461538462,242.66892021664805L529.6153846153846,258.8801621484672L533.0769230769231,256.62498951078294L536.5384615384615,260.0391325233448L540,259.2298862569133L543.4615384615385,262.931424947912L546.9230769230769,267.92901754733816L550.3846153846155,266.68122461457835L553.8461538461539,207.08248064774446L557.3076923076924,200.64308681672026L560.7692307692308,195.60989305495295L564.2307692307692,199.80538193794675L567.6923076923076,197.81020089672765L571.1538461538461,203.7278613023401L574.6153846153845,202.2478358601559L578.0769230769231,205.2851867049651L581.5384615384615,200.29563932002955L585,213.986765644419L588.4615384615385,215.26838790793084L591.9230769230769,219.43866383446726L595.3846153846154,217.49935727140283L598.8461538461538,222.64403238443455L602.3076923076923,225.4036598493003L605.7692307692308,228.79640044994375L609.2307692307693,234.82338230697087L612.6923076923077,238.50956619847594L616.1538461538462,238.2264443729539L619.6153846153846,245.2062839524299L623.0769230769231,244.416956952769L626.5384615384615,249.04605058728475L630,254.17322834645668L633.4615384615385,250.16103896103903L636.9230769230769,247.29957259422358L640.3846153846154,265.74925527781375L643.8461538461538,261.23353380895566L647.3076923076923,268.5689145873924L650.7692307692307,264.6184340931615L654.2307692307692,271.87250146580675L657.6923076923076,272.32998750959354L661.1538461538462,274.38604799147606L664.6153846153846,218.6542716498293L668.0769230769231,211.74518682382217L671.5384615384615,212.59600614439321L675,212.88035450516983L678.4615384615385,211.11568062981013L681.9230769230769,216.36587164986474L685.3846153846154,218.74874011240217L688.8461538461538,235.1413292589763L692.3076923076924,211.02734258460393L695.7692307692308,220.52432356652184L699.2307692307693,222.40962561100068L702.6923076923077,224.32132084457845L706.1538461538462,225.5735698990517L709.6153846153846,238.75106928999145L713.0769230769231,234.07633063737578L716.5384615384615,240.7734184343908L720,239.73978259968789L723.4615384615385,247.02570838806534L726.9230769230769,267.1195056750953L730.3846153846154,253.8306763658876L733.8461538461538,249.13980095958965L737.3076923076923,256.60043318579903L740.7692307692307,256.82959574362286L744.2307692307692,264.214312828763L747.6923076923077,258.58508604206503L751.1538461538462,266.2716049382716L754.6153846153846,271.8386985909038L758.0769230769231,280.3503010399562L761.5384615384615,277.78029370019163L765,274.951552795031L768.4615384615385,276.3255966001961L771.9230769230769,282.4916573971079L775.3846153846155,241.25560538116585L778.8461538461539,230.75470784721884L782.3076923076924,230.12034439043728L785.7692307692308,230.40668404327488L789.2307692307692,245.19647316650526L792.6923076923076,261.4748478875654L796.1538461538461,234.33435040950695L799.6153846153845,250.75648141108488L803.0769230769231,244.01126129834208L806.5384615384615,247.96125907990321L810,254.02219903632897L813.4615384615385,250.1534967828757L816.9230769230769,241.2353941052586L820.3846153846154,254.3114543114543L823.8461538461538,262.08545586859344L827.3076923076923,260.5984102877655L830.7692307692308,273.87749732178094L834.2307692307693,270.1943875026507L837.6923076923077,278.2000009120384L841.1538461538462,293.02217217411567L844.6153846153846,269.4833258079081L848.0769230769231,267.06409306222406L851.5384615384615,281.272211464066L855,275.1421942326815L858.4615384615385,270.9441067154536L861.9230769230769,282.3790531749338L865.3846153846154,291.49838374651245L868.8461538461538,287.7767859713783L872.3076923076923,292.23664573536445L875.7692307692307,294.60127364318987L879.2307692307692,289.26682418412753L882.6923076923076,307.2295640734318L886.1538461538462,283.4602292546217" style="fill: none; stroke: #1f77b4; stroke-width: 2;"></path></g></g><path class="foreground" d="" style="display: none; fill: none;"></path></g><g transform="translate(0,0)"><path class="background" d="M0,0h900v600h-900Z" style="fill: none;"></path><g><g class="mark-line role-mark marks"><path d="M6.923076923076923,474.0601964526465L10.384615384615385,423.3551904516319L13.846153846153847,387.0213938930483L17.30769230769231,358.5763437674641L20.76923076923077,352.02492211838006L24.230769230769234,336.2841650990373L27.692307692307693,337.5612185606374L31.153846153846157,367.86099292028393L34.61538461538462,322.7350302268574L38.07692307692308,330.54562412560233L41.53846153846154,340.4357552623612L45,347.8991596638656L48.46153846153847,352.5641445751549L51.92307692307693,351.1099835088164L55.38461538461539,175.8174826221555L58.84615384615385,222.7496641289744L62.307692307692314,237.55886192540626L65.76923076923077,243.55608605502763L69.23076923076924,257.45666101802425L72.6923076923077,258.61070206063914L76.15384615384616,262.2103093826255L79.61538461538461,272.7803759379518L83.07692307692308,133.52980808150025L86.53846153846155,169.45676381062978L90,178.97367335973905L93.46153846153847,195.9213167402649L96.92307692307693,207.85067692061205L100.38461538461539,213.9939312033047L103.84615384615385,219.2236472121253L107.3076923076923,232.00394188234304L110.76923076923077,90.62888693383483L114.23076923076923,136.79806651706835L117.6923076923077,153.92265683967497L121.15384615384615,165.37432323106606L124.61538461538463,162.54402581510442L128.07692307692307,172.60751153266312L131.53846153846155,186.70970861208417L135,191.40790361848352L138.46153846153848,62.15120629928468L141.9230769230769,109.37209498859116L145.3846153846154,123.5090419392073L148.84615384615384,128.43802665529194L152.30769230769232,135.23504575725931L155.76923076923077,145.64864874371673L159.23076923076923,162.642206383638L162.69230769230768,167.48586432530803L166.15384615384616,52.08012326656395L169.6153846153846,100.83696016069635L173.0769230769231,117.23593910231122L176.53846153846155,124.3019699923393L180,127.02258198303838L183.46153846153845,135.65344366025786L186.92307692307693,149.23164484917467L190.3846153846154,159.19185172816833L193.84615384615387,56.38784025432149L197.3076923076923,99.60899069145574L200.76923076923077,108.48045963253341L204.23076923076923,116.8719505953802L207.6923076923077,117.3997604579867L211.15384615384616,127.58462755548155L214.6153846153846,138.52515506547203L218.07692307692307,142.40317775571L221.53846153846155,69.82168080971138L225,123.77868844876541L228.46153846153845,126.59892408846385L231.9230769230769,132.65403815906444L235.3846153846154,128.5211857310333L238.84615384615384,161.60321914544394L242.3076923076923,163.8820638820638L245.76923076923075,170.88761075703403L249.23076923076925,76.08525908328207L252.6923076923077,144.53717221081558L256.15384615384613,148.46777352577817L259.6153846153846,158.63057895680222L263.0769230769231,160.64233576642343L266.53846153846155,194.41502166586423L270,194.54598625530048L273.46153846153845,200.325566960809L276.92307692307696,130.46943663578233L280.3846153846154,173.19212232998154L283.8461538461538,174.14690103472648L287.30769230769226,183.8923059069282L290.7692307692308,180.74215033301613L294.2307692307692,201.10047520520223L297.6923076923077,204.1269841269841L301.15384615384613,210.0550715718211L304.61538461538464,135.17244411228086L308.0769230769231,181.43864137386709L311.53846153846155,178.26756279803243L315,188.10403587443943L318.46153846153845,182.70411973601986L321.9230769230769,197.6701039823963L325.38461538461536,200.52003970195577L328.8461538461538,208.32278296969992L332.3076923076923,132.75490790491517L335.7692307692308,151.05892076173427L339.2307692307692,158.33499302927697L342.6923076923077,163.9826951044396L346.1538461538462,160.0206920961638L349.61538461538464,174.1215378255477L353.0769230769231,172.28932012484736L356.53846153846155,180.14110269140312L360,129.78115482432727L363.46153846153845,154.23536479540752L366.9230769230769,158.20430421657412L370.38461538461536,166.2569203340527L373.84615384615387,164.08072579152005L377.3076923076923,172.30760084420797L380.7692307692308,176.94750822890796L384.2307692307692,180.56876701544923L387.69230769230774,135.54542952383866L391.1538461538462,156.59581791584202L394.6153846153846,159.22690064487205L398.07692307692304,163.7988664438309L401.53846153846155,160.88920044756594L405,175.7891816920944L408.46153846153845,175.62437562437566L411.9230769230769,184.13318610379685L415.3846153846154,130.27654842405585L418.84615384615387,163.75994286699336L422.3076923076923,165.41438064132052L425.7692307692308,171.55498124921002L429.2307692307692,167.3814950923384L432.6923076923077,177.29279519053136L436.15384615384613,178.79867338164846L439.6153846153846,182.62298449214336L443.0769230769231,164.6794150731158L446.53846153846155,166.29497286649627L450,168.7825217233506L453.46153846153845,176.00153658167784L456.9230769230769,170.1431142342959L460.38461538461536,179.91131277714757L463.8461538461538,179.59156007010677L467.3076923076923,182.37529736236027L470.7692307692308,150.923424554356L474.2307692307692,170.76733153281836L477.6923076923077,168.10469779768746L481.15384615384613,173.82389575548524L484.6153846153846,168.1056762706997L488.07692307692304,183.04872969595993L491.5384615384615,183.1103507271171L495.00000000000006,189.09822571794402L498.4615384615385,157.51253855753603L501.92307692307696,170.6511329194506L505.3846153846154,169.73453397263475L508.8461538461538,173.46752058554432L512.3076923076923,168.9952277798589L515.7692307692307,184.03771887649856L519.2307692307692,184.14296424363897L522.6923076923077,190.31355982626292L526.1538461538462,153.50623170087835L529.6153846153846,177.17994347325444L533.0769230769231,177.2727272727273L536.5384615384615,183.61196814235484L540,178.62017548890285L543.4615384615385,188.41878214700512L546.9230769230769,192.52260654474676L550.3846153846155,195.55384798823542L553.8461538461539,181.0644151408784L557.3076923076924,185.61631139944387L560.7692307692308,181.16738923548692L564.2307692307692,187.00175095272428L567.6923076923076,183.54815128313643L571.1538461538461,190.56255917086048L574.6153846153845,190.91479236094884L578.0769230769231,192.78638557277117L581.5384615384615,164.7679513547348L585,188.92055277999688L588.4615384615385,187.56694765963985L591.9230769230769,192.7913791909915L595.3846153846154,186.4254441844843L598.8461538461538,195.71115190043426L602.3076923076923,197.3775549556498L605.7692307692308,199.87875113670805L609.2307692307693,173.48910972423462L612.6923076923077,186.47664256729414L616.1538461538462,186.48973102754613L619.6153846153846,194.4023666156138L623.0769230769231,188.510804012167L626.5384615384615,197.94959419051682L630,204.95398879125443L633.4615384615385,203.08444907220954L636.9230769230769,170.6718237618767L640.3846153846154,193.82654115147398L643.8461538461538,193.49409793914842L647.3076923076923,199.20576862786078L650.7692307692307,195.96710002653217L654.2307692307692,206.11683409047282L657.6923076923076,204.60513174381228L661.1538461538462,213.6773445935862L664.6153846153846,199.59299446220348L668.0769230769231,202.31545406266594L671.5384615384615,202.99094844549384L675,206.25L678.4615384615385,201.94840339166512L681.9230769230769,211.77758609249543L685.3846153846154,214.9453556362689L688.8461538461538,236.34702361916948L692.3076923076924,184.65353354456533L695.7692307692308,204.16612504874556L699.2307692307693,204.30059104981703L702.6923076923077,205.029487036831L706.1538461538462,205.91782887297393L709.6153846153846,223.73032373032368L713.0769230769231,214.8141457025428L716.5384615384615,219.82855671240932L720,193.7006402168326L723.4615384615385,212.3847303075575L726.9230769230769,241.95144944614657L730.3846153846154,221.0356878110769L733.8461538461538,208.18805631277155L737.3076923076923,226.47910406992617L740.7692307692307,221.3428434263767L744.2307692307692,229.1277901265789L747.6923076923077,199.06192305773166L751.1538461538462,214.379457917261L754.6153846153846,219.9692209721927L758.0769230769231,230.79752485679796L761.5384615384615,224.06489816169127L765,225.54523078097264L768.4615384615385,226.90715887181355L771.9230769230769,228.36559326447355L775.3846153846155,220.01935086639108L778.8461538461539,218.80606711811885L782.3076923076924,217.8408477196119L785.7692307692308,219.63229259808185L789.2307692307692,232.47809101467644L792.6923076923076,251.73405627004323L796.1538461538461,226.66010821446142L799.6153846153845,245.37769714748907L803.0769230769231,221.14706225908182L806.5384615384615,233.50866284638775L810,238.34661463756834L813.4615384615385,238.48706903575913L816.9230769230769,221.14888548963384L820.3846153846154,240.575400512954L823.8461538461538,246.18287373004353L827.3076923076923,243.79123864724298L830.7692307692308,247.90211386568052L834.2307692307693,247.2104042746244L837.6923076923077,249.4896362633924L841.1538461538462,278.3842913193628L844.6153846153846,236.4797275726296L848.0769230769231,240.02508535990526L851.5384615384615,257.18799219539716L855,244.599161626271L858.4615384615385,218.38294366052114L861.9230769230769,240.64424261083738L865.3846153846154,255.59509325917725L868.8461538461538,245.83224457799838L872.3076923076923,248.5094066570188L875.7692307692307,254.02019857596002L879.2307692307692,247.3870694074575L882.6923076923076,263.5441765774588L886.1538461538462,263.495283843167" style="fill: none; stroke: #aec7e8; stroke-width: 2;"></path></g></g><path class="foreground" d="" style="display: none; fill: none;"></path></g><g transform="translate(0,0)"><path class="background" d="M0,0h900v600h-900Z" style="fill: none;"></path><g><g class="mark-line role-mark marks"><path d="M6.923076923076923,521.4241973580614L10.384615384615385,482.46243937547536L13.846153846153847,445.97640418307054L17.30769230769231,409.8072773271821L20.76923076923077,373.3612008360251L24.230769230769234,337.41417817850936L27.692307692307693,302.01297435754657L31.153846153846157,374.50229545230894L34.61538461538462,332.33003893381255L38.07692307692308,304.5918161350916L41.53846153846154,280.49234342937166L45,267.2074575359656L48.46153846153847,229.38644170978824L51.92307692307693,205.24225459662745L55.38461538461539,161.46323920767577L58.84615384615385,266.4998545242944L62.307692307692314,247.00074794315626L65.76923076923077,229.27541901904937L69.23076923076924,215.14322174691202L72.6923076923077,195.16001580403005L76.15384615384616,174.6738849716644L79.61538461538461,154.74442371520644L83.07692307692308,122.57157506916872L86.53846153846155,217.96408943155058L90,200.88935976542385L93.46153846153847,186.8868201339059L96.92307692307693,166.83790490242097L100.38461538461539,157.69612213811016L103.84615384615385,140.05846551972013L107.3076923076923,127.40548816393826L110.76923076923077,104.48166369944516L114.23076923076923,203.601209663417L117.6923076923077,195.63717032289873L121.15384615384615,199.89807319128917L124.61538461538463,168.8818604334235L128.07692307692307,189.45908460471568L131.53846153846155,174.6957892148761L135,176.85352622061487L138.46153846153848,122.90716326126561L141.9230769230769,168.66327340287592L145.3846153846154,155.5398230088496L148.84615384615384,158.5728754702421L152.30769230769232,140.42339848386138L155.76923076923077,150.83671538526164L159.23076923076923,141.5660450706216L162.69230769230768,146.89030281666928L166.15384615384616,98.77068427304614L169.6153846153846,139.78206611067142L173.0769230769231,136.08768403202808L176.53846153846155,145.50777623855697L180,128.0148423005565L183.46153846153845,147.01452180909283L186.92307692307693,144.06478271437527L190.3846153846154,153.75253549695736L193.84615384615387,97.65904709446428L197.3076923076923,154.13196668802053L200.76923076923077,142.44710129586505L204.23076923076923,156.2287803604074L207.6923076923077,127.75209135287413L211.15384615384616,162.5512062999411L214.6153846153846,161.92345436702644L218.07692307692307,173.75431672422292L221.53846153846155,92.78601910180862L225,188.59444426685414L228.46153846153845,189.92905828348862L231.9230769230769,195.80366846319345L235.3846153846154,180.87496371066797L238.84615384615384,204.12239694007644L242.3076923076923,189.17760514331624L245.76923076923075,194.3065832886315L249.23076923076925,162.04055180075923L252.6923076923077,209.27690751890273L256.15384615384613,201.0038142278019L259.6153846153846,202.64387699775378L263.0769230769231,185.11166253101737L266.53846153846155,198.7007925165648L270,195.04682394319056L273.46153846153845,199.24141453877175L276.92307692307696,181.8780358113719L280.3846153846154,194.730003050813L283.8461538461538,191.68310011720976L287.30769230769226,193.57690709185022L290.7692307692308,186.05140538103103L294.2307692307692,191.72702679116853L297.6923076923077,191.8769958066752L301.15384615384613,192.73662220793824L304.61538461538464,175.65468665342246L308.0769230769231,192.28211939491297L311.53846153846155,186.5115594168752L315,191.19846186712232L318.46153846153845,182.49625130251346L321.9230769230769,189.27617090001465L325.38461538461536,184.81007753815152L328.8461538461538,186.94093225136822L332.3076923076923,152.92340776674754L335.7692307692308,168.8603743633838L339.2307692307692,160.21814576103117L342.6923076923077,163.94068418734398L346.1538461538462,143.3243687505005L349.61538461538464,161.2903225806451L353.0769230769231,150.40119824542637L356.53846153846155,156.7753948003585L360,134.34490600902595L363.46153846153845,156.45589798087138L366.9230769230769,151.25618199802176L370.38461538461536,156.76021223550475L373.84615384615387,146.2855307531717L377.3076923076923,156.5145023579816L380.7692307692308,153.31991951710262L384.2307692307692,153.98230088495572L387.69230769230774,141.75366604308726L391.1538461538462,154.66697395713294L394.6153846153846,153.52058047243793L398.07692307692304,157.05385101388586L401.53846153846155,150.42441697299824L405,163.85462873991384L408.46153846153845,163.88670813454917L411.9230769230769,165.2122432064412L415.3846153846154,141.369084177093L418.84615384615387,165.13428145917538L422.3076923076923,160.2637362637362L425.7692307692308,167.14314094620036L429.2307692307692,158.15909123302117L432.6923076923077,167.62642923485896L436.15384615384613,165.93563087439475L439.6153846153846,169.05594019378688L443.0769230769231,164.96041382157017L446.53846153846155,170.18551821649638L450,168.24683199317172L453.46153846153845,172.62725164458098L456.9230769230769,166.9515669515669L460.38461538461536,173.54922008584288L463.8461538461538,174.16507282624687L467.3076923076923,176.24657402509973L470.7692307692308,164.51603478667352L474.2307692307692,175.75383579703237L477.6923076923077,174.92982715319846L481.15384615384613,179.14656069637616L484.6153846153846,173.0776509178073L488.07692307692304,180.73987901349466L491.5384615384615,178.8059323108124L495.00000000000006,179.2374973748885L498.4615384615385,177.86438736198937L501.92307692307696,179.52231987685576L505.3846153846154,179.93606332775153L508.8461538461538,179.27352034293455L512.3076923076923,176.81150149525837L515.7692307692307,178.63976999575806L519.2307692307692,178.68303571428567L522.6923076923077,179.9478412054477L526.1538461538462,166.98785085881852L529.6153846153846,180.2556375350721L533.0769230769231,179.6178343949044L536.5384615384615,181.97429839220877L540,178.45094664371769L543.4615384615385,183.5415588231178L546.9230769230769,184.38249648440728L550.3846153846155,183.10459256831498L553.8461538461539,187.8674755016332L557.3076923076924,184.76968796433871L560.7692307692308,178.82928385347435L564.2307692307692,181.83880176762736L567.6923076923076,173.83030382571036L571.1538461538461,179.4134206889492L574.6153846153845,175.9487055284324L578.0769230769231,176.99208443271766L581.5384615384615,173.9122822375908L585,184.72657191038306L588.4615384615385,182.2775715483175L591.9230769230769,183.19772316631037L595.3846153846154,179.81642739468106L598.8461538461538,183.1373408883708L602.3076923076923,183.10039134254447L605.7692307692308,180.31952944916935L609.2307692307693,188.72985312723472L612.6923076923077,183.22180944296852L616.1538461538462,181.57981133314365L619.6153846153846,186.0119493757629L623.0769230769231,183.3848383453038L626.5384615384615,185.8002053689306L630,192.28791773778914L633.4615384615385,187.86642459354152L636.9230769230769,182.9155477500843L640.3846153846154,189.18746828768408L643.8461538461538,189.010989010989L647.3076923076923,191.43496324704378L650.7692307692307,189.26500337154414L654.2307692307692,194.92005000987035L657.6923076923076,194.6874156529509L661.1538461538462,198.65752225302785L664.6153846153846,202.10102456265943L668.0769230769231,196.84513715039424L671.5384615384615,197.0959954558364L675,200.46344289285932L678.4615384615385,197.8370496384956L681.9230769230769,203.98324802233589L685.3846153846154,202.48184019370464L688.8461538461538,217.50997068857814L692.3076923076924,192.3678829156174L695.7692307692308,204.81786991751216L699.2307692307693,203.63123766563288L702.6923076923077,202.97522509926736L706.1538461538462,208.1793268217272L709.6153846153846,213.4022977983247L713.0769230769231,206.58429886135605L716.5384615384615,209.6139751717051L720,208.1632653061224L723.4615384615385,211.40378060117754L726.9230769230769,231.10096644164923L730.3846153846154,221.55935166841735L733.8461538461538,206.87478688595942L737.3076923076923,216.26198777895488L740.7692307692307,211.93463363205063L744.2307692307692,217.05022573751228L747.6923076923077,209.1828793774319L751.1538461538462,212.96234429437308L754.6153846153846,218.19635859568675L758.0769230769231,225.184762596271L761.5384615384615,220.1414117738974L765,216.4084387745794L768.4615384615385,216.78213414870146L771.9230769230769,216.8590604026845L775.3846153846155,227.2166371834145L778.8461538461539,218.0209956994498L782.3076923076924,213.67763797809917L785.7692307692308,212.674852976944L789.2307692307692,226.88613233446281L792.6923076923076,244.15768672094046L796.1538461538461,214.75340495727946L799.6153846153845,234.1655716162944L803.0769230769231,222.81248546308785L806.5384615384615,227.371982162079L810,234.90096270886355L813.4615384615385,224.06371801389594L816.9230769230769,220.30876105243505L820.3846153846154,224.30647291941875L823.8461538461538,230.63636363636363L827.3076923076923,231.27557907818894L830.7692307692308,252.29762697939577L834.2307692307693,243.95651355517452L837.6923076923077,244.83411177323237L841.1538461538462,272.1602742503272L844.6153846153846,228.45333913421794L848.0769230769231,228.7859734847124L851.5384615384615,248.87942907224237L855,230.70059534276172L858.4615384615385,226.5809325599794L861.9230769230769,235.56353488735147L865.3846153846154,252.92821652117004L868.8461538461538,239.30543543343757L872.3076923076923,242.84687275341489L875.7692307692307,246.32262562145698L879.2307692307692,233.99714634180793L882.6923076923076,258.33616831968175L886.1538461538462,266.312764158918" style="fill: none; stroke: #2ca02c; stroke-width: 2;"></path></g></g><path class="foreground" d="" style="display: none; fill: none;"></path></g><g transform="translate(0,0)"><path class="background" d="M0,0h900v600h-900Z" style="fill: none;"></path><g><g class="mark-line role-mark marks"><path d="M6.923076923076923,470.1613776670638L10.384615384615385,419.85574033259866L13.846153846153847,380.23671896504266L17.30769230769231,359.8506593869808L20.76923076923077,335.6262454793712L24.230769230769234,321.27130785649535L27.692307692307693,310.2340865205461L31.153846153846157,305.5935239864641L34.61538461538462,323.90796074809214L38.07692307692308,317.85041943125344L41.53846153846154,314.57016009686527L45,315.3804609326669L48.46153846153847,313.2239193442273L51.92307692307693,310.7582021754174L55.38461538461539,310.8443587323545L58.84615384615385,308.6645813831366L62.307692307692314,311.6668382704758L65.76923076923077,309.22279466873516L69.23076923076924,309.79475472151523L72.6923076923077,311.69552002114443L76.15384615384616,316.74771996290747L79.61538461538461,320.3482885491925L83.07692307692308,324.1678315405488L86.53846153846155,326.18272388511605L90,327.86169494180183L93.46153846153847,331.11461037579267L96.92307692307693,333.21559734291276L100.38461538461539,334.07939657616134L103.84615384615385,334.7203532549576L107.3076923076923,335.6047043712119L110.76923076923077,275.4165410054823L114.23076923076923,365.34829597985146L117.6923076923077,339.78893095947797L121.15384615384615,310.37685456705873L124.61538461538463,284.24003322259136L128.07692307692307,293.3309098380735L131.53846153846155,288.4857921370183L135,287.268495849487L138.46153846153848,317.49598715890846L141.9230769230769,300.4783301927816L145.3846153846154,307.2617246596066L148.84615384615384,308.4820626075345L152.30769230769232,320.7728106049922L155.76923076923077,314.9054849705609L159.23076923076923,320.9962575816234L162.69230769230768,321.50726784556986L166.15384615384616,340.8740359897172L169.6153846153846,327.30814179976625L173.0769230769231,332.14285714285717L176.53846153846155,332.0828738119091L180,341.5442325726789L183.46153846153845,337.1961157916485L186.92307692307693,341.42059058260173L190.3846153846154,340.82356149440955L193.84615384615387,354.6066072051422L197.3076923076923,346.5245880690894L200.76923076923077,348.52788078794276L204.23076923076923,347.61024557697385L207.6923076923077,355.1975921074634L211.15384615384616,351.64563888973333L214.6153846153846,355.3128425839458L218.07692307692307,355.55817517387715L221.53846153846155,187.68336196643324L225,326.68550427975623L228.46153846153845,295.23299000650917L231.9230769230769,295.1753190434891L235.3846153846154,199.8692383131743L238.84615384615384,258.2905355832722L242.3076923076923,209.73127035830623L245.76923076923075,212.4091741959942L249.23076923076925,240.80186291384024L252.6923076923077,231.29775334154897L256.15384615384613,237.01326227820505L259.6153846153846,237.69267440012715L263.0769230769231,249.92439222984763L266.53846153846155,249.15947296683316L270,254.95905368516827L273.46153846153845,256.43615936940813L276.92307692307696,272.36185139149296L280.3846153846154,264.0842065335925L283.8461538461538,268.90344942914913L287.30769230769226,271.14015477214093L290.7692307692308,286.52559464737334L294.2307692307692,281.3267154981767L297.6923076923077,284.24828556356607L301.15384615384613,286.09013564765775L304.61538461538464,297.16771387143547L308.0769230769231,292.4455252295778L311.53846153846155,295.17074532427654L315,297.7799169725047L318.46153846153845,305.1011029411764L321.9230769230769,303.7405216114319L325.38461538461536,307.6285059478336L328.8461538461538,309.4268987215739L332.3076923076923,200.85726532361764L335.7692307692308,287.1668533034714L339.2307692307692,262.8811350803532L342.6923076923077,263.3877510542745L346.1538461538462,197.58284082608407L349.61538461538464,238.41001491707848L353.0769230769231,202.62245476895924L356.53846153846155,205.98332515939185L360,234.75546305931326L363.46153846153845,219.53053783044666L366.9230769230769,224.88562241616904L370.38461538461536,227.40442529790818L373.84615384615387,235.69687826389693L377.3076923076923,234.7852573865367L380.7692307692308,239.8687482333856L384.2307692307692,240.78880836002017L387.69230769230774,262.69705543981837L391.1538461538462,249.680691465012L394.6153846153846,256.80778007076754L398.07692307692304,259.52161169979706L401.53846153846155,266.6339162900373L405,267.79059449866895L408.46153846153845,272.2668481960517L411.9230769230769,273.8934958537316L415.3846153846154,280.7358613297175L418.84615384615387,277.33921057904223L422.3076923076923,280.5988151406576L425.7692307692308,282.07337409672033L429.2307692307692,287.1127459501287L432.6923076923077,286.45970426569636L436.15384615384613,290.74442899552815L439.6153846153846,292.3445730687947L443.0769230769231,208.23105478307718L446.53846153846155,271.0940649618095L450,250.21423721851056L453.46153846153845,252.76527384996402L456.9230769230769,196.4195916725334L460.38461538461536,228.50194552529183L463.8461538461538,200.86967313712057L467.3076923076923,202.63503185574962L470.7692307692308,215.1120088138082L474.2307692307692,209.498947175159L477.6923076923077,212.20847629904586L481.15384615384613,214.21632873332825L484.6153846153846,219.2333658390218L488.07692307692304,220.19001248834155L491.5384615384615,224.3224075730011L495.00000000000006,225.45812807881768L498.4615384615385,239.6790244183037L501.92307692307696,233.04925610284556L505.3846153846154,237.83836991829904L508.8461538461538,238.88458559256392L512.3076923076923,246.3333466982078L515.7692307692307,246.57978309855443L519.2307692307692,252.19839279316164L522.6923076923077,255.06894262921256L526.1538461538462,261.9112231052529L529.6153846153846,258.67838431637654L533.0769230769231,263.15442871254527L536.5384615384615,265.0118912928029L540,269.4253545840035L543.4615384615385,268.7085429372746L546.9230769230769,271.7508710801394L550.3846153846155,274.1525061907608L553.8461538461539,214.52513966480444L557.3076923076924,261.27272727272725L560.7692307692308,241.16188211313064L564.2307692307692,242.76359748763863L567.6923076923076,201.43851337252835L571.1538461538461,224.51590792254524L574.6153846153845,204.03742233437276L578.0769230769231,204.3435340572557L581.5384615384615,219.30387172467735L585,212.3460954629785L588.4615384615385,214.5542136724749L591.9230769230769,218.14168866577225L595.3846153846154,222.00603398083945L598.8461538461538,222.45077135331744L602.3076923076923,225.26920315865033L605.7692307692308,223.5562526736061L609.2307692307693,244.80592902275637L612.6923076923077,232.0323905553501L616.1538461538462,235.57131419421248L619.6153846153846,240.77597740448937L623.0769230769231,247.4248559344197L626.5384615384615,246.54190398698123L630,252.7429753071402L633.4615384615385,251.7230084986813L636.9230769230769,261.5376966864699L640.3846153846154,255.72212309693333L643.8461538461538,259.0250716859054L647.3076923076923,260.6945807261087L650.7692307692307,264.6368991906623L654.2307692307692,265.9068707261479L657.6923076923076,269.2464853451615L661.1538461538462,269.2640692640693L664.6153846153846,220.54494099174823L668.0769230769231,257.8920919183151L671.5384615384615,244.84431231419188L675,246.62100210344644L678.4615384615385,215.1851636532759L681.9230769230769,235.46078301570859L685.3846153846154,217.5615122053804L688.8461538461538,227.67491717014224L692.3076923076924,225.0378926259007L695.7692307692308,220.68976255352274L699.2307692307693,224.90795581879297L702.6923076923077,223.6042627644346L706.1538461538462,231.00813952633393L709.6153846153846,236.2278995312511L713.0769230769231,233.63618789870475L716.5384615384615,234.6025459688826L720,246.6744330958251L723.4615384615385,241.8677709553049L726.9230769230769,258.6067415730337L730.3846153846154,248.83716366062848L733.8461538461538,251.74426077791202L737.3076923076923,258.2225804637562L740.7692307692307,257.2769370197023L744.2307692307692,261.3576563383021L747.6923076923077,264.2627334642543L751.1538461538462,260.5015280277975L754.6153846153846,264.2596358394036L758.0769230769231,270.63729427648553L761.5384615384615,273.06593147967584L765,268.75552079758296L768.4615384615385,271.89581469330943L771.9230769230769,271.1773289301896L775.3846153846155,243.62316449430782L778.8461538461539,263.5347052206709L782.3076923076924,248.8188886543716L785.7692307692308,249.40699637028715L789.2307692307692,236.611239030954L792.6923076923076,260.09852216748766L796.1538461538461,227.02702702702697L799.6153846153845,242.4100887435777L803.0769230769231,245.5634784034095L806.5384615384615,245.1545720794012L810,248.84123140781736L813.4615384615385,241.5267109784869L816.9230769230769,242.45281511194923L820.3846153846154,247.24937983364953L823.8461538461538,248.49140261706498L827.3076923076923,250.8364868566558L830.7692307692308,275.2766146576527L834.2307692307693,265.07915238988534L837.6923076923077,270.34993716920394L841.1538461538462,288.8117179333541L844.6153846153846,262.75051831375254L848.0769230769231,263.20044332887824L851.5384615384615,276.3804375324554L855,269.67509998651866L858.4615384615385,269.9180835378646L861.9230769230769,275.0478510527231L865.3846153846154,285.8953234694175L868.8461538461538,273.4762707781257L872.3076923076923,285.37954460404734L875.7692307692307,283.7564846521356L879.2307692307692,280.3112814859907L882.6923076923076,295.58628086455735L886.1538461538462,276.7745580492757" style="fill: none; stroke: #98df8a; stroke-width: 2;"></path></g></g><path class="foreground" d="" style="display: none; fill: none;"></path></g><g transform="translate(0,0)"><path class="background" d="M0,0h900v600h-900Z" style="fill: none;"></path><g><g class="mark-line role-mark marks"><path d="M6.923076923076923,539.9593913719199L10.384615384615385,523.7186619887026L13.846153846153847,460.31590203881285L17.30769230769231,487.5493391472807L20.76923076923077,378.69445561087224L24.230769230769234,400.23168137492365L27.692307692307693,295.8859444426686L31.153846153846157,399.4653326755166L34.61538461538462,324.25955969539103L38.07692307692308,328.2902837783013L41.53846153846154,270.3973053663017L45,277.4183707932496L48.46153846153847,208.1828024388854L51.92307692307693,221.4434985122437L55.38461538461539,139.67119456592206L58.84615384615385,269.75666042367857L62.307692307692314,223.8048230150895L65.76923076923077,226.93245160808488L69.23076923076924,200.59800141631908L72.6923076923077,182.75676469149082L76.15384615384616,143.08924670280766L79.61538461538461,146.47319847965778L83.07692307692308,86.24099662530844L86.53846153846155,194.51321512211445L90,162.98226570284857L93.46153846153847,159.09102850387492L96.92307692307693,123.13750196881405L100.38461538461539,119.8373792931147L103.84615384615385,89.75373530975008L107.3076923076923,85.7004604578464L110.76923076923077,44.076849811916084L114.23076923076923,203.6053990397681L117.6923076923077,182.51122958733882L121.15384615384615,179.17808219178082L124.61538461538463,152.81409001956945L128.07692307692307,155.2672866691062L131.53846153846155,134.49433884504643L135,130.07881406456553L138.46153846153848,89.11926880597912L141.9230769230769,152.35423458943066L145.3846153846154,135.61616526007006L148.84615384615384,131.72456466012557L152.30769230769232,112.68932848967064L155.76923076923077,119.01610329100134L159.23076923076923,110.03068117980897L162.69230769230768,113.52462315132159L166.15384615384616,19.90185064743091L169.6153846153846,115.2963090441578L173.0769230769231,110.58555191249222L176.53846153846155,109.74632843791721L180,90.20000770742602L183.46153846153845,96.95244198288096L186.92307692307693,89.52992065083495L190.3846153846154,90.10140028971512L193.84615384615387,44.37299035369764L197.3076923076923,137.69242422476776L200.76923076923077,125.15090543259558L204.23076923076923,127.81112444977987L207.6923076923077,109.59154961030852L211.15384615384616,121.44755156269764L214.6153846153846,107.71945302161447L218.07692307692307,111.69198163193211L221.53846153846155,74.43226682669535L225,147.37286347330655L228.46153846153845,135.2479045692214L231.9230769230769,142.37500941666872L235.3846153846154,117.80897000008565L238.84615384615384,136.13445378151258L242.3076923076923,120.75599055011799L245.76923076923075,126.65936202719179L249.23076923076925,81.72069518057437L252.6923076923077,158.41293389242955L256.15384615384613,147.46553520467484L259.6153846153846,153.24939221307005L263.0769230769231,130.75203991476522L266.53846153846155,148.4650618848065L270,135.94544275463886L273.46153846153845,140.0756029028279L276.92307692307696,110.1560859522642L280.3846153846154,168.9734114465976L283.8461538461538,160.80615189737273L287.30769230769226,166.27555340510457L290.7692307692308,149.15281984120483L294.2307692307692,158.89057750759875L297.6923076923077,155.311947961896L301.15384615384613,155.0322351497669L304.61538461538464,107.87418983232287L308.0769230769231,172.21298114635073L311.53846153846155,163.36495101850403L315,167.8735415882574L318.46153846153845,153.3499730827582L321.9230769230769,164.24131968783584L325.38461538461536,156.5464336149059L328.8461538461538,158.46264795323995L332.3076923076923,155.92381747190848L335.7692307692308,170.06892457870265L339.2307692307692,163.9366827253957L342.6923076923077,166.07296950548573L346.1538461538462,151.05083552884412L349.61538461538464,162.6096801585055L353.0769230769231,157.20708064062936L356.53846153846155,159.59983554885565L360,128.5970600270704L363.46153846153845,179.43130648360986L366.9230769230769,172.3227752639517L370.38461538461536,176.1469572393557L373.84615384615387,164.72545757071552L377.3076923076923,176.73638690318597L380.7692307692308,169.69162995594718L384.2307692307692,168.72018733196495L387.69230769230774,162.2402213703052L391.1538461538462,181.39648239164868L394.6153846153846,180.45575966611395L398.07692307692304,180.45733505143374L401.53846153846155,171.1151977458161L405,180.9096581614583L408.46153846153845,174.08510512812944L411.9230769230769,174.2485289428678L415.3846153846154,150.35805681598234L418.84615384615387,185.83539467962234L422.3076923076923,180.67791242466862L425.7692307692308,183.75066522931644L429.2307692307692,174.5031294608543L432.6923076923077,181.70663692136094L436.15384615384613,177.29289940828406L439.6153846153846,180.78962976971283L443.0769230769231,199.93942881371336L446.53846153846155,193.0558223714144L450,188.39257390595014L453.46153846153845,193.1453668483589L456.9230769230769,180.44122259784606L460.38461538461536,189.78214897116575L463.8461538461538,185.1730117857262L467.3076923076923,187.30366859915148L470.7692307692308,168.42897677919967L474.2307692307692,197.3544097115407L477.6923076923077,191.29019466261042L481.15384615384613,194.67012271677942L484.6153846153846,183.01158301158299L488.07692307692304,192.90627929830893L491.5384615384615,190.48328636972224L495.00000000000006,192.37215440448693L498.4615384615385,173.94517876980981L501.92307692307696,189.1071226392206L505.3846153846154,187.8108895361864L508.8461538461538,187.20531267293862L512.3076923076923,178.77623787592583L515.7692307692307,185.29834706910148L519.2307692307692,183.56315499172638L522.6923076923077,185.26103389600812L526.1538461538462,160.01072098633074L529.6153846153846,192.41170534813315L533.0769230769231,189.65102286401924L536.5384615384615,193.69311339513254L540,182.97292695385664L543.4615384615385,190.4404177157716L546.9230769230769,186.57688668248332L550.3846153846155,190.07962617324395L553.8461538461539,209.23812052030792L557.3076923076924,199.96421222152634L560.7692307692308,193.10176565008027L564.2307692307692,195.3171519402533L567.6923076923076,184.741102599844L571.1538461538461,192.97602536160093L574.6153846153845,188.93323612638545L578.0769230769231,190.07926361544364L581.5384615384615,182.21459227467813L585,207.24538619275464L588.4615384615385,199.88530137064865L591.9230769230769,202.39278110108478L595.3846153846154,192.6021426860018L598.8461538461538,201.30241388064144L602.3076923076923,195.81881533101046L605.7692307692308,199.54493742889647L609.2307692307693,200.7220293724966L612.6923076923077,206.16679514156544L616.1538461538462,202.75948051948052L619.6153846153846,208.1007115489874L623.0769230769231,198.10442130367286L626.5384615384615,206.21992887525278L630,212.56700821062626L633.4615384615385,206.3595978489596L636.9230769230769,191.4423740510697L640.3846153846154,211.0472673838096L643.8461538461538,208.52021722614595L647.3076923076923,215.1750937269104L650.7692307692307,207.77849323889234L654.2307692307692,213.29229222941143L657.6923076923076,211.42143303292588L661.1538461538462,213.43979761245947L664.6153846153846,224.20390778175914L668.0769230769231,212.23774714984765L671.5384615384615,210.45513832635407L675,213.47413131968617L678.4615384615385,206.2109584151347L681.9230769230769,215.5276646077013L685.3846153846154,213.86677119827525L688.8461538461538,236.17249811458743L692.3076923076924,191.95757170770486L695.7692307692308,217.52154867881873L699.2307692307693,217.8526773579777L702.6923076923077,216.3216775658001L706.1538461538462,215.18288474810208L709.6153846153846,247.49337432786817L713.0769230769231,217.75480323901152L716.5384615384615,219.82855671240932L720,219.58433603150297L723.4615384615385,231.03177716751662L726.9230769230769,252.69077774221572L730.3846153846154,233.82948824644936L733.8461538461538,214.8550389855927L737.3076923076923,234.5155686222103L740.7692307692307,223.49379104355472L744.2307692307692,231.99080769459357L747.6923076923077,216.6595105195363L751.1538461538462,231.6998955447568L754.6153846153846,236.02495521022598L758.0769230769231,246.9575306078832L761.5384615384615,259.25934578074714L765,234.62233062128797L768.4615384615385,236.46421687115625L771.9230769230769,230.62588966052712L775.3846153846155,254.10945193962925L778.8461538461539,235.72324040355795L782.3076923076924,240.21319868153438L785.7692307692308,232.59525682814427L789.2307692307692,257.10345280509625L792.6923076923076,269.74605496917127L796.1538461538461,235.2422907488987L799.6153846153845,266.25980819529207L803.0769230769231,229.49330865847597L806.5384615384615,281.70854515823015L810,265.1086311109758L813.4615384615385,276.2105857225566L816.9230769230769,240.49556232826447L820.3846153846154,252.88437376601928L823.8461538461538,268.2813988297728L827.3076923076923,265.3230707891883L830.7692307692308,274.39154829145633L834.2307692307693,283.6057866184448L837.6923076923077,275.9657815104441L841.1538461538462,287.65463532841073L844.6153846153846,242.40351734245232L848.0769230769231,244.80198019801978L851.5384615384615,285.11660044912765L855,254.4463927266915L858.4615384615385,236.042867948252L861.9230769230769,257.4839975790033L865.3846153846154,279.25508804511725L868.8461538461538,266.4246600627576L872.3076923076923,268.2168660069212L875.7692307692307,266.65629214648817L879.2307692307692,266.7438450258547L882.6923076923076,287.45860629902415L886.1538461538462,278.02944414991225" style="fill: none; stroke: #ffbb78; stroke-width: 2;"></path></g></g><path class="foreground" d="" style="display: none; fill: none;"></path></g></g><g class="mark-group role-legend"><g transform="translate(918,0)"><path class="background" d="M0,0h101v92h-101Z" style="pointer-events: none; fill: none;"></path><g><g class="mark-group role-legend-entry"><g transform="translate(0,16)"><path class="background" d="M0,0h0v0h0Z" style="pointer-events: none; fill: none;"></path><g><g class="mark-group role-scope"><g transform="translate(0,0)"><path class="background" d="M0,0h101v11h-101Z" style="pointer-events: none; fill: none; opacity: 1;"></path><g><g class="mark-symbol role-legend-symbol" style="pointer-events: none;"><path transform="translate(6,6)" d="M-5,0L5,0" style="fill: none; stroke: #1f77b4; stroke-width: 1.5; opacity: 1;"></path></g><g class="mark-text role-legend-label" style="pointer-events: none;"><text text-anchor="start" transform="translate(16,9)" style="font-family: sans-serif; font-size: 10px; fill: #000; opacity: 1;">Clang</text></g></g><path class="foreground" d="" style="pointer-events: none; display: none; fill: none;"></path></g><g transform="translate(0,13)"><path class="background" d="M0,0h101v11h-101Z" style="pointer-events: none; fill: none; opacity: 1;"></path><g><g class="mark-symbol role-legend-symbol" style="pointer-events: none;"><path transform="translate(6,6)" d="M-5,0L5,0" style="fill: none; stroke: #aec7e8; stroke-width: 1.5; opacity: 1;"></path></g><g class="mark-text role-legend-label" style="pointer-events: none;"><text text-anchor="start" transform="translate(16,9)" style="font-family: sans-serif; font-size: 10px; fill: #000; opacity: 1;">GFortran</text></g></g><path class="foreground" d="" style="pointer-events: none; display: none; fill: none;"></path></g><g transform="translate(0,26)"><path class="background" d="M0,0h101v11h-101Z" style="pointer-events: none; fill: none; opacity: 1;"></path><g><g class="mark-symbol role-legend-symbol" style="pointer-events: none;"><path transform="translate(6,6)" d="M-5,0L5,0" style="fill: none; stroke: #ff7f0e; stroke-width: 1.5; opacity: 1;"></path></g><g class="mark-text role-legend-label" style="pointer-events: none;"><text text-anchor="start" transform="translate(16,9)" style="font-family: sans-serif; font-size: 10px; fill: #000; opacity: 1;">Julia</text></g></g><path class="foreground" d="" style="pointer-events: none; display: none; fill: none;"></path></g><g transform="translate(0,39)"><path class="background" d="M0,0h101v11h-101Z" style="pointer-events: none; fill: none; opacity: 1;"></path><g><g class="mark-symbol role-legend-symbol" style="pointer-events: none;"><path transform="translate(6,6)" d="M-5,0L5,0" style="fill: none; stroke: #ffbb78; stroke-width: 1.5; opacity: 1;"></path></g><g class="mark-text role-legend-label" style="pointer-events: none;"><text text-anchor="start" transform="translate(16,9)" style="font-family: sans-serif; font-size: 10px; fill: #000; opacity: 1;">LoopVectorization</text></g></g><path class="foreground" d="" style="pointer-events: none; display: none; fill: none;"></path></g><g transform="translate(0,52)"><path class="background" d="M0,0h101v11h-101Z" style="pointer-events: none; fill: none; opacity: 1;"></path><g><g class="mark-symbol role-legend-symbol" style="pointer-events: none;"><path transform="translate(6,6)" d="M-5,0L5,0" style="fill: none; stroke: #2ca02c; stroke-width: 1.5; opacity: 1;"></path></g><g class="mark-text role-legend-label" style="pointer-events: none;"><text text-anchor="start" transform="translate(16,9)" style="font-family: sans-serif; font-size: 10px; fill: #000; opacity: 1;">icc</text></g></g><path class="foreground" d="" style="pointer-events: none; display: none; fill: none;"></path></g><g transform="translate(0,65)"><path class="background" d="M0,0h101v11h-101Z" style="pointer-events: none; fill: none; opacity: 1;"></path><g><g class="mark-symbol role-legend-symbol" style="pointer-events: none;"><path transform="translate(6,6)" d="M-5,0L5,0" style="fill: none; stroke: #98df8a; stroke-width: 1.5; opacity: 1;"></path></g><g class="mark-text role-legend-label" style="pointer-events: none;"><text text-anchor="start" transform="translate(16,9)" style="font-family: sans-serif; font-size: 10px; fill: #000; opacity: 1;">ifort</text></g></g><path class="foreground" d="" style="pointer-events: none; display: none; fill: none;"></path></g></g></g><path class="foreground" d="" style="pointer-events: none; display: none; fill: none;"></path></g></g><g class="mark-text role-legend-title" style="pointer-events: none;"><text text-anchor="start" transform="translate(0,9)" style="font-family: sans-serif; font-size: 11px; font-weight: bold; fill: #000; opacity: 1;">Method</text></g></g><path class="foreground" d="" style="pointer-events: none; display: none; fill: none;"></path></g></g></g><path class="foreground" d="" style="display: none; fill: none;"></path></g></g></g></svg>
