<?xml version="1.0" encoding="UTF-8"?>
<svg xmlns="http://www.w3.org/2000/svg"
     xmlns:xlink="http://www.w3.org/1999/xlink"
     xmlns:gadfly="http://www.gadflyjl.org/ns"
     version="1.2"
     width="304.8mm" height="203.2mm" viewBox="0 0 304.8 203.2"
     stroke="none"
     fill="#000000"
     stroke-width="0.3"
     font-size="3.88"
>
<defs>
  <marker id="arrow" markerWidth="15" markerHeight="7" refX="5" refY="3.5" orient="auto" markerUnits="strokeWidth">
    <path d="M0,0 L15,3.5 L0,7 z" stroke="context-stroke" fill="context-stroke"/>
  </marker>
</defs>
<g class="plotroot xscalable yscalable" id="img-efac6f1e-1">
  <g font-size="3.88" font-family="'PT Sans','Helvetica Neue','Helvetica',sans-serif" fill="#564A55" stroke="#000000" stroke-opacity="0.000" id="img-efac6f1e-2">
    <g transform="translate(143.79,191.59)">
      <g class="primitive">
        <text text-anchor="middle" dy="0.6em">Size</text>
      </g>
    </g>
  </g>
  <g class="guide xlabels" font-size="2.82" font-family="'PT Sans Caption','Helvetica Neue','Helvetica',sans-serif" fill="#6C606B" id="img-efac6f1e-3">
    <g transform="translate(19.96,184.92)">
      <g class="primitive">
        <text text-anchor="middle" dy="0.6em">0</text>
      </g>
    </g>
    <g transform="translate(39.01,184.92)">
      <g class="primitive">
        <text text-anchor="middle" dy="0.6em">20</text>
      </g>
    </g>
    <g transform="translate(58.06,184.92)">
      <g class="primitive">
        <text text-anchor="middle" dy="0.6em">40</text>
      </g>
    </g>
    <g transform="translate(77.11,184.92)">
      <g class="primitive">
        <text text-anchor="middle" dy="0.6em">60</text>
      </g>
    </g>
    <g transform="translate(96.16,184.92)">
      <g class="primitive">
        <text text-anchor="middle" dy="0.6em">80</text>
      </g>
    </g>
    <g transform="translate(115.22,184.92)">
      <g class="primitive">
        <text text-anchor="middle" dy="0.6em">100</text>
      </g>
    </g>
    <g transform="translate(134.27,184.92)">
      <g class="primitive">
        <text text-anchor="middle" dy="0.6em">120</text>
      </g>
    </g>
    <g transform="translate(153.32,184.92)">
      <g class="primitive">
        <text text-anchor="middle" dy="0.6em">140</text>
      </g>
    </g>
    <g transform="translate(172.37,184.92)">
      <g class="primitive">
        <text text-anchor="middle" dy="0.6em">160</text>
      </g>
    </g>
    <g transform="translate(191.42,184.92)">
      <g class="primitive">
        <text text-anchor="middle" dy="0.6em">180</text>
      </g>
    </g>
    <g transform="translate(210.47,184.92)">
      <g class="primitive">
        <text text-anchor="middle" dy="0.6em">200</text>
      </g>
    </g>
    <g transform="translate(229.52,184.92)">
      <g class="primitive">
        <text text-anchor="middle" dy="0.6em">220</text>
      </g>
    </g>
    <g transform="translate(248.58,184.92)">
      <g class="primitive">
        <text text-anchor="middle" dy="0.6em">240</text>
      </g>
    </g>
    <g transform="translate(267.63,184.92)">
      <g class="primitive">
        <text text-anchor="middle" dy="0.6em">260</text>
      </g>
    </g>
  </g>
  <g class="guide colorkey" id="img-efac6f1e-4">
    <g fill="#4C404B" font-size="2.82" font-family="'PT Sans','Helvetica Neue','Helvetica',sans-serif" id="img-efac6f1e-5">
      <g transform="translate(274.25,82.51)" id="img-efac6f1e-6">
        <g class="primitive">
          <text dy="0.35em">LoopVectorization</text>
        </g>
      </g>
      <g transform="translate(274.25,86.13)" id="img-efac6f1e-7">
        <g class="primitive">
          <text dy="0.35em">Julia</text>
        </g>
      </g>
      <g transform="translate(274.25,89.76)" id="img-efac6f1e-8">
        <g class="primitive">
          <text dy="0.35em">Clang</text>
        </g>
      </g>
      <g transform="translate(274.25,93.39)" id="img-efac6f1e-9">
        <g class="primitive">
          <text dy="0.35em">GFortran</text>
        </g>
      </g>
      <g transform="translate(274.25,97.01)" id="img-efac6f1e-10">
        <g class="primitive">
          <text dy="0.35em">icc</text>
        </g>
      </g>
      <g transform="translate(274.25,100.64)" id="img-efac6f1e-11">
        <g class="primitive">
          <text dy="0.35em">ifort</text>
        </g>
      </g>
      <g transform="translate(274.25,104.27)" id="img-efac6f1e-12">
        <g class="primitive">
          <text dy="0.35em">g++ with Eigen-3</text>
        </g>
      </g>
      <g transform="translate(274.25,107.89)" id="img-efac6f1e-13">
        <g class="primitive">
          <text dy="0.35em">clang++ with Eigen-3</text>
        </g>
      </g>
      <g transform="translate(274.25,111.52)" id="img-efac6f1e-14">
        <g class="primitive">
          <text dy="0.35em">LinearAlgebra</text>
        </g>
      </g>
    </g>
    <g stroke-width="0.3" id="img-efac6f1e-15">
      <g stroke="#FFFFFF" fill-opacity="1" fill="#B9E014" id="img-efac6f1e-16">
        <g transform="translate(271.44,111.52)" id="img-efac6f1e-17">
          <circle cx="0" cy="0" r="0.9" class="primitive"/>
        </g>
      </g>
      <g stroke="#FFFFFF" fill-opacity="1" fill="#F2ED37" id="img-efac6f1e-18">
        <g transform="translate(271.44,107.89)" id="img-efac6f1e-19">
          <circle cx="0" cy="0" r="0.9" class="primitive"/>
        </g>
      </g>
      <g stroke="#FFFFFF" fill-opacity="1" fill="#FCC884" id="img-efac6f1e-20">
        <g transform="translate(271.44,104.27)" id="img-efac6f1e-21">
          <circle cx="0" cy="0" r="0.9" class="primitive"/>
        </g>
      </g>
      <g stroke="#FFFFFF" fill-opacity="1" fill="#FC93C0" id="img-efac6f1e-22">
        <g transform="translate(271.44,100.64)" id="img-efac6f1e-23">
          <circle cx="0" cy="0" r="0.9" class="primitive"/>
        </g>
      </g>
      <g stroke="#FFFFFF" fill-opacity="1" fill="#EF54F2" id="img-efac6f1e-24">
        <g transform="translate(271.44,97.01)" id="img-efac6f1e-25">
          <circle cx="0" cy="0" r="0.9" class="primitive"/>
        </g>
      </g>
      <g stroke="#FFFFFF" fill-opacity="1" fill="#B341FB" id="img-efac6f1e-26">
        <g transform="translate(271.44,93.39)" id="img-efac6f1e-27">
          <circle cx="0" cy="0" r="0.9" class="primitive"/>
        </g>
      </g>
      <g stroke="#FFFFFF" fill-opacity="1" fill="#732CF8" id="img-efac6f1e-28">
        <g transform="translate(271.44,89.76)" id="img-efac6f1e-29">
          <circle cx="0" cy="0" r="0.9" class="primitive"/>
        </g>
      </g>
      <g stroke="#FFFFFF" fill-opacity="1" fill="#FF0000" id="img-efac6f1e-30">
        <g transform="translate(271.44,86.13)" id="img-efac6f1e-31">
          <circle cx="0" cy="0" r="0.9" class="primitive"/>
        </g>
      </g>
      <g stroke="#FFFFFF" fill-opacity="1" fill="#000000" id="img-efac6f1e-32">
        <g transform="translate(271.44,82.51)" id="img-efac6f1e-33">
          <circle cx="0" cy="0" r="0.9" class="primitive"/>
        </g>
      </g>
    </g>
    <g fill="#362A35" font-size="3.88" font-family="'PT Sans','Helvetica Neue','Helvetica',sans-serif" stroke="#000000" stroke-opacity="0.000" id="img-efac6f1e-34">
      <g transform="translate(270.63,79.19)" id="img-efac6f1e-35">
        <g class="primitive">
          <text dy="-0em">Methods</text>
        </g>
      </g>
    </g>
  </g>
  <g clip-path="url(#img-efac6f1e-36)">
    <g id="img-efac6f1e-37">
      <g pointer-events="visible" stroke-width="0.3" fill="#000000" fill-opacity="0.000" stroke="#000000" stroke-opacity="0.000" class="guide background" id="img-efac6f1e-38">
        <g transform="translate(143.79,94.46)" id="img-efac6f1e-39">
          <path d="M-125.83,-89.46 L125.83,-89.46 125.83,89.46 -125.83,89.46  z" class="primitive"/>
        </g>
      </g>
      <g class="guide ygridlines xfixed" stroke-dasharray="0.5,0.5" stroke-width="0.2" stroke="#D0D0E0" id="img-efac6f1e-40">
        <g transform="translate(143.79,181.91)" id="img-efac6f1e-41">
          <path fill="none" d="M-125.83,0 L125.83,0 " class="primitive"/>
        </g>
        <g transform="translate(143.79,158.13)" id="img-efac6f1e-42">
          <path fill="none" d="M-125.83,0 L125.83,0 " class="primitive"/>
        </g>
        <g transform="translate(143.79,134.34)" id="img-efac6f1e-43">
          <path fill="none" d="M-125.83,0 L125.83,0 " class="primitive"/>
        </g>
        <g transform="translate(143.79,110.55)" id="img-efac6f1e-44">
          <path fill="none" d="M-125.83,0 L125.83,0 " class="primitive"/>
        </g>
        <g transform="translate(143.79,86.76)" id="img-efac6f1e-45">
          <path fill="none" d="M-125.83,0 L125.83,0 " class="primitive"/>
        </g>
        <g transform="translate(143.79,62.97)" id="img-efac6f1e-46">
          <path fill="none" d="M-125.83,0 L125.83,0 " class="primitive"/>
        </g>
        <g transform="translate(143.79,39.18)" id="img-efac6f1e-47">
          <path fill="none" d="M-125.83,0 L125.83,0 " class="primitive"/>
        </g>
        <g transform="translate(143.79,15.39)" id="img-efac6f1e-48">
          <path fill="none" d="M-125.83,0 L125.83,0 " class="primitive"/>
        </g>
      </g>
      <g class="guide xgridlines yfixed" stroke-dasharray="0.5,0.5" stroke-width="0.2" stroke="#D0D0E0" id="img-efac6f1e-49">
        <g transform="translate(19.96,94.46)" id="img-efac6f1e-50">
          <path fill="none" d="M0,-89.46 L0,89.46 " class="primitive"/>
        </g>
        <g transform="translate(39.01,94.46)" id="img-efac6f1e-51">
          <path fill="none" d="M0,-89.46 L0,89.46 " class="primitive"/>
        </g>
        <g transform="translate(58.06,94.46)" id="img-efac6f1e-52">
          <path fill="none" d="M0,-89.46 L0,89.46 " class="primitive"/>
        </g>
        <g transform="translate(77.11,94.46)" id="img-efac6f1e-53">
          <path fill="none" d="M0,-89.46 L0,89.46 " class="primitive"/>
        </g>
        <g transform="translate(96.16,94.46)" id="img-efac6f1e-54">
          <path fill="none" d="M0,-89.46 L0,89.46 " class="primitive"/>
        </g>
        <g transform="translate(115.22,94.46)" id="img-efac6f1e-55">
          <path fill="none" d="M0,-89.46 L0,89.46 " class="primitive"/>
        </g>
        <g transform="translate(134.27,94.46)" id="img-efac6f1e-56">
          <path fill="none" d="M0,-89.46 L0,89.46 " class="primitive"/>
        </g>
        <g transform="translate(153.32,94.46)" id="img-efac6f1e-57">
          <path fill="none" d="M0,-89.46 L0,89.46 " class="primitive"/>
        </g>
        <g transform="translate(172.37,94.46)" id="img-efac6f1e-58">
          <path fill="none" d="M0,-89.46 L0,89.46 " class="primitive"/>
        </g>
        <g transform="translate(191.42,94.46)" id="img-efac6f1e-59">
          <path fill="none" d="M0,-89.46 L0,89.46 " class="primitive"/>
        </g>
        <g transform="translate(210.47,94.46)" id="img-efac6f1e-60">
          <path fill="none" d="M0,-89.46 L0,89.46 " class="primitive"/>
        </g>
        <g transform="translate(229.52,94.46)" id="img-efac6f1e-61">
          <path fill="none" d="M0,-89.46 L0,89.46 " class="primitive"/>
        </g>
        <g transform="translate(248.58,94.46)" id="img-efac6f1e-62">
          <path fill="none" d="M0,-89.46 L0,89.46 " class="primitive"/>
        </g>
        <g transform="translate(267.63,94.46)" id="img-efac6f1e-63">
          <path fill="none" d="M0,-89.46 L0,89.46 " class="primitive"/>
        </g>
      </g>
      <g class="plotpanel" id="img-efac6f1e-64">
        <metadata>
          <boundingbox value="17.958333333333343mm 5.0mm 251.66833333333327mm 178.915mm"/>
          <unitbox value="-2.0995821024084633 74.36952349403987 264.1991642048169 -75.21026083676423"/>
        </metadata>
        <g stroke-width="0.3" fill="#000000" fill-opacity="0.000" class="geometry" id="img-efac6f1e-65">
          <g class="color_RGB{Float64}(0.72522,0.87914,0.07956375)" stroke-dasharray="none" stroke="#B9E014" id="img-efac6f1e-66">
            <g transform="translate(142.84,138.23)" id="img-efac6f1e-67">
              <path fill="none" d="M-120.98,39.92 L-120.02,38.5 -119.07,37.6 -118.12,35.7 -117.17,35.46 -116.21,31.14 -115.26,30.33 -114.31,33.48 -113.36,34.35 -112.4,33.66 -111.45,33.83 -110.5,28.88 -109.55,32.61 -108.59,32.16 -107.64,31.89 -106.69,32.32 -105.74,31.58 -104.78,28.82 -103.83,30.68 -102.88,31.26 -101.93,31.67 -100.97,28.87 -100.02,31.35 -99.07,31.2 -98.11,29.07 -97.16,30.65 -96.21,30.81 -95.26,29.25 -94.3,29.56 -93.35,30.3 -92.4,-15.74 -91.45,-6.92 -90.49,-3.03 -89.54,0.98 -88.59,-2.66 -87.64,3.52 -86.68,4.65 -85.73,7.94 -84.78,6.79 -83.83,8.82 -82.87,11.59 -81.92,12.23 -80.97,13.59 -80.02,15.43 -79.06,16.03 -78.11,16.79 -77.16,16.85 -76.21,18.04 -75.25,18.69 -74.3,19.03 -73.35,19.38 -72.4,20.05 -71.44,20.37 -70.49,20.99 -69.54,21.3 -68.59,22.33 -67.63,22.86 -66.68,23.71 -65.73,24.34 -64.77,24.95 -63.82,25.39 -62.87,25.75 -61.92,-41.85 -60.96,-24.93 -60.01,-18.95 -59.06,-14.46 -58.11,-12.04 -57.15,-7.95 -56.2,-6.61 -55.25,-5.68 -54.3,-6.51 -53.34,0.38 -52.39,1.26 -51.44,2.76 -50.49,2.9 -49.53,5.16 -48.58,5.98 -47.63,7.29 -46.68,5.75 -45.72,9.38 -44.77,10.44 -43.82,11.62 -42.87,12.78 -41.91,13.73 -40.96,15.45 -40.01,16.36 -39.06,15.28 -38.1,17.01 -37.15,18.12 -36.2,18.5 -35.25,18.46 -34.29,19.05 -33.34,20.2 -32.39,20.03 -31.43,-47.91 -30.48,-25.93 -29.53,-25.74 -28.58,-21.29 -27.62,-23.81 -26.67,-18.76 -25.72,-17.91 -24.77,-15.52 -23.81,-20.35 -22.86,-11.59 -21.91,-8.28 -20.96,-7.94 -20,-6.12 -19.05,-4.06 -18.1,-0.83 -17.15,1.16 -16.19,-0.15 -15.24,3.76 -14.29,5.32 -13.34,6.55 -12.38,7.27 -11.43,8.6 -10.48,9.3 -9.53,10.22 -8.57,7.2 -7.62,10.53 -6.67,11.19 -5.72,11.88 -4.76,12.06 -3.81,12.67 -2.86,13.08 -1.91,15.89 -0.95,-56.81 0,-26.72 0.95,-19.4 1.91,-19.11 2.86,-30.7 3.81,-20.5 4.76,-19.45 5.72,-20.62 6.67,-25.14 7.62,-13.27 8.57,-12.16 9.53,-12.03 10.48,-8.76 11.43,-6.32 12.38,-4.93 13.34,-3.05 14.29,-6.36 15.24,-2.42 16.19,-0.95 17.15,1.99 18.1,2.77 19.05,3.74 20,4.2 20.96,5.21 21.91,1.88 22.86,6.44 23.81,5.57 24.77,7.55 25.72,7.8 26.67,8.75 27.62,9.06 28.58,8.58 29.53,-50.32 30.48,-17.55 31.43,-29.82 32.39,-24.76 33.34,-24.62 34.29,-14.75 35.25,-22.1 36.2,-16.31 37.15,-28.08 38.1,-14.49 39.06,-14 40.01,-11.77 40.96,-11.14 41.91,-8.74 42.87,-7.56 43.82,-6.34 44.77,-12.43 45.72,-3.99 46.68,-3.16 47.63,-2.07 48.58,-3.12 49.53,-2.76 50.49,-1.8 51.44,1.24 52.39,-5.78 53.34,0.53 54.3,1.35 55.25,3.36 56.2,4.02 57.15,3.23 58.11,8.04 59.06,4.37 60.01,-50.75 60.96,-27.21 61.92,-19.65 62.87,-16.04 63.82,-24.33 64.77,-22.41 65.73,-15.51 66.68,-12.94 67.63,-31.87 68.59,-11.58 69.54,-14.74 70.49,-13.19 71.44,-13.33 72.4,-11.73 73.35,-10.42 74.3,-9.19 75.25,-21.6 76.21,-10.06 77.16,-6.53 78.11,-8.25 79.06,-7.28 80.02,-6.44 80.97,-3.44 81.92,-4.8 82.87,-8.14 83.83,-1.18 84.78,-2.53 85.73,-1.92 86.68,0.51 87.64,-0.64 88.59,0.01 89.54,2.42 90.49,-50.82 91.45,-26.55 92.4,-19.41 93.35,-15.87 94.3,-30.91 95.26,-14.72 96.21,-15.78 97.16,-13.36 98.11,-30.8 99.07,-12.27 100.02,-12.84 100.97,-16.72 101.93,-15.58 102.88,-13.42 103.83,-13.04 104.78,-11.83 105.74,-21.21 106.69,-10.24 107.64,-9.62 108.59,-8.81 109.55,-7.07 110.5,-7.26 111.45,-6.69 112.4,-5.63 113.36,-12.05 114.31,-4.24 115.26,-3.65 116.21,-3.03 117.17,-2.63 118.12,-1.59 119.07,-1.15 120.02,-0.45 120.98,-69.78 " class="primitive"/>
            </g>
          </g>
        </g>
        <g stroke-width="0.3" fill="#000000" fill-opacity="0.000" class="geometry" id="img-efac6f1e-68">
          <g class="color_RGB{Float64}(0.9472050000000001,0.93113,0.21654)" stroke-dasharray="none" stroke="#F2ED37" id="img-efac6f1e-69">
            <g transform="translate(142.84,119.07)" id="img-efac6f1e-70">
              <path fill="none" d="M-120.98,62.1 L-120.02,61.37 -119.07,60.28 -118.12,59.57 -117.17,58.64 -116.21,57.9 -115.26,53.84 -114.31,52.96 -113.36,52.66 -112.4,51.97 -111.45,50.41 -110.5,50.41 -109.55,49.86 -108.59,49.24 -107.64,36.02 -106.69,39.47 -105.74,39.7 -104.78,39.86 -103.83,38.19 -102.88,39.41 -101.93,38.81 -100.97,39.38 -100.02,18.36 -99.07,23.73 -98.11,27.86 -97.16,29.33 -96.21,27.29 -95.26,33.43 -94.3,34.15 -93.35,31.58 -92.4,2.6 -91.45,10.16 -90.49,14.14 -89.54,17.94 -88.59,16.47 -87.64,20.96 -86.68,20.47 -85.73,22.94 -84.78,-8.31 -83.83,0.77 -82.87,6.81 -81.92,9.38 -80.97,14.5 -80.02,13.68 -79.06,13.82 -78.11,16.47 -77.16,-26.59 -76.21,-4.97 -75.25,-2.64 -74.3,5.42 -73.35,1.95 -72.4,11.48 -71.44,13.69 -70.49,12.32 -69.54,-32.06 -68.59,-5.18 -67.63,-0.08 -66.68,5.82 -65.73,4.11 -64.77,9.12 -63.82,13 -62.87,16.75 -61.92,-31.45 -60.96,8.41 -60.01,6.44 -59.06,13.19 -58.11,9.42 -57.15,16.63 -56.2,18.38 -55.25,17.72 -54.3,-16.42 -53.34,5.67 -52.39,7.23 -51.44,11.09 -50.49,7.24 -49.53,14.83 -48.58,13.95 -47.63,15.77 -46.68,-32 -45.72,3.53 -44.77,4.8 -43.82,8.47 -42.87,3.53 -41.91,11.84 -40.96,10.78 -40.01,13.16 -39.06,-34.87 -38.1,2.24 -37.15,3.67 -36.2,7.15 -35.25,1.35 -34.29,9.97 -33.34,9.01 -32.39,11.48 -31.43,-39.7 -30.48,0.01 -29.53,0.55 -28.58,4.6 -27.62,-1.31 -26.67,8.06 -25.72,7.08 -24.77,9.57 -23.81,-43.11 -22.86,-1.49 -21.91,-0.23 -20.96,4.12 -20,-2.47 -19.05,6.64 -18.1,6.65 -17.15,8.39 -16.19,-46.47 -15.24,-2.84 -14.29,-2.2 -13.34,1.54 -12.38,-4.33 -11.43,5 -10.48,3.53 -9.53,6.54 -8.57,-47.46 -7.62,-3.88 -6.67,-1.45 -5.72,3.03 -4.76,-3.42 -3.81,4.94 -2.86,3.23 -1.91,6.72 -0.95,-49.09 0,-3.8 0.95,-3.44 1.91,0.03 2.86,-6.74 3.81,3.2 4.76,1.67 5.72,4.46 6.67,-45.72 7.62,-5.3 8.57,-4.32 9.53,0.19 10.48,-6.93 11.43,2.75 12.38,1.38 13.34,4.2 14.29,-48.74 15.24,-5.07 16.19,-5.81 17.15,-1.44 18.1,-9.22 19.05,1.32 20,0.21 20.96,2.8 21.91,-50.05 22.86,-4.76 23.81,-5.07 24.77,-2.08 25.72,-9.87 26.67,1.36 27.62,-0.4 28.58,2.08 29.53,-50.76 30.48,-5.75 31.43,-6.49 32.39,-1.43 33.34,-11.01 34.29,2.79 35.25,-2.02 36.2,1.3 37.15,-50.62 38.1,-7.21 39.06,-7.27 40.01,-1.18 40.96,-10.83 41.91,-0.04 42.87,-2.17 43.82,1.04 44.77,-54.86 45.72,-6.59 46.68,-8.8 47.63,-4.28 48.58,-10.45 49.53,-2.13 50.49,-3.69 51.44,0.22 52.39,-57.41 53.34,-8.26 54.3,-9.12 55.25,-5.01 56.2,-13.1 57.15,-1.85 58.11,-4.07 59.06,-0.62 60.01,-55.47 60.96,-6.9 61.92,-9.07 62.87,-5.64 63.82,-13.98 64.77,-2.99 65.73,-3.34 66.68,-1.27 67.63,-57.45 68.59,-9.2 69.54,-9.82 70.49,-5.28 71.44,-14.5 72.4,-2.83 73.35,-5.03 74.3,-1.87 75.25,-58.85 76.21,-9.7 77.16,-10.41 78.11,-4.94 79.06,-15.72 80.02,-3.99 80.97,-5.94 81.92,-2.7 82.87,-53.04 83.83,-9.5 84.78,-10.93 85.73,-6.66 86.68,-16.02 87.64,-4.08 88.59,-6.25 89.54,-2.77 90.49,-57.58 91.45,-9.84 92.4,-11.22 93.35,-7.14 94.3,-16.83 95.26,-5.01 96.21,-7.24 97.16,-3.48 98.11,-60.72 99.07,-10.59 100.02,-11.84 100.97,-7.51 101.93,-17.43 102.88,-4.22 103.83,-7.56 104.78,-3.96 105.74,-62.2 106.69,-10.91 107.64,-11.04 108.59,-8.29 109.55,-18.06 110.5,-5.88 111.45,-7.77 112.4,-4.28 113.36,-62.26 114.31,-10.48 115.26,-12.04 116.21,-7.7 117.17,-17.82 118.12,-5.14 119.07,-7.01 120.02,-3.06 120.98,-58.66 " class="primitive"/>
            </g>
          </g>
        </g>
        <g stroke-width="0.3" fill="#000000" fill-opacity="0.000" class="geometry" id="img-efac6f1e-71">
          <g class="color_RGB{Float64}(0.9876875,0.782915,0.516455)" stroke-dasharray="none" stroke="#FCC884" id="img-efac6f1e-72">
            <g transform="translate(142.84,110.63)" id="img-efac6f1e-73">
              <path fill="none" d="M-120.98,70.29 L-120.02,69.38 -119.07,67.3 -118.12,66.57 -117.17,65.33 -116.21,64.3 -115.26,55.9 -114.31,56.12 -113.36,54.5 -112.4,53.62 -111.45,52.81 -110.5,52.2 -109.55,51.37 -108.59,50.14 -107.64,33.07 -106.69,36.11 -105.74,36.15 -104.78,35.15 -103.83,35.02 -102.88,34.02 -101.93,37.01 -100.97,35.98 -100.02,5.66 -99.07,16.52 -98.11,18.02 -97.16,20.14 -96.21,17.89 -95.26,22.77 -94.3,25.36 -93.35,23.1 -92.4,-17.88 -91.45,9.53 -90.49,1.83 -89.54,7.85 -88.59,4.57 -87.64,10.14 -86.68,13.23 -85.73,17.37 -84.78,-33.85 -83.83,-5.95 -82.87,-8.2 -81.92,-5.36 -80.97,-5.95 -80.02,3.79 -79.06,5.92 -78.11,10.9 -77.16,-41.85 -76.21,-16.72 -75.25,-13.18 -74.3,-7.75 -73.35,-13.72 -72.4,0.79 -71.44,1.56 -70.49,5.1 -69.54,-40.73 -68.59,-19.12 -67.63,-9.81 -66.68,-6.24 -65.73,-16.1 -64.77,-2.99 -63.82,1.01 -62.87,9.57 -61.92,-46.83 -60.96,-6.02 -60.01,-0.23 -59.06,4.97 -58.11,1.51 -57.15,12.35 -56.2,12.8 -55.25,15.94 -54.3,-37.38 -53.34,6.61 -52.39,5.64 -51.44,9.74 -50.49,-0.41 -49.53,11.61 -48.58,10.28 -47.63,16.12 -46.68,-41.79 -45.72,5.64 -44.77,4.14 -43.82,9.38 -42.87,-3.56 -41.91,11.32 -40.96,7.95 -40.01,13.05 -39.06,-45.48 -38.1,6.95 -37.15,2.81 -36.2,7.24 -35.25,-5.39 -34.29,7.89 -33.34,6.93 -32.39,11.57 -31.43,-43.02 -30.48,3.55 -29.53,0.83 -28.58,5.96 -27.62,-7.3 -26.67,7.7 -25.72,6.2 -24.77,10.33 -23.81,-50.39 -22.86,3.21 -21.91,0.45 -20.96,7.68 -20,-7.83 -19.05,6.37 -18.1,7.27 -17.15,8.99 -16.19,-49.83 -15.24,2.13 -14.29,-1.11 -13.34,4.45 -12.38,-6.59 -11.43,5.86 -10.48,3.05 -9.53,8 -8.57,-52.32 -7.62,1.23 -6.67,2.5 -5.72,4.98 -4.76,-8.18 -3.81,6.45 -2.86,3.24 -1.91,8.42 -0.95,-36.54 0,1.99 0.95,-0.2 1.91,6.25 2.86,-9.03 3.81,5.55 4.76,2.65 5.72,9.87 6.67,-49.56 7.62,1.83 8.57,-0.74 9.53,4.33 10.48,-10.58 11.43,5.4 12.38,2.43 13.34,7.25 14.29,-43.6 15.24,1.79 16.19,-1.62 17.15,3.46 18.1,-11.95 19.05,6.3 20,1.3 20.96,6.61 21.91,-51.53 22.86,1.04 23.81,-2.22 24.77,3.17 25.72,-11.7 26.67,4.07 27.62,1.5 28.58,6.17 29.53,-47.89 30.48,1.45 31.43,-2.57 32.39,2.64 33.34,-12.63 34.29,3.84 35.25,-0.14 36.2,5.74 37.15,-51.72 38.1,1.03 39.06,-1.86 40.01,4.28 40.96,-11.95 41.91,4.04 42.87,0.51 43.82,6.56 44.77,-54.22 45.72,0.43 46.68,-3.3 47.63,2.32 48.58,-14.39 49.53,2.39 50.49,-0.82 51.44,4.94 52.39,-51.63 53.34,-0.36 54.3,-4.24 55.25,1.58 56.2,-14.53 57.15,2.6 58.11,-0.43 59.06,4.2 60.01,-51.81 60.96,1.61 61.92,-3.59 62.87,2.08 63.82,-14.74 64.77,2.3 65.73,-0.9 66.68,3.87 67.63,-57.01 68.59,-0.3 69.54,-4.19 70.49,1.49 71.44,-16.5 72.4,2.69 73.35,-1.87 74.3,3.35 75.25,-58.32 76.21,-0.97 77.16,-4.44 78.11,0.97 79.06,-15.52 80.02,1.59 80.97,-2.19 81.92,3.14 82.87,-56.97 83.83,-0.61 84.78,-5.17 85.73,0.75 86.68,-16.48 87.64,1.52 88.59,-2.24 89.54,3.18 90.49,-53.07 91.45,-0.88 92.4,-3.29 93.35,0.74 94.3,-16.86 95.26,1.49 96.21,-2.64 97.16,2.73 98.11,-59.61 99.07,-1.08 100.02,-5.39 100.97,0.23 101.93,-17.3 102.88,1.55 103.83,-3.11 104.78,2.5 105.74,-49.97 106.69,-1.26 107.64,-5.52 108.59,0.37 109.55,-16.98 110.5,1.1 111.45,-3.08 112.4,2.4 113.36,-53.67 114.31,-1.11 115.26,-5.29 116.21,1.11 117.17,-15.82 118.12,2.09 119.07,-0.89 120.02,4.73 120.98,-55.72 " class="primitive"/>
            </g>
          </g>
        </g>
        <g stroke-width="0.3" fill="#000000" fill-opacity="0.000" class="geometry" id="img-efac6f1e-74">
          <g class="color_RGB{Float64}(0.98704,0.57494,0.75486)" stroke-dasharray="none" stroke="#FC93C0" id="img-efac6f1e-75">
            <g transform="translate(142.84,121.47)" id="img-efac6f1e-76">
              <path fill="none" d="M-120.98,57.34 L-120.02,55.64 -119.07,50.87 -118.12,50.27 -117.17,46.25 -116.21,46.32 -115.26,36.75 -114.31,38.8 -113.36,36.14 -112.4,37.34 -111.45,24.86 -110.5,28.45 -109.55,29.73 -108.59,30.29 -107.64,15.35 -106.69,16.63 -105.74,16.31 -104.78,18.31 -103.83,6.41 -102.88,12.92 -101.93,12.58 -100.97,14.88 -100.02,0.18 -99.07,6.84 -98.11,7.18 -97.16,9.68 -96.21,-3.67 -95.26,8.99 -94.3,9.86 -93.35,14.98 -92.4,7.98 -91.45,-1.63 -90.49,3.49 -89.54,4.1 -88.59,-8.13 -87.64,8.29 -86.68,-0.68 -85.73,2.09 -84.78,-3.7 -83.83,-0.76 -82.87,-2.19 -81.92,0.21 -80.97,-6.6 -80.02,-3.4 -79.06,-3.32 -78.11,0.41 -77.16,-8.82 -76.21,-4.5 -75.25,-3.82 -74.3,-2.98 -73.35,-8.31 -72.4,-5.42 -71.44,-4.93 -70.49,-3.53 -69.54,-9.69 -68.59,-6.42 -67.63,-5.95 -66.68,-4.28 -65.73,-10.5 -64.77,-5.92 -63.82,-7.15 -62.87,-3.38 -61.92,-11.31 -60.96,-3.13 -60.01,-2.57 -59.06,0.45 -58.11,-8.14 -57.15,-0.31 -56.2,-1.08 -55.25,0.89 -54.3,-6.26 -53.34,-0.78 -52.39,-0.89 -51.44,0.86 -50.49,-7.03 -49.53,-0.7 -48.58,-1.47 -47.63,0.71 -46.68,-7.39 -45.72,-1.89 -44.77,-1.04 -43.82,0.48 -42.87,-6.71 -41.91,-0.89 -40.96,-1.53 -40.01,1.07 -39.06,-5.68 -38.1,-1.43 -37.15,-1.97 -36.2,0.48 -35.25,-5.24 -34.29,-1.65 -33.34,-2.39 -32.39,0.38 -31.43,-5.91 -30.48,-2.69 -29.53,-2.69 -28.58,-1.21 -27.62,-6.91 -26.67,-2.79 -25.72,-3.18 -24.77,-1.78 -23.81,-6.64 -22.86,-2.9 -21.91,-2.82 -20.96,-1.99 -20,0.32 -19.05,-2.87 -18.1,-3.25 -17.15,-0.67 -16.19,1.45 -15.24,-0.37 -14.29,-4.58 -13.34,-1.73 -12.38,-0.54 -11.43,-0.99 -10.48,-4.52 -9.53,-1.53 -8.57,-7.13 -7.62,-3.34 -6.67,-3.67 -5.72,-2.7 -4.76,-7.64 -3.81,-3.26 -2.86,-4.28 -1.91,-2.44 -0.95,-8.48 0,-3.86 0.95,-3.41 1.91,-2.8 2.86,-8.84 3.81,-3.83 4.76,-4.4 5.72,-2.78 6.67,-8.25 7.62,-3.89 8.57,-3.65 9.53,-3.12 10.48,-8.37 11.43,-3.96 12.38,-4.7 13.34,-2.97 14.29,-8.76 15.24,-4.22 16.19,-3.82 17.15,-3.02 18.1,-8.82 19.05,-3.92 20,-4.93 20.96,-2.59 21.91,-0.96 22.86,-1.58 23.81,-4.03 24.77,-2.69 25.72,-1.42 26.67,-1.8 27.62,-4.64 28.58,-2.97 29.53,-0.43 30.48,-1.42 31.43,-4.24 32.39,-2.87 33.34,-1.33 34.29,0.33 35.25,-5.06 36.2,-2.29 37.15,-8.43 38.1,-1.75 39.06,-4.52 40.01,-2.45 40.96,-8.31 41.91,-1.7 42.87,-4.44 43.82,-2.17 44.77,-0.95 45.72,-1.72 46.68,-4.58 47.63,-2.39 48.58,-8.55 49.53,-3.63 50.49,-4.92 51.44,-2.84 52.39,-8.32 53.34,-3.73 54.3,-4.32 55.25,-2.68 56.2,-8.23 57.15,-3.29 58.11,-4.87 59.06,-2.66 60.01,-8.21 60.96,-3.43 61.92,-4.36 62.87,-2.48 63.82,-8.33 64.77,-3.6 65.73,-4.79 66.68,-2.71 67.63,-1.35 68.59,-1.38 69.54,-4.26 70.49,-2.38 71.44,-7.9 72.4,-3.21 73.35,-4.21 74.3,-1.27 75.25,-8.03 76.21,-3.33 77.16,-2.51 78.11,-2.32 79.06,-7.72 80.02,-3.24 80.97,-4.19 81.92,-2.71 82.87,-1.43 83.83,-1.54 84.78,-4.62 85.73,-0.52 86.68,-1.28 87.64,-2.81 88.59,-4.64 89.54,-2 90.49,-1.23 91.45,-3.15 92.4,-2.81 93.35,-0.93 94.3,-7.76 95.26,-1.04 96.21,-2.37 97.16,-2.32 98.11,-6.07 99.07,-3.12 100.02,-4.78 100.97,-2.28 101.93,-1.1 102.88,-2.91 103.83,-3.81 104.78,-2.5 105.74,-5.46 106.69,-1.96 107.64,-4.46 108.59,1.74 109.55,-1.17 110.5,-2.82 111.45,-4.58 112.4,-2.43 113.36,0.1 114.31,-1.41 115.26,-3.66 116.21,-1.93 117.17,-1.18 118.12,-1.24 119.07,-3.75 120.02,-1.58 120.98,-8.6 " class="primitive"/>
            </g>
          </g>
        </g>
        <g stroke-width="0.3" fill="#000000" fill-opacity="0.000" class="geometry" id="img-efac6f1e-77">
          <g class="color_RGB{Float64}(0.9360050000000001,0.3313625,0.949375)" stroke-dasharray="none" stroke="#EF54F2" id="img-efac6f1e-78">
            <g transform="translate(142.84,121.32)" id="img-efac6f1e-79">
              <path fill="none" d="M-120.98,57.64 L-120.02,56.41 -119.07,49.81 -118.12,49.78 -117.17,46.48 -116.21,47.13 -115.26,36.17 -114.31,39.13 -113.36,35.76 -112.4,38.3 -111.45,24.42 -110.5,29.13 -109.55,29.14 -108.59,30.9 -107.64,13.1 -106.69,17.22 -105.74,16.05 -104.78,18.94 -103.83,6.01 -102.88,13.07 -101.93,12.4 -100.97,15.22 -100.02,-0 -99.07,7.13 -98.11,7.12 -97.16,10.48 -96.21,-3.76 -95.26,6.08 -94.3,8.04 -93.35,11.11 -92.4,9.43 -91.45,-1.59 -90.49,2.69 -89.54,4.35 -88.59,-8.23 -87.64,8.7 -86.68,-0.73 -85.73,2.16 -84.78,-4.19 -83.83,-1.13 -82.87,-2.32 -81.92,-0.19 -80.97,-7.27 -80.02,-3.13 -79.06,-3.49 -78.11,0.56 -77.16,-9.12 -76.21,-3.99 -75.25,-3.9 -74.3,-2.42 -73.35,-8.65 -72.4,-4.63 -71.44,-5.01 -70.49,-3.36 -69.54,-9.39 -68.59,-6.27 -67.63,-6.27 -66.68,-4.14 -65.73,-10.95 -64.77,-5.92 -63.82,-7.05 -62.87,-3.51 -61.92,-12.02 -60.96,-2.76 -60.01,-2.52 -59.06,0.42 -58.11,-7.94 -57.15,-0.18 -56.2,-1.09 -55.25,0.9 -54.3,-7.54 -53.34,-0.51 -52.39,-1.05 -51.44,1.01 -50.49,-6.93 -49.53,-0.58 -48.58,-0.87 -47.63,0.86 -46.68,-7.56 -45.72,-1.55 -44.77,-1.02 -43.82,0.61 -42.87,-6.53 -41.91,-1.52 -40.96,-1.17 -40.01,1.33 -39.06,-5.33 -38.1,-1.34 -37.15,-1.97 -36.2,0.59 -35.25,-5.52 -34.29,-1.41 -33.34,-2.45 -32.39,0.7 -31.43,-6.42 -30.48,0.04 -29.53,-2.93 -28.58,-1.44 -27.62,-7.04 -26.67,-2.61 -25.72,-3.07 -24.77,-1.75 -23.81,-6.98 -22.86,-2.79 -21.91,-2.7 -20.96,-1.82 -20,0.44 -19.05,-2.72 -18.1,-3.25 -17.15,-0.53 -16.19,1.54 -15.24,-0.22 -14.29,-4.5 -13.34,-1.51 -12.38,-0.5 -11.43,-0.75 -10.48,-4.38 -9.53,-1.24 -8.57,-7.03 -7.62,-3.19 -6.67,-3.58 -5.72,-2.55 -4.76,-7.57 -3.81,-3.22 -2.86,-4.17 -1.91,-2.28 -0.95,-8.74 0,-3.62 0.95,-3.82 1.91,-2.77 2.86,-8.82 3.81,-3.61 4.76,-4.09 5.72,-2.64 6.67,-8.29 7.62,-3.75 8.57,-3.54 9.53,-2.93 10.48,-8.59 11.43,-3.85 12.38,-4.51 13.34,-2.78 14.29,-8.56 15.24,-4.24 16.19,-3.67 17.15,-2.91 18.1,-8.68 19.05,-3.88 20,-4.78 20.96,-2.27 21.91,-0.82 22.86,-1.37 23.81,-4.08 24.77,-2.57 25.72,-1.28 26.67,-1.75 27.62,-4.51 28.58,-2.73 29.53,-0.39 30.48,-1.3 31.43,-4.18 32.39,-2.86 33.34,-1.34 34.29,-1.14 35.25,-4.72 36.2,-2.12 37.15,-8.77 38.1,-1.52 39.06,-4.51 40.01,-2.18 40.96,-8.52 41.91,-1.58 42.87,-4.31 43.82,-2.17 44.77,-0.81 45.72,-1.57 46.68,-4.57 47.63,-2.45 48.58,-8.54 49.53,-3.52 50.49,-4.92 51.44,-2.9 52.39,-8.16 53.34,-3.58 54.3,-4.24 55.25,-2.66 56.2,-8.06 57.15,-3.37 58.11,-5.03 59.06,-1.35 60.01,-8.44 60.96,-3.32 61.92,-4.32 62.87,-2.47 63.82,-8.35 64.77,-3.27 65.73,-4.63 66.68,-2.68 67.63,-1.23 68.59,-1.31 69.54,-4.08 70.49,-2.22 71.44,-8.06 72.4,-3.01 73.35,-4.07 74.3,-2.4 75.25,-7.91 76.21,-3.25 77.16,-3.87 78.11,-2.23 79.06,-7.67 80.02,-3.14 80.97,-4.05 81.92,-2.59 82.87,-1.28 83.83,-1.4 84.78,-4.6 85.73,-0.33 86.68,-1.09 87.64,-2.89 88.59,-4.59 89.54,-1.94 90.49,-0.95 91.45,-3.06 92.4,-4.36 93.35,-0.76 94.3,-7.91 95.26,-1.01 96.21,-2.21 97.16,-2.22 98.11,-6 99.07,-3.07 100.02,-4.63 100.97,-2.12 101.93,-1.03 102.88,-2.74 103.83,-3.69 104.78,-2.34 105.74,-5.4 106.69,-1.83 107.64,-4.29 108.59,-1.98 109.55,-0.91 110.5,-2.73 111.45,-4.4 112.4,-2.27 113.36,-1.07 114.31,-1.23 115.26,-3.56 116.21,-1.8 117.17,-1.02 118.12,-1.03 119.07,-3.62 120.02,-1.39 120.98,-8.65 " class="primitive"/>
            </g>
          </g>
        </g>
        <g stroke-width="0.3" fill="#000000" fill-opacity="0.000" class="geometry" id="img-efac6f1e-80">
          <g class="color_RGB{Float64}(0.7018800000000001,0.25504499999999997,0.9848349999999999)" stroke-dasharray="none" stroke="#B341FB" id="img-efac6f1e-81">
            <g transform="translate(142.84,123.75)" id="img-efac6f1e-82">
              <path fill="none" d="M-120.98,54.98 L-120.02,52.34 -119.07,49.62 -118.12,48.37 -117.17,46.29 -116.21,44.58 -115.26,41.52 -114.31,43.84 -113.36,43.81 -112.4,43.53 -111.45,40.01 -110.5,40.88 -109.55,42.4 -108.59,42.8 -107.64,30.5 -106.69,32.73 -105.74,33.89 -104.78,34.69 -103.83,31.32 -102.88,32.03 -101.93,33.05 -100.97,34.27 -100.02,16.09 -99.07,25.3 -98.11,26.8 -97.16,28.46 -96.21,23.56 -95.26,25.7 -94.3,28.06 -93.35,27.55 -92.4,14.01 -91.45,18.93 -90.49,21.46 -89.54,22.73 -88.59,17.1 -87.64,20.37 -86.68,22.5 -85.73,23.35 -84.78,6.47 -83.83,14.12 -82.87,16.47 -81.92,17.15 -80.97,11.6 -80.02,15.39 -79.06,17.7 -78.11,20.43 -77.16,-2.17 -76.21,8.47 -75.25,11.43 -74.3,14.04 -73.35,9.26 -72.4,12.06 -71.44,15.82 -70.49,17.52 -69.54,-0.77 -68.59,5.39 -67.63,7.82 -66.68,10.68 -65.73,5.09 -64.77,9.26 -63.82,11.82 -62.87,13.48 -61.92,-24.83 -60.96,-7.95 -60.01,-1.53 -59.06,3.92 -58.11,-6.39 -57.15,-0.91 -56.2,3.62 -55.25,6.84 -54.3,-17.45 -53.34,-1.3 -52.39,-0.33 -51.44,4.34 -50.49,-4.88 -49.53,0 -48.58,6.68 -47.63,6.71 -46.68,-19.31 -45.72,-3.25 -44.77,-2.47 -43.82,2.45 -42.87,-6.86 -41.91,-4.01 -40.96,1.01 -40.01,6.32 -39.06,-25.3 -38.1,-8.96 -37.15,-3.64 -36.2,1.05 -35.25,-12.41 -34.29,-5.76 -33.34,1.26 -32.39,4.99 -31.43,-26.33 -30.48,-5.31 -29.53,-8.5 -28.58,-2.63 -27.62,-13.09 -26.67,-4.81 -25.72,-3.57 -24.77,0.88 -23.81,-28.78 -22.86,-8.87 -21.91,-4.59 -20.96,-3.5 -20,-8.4 -19.05,-4.99 -18.1,-0.59 -17.15,1.9 -16.19,-25.35 -15.24,-4.1 -14.29,-5.65 -13.34,-0.04 -12.38,-8.38 -11.43,-1.43 -10.48,-0.7 -9.53,1.96 -8.57,-29.04 -7.62,-8.39 -6.67,-10.11 -5.72,-6.7 -4.76,-13.25 -3.81,-5.7 -2.86,-5.34 -1.91,-1.13 -0.95,-34.93 0,-6.7 0.95,-1.12 1.91,2.84 2.86,-15.99 3.81,-5.64 4.76,-5.34 5.72,-2.3 6.67,-35.53 7.62,0.93 8.57,-1.08 9.53,-4.08 10.48,-10.08 11.43,1.68 12.38,0.44 13.34,3.7 14.29,-29.72 15.24,-7.39 16.19,-7.95 17.15,2.67 18.1,-9.59 19.05,1.59 20,-0.02 20.96,3.06 21.91,-30.8 22.86,0.23 23.81,-8.3 24.77,2.01 25.72,-9.77 26.67,1.68 27.62,-0.15 28.58,-3.9 29.53,-30.96 30.48,-0.03 31.43,-9.05 32.39,-5.37 33.34,-9.16 34.29,0.52 35.25,-7.33 36.2,2.64 37.15,-31.65 38.1,-0.24 39.06,-2.13 40.01,1.57 40.96,-8.62 41.91,0.47 42.87,-0.4 43.82,2.17 44.77,-31.89 45.72,-0.54 46.68,-2.07 47.63,0.89 48.58,-15.07 49.53,-7.2 50.49,-7.39 51.44,1.65 52.39,-40.17 53.34,-8.1 54.3,-7.23 55.25,0.85 56.2,-8.66 57.15,-7.23 58.11,-1.18 59.06,-3.52 60.01,-32.28 60.96,-13.03 61.92,-6.69 62.87,-2.47 63.82,-13.4 64.77,-11.61 65.73,-5.52 66.68,-1.69 67.63,-33.39 68.59,-5.1 69.54,-6.36 70.49,-2.66 71.44,-19.76 72.4,-11.18 73.35,-5.25 74.3,-8.94 75.25,-43.67 76.21,-12.97 77.16,-6.37 78.11,-10.47 79.06,-18.77 80.02,-11.47 80.97,-4.84 81.92,-9.08 82.87,-32.99 83.83,-4.33 84.78,-13.47 85.73,-10.44 86.68,-12.33 87.64,-11.77 88.59,-12.11 89.54,-1.6 90.49,-33.27 91.45,-12.75 92.4,-5.41 93.35,-1.66 94.3,-19.22 95.26,-3.22 96.21,-2.45 97.16,-1.37 98.11,-33.2 99.07,-3.96 100.02,-5.73 100.97,-10.56 101.93,-11.68 102.88,-3.54 103.83,-4.77 104.78,-1.59 105.74,-33.52 106.69,-4.29 107.64,-5.53 108.59,-2.3 109.55,-11.54 110.5,-3.87 111.45,-4.72 112.4,-1.72 113.36,-33.89 114.31,-3.32 115.26,-6.07 116.21,-2.36 117.17,-11.9 118.12,-3.7 119.07,-3.09 120.02,-1.45 120.98,-47.43 " class="primitive"/>
            </g>
          </g>
        </g>
        <g stroke-width="0.3" fill="#000000" fill-opacity="0.000" class="geometry" id="img-efac6f1e-83">
          <g class="color_RGB{Float64}(0.45187999999999995,0.172285,0.9716199999999999)" stroke-dasharray="none" stroke="#732CF8" id="img-efac6f1e-84">
            <g transform="translate(142.84,136.14)" id="img-efac6f1e-85">
              <path fill="none" d="M-120.98,41.19 L-120.02,38.16 -119.07,37.07 -118.12,35.67 -117.17,31.94 -116.21,30.48 -115.26,30.11 -114.31,29.06 -113.36,30.45 -112.4,31.2 -111.45,29.99 -110.5,29.1 -109.55,29.11 -108.59,29.27 -107.64,29.02 -106.69,29.4 -105.74,30.18 -104.78,30 -103.83,29.88 -102.88,30.79 -101.93,30.16 -100.97,30.04 -100.02,30.45 -99.07,30.68 -98.11,30.9 -97.16,30.67 -96.21,31.05 -95.26,31.11 -94.3,31.64 -93.35,31.22 -92.4,-20.83 -91.45,-9.74 -90.49,-4.89 -89.54,-0.8 -88.59,-3.71 -87.64,2.86 -86.68,4.67 -85.73,7.76 -84.78,6.5 -83.83,9.74 -82.87,12.25 -81.92,12.29 -80.97,13.64 -80.02,17.38 -79.06,16.97 -78.11,18.09 -77.16,17.74 -76.21,19.57 -75.25,20.74 -74.3,20.4 -73.35,20.81 -72.4,21.33 -71.44,22.18 -70.49,22.71 -69.54,23.08 -68.59,24.31 -67.63,24.94 -66.68,25.67 -65.73,26.22 -64.77,26.7 -63.82,27.15 -62.87,27.61 -61.92,-51.98 -60.96,-31.33 -60.01,-23.55 -59.06,-18.55 -58.11,-15.28 -57.15,-11.13 -56.2,-5.97 -55.25,-8.2 -54.3,-9.02 -53.34,-1.62 -52.39,-0.2 -51.44,1.89 -50.49,1.98 -49.53,5.06 -48.58,6.2 -47.63,7.34 -46.68,5.76 -45.72,10.37 -44.77,11.9 -43.82,13.2 -42.87,14.36 -41.91,15.18 -40.96,16.76 -40.01,17.46 -39.06,15.12 -38.1,17.75 -37.15,19.03 -36.2,19.48 -35.25,19.49 -34.29,20.02 -33.34,20.61 -32.39,21.65 -31.43,-55.08 -30.48,-29.21 -29.53,-31.46 -28.58,-26.57 -27.62,-26.46 -26.67,-21.2 -25.72,-19.38 -24.77,-16.77 -23.81,-23.17 -22.86,-12.07 -21.91,-8.23 -20.96,-7.36 -20,-3.9 -19.05,-2.57 -18.1,0.37 -17.15,2.22 -16.19,-0.05 -15.24,4.88 -14.29,6.46 -13.34,7.67 -12.38,8.49 -11.43,9.52 -10.48,10.59 -9.53,11.2 -8.57,8.06 -7.62,11.56 -6.67,11.85 -5.72,12.66 -4.76,12.85 -3.81,13.8 -2.86,14 -1.91,14.73 -0.95,-62.05 0,-24.43 0.95,-19.78 1.91,-12.08 2.86,-30.43 3.81,-21.05 4.76,-17.67 5.72,-18.25 6.67,-27.73 7.62,-9.51 8.57,-9.12 9.53,-10.69 10.48,-6.04 11.43,-3.64 12.38,-2.05 13.34,-0.62 14.29,-6.16 15.24,-1.29 16.19,-0.1 17.15,3.65 18.1,4.41 19.05,5.7 20,6.3 20.96,6.65 21.91,2.33 22.86,8.22 23.81,6.98 24.77,9.28 25.72,10.21 26.67,10.4 27.62,10.86 28.58,10.23 29.53,-56.08 30.48,-15.66 31.43,-28.66 32.39,-23.34 33.34,-23.62 34.29,-15.86 35.25,-20.41 36.2,-13.63 37.15,-31.69 38.1,-11.82 39.06,-11.38 40.01,-9.23 40.96,-9.17 41.91,-7.23 42.87,-6.45 43.82,-4.85 44.77,-14.07 45.72,-2.32 46.68,-1.55 47.63,-0.8 48.58,-2.37 49.53,-1.63 50.49,-1.02 51.44,2.44 52.39,-5.57 53.34,1.61 54.3,2.41 55.25,4.91 56.2,5.62 57.15,4.54 58.11,6.95 59.06,6.33 60.01,-50.03 60.96,-29.73 61.92,-22.86 62.87,-19.43 63.82,-25.95 64.77,-24.2 65.73,-17.69 66.68,-14.94 67.63,-34.37 68.59,-13.48 69.54,-15.93 70.49,-14.48 71.44,-14.4 72.4,-12.26 73.35,-11.12 74.3,-9.75 75.25,-22.55 76.21,-7.49 77.16,-6.83 78.11,-8.74 79.06,-7.87 80.02,-6.55 80.97,-3.19 81.92,-4.95 82.87,-8.17 83.83,-0.75 84.78,-2.51 85.73,-1.48 86.68,1 87.64,0.03 88.59,0.67 89.54,3.18 90.49,-51.66 91.45,-28.76 92.4,-21.42 93.35,-17.51 94.3,-32.65 95.26,-16.54 96.21,-17.42 97.16,-14.73 98.11,-32.76 99.07,-13.34 100.02,-13.72 100.97,-17.18 101.93,-12.39 102.88,-13.82 103.83,-13.55 104.78,-11.72 105.74,-22.19 106.69,-10.35 107.64,-9.37 108.59,-8.55 109.55,-7.85 110.5,-6.7 111.45,-6.17 112.4,-5.14 113.36,-10.96 114.31,-3.58 115.26,-3.07 116.21,-1.89 117.17,-2.03 118.12,-0.78 119.07,-0.04 120.02,0.57 120.98,-69.35 " class="primitive"/>
            </g>
          </g>
        </g>
        <g stroke-width="0.3" fill="#000000" fill-opacity="0.000" class="geometry" id="img-efac6f1e-86">
          <g class="color_RGB{Float64}(1.0,0.0,0.0)" stroke-dasharray="none" stroke="#FF0000" id="img-efac6f1e-87">
            <g transform="translate(142.84,137.08)" id="img-efac6f1e-88">
              <path fill="none" d="M-120.98,40.06 L-120.02,39.13 -119.07,37.71 -118.12,35.7 -117.17,35.65 -116.21,30.06 -115.26,28.81 -114.31,34.37 -113.36,34.27 -112.4,34.28 -111.45,33.9 -110.5,28.66 -109.55,33.17 -108.59,33 -107.64,32.49 -106.69,32.32 -105.74,32.2 -104.78,29.17 -103.83,31.13 -102.88,31.85 -101.93,31.82 -100.97,30.04 -100.02,31.6 -99.07,31.74 -98.11,29.64 -97.16,31.31 -96.21,31.38 -95.26,30.15 -94.3,30.31 -93.35,31.11 -92.4,-23.97 -91.45,-12.3 -90.49,-6.13 -89.54,-0.73 -88.59,-4.36 -87.64,1.47 -86.68,2.07 -85.73,7.31 -84.78,5.61 -83.83,7.93 -82.87,11.24 -81.92,11.28 -80.97,13.04 -80.02,15.3 -79.06,15.82 -78.11,16.74 -77.16,16.91 -76.21,18.18 -75.25,18.9 -74.3,19.38 -73.35,19.72 -72.4,20.57 -71.44,20.95 -70.49,21.65 -69.54,22.1 -68.59,23.19 -67.63,23.75 -66.68,24.5 -65.73,25.11 -64.77,25.72 -63.82,26.05 -62.87,26.44 -61.92,-48.61 -60.96,-28.29 -60.01,-22.68 -59.06,-16.36 -58.11,-12.94 -57.15,-9.49 -56.2,-7.63 -55.25,-7.14 -54.3,-7.64 -53.34,-0.7 -52.39,0.72 -51.44,2.33 -50.49,2.37 -49.53,5.11 -48.58,6.2 -47.63,7.3 -46.68,5.85 -45.72,9.87 -44.77,11.3 -43.82,12.62 -42.87,13.62 -41.91,14.6 -40.96,16.07 -40.01,16.95 -39.06,15.62 -38.1,17.5 -37.15,18.69 -36.2,19.08 -35.25,18.83 -34.29,19.63 -33.34,20.27 -32.39,20.76 -31.43,-53.13 -30.48,-25.48 -29.53,-26.5 -28.58,-22.88 -27.62,-28.15 -26.67,-20.45 -25.72,-18.62 -24.77,-16.07 -23.81,-21.93 -22.86,-12.21 -21.91,-8.51 -20.96,-8.08 -20,-5.79 -19.05,-3.76 -18.1,-0.57 -17.15,1.38 -16.19,-0.34 -15.24,4.24 -14.29,5.7 -13.34,7.04 -12.38,7.87 -11.43,9.08 -10.48,9.76 -9.53,10.53 -8.57,7.65 -7.62,11.02 -6.67,11.51 -5.72,12.2 -4.76,12.59 -3.81,13.32 -2.86,13.79 -1.91,14.27 -0.95,-61.76 0,-26 0.95,-18.34 1.91,-18.21 2.86,-31.84 3.81,-23.88 4.76,-17.77 5.72,-20.33 6.67,-26.57 7.62,-12.63 8.57,-12.01 9.53,-12.31 10.48,-8.66 11.43,-5.88 12.38,-4.52 13.34,-2.52 14.29,-6.54 15.24,-2.24 16.19,-0.71 17.15,2.16 18.1,2.86 19.05,4.17 20,4.86 20.96,5.52 21.91,1.99 22.86,6.96 23.81,6.21 24.77,8.22 25.72,8.55 26.67,9.28 27.62,9.71 28.58,12.12 29.53,-50.23 30.48,-16.53 31.43,-29.46 32.39,-23.97 33.34,-23.82 34.29,-17.31 35.25,-21.8 36.2,-15.33 37.15,-28.9 38.1,-13.75 39.06,-13.73 40.01,-11.26 40.96,-11.1 41.91,-8.61 42.87,-7.65 43.82,-6.1 44.77,-13 45.72,-3.78 46.68,-2.8 47.63,-1.77 48.58,-3.07 49.53,-2.21 50.49,-1.18 51.44,1.37 52.39,-5.54 53.34,0.86 54.3,1.67 55.25,4.29 56.2,4.66 57.15,3.74 58.11,5.88 59.06,5.46 60.01,-50.8 60.96,-26.24 61.92,-18.61 62.87,-15 63.82,-23.65 64.77,-21.47 65.73,-14.78 66.68,-11.91 67.63,-32.77 68.59,-10.7 69.54,-14.45 70.49,-12.86 71.44,-13.53 72.4,-11.69 73.35,-10.29 74.3,-5.22 75.25,-22.18 76.21,-10 77.16,-6.15 78.11,-8.16 79.06,-6.97 80.02,-6.08 80.97,-2.91 81.92,-4.67 82.87,-8.08 83.83,-0.72 84.78,-2.31 85.73,-1.34 86.68,1.02 87.64,-0.12 88.59,0.52 89.54,2.99 90.49,-50.65 91.45,-25.8 92.4,-18.37 93.35,-14.64 94.3,-31.61 95.26,-13.8 96.21,-15.34 97.16,-12.44 98.11,-31.96 99.07,-11.41 100.02,-15.71 100.97,-16.54 101.93,-14.98 102.88,-12.57 103.83,-12.23 104.78,-10.13 105.74,-21.93 106.69,-9.11 107.64,-9.04 108.59,-8.24 109.55,-7.67 110.5,-6.66 111.45,-6.09 112.4,-5.15 113.36,-11.56 114.31,-3.88 115.26,-3.15 116.21,-2.27 117.17,-2.07 118.12,-1.05 119.07,-0.42 120.02,0.23 120.98,-73.28 " class="primitive"/>
            </g>
          </g>
        </g>
        <g stroke-width="0.3" fill="#000000" fill-opacity="0.000" class="geometry" id="img-efac6f1e-89">
          <g class="color_RGB{Float64}(0.0,0.0,0.0)" stroke-dasharray="none" stroke="#000000" id="img-efac6f1e-90">
            <g transform="translate(142.84,92.11)" id="img-efac6f1e-91">
              <path fill="none" d="M-120.98,86.05 L-120.02,82.04 -119.07,77.21 -118.12,71.7 -117.17,66.85 -116.21,60.13 -115.26,51.39 -114.31,59.12 -113.36,52.72 -112.4,51.48 -111.45,43.9 -110.5,39.55 -109.55,38.09 -108.59,38.85 -107.64,22.77 -106.69,32.36 -105.74,28.07 -104.78,23.81 -103.83,14.61 -102.88,17.41 -101.93,5.76 -100.97,1.39 -100.02,-17.48 -99.07,10.17 -98.11,2.81 -97.16,2.83 -96.21,-10.73 -95.26,-10.73 -94.3,-16.5 -93.35,-19.95 -92.4,-38.46 -91.45,-6.28 -90.49,-13.25 -89.54,-13.41 -88.59,-30.29 -87.64,-24.84 -86.68,-36.48 -85.73,-34.32 -84.78,-53.89 -83.83,-24.18 -82.87,-27.16 -81.92,-32.95 -80.97,-43.74 -80.02,-42.46 -79.06,-50.53 -78.11,-49.76 -77.16,-71.78 -76.21,-35.26 -75.25,-43.07 -74.3,-44.46 -73.35,-57.26 -72.4,-50.97 -71.44,-52.9 -70.49,-53.48 -69.54,-85.11 -68.59,-35.73 -67.63,-39.49 -66.68,-39.8 -65.73,-55.36 -64.77,-45.91 -63.82,-55.9 -62.87,-34.33 -61.92,-81.47 -60.96,-5.35 -60.01,-7.73 -59.06,4.34 -58.11,-2.9 -57.15,15 -56.2,12.43 -55.25,14.69 -54.3,-45.63 -53.34,18.77 -52.39,12.23 -51.44,17.05 -50.49,-0.22 -49.53,17.28 -48.58,11 -47.63,16.7 -46.68,-42.95 -45.72,18.9 -44.77,13.41 -43.82,18 -42.87,0.11 -41.91,15.9 -40.96,12.78 -40.01,17.02 -39.06,-47.03 -38.1,16.93 -37.15,12.47 -36.2,17.82 -35.25,-3.75 -34.29,15.33 -33.34,11.63 -32.39,17.61 -31.43,-33.4 -30.48,17.46 -29.53,10.49 -28.58,15.69 -27.62,-4.56 -26.67,14.96 -25.72,8.88 -24.77,15.45 -23.81,-47.84 -22.86,16.37 -21.91,11.55 -20.96,14.88 -20,-1.99 -19.05,14.29 -18.1,9.82 -17.15,15.39 -16.19,-47.95 -15.24,16.06 -14.29,11.06 -13.34,15 -12.38,-1.96 -11.43,14.14 -10.48,9.84 -9.53,15.4 -8.57,-53.57 -7.62,12.7 -6.67,7.99 -5.72,14.04 -4.76,-6.39 -3.81,11.63 -2.86,6.5 -1.91,12.73 -0.95,-37.31 0,15.47 0.95,10.3 1.91,16.21 2.86,-6.19 3.81,13.73 4.76,4.53 5.72,11.5 6.67,-56.02 7.62,16.82 8.57,9.99 9.53,13.54 10.48,-3.85 11.43,14.71 12.38,8.79 13.34,15.03 14.29,-49.86 15.24,14.13 16.19,7.19 17.15,15.54 18.1,-4.22 19.05,13.54 20,8.53 20.96,14.53 21.91,-53.74 22.86,15.65 23.81,6.81 24.77,15.27 25.72,-7.7 26.67,14.9 27.62,8.57 28.58,13.37 29.53,-40.03 30.48,16.53 31.43,7.87 32.39,13.2 33.34,-4.62 34.29,14.75 35.25,5.96 36.2,14.69 37.15,-54.92 38.1,15.77 39.06,8.12 40.01,17.45 40.96,-0.8 41.91,15.82 42.87,8.76 43.82,14.34 44.77,-50.96 45.72,15.45 46.68,8.73 47.63,14.64 48.58,-8.7 49.53,12.56 50.49,5.45 51.44,14.19 52.39,-58.48 53.34,13.09 54.3,6.13 55.25,14.72 56.2,-5.07 57.15,12.53 58.11,8.27 59.06,12.88 60.01,-42.4 60.96,14.24 61.92,9.38 62.87,14.68 63.82,-5.4 64.77,12.6 65.73,7.9 66.68,14.16 67.63,-57.58 68.59,14.78 69.54,8.57 70.49,14.65 71.44,-8.15 72.4,13.28 73.35,8.89 74.3,12.32 75.25,-53.35 76.21,13.21 77.16,8.34 78.11,12.45 79.06,-8.85 80.02,12.12 80.97,7.72 81.92,12.06 82.87,-57.02 83.83,14.57 84.78,6.01 85.73,12.53 86.68,-5.44 87.64,12.38 88.59,5.71 89.54,14.53 90.49,-42.81 91.45,13.82 92.4,9.05 93.35,14.43 94.3,-8.95 95.26,14.19 96.21,7.63 97.16,14.03 98.11,-57.55 99.07,14.66 100.02,8.06 100.97,12.4 101.93,-6.09 102.88,14.13 103.83,7.5 104.78,14.27 105.74,-52.65 106.69,15.02 107.64,8.44 108.59,14.4 109.55,-5.85 110.5,14.37 111.45,7.87 112.4,14.2 113.36,-56.59 114.31,15.04 115.26,8.62 116.21,14.95 117.17,-4.9 118.12,15.47 119.07,9.97 120.02,18.03 120.98,-39.95 " class="primitive"/>
            </g>
          </g>
        </g>
      </g>
    </g>
  </g>
  <g class="guide ylabels" font-size="2.82" font-family="'PT Sans Caption','Helvetica Neue','Helvetica',sans-serif" fill="#6C606B" id="img-efac6f1e-92">
    <g transform="translate(16.96,181.91)" id="img-efac6f1e-93">
      <g class="primitive">
        <text text-anchor="end" dy="0.35em">0</text>
      </g>
    </g>
    <g transform="translate(16.96,158.13)" id="img-efac6f1e-94">
      <g class="primitive">
        <text text-anchor="end" dy="0.35em">10</text>
      </g>
    </g>
    <g transform="translate(16.96,134.34)" id="img-efac6f1e-95">
      <g class="primitive">
        <text text-anchor="end" dy="0.35em">20</text>
      </g>
    </g>
    <g transform="translate(16.96,110.55)" id="img-efac6f1e-96">
      <g class="primitive">
        <text text-anchor="end" dy="0.35em">30</text>
      </g>
    </g>
    <g transform="translate(16.96,86.76)" id="img-efac6f1e-97">
      <g class="primitive">
        <text text-anchor="end" dy="0.35em">40</text>
      </g>
    </g>
    <g transform="translate(16.96,62.97)" id="img-efac6f1e-98">
      <g class="primitive">
        <text text-anchor="end" dy="0.35em">50</text>
      </g>
    </g>
    <g transform="translate(16.96,39.18)" id="img-efac6f1e-99">
      <g class="primitive">
        <text text-anchor="end" dy="0.35em">60</text>
      </g>
    </g>
    <g transform="translate(16.96,15.39)" id="img-efac6f1e-100">
      <g class="primitive">
        <text text-anchor="end" dy="0.35em">70</text>
      </g>
    </g>
  </g>
  <g font-size="3.88" font-family="'PT Sans','Helvetica Neue','Helvetica',sans-serif" fill="#564A55" stroke="#000000" stroke-opacity="0.000" id="img-efac6f1e-101">
    <g transform="translate(8.81,92.46)" id="img-efac6f1e-102">
      <g class="primitive">
        <text text-anchor="middle" dy="0.35em" transform="rotate(-90,0, 2)">GFLOPS</text>
      </g>
    </g>
  </g>
</g>
<defs>
  <clipPath id="img-efac6f1e-36">
    <path d="M17.96,5 L269.63,5 269.63,183.92 17.96,183.92 " />
  </clipPath>
</defs>
</svg>
