<?xml version="1.0" encoding="utf-8"?>
<!DOCTYPE svg PUBLIC "-//W3C//DTD SVG 1.1//EN" "http://www.w3.org/Graphics/SVG/1.1/DTD/svg11.dtd">
<svg class="marks" width="1063" height="647" viewBox="0 0 1063 647" version="1.1" xmlns="http://www.w3.org/2000/svg" xmlns:xlink="http://www.w3.org/1999/xlink"><rect width="1063" height="647" style="fill: white;"></rect><g transform="translate(39,10)"><g class="mark-group role-frame root"><g transform="translate(0,0)"><path class="background" d="M0.5,0.5h900v600h-900Z" style="fill: none; stroke: #ddd;"></path><g><g class="mark-group role-axis"><g transform="translate(0.5,600.5)"><path class="background" d="M0,0h0v0h0Z" style="pointer-events: none; fill: none;"></path><g><g class="mark-rule role-axis-grid" style="pointer-events: none;"><line transform="translate(0,-600)" x2="0" y2="600" style="fill: none; stroke: #ddd; stroke-width: 1; opacity: 1;"></line><line transform="translate(35,-600)" x2="0" y2="600" style="fill: none; stroke: #ddd; stroke-width: 1; opacity: 1;"></line><line transform="translate(69,-600)" x2="0" y2="600" style="fill: none; stroke: #ddd; stroke-width: 1; opacity: 1;"></line><line transform="translate(104,-600)" x2="0" y2="600" style="fill: none; stroke: #ddd; stroke-width: 1; opacity: 1;"></line><line transform="translate(138,-600)" x2="0" y2="600" style="fill: none; stroke: #ddd; stroke-width: 1; opacity: 1;"></line><line transform="translate(173,-600)" x2="0" y2="600" style="fill: none; stroke: #ddd; stroke-width: 1; opacity: 1;"></line><line transform="translate(208,-600)" x2="0" y2="600" style="fill: none; stroke: #ddd; stroke-width: 1; opacity: 1;"></line><line transform="translate(242,-600)" x2="0" y2="600" style="fill: none; stroke: #ddd; stroke-width: 1; opacity: 1;"></line><line transform="translate(277,-600)" x2="0" y2="600" style="fill: none; stroke: #ddd; stroke-width: 1; opacity: 1;"></line><line transform="translate(312,-600)" x2="0" y2="600" style="fill: none; stroke: #ddd; stroke-width: 1; opacity: 1;"></line><line transform="translate(346,-600)" x2="0" y2="600" style="fill: none; stroke: #ddd; stroke-width: 1; opacity: 1;"></line><line transform="translate(381,-600)" x2="0" y2="600" style="fill: none; stroke: #ddd; stroke-width: 1; opacity: 1;"></line><line transform="translate(415,-600)" x2="0" y2="600" style="fill: none; stroke: #ddd; stroke-width: 1; opacity: 1;"></line><line transform="translate(450,-600)" x2="0" y2="600" style="fill: none; stroke: #ddd; stroke-width: 1; opacity: 1;"></line><line transform="translate(485,-600)" x2="0" y2="600" style="fill: none; stroke: #ddd; stroke-width: 1; opacity: 1;"></line><line transform="translate(519,-600)" x2="0" y2="600" style="fill: none; stroke: #ddd; stroke-width: 1; opacity: 1;"></line><line transform="translate(554,-600)" x2="0" y2="600" style="fill: none; stroke: #ddd; stroke-width: 1; opacity: 1;"></line><line transform="translate(588,-600)" x2="0" y2="600" style="fill: none; stroke: #ddd; stroke-width: 1; opacity: 1;"></line><line transform="translate(623,-600)" x2="0" y2="600" style="fill: none; stroke: #ddd; stroke-width: 1; opacity: 1;"></line><line transform="translate(658,-600)" x2="0" y2="600" style="fill: none; stroke: #ddd; stroke-width: 1; opacity: 1;"></line><line transform="translate(692,-600)" x2="0" y2="600" style="fill: none; stroke: #ddd; stroke-width: 1; opacity: 1;"></line><line transform="translate(727,-600)" x2="0" y2="600" style="fill: none; stroke: #ddd; stroke-width: 1; opacity: 1;"></line><line transform="translate(762,-600)" x2="0" y2="600" style="fill: none; stroke: #ddd; stroke-width: 1; opacity: 1;"></line><line transform="translate(796,-600)" x2="0" y2="600" style="fill: none; stroke: #ddd; stroke-width: 1; opacity: 1;"></line><line transform="translate(831,-600)" x2="0" y2="600" style="fill: none; stroke: #ddd; stroke-width: 1; opacity: 1;"></line><line transform="translate(865,-600)" x2="0" y2="600" style="fill: none; stroke: #ddd; stroke-width: 1; opacity: 1;"></line><line transform="translate(900,-600)" x2="0" y2="600" style="fill: none; stroke: #ddd; stroke-width: 1; opacity: 1;"></line></g></g><path class="foreground" d="" style="pointer-events: none; display: none; fill: none;"></path></g></g><g class="mark-group role-axis"><g transform="translate(0.5,0.5)"><path class="background" d="M0,0h0v0h0Z" style="pointer-events: none; fill: none;"></path><g><g class="mark-rule role-axis-grid" style="pointer-events: none;"><line transform="translate(0,600)" x2="900" y2="0" style="fill: none; stroke: #ddd; stroke-width: 1; opacity: 1;"></line><line transform="translate(0,567)" x2="900" y2="0" style="fill: none; stroke: #ddd; stroke-width: 1; opacity: 1;"></line><line transform="translate(0,533)" x2="900" y2="0" style="fill: none; stroke: #ddd; stroke-width: 1; opacity: 1;"></line><line transform="translate(0,500)" x2="900" y2="0" style="fill: none; stroke: #ddd; stroke-width: 1; opacity: 1;"></line><line transform="translate(0,467)" x2="900" y2="0" style="fill: none; stroke: #ddd; stroke-width: 1; opacity: 1;"></line><line transform="translate(0,433)" x2="900" y2="0" style="fill: none; stroke: #ddd; stroke-width: 1; opacity: 1;"></line><line transform="translate(0,400)" x2="900" y2="0" style="fill: none; stroke: #ddd; stroke-width: 1; opacity: 1;"></line><line transform="translate(0,367)" x2="900" y2="0" style="fill: none; stroke: #ddd; stroke-width: 1; opacity: 1;"></line><line transform="translate(0,333)" x2="900" y2="0" style="fill: none; stroke: #ddd; stroke-width: 1; opacity: 1;"></line><line transform="translate(0,300)" x2="900" y2="0" style="fill: none; stroke: #ddd; stroke-width: 1; opacity: 1;"></line><line transform="translate(0,267)" x2="900" y2="0" style="fill: none; stroke: #ddd; stroke-width: 1; opacity: 1;"></line><line transform="translate(0,233)" x2="900" y2="0" style="fill: none; stroke: #ddd; stroke-width: 1; opacity: 1;"></line><line transform="translate(0,200)" x2="900" y2="0" style="fill: none; stroke: #ddd; stroke-width: 1; opacity: 1;"></line><line transform="translate(0,167)" x2="900" y2="0" style="fill: none; stroke: #ddd; stroke-width: 1; opacity: 1;"></line><line transform="translate(0,133)" x2="900" y2="0" style="fill: none; stroke: #ddd; stroke-width: 1; opacity: 1;"></line><line transform="translate(0,100)" x2="900" y2="0" style="fill: none; stroke: #ddd; stroke-width: 1; opacity: 1;"></line><line transform="translate(0,67)" x2="900" y2="0" style="fill: none; stroke: #ddd; stroke-width: 1; opacity: 1;"></line><line transform="translate(0,33)" x2="900" y2="0" style="fill: none; stroke: #ddd; stroke-width: 1; opacity: 1;"></line><line transform="translate(0,0)" x2="900" y2="0" style="fill: none; stroke: #ddd; stroke-width: 1; opacity: 1;"></line></g></g><path class="foreground" d="" style="pointer-events: none; display: none; fill: none;"></path></g></g><g class="mark-group role-axis"><g transform="translate(0.5,600.5)"><path class="background" d="M0,0h0v0h0Z" style="pointer-events: none; fill: none;"></path><g><g class="mark-rule role-axis-tick" style="pointer-events: none;"><line transform="translate(0,0)" x2="0" y2="5" style="fill: none; stroke: #888; stroke-width: 1; opacity: 1;"></line><line transform="translate(35,0)" x2="0" y2="5" style="fill: none; stroke: #888; stroke-width: 1; opacity: 1;"></line><line transform="translate(69,0)" x2="0" y2="5" style="fill: none; stroke: #888; stroke-width: 1; opacity: 1;"></line><line transform="translate(104,0)" x2="0" y2="5" style="fill: none; stroke: #888; stroke-width: 1; opacity: 1;"></line><line transform="translate(138,0)" x2="0" y2="5" style="fill: none; stroke: #888; stroke-width: 1; opacity: 1;"></line><line transform="translate(173,0)" x2="0" y2="5" style="fill: none; stroke: #888; stroke-width: 1; opacity: 1;"></line><line transform="translate(208,0)" x2="0" y2="5" style="fill: none; stroke: #888; stroke-width: 1; opacity: 1;"></line><line transform="translate(242,0)" x2="0" y2="5" style="fill: none; stroke: #888; stroke-width: 1; opacity: 1;"></line><line transform="translate(277,0)" x2="0" y2="5" style="fill: none; stroke: #888; stroke-width: 1; opacity: 1;"></line><line transform="translate(312,0)" x2="0" y2="5" style="fill: none; stroke: #888; stroke-width: 1; opacity: 1;"></line><line transform="translate(346,0)" x2="0" y2="5" style="fill: none; stroke: #888; stroke-width: 1; opacity: 1;"></line><line transform="translate(381,0)" x2="0" y2="5" style="fill: none; stroke: #888; stroke-width: 1; opacity: 1;"></line><line transform="translate(415,0)" x2="0" y2="5" style="fill: none; stroke: #888; stroke-width: 1; opacity: 1;"></line><line transform="translate(450,0)" x2="0" y2="5" style="fill: none; stroke: #888; stroke-width: 1; opacity: 1;"></line><line transform="translate(485,0)" x2="0" y2="5" style="fill: none; stroke: #888; stroke-width: 1; opacity: 1;"></line><line transform="translate(519,0)" x2="0" y2="5" style="fill: none; stroke: #888; stroke-width: 1; opacity: 1;"></line><line transform="translate(554,0)" x2="0" y2="5" style="fill: none; stroke: #888; stroke-width: 1; opacity: 1;"></line><line transform="translate(588,0)" x2="0" y2="5" style="fill: none; stroke: #888; stroke-width: 1; opacity: 1;"></line><line transform="translate(623,0)" x2="0" y2="5" style="fill: none; stroke: #888; stroke-width: 1; opacity: 1;"></line><line transform="translate(658,0)" x2="0" y2="5" style="fill: none; stroke: #888; stroke-width: 1; opacity: 1;"></line><line transform="translate(692,0)" x2="0" y2="5" style="fill: none; stroke: #888; stroke-width: 1; opacity: 1;"></line><line transform="translate(727,0)" x2="0" y2="5" style="fill: none; stroke: #888; stroke-width: 1; opacity: 1;"></line><line transform="translate(762,0)" x2="0" y2="5" style="fill: none; stroke: #888; stroke-width: 1; opacity: 1;"></line><line transform="translate(796,0)" x2="0" y2="5" style="fill: none; stroke: #888; stroke-width: 1; opacity: 1;"></line><line transform="translate(831,0)" x2="0" y2="5" style="fill: none; stroke: #888; stroke-width: 1; opacity: 1;"></line><line transform="translate(865,0)" x2="0" y2="5" style="fill: none; stroke: #888; stroke-width: 1; opacity: 1;"></line><line transform="translate(900,0)" x2="0" y2="5" style="fill: none; stroke: #888; stroke-width: 1; opacity: 1;"></line></g><g class="mark-text role-axis-label" style="pointer-events: none;"><text text-anchor="start" transform="translate(0,15)" style="font-family: sans-serif; font-size: 10px; fill: #000; opacity: 1;">0</text><text text-anchor="middle" transform="translate(34.61538461538462,15)" style="font-family: sans-serif; font-size: 10px; fill: #000; opacity: 1;">10</text><text text-anchor="middle" transform="translate(69.23076923076924,15)" style="font-family: sans-serif; font-size: 10px; fill: #000; opacity: 1;">20</text><text text-anchor="middle" transform="translate(103.84615384615385,15)" style="font-family: sans-serif; font-size: 10px; fill: #000; opacity: 1;">30</text><text text-anchor="middle" transform="translate(138.46153846153848,15)" style="font-family: sans-serif; font-size: 10px; fill: #000; opacity: 1;">40</text><text text-anchor="middle" transform="translate(173.0769230769231,15)" style="font-family: sans-serif; font-size: 10px; fill: #000; opacity: 1;">50</text><text text-anchor="middle" transform="translate(207.6923076923077,15)" style="font-family: sans-serif; font-size: 10px; fill: #000; opacity: 1;">60</text><text text-anchor="middle" transform="translate(242.3076923076923,15)" style="font-family: sans-serif; font-size: 10px; fill: #000; opacity: 1;">70</text><text text-anchor="middle" transform="translate(276.92307692307696,15)" style="font-family: sans-serif; font-size: 10px; fill: #000; opacity: 1;">80</text><text text-anchor="middle" transform="translate(311.53846153846155,15)" style="font-family: sans-serif; font-size: 10px; fill: #000; opacity: 1;">90</text><text text-anchor="middle" transform="translate(346.1538461538462,15)" style="font-family: sans-serif; font-size: 10px; fill: #000; opacity: 1;">100</text><text text-anchor="middle" transform="translate(380.7692307692308,15)" style="font-family: sans-serif; font-size: 10px; fill: #000; opacity: 1;">110</text><text text-anchor="middle" transform="translate(415.3846153846154,15)" style="font-family: sans-serif; font-size: 10px; fill: #000; opacity: 1;">120</text><text text-anchor="middle" transform="translate(450,15)" style="font-family: sans-serif; font-size: 10px; fill: #000; opacity: 1;">130</text><text text-anchor="middle" transform="translate(484.6153846153846,15)" style="font-family: sans-serif; font-size: 10px; fill: #000; opacity: 1;">140</text><text text-anchor="middle" transform="translate(519.2307692307692,15)" style="font-family: sans-serif; font-size: 10px; fill: #000; opacity: 1;">150</text><text text-anchor="middle" transform="translate(553.8461538461539,15)" style="font-family: sans-serif; font-size: 10px; fill: #000; opacity: 1;">160</text><text text-anchor="middle" transform="translate(588.4615384615385,15)" style="font-family: sans-serif; font-size: 10px; fill: #000; opacity: 1;">170</text><text text-anchor="middle" transform="translate(623.0769230769231,15)" style="font-family: sans-serif; font-size: 10px; fill: #000; opacity: 1;">180</text><text text-anchor="middle" transform="translate(657.6923076923076,15)" style="font-family: sans-serif; font-size: 10px; fill: #000; opacity: 1;">190</text><text text-anchor="middle" transform="translate(692.3076923076924,15)" style="font-family: sans-serif; font-size: 10px; fill: #000; opacity: 1;">200</text><text text-anchor="middle" transform="translate(726.9230769230769,15)" style="font-family: sans-serif; font-size: 10px; fill: #000; opacity: 1;">210</text><text text-anchor="middle" transform="translate(761.5384615384615,15)" style="font-family: sans-serif; font-size: 10px; fill: #000; opacity: 1;">220</text><text text-anchor="middle" transform="translate(796.1538461538461,15)" style="font-family: sans-serif; font-size: 10px; fill: #000; opacity: 1;">230</text><text text-anchor="middle" transform="translate(830.7692307692308,15)" style="font-family: sans-serif; font-size: 10px; fill: #000; opacity: 1;">240</text><text text-anchor="middle" transform="translate(865.3846153846154,15)" style="font-family: sans-serif; font-size: 10px; fill: #000; opacity: 1;">250</text><text text-anchor="end" transform="translate(900,15)" style="font-family: sans-serif; font-size: 10px; fill: #000; opacity: 1;">260</text></g><g class="mark-rule role-axis-domain" style="pointer-events: none;"><line transform="translate(0,0)" x2="900" y2="0" style="fill: none; stroke: #888; stroke-width: 1; opacity: 1;"></line></g><g class="mark-text role-axis-title" style="pointer-events: none;"><text text-anchor="middle" transform="translate(450,30)" style="font-family: sans-serif; font-size: 11px; font-weight: bold; fill: #000; opacity: 1;">Size</text></g></g><path class="foreground" d="" style="pointer-events: none; display: none; fill: none;"></path></g></g><g class="mark-group role-axis"><g transform="translate(0.5,0.5)"><path class="background" d="M0,0h0v0h0Z" style="pointer-events: none; fill: none;"></path><g><g class="mark-rule role-axis-tick" style="pointer-events: none;"><line transform="translate(0,600)" x2="-5" y2="0" style="fill: none; stroke: #888; stroke-width: 1; opacity: 1;"></line><line transform="translate(0,567)" x2="-5" y2="0" style="fill: none; stroke: #888; stroke-width: 1; opacity: 1;"></line><line transform="translate(0,533)" x2="-5" y2="0" style="fill: none; stroke: #888; stroke-width: 1; opacity: 1;"></line><line transform="translate(0,500)" x2="-5" y2="0" style="fill: none; stroke: #888; stroke-width: 1; opacity: 1;"></line><line transform="translate(0,467)" x2="-5" y2="0" style="fill: none; stroke: #888; stroke-width: 1; opacity: 1;"></line><line transform="translate(0,433)" x2="-5" y2="0" style="fill: none; stroke: #888; stroke-width: 1; opacity: 1;"></line><line transform="translate(0,400)" x2="-5" y2="0" style="fill: none; stroke: #888; stroke-width: 1; opacity: 1;"></line><line transform="translate(0,367)" x2="-5" y2="0" style="fill: none; stroke: #888; stroke-width: 1; opacity: 1;"></line><line transform="translate(0,333)" x2="-5" y2="0" style="fill: none; stroke: #888; stroke-width: 1; opacity: 1;"></line><line transform="translate(0,300)" x2="-5" y2="0" style="fill: none; stroke: #888; stroke-width: 1; opacity: 1;"></line><line transform="translate(0,267)" x2="-5" y2="0" style="fill: none; stroke: #888; stroke-width: 1; opacity: 1;"></line><line transform="translate(0,233)" x2="-5" y2="0" style="fill: none; stroke: #888; stroke-width: 1; opacity: 1;"></line><line transform="translate(0,200)" x2="-5" y2="0" style="fill: none; stroke: #888; stroke-width: 1; opacity: 1;"></line><line transform="translate(0,167)" x2="-5" y2="0" style="fill: none; stroke: #888; stroke-width: 1; opacity: 1;"></line><line transform="translate(0,133)" x2="-5" y2="0" style="fill: none; stroke: #888; stroke-width: 1; opacity: 1;"></line><line transform="translate(0,100)" x2="-5" y2="0" style="fill: none; stroke: #888; stroke-width: 1; opacity: 1;"></line><line transform="translate(0,67)" x2="-5" y2="0" style="fill: none; stroke: #888; stroke-width: 1; opacity: 1;"></line><line transform="translate(0,33)" x2="-5" y2="0" style="fill: none; stroke: #888; stroke-width: 1; opacity: 1;"></line><line transform="translate(0,0)" x2="-5" y2="0" style="fill: none; stroke: #888; stroke-width: 1; opacity: 1;"></line></g><g class="mark-text role-axis-label" style="pointer-events: none;"><text text-anchor="end" transform="translate(-7,603)" style="font-family: sans-serif; font-size: 10px; fill: #000; opacity: 1;">0</text><text text-anchor="end" transform="translate(-7,569.6666666666666)" style="font-family: sans-serif; font-size: 10px; fill: #000; opacity: 1;">5</text><text text-anchor="end" transform="translate(-7,536.3333333333333)" style="font-family: sans-serif; font-size: 10px; fill: #000; opacity: 1;">10</text><text text-anchor="end" transform="translate(-7,503)" style="font-family: sans-serif; font-size: 10px; fill: #000; opacity: 1;">15</text><text text-anchor="end" transform="translate(-7,469.6666666666667)" style="font-family: sans-serif; font-size: 10px; fill: #000; opacity: 1;">20</text><text text-anchor="end" transform="translate(-7,436.3333333333333)" style="font-family: sans-serif; font-size: 10px; fill: #000; opacity: 1;">25</text><text text-anchor="end" transform="translate(-7,403.00000000000006)" style="font-family: sans-serif; font-size: 10px; fill: #000; opacity: 1;">30</text><text text-anchor="end" transform="translate(-7,369.6666666666667)" style="font-family: sans-serif; font-size: 10px; fill: #000; opacity: 1;">35</text><text text-anchor="end" transform="translate(-7,336.33333333333337)" style="font-family: sans-serif; font-size: 10px; fill: #000; opacity: 1;">40</text><text text-anchor="end" transform="translate(-7,303)" style="font-family: sans-serif; font-size: 10px; fill: #000; opacity: 1;">45</text><text text-anchor="end" transform="translate(-7,269.66666666666663)" style="font-family: sans-serif; font-size: 10px; fill: #000; opacity: 1;">50</text><text text-anchor="end" transform="translate(-7,236.33333333333331)" style="font-family: sans-serif; font-size: 10px; fill: #000; opacity: 1;">55</text><text text-anchor="end" transform="translate(-7,203.00000000000003)" style="font-family: sans-serif; font-size: 10px; fill: #000; opacity: 1;">60</text><text text-anchor="end" transform="translate(-7,169.66666666666669)" style="font-family: sans-serif; font-size: 10px; fill: #000; opacity: 1;">65</text><text text-anchor="end" transform="translate(-7,136.33333333333331)" style="font-family: sans-serif; font-size: 10px; fill: #000; opacity: 1;">70</text><text text-anchor="end" transform="translate(-7,102.99999999999997)" style="font-family: sans-serif; font-size: 10px; fill: #000; opacity: 1;">75</text><text text-anchor="end" transform="translate(-7,69.6666666666667)" style="font-family: sans-serif; font-size: 10px; fill: #000; opacity: 1;">80</text><text text-anchor="end" transform="translate(-7,36.33333333333335)" style="font-family: sans-serif; font-size: 10px; fill: #000; opacity: 1;">85</text><text text-anchor="end" transform="translate(-7,3)" style="font-family: sans-serif; font-size: 10px; fill: #000; opacity: 1;">90</text></g><g class="mark-rule role-axis-domain" style="pointer-events: none;"><line transform="translate(0,600)" x2="0" y2="-600" style="fill: none; stroke: #888; stroke-width: 1; opacity: 1;"></line></g><g class="mark-text role-axis-title" style="pointer-events: none;"><text text-anchor="middle" transform="translate(-23,300) rotate(-90) translate(0,-2)" style="font-family: sans-serif; font-size: 11px; font-weight: bold; fill: #000; opacity: 1;">GFLOPS</text></g></g><path class="foreground" d="" style="pointer-events: none; display: none; fill: none;"></path></g></g><g class="mark-group role-scope pathgroup"><g transform="translate(0,0)"><path class="background" d="M0,0h900v600h-900Z" style="fill: none;"></path><g><g class="mark-line role-mark marks"><path d="M6.923076923076923,580.9621790277016L10.384615384615385,569.518369310324L13.846153846153847,556.6880372780589L17.30769230769231,549.6669133974833L20.76923076923077,544.0938472587982L24.230769230769234,544.5630787037037L27.692307692307693,465.8631069723197L31.153846153846157,455.7567489487369L34.61538461538462,477.4622027789741L38.07692307692308,480.48334376521314L41.53846153846154,484.42464341523424L45,496.6448494453249L48.46153846153847,492.55784223082105L51.92307692307693,513.2153686715542L55.38461538461539,352.9077564813348L58.84615384615385,378.8685197099631L62.307692307692314,403.55591970503895L65.76923076923077,440.0268609120801L69.23076923076924,458.689641640356L72.6923076923077,441.6768916155419L76.15384615384616,450.4217568353694L79.61538461538461,469.2265219878573L83.07692307692308,359.79489127338326L86.53846153846155,351.58961769850913L90,359.1520118223954L93.46153846153847,401.89663233866037L96.92307692307693,392.2938912317385L100.38461538461539,424.1897642098688L103.84615384615385,434.96997923797767L107.3076923076923,440.8531872754134L110.76923076923077,254.85530952316577L114.23076923076923,304.1393018045149L117.6923076923077,362.117746059488L121.15384615384615,383.47238403046583L124.61538461538463,398.4249628528975L128.07692307692307,397.74729598008247L131.53846153846155,413.0348869189921L135,425.4311755082963L138.46153846153848,280.40256199033183L141.9230769230769,286.3391331462426L145.3846153846154,313.59290368160765L148.84615384615384,340.83921590424836L152.30769230769232,366.670211419167L155.76923076923077,399.19503018636806L159.23076923076923,406.53974400344197L162.69230769230768,424.387392442948L166.15384615384616,313.0387736699729L169.6153846153846,343.8933333333334L173.0769230769231,340.25180295807354L176.53846153846155,354.7995341873233L180,361.58912919454383L183.46153846153845,380.71818891491023L186.92307692307693,383.63231635458953L190.3846153846154,425.8668562914804L193.84615384615387,338.3588535531999L197.3076923076923,321.95121951219517L200.76923076923077,340.7850602846523L204.23076923076923,378.81064513717575L207.6923076923077,355.11673969149507L211.15384615384616,371.3547314393119L214.6153846153846,377.80724571156566L218.07692307692307,410.1669323830067L221.53846153846155,312.650366243681L225,319.7838639200999L228.46153846153845,338.15635939323226L231.9230769230769,370.4642069380389L235.3846153846154,350.1864406779661L238.84615384615384,392.6730137044785L242.3076923076923,394.9286065977351L245.76923076923075,406.86549224354883L249.23076923076925,311.33966590239106L252.6923076923077,318.2907488986783L256.15384615384613,328.18531315392477L259.6153846153846,349.4541484716157L263.0769230769231,345.48470710212547L266.53846153846155,380.8728735257351L270,369.9896219421794L273.46153846153845,388.29292626957994L276.92307692307696,327.3182957393484L280.3846153846154,348.4127819548872L283.8461538461538,325.5839635097827L287.30769230769226,354.77889887846305L290.7692307692308,363.6792139189538L294.2307692307692,368.0276685907197L297.6923076923077,359.488301471731L301.15384615384613,385.2698770299446L304.61538461538464,324.48490556165956L308.0769230769231,331.98586853759264L311.53846153846155,324.5621272925026L315,355.1730959446093L318.46153846153845,347.17403002448964L321.9230769230769,363.81866997108636L325.38461538461536,349.36470195636764L328.8461538461538,386.75740608371063L332.3076923076923,308.936881705448L335.7692307692308,316.97874505120205L339.2307692307692,345.14405494603517L342.6923076923077,360.46025878003695L346.1538461538462,362.62429809600746L349.61538461538464,354.7564067598007L353.0769230769231,353.1451130518004L356.53846153846155,377.42441071208196L360,323.1230572316694L363.46153846153845,334.7696879643388L366.9230769230769,322.8353181389468L370.38461538461536,351.09278086834206L373.84615384615387,361.3001083423619L377.3076923076923,354.96405932486124L380.7692307692308,342.0608796513998L384.2307692307692,372.7541986720479L387.69230769230774,329.50943396226415L391.1538461538462,327.1066691809668L394.6153846153846,320.2949833834468L398.07692307692304,326.98017547587966L401.53846153846155,342.67169132122166L405,356.15805356469247L408.46153846153845,351.2761508474398L411.9230769230769,371.29027278017264L415.3846153846154,320.9540907925109L418.84615384615387,329.3391620178558L422.3076923076923,330.01707212974816L425.7692307692308,345.86927523343707L429.2307692307692,344.19979253518096L432.6923076923077,358.04982465728466L436.15384615384613,348.70391061452517L439.6153846153846,367.9010464611836L443.0769230769231,310.78852823292425L446.53846153846155,327.87637433988397L450,337.5716471421068L453.46153846153845,345.0631362782365L456.9230769230769,344.3314452176727L460.38461538461536,351.05509333995616L463.8461538461538,337.9333140165051L467.3076923076923,372.3716111968261L470.7692307692308,316.9383116152409L474.2307692307692,332.778074390461L477.6923076923077,338.2373868046572L481.15384615384613,341.27057896809765L484.6153846153846,341.6854019691449L488.07692307692304,358.34620334620337L491.5384615384615,342.29372627147313L495.00000000000006,368.2214888155482L498.4615384615385,324.93308883773557L501.92307692307696,335.1132026531293L505.3846153846154,337.0972539630718L508.8461538461538,335.49843395615085L512.3076923076923,339.0462174568135L515.7692307692307,341.9635592930639L519.2307692307692,338.7562749718266L522.6923076923077,360.24185068349107L526.1538461538462,323.64608619173265L529.6153846153846,319.6131896005073L533.0769230769231,331.54081768544415L536.5384615384615,344.1667449653919L540,342.98015096449535L543.4615384615385,350.196429103699L546.9230769230769,334.1926594012276L550.3846153846155,362.63938364675664L553.8461538461539,319.6237598247648L557.3076923076924,331.1263652449814L560.7692307692308,327.55152514427044L564.2307692307692,338.9776930189551L567.6923076923076,335.6047069708272L571.1538461538461,349.73639386811584L574.6153846153845,333.7130513869941L578.0769230769231,359.7846683893196L581.5384615384615,318.44731977818856L585,324.96275526099635L588.4615384615385,330.5361305361305L591.9230769230769,335.89576028052284L595.3846153846154,332.20021299254523L598.8461538461538,348.50201428536116L602.3076923076923,330.4571877454831L605.7692307692308,360.48351850573914L609.2307692307693,321.6891284815813L612.6923076923077,329.24965685526917L616.1538461538462,326.1816887804382L619.6153846153846,336.17310859246345L623.0769230769231,339.29712460063894L626.5384615384615,360.4726576779993L630,330.1377806532001L633.4615384615385,353.15946930280955L636.9230769230769,320.680400863847L640.3846153846154,324.9054373522458L643.8461538461538,324.34758155230594L647.3076923076923,336.6500542671717L650.7692307692307,334.1086403363204L654.2307692307692,341.4497381530208L657.6923076923076,323.4090499369028L661.1538461538462,354.74473049392975L664.6153846153846,322.19429483343305L668.0769230769231,348.37257356301285L671.5384615384615,331.4140587284595L675,345.04525823818256L678.4615384615385,343.84813006216785L681.9230769230769,345.71582740745026L685.3846153846154,325.9025293028994L688.8461538461538,358.75546477460045L692.3076923076924,331.4694151561821L695.7692307692308,329.5303916356548L699.2307692307693,324.5873781589343L702.6923076923077,342.09766782631107L706.1538461538462,337.2288149757647L709.6153846153846,355.7646616412834L713.0769230769231,334.00733735228505L716.5384615384615,366.1568835171185L720,320.2137898240609L723.4615384615385,324.3589458054937L726.9230769230769,323.10249307479233L730.3846153846154,348.4940019273585L733.8461538461538,339.6415184352212L737.3076923076923,344.59467514404923L740.7692307692307,330.5744739756368L744.2307692307692,360.22548705509024L747.6923076923077,328.8369230769231L751.1538461538462,344.6162926097845L754.6153846153846,348.8785279124705L758.0769230769231,334.9919555360538L761.5384615384615,343.40022765901045L765,365.29370194482135L768.4615384615385,327.0162748643761L771.9230769230769,367.82890490902855L775.3846153846155,323.7899099799235L778.8461538461539,341.1109105676383L782.3076923076924,339.14589998948526L785.7692307692308,350.33331908283816L789.2307692307692,351.54893940032895L792.6923076923076,348.28201544477855L796.1538461538461,334.1197687997989L799.6153846153845,360.5961759233601L803.0769230769231,345.9052220880021L806.5384615384615,359.3855018054306L810,335.45570807400463L813.4615384615385,359.28489929874496L816.9230769230769,356.9795436462103L820.3846153846154,350.8290277125411L823.8461538461538,357.1900097078811L827.3076923076923,374.85085614254746L830.7692307692308,352.72727272727275L834.2307692307693,357.2461523331858L837.6923076923077,364.39411688142644L841.1538461538462,376.5908863294942L844.6153846153846,370.79239984600406L848.0769230769231,385.29120902242977L851.5384615384615,367.20928653859204L855,378.15146362070993L858.4615384615385,359.35740753527125L861.9230769230769,374.7754735728709L865.3846153846154,358.84061918380314L868.8461538461538,373.2217458048806L872.3076923076923,353.14285714285717L875.7692307692307,378.1339776330143L879.2307692307692,373.9430102540321L882.6923076923076,382.1157200721403L886.1538461538462,369.7140317696545" style="fill: none; stroke: #ff7f0e; stroke-width: 2;"></path></g></g><path class="foreground" d="" style="display: none; fill: none;"></path></g><g transform="translate(0,0)"><path class="background" d="M0,0h900v600h-900Z" style="fill: none;"></path><g><g class="mark-line role-mark marks"><path d="M6.923076923076923,573.8874139058832L10.384615384615385,564.5052984996328L13.846153846153847,554.274469889737L17.30769230769231,548.7363734070321L20.76923076923077,544.5170897545762L24.230769230769234,547.4230519369509L27.692307692307693,438.80034122031157L31.153846153846157,457.499524322953L34.61538461538462,468.72957986519174L38.07692307692308,468.84894631909145L41.53846153846154,474.7931256190592L45,490.9804014703515L48.46153846153847,483.4040501707658L51.92307692307693,513.4381710406193L55.38461538461539,335.56411696505694L58.84615384615385,391.13770792109614L62.307692307692314,407.9796480814077L65.76923076923077,437.555432272007L69.23076923076924,455.59746415925866L72.6923076923077,441.0464778695664L76.15384615384616,448.4335732424574L79.61538461538461,463.17704011065007L83.07692307692308,368.9590939572312L86.53846153846155,349.3456206600478L90,375.077484047402L93.46153846153847,400.405855921148L96.92307692307693,393.5018938730385L100.38461538461539,428.37067012604797L103.84615384615385,432.9222779602967L107.3076923076923,437.7115738337404L110.76923076923077,291.6128696105249L114.23076923076923,326.5046119235096L117.6923076923077,370.47156577101543L121.15384615384615,396.4241026042074L124.61538461538463,390.920216288886L128.07692307692307,393.9827160767044L131.53846153846155,414.7477687681444L135,421.8924356952526L138.46153846153848,302.0367997920496L141.9230769230769,306.43998468449115L145.3846153846154,326.38402438645056L148.84615384615384,354.3293603566798L152.30769230769232,370.57161908225737L155.76923076923077,397.85078833788424L159.23076923076923,408.25670957597083L162.69230769230768,424.1530284938306L166.15384615384616,336.92888926202664L169.6153846153846,363.17377429648974L173.0769230769231,359.64257436941523L176.53846153846155,375.7303712720633L180,373.70157042288196L183.46153846153845,385.8081589629729L186.92307692307693,387.0892926169309L190.3846153846154,427.6439930957049L193.84615384615387,351.82366222098085L197.3076923076923,346.02014070906336L200.76923076923077,356.3409386250825L204.23076923076923,390.84225780228326L207.6923076923077,366.57703529950226L211.15384615384616,376.8122078151187L214.6153846153846,379.8173792917551L218.07692307692307,412.10526315789474L221.53846153846155,330.5471712715734L225,343.6652391149179L228.46153846153845,352.90054557285146L231.9230769230769,383.5399234151185L235.3846153846154,360.2805590851334L238.84615384615384,392.5401572112099L242.3076923076923,395.8916976354801L245.76923076923075,410.1738841510687L249.23076923076925,327.14381547035447L252.6923076923077,338.9752208989627L256.15384615384613,343.09999080121423L259.6153846153846,355.2365513416663L263.0769230769231,355.0507234325628L266.53846153846155,384.9233149289163L270,371.90869996692027L273.46153846153845,389.12921418101416L276.92307692307696,338.7755102040816L280.3846153846154,360.04840466298253L283.8461538461538,339.3897480715887L287.30769230769226,366.5822091009878L290.7692307692308,371.2667596267296L294.2307692307692,369.8209119552105L297.6923076923077,360.6387054554108L301.15384615384613,386.133133881825L304.61538461538464,335.5669378326806L308.0769230769231,345.77129573908223L311.53846153846155,336.3016157989228L315,365.9901213459666L318.46153846153845,355.17541340990056L321.9230769230769,364.85469499657296L325.38461538461536,350.65296007778136L328.8461538461538,387.15677239711835L332.3076923076923,320.8205813564985L335.7692307692308,331.6759454387234L339.2307692307692,354.2994732881867L342.6923076923077,364.2585574386805L346.1538461538462,362.8584524023036L349.61538461538464,359.5938171484023L353.0769230769231,353.16725978647685L356.53846153846155,378.79618557017136L360,332.7219868759864L363.46153846153845,344.96282256888765L366.9230769230769,333.3165794066318L370.38461538461536,355.40936223688345L373.84615384615387,361.9877565718401L377.3076923076923,359.257427217736L380.7692307692308,348.81704673810174L384.2307692307692,373.56489589414286L387.69230769230774,337.0392749244712L391.1538461538462,338.47414234511007L394.6153846153846,331.1036056595162L398.07692307692304,339.99653058864345L401.53846153846155,349.16718751713324L405,360.32442453267413L408.46153846153845,351.88620902906615L411.9230769230769,372.17498284713844L415.3846153846154,329.0026900468268L418.84615384615387,340.22898532573527L422.3076923076923,338.5372104077542L425.7692307692308,349.9168635687407L429.2307692307692,348.2791163498392L432.6923076923077,361.4958977294409L436.15384615384613,349.45624173222865L439.6153846153846,368.6867025202995L443.0769230769231,319.6102118063945L446.53846153846155,338.01284945303007L450,344.59668189041133L453.46153846153845,349.26182572168335L456.9230769230769,350.2409409979131L460.38461538461536,354.31944444444446L463.8461538461538,338.51418781454123L467.3076923076923,374.5087336244542L470.7692307692308,324.3728564697632L474.2307692307692,341.21172796950407L477.6923076923077,343.1386861313868L481.15384615384613,350.2323105585338L484.6153846153846,347.7095479669872L488.07692307692304,358.8376324521032L491.5384615384615,342.6419910657307L495.00000000000006,368.38363648477576L498.4615384615385,331.55237406236915L501.92307692307696,341.9500397083243L505.3846153846154,341.2645032308736L508.8461538461538,343.85315343583306L512.3076923076923,344.07697594501724L515.7692307692307,345.0229698689366L519.2307692307692,339.87554830154033L522.6923076923077,361.1062833194663L526.1538461538462,329.8056616104289L529.6153846153846,328.646824179196L533.0769230769231,336.6438042981253L536.5384615384615,346.9485749690211L540,343.33891680625345L543.4615384615385,352.65155539814657L546.9230769230769,335.43544666791354L550.3846153846155,363.48192174343734L553.8461538461539,325.20047988886785L557.3076923076924,338.00826421712884L560.7692307692308,333.9130434782609L564.2307692307692,342.17370208636584L567.6923076923076,340.7981859410431L571.1538461538461,351.92957067052583L574.6153846153845,334.1437530149541L578.0769230769231,360.4764069920178L581.5384615384615,322.93460372455604L585,332.132296149178L588.4615384615385,334.6619140203068L591.9230769230769,343.1819590824551L595.3846153846154,337.4840797578035L598.8461538461538,354.54422654798947L602.3076923076923,330.1392056626032L605.7692307692308,362.3205277454405L609.2307692307693,326.60903875606783L612.6923076923077,335.65961882072656L616.1538461538462,331.6654212125742L619.6153846153846,342.82483474976397L623.0769230769231,339.66678482807515L626.5384615384615,351.6778134474764L630,330.95009436441387L633.4615384615385,353.5601584312707L636.9230769230769,326.98069351548787L640.3846153846154,331.9396452430315L643.8461538461538,331.04129510220884L647.3076923076923,339.07740250619963L650.7692307692307,340.65048019855396L654.2307692307692,343.80584736109347L657.6923076923076,324.17357693431313L661.1538461538462,356.39209678686467L664.6153846153846,327.2007835455436L668.0769230769231,338.6844114309296L671.5384615384615,335.1661906535867L675,345.9320834807217L678.4615384615385,341.3678666191438L681.9230769230769,352.5678817881788L685.3846153846154,327.1983790753361L688.8461538461538,355.9746991445556L692.3076923076924,334.93928940341846L695.7692307692308,335.5140942698706L699.2307692307693,329.5483166656919L702.6923076923077,348.9057347670251L706.1538461538462,339.47856827220505L709.6153846153846,362.21501081710767L713.0769230769231,334.418613212583L716.5384615384615,369.2020341238535L720,333.90929975941106L723.4615384615385,334.9548488417746L726.9230769230769,329.09100764269067L730.3846153846154,348.8445329351253L733.8461538461538,344.5509862922099L737.3076923076923,346.4335733307032L740.7692307692307,342.77860375987046L744.2307692307692,356.5711010950544L747.6923076923077,330.44045676998365L751.1538461538462,339.32724401243917L754.6153846153846,340.7435218612114L758.0769230769231,340.334400229303L761.5384615384615,343.08775545251586L765,360.2618851689837L768.4615384615385,327.5356097560976L771.9230769230769,368.79088721146485L775.3846153846155,326.67083233197155L778.8461538461539,349.0486812754232L782.3076923076924,339.77912639544473L785.7692307692308,347.87577890025756L789.2307692307692,351.4860589699245L792.6923076923076,350.56392607825853L796.1538461538461,335.5972069092245L799.6153846153845,360.2640133195909L803.0769230769231,336.80574132401375L806.5384615384615,356.4519917138371L810,342.22480684555944L813.4615384615385,363.6124435044252L816.9230769230769,361.86617371511926L820.3846153846154,352.1001596635383L823.8461538461538,353.64928303721035L827.3076923076923,365.9031845905355L830.7692307692308,338.70231757595167L834.2307692307693,352.2670078908083L837.6923076923077,352.9772848511916L841.1538461538462,368.1786060690037L844.6153846153846,366.1289614455883L848.0769230769231,380.20634766781905L851.5384615384615,365.3856942496493L855,373.35933744154534L858.4615384615385,354.1719861282549L861.9230769230769,378.6283157961061L865.3846153846154,358.60227879448814L868.8461538461538,373.1280715133028L872.3076923076923,353.4388489208633L875.7692307692307,373.25185717709076L879.2307692307692,369.3288745872505L882.6923076923076,378.2208312016612L886.1538461538462,366.5656756133845" style="fill: none; stroke: #1f77b4; stroke-width: 2;"></path></g></g><path class="foreground" d="" style="display: none; fill: none;"></path></g><g transform="translate(0,0)"><path class="background" d="M0,0h900v600h-900Z" style="fill: none;"></path><g><g class="mark-line role-mark marks"><path d="M6.923076923076923,583.2236148820372L10.384615384615385,572.7699884281062L13.846153846153847,564.0295604823026L17.30769230769231,555.1136975967238L20.76923076923077,549.8666938027883L24.230769230769234,544.6873289183224L27.692307692307693,472.6303316124499L31.153846153846157,502.6941896365318L34.61538461538462,499.4456727226121L38.07692307692308,493.7276339919589L41.53846153846154,495.40472985964243L45,504.51619044510807L48.46153846153847,496.42493717027224L51.92307692307693,508.45244239010924L55.38461538461539,422.49250854172476L58.84615384615385,460.56740826006705L62.307692307692314,458.7931912005881L65.76923076923077,472.8288278590363L69.23076923076924,476.32289950576603L72.6923076923077,468.46682995466153L76.15384615384616,474.7120708748616L79.61538461538461,475.21853753295403L83.07692307692308,392.7202572347267L86.53846153846155,396.75069276839184L90,408.9490702642495L93.46153846153847,432.6986391916988L96.92307692307693,430.44781686365013L100.38461538461539,444.2724208193658L103.84615384615385,445.78519469405217L107.3076923076923,449.112220365631L110.76923076923077,356.09897670694795L114.23076923076923,383.4736842105263L117.6923076923077,397.00984445944187L121.15384615384615,425.1083319264252L124.61538461538463,411.4935469941947L128.07692307692307,418.5467832684576L131.53846153846155,422.5902161280556L135,433.4170854271357L138.46153846153848,324.0005798307147L141.9230769230769,354.217077568283L145.3846153846154,361.5742397137746L148.84615384615384,383.68445461753663L152.30769230769232,402.3125206475058L155.76923076923077,409.7172705414145L159.23076923076923,419.7163333834511L162.69230769230768,431.32102591744155L166.15384615384616,346.8786351298952L169.6153846153846,386.67816452388416L173.0769230769231,383.15220164294095L176.53846153846155,399.3328795098707L180,396.51173085436034L183.46153846153845,403.65527733234654L186.92307692307693,401.9773503505303L190.3846153846154,427.92946530147896L193.84615384615387,346.7122767008742L197.3076923076923,362.65308753384045L200.76923076923077,376.0100268296026L204.23076923076923,401.29277055840976L207.6923076923077,387.5553241343401L211.15384615384616,391.196567090279L214.6153846153846,391.71952191235056L218.07692307692307,410.42472488878485L221.53846153846155,329.1795500068062L225,358.3114610673666L228.46153846153845,372.14769230769235L231.9230769230769,391.3995444191344L235.3846153846154,378.07932997694445L238.84615384615384,391.46218920427714L242.3076923076923,394.39713686289025L245.76923076923075,402.80651965484174L249.23076923076925,322.2711276852776L252.6923076923077,350.20312500000006L256.15384615384613,353.00610241443354L259.6153846153846,365.04914004914L263.0769230769231,368.3695694908591L266.53846153846155,386.83374309355753L270,382.56297055461386L273.46153846153845,393.70350116057216L276.92307692307696,332.11867536624396L280.3846153846154,361.3001083423619L283.8461538461538,350.2999522151682L287.30769230769226,370.5775329048056L290.7692307692308,376.7426278136451L294.2307692307692,368.52767962308604L297.6923076923077,372.2323743532262L301.15384615384613,385.90628314718913L304.61538461538464,322.03069532971745L308.0769230769231,349.41707373807867L311.53846153846155,341.6722360969432L315,368.35819141309076L318.46153846153845,361.3543258580043L321.9230769230769,360.8636252744572L325.38461538461536,358.1461035973871L328.8461538461538,386.90972222222223L332.3076923076923,312.26446280991735L335.7692307692308,333.45926322680475L339.2307692307692,355.443000053496L342.6923076923077,363.8791375645309L346.1538461538462,365.8471316273624L349.61538461538464,364.81958288531774L353.0769230769231,357.31851459821826L356.53846153846155,379.49934284928327L360,321.4784038777807L363.46153846153845,345.5267522038928L366.9230769230769,336.1348252521066L370.38461538461536,353.75379554655865L373.84615384615387,361.22824974411463L377.3076923076923,359.8799262913869L380.7692307692308,349.90121280282074L384.2307692307692,372.9241877256318L387.69230769230774,326.4297626683772L391.1538461538462,338.06389333011555L394.6153846153846,330.923484456353L398.07692307692304,338.1721838879669L401.53846153846155,350.23529540218595L405,361.3420299664647L408.46153846153845,352.90408785335507L411.9230769230769,366.70058533938055L415.3846153846154,314.71856426989865L418.84615384615387,336.8091023485498L422.3076923076923,338.47235142118865L425.7692307692308,348.6999853436904L429.2307692307692,349.1776536741705L432.6923076923077,356.8705521612777L436.15384615384613,346.42849593066273L439.6153846153846,364.4845283342996L443.0769230769231,308.86589317445384L446.53846153846155,334.6773115745788L450,339.56987785256194L453.46153846153845,347.37284191156573L456.9230769230769,347.80881836467546L460.38461538461536,354.4498428122321L463.8461538461538,335.9183320356433L467.3076923076923,365.5859877430581L470.7692307692308,305.4949480758199L474.2307692307692,332.96257937628815L477.6923076923077,338.258549599806L481.15384615384613,344.9372937293729L484.6153846153846,343.5838239255069L488.07692307692304,351.8250908690385L491.5384615384615,339.4634035114388L495.00000000000006,359.3152629210371L498.4615384615385,315.1418181818182L501.92307692307696,334.17745054291237L505.3846153846154,335.8612143742255L508.8461538461538,340.51493960584867L512.3076923076923,338.3310495063421L515.7692307692307,341.32689078509986L519.2307692307692,336.6790582403966L522.6923076923077,354.9674442126557L526.1538461538462,309.4158990863019L529.6153846153846,320.76413009156926L533.0769230769231,332.44939942929193L536.5384615384615,339.7406486968712L540,337.87492872077553L543.4615384615385,344.39076463232374L546.9230769230769,330.1618184708314L550.3846153846155,353.76589893434175L553.8461538461539,310.61905711815945L557.3076923076924,327.9643176837361L560.7692307692308,330.3671471308132L564.2307692307692,335.21338961191236L567.6923076923076,335.9939950343553L571.1538461538461,344.514366150534L574.6153846153845,329.58582272635437L578.0769230769231,350.6112250802167L581.5384615384615,302.2507679419156L585,323.5297802072657L588.4615384615385,329.1098061919334L591.9230769230769,332.851269649335L595.3846153846154,333.307879944851L598.8461538461538,342.7414991783593L602.3076923076923,325.8266080703156L605.7692307692308,349.9759880900927L609.2307692307693,308.22695035460987L612.6923076923077,324.65141527723915L616.1538461538462,325.6796536796537L619.6153846153846,332.618118449795L623.0769230769231,332.4590163934426L626.5384615384615,343.1931571909439L630,324.7357872610842L633.4615384615385,343.89878542510127L636.9230769230769,304.3675681228651L640.3846153846154,321.16790070208225L643.8461538461538,321.90368111213564L647.3076923076923,330.416071469061L650.7692307692307,336.55683437465746L654.2307692307692,336.93027487166154L657.6923076923076,320.9376349953391L661.1538461538462,342.73453218011736L664.6153846153846,309.5439377085651L668.0769230769231,328.6047358834244L671.5384615384615,325.43203518935735L675,343.6194895591648L678.4615384615385,336.03653853926676L681.9230769230769,344.14790685048376L685.3846153846154,326.25716222044235L688.8461538461538,344.6453497193142L692.3076923076924,302.82967333114823L695.7692307692308,323.9703400048228L699.2307692307693,320.5092872396148L702.6923076923077,342.60935060163496L706.1538461538462,331.80484476287955L709.6153846153846,351.404909790003L713.0769230769231,338.1349595266616L716.5384615384615,354.37661220980226L720,308.0006352231222L723.4615384615385,319.42227763923523L726.9230769230769,319.37113980909606L730.3846153846154,344.95990025609916L733.8461538461538,334.73318751518934L737.3076923076923,335.50308641975306L740.7692307692307,332.33905763842336L744.2307692307692,344.1351241351241L747.6923076923077,316.90330870542886L751.1538461538462,332.58739623523905L754.6153846153846,335.45907007203675L758.0769230769231,331.24449938195306L761.5384615384615,329.0390568398867L765,362.2798654355451L768.4615384615385,326.82936372083924L771.9230769230769,361.4714180915298L775.3846153846155,310.2953113590436L778.8461538461539,336.50975889781864L782.3076923076924,336.6417955717319L785.7692307692308,342.11987400276723L789.2307692307692,354.03832505322924L792.6923076923076,350.15498010201225L796.1538461538461,335.71376092866063L799.6153846153845,358.27084499160605L803.0769230769231,324.2789127945519L806.5384615384615,342.7886236640051L810,335.2977307626685L813.4615384615385,366.17352212301216L816.9230769230769,361.6233635448137L820.3846153846154,344.5190030902597L823.8461538461538,353.74378252586087L827.3076923076923,365.2920987117202L830.7692307692308,324.8008094093841L834.2307692307693,339.996313412595L837.6923076923077,354.23041793181767L841.1538461538462,373.1758405639913L844.6153846153846,364.9148723666179L848.0769230769231,382.5250684654156L851.5384615384615,367.193482688391L855,379.4816350396003L858.4615384615385,348.15906736999307L861.9230769230769,377.767165311996L865.3846153846154,364.00688544616577L868.8461538461538,377.0386793238404L872.3076923076923,359.76768249941586L875.7692307692307,371.5883711167087L879.2307692307692,377.0040765703945L882.6923076923076,374.11494252873564L886.1538461538462,362.4292050494712" style="fill: none; stroke: #aec7e8; stroke-width: 2;"></path></g></g><path class="foreground" d="" style="display: none; fill: none;"></path></g><g transform="translate(0,0)"><path class="background" d="M0,0h900v600h-900Z" style="fill: none;"></path><g><g class="mark-line role-mark marks"><path d="M6.923076923076923,564.1907171661263L10.384615384615385,549.8030504960758L13.846153846153847,519.3822255947864L17.30769230769231,497.1745024376603L20.76923076923077,474.24354243542433L24.230769230769234,454.78802576200894L27.692307692307693,444.8828727529588L31.153846153846157,489.3311990395678L34.61538461538462,483.01555993863684L38.07692307692308,456.53771469054095L41.53846153846154,447.63281532345496L45,446.10428112119206L48.46153846153847,410.3588019179276L51.92307692307693,421.11495310828633L55.38461538461539,386.3488830725813L58.84615384615385,436.98251435235755L62.307692307692314,414.6242471196861L65.76923076923077,432.3790429492418L69.23076923076924,417.33359052946673L72.6923076923077,387.9843612550093L76.15384615384616,367.9431875824288L79.61538461538461,366.6629083957603L83.07692307692308,380.63833099797597L86.53846153846155,400.90479568482056L90,377.68406854262616L93.46153846153847,384.94306816433294L96.92307692307693,361.3493791586807L100.38461538461539,382.24904232242574L103.84615384615385,352.4483200195134L107.3076923076923,352.2678031913061L110.76923076923077,330.85772514845917L114.23076923076923,365.52310292073713L117.6923076923077,374.42479857464957L121.15384615384615,381.14661841156135L124.61538461538463,354.0462280924562L128.07692307692307,335.0742422536621L131.53846153846155,334.6402606856432L135,323.7703529065056L138.46153846153848,324.5207997299224L141.9230769230769,348.0865250952161L145.3846153846154,338.67581667308565L148.84615384615384,336.2936316257786L152.30769230769232,341.7918237170194L155.76923076923077,349.46934319849595L159.23076923076923,345.5457612362608L162.69230769230768,354.4351806441066L166.15384615384616,350.74455899198165L169.6153846153846,380.5537634408603L173.0769230769231,363.67225512275144L176.53846153846155,367.11960815294674L180,352.12057483350856L183.46153846153845,354.05335805521213L186.92307692307693,333.4193756554005L190.3846153846154,366.62128432039935L193.84615384615387,357.0819948511152L197.3076923076923,359.4119568768376L200.76923076923077,360.2783366867874L204.23076923076923,377.60114249206083L207.6923076923077,345.84189871052143L211.15384615384616,347.53751596424013L214.6153846153846,332.7280163599182L218.07692307692307,352.30176211453744L221.53846153846155,340.5179802496739L225,354.4192566758984L228.46153846153845,356.5813838821016L231.9230769230769,370.47571306832424L235.3846153846154,340.55338577479506L238.84615384615384,359.4739970282318L242.3076923076923,346.91107960299775L245.76923076923075,347.87584583701084L249.23076923076925,334.90023062268125L252.6923076923077,347.6986632008912L256.15384615384613,343.630605406894L259.6153846153846,347.1130112834979L263.0769230769231,336.4916361034082L266.53846153846155,356.8518816339659L270,333.35281227173124L273.46153846153845,344.10821240503276L276.92307692307696,341.2193768334258L280.3846153846154,365.9674246596899L283.8461538461538,339.6667299297779L287.30769230769226,357.8871747163863L290.7692307692308,353.128038897893L294.2307692307692,340.1457151546406L297.6923076923077,327.0996798524065L301.15384615384613,339.0860010645578L304.61538461538464,336.0837969227685L308.0769230769231,354.29516347919304L311.53846153846155,336.4908503767492L315,354.66910643488865L318.46153846153845,337.29882696608695L321.9230769230769,336.6769644056414L325.38461538461536,311.8649594782525L328.8461538461538,347.52870928688134L332.3076923076923,326.2982737724786L335.7692307692308,339.2050404118044L339.2307692307692,350.7875140374405L342.6923076923077,353.88662045389805L346.1538461538462,344.0364801789593L349.61538461538464,340.7070156889131L353.0769230769231,312.29948760849106L356.53846153846155,340.76836993460023L360,336.4085235359772L363.46153846153845,353.55839715985667L366.9230769230769,336.1582556361304L370.38461538461536,345.3280994438993L373.84615384615387,344.23527135532555L377.3076923076923,338.4564584007769L380.7692307692308,311.62781382680447L384.2307692307692,336.7638557245193L387.69230769230774,336.5112902727582L391.1538461538462,345.0549063362499L394.6153846153846,329.3412146641756L398.07692307692304,330.86937004339364L401.53846153846155,331.3856270549553L405,340.7963911784361L408.46153846153845,315.5806548513067L411.9230769230769,330.83214535290006L415.3846153846154,331.0658493177773L418.84615384615387,345.5665276414786L422.3076923076923,338.19634136247L425.7692307692308,343.6120581374484L429.2307692307692,335.4947734839056L432.6923076923077,340.7271839921913L436.15384615384613,316.34506242905786L439.6153846153846,334.42491161799603L443.0769230769231,321.99465005789114L446.53846153846155,342.484383000512L450,341.1099471721916L453.46153846153845,342.38705475898763L456.9230769230769,334.73217584041373L460.38461538461536,336.8313040814764L463.8461538461538,304.0325004605525L467.3076923076923,336.05520414031054L470.7692307692308,323.32695395851204L474.2307692307692,342.8282421213831L477.6923076923077,340.6073231311593L481.15384615384613,340.3399343847583L484.6153846153846,332.65936534681265L488.07692307692304,336.31597425394966L491.5384615384615,311.4488041499626L495.00000000000006,334.3676931305876L498.4615384615385,329.8862112562738L501.92307692307696,344.7146632383402L505.3846153846154,337.0972539630718L508.8461538461538,337.2859901308732L512.3076923076923,326.6923556827773L515.7692307692307,327.25058717253836L519.2307692307692,308.72677429180624L522.6923076923077,328.7589657464749L526.1538461538462,327.5566191516665L529.6153846153846,331.7472194135491L533.0769230769231,334.85120515602904L536.5384615384615,339.49164434239054L540,327.8658115441539L543.4615384615385,333.5920910420243L546.9230769230769,305.40885742051927L550.3846153846155,332.25119147743203L553.8461538461539,324.0767158028214L557.3076923076924,338.66085460961364L560.7692307692308,332.5492311842461L564.2307692307692,334.25528785338156L567.6923076923076,327.2292319164803L571.1538461538461,333.9398120203501L574.6153846153845,305.62604078298295L578.0769230769231,329.96554179125724L581.5384615384615,320.97697138869506L585,334.9399497761764L588.4615384615385,333.8209399972911L591.9230769230769,334.09451977854457L595.3846153846154,326.4763147876217L598.8461538461538,333.25311942958996L602.3076923076923,302.8165598475662L605.7692307692308,329.89623865110246L609.2307692307693,329.86970349851237L612.6923076923077,335.4429625214216L616.1538461538462,330.35568571500085L619.6153846153846,333.7941988612761L623.0769230769231,326.9076305220883L626.5384615384615,337.5847527504889L630,304.14900044658106L633.4615384615385,326.3378758382004L636.9230769230769,323.338861249309L640.3846153846154,331.86552375685517L643.8461538461538,328.48971677861647L647.3076923076923,331.7117970936005L650.7692307692307,326.83760683760687L654.2307692307692,329.0422327822769L657.6923076923076,301.10072082602767L661.1538461538462,326.9867054058813L664.6153846153846,325.118757813014L668.0769230769231,340.80227584371994L671.5384615384615,333.5781803039767L675,346.9317047389747L678.4615384615385,332.4023765621799L681.9230769230769,333.80419213621417L685.3846153846154,306.29825489159174L688.8461538461538,326.4012842396164L692.3076923076924,330.75171744768465L695.7692307692308,335.3153361465981L699.2307692307693,325.84459726503826L702.6923076923077,345.02629615475604L706.1538461538462,331.2393868596502L709.6153846153846,344.90743220323856L713.0769230769231,324.62563221681455L716.5384615384615,348.26499403867086L720,324.7991618491703L723.4615384615385,338.5246219123576L726.9230769230769,325.94176673795033L730.3846153846154,350.52097239390196L733.8461538461538,332.1385499929883L737.3076923076923,333.29425800093367L740.7692307692307,321.86842434310415L744.2307692307692,330.1378801146998L747.6923076923077,329.21186050084503L751.1538461538462,341.4739459703854L754.6153846153846,344.4461314607453L758.0769230769231,335.121095463184L761.5384615384615,331.5322370138345L765,358.8939222348056L768.4615384615385,309.93352721229746L771.9230769230769,352.86326098077905L775.3846153846155,323.9508090614887L778.8461538461539,343.73576309794987L782.3076923076924,343.2987435328899L785.7692307692308,348.15846593931036L789.2307692307692,354.1922563417891L792.6923076923076,346.02310442573673L796.1538461538461,325.24937751096036L799.6153846153845,349.36466492602256L803.0769230769231,340.50056011684455L806.5384615384615,355.68800296484534L810,336.94714085880213L813.4615384615385,367.1218435283028L816.9230769230769,356.82975062280093L820.3846153846154,343.67545802295155L823.8461538461538,348.4757538951795L827.3076923076923,358.01011762360446L830.7692307692308,344.4309595583918L834.2307692307693,353.35306754596326L837.6923076923077,357.7467941698908L841.1538461538462,375.323306251259L844.6153846153846,372.146917457423L848.0769230769231,382.7473147468038L851.5384615384615,363.5496104254292L855,371.4036653772826L858.4615384615385,357.20319992569114L861.9230769230769,382.60743124091204L865.3846153846154,363.88101825616405L868.8461538461538,374.0613463282915L872.3076923076923,355.48277502208333L875.7692307692307,369.8199856157719L879.2307692307692,370.20606136794584L882.6923076923076,366.00304819965714L886.1538461538462,371.3446007655287" style="fill: none; stroke: #2ca02c; stroke-width: 2;"></path></g></g><path class="foreground" d="" style="display: none; fill: none;"></path></g><g transform="translate(0,0)"><path class="background" d="M0,0h900v600h-900Z" style="fill: none;"></path><g><g class="mark-line role-mark marks"><path d="M6.923076923076923,580.8499448638561L10.384615384615385,570.007106899615L13.846153846153847,560.5519628114323L17.30769230769231,570.7151406670087L20.76923076923077,563.9377166606017L24.230769230769234,557.0594823548578L27.692307692307693,550.4487336634688L31.153846153846157,552.7873216178247L34.61538461538462,548.7774395525528L38.07692307692308,546.4138571581873L41.53846153846154,545.1381930909995L45,555.7994848424808L48.46153846153847,552.2749478407343L51.92307692307693,548.7734413022544L55.38461538461539,538.5297445321227L58.84615384615385,541.2246866889851L62.307692307692314,540.9303978601224L65.76923076923077,540.6826605016278L69.23076923076924,539.826588735704L72.6923076923077,547.4832107451231L76.15384615384616,545.3652058432936L79.61538461538461,542.534905268539L83.07692307692308,535.8238301219033L86.53846153846155,539.0733413613166L90,537.3613495762135L93.46153846153847,536.5486521772522L96.92307692307693,536.4152473641525L100.38461538461539,544.0057964203188L103.84615384615385,542.0059131225836L107.3076923076923,539.6802540245163L110.76923076923077,534.1653430149005L114.23076923076923,536.2631687667837L117.6923076923077,535.0024805688771L121.15384615384615,535.0369137984819L124.61538461538463,534.8101390669691L128.07692307692307,540.8112919633774L131.53846153846155,539.337726523888L135,537.2758146680683L138.46153846153848,532.734317038991L141.9230769230769,534.6338302009074L145.3846153846154,533.9271255060729L148.84615384615384,533.6042351512272L152.30769230769232,534.2606394267381L155.76923076923077,539.4299287410927L159.23076923076923,537.9043673398929L162.69230769230768,537.0675045823514L166.15384615384616,532.7140372350706L169.6153846153846,534.7338244532009L173.0769230769231,534.0449824304701L176.53846153846155,533.475401379844L180,533.7643704778667L183.46153846153845,537.8903557260844L186.92307692307693,536.9092239651277L190.3846153846154,536.2783061243456L193.84615384615387,532.196750500779L197.3076923076923,534.9492094337957L200.76923076923077,533.5564075752295L204.23076923076923,533.0027454643231L207.6923076923077,533.5310025740445L211.15384615384616,537.3848057411532L214.6153846153846,540.5798979325082L218.07692307692307,534.9689171606187L221.53846153846155,534.712094042638L225,533.3611671653562L228.46153846153845,533.5871393018094L231.9230769230769,532.9970586944115L235.3846153846154,533.0668199331587L238.84615384615384,536.5000784559862L242.3076923076923,535.6309404219148L245.76923076923075,537.8939739826793L249.23076923076925,531.7472118959108L252.6923076923077,534.7500720253529L256.15384615384613,532.964643191474L259.6153846153846,532.8169459374012L263.0769230769231,532.935833077212L266.53846153846155,536.4342698577871L270,535.5949934616103L273.46153846153845,535.1386214274797L276.92307692307696,532.1420775251817L280.3846153846154,532.6589385980801L283.8461538461538,532.1231554882575L287.30769230769226,532.7400643234552L290.7692307692308,532.2534733988479L294.2307692307692,535.5300107603076L297.6923076923077,534.672797651521L301.15384615384613,533.9325323475047L304.61538461538464,532.0806892637879L308.0769230769231,532.6748662566872L311.53846153846155,532.6831414533989L315,534.4567823637591L318.46153846153845,532.1459055433731L321.9230769230769,535.5796529968454L325.38461538461536,534.535311934802L328.8461538461538,533.4829073724827L332.3076923076923,531.9867161554992L335.7692307692308,532.790033194672L339.2307692307692,532.048112540059L342.6923076923077,531.9291579850471L346.1538461538462,532.5918436130771L349.61538461538464,534.7455363022333L353.0769230769231,534.6023294509151L356.53846153846155,533.3876269621422L360,531.7323828618104L363.46153846153845,532.022196833687L366.9230769230769,532.9606036676319L370.38461538461536,531.7364618406285L373.84615384615387,532.2196585140747L377.3076923076923,534.4379524134125L380.7692307692308,533.8063747968657L384.2307692307692,533.9116853613517L387.69230769230774,532.8363332860899L391.1538461538462,531.7927448115505L394.6153846153846,531.8993896800444L398.07692307692304,532.4454260002103L401.53846153846155,533.0370890781886L405,534.467348145645L408.46153846153845,533.686879298511L411.9230769230769,533.0756293176543L415.3846153846154,532.0028332152826L418.84615384615387,532.2148235902882L422.3076923076923,532.9895787814987L425.7692307692308,532.7468131006079L429.2307692307692,532.8860645741062L432.6923076923077,534.179551987313L436.15384615384613,542.8219143256641L439.6153846153846,534.0231959383046L443.0769230769231,548.1427281444038L446.53846153846155,533.9735331186108L450,533.6704067968786L453.46153846153845,533.8667301392998L456.9230769230769,534.3030141725997L460.38461538461536,535.6605368165431L463.8461538461538,536.009894555898L467.3076923076923,536.2932576645487L470.7692307692308,535.2880766420728L474.2307692307692,534.8158816739701L477.6923076923077,535.240038406145L481.15384615384613,535.2749450701033L484.6153846153846,535.1227158114042L488.07692307692304,537.6541228555617L491.5384615384615,536.9585287356322L495.00000000000006,538.2413970758051L498.4615384615385,538.5696361355082L501.92307692307696,536.3066121372502L505.3846153846154,536.1807646924146L508.8461538461538,536.2068246939307L512.3076923076923,535.8969856599357L515.7692307692307,537.7954131540129L519.2307692307692,538.3834722725626L522.6923076923077,537.7457097657536L526.1538461538462,537.2224086949573L529.6153846153846,537.0889948068578L533.0769230769231,537.4709007017951L536.5384615384615,537.4435203479912L540,537.269315623081L543.4615384615385,538.8946489635512L546.9230769230769,546.4318893264667L550.3846153846155,538.5615953682857L553.8461538461539,542.4738111761012L557.3076923076924,538.8065629317947L560.7692307692308,537.5746127691726L564.2307692307692,538.0204323871862L567.6923076923076,537.7381973664502L571.1538461538461,538.750595521677L574.6153846153845,539.8460363015325L578.0769230769231,538.5748618587688L581.5384615384615,538.8226293845388L585,545.5605823620758L588.4615384615385,541.1398243659322L591.9230769230769,541.689159467211L595.3846153846154,538.0981217536863L598.8461538461538,539.4283231248177L602.3076923076923,542.4812672868997L605.7692307692308,538.78708782326L609.2307692307693,541.4204586538515L612.6923076923077,538.1306522155813L616.1538461538462,538.3290397187968L619.6153846153846,538.0417114550097L623.0769230769231,537.2586542733144L626.5384615384615,542.6399917606468L630,539.6541765125089L633.4615384615385,539.9781762975614L636.9230769230769,538.0327304048234L640.3846153846154,537.6693984680486L643.8461538461538,538.9689309507503L647.3076923076923,538.502368981855L650.7692307692307,537.5190557895285L654.2307692307692,538.7101267164247L657.6923076923076,546.1624163311138L661.1538461538462,537.899706609791L664.6153846153846,541.3056855059637L668.0769230769231,543.9242148515159L671.5384615384615,539.0367840076989L675,545.1249793080616L678.4615384615385,539.6033496562025L681.9230769230769,544.3563371075547L685.3846153846154,540.4159905590795L688.8461538461538,540.710278563062L692.3076923076924,539.436042679777L695.7692307692308,538.9723836434398L699.2307692307693,539.9374843061364L702.6923076923077,546.019956850054L706.1538461538462,542.7792201489822L709.6153846153846,545.3170147380184L713.0769230769231,546.7024243566017L716.5384615384615,543.830156380124L720,543.8428030953772L723.4615384615385,542.0015777059218L726.9230769230769,540.7763769077637L730.3846153846154,542.6095231595749L733.8461538461538,541.6621427126163L737.3076923076923,542.4156699368365L740.7692307692307,542.8661170003926L744.2307692307692,542.6403016069402L747.6923076923077,543.9502220714656L751.1538461538462,543.4576115555085L754.6153846153846,544.6141400845964L758.0769230769231,543.8020305618163L761.5384615384615,544.6255935015159L765,546.7143498908997L768.4615384615385,547.7573773558435L771.9230769230769,545.5968055394675L775.3846153846155,544.3372943625484L778.8461538461539,543.5118637392932L782.3076923076924,544.9866631186127L785.7692307692308,544.4781634548042L789.2307692307692,545.9602649006623L792.6923076923076,544.9295478833479L796.1538461538461,543.8202598148998L799.6153846153845,547.2591701114542L803.0769230769231,543.7389015962026L806.5384615384615,546.1201697695734L810,543.330745979709L813.4615384615385,548.0698173531136L816.9230769230769,546.84004267026L820.3846153846154,547.0952246397287L823.8461538461538,548.1135313531353L827.3076923076923,548.5543617618699L830.7692307692308,545.8365138893498L834.2307692307693,546.15927389122L837.6923076923077,547.1661426202321L841.1538461538462,548.2890832663659L844.6153846153846,548.8816832833318L848.0769230769231,549.4694021055551L851.5384615384615,547.8125095114899L855,548.7510592932445L858.4615384615385,548.8335743455357L861.9230769230769,549.8302156218764L865.3846153846154,548.3270109911488L868.8461538461538,549.8974574883633L872.3076923076923,549.4019305263602L875.7692307692307,549.724493850433L879.2307692307692,553.5545561568887L882.6923076923076,548.6517558528428L886.1538461538462,553.5208582340953" style="fill: none; stroke: #98df8a; stroke-width: 2;"></path></g></g><path class="foreground" d="" style="display: none; fill: none;"></path></g><g transform="translate(0,0)"><path class="background" d="M0,0h900v600h-900Z" style="fill: none;"></path><g><g class="mark-line role-mark marks"><path d="M6.923076923076923,582.4194992796791L10.384615384615385,563.8207614430344L13.846153846153847,539.2666397378932L17.30769230769231,516.7307919971588L20.76923076923077,488.9826370792989L24.230769230769234,469.98226321390564L27.692307692307693,417.8856515497002L31.153846153846157,453.5360771034123L34.61538461538462,436.12149255502163L38.07692307692308,402.81085328422347L41.53846153846154,369.60500405421067L45,382.66491731971684L48.46153846153847,325.75431428875413L51.92307692307693,320.7250083143156L55.38461538461539,224.13540468996493L58.84615384615385,361.1695658801809L62.307692307692314,298.3016241299304L65.76923076923077,313.6569200458341L69.23076923076924,305.0896251892413L72.6923076923077,258.1665132184664L76.15384615384616,224.58750845940574L79.61538461538461,221.92595946284635L83.07692307692308,117.77617625862256L86.53846153846155,281.067063668576L90,252.50363783588355L93.46153846153847,238.98676536128818L96.92307692307693,215.962607763271L100.38461538461539,212.99157569199667L103.84615384615385,178.46461440158302L107.3076923076923,182.08356697048652L110.76923076923077,74.29728752260398L114.23076923076923,223.04528424824892L117.6923076923077,241.57867508439648L121.15384615384615,201.85933166383933L124.61538461538463,190.32842672787692L128.07692307692307,176.05567419630108L131.53846153846155,162.38999617377996L135,140.2112814852773L138.46153846153848,66.5807006232538L141.9230769230769,189.9114454633646L145.3846153846154,162.3487054117124L148.84615384615384,196.4428931082558L152.30769230769232,188.18328070070908L155.76923076923077,199.2035695437317L159.23076923076923,184.9194980221153L162.69230769230768,213.09158986537L166.15384615384616,135.31556316553952L169.6153846153846,254.3861134631668L173.0769230769231,244.75422654838624L176.53846153846155,252.02222908305038L180,209.93829105283274L183.46153846153845,243.54666598807376L186.92307692307693,202.83909029661868L190.3846153846154,235.8201231137985L193.84615384615387,163.7917731063255L197.3076923076923,245.29428764088232L200.76923076923077,236.27806398270047L204.23076923076923,242.55383407326875L207.6923076923077,206.9364161849712L211.15384615384616,230.52975877577245L214.6153846153846,202.7235698218737L218.07692307692307,230.44692737430165L221.53846153846155,170.72930152271758L225,250.35901180479493L228.46153846153845,217.48024174802416L231.9230769230769,243.6802540038287L235.3846153846154,196.85103982357614L238.84615384615384,230.52588331963847L242.3076923076923,200.39337027176126L245.76923076923075,217.4155673117703L249.23076923076925,167.71392833492746L252.6923076923077,239.903807933858L256.15384615384613,214.69340452391305L259.6153846153846,238.4209630763995L263.0769230769231,202.90364978263068L266.53846153846155,217.22965916642934L270,191.05628373168847L273.46153846153845,210.33862200675776L276.92307692307696,148.44466579509844L280.3846153846154,237.7688768606224L283.8461538461538,211.65299223700072L287.30769230769226,224.29663690317065L290.7692307692308,196.61016949152548L294.2307692307692,234.81169474727457L297.6923076923077,199.77081012255294L301.15384615384613,206.18343195266274L304.61538461538464,147.1111340454444L308.0769230769231,231.66537497150668L311.53846153846155,204.80244905768674L315,227.4262273388911L318.46153846153845,193.42187058491098L321.9230769230769,222.1850107066381L325.38461538461536,198.11290466422912L328.8461538461538,211.0571235423357L332.3076923076923,155.66647759500842L335.7692307692308,232.72817726072478L339.2307692307692,211.9134775374376L342.6923076923077,223.40766970541702L346.1538461538462,202.07544961572975L349.61538461538464,221.10173426191443L353.0769230769231,187.54401647945895L356.53846153846155,218.3459641048023L360,142.09438426098873L363.46153846153845,225.68807339449546L366.9230769230769,210.9339036561767L370.38461538461536,220.43196333674615L373.84615384615387,198.90161571721163L377.3076923076923,217.84778392696657L380.7692307692308,184.00323575509378L384.2307692307692,226.2116040955632L387.69230769230774,155.681264731544L391.1538461538462,220.8166295471418L394.6153846153846,210.1816256988785L398.07692307692304,215.5975165368298L401.53846153846155,189.52605253123392L405,210.8315565031983L408.46153846153845,177.32601223159682L411.9230769230769,204.21372790793265L415.3846153846154,133.39766269968908L418.84615384615387,221.32190091176827L422.3076923076923,202.55895882418952L425.7692307692308,219.106343816445L429.2307692307692,193.37666811115926L432.6923076923077,211.79313728560535L436.15384615384613,179.56537704042458L439.6153846153846,215.07510578986427L443.0769230769231,150.14974273782323L446.53846153846155,227.26440264830853L450,212.59439050701187L453.46153846153845,222.26135370472275L456.9230769230769,181.95608782435124L460.38461538461536,209.59039272963332L463.8461538461538,178.03568431134414L467.3076923076923,212.63401369049478L470.7692307692308,139.32270082464737L474.2307692307692,207.46386172110476L477.6923076923077,203.11624628398053L481.15384615384613,211.92497415448236L484.6153846153846,188.76889848812095L488.07692307692304,213.21011673151756L491.5384615384615,176.63506962670203L495.00000000000006,206.73887836194464L498.4615384615385,140.73089700996678L501.92307692307696,223.02905658387385L505.3846153846154,200.85035137576276L508.8461538461538,220.62459336369548L512.3076923076923,188.35715628074604L515.7692307692307,204.0858929170862L519.2307692307692,179.90115321252057L522.6923076923077,208.85881794972713L526.1538461538462,136.62527650788962L529.6153846153846,214.64427853470067L533.0769230769231,202.79403361510117L536.5384615384615,213.3437470415601L540,188.4568324927631L543.4615384615385,204.84428413136234L546.9230769230769,184.4344564887439L550.3846153846155,206.45834764095872L553.8461538461539,151.39107936213418L557.3076923076924,205.6231261466864L560.7692307692308,191.411498042448L564.2307692307692,210.53439392959544L567.6923076923076,183.0647882186659L571.1538461538461,210.08435219410475L574.6153846153845,190.34389278765224L578.0769230769231,212.8741732669225L581.5384615384615,147.22813970770378L585,219.8277414555847L588.4615384615385,211.49770678475406L591.9230769230769,227.48922777174118L595.3846153846154,203.49416587827184L598.8461538461538,217.46325326115556L602.3076923076923,190.08282892640972L605.7692307692308,211.3288540500186L609.2307692307693,172.3327749860413L612.6923076923077,211.572038070233L616.1538461538462,198.96656987566078L619.6153846153846,205.5492794554276L623.0769230769231,191.72781854569715L626.5384615384615,220.89918998026005L630,178.24364303636293L633.4615384615385,208.43701640359023L636.9230769230769,135.88259011370062L640.3846153846154,208.43596473517727L643.8461538461538,185.61826252377938L647.3076923076923,207.33643779517158L650.7692307692307,218.79964471513767L654.2307692307692,204.37994722955148L657.6923076923076,181.02065198839392L661.1538461538462,204.73103887826645L664.6153846153846,170.4821630513005L668.0769230769231,241.45122020270654L671.5384615384615,227.66992551210424L675,255.26757859371253L678.4615384615385,220.64883389968344L681.9230769230769,231.5978445989335L685.3846153846154,181.03536067892495L688.8461538461538,256.00418997981654L692.3076923076924,166.93414851611257L695.7692307692308,202.6744186046511L699.2307692307693,189.95803038363772L702.6923076923077,253.01981178801384L706.1538461538462,207.35264735264738L709.6153846153846,244.16635537292987L713.0769230769231,261.856617216246L716.5384615384615,253.5972608602611L720,165.1987821820224L723.4615384615385,226.91134725048357L726.9230769230769,190.89792911516741L730.3846153846154,256.6140374756137L733.8461538461538,206.36373003606388L737.3076923076923,210.2910413824465L740.7692307692307,231.08868197218476L744.2307692307692,229.2666242068266L747.6923076923077,192.31457208943712L751.1538461538462,236.23792970258793L754.6153846153846,245.3977659270964L758.0769230769231,231.13599348534203L761.5384615384615,188.40449213376354L765,300.8747185445375L768.4615384615385,254.7672909326905L771.9230769230769,313.2705874372541L775.3846153846155,228.81114012184506L778.8461538461539,253.36515224746253L782.3076923076924,235.91336981361513L785.7692307692308,290.8278186598903L789.2307692307692,260.7439824945295L792.6923076923076,251.11163291263082L796.1538461538461,247.8718822193508L799.6153846153845,272.8916053656426L803.0769230769231,219.86331816954362L806.5384615384615,308.6074670455443L810,213.42552793870306L813.4615384615385,316.02389594676345L816.9230769230769,277.05856270677714L820.3846153846154,245.25940373363048L823.8461538461538,315.27682914208833L827.3076923076923,321.4648768034879L830.7692307692308,297.17493157675L834.2307692307693,293.7938627095254L837.6923076923077,282.95900007961154L841.1538461538462,334.51999365280864L844.6153846153846,324.1675523941896L848.0769230769231,344.90650467476627L851.5384615384615,311.58620689655174L855,344.4334380582763L858.4615384615385,309.05529120405157L861.9230769230769,348.63060742648634L865.3846153846154,335.4102075629101L868.8461538461538,360.591693490701L872.3076923076923,322.2583259367885L875.7692307692307,351.63128823153477L879.2307692307692,307.1878045199097L882.6923076923076,357.7336533087873L886.1538461538462,317.16944010763746" style="fill: none; stroke: #ffbb78; stroke-width: 2;"></path></g></g><path class="foreground" d="" style="display: none; fill: none;"></path></g></g><g class="mark-group role-legend"><g transform="translate(918,0)"><path class="background" d="M0,0h101v92h-101Z" style="pointer-events: none; fill: none;"></path><g><g class="mark-group role-legend-entry"><g transform="translate(0,16)"><path class="background" d="M0,0h0v0h0Z" style="pointer-events: none; fill: none;"></path><g><g class="mark-group role-scope"><g transform="translate(0,0)"><path class="background" d="M0,0h101v11h-101Z" style="pointer-events: none; fill: none; opacity: 1;"></path><g><g class="mark-symbol role-legend-symbol" style="pointer-events: none;"><path transform="translate(6,6)" d="M-5,0L5,0" style="fill: none; stroke: #1f77b4; stroke-width: 1.5; opacity: 1;"></path></g><g class="mark-text role-legend-label" style="pointer-events: none;"><text text-anchor="start" transform="translate(16,9)" style="font-family: sans-serif; font-size: 10px; fill: #000; opacity: 1;">Clang</text></g></g><path class="foreground" d="" style="pointer-events: none; display: none; fill: none;"></path></g><g transform="translate(0,13)"><path class="background" d="M0,0h101v11h-101Z" style="pointer-events: none; fill: none; opacity: 1;"></path><g><g class="mark-symbol role-legend-symbol" style="pointer-events: none;"><path transform="translate(6,6)" d="M-5,0L5,0" style="fill: none; stroke: #aec7e8; stroke-width: 1.5; opacity: 1;"></path></g><g class="mark-text role-legend-label" style="pointer-events: none;"><text text-anchor="start" transform="translate(16,9)" style="font-family: sans-serif; font-size: 10px; fill: #000; opacity: 1;">GFortran</text></g></g><path class="foreground" d="" style="pointer-events: none; display: none; fill: none;"></path></g><g transform="translate(0,26)"><path class="background" d="M0,0h101v11h-101Z" style="pointer-events: none; fill: none; opacity: 1;"></path><g><g class="mark-symbol role-legend-symbol" style="pointer-events: none;"><path transform="translate(6,6)" d="M-5,0L5,0" style="fill: none; stroke: #ff7f0e; stroke-width: 1.5; opacity: 1;"></path></g><g class="mark-text role-legend-label" style="pointer-events: none;"><text text-anchor="start" transform="translate(16,9)" style="font-family: sans-serif; font-size: 10px; fill: #000; opacity: 1;">Julia</text></g></g><path class="foreground" d="" style="pointer-events: none; display: none; fill: none;"></path></g><g transform="translate(0,39)"><path class="background" d="M0,0h101v11h-101Z" style="pointer-events: none; fill: none; opacity: 1;"></path><g><g class="mark-symbol role-legend-symbol" style="pointer-events: none;"><path transform="translate(6,6)" d="M-5,0L5,0" style="fill: none; stroke: #ffbb78; stroke-width: 1.5; opacity: 1;"></path></g><g class="mark-text role-legend-label" style="pointer-events: none;"><text text-anchor="start" transform="translate(16,9)" style="font-family: sans-serif; font-size: 10px; fill: #000; opacity: 1;">LoopVectorization</text></g></g><path class="foreground" d="" style="pointer-events: none; display: none; fill: none;"></path></g><g transform="translate(0,52)"><path class="background" d="M0,0h101v11h-101Z" style="pointer-events: none; fill: none; opacity: 1;"></path><g><g class="mark-symbol role-legend-symbol" style="pointer-events: none;"><path transform="translate(6,6)" d="M-5,0L5,0" style="fill: none; stroke: #2ca02c; stroke-width: 1.5; opacity: 1;"></path></g><g class="mark-text role-legend-label" style="pointer-events: none;"><text text-anchor="start" transform="translate(16,9)" style="font-family: sans-serif; font-size: 10px; fill: #000; opacity: 1;">icc</text></g></g><path class="foreground" d="" style="pointer-events: none; display: none; fill: none;"></path></g><g transform="translate(0,65)"><path class="background" d="M0,0h101v11h-101Z" style="pointer-events: none; fill: none; opacity: 1;"></path><g><g class="mark-symbol role-legend-symbol" style="pointer-events: none;"><path transform="translate(6,6)" d="M-5,0L5,0" style="fill: none; stroke: #98df8a; stroke-width: 1.5; opacity: 1;"></path></g><g class="mark-text role-legend-label" style="pointer-events: none;"><text text-anchor="start" transform="translate(16,9)" style="font-family: sans-serif; font-size: 10px; fill: #000; opacity: 1;">ifort</text></g></g><path class="foreground" d="" style="pointer-events: none; display: none; fill: none;"></path></g></g></g><path class="foreground" d="" style="pointer-events: none; display: none; fill: none;"></path></g></g><g class="mark-text role-legend-title" style="pointer-events: none;"><text text-anchor="start" transform="translate(0,9)" style="font-family: sans-serif; font-size: 11px; font-weight: bold; fill: #000; opacity: 1;">Method</text></g></g><path class="foreground" d="" style="pointer-events: none; display: none; fill: none;"></path></g></g></g><path class="foreground" d="" style="display: none; fill: none;"></path></g></g></g></svg>
