<?xml version="1.0" encoding="utf-8"?>
<!DOCTYPE svg PUBLIC "-//W3C//DTD SVG 1.1//EN" "http://www.w3.org/Graphics/SVG/1.1/DTD/svg11.dtd">
<svg class="marks" width="1063" height="647" viewBox="0 0 1063 647" version="1.1" xmlns="http://www.w3.org/2000/svg" xmlns:xlink="http://www.w3.org/1999/xlink"><rect width="1063" height="647" style="fill: white;"></rect><g transform="translate(39,10)"><g class="mark-group role-frame root"><g transform="translate(0,0)"><path class="background" d="M0.5,0.5h900v600h-900Z" style="fill: none; stroke: #ddd;"></path><g><g class="mark-group role-axis"><g transform="translate(0.5,600.5)"><path class="background" d="M0,0h0v0h0Z" style="pointer-events: none; fill: none;"></path><g><g class="mark-rule role-axis-grid" style="pointer-events: none;"><line transform="translate(0,-600)" x2="0" y2="600" style="fill: none; stroke: #ddd; stroke-width: 1; opacity: 1;"></line><line transform="translate(35,-600)" x2="0" y2="600" style="fill: none; stroke: #ddd; stroke-width: 1; opacity: 1;"></line><line transform="translate(69,-600)" x2="0" y2="600" style="fill: none; stroke: #ddd; stroke-width: 1; opacity: 1;"></line><line transform="translate(104,-600)" x2="0" y2="600" style="fill: none; stroke: #ddd; stroke-width: 1; opacity: 1;"></line><line transform="translate(138,-600)" x2="0" y2="600" style="fill: none; stroke: #ddd; stroke-width: 1; opacity: 1;"></line><line transform="translate(173,-600)" x2="0" y2="600" style="fill: none; stroke: #ddd; stroke-width: 1; opacity: 1;"></line><line transform="translate(208,-600)" x2="0" y2="600" style="fill: none; stroke: #ddd; stroke-width: 1; opacity: 1;"></line><line transform="translate(242,-600)" x2="0" y2="600" style="fill: none; stroke: #ddd; stroke-width: 1; opacity: 1;"></line><line transform="translate(277,-600)" x2="0" y2="600" style="fill: none; stroke: #ddd; stroke-width: 1; opacity: 1;"></line><line transform="translate(312,-600)" x2="0" y2="600" style="fill: none; stroke: #ddd; stroke-width: 1; opacity: 1;"></line><line transform="translate(346,-600)" x2="0" y2="600" style="fill: none; stroke: #ddd; stroke-width: 1; opacity: 1;"></line><line transform="translate(381,-600)" x2="0" y2="600" style="fill: none; stroke: #ddd; stroke-width: 1; opacity: 1;"></line><line transform="translate(415,-600)" x2="0" y2="600" style="fill: none; stroke: #ddd; stroke-width: 1; opacity: 1;"></line><line transform="translate(450,-600)" x2="0" y2="600" style="fill: none; stroke: #ddd; stroke-width: 1; opacity: 1;"></line><line transform="translate(485,-600)" x2="0" y2="600" style="fill: none; stroke: #ddd; stroke-width: 1; opacity: 1;"></line><line transform="translate(519,-600)" x2="0" y2="600" style="fill: none; stroke: #ddd; stroke-width: 1; opacity: 1;"></line><line transform="translate(554,-600)" x2="0" y2="600" style="fill: none; stroke: #ddd; stroke-width: 1; opacity: 1;"></line><line transform="translate(588,-600)" x2="0" y2="600" style="fill: none; stroke: #ddd; stroke-width: 1; opacity: 1;"></line><line transform="translate(623,-600)" x2="0" y2="600" style="fill: none; stroke: #ddd; stroke-width: 1; opacity: 1;"></line><line transform="translate(658,-600)" x2="0" y2="600" style="fill: none; stroke: #ddd; stroke-width: 1; opacity: 1;"></line><line transform="translate(692,-600)" x2="0" y2="600" style="fill: none; stroke: #ddd; stroke-width: 1; opacity: 1;"></line><line transform="translate(727,-600)" x2="0" y2="600" style="fill: none; stroke: #ddd; stroke-width: 1; opacity: 1;"></line><line transform="translate(762,-600)" x2="0" y2="600" style="fill: none; stroke: #ddd; stroke-width: 1; opacity: 1;"></line><line transform="translate(796,-600)" x2="0" y2="600" style="fill: none; stroke: #ddd; stroke-width: 1; opacity: 1;"></line><line transform="translate(831,-600)" x2="0" y2="600" style="fill: none; stroke: #ddd; stroke-width: 1; opacity: 1;"></line><line transform="translate(865,-600)" x2="0" y2="600" style="fill: none; stroke: #ddd; stroke-width: 1; opacity: 1;"></line><line transform="translate(900,-600)" x2="0" y2="600" style="fill: none; stroke: #ddd; stroke-width: 1; opacity: 1;"></line></g></g><path class="foreground" d="" style="pointer-events: none; display: none; fill: none;"></path></g></g><g class="mark-group role-axis"><g transform="translate(0.5,0.5)"><path class="background" d="M0,0h0v0h0Z" style="pointer-events: none; fill: none;"></path><g><g class="mark-rule role-axis-grid" style="pointer-events: none;"><line transform="translate(0,600)" x2="900" y2="0" style="fill: none; stroke: #ddd; stroke-width: 1; opacity: 1;"></line><line transform="translate(0,563)" x2="900" y2="0" style="fill: none; stroke: #ddd; stroke-width: 1; opacity: 1;"></line><line transform="translate(0,525)" x2="900" y2="0" style="fill: none; stroke: #ddd; stroke-width: 1; opacity: 1;"></line><line transform="translate(0,488)" x2="900" y2="0" style="fill: none; stroke: #ddd; stroke-width: 1; opacity: 1;"></line><line transform="translate(0,450)" x2="900" y2="0" style="fill: none; stroke: #ddd; stroke-width: 1; opacity: 1;"></line><line transform="translate(0,413)" x2="900" y2="0" style="fill: none; stroke: #ddd; stroke-width: 1; opacity: 1;"></line><line transform="translate(0,375)" x2="900" y2="0" style="fill: none; stroke: #ddd; stroke-width: 1; opacity: 1;"></line><line transform="translate(0,338)" x2="900" y2="0" style="fill: none; stroke: #ddd; stroke-width: 1; opacity: 1;"></line><line transform="translate(0,300)" x2="900" y2="0" style="fill: none; stroke: #ddd; stroke-width: 1; opacity: 1;"></line><line transform="translate(0,263)" x2="900" y2="0" style="fill: none; stroke: #ddd; stroke-width: 1; opacity: 1;"></line><line transform="translate(0,225)" x2="900" y2="0" style="fill: none; stroke: #ddd; stroke-width: 1; opacity: 1;"></line><line transform="translate(0,188)" x2="900" y2="0" style="fill: none; stroke: #ddd; stroke-width: 1; opacity: 1;"></line><line transform="translate(0,150)" x2="900" y2="0" style="fill: none; stroke: #ddd; stroke-width: 1; opacity: 1;"></line><line transform="translate(0,113)" x2="900" y2="0" style="fill: none; stroke: #ddd; stroke-width: 1; opacity: 1;"></line><line transform="translate(0,75)" x2="900" y2="0" style="fill: none; stroke: #ddd; stroke-width: 1; opacity: 1;"></line><line transform="translate(0,38)" x2="900" y2="0" style="fill: none; stroke: #ddd; stroke-width: 1; opacity: 1;"></line><line transform="translate(0,0)" x2="900" y2="0" style="fill: none; stroke: #ddd; stroke-width: 1; opacity: 1;"></line></g></g><path class="foreground" d="" style="pointer-events: none; display: none; fill: none;"></path></g></g><g class="mark-group role-axis"><g transform="translate(0.5,600.5)"><path class="background" d="M0,0h0v0h0Z" style="pointer-events: none; fill: none;"></path><g><g class="mark-rule role-axis-tick" style="pointer-events: none;"><line transform="translate(0,0)" x2="0" y2="5" style="fill: none; stroke: #888; stroke-width: 1; opacity: 1;"></line><line transform="translate(35,0)" x2="0" y2="5" style="fill: none; stroke: #888; stroke-width: 1; opacity: 1;"></line><line transform="translate(69,0)" x2="0" y2="5" style="fill: none; stroke: #888; stroke-width: 1; opacity: 1;"></line><line transform="translate(104,0)" x2="0" y2="5" style="fill: none; stroke: #888; stroke-width: 1; opacity: 1;"></line><line transform="translate(138,0)" x2="0" y2="5" style="fill: none; stroke: #888; stroke-width: 1; opacity: 1;"></line><line transform="translate(173,0)" x2="0" y2="5" style="fill: none; stroke: #888; stroke-width: 1; opacity: 1;"></line><line transform="translate(208,0)" x2="0" y2="5" style="fill: none; stroke: #888; stroke-width: 1; opacity: 1;"></line><line transform="translate(242,0)" x2="0" y2="5" style="fill: none; stroke: #888; stroke-width: 1; opacity: 1;"></line><line transform="translate(277,0)" x2="0" y2="5" style="fill: none; stroke: #888; stroke-width: 1; opacity: 1;"></line><line transform="translate(312,0)" x2="0" y2="5" style="fill: none; stroke: #888; stroke-width: 1; opacity: 1;"></line><line transform="translate(346,0)" x2="0" y2="5" style="fill: none; stroke: #888; stroke-width: 1; opacity: 1;"></line><line transform="translate(381,0)" x2="0" y2="5" style="fill: none; stroke: #888; stroke-width: 1; opacity: 1;"></line><line transform="translate(415,0)" x2="0" y2="5" style="fill: none; stroke: #888; stroke-width: 1; opacity: 1;"></line><line transform="translate(450,0)" x2="0" y2="5" style="fill: none; stroke: #888; stroke-width: 1; opacity: 1;"></line><line transform="translate(485,0)" x2="0" y2="5" style="fill: none; stroke: #888; stroke-width: 1; opacity: 1;"></line><line transform="translate(519,0)" x2="0" y2="5" style="fill: none; stroke: #888; stroke-width: 1; opacity: 1;"></line><line transform="translate(554,0)" x2="0" y2="5" style="fill: none; stroke: #888; stroke-width: 1; opacity: 1;"></line><line transform="translate(588,0)" x2="0" y2="5" style="fill: none; stroke: #888; stroke-width: 1; opacity: 1;"></line><line transform="translate(623,0)" x2="0" y2="5" style="fill: none; stroke: #888; stroke-width: 1; opacity: 1;"></line><line transform="translate(658,0)" x2="0" y2="5" style="fill: none; stroke: #888; stroke-width: 1; opacity: 1;"></line><line transform="translate(692,0)" x2="0" y2="5" style="fill: none; stroke: #888; stroke-width: 1; opacity: 1;"></line><line transform="translate(727,0)" x2="0" y2="5" style="fill: none; stroke: #888; stroke-width: 1; opacity: 1;"></line><line transform="translate(762,0)" x2="0" y2="5" style="fill: none; stroke: #888; stroke-width: 1; opacity: 1;"></line><line transform="translate(796,0)" x2="0" y2="5" style="fill: none; stroke: #888; stroke-width: 1; opacity: 1;"></line><line transform="translate(831,0)" x2="0" y2="5" style="fill: none; stroke: #888; stroke-width: 1; opacity: 1;"></line><line transform="translate(865,0)" x2="0" y2="5" style="fill: none; stroke: #888; stroke-width: 1; opacity: 1;"></line><line transform="translate(900,0)" x2="0" y2="5" style="fill: none; stroke: #888; stroke-width: 1; opacity: 1;"></line></g><g class="mark-text role-axis-label" style="pointer-events: none;"><text text-anchor="start" transform="translate(0,15)" style="font-family: sans-serif; font-size: 10px; fill: #000; opacity: 1;">0</text><text text-anchor="middle" transform="translate(34.61538461538462,15)" style="font-family: sans-serif; font-size: 10px; fill: #000; opacity: 1;">10</text><text text-anchor="middle" transform="translate(69.23076923076924,15)" style="font-family: sans-serif; font-size: 10px; fill: #000; opacity: 1;">20</text><text text-anchor="middle" transform="translate(103.84615384615385,15)" style="font-family: sans-serif; font-size: 10px; fill: #000; opacity: 1;">30</text><text text-anchor="middle" transform="translate(138.46153846153848,15)" style="font-family: sans-serif; font-size: 10px; fill: #000; opacity: 1;">40</text><text text-anchor="middle" transform="translate(173.0769230769231,15)" style="font-family: sans-serif; font-size: 10px; fill: #000; opacity: 1;">50</text><text text-anchor="middle" transform="translate(207.6923076923077,15)" style="font-family: sans-serif; font-size: 10px; fill: #000; opacity: 1;">60</text><text text-anchor="middle" transform="translate(242.3076923076923,15)" style="font-family: sans-serif; font-size: 10px; fill: #000; opacity: 1;">70</text><text text-anchor="middle" transform="translate(276.92307692307696,15)" style="font-family: sans-serif; font-size: 10px; fill: #000; opacity: 1;">80</text><text text-anchor="middle" transform="translate(311.53846153846155,15)" style="font-family: sans-serif; font-size: 10px; fill: #000; opacity: 1;">90</text><text text-anchor="middle" transform="translate(346.1538461538462,15)" style="font-family: sans-serif; font-size: 10px; fill: #000; opacity: 1;">100</text><text text-anchor="middle" transform="translate(380.7692307692308,15)" style="font-family: sans-serif; font-size: 10px; fill: #000; opacity: 1;">110</text><text text-anchor="middle" transform="translate(415.3846153846154,15)" style="font-family: sans-serif; font-size: 10px; fill: #000; opacity: 1;">120</text><text text-anchor="middle" transform="translate(450,15)" style="font-family: sans-serif; font-size: 10px; fill: #000; opacity: 1;">130</text><text text-anchor="middle" transform="translate(484.6153846153846,15)" style="font-family: sans-serif; font-size: 10px; fill: #000; opacity: 1;">140</text><text text-anchor="middle" transform="translate(519.2307692307692,15)" style="font-family: sans-serif; font-size: 10px; fill: #000; opacity: 1;">150</text><text text-anchor="middle" transform="translate(553.8461538461539,15)" style="font-family: sans-serif; font-size: 10px; fill: #000; opacity: 1;">160</text><text text-anchor="middle" transform="translate(588.4615384615385,15)" style="font-family: sans-serif; font-size: 10px; fill: #000; opacity: 1;">170</text><text text-anchor="middle" transform="translate(623.0769230769231,15)" style="font-family: sans-serif; font-size: 10px; fill: #000; opacity: 1;">180</text><text text-anchor="middle" transform="translate(657.6923076923076,15)" style="font-family: sans-serif; font-size: 10px; fill: #000; opacity: 1;">190</text><text text-anchor="middle" transform="translate(692.3076923076924,15)" style="font-family: sans-serif; font-size: 10px; fill: #000; opacity: 1;">200</text><text text-anchor="middle" transform="translate(726.9230769230769,15)" style="font-family: sans-serif; font-size: 10px; fill: #000; opacity: 1;">210</text><text text-anchor="middle" transform="translate(761.5384615384615,15)" style="font-family: sans-serif; font-size: 10px; fill: #000; opacity: 1;">220</text><text text-anchor="middle" transform="translate(796.1538461538461,15)" style="font-family: sans-serif; font-size: 10px; fill: #000; opacity: 1;">230</text><text text-anchor="middle" transform="translate(830.7692307692308,15)" style="font-family: sans-serif; font-size: 10px; fill: #000; opacity: 1;">240</text><text text-anchor="middle" transform="translate(865.3846153846154,15)" style="font-family: sans-serif; font-size: 10px; fill: #000; opacity: 1;">250</text><text text-anchor="end" transform="translate(900,15)" style="font-family: sans-serif; font-size: 10px; fill: #000; opacity: 1;">260</text></g><g class="mark-rule role-axis-domain" style="pointer-events: none;"><line transform="translate(0,0)" x2="900" y2="0" style="fill: none; stroke: #888; stroke-width: 1; opacity: 1;"></line></g><g class="mark-text role-axis-title" style="pointer-events: none;"><text text-anchor="middle" transform="translate(450,30)" style="font-family: sans-serif; font-size: 11px; font-weight: bold; fill: #000; opacity: 1;">Size</text></g></g><path class="foreground" d="" style="pointer-events: none; display: none; fill: none;"></path></g></g><g class="mark-group role-axis"><g transform="translate(0.5,0.5)"><path class="background" d="M0,0h0v0h0Z" style="pointer-events: none; fill: none;"></path><g><g class="mark-rule role-axis-tick" style="pointer-events: none;"><line transform="translate(0,600)" x2="-5" y2="0" style="fill: none; stroke: #888; stroke-width: 1; opacity: 1;"></line><line transform="translate(0,563)" x2="-5" y2="0" style="fill: none; stroke: #888; stroke-width: 1; opacity: 1;"></line><line transform="translate(0,525)" x2="-5" y2="0" style="fill: none; stroke: #888; stroke-width: 1; opacity: 1;"></line><line transform="translate(0,488)" x2="-5" y2="0" style="fill: none; stroke: #888; stroke-width: 1; opacity: 1;"></line><line transform="translate(0,450)" x2="-5" y2="0" style="fill: none; stroke: #888; stroke-width: 1; opacity: 1;"></line><line transform="translate(0,413)" x2="-5" y2="0" style="fill: none; stroke: #888; stroke-width: 1; opacity: 1;"></line><line transform="translate(0,375)" x2="-5" y2="0" style="fill: none; stroke: #888; stroke-width: 1; opacity: 1;"></line><line transform="translate(0,338)" x2="-5" y2="0" style="fill: none; stroke: #888; stroke-width: 1; opacity: 1;"></line><line transform="translate(0,300)" x2="-5" y2="0" style="fill: none; stroke: #888; stroke-width: 1; opacity: 1;"></line><line transform="translate(0,263)" x2="-5" y2="0" style="fill: none; stroke: #888; stroke-width: 1; opacity: 1;"></line><line transform="translate(0,225)" x2="-5" y2="0" style="fill: none; stroke: #888; stroke-width: 1; opacity: 1;"></line><line transform="translate(0,188)" x2="-5" y2="0" style="fill: none; stroke: #888; stroke-width: 1; opacity: 1;"></line><line transform="translate(0,150)" x2="-5" y2="0" style="fill: none; stroke: #888; stroke-width: 1; opacity: 1;"></line><line transform="translate(0,113)" x2="-5" y2="0" style="fill: none; stroke: #888; stroke-width: 1; opacity: 1;"></line><line transform="translate(0,75)" x2="-5" y2="0" style="fill: none; stroke: #888; stroke-width: 1; opacity: 1;"></line><line transform="translate(0,38)" x2="-5" y2="0" style="fill: none; stroke: #888; stroke-width: 1; opacity: 1;"></line><line transform="translate(0,0)" x2="-5" y2="0" style="fill: none; stroke: #888; stroke-width: 1; opacity: 1;"></line></g><g class="mark-text role-axis-label" style="pointer-events: none;"><text text-anchor="end" transform="translate(-7,603)" style="font-family: sans-serif; font-size: 10px; fill: #000; opacity: 1;">0</text><text text-anchor="end" transform="translate(-7,565.5)" style="font-family: sans-serif; font-size: 10px; fill: #000; opacity: 1;">5</text><text text-anchor="end" transform="translate(-7,528)" style="font-family: sans-serif; font-size: 10px; fill: #000; opacity: 1;">10</text><text text-anchor="end" transform="translate(-7,490.5)" style="font-family: sans-serif; font-size: 10px; fill: #000; opacity: 1;">15</text><text text-anchor="end" transform="translate(-7,453)" style="font-family: sans-serif; font-size: 10px; fill: #000; opacity: 1;">20</text><text text-anchor="end" transform="translate(-7,415.5)" style="font-family: sans-serif; font-size: 10px; fill: #000; opacity: 1;">25</text><text text-anchor="end" transform="translate(-7,378)" style="font-family: sans-serif; font-size: 10px; fill: #000; opacity: 1;">30</text><text text-anchor="end" transform="translate(-7,340.5)" style="font-family: sans-serif; font-size: 10px; fill: #000; opacity: 1;">35</text><text text-anchor="end" transform="translate(-7,303)" style="font-family: sans-serif; font-size: 10px; fill: #000; opacity: 1;">40</text><text text-anchor="end" transform="translate(-7,265.5)" style="font-family: sans-serif; font-size: 10px; fill: #000; opacity: 1;">45</text><text text-anchor="end" transform="translate(-7,228)" style="font-family: sans-serif; font-size: 10px; fill: #000; opacity: 1;">50</text><text text-anchor="end" transform="translate(-7,190.5)" style="font-family: sans-serif; font-size: 10px; fill: #000; opacity: 1;">55</text><text text-anchor="end" transform="translate(-7,153)" style="font-family: sans-serif; font-size: 10px; fill: #000; opacity: 1;">60</text><text text-anchor="end" transform="translate(-7,115.5)" style="font-family: sans-serif; font-size: 10px; fill: #000; opacity: 1;">65</text><text text-anchor="end" transform="translate(-7,78)" style="font-family: sans-serif; font-size: 10px; fill: #000; opacity: 1;">70</text><text text-anchor="end" transform="translate(-7,40.5)" style="font-family: sans-serif; font-size: 10px; fill: #000; opacity: 1;">75</text><text text-anchor="end" transform="translate(-7,3)" style="font-family: sans-serif; font-size: 10px; fill: #000; opacity: 1;">80</text></g><g class="mark-rule role-axis-domain" style="pointer-events: none;"><line transform="translate(0,600)" x2="0" y2="-600" style="fill: none; stroke: #888; stroke-width: 1; opacity: 1;"></line></g><g class="mark-text role-axis-title" style="pointer-events: none;"><text text-anchor="middle" transform="translate(-23,300) rotate(-90) translate(0,-2)" style="font-family: sans-serif; font-size: 11px; font-weight: bold; fill: #000; opacity: 1;">GFLOPS</text></g></g><path class="foreground" d="" style="pointer-events: none; display: none; fill: none;"></path></g></g><g class="mark-group role-scope pathgroup"><g transform="translate(0,0)"><path class="background" d="M0,0h900v600h-900Z" style="fill: none;"></path><g><g class="mark-line role-mark marks"><path d="M6.923076923076923,589.97690209275L10.384615384615385,588.5625990910052L13.846153846153847,588.0014287415169L17.30769230769231,587.6848712518868L20.76923076923077,587.50026311635L24.230769230769234,587.379050733089L27.692307692307693,590.415035238841L31.153846153846157,587.2400880139934L34.61538461538462,590.3679081362847L38.07692307692308,587.1885899352268L41.53846153846154,587.6828122903529L45,587.6170909717832L48.46153846153847,587.5671641791045L51.92307692307693,587.5241604252235L55.38461538461539,587.4867950247061L58.84615384615385,587.4554584657285L62.307692307692314,587.4284844796105L65.76923076923077,587.3987885424865L69.23076923076924,590.4729287960397L72.6923076923077,587.3556765612952L76.15384615384616,587.3411675067401L79.61538461538461,587.3207068333489L83.07692307692308,587.3091212810691L86.53846153846155,587.2914806072978L90,590.4165894518366L93.46153846153847,587.2735674676525L96.92307692307693,587.2597501911803L100.38461538461539,587.2747141896435L103.84615384615385,587.244330813695L107.3076923076923,587.2486731189509L110.76923076923077,587.2562225475842L114.23076923076923,587.2300652993654L117.6923076923077,587.2356456222395L121.15384615384615,587.2228812172775L124.61538461538463,590.3751164958062L128.07692307692307,587.2173196631271L131.53846153846155,587.2039199332777L135,587.1935877963416L138.46153846153848,587.2012045925089L141.9230769230769,587.1790692109828L145.3846153846154,587.182424346042L148.84615384615384,590.3461302211302L152.30769230769232,587.1671432284897L155.76923076923077,587.1605997314635L159.23076923076923,587.157749428789L162.69230769230768,587.149945250479L166.15384615384616,587.1546635182999L169.6153846153846,587.1482997481108L173.0769230769231,587.1393988299375L176.53846153846155,587.134751910618L180,587.1300582350306L183.46153846153845,587.1313463404118L186.92307692307693,587.1219258746104L190.3846153846154,587.1179859719439L193.84615384615387,587.1173115958372L197.3076923076923,587.1191697761194L200.76923076923077,587.1147895574849L204.23076923076923,587.1175113200975L207.6923076923077,587.1096382835318L211.15384615384616,587.1026913143944L214.6153846153846,587.1003316313103L218.07692307692307,587.1064130656339L221.53846153846155,590.3024901119715L225,587.0939049809531L228.46153846153845,587.0914584543871L231.9230769230769,587.089808945932L235.3846153846154,587.0883248286283L238.84615384615384,590.2967198964178L242.3076923076923,587.0866060355519L245.76923076923075,590.2975741199203L249.23076923076925,590.2954131673224L252.6923076923077,587.0810278934459L256.15384615384613,587.0801258327166L259.6153846153846,587.0758397606862L263.0769230769231,587.0849847427309L266.53846153846155,587.0749482791048L270,587.0762387124721L273.46153846153845,587.0745821353735L276.92307692307696,587.0708095004198L280.3846153846154,587.0724705991439L283.8461538461538,587.0698158454368L287.30769230769226,587.0686723396738L290.7692307692308,587.0635434191795L294.2307692307692,587.0617915981966L297.6923076923077,587.0653187753758L301.15384615384613,587.0595432847028L304.61538461538464,587.058314655342L308.0769230769231,587.0613349561206L311.53846153846155,587.0641064181572L315,587.0598274361771L318.46153846153845,587.0574831196556L321.9230769230769,587.0563465420912L325.38461538461536,587.0547071598469L328.8461538461538,590.2773318349655L332.3076923076923,587.0541832844898L335.7692307692308,587.0528130632332L339.2307692307692,587.0541406324336L342.6923076923077,587.0551872377894L346.1538461538462,587.0497897495277L349.61538461538464,587.0495414762374L353.0769230769231,587.0493419768032L356.53846153846155,590.2739708790222L360,590.2736557016307L363.46153846153845,587.0442354307413L366.9230769230769,590.2710356536502L370.38461538461536,587.0448494368859L373.84615384615387,587.0447417938532L377.3076923076923,587.0433434546466L380.7692307692308,587.0418122564172L384.2307692307692,587.0442174626608L387.69230769230774,587.0428970713331L391.1538461538462,587.0380447763571L394.6153846153846,587.0398817391848L398.07692307692304,587.0419859060763L401.53846153846155,587.0372944874274L405,587.0367392563763L408.46153846153845,587.036991062562L411.9230769230769,587.0366135598331L415.3846153846154,587.0359124994704L418.84615384615387,587.038504801383L422.3076923076923,587.0376770809142L425.7692307692308,587.0335932511008L429.2307692307692,587.0310391363023L432.6923076923077,587.033490409461L436.15384615384613,587.0303259413985L439.6153846153846,587.0344841717683L443.0769230769231,587.0493856244808L446.53846153846155,587.0302127269393L450,587.0351205482584L453.46153846153845,590.263836480786L456.9230769230769,587.0289017341041L460.38461538461536,590.260833423297L463.8461538461538,587.0315969547288L467.3076923076923,587.0269851549546L470.7692307692308,587.0309509668052L474.2307692307692,587.0279357318257L477.6923076923077,587.0269707104923L481.15384615384613,590.2603991634016L484.6153846153846,587.026336692261L488.07692307692304,587.0254364817346L491.5384615384615,587.0257626605435L495.00000000000006,587.0241650118697L498.4615384615385,590.259013904957L501.92307692307696,587.0244318594351L505.3846153846154,587.0230432789641L508.8461538461538,587.0240360387515L512.3076923076923,587.0211035566068L515.7692307692307,587.022078207885L519.2307692307692,587.0201704853947L522.6923076923077,587.0241851974183L526.1538461538462,587.0211969140888L529.6153846153846,587.0225382304218L533.0769230769231,587.0202436448862L536.5384615384615,590.2573161073633L540,587.0199584182191L543.4615384615385,587.0201981612879L546.9230769230769,590.2569447633041L550.3846153846155,587.0198266801435L553.8461538461539,587.0180490482289L557.3076923076924,587.018424029601L560.7692307692308,587.0187573953019L564.2307692307692,587.017160103478L567.6923076923076,587.019648960774L571.1538461538461,587.0172887758537L574.6153846153845,587.0198947076752L578.0769230769231,587.0173371255823L581.5384615384615,587.0160740379932L585,587.0175421396383L588.4615384615385,587.0165677721244L591.9230769230769,587.0152704058177L595.3846153846154,590.25353481065L598.8461538461538,590.2538042867504L602.3076923076923,587.0153621560165L605.7692307692308,587.0145013568521L609.2307692307693,587.0143585663134L612.6923076923077,587.0142765187595L616.1538461538462,587.0132512923385L619.6153846153846,587.0135849092591L623.0769230769231,587.013395285086L626.5384615384615,587.014274255976L630,587.0126727083186L633.4615384615385,587.0121077638127L636.9230769230769,587.0126634834959L640.3846153846154,587.0126029036232L643.8461538461538,587.0116015429463L647.3076923076923,587.011959589957L650.7692307692307,587.011912001637L654.2307692307692,590.2511944055585L657.6923076923076,590.2507244043786L661.1538461538462,587.0115285162184L664.6153846153846,587.0089911304833L668.0769230769231,587.0121681083165L671.5384615384615,587.010159415935L675,587.0097704290789L678.4615384615385,587.0095743270123L681.9230769230769,587.0097358444995L685.3846153846154,587.0098053228896L688.8461538461538,587.0141955511433L692.3076923076924,587.0087194418335L695.7692307692308,587.0086039702095L699.2307692307693,587.0082108449079L702.6923076923077,587.0066164487563L706.1538461538462,587.016098839386L709.6153846153846,587.0107694358925L713.0769230769231,587.0085455719819L716.5384615384615,587.0088470428216L720,587.0073181819253L723.4615384615385,587.0067995072719L726.9230769230769,587.0057613511096L730.3846153846154,587.0099580532881L733.8461538461538,587.0073710965045L737.3076923076923,587.007235862385L740.7692307692307,587.0151175513037L744.2307692307692,590.2520678653477L747.6923076923077,587.0158987925299L751.1538461538462,587.007696252824L754.6153846153846,587.0065017776958L758.0769230769231,587.0157413521829L761.5384615384615,590.2539562209798L765,587.0061440518817L768.4615384615385,587.0066045226713L771.9230769230769,587.0062412774791L775.3846153846155,587.0047593801227L778.8461538461539,587.0040982863908L782.3076923076924,587.003614214981L785.7692307692308,587.0105488235259L789.2307692307692,587.010163804626L792.6923076923076,587.0249449849995L796.1538461538461,587.0216647135906L799.6153846153845,587.0037679083094L803.0769230769231,590.2575670891072L806.5384615384615,587.0109336120609L810,587.0162227706476L813.4615384615385,587.0046592620482L816.9230769230769,587.0217101668059L820.3846153846154,587.0115936377815L823.8461538461538,590.2511419839744L827.3076923076923,587.0312469394115L830.7692307692308,587.028218570278L834.2307692307693,587.0217221001272L837.6923076923077,590.2498736659846L841.1538461538462,590.2455252162084L844.6153846153846,587.0275757410041L848.0769230769231,587.010883401222L851.5384615384615,587.0099078244034L855,587.0190800968566L858.4615384615385,587.0197044334975L861.9230769230769,587.0135456144934L865.3846153846154,587.0274533680191L868.8461538461538,587.0069723693277L872.3076923076923,587.0188686505284L875.7692307692307,587.017875748634L879.2307692307692,587.0327264128636L882.6923076923076,587.0229490055144L886.1538461538462,587.0254558102414" style="fill: none; stroke: #ff7f0e; stroke-width: 2;"></path></g></g><path class="foreground" d="" style="display: none; fill: none;"></path></g><g transform="translate(0,0)"><path class="background" d="M0,0h900v600h-900Z" style="fill: none;"></path><g><g class="mark-line role-mark marks"><path d="M6.923076923076923,570.3062831806778L10.384615384615385,557.8840833640724L13.846153846153847,549.9578770008425L17.30769230769231,543.9357167165194L20.76923076923077,539.8847735508475L24.230769230769234,541.4995868906637L27.692307692307693,399.1116410791474L31.153846153846157,425.7366359090675L34.61538461538462,442.899781884973L38.07692307692308,457.45681081296124L41.53846153846154,462.016122840691L45,466.6576819407008L48.46153846153847,468.33745198306866L51.92307692307693,482.08118926565254L55.38461538461539,312.90764969916916L58.84615384615385,361.47711503445174L62.307692307692314,386.34252032709736L65.76923076923077,410.2573400908773L69.23076923076924,411.1769584921083L72.6923076923077,421.67990324531337L76.15384615384616,453.2119292373894L79.61538461538461,444.13756681683435L83.07692307692308,269.52553095345684L86.53846153846155,317.45915657065535L90,350.0660885046464L93.46153846153847,371.5912860776291L96.92307692307693,378.200237577605L100.38461538461539,397.661859786074L103.84615384615385,407.8616768676272L107.3076923076923,438.6891678400934L110.76923076923077,252.85647255096194L114.23076923076923,352.92148214764075L117.6923076923077,316.35029619012295L121.15384615384615,375.47698477217745L124.61538461538463,359.45047529066966L128.07692307692307,394.3695151101246L131.53846153846155,374.7633611676174L135,401.21650314833795L138.46153846153848,233.30981764063515L141.9230769230769,270.4497483925077L145.3846153846154,322.6334386431659L148.84615384615384,357.5139400173235L152.30769230769232,342.2148731560855L155.76923076923077,372.8022703273495L159.23076923076923,378.58842839556837L162.69230769230768,403.53829520089283L166.15384615384616,322.3965223965224L169.6153846153846,323.28708306969173L173.0769230769231,327.14432460195167L176.53846153846155,341.90403922484245L180,357.77418674910416L183.46153846153845,377.9481058962118L186.92307692307693,371.6698397101271L190.3846153846154,401.46831729036904L193.84615384615387,318.8976377952756L197.3076923076923,315.7431551499348L200.76923076923077,330.53339197084875L204.23076923076923,356.0985327251745L207.6923076923077,339.3970362800205L211.15384615384616,349.5631862331082L214.6153846153846,345.8594762768991L218.07692307692307,368.89290607398385L221.53846153846155,325.03553940925605L225,310.16490907134397L228.46153846153845,337.6247965986038L231.9230769230769,343.62295938682064L235.3846153846154,350.09231348907315L238.84615384615384,342.0197620059498L242.3076923076923,350.07778469197257L245.76923076923075,363.88638311767824L249.23076923076925,298.2224025974026L252.6923076923077,304.8731901544401L256.15384615384613,321.7873904188436L259.6153846153846,348.07043050622536L263.0769230769231,341.0143794935917L266.53846153846155,365.0877874456184L270,327.1615601062999L273.46153846153845,363.7827006567962L276.92307692307696,304.5381396845832L280.3846153846154,303.23041901533367L283.8461538461538,312.10813029364573L287.30769230769226,324.9792563600783L290.7692307692308,320.7929549598479L294.2307692307692,332.5336623961093L297.6923076923077,330.1116199198626L301.15384615384613,361.46424788135596L304.61538461538464,290.84618395303323L308.0769230769231,300.48489341983316L311.53846153846155,322.2857142857143L315,320.82826546800635L318.46153846153845,333.18310257134783L321.9230769230769,326.1226716338478L325.38461538461536,334.4111406728859L328.8461538461538,343.88513513513516L332.3076923076923,307.3062415486442L335.7692307692308,314.69958211592035L339.2307692307692,321.52144249512673L342.6923076923077,320.5484473835537L346.1538461538462,332.99228145754796L349.61538461538464,329.02787285335876L353.0769230769231,322.71948160535123L356.53846153846155,342.3201358902718L360,285.97007156798963L363.46153846153845,296.68590672297404L366.9230769230769,302.6146911420183L370.38461538461536,309.0784229057331L373.84615384615387,313.94351296765296L377.3076923076923,334.9846920923723L380.7692307692308,325.90388202895974L384.2307692307692,344.37343378787386L387.69230769230774,304.71536709951374L391.1538461538462,316.21971413630814L394.6153846153846,317.8550954962114L398.07692307692304,306.5373459028281L401.53846153846155,319.6300169956857L405,328.7811567628046L408.46153846153845,305.7139541822763L411.9230769230769,334.24676184868997L415.3846153846154,301.3177159590044L418.84615384615387,306.8949409621907L422.3076923076923,314.7587554486698L425.7692307692308,318.7385173952349L429.2307692307692,314.91143879242657L432.6923076923077,320.1689082417389L436.15384615384613,303.1805384480029L439.6153846153846,337.111217641419L443.0769230769231,313.28140548330646L446.53846153846155,307.41855414210363L450,302.7008381911628L453.46153846153845,315.83135816097933L456.9230769230769,313.67037216046396L460.38461538461536,323.4059970566594L463.8461538461538,313.15395458104933L467.3076923076923,334.9607444300813L470.7692307692308,290.40795562703073L474.2307692307692,303.9162576813626L477.6923076923077,302.6075773658855L481.15384615384613,308.40110085227275L484.6153846153846,317.00890834969044L488.07692307692304,314.07420288765235L491.5384615384615,308.9535849056604L495.00000000000006,334.03575436090995L498.4615384615385,290.5738696211915L501.92307692307696,300.5710589023755L505.3846153846154,303.2980349344979L508.8461538461538,317.1887189488811L512.3076923076923,305.99431519107276L515.7692307692307,324.9414536974055L519.2307692307692,302.72020725388603L522.6923076923077,337.9313531055621L526.1538461538462,293.94701298701295L529.6153846153846,294.82131901840495L533.0769230769231,305.8570038910506L536.5384615384615,310.96551236082274L540,309.00872174810087L543.4615384615385,322.2494476358815L546.9230769230769,301.9747191011236L550.3846153846155,337.23587674247983L553.8461538461539,289.9990502421882L557.3076923076924,299.74311801580814L560.7692307692308,305.7071240105541L564.2307692307692,310.3174704976911L567.6923076923076,306.4509501797637L571.1538461538461,320.3812228129531L574.6153846153845,298.188299974229L578.0769230769231,324.8647864438255L581.5384615384615,294.6491302503182L585,302.51388775426847L588.4615384615385,298.63825958943323L591.9230769230769,311.45983283027635L595.3846153846154,307.0094764641914L598.8461538461538,313.4744330980628L602.3076923076923,298.23405253283306L605.7692307692308,325.04137032603336L609.2307692307693,287.6431509016134L612.6923076923077,302.30678938739004L616.1538461538462,299.56046407853637L619.6153846153846,315.8893177550595L623.0769230769231,306.6884407838682L626.5384615384615,322.1058146497239L630,297.0800459044614L633.4615384615385,330.7788461538462L636.9230769230769,291.84466019417476L640.3846153846154,298.36956521739125L643.8461538461538,302.9236260775863L647.3076923076923,305.23948829829436L650.7692307692307,305.56288794511596L654.2307692307692,312.3822229239027L657.6923076923076,295.8267248215702L661.1538461538462,322.1097203967022L664.6153846153846,288.29763246899665L668.0769230769231,297.6157201069655L671.5384615384615,302.65274507373897L675,304.0359257676577L678.4615384615385,305.9647016448553L681.9230769230769,312.21661626148654L685.3846153846154,301.0460526315789L688.8461538461538,325.6505379265377L692.3076923076924,289.9696048632219L695.7692307692308,303.4298174909321L699.2307692307693,297.07057179457314L702.6923076923077,313.18589988536496L706.1538461538462,304.57992316686153L709.6153846153846,320.14062989658413L713.0769230769231,293.81529058910075L716.5384615384615,328.45332770018393L720,291.47267744281L723.4615384615385,297.22042513863215L726.9230769230769,299.22167540387295L730.3846153846154,308.0777834919002L733.8461538461538,307.08173593007206L737.3076923076923,316.1933323520753L740.7692307692307,292.9756020612052L744.2307692307692,325.9642209513182L747.6923076923077,295.11352570344934L751.1538461538462,306.09714607401605L754.6153846153846,312.14679334916866L758.0769230769231,308.6278410444561L761.5384615384615,312.17350746268664L765,313.5458162748976L768.4615384615385,318.2066460379389L771.9230769230769,320.7712379442463L775.3846153846155,292.10511117528154L778.8461538461539,296.87764158918003L782.3076923076924,301.0288311449821L785.7692307692308,309.679739284136L789.2307692307692,308.28924783240177L792.6923076923076,324.1655321782178L796.1538461538461,304.94116103066625L799.6153846153845,317.5318649838081L803.0769230769231,301.92590018676975L806.5384615384615,302.7591574698329L810,310.7957746478873L813.4615384615385,311.53314351263873L816.9230769230769,323.27799859714753L820.3846153846154,317.60459384858046L823.8461538461538,305.4964726990988L827.3076923076923,350.0882746551369L830.7692307692308,311.8304885226604L834.2307692307693,306.4755836537318L837.6923076923077,311.07761956353505L841.1538461538462,332.8431389943579L844.6153846153846,321.73320136368636L848.0769230769231,315.9594900534442L851.5384615384615,318.13436107255063L855,337.1190435958094L858.4615384615385,303.9281129653402L861.9230769230769,335.73819950524836L865.3846153846154,328.08469255442566L868.8461538461538,338.11204029733955L872.3076923076923,331.2457264248017L875.7692307692307,334.55366726296955L879.2307692307692,310.82788441257117L882.6923076923076,344.4458572221195L886.1538461538462,326.03803278688525" style="fill: none; stroke: #1f77b4; stroke-width: 2;"></path></g></g><path class="foreground" d="" style="display: none; fill: none;"></path></g><g transform="translate(0,0)"><path class="background" d="M0,0h900v600h-900Z" style="fill: none;"></path><g><g class="mark-line role-mark marks"><path d="M6.923076923076923,580.7871422080872L10.384615384615385,570.281954887218L13.846153846153847,559.9705466775458L17.30769230769231,551.8330265722152L20.76923076923077,546.2579041631639L24.230769230769234,537.077074086719L27.692307692307693,453.1531300865049L31.153846153846157,470.0563080646421L34.61538461538462,472.9854060913706L38.07692307692308,493.0972959803104L41.53846153846154,485.2389652851235L45,489.7022606793924L48.46153846153847,485.1298035405872L51.92307692307693,488.1591334492574L55.38461538461539,393.07385372613675L58.84615384615385,435.04919033512834L62.307692307692314,440.8661653441594L65.76923076923077,451.4696090845962L69.23076923076924,454.2876597108183L72.6923076923077,457.8059221700784L76.15384615384616,467.6837579722353L79.61538461538461,463.3119329460305L83.07692307692308,330.36105571847503L86.53846153846155,371.8549437577172L90,385.4742763272519L93.46153846153847,403.43429003021146L96.92307692307693,411.8092369278941L100.38461538461539,419.46183314415435L103.84615384615385,421.9374224128202L107.3076923076923,443.75833270206806L110.76923076923077,320.36105343678287L114.23076923076923,380.13167141411486L117.6923076923077,364.43828625904257L121.15384615384615,407.4273334089169L124.61538461538463,390.55720094372776L128.07692307692307,411.0356301343693L131.53846153846155,398.3800859236796L135,414.52993496557L138.46153846153848,282.8730207489737L141.9230769230769,319.93052905464003L145.3846153846154,354.68221213371856L148.84615384615384,381.0055736182071L152.30769230769232,377.88176010078286L155.76923076923077,391.0766305227383L159.23076923076923,393.61230110159113L162.69230769230768,410.4022214742511L166.15384615384616,329.02868739046215L169.6153846153846,349.21971000245765L173.0769230769231,356.8093385214007L176.53846153846155,372.1712695795548L180,386.04939803897236L183.46153846153845,397.1640142719601L186.92307692307693,379.97987927565396L190.3846153846154,402.7880042951373L193.84615384615387,314.27754752036583L197.3076923076923,335.5754500191498L200.76923076923077,355.1184698829575L204.23076923076923,375.4591217241728L207.6923076923077,362.92546872578896L211.15384615384616,372.48108381733897L214.6153846153846,362.90098903461626L218.07692307692307,377.2024508365131L221.53846153846155,320.5628979613677L225,324.20259062052025L228.46153846153845,349.5234515935057L231.9230769230769,356.0210533794345L235.3846153846154,366.02698650674665L238.84615384615384,359.3495066513964L242.3076923076923,366.23498108344074L245.76923076923075,368.3772123007928L249.23076923076925,293.95277048927306L252.6923076923077,317.0278806108283L256.15384615384613,339.42732738959154L259.6153846153846,356.21530007176034L263.0769230769231,353.46079452462436L266.53846153846155,368.8675711828779L270,339.6946308724832L273.46153846153845,369.21219591777543L276.92307692307696,298.73241169955287L280.3846153846154,311.52013564257794L283.8461538461538,329.08516353294357L287.30769230769226,340.50814284131616L290.7692307692308,335.4L294.2307692307692,344.1145833333333L297.6923076923077,347.15377396433837L301.15384615384613,363.79956293706294L304.61538461538464,279.8573339277753L308.0769230769231,304.91526661796934L311.53846153846155,326.3513513513513L315,331.7341040462428L318.46153846153845,342.54924681344147L321.9230769230769,335.9592098512058L325.38461538461536,337.9587971423824L328.8461538461538,346.2971274685816L332.3076923076923,296.58769608159577L335.7692307692308,317.9764743417517L339.2307692307692,323.3370989606868L342.6923076923077,330.37658354652774L346.1538461538462,335.4693381546578L349.61538461538464,337.25455253816625L353.0769230769231,329.7092041683647L356.53846153846155,340.88867249856327L360,268.8298054821778L363.46153846153845,297.08741226449945L366.9230769230769,309.4895564761436L370.38461538461536,312.05296380313644L373.84615384615387,322.6396444002362L377.3076923076923,332.9210131938527L380.7692307692308,329.20750080449346L384.2307692307692,345.49987039497137L387.69230769230774,290.5662324261577L391.1538461538462,312.04536744981283L394.6153846153846,315.1143331996103L398.07692307692304,308.12898479646884L401.53846153846155,320.12398042414355L405,332.9312798384135L408.46153846153845,312.85381554685733L411.9230769230769,333.15487274984486L415.3846153846154,282.43535414684766L418.84615384615387,307.52867170118765L422.3076923076923,313.3455182622882L425.7692307692308,321.54008834738414L429.2307692307692,316.9448455096737L432.6923076923077,321.0798039901995L436.15384615384613,314.8526148969889L439.6153846153846,330.5846325167038L443.0769230769231,294.1582969751983L446.53846153846155,302.0150275622345L450,303.447563996697L453.46153846153845,316.0157694928453L456.9230769230769,312.09330957395105L460.38461538461536,325.5711823159603L463.8461538461538,308.4879353154645L467.3076923076923,332.25293823936084L470.7692307692308,270.602367566435L474.2307692307692,300.0535831792686L477.6923076923077,299.89988876529475L481.15384615384613,310.53689632211825L484.6153846153846,314.7694414853142L488.07692307692304,315.3691469850657L491.5384615384615,308.38135208711435L495.00000000000006,328.5248334027488L498.4615384615385,277.8293188187985L501.92307692307696,291.2717378786134L505.3846153846154,301.9967105263158L508.8461538461538,311.9854171022371L512.3076923076923,303.6859416445624L515.7692307692307,320.8729415245045L519.2307692307692,303.88625103220477L522.6923076923077,326.49096810612474L526.1538461538462,271.1465039258735L529.6153846153846,290.0999377011733L533.0769230769231,299.81236970118135L536.5384615384615,307.2921643573818L540,307.5L543.4615384615385,317.32798165137615L546.9230769230769,299.21470421470417L550.3846153846155,322.557453950766L553.8461538461539,272.9786594529606L557.3076923076924,292.24997672036494L560.7692307692308,297.5131079370819L564.2307692307692,305.12295438718667L567.6923076923076,304.5032313657906L571.1538461538461,314.8921971252567L574.6153846153845,300.14594179397454L578.0769230769231,318.5716264345074L581.5384615384615,271.0940499040307L585,291.36981947622684L588.4615384615385,295.45003719315645L591.9230769230769,304.01496506827567L595.3846153846154,302.76122931442075L598.8461538461538,310.8692604940142L602.3076923076923,294.12123613312207L605.7692307692308,315.8160480349345L609.2307692307693,271.2635258864658L612.6923076923077,289.5104935872522L616.1538461538462,292.704244637152L619.6153846153846,308.65586221651694L623.0769230769231,299.97821192533945L626.5384615384615,313.6276223776224L630,294.93571222190116L633.4615384615385,315.6657454884465L636.9230769230769,268.25699354442054L640.3846153846154,287.59396477663233L643.8461538461538,294.84676582497406L647.3076923076923,300.34629343369846L650.7692307692307,298.409851425512L654.2307692307692,306.0332085457949L657.6923076923076,291.6493602197361L661.1538461538462,310.79229621339294L664.6153846153846,269.93258426966287L668.0769230769231,287.3026402422966L671.5384615384615,293.0473997313376L675,294.5831233463525L678.4615384615385,297.8942823660026L681.9230769230769,307.0021612979631L685.3846153846154,296.0098522167488L688.8461538461538,319.27457466918713L692.3076923076924,265.2445027896291L695.7692307692308,292.5434224662767L699.2307692307693,288.9009149076122L702.6923076923077,309.4587757133378L706.1538461538462,301.55576804094716L709.6153846153846,309.488858165257L713.0769230769231,288.43775192905673L716.5384615384615,321.09212272820093L720,270.85386956262306L723.4615384615385,283.6148667840709L726.9230769230769,287.57292882147027L730.3846153846154,299.9774048625793L733.8461538461538,307.2313901803505L737.3076923076923,311.0326955739834L740.7692307692307,295.99677201020467L744.2307692307692,311.9409824046921L747.6923076923077,275.29257641921396L751.1538461538462,294.7092698057561L754.6153846153846,305.9158415841585L758.0769230769231,305.5836543090997L761.5384615384615,310.05027486726493L765,304.88472110326524L768.4615384615385,317.890365448505L771.9230769230769,312.737971185212L775.3846153846155,271.9261538461538L778.8461538461539,284.62952557775935L782.3076923076924,291.3800293824937L785.7692307692308,298.2663957012951L789.2307692307692,297.7674418604651L792.6923076923076,321.1399466155065L796.1538461538461,302.37622451681233L799.6153846153845,306.199961134862L803.0769230769231,284.72642072862584L806.5384615384615,295.2339071856287L810,303.83956221100414L813.4615384615385,304.74725343844347L816.9230769230769,320.22535655188716L820.3846153846154,312.2489754098361L823.8461538461538,310.0252951096121L827.3076923076923,339.5047034837971L830.7692307692308,294.6742610069431L834.2307692307693,300.7585767971875L837.6923076923077,300.6410616204948L841.1538461538462,334.1543961864407L844.6153846153846,319.3463230672533L848.0769230769231,315.473734106625L851.5384615384615,333.26684412486605L855,347.3070363512328L858.4615384615385,301.42552543405424L861.9230769230769,332.3199410808614L865.3846153846154,329.77211841703684L868.8461538461538,346.5328484427755L872.3076923076923,337.79073156514136L875.7692307692307,333.5309530806151L879.2307692307692,313.4070796460177L882.6923076923076,343.8457795217204L886.1538461538462,318.3361423852221" style="fill: none; stroke: #aec7e8; stroke-width: 2;"></path></g></g><path class="foreground" d="" style="display: none; fill: none;"></path></g><g transform="translate(0,0)"><path class="background" d="M0,0h900v600h-900Z" style="fill: none;"></path><g><g class="mark-line role-mark marks"><path d="M6.923076923076923,566.8481729955057L10.384615384615385,546.4267150550222L13.846153846153847,525.7272494419847L17.30769230769231,504.9379054541086L20.76923076923077,489.37741676597193L24.230769230769234,463.05293896006026L27.692307692307693,434.6387434554974L31.153846153846157,475.3744758089754L34.61538461538462,454.1207317799893L38.07692307692308,446.2142441860466L41.53846153846154,433.98148599744434L45,412.23559061396514L48.46153846153847,391.866649525716L51.92307692307693,380.59986055293797L55.38461538461539,338.35495193041356L58.84615384615385,404.1210947069295L62.307692307692314,392.8073516160294L65.76923076923077,398.4901807020245L69.23076923076924,387.73714348438557L72.6923076923077,367.6884736646884L76.15384615384616,366.454977615729L79.61538461538461,339.9216150283299L83.07692307692308,320.20349162950185L86.53846153846155,364.02138491494713L90,356.0280392549569L93.46153846153847,349.9812621600094L96.92307692307693,346.0860114496582L100.38461538461539,337.8973613131103L103.84615384615385,324.0519866589327L107.3076923076923,349.75268912931915L110.76923076923077,279.9764688580043L114.23076923076923,371.1854979915542L117.6923076923077,338.89043168498864L121.15384615384615,352.2485475075323L124.61538461538463,308.23710147240735L128.07692307692307,328.32694135848493L131.53846153846155,290.6853297341173L135,309.1124555738144L138.46153846153848,260.51177531997644L141.9230769230769,313.06359183673476L145.3846153846154,323.6013238929155L148.84615384615384,337.7606219621309L152.30769230769232,301.3218932679615L155.76923076923077,310.4315538180536L159.23076923076923,310.44004441154703L162.69230769230768,325.19514098936486L166.15384615384616,327.69744160177976L169.6153846153846,344.19027325144145L173.0769230769231,336.7660417871005L176.53846153846155,331.4757085020243L180,336.0183767228178L183.46153846153845,349.16129710043424L186.92307692307693,312.0808487570666L190.3846153846154,335.86666210108206L193.84615384615387,323.9246012566457L197.3076923076923,335.1358695652174L200.76923076923077,343.8425704730052L204.23076923076923,353.0450144669486L207.6923076923077,319.2145347770233L211.15384615384616,317.7034987504463L214.6153846153846,294.86365334329474L218.07692307692307,311.93288552399383L221.53846153846155,330.206126982487L225,326.20711562897077L228.46153846153845,343.17885218106153L231.9230769230769,332.99152498444954L235.3846153846154,331.96403313800766L238.84615384615384,318.9253742861552L242.3076923076923,308.5600995179599L245.76923076923075,307.51137685189866L249.23076923076925,304.2243436754177L252.6923076923077,317.55069284064666L256.15384615384613,329.40702781844806L259.6153846153846,341.3987379807692L263.0769230769231,320.4100227790433L266.53846153846155,337.50810216443534L270,283.3405905565383L273.46153846153845,319.4630405828894L276.92307692307696,307.468631746664L280.3846153846154,319.18136889220443L283.8461538461538,319.8905452317745L287.30769230769226,321.53523024490767L290.7692307692308,305.5910987482614L294.2307692307692,308.9799786755124L297.6923076923077,297.56574727389346L301.15384615384613,320.19498405334883L304.61538461538464,294.82362940926475L308.0769230769231,310.6846666189214L311.53846153846155,324.77430960391746L315,317.2584856396867L318.46153846153845,317.6359771054783L321.9230769230769,303.12356979405035L325.38461538461536,297.1735770445535L328.8461538461538,301.2753115264797L332.3076923076923,309.37460250159L335.7692307692308,329.22540547512335L339.2307692307692,327.37603765783535L342.6923076923077,318.20783132530124L346.1538461538462,316.3334710612465L349.61538461538464,308.4821971758829L353.0769230769231,290.6975117417808L356.53846153846155,301.27985298293214L360,288.8748509362813L363.46153846153845,305.9582685871384L366.9230769230769,308.19618227317704L370.38461538461536,302.0923469387755L373.84615384615387,298.7725339274863L377.3076923076923,311.4156215272266L380.7692307692308,292.1580365160131L384.2307692307692,312.34580523087254L387.69230769230774,305.95495633522296L391.1538461538462,325.4248650775804L394.6153846153846,319.6610647417099L398.07692307692304,300.4995559502664L401.53846153846155,304.0809521071696L405,311.7224663054968L408.46153846153845,273.65625L411.9230769230769,298.7523984316343L415.3846153846154,302.72020725388603L418.84615384615387,318.4423076923077L422.3076923076923,317.4428992585093L425.7692307692308,315.678984140086L429.2307692307692,299.61387594998774L432.6923076923077,301.01640352983554L436.15384615384613,274.4104873733312L439.6153846153846,300.5144467422014L443.0769230769231,303.00906344410873L446.53846153846155,315.5289267278944L450,309.357612544259L453.46153846153845,311.1896119324182L456.9230769230769,299.016393442623L460.38461538461536,307.81869413136417L463.8461538461538,280.8545340489301L467.3076923076923,303.9982803095443L470.7692307692308,290.5501427024899L474.2307692307692,314.5697161259542L477.6923076923077,307.796943319026L481.15384615384613,303.66564417177915L484.6153846153846,305.06314174436443L488.07692307692304,300.87001416096297L491.5384615384615,280.645521924558L495.00000000000006,303.80041276934145L498.4615384615385,292.9813424169699L501.92307692307696,305.58072487644154L505.3846153846154,309.2650834403081L508.8461538461538,310.7456692913386L512.3076923076923,291.68028262309565L515.7692307692307,308.45323926253985L519.2307692307692,274.7448979591837L522.6923076923077,304.5602134146341L526.1538461538462,293.43740243521705L529.6153846153846,304.6073337292161L533.0769230769231,308.6065336802544L536.5384615384615,308.12887089090043L540,299.8026315789474L543.4615384615385,307.3519415215569L546.9230769230769,276.5664058530637L550.3846153846155,304.6341519288922L553.8461538461539,290.7333712336555L557.3076923076924,307.1138337468983L560.7692307692308,307.661191682684L564.2307692307692,307.51618891383185L567.6923076923076,297.1706110914871L571.1538461538461,305.6070307861928L574.6153846153845,279.1131610192711L578.0769230769231,299.75111880435696L581.5384615384615,294.4676515537443L585,309.60705741626793L588.4615384615385,302.65090380890894L591.9230769230769,307.42937298909203L595.3846153846154,297.4201828974812L598.8461538461538,300.7334718845581L602.3076923076923,274.13557318926223L605.7692307692308,298.5262893761581L609.2307692307693,289.9968602825746L612.6923076923077,306.6788441768248L616.1538461538462,303.35511822587756L619.6153846153846,311.4137115004238L623.0769230769231,298.6211424819435L626.5384615384615,308.3692313062906L630,275.1050080775445L633.4615384615385,300.46667835847074L636.9230769230769,290.7186358099878L640.3846153846154,303.4329550088351L643.8461538461538,304.25812939993295L647.3076923076923,301.2698492462312L650.7692307692307,295.2691371382202L654.2307692307692,298.8011705575028L657.6923076923076,268.62850971922245L661.1538461538462,298.82624320124324L664.6153846153846,289.3072448439979L668.0769230769231,304.6855179704017L671.5384615384615,304.64762725426226L675,304.01785714285717L678.4615384615385,297.3903373285556L681.9230769230769,303.84561288005744L685.3846153846154,281.9679328116052L688.8461538461538,306.75296201649434L692.3076923076924,289.950756884917L695.7692307692308,307.8534766333938L699.2307692307693,302.1350051528684L702.6923076923077,314.975181729413L706.1538461538462,299.7657443557969L709.6153846153846,310.96194303592625L713.0769230769231,274.1982296621906L716.5384615384615,310.6637273593899L720,291.31729155008395L723.4615384615385,303.5226244343892L726.9230769230769,304.76503019165136L730.3846153846154,307.2195430162987L733.8461538461538,302.61248637708235L737.3076923076923,313.6787853289115L740.7692307692307,283.3176049463065L744.2307692307692,303.11870340519846L747.6923076923077,297.331840846647L751.1538461538462,312.54201378914104L754.6153846153846,324.0374368083071L758.0769230769231,308.7666095156451L761.5384615384615,319.51274942048093L765,303.4371130583865L768.4615384615385,316.5158350627087L771.9230769230769,306.85433908178834L775.3846153846155,305.47212375120847L778.8461538461539,302.6585820895522L782.3076923076924,304.9302220208428L785.7692307692308,305.9899982099705L789.2307692307692,297.14599040438657L792.6923076923076,319.34908075889865L796.1538461538461,290.76383476227585L799.6153846153845,298.75902147442997L803.0769230769231,313.28347608105287L806.5384615384615,315.27919460326603L810,321.45746887966806L813.4615384615385,320.0656979286765L816.9230769230769,324.60870239664933L820.3846153846154,321.37308874450457L823.8461538461538,310.66423620848525L827.3076923076923,354.9486036339166L830.7692307692308,316.91785838183705L834.2307692307693,329.41656313943287L837.6923076923077,321.4255335024624L841.1538461538462,341.7327878974992L844.6153846153846,320.8018243342652L848.0769230769231,311.73349278692234L851.5384615384615,328.8137916490932L855,333.2242437752932L858.4615384615385,321.0529311326124L861.9230769230769,339.57741722945156L865.3846153846154,342.77759845061325L868.8461538461538,345.2062583264607L872.3076923076923,342.59227467811166L875.7692307692307,333.5309530806151L879.2307692307692,316.02892947146756L882.6923076923076,337.1373652504756L886.1538461538462,334.6172902242267" style="fill: none; stroke: #2ca02c; stroke-width: 2;"></path></g></g><path class="foreground" d="" style="display: none; fill: none;"></path></g><g transform="translate(0,0)"><path class="background" d="M0,0h900v600h-900Z" style="fill: none;"></path><g><g class="mark-line role-mark marks"><path d="M6.923076923076923,589.0601185436071L10.384615384615385,582.6346207408783L13.846153846153847,574.5075791840585L17.30769230769231,567.0246613502294L20.76923076923077,559.5998585599878L24.230769230769234,552.034236153378L27.692307692307693,547.6989878994924L31.153846153846157,564.4453866382104L34.61538461538462,560.1984217366256L38.07692307692308,557.2696645671598L41.53846153846154,553.350607531886L45,549.1514977231761L48.46153846153847,544.689406451178L51.92307692307693,540.8023185675887L55.38461538461539,533.5830785445211L58.84615384615385,553.0118019178117L62.307692307692314,551.3297274139131L65.76923076923077,547.5317782939734L69.23076923076924,544.8174903732935L72.6923076923077,541.9011039808571L76.15384615384616,539.1899881750098L79.61538461538461,536.4242624187011L83.07692307692308,534.3112701252236L86.53846153846155,547.9166666666666L90,545.0564161407535L93.46153846153847,543.8146043643837L96.92307692307693,542.7884615384615L100.38461538461539,539.1167953667954L103.84615384615385,537.6087429317095L107.3076923076923,534.8084596967278L110.76923076923077,527.0125223613595L114.23076923076923,541.9938030914915L117.6923076923077,540.0339044347L121.15384615384615,538.6135857461024L124.61538461538463,536.8616795448756L128.07692307692307,535.2541936281582L131.53846153846155,533.8104178317489L135,532.6484718684881L138.46153846153848,530.8187949809713L141.9230769230769,540.445972699802L145.3846153846154,538.6078886310904L148.84615384615384,538.0630541871922L152.30769230769232,536.1097450498253L155.76923076923077,534.9243856332703L159.23076923076923,533.9328319048452L162.69230769230768,532.7810262529832L166.15384615384616,526.586219207426L169.6153846153846,537.8078563965638L173.0769230769231,536.0123315170634L176.53846153846155,534.9069288144465L180,534.0361618674065L183.46153846153845,531.9930058864485L186.92307692307693,530.5173648964336L190.3846153846154,530.797697368421L193.84615384615387,529.3277558475226L197.3076923076923,536.9428714951136L200.76923076923077,534.9899963623135L204.23076923076923,534.284773016672L207.6923076923077,533.5129497653398L211.15384615384616,532.0148601398602L214.6153846153846,536.3658789924694L218.07692307692307,529.827705747764L221.53846153846155,530.5993355481728L225,534.1377307739333L228.46153846153845,533.1472936644866L231.9230769230769,532.0333095831849L235.3846153846154,531.732283464567L238.84615384615384,530.3548072510326L242.3076923076923,529.6531922080846L245.76923076923075,536.1930408021443L249.23076923076925,527.8664192949907L252.6923076923077,535.6888310459063L256.15384615384613,533.0658613747484L259.6153846153846,532.4745786649091L263.0769230769231,531.4365515315147L266.53846153846155,531.2024481252275L270,529.8444424346568L273.46153846153845,529.2497999466524L276.92307692307696,526.1137269105396L280.3846153846154,532.3854267701261L283.8461538461538,532.2284584980238L287.30769230769226,536.5172376409367L290.7692307692308,530.706308249249L294.2307692307692,529.5997325181505L297.6923076923077,528.9703223862609L301.15384615384613,528.371743486974L304.61538461538464,527.1858407079646L308.0769230769231,533.0597534301054L311.53846153846155,531.9215557020435L315,537.4880106571936L318.46153846153845,530.7476095745363L321.9230769230769,533.9157727572361L325.38461538461536,529.5705176294074L328.8461538461538,528.7191042557146L332.3076923076923,531.873840445269L335.7692307692308,531.5113324960037L339.2307692307692,531.0950424849474L342.6923076923077,531.5084954782131L346.1538461538462,537.71677006497L349.61538461538464,533.8035677931596L353.0769230769231,531.8059839605182L356.53846153846155,530.2615229944319L360,529.1673943191742L363.46153846153845,534.558310055866L366.9230769230769,532.396300316172L370.38461538461536,531.1634678864473L373.84615384615387,530.8329845123483L377.3076923076923,530.4454979567473L380.7692307692308,534.2727505112475L384.2307692307692,529.371122201241L387.69230769230774,534.8024948024947L391.1538461538462,532.4909810913916L394.6153846153846,533.1804984272925L398.07692307692304,532.9840825086443L401.53846153846155,534.0873640938953L405,531.8622877220379L408.46153846153845,531.9596044764679L411.9230769230769,529.6392385331826L415.3846153846154,529.4687103837732L418.84615384615387,533.4903089036948L422.3076923076923,535.7862145975029L425.7692307692308,534.0079541566884L429.2307692307692,532.4335688437016L432.6923076923077,531.1090843073518L436.15384615384613,543.9530955809059L439.6153846153846,531.8267031327698L443.0769230769231,543.050625664513L446.53846153846155,534.01973131822L450,534.5498450883907L453.46153846153845,537.0261188660239L456.9230769230769,535.1274638633378L460.38461538461536,536.076540445553L463.8461538461538,537.7663304971866L467.3076923076923,536.8511699323315L470.7692307692308,536.820446873493L474.2307692307692,539.708057242196L477.6923076923077,539.953260627643L481.15384615384613,539.7945230588753L484.6153846153846,539.7903867003976L488.07692307692304,540.137268562252L491.5384615384615,543.0357617654879L495.00000000000006,540.4860302677532L498.4615384615385,541.2649678981628L501.92307692307696,540.920185568828L505.3846153846154,541.7170980678089L508.8461538461538,541.1670403587444L512.3076923076923,542.0168171909063L515.7692307692307,541.9453730669838L519.2307692307692,542.1692940370117L522.6923076923077,541.5064889336016L526.1538461538462,541.743102936814L529.6153846153846,542.8961390552356L533.0769230769231,543.8885486834048L536.5384615384615,543.9848678796745L540,543.6543909348442L543.4615384615385,543.993522115693L546.9230769230769,548.4807626940321L550.3846153846155,544.8362626642936L553.8461538461539,541.6402939441077L557.3076923076924,545.0150151399195L560.7692307692308,544.7097605710603L564.2307692307692,544.163452504574L567.6923076923076,544.5214521452145L571.1538461538461,543.4300695881749L574.6153846153845,543.7137135533483L578.0769230769231,542.7067623743233L581.5384615384615,544.530867052023L585,547.1668117519042L588.4615384615385,543.8693903665113L591.9230769230769,542.8431425154841L595.3846153846154,544.2669070169477L598.8461538461538,544.7980166939112L602.3076923076923,546.0505646243291L605.7692307692308,545.0284030916079L609.2307692307693,543.9262845541153L612.6923076923077,545.9815608687421L616.1538461538462,545.7873476837188L619.6153846153846,546.6262411810818L623.0769230769231,546.0507757404795L626.5384615384615,545.3061044113604L630,546.0417784591798L633.4615384615385,544.9286432873744L636.9230769230769,544.5838628923551L640.3846153846154,546.2454421148586L643.8461538461538,546.1844689806625L647.3076923076923,546.4959318860929L650.7692307692307,546.3962506542323L654.2307692307692,546.9885292269013L657.6923076923076,547.8288220892274L661.1538461538462,546.0427880376781L664.6153846153846,542.8280886985926L668.0769230769231,548.0360249466601L671.5384615384615,547.7676064003483L675,546.27213639789L678.4615384615385,546.7691137314569L681.9230769230769,546.2683516125529L685.3846153846154,547.4775399552375L688.8461538461538,546.745340730506L692.3076923076924,546.6789339968843L695.7692307692308,547.6787927111689L699.2307692307693,547.1740587303522L702.6923076923077,547.2273809284667L706.1538461538462,546.5434872404518L709.6153846153846,546.2682133151493L713.0769230769231,547.9390539604341L716.5384615384615,547.1327620743378L720,546.3507717445219L723.4615384615385,547.4780031686754L726.9230769230769,547.8433282315291L730.3846153846154,547.487164187389L733.8461538461538,547.5049468669843L737.3076923076923,547.1889978362685L740.7692307692307,548.0535390199636L744.2307692307692,546.9075426996253L747.6923076923077,547.0818062128599L751.1538461538462,547.9668284439052L754.6153846153846,548.3839614283768L758.0769230769231,547.8155375018134L761.5384615384615,548.8215097281428L765,548.5102033222811L768.4615384615385,549.6473388143661L771.9230769230769,547.7447130282851L775.3846153846155,547.8950969213226L778.8461538461539,548.2420073932115L782.3076923076924,548.2144362361137L785.7692307692308,547.7501570688955L789.2307692307692,547.6741376996376L792.6923076923076,547.8579477661408L796.1538461538461,548.0521731093602L799.6153846153845,547.2001280509099L803.0769230769231,548.1256614156563L806.5384615384615,548.1641566941753L810,548.5057089750399L813.4615384615385,548.465666649589L816.9230769230769,548.3414687374968L820.3846153846154,547.4574651504036L823.8461538461538,549.1379213206192L827.3076923076923,547.6511612026768L830.7692307692308,547.9514383517956L834.2307692307693,547.9352365484804L837.6923076923077,548.4678187414595L841.1538461538462,548.2968959241837L844.6153846153846,548.3408987280609L848.0769230769231,548.0100030569614L851.5384615384615,549.3232406160718L855,547.6713925327952L858.4615384615385,548.1155757283032L861.9230769230769,548.7511993517018L865.3846153846154,549.1052097104865L868.8461538461538,549.6935787917882L872.3076923076923,550.6141544016738L875.7692307692307,547.9030245191602L879.2307692307692,548.6927097627305L882.6923076923076,549.7622387580365L886.1538461538462,548.023861211846" style="fill: none; stroke: #98df8a; stroke-width: 2;"></path></g></g><path class="foreground" d="" style="display: none; fill: none;"></path></g><g transform="translate(0,0)"><path class="background" d="M0,0h900v600h-900Z" style="fill: none;"></path><g><g class="mark-line role-mark marks"><path d="M6.923076923076923,580.0196672304606L10.384615384615385,563.8771535343299L13.846153846153847,539.9056631760064L17.30769230769231,527.5501653044356L20.76923076923077,498.58730583824314L24.230769230769234,467.8223270440251L27.692307692307693,395.3443170602081L31.153846153846157,461.5853565956742L34.61538461538462,442.3369565217392L38.07692307692308,424.40690023119333L41.53846153846154,391.4675266165556L45,380.02100724653644L48.46153846153847,337.28794803412757L51.92307692307693,336.1522292616496L55.38461538461539,163.5461325319475L58.84615384615385,345.9252570329643L62.307692307692314,327.1728427675977L65.76923076923077,331.08093829247673L69.23076923076924,301.00293542074365L72.6923076923077,286.585294943257L76.15384615384616,272.9278154456756L79.61538461538461,251.83829580309717L83.07692307692308,101.3411307958817L86.53846153846155,278.9479674695339L90,255.36571565089469L93.46153846153847,248.89998415928457L96.92307692307693,235.79630324525195L100.38461538461539,224.74489639293932L103.84615384615385,205.84802130787264L107.3076923076923,231.34224822398662L110.76923076923077,72.77944840622045L114.23076923076923,263.6970240993184L117.6923076923077,232.38888611762357L121.15384615384615,235.1792539637599L124.61538461538463,222.96242479282554L128.07692307692307,220.3058954086703L131.53846153846155,168.46153846153845L135,184.1897575457694L138.46153846153848,44.499986845220896L141.9230769230769,205.15854973052427L145.3846153846154,224.2316898037339L148.84615384615384,212.53898635477574L152.30769230769232,180.15251306377397L155.76923076923077,225.69210244915584L159.23076923076923,183.08640305974612L162.69230769230768,211.1073950835258L166.15384615384616,140.90550075801528L169.6153846153846,253.91686247561626L173.0769230769231,228.79934785140327L176.53846153846155,233.64877521613832L180,228.4043300998172L183.46153846153845,241.45810391430567L186.92307692307693,208.58592142412783L190.3846153846154,223.6093490777789L193.84615384615387,145.86343192040346L197.3076923076923,251.65867810292633L200.76923076923077,238.63004465414107L204.23076923076923,247.7000317510716L207.6923076923077,214.6095717884131L211.15384615384616,218.53541850928684L214.6153846153846,192.79661016949152L218.07692307692307,212.75826446280993L221.53846153846155,141.7741510923928L225,237.00303234501342L228.46153846153845,227.60493496043986L231.9230769230769,229.95571216137583L235.3846153846154,207.22185209860092L238.84615384615384,221.95459924020682L242.3076923076923,173.3164868187406L245.76923076923075,203.89036114877354L249.23076923076925,130.03412969283283L252.6923076923077,212.82836628867744L256.15384615384613,205.23012552301256L259.6153846153846,211.44896521833348L263.0769230769231,200.71567989590116L266.53846153846155,214.39119567435216L270,172.3523898781631L273.46153846153845,201.8486962806472L276.92307692307696,128.94995093228655L280.3846153846154,223.1669502978127L283.8461538461538,205.97538555816573L287.30769230769226,213.7622758586994L290.7692307692308,190.47291487532246L294.2307692307692,201.39009086975338L297.6923076923077,166.02014726938012L301.15384615384613,196.38331242158097L304.61538461538464,124.77458687630356L308.0769230769231,203.05059393833525L311.53846153846155,203.7536769407852L315,203.4036936560935L318.46153846153845,176.87374749498989L321.9230769230769,197.45578990062864L325.38461538461536,153.78647185670914L328.8461538461538,188.9912489582093L332.3076923076923,137.729597412248L335.7692307692308,215.48219079290035L339.2307692307692,195.11965282083082L342.6923076923077,195.93306656966166L346.1538461538462,173.45178797115454L349.61538461538464,193.49038912330045L353.0769230769231,160.30329397141077L356.53846153846155,183.4483024097313L360,123.31835464915318L363.46153846153845,197.35400479788038L366.9230769230769,184.96704570145573L370.38461538461536,189.09289232934552L373.84615384615387,164.39367311072053L377.3076923076923,194.72209216774797L380.7692307692308,160.6891151135473L384.2307692307692,192.3903736377789L387.69230769230774,130.66979678673613L391.1538461538462,201.22008188116735L394.6153846153846,180.9067341131837L398.07692307692304,187.75801550712487L401.53846153846155,173.96573131363292L405,184.62474076088805L408.46153846153845,143.76871185351754L411.9230769230769,178.73833411105923L415.3846153846154,122.21716218853685L418.84615384615387,199.3901373474768L422.3076923076923,176.5255507029233L425.7692307692308,194.25966825926258L429.2307692307692,164.62309644670057L432.6923076923077,183.323996055934L436.15384615384613,143.76372476414335L439.6153846153846,180.68358578502773L443.0769230769231,134.53063823014477L446.53846153846155,202.2755248687829L450,184.66653816499618L453.46153846153845,182.90182684670376L456.9230769230769,168.92209178228384L460.38461538461536,173.81944444444449L463.8461538461538,153.6526401299757L467.3076923076923,173.1131353337416L470.7692307692308,126.58005678396285L474.2307692307692,196.4053013267371L477.6923076923077,177.32795636532438L481.15384615384613,181.27524859061168L484.6153846153846,167.5971853731687L488.07692307692304,174.4363205963333L491.5384615384615,137.80008389764478L495.00000000000006,171.97893751846863L498.4615384615385,123.4607065609229L501.92307692307696,191.23398902104302L505.3846153846154,178.9505484290761L508.8461538461538,178.06556096664528L512.3076923076923,154.14285258150008L515.7692307692307,175.0701804425496L519.2307692307692,136.52093834819695L522.6923076923077,184.14655079927047L526.1538461538462,119.29503916449087L529.6153846153846,188.4947607886392L533.0769230769231,164.01897456600727L536.5384615384615,176.89319382575363L540,166.445663185105L543.4615384615385,175.1465071479266L546.9230769230769,135.70761735274382L550.3846153846155,173.19639842431062L553.8461538461539,131.34422651695715L557.3076923076924,184.84721916904817L560.7692307692308,168.88359208915804L564.2307692307692,184.6727491928563L567.6923076923076,155.4812366323158L571.1538461538461,172.46120211848748L574.6153846153845,154.09588476060543L578.0769230769231,170.89531375703942L581.5384615384615,126.27151555043609L585,193.5039069767442L588.4615384615385,176.12446796272866L591.9230769230769,180.57964900438753L595.3846153846154,154.35255198487715L598.8461538461538,176.00583333333338L602.3076923076923,135.58830606352257L605.7692307692308,168.0655420353982L609.2307692307693,128.96875248469425L612.6923076923077,176.3207997454391L616.1538461538462,171.9285789975628L619.6153846153846,186.8917484073212L623.0769230769231,164.79140328697846L626.5384615384615,179.39507602456956L630,133.59359469906136L633.4615384615385,175.85700804609118L636.9230769230769,115.49236755462435L640.3846153846154,174.10818856138977L643.8461538461538,161.44462119705702L647.3076923076923,181.78899727980487L650.7692307692307,151.47208121827416L654.2307692307692,170.33702830188676L657.6923076923076,146.97342519685034L661.1538461538462,166.87517459726234L664.6153846153846,143.67378640776695L668.0769230769231,186.80637724029933L671.5384615384615,161.13133345527717L675,171.184548027596L678.4615384615385,159.68716289104643L681.9230769230769,191.39987613542525L685.3846153846154,151.78353658536582L688.8461538461538,204.02105717198646L692.3076923076924,118.82253042739879L695.7692307692308,172.80415491789682L699.2307692307693,217.6873897707231L702.6923076923077,210.3131721426982L706.1538461538462,196.62155998175464L709.6153846153846,193.12115574455163L713.0769230769231,130.53449023861174L716.5384615384615,229.48474059003055L720,123.07107037869625L723.4615384615385,184.9670243684328L726.9230769230769,170.093279302699L730.3846153846154,202.12886381159322L733.8461538461538,183.15559758492765L737.3076923076923,209.60062765742055L740.7692307692307,202.0046349942063L744.2307692307692,178.72140814867763L747.6923076923077,204.29455198563164L751.1538461538462,191.12997139743942L754.6153846153846,209.90729414794305L758.0769230769231,211.05282406818472L761.5384615384615,230.25763930497303L765,172.51132697192278L768.4615384615385,233.0037378810887L771.9230769230769,238.04033224867268L775.3846153846155,142.28804464477358L778.8461538461539,171.9419391206314L782.3076923076924,174.25536087866112L785.7692307692308,193.97147889500027L789.2307692307692,157.51652313238534L792.6923076923076,225.3164752031381L796.1538461538461,193.73870617997832L799.6153846153845,181.8874446902654L803.0769230769231,204.4406017637904L806.5384615384615,204.3301989253458L810,204.78969714123977L813.4615384615385,212.8450266673998L816.9230769230769,228.88737914815783L820.3846153846154,201.42767698130012L823.8461538461538,212.5685317311303L827.3076923076923,310.6044862115553L830.7692307692308,230.15561263030668L834.2307692307693,216.74114998447362L837.6923076923077,216.0971722365038L841.1538461538462,287.60383817427385L844.6153846153846,256.63183607002304L848.0769230769231,206.13517060367457L851.5384615384615,296.53936914968926L855,257.85583901473495L858.4615384615385,214.6933962264151L861.9230769230769,307.68304182228303L865.3846153846154,279.8927452398168L868.8461538461538,295.6069763916783L872.3076923076923,293.0138388625593L875.7692307692307,305.2034568703945L879.2307692307692,254.82816499517435L882.6923076923076,313.5017105535973L886.1538461538462,286.530612244898" style="fill: none; stroke: #ffbb78; stroke-width: 2;"></path></g></g><path class="foreground" d="" style="display: none; fill: none;"></path></g></g><g class="mark-group role-legend"><g transform="translate(918,0)"><path class="background" d="M0,0h101v92h-101Z" style="pointer-events: none; fill: none;"></path><g><g class="mark-group role-legend-entry"><g transform="translate(0,16)"><path class="background" d="M0,0h0v0h0Z" style="pointer-events: none; fill: none;"></path><g><g class="mark-group role-scope"><g transform="translate(0,0)"><path class="background" d="M0,0h101v11h-101Z" style="pointer-events: none; fill: none; opacity: 1;"></path><g><g class="mark-symbol role-legend-symbol" style="pointer-events: none;"><path transform="translate(6,6)" d="M-5,0L5,0" style="fill: none; stroke: #1f77b4; stroke-width: 1.5; opacity: 1;"></path></g><g class="mark-text role-legend-label" style="pointer-events: none;"><text text-anchor="start" transform="translate(16,9)" style="font-family: sans-serif; font-size: 10px; fill: #000; opacity: 1;">Clang-Polly</text></g></g><path class="foreground" d="" style="pointer-events: none; display: none; fill: none;"></path></g><g transform="translate(0,13)"><path class="background" d="M0,0h101v11h-101Z" style="pointer-events: none; fill: none; opacity: 1;"></path><g><g class="mark-symbol role-legend-symbol" style="pointer-events: none;"><path transform="translate(6,6)" d="M-5,0L5,0" style="fill: none; stroke: #aec7e8; stroke-width: 1.5; opacity: 1;"></path></g><g class="mark-text role-legend-label" style="pointer-events: none;"><text text-anchor="start" transform="translate(16,9)" style="font-family: sans-serif; font-size: 10px; fill: #000; opacity: 1;">GFortran</text></g></g><path class="foreground" d="" style="pointer-events: none; display: none; fill: none;"></path></g><g transform="translate(0,26)"><path class="background" d="M0,0h101v11h-101Z" style="pointer-events: none; fill: none; opacity: 1;"></path><g><g class="mark-symbol role-legend-symbol" style="pointer-events: none;"><path transform="translate(6,6)" d="M-5,0L5,0" style="fill: none; stroke: #ff7f0e; stroke-width: 1.5; opacity: 1;"></path></g><g class="mark-text role-legend-label" style="pointer-events: none;"><text text-anchor="start" transform="translate(16,9)" style="font-family: sans-serif; font-size: 10px; fill: #000; opacity: 1;">Julia</text></g></g><path class="foreground" d="" style="pointer-events: none; display: none; fill: none;"></path></g><g transform="translate(0,39)"><path class="background" d="M0,0h101v11h-101Z" style="pointer-events: none; fill: none; opacity: 1;"></path><g><g class="mark-symbol role-legend-symbol" style="pointer-events: none;"><path transform="translate(6,6)" d="M-5,0L5,0" style="fill: none; stroke: #ffbb78; stroke-width: 1.5; opacity: 1;"></path></g><g class="mark-text role-legend-label" style="pointer-events: none;"><text text-anchor="start" transform="translate(16,9)" style="font-family: sans-serif; font-size: 10px; fill: #000; opacity: 1;">LoopVectorization</text></g></g><path class="foreground" d="" style="pointer-events: none; display: none; fill: none;"></path></g><g transform="translate(0,52)"><path class="background" d="M0,0h101v11h-101Z" style="pointer-events: none; fill: none; opacity: 1;"></path><g><g class="mark-symbol role-legend-symbol" style="pointer-events: none;"><path transform="translate(6,6)" d="M-5,0L5,0" style="fill: none; stroke: #2ca02c; stroke-width: 1.5; opacity: 1;"></path></g><g class="mark-text role-legend-label" style="pointer-events: none;"><text text-anchor="start" transform="translate(16,9)" style="font-family: sans-serif; font-size: 10px; fill: #000; opacity: 1;">icc</text></g></g><path class="foreground" d="" style="pointer-events: none; display: none; fill: none;"></path></g><g transform="translate(0,65)"><path class="background" d="M0,0h101v11h-101Z" style="pointer-events: none; fill: none; opacity: 1;"></path><g><g class="mark-symbol role-legend-symbol" style="pointer-events: none;"><path transform="translate(6,6)" d="M-5,0L5,0" style="fill: none; stroke: #98df8a; stroke-width: 1.5; opacity: 1;"></path></g><g class="mark-text role-legend-label" style="pointer-events: none;"><text text-anchor="start" transform="translate(16,9)" style="font-family: sans-serif; font-size: 10px; fill: #000; opacity: 1;">ifort</text></g></g><path class="foreground" d="" style="pointer-events: none; display: none; fill: none;"></path></g></g></g><path class="foreground" d="" style="pointer-events: none; display: none; fill: none;"></path></g></g><g class="mark-text role-legend-title" style="pointer-events: none;"><text text-anchor="start" transform="translate(0,9)" style="font-family: sans-serif; font-size: 11px; font-weight: bold; fill: #000; opacity: 1;">Method</text></g></g><path class="foreground" d="" style="pointer-events: none; display: none; fill: none;"></path></g></g></g><path class="foreground" d="" style="display: none; fill: none;"></path></g></g></g></svg>
