<svg class="marks" width="883" height="527" viewBox="0 0 883 527" version="1.1" xmlns="http://www.w3.org/2000/svg" xmlns:xlink="http://www.w3.org/1999/xlink"><g transform="translate(39,10)"><g class="mark-group role-frame root"><g transform="translate(0,0)"><path class="background" d="M0.5,0.5h720v480h-720Z" style="fill: none; stroke: #ddd;"></path><g><g class="mark-group role-axis"><g transform="translate(0.5,480.5)"><path class="background" d="M0,0h0v0h0Z" style="pointer-events: none; fill: none;"></path><g><g class="mark-rule role-axis-grid" style="pointer-events: none;"><line transform="translate(0,-480)" x2="0" y2="480" style="fill: none; stroke: #ddd; stroke-width: 1; opacity: 1;"></line><line transform="translate(55,-480)" x2="0" y2="480" style="fill: none; stroke: #ddd; stroke-width: 1; opacity: 1;"></line><line transform="translate(111,-480)" x2="0" y2="480" style="fill: none; stroke: #ddd; stroke-width: 1; opacity: 1;"></line><line transform="translate(166,-480)" x2="0" y2="480" style="fill: none; stroke: #ddd; stroke-width: 1; opacity: 1;"></line><line transform="translate(222,-480)" x2="0" y2="480" style="fill: none; stroke: #ddd; stroke-width: 1; opacity: 1;"></line><line transform="translate(277,-480)" x2="0" y2="480" style="fill: none; stroke: #ddd; stroke-width: 1; opacity: 1;"></line><line transform="translate(332,-480)" x2="0" y2="480" style="fill: none; stroke: #ddd; stroke-width: 1; opacity: 1;"></line><line transform="translate(388,-480)" x2="0" y2="480" style="fill: none; stroke: #ddd; stroke-width: 1; opacity: 1;"></line><line transform="translate(443,-480)" x2="0" y2="480" style="fill: none; stroke: #ddd; stroke-width: 1; opacity: 1;"></line><line transform="translate(498,-480)" x2="0" y2="480" style="fill: none; stroke: #ddd; stroke-width: 1; opacity: 1;"></line><line transform="translate(554,-480)" x2="0" y2="480" style="fill: none; stroke: #ddd; stroke-width: 1; opacity: 1;"></line><line transform="translate(609,-480)" x2="0" y2="480" style="fill: none; stroke: #ddd; stroke-width: 1; opacity: 1;"></line><line transform="translate(665,-480)" x2="0" y2="480" style="fill: none; stroke: #ddd; stroke-width: 1; opacity: 1;"></line><line transform="translate(720,-480)" x2="0" y2="480" style="fill: none; stroke: #ddd; stroke-width: 1; opacity: 1;"></line></g></g></g></g><g class="mark-group role-axis"><g transform="translate(0.5,0.5)"><path class="background" d="M0,0h0v0h0Z" style="pointer-events: none; fill: none;"></path><g><g class="mark-rule role-axis-grid" style="pointer-events: none;"><line transform="translate(0,480)" x2="720" y2="0" style="fill: none; stroke: #ddd; stroke-width: 1; opacity: 1;"></line><line transform="translate(0,450)" x2="720" y2="0" style="fill: none; stroke: #ddd; stroke-width: 1; opacity: 1;"></line><line transform="translate(0,420)" x2="720" y2="0" style="fill: none; stroke: #ddd; stroke-width: 1; opacity: 1;"></line><line transform="translate(0,390)" x2="720" y2="0" style="fill: none; stroke: #ddd; stroke-width: 1; opacity: 1;"></line><line transform="translate(0,360)" x2="720" y2="0" style="fill: none; stroke: #ddd; stroke-width: 1; opacity: 1;"></line><line transform="translate(0,330)" x2="720" y2="0" style="fill: none; stroke: #ddd; stroke-width: 1; opacity: 1;"></line><line transform="translate(0,300)" x2="720" y2="0" style="fill: none; stroke: #ddd; stroke-width: 1; opacity: 1;"></line><line transform="translate(0,270)" x2="720" y2="0" style="fill: none; stroke: #ddd; stroke-width: 1; opacity: 1;"></line><line transform="translate(0,240)" x2="720" y2="0" style="fill: none; stroke: #ddd; stroke-width: 1; opacity: 1;"></line><line transform="translate(0,210)" x2="720" y2="0" style="fill: none; stroke: #ddd; stroke-width: 1; opacity: 1;"></line><line transform="translate(0,180)" x2="720" y2="0" style="fill: none; stroke: #ddd; stroke-width: 1; opacity: 1;"></line><line transform="translate(0,150)" x2="720" y2="0" style="fill: none; stroke: #ddd; stroke-width: 1; opacity: 1;"></line><line transform="translate(0,120)" x2="720" y2="0" style="fill: none; stroke: #ddd; stroke-width: 1; opacity: 1;"></line><line transform="translate(0,90)" x2="720" y2="0" style="fill: none; stroke: #ddd; stroke-width: 1; opacity: 1;"></line><line transform="translate(0,60)" x2="720" y2="0" style="fill: none; stroke: #ddd; stroke-width: 1; opacity: 1;"></line><line transform="translate(0,30)" x2="720" y2="0" style="fill: none; stroke: #ddd; stroke-width: 1; opacity: 1;"></line><line transform="translate(0,0)" x2="720" y2="0" style="fill: none; stroke: #ddd; stroke-width: 1; opacity: 1;"></line></g></g></g></g><g class="mark-group role-scope pathgroup"><g transform="translate(0,0)"><path class="background" d="M0,0h720v480h-720Z" style="fill: none;"></path><g><g class="mark-line role-mark marks"><path d="M5.538461538461538,478.5148397309062L8.307692307692308,477.9529350013122L11.076923076923077,475.94975309711515L13.846153846153847,475.33453206610153L16.615384615384617,472.8201539538139L19.384615384615387,472.0770266410999L22.153846153846153,468.997897392767L24.923076923076923,467.9687682583523L27.692307692307693,465.7538616718077L30.461538461538463,462.3229830508474L33.23076923076923,460.90132629678493L36,458.2303330444472L38.769230769230774,454.87779666308234L41.53846153846154,455.90785091533905L44.30769230769231,447.9848234219019L47.07692307692308,447.51845028876255L49.84615384615385,444.2197596511752L52.61538461538462,443.0778189183202L55.38461538461539,436.0921837228042L58.15384615384616,435.9076439131802L60.92307692307693,430.04779354838706L63.69230769230769,428.7533595373819L66.46153846153847,419.89270372609536L69.23076923076924,426.48292108362784L72,431.21576793626963L74.76923076923077,416.9527145359019L77.53846153846155,413.0577069165927L80.3076923076923,412.7911055940848L83.07692307692308,407.4414282047424L85.84615384615385,405.75936212624583L88.61538461538461,411.4073433853745L91.38461538461539,397.29944751381214L94.15384615384616,394.5288948969246L96.92307692307692,384.3588157788593L99.6923076923077,385.08451747592426L102.46153846153845,388.24627476666126L105.23076923076924,384.3899313501144L108,400.4798796770926L110.76923076923077,373.53958409339657L113.53846153846153,373.8819359412257L116.30769230769232,371.3292878279739L119.07692307692308,348.2740176918329L121.84615384615385,360.3315944474643L124.61538461538461,358.1343413236917L127.38461538461539,364.4392508851481L130.15384615384616,361.0437689593264L132.92307692307693,331.32368513942816L135.69230769230768,361.239491782259L138.46153846153848,369.14817089218354L141.23076923076923,362.79468262332983L144,360.9934064371657L146.76923076923077,345.9685904416213L149.53846153846155,366.4890179272767L152.3076923076923,341.38796198521646L155.0769230769231,329.74123445726445L157.84615384615384,344.80079528943946L160.6153846153846,345.5062827459585L163.3846153846154,304.3743373226247L166.15384615384616,331.8040101304709L168.92307692307693,337.8777669497424L171.6923076923077,340.38786904477416L174.46153846153845,336.8615096328395L177.23076923076923,321.93024613588176L180,347.86767581372453L182.76923076923077,344.8688830780725L185.53846153846152,329.3627161890548L188.30769230769232,341.1578153614133L191.07692307692307,351.0723713066709L193.84615384615384,352.64625921472265L196.61538461538458,350.5870332964097L199.3846153846154,347.4953076120959L202.15384615384616,356.5034055651013L204.9230769230769,369.8036949251599L207.69230769230768,314.80595744680846L210.46153846153848,363.73143504287333L213.23076923076923,370.42351809595925L216,369.7164353353224L218.76923076923075,364.7680615403602L221.53846153846155,310.0082589583056L224.30769230769232,365.6958229203856L227.07692307692307,367.1021766573582L229.84615384615384,347.47870419543284L232.61538461538464,357.76205787781345L235.3846153846154,366.84653604574856L238.15384615384616,355.3306584302745L240.9230769230769,357.7836651275452L243.6923076923077,347.0713336115127L246.46153846153845,361.9438478457756L249.23076923076923,354.74529485570895L251.99999999999997,302.9185332011893L254.76923076923077,358.1986601511768L257.53846153846155,360.1974019042536L260.3076923076923,360.504094839929L263.07692307692304,355.48731501057085L265.84615384615387,298.6836836300952L268.61538461538464,360.7826248222712L271.38461538461536,357.95914265904315L274.15384615384613,337.1889612449387L276.92307692307696,352.00471251551556L279.6923076923077,358.25528731723904L282.46153846153845,357.0069517590057L285.2307692307692,351.20018882557235L288,335.2142954576456L290.7692307692308,355.05686569429685L293.53846153846155,357.3234616427216L296.3076923076923,292.99947636502117L299.0769230769231,352.0319162199227L301.84615384615387,357.52118427769267L304.6153846153846,358.23366214549935L307.38461538461536,354.3171294161055L310.1538461538462,290.89987080703776L312.9230769230769,355.6032902467685L315.6923076923077,352.9211714075784L318.46153846153845,337.5239580932797L321.2307692307692,340.36982623233195L324,352.72727272727275L326.7692307692308,353.9894962069636L329.53846153846155,351.4639550766429L332.3076923076923,334.3449248949116L335.0769230769231,356.7377574370709L337.84615384615387,352.0658405770298L340.6153846153846,286.15542354951583L343.3846153846154,349.2466819221968L346.1538461538462,350.6395244100162L348.9230769230769,354.87693091156L351.6923076923077,348.75664187035073L354.46153846153845,282.5738065981963L357.2307692307692,351.9477255591857L360,352.69183922046284L362.7692307692308,317.9028747766769L365.53846153846155,341.8013856812933L368.30769230769226,346.3506172839506L371.07692307692304,356.3076923076923L373.84615384615387,341.45129224652084L376.61538461538464,336.6624843161857L379.3846153846154,351.60751565762007L382.15384615384613,350.4253912276835L384.9230769230769,278.6527182301492L387.6923076923077,342.4203821656051L390.46153846153845,349.2786462067976L393.23076923076917,355.947077986836L396.00000000000006,340.53861032584433L398.7692307692308,290.33521210323346L401.53846153846155,353.38458505815095L404.3076923076923,355.1899696048632L407.0769230769231,330.24958402662224L409.8461538461538,339.1554782608696L412.6153846153846,353.25439361834725L415.38461538461536,353.30895795246806L418.1538461538462,338.33796893019473L420.92307692307696,318.9495132442834L423.6923076923077,343.90857142857146L426.46153846153845,353.76758127738066L429.2307692307692,286.17255662289597L432,346.13431857457834L434.7692307692307,353.6346832465132L437.5384615384615,343.91540642722117L440.3076923076923,348.4020706524831L443.0769230769231,282.80561122244484L445.84615384615387,352.37972231191475L448.61538461538464,353.42955757765924L451.38461538461536,331.425077948279L454.15384615384613,336.59958362248443L456.9230769230769,341.7798256814523L459.6923076923077,341.74949648903157L462.4615384615385,336.70937289278487L465.2307692307693,318.819956616052L468,341.3992992886718L470.7692307692308,342.1050450637107L473.53846153846155,249.44099378881984L476.3076923076923,334.3915343915344L479.07692307692304,344.48793539117077L481.8461538461538,345.4907511661573L484.61538461538464,337.8748476229175L487.3846153846154,264.45721197459926L490.1538461538462,341.61285123300917L492.9230769230769,342.20982986767484L495.6923076923077,317.62982689747L498.46153846153845,335.72895939768756L501.2307692307692,341.43899552307926L503.99999999999994,340.68428005284017L506.76923076923083,334.6193343898574L509.53846153846155,316.0136950223861L512.3076923076924,339.5001748688484L515.0769230769231,339.6450110321157L517.8461538461538,253.80952380952382L520.6153846153846,332.6322580645161L523.3846153846154,339.23991364835695L526.1538461538461,339.4652859496352L528.9230769230769,333.26725108967133L531.6923076923077,258.72206977655816L534.4615384615385,337.9361850355302L537.2307692307693,338.6510994003271L540,314.10043041606883L542.7692307692307,332.5973724525324L545.5384615384615,337.1556671449067L548.3076923076923,338.05835962145113L551.0769230769231,334.3514651850524L553.8461538461539,311.8082345157514L556.6153846153846,336.90419471776283L559.3846153846154,337.9615676359039L562.1538461538462,252.79961301245615L564.9230769230769,329.7095631641086L567.6923076923076,338.55180900812206L570.4615384615385,337.0179948586118L573.2307692307692,331.36357870703137L576,248.34928788232543L578.7692307692308,336.80850383631713L581.5384615384615,336.33672744494436L584.3076923076923,309.36797345918416L587.0769230769231,332.1661219609406L589.8461538461538,335.42930411469865L592.6153846153846,338.221888717968L595.3846153846154,330.15677748349606L598.1538461538462,312.13606628870474L600.9230769230769,339.11330049261085L603.6923076923077,336.3180002199171L606.4615384615385,247.73205741626793L609.2307692307692,329.72781688815263L612,336.37966101694917L614.7692307692307,336.50337649956305L617.5384615384615,330.29204198000167L620.3076923076924,244.76560900716476L623.0769230769231,334.96370285894056L625.8461538461538,335.00697350069737L628.6153846153846,308.01287011770455L631.3846153846154,327.84818824657424L634.1538461538462,335.4477747502271L636.9230769230769,335.5921592010136L639.6923076923076,329.5850137399853L642.4615384615385,309.91056224591546L645.2307692307693,336.3470804113223L648,335.6942455104905L650.7692307692308,248.50353085661652L653.5384615384615,329.2726197516263L656.3076923076923,335.81723311239597L659.0769230769231,336.15484408061326L661.8461538461538,329.8129943298783L664.6153846153846,244.29338103756706L667.3846153846154,334.60687757909216L670.1538461538462,334.13292496171516L672.9230769230769,308.78094251683063L675.6923076923077,327.81109403381305L678.4615384615385,333.92644108599706L681.2307692307692,333.96260017809436L684,327.668713761279L686.7692307692308,307.1269737600369L689.5384615384615,333.90169030503205L692.3076923076924,335.67726253985285L695.0769230769231,243.52808473565955L697.8461538461538,326.50659264399724L700.6153846153846,333.64532855661355L703.3846153846154,333.8112673063985L706.1538461538461,326.9973802516252L708.9230769230769,235.49387755102035" style="fill: none; stroke: #e45756; stroke-width: 2;"></path></g></g></g><g transform="translate(0,0)"><path class="background" d="M0,0h720v480h-720Z" style="fill: none;"></path><g><g class="mark-line role-mark marks"><path d="M5.538461538461538,466.6122347685817L8.307692307692308,463.05982100800753L11.076923076923077,458.90930437334896L13.846153846153847,457.6403280656131L16.615384615384617,456.3711448906072L19.384615384615387,455.6037758980017L22.153846153846153,458.41468758657163L24.923076923076923,458.0443075464992L27.692307692307693,454.599783501154L30.461538461538463,453.8343798128184L33.23076923076923,451.5572242708683L36,451.22518954942774L38.769230769230774,447.7997137097952L41.53846153846154,448.72624744140654L44.30769230769231,447.1498502922865L47.07692307692308,446.8044029306573L49.84615384615385,455.0554792593941L52.61538461538462,455.1302018652446L55.38461538461539,451.8180794414325L58.15384615384616,451.7666900913563L60.92307692307693,450.1827331640041L63.69230769230769,450.10537321723217L66.46153846153847,449.8107382550336L69.23076923076924,449.7174407275089L72,448.64997143401257L74.76923076923077,448.7331431409014L77.53846153846155,449.2729907021847L80.3076923076923,449.2207554690614L83.07692307692308,448.69625413429736L85.84615384615385,448.6590253411306L88.61538461538461,448.4621413499219L91.38461538461539,448.399509202454L94.15384615384616,447.7145893668465L96.92307692307692,453.87991366488103L99.6923076923077,453.77831546451966L102.46153846153845,451.50964688352525L105.23076923076924,449.733823847652L108,449.76619011193833L110.76923076923077,449.95627607962143L113.53846153846153,449.91899745013933L116.30769230769232,450.1910589126729L119.07692307692308,450.1590645261757L121.84615384615385,450.4136223839172L124.61538461538461,450.38651727709254L127.38461538461539,450.5263262705114L130.15384615384616,450.5175339366516L132.92307692307693,450.75L135.69230769230768,450.72206850958594L138.46153846153848,450.9555498126373L141.23076923076923,450.92343758139856L144,453.23893805309734L146.76923076923077,451.3413381318502L149.53846153846155,453.246013667426L152.3076923076923,451.53516209476305L155.0769230769231,451.7910447761194L157.84615384615384,451.5824665676077L160.6153846153846,451.78132356787864L163.3846153846154,451.93656236605227L166.15384615384616,452.2765923311407L168.92307692307693,452.09614309670206L171.6923076923077,452.92855042634517L174.46153846153845,453.1292860752184L177.23076923076923,453.62779423646646L180,453.59135192846657L182.76923076923077,454.2235447275432L185.53846153846152,454.23470952702286L188.30769230769232,456.49418542622425L191.07692307692307,457.2940976356523L193.84615384615384,455.63881486126354L196.61538461538458,455.8979874020587L199.3846153846154,456.4388688071444L202.15384615384616,456.4373979457466L204.9230769230769,456.58711002053184L207.69230769230768,456.9261922230374L210.46153846153848,456.793893129771L213.23076923076923,456.795889771135L216,458.8479973870085L218.76923076923075,459.0015673351284L221.53846153846155,457.1101766190076L224.30769230769232,456.8561669829222L227.07692307692307,458.9396490936995L229.84615384615384,458.92663647591604L232.61538461538464,457.2294352538505L235.3846153846154,457.0163759616117L238.15384615384616,458.9339986391472L240.9230769230769,458.9875406891907L243.6923076923077,457.17114435654423L246.46153846153845,457.12540894220285L249.23076923076923,457.1865168539326L251.99999999999997,457.1169451073986L254.76923076923077,457.3643256327199L257.53846153846155,457.2286689419795L260.3076923076923,457.24339532011254L263.07692307692304,457.41291042504986L265.84615384615387,457.2549277699167L268.61538461538464,457.3193860592433L271.38461538461536,457.32833517089307L274.15384615384613,457.34871923118146L276.92307692307696,457.5708612898809L279.6923076923077,457.4066385777412L282.46153846153845,457.50846953937594L285.2307692307692,457.53651584155176L288,457.55025380710657L290.7692307692308,457.4877663273693L293.53846153846155,457.54402054292L296.3076923076923,457.58573637769484L299.0769230769231,457.67219455024906L301.84615384615387,457.61896144078923L304.6153846153846,457.62490087232356L307.38461538461536,457.897544041787L310.1538461538462,457.728L312.9230769230769,458.0824844720497L315.6923076923077,458.8539823008849L318.46153846153845,457.82127246236035L321.2307692307692,457.77935438098615L324,457.7306468716861L326.7692307692308,457.7845854885263L329.53846153846155,457.7986539062278L332.3076923076923,459.41339236303264L335.0769230769231,457.82724668225376L337.84615384615387,459.45652173913044L340.6153846153846,458.8319079648173L343.3846153846154,458.7791725469806L346.1538461538462,458.9172049324721L348.9230769230769,459.36738978306505L351.6923076923077,458.95857736130336L354.46153846153845,459.1686016644406L357.2307692307692,459.00041214452534L360,459.0190699230512L362.7692307692308,459.05721310386076L365.53846153846155,459.29588654905814L368.30769230769226,458.729773392132L371.07692307692304,459.2578621577832L373.84615384615387,458.7701290459065L376.61538461538464,459.358361774744L379.3846153846154,459.5081316937723L382.15384615384613,459.2716160626837L384.9230769230769,459.45321739130435L387.6923076923077,458.1344902386117L390.46153846153845,458.1357639721756L393.23076923076917,458.14872935940974L396.00000000000006,458.1739434159972L398.7692307692308,458.1912450255827L401.53846153846155,458.1721794290893L404.3076923076923,458.1920778933393L407.0769230769231,458.1529294935452L409.8461538461538,459.99565260349766L412.6153846153846,459.992523364486L415.38461538461536,460.00577034045006L418.1538461538462,459.9746835443038L420.92307692307696,460.0385370872697L423.6923076923077,460.07770238869784L426.46153846153845,460.2L429.2307692307692,460.0854762767113L432,460.49492055222714L434.7692307692307,460.2986638721509L437.5384615384615,460.25507842633067L440.3076923076923,460.5844733529165L443.0769230769231,460.4016597510373L445.84615384615387,460.52365308804207L448.61538461538464,460.6300120048019L451.38461538461536,460.76124129195694L454.15384615384613,460.6727981293842L456.9230769230769,460.66506173798246L459.6923076923077,460.8157715839565L462.4615384615385,460.82274197187337L465.2307692307693,460.83537214443623L468,460.88748993485103L470.7692307692308,460.80328814537063L473.53846153846155,461.5093399750934L476.3076923076923,461.0523680367202L479.07692307692304,461.0500935356475L481.8461538461538,461.13763702801464L484.61538461538464,461.13939067134L487.3846153846154,461.09910507126284L490.1538461538462,461.23524783634934L492.9230769230769,459.5823529411765L495.6923076923077,459.7679917041134L498.46153846153845,459.62403445211567L501.2307692307692,460.05838832233553L503.99999999999994,459.9428571428571L506.76923076923083,459.74403815580285L509.53846153846155,459.79176944047776L512.3076923076924,459.93346605869885L515.0769230769231,460.13242551065025L517.8461538461538,459.6881959910913L520.6153846153846,461.72560049502164L523.3846153846154,462.138067061144L526.1538461538461,461.9441571871768L528.9230769230769,461.80653623346814L531.6923076923077,461.86603844300475L534.4615384615385,461.7444271364881L537.2307692307693,461.74527405217026L540,462.1812204643517L542.7692307692307,461.9475003837691L545.5384615384615,461.9424607223016L548.3076923076923,462.06278652581227L551.0769230769231,461.9231231231231L553.8461538461539,462.192046556741L556.6153846153846,461.95680493657864L559.3846153846154,462.4487768300684L562.1538461538462,462.23264611310765L564.9230769230769,462.5038713519952L567.6923076923076,462.46517162471395L570.4615384615385,462.1812356979405L573.2307692307692,462.456770716371L576,462.2448103078024L578.7692307692308,462.41215708795335L581.5384615384615,462.66575236789095L584.3076923076923,462.66199470130755L587.0769230769231,462.7272422464375L589.8461538461538,462.6721991701245L592.6153846153846,462.8092040615788L595.3846153846154,462.8084411608637L598.1538461538462,462.7694291124451L600.9230769230769,462.82351057014733L603.6923076923077,462.7935529746385L606.4615384615385,462.7211390152264L609.2307692307692,462.9159123300335L612,462.91744105675446L614.7692307692307,462.93662850017006L617.5384615384615,462.9626452996276L620.3076923076924,463.01563019620886L623.0769230769231,462.9556344276841L625.8461538461538,463.02416721097325L628.6153846153846,462.9913724352933L631.3846153846154,463.0219686162625L634.1538461538462,463.0201643017177L636.9230769230769,462.9910808343283L639.6923076923076,462.99075630252105L642.4615384615385,463.09775674007L645.2307692307693,463.1267413275061L648,463.1525663002924L650.7692307692308,463.2570781426954L653.5384615384615,463.14508662875284L656.3076923076923,463.147623129162L659.0769230769231,463.2168620086771L661.8461538461538,463.20465266558966L664.6153846153846,463.14874024811354L667.3846153846154,463.2592968007602L670.1538461538462,463.18199510327076L672.9230769230769,463.15945208914525L675.6923076923077,463.314194675082L678.4615384615385,463.3105345191162L681.2307692307692,463.3378488214576L684,463.3343342742178L686.7692307692308,463.3042239306599L689.5384615384615,463.3222143364088L692.3076923076924,463.3890422903648L695.0769230769231,463.316621538999L697.8461538461538,463.3793833910629L700.6153846153846,463.3791862955032L703.3846153846154,463.456157082749L706.1538461538461,463.3501520441491L708.9230769230769,463.66937462515676" style="fill: none; stroke: #72b7b2; stroke-width: 2;"></path></g></g></g><g transform="translate(0,0)"><path class="background" d="M0,0h720v480h-720Z" style="fill: none;"></path><g><g class="mark-line role-mark marks"><path d="M5.538461538461538,470.0825443515029L8.307692307692308,468.7936433746202L11.076923076923077,462.9290253608125L13.846153846153847,462.05239753549426L16.615384615384617,462.47028086218154L19.384615384615387,457.58167480285397L22.153846153846153,463.4395241242565L24.923076923076923,461.28909952606637L27.692307692307693,460.22579870285847L30.461538461538463,460.1282121129574L33.23076923076923,457.1005568293482L36,457.0195751770096L38.769230769230774,455.5468247248095L41.53846153846154,455.23669515419465L44.30769230769231,452.1071848505477L47.07692307692308,453.4920802433011L49.84615384615385,452.794128326158L52.61538461538462,452.93531195364824L55.38461538461539,452.96959078963835L58.15384615384616,452.90824059022134L60.92307692307693,452.1408946812258L63.69230769230769,452.1558965024054L66.46153846153847,453.16261703285363L69.23076923076924,453.06528835690966L72,453.9164330164809L74.76923076923077,453.97091446881933L77.53846153846155,454.12609025904294L80.3076923076923,453.9076793957197L83.07692307692308,453.6418834376029L85.84615384615385,453.62244522671153L88.61538461538461,454.234592445328L91.38461538461539,454.20204014478446L94.15384615384616,454.2500449640288L96.92307692307692,454.17821607040196L99.6923076923077,454.7133455321128L102.46153846153845,453.94266076159107L105.23076923076924,453.3796552332764L108,453.3523906091569L110.76923076923077,453.7478229929399L113.53846153846153,453.6328508743205L116.30769230769232,453.842175419888L119.07692307692308,453.9860236788911L121.84615384615385,454.61396290631797L124.61538461538461,454.64501904189217L127.38461538461539,454.30710895302525L130.15384615384616,454.2357019558612L132.92307692307693,454.67126881126603L135.69230769230768,454.6536496534979L138.46153846153848,456.1273209549072L141.23076923076923,456.169553856576L144,456.6020890991876L146.76923076923077,456.47851129818343L149.53846153846155,456.39195979899495L152.3076923076923,456.6481178396072L155.0769230769231,457.1618457820406L157.84615384615384,457.0734996628456L160.6153846153846,457.2932014312776L163.3846153846154,457.4327864332L166.15384615384616,457.3836790785943L168.92307692307693,457.21588315837516L171.6923076923077,457.2188543857479L174.46153846153845,457.3176527938578L177.23076923076923,457.869936154585L180,457.778775968557L182.76923076923077,457.81808482261937L185.53846153846152,457.81651085406435L188.30769230769232,457.90724492353974L191.07692307692307,457.82468575225647L193.84615384615384,457.71865540863473L196.61538461538458,457.7883586785527L199.3846153846154,458.2984723854289L202.15384615384616,458.3330427201395L204.9230769230769,458.241169078978L207.69230769230768,458.5960072595281L210.46153846153848,458.5205861828332L213.23076923076923,458.31609270656014L216,458.21562526280377L218.76923076923075,458.42497316045916L221.53846153846155,458.4811227515319L224.30769230769232,458.4280155642024L227.07692307692307,458.4277351863741L229.84615384615384,458.52965959509345L232.61538461538464,458.6700865662071L235.3846153846154,458.49131951405315L238.15384615384616,458.2838438157587L240.9230769230769,458.35087313519136L243.6923076923077,458.515701017249L246.46153846153845,458.4157877329022L249.23076923076923,458.3800667281891L251.99999999999997,458.4425786053048L254.76923076923077,458.6186073097744L257.53846153846155,458.4607727746578L260.3076923076923,458.2386561238886L263.07692307692304,458.47000805801775L265.84615384615387,458.38765008576325L268.61538461538464,458.38739442117964L271.38461538461536,458.39258878023674L274.15384615384613,458.4144622612603L276.92307692307696,458.5123966942149L279.6923076923077,458.37481967213114L282.46153846153845,458.2169491525424L285.2307692307692,458.4345747357826L288,458.3835038949137L290.7692307692308,458.32505478451424L293.53846153846155,458.3284163323106L296.3076923076923,458.48473382425703L299.0769230769231,458.4775775149099L301.84615384615387,458.3682443552103L304.6153846153846,458.17865429234337L307.38461538461536,458.40479284876534L310.1538461538462,458.3399814757641L312.9230769230769,458.33147067853855L315.6923076923077,458.44742463802515L318.46153846153845,458.40851063829786L321.2307692307692,458.4254183289802L324,458.3219590525893L326.7692307692308,458.1805321657124L329.53846153846155,458.3439151680351L332.3076923076923,458.3658040127944L335.0769230769231,458.32335329341316L337.84615384615387,458.30856067732833L340.6153846153846,458.3657345485085L343.3846153846154,458.4516985458275L346.1538461538462,458.323421982069L348.9230769230769,458.2213029989659L351.6923076923077,458.3421990997837L354.46153846153845,458.4916548797737L357.2307692307692,458.3298245614035L360,458.39007580978637L362.7692307692308,458.3181067694001L365.53846153846155,458.4748201438849L368.30769230769226,458.46437452339114L371.07692307692304,458.62471101977906L373.84615384615387,458.33962508498723L376.61538461538464,458.36158727152196L379.3846153846154,458.7922328502812L382.15384615384613,458.8979380209787L384.9230769230769,458.62205959226344L387.6923076923077,458.68003603462455L390.46153846153845,458.9859371397833L393.23076923076917,459.1156213856658L396.00000000000006,458.851878313842L398.7692307692308,458.73368319905387L401.53846153846155,459.1454545454545L404.3076923076923,459.5496991076987L407.0769230769231,459.18637653736994L409.8461538461538,459.31085223789086L412.6153846153846,459.5786725574857L415.38461538461536,459.7071742313323L418.1538461538462,459.4505018697107L420.92307692307696,459.2827880788273L423.6923076923077,459.66761525327263L426.46153846153845,460.0248107269908L429.2307692307692,459.65439407955597L432,459.9500178507676L434.7692307692307,460.0583399628746L437.5384615384615,460.15813953488373L440.3076923076923,460.0245229254814L443.0769230769231,459.72179289026275L445.84615384615387,460.29383413661293L448.61538461538464,460.4485014944664L451.38461538461536,460.58138234119053L454.15384615384613,460.2352941176471L456.9230769230769,460.60330320972264L459.6923076923077,460.74742268041234L462.4615384615385,460.72562358276645L465.2307692307693,460.1946538725154L468,460.59631391200946L470.7692307692308,461.0411622276029L473.53846153846155,461.35974333937787L476.3076923076923,460.8162230671736L479.07692307692304,460.9709872677938L481.8461538461538,460.90505548705306L484.61538461538464,460.74616390284183L487.3846153846154,460.77540287236195L490.1538461538462,460.9377913946983L492.9230769230769,461.15294117647056L495.6923076923077,461.09701588941994L498.46153846153845,461.2067334972574L501.2307692307692,461.15376377952754L503.99999999999994,461.2753979472681L506.76923076923083,461.33870377151226L509.53846153846155,460.96784447976523L512.3076923076924,461.6083348048737L515.0769230769231,461.472592765189L517.8461538461538,461.4170111195203L520.6153846153846,461.5826294007597L523.3846153846154,461.56747893933397L526.1538461538461,461.78753774361786L528.9230769230769,461.69046309536907L531.6923076923077,461.54892133362387L534.4615384615385,461.8999840230069L537.2307692307693,461.87923262396475L540,461.87964897618053L542.7692307692307,461.92622950819674L545.5384615384615,462.152760272246L548.3076923076923,462.12691161866934L551.0769230769231,462.0059784774811L553.8461538461539,461.9575471698113L556.6153846153846,462.0665887850467L559.3846153846154,462.1984979560795L562.1538461538462,461.99683771740695L564.9230769230769,462.1839048285515L567.6923076923076,462.3975006891482L570.4615384615385,462.27372063376436L573.2307692307692,462.3393769498576L576,462.23527305282005L578.7692307692308,462.3521276595745L581.5384615384615,462.4361646690985L584.3076923076923,462.49065723039746L587.0769230769231,462.44321376842464L589.8461538461538,462.5456387739593L592.6153846153846,462.6299851067351L595.3846153846154,462.5317904690805L598.1538461538462,462.620992319883L600.9230769230769,462.69742679680564L603.6923076923077,462.84708384200366L606.4615384615385,462.69992872416253L609.2307692307692,462.62137063594685L612,462.7652254765226L614.7692307692307,462.8243438569798L617.5384615384615,462.73335874952346L620.3076923076924,462.73363134367605L623.0769230769231,462.89873135989313L625.8461538461538,463.01368868232817L628.6153846153846,462.8646556131765L631.3846153846154,462.8599819981998L634.1538461538462,462.94617280422904L636.9230769230769,462.96416136179795L639.6923076923076,462.87382337387623L642.4615384615385,462.9933390854184L645.2307692307693,463.03638610462724L648,463.11112608666355L650.7692307692308,463.15213675213676L653.5384615384615,462.92490118577075L656.3076923076923,463.05601590984423L659.0769230769231,463.1019689659669L661.8461538461538,462.99087071758123L664.6153846153846,463.0930613030507L667.3846153846154,463.18151731160896L670.1538461538462,463.25819454426147L672.9230769230769,463.1277203781051L675.6923076923077,463.06672470617497L678.4615384615385,463.1649300203465L681.2307692307692,463.2181189739858L684,463.12454390659207L686.7692307692308,463.2075235109718L689.5384615384615,463.26133024663875L692.3076923076924,463.3537224746592L695.0769230769231,463.2208720096044L697.8461538461538,463.17614673582335L700.6153846153846,463.2890113675508L703.3846153846154,463.3289615014981L706.1538461538461,463.2397256391361L708.9230769230769,463.6827195467422" style="fill: none; stroke: #4c78a8; stroke-width: 2;"></path></g></g></g><g transform="translate(0,0)"><path class="background" d="M0,0h720v480h-720Z" style="fill: none;"></path><g><g class="mark-line role-mark marks"><path d="M5.538461538461538,469.22803514376994L8.307692307692308,467.76110260336907L11.076923076923077,462.589860076322L13.846153846153847,461.84128360797916L16.615384615384617,459.4908008244904L19.384615384615387,459.1098047449087L22.153846153846153,456.21446411722263L24.923076923076923,459.12878958511646L27.692307692307693,457.0060213061603L30.461538461538463,453.24847238187425L33.23076923076923,452.7865269653532L36,452.67729632863114L38.769230769230774,449.1452300722865L41.53846153846154,449.04587944557863L44.30769230769231,441.61265082568053L47.07692307692308,441.51911468812875L49.84615384615385,443.89591364687743L52.61538461538462,443.8326046221112L55.38461538461539,440.4233745441608L58.15384615384616,440.36581100795115L60.92307692307693,444.99018317653116L63.69230769230769,445.20217347554836L66.46153846153847,442.40933901749077L69.23076923076924,442.33235910794843L72,444.6456352636128L74.76923076923077,444.5939667305377L77.53846153846155,440.7935993449223L80.3076923076923,440.77208767065963L83.07692307692308,443.19150297523834L85.84615384615385,443.17505984718474L88.61538461538461,437.23556370302475L91.38461538461539,437.43684834994065L94.15384615384616,439.9493136756482L96.92307692307692,439.76625747155987L99.6923076923077,438.4198574069184L102.46153846153845,437.7698128235763L105.23076923076924,440.01484643221676L108,439.9974614255682L110.76923076923077,438.03919022451925L113.53846153846153,438.01510325696086L116.30769230769232,440.19810633648945L119.07692307692308,440.310572962177L121.84615384615385,436.51499150770087L124.61538461538461,437.0795362631437L127.38461538461539,439.0535928419887L130.15384615384616,438.8394199130682L132.92307692307693,436.9901061558356L135.69230769230768,435.7684947302409L138.46153846153848,437.72185354908635L141.23076923076923,438.8575290517581L144,437.4080529014542L146.76923076923077,436.20689455555873L149.53846153846155,438.08835387298774L152.3076923076923,439.16126017368276L155.0769230769231,437.6737350409406L157.84615384615384,437.5524495594524L160.6153846153846,439.51511830160354L163.3846153846154,438.9270134972435L166.15384615384616,436.6557449009986L168.92307692307693,437.8628079494459L171.6923076923077,439.69660745854026L174.46153846153845,439.5769660040421L177.23076923076923,437.08641420384316L180,437.99840806579994L182.76923076923077,439.05465288035447L185.53846153846152,438.90410958904107L188.30769230769232,438.45370544974537L191.07692307692307,438.6698866802898L193.84615384615384,439.27317201013364L196.61538461538458,439.7261680643505L199.3846153846154,438.8261851015801L202.15384615384616,439.05428783260567L204.9230769230769,440.1717396304531L207.69230769230768,440.45866022933006L210.46153846153848,439.0357837999701L213.23076923076923,439.38787522071806L216,440.5455791638108L218.76923076923075,440.8496864252478L221.53846153846155,439.98412068281067L224.30769230769232,441.1021814006889L227.07692307692307,442.4760553387726L229.84615384615384,441.72061023033206L232.61538461538464,440.9875095291151L235.3846153846154,441.7849204992307L238.15384615384616,442.4595818064238L240.9230769230769,442.38143722201386L243.6923076923077,441.6060701865317L246.46153846153845,441.72462332516557L249.23076923076923,442.7778381314503L251.99999999999997,442.1920148967632L254.76923076923077,440.851920761738L257.53846153846155,442.08691992002525L260.3076923076923,442.93786320965575L263.07692307692304,443.07302211302215L265.84615384615387,442.25609164158817L268.61538461538464,442.9366657199659L271.38461538461536,443.89404682274244L274.15384615384613,443.48886997805346L276.92307692307696,443.2765159771568L279.6923076923077,442.32379598365026L282.46153846153845,443.98075183022127L285.2307692307692,444.3624014554275L288,442.9216285609488L290.7692307692308,442.8444588727022L293.53846153846155,443.7638121546961L296.3076923076923,444.20204150815476L299.0769230769231,441.4988997170701L301.84615384615387,442.6468626856623L304.6153846153846,443.43727221187333L307.38461538461536,443.5551275878671L310.1538461538462,442.6577245508982L312.9230769230769,442.08123791102514L315.6923076923077,444.12932854338726L318.46153846153845,443.5810093457944L321.2307692307692,443.451243527095L324,443.3134371815403L326.7692307692308,443.3806041335453L329.53846153846155,444.2743256674778L332.3076923076923,443.0680133751594L335.0769230769231,443.1108067388029L337.84615384615387,444.36052165512797L340.6153846153846,443.79150126895297L343.3846153846154,441.83978361772466L346.1538461538462,442.80582712852055L348.9230769230769,443.5948634728004L351.6923076923077,443.64082433758585L354.46153846153845,444.93220003953354L357.2307692307692,442.4379695288914L360,444.11535820553905L362.7692307692308,443.8023232919866L365.53846153846155,443.54982596364573L368.30769230769226,442.88244514106583L371.07692307692304,444.1782178217822L373.84615384615387,443.68623801991254L376.61538461538464,443.2049079754601L379.3846153846154,443.8419773824879L382.15384615384613,444.0471780534685L384.9230769230769,444.14497947858257L387.6923076923077,442.1267332637543L390.46153846153845,442.2413823712164L393.23076923076917,443.79743888242143L396.00000000000006,443.76106707906433L398.7692307692308,443.09965371296653L401.53846153846155,442.7136222910217L404.3076923076923,444.15060021826116L407.0769230769231,443.17192634385265L409.8461538461538,443.7626704053933L412.6153846153846,443.6406543309198L415.38461538461536,444.20762675389517L418.1538461538462,443.8931442897899L420.92307692307696,442.96393139154833L423.6923076923077,443.4962391076041L426.46153846153845,443.09294682733633L429.2307692307692,444.052172207512L432,442.53127397671545L434.7692307692307,442.3843268028345L437.5384615384615,443.0945209868632L440.3076923076923,443.93826968043646L443.0769230769231,443.499227202473L445.84615384615387,443.7050414766292L448.61538461538464,443.4884141926141L451.38461538461536,443.2694516655583L454.15384615384613,444.72215108834826L456.9230769230769,444.1141539348516L459.6923076923077,444.8774416594641L462.4615384615385,444.5698009656466L465.2307692307693,442.7548872180451L468,443.52388935456827L470.7692307692308,444.6089933198179L473.53846153846155,456.7252460158495L476.3076923076923,443.5508879895649L479.07692307692304,443.73587907716785L481.8461538461538,443.4008862629247L484.61538461538464,443.4442484812855L487.3846153846154,443.4882827506723L490.1538461538462,443.8408085912824L492.9230769230769,444.29245591116916L495.6923076923077,444.26957512615985L498.46153846153845,443.29064039408865L501.2307692307692,443.889925973608L503.99999999999994,443.6043483454784L506.76923076923083,444.4450990271695L509.53846153846155,443.8676931409339L512.3076923076924,443.376909552647L515.0769230769231,443.98233428959685L517.8461538461538,444.69156742008033L520.6153846153846,443.7118069776967L523.3846153846154,443.13009386662645L526.1538461538461,444.45515911282547L528.9230769230769,443.90502005854927L531.6923076923077,444.89916053477043L534.4615384615385,444.16826568265685L537.2307692307693,444.8742125584231L540,444.9103783127655L542.7692307692307,443.8820638820639L545.5384615384615,444.1555285540705L548.3076923076923,445.0960923106759L551.0769230769231,444.4616747023517L553.8461538461539,444.45304937076475L556.6153846153846,444.22025832766826L559.3846153846154,444.3902253494342L562.1538461538462,445.292444116017L564.9230769230769,444.95475819032765L567.6923076923076,444.8370044052864L570.4615384615385,445.13477209635533L573.2307692307692,445.3815474607817L576,444.36526892340845L578.7692307692308,445.6512811664222L581.5384615384615,445.40415704387993L584.3076923076923,445.32102564102564L587.0769230769231,445.2944842105263L589.8461538461538,444.8389181833645L592.6153846153846,445.4997534921939L595.3846153846154,446.0314541495282L598.1538461538462,444.95000819537785L600.9230769230769,446.0789119949395L603.6923076923077,445.64139780705216L606.4615384615385,445.82478097622027L609.2307692307692,445.3716427232979L612,446.18032537631143L614.7692307692307,446.1863112176127L617.5384615384615,445.93682310469313L620.3076923076924,446.2222222222222L623.0769230769231,446.4837513631407L625.8461538461538,446.9268292682927L628.6153846153846,446.66903459543937L631.3846153846154,446.84329293773504L634.1538461538462,446.93289008934136L636.9230769230769,446.52753783428926L639.6923076923076,446.44442909442563L642.4615384615385,448.2331098504384L645.2307692307693,446.4618934509671L648,447.38495575221236L650.7692307692308,448.2084624628423L653.5384615384615,446.5577642196418L656.3076923076923,446.63403172116705L659.0769230769231,447.3492063492063L661.8461538461538,446.82943015761595L664.6153846153846,447.0063853762364L667.3846153846154,447.14305253341627L670.1538461538462,446.90623841877704L672.9230769230769,447.14986242739224L675.6923076923077,447.17844874344604L678.4615384615385,447.2486505937388L681.2307692307692,447.5290390707497L684,446.9839381320642L686.7692307692308,447.0263805838902L689.5384615384615,446.668085106383L692.3076923076924,447.6570458404074L695.0769230769231,447.4399681800102L697.8461538461538,447.0202783300199L700.6153846153846,446.7991331128094L703.3846153846154,447.21760880440223L706.1538461538461,447.0748329621381L708.9230769230769,454.68880719989863" style="fill: none; stroke: #f58518; stroke-width: 2;"></path></g></g></g><g transform="translate(0,0)"><path class="background" d="M0,0h720v480h-720Z" style="fill: none;"></path><g><g class="mark-line role-mark marks"><path d="M5.538461538461538,473.25169045830205L8.307692307692308,472.164763725758L11.076923076923077,468.86670033800846L13.846153846153847,469.22944951465706L16.615384615384617,466.070314125234L19.384615384615387,465.1783533165491L22.153846153846153,461.41511157510115L24.923076923076923,461.7609486166008L27.692307692307693,458.4950082472437L30.461538461538463,458.2056458285071L33.23076923076923,454.5211210214153L36,454.7775567051333L38.769230769230774,452.1101393927821L41.53846153846154,450.8269866287051L44.30769230769231,447.48140727208437L47.07692307692308,449.5633988610405L49.84615384615385,456.2228997016036L52.61538461538462,455.81889700569957L55.38461538461539,453.55038034315584L58.15384615384616,453.9658409972121L60.92307692307693,451.6637416637417L63.69230769230769,451.3732215568862L66.46153846153847,449.1042169424058L69.23076923076924,449.441325758849L72,448.30199902662366L74.76923076923077,448.02772663273043L77.53846153846155,445.782944694577L80.3076923076923,445.72813543495687L83.07692307692308,443.7332847981328L85.84615384615385,443.52206174496644L88.61538461538461,441.3470564018114L91.38461538461539,441.742183832504L94.15384615384616,448.9992587101557L96.92307692307692,448.673514059606L99.6923076923077,447.66103978740125L102.46153846153845,447.31823865113455L105.23076923076924,445.3728573332203L108,444.97032469409385L110.76923076923077,443.7277080008327L113.53846153846153,443.7099153236821L116.30769230769232,442.049655997607L119.07692307692308,441.68456287161416L121.84615384615385,440.6358803561135L124.61538461538461,440.91795571413576L127.38461538461539,439.0737269123206L130.15384615384616,438.7703325432591L132.92307692307693,436.9400359282639L135.69230769230768,436.8932851208798L138.46153846153848,445.02168880935244L141.23076923076923,444.7133468399466L144,443.3574249645361L146.76923076923077,443.54680704966813L149.53846153846155,442.22060333553105L152.3076923076923,442.3678084469571L155.0769230769231,440.7161415277056L157.84615384615384,440.9300955140325L160.6153846153846,439.58373225658744L163.3846153846154,439.65642061820216L166.15384615384616,438.32180260234844L168.92307692307693,437.8643004003896L171.6923076923077,437.12689173457505L174.46153846153845,437.1143250972082L177.23076923076923,446.90214635795166L180,446.8153613952708L182.76923076923077,447.1486134155013L185.53846153846152,446.13722486495203L188.30769230769232,442.59105187197554L191.07692307692307,445.12306004075873L193.84615384615384,444.3823057529223L196.61538461538458,445.117106433442L199.3846153846154,449.19689767325497L202.15384615384616,443.6985100788782L204.9230769230769,448.5163636363637L207.69230769230768,442.62673796791444L210.46153846153848,447.7187186596661L213.23076923076923,447.82091640433714L216,441.5650664352006L218.76923076923075,447.0678994838051L221.53846153846155,446.1896243291592L224.30769230769232,446.2605809128631L227.07692307692307,445.3729063233128L229.84615384615384,445.51657235246563L232.61538461538464,444.5863941232833L235.3846153846154,444.868234924294L238.15384615384616,444.43014705882354L240.9230769230769,443.9278557114228L243.6923076923077,443.134834303061L246.46153846153845,443.2791477016956L249.23076923076923,442.4329806479908L251.99999999999997,442.37745926208515L254.76923076923077,441.5028789754076L257.53846153846155,441.63271391299713L260.3076923076923,443.65455431076475L263.07692307692304,444.570297029703L265.84615384615387,443.4534943836067L268.61538461538464,443.5356028500908L271.38461538461536,442.58255926798836L274.15384615384613,443.4561348455642L276.92307692307696,444.0644996160737L279.6923076923077,443.4160483175151L282.46153846153845,441.8931337568532L285.2307692307692,441.88290236097896L288,444.7217030516887L290.7692307692308,443.92482565698754L293.53846153846155,443.6522475369458L296.3076923076923,440.2791825134785L299.0769230769231,440.98685991877045L301.84615384615387,443.0251293976446L304.6153846153846,442.0808601187143L307.38461538461536,442.46479338842977L310.1538461538462,441.269294468367L312.9230769230769,441.58118646143794L315.6923076923077,445.1088295687885L318.46153846153845,442.0443370865313L321.2307692307692,442.1009642654566L324,440.1990049751244L326.7692307692308,440.0265329733899L329.53846153846155,440.80881302402526L332.3076923076923,440.0715563506261L335.0769230769231,439.214356023321L337.84615384615387,438.9151787371469L340.6153846153846,438.0506634499397L343.3846153846154,439.61323155216286L346.1538461538462,438.5254494260342L348.9230769230769,441.35273299252856L351.6923076923077,442.1117218458392L354.46153846153845,442.6836809815951L357.2307692307692,440.7180212014134L360,440.1537630650952L362.7692307692308,440.65177998145106L365.53846153846155,436.801443802012L368.30769230769226,439.18846407590087L371.07692307692304,439.0971139667158L373.84615384615387,441.1832106624229L376.61538461538464,441.141598367294L379.3846153846154,444.69864698646984L382.15384615384613,439.37249481686246L384.9230769230769,439.48687132593074L387.6923076923077,439.57733927434754L390.46153846153845,438.85448976301785L393.23076923076917,438.345579793341L396.00000000000006,439.0945137157107L398.7692307692308,438.01050788091067L401.53846153846155,437.81347344717585L404.3076923076923,437.30201466901866L407.0769230769231,438.2881906825569L409.8461538461538,437.38112708245626L412.6153846153846,436.58732046473335L415.38461538461536,438.55125436118954L418.1538461538462,439.0273381294964L420.92307692307696,439.0675787993095L423.6923076923077,438.05811564426176L426.46153846153845,437.6439186357629L429.2307692307692,437.9726742889901L432,435.1989363470168L434.7692307692307,434.32141617493926L437.5384615384615,436.31529709228823L440.3076923076923,437.0153912854975L443.0769230769231,435.95262519817214L445.84615384615387,435.8322520564954L448.61538461538464,436.14772761588404L451.38461538461536,437.64410619880323L454.15384615384613,437.36084601496003L456.9230769230769,435.6706133713166L459.6923076923077,433.5925937204982L462.4615384615385,436.6756335834631L465.2307692307693,436.1640633779076L468,436.6513738620327L470.7692307692308,437.4904991537061L473.53846153846155,449.7277052027486L476.3076923076923,434.53390443344273L479.07692307692304,434.5342110512667L481.8461538461538,435.28872064673425L484.61538461538464,433.3251042535446L487.3846153846154,430.97661623108667L490.1538461538462,435.36494073611976L492.9230769230769,434.59211960753777L495.6923076923077,436.8646640922088L498.46153846153845,436.87250419584467L501.2307692307692,434.09457759229144L503.99999999999994,435.0411710887466L506.76923076923083,438.31591861772824L509.53846153846155,435.53981492059864L512.3076923076924,435.1918774737566L515.0769230769231,433.9523974982627L517.8461538461538,433.0132187122796L520.6153846153846,435.5878191325746L523.3846153846154,434.53371452478905L526.1538461538461,437.2857786647782L528.9230769230769,437.65926868044517L531.6923076923077,436.4080056631701L534.4615384615385,436.3423359773917L537.2307692307693,435.053240590262L540,437.41691558574405L542.7692307692307,436.3059901746274L545.5384615384615,435.63909774436087L548.3076923076923,436.3997093023256L551.0769230769231,435.98456351301945L553.8461538461539,437.3684210526316L556.6153846153846,435.45952045133987L559.3846153846154,436.21837736731356L562.1538461538462,435.0742497309792L564.9230769230769,432.0286405175392L567.6923076923076,432.31661481020535L570.4615384615385,437.2200857048676L573.2307692307692,437.6539462272333L576,435.09910997133807L578.7692307692308,437.4777314963153L581.5384615384615,437.2542802790108L584.3076923076923,438.711305586649L587.0769230769231,435.8181818181818L589.8461538461538,438.74011976047905L592.6153846153846,438.8566389024988L595.3846153846154,439.00564531827916L598.1538461538462,439.79695431472084L600.9230769230769,439.80511571254567L603.6923076923077,438.5137632155443L606.4615384615385,437.7142857142857L609.2307692307692,439.47738693467335L612,436.75053470736924L614.7692307692307,440.8133298620151L617.5384615384615,440.19476182105814L620.3076923076924,438.2896551724138L623.0769230769231,441.55637091394266L625.8461538461538,441.24430453152183L628.6153846153846,440.91954022988506L631.3846153846154,441.4210696920584L634.1538461538462,441.24859995130265L636.9230769230769,442.55276381909545L639.6923076923076,442.51666666666665L642.4615384615385,441.5805395290816L645.2307692307693,443.36392616205796L648,442.21994422250697L650.7692307692308,442.7607052896725L653.5384615384615,441.2438227020452L656.3076923076923,441.7136009586579L659.0769230769231,442.46459087617666L661.8461538461538,442.2089422028353L664.6153846153846,443.19553072625695L667.3846153846154,442.42417348027016L670.1538461538462,442.6680602006689L672.9230769230769,443.12532601235415L675.6923076923077,442.4615384615385L678.4615384615385,442.5628299170494L681.2307692307692,442.39298817774153L684,442.34479951150007L686.7692307692308,442.716160678775L689.5384615384615,442.3840458880811L692.3076923076924,442.2622820919176L695.0769230769231,442.7858163397844L697.8461538461538,442.1087254454089L700.6153846153846,442.39136895148266L703.3846153846154,441.8975386006848L706.1538461538461,444.50351161534303L708.9230769230769,449.53001017294" style="fill: none; stroke: #eeca3b; stroke-width: 2;"></path></g></g></g><g transform="translate(0,0)"><path class="background" d="M0,0h720v480h-720Z" style="fill: none;"></path><g><g class="mark-line role-mark marks"><path d="M5.538461538461538,475.4563254283062L8.307692307692308,475.037060105886L11.076923076923077,472.28460543337644L13.846153846153847,471.9070512043079L16.615384615384617,468.8048918392562L19.384615384615387,468.61670087667136L22.153846153846153,465.681005153771L24.923076923076923,465.3229753226244L27.692307692307693,462.3454652144666L30.461538461538463,462.11786517619794L33.23076923076923,459.15327595642003L36,459.0062845172348L38.769230769230774,456.1645530738514L41.53846153846154,455.82948081552655L44.30769230769231,453.1872167757605L47.07692307692308,452.70004942483064L49.84615384615385,458.22375400108996L52.61538461538462,458.2116741500962L55.38461538461539,456.13718078731443L58.15384615384616,456.0849154776496L60.92307692307693,453.943367546815L63.69230769230769,453.8894607294697L66.46153846153847,451.68823352392417L69.23076923076924,451.4987015880906L72,449.53119408326376L74.76923076923077,449.2884597356333L77.53846153846155,447.210134859011L80.3076923076923,447.3016283436452L83.07692307692308,445.0777874286719L85.84615384615385,445.141711684164L88.61538461538461,442.85180616740087L91.38461538461539,442.9401817849082L94.15384615384616,450.1864982633407L96.92307692307692,450.14160505678916L99.6923076923077,448.47137244407685L102.46153846153845,448.45991183111715L105.23076923076924,446.50767464204534L108,446.50524545988463L110.76923076923077,445.1450290058012L113.53846153846153,444.8528411419962L116.30769230769232,443.5615905227256L119.07692307692308,443.4262415188099L121.84615384615385,441.9757679497623L124.61538461538461,441.97463701525453L127.38461538461539,440.33612103550826L130.15384615384616,440.272181612884L132.92307692307693,438.6169306496418L135.69230769230768,438.1986230202274L138.46153846153848,446.7653863951874L141.23076923076923,446.7457401799939L144,445.59819595436034L146.76923076923077,445.61537653607814L149.53846153846155,444.3442092339744L152.3076923076923,444.5126833638661L155.0769230769231,443.1078263089952L157.84615384615384,443.09473557257434L160.6153846153846,441.9849854450743L163.3846153846154,442.12015795757185L166.15384615384616,440.8299912816042L168.92307692307693,440.9393095890411L171.6923076923077,439.5718755145727L174.46153846153845,439.6682116414855L177.23076923076923,448.61538461538464L180,448.7714037717983L182.76923076923077,450.3L185.53846153846152,447.8333460978785L188.30769230769232,449.71754518589785L191.07692307692307,446.7269872130412L193.84615384615384,446.1855371001668L196.61538461538458,448.512745032448L199.3846153846154,453.6345628780984L202.15384615384616,445.7473640686376L204.9230769230769,452.96205694061314L207.69230769230768,444.6840048510982L210.46153846153848,452.2219402000101L213.23076923076923,452.1984386804332L216,445.3750375939849L218.76923076923075,451.64619057955287L221.53846153846155,450.9928057553957L224.30769230769232,450.77132814996276L227.07692307692307,450.04813591316656L229.84615384615384,450.2691930404254L232.61538461538464,449.50277593847096L235.3846153846154,449.4381931432623L238.15384615384616,448.8507974362796L240.9230769230769,448.8323220364067L243.6923076923077,448.33835457705675L246.46153846153845,448.10465340799385L249.23076923076923,447.4785249869489L251.99999999999997,448.1020238425284L254.76923076923077,446.71976181615184L257.53846153846155,446.67394320599385L260.3076923076923,450.71193625623107L263.07692307692304,451.1806711409396L265.84615384615387,451.02723648422074L268.61538461538464,451.10234585841806L271.38461538461536,449.77354686975025L274.15384615384613,450.15249001112164L276.92307692307696,446.72065736973093L279.6923076923077,446.93250146227336L282.46153846153845,449.5734219269103L285.2307692307692,448.9116013331217L288,450.316253119953L290.7692307692308,451.7498090940646L293.53846153846155,451.5503744620285L296.3076923076923,448.8472601224279L299.0769230769231,447.28600405679515L301.84615384615387,450.90387488793704L304.6153846153846,450.02987452698665L307.38461538461536,449.25738653670425L310.1538461538462,448.6625125628141L312.9230769230769,450.2800833807088L315.6923076923077,449.4369201640896L318.46153846153845,447.7905177544138L321.2307692307692,448.7317879761645L324,448.8866939466629L326.7692307692308,448.4528853177502L329.53846153846155,447.23452676578756L332.3076923076923,446.17007167892893L335.0769230769231,447.9491346775016L337.84615384615387,447.4792303300984L340.6153846153846,446.28482393268933L343.3846153846154,445.8876266502916L346.1538461538462,447.0918196994991L348.9230769230769,447.4559273392412L351.6923076923077,446.90170053919536L354.46153846153845,448.28507582754816L357.2307692307692,447.14086539937966L360,446.76176630928586L362.7692307692308,445.47023101483757L365.53846153846155,446.8850174216028L368.30769230769226,446.1296781883194L371.07692307692304,445.7686363235683L373.84615384615387,448.6894012667312L376.61538461538464,448.65556978233036L379.3846153846154,448.28047769625147L382.15384615384613,447.21858736059477L384.9230769230769,448.63433628318586L387.6923076923077,447.23529765846024L390.46153846153845,446.7480164158687L393.23076923076917,446.3056642388491L396.00000000000006,446.67800325877647L398.7692307692308,446.86109191430546L401.53846153846155,445.88142945672377L404.3076923076923,446.8302807617872L407.0769230769231,446.3684746914279L409.8461538461538,445.2799817080142L412.6153846153846,445.01459330829437L415.38461538461536,446.8368160791195L418.1538461538462,446.9425360139307L420.92307692307696,446.9339944220638L423.6923076923077,446.5922693266833L426.46153846153845,446.4396493594066L429.2307692307692,446.5516926726891L432,443.6398951150821L434.7692307692307,443.2561321215675L437.5384615384615,445.13439883763164L440.3076923076923,445.29300567107754L443.0769230769231,445.6144437973209L445.84615384615387,444.9122599354896L448.61538461538464,445.6271258654358L451.38461538461536,444.7811721059649L454.15384615384613,444.84219481071887L456.9230769230769,445.5348837209302L459.6923076923077,442.5718411977954L462.4615384615385,444.40784423197715L465.2307692307693,443.89128397375816L468,445.22197802197803L470.7692307692308,445.52224308748305L473.53846153846155,459.1118405627198L476.3076923076923,441.8460245772503L479.07692307692304,441.2435879268811L481.8461538461538,444.39090444557996L484.61538461538464,440.8498373500297L487.3846153846154,440.88620618698127L490.1538461538462,443.73427946906577L492.9230769230769,443.3079754601227L495.6923076923077,442.90445859872614L498.46153846153845,442.67234362281636L501.2307692307692,443.4145029144418L503.99999999999994,444.3496372571963L506.76923076923083,443.7682372921521L509.53846153846155,443.01346428005706L512.3076923076924,443.79280775618986L515.0769230769231,442.2002139206909L517.8461538461538,442.8029832193909L520.6153846153846,441.2195296645577L523.3846153846154,443.8763434903047L526.1538461538461,443.93346379647755L528.9230769230769,443.360774818402L531.6923076923077,445.5209202891173L534.4615384615385,444.9805255023184L537.2307692307693,444.0897475849174L540,444.26331513340887L542.7692307692307,443.5800557448126L545.5384615384615,443.8036809815951L548.3076923076923,443.8081640860647L551.0769230769231,442.37358058131053L553.8461538461539,443.3130182835448L556.6153846153846,443.14285714285717L559.3846153846154,442.9089828661979L562.1538461538462,443.0536873156342L564.9230769230769,439.851976450799L567.6923076923076,441.6442086294924L570.4615384615385,446.3404512838247L573.2307692307692,443.51578554081823L576,442.9998135371993L578.7692307692308,444.74488621269813L581.5384615384615,445.2017551406694L584.3076923076923,446.7177425969978L587.0769230769231,444.06278339727936L589.8461538461538,445.46165413533834L592.6153846153846,445.2772080714522L595.3846153846154,447.2083463095609L598.1538461538462,447.4990500797933L600.9230769230769,446.8853724430722L603.6923076923077,446.760989010989L606.4615384615385,444.08877198750616L609.2307692307692,447.9259473531964L612,445.6130478472598L614.7692307692307,449.52500506175335L617.5384615384615,448.61589633428036L620.3076923076924,446.0325155187703L623.0769230769231,449.69591796489846L625.8461538461538,449.2264175766347L628.6153846153846,448.77620283489716L631.3846153846154,449.36722218647446L634.1538461538462,449.81946902654863L636.9230769230769,450.4050833995234L639.6923076923076,450.3066014669927L642.4615384615385,449.10158013544014L645.2307692307693,450.84288158593426L648,449.5431731178222L650.7692307692308,450.80636543152514L653.5384615384615,449.12977653969597L656.3076923076923,449.5024460088295L659.0769230769231,449.94991304347826L661.8461538461538,449.8202508128193L664.6153846153846,450.22709298384365L667.3846153846154,450.01735973222895L670.1538461538462,449.938394209729L672.9230769230769,449.5169361702127L675.6923076923077,449.588563770382L678.4615384615385,449.41324073036856L681.2307692307692,449.45532807240215L684,449.24867021276594L686.7692307692308,449.92171122994654L689.5384615384615,449.337465340075L692.3076923076924,449.0679800822689L695.0769230769231,449.8662179217501L697.8461538461538,449.3124735729387L700.6153846153846,449.0101676869843L703.3846153846154,447.89570518752384L706.1538461538461,449.80823036863063L708.9230769230769,457.7407847800238" style="fill: none; stroke: #b279a2; stroke-width: 2;"></path></g></g></g><g transform="translate(0,0)"><path class="background" d="M0,0h720v480h-720Z" style="fill: none;"></path><g><g class="mark-line role-mark marks"><path d="M5.538461538461538,459.7525309336333L8.307692307692308,454.4952178533475L11.076923076923077,450.06237006237006L13.846153846153847,429.7057237039257L16.615384615384617,435.41652892561984L19.384615384615387,403.45805133444003L22.153846153846153,368.9714432724466L24.923076923076923,360.41130579357974L27.692307692307693,335.8474576271186L30.461538461538463,375.9665271966527L33.23076923076923,327.62362079618674L36,319.21503573634516L38.769230769230774,346.3279735161977L41.53846153846154,283.21472392638043L44.30769230769231,261.44323625579807L47.07692307692308,275.0578410568827L49.84615384615385,247.38787522071806L52.61538461538462,260.3353978084802L55.38461538461539,280.27637375376764L58.15384615384616,257.1576206689365L60.92307692307693,295.42070556016L63.69230769230769,290.51021507306746L66.46153846153847,276.9770693323427L69.23076923076924,271.4291115311909L72,265.7903300076746L74.76923076923077,253.06655674287336L77.53846153846155,252.25656939501778L80.3076923076923,247.55860504678196L83.07692307692308,230.97596324755938L85.84615384615385,248.4088158386253L88.61538461538461,206.9913200435325L91.38461538461539,214.62341868231962L94.15384615384616,212.6183261015848L96.92307692307692,198.65386365269023L99.6923076923077,175.76743414032674L102.46153846153845,172.4308039917153L105.23076923076924,166.56791104050828L108,160.66970972745398L110.76923076923077,140.18611309949893L113.53846153846153,153.50722017952873L116.30769230769232,153.03934482561138L119.07692307692308,84.47470201072079L121.84615384615385,211.4359412813193L124.61538461538461,220.77850568040463L127.38461538461539,211.3271068054701L130.15384615384616,198.8391024669761L132.92307692307693,147.3713152356584L135.69230769230768,196.42651475118254L138.46153846153848,185.58582764162313L141.23076923076923,158.4469783659348L144,167.45134365325075L146.76923076923077,170.24433203537245L149.53846153846155,171.3380906019128L152.3076923076923,153.83545660197638L155.0769230769231,125.43947012771969L157.84615384615384,149.5150115473441L160.6153846153846,143.4365302007539L163.3846153846154,81.57685023861819L166.15384615384616,132.6320471948907L168.92307692307693,132.6214079929083L171.6923076923077,131.8297670973582L174.46153846153845,118.25335518264222L177.23076923076923,42.529603305206365L180,202.38344118954703L182.76923076923077,186.2312591216664L185.53846153846152,148.68232565140013L188.30769230769232,189.01772041128854L191.07692307692307,183.99446988118376L193.84615384615384,195.13489800394825L196.61538461538458,200.60258624714064L199.3846153846154,179.37096774193552L202.15384615384616,232.6617273028862L204.9230769230769,254.08098416726432L207.69230769230768,146.17752388267488L210.46153846153848,250.61608497723822L213.23076923076923,269.57289084988383L216,294.85307532097755L218.76923076923075,317.07607809597624L221.53846153846155,199.50211728474275L224.30769230769232,307.22030414042115L227.07692307692307,327.5803433814832L229.84615384615384,280.00171715274615L232.61538461538464,319.8079496642265L235.3846153846154,332.4051753033452L238.15384615384616,337.9682179341657L240.9230769230769,315.2034918013448L243.6923076923077,292.6364886195835L246.46153846153845,329.1868403676648L249.23076923076923,335.08992895363554L251.99999999999997,211.07546673678675L254.76923076923077,322.925175082934L257.53846153846155,335.6320402672915L260.3076923076923,333.64169968627374L263.07692307692304,321.82421855526195L265.84615384615387,204.92140459316883L268.61538461538464,335.01357550791124L271.38461538461536,329.15464539040494L274.15384615384613,290.0989891426432L276.92307692307696,318.6848733925494L279.6923076923077,331.46626619530434L282.46153846153845,334.89798360671307L285.2307692307692,322.2462238620082L288,289.4590331445124L290.7692307692308,333.4408184865055L293.53846153846155,331.8551028051744L296.3076923076923,186.44144978952102L299.0769230769231,326.35044811629854L301.84615384615387,337.3489307256443L304.6153846153846,337.30162581897594L307.38461538461536,324.9390186253191L310.1538461538462,206.42150188705867L312.9230769230769,337.4234450097958L315.6923076923077,340.5290484040757L318.46153846153845,302.2507663114874L321.2307692307692,323.81922208807936L324,333.08434047121096L326.7692307692308,334.9347408829174L329.53846153846155,323.48828828828823L332.3076923076923,290.982851266748L335.0769230769231,334.4090133151246L337.84615384615387,332.9492704609141L340.6153846153846,193.77777777777777L343.3846153846154,322.03106676267873L346.1538461538462,329.368894216362L348.9230769230769,329.16565900846433L351.6923076923077,321.50203499598945L354.46153846153845,189.40955887502633L357.2307692307692,334.07541766109784L360,330.95541401273886L362.7692307692308,296.3770861524583L365.53846153846155,325.0484319555001L368.30769230769226,330.81855764813963L371.07692307692304,330.25373402915244L373.84615384615387,317.8831055539401L376.61538461538464,292.06110458284377L379.3846153846154,347.00648748841513L382.15384615384613,337.18357761762087L384.9230769230769,199.6579302081773L387.6923076923077,316.6876687668767L390.46153846153845,337.5638721775139L393.23076923076917,327.52145133611185L396.00000000000006,322.08238564569115L398.7692307692308,192.4263265770895L401.53846153846155,331.95451751690223L404.3076923076923,334.6352975883177L407.0769230769231,305.1192368839428L409.8461538461538,322.8928377434624L412.6153846153846,333.6547456285529L415.38461538461536,338.5329341317365L418.1538461538462,326.74592690444734L420.92307692307696,302.6034912718204L423.6923076923077,337.8903401180136L426.46153846153845,336.58939096267187L429.2307692307692,196.55683761713195L432,325.74606880450455L434.7692307692307,330.6751389992057L437.5384615384615,336.61396738453874L440.3076923076923,323.37440758293843L443.0769230769231,195.9787837671148L445.84615384615387,342.1896792189679L448.61538461538464,335.1337762614473L451.38461538461536,291.944594908303L454.15384615384613,320.8012326656394L456.9230769230769,334.9513545004369L459.6923076923077,337.70631407922014L462.4615384615385,324.6353500274173L465.2307692307693,291.58878504672896L468,336.59581479650683L470.7692307692308,335.4173681637973L473.53846153846155,193.0205089659615L476.3076923076923,339.2945308061767L479.07692307692304,346.6773547094188L481.8461538461538,345.9435716575826L484.61538461538464,329.3588156123822L487.3846153846154,202.83464566929132L490.1538461538462,341.1623168720287L492.9230769230769,337.71119027865893L495.6923076923077,293.9977119613576L498.46153846153845,325.4823492820486L501.2307692307692,342.3597607728876L503.99999999999994,343.994246317147L506.76923076923083,325.944883873243L509.53846153846155,292.3965049713769L512.3076923076924,338.6953419426159L515.0769230769231,336.49270567002554L517.8461538461538,202.74819768956826L520.6153846153846,327.37022342869074L523.3846153846154,338.9557275392972L526.1538461538461,346.58653201662275L528.9230769230769,328.150828645279L531.6923076923077,204.66628729371587L534.4615384615385,343.1113895726113L537.2307692307693,342.0967999290843L540,298.2553570493006L542.7692307692307,334.2884677160295L545.5384615384615,344.5868752125128L548.3076923076923,345.6070687795569L551.0769230769231,328.8100465116279L553.8461538461539,300.9071695659242L556.6153846153846,343.011113406321L559.3846153846154,343.5506436725771L562.1538461538462,213.04156305506217L564.9230769230769,330.1028391992673L567.6923076923076,343.22541747649836L570.4615384615385,349.21733288545516L573.2307692307692,336.61962639693286L576,217.01941554568944L578.7692307692308,351.97170190529783L581.5384615384615,344.0013449899126L584.3076923076923,298.98101422693696L587.0769230769231,331.82950505332957L589.8461538461538,343.149950347567L592.6153846153846,353.6954200195533L595.3846153846154,341.625954825462L598.1538461538462,310.9713683470929L600.9230769230769,349.8965085863755L603.6923076923077,350.57970583865693L606.4615384615385,234.49763991908296L609.2307692307692,339.4231378763867L612,350.3634575456234L614.7692307692307,353.0536969356199L617.5384615384615,343.2742641509434L620.3076923076924,233.98843930635837L623.0769230769231,349.792480141218L625.8461538461538,347.95935647756136L628.6153846153846,309.2714482089431L631.3846153846154,346.26946170862743L634.1538461538462,356.5864943457189L636.9230769230769,358.55584806318166L639.6923076923076,348.02933985330077L642.4615384615385,314.7586720816722L645.2307692307693,355.6847996981322L648,357.04236902050116L650.7692307692308,241.17073170731703L653.5384615384615,347.654962030246L656.3076923076923,358.72708170942485L659.0769230769231,359.0322709694626L661.8461538461538,343.92251308900524L664.6153846153846,248.05085574572126L667.3846153846154,358.38101186758274L670.1538461538462,358.5139932625032L672.9230769230769,317.85604345857854L675.6923076923077,348.9946391752577L678.4615384615385,358.28211169840154L681.2307692307692,360.7295674926889L684,350.09295793486257L686.7692307692308,317.34412955465586L689.5384615384615,359.91750821267794L692.3076923076924,358.95246452237586L695.0769230769231,246.15507390949486L697.8461538461538,348.66619272280747L700.6153846153846,360.435185728537L703.3846153846154,358.1429752066116L706.1538461538461,344.61645134914147L708.9230769230769,244.9799476896251" style="fill: none; stroke: #54a24b; stroke-width: 2;"></path></g></g></g></g><g class="mark-group role-legend"><g transform="translate(738,0)"><path class="background" d="M0,0h101v105h-101Z" style="pointer-events: none; fill: none;"></path><g><g class="mark-group role-legend-entry"><g transform="translate(0,16)"><path class="background" d="M0,0h0v0h0Z" style="pointer-events: none; fill: none;"></path><g><g class="mark-group role-scope"><g transform="translate(0,0)"><path class="background" d="M0,0h101v11h-101Z" style="pointer-events: none; fill: none; opacity: 1;"></path><g><g class="mark-symbol role-legend-symbol" style="pointer-events: none;"><path transform="translate(6,6)" d="M-5,0L5,0" style="fill: none; stroke: #4c78a8; stroke-width: 1.5; opacity: 1;"></path></g><g class="mark-text role-legend-label" style="pointer-events: none;"><text text-anchor="start" transform="translate(16,9)" style="font-family: sans-serif; font-size: 10px; fill: #000; opacity: 1;">Clang-Polly</text></g></g></g><g transform="translate(0,13)"><path class="background" d="M0,0h101v11h-101Z" style="pointer-events: none; fill: none; opacity: 1;"></path><g><g class="mark-symbol role-legend-symbol" style="pointer-events: none;"><path transform="translate(6,6)" d="M-5,0L5,0" style="fill: none; stroke: #f58518; stroke-width: 1.5; opacity: 1;"></path></g><g class="mark-text role-legend-label" style="pointer-events: none;"><text text-anchor="start" transform="translate(16,9)" style="font-family: sans-serif; font-size: 10px; fill: #000; opacity: 1;">GFortran</text></g></g></g><g transform="translate(0,26)"><path class="background" d="M0,0h101v11h-101Z" style="pointer-events: none; fill: none; opacity: 1;"></path><g><g class="mark-symbol role-legend-symbol" style="pointer-events: none;"><path transform="translate(6,6)" d="M-5,0L5,0" style="fill: none; stroke: #e45756; stroke-width: 1.5; opacity: 1;"></path></g><g class="mark-text role-legend-label" style="pointer-events: none;"><text text-anchor="start" transform="translate(16,9)" style="font-family: sans-serif; font-size: 10px; fill: #000; opacity: 1;">IntelMKL</text></g></g></g><g transform="translate(0,39)"><path class="background" d="M0,0h101v11h-101Z" style="pointer-events: none; fill: none; opacity: 1;"></path><g><g class="mark-symbol role-legend-symbol" style="pointer-events: none;"><path transform="translate(6,6)" d="M-5,0L5,0" style="fill: none; stroke: #72b7b2; stroke-width: 1.5; opacity: 1;"></path></g><g class="mark-text role-legend-label" style="pointer-events: none;"><text text-anchor="start" transform="translate(16,9)" style="font-family: sans-serif; font-size: 10px; fill: #000; opacity: 1;">Julia</text></g></g></g><g transform="translate(0,52)"><path class="background" d="M0,0h101v11h-101Z" style="pointer-events: none; fill: none; opacity: 1;"></path><g><g class="mark-symbol role-legend-symbol" style="pointer-events: none;"><path transform="translate(6,6)" d="M-5,0L5,0" style="fill: none; stroke: #54a24b; stroke-width: 1.5; opacity: 1;"></path></g><g class="mark-text role-legend-label" style="pointer-events: none;"><text text-anchor="start" transform="translate(16,9)" style="font-family: sans-serif; font-size: 10px; fill: #000; opacity: 1;">LoopVectorization</text></g></g></g><g transform="translate(0,65)"><path class="background" d="M0,0h101v11h-101Z" style="pointer-events: none; fill: none; opacity: 1;"></path><g><g class="mark-symbol role-legend-symbol" style="pointer-events: none;"><path transform="translate(6,6)" d="M-5,0L5,0" style="fill: none; stroke: #eeca3b; stroke-width: 1.5; opacity: 1;"></path></g><g class="mark-text role-legend-label" style="pointer-events: none;"><text text-anchor="start" transform="translate(16,9)" style="font-family: sans-serif; font-size: 10px; fill: #000; opacity: 1;">icc</text></g></g></g><g transform="translate(0,78)"><path class="background" d="M0,0h101v11h-101Z" style="pointer-events: none; fill: none; opacity: 1;"></path><g><g class="mark-symbol role-legend-symbol" style="pointer-events: none;"><path transform="translate(6,6)" d="M-5,0L5,0" style="fill: none; stroke: #b279a2; stroke-width: 1.5; opacity: 1;"></path></g><g class="mark-text role-legend-label" style="pointer-events: none;"><text text-anchor="start" transform="translate(16,9)" style="font-family: sans-serif; font-size: 10px; fill: #000; opacity: 1;">ifort</text></g></g></g></g></g></g></g><g class="mark-text role-legend-title" style="pointer-events: none;"><text text-anchor="start" transform="translate(0,9)" style="font-family: sans-serif; font-size: 11px; font-weight: bold; fill: #000; opacity: 1;">Method</text></g></g></g></g><g class="mark-group role-axis"><g transform="translate(0.5,480.5)"><path class="background" d="M0,0h0v0h0Z" style="pointer-events: none; fill: none;"></path><g><g class="mark-rule role-axis-tick" style="pointer-events: none;"><line transform="translate(0,0)" x2="0" y2="5" style="fill: none; stroke: #888; stroke-width: 1; opacity: 1;"></line><line transform="translate(55,0)" x2="0" y2="5" style="fill: none; stroke: #888; stroke-width: 1; opacity: 1;"></line><line transform="translate(111,0)" x2="0" y2="5" style="fill: none; stroke: #888; stroke-width: 1; opacity: 1;"></line><line transform="translate(166,0)" x2="0" y2="5" style="fill: none; stroke: #888; stroke-width: 1; opacity: 1;"></line><line transform="translate(222,0)" x2="0" y2="5" style="fill: none; stroke: #888; stroke-width: 1; opacity: 1;"></line><line transform="translate(277,0)" x2="0" y2="5" style="fill: none; stroke: #888; stroke-width: 1; opacity: 1;"></line><line transform="translate(332,0)" x2="0" y2="5" style="fill: none; stroke: #888; stroke-width: 1; opacity: 1;"></line><line transform="translate(388,0)" x2="0" y2="5" style="fill: none; stroke: #888; stroke-width: 1; opacity: 1;"></line><line transform="translate(443,0)" x2="0" y2="5" style="fill: none; stroke: #888; stroke-width: 1; opacity: 1;"></line><line transform="translate(498,0)" x2="0" y2="5" style="fill: none; stroke: #888; stroke-width: 1; opacity: 1;"></line><line transform="translate(554,0)" x2="0" y2="5" style="fill: none; stroke: #888; stroke-width: 1; opacity: 1;"></line><line transform="translate(609,0)" x2="0" y2="5" style="fill: none; stroke: #888; stroke-width: 1; opacity: 1;"></line><line transform="translate(665,0)" x2="0" y2="5" style="fill: none; stroke: #888; stroke-width: 1; opacity: 1;"></line><line transform="translate(720,0)" x2="0" y2="5" style="fill: none; stroke: #888; stroke-width: 1; opacity: 1;"></line></g><g class="mark-text role-axis-label" style="pointer-events: none;"><text text-anchor="start" transform="translate(0,15)" style="font-family: sans-serif; font-size: 10px; fill: #000; opacity: 1;">0</text><text text-anchor="middle" transform="translate(55.38461538461539,15)" style="font-family: sans-serif; font-size: 10px; fill: #000; opacity: 1;">20</text><text text-anchor="middle" transform="translate(110.76923076923077,15)" style="font-family: sans-serif; font-size: 10px; fill: #000; opacity: 1;">40</text><text text-anchor="middle" transform="translate(166.15384615384616,15)" style="font-family: sans-serif; font-size: 10px; fill: #000; opacity: 1;">60</text><text text-anchor="middle" transform="translate(221.53846153846155,15)" style="font-family: sans-serif; font-size: 10px; fill: #000; opacity: 1;">80</text><text text-anchor="middle" transform="translate(276.92307692307696,15)" style="font-family: sans-serif; font-size: 10px; fill: #000; opacity: 1;">100</text><text text-anchor="middle" transform="translate(332.3076923076923,15)" style="font-family: sans-serif; font-size: 10px; fill: #000; opacity: 1;">120</text><text text-anchor="middle" transform="translate(387.6923076923077,15)" style="font-family: sans-serif; font-size: 10px; fill: #000; opacity: 1;">140</text><text text-anchor="middle" transform="translate(443.0769230769231,15)" style="font-family: sans-serif; font-size: 10px; fill: #000; opacity: 1;">160</text><text text-anchor="middle" transform="translate(498.46153846153845,15)" style="font-family: sans-serif; font-size: 10px; fill: #000; opacity: 1;">180</text><text text-anchor="middle" transform="translate(553.8461538461539,15)" style="font-family: sans-serif; font-size: 10px; fill: #000; opacity: 1;">200</text><text text-anchor="middle" transform="translate(609.2307692307692,15)" style="font-family: sans-serif; font-size: 10px; fill: #000; opacity: 1;">220</text><text text-anchor="middle" transform="translate(664.6153846153846,15)" style="font-family: sans-serif; font-size: 10px; fill: #000; opacity: 1;">240</text><text text-anchor="end" transform="translate(720,15)" style="font-family: sans-serif; font-size: 10px; fill: #000; opacity: 1;">260</text></g><g class="mark-rule role-axis-domain" style="pointer-events: none;"><line transform="translate(0,0)" x2="720" y2="0" style="fill: none; stroke: #888; stroke-width: 1; opacity: 1;"></line></g><g class="mark-text role-axis-title" style="pointer-events: none;"><text text-anchor="middle" transform="translate(360,30)" style="font-family: sans-serif; font-size: 11px; font-weight: bold; fill: #000; opacity: 1;">Size</text></g></g></g></g><g class="mark-group role-axis"><g transform="translate(0.5,0.5)"><path class="background" d="M0,0h0v0h0Z" style="pointer-events: none; fill: none;"></path><g><g class="mark-rule role-axis-tick" style="pointer-events: none;"><line transform="translate(0,480)" x2="-5" y2="0" style="fill: none; stroke: #888; stroke-width: 1; opacity: 1;"></line><line transform="translate(0,450)" x2="-5" y2="0" style="fill: none; stroke: #888; stroke-width: 1; opacity: 1;"></line><line transform="translate(0,420)" x2="-5" y2="0" style="fill: none; stroke: #888; stroke-width: 1; opacity: 1;"></line><line transform="translate(0,390)" x2="-5" y2="0" style="fill: none; stroke: #888; stroke-width: 1; opacity: 1;"></line><line transform="translate(0,360)" x2="-5" y2="0" style="fill: none; stroke: #888; stroke-width: 1; opacity: 1;"></line><line transform="translate(0,330)" x2="-5" y2="0" style="fill: none; stroke: #888; stroke-width: 1; opacity: 1;"></line><line transform="translate(0,300)" x2="-5" y2="0" style="fill: none; stroke: #888; stroke-width: 1; opacity: 1;"></line><line transform="translate(0,270)" x2="-5" y2="0" style="fill: none; stroke: #888; stroke-width: 1; opacity: 1;"></line><line transform="translate(0,240)" x2="-5" y2="0" style="fill: none; stroke: #888; stroke-width: 1; opacity: 1;"></line><line transform="translate(0,210)" x2="-5" y2="0" style="fill: none; stroke: #888; stroke-width: 1; opacity: 1;"></line><line transform="translate(0,180)" x2="-5" y2="0" style="fill: none; stroke: #888; stroke-width: 1; opacity: 1;"></line><line transform="translate(0,150)" x2="-5" y2="0" style="fill: none; stroke: #888; stroke-width: 1; opacity: 1;"></line><line transform="translate(0,120)" x2="-5" y2="0" style="fill: none; stroke: #888; stroke-width: 1; opacity: 1;"></line><line transform="translate(0,90)" x2="-5" y2="0" style="fill: none; stroke: #888; stroke-width: 1; opacity: 1;"></line><line transform="translate(0,60)" x2="-5" y2="0" style="fill: none; stroke: #888; stroke-width: 1; opacity: 1;"></line><line transform="translate(0,30)" x2="-5" y2="0" style="fill: none; stroke: #888; stroke-width: 1; opacity: 1;"></line><line transform="translate(0,0)" x2="-5" y2="0" style="fill: none; stroke: #888; stroke-width: 1; opacity: 1;"></line></g><g class="mark-text role-axis-label" style="pointer-events: none;"><text text-anchor="end" transform="translate(-7,483)" style="font-family: sans-serif; font-size: 10px; fill: #000; opacity: 1;">0</text><text text-anchor="end" transform="translate(-7,453)" style="font-family: sans-serif; font-size: 10px; fill: #000; opacity: 1;">5</text><text text-anchor="end" transform="translate(-7,423)" style="font-family: sans-serif; font-size: 10px; fill: #000; opacity: 1;">10</text><text text-anchor="end" transform="translate(-7,393)" style="font-family: sans-serif; font-size: 10px; fill: #000; opacity: 1;">15</text><text text-anchor="end" transform="translate(-7,363)" style="font-family: sans-serif; font-size: 10px; fill: #000; opacity: 1;">20</text><text text-anchor="end" transform="translate(-7,333)" style="font-family: sans-serif; font-size: 10px; fill: #000; opacity: 1;">25</text><text text-anchor="end" transform="translate(-7,303)" style="font-family: sans-serif; font-size: 10px; fill: #000; opacity: 1;">30</text><text text-anchor="end" transform="translate(-7,273)" style="font-family: sans-serif; font-size: 10px; fill: #000; opacity: 1;">35</text><text text-anchor="end" transform="translate(-7,243)" style="font-family: sans-serif; font-size: 10px; fill: #000; opacity: 1;">40</text><text text-anchor="end" transform="translate(-7,213)" style="font-family: sans-serif; font-size: 10px; fill: #000; opacity: 1;">45</text><text text-anchor="end" transform="translate(-7,183)" style="font-family: sans-serif; font-size: 10px; fill: #000; opacity: 1;">50</text><text text-anchor="end" transform="translate(-7,153)" style="font-family: sans-serif; font-size: 10px; fill: #000; opacity: 1;">55</text><text text-anchor="end" transform="translate(-7,123)" style="font-family: sans-serif; font-size: 10px; fill: #000; opacity: 1;">60</text><text text-anchor="end" transform="translate(-7,93)" style="font-family: sans-serif; font-size: 10px; fill: #000; opacity: 1;">65</text><text text-anchor="end" transform="translate(-7,63)" style="font-family: sans-serif; font-size: 10px; fill: #000; opacity: 1;">70</text><text text-anchor="end" transform="translate(-7,33)" style="font-family: sans-serif; font-size: 10px; fill: #000; opacity: 1;">75</text><text text-anchor="end" transform="translate(-7,3)" style="font-family: sans-serif; font-size: 10px; fill: #000; opacity: 1;">80</text></g><g class="mark-rule role-axis-domain" style="pointer-events: none;"><line transform="translate(0,480)" x2="0" y2="-480" style="fill: none; stroke: #888; stroke-width: 1; opacity: 1;"></line></g><g class="mark-text role-axis-title" style="pointer-events: none;"><text text-anchor="middle" transform="translate(-23,240) rotate(-90) translate(0,-2)" style="font-family: sans-serif; font-size: 11px; font-weight: bold; fill: #000; opacity: 1;">GFLOPS</text></g></g></g></g></g></g></g></g></svg>