<?xml version="1.0" encoding="utf-8"?>
<!DOCTYPE svg PUBLIC "-//W3C//DTD SVG 1.1//EN" "http://www.w3.org/Graphics/SVG/1.1/DTD/svg11.dtd">
<svg class="marks" width="1066" height="647" viewBox="0 0 1066 647" version="1.1" xmlns="http://www.w3.org/2000/svg" xmlns:xlink="http://www.w3.org/1999/xlink"><rect width="1066" height="647" style="fill: white;"></rect><g transform="translate(42,10)"><g class="mark-group role-frame root"><g transform="translate(0,0)"><path class="background" d="M0.5,0.5h900v600h-900Z" style="fill: none; stroke: #ddd;"></path><g><g class="mark-group role-axis"><g transform="translate(0.5,600.5)"><path class="background" d="M0,0h0v0h0Z" style="pointer-events: none; fill: none;"></path><g><g class="mark-rule role-axis-grid" style="pointer-events: none;"><line transform="translate(0,-600)" x2="0" y2="600" style="fill: none; stroke: #ddd; stroke-width: 1; opacity: 1;"></line><line transform="translate(35,-600)" x2="0" y2="600" style="fill: none; stroke: #ddd; stroke-width: 1; opacity: 1;"></line><line transform="translate(69,-600)" x2="0" y2="600" style="fill: none; stroke: #ddd; stroke-width: 1; opacity: 1;"></line><line transform="translate(104,-600)" x2="0" y2="600" style="fill: none; stroke: #ddd; stroke-width: 1; opacity: 1;"></line><line transform="translate(138,-600)" x2="0" y2="600" style="fill: none; stroke: #ddd; stroke-width: 1; opacity: 1;"></line><line transform="translate(173,-600)" x2="0" y2="600" style="fill: none; stroke: #ddd; stroke-width: 1; opacity: 1;"></line><line transform="translate(208,-600)" x2="0" y2="600" style="fill: none; stroke: #ddd; stroke-width: 1; opacity: 1;"></line><line transform="translate(242,-600)" x2="0" y2="600" style="fill: none; stroke: #ddd; stroke-width: 1; opacity: 1;"></line><line transform="translate(277,-600)" x2="0" y2="600" style="fill: none; stroke: #ddd; stroke-width: 1; opacity: 1;"></line><line transform="translate(312,-600)" x2="0" y2="600" style="fill: none; stroke: #ddd; stroke-width: 1; opacity: 1;"></line><line transform="translate(346,-600)" x2="0" y2="600" style="fill: none; stroke: #ddd; stroke-width: 1; opacity: 1;"></line><line transform="translate(381,-600)" x2="0" y2="600" style="fill: none; stroke: #ddd; stroke-width: 1; opacity: 1;"></line><line transform="translate(415,-600)" x2="0" y2="600" style="fill: none; stroke: #ddd; stroke-width: 1; opacity: 1;"></line><line transform="translate(450,-600)" x2="0" y2="600" style="fill: none; stroke: #ddd; stroke-width: 1; opacity: 1;"></line><line transform="translate(485,-600)" x2="0" y2="600" style="fill: none; stroke: #ddd; stroke-width: 1; opacity: 1;"></line><line transform="translate(519,-600)" x2="0" y2="600" style="fill: none; stroke: #ddd; stroke-width: 1; opacity: 1;"></line><line transform="translate(554,-600)" x2="0" y2="600" style="fill: none; stroke: #ddd; stroke-width: 1; opacity: 1;"></line><line transform="translate(588,-600)" x2="0" y2="600" style="fill: none; stroke: #ddd; stroke-width: 1; opacity: 1;"></line><line transform="translate(623,-600)" x2="0" y2="600" style="fill: none; stroke: #ddd; stroke-width: 1; opacity: 1;"></line><line transform="translate(658,-600)" x2="0" y2="600" style="fill: none; stroke: #ddd; stroke-width: 1; opacity: 1;"></line><line transform="translate(692,-600)" x2="0" y2="600" style="fill: none; stroke: #ddd; stroke-width: 1; opacity: 1;"></line><line transform="translate(727,-600)" x2="0" y2="600" style="fill: none; stroke: #ddd; stroke-width: 1; opacity: 1;"></line><line transform="translate(762,-600)" x2="0" y2="600" style="fill: none; stroke: #ddd; stroke-width: 1; opacity: 1;"></line><line transform="translate(796,-600)" x2="0" y2="600" style="fill: none; stroke: #ddd; stroke-width: 1; opacity: 1;"></line><line transform="translate(831,-600)" x2="0" y2="600" style="fill: none; stroke: #ddd; stroke-width: 1; opacity: 1;"></line><line transform="translate(865,-600)" x2="0" y2="600" style="fill: none; stroke: #ddd; stroke-width: 1; opacity: 1;"></line><line transform="translate(900,-600)" x2="0" y2="600" style="fill: none; stroke: #ddd; stroke-width: 1; opacity: 1;"></line></g></g><path class="foreground" d="" style="pointer-events: none; display: none; fill: none;"></path></g></g><g class="mark-group role-axis"><g transform="translate(0.5,0.5)"><path class="background" d="M0,0h0v0h0Z" style="pointer-events: none; fill: none;"></path><g><g class="mark-rule role-axis-grid" style="pointer-events: none;"><line transform="translate(0,600)" x2="900" y2="0" style="fill: none; stroke: #ddd; stroke-width: 1; opacity: 1;"></line><line transform="translate(0,557)" x2="900" y2="0" style="fill: none; stroke: #ddd; stroke-width: 1; opacity: 1;"></line><line transform="translate(0,514)" x2="900" y2="0" style="fill: none; stroke: #ddd; stroke-width: 1; opacity: 1;"></line><line transform="translate(0,471)" x2="900" y2="0" style="fill: none; stroke: #ddd; stroke-width: 1; opacity: 1;"></line><line transform="translate(0,429)" x2="900" y2="0" style="fill: none; stroke: #ddd; stroke-width: 1; opacity: 1;"></line><line transform="translate(0,386)" x2="900" y2="0" style="fill: none; stroke: #ddd; stroke-width: 1; opacity: 1;"></line><line transform="translate(0,343)" x2="900" y2="0" style="fill: none; stroke: #ddd; stroke-width: 1; opacity: 1;"></line><line transform="translate(0,300)" x2="900" y2="0" style="fill: none; stroke: #ddd; stroke-width: 1; opacity: 1;"></line><line transform="translate(0,257)" x2="900" y2="0" style="fill: none; stroke: #ddd; stroke-width: 1; opacity: 1;"></line><line transform="translate(0,214)" x2="900" y2="0" style="fill: none; stroke: #ddd; stroke-width: 1; opacity: 1;"></line><line transform="translate(0,171)" x2="900" y2="0" style="fill: none; stroke: #ddd; stroke-width: 1; opacity: 1;"></line><line transform="translate(0,129)" x2="900" y2="0" style="fill: none; stroke: #ddd; stroke-width: 1; opacity: 1;"></line><line transform="translate(0,86)" x2="900" y2="0" style="fill: none; stroke: #ddd; stroke-width: 1; opacity: 1;"></line><line transform="translate(0,43)" x2="900" y2="0" style="fill: none; stroke: #ddd; stroke-width: 1; opacity: 1;"></line><line transform="translate(0,0)" x2="900" y2="0" style="fill: none; stroke: #ddd; stroke-width: 1; opacity: 1;"></line></g></g><path class="foreground" d="" style="pointer-events: none; display: none; fill: none;"></path></g></g><g class="mark-group role-axis"><g transform="translate(0.5,600.5)"><path class="background" d="M0,0h0v0h0Z" style="pointer-events: none; fill: none;"></path><g><g class="mark-rule role-axis-tick" style="pointer-events: none;"><line transform="translate(0,0)" x2="0" y2="5" style="fill: none; stroke: #888; stroke-width: 1; opacity: 1;"></line><line transform="translate(35,0)" x2="0" y2="5" style="fill: none; stroke: #888; stroke-width: 1; opacity: 1;"></line><line transform="translate(69,0)" x2="0" y2="5" style="fill: none; stroke: #888; stroke-width: 1; opacity: 1;"></line><line transform="translate(104,0)" x2="0" y2="5" style="fill: none; stroke: #888; stroke-width: 1; opacity: 1;"></line><line transform="translate(138,0)" x2="0" y2="5" style="fill: none; stroke: #888; stroke-width: 1; opacity: 1;"></line><line transform="translate(173,0)" x2="0" y2="5" style="fill: none; stroke: #888; stroke-width: 1; opacity: 1;"></line><line transform="translate(208,0)" x2="0" y2="5" style="fill: none; stroke: #888; stroke-width: 1; opacity: 1;"></line><line transform="translate(242,0)" x2="0" y2="5" style="fill: none; stroke: #888; stroke-width: 1; opacity: 1;"></line><line transform="translate(277,0)" x2="0" y2="5" style="fill: none; stroke: #888; stroke-width: 1; opacity: 1;"></line><line transform="translate(312,0)" x2="0" y2="5" style="fill: none; stroke: #888; stroke-width: 1; opacity: 1;"></line><line transform="translate(346,0)" x2="0" y2="5" style="fill: none; stroke: #888; stroke-width: 1; opacity: 1;"></line><line transform="translate(381,0)" x2="0" y2="5" style="fill: none; stroke: #888; stroke-width: 1; opacity: 1;"></line><line transform="translate(415,0)" x2="0" y2="5" style="fill: none; stroke: #888; stroke-width: 1; opacity: 1;"></line><line transform="translate(450,0)" x2="0" y2="5" style="fill: none; stroke: #888; stroke-width: 1; opacity: 1;"></line><line transform="translate(485,0)" x2="0" y2="5" style="fill: none; stroke: #888; stroke-width: 1; opacity: 1;"></line><line transform="translate(519,0)" x2="0" y2="5" style="fill: none; stroke: #888; stroke-width: 1; opacity: 1;"></line><line transform="translate(554,0)" x2="0" y2="5" style="fill: none; stroke: #888; stroke-width: 1; opacity: 1;"></line><line transform="translate(588,0)" x2="0" y2="5" style="fill: none; stroke: #888; stroke-width: 1; opacity: 1;"></line><line transform="translate(623,0)" x2="0" y2="5" style="fill: none; stroke: #888; stroke-width: 1; opacity: 1;"></line><line transform="translate(658,0)" x2="0" y2="5" style="fill: none; stroke: #888; stroke-width: 1; opacity: 1;"></line><line transform="translate(692,0)" x2="0" y2="5" style="fill: none; stroke: #888; stroke-width: 1; opacity: 1;"></line><line transform="translate(727,0)" x2="0" y2="5" style="fill: none; stroke: #888; stroke-width: 1; opacity: 1;"></line><line transform="translate(762,0)" x2="0" y2="5" style="fill: none; stroke: #888; stroke-width: 1; opacity: 1;"></line><line transform="translate(796,0)" x2="0" y2="5" style="fill: none; stroke: #888; stroke-width: 1; opacity: 1;"></line><line transform="translate(831,0)" x2="0" y2="5" style="fill: none; stroke: #888; stroke-width: 1; opacity: 1;"></line><line transform="translate(865,0)" x2="0" y2="5" style="fill: none; stroke: #888; stroke-width: 1; opacity: 1;"></line><line transform="translate(900,0)" x2="0" y2="5" style="fill: none; stroke: #888; stroke-width: 1; opacity: 1;"></line></g><g class="mark-text role-axis-label" style="pointer-events: none;"><text text-anchor="start" transform="translate(0,15)" style="font-family: sans-serif; font-size: 10px; fill: #000; opacity: 1;">0</text><text text-anchor="middle" transform="translate(34.61538461538462,15)" style="font-family: sans-serif; font-size: 10px; fill: #000; opacity: 1;">10</text><text text-anchor="middle" transform="translate(69.23076923076924,15)" style="font-family: sans-serif; font-size: 10px; fill: #000; opacity: 1;">20</text><text text-anchor="middle" transform="translate(103.84615384615385,15)" style="font-family: sans-serif; font-size: 10px; fill: #000; opacity: 1;">30</text><text text-anchor="middle" transform="translate(138.46153846153848,15)" style="font-family: sans-serif; font-size: 10px; fill: #000; opacity: 1;">40</text><text text-anchor="middle" transform="translate(173.0769230769231,15)" style="font-family: sans-serif; font-size: 10px; fill: #000; opacity: 1;">50</text><text text-anchor="middle" transform="translate(207.6923076923077,15)" style="font-family: sans-serif; font-size: 10px; fill: #000; opacity: 1;">60</text><text text-anchor="middle" transform="translate(242.3076923076923,15)" style="font-family: sans-serif; font-size: 10px; fill: #000; opacity: 1;">70</text><text text-anchor="middle" transform="translate(276.92307692307696,15)" style="font-family: sans-serif; font-size: 10px; fill: #000; opacity: 1;">80</text><text text-anchor="middle" transform="translate(311.53846153846155,15)" style="font-family: sans-serif; font-size: 10px; fill: #000; opacity: 1;">90</text><text text-anchor="middle" transform="translate(346.1538461538462,15)" style="font-family: sans-serif; font-size: 10px; fill: #000; opacity: 1;">100</text><text text-anchor="middle" transform="translate(380.7692307692308,15)" style="font-family: sans-serif; font-size: 10px; fill: #000; opacity: 1;">110</text><text text-anchor="middle" transform="translate(415.3846153846154,15)" style="font-family: sans-serif; font-size: 10px; fill: #000; opacity: 1;">120</text><text text-anchor="middle" transform="translate(450,15)" style="font-family: sans-serif; font-size: 10px; fill: #000; opacity: 1;">130</text><text text-anchor="middle" transform="translate(484.6153846153846,15)" style="font-family: sans-serif; font-size: 10px; fill: #000; opacity: 1;">140</text><text text-anchor="middle" transform="translate(519.2307692307692,15)" style="font-family: sans-serif; font-size: 10px; fill: #000; opacity: 1;">150</text><text text-anchor="middle" transform="translate(553.8461538461539,15)" style="font-family: sans-serif; font-size: 10px; fill: #000; opacity: 1;">160</text><text text-anchor="middle" transform="translate(588.4615384615385,15)" style="font-family: sans-serif; font-size: 10px; fill: #000; opacity: 1;">170</text><text text-anchor="middle" transform="translate(623.0769230769231,15)" style="font-family: sans-serif; font-size: 10px; fill: #000; opacity: 1;">180</text><text text-anchor="middle" transform="translate(657.6923076923076,15)" style="font-family: sans-serif; font-size: 10px; fill: #000; opacity: 1;">190</text><text text-anchor="middle" transform="translate(692.3076923076924,15)" style="font-family: sans-serif; font-size: 10px; fill: #000; opacity: 1;">200</text><text text-anchor="middle" transform="translate(726.9230769230769,15)" style="font-family: sans-serif; font-size: 10px; fill: #000; opacity: 1;">210</text><text text-anchor="middle" transform="translate(761.5384615384615,15)" style="font-family: sans-serif; font-size: 10px; fill: #000; opacity: 1;">220</text><text text-anchor="middle" transform="translate(796.1538461538461,15)" style="font-family: sans-serif; font-size: 10px; fill: #000; opacity: 1;">230</text><text text-anchor="middle" transform="translate(830.7692307692308,15)" style="font-family: sans-serif; font-size: 10px; fill: #000; opacity: 1;">240</text><text text-anchor="middle" transform="translate(865.3846153846154,15)" style="font-family: sans-serif; font-size: 10px; fill: #000; opacity: 1;">250</text><text text-anchor="end" transform="translate(900,15)" style="font-family: sans-serif; font-size: 10px; fill: #000; opacity: 1;">260</text></g><g class="mark-rule role-axis-domain" style="pointer-events: none;"><line transform="translate(0,0)" x2="900" y2="0" style="fill: none; stroke: #888; stroke-width: 1; opacity: 1;"></line></g><g class="mark-text role-axis-title" style="pointer-events: none;"><text text-anchor="middle" transform="translate(450,30)" style="font-family: sans-serif; font-size: 11px; font-weight: bold; fill: #000; opacity: 1;">Size</text></g></g><path class="foreground" d="" style="pointer-events: none; display: none; fill: none;"></path></g></g><g class="mark-group role-axis"><g transform="translate(0.5,0.5)"><path class="background" d="M0,0h0v0h0Z" style="pointer-events: none; fill: none;"></path><g><g class="mark-rule role-axis-tick" style="pointer-events: none;"><line transform="translate(0,600)" x2="-5" y2="0" style="fill: none; stroke: #888; stroke-width: 1; opacity: 1;"></line><line transform="translate(0,557)" x2="-5" y2="0" style="fill: none; stroke: #888; stroke-width: 1; opacity: 1;"></line><line transform="translate(0,514)" x2="-5" y2="0" style="fill: none; stroke: #888; stroke-width: 1; opacity: 1;"></line><line transform="translate(0,471)" x2="-5" y2="0" style="fill: none; stroke: #888; stroke-width: 1; opacity: 1;"></line><line transform="translate(0,429)" x2="-5" y2="0" style="fill: none; stroke: #888; stroke-width: 1; opacity: 1;"></line><line transform="translate(0,386)" x2="-5" y2="0" style="fill: none; stroke: #888; stroke-width: 1; opacity: 1;"></line><line transform="translate(0,343)" x2="-5" y2="0" style="fill: none; stroke: #888; stroke-width: 1; opacity: 1;"></line><line transform="translate(0,300)" x2="-5" y2="0" style="fill: none; stroke: #888; stroke-width: 1; opacity: 1;"></line><line transform="translate(0,257)" x2="-5" y2="0" style="fill: none; stroke: #888; stroke-width: 1; opacity: 1;"></line><line transform="translate(0,214)" x2="-5" y2="0" style="fill: none; stroke: #888; stroke-width: 1; opacity: 1;"></line><line transform="translate(0,171)" x2="-5" y2="0" style="fill: none; stroke: #888; stroke-width: 1; opacity: 1;"></line><line transform="translate(0,129)" x2="-5" y2="0" style="fill: none; stroke: #888; stroke-width: 1; opacity: 1;"></line><line transform="translate(0,86)" x2="-5" y2="0" style="fill: none; stroke: #888; stroke-width: 1; opacity: 1;"></line><line transform="translate(0,43)" x2="-5" y2="0" style="fill: none; stroke: #888; stroke-width: 1; opacity: 1;"></line><line transform="translate(0,0)" x2="-5" y2="0" style="fill: none; stroke: #888; stroke-width: 1; opacity: 1;"></line></g><g class="mark-text role-axis-label" style="pointer-events: none;"><text text-anchor="end" transform="translate(-7,603)" style="font-family: sans-serif; font-size: 10px; fill: #000; opacity: 1;">0.0</text><text text-anchor="end" transform="translate(-7,560.1428571428571)" style="font-family: sans-serif; font-size: 10px; fill: #000; opacity: 1;">0.2</text><text text-anchor="end" transform="translate(-7,517.2857142857142)" style="font-family: sans-serif; font-size: 10px; fill: #000; opacity: 1;">0.4</text><text text-anchor="end" transform="translate(-7,474.42857142857144)" style="font-family: sans-serif; font-size: 10px; fill: #000; opacity: 1;">0.6</text><text text-anchor="end" transform="translate(-7,431.5714285714285)" style="font-family: sans-serif; font-size: 10px; fill: #000; opacity: 1;">0.8</text><text text-anchor="end" transform="translate(-7,388.71428571428567)" style="font-family: sans-serif; font-size: 10px; fill: #000; opacity: 1;">1.0</text><text text-anchor="end" transform="translate(-7,345.85714285714283)" style="font-family: sans-serif; font-size: 10px; fill: #000; opacity: 1;">1.2</text><text text-anchor="end" transform="translate(-7,303)" style="font-family: sans-serif; font-size: 10px; fill: #000; opacity: 1;">1.4</text><text text-anchor="end" transform="translate(-7,260.1428571428571)" style="font-family: sans-serif; font-size: 10px; fill: #000; opacity: 1;">1.6</text><text text-anchor="end" transform="translate(-7,217.28571428571425)" style="font-family: sans-serif; font-size: 10px; fill: #000; opacity: 1;">1.8</text><text text-anchor="end" transform="translate(-7,174.42857142857142)" style="font-family: sans-serif; font-size: 10px; fill: #000; opacity: 1;">2.0</text><text text-anchor="end" transform="translate(-7,131.57142857142853)" style="font-family: sans-serif; font-size: 10px; fill: #000; opacity: 1;">2.2</text><text text-anchor="end" transform="translate(-7,88.71428571428568)" style="font-family: sans-serif; font-size: 10px; fill: #000; opacity: 1;">2.4</text><text text-anchor="end" transform="translate(-7,45.85714285714277)" style="font-family: sans-serif; font-size: 10px; fill: #000; opacity: 1;">2.6</text><text text-anchor="end" transform="translate(-7,3)" style="font-family: sans-serif; font-size: 10px; fill: #000; opacity: 1;">2.8</text></g><g class="mark-rule role-axis-domain" style="pointer-events: none;"><line transform="translate(0,600)" x2="0" y2="-600" style="fill: none; stroke: #888; stroke-width: 1; opacity: 1;"></line></g><g class="mark-text role-axis-title" style="pointer-events: none;"><text text-anchor="middle" transform="translate(-26,300) rotate(-90) translate(0,-2)" style="font-family: sans-serif; font-size: 11px; font-weight: bold; fill: #000; opacity: 1;">GFLOPS</text></g></g><path class="foreground" d="" style="pointer-events: none; display: none; fill: none;"></path></g></g><g class="mark-group role-scope pathgroup"><g transform="translate(0,0)"><path class="background" d="M0,0h900v600h-900Z" style="fill: none;"></path><g><g class="mark-line role-mark marks"><path d="M6.923076923076923,572.6612792768113L10.384615384615385,561.1427879249331L13.846153846153847,556.1128066674493L17.30769230769231,559.6765478261809L20.76923076923077,563.1720574115359L24.230769230769234,554.9673479259886L27.692307692307693,555.6160399694263L31.153846153846157,559.8425979171622L34.61538461538462,559.6051005566432L38.07692307692308,554.707431555855L41.53846153846154,555.9670013811639L45,556.5806262324388L48.46153846153847,549.1042274933918L51.92307692307693,552.3697575857376L55.38461538461539,555.6407541987354L58.84615384615385,557.4860054418467L62.307692307692314,557.3830849878235L65.76923076923077,557.5501872024985L69.23076923076924,556.5079467245334L72.6923076923077,555.961354266439L76.15384615384616,555.3842550016484L79.61538461538461,554.3991301937878L83.07692307692308,555.7479015278085L86.53846153846155,557.1443877004392L90,558.3457939932499L93.46153846153847,554.4142540772121L96.92307692307693,559.3574702630528L100.38461538461539,549.7691175659256L103.84615384615385,556.5128510100541L107.3076923076923,554.4582228743727L110.76923076923077,554.1861269576465L114.23076923076923,550.2078154731297L117.6923076923077,554.9922611127705L121.15384615384615,555.1071749656945L124.61538461538463,557.6243517350646L128.07692307692307,556.6862900370044L131.53846153846155,557.3578361117984L135,557.3715915374095L138.46153846153848,552.2779333163655L141.9230769230769,554.6613313082338L145.3846153846154,554.0272431151909L148.84615384615384,556.6533347067262L152.30769230769232,555.9839585982447L155.76923076923077,551.7934111360371L159.23076923076923,554.2395659453277L162.69230769230768,553.6102989169368L166.15384615384616,555.1117889103099L169.6153846153846,558.715442613795L173.0769230769231,552.3091167408968L176.53846153846155,554.6633494509061L180,556.1523661728727L183.46153846153845,554.8317530912467L186.92307692307693,555.549314597547L190.3846153846154,551.9819215217128L193.84615384615387,555.7163944574068L197.3076923076923,556.0014233706512L200.76923076923077,552.9812640157388L204.23076923076923,555.8857544498853L207.6923076923077,553.0608556453487L211.15384615384616,553.3983958581035L214.6153846153846,554.768536941239L218.07692307692307,555.2332336775592L221.53846153846155,552.4445117168686L225,553.5119744979975L228.46153846153845,554.0409920986135L231.9230769230769,553.9971458574545L235.3846153846154,557.1281556399113L238.84615384615384,553.2071670487084L242.3076923076923,552.6266983832601L245.76923076923075,554.8999830610264L249.23076923076925,553.5422043726345L252.6923076923077,555.8548729785088L256.15384615384613,556.8629365194096L259.6153846153846,553.4210809901293L263.0769230769231,553.5796011768551L266.53846153846155,553.1224990663181L270,554.9426589268016L273.46153846153845,553.8203150693004L276.92307692307696,555.6377079482439L280.3846153846154,553.582656695223L283.8461538461538,558.9035548070725L287.30769230769226,556.3117272307776L290.7692307692308,558.3644859813085L294.2307692307692,554.1115611469827L297.6923076923077,555.1921527218162L301.15384615384613,553.2241382384935L304.61538461538464,556.1236182146782L308.0769230769231,554.3986940894158L311.53846153846155,556.86838321788L315,554.4430154216469L318.46153846153845,555.0793066259831L321.9230769230769,556.8655167082625L325.38461538461536,555.990208427407L328.8461538461538,556.5245815899582L332.3076923076923,552.8309378225998L335.7692307692308,557.2734199937354L339.2307692307692,554.4724215345336L342.6923076923077,554.9610051993068L346.1538461538462,556.4405166064918L349.61538461538464,552.3155815102124L353.0769230769231,555.4816153800925L356.53846153846155,555.4743622435508L360,558.0802204619066L363.46153846153845,557.8310312850798L366.9230769230769,552.851349070333L370.38461538461536,554.0971921734131L373.84615384615387,561.226353063933L377.3076923076923,555.517785010503L380.7692307692308,555.2545566133338L384.2307692307692,555.2790078595546L387.69230769230774,558.637930381425L391.1538461538462,555.7534419603385L394.6153846153846,560.3997556427753L398.07692307692304,556.4224640497474L401.53846153846155,557.4175559777932L405,557.527891907472L408.46153846153845,557.3953968357401L411.9230769230769,561.1733523816685L415.3846153846154,561.5680463332692L418.84615384615387,553.3954894269052L422.3076923076923,552.6910826264391L425.7692307692308,564.2401094516018L429.2307692307692,557.6868263112467L432.6923076923077,559.9318075093407L436.15384615384613,554.4860503437695L439.6153846153846,556.4563232114621L443.0769230769231,556.6801220832923L446.53846153846155,559.848210288443L450,560.6324579263421L453.46153846153845,556.8812028320884L456.9230769230769,557.7327755723686L460.38461538461536,560.0263386117624L463.8461538461538,562.0732797747958L467.3076923076923,557.5667647383638L470.7692307692308,557.8654743064801L474.2307692307692,558.2674033897157L477.6923076923077,553.6547615571066L481.15384615384613,555.8938255802203L484.6153846153846,556.8295297605825L488.07692307692304,560.0098064664994L491.5384615384615,556.7075016736242L495.00000000000006,558.6126908218291L498.4615384615385,558.0527163020605L501.92307692307696,560.5650388194609L505.3846153846154,560.0068988606735L508.8461538461538,557.7733222982503L512.3076923076923,558.6431083811028L515.7692307692307,561.1318963329228L519.2307692307692,557.1789410218894L522.6923076923077,557.0075590771183L526.1538461538462,556.3302746436273L529.6153846153846,558.7574610102048L533.0769230769231,557.7284372331341L536.5384615384615,559.1179193322334L540,558.2328488925557L543.4615384615385,558.8233862007604L546.9230769230769,557.5984522249267L550.3846153846155,557.3068505754205L553.8461538461539,559.2256938985612L557.3076923076924,557.7734614054227L560.7692307692308,555.6833191180507L564.2307692307692,562.5949567419287L567.6923076923076,560.6711403893532L571.1538461538461,559.3338497288923L574.6153846153845,558.5138287237587L578.0769230769231,553.4624874110626L581.5384615384615,558.6004657447604L585,562.3986419671699L588.4615384615385,561.1511448986121L591.9230769230769,558.0649380374718L595.3846153846154,560.36866359447L598.8461538461538,558.3490890691013L602.3076923076923,562.2055137844611L605.7692307692308,559.6712244584421L609.2307692307693,561.5206543546478L612.6923076923077,562.5507786052809L616.1538461538462,562.535254746236L619.6153846153846,561.3441528695766L623.0769230769231,559.7742890664283L626.5384615384615,558.159963014332L630,561.7984131648545L633.4615384615385,560.6834913632588L636.9230769230769,559.3362677029043L640.3846153846154,560.2776982536502L643.8461538461538,561.3787375415283L647.3076923076923,562.6756440281031L650.7692307692307,561.7092345920404L654.2307692307692,558.4840810419681L657.6923076923076,563.1944623808663L661.1538461538462,558.774605732704L664.6153846153846,561.8092851175558L668.0769230769231,562.2584934685683L671.5384615384615,559.7137042625947L675,563.3362162975219L678.4615384615385,561.2724757952974L681.9230769230769,561.2499672165543L685.3846153846154,564.067944250871L688.8461538461538,563.7760302897917L692.3076923076924,561.5355027309794L695.7692307692308,561.0776897059203L699.2307692307693,564.8540806384261L702.6923076923077,559.4481215624126L706.1538461538462,562.9257181627634L709.6153846153846,560.952380952381L713.0769230769231,561.6881989733926L716.5384615384615,560.1963901138345L720,561.8101031861635L723.4615384615385,560.5377440428987L726.9230769230769,560.4186823819157L730.3846153846154,559.8452169500126L733.8461538461538,557.3200193267837L737.3076923076923,561.2572301647932L740.7692307692307,562.2357384030776L744.2307692307692,562.0686410576086L747.6923076923077,560.8213016034244L751.1538461538462,561.6968698517297L754.6153846153846,561.9373537730908L758.0769230769231,560.6204821443556L761.5384615384615,562.5731524747085L765,562.3372491990275L768.4615384615385,563.316295055962L771.9230769230769,560.8378017655185L775.3846153846155,563.5562979272645L778.8461538461539,562.5549194514712L782.3076923076924,560.6111659792017L785.7692307692308,561.8487394957983L789.2307692307692,560.0219762235964L792.6923076923076,560.4581558650858L796.1538461538461,560.7878794767171L799.6153846153845,564.594807238395L803.0769230769231,559.9820609238624L806.5384615384615,563.070583262891L810,563.1600491199346L813.4615384615385,563.8160933698765L816.9230769230769,560.1485984464707L820.3846153846154,564.6634328654924L823.8461538461538,563.1981526915861L827.3076923076923,564.3949626569204L830.7692307692308,564.1362821279139L834.2307692307693,561.8421330405962L837.6923076923077,563.6574792507233L841.1538461538462,559.7282068279749L844.6153846153846,561.5800468177572L848.0769230769231,563.9818880351262L851.5384615384615,559.2247171145685L855,566.8886009205058L858.4615384615385,560.4385787665769L861.9230769230769,563.1664069742214L865.3846153846154,559.3015053016572L868.8461538461538,562.7367920980225L872.3076923076923,560.0503070207886L875.7692307692307,564.337399214389L879.2307692307692,559.0053691130742L882.6923076923076,565.624775325329L886.1538461538462,560.303102353902" style="fill: none; stroke: #ff7f0e; stroke-width: 2;"></path></g></g><path class="foreground" d="" style="display: none; fill: none;"></path></g><g transform="translate(0,0)"><path class="background" d="M0,0h900v600h-900Z" style="fill: none;"></path><g><g class="mark-line role-mark marks"><path d="M6.923076923076923,564.2080875152268L10.384615384615385,560.6132096156039L13.846153846153847,558.5320541259982L17.30769230769231,557.1703781849873L20.76923076923077,556.214337054259L24.230769230769234,555.5054367307922L27.692307692307693,559.0794598984213L31.153846153846157,559.1801758514841L34.61538461538462,558.6322634780785L38.07692307692308,558.7239662859586L41.53846153846154,558.1822616817561L45,558.2179207979419L48.46153846153847,558.2087844505785L51.92307692307693,557.6878263077999L55.38461538461539,557.4574170888907L58.84615384615385,557.2891094280491L62.307692307692314,557.4669888739515L65.76923076923077,557.5874255136504L69.23076923076924,557.2435139816279L72.6923076923077,556.9516478131253L76.15384615384616,557.1861035029551L79.61538461538461,557.0151451266748L83.07692307692308,558.2947710138361L86.53846153846155,558.542005759359L90,558.5373665437089L93.46153846153847,558.1639274788436L96.92307692307693,558.4505304712559L100.38461538461539,558.2073683131789L103.84615384615385,558.2044939187797L107.3076923076923,558.0825171081261L110.76923076923077,558.0941524515192L114.23076923076923,557.6844955991875L117.6923076923077,557.9504824119806L121.15384615384615,557.5441019423322L124.61538461538463,557.8481233355478L128.07692307692307,557.5953902881647L131.53846153846155,557.677319330066L135,557.6405965762638L138.46153846153848,557.5908715257136L141.9230769230769,557.3497923836438L145.3846153846154,557.5059571088166L148.84615384615384,557.4184435636369L152.30769230769232,557.3344265138317L155.76923076923077,557.2522330923011L159.23076923076923,557.1639179756272L162.69230769230768,557.3397669544615L166.15384615384616,557.1659847183454L169.6153846153846,556.8365590275966L173.0769230769231,557.1594405852112L176.53846153846155,557.0523125617705L180,557.189832100846L183.46153846153845,556.7301708988994L186.92307692307693,557.0225911427628L190.3846153846154,557.0263008150347L193.84615384615387,556.715090423955L197.3076923076923,556.685301841499L200.76923076923077,556.72898892721L204.23076923076923,557.064019891245L207.6923076923077,556.819419590757L211.15384615384616,556.7114358556522L214.6153846153846,556.7017887772605L218.07692307692307,556.7910327833725L221.53846153846155,555.695673643028L225,555.88395327126L228.46153846153845,555.8284534692674L231.9230769230769,555.8581311079389L235.3846153846154,555.9331797235022L238.84615384615384,555.8403819210212L242.3076923076923,555.9613752979677L245.76923076923075,555.9388762845323L249.23076923076925,555.9201328956879L252.6923076923077,555.9191359543938L256.15384615384613,556.0102621863463L259.6153846153846,555.9245669682882L263.0769230769231,556.0468354619911L266.53846153846155,556.0668640897755L270,556.0252484496081L273.46153846153845,555.9004696763596L276.92307692307696,555.8556786643064L280.3846153846154,555.8129856970969L283.8461538461538,555.9088424278814L287.30769230769226,555.8710939715306L290.7692307692308,556.0359040117238L294.2307692307692,555.9533502188227L297.6923076923077,556.2172644275294L301.15384615384613,555.8588816801483L304.61538461538464,556.3889751008679L308.0769230769231,556.45290429293L311.53846153846155,556.4711150918048L315,556.2755512270252L318.46153846153845,556.3269391105706L321.9230769230769,556.409569068345L325.38461538461536,556.4045740904083L328.8461538461538,556.470511226026L332.3076923076923,556.3220383048791L335.7692307692308,556.1916641575981L339.2307692307692,556.4468268402412L342.6923076923077,556.4503030394177L346.1538461538462,556.3911667385987L349.61538461538464,556.4972202980408L353.0769230769231,556.3248868099157L356.53846153846155,556.3278069070565L360,556.3809581759626L363.46153846153845,556.269549637098L366.9230769230769,556.3591058279828L370.38461538461536,556.3160752226198L373.84615384615387,556.1893564902522L377.3076923076923,556.3422208156968L380.7692307692308,556.2888175904395L384.2307692307692,556.3394426311825L387.69230769230774,556.3215929771973L391.1538461538462,556.2674190788929L394.6153846153846,556.3293355210315L398.07692307692304,556.2608790997931L401.53846153846155,556.2750780509523L405,556.4273300419629L408.46153846153845,556.3207699389706L411.9230769230769,556.3513079003612L415.3846153846154,556.2806136906448L418.84615384615387,556.1164285309063L422.3076923076923,556.2194520514989L425.7692307692308,556.0376747261809L429.2307692307692,556.1087252947336L432.6923076923077,556.1292677448338L436.15384615384613,555.8390578999018L439.6153846153846,556.1084602998974L443.0769230769231,555.9688806223875L446.53846153846155,555.8709383152043L450,555.8672871539054L453.46153846153845,555.9218788827176L456.9230769230769,555.8907602496142L460.38461538461536,555.8458996075191L463.8461538461538,555.9065778777879L467.3076923076923,555.9495323036763L470.7692307692308,555.8782121126794L474.2307692307692,556.0328967988988L477.6923076923077,556.124216943423L481.15384615384613,556.1325463901364L484.6153846153846,556.0761346998536L488.07692307692304,556.2243796595855L491.5384615384615,556.1809970708961L495.00000000000006,556.1146683749058L498.4615384615385,556.108216726969L501.92307692307696,556.1616675648515L505.3846153846154,556.1311985704198L508.8461538461538,556.1847034814657L512.3076923076923,556.1442726582726L515.7692307692307,556.2686330857885L519.2307692307692,556.0992210542237L522.6923076923077,556.2229547626462L526.1538461538462,556.4138942166413L529.6153846153846,556.2866938555999L533.0769230769231,556.5859015718306L536.5384615384615,556.4252422874898L540,556.4875061145993L543.4615384615385,556.4018218189734L546.9230769230769,556.5255763969286L550.3846153846155,556.4336435736277L553.8461538461539,556.4382457681571L557.3076923076924,556.4977186163505L560.7692307692308,556.4677034698196L564.2307692307692,556.4345850594681L567.6923076923076,556.5063649222064L571.1538461538461,556.5307960470288L574.6153846153845,556.4900835833066L578.0769230769231,556.449561124539L581.5384615384615,556.4051075310024L585,556.4690836952248L588.4615384615385,556.4926680807895L591.9230769230769,556.3443473163168L595.3846153846154,556.2822489415427L598.8461538461538,556.348229977404L602.3076923076923,556.2926106449543L605.7692307692308,556.4059775373596L609.2307692307693,556.2851181736894L612.6923076923077,556.2435177949848L616.1538461538462,556.2891790045185L619.6153846153846,556.3415948762575L623.0769230769231,556.2920463354119L626.5384615384615,556.2628791590873L630,556.3280282092824L633.4615384615385,556.3182640144665L636.9230769230769,556.1800428673494L640.3846153846154,556.4302824130921L643.8461538461538,556.3712680809037L647.3076923076923,556.2220372489855L650.7692307692307,556.2614387194839L654.2307692307692,556.161417988702L657.6923076923076,556.2879110222741L661.1538461538462,556.4013895302464L664.6153846153846,555.9624049419969L668.0769230769231,555.84104775931L671.5384615384615,555.8304557355899L675,555.8954016389164L678.4615384615385,555.8030429254177L681.9230769230769,556.1095157936429L685.3846153846154,555.9745037530151L688.8461538461538,555.9929234851835L692.3076923076924,555.9561192447289L695.7692307692308,555.951736406528L699.2307692307693,555.9776449735091L702.6923076923077,556.1744386873921L706.1538461538462,556.0881107842434L709.6153846153846,556.0434562253902L713.0769230769231,555.9292586157716L716.5384615384615,556.0472226940717L720,556.0699501562896L723.4615384615385,555.9542542430032L726.9230769230769,556.0332193453835L730.3846153846154,556.0557044277523L733.8461538461538,555.9629978396943L737.3076923076923,556.0323117783863L740.7692307692307,556.0502751992113L744.2307692307692,555.904069131481L747.6923076923077,556.0898261211324L751.1538461538462,556.284666729341L754.6153846153846,556.243643954397L758.0769230769231,556.3048683160415L761.5384615384615,556.4097483653655L765,556.1182886794451L768.4615384615385,556.2521348432697L771.9230769230769,556.252207007494L775.3846153846155,556.1763900301287L778.8461538461539,556.2285195512613L782.3076923076924,556.2761182479492L785.7692307692308,556.2131090621504L789.2307692307692,556.221198156682L792.6923076923076,556.1549065659144L796.1538461538461,556.2060473736323L799.6153846153845,556.2140645731977L803.0769230769231,556.1602418745276L806.5384615384615,556.1914789606287L810,556.4391823969619L813.4615384615385,556.2149875166135L816.9230769230769,556.2606568314923L820.3846153846154,556.2606887557365L823.8461538461538,556.1968564802886L827.3076923076923,556.2345874942012L830.7692307692308,556.2123700054734L834.2307692307693,556.2645180023229L837.6923076923077,556.305070056334L841.1538461538462,556.1688311688312L844.6153846153846,556.246264196055L848.0769230769231,556.1366864399699L851.5384615384615,556.1773333491681L855,556.282670002006L858.4615384615385,556.1961283029532L861.9230769230769,556.2467053241961L865.3846153846154,556.2181852145893L868.8461538461538,556.1862868314481L872.3076923076923,556.2717628957811L875.7692307692307,556.1869357408391L879.2307692307692,556.2260162227992L882.6923076923076,556.2402040979762L886.1538461538462,555.8102603051855" style="fill: none; stroke: #1f77b4; stroke-width: 2;"></path></g></g><path class="foreground" d="" style="display: none; fill: none;"></path></g><g transform="translate(0,0)"><path class="background" d="M0,0h900v600h-900Z" style="fill: none;"></path><g><g class="mark-line role-mark marks"><path d="M6.923076923076923,565.0238659306546L10.384615384615385,559.7962508728268L13.846153846153847,558.9917256791866L17.30769230769231,557.6295220700842L20.76923076923077,556.498059772619L24.230769230769234,555.1301361609833L27.692307692307693,408.71535478929644L31.153846153846157,452.5913850260943L34.61538461538462,478.7451704614487L38.07692307692308,490.99348631330633L41.53846153846154,504.8256731551007L45,514.3705353001207L48.46153846153847,517.5097707680794L51.92307692307693,521.4732979277895L55.38461538461539,334.1140461773904L58.84615384615385,394.06165959239223L62.307692307692314,416.9124248442473L65.76923076923077,440.7061768023389L69.23076923076924,460.96901234740926L72.6923076923077,470.08286088094195L76.15384615384616,486.51451058233187L79.61538461538461,492.0010244962103L83.07692307692308,308.4097586313243L86.53846153846155,345.83364522868163L90,382.69334049409235L93.46153846153847,411.8066690663961L96.92307692307693,422.3401717557252L100.38461538461539,446.3713729766716L103.84615384615385,455.4786721555575L107.3076923076923,465.76518403160253L110.76923076923077,296.8613277534715L114.23076923076923,331.6320303390255L117.6923076923077,398.30107227405654L121.15384615384615,387.09400486478745L124.61538461538463,408.92156407665414L128.07692307692307,426.34960707642074L131.53846153846155,437.22201968647465L135,455.0469098956941L138.46153846153848,286.57633205058875L141.9230769230769,313.49365178307795L145.3846153846154,341.89915092704905L148.84615384615384,380.1791732581333L152.30769230769232,389.35083692260076L155.76923076923077,403.5725342084081L159.23076923076923,437.051511046644L162.69230769230768,440.78016643550626L166.15384615384616,252.35132102417623L169.6153846153846,295.25632781902135L173.0769230769231,323.8399608030911L176.53846153846155,379.2342941094165L180,369.8950159446773L183.46153846153845,387.948332588651L186.92307692307693,414.06270068305207L190.3846153846154,414.7304941437701L193.84615384615387,270.49575110028513L197.3076923076923,293.36650683072463L200.76923076923077,310.8208015632397L204.23076923076923,331.91520674029147L207.6923076923077,354.97423833269823L211.15384615384616,370.1269426675083L214.6153846153846,387.1470843074106L218.07692307692307,393.23372966207756L221.53846153846155,267.355480263917L225,291.0517842339588L228.46153846153845,298.4848951436578L231.9230769230769,323.3333613099784L235.3846153846154,340.78378504021197L238.84615384615384,357.8097578097577L242.3076923076923,386.42463892985967L245.76923076923075,388.082456517071L249.23076923076925,258.2715859791914L252.6923076923077,283.7693029455352L256.15384615384613,308.75842412295884L259.6153846153846,315.6931232150561L263.0769230769231,341.35835480577566L266.53846153846155,359.80669987769585L270,362.5050486544555L273.46153846153845,376.27742826453886L276.92307692307696,295.58490158684464L280.3846153846154,264.82946168028707L283.8461538461538,286.5373608244218L287.30769230769226,302.62256642764703L290.7692307692308,329.1173486641867L294.2307692307692,341.02911306702765L297.6923076923077,348.0928899565895L301.15384615384613,369.3283123270826L304.61538461538464,244.69488084079583L308.0769230769231,260.3756023909491L311.53846153846155,276.08101273245705L315,301.44183352380344L318.46153846153845,323.8681583624968L321.9230769230769,331.341154372735L325.38461538461536,358.6422427569944L328.8461538461538,357.0469988574825L332.3076923076923,230.44663232705216L335.7692307692308,266.6265721526082L339.2307692307692,274.28978396771384L342.6923076923077,305.2562723137868L346.1538461538462,310.42873627366663L349.61538461538464,357.8738391507318L353.0769230769231,341.72638642249996L356.53846153846155,347.7070462401001L360,246.09243833512943L363.46153846153845,265.4771506399038L366.9230769230769,311.74688820746155L370.38461538461536,297.18393328333207L373.84615384615387,299.92602235386545L377.3076923076923,319.0591456306526L380.7692307692308,334.7632261445637L384.2307692307692,340.9242245689507L387.69230769230774,227.18964204112714L391.1538461538462,243.6068455612429L394.6153846153846,293.7689280765466L398.07692307692304,282.6072659328377L401.53846153846155,298.4814058500388L405,321.4738918087978L408.46153846153845,331.168439158467L411.9230769230769,342.9193899782135L415.3846153846154,242.40841967855098L418.84615384615387,256.9433120199116L422.3076923076923,254.03194246229148L425.7692307692308,289.5511124573866L429.2307692307692,298.4918501021169L432.6923076923077,311.55803904712343L436.15384615384613,328.5276073619631L439.6153846153846,345.2137712512L443.0769230769231,247.51600208619791L446.53846153846155,236.67739693809787L450,287.3511555361755L453.46153846153845,301.9146411104695L456.9230769230769,286.16246888306983L460.38461538461536,299.41195469378204L463.8461538461538,320.1075483856631L467.3076923076923,315.92386091664497L470.7692307692308,231.49821414575706L474.2307692307692,246.6351299285072L477.6923076923077,250.15846468451122L481.15384615384613,286.3446541278453L484.6153846153846,294.2958905878428L488.07692307692304,305.83404725653736L491.5384615384615,311.5117188631689L495.00000000000006,318.33045449790933L498.4615384615385,232.05326660870662L501.92307692307696,247.92311894979525L505.3846153846154,259.4965407096831L508.8461538461538,264.0414066613639L512.3076923076923,279.21775960006306L515.7692307692307,299.53889686070283L519.2307692307692,309.5666510246452L522.6923076923077,313.30851424274226L526.1538461538462,213.05808252589722L529.6153846153846,238.28110513628775L533.0769230769231,257.2421936499606L536.5384615384615,265.16140843351434L540,278.87067049189665L543.4615384615385,299.2668623720763L546.9230769230769,300.51996341910854L550.3846153846155,323.90388787692444L553.8461538461539,223.6986822536575L557.3076923076924,240.79848159038042L560.7692307692308,250.53229413592842L564.2307692307692,283.59765143442183L567.6923076923076,288.63406981591584L571.1538461538461,295.05959091641165L574.6153846153845,303.56598141930465L578.0769230769231,313.9665557452987L581.5384615384615,216.9998770716224L585,258.8561969731712L588.4615384615385,259.6348012889366L591.9230769230769,273.16603805813685L595.3846153846154,275.8973140004754L598.8461538461538,293.9124620726328L602.3076923076923,297.8621992615297L605.7692307692308,309.05456462525257L609.2307692307693,231.56350836022287L612.6923076923077,241.79448753900635L616.1538461538462,253.19903616081956L619.6153846153846,264.07773980232236L623.0769230769231,284.24712747711544L626.5384615384615,286.79052967325117L630,298.669093390968L633.4615384615385,306.5928427893454L636.9230769230769,224.27817584331743L640.3846153846154,230.58999676502324L643.8461538461538,250.9178792526548L647.3076923076923,263.39881764677983L650.7692307692307,276.8151135412939L654.2307692307692,281.61053861680654L657.6923076923076,291.29740706106446L661.1538461538462,303.1638265791757L664.6153846153846,232.33434966907112L668.0769230769231,241.34769412644278L671.5384615384615,248.08690099247L675,240.9508711226298L678.4615384615385,272.14748380667663L681.9230769230769,283.9457736787464L685.3846153846154,281.57646453383654L688.8461538461538,293.779166322918L692.3076923076924,228.6139874009804L695.7692307692308,230.87274336022966L699.2307692307693,245.456524499755L702.6923076923077,259.9147121535181L706.1538461538462,282.3248731590336L709.6153846153846,280.8741763075836L713.0769230769231,286.355708471927L716.5384615384615,297.5049031432556L720,215.58627424342484L723.4615384615385,224.75019347277382L726.9230769230769,231.2981462830389L730.3846153846154,248.34125357536988L733.8461538461538,264.6793699069163L737.3076923076923,275.5678727603972L740.7692307692307,279.3286312962956L744.2307692307692,290.1934322463152L747.6923076923077,213.13407371131578L751.1538461538462,222.28134806931368L754.6153846153846,240.2533060160178L758.0769230769231,254.72834966077917L761.5384615384615,261.050952276839L765,271.79684358310465L768.4615384615385,284.10994284052475L771.9230769230769,288.3238116790747L775.3846153846155,222.38353654239188L778.8461538461539,221.04208999649737L782.3076923076924,240.02058088702157L785.7692307692308,246.0027190573934L789.2307692307692,254.6534861458913L792.6923076923076,268.7926277786564L796.1538461538461,276.27709694737024L799.6153846153845,280.12602303179546L803.0769230769231,205.7211910409779L806.5384615384615,242.78242927911563L810,233.0917234395473L813.4615384615385,240.08963501139246L816.9230769230769,258.0123173529766L820.3846153846154,275.00782769472676L823.8461538461538,270.16348773841963L827.3076923076923,282.7444482331166L830.7692307692308,282.0666573068056L834.2307692307693,230.7412628039982L837.6923076923077,248.8817410822756L841.1538461538462,237.19641056352526L844.6153846153846,259.1176882670041L848.0769230769231,257.82999038665207L851.5384615384615,269.1838212475431L855,267.0891966047847L858.4615384615385,209.525181632947L861.9230769230769,236.38460893976705L865.3846153846154,223.41187661110754L868.8461538461538,237.07872553123036L872.3076923076923,247.61525521523242L875.7692307692307,308.0470234775978L879.2307692307692,308.8745289344091L882.6923076923076,271.72003254477477L886.1538461538462,233.8338746759393" style="fill: none; stroke: #aec7e8; stroke-width: 2;"></path></g></g><path class="foreground" d="" style="display: none; fill: none;"></path></g><g transform="translate(0,0)"><path class="background" d="M0,0h900v600h-900Z" style="fill: none;"></path><g><g class="mark-line role-mark marks"><path d="M6.923076923076923,531.472429073964L10.384615384615385,503.67738344963396L13.846153846153847,471.47355568408193L17.30769230769231,440.1330093362323L20.76923076923077,396.04786076867293L24.230769230769234,358.6095912455745L27.692307692307693,343.7156952779617L31.153846153846157,405.2322222864075L34.61538461538462,383.56947874691275L38.07692307692308,363.14768514527105L41.53846153846154,341.43360414120343L45,397.693474016533L48.46153846153847,297.02790133441164L51.92307692307693,275.5182469107287L55.38461538461539,240.36719265614693L58.84615384615385,317.95595708639183L62.307692307692314,303.8217610657404L65.76923076923077,287.43956043956035L69.23076923076924,285.34224548349465L72.6923076923077,276.5108405964128L76.15384615384616,236.69124210665518L79.61538461538461,218.11224489795916L83.07692307692308,179.32413938309287L86.53846153846155,291.72412088862524L90,279.20811663960563L93.46153846153847,247.33751559623417L96.92307692307693,224.3648453672918L100.38461538461539,223.44522508456924L103.84615384615385,211.54551430647334L107.3076923076923,198.01288936627276L110.76923076923077,143.00977820176473L114.23076923076923,254.3673749527264L117.6923076923077,331.0877705146919L121.15384615384615,241.5890989348431L124.61538461538463,237.00477359152075L128.07692307692307,219.358322613487L131.53846153846155,188.66957635767477L135,235.6120349466231L138.46153846153848,143.91235065836122L141.9230769230769,236.5287049399199L145.3846153846154,235.44674447923862L148.84615384615384,218.87755102040808L152.30769230769232,210.04662640739372L155.76923076923077,201.18404973483445L159.23076923076923,251.91582039658613L162.69230769230768,241.6093143861554L166.15384615384616,132.211350293542L169.6153846153846,219.86974239557557L173.0769230769231,209.38317874416362L176.53846153846155,280.1597572966478L180,178.09875348594474L183.46153846153845,187.8940540878471L186.92307692307693,227.01832166343485L190.3846153846154,144.02419650494926L193.84615384615387,148.53102431277642L197.3076923076923,177.35300693047168L200.76923076923077,195.5872724891973L204.23076923076923,206.70359590648758L207.6923076923077,177.78585351349565L211.15384615384616,167.08759537533726L214.6153846153846,136.57192938525097L218.07692307692307,144.13561392791684L221.53846153846155,136.04942589030708L225,172.5664536445309L228.46153846153845,203.28087167070203L231.9230769230769,167.36677660128447L235.3846153846154,157.8613771487938L238.84615384615384,156.68304339761804L242.3076923076923,197.27184150698275L245.76923076923075,167.74382094115433L249.23076923076925,126.49129307150785L252.6923076923077,154.33071834345716L256.15384615384613,148.38114905228997L259.6153846153846,144.18689102511783L263.0769230769231,159.60558904621703L266.53846153846155,154.76974131599712L270,151.0999721526036L273.46153846153845,117.8387038615354L276.92307692307696,171.4393609713466L280.3846153846154,185.88900085637934L283.8461538461538,152.87493351429663L287.30769230769226,164.16402024819226L290.7692307692308,155.63859203348034L294.2307692307692,151.2317352976693L297.6923076923077,106.10193826274221L301.15384615384613,164.47061917010234L304.61538461538464,128.15481450754766L308.0769230769231,171.59388533049815L311.53846153846155,181.3986299007696L315,131.90175132621172L318.46153846153845,149.8169343932447L321.9230769230769,153.00906895904393L325.38461538461536,148.5913488901536L328.8461538461538,171.75707654777617L332.3076923076923,128.54960216412127L335.7692307692308,133.08547052874513L339.2307692307692,162.9699842022117L342.6923076923077,157.09148598625066L346.1538461538462,148.19828059264677L349.61538461538464,167.50254062833858L353.0769230769231,133.48912778742067L356.53846153846155,115.96241751906203L360,126.55974983796597L363.46153846153845,130.51668005581152L366.9230769230769,157.35066577820936L370.38461538461536,101.32260587915589L373.84615384615387,130.67598109718506L377.3076923076923,118.23850978357144L380.7692307692308,122.16151823858038L384.2307692307692,116.97426084809572L387.69230769230774,117.95852750249274L391.1538461538462,136.97762558595693L394.6153846153846,136.78545302539447L398.07692307692304,111.18413119498365L401.53846153846155,131.17691308213088L405,150.42759518385932L408.46153846153845,147.25338712528455L411.9230769230769,134.03272484416732L415.3846153846154,93.06636580454423L418.84615384615387,137.50178037316613L422.3076923076923,172.82059335827066L425.7692307692308,158.1495734624895L429.2307692307692,153.2837503699156L432.6923076923077,141.4108063456676L436.15384615384613,129.32005810863473L439.6153846153846,122.97355818218867L443.0769230769231,138.0997432085416L446.53846153846155,146.0502740177645L450,152.51407265926923L453.46153846153845,87.20615079733045L456.9230769230769,102.72207291020604L460.38461538461536,111.46837033933804L463.8461538461538,127.95800499826609L467.3076923076923,126.2045082152933L470.7692307692308,72.00303011173533L474.2307692307692,112.88036420340165L477.6923076923077,146.735943206955L481.15384615384613,162.40336665727654L484.6153846153846,141.38754860167694L488.07692307692304,108.9753116805665L491.5384615384615,128.60872808653488L495.00000000000006,90.69468858579089L498.4615384615385,113.2974132474688L501.92307692307696,144.78880971323062L505.3846153846154,140.0267432561419L508.8461538461538,134.2408741449239L512.3076923076923,85.64626637600985L515.7692307692307,109.69269311438974L519.2307692307692,100.79546381659445L522.6923076923077,122.07346519171878L526.1538461538462,116.4153831124425L529.6153846153846,139.67899675170383L533.0769230769231,120.22880295537146L536.5384615384615,133.93868172079743L540,130.00420677538278L543.4615384615385,106.08475944323743L546.9230769230769,85.67571521672623L550.3846153846155,151.67350368114657L553.8461538461539,110.41211165114558L557.3076923076924,143.8933638631066L560.7692307692308,130.7575552889007L564.2307692307692,135.83452596016227L567.6923076923076,138.33920518193054L571.1538461538461,119.62016966634405L574.6153846153845,100.77705755577828L578.0769230769231,94.73504556409476L581.5384615384615,131.53830658698723L585,163.60191442641815L588.4615384615385,128.32887119287875L591.9230769230769,111.0055484220569L595.3846153846154,120.42120722234289L598.8461538461538,131.25629791077296L602.3076923076923,114.77288894186574L605.7692307692308,97.23444461302904L609.2307692307693,143.87228940279482L612.6923076923077,151.65410392610502L616.1538461538462,148.17725740742043L619.6153846153846,125.54035582714458L623.0769230769231,133.20338393954475L626.5384615384615,121.27403517409256L630,98.1722474045912L633.4615384615385,100.73748114021149L636.9230769230769,98.1372376680596L640.3846153846154,130.3949685269339L643.8461538461538,147.5877337747738L647.3076923076923,113.39027292894347L650.7692307692307,94.08978193908517L654.2307692307692,186.0470644164487L657.6923076923076,118.44339597812372L661.1538461538462,97.21501602319542L664.6153846153846,122.83600591006953L668.0769230769231,145.02278320862686L671.5384615384615,143.3235065024698L675,139.3145643922822L678.4615384615385,96.81512814132871L681.9230769230769,134.87537736573782L685.3846153846154,120.42838939341836L688.8461538461538,53.56447870314505L692.3076923076924,138.36388466791044L695.7692307692308,70.48717165546732L699.2307692307693,132.33311392060278L702.6923076923077,155.54307356528435L706.1538461538462,101.61510788920694L709.6153846153846,94.28756252791604L713.0769230769231,57.25995316159247L716.5384615384615,168.12462135295306L720,117.44129491644134L723.4615384615385,128.70198203900767L726.9230769230769,127.0860758653495L730.3846153846154,100.4177302552282L733.8461538461538,130.68533669659277L737.3076923076923,113.38164638052521L740.7692307692307,93.28538239388125L744.2307692307692,69.62501668532002L747.6923076923077,39.75002421550728L751.1538461538462,106.84175309468039L754.6153846153846,84.2432971525581L758.0769230769231,118.66828611656935L761.5384615384615,116.12978145249325L765,117.52886605075494L768.4615384615385,95.23097570539151L771.9230769230769,188.0774473874546L775.3846153846155,104.27145795470614L778.8461538461539,143.02729708203606L782.3076923076924,134.53608021302003L785.7692307692308,116.57043488734482L789.2307692307692,82.9730614788367L792.6923076923076,127.56429691928433L796.1538461538461,126.34626265993512L799.6153846153845,110.49266720555964L803.0769230769231,68.30242068337296L806.5384615384615,154.5495971333291L810,148.31533828875257L813.4615384615385,85.09179854051455L816.9230769230769,115.43191390208942L820.3846153846154,160.44608764167526L823.8461538461538,111.33040188158301L827.3076923076923,70.71246550152294L830.7692307692308,63.515105500852485L834.2307692307693,99.17229168972L837.6923076923077,176.87720249390065L841.1538461538462,113.26816142726766L844.6153846153846,101.55952502071123L848.0769230769231,107.40898187228602L851.5384615384615,55.433308918636584L855,89.26185827326509L858.4615384615385,59.26902277682649L861.9230769230769,60.5551229789767L865.3846153846154,124.90075933521095L868.8461538461538,109.613726444127L872.3076923076923,94.52289559927434L875.7692307692307,100.13100962389612L879.2307692307692,105.34002291975288L882.6923076923076,152.85651436113375L886.1538461538462,81.09838582694277" style="fill: none; stroke: #2ca02c; stroke-width: 2;"></path></g></g><path class="foreground" d="" style="display: none; fill: none;"></path></g><g transform="translate(0,0)"><path class="background" d="M0,0h900v600h-900Z" style="fill: none;"></path><g><g class="mark-line role-mark marks"><path d="M6.923076923076923,537.6351238982205L10.384615384615385,507.9792237536297L13.846153846153847,477.3407474037125L17.30769230769231,447.0043450765998L20.76923076923077,413.0957572736901L24.230769230769234,382.67168936540133L27.692307692307693,357.0476055367529L31.153846153846157,410.3324613956628L34.61538461538462,389.2167895121814L38.07692307692308,369.65805396794343L41.53846153846154,348.71787705593823L45,388.7399551029703L48.46153846153847,305.0487156775907L51.92307692307693,283.9185521634581L55.38461538461539,244.95253890920927L58.84615384615385,319.60732465128575L62.307692307692314,305.385843301043L65.76923076923077,289.0421891569821L69.23076923076924,283.17460317460313L72.6923076923077,279.4890094204967L76.15384615384616,238.7548262548262L79.61538461538461,220.52813719223218L83.07692307692308,189.21289792002182L86.53846153846155,286.1872059970317L90,273.86440763178405L93.46153846153847,244.7774311200949L96.92307692307693,219.20508744038148L100.38461538461539,222.1835429267656L103.84615384615385,205.38108711315738L107.3076923076923,191.12054837970712L110.76923076923077,146.28200149648123L114.23076923076923,258.5521946089555L117.6923076923077,321.02860654208683L121.15384615384615,254.4546211490424L124.61538461538463,241.53883029721953L128.07692307692307,223.42024132791602L131.53846153846155,189.99906209643086L135,281.0373171132664L138.46153846153848,139.04124895008982L141.9230769230769,245.55365243958883L145.3846153846154,220.2660340591374L148.84615384615384,225.28872401483858L152.30769230769232,221.53479454894025L155.76923076923077,191.18521626502724L159.23076923076923,247.99704973954732L162.69230769230768,245.63888973337788L166.15384615384616,144.62499761873L169.6153846153846,217.72777167947305L173.0769230769231,210.15452769274157L176.53846153846155,261.32218608314156L180,179.31539149524343L183.46153846153845,187.8188961607403L186.92307692307693,231.5775038055925L190.3846153846154,152.05371808374207L193.84615384615387,155.0255282674318L197.3076923076923,177.6907955481866L200.76923076923077,172.58395011134093L204.23076923076923,207.3426027183252L207.6923076923077,175.31651879174547L211.15384615384616,169.38322341165946L214.6153846153846,141.17227051175897L218.07692307692307,143.8259865516538L221.53846153846155,138.73122111637466L225,169.83066645953085L228.46153846153845,205.55395059945104L231.9230769230769,176.50057346756716L235.3846153846154,156.57604702424695L238.84615384615384,150.28915883846875L242.3076923076923,181.2794005802653L245.76923076923075,169.50516571819358L249.23076923076925,123.089840470193L252.6923076923077,153.54935927177468L256.15384615384613,143.32532316871055L259.6153846153846,141.7129893625313L263.0769230769231,160.44434425018835L266.53846153846155,156.02571405321834L270,149.46547936059363L273.46153846153845,115.68551590159805L276.92307692307696,155.840496194303L280.3846153846154,189.4499718415618L283.8461538461538,154.1571110355195L287.30769230769226,163.7001124525259L290.7692307692308,160.27214909037113L294.2307692307692,152.22254117096713L297.6923076923077,104.85786254048213L301.15384615384613,164.9633807559558L304.61538461538464,150.3181516608856L308.0769230769231,173.20144930344304L311.53846153846155,185.05044100919304L315,133.573893944148L318.46153846153845,155.63441959503672L321.9230769230769,165.89231437255745L325.38461538461536,150.75742703308086L328.8461538461538,167.88361493485561L332.3076923076923,134.4254363453887L335.7692307692308,133.0748759307221L339.2307692307692,160.96322315798383L342.6923076923077,174.36017319537328L346.1538461538462,152.0601605571137L349.61538461538464,188.32769753540626L353.0769230769231,132.9246497328431L356.53846153846155,117.95060271751296L360,127.22052490153494L363.46153846153845,133.42647645860032L366.9230769230769,153.86773740989784L370.38461538461536,101.62947753110612L373.84615384615387,127.5991148429259L377.3076923076923,120.48089053803324L380.7692307692308,123.40469118098933L384.2307692307692,114.47686803300724L387.69230769230774,118.8983894225886L391.1538461538462,135.3737260287682L394.6153846153846,145.54284742963983L398.07692307692304,111.38052955120727L401.53846153846155,133.1435653678002L405,203.7224605657882L408.46153846153845,198.6849563541548L411.9230769230769,183.29030001166063L415.3846153846154,92.11558472744727L418.84615384615387,165.09655411373706L422.3076923076923,173.95602935173665L425.7692307692308,157.70409122311918L429.2307692307692,179.50490093174218L432.6923076923077,139.78366555053663L436.15384615384613,121.6937313217872L439.6153846153846,124.22069722476996L443.0769230769231,136.56622222440927L446.53846153846155,146.1944645454349L450,153.77157162257873L453.46153846153845,88.202770094822L456.9230769230769,100.61643747837334L460.38461538461536,112.52351424789235L463.8461538461538,128.89650530576773L467.3076923076923,128.83967705823187L470.7692307692308,75.07648858554951L474.2307692307692,113.57077775260207L477.6923076923077,147.76967725090873L481.15384615384613,167.35933055247273L484.6153846153846,200.0054868931839L488.07692307692304,104.69211781500802L491.5384615384615,130.43660363847627L495.00000000000006,91.18556452002504L498.4615384615385,119.91064050055851L501.92307692307696,145.54601699813742L505.3846153846154,139.29879486423107L508.8461538461538,136.47166912672824L512.3076923076923,110.3257465494478L515.7692307692307,108.11872240556065L519.2307692307692,137.17851715874804L522.6923076923077,123.72235673930581L526.1538461538462,117.90989540387345L529.6153846153846,144.16185065398523L533.0769230769231,120.55018830849843L536.5384615384615,134.88348210434646L540,127.05714078419574L543.4615384615385,106.54449138910915L546.9230769230769,85.41221714338934L550.3846153846155,149.3406009609303L553.8461538461539,112.3689491550854L557.3076923076924,162.04839026949045L560.7692307692308,131.2008764826369L564.2307692307692,136.5765818522529L567.6923076923076,142.58877653711588L571.1538461538461,129.3082477921863L574.6153846153845,100.95682556144052L578.0769230769231,125.11709840932814L581.5384615384615,132.1543408360128L585,155.3404437879462L588.4615384615385,130.00393325998846L591.9230769230769,114.96517959383976L595.3846153846154,119.16376306620205L598.8461538461538,124.27162401709018L602.3076923076923,113.65802940898465L605.7692307692308,96.56782177534072L609.2307692307693,146.81178414724477L612.6923076923077,152.25379840367995L616.1538461538462,149.69100360276653L619.6153846153846,126.60627818732353L623.0769230769231,133.98652129120873L626.5384615384615,120.63770000018256L630,124.4683673856184L633.4615384615385,109.32720752528915L636.9230769230769,100.4660460206408L640.3846153846154,130.71823689524973L643.8461538461538,145.89828319982317L647.3076923076923,112.97965249652296L650.7692307692307,102.63281600169086L654.2307692307692,186.68119444204703L657.6923076923076,136.83221257913695L661.1538461538462,120.76722313701826L664.6153846153846,123.46286953976472L668.0769230769231,146.48189839058486L671.5384615384615,144.71135809224543L675,146.3398455853304L678.4615384615385,104.04649793996464L681.9230769230769,135.67226938747538L685.3846153846154,121.63620773718455L688.8461538461538,94.28497538765754L692.3076923076924,134.272227585638L695.7692307692308,70.89119487257727L699.2307692307693,133.05911547744495L702.6923076923077,153.10943534246272L706.1538461538462,123.1350407545506L709.6153846153846,92.72336411017794L713.0769230769231,77.01768600357477L716.5384615384615,169.67737555292177L720,117.16731931570794L723.4615384615385,128.11130441395966L726.9230769230769,126.62525329701357L730.3846153846154,101.1845001112786L733.8461538461538,133.0012685041885L737.3076923076923,114.07893221770158L740.7692307692307,94.03978750976876L744.2307692307692,69.82190114666847L747.6923076923077,41.062413766568895L751.1538461538462,128.54538476300132L754.6153846153846,120.14809448084036L758.0769230769231,118.81421054096933L761.5384615384615,116.12978145249325L765,118.23966424147072L768.4615384615385,96.3156061476016L771.9230769230769,186.3256125419206L775.3846153846155,97.91680444415034L778.8461538461539,141.540149060743L782.3076923076924,134.3072071451295L785.7692307692308,117.9877444651938L789.2307692307692,84.25859854431287L792.6923076923076,127.75226396380002L796.1538461538461,124.10150263590623L799.6153846153845,112.6873314800493L803.0769230769231,69.89841063608155L806.5384615384615,154.0542218200477L810,148.5395583217226L813.4615384615385,85.34195676975729L816.9230769230769,115.73399518213003L820.3846153846154,160.5330984834406L823.8461538461538,112.07384188117085L827.3076923076923,88.95185891757393L830.7692307692308,64.13882251557051L834.2307692307693,99.68384654840021L837.6923076923077,176.7203897712172L841.1538461538462,115.9093532376592L844.6153846153846,100.90449072733281L848.0769230769231,109.04255319148928L851.5384615384615,60.37802863010941L855,88.37857392859343L858.4615384615385,64.10945859746246L861.9230769230769,60.95244210632524L865.3846153846154,126.02586324019207L868.8461538461538,116.10566946127659L872.3076923076923,93.58395084041192L875.7692307692307,98.96367172527358L879.2307692307692,106.97988633831062L882.6923076923076,152.6194102926776L886.1538461538462,56.31138005356795" style="fill: none; stroke: #98df8a; stroke-width: 2;"></path></g></g><path class="foreground" d="" style="display: none; fill: none;"></path></g><g transform="translate(0,0)"><path class="background" d="M0,0h900v600h-900Z" style="fill: none;"></path><g><g class="mark-line role-mark marks"><path d="M6.923076923076923,552.2215313979626L10.384615384615385,525.479892583629L13.846153846153847,500.616792678074L17.30769230769231,483.04664085914084L20.76923076923077,459.7938465856815L24.230769230769234,428.60574173624616L27.692307692307693,417.4814634369147L31.153846153846157,463.3403659674605L34.61538461538462,429.6773312701952L38.07692307692308,424.7536120945364L41.53846153846154,395.63586771224004L45,394.70872149390885L48.46153846153847,383.8111054949815L51.92307692307693,371.21053114206234L55.38461538461539,327.63557385064985L58.84615384615385,411.7293778742122L62.307692307692314,380.7218130772673L65.76923076923077,368.50013022528975L69.23076923076924,424.08524918312673L72.6923076923077,347.6375295308808L76.15384615384616,354.4334975369458L79.61538461538461,325.1951392939033L83.07692307692308,308.4263234351287L86.53846153846155,369.9032176586189L90,345.53387182359523L93.46153846153847,337.8027378027378L96.92307692307693,316.3584637268847L100.38461538461539,335.8842302458551L103.84615384615385,312.60572095439005L107.3076923076923,300.85067078330184L110.76923076923077,287.72738851839017L114.23076923076923,336.969292389853L117.6923076923077,344.0766181499077L121.15384615384615,364.73654283548143L124.61538461538463,341.5149255526423L128.07692307692307,313.6193207453236L131.53846153846155,297.4667541487301L135,334.76609859316017L138.46153846153848,294.07520523095525L141.9230769230769,335.44380490760375L145.3846153846154,306.9575471698112L148.84615384615384,309.45024267994796L152.30769230769232,305.12538149325104L155.76923076923077,299.4457722195567L159.23076923076923,328.4669105420685L162.69230769230768,360.8977796296992L166.15384615384616,283.7318650044853L169.6153846153846,300.11217211228717L173.0769230769231,296.9555168541154L176.53846153846155,288.4908092309966L180,299.7406544501603L183.46153846153845,275.1737418375282L186.92307692307693,332.5834096014644L190.3846153846154,298.0753409749097L193.84615384615387,278.7651455865289L197.3076923076923,307.3537546674042L200.76923076923077,298.0309334678266L204.23076923076923,278.469694136797L207.6923076923077,295.2408315718185L211.15384615384616,266.9721131633361L214.6153846153846,301.06463458585097L218.07692307692307,238.0149205319494L221.53846153846155,271.90862439993373L225,312.2220033664005L228.46153846153845,276.70110438190227L231.9230769230769,302.5082934298022L235.3846153846154,277.71689002224514L238.84615384615384,275.64111907877844L242.3076923076923,296.1360123647604L245.76923076923075,273.4961794200158L249.23076923076925,260.0379390683284L252.6923076923077,283.6427342021145L256.15384615384613,282.0776371650856L259.6153846153846,284.8489062841475L263.0769230769231,282.46560637306135L266.53846153846155,277.6500891618783L270,263.7608314353778L273.46153846153845,291.7464370970172L276.92307692307696,286.4266632743925L280.3846153846154,278.3474534091306L283.8461538461538,282.45959815695255L287.30769230769226,259.9962331669648L290.7692307692308,273.2941458291105L294.2307692307692,258.39544119247086L297.6923076923077,245.88066283576103L301.15384615384613,265.245046923879L304.61538461538464,247.39580924816178L308.0769230769231,271.0841924011038L311.53846153846155,267.4294126188557L315,261.26210503993775L318.46153846153845,260.7855297417137L321.9230769230769,264.8454112183795L325.38461538461536,260.76206156469584L328.8461538461538,245.7808086024118L332.3076923076923,243.12312645440076L335.7692307692308,283.53034060203044L339.2307692307692,270.2857875998332L342.6923076923077,294.65258460519686L346.1538461538462,264.26765309715086L349.61538461538464,300.7077784568155L353.0769230769231,278.8032558858379L356.53846153846155,252.432424979836L360,269.37847725845904L363.46153846153845,275.7044125465178L366.9230769230769,273.6280237737705L370.38461538461536,259.9871503238465L373.84615384615387,250.19236853341943L377.3076923076923,255.02600664974676L380.7692307692308,248.28434848441864L384.2307692307692,235.97671204338602L387.69230769230774,242.81583832973183L391.1538461538462,264.97212900290083L394.6153846153846,276.71645107283666L398.07692307692304,261.11591826361615L401.53846153846155,247.4292364603682L405,271.69050922941017L408.46153846153845,262.94951709021166L411.9230769230769,256.99814563671083L415.3846153846154,251.87627833201145L418.84615384615387,280.6476767287526L422.3076923076923,244.41182637869574L425.7692307692308,262.4156551612872L429.2307692307692,262.29708058632104L432.6923076923077,253.5605009343368L436.15384615384613,251.8412498829572L439.6153846153846,259.9005623599177L443.0769230769231,265.5851093438293L446.53846153846155,255.3641879123429L450,289.0245415518995L453.46153846153845,265.38790704882126L456.9230769230769,243.47285829616092L460.38461538461536,256.51512126958767L463.8461538461538,250.05598699656855L467.3076923076923,210.62319299774245L470.7692307692308,234.73319719435318L474.2307692307692,257.35275944951985L477.6923076923077,248.88276561040107L481.15384615384613,252.99881420458092L484.6153846153846,265.1637482087309L488.07692307692304,253.88458890712892L491.5384615384615,243.82880643557644L495.00000000000006,233.52328673797612L498.4615384615385,240.84799778301226L501.92307692307696,263.1458307520752L505.3846153846154,252.13054129957038L508.8461538461538,239.6173688736027L512.3076923076923,239.52059473101676L515.7692307692307,244.986663524116L519.2307692307692,245.5117915792072L522.6923076923077,232.1135872985794L526.1538461538462,223.17828358441182L529.6153846153846,260.0015889632482L533.0769230769231,240.9263755898657L536.5384615384615,247.44530086517273L540,242.26618705035966L543.4615384615385,245.5308125579294L546.9230769230769,236.75704915815808L550.3846153846155,239.55214264237753L553.8461538461539,243.11877453285072L557.3076923076924,261.42290101784613L560.7692307692308,247.04798549365037L564.2307692307692,265.16415352730513L567.6923076923076,241.8784163096469L571.1538461538461,240.64617244492558L574.6153846153845,247.42634913961373L578.0769230769231,246.17266161187982L581.5384615384615,223.62159663680572L585,250.7091131866438L588.4615384615385,253.43033094736344L591.9230769230769,250.56789590446917L595.3846153846154,253.8641307797506L598.8461538461538,244.16339798651245L602.3076923076923,255.77401123526909L605.7692307692308,236.92892349749403L609.2307692307693,245.82723531741237L612.6923076923077,247.27405174216898L616.1538461538462,243.9907228852868L619.6153846153846,250.11147535452818L623.0769230769231,258.77443046917995L626.5384615384615,246.20252189033874L630,241.81981750417683L633.4615384615385,241.3481533280579L636.9230769230769,236.70322398603204L640.3846153846154,254.77212594838005L643.8461538461538,244.1676043809261L647.3076923076923,256.1616778006166L650.7692307692307,252.04821343165003L654.2307692307692,235.4731442836525L657.6923076923076,240.80551978775085L661.1538461538462,239.14902753427762L664.6153846153846,239.04951013550368L668.0769230769231,242.7855629453293L671.5384615384615,242.2322328577677L675,220.73241351528264L678.4615384615385,242.0231278769507L681.9230769230769,242.11320506062202L685.3846153846154,234.10904425223893L688.8461538461538,226.62767638520072L692.3076923076924,234.91256003858322L695.7692307692308,244.3217267327348L699.2307692307693,241.52699577621104L702.6923076923077,249.8114181003042L706.1538461538462,233.60277591577622L709.6153846153846,236.23136990464369L713.0769230769231,229.73429300695975L716.5384615384615,238.8573703078597L720,236.18409721557745L723.4615384615385,233.4031328184488L726.9230769230769,233.87933830684395L730.3846153846154,232.82210724146725L733.8461538461538,245.89616294715344L737.3076923076923,236.7331303155359L740.7692307692307,231.33648804194905L744.2307692307692,230.19999999999996L747.6923076923077,225.30116611519796L751.1538461538462,241.39861483506397L754.6153846153846,242.65419416881576L758.0769230769231,256.810055143891L761.5384615384615,246.96453616509712L765,229.13966437978672L768.4615384615385,222.79958772565385L771.9230769230769,229.1820200819543L775.3846153846155,230.84336507991935L778.8461538461539,246.8145043915887L782.3076923076924,236.11985112669356L785.7692307692308,235.1389579440053L789.2307692307692,223.40920222956592L792.6923076923076,229.59688063422502L796.1538461538461,228.16339156821726L799.6153846153845,217.1667001283181L803.0769230769231,212.48342625584422L806.5384615384615,283.6492648480231L810,250.2543321983494L813.4615384615385,223.6393317061465L816.9230769230769,232.3168738726742L820.3846153846154,277.92865849702764L823.8461538461538,222.52649427723605L827.3076923076923,239.92620377016266L830.7692307692308,250.40017461316066L834.2307692307693,245.59654759950277L837.6923076923077,280.2528119540824L841.1538461538462,232.40630364295248L844.6153846153846,239.74645200572974L848.0769230769231,230.54853843377833L851.5384615384615,215.88564097864926L855,207.13108190852992L858.4615384615385,217.65163911842427L861.9230769230769,210.8694701870956L865.3846153846154,218.59162810105443L868.8461538461538,218.55709797626957L872.3076923076923,226.91710902409145L875.7692307692307,226.9577364098995L879.2307692307692,223.4245380581833L882.6923076923076,210.5159900340623L886.1538461538462,215.55739113352726" style="fill: none; stroke: #ffbb78; stroke-width: 2;"></path></g></g><path class="foreground" d="" style="display: none; fill: none;"></path></g></g><g class="mark-group role-legend"><g transform="translate(918,0)"><path class="background" d="M0,0h101v92h-101Z" style="pointer-events: none; fill: none;"></path><g><g class="mark-group role-legend-entry"><g transform="translate(0,16)"><path class="background" d="M0,0h0v0h0Z" style="pointer-events: none; fill: none;"></path><g><g class="mark-group role-scope"><g transform="translate(0,0)"><path class="background" d="M0,0h101v11h-101Z" style="pointer-events: none; fill: none; opacity: 1;"></path><g><g class="mark-symbol role-legend-symbol" style="pointer-events: none;"><path transform="translate(6,6)" d="M-5,0L5,0" style="fill: none; stroke: #1f77b4; stroke-width: 1.5; opacity: 1;"></path></g><g class="mark-text role-legend-label" style="pointer-events: none;"><text text-anchor="start" transform="translate(16,9)" style="font-family: sans-serif; font-size: 10px; fill: #000; opacity: 1;">Clang</text></g></g><path class="foreground" d="" style="pointer-events: none; display: none; fill: none;"></path></g><g transform="translate(0,13)"><path class="background" d="M0,0h101v11h-101Z" style="pointer-events: none; fill: none; opacity: 1;"></path><g><g class="mark-symbol role-legend-symbol" style="pointer-events: none;"><path transform="translate(6,6)" d="M-5,0L5,0" style="fill: none; stroke: #aec7e8; stroke-width: 1.5; opacity: 1;"></path></g><g class="mark-text role-legend-label" style="pointer-events: none;"><text text-anchor="start" transform="translate(16,9)" style="font-family: sans-serif; font-size: 10px; fill: #000; opacity: 1;">GFortran</text></g></g><path class="foreground" d="" style="pointer-events: none; display: none; fill: none;"></path></g><g transform="translate(0,26)"><path class="background" d="M0,0h101v11h-101Z" style="pointer-events: none; fill: none; opacity: 1;"></path><g><g class="mark-symbol role-legend-symbol" style="pointer-events: none;"><path transform="translate(6,6)" d="M-5,0L5,0" style="fill: none; stroke: #ff7f0e; stroke-width: 1.5; opacity: 1;"></path></g><g class="mark-text role-legend-label" style="pointer-events: none;"><text text-anchor="start" transform="translate(16,9)" style="font-family: sans-serif; font-size: 10px; fill: #000; opacity: 1;">Julia</text></g></g><path class="foreground" d="" style="pointer-events: none; display: none; fill: none;"></path></g><g transform="translate(0,39)"><path class="background" d="M0,0h101v11h-101Z" style="pointer-events: none; fill: none; opacity: 1;"></path><g><g class="mark-symbol role-legend-symbol" style="pointer-events: none;"><path transform="translate(6,6)" d="M-5,0L5,0" style="fill: none; stroke: #ffbb78; stroke-width: 1.5; opacity: 1;"></path></g><g class="mark-text role-legend-label" style="pointer-events: none;"><text text-anchor="start" transform="translate(16,9)" style="font-family: sans-serif; font-size: 10px; fill: #000; opacity: 1;">LoopVectorization</text></g></g><path class="foreground" d="" style="pointer-events: none; display: none; fill: none;"></path></g><g transform="translate(0,52)"><path class="background" d="M0,0h101v11h-101Z" style="pointer-events: none; fill: none; opacity: 1;"></path><g><g class="mark-symbol role-legend-symbol" style="pointer-events: none;"><path transform="translate(6,6)" d="M-5,0L5,0" style="fill: none; stroke: #2ca02c; stroke-width: 1.5; opacity: 1;"></path></g><g class="mark-text role-legend-label" style="pointer-events: none;"><text text-anchor="start" transform="translate(16,9)" style="font-family: sans-serif; font-size: 10px; fill: #000; opacity: 1;">icc</text></g></g><path class="foreground" d="" style="pointer-events: none; display: none; fill: none;"></path></g><g transform="translate(0,65)"><path class="background" d="M0,0h101v11h-101Z" style="pointer-events: none; fill: none; opacity: 1;"></path><g><g class="mark-symbol role-legend-symbol" style="pointer-events: none;"><path transform="translate(6,6)" d="M-5,0L5,0" style="fill: none; stroke: #98df8a; stroke-width: 1.5; opacity: 1;"></path></g><g class="mark-text role-legend-label" style="pointer-events: none;"><text text-anchor="start" transform="translate(16,9)" style="font-family: sans-serif; font-size: 10px; fill: #000; opacity: 1;">ifort</text></g></g><path class="foreground" d="" style="pointer-events: none; display: none; fill: none;"></path></g></g></g><path class="foreground" d="" style="pointer-events: none; display: none; fill: none;"></path></g></g><g class="mark-text role-legend-title" style="pointer-events: none;"><text text-anchor="start" transform="translate(0,9)" style="font-family: sans-serif; font-size: 11px; font-weight: bold; fill: #000; opacity: 1;">Method</text></g></g><path class="foreground" d="" style="pointer-events: none; display: none; fill: none;"></path></g></g></g><path class="foreground" d="" style="display: none; fill: none;"></path></g></g></g></svg>
