<?xml version="1.0" encoding="utf-8"?>
<!DOCTYPE svg PUBLIC "-//W3C//DTD SVG 1.1//EN" "http://www.w3.org/Graphics/SVG/1.1/DTD/svg11.dtd">
<svg class="marks" width="1066" height="647" viewBox="0 0 1066 647" version="1.1" xmlns="http://www.w3.org/2000/svg" xmlns:xlink="http://www.w3.org/1999/xlink"><rect width="1066" height="647" style="fill: white;"></rect><g transform="translate(42,10)"><g class="mark-group role-frame root"><g transform="translate(0,0)"><path class="background" d="M0.5,0.5h900v600h-900Z" style="fill: none; stroke: #ddd;"></path><g><g class="mark-group role-axis"><g transform="translate(0.5,600.5)"><path class="background" d="M0,0h0v0h0Z" style="pointer-events: none; fill: none;"></path><g><g class="mark-rule role-axis-grid" style="pointer-events: none;"><line transform="translate(0,-600)" x2="0" y2="600" style="fill: none; stroke: #ddd; stroke-width: 1; opacity: 1;"></line><line transform="translate(35,-600)" x2="0" y2="600" style="fill: none; stroke: #ddd; stroke-width: 1; opacity: 1;"></line><line transform="translate(69,-600)" x2="0" y2="600" style="fill: none; stroke: #ddd; stroke-width: 1; opacity: 1;"></line><line transform="translate(104,-600)" x2="0" y2="600" style="fill: none; stroke: #ddd; stroke-width: 1; opacity: 1;"></line><line transform="translate(138,-600)" x2="0" y2="600" style="fill: none; stroke: #ddd; stroke-width: 1; opacity: 1;"></line><line transform="translate(173,-600)" x2="0" y2="600" style="fill: none; stroke: #ddd; stroke-width: 1; opacity: 1;"></line><line transform="translate(208,-600)" x2="0" y2="600" style="fill: none; stroke: #ddd; stroke-width: 1; opacity: 1;"></line><line transform="translate(242,-600)" x2="0" y2="600" style="fill: none; stroke: #ddd; stroke-width: 1; opacity: 1;"></line><line transform="translate(277,-600)" x2="0" y2="600" style="fill: none; stroke: #ddd; stroke-width: 1; opacity: 1;"></line><line transform="translate(312,-600)" x2="0" y2="600" style="fill: none; stroke: #ddd; stroke-width: 1; opacity: 1;"></line><line transform="translate(346,-600)" x2="0" y2="600" style="fill: none; stroke: #ddd; stroke-width: 1; opacity: 1;"></line><line transform="translate(381,-600)" x2="0" y2="600" style="fill: none; stroke: #ddd; stroke-width: 1; opacity: 1;"></line><line transform="translate(415,-600)" x2="0" y2="600" style="fill: none; stroke: #ddd; stroke-width: 1; opacity: 1;"></line><line transform="translate(450,-600)" x2="0" y2="600" style="fill: none; stroke: #ddd; stroke-width: 1; opacity: 1;"></line><line transform="translate(485,-600)" x2="0" y2="600" style="fill: none; stroke: #ddd; stroke-width: 1; opacity: 1;"></line><line transform="translate(519,-600)" x2="0" y2="600" style="fill: none; stroke: #ddd; stroke-width: 1; opacity: 1;"></line><line transform="translate(554,-600)" x2="0" y2="600" style="fill: none; stroke: #ddd; stroke-width: 1; opacity: 1;"></line><line transform="translate(588,-600)" x2="0" y2="600" style="fill: none; stroke: #ddd; stroke-width: 1; opacity: 1;"></line><line transform="translate(623,-600)" x2="0" y2="600" style="fill: none; stroke: #ddd; stroke-width: 1; opacity: 1;"></line><line transform="translate(658,-600)" x2="0" y2="600" style="fill: none; stroke: #ddd; stroke-width: 1; opacity: 1;"></line><line transform="translate(692,-600)" x2="0" y2="600" style="fill: none; stroke: #ddd; stroke-width: 1; opacity: 1;"></line><line transform="translate(727,-600)" x2="0" y2="600" style="fill: none; stroke: #ddd; stroke-width: 1; opacity: 1;"></line><line transform="translate(762,-600)" x2="0" y2="600" style="fill: none; stroke: #ddd; stroke-width: 1; opacity: 1;"></line><line transform="translate(796,-600)" x2="0" y2="600" style="fill: none; stroke: #ddd; stroke-width: 1; opacity: 1;"></line><line transform="translate(831,-600)" x2="0" y2="600" style="fill: none; stroke: #ddd; stroke-width: 1; opacity: 1;"></line><line transform="translate(865,-600)" x2="0" y2="600" style="fill: none; stroke: #ddd; stroke-width: 1; opacity: 1;"></line><line transform="translate(900,-600)" x2="0" y2="600" style="fill: none; stroke: #ddd; stroke-width: 1; opacity: 1;"></line></g></g><path class="foreground" d="" style="pointer-events: none; display: none; fill: none;"></path></g></g><g class="mark-group role-axis"><g transform="translate(0.5,0.5)"><path class="background" d="M0,0h0v0h0Z" style="pointer-events: none; fill: none;"></path><g><g class="mark-rule role-axis-grid" style="pointer-events: none;"><line transform="translate(0,600)" x2="900" y2="0" style="fill: none; stroke: #ddd; stroke-width: 1; opacity: 1;"></line><line transform="translate(0,554)" x2="900" y2="0" style="fill: none; stroke: #ddd; stroke-width: 1; opacity: 1;"></line><line transform="translate(0,508)" x2="900" y2="0" style="fill: none; stroke: #ddd; stroke-width: 1; opacity: 1;"></line><line transform="translate(0,462)" x2="900" y2="0" style="fill: none; stroke: #ddd; stroke-width: 1; opacity: 1;"></line><line transform="translate(0,415)" x2="900" y2="0" style="fill: none; stroke: #ddd; stroke-width: 1; opacity: 1;"></line><line transform="translate(0,369)" x2="900" y2="0" style="fill: none; stroke: #ddd; stroke-width: 1; opacity: 1;"></line><line transform="translate(0,323)" x2="900" y2="0" style="fill: none; stroke: #ddd; stroke-width: 1; opacity: 1;"></line><line transform="translate(0,277)" x2="900" y2="0" style="fill: none; stroke: #ddd; stroke-width: 1; opacity: 1;"></line><line transform="translate(0,231)" x2="900" y2="0" style="fill: none; stroke: #ddd; stroke-width: 1; opacity: 1;"></line><line transform="translate(0,185)" x2="900" y2="0" style="fill: none; stroke: #ddd; stroke-width: 1; opacity: 1;"></line><line transform="translate(0,138)" x2="900" y2="0" style="fill: none; stroke: #ddd; stroke-width: 1; opacity: 1;"></line><line transform="translate(0,92)" x2="900" y2="0" style="fill: none; stroke: #ddd; stroke-width: 1; opacity: 1;"></line><line transform="translate(0,46)" x2="900" y2="0" style="fill: none; stroke: #ddd; stroke-width: 1; opacity: 1;"></line><line transform="translate(0,0)" x2="900" y2="0" style="fill: none; stroke: #ddd; stroke-width: 1; opacity: 1;"></line></g></g><path class="foreground" d="" style="pointer-events: none; display: none; fill: none;"></path></g></g><g class="mark-group role-axis"><g transform="translate(0.5,600.5)"><path class="background" d="M0,0h0v0h0Z" style="pointer-events: none; fill: none;"></path><g><g class="mark-rule role-axis-tick" style="pointer-events: none;"><line transform="translate(0,0)" x2="0" y2="5" style="fill: none; stroke: #888; stroke-width: 1; opacity: 1;"></line><line transform="translate(35,0)" x2="0" y2="5" style="fill: none; stroke: #888; stroke-width: 1; opacity: 1;"></line><line transform="translate(69,0)" x2="0" y2="5" style="fill: none; stroke: #888; stroke-width: 1; opacity: 1;"></line><line transform="translate(104,0)" x2="0" y2="5" style="fill: none; stroke: #888; stroke-width: 1; opacity: 1;"></line><line transform="translate(138,0)" x2="0" y2="5" style="fill: none; stroke: #888; stroke-width: 1; opacity: 1;"></line><line transform="translate(173,0)" x2="0" y2="5" style="fill: none; stroke: #888; stroke-width: 1; opacity: 1;"></line><line transform="translate(208,0)" x2="0" y2="5" style="fill: none; stroke: #888; stroke-width: 1; opacity: 1;"></line><line transform="translate(242,0)" x2="0" y2="5" style="fill: none; stroke: #888; stroke-width: 1; opacity: 1;"></line><line transform="translate(277,0)" x2="0" y2="5" style="fill: none; stroke: #888; stroke-width: 1; opacity: 1;"></line><line transform="translate(312,0)" x2="0" y2="5" style="fill: none; stroke: #888; stroke-width: 1; opacity: 1;"></line><line transform="translate(346,0)" x2="0" y2="5" style="fill: none; stroke: #888; stroke-width: 1; opacity: 1;"></line><line transform="translate(381,0)" x2="0" y2="5" style="fill: none; stroke: #888; stroke-width: 1; opacity: 1;"></line><line transform="translate(415,0)" x2="0" y2="5" style="fill: none; stroke: #888; stroke-width: 1; opacity: 1;"></line><line transform="translate(450,0)" x2="0" y2="5" style="fill: none; stroke: #888; stroke-width: 1; opacity: 1;"></line><line transform="translate(485,0)" x2="0" y2="5" style="fill: none; stroke: #888; stroke-width: 1; opacity: 1;"></line><line transform="translate(519,0)" x2="0" y2="5" style="fill: none; stroke: #888; stroke-width: 1; opacity: 1;"></line><line transform="translate(554,0)" x2="0" y2="5" style="fill: none; stroke: #888; stroke-width: 1; opacity: 1;"></line><line transform="translate(588,0)" x2="0" y2="5" style="fill: none; stroke: #888; stroke-width: 1; opacity: 1;"></line><line transform="translate(623,0)" x2="0" y2="5" style="fill: none; stroke: #888; stroke-width: 1; opacity: 1;"></line><line transform="translate(658,0)" x2="0" y2="5" style="fill: none; stroke: #888; stroke-width: 1; opacity: 1;"></line><line transform="translate(692,0)" x2="0" y2="5" style="fill: none; stroke: #888; stroke-width: 1; opacity: 1;"></line><line transform="translate(727,0)" x2="0" y2="5" style="fill: none; stroke: #888; stroke-width: 1; opacity: 1;"></line><line transform="translate(762,0)" x2="0" y2="5" style="fill: none; stroke: #888; stroke-width: 1; opacity: 1;"></line><line transform="translate(796,0)" x2="0" y2="5" style="fill: none; stroke: #888; stroke-width: 1; opacity: 1;"></line><line transform="translate(831,0)" x2="0" y2="5" style="fill: none; stroke: #888; stroke-width: 1; opacity: 1;"></line><line transform="translate(865,0)" x2="0" y2="5" style="fill: none; stroke: #888; stroke-width: 1; opacity: 1;"></line><line transform="translate(900,0)" x2="0" y2="5" style="fill: none; stroke: #888; stroke-width: 1; opacity: 1;"></line></g><g class="mark-text role-axis-label" style="pointer-events: none;"><text text-anchor="start" transform="translate(0,15)" style="font-family: sans-serif; font-size: 10px; fill: #000; opacity: 1;">0</text><text text-anchor="middle" transform="translate(34.61538461538462,15)" style="font-family: sans-serif; font-size: 10px; fill: #000; opacity: 1;">10</text><text text-anchor="middle" transform="translate(69.23076923076924,15)" style="font-family: sans-serif; font-size: 10px; fill: #000; opacity: 1;">20</text><text text-anchor="middle" transform="translate(103.84615384615385,15)" style="font-family: sans-serif; font-size: 10px; fill: #000; opacity: 1;">30</text><text text-anchor="middle" transform="translate(138.46153846153848,15)" style="font-family: sans-serif; font-size: 10px; fill: #000; opacity: 1;">40</text><text text-anchor="middle" transform="translate(173.0769230769231,15)" style="font-family: sans-serif; font-size: 10px; fill: #000; opacity: 1;">50</text><text text-anchor="middle" transform="translate(207.6923076923077,15)" style="font-family: sans-serif; font-size: 10px; fill: #000; opacity: 1;">60</text><text text-anchor="middle" transform="translate(242.3076923076923,15)" style="font-family: sans-serif; font-size: 10px; fill: #000; opacity: 1;">70</text><text text-anchor="middle" transform="translate(276.92307692307696,15)" style="font-family: sans-serif; font-size: 10px; fill: #000; opacity: 1;">80</text><text text-anchor="middle" transform="translate(311.53846153846155,15)" style="font-family: sans-serif; font-size: 10px; fill: #000; opacity: 1;">90</text><text text-anchor="middle" transform="translate(346.1538461538462,15)" style="font-family: sans-serif; font-size: 10px; fill: #000; opacity: 1;">100</text><text text-anchor="middle" transform="translate(380.7692307692308,15)" style="font-family: sans-serif; font-size: 10px; fill: #000; opacity: 1;">110</text><text text-anchor="middle" transform="translate(415.3846153846154,15)" style="font-family: sans-serif; font-size: 10px; fill: #000; opacity: 1;">120</text><text text-anchor="middle" transform="translate(450,15)" style="font-family: sans-serif; font-size: 10px; fill: #000; opacity: 1;">130</text><text text-anchor="middle" transform="translate(484.6153846153846,15)" style="font-family: sans-serif; font-size: 10px; fill: #000; opacity: 1;">140</text><text text-anchor="middle" transform="translate(519.2307692307692,15)" style="font-family: sans-serif; font-size: 10px; fill: #000; opacity: 1;">150</text><text text-anchor="middle" transform="translate(553.8461538461539,15)" style="font-family: sans-serif; font-size: 10px; fill: #000; opacity: 1;">160</text><text text-anchor="middle" transform="translate(588.4615384615385,15)" style="font-family: sans-serif; font-size: 10px; fill: #000; opacity: 1;">170</text><text text-anchor="middle" transform="translate(623.0769230769231,15)" style="font-family: sans-serif; font-size: 10px; fill: #000; opacity: 1;">180</text><text text-anchor="middle" transform="translate(657.6923076923076,15)" style="font-family: sans-serif; font-size: 10px; fill: #000; opacity: 1;">190</text><text text-anchor="middle" transform="translate(692.3076923076924,15)" style="font-family: sans-serif; font-size: 10px; fill: #000; opacity: 1;">200</text><text text-anchor="middle" transform="translate(726.9230769230769,15)" style="font-family: sans-serif; font-size: 10px; fill: #000; opacity: 1;">210</text><text text-anchor="middle" transform="translate(761.5384615384615,15)" style="font-family: sans-serif; font-size: 10px; fill: #000; opacity: 1;">220</text><text text-anchor="middle" transform="translate(796.1538461538461,15)" style="font-family: sans-serif; font-size: 10px; fill: #000; opacity: 1;">230</text><text text-anchor="middle" transform="translate(830.7692307692308,15)" style="font-family: sans-serif; font-size: 10px; fill: #000; opacity: 1;">240</text><text text-anchor="middle" transform="translate(865.3846153846154,15)" style="font-family: sans-serif; font-size: 10px; fill: #000; opacity: 1;">250</text><text text-anchor="end" transform="translate(900,15)" style="font-family: sans-serif; font-size: 10px; fill: #000; opacity: 1;">260</text></g><g class="mark-rule role-axis-domain" style="pointer-events: none;"><line transform="translate(0,0)" x2="900" y2="0" style="fill: none; stroke: #888; stroke-width: 1; opacity: 1;"></line></g><g class="mark-text role-axis-title" style="pointer-events: none;"><text text-anchor="middle" transform="translate(450,30)" style="font-family: sans-serif; font-size: 11px; font-weight: bold; fill: #000; opacity: 1;">Size</text></g></g><path class="foreground" d="" style="pointer-events: none; display: none; fill: none;"></path></g></g><g class="mark-group role-axis"><g transform="translate(0.5,0.5)"><path class="background" d="M0,0h0v0h0Z" style="pointer-events: none; fill: none;"></path><g><g class="mark-rule role-axis-tick" style="pointer-events: none;"><line transform="translate(0,600)" x2="-5" y2="0" style="fill: none; stroke: #888; stroke-width: 1; opacity: 1;"></line><line transform="translate(0,554)" x2="-5" y2="0" style="fill: none; stroke: #888; stroke-width: 1; opacity: 1;"></line><line transform="translate(0,508)" x2="-5" y2="0" style="fill: none; stroke: #888; stroke-width: 1; opacity: 1;"></line><line transform="translate(0,462)" x2="-5" y2="0" style="fill: none; stroke: #888; stroke-width: 1; opacity: 1;"></line><line transform="translate(0,415)" x2="-5" y2="0" style="fill: none; stroke: #888; stroke-width: 1; opacity: 1;"></line><line transform="translate(0,369)" x2="-5" y2="0" style="fill: none; stroke: #888; stroke-width: 1; opacity: 1;"></line><line transform="translate(0,323)" x2="-5" y2="0" style="fill: none; stroke: #888; stroke-width: 1; opacity: 1;"></line><line transform="translate(0,277)" x2="-5" y2="0" style="fill: none; stroke: #888; stroke-width: 1; opacity: 1;"></line><line transform="translate(0,231)" x2="-5" y2="0" style="fill: none; stroke: #888; stroke-width: 1; opacity: 1;"></line><line transform="translate(0,185)" x2="-5" y2="0" style="fill: none; stroke: #888; stroke-width: 1; opacity: 1;"></line><line transform="translate(0,138)" x2="-5" y2="0" style="fill: none; stroke: #888; stroke-width: 1; opacity: 1;"></line><line transform="translate(0,92)" x2="-5" y2="0" style="fill: none; stroke: #888; stroke-width: 1; opacity: 1;"></line><line transform="translate(0,46)" x2="-5" y2="0" style="fill: none; stroke: #888; stroke-width: 1; opacity: 1;"></line><line transform="translate(0,0)" x2="-5" y2="0" style="fill: none; stroke: #888; stroke-width: 1; opacity: 1;"></line></g><g class="mark-text role-axis-label" style="pointer-events: none;"><text text-anchor="end" transform="translate(-7,603)" style="font-family: sans-serif; font-size: 10px; fill: #000; opacity: 1;">0.0</text><text text-anchor="end" transform="translate(-7,556.8461538461539)" style="font-family: sans-serif; font-size: 10px; fill: #000; opacity: 1;">0.1</text><text text-anchor="end" transform="translate(-7,510.6923076923077)" style="font-family: sans-serif; font-size: 10px; fill: #000; opacity: 1;">0.2</text><text text-anchor="end" transform="translate(-7,464.53846153846155)" style="font-family: sans-serif; font-size: 10px; fill: #000; opacity: 1;">0.3</text><text text-anchor="end" transform="translate(-7,418.38461538461536)" style="font-family: sans-serif; font-size: 10px; fill: #000; opacity: 1;">0.4</text><text text-anchor="end" transform="translate(-7,372.2307692307692)" style="font-family: sans-serif; font-size: 10px; fill: #000; opacity: 1;">0.5</text><text text-anchor="end" transform="translate(-7,326.07692307692315)" style="font-family: sans-serif; font-size: 10px; fill: #000; opacity: 1;">0.6</text><text text-anchor="end" transform="translate(-7,279.92307692307696)" style="font-family: sans-serif; font-size: 10px; fill: #000; opacity: 1;">0.7</text><text text-anchor="end" transform="translate(-7,233.76923076923075)" style="font-family: sans-serif; font-size: 10px; fill: #000; opacity: 1;">0.8</text><text text-anchor="end" transform="translate(-7,187.6153846153846)" style="font-family: sans-serif; font-size: 10px; fill: #000; opacity: 1;">0.9</text><text text-anchor="end" transform="translate(-7,141.4615384615385)" style="font-family: sans-serif; font-size: 10px; fill: #000; opacity: 1;">1.0</text><text text-anchor="end" transform="translate(-7,95.3076923076923)" style="font-family: sans-serif; font-size: 10px; fill: #000; opacity: 1;">1.1</text><text text-anchor="end" transform="translate(-7,49.15384615384619)" style="font-family: sans-serif; font-size: 10px; fill: #000; opacity: 1;">1.2</text><text text-anchor="end" transform="translate(-7,3)" style="font-family: sans-serif; font-size: 10px; fill: #000; opacity: 1;">1.3</text></g><g class="mark-rule role-axis-domain" style="pointer-events: none;"><line transform="translate(0,600)" x2="0" y2="-600" style="fill: none; stroke: #888; stroke-width: 1; opacity: 1;"></line></g><g class="mark-text role-axis-title" style="pointer-events: none;"><text text-anchor="middle" transform="translate(-26,300) rotate(-90) translate(0,-2)" style="font-family: sans-serif; font-size: 11px; font-weight: bold; fill: #000; opacity: 1;">GFLOPS</text></g></g><path class="foreground" d="" style="pointer-events: none; display: none; fill: none;"></path></g></g><g class="mark-group role-scope pathgroup"><g transform="translate(0,0)"><path class="background" d="M0,0h900v600h-900Z" style="fill: none;"></path><g><g class="mark-line role-mark marks"><path d="M6.923076923076923,549.0754929001941L10.384615384615385,543.3318161128811L13.846153846153847,540.8821583364929L17.30769230769231,549.2797970508091L20.76923076923077,538.0373271208393L24.230769230769234,537.1175462281752L27.692307692307693,538.9444287568424L31.153846153846157,537.6553721620257L34.61538461538462,535.550041356493L38.07692307692308,544.9200666945136L41.53846153846154,533.7694406143191L45,535.8912420650526L48.46153846153847,534.4549026155714L51.92307692307693,534.0733208087006L55.38461538461539,539.6238746558734L58.84615384615385,536.9442799906376L62.307692307692314,535.4188776417224L65.76923076923077,534.9125046348098L69.23076923076924,535.3084942842502L72.6923076923077,533.5641385675035L76.15384615384616,533.4468602169784L79.61538461538461,534.3151386529107L83.07692307692308,534.7459243537705L86.53846153846155,534.0617416871023L90,534.0055878480363L93.46153846153847,534.1586880559285L96.92307692307693,534.1039015230544L100.38461538461539,532.6891666523392L103.84615384615385,532.5540946817881L107.3076923076923,533.8176039154191L110.76923076923077,533.9478614635191L114.23076923076923,533.4287553194555L117.6923076923077,533.3216947517944L121.15384615384615,533.6071749828882L124.61538461538463,533.9807197278118L128.07692307692307,533.5363848749676L131.53846153846155,544.4419113453522L135,532.1056134901265L138.46153846153848,533.4588837954087L141.9230769230769,531.9400288593517L145.3846153846154,533.424057658096L148.84615384615384,532.8319157743465L152.30769230769232,532.0594829520772L155.76923076923077,534.1096424291651L159.23076923076923,533.1512305394459L162.69230769230768,533.1054824664076L166.15384615384616,533.4046736181967L169.6153846153846,533.0607356394974L173.0769230769231,533.0330845498645L176.53846153846155,531.5798424125617L180,532.9510835583818L183.46153846153845,532.9501388850691L186.92307692307693,531.3643323642923L190.3846153846154,532.7961282903143L193.84615384615387,532.8232967483198L197.3076923076923,533.0010735888417L200.76923076923077,532.6623442260761L204.23076923076923,534.2650895613194L207.6923076923077,532.6410645043608L211.15384615384616,533.0319338208318L214.6153846153846,532.8879017270297L218.07692307692307,532.8306031422869L221.53846153846155,532.541921746074L225,533.1194055058268L228.46153846153845,532.9093512558212L231.9230769230769,532.9283888551059L235.3846153846154,532.6547079114966L238.84615384615384,531.3826467708137L242.3076923076923,532.7734679286758L245.76923076923075,531.2526224058355L249.23076923076925,532.6102898606662L252.6923076923077,531.1936238480585L256.15384615384613,532.7302829124462L259.6153846153846,532.5290968269933L263.0769230769231,532.7171247030649L266.53846153846155,531.2297458638923L270,532.5390563358055L273.46153846153845,532.5183042574347L276.92307692307696,532.6635193963723L280.3846153846154,532.4822480063832L283.8461538461538,531.0546472591533L287.30769230769226,532.3575353670168L290.7692307692308,532.4629297404166L294.2307692307692,532.589998017353L297.6923076923077,532.4424582565964L301.15384615384613,532.4053825102418L304.61538461538464,531.2216155590341L308.0769230769231,532.4108480358773L311.53846153846155,531.0893616085016L315,531.0884288848612L318.46153846153845,533.0655551345207L321.9230769230769,532.3671985530344L325.38461538461536,532.5037848749189L328.8461538461538,532.3877160891632L332.3076923076923,532.332348302181L335.7692307692308,532.7522607762943L339.2307692307692,532.3170181832579L342.6923076923077,532.4454658645631L346.1538461538462,532.308648653495L349.61538461538464,532.6687252664161L353.0769230769231,532.3051640225017L356.53846153846155,532.2894316366127L360,532.5573979591837L363.46153846153845,532.5647127446023L366.9230769230769,532.5441960416493L370.38461538461536,530.9855629462293L373.84615384615387,531.0159257852873L377.3076923076923,532.3952187914001L380.7692307692308,532.3733967077901L384.2307692307692,532.337941020311L387.69230769230774,532.3884671478254L391.1538461538462,532.2605344496691L394.6153846153846,531.0440937083962L398.07692307692304,532.8226107822119L401.53846153846155,532.3285667938912L405,532.4604821970302L408.46153846153845,532.3246668123224L411.9230769230769,532.2197016566989L415.3846153846154,532.4313001276968L418.84615384615387,532.2203353175377L422.3076923076923,532.2084128248347L425.7692307692308,532.3889149646973L429.2307692307692,532.2677939534993L432.6923076923077,532.5600215807931L436.15384615384613,532.2738234397419L439.6153846153846,536.548870188365L443.0769230769231,532.3343759243293L446.53846153846155,531.1602259083026L450,532.3623573973035L453.46153846153845,532.4845664603882L456.9230769230769,532.5414771356086L460.38461538461536,530.8163718692259L463.8461538461538,532.2411499803964L467.3076923076923,532.5933183898635L470.7692307692308,532.7704353557508L474.2307692307692,532.3683421781061L477.6923076923077,532.811295492352L481.15384615384613,532.4387151310228L484.6153846153846,532.6954944586686L488.07692307692304,532.363720091333L491.5384615384615,532.7494515830913L495.00000000000006,533.1340864191277L498.4615384615385,533.0699511968394L501.92307692307696,533.1827171081685L505.3846153846154,533.0837980291803L508.8461538461538,531.4892922890499L512.3076923076923,532.5622546078662L515.7692307692307,532.7111244919464L519.2307692307692,532.8443406433512L522.6923076923077,530.4329130641768L526.1538461538462,532.937724735832L529.6153846153846,533.4695829890856L533.0769230769231,533.0347436622168L536.5384615384615,533.2850307391014L540,533.1227939810515L543.4615384615385,533.4054420903057L546.9230769230769,533.024359916351L550.3846153846155,544.7488214240209L553.8461538461539,533.6393297572306L557.3076923076924,530.9857041815804L560.7692307692308,533.82668309653L564.2307692307692,533.6530829607821L567.6923076923076,533.5857614351955L571.1538461538461,533.2978486871804L574.6153846153845,533.5627951652925L578.0769230769231,532.666267950622L581.5384615384615,533.4776410960351L585,533.7523356548327L588.4615384615385,536.5351949676143L591.9230769230769,533.9168743840936L595.3846153846154,533.7025092829335L598.8461538461538,533.4670828712992L602.3076923076923,533.6080586080586L605.7692307692308,534.7002742588481L609.2307692307693,533.7054033862978L612.6923076923077,534.076575458112L616.1538461538462,533.5808503889998L619.6153846153846,533.9658024015789L623.0769230769231,534.2225470491504L626.5384615384615,534.2320409868828L630,534.3185550082102L633.4615384615385,534.3937094441989L636.9230769230769,535.1781719539906L640.3846153846154,534.8954514795155L643.8461538461538,534.8069913075989L647.3076923076923,535.2724671458735L650.7692307692307,535.1984833687596L654.2307692307692,535.7652656621729L657.6923076923076,535.5677386537049L661.1538461538462,543.4802550786394L664.6153846153846,535.7580218824238L668.0769230769231,536.4915705996556L671.5384615384615,540.3196283820159L675,537.1201006078389L678.4615384615385,542.04526974083L681.9230769230769,536.8545892610064L685.3846153846154,534.846274501201L688.8461538461538,537.2849751818683L692.3076923076924,537.697291908955L695.7692307692308,537.7972168638656L699.2307692307693,537.9784664510582L702.6923076923077,538.132390588809L706.1538461538462,543.778679074553L709.6153846153846,538.0951422301854L713.0769230769231,538.4814473782445L716.5384615384615,543.114938053908L720,539.1596425629001L723.4615384615385,538.4379740496914L726.9230769230769,538.7260861530681L730.3846153846154,535.8044723898382L733.8461538461538,538.5272640283007L737.3076923076923,538.7414679039804L740.7692307692307,538.3770708951643L744.2307692307692,538.5415773375639L747.6923076923077,538.5942053019355L751.1538461538462,538.2223993622957L754.6153846153846,540.2415010896332L758.0769230769231,539.077256900173L761.5384615384615,538.9168853164522L765,538.3574061763461L768.4615384615385,535.359574499061L771.9230769230769,545.5029773784406L775.3846153846155,538.5931246230605L778.8461538461539,538.715754590644L782.3076923076924,538.8619117826081L785.7692307692308,538.8530227797182L789.2307692307692,537.0064236870583L792.6923076923076,538.7397509463237L796.1538461538461,538.9990540433018L799.6153846153845,538.4899413746123L803.0769230769231,540.8055044076935L806.5384615384615,539.5035657411895L810,538.9589103035099L813.4615384615385,538.8776903569803L816.9230769230769,539.4770923359021L820.3846153846154,539.3251523271492L823.8461538461538,543.7839540193685L827.3076923076923,544.541130061492L830.7692307692308,543.2679996060277L834.2307692307693,539.3308774785812L837.6923076923077,537.2021209421412L841.1538461538462,539.5252162611818L844.6153846153846,541.0298033118371L848.0769230769231,536.2444051212657L851.5384615384615,540.1357895505317L855,539.6442185514612L858.4615384615385,540.459041582637L861.9230769230769,539.6792583859558L865.3846153846154,538.1779814698803L868.8461538461538,540.4910084521734L872.3076923076923,539.9578275217117L875.7692307692307,539.3658579451496L879.2307692307692,539.0819116447884L882.6923076923076,545.490388573962L886.1538461538462,539.2275248668624" style="fill: none; stroke: #ffbb78; stroke-width: 2;"></path></g></g><path class="foreground" d="" style="display: none; fill: none;"></path></g><g transform="translate(0,0)"><path class="background" d="M0,0h900v600h-900Z" style="fill: none;"></path><g><g class="mark-line role-mark marks"><path d="M6.923076923076923,528.7141429998574L10.384615384615385,527.1255060728745L13.846153846153847,525.9247781988788L17.30769230769231,526.8450646177397L20.76923076923077,525.5090589761668L24.230769230769234,522.7760505465851L27.692307692307693,529.8512971319038L31.153846153846157,525.1134164748793L34.61538461538462,524.9300763070597L38.07692307692308,524.7709562380588L41.53846153846154,524.9310739564355L45,523.821475775336L48.46153846153847,524.682846445578L51.92307692307693,524.825393712335L55.38461538461539,530.5548505000254L58.84615384615385,528.6815734689013L62.307692307692314,527.6606320693452L65.76923076923077,527.5528203630154L69.23076923076924,527.4418150132738L72.6923076923077,527.2867093295274L76.15384615384616,523.8794233289645L79.61538461538461,527.0120280088369L83.07692307692308,526.9215569371228L86.53846153846155,527.0917611858275L90,526.7818472092692L93.46153846153847,526.6719697397186L96.92307692307693,526.572846323445L100.38461538461539,526.4947123555982L103.84615384615385,523.0264688038768L107.3076923076923,526.3484689772434L110.76923076923077,526.3241055737387L114.23076923076923,526.24798924079L117.6923076923077,526.5495659196447L121.15384615384615,526.1615176844764L124.61538461538463,526.0321137888124L128.07692307692307,526.2290008841733L131.53846153846155,523.0601063489875L135,522.4667199407488L138.46153846153848,525.8857734194057L141.9230769230769,525.8926219606348L145.3846153846154,539.2699001132736L148.84615384615384,527.2439629356038L152.30769230769232,525.790207109099L155.76923076923077,527.2212675629232L159.23076923076923,525.8692947510895L162.69230769230768,525.6979325997928L166.15384615384616,525.5585065616193L169.6153846153846,525.6102238879234L173.0769230769231,525.8261380956548L176.53846153846155,524.4166087531713L180,525.5409162335308L183.46153846153845,525.5051611131508L186.92307692307693,525.4785028564087L190.3846153846154,525.4409647694566L193.84615384615387,523.4309383949751L197.3076923076923,525.413162564617L200.76923076923077,525.4022338499103L204.23076923076923,526.6606241098019L207.6923076923077,525.364497211736L211.15384615384616,525.3398076698088L214.6153846153846,525.4721645699668L218.07692307692307,522.1233017125408L221.53846153846155,525.5808930794203L225,521.6618140512593L228.46153846153845,525.2752644142316L231.9230769230769,525.5240607553775L235.3846153846154,525.3711588096446L238.84615384615384,525.229658375792L242.3076923076923,525.2362866103359L245.76923076923075,521.5753364158475L249.23076923076925,525.2418130538408L252.6923076923077,525.2091968608769L256.15384615384613,525.4026532257033L259.6153846153846,525.276892732514L263.0769230769231,525.2074919706172L266.53846153846155,525.3033376420793L270,525.1567231011984L273.46153846153845,525.1240034963193L276.92307692307696,521.4936441213814L280.3846153846154,525.1198068720407L283.8461538461538,521.4523002805867L287.30769230769226,525.1063883116587L290.7692307692308,525.0858739400752L294.2307692307692,525.19639689451L297.6923076923077,521.390720352539L301.15384615384613,525.0572564748243L304.61538461538464,521.5157637765426L308.0769230769231,521.5961232251601L311.53846153846155,521.5975155735149L315,521.324928639391L318.46153846153845,525.2945213187318L321.9230769230769,525.10561520859L325.38461538461536,525.1542697896623L328.8461538461538,522.2496985910783L332.3076923076923,524.9862713589799L335.7692307692308,525.0061351114418L339.2307692307692,525.0767762194569L342.6923076923077,525.0573695028553L346.1538461538462,524.9559008095274L349.61538461538464,524.9623667177083L353.0769230769231,521.2698890351702L356.53846153846155,521.2379465674359L360,524.9599805285378L363.46153846153845,524.960314509766L366.9230769230769,524.9483634489234L370.38461538461536,521.4308879411099L373.84615384615387,524.9351737166178L377.3076923076923,524.9374405566493L380.7692307692308,525.0925840626439L384.2307692307692,521.2201108484215L387.69230769230774,521.3745013663347L391.1538461538462,521.3180136639156L394.6153846153846,521.3854335302075L398.07692307692304,524.9514023882255L401.53846153846155,524.9056896685554L405,524.8918479428098L408.46153846153845,524.9320183707847L411.9230769230769,524.8927038626609L415.3846153846154,524.8825673994943L418.84615384615387,524.9404060641989L422.3076923076923,524.9214085099327L425.7692307692308,521.2827988338192L429.2307692307692,521.1590442557161L432.6923076923077,524.8533625073793L436.15384615384613,524.9070841310958L439.6153846153846,527.8817265598003L443.0769230769231,524.8252629293803L446.53846153846155,521.4067747309412L450,524.9391128441955L453.46153846153845,521.262772260225L456.9230769230769,524.9864460880906L460.38461538461536,524.8127801646737L463.8461538461538,524.8324936373552L467.3076923076923,525.1912702214462L470.7692307692308,525.2868965822996L474.2307692307692,525.0521049611455L477.6923076923077,524.8779245962642L481.15384615384613,525.1774014163633L484.6153846153846,525.1037326351134L488.07692307692304,525.0207299340248L491.5384615384615,525.1051261273789L495.00000000000006,525.2751234092659L498.4615384615385,525.1903109295372L501.92307692307696,525.2844285956869L505.3846153846154,525.3567873242042L508.8461538461538,525.3431008545299L512.3076923076923,521.1961937026704L515.7692307692307,525.1122365582147L519.2307692307692,525.172579907615L522.6923076923077,525.3140341052836L526.1538461538462,525.1623491461637L529.6153846153846,525.0566361205788L533.0769230769231,525.2674076121023L536.5384615384615,525.5899884711761L540,521.6988151794402L543.4615384615385,525.5961289035218L546.9230769230769,525.6076746512861L550.3846153846155,526.4951038762731L553.8461538461539,525.5986979772147L557.3076923076924,525.5705139879243L560.7692307692308,525.6619300365571L564.2307692307692,525.8079198907601L567.6923076923076,525.6387585300051L571.1538461538461,525.3224711473184L574.6153846153845,525.6450071667463L578.0769230769231,525.2517717269676L581.5384615384615,525.6724870221802L585,525.6788947117675L588.4615384615385,527.2965729600273L591.9230769230769,525.9285997906363L595.3846153846154,525.6489506559751L598.8461538461538,525.6345777720463L602.3076923076923,525.7441587538675L605.7692307692308,523.5501838436055L609.2307692307693,525.8978569323397L612.6923076923077,525.9496848329336L616.1538461538462,525.7399926296248L619.6153846153846,526.0447725222589L623.0769230769231,522.3144538274518L626.5384615384615,526.0917795820035L630,526.0693539869742L633.4615384615385,526.2086856006129L636.9230769230769,526.6766733525498L640.3846153846154,526.3290635162939L643.8461538461538,526.5330305124913L647.3076923076923,527.0618673982149L650.7692307692307,527.004937520627L654.2307692307692,527.0340700704566L657.6923076923076,527.1053136389795L661.1538461538462,534.4386091374043L664.6153846153846,527.3584846172763L668.0769230769231,527.6561982644985L671.5384615384615,527.6339921292641L675,528.3097020869842L678.4615384615385,532.7873256099722L681.9230769230769,524.980959634425L685.3846153846154,529.2086022274264L688.8461538461538,525.4253378969196L692.3076923076924,528.7749287749288L695.7692307692308,525.9682142133662L699.2307692307693,529.0211121197037L702.6923076923077,529.3048308365595L706.1538461538462,534.0104806883612L709.6153846153846,528.8499138100582L713.0769230769231,530.1572591809864L716.5384615384615,533.5430846282266L720,530.3944315545243L723.4615384615385,526.3258699598729L726.9230769230769,526.8228939803118L730.3846153846154,529.3905050865608L733.8461538461538,529.7082228116711L737.3076923076923,529.8203224531037L740.7692307692307,529.4303867038934L744.2307692307692,526.5990315624165L747.6923076923077,526.2085065193874L751.1538461538462,529.3746236839107L754.6153846153846,530.9244922316459L758.0769230769231,529.9293427542993L761.5384615384615,529.7360310438991L765,529.2649098474342L768.4615384615385,529.4293419233154L771.9230769230769,536.9730086202836L775.3846153846155,529.6176626151437L778.8461538461539,529.7006811222896L782.3076923076924,529.9713378263227L785.7692307692308,529.7793359455558L789.2307692307692,526.9535129593439L792.6923076923076,529.3642266308175L796.1538461538461,529.7831418482299L799.6153846153845,529.3797545105751L803.0769230769231,530.9804543786754L806.5384615384615,530.2060867481428L810,529.7971918876756L813.4615384615385,529.8301491482575L816.9230769230769,526.4232120216989L820.3846153846154,529.8996312582573L823.8461538461538,533.6677814938685L827.3076923076923,534.6943980180615L830.7692307692308,533.6194458145678L834.2307692307693,529.9201302729529L837.6923076923077,526.7158928598467L841.1538461538462,530.043758636573L844.6153846153846,531.0292842874911L848.0769230769231,526.735180071969L851.5384615384615,530.7058519753058L855,530.1770074110369L858.4615384615385,530.6377781714104L861.9230769230769,530.1506856360074L865.3846153846154,528.1316627937618L868.8461538461538,530.6932971306289L872.3076923076923,530.483717465966L875.7692307692307,529.9818727773396L879.2307692307692,530.0114810562571L882.6923076923076,537.5736977179719L886.1538461538462,529.8956650327244" style="fill: none; stroke: #ff7f0e; stroke-width: 2;"></path></g></g><path class="foreground" d="" style="display: none; fill: none;"></path></g><g transform="translate(0,0)"><path class="background" d="M0,0h900v600h-900Z" style="fill: none;"></path><g><g class="mark-line role-mark marks"><path d="M6.923076923076923,524.3516122925474L10.384615384615385,517.3932237059927L13.846153846153847,518.776074109025L17.30769230769231,514.6885332023778L20.76923076923077,509.0976062674488L24.230769230769234,507.75335424251404L27.692307692307693,506.73233780900995L31.153846153846157,505.9312907789438L34.61538461538462,505.2692764052284L38.07692307692308,504.72366051080775L41.53846153846154,504.262442324939L45,503.86659037030984L48.46153846153847,503.53851789924573L51.92307692307693,503.2418291996424L55.38461538461539,502.9955409646359L58.84615384615385,508.9639262290362L62.307692307692314,508.40133501541015L65.76923076923077,508.1097592017513L69.23076923076924,507.58156237468665L72.6923076923077,508.50035649211753L76.15384615384616,506.9841529905428L79.61538461538461,506.6410980282458L83.07692307692308,506.35079047574175L86.53846153846155,506.0105226441538L90,506.48205648511777L93.46153846153847,508.76225175758196L96.92307692307693,506.03566175521894L100.38461538461539,508.5554615341284L103.84615384615385,504.8945073544329L107.3076923076923,505.5148035998619L110.76923076923077,515.3845566238908L114.23076923076923,515.5669243921902L117.6923076923077,518.3675322780862L121.15384615384615,514.8121280339728L124.61538461538463,514.3860456229328L128.07692307692307,514.9611544784152L131.53846153846155,513.8696197082767L135,513.6686983243069L138.46153846153848,513.4066728500128L141.9230769230769,514.4347826086956L145.3846153846154,513.1041942693295L148.84615384615384,512.764158918005L152.30769230769232,512.581127362864L155.76923076923077,512.7967982330151L159.23076923076923,515.1204931869578L162.69230769230768,512.4231413857943L166.15384615384616,512.6722354030345L169.6153846153846,513.8571564028815L173.0769230769231,514.1830030018507L176.53846153846155,513.9856041594662L180,513.3748313649381L183.46153846153845,513.2014687382499L186.92307692307693,513.1674943463981L190.3846153846154,512.6591999072692L193.84615384615387,513.6687311884459L197.3076923076923,512.8671885260715L200.76923076923077,512.7845674574646L204.23076923076923,512.6581669087145L207.6923076923077,512.1158118301882L211.15384615384616,512.5668706352465L214.6153846153846,512.1794101979043L218.07692307692307,514.3361493644875L221.53846153846155,512.8556126431981L225,513.2902618294055L228.46153846153845,512.9373654900046L231.9230769230769,514.5947749014189L235.3846153846154,513.4426862448195L238.84615384615384,513.1874408368515L242.3076923076923,512.6773958007955L245.76923076923075,512.586105887566L249.23076923076925,513.1426643507325L252.6923076923077,512.9607206905318L256.15384615384613,512.3518606218378L259.6153846153846,511.98555362442323L263.0769230769231,512.3752636218148L266.53846153846155,512.1085668464763L270,512.384243766504L273.46153846153845,513.5193518695055L276.92307692307696,513.9956889798873L280.3846153846154,512.9318454966533L283.8461538461538,513.8541782148947L287.30769230769226,513.208038757288L290.7692307692308,512.9857775274295L294.2307692307692,512.8948112979691L297.6923076923077,513.123852590817L301.15384615384613,512.5787954654618L304.61538461538464,512.8814306018884L308.0769230769231,512.9528611099792L311.53846153846155,512.3651716140656L315,512.397573693732L318.46153846153845,513.9445212384505L321.9230769230769,512.2595523874418L325.38461538461536,512.2825207888352L328.8461538461538,512.4555652906728L332.3076923076923,513.1274401421755L335.7692307692308,512.8247554535944L339.2307692307692,513.6484379577373L342.6923076923077,513.1204512178585L346.1538461538462,512.7689718021157L349.61538461538464,512.4942164805357L353.0769230769231,512.6401011620633L356.53846153846155,512.8660265067751L360,512.9483562669122L363.46153846153845,512.607368459111L366.9230769230769,512.8678401800491L370.38461538461536,512.6324660184L373.84615384615387,512.4209155664905L377.3076923076923,512.1980105762972L380.7692307692308,512.3822799221657L384.2307692307692,512.7195385259902L387.69230769230774,512.930256268652L391.1538461538462,512.4017876836563L394.6153846153846,512.7150222040733L398.07692307692304,512.8505716469061L401.53846153846155,512.8157743433984L405,512.8206063701704L408.46153846153845,512.6819126819126L411.9230769230769,512.6522126522126L415.3846153846154,513.1870935902577L418.84615384615387,512.4138573291116L422.3076923076923,512.2209290022221L425.7692307692308,512.4619062391649L429.2307692307692,511.99996579866524L432.6923076923077,512.3677283803219L436.15384615384613,512.296428789889L439.6153846153846,517.911966918129L443.0769230769231,512.5328944792795L446.53846153846155,512.3741758545004L450,512.4267884208754L453.46153846153845,513.0977516548733L456.9230769230769,512.1914316066209L460.38461538461536,512.8425034085411L463.8461538461538,513.1840696869666L467.3076923076923,512.9470589150883L470.7692307692308,512.1116817480208L474.2307692307692,512.393907685153L477.6923076923077,511.5894809107841L481.15384615384613,512.8719211378374L484.6153846153846,512.109893407088L488.07692307692304,512.0064725176045L491.5384615384615,512.2252747252747L495.00000000000006,512.7188386926136L498.4615384615385,512.3596738763517L501.92307692307696,513.1222914186048L505.3846153846154,512.7663811989643L508.8461538461538,512.8580107657815L512.3076923076923,512.6021118344277L515.7692307692307,512.8440285663135L519.2307692307692,512.747467024213L522.6923076923077,512.9682997118156L526.1538461538462,512.7892564860762L529.6153846153846,512.6309353513913L533.0769230769231,512.8846898166986L536.5384615384615,512.8904770729429L540,512.6558985892456L543.4615384615385,513.5089862465807L546.9230769230769,512.4078069884612L550.3846153846155,517.9682758062559L553.8461538461539,512.417440823204L557.3076923076924,512.5726756674704L560.7692307692308,513.401661062682L564.2307692307692,512.7880250892366L567.6923076923076,512.4342896055055L571.1538461538461,513.1084668046151L574.6153846153845,512.4411239909177L578.0769230769231,512.890748749383L581.5384615384615,513.3106717431738L585,513.5485724841444L588.4615384615385,513.8808909657643L591.9230769230769,512.4218433238727L595.3846153846154,513.1381770835122L598.8461538461538,512.9804047355223L602.3076923076923,513.2060474321124L605.7692307692308,514.2208002967496L609.2307692307693,512.7633209417596L612.6923076923077,513.8396634253196L616.1538461538462,513.2254067559059L619.6153846153846,513.4010643444606L623.0769230769231,512.7953921515852L626.5384615384615,513.6602946892336L630,513.4983729455863L633.4615384615385,513.3920916355156L636.9230769230769,513.9996556050281L640.3846153846154,513.9181213987141L643.8461538461538,513.8523293064186L647.3076923076923,514.0361630401471L650.7692307692307,513.9742772629961L654.2307692307692,513.9605462822459L657.6923076923076,513.6363636363636L661.1538461538462,518.8195541450906L664.6153846153846,513.7066899106559L668.0769230769231,513.8271035339817L671.5384615384615,514.0293216145352L675,514.4568006843456L678.4615384615385,514.8517145505098L681.9230769230769,513.6696952876216L685.3846153846154,514.1444800971295L688.8461538461538,514.3785272246165L692.3076923076924,514.2520275822644L695.7692307692308,514.0866542237167L699.2307692307693,514.191652801869L702.6923076923077,514.3267120589725L706.1538461538462,514.8853316273313L709.6153846153846,514.4526359716233L713.0769230769231,514.4222114519144L716.5384615384615,515.2577066360993L720,514.1477374351637L723.4615384615385,514.628251649227L726.9230769230769,514.3713429427715L730.3846153846154,514.228804487744L733.8461538461538,514.1022264540832L737.3076923076923,514.0366454112519L740.7692307692307,514.5594889539526L744.2307692307692,514.4636072487119L747.6923076923077,514.4125105663567L751.1538461538462,514.5809414466131L754.6153846153846,514.3407248294018L758.0769230769231,514.3851236007766L761.5384615384615,514.2121818701745L765,513.6836760599138L768.4615384615385,514.1863161963664L771.9230769230769,518.785546498006L775.3846153846155,514.1608972230028L778.8461538461539,514.3042136935519L782.3076923076924,513.8237836188927L785.7692307692308,514.0883716529472L789.2307692307692,513.9920153406055L792.6923076923076,513.9663755048371L796.1538461538461,514.0802540235968L799.6153846153845,514.3789073117696L803.0769230769231,513.9322216245293L806.5384615384615,514.202599698052L810,514.217633042097L813.4615384615385,513.9672099139062L816.9230769230769,514.0510716301768L820.3846153846154,514.3089577872187L823.8461538461538,515.1177236332943L827.3076923076923,516.1158233401579L830.7692307692308,514.8125580487343L834.2307692307693,514.824435844422L837.6923076923077,514.4251396779745L841.1538461538462,514.3994457687024L844.6153846153846,514.6076853083222L848.0769230769231,514.3032034278718L851.5384615384615,514.6391537941046L855,514.4272631736976L858.4615384615385,514.727305027536L861.9230769230769,514.4025942774639L865.3846153846154,514.3331981701572L868.8461538461538,514.2070992770837L872.3076923076923,514.1260393475396L875.7692307692307,514.0644460043931L879.2307692307692,514.1103602968941L882.6923076923076,518.9502736090437L886.1538461538462,513.72482938748" style="fill: none; stroke: #1f77b4; stroke-width: 2;"></path></g></g><path class="foreground" d="" style="display: none; fill: none;"></path></g><g transform="translate(0,0)"><path class="background" d="M0,0h900v600h-900Z" style="fill: none;"></path><g><g class="mark-line role-mark marks"><path d="M6.923076923076923,525.4222526361629L10.384615384615385,519.6227225543187L13.846153846153847,495.1932932117421L17.30769230769231,510.98453785020945L20.76923076923077,483.6948792628164L24.230769230769234,488.73312260464917L27.692307692307693,478.5215844390186L31.153846153846157,485.8630971424184L34.61538461538462,477.7732782703254L38.07692307692308,483.5665308627L41.53846153846154,472.2082341054414L45,477.8443113772455L48.46153846153847,469.9825260537795L51.92307692307693,474.99523125246384L55.38461538461539,469.63234223174715L58.84615384615385,475.9446274102518L62.307692307692314,471.17710401207205L65.76923076923077,481.02116506295937L69.23076923076924,471.6940369187649L72.6923076923077,473.4569630418137L76.15384615384616,469.57694555590524L79.61538461538461,471.919328742898L83.07692307692308,469.1755594714989L86.53846153846155,471.8903646514093L90,468.70534635695304L93.46153846153847,479.59928428860877L96.92307692307693,469.92276211932784L100.38461538461539,470.3538275066002L103.84615384615385,468.9433725959824L107.3076923076923,471.2072384451446L110.76923076923077,468.19717537630896L114.23076923076923,469.70880266277186L117.6923076923077,467.7680044137363L121.15384615384615,470.15012511576487L124.61538461538463,474.9052297164874L128.07692307692307,468.7636556736664L131.53846153846155,466.0601889927659L135,467.73854937402393L138.46153846153848,466.81560126719893L141.9230769230769,467.8899153037084L145.3846153846154,466.4004837680895L148.84615384615384,468.525784315258L152.30769230769232,474.00504756357986L155.76923076923077,468.3175455915529L159.23076923076923,465.84032081662417L162.69230769230768,470.3388661547658L166.15384615384616,466.2842561473646L169.6153846153846,468.43265218786775L173.0769230769231,465.74177668382185L176.53846153846155,467.4286767755911L180,465.5619317815462L183.46153846153845,476.6541467608784L186.92307692307693,464.76369181132947L190.3846153846154,466.9343119875496L193.84615384615387,469.94148547765207L197.3076923076923,467.41856450228977L200.76923076923077,465.6978961542353L204.23076923076923,472.6311900669804L207.6923076923077,465.4897015552753L211.15384615384616,475.5475655785087L214.6153846153846,464.52259262364134L218.07692307692307,476.45835396652467L221.53846153846155,465.1124877037948L225,468.7626189789443L228.46153846153845,464.6350027309308L231.9230769230769,466.9224103517774L235.3846153846154,465.18450901327384L238.84615384615384,466.0063147894604L242.3076923076923,472.7584285171123L245.76923076923075,466.34495938843764L249.23076923076925,470.0689270118113L252.6923076923077,469.26882667613114L256.15384615384613,467.26526812865575L259.6153846153846,468.5466202502722L263.0769230769231,467.80716364661436L266.53846153846155,468.598994812587L270,475.2410235030486L273.46153846153845,467.55965356908786L276.92307692307696,467.08657295587284L280.3846153846154,468.0882979172341L283.8461538461538,468.6287452788517L287.30769230769226,467.57086672894405L290.7692307692308,466.9641736125048L294.2307692307692,468.1532572403915L297.6923076923077,466.24546879444216L301.15384615384613,467.7919616883058L304.61538461538464,467.4926362783817L308.0769230769231,467.96566331623745L311.53846153846155,467.2449185981153L315,467.25345069013804L318.46153846153845,468.0599818846657L321.9230769230769,467.5017238608261L325.38461538461536,474.07693351000006L328.8461538461538,471.22410195755316L332.3076923076923,466.5448899820748L335.7692307692308,467.9267469998824L339.2307692307692,474.1859127806679L342.6923076923077,469.4102601948081L346.1538461538462,466.41075805710113L349.61538461538464,468.55806958221007L353.0769230769231,465.6044736649473L356.53846153846155,467.4461440874381L360,466.67195746200554L363.46153846153845,467.31429925364296L366.9230769230769,466.5699106290426L370.38461538461536,475.6650082212156L373.84615384615387,466.0748683703609L377.3076923076923,466.26745506614157L380.7692307692308,465.25125776501636L384.2307692307692,475.9817155048588L387.69230769230774,465.3794344823094L391.1538461538462,466.7458016306992L394.6153846153846,465.686733287287L398.07692307692304,475.1647832134772L401.53846153846155,467.6608581318695L405,467.5334232797743L408.46153846153845,465.73261066629243L411.9230769230769,466.6235777384664L415.3846153846154,466.0443932601724L418.84615384615387,467.8771118317448L422.3076923076923,466.03664615237466L425.7692307692308,465.8575237413239L429.2307692307692,473.61460940888566L432.6923076923077,466.7211986072923L436.15384615384613,465.5160207244993L439.6153846153846,483.28808477577167L443.0769230769231,473.6694750747142L446.53846153846155,463.50871974185895L450,463.1036747675182L453.46153846153845,462.89743560378145L456.9230769230769,465.9715439507057L460.38461538461536,464.49919624887406L463.8461538461538,462.47766877567875L467.3076923076923,464.1361958645704L470.7692307692308,464.3683397878857L474.2307692307692,467.0796159373778L477.6923076923077,466.74111541746043L481.15384615384613,467.00685696061237L484.6153846153846,466.7019307061624L488.07692307692304,467.94878640876397L491.5384615384615,466.4896091811414L495.00000000000006,470.3432270673018L498.4615384615385,474.15598035067063L501.92307692307696,466.18281688421143L505.3846153846154,464.74941586981356L508.8461538461538,464.17115969100865L512.3076923076923,462.96427783268246L515.7692307692307,467.93534334517943L519.2307692307692,464.36638722654635L522.6923076923077,465.88315715478166L526.1538461538462,464.92099099905266L529.6153846153846,466.4613373972687L533.0769230769231,465.02538270101456L536.5384615384615,467.05895255130787L540,465.0701280255656L543.4615384615385,465.2826530928814L546.9230769230769,463.64823485327344L550.3846153846155,485.09468812680535L553.8461538461539,466.00655188551445L557.3076923076924,467.96305999187246L560.7692307692308,475.45108811848473L564.2307692307692,469.8751211723784L567.6923076923076,469.36236391912905L571.1538461538461,467.09245206613025L574.6153846153845,469.60193240509807L578.0769230769231,476.45844959831805L581.5384615384615,467.40052022881923L585,464.86460616618643L588.4615384615385,479.124762902595L591.9230769230769,468.6989189470579L595.3846153846154,465.69388240550825L598.8461538461538,469.81163135244464L602.3076923076923,464.7027770679744L605.7692307692308,469.9832202370273L609.2307692307693,467.5901916431355L612.6923076923077,470.7866487648379L616.1538461538462,467.63694508441944L619.6153846153846,472.8660147419296L623.0769230769231,467.484946172893L626.5384615384615,470.8482829503012L630,469.2207178403625L633.4615384615385,471.2985191906124L636.9230769230769,470.35616177815047L640.3846153846154,473.0787921522292L643.8461538461538,471.79610704261677L647.3076923076923,475.6839537802818L650.7692307692307,474.0561526603289L654.2307692307692,474.77339026567404L657.6923076923076,474.11583551626615L661.1538461538462,492.5624181115992L664.6153846153846,473.38577297871734L668.0769230769231,477.32704313681177L671.5384615384615,477.87576055782534L675,482.5037385174108L678.4615384615385,484.44105978160735L681.9230769230769,478.3244389962281L685.3846153846154,478.037304022134L688.8461538461538,479.6180422587404L692.3076923076924,479.2652583968203L695.7692307692308,479.82819707513886L699.2307692307693,480.13055088517456L702.6923076923077,480.3310739060965L706.1538461538462,490.4541142355953L709.6153846153846,480.67603057243633L713.0769230769231,480.72560030387336L716.5384615384615,486.19115409160077L720,480.70279049165805L723.4615384615385,481.43176236073043L726.9230769230769,480.544231485789L730.3846153846154,479.11388376090133L733.8461538461538,483.5325590776874L737.3076923076923,482.12130007231366L740.7692307692307,480.941313609838L744.2307692307692,479.4686654866154L747.6923076923077,479.46967788417396L751.1538461538462,482.61762210939133L754.6153846153846,483.3231707689619L758.0769230769231,482.5288882019765L761.5384615384615,482.2175406332849L765,483.6827784891165L768.4615384615385,479.76820175834496L771.9230769230769,501.3674394603959L775.3846153846155,482.36679535450685L778.8461538461539,482.8967865287933L782.3076923076924,483.3108433470226L785.7692307692308,483.36370425690814L789.2307692307692,480.1883830455259L792.6923076923076,483.32572629523094L796.1538461538461,483.0099505123613L799.6153846153845,484.1269701583167L803.0769230769231,485.6134044803537L806.5384615384615,484.0612489539276L810,481.80170320462395L813.4615384615385,481.69018974706177L816.9230769230769,483.6591937398538L820.3846153846154,483.9124006373722L823.8461538461538,493.89920424403175L827.3076923076923,493.35038933801377L830.7692307692308,493.04892269071087L834.2307692307693,484.8719324836782L837.6923076923077,482.14132651073385L841.1538461538462,486.19984493623133L844.6153846153846,485.3203822653924L848.0769230769231,485.8415760647429L851.5384615384615,485.4149954197051L855,486.7924528301887L858.4615384615385,486.5819079849996L861.9230769230769,485.7210408466962L865.3846153846154,486.5339916654059L868.8461538461538,485.9669713100169L872.3076923076923,486.0287189537557L875.7692307692307,486.45543488017233L879.2307692307692,482.41648020986037L882.6923076923076,496.0957820320405L886.1538461538462,481.68232937914036" style="fill: none; stroke: #aec7e8; stroke-width: 2;"></path></g></g><path class="foreground" d="" style="display: none; fill: none;"></path></g><g transform="translate(0,0)"><path class="background" d="M0,0h900v600h-900Z" style="fill: none;"></path><g><g class="mark-line role-mark marks"><path d="M6.923076923076923,520.3185132503373L10.384615384615385,479.8653144666693L13.846153846153847,440.6645622196378L17.30769230769231,413.2687011676158L20.76923076923077,360.9142218942582L24.230769230769234,319.75875127737584L27.692307692307693,263.4782059469588L31.153846153846157,378.32220236673714L34.61538461538462,352.81808865822615L38.07692307692308,331.3184188283716L41.53846153846154,304.49287413859815L45,277.86752827140543L48.46153846153847,259.0731453136195L51.92307692307693,230.27973151707687L55.38461538461539,194.87320721140605L58.84615384615385,309.3151477483309L62.307692307692314,287.25534992418574L65.76923076923077,279.8611405105626L69.23076923076924,259.32435517005246L72.6923076923077,239.38802102059773L76.15384615384616,229.5167978336295L79.61538461538461,200.35159513005817L83.07692307692308,135.05771905198765L86.53846153846155,276.8019997265999L90,259.8635572174806L93.46153846153847,250.65052674098155L96.92307692307693,228.50315882768191L100.38461538461539,220.60621497707592L103.84615384615385,206.1520833792388L107.3076923076923,196.4569982804993L110.76923076923077,134.73155057790441L114.23076923076923,225.21559586590743L117.6923076923077,212.19259543449073L121.15384615384615,203.78037426771428L124.61538461538463,205.99701144384846L128.07692307692307,179.8810692311512L131.53846153846155,169.69088696453704L135,155.2286440931531L138.46153846153848,93.70103522486583L141.9230769230769,194.04518173308443L145.3846153846154,182.1862348178137L148.84615384615384,175.03526633368364L152.30769230769232,165.56383163000177L155.76923076923077,147.13122052231773L159.23076923076923,139.89765165153017L162.69230769230768,130.43047829425004L166.15384615384616,77.78976422515558L169.6153846153846,163.47110076408066L173.0769230769231,158.98270818610385L176.53846153846155,149.3762993762994L180,136.77204658901826L183.46153846153845,137.14936733550942L186.92307692307693,119.82973453136425L190.3846153846154,110.04735696915388L193.84615384615387,76.95083559924039L197.3076923076923,145.22260941084807L200.76923076923077,137.21150464027698L204.23076923076923,129.23239265131622L207.6923076923077,124.90464663876872L211.15384615384616,123.35913173096813L214.6153846153846,109.44484614982164L218.07692307692307,118.5712618186062L221.53846153846155,76.35710534083708L225,132.41418837164883L228.46153846153845,126.30652910213243L231.9230769230769,120.96314211604495L235.3846153846154,115.40062990444675L238.84615384615384,104.90083504756693L242.3076923076923,102.9507689406486L245.76923076923075,90.55013461416317L249.23076923076925,92.57692427670906L252.6923076923077,125.19268332044138L256.15384615384613,115.78098757138058L259.6153846153846,106.2693541174072L263.0769230769231,106.05159016724919L266.53846153846155,97.07288614097085L270,97.64323271107027L273.46153846153845,82.48755349812203L276.92307692307696,44.30817576526711L280.3846153846154,110.1768546043396L283.8461538461538,102.91435261375142L287.30769230769226,100.49117437207231L290.7692307692308,92.06956095310714L294.2307692307692,90.1067096267482L297.6923076923077,76.21942860491569L301.15384615384613,76.270613169052L304.61538461538464,62.326872423360854L308.0769230769231,99.88353811215278L311.53846153846155,95.07500254615817L315,89.32148932148942L318.46153846153845,110.6031198332255L321.9230769230769,78.84637161049785L325.38461538461536,83.94983921364651L328.8461538461538,73.6454300308703L332.3076923076923,49.1374476203285L335.7692307692308,107.48070011271555L339.2307692307692,117.35459662288925L342.6923076923077,99.8377671111613L346.1538461538462,91.03447908311591L349.61538461538464,86.0397807856158L353.0769230769231,80.9031216332998L356.53846153846155,75.84603851255143L360,38.914027149321264L363.46153846153845,90.13250274451742L366.9230769230769,92.73737951253422L370.38461538461536,80.62281819693014L373.84615384615387,74.93711783465295L377.3076923076923,69.66968094822678L380.7692307692308,65.90661287684671L384.2307692307692,71.19723517604623L387.69230769230774,36.41903569676652L391.1538461538462,85.32209128502434L394.6153846153846,82.0984910534653L398.07692307692304,83.98122092620828L401.53846153846155,80.07486082799895L405,66.46248728249131L408.46153846153845,65.24522102244978L411.9230769230769,58.71610577677557L415.3846153846154,36.58290243517084L418.84615384615387,81.71915899687572L422.3076923076923,78.59610113285666L425.7692307692308,71.51852292940042L429.2307692307692,69.02288146713968L432.6923076923077,65.17435775015147L436.15384615384613,58.114530939965746L439.6153846153846,155.56274803028944L443.0769230769231,46.0556159197848L446.53846153846155,84.53979202607007L450,76.82370820668692L453.46153846153845,71.68301595335403L456.9230769230769,71.45337353988357L460.38461538461536,63.95350027118019L463.8461538461538,79.42006159304664L467.3076923076923,62.47646858759535L470.7692307692308,48.84499133265254L474.2307692307692,82.43850058570872L477.6923076923077,75.90528662152485L481.15384615384613,84.01271201296221L484.6153846153846,64.12254242117572L488.07692307692304,74.60704208732945L491.5384615384615,75.36909758278287L495.00000000000006,69.27945957204058L498.4615384615385,61.22081113168287L501.92307692307696,79.1429461445887L505.3846153846154,82.94333087733068L508.8461538461538,86.76866010268034L512.3076923076923,79.49791678768132L515.7692307692307,62.94828048090788L519.2307692307692,69.42925756816068L522.6923076923077,60.72419078016933L526.1538461538462,58.25961420735162L529.6153846153846,88.39765273349349L533.0769230769231,94.2522214579005L536.5384615384615,79.8084664604432L540,81.66862415398508L543.4615384615385,89.8943088598261L546.9230769230769,60.9252177015621L550.3846153846155,152.36399872294723L553.8461538461539,79.69432550529609L557.3076923076924,80.85326182938941L560.7692307692308,120.0581507403756L564.2307692307692,98.17257051755426L567.6923076923076,98.48891335619601L571.1538461538461,87.24821145083801L574.6153846153845,93.89583694402357L578.0769230769231,82.2924801675402L581.5384615384615,73.87822342559814L585,111.22843021297591L588.4615384615385,115.23600560805403L591.9230769230769,81.5026316520912L595.3846153846154,92.55018186716953L598.8461538461538,102.40601339093978L602.3076923076923,101.05215417289459L605.7692307692308,100.16228497241157L609.2307692307693,86.41475555402718L612.6923076923077,105.25253834121588L616.1538461538462,106.24554205286978L619.6153846153846,110.4718310115943L623.0769230769231,105.5138952815341L626.5384615384615,109.41123324800472L630,113.29668697073245L633.4615384615385,101.11397098681142L636.9230769230769,92.14720614551109L640.3846153846154,114.14985508322751L643.8461538461538,116.62667997197391L647.3076923076923,115.92767524604142L650.7692307692307,118.81799958017179L654.2307692307692,108.42037814663632L657.6923076923076,106.95880078540598L661.1538461538462,175.1919338363702L664.6153846153846,99.8144439749407L668.0769230769231,114.57300351790809L671.5384615384615,125.08947179479011L675,124.70958530728795L678.4615384615385,132.0520177630243L681.9230769230769,117.94573383168085L685.3846153846154,115.60997201561638L688.8461538461538,113.28386616897089L692.3076923076924,101.25244356571042L695.7692307692308,121.38583049576788L699.2307692307693,118.71346795752847L702.6923076923077,116.91183819244996L706.1538461538462,130.57985904762404L709.6153846153846,112.8574185201235L713.0769230769231,116.51843079946585L716.5384615384615,124.18469101036254L720,104.03641782246314L723.4615384615385,116.09827849204615L726.9230769230769,116.91506094783112L730.3846153846154,114.87231016835129L733.8461538461538,120.47546869597092L737.3076923076923,115.11028054692048L740.7692307692307,113.18560957115179L744.2307692307692,110.90253437584244L747.6923076923077,96.84316133607791L751.1538461538462,115.91250982152144L754.6153846153846,118.7290271823772L758.0769230769231,116.44987089940855L761.5384615384615,136.20773804808616L765,107.7394446018703L768.4615384615385,108.4148559902461L771.9230769230769,183.7853008084076L775.3846153846155,101.48632107714552L778.8461538461539,118.67367858097867L782.3076923076924,114.54688656053847L785.7692307692308,109.28644773108027L789.2307692307692,110.86319319811797L792.6923076923076,108.84616423751324L796.1538461538461,109.76538162060785L799.6153846153845,108.4346293031456L803.0769230769231,100.95256730794358L806.5384615384615,115.48605240912929L810,112.44275023649195L813.4615384615385,110.17433958054276L816.9230769230769,112.32701310727613L820.3846153846154,109.40843763890405L823.8461538461538,131.41175598861022L827.3076923076923,133.0598019660655L830.7692307692308,121.0705481864068L834.2307692307693,113.81457766862562L837.6923076923077,110.06540089959242L841.1538461538462,111.64192816743707L844.6153846153846,116.56420267474716L848.0769230769231,109.86379067649246L851.5384615384615,109.53883108155429L855,106.63238076755121L858.4615384615385,106.44050048489679L861.9230769230769,114.51411269511757L865.3846153846154,117.54352135380906L868.8461538461538,112.81385334607859L872.3076923076923,112.35878409889808L875.7692307692307,106.56800321229854L879.2307692307692,108.6045415956354L882.6923076923076,176.78042059261531L886.1538461538462,100.96569318804521" style="fill: none; stroke: #98df8a; stroke-width: 2;"></path></g></g><path class="foreground" d="" style="display: none; fill: none;"></path></g><g transform="translate(0,0)"><path class="background" d="M0,0h900v600h-900Z" style="fill: none;"></path><g><g class="mark-line role-mark marks"><path d="M6.923076923076923,523.3582242225859L10.384615384615385,485.07554260296035L13.846153846153847,446.8818852380496L17.30769230769231,424.27131523861453L20.76923076923077,369.9790855191204L24.230769230769234,331.77607732581555L27.692307692307693,289.27509185280223L31.153846153846157,383.04863453378306L34.61538461538462,359.0060510349606L38.07692307692308,335.61283323623366L41.53846153846154,310.73151271171076L45,287.4934698568593L48.46153846153847,263.31379501652316L51.92307692307693,238.47120823865004L55.38461538461539,178.4331447769288L58.84615384615385,323.99069906582724L62.307692307692314,307.4652706885428L65.76923076923077,287.7211046353167L69.23076923076924,262.01967305923154L72.6923076923077,256.15409299225746L76.15384615384616,244.68323404807896L79.61538461538461,226.54924540155957L83.07692307692308,152.46570726045005L86.53846153846155,287.5708634634281L90,272.2918100481762L93.46153846153847,259.6970171820142L96.92307692307693,249.20803645663403L100.38461538461539,231.16924188065056L103.84615384615385,219.6448655465049L107.3076923076923,209.41078845201253L110.76923076923077,142.40336061918256L114.23076923076923,231.08734644150394L117.6923076923077,212.74306041096386L121.15384615384615,209.0729783037476L124.61538461538463,206.7693631701186L128.07692307692307,176.13508066846745L131.53846153846155,171.72669875032932L135,155.8488123101439L138.46153846153848,111.37016665298414L141.9230769230769,189.8458638821127L145.3846153846154,185.35806264848563L148.84615384615384,177.90485895257834L152.30769230769232,167.28842632106665L155.76923076923077,153.10207708876197L159.23076923076923,139.91781477648516L162.69230769230768,131.49693597806805L166.15384615384616,79.64820773191074L169.6153846153846,166.2815001892667L173.0769230769231,166.70069975346766L176.53846153846155,147.39024382926254L180,140.8792829149043L183.46153846153845,139.5365230416777L186.92307692307693,128.35433955523007L190.3846153846154,115.38818987703743L193.84615384615387,86.54159680063911L197.3076923076923,154.5528338824428L200.76923076923077,145.8374144298714L204.23076923076923,139.64543900329875L207.6923076923077,131.7783337549518L211.15384615384616,121.51130281971399L214.6153846153846,115.56205061014909L218.07692307692307,134.1760181883114L221.53846153846155,78.8732200117229L225,136.4949104395171L228.46153846153845,132.11826298524966L231.9230769230769,123.65402165572101L235.3846153846154,119.26747721096378L238.84615384615384,108.58419053993096L242.3076923076923,108.44306831563028L245.76923076923075,95.31074909421821L249.23076923076925,96.15259525588L252.6923076923077,126.59683075147584L256.15384615384613,119.93080083615664L259.6153846153846,113.40927686379338L263.0769230769231,107.14901578276314L266.53846153846155,100.44073403865585L270,101.10268485978115L273.46153846153845,90.61162882557636L276.92307692307696,54.90493730872102L280.3846153846154,113.27216859886447L283.8461538461538,111.548707020204L287.30769230769226,101.2554824108566L290.7692307692308,99.97136147545662L294.2307692307692,89.71697704500019L297.6923076923077,83.68595331180823L301.15384615384613,77.31781892655762L304.61538461538464,66.76606151722207L308.0769230769231,105.25807933539264L311.53846153846155,98.41331082710383L315,97.08400545973446L318.46153846153845,115.9715024015649L321.9230769230769,82.6993279761194L325.38461538461536,84.89828976581364L328.8461538461538,76.91621568307936L332.3076923076923,53.45895780878045L335.7692307692308,111.41491098294543L339.2307692307692,115.38825142714677L342.6923076923077,102.687200081441L346.1538461538462,91.59805902253729L349.61538461538464,92.42714597817381L353.0769230769231,86.71695925948706L356.53846153846155,81.68477258556035L360,44.60899404009384L363.46153846153845,95.67944556540048L366.9230769230769,86.47841523708396L370.38461538461536,84.25222845823706L373.84615384615387,79.80997624703095L377.3076923076923,74.65393366924584L380.7692307692308,71.03191594479752L384.2307692307692,72.08336820959242L387.69230769230774,42.01785994046685L391.1538461538462,85.2969264133107L394.6153846153846,86.09246115480533L398.07692307692304,87.21905910621264L401.53846153846155,77.93363092435692L405,71.53625119726821L408.46153846153845,64.944054412469L411.9230769230769,63.49691044692602L415.3846153846154,39.76815263943969L418.84615384615387,78.69017663292614L422.3076923076923,81.50678180180229L425.7692307692308,71.62935331026728L429.2307692307692,79.80190342867574L432.6923076923077,68.35252410857775L436.15384615384613,60.01489842401646L439.6153846153846,153.76538464843253L443.0769230769231,48.386390425031344L446.53846153846155,94.01055588844198L450,75.99996198766502L453.46153846153845,74.19276410324352L456.9230769230769,71.47569775100054L460.38461538461536,79.30109475821068L463.8461538461538,60.34869223976811L467.3076923076923,67.65430964960872L470.7692307692308,36.57574100860887L474.2307692307692,74.66008635948546L477.6923076923077,70.04877553094192L481.15384615384613,99.05369774876101L484.6153846153846,70.1065363285814L488.07692307692304,67.07010718738059L491.5384615384615,60.485183394933L495.00000000000006,57.43405275779389L498.4615384615385,44.024556665253336L501.92307692307696,87.42692287629951L505.3846153846154,93.62541353804552L508.8461538461538,86.08493445956347L512.3076923076923,73.52318853962996L515.7692307692307,72.71825429586853L519.2307692307692,79.25710793833005L522.6923076923077,80.16144519874038L526.1538461538462,62.21153764071383L529.6153846153846,79.86493189412296L533.0769230769231,86.4721485411141L536.5384615384615,76.0535953468863L540,81.79713451665937L543.4615384615385,89.47880440610977L546.9230769230769,65.85105793278399L550.3846153846155,156.13680249362972L553.8461538461539,76.38651186456356L557.3076923076924,87.65065819062774L560.7692307692308,100.70426736413103L564.2307692307692,82.3126919150029L567.6923076923076,98.05345183701569L571.1538461538461,78.70472298127613L574.6153846153845,96.28240153804994L578.0769230769231,94.86365849799276L581.5384615384615,60.5465587044534L585,111.35668004929045L588.4615384615385,120.75926767004428L591.9230769230769,113.12223017590142L595.3846153846154,106.70788056467293L598.8461538461538,90.82984801540755L602.3076923076923,101.58142865668083L605.7692307692308,91.09728038687047L609.2307692307693,80.90354756914387L612.6923076923077,112.49482435014811L616.1538461538462,109.50018705346685L619.6153846153846,110.41767966546732L623.0769230769231,107.53861110080922L626.5384615384615,104.22476553552397L630,109.49973853930624L633.4615384615385,107.08586980224372L636.9230769230769,92.98252337181945L640.3846153846154,113.94598465996498L643.8461538461538,117.7979133042738L647.3076923076923,118.01106843948261L650.7692307692307,117.22839205750219L654.2307692307692,120.25927556367049L657.6923076923076,108.78160602561238L661.1538461538462,173.94064886241762L664.6153846153846,93.99635046529427L668.0769230769231,117.68329472406167L671.5384615384615,126.91545636019607L675,123.66463556221025L678.4615384615385,133.17715030561385L681.9230769230769,114.46507011650075L685.3846153846154,115.73749975921343L688.8461538461538,111.32586947502388L692.3076923076924,99.79157982492708L695.7692307692308,121.57359289124486L699.2307692307693,115.69827049571192L702.6923076923077,117.32202710705847L706.1538461538462,131.9202444364648L709.6153846153846,114.89304948684085L713.0769230769231,115.72388649237936L716.5384615384615,126.24920661950244L720,100.11372867587323L723.4615384615385,117.32726108304277L726.9230769230769,114.24983769452362L730.3846153846154,116.00982082933338L733.8461538461538,124.68268583389981L737.3076923076923,112.65439119932354L740.7692307692307,113.89795460123342L744.2307692307692,110.61802915215941L747.6923076923077,97.11371533245818L751.1538461538462,116.40271493212668L754.6153846153846,119.27670991216142L758.0769230769231,117.31894618309953L761.5384615384615,135.84153655631494L765,113.67807745807355L768.4615384615385,109.30969173179332L771.9230769230769,179.08147824897875L775.3846153846155,100.1727831916511L778.8461538461539,117.90719402055434L782.3076923076924,116.14629794826044L785.7692307692308,110.78464826421946L789.2307692307692,111.54520826629847L792.6923076923076,109.92747592438464L796.1538461538461,116.98232505887054L799.6153846153845,109.08330970866444L803.0769230769231,95.39621547161595L806.5384615384615,116.06251426061252L810,116.69328183607523L813.4615384615385,110.75365883932697L816.9230769230769,109.24543768065911L820.3846153846154,110.57883319361517L823.8461538461538,131.1245933428597L827.3076923076923,138.175100177622L830.7692307692308,119.46939192278825L834.2307692307693,111.75470584608343L837.6923076923077,111.68421861787998L841.1538461538462,111.77742484835736L844.6153846153846,115.53931479660923L848.0769230769231,110.79815219264826L851.5384615384615,106.83527613796409L855,107.25396133158893L858.4615384615385,106.14924733391237L861.9230769230769,115.88554175530088L865.3846153846154,118.16938008465472L868.8461538461538,110.31284739250482L872.3076923076923,112.05461238963255L875.7692307692307,106.96997648526106L879.2307692307692,109.0710629037753L882.6923076923076,177.94018780768147L886.1538461538462,99.87665462836274" style="fill: none; stroke: #d62728; stroke-width: 2;"></path></g></g><path class="foreground" d="" style="display: none; fill: none;"></path></g><g transform="translate(0,0)"><path class="background" d="M0,0h900v600h-900Z" style="fill: none;"></path><g><g class="mark-line role-mark marks"><path d="M6.923076923076923,538.1267533594755L10.384615384615385,507.1963630727902L13.846153846153847,476.2451948910842L17.30769230769231,448.9092092713427L20.76923076923077,414.3927261455804L24.230769230769234,381.3139112650779L27.692307692307693,379.253395020483L31.153846153846157,424.66389348911804L34.61538461538462,398.08832622115L38.07692307692308,377.8386105788241L41.53846153846154,359.3653946820934L45,338.77693753551597L48.46153846153847,317.28640363326707L51.92307692307693,303.908252516978L55.38461538461539,409.2889832394172L58.84615384615385,340.59281812483215L62.307692307692314,320.73567284930147L65.76923076923077,304.82169371434526L69.23076923076924,289.4991418317991L72.6923076923077,274.3678142988627L76.15384615384616,266.51501480511877L79.61538461538461,248.40584093524683L83.07692307692308,231.28854268094773L86.53846153846155,310.2152770061232L90,304.1864630233078L93.46153846153847,292.9694044208489L96.92307692307693,279.1409222135283L100.38461538461539,262.9809766850658L103.84615384615385,251.41910218630065L107.3076923076923,239.66242911069978L110.76923076923077,217.80464018685961L114.23076923076923,283.640531361395L117.6923076923077,269.90994059911856L121.15384615384615,266.59703363275537L124.61538461538463,257.27885759619204L128.07692307692307,239.1633517259078L131.53846153846155,231.66879719000067L135,219.56103195995377L138.46153846153848,199.11206839710763L141.9230769230769,264.6137774039933L145.3846153846154,261.5783131050239L148.84615384615384,251.5733766661543L152.30769230769232,240.87541594146197L155.76923076923077,235.19174814938899L159.23076923076923,216.14706879024058L162.69230769230768,208.15745549747083L166.15384615384616,191.26510711136467L169.6153846153846,253.71441358741365L173.0769230769231,251.42858499232125L176.53846153846155,235.57677086250777L180,227.08313493952954L183.46153846153845,228.58312027783305L186.92307692307693,213.1392825911701L190.3846153846154,205.98144245404524L193.84615384615387,183.8388740596942L197.3076923076923,232.306012764528L200.76923076923077,225.30624710904942L204.23076923076923,258.6357716539987L207.6923076923077,215.42857645269348L211.15384615384616,214.88932818292315L214.6153846153846,208.18495052463055L218.07692307692307,193.41148407259962L221.53846153846155,178.34324031507128L225,223.176345148623L228.46153846153845,225.2691778162177L231.9230769230769,211.39405850420027L235.3846153846154,205.44542536516454L238.84615384615384,199.60994265395334L242.3076923076923,202.70853835871972L245.76923076923075,188.02790518311906L249.23076923076925,214.15420193604817L252.6923076923077,216.83351831905387L256.15384615384613,219.53659373021722L259.6153846153846,206.297412981352L263.0769230769231,211.532808898946L266.53846153846155,195.6512820512821L270,198.95809107400345L273.46153846153845,187.20994316603182L276.92307692307696,170.9889259563418L280.3846153846154,208.68470768315404L283.8461538461538,212.64609199243787L287.30769230769226,207.8841227516606L290.7692307692308,203.18556965877087L294.2307692307692,198.38325428101066L297.6923076923077,184.3622519282654L301.15384615384613,189.17791370254628L304.61538461538464,179.35633137257045L308.0769230769231,203.67001192722262L311.53846153846155,199.48436752084092L315,196.67813794382508L318.46153846153845,202.85487708168122L321.9230769230769,194.74603394300945L325.38461538461536,190.89299360682938L328.8461538461538,177.06996887157683L332.3076923076923,177.73012101358162L335.7692307692308,208.216287024234L339.2307692307692,195.45030196812695L342.6923076923077,191.4690681598673L346.1538461538462,195.98077305257274L349.61538461538464,191.9637495223017L353.0769230769231,178.74731461644876L356.53846153846155,174.54914833720113L360,163.80319383583802L363.46153846153845,194.61626109765515L366.9230769230769,192.6520143830025L370.38461538461536,187.1034258785222L373.84615384615387,184.6382821742504L377.3076923076923,179.22764137856342L380.7692307692308,175.40890442418626L384.2307692307692,172.8206785596323L387.69230769230774,162.2228101915747L391.1538461538462,193.3180897415518L394.6153846153846,197.51100920097116L398.07692307692304,185.60268257200653L401.53846153846155,181.10070056478688L405,186.47185217017622L408.46153846153845,173.55077582867617L411.9230769230769,179.3885347286409L415.3846153846154,161.06079726309787L418.84615384615387,197.7383780082616L422.3076923076923,186.5836403744972L425.7692307692308,181.5535815535815L429.2307692307692,178.25162859976268L432.6923076923077,191.31107155966538L436.15384615384613,171.4759719073163L439.6153846153846,240.7590502070689L443.0769230769231,160.24016570751678L446.53846153846155,195.0592255311496L450,192.17685407578057L453.46153846153845,179.65895126502588L456.9230769230769,183.98736288383895L460.38461538461536,172.6351946507011L463.8461538461538,192.51809499675323L467.3076923076923,167.38262108966907L470.7692307692308,170.19348904024136L474.2307692307692,183.3050842713577L477.6923076923077,184.25659360484033L481.15384615384613,188.86334585162354L484.6153846153846,185.45003655072222L488.07692307692304,171.47629716973628L491.5384615384615,177.86305003161894L495.00000000000006,177.72003897369274L498.4615384615385,158.68759739281572L501.92307692307696,190.7950101940273L505.3846153846154,186.28808829973977L508.8461538461538,188.9647968974892L512.3076923076923,180.2507940104747L515.7692307692307,176.13639753034866L519.2307692307692,184.3160922017698L522.6923076923077,163.7414228963525L526.1538461538462,178.79800379257128L529.6153846153846,195.60024157290812L533.0769230769231,190.69534330522993L536.5384615384615,187.53482757055383L540,204.0580789277736L543.4615384615385,183.47914300549422L546.9230769230769,171.14285714285717L550.3846153846155,246.7344226305801L553.8461538461539,181.57770840998745L557.3076923076924,200.33784685546945L560.7692307692308,187.49146816640058L564.2307692307692,194.7679299996087L567.6923076923076,201.88833318386165L571.1538461538461,180.26597081327452L574.6153846153845,178.2363849582147L578.0769230769231,177.39569518940039L581.5384615384615,174.8114147682873L585,207.58974853533283L588.4615384615385,209.86465224232205L591.9230769230769,210.71611211006444L595.3846153846154,212.80477479685004L598.8461538461538,199.51006325624832L602.3076923076923,195.03873542530715L605.7692307692308,184.5502538110192L609.2307692307693,187.51595312681283L612.6923076923077,222.72013273061748L616.1538461538462,205.10260676650032L619.6153846153846,206.08116781895876L623.0769230769231,197.4428149183905L626.5384615384615,206.59748744030654L630,212.9847563383619L633.4615384615385,208.53884017035668L636.9230769230769,190.64709436180468L640.3846153846154,207.86429147125457L643.8461538461538,225.2047171899206L647.3076923076923,231.22419288375337L650.7692307692307,221.1677401268479L654.2307692307692,213.43050825880778L657.6923076923076,210.84877575631606L661.1538461538462,249.0832020131687L664.6153846153846,209.34326586729674L668.0769230769231,216.03263091276318L671.5384615384615,223.4120904739701L675,224.89605195422325L678.4615384615385,241.59089754660434L681.9230769230769,220.70663775311544L685.3846153846154,220.8069513673717L688.8461538461538,218.08893948088843L692.3076923076924,228.53866390843882L695.7692307692308,228.74225708974242L699.2307692307693,224.30103330225478L702.6923076923077,234.12179908714893L706.1538461538462,218.03917952231023L709.6153846153846,221.14165229647773L713.0769230769231,222.44971976536692L716.5384615384615,212.87377799197154L720,227.65392217286893L723.4615384615385,226.41836153482225L726.9230769230769,226.41610418958703L730.3846153846154,224.05535505489442L733.8461538461538,224.98178642183072L737.3076923076923,220.41244140140455L740.7692307692307,219.27385666667504L744.2307692307692,219.8430430795576L747.6923076923077,215.8418743068486L751.1538461538462,226.00909662832643L754.6153846153846,226.7337581461985L758.0769230769231,222.18388471686617L761.5384615384615,227.74635678978805L765,220.43188459728353L768.4615384615385,228.9290384011647L771.9230769230769,263.3507979582295L775.3846153846155,218.7258078751276L778.8461538461539,226.20898032924757L782.3076923076924,224.85151236921413L785.7692307692308,223.37531097383956L789.2307692307692,221.4855339468039L792.6923076923076,213.3252741437185L796.1538461538461,212.00705205530295L799.6153846153845,218.56094269444714L803.0769230769231,215.7012656307471L806.5384615384615,226.41412340373677L810,224.9677902254071L813.4615384615385,214.5054834645913L816.9230769230769,213.7963469826756L820.3846153846154,218.44935941045784L823.8461538461538,233.0185128217866L827.3076923076923,211.47452790469214L830.7692307692308,224.23947058902536L834.2307692307693,236.75255966201044L837.6923076923077,233.71838029925306L841.1538461538462,215.12764185288918L844.6153846153846,231.7271723088062L848.0769230769231,231.14730902237332L851.5384615384615,212.41055690150597L855,217.62168074375646L858.4615384615385,217.61673823205115L861.9230769230769,224.64369924677095L865.3846153846154,224.54212454212447L868.8461538461538,222.81738963841934L872.3076923076923,221.6336931770598L875.7692307692307,219.56552006714912L879.2307692307692,219.3610028584002L882.6923076923076,242.89078543303384L886.1538461538462,218.95972640498195" style="fill: none; stroke: #2ca02c; stroke-width: 2;"></path></g></g><path class="foreground" d="" style="display: none; fill: none;"></path></g></g><g class="mark-group role-legend"><g transform="translate(918,0)"><path class="background" d="M0,0h101v105h-101Z" style="pointer-events: none; fill: none;"></path><g><g class="mark-group role-legend-entry"><g transform="translate(0,16)"><path class="background" d="M0,0h0v0h0Z" style="pointer-events: none; fill: none;"></path><g><g class="mark-group role-scope"><g transform="translate(0,0)"><path class="background" d="M0,0h101v11h-101Z" style="pointer-events: none; fill: none; opacity: 1;"></path><g><g class="mark-symbol role-legend-symbol" style="pointer-events: none;"><path transform="translate(6,6)" d="M-5,0L5,0" style="fill: none; stroke: #1f77b4; stroke-width: 1.5; opacity: 1;"></path></g><g class="mark-text role-legend-label" style="pointer-events: none;"><text text-anchor="start" transform="translate(16,9)" style="font-family: sans-serif; font-size: 10px; fill: #000; opacity: 1;">Clang-Polly</text></g></g><path class="foreground" d="" style="pointer-events: none; display: none; fill: none;"></path></g><g transform="translate(0,13)"><path class="background" d="M0,0h101v11h-101Z" style="pointer-events: none; fill: none; opacity: 1;"></path><g><g class="mark-symbol role-legend-symbol" style="pointer-events: none;"><path transform="translate(6,6)" d="M-5,0L5,0" style="fill: none; stroke: #aec7e8; stroke-width: 1.5; opacity: 1;"></path></g><g class="mark-text role-legend-label" style="pointer-events: none;"><text text-anchor="start" transform="translate(16,9)" style="font-family: sans-serif; font-size: 10px; fill: #000; opacity: 1;">GFortran</text></g></g><path class="foreground" d="" style="pointer-events: none; display: none; fill: none;"></path></g><g transform="translate(0,26)"><path class="background" d="M0,0h101v11h-101Z" style="pointer-events: none; fill: none; opacity: 1;"></path><g><g class="mark-symbol role-legend-symbol" style="pointer-events: none;"><path transform="translate(6,6)" d="M-5,0L5,0" style="fill: none; stroke: #ff7f0e; stroke-width: 1.5; opacity: 1;"></path></g><g class="mark-text role-legend-label" style="pointer-events: none;"><text text-anchor="start" transform="translate(16,9)" style="font-family: sans-serif; font-size: 10px; fill: #000; opacity: 1;">Julia</text></g></g><path class="foreground" d="" style="pointer-events: none; display: none; fill: none;"></path></g><g transform="translate(0,39)"><path class="background" d="M0,0h101v11h-101Z" style="pointer-events: none; fill: none; opacity: 1;"></path><g><g class="mark-symbol role-legend-symbol" style="pointer-events: none;"><path transform="translate(6,6)" d="M-5,0L5,0" style="fill: none; stroke: #ffbb78; stroke-width: 1.5; opacity: 1;"></path></g><g class="mark-text role-legend-label" style="pointer-events: none;"><text text-anchor="start" transform="translate(16,9)" style="font-family: sans-serif; font-size: 10px; fill: #000; opacity: 1;">Julia-builtin</text></g></g><path class="foreground" d="" style="pointer-events: none; display: none; fill: none;"></path></g><g transform="translate(0,52)"><path class="background" d="M0,0h101v11h-101Z" style="pointer-events: none; fill: none; opacity: 1;"></path><g><g class="mark-symbol role-legend-symbol" style="pointer-events: none;"><path transform="translate(6,6)" d="M-5,0L5,0" style="fill: none; stroke: #2ca02c; stroke-width: 1.5; opacity: 1;"></path></g><g class="mark-text role-legend-label" style="pointer-events: none;"><text text-anchor="start" transform="translate(16,9)" style="font-family: sans-serif; font-size: 10px; fill: #000; opacity: 1;">LoopVectorization</text></g></g><path class="foreground" d="" style="pointer-events: none; display: none; fill: none;"></path></g><g transform="translate(0,65)"><path class="background" d="M0,0h101v11h-101Z" style="pointer-events: none; fill: none; opacity: 1;"></path><g><g class="mark-symbol role-legend-symbol" style="pointer-events: none;"><path transform="translate(6,6)" d="M-5,0L5,0" style="fill: none; stroke: #98df8a; stroke-width: 1.5; opacity: 1;"></path></g><g class="mark-text role-legend-label" style="pointer-events: none;"><text text-anchor="start" transform="translate(16,9)" style="font-family: sans-serif; font-size: 10px; fill: #000; opacity: 1;">icc</text></g></g><path class="foreground" d="" style="pointer-events: none; display: none; fill: none;"></path></g><g transform="translate(0,78)"><path class="background" d="M0,0h101v11h-101Z" style="pointer-events: none; fill: none; opacity: 1;"></path><g><g class="mark-symbol role-legend-symbol" style="pointer-events: none;"><path transform="translate(6,6)" d="M-5,0L5,0" style="fill: none; stroke: #d62728; stroke-width: 1.5; opacity: 1;"></path></g><g class="mark-text role-legend-label" style="pointer-events: none;"><text text-anchor="start" transform="translate(16,9)" style="font-family: sans-serif; font-size: 10px; fill: #000; opacity: 1;">ifort</text></g></g><path class="foreground" d="" style="pointer-events: none; display: none; fill: none;"></path></g></g></g><path class="foreground" d="" style="pointer-events: none; display: none; fill: none;"></path></g></g><g class="mark-text role-legend-title" style="pointer-events: none;"><text text-anchor="start" transform="translate(0,9)" style="font-family: sans-serif; font-size: 11px; font-weight: bold; fill: #000; opacity: 1;">Method</text></g></g><path class="foreground" d="" style="pointer-events: none; display: none; fill: none;"></path></g></g></g><path class="foreground" d="" style="display: none; fill: none;"></path></g></g></g></svg>
