<?xml version="1.0" encoding="utf-8"?>
<!DOCTYPE svg PUBLIC "-//W3C//DTD SVG 1.1//EN" "http://www.w3.org/Graphics/SVG/1.1/DTD/svg11.dtd">
<svg class="marks" width="1066" height="647" viewBox="0 0 1066 647" version="1.1" xmlns="http://www.w3.org/2000/svg" xmlns:xlink="http://www.w3.org/1999/xlink"><rect width="1066" height="647" style="fill: white;"></rect><g transform="translate(42,10)"><g class="mark-group role-frame root"><g transform="translate(0,0)"><path class="background" d="M0.5,0.5h900v600h-900Z" style="fill: none; stroke: #ddd;"></path><g><g class="mark-group role-axis"><g transform="translate(0.5,600.5)"><path class="background" d="M0,0h0v0h0Z" style="pointer-events: none; fill: none;"></path><g><g class="mark-rule role-axis-grid" style="pointer-events: none;"><line transform="translate(0,-600)" x2="0" y2="600" style="fill: none; stroke: #ddd; stroke-width: 1; opacity: 1;"></line><line transform="translate(35,-600)" x2="0" y2="600" style="fill: none; stroke: #ddd; stroke-width: 1; opacity: 1;"></line><line transform="translate(69,-600)" x2="0" y2="600" style="fill: none; stroke: #ddd; stroke-width: 1; opacity: 1;"></line><line transform="translate(104,-600)" x2="0" y2="600" style="fill: none; stroke: #ddd; stroke-width: 1; opacity: 1;"></line><line transform="translate(138,-600)" x2="0" y2="600" style="fill: none; stroke: #ddd; stroke-width: 1; opacity: 1;"></line><line transform="translate(173,-600)" x2="0" y2="600" style="fill: none; stroke: #ddd; stroke-width: 1; opacity: 1;"></line><line transform="translate(208,-600)" x2="0" y2="600" style="fill: none; stroke: #ddd; stroke-width: 1; opacity: 1;"></line><line transform="translate(242,-600)" x2="0" y2="600" style="fill: none; stroke: #ddd; stroke-width: 1; opacity: 1;"></line><line transform="translate(277,-600)" x2="0" y2="600" style="fill: none; stroke: #ddd; stroke-width: 1; opacity: 1;"></line><line transform="translate(312,-600)" x2="0" y2="600" style="fill: none; stroke: #ddd; stroke-width: 1; opacity: 1;"></line><line transform="translate(346,-600)" x2="0" y2="600" style="fill: none; stroke: #ddd; stroke-width: 1; opacity: 1;"></line><line transform="translate(381,-600)" x2="0" y2="600" style="fill: none; stroke: #ddd; stroke-width: 1; opacity: 1;"></line><line transform="translate(415,-600)" x2="0" y2="600" style="fill: none; stroke: #ddd; stroke-width: 1; opacity: 1;"></line><line transform="translate(450,-600)" x2="0" y2="600" style="fill: none; stroke: #ddd; stroke-width: 1; opacity: 1;"></line><line transform="translate(485,-600)" x2="0" y2="600" style="fill: none; stroke: #ddd; stroke-width: 1; opacity: 1;"></line><line transform="translate(519,-600)" x2="0" y2="600" style="fill: none; stroke: #ddd; stroke-width: 1; opacity: 1;"></line><line transform="translate(554,-600)" x2="0" y2="600" style="fill: none; stroke: #ddd; stroke-width: 1; opacity: 1;"></line><line transform="translate(588,-600)" x2="0" y2="600" style="fill: none; stroke: #ddd; stroke-width: 1; opacity: 1;"></line><line transform="translate(623,-600)" x2="0" y2="600" style="fill: none; stroke: #ddd; stroke-width: 1; opacity: 1;"></line><line transform="translate(658,-600)" x2="0" y2="600" style="fill: none; stroke: #ddd; stroke-width: 1; opacity: 1;"></line><line transform="translate(692,-600)" x2="0" y2="600" style="fill: none; stroke: #ddd; stroke-width: 1; opacity: 1;"></line><line transform="translate(727,-600)" x2="0" y2="600" style="fill: none; stroke: #ddd; stroke-width: 1; opacity: 1;"></line><line transform="translate(762,-600)" x2="0" y2="600" style="fill: none; stroke: #ddd; stroke-width: 1; opacity: 1;"></line><line transform="translate(796,-600)" x2="0" y2="600" style="fill: none; stroke: #ddd; stroke-width: 1; opacity: 1;"></line><line transform="translate(831,-600)" x2="0" y2="600" style="fill: none; stroke: #ddd; stroke-width: 1; opacity: 1;"></line><line transform="translate(865,-600)" x2="0" y2="600" style="fill: none; stroke: #ddd; stroke-width: 1; opacity: 1;"></line><line transform="translate(900,-600)" x2="0" y2="600" style="fill: none; stroke: #ddd; stroke-width: 1; opacity: 1;"></line></g></g><path class="foreground" d="" style="pointer-events: none; display: none; fill: none;"></path></g></g><g class="mark-group role-axis"><g transform="translate(0.5,0.5)"><path class="background" d="M0,0h0v0h0Z" style="pointer-events: none; fill: none;"></path><g><g class="mark-rule role-axis-grid" style="pointer-events: none;"><line transform="translate(0,600)" x2="900" y2="0" style="fill: none; stroke: #ddd; stroke-width: 1; opacity: 1;"></line><line transform="translate(0,554)" x2="900" y2="0" style="fill: none; stroke: #ddd; stroke-width: 1; opacity: 1;"></line><line transform="translate(0,508)" x2="900" y2="0" style="fill: none; stroke: #ddd; stroke-width: 1; opacity: 1;"></line><line transform="translate(0,462)" x2="900" y2="0" style="fill: none; stroke: #ddd; stroke-width: 1; opacity: 1;"></line><line transform="translate(0,415)" x2="900" y2="0" style="fill: none; stroke: #ddd; stroke-width: 1; opacity: 1;"></line><line transform="translate(0,369)" x2="900" y2="0" style="fill: none; stroke: #ddd; stroke-width: 1; opacity: 1;"></line><line transform="translate(0,323)" x2="900" y2="0" style="fill: none; stroke: #ddd; stroke-width: 1; opacity: 1;"></line><line transform="translate(0,277)" x2="900" y2="0" style="fill: none; stroke: #ddd; stroke-width: 1; opacity: 1;"></line><line transform="translate(0,231)" x2="900" y2="0" style="fill: none; stroke: #ddd; stroke-width: 1; opacity: 1;"></line><line transform="translate(0,185)" x2="900" y2="0" style="fill: none; stroke: #ddd; stroke-width: 1; opacity: 1;"></line><line transform="translate(0,138)" x2="900" y2="0" style="fill: none; stroke: #ddd; stroke-width: 1; opacity: 1;"></line><line transform="translate(0,92)" x2="900" y2="0" style="fill: none; stroke: #ddd; stroke-width: 1; opacity: 1;"></line><line transform="translate(0,46)" x2="900" y2="0" style="fill: none; stroke: #ddd; stroke-width: 1; opacity: 1;"></line><line transform="translate(0,0)" x2="900" y2="0" style="fill: none; stroke: #ddd; stroke-width: 1; opacity: 1;"></line></g></g><path class="foreground" d="" style="pointer-events: none; display: none; fill: none;"></path></g></g><g class="mark-group role-axis"><g transform="translate(0.5,600.5)"><path class="background" d="M0,0h0v0h0Z" style="pointer-events: none; fill: none;"></path><g><g class="mark-rule role-axis-tick" style="pointer-events: none;"><line transform="translate(0,0)" x2="0" y2="5" style="fill: none; stroke: #888; stroke-width: 1; opacity: 1;"></line><line transform="translate(35,0)" x2="0" y2="5" style="fill: none; stroke: #888; stroke-width: 1; opacity: 1;"></line><line transform="translate(69,0)" x2="0" y2="5" style="fill: none; stroke: #888; stroke-width: 1; opacity: 1;"></line><line transform="translate(104,0)" x2="0" y2="5" style="fill: none; stroke: #888; stroke-width: 1; opacity: 1;"></line><line transform="translate(138,0)" x2="0" y2="5" style="fill: none; stroke: #888; stroke-width: 1; opacity: 1;"></line><line transform="translate(173,0)" x2="0" y2="5" style="fill: none; stroke: #888; stroke-width: 1; opacity: 1;"></line><line transform="translate(208,0)" x2="0" y2="5" style="fill: none; stroke: #888; stroke-width: 1; opacity: 1;"></line><line transform="translate(242,0)" x2="0" y2="5" style="fill: none; stroke: #888; stroke-width: 1; opacity: 1;"></line><line transform="translate(277,0)" x2="0" y2="5" style="fill: none; stroke: #888; stroke-width: 1; opacity: 1;"></line><line transform="translate(312,0)" x2="0" y2="5" style="fill: none; stroke: #888; stroke-width: 1; opacity: 1;"></line><line transform="translate(346,0)" x2="0" y2="5" style="fill: none; stroke: #888; stroke-width: 1; opacity: 1;"></line><line transform="translate(381,0)" x2="0" y2="5" style="fill: none; stroke: #888; stroke-width: 1; opacity: 1;"></line><line transform="translate(415,0)" x2="0" y2="5" style="fill: none; stroke: #888; stroke-width: 1; opacity: 1;"></line><line transform="translate(450,0)" x2="0" y2="5" style="fill: none; stroke: #888; stroke-width: 1; opacity: 1;"></line><line transform="translate(485,0)" x2="0" y2="5" style="fill: none; stroke: #888; stroke-width: 1; opacity: 1;"></line><line transform="translate(519,0)" x2="0" y2="5" style="fill: none; stroke: #888; stroke-width: 1; opacity: 1;"></line><line transform="translate(554,0)" x2="0" y2="5" style="fill: none; stroke: #888; stroke-width: 1; opacity: 1;"></line><line transform="translate(588,0)" x2="0" y2="5" style="fill: none; stroke: #888; stroke-width: 1; opacity: 1;"></line><line transform="translate(623,0)" x2="0" y2="5" style="fill: none; stroke: #888; stroke-width: 1; opacity: 1;"></line><line transform="translate(658,0)" x2="0" y2="5" style="fill: none; stroke: #888; stroke-width: 1; opacity: 1;"></line><line transform="translate(692,0)" x2="0" y2="5" style="fill: none; stroke: #888; stroke-width: 1; opacity: 1;"></line><line transform="translate(727,0)" x2="0" y2="5" style="fill: none; stroke: #888; stroke-width: 1; opacity: 1;"></line><line transform="translate(762,0)" x2="0" y2="5" style="fill: none; stroke: #888; stroke-width: 1; opacity: 1;"></line><line transform="translate(796,0)" x2="0" y2="5" style="fill: none; stroke: #888; stroke-width: 1; opacity: 1;"></line><line transform="translate(831,0)" x2="0" y2="5" style="fill: none; stroke: #888; stroke-width: 1; opacity: 1;"></line><line transform="translate(865,0)" x2="0" y2="5" style="fill: none; stroke: #888; stroke-width: 1; opacity: 1;"></line><line transform="translate(900,0)" x2="0" y2="5" style="fill: none; stroke: #888; stroke-width: 1; opacity: 1;"></line></g><g class="mark-text role-axis-label" style="pointer-events: none;"><text text-anchor="start" transform="translate(0,15)" style="font-family: sans-serif; font-size: 10px; fill: #000; opacity: 1;">0</text><text text-anchor="middle" transform="translate(34.61538461538462,15)" style="font-family: sans-serif; font-size: 10px; fill: #000; opacity: 1;">10</text><text text-anchor="middle" transform="translate(69.23076923076924,15)" style="font-family: sans-serif; font-size: 10px; fill: #000; opacity: 1;">20</text><text text-anchor="middle" transform="translate(103.84615384615385,15)" style="font-family: sans-serif; font-size: 10px; fill: #000; opacity: 1;">30</text><text text-anchor="middle" transform="translate(138.46153846153848,15)" style="font-family: sans-serif; font-size: 10px; fill: #000; opacity: 1;">40</text><text text-anchor="middle" transform="translate(173.0769230769231,15)" style="font-family: sans-serif; font-size: 10px; fill: #000; opacity: 1;">50</text><text text-anchor="middle" transform="translate(207.6923076923077,15)" style="font-family: sans-serif; font-size: 10px; fill: #000; opacity: 1;">60</text><text text-anchor="middle" transform="translate(242.3076923076923,15)" style="font-family: sans-serif; font-size: 10px; fill: #000; opacity: 1;">70</text><text text-anchor="middle" transform="translate(276.92307692307696,15)" style="font-family: sans-serif; font-size: 10px; fill: #000; opacity: 1;">80</text><text text-anchor="middle" transform="translate(311.53846153846155,15)" style="font-family: sans-serif; font-size: 10px; fill: #000; opacity: 1;">90</text><text text-anchor="middle" transform="translate(346.1538461538462,15)" style="font-family: sans-serif; font-size: 10px; fill: #000; opacity: 1;">100</text><text text-anchor="middle" transform="translate(380.7692307692308,15)" style="font-family: sans-serif; font-size: 10px; fill: #000; opacity: 1;">110</text><text text-anchor="middle" transform="translate(415.3846153846154,15)" style="font-family: sans-serif; font-size: 10px; fill: #000; opacity: 1;">120</text><text text-anchor="middle" transform="translate(450,15)" style="font-family: sans-serif; font-size: 10px; fill: #000; opacity: 1;">130</text><text text-anchor="middle" transform="translate(484.6153846153846,15)" style="font-family: sans-serif; font-size: 10px; fill: #000; opacity: 1;">140</text><text text-anchor="middle" transform="translate(519.2307692307692,15)" style="font-family: sans-serif; font-size: 10px; fill: #000; opacity: 1;">150</text><text text-anchor="middle" transform="translate(553.8461538461539,15)" style="font-family: sans-serif; font-size: 10px; fill: #000; opacity: 1;">160</text><text text-anchor="middle" transform="translate(588.4615384615385,15)" style="font-family: sans-serif; font-size: 10px; fill: #000; opacity: 1;">170</text><text text-anchor="middle" transform="translate(623.0769230769231,15)" style="font-family: sans-serif; font-size: 10px; fill: #000; opacity: 1;">180</text><text text-anchor="middle" transform="translate(657.6923076923076,15)" style="font-family: sans-serif; font-size: 10px; fill: #000; opacity: 1;">190</text><text text-anchor="middle" transform="translate(692.3076923076924,15)" style="font-family: sans-serif; font-size: 10px; fill: #000; opacity: 1;">200</text><text text-anchor="middle" transform="translate(726.9230769230769,15)" style="font-family: sans-serif; font-size: 10px; fill: #000; opacity: 1;">210</text><text text-anchor="middle" transform="translate(761.5384615384615,15)" style="font-family: sans-serif; font-size: 10px; fill: #000; opacity: 1;">220</text><text text-anchor="middle" transform="translate(796.1538461538461,15)" style="font-family: sans-serif; font-size: 10px; fill: #000; opacity: 1;">230</text><text text-anchor="middle" transform="translate(830.7692307692308,15)" style="font-family: sans-serif; font-size: 10px; fill: #000; opacity: 1;">240</text><text text-anchor="middle" transform="translate(865.3846153846154,15)" style="font-family: sans-serif; font-size: 10px; fill: #000; opacity: 1;">250</text><text text-anchor="end" transform="translate(900,15)" style="font-family: sans-serif; font-size: 10px; fill: #000; opacity: 1;">260</text></g><g class="mark-rule role-axis-domain" style="pointer-events: none;"><line transform="translate(0,0)" x2="900" y2="0" style="fill: none; stroke: #888; stroke-width: 1; opacity: 1;"></line></g><g class="mark-text role-axis-title" style="pointer-events: none;"><text text-anchor="middle" transform="translate(450,30)" style="font-family: sans-serif; font-size: 11px; font-weight: bold; fill: #000; opacity: 1;">Size</text></g></g><path class="foreground" d="" style="pointer-events: none; display: none; fill: none;"></path></g></g><g class="mark-group role-axis"><g transform="translate(0.5,0.5)"><path class="background" d="M0,0h0v0h0Z" style="pointer-events: none; fill: none;"></path><g><g class="mark-rule role-axis-tick" style="pointer-events: none;"><line transform="translate(0,600)" x2="-5" y2="0" style="fill: none; stroke: #888; stroke-width: 1; opacity: 1;"></line><line transform="translate(0,554)" x2="-5" y2="0" style="fill: none; stroke: #888; stroke-width: 1; opacity: 1;"></line><line transform="translate(0,508)" x2="-5" y2="0" style="fill: none; stroke: #888; stroke-width: 1; opacity: 1;"></line><line transform="translate(0,462)" x2="-5" y2="0" style="fill: none; stroke: #888; stroke-width: 1; opacity: 1;"></line><line transform="translate(0,415)" x2="-5" y2="0" style="fill: none; stroke: #888; stroke-width: 1; opacity: 1;"></line><line transform="translate(0,369)" x2="-5" y2="0" style="fill: none; stroke: #888; stroke-width: 1; opacity: 1;"></line><line transform="translate(0,323)" x2="-5" y2="0" style="fill: none; stroke: #888; stroke-width: 1; opacity: 1;"></line><line transform="translate(0,277)" x2="-5" y2="0" style="fill: none; stroke: #888; stroke-width: 1; opacity: 1;"></line><line transform="translate(0,231)" x2="-5" y2="0" style="fill: none; stroke: #888; stroke-width: 1; opacity: 1;"></line><line transform="translate(0,185)" x2="-5" y2="0" style="fill: none; stroke: #888; stroke-width: 1; opacity: 1;"></line><line transform="translate(0,138)" x2="-5" y2="0" style="fill: none; stroke: #888; stroke-width: 1; opacity: 1;"></line><line transform="translate(0,92)" x2="-5" y2="0" style="fill: none; stroke: #888; stroke-width: 1; opacity: 1;"></line><line transform="translate(0,46)" x2="-5" y2="0" style="fill: none; stroke: #888; stroke-width: 1; opacity: 1;"></line><line transform="translate(0,0)" x2="-5" y2="0" style="fill: none; stroke: #888; stroke-width: 1; opacity: 1;"></line></g><g class="mark-text role-axis-label" style="pointer-events: none;"><text text-anchor="end" transform="translate(-7,603)" style="font-family: sans-serif; font-size: 10px; fill: #000; opacity: 1;">0.0</text><text text-anchor="end" transform="translate(-7,556.8461538461539)" style="font-family: sans-serif; font-size: 10px; fill: #000; opacity: 1;">0.1</text><text text-anchor="end" transform="translate(-7,510.6923076923077)" style="font-family: sans-serif; font-size: 10px; fill: #000; opacity: 1;">0.2</text><text text-anchor="end" transform="translate(-7,464.53846153846155)" style="font-family: sans-serif; font-size: 10px; fill: #000; opacity: 1;">0.3</text><text text-anchor="end" transform="translate(-7,418.38461538461536)" style="font-family: sans-serif; font-size: 10px; fill: #000; opacity: 1;">0.4</text><text text-anchor="end" transform="translate(-7,372.2307692307692)" style="font-family: sans-serif; font-size: 10px; fill: #000; opacity: 1;">0.5</text><text text-anchor="end" transform="translate(-7,326.07692307692315)" style="font-family: sans-serif; font-size: 10px; fill: #000; opacity: 1;">0.6</text><text text-anchor="end" transform="translate(-7,279.92307692307696)" style="font-family: sans-serif; font-size: 10px; fill: #000; opacity: 1;">0.7</text><text text-anchor="end" transform="translate(-7,233.76923076923075)" style="font-family: sans-serif; font-size: 10px; fill: #000; opacity: 1;">0.8</text><text text-anchor="end" transform="translate(-7,187.6153846153846)" style="font-family: sans-serif; font-size: 10px; fill: #000; opacity: 1;">0.9</text><text text-anchor="end" transform="translate(-7,141.4615384615385)" style="font-family: sans-serif; font-size: 10px; fill: #000; opacity: 1;">1.0</text><text text-anchor="end" transform="translate(-7,95.3076923076923)" style="font-family: sans-serif; font-size: 10px; fill: #000; opacity: 1;">1.1</text><text text-anchor="end" transform="translate(-7,49.15384615384619)" style="font-family: sans-serif; font-size: 10px; fill: #000; opacity: 1;">1.2</text><text text-anchor="end" transform="translate(-7,3)" style="font-family: sans-serif; font-size: 10px; fill: #000; opacity: 1;">1.3</text></g><g class="mark-rule role-axis-domain" style="pointer-events: none;"><line transform="translate(0,600)" x2="0" y2="-600" style="fill: none; stroke: #888; stroke-width: 1; opacity: 1;"></line></g><g class="mark-text role-axis-title" style="pointer-events: none;"><text text-anchor="middle" transform="translate(-26,300) rotate(-90) translate(0,-2)" style="font-family: sans-serif; font-size: 11px; font-weight: bold; fill: #000; opacity: 1;">GFLOPS</text></g></g><path class="foreground" d="" style="pointer-events: none; display: none; fill: none;"></path></g></g><g class="mark-group role-scope pathgroup"><g transform="translate(0,0)"><path class="background" d="M0,0h900v600h-900Z" style="fill: none;"></path><g><g class="mark-line role-mark marks"><path d="M6.923076923076923,550.7224409773136L10.384615384615385,544.1375248885274L13.846153846153847,542.1127673993252L17.30769230769231,540.4187504754889L20.76923076923077,539.0110624244147L24.230769230769234,538.025907178179L27.692307692307693,537.3136707851734L31.153846153846157,536.6254926970548L34.61538461538462,536.0498806549246L38.07692307692308,535.9403842895116L41.53846153846154,535.3350972158167L45,535.3176486541461L48.46153846153847,536.2455041188073L51.92307692307693,536.739173364627L55.38461538461539,534.32766793849L58.84615384615385,536.2089826584231L62.307692307692314,535.3708369074072L65.76923076923077,535.0615337473123L69.23076923076924,534.974626190265L72.6923076923077,534.7146158870522L76.15384615384616,534.5925911244128L79.61538461538461,534.7432201822162L83.07692307692308,534.3302210594533L86.53846153846155,535.959004073189L90,534.1726879485755L93.46153846153847,533.9393250766958L96.92307692307693,533.8802845202506L100.38461538461539,533.8304572661593L103.84615384615385,533.707580865498L107.3076923076923,533.631277754235L110.76923076923077,533.5520406338921L114.23076923076923,533.4997490359855L117.6923076923077,533.5058322919909L121.15384615384615,533.7609084218274L124.61538461538463,533.6718310824141L128.07692307692307,533.5854089857455L131.53846153846155,533.9242059223569L135,533.3467412779348L138.46153846153848,533.476825781124L141.9230769230769,533.8493387508498L145.3846153846154,532.9226177871627L148.84615384615384,533.1962413100619L152.30769230769232,533.3448464962113L155.76923076923077,532.8928967744863L159.23076923076923,532.9853101857473L162.69230769230768,531.5832597337646L166.15384615384616,533.459388614618L169.6153846153846,533.4831797918748L173.0769230769231,532.7248811005711L176.53846153846155,532.6601283850555L180,533.3289238706263L183.46153846153845,532.6030227968156L186.92307692307693,532.5792984182237L190.3846153846154,532.8703031007526L193.84615384615387,533.3015199993741L197.3076923076923,532.4909846562384L200.76923076923077,532.5026922497944L204.23076923076923,532.7220031358388L207.6923076923077,532.3923245847893L211.15384615384616,532.8794984531708L214.6153846153846,532.3850729828004L218.07692307692307,534.8368352454328L221.53846153846155,532.5543684600837L225,532.7742505007978L228.46153846153845,530.3425103376351L231.9230769230769,532.930604169966L235.3846153846154,532.8678655107484L238.84615384615384,532.6276495315968L242.3076923076923,532.8923401399674L245.76923076923075,532.6906787943549L249.23076923076925,532.7284285961972L252.6923076923077,532.8852346563518L256.15384615384613,532.2720310328966L259.6153846153846,532.6446561252435L263.0769230769231,532.8237162454523L266.53846153846155,532.6150621994143L270,532.7973450802995L273.46153846153845,532.5928368920935L276.92307692307696,532.5697616030224L280.3846153846154,532.8089124299349L283.8461538461538,532.5601435041904L287.30769230769226,532.9252670706337L290.7692307692308,532.5387072990907L294.2307692307692,532.6609396975833L297.6923076923077,532.6748203973259L301.15384615384613,532.5126326363261L304.61538461538464,532.9454054946079L308.0769230769231,532.6182335489974L311.53846153846155,533.0904382067779L315,531.1022307846373L318.46153846153845,532.7802363579839L321.9230769230769,532.7425298175932L325.38461538461536,532.5290785661781L328.8461538461538,533.256889576851L332.3076923076923,532.5485490405849L335.7692307692308,532.4093653106614L339.2307692307692,532.3150767493254L342.6923076923077,532.5089642757013L346.1538461538462,532.5144691659652L349.61538461538464,532.0395656866567L353.0769230769231,532.9978461203937L356.53846153846155,532.3797539947155L360,532.6038772828932L363.46153846153845,532.4196951472009L366.9230769230769,532.3775308061646L370.38461538461536,532.3470121579422L373.84615384615387,532.3379484987009L377.3076923076923,532.109116328521L380.7692307692308,530.2029226644858L384.2307692307692,532.3377019201463L387.69230769230774,532.4700856730975L391.1538461538462,532.7752428749875L394.6153846153846,532.4994763179332L398.07692307692304,532.1130792766445L401.53846153846155,530.7245945543818L405,532.2751608161504L408.46153846153845,532.3883712364088L411.9230769230769,532.284136662443L415.3846153846154,532.3763117931819L418.84615384615387,532.3626946426971L422.3076923076923,532.5284254570813L425.7692307692308,532.3504697884042L429.2307692307692,532.3687153929152L432.6923076923077,532.4637760253227L436.15384615384613,532.318319914055L439.6153846153846,536.6872152238006L443.0769230769231,532.327404039926L446.53846153846155,532.1959659227788L450,532.6630815992518L453.46153846153845,532.3367368326496L456.9230769230769,531.8835043112846L460.38461538461536,532.7017681949793L463.8461538461538,532.5743757469023L467.3076923076923,532.7108732482296L470.7692307692308,532.4247344343256L474.2307692307692,530.9949901211545L477.6923076923077,532.8755921497857L481.15384615384613,532.6143374712763L484.6153846153846,532.5663540432505L488.07692307692304,532.6509320517708L491.5384615384615,532.9262959010514L495.00000000000006,533.1046312178387L498.4615384615385,532.6578332034295L501.92307692307696,533.1660350302161L505.3846153846154,532.937285644292L508.8461538461538,532.97159272263L512.3076923076923,532.8869205072782L515.7692307692307,533.025680980492L519.2307692307692,533.406339716459L522.6923076923077,533.2577018844017L526.1538461538462,533.2440325874525L529.6153846153846,533.8559529642332L533.0769230769231,533.2234845199896L536.5384615384615,533.5020807413446L540,533.3518467092474L543.4615384615385,534.601499583449L546.9230769230769,531.8412216813937L550.3846153846155,535.3382541328616L553.8461538461539,533.4059393577835L557.3076923076924,533.8958346164111L560.7692307692308,534.3726579748699L564.2307692307692,533.6355246729275L567.6923076923076,533.4690096753909L571.1538461538461,532.7500475504714L574.6153846153845,534.5391450654608L578.0769230769231,533.335994571075L581.5384615384615,533.563138087172L585,534.227169238553L588.4615384615385,536.8315445925945L591.9230769230769,535.0587699143612L595.3846153846154,533.6026970687392L598.8461538461538,533.6881041058435L602.3076923076923,533.9520583043899L605.7692307692308,534.8950259799849L609.2307692307693,534.3324420123126L612.6923076923077,534.2251950947604L616.1538461538462,534.0129749768304L619.6153846153846,534.3697294126274L623.0769230769231,533.6181197947078L626.5384615384615,534.5001869700004L630,534.4569288389513L633.4615384615385,534.3273940894654L636.9230769230769,534.6393620233381L640.3846153846154,535.4369637923513L643.8461538461538,535.3227199230363L647.3076923076923,535.470884255931L650.7692307692307,535.7740704890964L654.2307692307692,535.2407058420422L657.6923076923076,535.037923037034L661.1538461538462,543.0052071158943L664.6153846153846,536.3989201066644L668.0769230769231,536.4507932675158L671.5384615384615,538.330145644699L675,536.4002543989824L678.4615384615385,541.2014699632509L681.9230769230769,537.5571204429112L685.3846153846154,537.4420759962928L688.8461538461538,537.3063796271988L692.3076923076924,537.642577647982L695.7692307692308,537.7220523837066L699.2307692307693,538.0855563615559L702.6923076923077,537.5759159888682L706.1538461538462,543.0681786468459L709.6153846153846,537.8634106420276L713.0769230769231,538.2015449613759L716.5384615384615,543.114938053908L720,538.2874775006428L723.4615384615385,538.6884011558263L726.9230769230769,538.5512731103297L730.3846153846154,538.148862886875L733.8461538461538,538.4770159418047L737.3076923076923,537.8625293548497L740.7692307692307,538.1067610169001L744.2307692307692,538.2547637167761L747.6923076923077,535.5201424925247L751.1538461538462,538.0695979756083L754.6153846153846,539.2969021928297L758.0769230769231,538.4090408403368L761.5384615384615,538.3943322785697L765,536.1102411525211L768.4615384615385,538.8325840477951L771.9230769230769,545.4827708442837L775.3846153846155,538.2852104915142L778.8461538461539,536.0907416787779L782.3076923076924,538.7290341237709L785.7692307692308,538.6848301227653L789.2307692307692,538.5908209437621L792.6923076923076,538.6579758024911L796.1538461538461,538.8901927615876L799.6153846153845,538.5324966184003L803.0769230769231,540.4466501240695L806.5384615384615,539.1096418444813L810,538.8483098352301L813.4615384615385,538.5800223899777L816.9230769230769,538.4789172984598L820.3846153846154,538.7304008376097L823.8461538461538,544.112870085905L827.3076923076923,544.4545584834623L830.7692307692308,543.3347499645843L834.2307692307693,538.6211404752405L837.6923076923077,539.3306313458405L841.1538461538462,538.9106998453913L844.6153846153846,540.7318643148336L848.0769230769231,539.4403796717421L851.5384615384615,539.4687521786738L855,539.047211677271L858.4615384615385,540.2726265594143L861.9230769230769,539.1909217825933L865.3846153846154,541.5270788098031L868.8461538461538,539.7607228713256L872.3076923076923,539.2395296689518L875.7692307692307,538.6684012977411L879.2307692307692,539.0375615024601L882.6923076923076,545.4482788674477L886.1538461538462,539.0739719724405" style="fill: none; stroke: #ffbb78; stroke-width: 2;"></path></g></g><path class="foreground" d="" style="display: none; fill: none;"></path></g><g transform="translate(0,0)"><path class="background" d="M0,0h900v600h-900Z" style="fill: none;"></path><g><g class="mark-line role-mark marks"><path d="M6.923076923076923,528.0691227649106L10.384615384615385,525.2390176841842L13.846153846153847,525.7028362351126L17.30769230769231,525.3183736335292L20.76923076923077,525.0620076633498L24.230769230769234,524.9963435311197L27.692307692307693,524.8317377107443L31.153846153846157,524.7785230338876L34.61538461538462,524.6803136144877L38.07692307692308,524.6280319385821L41.53846153846154,524.5745366926102L45,524.5537917954847L48.46153846153847,526.6698484335976L51.92307692307693,524.4801254007738L55.38461538461539,524.4497777836873L58.84615384615385,526.5104173496757L62.307692307692314,526.7543736920161L65.76923076923077,527.3741525649923L69.23076923076924,526.9379743219297L72.6923076923077,527.1499198483925L76.15384615384616,526.9876080775539L79.61538461538461,526.8571876196336L83.07692307692308,527.1542141180763L86.53846153846155,527.5862142299646L90,526.5694933103564L93.46153846153847,526.5601680124843L96.92307692307693,526.4292431455286L100.38461538461539,526.7126030394187L103.84615384615385,526.3289032430639L107.3076923076923,526.2345465630048L110.76923076923077,526.1240474502966L114.23076923076923,526.1441809246402L117.6923076923077,526.5264246360655L121.15384615384615,526.0190054017869L124.61538461538463,525.7154680955813L128.07692307692307,525.6558929904128L131.53846153846155,525.6639266519128L135,525.6251466582328L138.46153846153848,525.5583126550869L141.9230769230769,525.5813091231447L145.3846153846154,525.5221403865929L148.84615384615384,525.6517317060114L152.30769230769232,525.6888531451915L155.76923076923077,521.8772297417657L159.23076923076923,525.4049049591093L162.69230769230768,525.402068618149L166.15384615384616,525.3655616001207L169.6153846153846,536.611261435382L173.0769230769231,525.3510641552534L176.53846153846155,525.3007406888581L180,525.2607417549228L183.46153846153845,525.415095690726L186.92307692307693,525.6237572162886L190.3846153846154,525.8182750051421L193.84615384615387,525.4254435090508L197.3076923076923,525.3981973083097L200.76923076923077,525.3497316042964L204.23076923076923,525.4893706588086L207.6923076923077,525.323462389347L211.15384615384616,525.2640292601775L214.6153846153846,525.2669778728264L218.07692307692307,527.1665775516988L221.53846153846155,525.3150336587447L225,525.2345765161805L228.46153846153845,525.4490003388681L231.9230769230769,521.8241233333463L235.3846153846154,525.6424974095308L238.84615384615384,525.204066902895L242.3076923076923,524.7506318047874L245.76923076923075,524.7662659457376L249.23076923076925,524.7639638244985L252.6923076923077,524.8659527297647L256.15384615384613,524.8015323746821L259.6153846153846,524.8470236369462L263.0769230769231,524.7004268964117L266.53846153846155,524.7212962116237L270,524.9736833710804L273.46153846153845,524.6973596415976L276.92307692307696,521.2814088193226L280.3846153846154,539.0572370985287L283.8461538461538,524.6512513688086L287.30769230769226,539.1024849029742L290.7692307692308,524.9552141577547L294.2307692307692,524.7615053260141L297.6923076923077,524.6166237187327L301.15384615384613,525.042452238857L304.61538461538464,525.0389858569226L308.0769230769231,525.120607197945L311.53846153846155,530.0058891985336L315,525.0079196705417L318.46153846153845,522.0010275148195L321.9230769230769,525.0015013426292L325.38461538461536,524.9843242318874L328.8461538461538,525.1242667193078L332.3076923076923,524.9848602256966L335.7692307692308,524.943977499712L339.2307692307692,524.952462537884L342.6923076923077,524.9560890246746L346.1538461538462,524.8020110420035L349.61538461538464,521.2384585914778L353.0769230769231,529.8835210998664L356.53846153846155,524.9320239574671L360,524.8396654539999L363.46153846153845,524.9053460602939L366.9230769230769,524.8564256715176L370.38461538461536,524.9098259722995L373.84615384615387,524.8122714966468L377.3076923076923,524.9160334593776L380.7692307692308,524.8838781912712L384.2307692307692,524.8472710560435L387.69230769230774,524.9756107795109L391.1538461538462,525.1402585034953L394.6153846153846,524.9180139232495L398.07692307692304,524.8329685453821L401.53846153846155,524.8002506658311L405,524.851389336897L408.46153846153845,524.8171781241382L411.9230769230769,524.7644938989695L415.3846153846154,524.8143175115052L418.84615384615387,524.8964472976186L422.3076923076923,525.0625289076517L425.7692307692308,524.9041799043496L429.2307692307692,524.9028956008178L432.6923076923077,524.9071148366403L436.15384615384613,524.9338118000128L439.6153846153846,528.2502960078444L443.0769230769231,524.981203860658L446.53846153846155,524.8977458036422L450,525.2431606870127L453.46153846153845,524.8648058119845L456.9230769230769,524.876937250263L460.38461538461536,525.1572078307297L463.8461538461538,521.0710983072294L467.3076923076923,525.0599848805233L470.7692307692308,524.8968251728171L474.2307692307692,525.1415792082493L477.6923076923077,524.6402261435668L481.15384615384613,524.742208841601L484.6153846153846,524.5413233216077L488.07692307692304,524.6460546805994L491.5384615384615,524.8548205159152L495.00000000000006,524.8081511575417L498.4615384615385,524.6928881846279L501.92307692307696,524.8670870703381L505.3846153846154,524.8416163420346L508.8461538461538,521.309553144304L512.3076923076923,524.809483488569L515.7692307692307,524.7801596812742L519.2307692307692,524.9518630636823L522.6923076923077,525.0256267885363L526.1538461538462,524.7354479747628L529.6153846153846,525.0917992656059L533.0769230769231,525.0464809160553L536.5384615384615,525.6320136474584L540,525.5996084189917L543.4615384615385,530.5790970860908L546.9230769230769,525.6065585878356L550.3846153846155,529.6678020082276L553.8461538461539,525.5395474200617L557.3076923076924,525.6799210124765L560.7692307692308,530.5312359293591L564.2307692307692,525.7639932595528L567.6923076923076,525.7627425536409L571.1538461538461,525.3686337183005L574.6153846153845,530.6397025028203L578.0769230769231,525.6014256014256L581.5384615384615,525.8430934023895L585,525.9610821072615L588.4615384615385,528.3652529338642L591.9230769230769,530.7631573619818L595.3846153846154,525.5862247988232L598.8461538461538,525.7659410132449L602.3076923076923,525.9290792218296L605.7692307692308,526.9387329088821L609.2307692307693,525.9181311164896L612.6923076923077,526.0301451536511L616.1538461538462,525.8873737899448L619.6153846153846,526.0050294533053L623.0769230769231,525.618297898717L626.5384615384615,526.176686516029L630,525.9846682527095L633.4615384615385,526.2409060679954L636.9230769230769,526.314033038545L640.3846153846154,526.821550064608L643.8461538461538,526.8335857443502L647.3076923076923,526.9321941181067L650.7692307692307,527.1214255255915L654.2307692307692,527.113327848622L657.6923076923076,526.8682280941475L661.1538461538462,534.0807252270648L664.6153846153846,527.8846153846154L668.0769230769231,524.5686145508315L671.5384615384615,529.4528352202477L675,527.7050365491205L678.4615384615385,531.6962107659782L681.9230769230769,528.7101482491164L685.3846153846154,528.7004639271161L688.8461538461538,528.4965715483427L692.3076923076924,528.7914122443167L695.7692307692308,528.9070191055017L699.2307692307693,529.1236359808657L702.6923076923077,525.4279626772463L706.1538461538462,533.8667934579995L709.6153846153846,529.2806752258131L713.0769230769231,529.6872333405391L716.5384615384615,533.7136879633237L720,529.3961903361036L723.4615384615385,529.6363422120224L726.9230769230769,529.5104895104895L730.3846153846154,526.0276373835053L733.8461538461538,529.2405598451303L737.3076923076923,528.9427594451085L740.7692307692307,560.3129221002006L744.2307692307692,529.0550016223856L747.6923076923077,529.3863807250973L751.1538461538462,529.1096785434271L754.6153846153846,530.0990797447654L758.0769230769231,529.5238299561266L761.5384615384615,529.1625076472293L765,529.1420632163946L768.4615384615385,529.4293419233154L771.9230769230769,536.8763710990022L775.3846153846155,528.9501646727954L778.8461538461539,528.9843713012693L782.3076923076924,528.984414278532L785.7692307692308,529.0277531708232L789.2307692307692,529.0036639921946L792.6923076923076,528.9893122196266L796.1538461538461,529.1031549096065L799.6153846153845,529.0838202638123L803.0769230769231,529.396727497743L806.5384615384615,529.148463869771L810,529.1245570284815L813.4615384615385,529.1795374067656L816.9230769230769,525.6142341575654L820.3846153846154,529.1045334210802L823.8461538461538,531.0401444873163L827.3076923076923,531.8204510119956L830.7692307692308,534.1129962114973L834.2307692307693,529.6586547582564L837.6923076923077,530.1005646834546L841.1538461538462,529.692924928632L844.6153846153846,531.2734135143509L848.0769230769231,530.0872245103728L851.5384615384615,530.1301775147929L855,529.8418364207029L858.4615384615385,530.7301268085581L861.9230769230769,530.0656746041034L865.3846153846154,531.1259980990775L868.8461538461538,530.3474303474303L872.3076923076923,529.9140148793659L875.7692307692307,529.5637406386592L879.2307692307692,529.6671650883314L882.6923076923076,537.5736977179719L886.1538461538462,529.7079861063442" style="fill: none; stroke: #ff7f0e; stroke-width: 2;"></path></g></g><path class="foreground" d="" style="display: none; fill: none;"></path></g><g transform="translate(0,0)"><path class="background" d="M0,0h900v600h-900Z" style="fill: none;"></path><g><g class="mark-line role-mark marks"><path d="M6.923076923076923,527.2864022903449L10.384615384615385,515.2605535140642L13.846153846153847,516.0110888973995L17.30769230769231,513.775672318669L20.76923076923077,512.2308722461775L24.230769230769234,511.0657636062082L27.692307692307693,510.33652079009715L31.153846153846157,509.47214971014L34.61538461538462,507.35815880206997L38.07692307692308,508.421618161128L41.53846153846154,507.8924056569362L45,507.7053610709572L48.46153846153847,507.6476995846715L51.92307692307693,507.1394754887703L55.38461538461539,504.35255175139565L58.84615384615385,512.4198792716102L62.307692307692314,512.0247716205625L65.76923076923077,511.52415623365994L69.23076923076924,511.36448556874456L72.6923076923077,510.92949383051064L76.15384615384616,510.5332372717833L79.61538461538461,510.3185909265681L83.07692307692308,510.0168718365306L86.53846153846155,509.89448249498906L90,509.6258427544561L93.46153846153847,509.46893330668524L96.92307692307693,509.19728289586766L100.38461538461539,509.07619175607635L103.84615384615385,508.87966712195777L107.3076923076923,508.69365872147404L110.76923076923077,517.6244285393623L114.23076923076923,514.5533920430331L117.6923076923077,514.4942425409871L121.15384615384615,516.3369986505576L124.61538461538463,515.090434427451L128.07692307692307,518.4454860462804L131.53846153846155,515.3472331086377L135,515.1585151466254L138.46153846153848,515.1700299151172L141.9230769230769,515.6437497689967L145.3846153846154,514.175651120533L148.84615384615384,514.1923890472583L152.30769230769232,514.6850195594657L155.76923076923077,513.9952013309776L159.23076923076923,514.4206715431282L162.69230769230768,513.4260211829948L166.15384615384616,513.2871286805563L169.6153846153846,516.1240894141351L173.0769230769231,514.9090812396684L176.53846153846155,516.3369593785334L180,514.9781580994554L183.46153846153845,514.5347007881095L186.92307692307693,514.3773123411019L190.3846153846154,514.1484379986731L193.84615384615387,514.0021142519804L197.3076923076923,514.0791060144032L200.76923076923077,513.7929804137048L204.23076923076923,513.6781929021324L207.6923076923077,513.351391925851L211.15384615384616,513.3395931905761L214.6153846153846,514.9938412228155L218.07692307692307,515.3734213927361L221.53846153846155,513.2310584605743L225,513.3782483156881L228.46153846153845,513.4023123494037L231.9230769230769,513.2994021174625L235.3846153846154,512.9552249723414L238.84615384615384,513.5503350541471L242.3076923076923,513.154731904005L245.76923076923075,513.1739933571515L249.23076923076925,513.0073466356652L252.6923076923077,512.9241791984883L256.15384615384613,512.9585813747202L259.6153846153846,512.8510644825424L263.0769230769231,513.9358462608911L266.53846153846155,513.1088959939816L270,512.7378499575809L273.46153846153845,513.0796967566376L276.92307692307696,512.7642552631868L280.3846153846154,514.3196574699874L283.8461538461538,514.1722106364927L287.30769230769226,513.6939252091042L290.7692307692308,513.6115184642048L294.2307692307692,513.4354996746758L297.6923076923077,513.4564302352508L301.15384615384613,514.0240017791482L304.61538461538464,513.9113725033483L308.0769230769231,513.3146320070963L311.53846153846155,513.5424086575221L315,513.4176251691475L318.46153846153845,514.1710980501912L321.9230769230769,513.2903250611562L325.38461538461536,514.1573389842077L328.8461538461538,514.1300920129511L332.3076923076923,512.7048421532868L335.7692307692308,512.293824978059L339.2307692307692,512.8336216246109L342.6923076923077,512.9117388329586L346.1538461538462,513.1643194765006L349.61538461538464,512.9412387386536L353.0769230769231,512.8960708097715L356.53846153846155,513.1108821549323L360,512.4265153050882L363.46153846153845,512.9979484619372L366.9230769230769,512.3401965734165L370.38461538461536,512.6202083147347L373.84615384615387,512.2796175476079L377.3076923076923,512.3055613741477L380.7692307692308,513.4898551467979L384.2307692307692,513.0627067273364L387.69230769230774,513.0276851000418L391.1538461538462,514.1062090080832L394.6153846153846,513.9726596531689L398.07692307692304,514.2025692600183L401.53846153846155,513.7069533333098L405,513.2565952525197L408.46153846153845,513.1482996824712L411.9230769230769,513.7048518491818L415.3846153846154,514.2558765870907L418.84615384615387,513.827106387641L422.3076923076923,513.5414227953505L425.7692307692308,514.1968753234489L429.2307692307692,513.4330708996602L432.6923076923077,513.0820874495605L436.15384615384613,513.7918746561226L439.6153846153846,518.7761948400143L443.0769230769231,512.9798043461942L446.53846153846155,513.666362264493L450,513.2459533556164L453.46153846153845,512.7711892068328L456.9230769230769,513.0837983467375L460.38461538461536,513.5610155803273L463.8461538461538,512.1764795752304L467.3076923076923,512.7801332525742L470.7692307692308,513.6766539869567L474.2307692307692,513.048143130554L477.6923076923077,514.2301560885027L481.15384615384613,512.8052724425619L484.6153846153846,512.9546373915866L488.07692307692304,512.8297416810475L491.5384615384615,513.5080002142237L495.00000000000006,513.4865271508685L498.4615384615385,513.7193784337735L501.92307692307696,513.5030362552391L505.3846153846154,513.7288806229006L508.8461538461538,514.1902273518102L512.3076923076923,514.9039626125435L515.7692307692307,513.6117117008298L519.2307692307692,513.7783377508629L522.6923076923077,513.9697694293138L526.1538461538462,514.4019467612803L529.6153846153846,514.1154363698613L533.0769230769231,513.777270673965L536.5384615384615,514.8575583344955L540,513.9402362751911L543.4615384615385,514.0608721410221L546.9230769230769,513.577245654552L550.3846153846155,519.2599676701337L553.8461538461539,514.0441892923919L557.3076923076924,512.7965192726391L560.7692307692308,513.6080037655353L564.2307692307692,513.3579651159761L567.6923076923076,513.500407385686L571.1538461538461,512.7176548379987L574.6153846153845,513.1862011502488L578.0769230769231,514.234224139541L581.5384615384615,513.5895072973146L585,513.4128898661487L588.4615384615385,513.749682903246L591.9230769230769,513.6723665138123L595.3846153846154,513.5393678822971L598.8461538461538,514.6573746904578L602.3076923076923,513.559462368559L605.7692307692308,514.2880465837665L609.2307692307693,513.4553918274353L612.6923076923077,513.6886425663223L616.1538461538462,516.4171568503698L619.6153846153846,514.2566997930664L623.0769230769231,513.9863242806595L626.5384615384615,514.1801610768308L630,514.7057525054081L633.4615384615385,514.8358573616955L636.9230769230769,514.1805869854377L640.3846153846154,513.9472100107623L643.8461538461538,514.3465663794923L647.3076923076923,515.3846153846155L650.7692307692307,514.8695307635705L654.2307692307692,514.3705023748216L657.6923076923076,514.346251521481L661.1538461538462,520.3453093396167L664.6153846153846,514.7765102756447L668.0769230769231,515.2777981007009L671.5384615384615,514.9601467010528L675,514.7404319818113L678.4615384615385,515.1472296580636L681.9230769230769,515.2548448848197L685.3846153846154,514.4098385458318L688.8461538461538,514.8547753349831L692.3076923076924,514.5773715457225L695.7692307692308,514.4905237632679L699.2307692307693,514.6707219194864L702.6923076923077,514.4440620104943L706.1538461538462,515.6403134541295L709.6153846153846,514.4603701153742L713.0769230769231,515.2536562287877L716.5384615384615,515.5125030611412L720,514.4613739641807L723.4615384615385,514.9068997339992L726.9230769230769,514.942451142539L730.3846153846154,515.3103614361115L733.8461538461538,514.7755824003538L737.3076923076923,514.8703738243053L740.7692307692307,514.9127922387743L744.2307692307692,514.9766350520356L747.6923076923077,515.3428093645484L751.1538461538462,514.9436550710436L754.6153846153846,514.5226534573234L758.0769230769231,514.6093409842671L761.5384615384615,514.7666737694439L765,515.1061173533084L768.4615384615385,514.9414424194434L771.9230769230769,519.9789481238712L775.3846153846155,514.9307863205667L778.8461538461539,514.3748731479602L782.3076923076924,514.5719145719146L785.7692307692308,514.6135038555576L789.2307692307692,514.9856445057608L792.6923076923076,514.6885885121417L796.1538461538461,515.0429402530243L799.6153846153845,514.7417955894565L803.0769230769231,514.4548030063728L806.5384615384615,514.9355627760943L810,515.406908435811L813.4615384615385,514.3476755417054L816.9230769230769,514.804007099666L820.3846153846154,514.4430071297494L823.8461538461538,515.3466755193018L827.3076923076923,515.789226423626L830.7692307692308,515.2362788726425L834.2307692307693,515.026150320268L837.6923076923077,515.2240548824989L841.1538461538462,514.7119040655161L844.6153846153846,515.1545358130154L848.0769230769231,515.2791465670765L851.5384615384615,514.792899408284L855,515.4114417155153L858.4615384615385,515.2136752136752L861.9230769230769,515.0856532266315L865.3846153846154,515.1334102790413L868.8461538461538,514.7939439201575L872.3076923076923,514.5864050027963L875.7692307692307,514.316678331941L879.2307692307692,514.8465393834755L882.6923076923076,519.5321292955642L886.1538461538462,513.9259516618007" style="fill: none; stroke: #1f77b4; stroke-width: 2;"></path></g></g><path class="foreground" d="" style="display: none; fill: none;"></path></g><g transform="translate(0,0)"><path class="background" d="M0,0h900v600h-900Z" style="fill: none;"></path><g><g class="mark-line role-mark marks"><path d="M6.923076923076923,525.3014300401907L10.384615384615385,514.2615775984269L13.846153846153847,495.2052274757809L17.30769230769231,499.08346828313427L20.76923076923077,484.01310761977544L24.230769230769234,489.2511426911537L27.692307692307693,484.66982672890003L31.153846153846157,484.57983292861866L34.61538461538462,477.10000661419406L38.07692307692308,484.85881207400195L41.53846153846154,481.46022902609695L45,479.7267626250305L48.46153846153847,472.3297884815978L51.92307692307693,476.3399303075497L55.38461538461539,472.0426089851154L58.84615384615385,475.8243001764559L62.307692307692314,471.1750593664728L65.76923076923077,480.3411596834868L69.23076923076924,477.6343483418064L72.6923076923077,481.5731683750056L76.15384615384616,468.95902479988746L79.61538461538461,471.9899717956753L83.07692307692308,475.80056631817246L86.53846153846155,472.587305742386L90,476.02328941032266L93.46153846153847,471.85799538471593L96.92307692307693,468.16471413445606L100.38461538461539,478.70241695959015L103.84615384615385,467.48867500523295L107.3076923076923,472.14019460715497L110.76923076923077,467.46098336126363L114.23076923076923,469.7577227060772L117.6923076923077,467.2103758310655L121.15384615384615,470.3246294989414L124.61538461538463,474.66796769122345L128.07692307692307,477.7431898566612L131.53846153846155,466.3133855481754L135,468.4335631091039L138.46153846153848,466.5002039580217L141.9230769230769,469.1549302943467L145.3846153846154,466.40269712808873L148.84615384615384,476.53499878335634L152.30769230769232,466.1873106317551L155.76923076923077,476.54023873700424L159.23076923076923,465.6941809128878L162.69230769230768,468.52624696774353L166.15384615384616,465.79674848431915L169.6153846153846,467.72092611578665L173.0769230769231,466.44088816809364L176.53846153846155,468.0967547264872L180,465.5933473541712L183.46153846153845,475.89275260508134L186.92307692307693,473.08956277188514L190.3846153846154,467.5711039184629L193.84615384615387,470.14652918249544L197.3076923076923,467.2379809093582L200.76923076923077,465.567464235942L204.23076923076923,466.5528864501907L207.6923076923077,473.2123021382949L211.15384615384616,466.78658436611545L214.6153846153846,474.1990850542616L218.07692307692307,483.67604735484116L221.53846153846155,465.8055934063921L225,466.71789112831726L228.46153846153845,464.95707105961185L231.9230769230769,466.983150413383L235.3846153846154,465.3420290560436L238.84615384615384,466.6930709743111L242.3076923076923,472.59740327467614L245.76923076923075,475.0346741867186L249.23076923076925,469.1012952462622L252.6923076923077,477.17469977679843L256.15384615384613,467.008443125125L259.6153846153846,477.259735933089L263.0769230769231,467.4286203501562L266.53846153846155,477.17439574948565L270,466.4544616894228L273.46153846153845,470.0279945974688L276.92307692307696,467.4475289653261L280.3846153846154,476.87835837811167L283.8461538461538,467.5632934209451L287.30769230769226,468.2584063711862L290.7692307692308,467.3198763781701L294.2307692307692,468.2558284503179L297.6923076923077,466.947972707584L301.15384615384613,476.21248650481454L304.61538461538464,474.70350070407153L308.0769230769231,468.1204257151153L311.53846153846155,467.47978453194594L315,476.2340607558495L318.46153846153845,468.9878802076269L321.9230769230769,467.5284781773966L325.38461538461536,466.2842944404183L328.8461538461538,478.12251587537867L332.3076923076923,466.51258117680896L335.7692307692308,467.32080845429334L339.2307692307692,466.82524251763294L342.6923076923077,475.9800861097372L346.1538461538462,466.4268671637868L349.61538461538464,467.2140500582938L353.0769230769231,466.6126581445605L356.53846153846155,466.5964172813488L360,474.25636525531996L363.46153846153845,475.9390540683525L366.9230769230769,466.54601251131135L370.38461538461536,467.3097240184328L373.84615384615387,474.0622692113344L377.3076923076923,467.06257473096855L380.7692307692308,466.11662004332163L384.2307692307692,466.5163307639979L387.69230769230774,474.22337143129874L391.1538461538462,476.6946015847049L394.6153846153846,466.0914910962393L398.07692307692304,466.93862905245226L401.53846153846155,473.980958481337L405,468.85882895791343L408.46153846153845,466.0759886353748L411.9230769230769,467.95908950949763L415.3846153846154,466.00712395457634L418.84615384615387,475.9114334796717L422.3076923076923,474.12303176105814L425.7692307692308,466.16798547773607L429.2307692307692,466.0016345237481L432.6923076923077,475.51803972244755L436.15384615384613,466.10883129573904L439.6153846153846,487.2410295257584L443.0769230769231,465.90357939664375L446.53846153846155,475.93370307440773L450,466.60228842202184L453.46153846153845,466.64737539691356L456.9230769230769,467.10390705518597L460.38461538461536,475.444619391319L463.8461538461538,466.03819384828523L467.3076923076923,467.559834157817L470.7692307692308,466.31348157856684L474.2307692307692,467.9013540127612L477.6923076923077,474.9240776815134L481.15384615384613,476.16339273775503L484.6153846153846,466.1084309183261L488.07692307692304,467.8724128797911L491.5384615384615,467.2590251141993L495.00000000000006,478.4115720524017L498.4615384615385,465.45826112572433L501.92307692307696,468.49772097175884L505.3846153846154,474.7103560482803L508.8461538461538,476.627762680448L512.3076923076923,466.1576613387531L515.7692307692307,469.5974914428938L519.2307692307692,474.93330519394624L522.6923076923077,469.4501724207232L526.1538461538462,467.1950863408215L529.6153846153846,469.756541374154L533.0769230769231,465.70188664523226L536.5384615384615,476.11024591008515L540,474.59207013044187L543.4615384615385,468.6518899795668L546.9230769230769,466.5731341149557L550.3846153846155,484.9835688750022L553.8461538461539,473.7888329411146L557.3076923076924,468.14319052441544L560.7692307692308,468.36152484527975L564.2307692307692,477.7091774855479L567.6923076923076,475.2133709841401L571.1538461538461,469.51241326717945L574.6153846153845,469.2829035095288L578.0769230769231,478.1694553821117L581.5384615384615,469.39219637558483L585,470.0599535054447L588.4615384615385,481.2116670367801L591.9230769230769,493.79396242417965L595.3846153846154,476.3084894230589L598.8461538461538,470.19297762945865L602.3076923076923,477.088191882187L605.7692307692308,475.14863258026156L609.2307692307693,476.0037988163408L612.6923076923077,472.4076743928136L616.1538461538462,470.3994788388267L619.6153846153846,471.62452331054385L623.0769230769231,469.74993518549945L626.5384615384615,479.4432286215287L630,470.9786181899918L633.4615384615385,473.98940181711646L636.9230769230769,479.21096899584086L640.3846153846154,473.3653957275822L643.8461538461538,473.3784343665774L647.3076923076923,494.20026180914556L650.7692307692307,473.31734255592124L654.2307692307692,481.9610700530863L657.6923076923076,472.73755656108597L661.1538461538462,491.6747105320516L664.6153846153846,481.5036096589495L668.0769230769231,476.9182819673703L671.5384615384615,481.7076176127601L675,483.64721238113L678.4615384615385,485.491723466407L681.9230769230769,476.73661402268755L685.3846153846154,477.8997187391895L688.8461538461538,484.02357620509616L692.3076923076924,480.4304503786369L695.7692307692308,484.30098511842385L699.2307692307693,480.60712133819186L702.6923076923077,481.0142377779887L706.1538461538462,502.1608803389198L709.6153846153846,481.50241450872875L713.0769230769231,482.9000135981328L716.5384615384615,487.65871485408974L720,481.75099488345654L723.4615384615385,481.91671799598527L726.9230769230769,484.56710187163725L730.3846153846154,481.5056088281129L733.8461538461538,484.421806152898L737.3076923076923,481.71986143797767L740.7692307692307,478.9613079596125L744.2307692307692,481.8739110309973L747.6923076923077,485.85225849069496L751.1538461538462,482.34868884752314L754.6153846153846,485.4537030107811L758.0769230769231,483.0011467766672L761.5384615384615,482.947252124234L765,498.83963106218386L768.4615384615385,482.7048089896121L771.9230769230769,498.36765387273925L775.3846153846155,484.4974465027235L778.8461538461539,483.94646493410204L782.3076923076924,483.1913484644278L785.7692307692308,481.5154614238853L789.2307692307692,482.97940591518574L792.6923076923076,483.3198358764475L796.1538461538461,483.6319480897299L799.6153846153845,486.9236677085121L803.0769230769231,484.67903422328277L806.5384615384615,484.3711310362296L810,486.5794425239574L813.4615384615385,485.09560813760584L816.9230769230769,484.93482329996976L820.3846153846154,486.4014181753166L823.8461538461538,501.39483496754593L827.3076923076923,493.7817117884523L830.7692307692308,492.0272631160631L834.2307692307693,485.56505223171894L837.6923076923077,484.49606236576244L841.1538461538462,484.6285729358081L844.6153846153846,486.41917840102406L848.0769230769231,499.00239096380574L851.5384615384615,486.5560750656504L855,485.9473603201477L858.4615384615385,485.8618529550888L861.9230769230769,487.18653487476496L865.3846153846154,486.0211240850029L868.8461538461538,487.95226439099156L872.3076923076923,488.7114225359369L875.7692307692307,486.52164162368246L879.2307692307692,490.36681078203566L882.6923076923076,496.19658873495524L886.1538461538462,484.55901694787866" style="fill: none; stroke: #aec7e8; stroke-width: 2;"></path></g></g><path class="foreground" d="" style="display: none; fill: none;"></path></g><g transform="translate(0,0)"><path class="background" d="M0,0h900v600h-900Z" style="fill: none;"></path><g><g class="mark-line role-mark marks"><path d="M6.923076923076923,520.8926957061125L10.384615384615385,481.369573822404L13.846153846153847,441.7718177498548L17.30769230769231,401.12279025322505L20.76923076923077,362.63736263736257L24.230769230769234,323.0927780567079L27.692307692307693,270.89441607642885L31.153846153846157,389.2425132119788L34.61538461538462,362.513498062631L38.07692307692308,335.08702006111326L41.53846153846154,322.72929179783307L45,299.6686414298625L48.46153846153847,261.5093607527403L51.92307692307693,250.9931894469489L55.38461538461539,196.63695726308603L58.84615384615385,304.09267039672983L62.307692307692314,286.53189813599374L65.76923076923077,281.450673017246L69.23076923076924,264.8806733821511L72.6923076923077,241.38605704870767L76.15384615384616,231.93278723899144L79.61538461538461,201.52760809191187L83.07692307692308,147.99183117767186L86.53846153846155,273.3839136917814L90,268.29974390379687L93.46153846153847,254.53229592373629L96.92307692307693,240.00854533017122L100.38461538461539,226.42860540437698L103.84615384615385,214.26240687827487L107.3076923076923,201.94053397012047L110.76923076923077,141.6747717955922L114.23076923076923,226.356760379931L117.6923076923077,214.9865830735332L121.15384615384615,203.7509520182787L124.61538461538463,192.44972640349107L128.07692307692307,181.2532595330636L131.53846153846155,167.87212191105684L135,158.47627533971925L138.46153846153848,100.52238712032526L141.9230769230769,196.49591261673797L145.3846153846154,184.40527605929725L148.84615384615384,176.72152522382189L152.30769230769232,162.86195032522158L155.76923076923077,152.2252908950966L159.23076923076923,142.71335737894972L162.69230769230768,129.81300281203852L166.15384615384616,82.25236202384991L169.6153846153846,167.94541414099263L173.0769230769231,161.26169153048178L176.53846153846155,146.70957448246955L180,140.5405405405405L183.46153846153845,141.39562259244772L186.92307692307693,129.5640278776873L190.3846153846154,112.09125384060566L193.84615384615387,74.33176356088427L197.3076923076923,154.53703446055263L200.76923076923077,150.94236978109265L204.23076923076923,138.57292317239566L207.6923076923077,134.07271217602752L211.15384615384616,119.37704891753025L214.6153846153846,119.5132313269208L218.07692307692307,142.39718945601297L221.53846153846155,74.59651572013968L225,139.38804635917379L228.46153846153845,128.14281176174185L231.9230769230769,122.02955085900555L235.3846153846154,113.27421766378147L238.84615384615384,106.73378135960793L242.3076923076923,106.54116777336267L245.76923076923075,102.60353928684735L249.23076923076925,63.374464710547215L252.6923076923077,128.4877770581382L256.15384615384613,117.03935664213832L259.6153846153846,113.39523120665322L263.0769230769231,106.32290908282525L266.53846153846155,102.64434474960791L270,93.97381927224491L273.46153846153845,88.78343399482311L276.92307692307696,55.73557402163325L280.3846153846154,121.36933006682243L283.8461538461538,106.12848689771756L287.30769230769226,104.25820873749512L290.7692307692308,94.10327885664216L294.2307692307692,91.75603796171737L297.6923076923077,81.99097944812763L301.15384615384613,88.94336966283956L304.61538461538464,60.897032813811066L308.0769230769231,106.38053046430002L311.53846153846155,96.42442984151512L315,95.32710280373833L318.46153846153845,107.92656483399985L321.9230769230769,86.44881405641954L325.38461538461536,79.44725451166576L328.8461538461538,92.59942614585945L332.3076923076923,50.75455771794593L335.7692307692308,110.93986199566035L339.2307692307692,110.38064397873764L342.6923076923077,112.81073845877869L346.1538461538462,93.52588188811426L349.61538461538464,89.34131356100458L353.0769230769231,87.43673641921342L356.53846153846155,80.71247947714897L360,54.68746301862672L363.46153846153845,103.03662357112935L366.9230769230769,96.76454329658894L370.38461538461536,85.9489337169963L373.84615384615387,88.08518927342386L377.3076923076923,73.09591977963822L380.7692307692308,71.2292985941153L384.2307692307692,66.82604785822379L387.69230769230774,56.87933821431961L391.1538461538462,94.19587136611338L394.6153846153846,91.79828472544769L398.07692307692304,82.4234647463827L401.53846153846155,86.69729334493543L405,71.36013330556132L408.46153846153845,66.98062206417652L411.9230769230769,63.66636961283263L415.3846153846154,32.686151943088284L418.84615384615387,92.23812908044036L422.3076923076923,88.10686807528978L425.7692307692308,74.02977267878406L429.2307692307692,70.43872183414715L432.6923076923077,66.30129179478396L436.15384615384613,64.35958637723527L439.6153846153846,150.81462690054568L443.0769230769231,39.2019749137225L446.53846153846155,94.54338482183566L450,83.86854952819142L453.46153846153845,74.09306220740861L456.9230769230769,78.00690097828476L460.38461538461536,73.1674831366574L463.8461538461538,66.51898715656468L467.3076923076923,57.34860883797057L470.7692307692308,40.083237657864586L474.2307692307692,90.01978728666839L477.6923076923077,89.60671496410635L481.15384615384613,78.83070562454743L484.6153846153846,73.54607095147449L488.07692307692304,65.32071462466524L491.5384615384615,76.97082345719015L495.00000000000006,76.33589153465206L498.4615384615385,51.15617138342745L501.92307692307696,77.58393919098839L505.3846153846154,92.32795944981993L508.8461538461538,79.8481399166392L512.3076923076923,76.88443020241225L515.7692307692307,87.47432457666267L519.2307692307692,79.38737611898652L522.6923076923077,65.24811532219985L526.1538461538462,67.34110256166348L529.6153846153846,99.90856469673308L533.0769230769231,85.19078789249718L536.5384615384615,94.51348631534253L540,93.45343036906438L543.4615384615385,85.67027748810452L546.9230769230769,90.01921535416271L550.3846153846155,158.0628444905073L553.8461538461539,56.49732271124455L557.3076923076924,112.33819246316641L560.7692307692308,95.56445727445212L564.2307692307692,102.15600122616175L567.6923076923076,104.5638616292753L571.1538461538461,76.95506628346607L574.6153846153845,85.16629259334833L578.0769230769231,87.76608178243673L581.5384615384615,75.13768545842952L585,101.30268689161316L588.4615384615385,99.89589560007792L591.9230769230769,142.11229049938729L595.3846153846154,111.42892178843549L598.8461538461538,107.59013282732448L602.3076923076923,112.53175476222499L605.7692307692308,109.16995185190952L609.2307692307693,75.31933393600221L612.6923076923077,114.43681610659246L616.1538461538462,113.71285225129542L619.6153846153846,110.58782928234132L623.0769230769231,101.295093544111L626.5384615384615,109.72207921811513L630,106.81133789015821L633.4615384615385,93.6326050187436L636.9230769230769,102.67126102487907L640.3846153846154,123.14320433037513L643.8461538461538,117.58368768452053L647.3076923076923,139.8500998920421L650.7692307692307,110.31597563033174L654.2307692307692,121.0519728189797L657.6923076923076,113.9162411976692L661.1538461538462,176.6860288080912L664.6153846153846,106.59192937607489L668.0769230769231,122.11027252109889L671.5384615384615,133.0764626523107L675,122.13879727738404L678.4615384615385,125.47945753090606L681.9230769230769,116.26855419950486L685.3846153846154,114.30937873346059L688.8461538461538,115.25496239190123L692.3076923076924,103.36793269192222L695.7692307692308,123.29201713565546L699.2307692307693,120.7352778611247L702.6923076923077,116.22274356501256L706.1538461538462,167.23140856121597L709.6153846153846,120.30071444574443L713.0769230769231,129.86653635340335L716.5384615384615,138.68439624113205L720,103.4713399290158L723.4615384615385,119.46503751190664L726.9230769230769,126.5216496260207L730.3846153846154,116.97387957391989L733.8461538461538,122.90991785949066L737.3076923076923,112.67254747438801L740.7692307692307,109.24101379357205L744.2307692307692,110.8242253663552L747.6923076923077,103.91797363104477L751.1538461538462,120.14965067563925L754.6153846153846,125.6228919595256L758.0769230769231,116.06682255381718L761.5384615384615,116.39140055981356L765,157.86863502681504L768.4615384615385,110.50712557570196L771.9230769230769,178.1068113510894L775.3846153846155,102.40182668074019L778.8461538461539,119.93172362291524L782.3076923076924,118.52820310973242L785.7692307692308,114.7109911546992L789.2307692307692,121.86235559570606L792.6923076923076,112.43356843414058L796.1538461538461,110.431383872864L799.6153846153845,114.26966551503914L803.0769230769231,99.9271337113343L806.5384615384615,117.02650648562938L810,117.04121089502995L813.4615384615385,115.18601585372107L816.9230769230769,110.67892099629928L820.3846153846154,116.91847151684173L823.8461538461538,160.75445972048632L827.3076923076923,121.49804206373356L830.7692307692308,122.66047109201415L834.2307692307693,112.26328723558036L837.6923076923077,114.18925084405507L841.1538461538462,114.13107328769408L844.6153846153846,115.3623750079823L848.0769230769231,154.39989259596067L851.5384615384615,115.26066551545138L855,106.55981573012137L858.4615384615385,98.364529099176L861.9230769230769,112.69525378482703L865.3846153846154,116.04404888922237L868.8461538461538,117.52887405858235L872.3076923076923,117.05739945333849L875.7692307692307,106.92099042273418L879.2307692307692,104.78246969355499L882.6923076923076,176.76705489445322L886.1538461538462,94.6252552158687" style="fill: none; stroke: #98df8a; stroke-width: 2;"></path></g></g><path class="foreground" d="" style="display: none; fill: none;"></path></g><g transform="translate(0,0)"><path class="background" d="M0,0h900v600h-900Z" style="fill: none;"></path><g><g class="mark-line role-mark marks"><path d="M6.923076923076923,524.2957190580538L10.384615384615385,486.76892851745504L13.846153846153847,449.0775279766105L17.30769230769231,411.3896248560406L20.76923076923077,373.64903138099015L24.230769230769234,335.8207544196893L27.692307692307693,293.91624059286494L31.153846153846157,395.9104762771232L34.61538461538462,363.40488140580686L38.07692307692308,350.2618754839003L41.53846153846154,316.0566589270245L45,305.5232844343802L48.46153846153847,269.8701523955188L51.92307692307693,245.25324087435405L55.38461538461539,203.48656083253235L58.84615384615385,318.5578760257011L62.307692307692314,302.120582120582L65.76923076923077,287.66521279407874L69.23076923076924,264.4276439672859L72.6923076923077,247.15914847628588L76.15384615384616,241.25144083953822L79.61538461538461,216.94684513281746L83.07692307692308,163.9110089483622L86.53846153846155,286.43251661085816L90,267.9775750983181L93.46153846153847,256.6344604786913L96.92307692307693,250.04115779394223L100.38461538461539,229.68795254390002L103.84615384615385,225.05433310445184L107.3076923076923,198.65312834433982L110.76923076923077,140.3401783262764L114.23076923076923,229.72076864577411L117.6923076923077,218.12545924718407L121.15384615384615,206.1394627023856L124.61538461538463,197.834888653832L128.07692307692307,190.62312176804554L131.53846153846155,171.13491290706483L135,165.00109737361905L138.46153846153848,111.12233646068847L141.9230769230769,197.44202570893356L145.3846153846154,184.22501376307488L148.84615384615384,176.6839378238342L152.30769230769232,166.67225415202714L155.76923076923077,155.70234403077453L159.23076923076923,143.4888407602833L162.69230769230768,137.31684981684978L166.15384615384616,89.06705278135165L169.6153846153846,170.96887935453472L173.0769230769231,162.86982248520704L176.53846153846155,153.40831886464863L180,148.06057943889542L183.46153846153845,145.3074034342551L186.92307692307693,130.2931068739927L190.3846153846154,118.6408683341198L193.84615384615387,85.51641968873325L197.3076923076923,158.88066513866903L200.76923076923077,150.55848765777128L204.23076923076923,139.1138334261396L207.6923076923077,131.8831137876789L211.15384615384616,123.44950576442433L214.6153846153846,121.6806071303246L218.07692307692307,142.69828258787044L221.53846153846155,78.40563205300765L225,142.22388478443847L228.46153846153845,133.42856902160364L231.9230769230769,128.09433364988908L235.3846153846154,120.11591263781752L238.84615384615384,113.13483430853069L242.3076923076923,106.34092227012582L245.76923076923075,99.94473226386256L249.23076923076925,69.05318497857947L252.6923076923077,133.60911389080405L256.15384615384613,123.81939147572218L259.6153846153846,118.36540933995279L263.0769230769231,111.77515300766518L266.53846153846155,108.05344889851926L270,89.59212786398427L273.46153846153845,91.44098447424132L276.92307692307696,59.86206005990766L280.3846153846154,124.4512642604576L283.8461538461538,113.58300293228805L287.30769230769226,105.74013790275036L290.7692307692308,101.22300328755529L294.2307692307692,94.90964504982009L297.6923076923077,89.17102315160574L301.15384615384613,89.90245177859184L304.61538461538464,65.03610334321132L308.0769230769231,109.4928235683107L311.53846153846155,102.14023595730437L315,99.39971532891873L318.46153846153845,109.93168244114015L321.9230769230769,87.33960063130439L325.38461538461536,82.42349816509831L328.8461538461538,95.82263273336488L332.3076923076923,54.787319952427694L335.7692307692308,115.8876239320114L339.2307692307692,111.58325867144505L342.6923076923077,121.79951849457092L346.1538461538462,101.79602359418823L349.61538461538464,95.74132368295037L353.0769230769231,104.67846271414732L356.53846153846155,90.07779673004113L360,58.52124866055124L363.46153846153845,104.43187963029877L366.9230769230769,90.22794149940714L370.38461538461536,86.70938064728114L373.84615384615387,89.70522688415967L377.3076923076923,80.63052772429099L380.7692307692308,70.94478850968508L384.2307692307692,64.18180215129605L387.69230769230774,61.34966015751422L391.1538461538462,99.16315121853532L394.6153846153846,95.87795506298498L398.07692307692304,83.59667036891068L401.53846153846155,88.58358494450928L405,73.99323637419867L408.46153846153845,71.38369400747425L411.9230769230769,63.95925464171699L415.3846153846154,44.79379702460626L418.84615384615387,91.63610873473196L422.3076923076923,87.39457158126991L425.7692307692308,76.9834302644574L429.2307692307692,70.74414175294208L432.6923076923077,77.50829762567162L436.15384615384613,67.62984748794763L439.6153846153846,157.190057945508L443.0769230769231,47.18224107475897L446.53846153846155,89.84854851800897L450,85.76572521660847L453.46153846153845,80.78329335712198L456.9230769230769,72.7015328916067L460.38461538461536,73.62614730759864L463.8461538461538,64.58101143518928L467.3076923076923,59.20715099903453L470.7692307692308,56.876412934248364L474.2307692307692,88.1711354257112L477.6923076923077,84.65849469579665L481.15384615384613,89.56320061847704L484.6153846153846,74.45328543165033L488.07692307692304,64.23885501637095L491.5384615384615,68.54594680681636L495.00000000000006,65.39862769737026L498.4615384615385,58.97059119268317L501.92307692307696,74.19437111158744L505.3846153846154,79.926708478864L508.8461538461538,74.87219269794609L512.3076923076923,73.02749235352755L515.7692307692307,83.98898121053655L519.2307692307692,78.03665261786605L522.6923076923077,65.60048647005155L526.1538461538462,59.042936917198794L529.6153846153846,84.876923466601L533.0769230769231,82.71278045439587L536.5384615384615,85.08843569622151L540,111.96667570432079L543.4615384615385,75.92472868678071L546.9230769230769,76.97229111489565L550.3846153846155,152.87407454481902L553.8461538461539,84.96780100890808L557.3076923076924,104.08592460008398L560.7692307692308,87.47612592314678L564.2307692307692,92.56408783598265L567.6923076923076,93.7628499810672L571.1538461538461,76.49396947163629L574.6153846153845,83.002687411244L578.0769230769231,106.06161358968484L581.5384615384615,67.88531764034391L585,104.20943652137622L588.4615384615385,110.4269389440703L591.9230769230769,141.34890197132185L595.3846153846154,112.99322061109369L598.8461538461538,100.01772674648181L602.3076923076923,110.27612361560537L605.7692307692308,114.5383979130877L609.2307692307693,80.35587748996133L612.6923076923077,113.88189987474337L616.1538461538462,111.29542100282663L619.6153846153846,107.53513094620632L623.0769230769231,102.26244343891399L626.5384615384615,107.65810626187589L630,105.18709308149103L633.4615384615385,104.5659808118723L636.9230769230769,105.42234476520791L640.3846153846154,120.94485065453424L643.8461538461538,116.26167858623226L647.3076923076923,147.08775465222453L650.7692307692307,117.25908807453867L654.2307692307692,123.72140812801075L657.6923076923076,112.93342193932779L661.1538461538462,167.6414366678963L664.6153846153846,106.87434529680799L668.0769230769231,115.58417511881001L671.5384615384615,124.91296793555529L675,123.74372063533346L678.4615384615385,123.70425496031685L681.9230769230769,124.28798424570022L685.3846153846154,115.79617074577007L688.8461538461538,120.00436499922851L692.3076923076924,102.74595147388392L695.7692307692308,128.17261011058702L699.2307692307693,120.73134217105839L702.6923076923077,119.31792606452696L706.1538461538462,168.83677249679482L709.6153846153846,114.95184039611183L713.0769230769231,123.48306715118935L716.5384615384615,136.66307883053412L720,98.4680340728937L723.4615384615385,119.5655981332001L726.9230769230769,120.3108147565503L730.3846153846154,117.33095533498758L733.8461538461538,124.18390557179441L737.3076923076923,111.76235875406442L740.7692307692307,114.26066810682187L744.2307692307692,111.31544450896087L747.6923076923077,108.74902667238884L751.1538461538462,120.35254197686879L754.6153846153846,125.75036325388731L758.0769230769231,118.75215169795179L761.5384615384615,117.64672752068816L765,159.118659012277L768.4615384615385,108.7355526877297L771.9230769230769,177.65465200050502L775.3846153846155,107.69230769230771L778.8461538461539,118.87523722123719L782.3076923076924,118.24377266098685L785.7692307692308,116.49727596638016L789.2307692307692,117.78061735747582L792.6923076923076,112.8200502366117L796.1538461538461,107.53867104298331L799.6153846153845,115.23507802889934L803.0769230769231,99.38454481423027L806.5384615384615,117.58262003287795L810,123.44573234984186L813.4615384615385,115.77427879494326L816.9230769230769,115.04069700791004L820.3846153846154,118.09323549495454L823.8461538461538,161.8350437811882L827.3076923076923,125.20717895782414L830.7692307692308,128.3745756249886L834.2307692307693,116.16603889026985L837.6923076923077,114.95137105933779L841.1538461538462,114.49483490219498L844.6153846153846,117.16467797372208L848.0769230769231,154.00334668627346L851.5384615384615,112.42598866358304L855,107.72626931567326L858.4615384615385,98.00387571806522L861.9230769230769,112.94270356025756L865.3846153846154,112.98246269702592L868.8461538461538,117.92158596859213L872.3076923076923,118.30846319035288L875.7692307692307,109.08391182410301L879.2307692307692,105.09747960738187L882.6923076923076,178.71024758148482L886.1538461538462,95.23305445698618" style="fill: none; stroke: #d62728; stroke-width: 2;"></path></g></g><path class="foreground" d="" style="display: none; fill: none;"></path></g><g transform="translate(0,0)"><path class="background" d="M0,0h900v600h-900Z" style="fill: none;"></path><g><g class="mark-line role-mark marks"><path d="M6.923076923076923,538.3338396659235L10.384615384615385,507.58118286208173L13.846153846153847,476.80786717962434L17.30769230769231,444.0600634384912L20.76923076923077,415.05104010624984L24.230769230769234,384.26952413303275L27.692307692307693,379.68892281937843L31.153846153846157,418.52659140140497L34.61538461538462,396.8390384530394L38.07692307692308,378.072618625614L41.53846153846154,358.0460681473884L45,337.8832404930041L48.46153846153847,318.94085476057694L51.92307692307693,295.42008854699344L55.38461538461539,279.0976969680713L58.84615384615385,335.10711601102486L62.307692307692314,319.521562602875L65.76923076923077,303.8327071251955L69.23076923076924,302.79267247393705L72.6923076923077,272.975090083033L76.15384615384616,263.49071193534905L79.61538461538461,242.84821595950763L83.07692307692308,239.0604314551208L86.53846153846155,314.86550964915807L90,303.4561867238541L93.46153846153847,290.97180783282585L96.92307692307693,279.50225904629167L100.38461538461539,268.9919683032081L103.84615384615385,256.4376058103993L107.3076923076923,244.7275600871191L110.76923076923077,223.1525046793322L114.23076923076923,278.7635556314576L117.6923076923077,271.85093556414984L121.15384615384615,271.44381161320183L124.61538461538463,250.90166723375293L128.07692307692307,245.86612933694357L131.53846153846155,235.42176973036425L135,225.93862398250002L138.46153846153848,207.02377128704018L141.9230769230769,258.7249556953191L145.3846153846154,249.14077920607852L148.84615384615384,240.4563125358486L152.30769230769232,229.90162590517835L155.76923076923077,223.78183651332648L159.23076923076923,220.55580911386258L162.69230769230768,212.40548049189908L166.15384615384616,197.12843235413163L169.6153846153846,251.4136575854281L173.0769230769231,243.57012396769434L176.53846153846155,236.43005464945097L180,223.81722409900894L183.46153846153845,218.95005085610853L186.92307692307693,215.56520021282353L190.3846153846154,202.65584147516165L193.84615384615387,191.27943637076788L197.3076923076923,229.31351383866803L200.76923076923077,231.24231537013094L204.23076923076923,229.24635534620975L207.6923076923077,218.08856751594018L211.15384615384616,211.39289128280788L214.6153846153846,198.84012528772675L218.07692307692307,216.75975203686235L221.53846153846155,188.98166321235556L225,227.67595872478057L228.46153846153845,221.98872853318085L231.9230769230769,219.5318952569344L235.3846153846154,212.4069542288978L238.84615384615384,204.33206859438047L242.3076923076923,191.6031992792169L245.76923076923075,185.65568571066095L249.23076923076925,181.95124245575016L252.6923076923077,221.07031264110384L256.15384615384613,215.4460930917139L259.6153846153846,202.97469665922216L263.0769230769231,197.33874580376838L266.53846153846155,200.34457724273196L270,186.83646208953795L273.46153846153845,189.24290129697562L276.92307692307696,177.46866317613728L280.3846153846154,217.08022443940067L283.8461538461538,208.46532480456776L287.30769230769226,195.04890472065867L290.7692307692308,198.93462931677206L294.2307692307692,194.08185961316207L297.6923076923077,189.36007849122424L301.15384615384613,185.22275799762707L304.61538461538464,163.31480983797L308.0769230769231,199.99296491330463L311.53846153846155,204.1188485754596L315,199.84137636507836L318.46153846153845,194.99709641766628L321.9230769230769,191.08035646766146L325.38461538461536,177.38900442969913L328.8461538461538,174.07086936307215L332.3076923076923,160.86735423971487L335.7692307692308,195.29102964653345L339.2307692307692,192.85411410201274L342.6923076923077,195.96551917685602L346.1538461538462,182.7701710054651L349.61538461538464,178.67215041128082L353.0769230769231,183.46610542744733L356.53846153846155,179.45920145879805L360,170.03408738766652L363.46153846153845,199.6003887280041L366.9230769230769,197.50382160883782L370.38461538461536,191.6989858632293L373.84615384615387,187.68685180589145L377.3076923076923,184.08614756374257L380.7692307692308,171.0268640288017L384.2307692307692,178.3226514188488L387.69230769230774,170.93378837283953L391.1538461538462,188.19236380578616L394.6153846153846,183.3506357432497L398.07692307692304,189.04328861410414L401.53846153846155,185.70176057402568L405,172.67644379342994L408.46153846153845,169.7273790456723L411.9230769230769,166.03721635845764L415.3846153846154,166.8177186624504L418.84615384615387,193.96235990476697L422.3076923076923,189.72975076871182L425.7692307692308,186.35292652294405L429.2307692307692,183.41855283674022L432.6923076923077,179.7561526651706L436.15384615384613,176.01921053341601L439.6153846153846,239.945612867764L443.0769230769231,153.52786635976753L446.53846153846155,185.41542412350844L450,177.66446959333413L453.46153846153845,175.83658539457102L456.9230769230769,180.860660933805L460.38461538461536,168.69505390973617L463.8461538461538,164.77311520813763L467.3076923076923,170.92663154139737L470.7692307692308,168.89549281822684L474.2307692307692,188.32283929422758L477.6923076923077,190.9949738814725L481.15384615384613,182.08481211629902L484.6153846153846,178.71953595082468L488.07692307692304,176.0307021629376L491.5384615384615,176.08195508372572L495.00000000000006,170.28930385493098L498.4615384615385,162.6139731827805L501.92307692307696,185.44864450920628L505.3846153846154,181.6513065094596L508.8461538461538,185.93765202669832L512.3076923076923,188.04686053142584L515.7692307692307,173.80069328291285L519.2307692307692,169.39654680745082L522.6923076923077,165.75313767688112L526.1538461538462,177.26762852701873L529.6153846153846,186.08512683267836L533.0769230769231,177.07013181465734L536.5384615384615,178.71696533084634L540,184.07107929304226L543.4615384615385,174.8651873630453L546.9230769230769,177.17446355942502L550.3846153846155,249.08172092187775L553.8461538461539,171.801229292179L557.3076923076924,198.09577149257916L560.7692307692308,187.17546208749994L564.2307692307692,193.63579290244112L567.6923076923076,182.2611995845702L571.1538461538461,182.8525302431916L574.6153846153845,201.30652083834238L578.0769230769231,195.3648363255577L581.5384615384615,179.3561460291174L585,210.59883753647767L588.4615384615385,208.55618370069232L591.9230769230769,213.27246351614204L595.3846153846154,196.05114597893294L598.8461538461538,175.46317378825427L602.3076923076923,189.06933504298703L605.7692307692308,203.33181564636712L609.2307692307693,181.04560068125429L612.6923076923077,213.4592933864169L616.1538461538462,214.13944606094236L619.6153846153846,210.06880413427626L623.0769230769231,190.6801405331517L626.5384615384615,208.4672058180367L630,206.56433097377976L633.4615384615385,208.28551279746682L636.9230769230769,211.2716235258448L640.3846153846154,211.61260841825734L643.8461538461538,209.14312110944465L647.3076923076923,227.58975994504613L650.7692307692307,205.56889730062426L654.2307692307692,213.27136756100373L657.6923076923076,213.71875447478595L661.1538461538462,247.7629083706939L664.6153846153846,216.84894253908L668.0769230769231,226.43998788577096L671.5384615384615,231.571375133082L675,216.0721886439091L678.4615384615385,234.40947704466413L681.9230769230769,215.83311994011854L685.3846153846154,216.41389920323644L688.8461538461538,223.48792140054766L692.3076923076924,223.6391328055958L695.7692307692308,222.5588382573861L699.2307692307693,231.58854641619556L702.6923076923077,220.7852050188362L706.1538461538462,236.88983767210624L709.6153846153846,223.93754713519905L713.0769230769231,227.48447776831605L716.5384615384615,220.24202529631685L720,223.07274874708716L723.4615384615385,221.7029275658743L726.9230769230769,233.82827503892577L730.3846153846154,229.07924248868594L733.8461538461538,226.46176964236483L737.3076923076923,226.8755505347341L740.7692307692307,214.4470549902331L744.2307692307692,221.7191110631906L747.6923076923077,222.60857433474848L751.1538461538462,232.37532074029588L754.6153846153846,230.3887851240239L758.0769230769231,219.87773063157945L761.5384615384615,227.56744591116808L765,231.72647679689933L768.4615384615385,224.0322118450299L771.9230769230769,253.52574178415105L775.3846153846155,210.49797772305655L778.8461538461539,221.07576935379655L782.3076923076924,230.0543495761878L785.7692307692308,228.63610328883712L789.2307692307692,220.2628417488806L792.6923076923076,218.25844306261467L796.1538461538461,213.68498930235344L799.6153846153845,210.6582758224276L803.0769230769231,211.00465370928L806.5384615384615,229.29352285074398L810,228.63030767756158L813.4615384615385,228.18742417550462L816.9230769230769,216.47751571400607L820.3846153846154,215.0331515853867L823.8461538461538,230.21654502611497L827.3076923076923,222.39439678784024L830.7692307692308,229.59108536645226L834.2307692307693,219.86155781178073L837.6923076923077,218.78318155396238L841.1538461538462,227.37284947156004L844.6153846153846,225.97799267182182L848.0769230769231,229.9903849770329L851.5384615384615,222.6497061381799L855,221.188155232665L858.4615384615385,220.82534989350015L861.9230769230769,220.50148702595794L865.3846153846154,230.41724719513087L868.8461538461538,217.97639655011884L872.3076923076923,227.23767610399753L875.7692307692307,223.92208691581035L879.2307692307692,221.3332553822768L882.6923076923076,258.761768630071L886.1538461538462,223.5791177445599" style="fill: none; stroke: #2ca02c; stroke-width: 2;"></path></g></g><path class="foreground" d="" style="display: none; fill: none;"></path></g></g><g class="mark-group role-legend"><g transform="translate(918,0)"><path class="background" d="M0,0h101v105h-101Z" style="pointer-events: none; fill: none;"></path><g><g class="mark-group role-legend-entry"><g transform="translate(0,16)"><path class="background" d="M0,0h0v0h0Z" style="pointer-events: none; fill: none;"></path><g><g class="mark-group role-scope"><g transform="translate(0,0)"><path class="background" d="M0,0h101v11h-101Z" style="pointer-events: none; fill: none; opacity: 1;"></path><g><g class="mark-symbol role-legend-symbol" style="pointer-events: none;"><path transform="translate(6,6)" d="M-5,0L5,0" style="fill: none; stroke: #1f77b4; stroke-width: 1.5; opacity: 1;"></path></g><g class="mark-text role-legend-label" style="pointer-events: none;"><text text-anchor="start" transform="translate(16,9)" style="font-family: sans-serif; font-size: 10px; fill: #000; opacity: 1;">Clang</text></g></g><path class="foreground" d="" style="pointer-events: none; display: none; fill: none;"></path></g><g transform="translate(0,13)"><path class="background" d="M0,0h101v11h-101Z" style="pointer-events: none; fill: none; opacity: 1;"></path><g><g class="mark-symbol role-legend-symbol" style="pointer-events: none;"><path transform="translate(6,6)" d="M-5,0L5,0" style="fill: none; stroke: #aec7e8; stroke-width: 1.5; opacity: 1;"></path></g><g class="mark-text role-legend-label" style="pointer-events: none;"><text text-anchor="start" transform="translate(16,9)" style="font-family: sans-serif; font-size: 10px; fill: #000; opacity: 1;">GFortran</text></g></g><path class="foreground" d="" style="pointer-events: none; display: none; fill: none;"></path></g><g transform="translate(0,26)"><path class="background" d="M0,0h101v11h-101Z" style="pointer-events: none; fill: none; opacity: 1;"></path><g><g class="mark-symbol role-legend-symbol" style="pointer-events: none;"><path transform="translate(6,6)" d="M-5,0L5,0" style="fill: none; stroke: #ff7f0e; stroke-width: 1.5; opacity: 1;"></path></g><g class="mark-text role-legend-label" style="pointer-events: none;"><text text-anchor="start" transform="translate(16,9)" style="font-family: sans-serif; font-size: 10px; fill: #000; opacity: 1;">Julia</text></g></g><path class="foreground" d="" style="pointer-events: none; display: none; fill: none;"></path></g><g transform="translate(0,39)"><path class="background" d="M0,0h101v11h-101Z" style="pointer-events: none; fill: none; opacity: 1;"></path><g><g class="mark-symbol role-legend-symbol" style="pointer-events: none;"><path transform="translate(6,6)" d="M-5,0L5,0" style="fill: none; stroke: #ffbb78; stroke-width: 1.5; opacity: 1;"></path></g><g class="mark-text role-legend-label" style="pointer-events: none;"><text text-anchor="start" transform="translate(16,9)" style="font-family: sans-serif; font-size: 10px; fill: #000; opacity: 1;">Julia-builtin</text></g></g><path class="foreground" d="" style="pointer-events: none; display: none; fill: none;"></path></g><g transform="translate(0,52)"><path class="background" d="M0,0h101v11h-101Z" style="pointer-events: none; fill: none; opacity: 1;"></path><g><g class="mark-symbol role-legend-symbol" style="pointer-events: none;"><path transform="translate(6,6)" d="M-5,0L5,0" style="fill: none; stroke: #2ca02c; stroke-width: 1.5; opacity: 1;"></path></g><g class="mark-text role-legend-label" style="pointer-events: none;"><text text-anchor="start" transform="translate(16,9)" style="font-family: sans-serif; font-size: 10px; fill: #000; opacity: 1;">LoopVectorization</text></g></g><path class="foreground" d="" style="pointer-events: none; display: none; fill: none;"></path></g><g transform="translate(0,65)"><path class="background" d="M0,0h101v11h-101Z" style="pointer-events: none; fill: none; opacity: 1;"></path><g><g class="mark-symbol role-legend-symbol" style="pointer-events: none;"><path transform="translate(6,6)" d="M-5,0L5,0" style="fill: none; stroke: #98df8a; stroke-width: 1.5; opacity: 1;"></path></g><g class="mark-text role-legend-label" style="pointer-events: none;"><text text-anchor="start" transform="translate(16,9)" style="font-family: sans-serif; font-size: 10px; fill: #000; opacity: 1;">icc</text></g></g><path class="foreground" d="" style="pointer-events: none; display: none; fill: none;"></path></g><g transform="translate(0,78)"><path class="background" d="M0,0h101v11h-101Z" style="pointer-events: none; fill: none; opacity: 1;"></path><g><g class="mark-symbol role-legend-symbol" style="pointer-events: none;"><path transform="translate(6,6)" d="M-5,0L5,0" style="fill: none; stroke: #d62728; stroke-width: 1.5; opacity: 1;"></path></g><g class="mark-text role-legend-label" style="pointer-events: none;"><text text-anchor="start" transform="translate(16,9)" style="font-family: sans-serif; font-size: 10px; fill: #000; opacity: 1;">ifort</text></g></g><path class="foreground" d="" style="pointer-events: none; display: none; fill: none;"></path></g></g></g><path class="foreground" d="" style="pointer-events: none; display: none; fill: none;"></path></g></g><g class="mark-text role-legend-title" style="pointer-events: none;"><text text-anchor="start" transform="translate(0,9)" style="font-family: sans-serif; font-size: 11px; font-weight: bold; fill: #000; opacity: 1;">Method</text></g></g><path class="foreground" d="" style="pointer-events: none; display: none; fill: none;"></path></g></g></g><path class="foreground" d="" style="display: none; fill: none;"></path></g></g></g></svg>
