<?xml version="1.0" encoding="utf-8"?>
<!DOCTYPE svg PUBLIC "-//W3C//DTD SVG 1.1//EN" "http://www.w3.org/Graphics/SVG/1.1/DTD/svg11.dtd">
<svg class="marks" width="1066" height="647" viewBox="0 0 1066 647" version="1.1" xmlns="http://www.w3.org/2000/svg" xmlns:xlink="http://www.w3.org/1999/xlink"><rect width="1066" height="647" style="fill: white;"></rect><g transform="translate(42,10)"><g class="mark-group role-frame root"><g transform="translate(0,0)"><path class="background" d="M0.5,0.5h900v600h-900Z" style="fill: none; stroke: #ddd;"></path><g><g class="mark-group role-axis"><g transform="translate(0.5,600.5)"><path class="background" d="M0,0h0v0h0Z" style="pointer-events: none; fill: none;"></path><g><g class="mark-rule role-axis-grid" style="pointer-events: none;"><line transform="translate(0,-600)" x2="0" y2="600" style="fill: none; stroke: #ddd; stroke-width: 1; opacity: 1;"></line><line transform="translate(35,-600)" x2="0" y2="600" style="fill: none; stroke: #ddd; stroke-width: 1; opacity: 1;"></line><line transform="translate(69,-600)" x2="0" y2="600" style="fill: none; stroke: #ddd; stroke-width: 1; opacity: 1;"></line><line transform="translate(104,-600)" x2="0" y2="600" style="fill: none; stroke: #ddd; stroke-width: 1; opacity: 1;"></line><line transform="translate(138,-600)" x2="0" y2="600" style="fill: none; stroke: #ddd; stroke-width: 1; opacity: 1;"></line><line transform="translate(173,-600)" x2="0" y2="600" style="fill: none; stroke: #ddd; stroke-width: 1; opacity: 1;"></line><line transform="translate(208,-600)" x2="0" y2="600" style="fill: none; stroke: #ddd; stroke-width: 1; opacity: 1;"></line><line transform="translate(242,-600)" x2="0" y2="600" style="fill: none; stroke: #ddd; stroke-width: 1; opacity: 1;"></line><line transform="translate(277,-600)" x2="0" y2="600" style="fill: none; stroke: #ddd; stroke-width: 1; opacity: 1;"></line><line transform="translate(312,-600)" x2="0" y2="600" style="fill: none; stroke: #ddd; stroke-width: 1; opacity: 1;"></line><line transform="translate(346,-600)" x2="0" y2="600" style="fill: none; stroke: #ddd; stroke-width: 1; opacity: 1;"></line><line transform="translate(381,-600)" x2="0" y2="600" style="fill: none; stroke: #ddd; stroke-width: 1; opacity: 1;"></line><line transform="translate(415,-600)" x2="0" y2="600" style="fill: none; stroke: #ddd; stroke-width: 1; opacity: 1;"></line><line transform="translate(450,-600)" x2="0" y2="600" style="fill: none; stroke: #ddd; stroke-width: 1; opacity: 1;"></line><line transform="translate(485,-600)" x2="0" y2="600" style="fill: none; stroke: #ddd; stroke-width: 1; opacity: 1;"></line><line transform="translate(519,-600)" x2="0" y2="600" style="fill: none; stroke: #ddd; stroke-width: 1; opacity: 1;"></line><line transform="translate(554,-600)" x2="0" y2="600" style="fill: none; stroke: #ddd; stroke-width: 1; opacity: 1;"></line><line transform="translate(588,-600)" x2="0" y2="600" style="fill: none; stroke: #ddd; stroke-width: 1; opacity: 1;"></line><line transform="translate(623,-600)" x2="0" y2="600" style="fill: none; stroke: #ddd; stroke-width: 1; opacity: 1;"></line><line transform="translate(658,-600)" x2="0" y2="600" style="fill: none; stroke: #ddd; stroke-width: 1; opacity: 1;"></line><line transform="translate(692,-600)" x2="0" y2="600" style="fill: none; stroke: #ddd; stroke-width: 1; opacity: 1;"></line><line transform="translate(727,-600)" x2="0" y2="600" style="fill: none; stroke: #ddd; stroke-width: 1; opacity: 1;"></line><line transform="translate(762,-600)" x2="0" y2="600" style="fill: none; stroke: #ddd; stroke-width: 1; opacity: 1;"></line><line transform="translate(796,-600)" x2="0" y2="600" style="fill: none; stroke: #ddd; stroke-width: 1; opacity: 1;"></line><line transform="translate(831,-600)" x2="0" y2="600" style="fill: none; stroke: #ddd; stroke-width: 1; opacity: 1;"></line><line transform="translate(865,-600)" x2="0" y2="600" style="fill: none; stroke: #ddd; stroke-width: 1; opacity: 1;"></line><line transform="translate(900,-600)" x2="0" y2="600" style="fill: none; stroke: #ddd; stroke-width: 1; opacity: 1;"></line></g></g><path class="foreground" d="" style="pointer-events: none; display: none; fill: none;"></path></g></g><g class="mark-group role-axis"><g transform="translate(0.5,0.5)"><path class="background" d="M0,0h0v0h0Z" style="pointer-events: none; fill: none;"></path><g><g class="mark-rule role-axis-grid" style="pointer-events: none;"><line transform="translate(0,600)" x2="900" y2="0" style="fill: none; stroke: #ddd; stroke-width: 1; opacity: 1;"></line><line transform="translate(0,554)" x2="900" y2="0" style="fill: none; stroke: #ddd; stroke-width: 1; opacity: 1;"></line><line transform="translate(0,508)" x2="900" y2="0" style="fill: none; stroke: #ddd; stroke-width: 1; opacity: 1;"></line><line transform="translate(0,462)" x2="900" y2="0" style="fill: none; stroke: #ddd; stroke-width: 1; opacity: 1;"></line><line transform="translate(0,415)" x2="900" y2="0" style="fill: none; stroke: #ddd; stroke-width: 1; opacity: 1;"></line><line transform="translate(0,369)" x2="900" y2="0" style="fill: none; stroke: #ddd; stroke-width: 1; opacity: 1;"></line><line transform="translate(0,323)" x2="900" y2="0" style="fill: none; stroke: #ddd; stroke-width: 1; opacity: 1;"></line><line transform="translate(0,277)" x2="900" y2="0" style="fill: none; stroke: #ddd; stroke-width: 1; opacity: 1;"></line><line transform="translate(0,231)" x2="900" y2="0" style="fill: none; stroke: #ddd; stroke-width: 1; opacity: 1;"></line><line transform="translate(0,185)" x2="900" y2="0" style="fill: none; stroke: #ddd; stroke-width: 1; opacity: 1;"></line><line transform="translate(0,138)" x2="900" y2="0" style="fill: none; stroke: #ddd; stroke-width: 1; opacity: 1;"></line><line transform="translate(0,92)" x2="900" y2="0" style="fill: none; stroke: #ddd; stroke-width: 1; opacity: 1;"></line><line transform="translate(0,46)" x2="900" y2="0" style="fill: none; stroke: #ddd; stroke-width: 1; opacity: 1;"></line><line transform="translate(0,0)" x2="900" y2="0" style="fill: none; stroke: #ddd; stroke-width: 1; opacity: 1;"></line></g></g><path class="foreground" d="" style="pointer-events: none; display: none; fill: none;"></path></g></g><g class="mark-group role-axis"><g transform="translate(0.5,600.5)"><path class="background" d="M0,0h0v0h0Z" style="pointer-events: none; fill: none;"></path><g><g class="mark-rule role-axis-tick" style="pointer-events: none;"><line transform="translate(0,0)" x2="0" y2="5" style="fill: none; stroke: #888; stroke-width: 1; opacity: 1;"></line><line transform="translate(35,0)" x2="0" y2="5" style="fill: none; stroke: #888; stroke-width: 1; opacity: 1;"></line><line transform="translate(69,0)" x2="0" y2="5" style="fill: none; stroke: #888; stroke-width: 1; opacity: 1;"></line><line transform="translate(104,0)" x2="0" y2="5" style="fill: none; stroke: #888; stroke-width: 1; opacity: 1;"></line><line transform="translate(138,0)" x2="0" y2="5" style="fill: none; stroke: #888; stroke-width: 1; opacity: 1;"></line><line transform="translate(173,0)" x2="0" y2="5" style="fill: none; stroke: #888; stroke-width: 1; opacity: 1;"></line><line transform="translate(208,0)" x2="0" y2="5" style="fill: none; stroke: #888; stroke-width: 1; opacity: 1;"></line><line transform="translate(242,0)" x2="0" y2="5" style="fill: none; stroke: #888; stroke-width: 1; opacity: 1;"></line><line transform="translate(277,0)" x2="0" y2="5" style="fill: none; stroke: #888; stroke-width: 1; opacity: 1;"></line><line transform="translate(312,0)" x2="0" y2="5" style="fill: none; stroke: #888; stroke-width: 1; opacity: 1;"></line><line transform="translate(346,0)" x2="0" y2="5" style="fill: none; stroke: #888; stroke-width: 1; opacity: 1;"></line><line transform="translate(381,0)" x2="0" y2="5" style="fill: none; stroke: #888; stroke-width: 1; opacity: 1;"></line><line transform="translate(415,0)" x2="0" y2="5" style="fill: none; stroke: #888; stroke-width: 1; opacity: 1;"></line><line transform="translate(450,0)" x2="0" y2="5" style="fill: none; stroke: #888; stroke-width: 1; opacity: 1;"></line><line transform="translate(485,0)" x2="0" y2="5" style="fill: none; stroke: #888; stroke-width: 1; opacity: 1;"></line><line transform="translate(519,0)" x2="0" y2="5" style="fill: none; stroke: #888; stroke-width: 1; opacity: 1;"></line><line transform="translate(554,0)" x2="0" y2="5" style="fill: none; stroke: #888; stroke-width: 1; opacity: 1;"></line><line transform="translate(588,0)" x2="0" y2="5" style="fill: none; stroke: #888; stroke-width: 1; opacity: 1;"></line><line transform="translate(623,0)" x2="0" y2="5" style="fill: none; stroke: #888; stroke-width: 1; opacity: 1;"></line><line transform="translate(658,0)" x2="0" y2="5" style="fill: none; stroke: #888; stroke-width: 1; opacity: 1;"></line><line transform="translate(692,0)" x2="0" y2="5" style="fill: none; stroke: #888; stroke-width: 1; opacity: 1;"></line><line transform="translate(727,0)" x2="0" y2="5" style="fill: none; stroke: #888; stroke-width: 1; opacity: 1;"></line><line transform="translate(762,0)" x2="0" y2="5" style="fill: none; stroke: #888; stroke-width: 1; opacity: 1;"></line><line transform="translate(796,0)" x2="0" y2="5" style="fill: none; stroke: #888; stroke-width: 1; opacity: 1;"></line><line transform="translate(831,0)" x2="0" y2="5" style="fill: none; stroke: #888; stroke-width: 1; opacity: 1;"></line><line transform="translate(865,0)" x2="0" y2="5" style="fill: none; stroke: #888; stroke-width: 1; opacity: 1;"></line><line transform="translate(900,0)" x2="0" y2="5" style="fill: none; stroke: #888; stroke-width: 1; opacity: 1;"></line></g><g class="mark-text role-axis-label" style="pointer-events: none;"><text text-anchor="start" transform="translate(0,15)" style="font-family: sans-serif; font-size: 10px; fill: #000; opacity: 1;">0</text><text text-anchor="middle" transform="translate(34.61538461538462,15)" style="font-family: sans-serif; font-size: 10px; fill: #000; opacity: 1;">10</text><text text-anchor="middle" transform="translate(69.23076923076924,15)" style="font-family: sans-serif; font-size: 10px; fill: #000; opacity: 1;">20</text><text text-anchor="middle" transform="translate(103.84615384615385,15)" style="font-family: sans-serif; font-size: 10px; fill: #000; opacity: 1;">30</text><text text-anchor="middle" transform="translate(138.46153846153848,15)" style="font-family: sans-serif; font-size: 10px; fill: #000; opacity: 1;">40</text><text text-anchor="middle" transform="translate(173.0769230769231,15)" style="font-family: sans-serif; font-size: 10px; fill: #000; opacity: 1;">50</text><text text-anchor="middle" transform="translate(207.6923076923077,15)" style="font-family: sans-serif; font-size: 10px; fill: #000; opacity: 1;">60</text><text text-anchor="middle" transform="translate(242.3076923076923,15)" style="font-family: sans-serif; font-size: 10px; fill: #000; opacity: 1;">70</text><text text-anchor="middle" transform="translate(276.92307692307696,15)" style="font-family: sans-serif; font-size: 10px; fill: #000; opacity: 1;">80</text><text text-anchor="middle" transform="translate(311.53846153846155,15)" style="font-family: sans-serif; font-size: 10px; fill: #000; opacity: 1;">90</text><text text-anchor="middle" transform="translate(346.1538461538462,15)" style="font-family: sans-serif; font-size: 10px; fill: #000; opacity: 1;">100</text><text text-anchor="middle" transform="translate(380.7692307692308,15)" style="font-family: sans-serif; font-size: 10px; fill: #000; opacity: 1;">110</text><text text-anchor="middle" transform="translate(415.3846153846154,15)" style="font-family: sans-serif; font-size: 10px; fill: #000; opacity: 1;">120</text><text text-anchor="middle" transform="translate(450,15)" style="font-family: sans-serif; font-size: 10px; fill: #000; opacity: 1;">130</text><text text-anchor="middle" transform="translate(484.6153846153846,15)" style="font-family: sans-serif; font-size: 10px; fill: #000; opacity: 1;">140</text><text text-anchor="middle" transform="translate(519.2307692307692,15)" style="font-family: sans-serif; font-size: 10px; fill: #000; opacity: 1;">150</text><text text-anchor="middle" transform="translate(553.8461538461539,15)" style="font-family: sans-serif; font-size: 10px; fill: #000; opacity: 1;">160</text><text text-anchor="middle" transform="translate(588.4615384615385,15)" style="font-family: sans-serif; font-size: 10px; fill: #000; opacity: 1;">170</text><text text-anchor="middle" transform="translate(623.0769230769231,15)" style="font-family: sans-serif; font-size: 10px; fill: #000; opacity: 1;">180</text><text text-anchor="middle" transform="translate(657.6923076923076,15)" style="font-family: sans-serif; font-size: 10px; fill: #000; opacity: 1;">190</text><text text-anchor="middle" transform="translate(692.3076923076924,15)" style="font-family: sans-serif; font-size: 10px; fill: #000; opacity: 1;">200</text><text text-anchor="middle" transform="translate(726.9230769230769,15)" style="font-family: sans-serif; font-size: 10px; fill: #000; opacity: 1;">210</text><text text-anchor="middle" transform="translate(761.5384615384615,15)" style="font-family: sans-serif; font-size: 10px; fill: #000; opacity: 1;">220</text><text text-anchor="middle" transform="translate(796.1538461538461,15)" style="font-family: sans-serif; font-size: 10px; fill: #000; opacity: 1;">230</text><text text-anchor="middle" transform="translate(830.7692307692308,15)" style="font-family: sans-serif; font-size: 10px; fill: #000; opacity: 1;">240</text><text text-anchor="middle" transform="translate(865.3846153846154,15)" style="font-family: sans-serif; font-size: 10px; fill: #000; opacity: 1;">250</text><text text-anchor="end" transform="translate(900,15)" style="font-family: sans-serif; font-size: 10px; fill: #000; opacity: 1;">260</text></g><g class="mark-rule role-axis-domain" style="pointer-events: none;"><line transform="translate(0,0)" x2="900" y2="0" style="fill: none; stroke: #888; stroke-width: 1; opacity: 1;"></line></g><g class="mark-text role-axis-title" style="pointer-events: none;"><text text-anchor="middle" transform="translate(450,30)" style="font-family: sans-serif; font-size: 11px; font-weight: bold; fill: #000; opacity: 1;">Size</text></g></g><path class="foreground" d="" style="pointer-events: none; display: none; fill: none;"></path></g></g><g class="mark-group role-axis"><g transform="translate(0.5,0.5)"><path class="background" d="M0,0h0v0h0Z" style="pointer-events: none; fill: none;"></path><g><g class="mark-rule role-axis-tick" style="pointer-events: none;"><line transform="translate(0,600)" x2="-5" y2="0" style="fill: none; stroke: #888; stroke-width: 1; opacity: 1;"></line><line transform="translate(0,554)" x2="-5" y2="0" style="fill: none; stroke: #888; stroke-width: 1; opacity: 1;"></line><line transform="translate(0,508)" x2="-5" y2="0" style="fill: none; stroke: #888; stroke-width: 1; opacity: 1;"></line><line transform="translate(0,462)" x2="-5" y2="0" style="fill: none; stroke: #888; stroke-width: 1; opacity: 1;"></line><line transform="translate(0,415)" x2="-5" y2="0" style="fill: none; stroke: #888; stroke-width: 1; opacity: 1;"></line><line transform="translate(0,369)" x2="-5" y2="0" style="fill: none; stroke: #888; stroke-width: 1; opacity: 1;"></line><line transform="translate(0,323)" x2="-5" y2="0" style="fill: none; stroke: #888; stroke-width: 1; opacity: 1;"></line><line transform="translate(0,277)" x2="-5" y2="0" style="fill: none; stroke: #888; stroke-width: 1; opacity: 1;"></line><line transform="translate(0,231)" x2="-5" y2="0" style="fill: none; stroke: #888; stroke-width: 1; opacity: 1;"></line><line transform="translate(0,185)" x2="-5" y2="0" style="fill: none; stroke: #888; stroke-width: 1; opacity: 1;"></line><line transform="translate(0,138)" x2="-5" y2="0" style="fill: none; stroke: #888; stroke-width: 1; opacity: 1;"></line><line transform="translate(0,92)" x2="-5" y2="0" style="fill: none; stroke: #888; stroke-width: 1; opacity: 1;"></line><line transform="translate(0,46)" x2="-5" y2="0" style="fill: none; stroke: #888; stroke-width: 1; opacity: 1;"></line><line transform="translate(0,0)" x2="-5" y2="0" style="fill: none; stroke: #888; stroke-width: 1; opacity: 1;"></line></g><g class="mark-text role-axis-label" style="pointer-events: none;"><text text-anchor="end" transform="translate(-7,603)" style="font-family: sans-serif; font-size: 10px; fill: #000; opacity: 1;">0.0</text><text text-anchor="end" transform="translate(-7,556.8461538461539)" style="font-family: sans-serif; font-size: 10px; fill: #000; opacity: 1;">0.2</text><text text-anchor="end" transform="translate(-7,510.6923076923077)" style="font-family: sans-serif; font-size: 10px; fill: #000; opacity: 1;">0.4</text><text text-anchor="end" transform="translate(-7,464.53846153846155)" style="font-family: sans-serif; font-size: 10px; fill: #000; opacity: 1;">0.6</text><text text-anchor="end" transform="translate(-7,418.38461538461536)" style="font-family: sans-serif; font-size: 10px; fill: #000; opacity: 1;">0.8</text><text text-anchor="end" transform="translate(-7,372.2307692307692)" style="font-family: sans-serif; font-size: 10px; fill: #000; opacity: 1;">1.0</text><text text-anchor="end" transform="translate(-7,326.07692307692315)" style="font-family: sans-serif; font-size: 10px; fill: #000; opacity: 1;">1.2</text><text text-anchor="end" transform="translate(-7,279.92307692307696)" style="font-family: sans-serif; font-size: 10px; fill: #000; opacity: 1;">1.4</text><text text-anchor="end" transform="translate(-7,233.76923076923075)" style="font-family: sans-serif; font-size: 10px; fill: #000; opacity: 1;">1.6</text><text text-anchor="end" transform="translate(-7,187.6153846153846)" style="font-family: sans-serif; font-size: 10px; fill: #000; opacity: 1;">1.8</text><text text-anchor="end" transform="translate(-7,141.4615384615385)" style="font-family: sans-serif; font-size: 10px; fill: #000; opacity: 1;">2.0</text><text text-anchor="end" transform="translate(-7,95.3076923076923)" style="font-family: sans-serif; font-size: 10px; fill: #000; opacity: 1;">2.2</text><text text-anchor="end" transform="translate(-7,49.15384615384619)" style="font-family: sans-serif; font-size: 10px; fill: #000; opacity: 1;">2.4</text><text text-anchor="end" transform="translate(-7,3)" style="font-family: sans-serif; font-size: 10px; fill: #000; opacity: 1;">2.6</text></g><g class="mark-rule role-axis-domain" style="pointer-events: none;"><line transform="translate(0,600)" x2="0" y2="-600" style="fill: none; stroke: #888; stroke-width: 1; opacity: 1;"></line></g><g class="mark-text role-axis-title" style="pointer-events: none;"><text text-anchor="middle" transform="translate(-26,300) rotate(-90) translate(0,-2)" style="font-family: sans-serif; font-size: 11px; font-weight: bold; fill: #000; opacity: 1;">GFLOPS</text></g></g><path class="foreground" d="" style="pointer-events: none; display: none; fill: none;"></path></g></g><g class="mark-group role-scope pathgroup"><g transform="translate(0,0)"><path class="background" d="M0,0h900v600h-900Z" style="fill: none;"></path><g><g class="mark-line role-mark marks"><path d="M6.923076923076923,569.2779707453221L10.384615384615385,561.4848610890754L13.846153846153847,560.9901300328999L17.30769230769231,560.9670240003766L20.76923076923077,559.8597764597823L24.230769230769234,563.3531756174347L27.692307692307693,558.3934550243055L31.153846153846157,551.9253250840812L34.61538461538462,556.3726466228624L38.07692307692308,554.5499080416654L41.53846153846154,556.0175979474878L45,554.8184422064122L48.46153846153847,554.9341329766959L51.92307692307693,554.221434363626L55.38461538461539,552.5780196184586L58.84615384615385,555.0931981237468L62.307692307692314,554.6849695922701L65.76923076923077,547.4158167879322L69.23076923076924,551.1841229482532L72.6923076923077,554.2797202797203L76.15384615384616,550.7120327409403L79.61538461538461,548.0418356949224L83.07692307692308,553.0081147548008L86.53846153846155,544.4811460573534L90,556.0749478590548L93.46153846153847,549.9867640739149L96.92307692307693,549.5542920984486L100.38461538461539,549.2409015804479L103.84615384615385,550.0417447029356L107.3076923076923,550.7679436071581L110.76923076923077,549.7575375959832L114.23076923076923,550.7531301316159L117.6923076923077,549.8856459224357L121.15384615384615,550.4255927573178L124.61538461538463,547.92534154414L128.07692307692307,549.2784748814213L131.53846153846155,554.8212187925819L135,552.0979781143561L138.46153846153848,551.0857813226226L141.9230769230769,550.2559261169847L145.3846153846154,551.3230661059805L148.84615384615384,550.2519539284245L152.30769230769232,552.5278447668667L155.76923076923077,551.2868393277583L159.23076923076923,551.6680824201546L162.69230769230768,549.1106450207017L166.15384615384616,549.7075002182835L169.6153846153846,551.1077967112868L173.0769230769231,552.1779311582624L176.53846153846155,553.6541661333674L180,551.1114825338459L183.46153846153845,552.3905121286464L186.92307692307693,552.7813890994465L190.3846153846154,549.580562617488L193.84615384615387,548.4407484407485L197.3076923076923,549.2814592357068L200.76923076923077,549.7719261870205L204.23076923076923,550.209317318414L207.6923076923077,551.5584436804434L211.15384615384616,548.934572507938L214.6153846153846,552.0810990551624L218.07692307692307,551.0827856789593L221.53846153846155,554.089000179081L225,547.7096317102838L228.46153846153845,554.7107664859673L231.9230769230769,547.2255042182286L235.3846153846154,549.0907535240749L238.84615384615384,554.4268777987322L242.3076923076923,555.0223052649401L245.76923076923075,547.4656953499376L249.23076923076925,553.3722648049403L252.6923076923077,550.849529624941L256.15384615384613,548.8535532894832L259.6153846153846,552.9848915699866L263.0769230769231,550.4973335323573L266.53846153846155,548.5571123689338L270,549.465112565863L273.46153846153845,550.6518109033899L276.92307692307696,551.3749871482397L280.3846153846154,553.3973879523618L283.8461538461538,550.9953393699964L287.30769230769226,551.6628278410464L290.7692307692308,559.3259732713539L294.2307692307692,551.0667449598748L297.6923076923077,551.050330884585L301.15384615384613,553.6551353048001L304.61538461538464,553.565617202712L308.0769230769231,554.3994058621942L311.53846153846155,549.2889179382001L315,550.7344446278263L318.46153846153845,553.8537922605888L321.9230769230769,553.9149224499153L325.38461538461536,556.4787323449236L328.8461538461538,556.8580486308816L332.3076923076923,553.9931202675215L335.7692307692308,549.2470768841227L339.2307692307692,555.9525472346661L342.6923076923077,556.1353111248064L346.1538461538462,551.3642413028429L349.61538461538464,554.2461159780647L353.0769230769231,553.780675283266L356.53846153846155,555.0246594483453L360,550.780880265026L363.46153846153845,552.2587849489724L366.9230769230769,553.1848312008633L370.38461538461536,548.9779699272023L373.84615384615387,551.6368167169L377.3076923076923,554.1362156484164L380.7692307692308,555.2920923992875L384.2307692307692,552.6781198380888L387.69230769230774,553.0487580413843L391.1538461538462,554.2648909839521L394.6153846153846,555.2205258169381L398.07692307692304,555.058706406836L401.53846153846155,552.8339115399966L405,552.3874835903364L408.46153846153845,554.4499029895413L411.9230769230769,555.76629813191L415.3846153846154,554.3579366124713L418.84615384615387,555.9597292580137L422.3076923076923,552.8384807589727L425.7692307692308,559.1072423461759L429.2307692307692,553.2774975078878L432.6923076923077,554.2631854276999L436.15384615384613,552.9983210092345L439.6153846153846,551.5058483294512L443.0769230769231,551.5917106567391L446.53846153846155,554.114366849403L450,552.9757955168335L453.46153846153845,558.0314540885325L456.9230769230769,552.8383939069572L460.38461538461536,553.9377785181791L463.8461538461538,553.3593151410453L467.3076923076923,555.2997400762664L470.7692307692308,552.6631737791109L474.2307692307692,553.2709252070736L477.6923076923077,554.7212615550231L481.15384615384613,556.1875499476325L484.6153846153846,553.0307148681707L488.07692307692304,555.4722706318162L491.5384615384615,556.9059685109381L495.00000000000006,558.8672283990627L498.4615384615385,556.7700166353911L501.92307692307696,556.4653567542307L505.3846153846154,555.0589978908966L508.8461538461538,559.5794642868669L512.3076923076923,553.2093670883976L515.7692307692307,556.7713709668942L519.2307692307692,557.9572355013775L522.6923076923077,555.8145239484063L526.1538461538462,553.238749817467L529.6153846153846,554.1066715301572L533.0769230769231,553.6322600640075L536.5384615384615,553.0553918842271L540,556.5489999373001L543.4615384615385,555.2200907841876L546.9230769230769,554.677372913124L550.3846153846155,552.2018858352994L553.8461538461539,555.5016002648714L557.3076923076924,557.8198266597516L560.7692307692308,553.5779374849558L564.2307692307692,552.5391193693451L567.6923076923076,556.6130814360635L571.1538461538461,554.0179423554114L574.6153846153845,556.0352424321708L578.0769230769231,554.7164451484058L581.5384615384615,553.716330114577L585,556.3063287357467L588.4615384615385,556.4068770984036L591.9230769230769,556.4481421547056L595.3846153846154,555.9202161474889L598.8461538461538,558.5280353538337L602.3076923076923,559.9223014733544L605.7692307692308,555.98174899184L609.2307692307693,559.0195165318995L612.6923076923077,554.3769002302245L616.1538461538462,555.9260482007263L619.6153846153846,557.3487947261824L623.0769230769231,555.4492203613563L626.5384615384615,555.4631202765247L630,556.44000777857L633.4615384615385,555.6229975603304L636.9230769230769,557.8587351513116L640.3846153846154,556.5527971583181L643.8461538461538,556.5299246284984L647.3076923076923,554.9307089777063L650.7692307692307,555.2654539007423L654.2307692307692,555.9751846014085L657.6923076923076,554.371950757097L661.1538461538462,557.1618144550841L664.6153846153846,559.1521228840303L668.0769230769231,559.1951795341625L671.5384615384615,558.9160036989715L675,556.4881067491781L678.4615384615385,559.4670049011836L681.9230769230769,554.9618204264528L685.3846153846154,554.376128115519L688.8461538461538,556.7090149669335L692.3076923076924,558.6953229337336L695.7692307692308,556.2739296902192L699.2307692307693,556.5479263465841L702.6923076923077,558.7512953718817L706.1538461538462,556.25227852716L709.6153846153846,557.6057959425644L713.0769230769231,557.7097575496294L716.5384615384615,557.2917024861594L720,558.7238799552842L723.4615384615385,557.3707183747841L726.9230769230769,559.1179867879716L730.3846153846154,558.6863162291636L733.8461538461538,557.9192526035808L737.3076923076923,559.333295148634L740.7692307692307,562.493646704173L744.2307692307692,558.1092666199049L747.6923076923077,556.6102421255624L751.1538461538462,560.0789835164835L754.6153846153846,557.4240924951825L758.0769230769231,560.4302681346214L761.5384615384615,557.5081764569545L765,559.3009336844625L768.4615384615385,557.5974431130862L771.9230769230769,557.314583226992L775.3846153846155,560.8688056833402L778.8461538461539,557.8306855168709L782.3076923076924,559.6238707487449L785.7692307692308,556.487569246104L789.2307692307692,558.5183028891638L792.6923076923076,561.1568145195488L796.1538461538461,559.6986157350622L799.6153846153845,564.1749379652606L803.0769230769231,560.3565630962892L806.5384615384615,560.1709401709402L810,561.541200769176L813.4615384615385,556.9938388336485L816.9230769230769,563.8537608936493L820.3846153846154,557.9677930431081L823.8461538461538,558.7478767289493L827.3076923076923,561.508935617387L830.7692307692308,561.5891425309554L834.2307692307693,561.8759359642277L837.6923076923077,558.3455255865191L841.1538461538462,559.0798868382055L844.6153846153846,560.2487170436341L848.0769230769231,560.5811465255097L851.5384615384615,557.948717948718L855,558.5484692022399L858.4615384615385,558.9066064258137L861.9230769230769,558.2067507007503L865.3846153846154,559.8103046378909L868.8461538461538,559.5452738349791L872.3076923076923,557.5798043957648L875.7692307692307,560.0269646825857L879.2307692307692,559.99495999496L882.6923076923076,560.5905747079066L886.1538461538462,559.8252818246018" style="fill: none; stroke: #ff7f0e; stroke-width: 2;"></path></g></g><path class="foreground" d="" style="display: none; fill: none;"></path></g><g transform="translate(0,0)"><path class="background" d="M0,0h900v600h-900Z" style="fill: none;"></path><g><g class="mark-line role-mark marks"><path d="M6.923076923076923,561.5127777064338L10.384615384615385,557.6328748514179L13.846153846153847,555.366036553291L17.30769230769231,553.9626339289841L20.76923076923077,552.8849113336648L24.230769230769234,552.1099590065107L27.692307692307693,556.5052638515907L31.153846153846157,556.0909849570967L34.61538461538462,555.7430102233945L38.07692307692308,555.4592275974566L41.53846153846154,555.2650432070196L45,555.0018422991893L48.46153846153847,554.6594638449457L51.92307692307693,553.869005112971L55.38461538461539,553.9657619362625L58.84615384615385,554.0473407364115L62.307692307692314,553.9511634095248L65.76923076923077,554.1560134780474L69.23076923076924,553.6310452130125L72.6923076923077,553.6136907532135L76.15384615384616,553.7063239725001L79.61538461538461,553.3517004292775L83.07692307692308,555.104659756622L86.53846153846155,555.425480391907L90,555.469869651266L93.46153846153847,555.301377078787L96.92307692307693,555.1585314051316L100.38461538461539,554.904691985381L103.84615384615385,554.8707891150742L107.3076923076923,554.9836634262434L110.76923076923077,554.9319893362393L114.23076923076923,554.6350458170763L117.6923076923077,554.7872340425532L121.15384615384615,554.2109814468649L124.61538461538463,554.6882181234806L128.07692307692307,554.2145788728466L131.53846153846155,554.4793890905986L135,554.4445364924198L138.46153846153848,553.5934962144324L141.9230769230769,554.3173063658647L145.3846153846154,553.9922103213243L148.84615384615384,553.7356431686678L152.30769230769232,554.1176621734085L155.76923076923077,553.670538735937L159.23076923076923,553.883942960666L162.69230769230768,553.9595550921846L166.15384615384616,553.1604263429232L169.6153846153846,554.0030873211231L173.0769230769231,553.6547929914087L176.53846153846155,553.8466680321161L180,553.9102832032354L183.46153846153845,553.2360489159967L186.92307692307693,553.7831184757033L190.3846153846154,553.8467077410504L193.84615384615387,553.0157696378203L197.3076923076923,553.5251642139473L200.76923076923077,553.448387788464L204.23076923076923,553.3437383872167L207.6923076923077,553.5231487019979L211.15384615384616,553.7052528457366L214.6153846153846,553.3883774301618L218.07692307692307,553.6175840604919L221.53846153846155,552.5042272418634L225,552.4628028146318L228.46153846153845,552.5064007338067L231.9230769230769,552.5981152196376L235.3846153846154,552.6262011167419L238.84615384615384,552.5411755957914L242.3076923076923,552.5543190631773L245.76923076923075,552.4930610626486L249.23076923076925,552.6084620715958L252.6923076923077,552.5675754742063L256.15384615384613,552.6402658792091L259.6153846153846,552.6837435260795L263.0769230769231,552.6794619918392L266.53846153846155,552.6714093535808L270,552.6321899872293L273.46153846153845,552.6182524761398L276.92307692307696,552.5760368122645L280.3846153846154,552.5953058259353L283.8461538461538,552.5879303748494L287.30769230769226,552.6305276274362L290.7692307692308,552.7008384339473L294.2307692307692,552.5843394440653L297.6923076923077,552.6657004724026L301.15384615384613,552.5903302127908L304.61538461538464,553.1098129694172L308.0769230769231,553.2234217351026L311.53846153846155,553.1451719631788L315,553.1302838334423L318.46153846153845,553.1324345757336L321.9230769230769,553.4159358639575L325.38461538461536,553.1960854356369L328.8461538461538,553.2002061000591L332.3076923076923,553.0856912521868L335.7692307692308,553.1127075611062L339.2307692307692,553.1409384563074L342.6923076923077,553.1274659371876L346.1538461538462,553.076511891718L349.61538461538464,552.9402157727374L353.0769230769231,553.0107578800224L356.53846153846155,552.9669608614009L360,553.0193815442024L363.46153846153845,553.1140256353407L366.9230769230769,553.0148749871394L370.38461538461536,553.0223146112701L373.84615384615387,553.0522518675L377.3076923076923,552.9373869181425L380.7692307692308,552.9328842701352L384.2307692307692,553.0249687103252L387.69230769230774,553.0234359462826L391.1538461538462,553.0448656223798L394.6153846153846,553.0003191828919L398.07692307692304,552.9351644559283L401.53846153846155,553.0068649079468L405,553.0809332535681L408.46153846153845,552.8919728149802L411.9230769230769,552.9269408521625L415.3846153846154,552.974052011449L418.84615384615387,553.0858760162308L422.3076923076923,553.1238869729334L425.7692307692308,553.0596096170556L429.2307692307692,553.0125047366427L432.6923076923077,552.994357890394L436.15384615384613,552.9926111118699L439.6153846153846,553.0692745975954L443.0769230769231,552.7529652793526L446.53846153846155,552.4792552699704L450,552.6994878110219L453.46153846153845,552.6508061497153L456.9230769230769,552.654743924652L460.38461538461536,552.664104601292L463.8461538461538,552.6671400335568L467.3076923076923,552.711758204461L470.7692307692308,552.7384895141985L474.2307692307692,552.8093149410812L477.6923076923077,552.7663380110631L481.15384615384613,552.9072664129998L484.6153846153846,552.7344978543459L488.07692307692304,552.8588578031915L491.5384615384615,552.8867079704606L495.00000000000006,552.91466582697L498.4615384615385,552.7521476296532L501.92307692307696,552.7464603181206L505.3846153846154,552.7495256093349L508.8461538461538,552.8576548931327L512.3076923076923,552.8633826741083L515.7692307692307,552.8613104840657L519.2307692307692,552.9187513333557L522.6923076923077,552.911605004559L526.1538461538462,553.1864059350162L529.6153846153846,553.0729280771164L533.0769230769231,553.2583158155063L536.5384615384615,553.1756689922142L540,553.1464349783671L543.4615384615385,553.1396755128585L546.9230769230769,553.0502350820774L550.3846153846155,553.2292841741514L553.8461538461539,553.0545242551625L557.3076923076924,554.1004081450589L560.7692307692308,553.141603293992L564.2307692307692,553.1344680184507L567.6923076923076,553.0949097172347L571.1538461538461,553.0387674162216L574.6153846153845,553.0910632276126L578.0769230769231,553.2068866511462L581.5384615384615,553.0883281649119L585,553.001017293998L588.4615384615385,553.2154173422787L591.9230769230769,553.2107441994801L595.3846153846154,553.0880041320081L598.8461538461538,553.0803796963493L602.3076923076923,552.9296178408242L605.7692307692308,553.2620942084401L609.2307692307693,553.0707013896073L612.6923076923077,553.118465441771L616.1538461538462,553.0951492127626L619.6153846153846,553.1287826263099L623.0769230769231,553.0680445188964L626.5384615384615,553.1406750590595L630,553.0616996507567L633.4615384615385,553.2653109706847L636.9230769230769,553.0896111750128L640.3846153846154,553.1394460322621L643.8461538461538,553.1931895693482L647.3076923076923,553.1734322337877L650.7692307692307,553.2101212149146L654.2307692307692,553.258607725532L657.6923076923076,553.2507155921165L661.1538461538462,553.202358891749L664.6153846153846,552.5596641839192L668.0769230769231,552.6620712986849L671.5384615384615,552.8973777921657L675,552.6679881872244L678.4615384615385,552.6775797962239L681.9230769230769,552.7203438520447L685.3846153846154,552.7507158982439L688.8461538461538,552.7847152847153L692.3076923076924,552.8459925298125L695.7692307692308,552.8312033714348L699.2307692307693,552.8693199493954L702.6923076923077,552.9825683671838L706.1538461538462,552.9701068162607L709.6153846153846,553.1522672502147L713.0769230769231,553.2147804955599L716.5384615384615,553.1949531949532L720,553.0010770586507L723.4615384615385,553.0829093085902L726.9230769230769,553.3080851126906L730.3846153846154,553.2479042800694L733.8461538461538,553.0983827791421L737.3076923076923,553.3290484676736L740.7692307692307,553.2032451581395L744.2307692307692,553.1665238669203L747.6923076923077,553.3886722964711L751.1538461538462,553.3212872139047L754.6153846153846,553.5778422924311L758.0769230769231,553.3648966148735L761.5384615384615,553.4184505282772L765,553.4246575342466L768.4615384615385,553.4011558752327L771.9230769230769,553.4453243517835L775.3846153846155,553.5224710552889L778.8461538461539,553.3694863735277L782.3076923076924,553.3841203487253L785.7692307692308,553.3737290746636L789.2307692307692,553.3592902975049L792.6923076923076,553.3532051847878L796.1538461538461,553.3553712304042L799.6153846153845,553.3493547670497L803.0769230769231,553.2945463330179L806.5384615384615,553.3091083976808L810,553.3114300536054L813.4615384615385,553.3979812402087L816.9230769230769,553.4476976993432L820.3846153846154,553.3302263910678L823.8461538461538,553.5180459351076L827.3076923076923,553.3819236295781L830.7692307692308,553.44657024072L834.2307692307693,553.3193011453881L837.6923076923077,553.3254042238581L841.1538461538462,553.312028076827L844.6153846153846,553.3181128273153L848.0769230769231,553.2855808159452L851.5384615384615,553.4220292343036L855,553.3207763491934L858.4615384615385,553.208430029622L861.9230769230769,553.2870998605491L865.3846153846154,553.3007060933239L868.8461538461538,553.2689980451174L872.3076923076923,553.1847962052437L875.7692307692307,553.296044008787L879.2307692307692,553.3651168626106L882.6923076923076,553.2670315707164L886.1538461538462,552.7762405460247" style="fill: none; stroke: #1f77b4; stroke-width: 2;"></path></g></g><path class="foreground" d="" style="display: none; fill: none;"></path></g><g transform="translate(0,0)"><path class="background" d="M0,0h900v600h-900Z" style="fill: none;"></path><g><g class="mark-line role-mark marks"><path d="M6.923076923076923,562.8792429694129L10.384615384615385,556.301114608622L13.846153846153847,555.1747263987291L17.30769230769231,553.9035430094755L20.76923076923077,553.0566884389973L24.230769230769234,551.7541830162138L27.692307692307693,454.6530307898422L31.153846153846157,457.6003551271482L34.61538461538462,473.2693048436184L38.07692307692308,480.10582434761693L41.53846153846154,496.83684842620033L45,503.54508992107645L48.46153846153847,511.6565665989559L51.92307692307693,516.7980218286133L55.38461538461539,322.290822449086L58.84615384615385,370.43501792842164L62.307692307692314,406.65804783451847L65.76923076923077,428.28417257483005L69.23076923076924,446.2724153840999L72.6923076923077,459.6526257223877L76.15384615384616,473.2910879887483L79.61538461538461,482.2998790935292L83.07692307692308,260.396619846116L86.53846153846155,335.04430987502525L90,375.95321111236075L93.46153846153847,402.7207550683374L96.92307692307693,419.6754625285905L100.38461538461539,431.4978296431077L103.84615384615385,443.815460341222L107.3076923076923,456.6587597424602L110.76923076923077,293.90832231566344L114.23076923076923,311.88944135712194L117.6923076923077,342.63869710015433L121.15384615384615,375.49658179469236L124.61538461538463,393.7747839055388L128.07692307692307,402.9769503291786L131.53846153846155,427.08806042472673L135,440.4669260700389L138.46153846153848,251.30541440336424L141.9230769230769,298.05216454974055L145.3846153846154,322.6140145124495L148.84615384615384,355.7130982295558L152.30769230769232,379.50654650110124L155.76923076923077,393.98172127966495L159.23076923076923,404.4847822334733L162.69230769230768,416.73624218102685L166.15384615384616,229.00257637099745L169.6153846153846,345.1309021556955L173.0769230769231,310.06097204180276L176.53846153846155,348.1441658566464L180,354.5488456915488L183.46153846153845,376.8471978959259L186.92307692307693,393.1572501059672L190.3846153846154,397.05892319489755L193.84615384615387,233.9082137159335L197.3076923076923,257.372771121327L200.76923076923077,284.9106094362194L204.23076923076923,324.7248020118683L207.6923076923077,334.3857333351292L211.15384615384616,369.63497917356386L214.6153846153846,367.4104969037525L218.07692307692307,385.0570203671606L221.53846153846155,233.0096862667947L225,254.57083042568044L228.46153846153845,299.0858291977254L231.9230769230769,304.76086800916204L235.3846153846154,336.93165643640606L238.84615384615384,343.7202879893678L242.3076923076923,358.56217579996803L245.76923076923075,371.71322369159464L249.23076923076925,231.4978722082975L252.6923076923077,250.03469374881726L256.15384615384613,281.96875653811287L259.6153846153846,322.24251692368153L263.0769230769231,318.10053455425845L266.53846153846155,332.4191221582901L270,347.93174767321614L273.46153846153845,359.2741986047425L276.92307692307696,205.67432912637324L280.3846153846154,264.4795554682456L283.8461538461538,280.6961114860252L287.30769230769226,284.7764010947574L290.7692307692308,312.1958012172047L294.2307692307692,326.1333156727044L297.6923076923077,335.4245376080216L301.15384615384613,350.1248751248751L304.61538461538464,209.96952325013413L308.0769230769231,242.87879426329002L311.53846153846155,262.92091890356295L315,278.41389019239784L318.46153846153845,286.83060756618147L321.9230769230769,323.58067362847476L325.38461538461536,349.26862846325935L328.8461538461538,343.71126503827924L332.3076923076923,224.84744320779393L335.7692307692308,260.046324137972L339.2307692307692,263.79473473955204L342.6923076923077,277.1742744209528L346.1538461538462,286.26539623518477L349.61538461538464,306.6898511030626L353.0769230769231,325.47070305396267L356.53846153846155,331.8544150150368L360,207.0236346641741L363.46153846153845,231.3609467455622L366.9230769230769,231.57383473396658L370.38461538461536,263.8384935372204L373.84615384615387,298.88446866747165L377.3076923076923,299.3974603986765L380.7692307692308,324.7482629553759L384.2307692307692,323.08950134168157L387.69230769230774,188.9046195794662L391.1538461538462,241.84399088341607L394.6153846153846,241.73907800830497L398.07692307692304,256.73576456845404L401.53846153846155,277.9696611403108L405,304.94838997290907L408.46153846153845,310.11315484242624L411.9230769230769,315.1865532993814L415.3846153846154,201.07316043021783L418.84615384615387,220.77363742866046L422.3076923076923,245.19042993200011L425.7692307692308,259.9969031192471L429.2307692307692,278.52411719289694L432.6923076923077,284.17825560682695L436.15384615384613,297.93764778001577L439.6153846153846,306.275200376718L443.0769230769231,192.73476388855545L446.53846153846155,214.55531707798897L450,244.5051496917568L453.46153846153845,253.68505791651106L456.9230769230769,265.5310748853795L460.38461538461536,276.71195295633197L463.8461538461538,291.6739586659419L467.3076923076923,304.50966591078986L470.7692307692308,209.05173225311324L474.2307692307692,218.00913815487863L477.6923076923077,241.64370774910944L481.15384615384613,251.89306302743074L484.6153846153846,269.0064952086913L488.07692307692304,278.161411061903L491.5384615384615,299.9350331103184L495.00000000000006,302.3606384742144L498.4615384615385,207.420814479638L501.92307692307696,214.9789418559195L505.3846153846154,240.39625500977212L508.8461538461538,272.7319234400806L512.3076923076923,255.88247583326987L515.7692307692307,270.5754011637327L519.2307692307692,285.42932251617157L522.6923076923077,297.0587614619816L526.1538461538462,197.89541753622763L529.6153846153846,216.41283498081825L533.0769230769231,230.29060653563246L536.5384615384615,239.87887966150691L540,249.53343620866423L543.4615384615385,263.0200396878707L546.9230769230769,275.414484534591L550.3846153846155,287.9574856406678L553.8461538461539,186.83356112950895L557.3076923076924,220.03340697235845L560.7692307692308,219.3037252222593L564.2307692307692,234.75299725092904L567.6923076923076,257.02270689044474L571.1538461538461,260.6118546845124L574.6153846153845,283.1992037277463L578.0769230769231,289.32592610495567L581.5384615384615,195.3339625331857L585,209.9420910845725L588.4615384615385,223.85455709541023L591.9230769230769,248.20252284273764L595.3846153846154,246.20592253153865L598.8461538461538,256.95904035928805L602.3076923076923,273.98183513945634L605.7692307692308,283.97805335361517L609.2307692307693,210.2330406607279L612.6923076923077,217.39211518810384L616.1538461538462,229.67850530213767L619.6153846153846,239.94755742199644L623.0769230769231,253.69024445602471L626.5384615384615,258.8163410361016L630,286.77333652260825L633.4615384615385,283.55740014710364L636.9230769230769,201.20789836822334L640.3846153846154,222.4664714927714L643.8461538461538,231.90366364969532L647.3076923076923,236.38323440204726L650.7692307692307,251.7789219523489L654.2307692307692,275.19508334842556L657.6923076923076,302.8752858107548L661.1538461538462,290.3466399571762L664.6153846153846,221.71385156234902L668.0769230769231,224.89332832687612L671.5384615384615,248.40096443770798L675,282.4080035659452L678.4615384615385,297.0267854986354L681.9230769230769,274.08777099787164L685.3846153846154,295.85895253339163L688.8461538461538,277.26195464056167L692.3076923076924,220.08976516230146L695.7692307692308,212.31815484987737L699.2307692307693,237.81354114936866L702.6923076923077,248.02947931333426L706.1538461538462,243.51044053664245L709.6153846153846,263.04781763666637L713.0769230769231,266.7423064174804L716.5384615384615,258.994905255342L720,199.16031377748317L723.4615384615385,207.34077226460622L726.9230769230769,218.3929616865127L730.3846153846154,256.52009708608017L733.8461538461538,237.47719982388824L737.3076923076923,249.2657120106787L740.7692307692307,261.9375514924301L744.2307692307692,267.74517467604375L747.6923076923077,225.60839631744665L751.1538461538462,199.93470516501344L754.6153846153846,212.26279297788471L758.0769230769231,236.64244953367347L761.5384615384615,229.47801780096145L765,232.4719328411045L768.4615384615385,253.2186846386242L771.9230769230769,270.08114708699424L775.3846153846155,185.43341332658832L778.8461538461539,203.10537043831707L782.3076923076924,211.24311770896537L785.7692307692308,219.48221270255166L789.2307692307692,228.776299614723L792.6923076923076,241.66677677339467L796.1538461538461,251.55790514642194L799.6153846153845,252.21449783763228L803.0769230769231,193.82534489830633L806.5384615384615,207.89877516957952L810,226.61367145156527L813.4615384615385,218.94972997440118L816.9230769230769,220.41632881944176L820.3846153846154,247.7068330064006L823.8461538461538,246.3054444705821L827.3076923076923,261.7117267529653L830.7692307692308,208.93394999753116L834.2307692307693,185.36294776548888L837.6923076923077,239.1453277463268L841.1538461538462,229.01819874745857L844.6153846153846,246.09519088119117L848.0769230769231,248.13827447727888L851.5384615384615,252.5856760862134L855,264.25822665514806L858.4615384615385,170.99189933359048L861.9230769230769,178.41115472494L865.3846153846154,222.82362777887067L868.8461538461538,225.89598094484097L872.3076923076923,242.11888343616366L875.7692307692307,246.47578687234835L879.2307692307692,261.15882987529835L882.6923076923076,261.6193929053814L886.1538461538462,200.8573163026376" style="fill: none; stroke: #aec7e8; stroke-width: 2;"></path></g></g><path class="foreground" d="" style="display: none; fill: none;"></path></g><g transform="translate(0,0)"><path class="background" d="M0,0h900v600h-900Z" style="fill: none;"></path><g><g class="mark-line role-mark marks"><path d="M6.923076923076923,526.8212364771744L10.384615384615385,497.9499274310595L13.846153846153847,449.19507873273596L17.30769230769231,452.52477583765926L20.76923076923077,423.1653404067197L24.230769230769234,455.81046901633033L27.692307692307693,445.87099345581714L31.153846153846157,390.33486723462465L34.61538461538462,367.0387413718052L38.07692307692308,339.2903179887861L41.53846153846154,338.2227915914517L45,298.7939698492462L48.46153846153847,273.7223552832125L51.92307692307693,250.48747492652893L55.38461538461539,208.13604752837728L58.84615384615385,298.6197545045979L62.307692307692314,278.41814106538214L65.76923076923077,262.72189349112426L69.23076923076924,242.82522032928722L72.6923076923077,229.56023755656105L76.15384615384616,209.31689175963984L79.61538461538461,188.9305670684072L83.07692307692308,137.96049462020227L86.53846153846155,254.0264206410102L90,254.5716758004038L93.46153846153847,242.97481240697647L96.92307692307693,216.35936792103126L100.38461538461539,217.01226693485424L103.84615384615385,185.3549319311787L107.3076923076923,187.78646295967314L110.76923076923077,137.65080590676575L114.23076923076923,214.21988407405814L117.6923076923077,202.61034368222582L121.15384615384615,201.88400120174487L124.61538461538463,194.08139030780544L128.07692307692307,157.13005130339434L131.53846153846155,190.30351092206757L135,163.52758050394002L138.46153846153848,108.59264614070258L141.9230769230769,193.38573059663844L145.3846153846154,206.90860568700785L148.84615384615384,197.8931357913415L152.30769230769232,179.7360883797053L155.76923076923077,178.5904121953665L159.23076923076923,144.89828353464716L162.69230769230768,133.25689216810414L166.15384615384616,87.43654006811896L169.6153846153846,234.4171034689818L173.0769230769231,152.10981037064602L176.53846153846155,158.21539158016316L180,137.85415699024617L183.46153846153845,158.75216154403972L186.92307692307693,120.61740695028922L190.3846153846154,110.96475550471831L193.84615384615387,113.25050011501912L197.3076923076923,161.2736367719255L200.76923076923077,137.01747583200742L204.23076923076923,146.04728448353708L207.6923076923077,142.75491949910554L211.15384615384616,175.20255833633328L214.6153846153846,155.10851334669658L218.07692307692307,101.95320259014518L221.53846153846155,70.64642428642279L225,130.37890957195498L228.46153846153845,122.19079642150494L231.9230769230769,135.57858095200427L235.3846153846154,107.21404460386547L238.84615384615384,132.8779170842452L242.3076923076923,126.28996424401305L245.76923076923075,139.48703433560502L249.23076923076925,124.30293728875199L252.6923076923077,171.52841255708077L256.15384615384613,146.66271429277216L259.6153846153846,133.1403423637488L263.0769230769231,100.8256955575594L266.53846153846155,120.15579357351515L270,89.5184783229565L273.46153846153845,81.07682605762054L276.92307692307696,63.198509785725385L280.3846153846154,150.04792627761364L283.8461538461538,189.43114786986007L287.30769230769226,100.06274312962728L290.7692307692308,137.38341129069605L294.2307692307692,88.78276703198541L297.6923076923077,82.70049357862692L301.15384615384613,120.59585636280727L304.61538461538464,67.80358837527358L308.0769230769231,139.84029413454365L311.53846153846155,148.66363668631243L315,95.4786782709883L318.46153846153845,70.56637373698268L321.9230769230769,139.7176228810873L325.38461538461536,148.50534032737156L328.8461538461538,72.80346443171001L332.3076923076923,126.44100879344138L335.7692307692308,96.63215830166413L339.2307692307692,91.58137999339719L342.6923076923077,169.97837728188765L346.1538461538462,81.26438749026275L349.61538461538464,115.15917129863557L353.0769230769231,71.17784861169798L356.53846153846155,65.6659219887267L360,101.08359458833938L363.46153846153845,108.1286407229397L366.9230769230769,103.50541947975516L370.38461538461536,78.58425237240314L373.84615384615387,89.45698824407542L377.3076923076923,113.78764344849426L380.7692307692308,110.26784907977671L384.2307692307692,106.53988178166134L387.69230769230774,18.514400788739383L391.1538461538462,103.20543816085659L394.6153846153846,109.74199857959519L398.07692307692304,55.13486555006018L401.53846153846155,88.83605355834041L405,87.38783841028994L408.46153846153845,59.26345503844295L411.9230769230769,85.13209005814211L415.3846153846154,46.26605161451187L418.84615384615387,106.2569373698055L422.3076923076923,123.63752398177579L425.7692307692308,102.59244276536374L429.2307692307692,86.04500307490122L432.6923076923077,89.7973292480248L436.15384615384613,104.8571634165647L439.6153846153846,88.7316272079089L443.0769230769231,40.81937070321442L446.53846153846155,113.94545238061704L450,89.60695062219838L453.46153846153845,66.51583710407249L456.9230769230769,99.21767248872855L460.38461538461536,58.41960424583932L463.8461538461538,54.41605658201798L467.3076923076923,50.51202539237811L470.7692307692308,35.28696877756079L474.2307692307692,74.45945506038616L477.6923076923077,104.9322818949343L481.15384615384613,64.32089414590303L484.6153846153846,98.86349094144389L488.07692307692304,72.83726496291109L491.5384615384615,66.88863375430545L495.00000000000006,65.3156277871371L498.4615384615385,77.29396905199036L501.92307692307696,94.64328774673596L505.3846153846154,101.24419134555653L508.8461538461538,59.99910037334515L512.3076923076923,52.84167215769915L515.7692307692307,98.28995940522323L519.2307692307692,50.300153566941084L522.6923076923077,45.67436459328342L526.1538461538462,36.939859864955224L529.6153846153846,71.58408708876966L533.0769230769231,59.90012347241689L536.5384615384615,92.93378696676267L540,48.37301028313836L543.4615384615385,89.02100329803844L546.9230769230769,47.9202270380608L550.3846153846155,44.40884789860608L553.8461538461539,54.23694886613579L557.3076923076924,121.4080834419818L560.7692307692308,98.86851279785827L564.2307692307692,80.84697327949013L567.6923076923076,82.65207867056724L571.1538461538461,45.16158669637325L574.6153846153845,94.93059033502959L578.0769230769231,51.99585806583349L581.5384615384615,3.3999832799624707L585,57.16449690612624L588.4615384615385,53.73243754685431L591.9230769230769,62.14188965670326L595.3846153846154,89.21851057309216L598.8461538461538,110.55039333334638L602.3076923076923,79.11487693007946L605.7692307692308,52.0397326839942L609.2307692307693,43.201560679545835L612.6923076923077,92.62369271874971L616.1538461538462,91.15594507718716L619.6153846153846,66.98687218821458L623.0769230769231,87.42186878180634L626.5384615384615,82.41416054120288L630,59.41921072226355L633.4615384615385,92.48950909467514L636.9230769230769,102.99313768433348L640.3846153846154,63.373364244668466L643.8461538461538,60.451661365852026L647.3076923076923,73.3546158219268L650.7692307692307,57.33455254985731L654.2307692307692,73.13721577846988L657.6923076923076,64.28988394990611L661.1538461538462,66.91610661581457L664.6153846153846,74.02298153019285L668.0769230769231,65.55620241141045L671.5384615384615,124.73215145305257L675,104.42355543267902L678.4615384615385,56.552023002236695L681.9230769230769,63.36203848369666L685.3846153846154,68.57835488808048L688.8461538461538,69.5281279530143L692.3076923076924,42.80954864686435L695.7692307692308,111.64890211580447L699.2307692307693,55.49916219432232L702.6923076923077,74.76721928430072L706.1538461538462,47.067672000451275L709.6153846153846,39.23255877810834L713.0769230769231,83.84803610433833L716.5384615384615,77.06924904074552L720,71.29985943728828L723.4615384615385,55.565384796661576L726.9230769230769,62.232234457745506L730.3846153846154,88.35646158951091L733.8461538461538,91.11077010763522L737.3076923076923,53.07700365370953L740.7692307692307,51.14171094779814L744.2307692307692,52.13098673642009L747.6923076923077,82.79454253070426L751.1538461538462,54.00774587896409L754.6153846153846,51.64816351257024L758.0769230769231,51.61860432561072L761.5384615384615,58.14398386673483L765,40.16597891929796L768.4615384615385,57.139285549160675L771.9230769230769,77.7664086610664L775.3846153846155,43.41593261482208L778.8461538461539,76.09067610777784L782.3076923076924,95.09282588989375L785.7692307692308,57.84393914608208L789.2307692307692,96.86061902092764L792.6923076923076,56.3837965206637L796.1538461538461,31.90476396390165L799.6153846153845,71.21176283806334L803.0769230769231,30.60113708409917L806.5384615384615,52.79229403805816L810,52.692929920610254L813.4615384615385,61.17779596865049L816.9230769230769,43.70656524423025L820.3846153846154,41.132381796631456L823.8461538461538,58.53482996997985L827.3076923076923,36.45876473903187L830.7692307692308,34.197836374918666L834.2307692307693,66.49588049903372L837.6923076923077,50.76238830806492L841.1538461538462,98.09718675406778L844.6153846153846,78.05045604264164L848.0769230769231,32.69230769230758L851.5384615384615,15.056177892470203L855,0.7304116865869403L858.4615384615385,49.81141546132773L861.9230769230769,69.96984052021091L865.3846153846154,40.47060057347289L868.8461538461538,76.2872969296643L872.3076923076923,74.74895858472448L875.7692307692307,22.41409256038378L879.2307692307692,47.72196601630969L882.6923076923076,6.051992657073546L886.1538461538462,53.54520427467484" style="fill: none; stroke: #2ca02c; stroke-width: 2;"></path></g></g><path class="foreground" d="" style="display: none; fill: none;"></path></g><g transform="translate(0,0)"><path class="background" d="M0,0h900v600h-900Z" style="fill: none;"></path><g><g class="mark-line role-mark marks"><path d="M6.923076923076923,532.9938354328598L10.384615384615385,499.5053429659323L13.846153846153847,466.12372399174427L17.30769230769231,442.0536711849401L20.76923076923077,412.7479668023867L24.230769230769234,450.07718034473885L27.692307692307693,440.01494688517585L31.153846153846157,396.862526547273L34.61538461538462,374.3137919349373L38.07692307692308,350.2045826513911L41.53846153846154,343.75124690056145L45,306.3492063492063L48.46153846153847,282.64125255275695L51.92307692307693,259.8389806141133L55.38461538461539,218.11622480428773L58.84615384615385,300.94479306211656L62.307692307692314,279.75827228798363L65.76923076923077,262.0968220968221L69.23076923076924,244.77894986369563L72.6923076923077,231.22672219126653L76.15384615384616,212.5138245052592L79.61538461538461,190.76970618997814L83.07692307692308,137.49702608684464L86.53846153846155,248.29929096009366L90,248.81825112896598L93.46153846153847,250.42120011762475L96.92307692307693,208.1536498380394L100.38461538461539,225.28483634857054L103.84615384615385,179.65378297555702L107.3076923076923,199.44241126916168L110.76923076923077,157.23363449407304L114.23076923076923,216.82874279392058L117.6923076923077,204.89846029519757L121.15384615384615,198.2692787382235L124.61538461538463,195.33079779317805L128.07692307692307,155.83605583605578L131.53846153846155,194.89082346225203L135,186.93550614555997L138.46153846153848,120.34831275984135L141.9230769230769,197.58765446697802L145.3846153846154,210.46168745305215L148.84615384615384,201.44428520910495L152.30769230769232,184.14281963770017L155.76923076923077,178.160735630453L159.23076923076923,148.0691140447498L162.69230769230768,138.4418188092616L166.15384615384616,103.05772782237806L169.6153846153846,226.9054586122899L173.0769230769231,155.11240677481075L176.53846153846155,161.40881590319793L180,137.11959682108937L183.46153846153845,153.08059549704785L186.92307692307693,121.33914572148043L190.3846153846154,111.72107354445741L193.84615384615387,121.06445402035386L197.3076923076923,163.23747070673852L200.76923076923077,137.8368854909666L204.23076923076923,151.32965430008255L207.6923076923077,141.18488771954114L211.15384615384616,169.9390970475308L214.6153846153846,155.95584632677185L218.07692307692307,101.69585839582392L221.53846153846155,75.05234638191702L225,128.76106194690263L228.46153846153845,123.31912420073623L231.9230769230769,173.9487179487179L235.3846153846154,128.99858543485684L238.84615384615384,139.04683736763502L242.3076923076923,133.01981860933824L245.76923076923075,146.05275865843373L249.23076923076925,131.56899315550152L252.6923076923077,176.51721217750335L256.15384615384613,151.2976719736268L259.6153846153846,214.06651878547802L263.0769230769231,94.71400737829497L266.53846153846155,122.01646176373657L270,90.89976928992567L273.46153846153845,77.18033136504809L276.92307692307696,62.20641597313738L280.3846153846154,154.23821053333035L283.8461538461538,187.07826591183073L287.30769230769226,100.1153542590006L290.7692307692308,139.62293368433274L294.2307692307692,90.1089686478292L297.6923076923077,84.06969219883604L301.15384615384613,131.47857652637947L304.61538461538464,75.42559775979039L308.0769230769231,141.98592325366218L311.53846153846155,156.34529405021198L315,97.86463988418387L318.46153846153845,71.96154328793305L321.9230769230769,178.19672909579114L325.38461538461536,143.78645323342838L328.8461538461538,74.0796603541701L332.3076923076923,124.98311444652903L335.7692307692308,158.86676425732082L339.2307692307692,107.93980859254148L342.6923076923077,141.12227149505617L346.1538461538462,81.22905047449203L349.61538461538464,76.48118285199685L353.0769230769231,70.937725943856L356.53846153846155,65.6659219887267L360,104.73087286170811L363.46153846153845,112.20181874093922L366.9230769230769,104.63615458793849L370.38461538461536,78.69567075516044L373.84615384615387,85.0797766671546L377.3076923076923,111.20038810224062L380.7692307692308,115.6882591093117L384.2307692307692,111.68227773927475L387.69230769230774,22.12578631648605L391.1538461538462,116.45765755329003L394.6153846153846,110.83405211845576L398.07692307692304,57.468600633160264L401.53846153846155,92.17982264003506L405,146.6452363039464L408.46153846153845,58.98044947926171L411.9230769230769,85.76830948223677L415.3846153846154,46.72561907030837L418.84615384615387,106.97456141561644L422.3076923076923,120.81466786125688L425.7692307692308,104.62357881798623L429.2307692307692,79.75873066405931L432.6923076923077,90.5482198180884L436.15384615384613,105.67068392771854L439.6153846153846,88.51377650312394L443.0769230769231,37.79706443541981L446.53846153846155,116.10386928774375L450,87.3889690417007L453.46153846153845,66.36271306190942L456.9230769230769,100.23839663802903L460.38461538461536,58.2447347977332L463.8461538461538,54.23991655652163L467.3076923076923,50.167080112913624L470.7692307692308,35.710028898159194L474.2307692307692,74.91276777885038L477.6923076923077,108.06468252860482L481.15384615384613,65.03959679463233L484.6153846153846,100.72248193795139L488.07692307692304,75.75498014008065L491.5384615384615,65.66577931891587L495.00000000000006,68.25774872291845L498.4615384615385,82.03276690862764L501.92307692307696,95.18897040762928L505.3846153846154,101.75753984009252L508.8461538461538,60.559885366791335L512.3076923076923,53.65442060021171L515.7692307692307,97.92216430956124L519.2307692307692,51.25160673778404L522.6923076923077,45.89023399323733L526.1538461538462,38.91579970318582L529.6153846153846,71.7780842421362L533.0769230769231,59.94204172184079L536.5384615384615,95.11400651465796L540,49.89698445401765L543.4615384615385,90.59878411015174L546.9230769230769,48.74807359348545L550.3846153846155,45.35345332884708L553.8461538461539,53.60042783589834L557.3076923076924,117.81891085800575L560.7692307692308,104.74833160345527L564.2307692307692,78.57634444424963L567.6923076923076,84.01491316283864L571.1538461538461,45.69123377070397L574.6153846153845,109.73933188986662L578.0769230769231,54.43853994250376L581.5384615384615,15.109041668646261L585,57.17225413701441L588.4615384615385,54.26351473960298L591.9230769230769,62.32265444991767L595.3846153846154,88.75003450909666L598.8461538461538,91.36552913912442L602.3076923076923,77.76556039088749L605.7692307692308,52.24597112744087L609.2307692307693,46.85670971993123L612.6923076923077,85.61974827797607L616.1538461538462,92.8062641684378L619.6153846153846,68.105963189281L623.0769230769231,84.76285203772704L626.5384615384615,84.06700788322259L630,54.12111863724773L633.4615384615385,94.38047669455096L636.9230769230769,65.8231846909621L640.3846153846154,66.0772619713719L643.8461538461538,63.17732190934686L647.3076923076923,70.83430165001158L650.7692307692307,60.51374279263029L654.2307692307692,72.0283229151991L657.6923076923076,62.45418921003352L661.1538461538462,66.83371588634226L664.6153846153846,77.85273942621855L668.0769230769231,66.36658973530378L671.5384615384615,132.52102978963023L675,104.66804979253108L678.4615384615385,67.24913813521411L681.9230769230769,60.85734909901803L685.3846153846154,64.03784185739086L688.8461538461538,72.46435507773299L692.3076923076924,38.45397359278897L695.7692307692308,113.47674098634648L699.2307692307693,67.3666456831327L702.6923076923077,72.43213720225958L706.1538461538462,53.85740167676343L709.6153846153846,39.032314284740075L713.0769230769231,84.68085143576869L716.5384615384615,82.98289325358749L720,72.97017636643754L723.4615384615385,57.362072096243864L726.9230769230769,57.77616926804112L730.3846153846154,64.9506412851505L733.8461538461538,88.14288076732257L737.3076923076923,49.99792922263025L740.7692307692307,50.758599459127595L744.2307692307692,53.814409953749646L747.6923076923077,85.05140624527978L751.1538461538462,56.07563961123323L754.6153846153846,53.72440358113708L758.0769230769231,51.22537410004539L761.5384615384615,60.854716125396834L765,41.05900984645046L768.4615384615385,55.92909346427008L771.9230769230769,81.17257028928945L775.3846153846155,43.92378359631488L778.8461538461539,81.58748780648533L782.3076923076924,96.00735277237045L785.7692307692308,57.44158381263158L789.2307692307692,99.2929720641934L792.6923076923076,56.40741557712361L796.1538461538461,31.591626516032445L799.6153846153845,73.44078441115127L803.0769230769231,31.624504096037786L806.5384615384615,54.13120088758354L810,50.18350894942483L813.4615384615385,61.60324909601111L816.9230769230769,45.13784816198305L820.3846153846154,43.58197558532739L823.8461538461538,62.271595265411236L827.3076923076923,38.95879191702858L830.7692307692308,31.4842158243237L834.2307692307693,66.38115665425539L837.6923076923077,48.996313976675296L841.1538461538462,98.4252807845494L844.6153846153846,81.31267300434983L848.0769230769231,34.980492559810884L851.5384615384615,21.37747613273666L855,5.858705680769694L858.4615384615385,51.847297128348856L861.9230769230769,69.6173848780145L865.3846153846154,39.567934700522535L868.8461538461538,79.15247395318399L872.3076923076923,75.78070535011683L875.7692307692307,22.923165706860125L879.2307692307692,42.98507182336002L882.6923076923076,6.534237524366215L886.1538461538462,37.3683560356461" style="fill: none; stroke: #98df8a; stroke-width: 2;"></path></g></g><path class="foreground" d="" style="display: none; fill: none;"></path></g><g transform="translate(0,0)"><path class="background" d="M0,0h900v600h-900Z" style="fill: none;"></path><g><g class="mark-line role-mark marks"><path d="M6.923076923076923,547.2934472934473L10.384615384615385,522.229238208098L13.846153846153847,496.29398941139834L17.30769230769231,478.2667327392219L20.76923076923077,459.9968857053878L24.230769230769234,466.0883552593784L27.692307692307693,442.28598492323476L31.153846153846157,442.5306365745475L34.61538461538462,430.61874508517155L38.07692307692308,398.38423621218976L41.53846153846154,411.4421568061467L45,368.6071649166151L48.46153846153847,350.3837230055327L51.92307692307693,353.3650757039062L55.38461538461539,313.3497525166782L58.84615384615385,387.01221453345175L62.307692307692314,377.96565433279994L65.76923076923077,355.60758705131786L69.23076923076924,343.8606547209116L72.6923076923077,330.66427919688476L76.15384615384616,314.322889559696L79.61538461538461,316.79051481031684L83.07692307692308,308.64045199207715L86.53846153846155,328.06717677179097L90,344.8225799564456L93.46153846153847,347.18514874134706L96.92307692307693,326.8729657644482L100.38461538461539,325.94612032158284L103.84615384615385,291.6334414657387L107.3076923076923,308.4960614805561L110.76923076923077,305.1482492252185L114.23076923076923,314.3225873809496L117.6923076923077,308.5337660286326L121.15384615384615,298.8368573528776L124.61538461538463,291.13500556163933L128.07692307692307,265.1188150302149L131.53846153846155,307.721711946639L135,287.7941637903985L138.46153846153848,253.59374728010167L141.9230769230769,301.7672671390762L145.3846153846154,288.43691073818485L148.84615384615384,300.6617842938397L152.30769230769232,310.73904149039697L155.76923076923077,285.10327428701623L159.23076923076923,257.6793307911917L162.69230769230768,261.4196054557841L166.15384615384616,234.02155431405887L169.6153846153846,339.6722156035676L173.0769230769231,284.4703427568131L176.53846153846155,291.9342201942867L180,274.4516764207187L183.46153846153845,279.21838360460356L186.92307692307693,296.329096924174L190.3846153846154,263.60925403379116L193.84615384615387,244.99204376250142L197.3076923076923,286.1269524340484L200.76923076923077,260.0329647797353L204.23076923076923,281.10835909932166L207.6923076923077,267.0580044758095L211.15384615384616,284.7808498755096L214.6153846153846,237.29348519075316L218.07692307692307,253.93770471792155L221.53846153846155,236.22041824557107L225,260.0274725274725L228.46153846153845,274.2873966045198L231.9230769230769,264.0642031138308L235.3846153846154,264.43182971107905L238.84615384615384,254.4537877534761L242.3076923076923,254.87559469110957L245.76923076923075,253.03497942386826L249.23076923076925,251.21318998852672L252.6923076923077,261.7196890024038L256.15384615384613,266.8807392504619L259.6153846153846,285.60514619218696L263.0769230769231,242.9875731956702L266.53846153846155,244.72337143257835L270,230.162625296344L273.46153846153845,226.9726214637783L276.92307692307696,233.31042297475517L280.3846153846154,280.48170724366656L283.8461538461538,290.6076923076923L287.30769230769226,257.6315237895619L290.7692307692308,273.36961327935774L294.2307692307692,244.32272907036577L297.6923076923077,225.27868543050263L301.15384615384613,241.242626115599L304.61538461538464,203.41880341880346L308.0769230769231,253.7669224958932L311.53846153846155,257.4276972691377L315,237.54323740628234L318.46153846153845,211.16530266059848L321.9230769230769,251.7390208957351L325.38461538461536,273.4232794083168L328.8461538461538,233.37088660658142L332.3076923076923,227.6664511958629L335.7692307692308,308.3574844786917L339.2307692307692,267.53603071778724L342.6923076923077,280.9452591455345L346.1538461538462,247.75472119012613L349.61538461538464,248.1667709499595L353.0769230769231,242.74845209360905L356.53846153846155,236.8218395777451L360,238.10169909648766L363.46153846153845,248.33857592221906L366.9230769230769,222.91607114306612L370.38461538461536,229.01543003960418L373.84615384615387,260.82752180265396L377.3076923076923,239.98483918709167L380.7692307692308,241.88563491144805L384.2307692307692,228.12198214114088L387.69230769230774,201.64069624231152L391.1538461538462,252.98433116761953L394.6153846153846,231.9968359779359L398.07692307692304,227.21074247221526L401.53846153846155,232.1432994596286L405,247.31547691188948L408.46153846153845,229.24116729582494L411.9230769230769,211.59062885326753L415.3846153846154,211.88131963007854L418.84615384615387,234.05052266618992L422.3076923076923,234.6007028692768L425.7692307692308,227.67479042208925L429.2307692307692,225.47329613391796L432.6923076923077,214.0703613456689L436.15384615384613,212.96669854703543L439.6153846153846,208.75311528372185L443.0769230769231,214.19866572895506L446.53846153846155,266.0860449030175L450,243.46978316940428L453.46153846153845,227.58023979234483L456.9230769230769,215.87763494907463L460.38461538461536,211.6878116067775L463.8461538461538,211.69148544451767L467.3076923076923,214.5529666730312L470.7692307692308,218.11499809406683L474.2307692307692,231.12636596281428L477.6923076923077,235.1274309001457L481.15384615384613,341.4915737240467L484.6153846153846,224.24732163803668L488.07692307692304,219.4146898975039L491.5384615384615,238.53573850343128L495.00000000000006,226.9294312013217L498.4615384615385,213.11403986493835L501.92307692307696,226.86647431639912L505.3846153846154,232.8599515500474L508.8461538461538,216.0317151597664L512.3076923076923,219.58530296519123L515.7692307692307,219.38200746037347L519.2307692307692,217.35476692173378L522.6923076923077,211.13647596383697L526.1538461538462,208.41510195840905L529.6153846153846,228.7473276703927L533.0769230769231,221.72413170300004L536.5384615384615,216.1043979582457L540,224.19647272127904L543.4615384615385,214.51028435102194L546.9230769230769,205.561957065013L550.3846153846155,210.31889067758902L553.8461538461539,200.33340461093337L557.3076923076924,234.83830062159652L560.7692307692308,214.51186009112828L564.2307692307692,224.26452314699756L567.6923076923076,222.6668596887031L571.1538461538461,204.22987196477666L574.6153846153845,215.13737959535194L578.0769230769231,218.2186234817814L581.5384615384615,208.8185527036293L585,222.35490657096895L588.4615384615385,212.346617413175L591.9230769230769,227.2016980248323L595.3846153846154,204.11496557694952L598.8461538461538,208.2915303613363L602.3076923076923,220.43567424053302L605.7692307692308,209.67191775615683L609.2307692307693,228.20424390114488L612.6923076923077,229.53599898848807L616.1538461538462,228.94596000557684L619.6153846153846,226.5666341343387L623.0769230769231,213.3255478041734L626.5384615384615,217.40812848549746L630,240.6735969066099L633.4615384615385,221.95430621831474L636.9230769230769,217.6609777575434L640.3846153846154,236.789727264721L643.8461538461538,233.35552318935802L647.3076923076923,225.79129100326108L650.7692307692307,231.94687698109962L654.2307692307692,214.15661248528727L657.6923076923076,216.30753409305657L661.1538461538462,212.79114912541291L664.6153846153846,216.19176475370327L668.0769230769231,220.52524962802283L671.5384615384615,222.92885458137582L675,221.13230564489297L678.4615384615385,214.57278503707744L681.9230769230769,236.1257551852849L685.3846153846154,236.63278978706614L688.8461538461538,197.13522888650326L692.3076923076924,208.539045446304L695.7692307692308,219.7878807557193L699.2307692307693,214.7207405050085L702.6923076923077,211.43610847314554L706.1538461538462,196.95243956536967L709.6153846153846,204.97438871786372L713.0769230769231,210.66561365859374L716.5384615384615,179.9955939049017L720,218.49003379726958L723.4615384615385,226.77117107916985L726.9230769230769,216.6418290312096L730.3846153846154,224.67802326865356L733.8461538461538,208.49331126032104L737.3076923076923,210.73079685897943L740.7692307692307,210.8015855613176L744.2307692307692,215.5427119823093L747.6923076923077,217.46780943721674L751.1538461538462,218.6915477759982L754.6153846153846,217.4253705239803L758.0769230769231,225.9658573358042L761.5384615384615,198.83838724927398L765,187.5640219247012L768.4615384615385,195.2018110277488L771.9230769230769,215.5774726873249L775.3846153846155,201.33190360629825L778.8461538461539,217.1379075504742L782.3076923076924,206.72019558916728L785.7692307692308,207.88281396519554L789.2307692307692,207.73349642406924L792.6923076923076,202.11874049716522L796.1538461538461,200.67833424496624L799.6153846153845,174.5261686469596L803.0769230769231,207.6271236207109L806.5384615384615,226.8641481897563L810,226.6412658789137L813.4615384615385,210.98245115334123L816.9230769230769,180.10671223160747L820.3846153846154,213.92705573588285L823.8461538461538,205.43371522094924L827.3076923076923,211.35970476300312L830.7692307692308,328.52067374086704L834.2307692307693,211.34145016384252L837.6923076923077,224.38691252250572L841.1538461538462,212.96672922839005L844.6153846153846,214.65921112286532L848.0769230769231,199.8174888614525L851.5384615384615,191.66674163917318L855,189.25193753033932L858.4615384615385,189.71091040550974L861.9230769230769,183.87379423865121L865.3846153846154,200.04185535193784L868.8461538461538,195.96547708747175L872.3076923076923,206.84429823735982L875.7692307692307,195.52204515549607L879.2307692307692,294.2834271050375L882.6923076923076,183.90868436928443L886.1538461538462,201.96929710768126" style="fill: none; stroke: #ffbb78; stroke-width: 2;"></path></g></g><path class="foreground" d="" style="display: none; fill: none;"></path></g></g><g class="mark-group role-legend"><g transform="translate(918,0)"><path class="background" d="M0,0h101v92h-101Z" style="pointer-events: none; fill: none;"></path><g><g class="mark-group role-legend-entry"><g transform="translate(0,16)"><path class="background" d="M0,0h0v0h0Z" style="pointer-events: none; fill: none;"></path><g><g class="mark-group role-scope"><g transform="translate(0,0)"><path class="background" d="M0,0h101v11h-101Z" style="pointer-events: none; fill: none; opacity: 1;"></path><g><g class="mark-symbol role-legend-symbol" style="pointer-events: none;"><path transform="translate(6,6)" d="M-5,0L5,0" style="fill: none; stroke: #1f77b4; stroke-width: 1.5; opacity: 1;"></path></g><g class="mark-text role-legend-label" style="pointer-events: none;"><text text-anchor="start" transform="translate(16,9)" style="font-family: sans-serif; font-size: 10px; fill: #000; opacity: 1;">Clang</text></g></g><path class="foreground" d="" style="pointer-events: none; display: none; fill: none;"></path></g><g transform="translate(0,13)"><path class="background" d="M0,0h101v11h-101Z" style="pointer-events: none; fill: none; opacity: 1;"></path><g><g class="mark-symbol role-legend-symbol" style="pointer-events: none;"><path transform="translate(6,6)" d="M-5,0L5,0" style="fill: none; stroke: #aec7e8; stroke-width: 1.5; opacity: 1;"></path></g><g class="mark-text role-legend-label" style="pointer-events: none;"><text text-anchor="start" transform="translate(16,9)" style="font-family: sans-serif; font-size: 10px; fill: #000; opacity: 1;">GFortran</text></g></g><path class="foreground" d="" style="pointer-events: none; display: none; fill: none;"></path></g><g transform="translate(0,26)"><path class="background" d="M0,0h101v11h-101Z" style="pointer-events: none; fill: none; opacity: 1;"></path><g><g class="mark-symbol role-legend-symbol" style="pointer-events: none;"><path transform="translate(6,6)" d="M-5,0L5,0" style="fill: none; stroke: #ff7f0e; stroke-width: 1.5; opacity: 1;"></path></g><g class="mark-text role-legend-label" style="pointer-events: none;"><text text-anchor="start" transform="translate(16,9)" style="font-family: sans-serif; font-size: 10px; fill: #000; opacity: 1;">Julia</text></g></g><path class="foreground" d="" style="pointer-events: none; display: none; fill: none;"></path></g><g transform="translate(0,39)"><path class="background" d="M0,0h101v11h-101Z" style="pointer-events: none; fill: none; opacity: 1;"></path><g><g class="mark-symbol role-legend-symbol" style="pointer-events: none;"><path transform="translate(6,6)" d="M-5,0L5,0" style="fill: none; stroke: #ffbb78; stroke-width: 1.5; opacity: 1;"></path></g><g class="mark-text role-legend-label" style="pointer-events: none;"><text text-anchor="start" transform="translate(16,9)" style="font-family: sans-serif; font-size: 10px; fill: #000; opacity: 1;">LoopVectorization</text></g></g><path class="foreground" d="" style="pointer-events: none; display: none; fill: none;"></path></g><g transform="translate(0,52)"><path class="background" d="M0,0h101v11h-101Z" style="pointer-events: none; fill: none; opacity: 1;"></path><g><g class="mark-symbol role-legend-symbol" style="pointer-events: none;"><path transform="translate(6,6)" d="M-5,0L5,0" style="fill: none; stroke: #2ca02c; stroke-width: 1.5; opacity: 1;"></path></g><g class="mark-text role-legend-label" style="pointer-events: none;"><text text-anchor="start" transform="translate(16,9)" style="font-family: sans-serif; font-size: 10px; fill: #000; opacity: 1;">icc</text></g></g><path class="foreground" d="" style="pointer-events: none; display: none; fill: none;"></path></g><g transform="translate(0,65)"><path class="background" d="M0,0h101v11h-101Z" style="pointer-events: none; fill: none; opacity: 1;"></path><g><g class="mark-symbol role-legend-symbol" style="pointer-events: none;"><path transform="translate(6,6)" d="M-5,0L5,0" style="fill: none; stroke: #98df8a; stroke-width: 1.5; opacity: 1;"></path></g><g class="mark-text role-legend-label" style="pointer-events: none;"><text text-anchor="start" transform="translate(16,9)" style="font-family: sans-serif; font-size: 10px; fill: #000; opacity: 1;">ifort</text></g></g><path class="foreground" d="" style="pointer-events: none; display: none; fill: none;"></path></g></g></g><path class="foreground" d="" style="pointer-events: none; display: none; fill: none;"></path></g></g><g class="mark-text role-legend-title" style="pointer-events: none;"><text text-anchor="start" transform="translate(0,9)" style="font-family: sans-serif; font-size: 11px; font-weight: bold; fill: #000; opacity: 1;">Method</text></g></g><path class="foreground" d="" style="pointer-events: none; display: none; fill: none;"></path></g></g></g><path class="foreground" d="" style="display: none; fill: none;"></path></g></g></g></svg>
