<svg class="marks" width="886" height="527" viewBox="0 0 886 527" version="1.1" xmlns="http://www.w3.org/2000/svg" xmlns:xlink="http://www.w3.org/1999/xlink"><g transform="translate(42,10)"><g class="mark-group role-frame root"><g transform="translate(0,0)"><path class="background" d="M0.5,0.5h720v480h-720Z" style="fill: none; stroke: #ddd;"></path><g><g class="mark-group role-axis"><g transform="translate(0.5,480.5)"><path class="background" d="M0,0h0v0h0Z" style="pointer-events: none; fill: none;"></path><g><g class="mark-rule role-axis-grid" style="pointer-events: none;"><line transform="translate(0,-480)" x2="0" y2="480" style="fill: none; stroke: #ddd; stroke-width: 1; opacity: 1;"></line><line transform="translate(55,-480)" x2="0" y2="480" style="fill: none; stroke: #ddd; stroke-width: 1; opacity: 1;"></line><line transform="translate(111,-480)" x2="0" y2="480" style="fill: none; stroke: #ddd; stroke-width: 1; opacity: 1;"></line><line transform="translate(166,-480)" x2="0" y2="480" style="fill: none; stroke: #ddd; stroke-width: 1; opacity: 1;"></line><line transform="translate(222,-480)" x2="0" y2="480" style="fill: none; stroke: #ddd; stroke-width: 1; opacity: 1;"></line><line transform="translate(277,-480)" x2="0" y2="480" style="fill: none; stroke: #ddd; stroke-width: 1; opacity: 1;"></line><line transform="translate(332,-480)" x2="0" y2="480" style="fill: none; stroke: #ddd; stroke-width: 1; opacity: 1;"></line><line transform="translate(388,-480)" x2="0" y2="480" style="fill: none; stroke: #ddd; stroke-width: 1; opacity: 1;"></line><line transform="translate(443,-480)" x2="0" y2="480" style="fill: none; stroke: #ddd; stroke-width: 1; opacity: 1;"></line><line transform="translate(498,-480)" x2="0" y2="480" style="fill: none; stroke: #ddd; stroke-width: 1; opacity: 1;"></line><line transform="translate(554,-480)" x2="0" y2="480" style="fill: none; stroke: #ddd; stroke-width: 1; opacity: 1;"></line><line transform="translate(609,-480)" x2="0" y2="480" style="fill: none; stroke: #ddd; stroke-width: 1; opacity: 1;"></line><line transform="translate(665,-480)" x2="0" y2="480" style="fill: none; stroke: #ddd; stroke-width: 1; opacity: 1;"></line><line transform="translate(720,-480)" x2="0" y2="480" style="fill: none; stroke: #ddd; stroke-width: 1; opacity: 1;"></line></g></g></g></g><g class="mark-group role-axis"><g transform="translate(0.5,0.5)"><path class="background" d="M0,0h0v0h0Z" style="pointer-events: none; fill: none;"></path><g><g class="mark-rule role-axis-grid" style="pointer-events: none;"><line transform="translate(0,480)" x2="720" y2="0" style="fill: none; stroke: #ddd; stroke-width: 1; opacity: 1;"></line><line transform="translate(0,443)" x2="720" y2="0" style="fill: none; stroke: #ddd; stroke-width: 1; opacity: 1;"></line><line transform="translate(0,406)" x2="720" y2="0" style="fill: none; stroke: #ddd; stroke-width: 1; opacity: 1;"></line><line transform="translate(0,369)" x2="720" y2="0" style="fill: none; stroke: #ddd; stroke-width: 1; opacity: 1;"></line><line transform="translate(0,332)" x2="720" y2="0" style="fill: none; stroke: #ddd; stroke-width: 1; opacity: 1;"></line><line transform="translate(0,295)" x2="720" y2="0" style="fill: none; stroke: #ddd; stroke-width: 1; opacity: 1;"></line><line transform="translate(0,258)" x2="720" y2="0" style="fill: none; stroke: #ddd; stroke-width: 1; opacity: 1;"></line><line transform="translate(0,222)" x2="720" y2="0" style="fill: none; stroke: #ddd; stroke-width: 1; opacity: 1;"></line><line transform="translate(0,185)" x2="720" y2="0" style="fill: none; stroke: #ddd; stroke-width: 1; opacity: 1;"></line><line transform="translate(0,148)" x2="720" y2="0" style="fill: none; stroke: #ddd; stroke-width: 1; opacity: 1;"></line><line transform="translate(0,111)" x2="720" y2="0" style="fill: none; stroke: #ddd; stroke-width: 1; opacity: 1;"></line><line transform="translate(0,74)" x2="720" y2="0" style="fill: none; stroke: #ddd; stroke-width: 1; opacity: 1;"></line><line transform="translate(0,37)" x2="720" y2="0" style="fill: none; stroke: #ddd; stroke-width: 1; opacity: 1;"></line><line transform="translate(0,0)" x2="720" y2="0" style="fill: none; stroke: #ddd; stroke-width: 1; opacity: 1;"></line></g></g></g></g><g class="mark-group role-scope pathgroup"><g transform="translate(0,0)"><path class="background" d="M0,0h720v480h-720Z" style="fill: none;"></path><g><g class="mark-line role-mark marks"><path d="M5.538461538461538,442.41532728336546L8.307692307692308,437.65181563998135L11.076923076923077,443.6525164097099L13.846153846153847,432.253811223486L16.615384615384617,433.69985662872693L19.384615384615387,431.4697925266178L22.153846153846153,429.48140090081637L24.923076923076923,431.5927011413919L27.692307692307693,428.4611963703016L30.461538461538463,429.3649494964521L33.23076923076923,427.7953332912076L36,428.1081081081081L38.769230769230774,427.2926709983931L41.53846153846154,428.31952188780383L44.30769230769231,428.14504736259863L47.07692307692308,429.10465355612524L49.84615384615385,428.63806023975934L52.61538461538462,428.5733016983017L55.38461538461539,427.4603507301055L58.15384615384616,428.14831039072624L60.92307692307693,428.57591565671015L63.69230769230769,427.0067369481345L66.46153846153847,426.9075748734424L69.23076923076924,427.38238334385323L72,426.52401168069497L74.76923076923077,426.6945976724711L77.53846153846155,427.55709790703276L80.3076923076923,426.46569198543614L83.07692307692308,428.3321515827229L85.84615384615385,426.2794631111463L88.61538461538461,427.15057459267445L91.38461538461539,427.19242818260716L94.15384615384616,436.16041183200286L96.92307692307692,427.5656261436749L99.6923076923077,427.11283411548663L102.46153846153845,427.06608985988146L105.23076923076924,426.7548406818309L108,426.99748986290786L110.76923076923077,426.9183902441334L113.53846153846153,426.09362248200324L116.30769230769232,426.04937445641264L119.07692307692308,427.1125929234598L121.84615384615385,426.9831418876005L124.61538461538461,425.6688783163242L127.38461538461539,426.8833529348872L130.15384615384616,424.8100635625046L132.92307692307693,425.90546802595L135.69230769230768,426.8536237220258L138.46153846153848,426.4440451847086L141.23076923076923,426.82345081556514L144,426.9166359471273L146.76923076923077,426.3231509238373L149.53846153846155,426.6560635229544L152.3076923076923,425.3842401649344L155.0769230769231,426.45824890027484L157.84615384615384,426.3299045537056L160.6153846153846,425.31686538241667L163.3846153846154,426.0830230060999L166.15384615384616,426.26523103925473L168.92307692307693,426.2920169713215L171.6923076923077,425.3395098476269L174.46153846153845,426.62497113969454L177.23076923076923,425.197148553479L180,425.18715035469177L182.76923076923077,426.26888684638595L185.53846153846152,426.48118378804406L188.30769230769232,425.1207115954312L191.07692307692307,425.3713363285168L193.84615384615384,426.42053672555005L196.61538461538458,431.24277511779184L199.3846153846154,427.3490942100486L202.15384615384616,424.73149985452903L204.9230769230769,426.38128850265014L207.69230769230768,426.1555599525745L210.46153846153848,425.18171252362635L213.23076923076923,433.7338881612409L216,426.1319979811375L218.76923076923075,425.05038857163885L221.53846153846155,426.35264796390635L224.30769230769232,426.2065995793044L227.07692307692307,424.975658768226L229.84615384615384,426.0480849269276L232.61538461538464,426.09213843685535L235.3846153846154,426.19100706057225L238.15384615384616,425.0202159539552L240.9230769230769,426.0014383576571L243.6923076923077,426.0265734922016L246.46153846153845,426.0628116532769L249.23076923076923,426.33944950834854L251.99999999999997,426.123727486296L254.76923076923077,424.9445206333375L257.53846153846155,426.24616531437255L260.3076923076923,426.0980004951264L263.07692307692304,425.4950552417935L265.84615384615387,424.99387204473516L268.61538461538464,425.0704833265713L271.38461538461536,426.14721051668283L274.15384615384613,424.9297270349204L276.92307692307696,426.05545392162264L279.6923076923077,426.19553969134785L282.46153846153845,426.1092146053727L285.2307692307692,424.81809954751134L288,425.7084860787106L290.7692307692308,425.9529359074236L293.53846153846155,424.6538576041404L296.3076923076923,424.2567669894091L299.0769230769231,425.99791822683454L301.84615384615387,425.95649552308L304.6153846153846,425.01253815156974L307.38461538461536,425.9097471594406L310.1538461538462,423.97650055966557L312.9230769230769,425.0059707545682L315.6923076923077,424.79665317389606L318.46153846153845,426.0901700503549L321.2307692307692,424.82033005403343L324,425.98365294760254L326.7692307692308,425.60645347162205L329.53846153846155,424.0356924067004L332.3076923076923,425.9564649300826L335.0769230769231,424.50519314529635L337.84615384615387,425.7563829889615L340.6153846153846,424.687523177636L343.3846153846154,425.94588902986686L346.1538461538462,425.88079014046394L348.9230769230769,425.9385591069754L351.6923076923077,427.158419591726L354.46153846153845,425.90438176855577L357.2307692307692,425.68381347816864L360,426.17325483599666L362.7692307692308,424.32027434146573L365.53846153846155,425.836356804749L368.30769230769226,425.16969231889493L371.07692307692304,424.8515613582111L373.84615384615387,426.10498300186094L376.61538461538464,426.12481857764874L379.3846153846154,425.9546164331929L382.15384615384613,426.46971810448724L384.9230769230769,425.9666081412902L387.6923076923077,426.1591875042921L390.46153846153845,426.1236802413273L393.23076923076917,426.3058387395737L396.00000000000006,427.2230898981696L398.7692307692308,425.1297928078113L401.53846153846155,426.92264795740846L404.3076923076923,426.54666107318565L407.0769230769231,426.57257301218317L409.8461538461538,426.65545309824887L412.6153846153846,426.74728040326727L415.38461538461536,426.8375740212945L418.1538461538462,425.4196317632441L420.92307692307696,425.4586230096434L423.6923076923077,426.9505984671728L426.46153846153845,426.78875307735495L429.2307692307692,427.03797035834793L432,427.0490899062328L434.7692307692307,427.28632284329296L437.5384615384615,425.89774502600244L440.3076923076923,430.87633477726354L443.0769230769231,427.1820088717719L445.84615384615387,427.4671669793621L448.61538461538464,425.66189624329155L451.38461538461536,426.9739071501186L454.15384615384613,427.40393802323797L456.9230769230769,427.1658339059258L459.6923076923077,426.9743855936433L462.4615384615385,427.2527472527472L465.2307692307693,425.66806583973965L468,425.18141087586747L470.7692307692308,430.6375976964212L473.53846153846155,427.5550614349518L476.3076923076923,427.1429943340056L479.07692307692304,427.45235021641736L481.8461538461538,427.40388551276806L484.61538461538464,428.12509263376313L487.3846153846154,427.7531633826858L490.1538461538462,428.032883147387L492.9230769230769,427.8139773518525L495.6923076923077,427.6620940035574L498.46153846153845,425.39801309436535L501.2307692307692,427.97542485538753L503.99999999999994,427.68392370572207L506.76923076923083,427.895411189674L509.53846153846155,425.9088682018618L512.3076923076924,426.85880480185756L515.0769230769231,428.9276990578396L517.8461538461538,425.8504008735363L520.6153846153846,428.4015575593662L523.3846153846154,428.8307556939321L526.1538461538461,427.0896401283308L528.9230769230769,430.2272023974332L531.6923076923077,428.628762541806L534.4615384615385,425.73443613955345L537.2307692307693,432.3984787142682L540,429.906073888541L542.7692307692307,433.10443832994383L545.5384615384615,429.82516276577115L548.3076923076923,428.24600572866177L551.0769230769231,428.39741338793243L553.8461538461539,430.3622008159213L556.6153846153846,425.59388269526823L559.3846153846154,425.85115769956775L562.1538461538462,428.46053348425625L564.9230769230769,434.484816651715L567.6923076923076,425.80632369706615L570.4615384615385,430.6158041413203L573.2307692307692,424.6033418636158L576,424.9462365591398L578.7692307692308,425.7051778166251L581.5384615384615,425.88703919431816L584.3076923076923,429.15305292540637L587.0769230769231,425.87032495890804L589.8461538461538,430.74456451045666L592.6153846153846,425.9058091220753L595.3846153846154,431.0636078260292L598.1538461538462,429.04884293499896L600.9230769230769,431.12956576817504L603.6923076923077,429.01355058446336L606.4615384615385,425.86494044216477L609.2307692307692,429.19901861740516L612,431.24574296468904L614.7692307692307,424.2727372566247L617.5384615384615,436.5060157738833L620.3076923076924,429.24662965900075L623.0769230769231,431.2973835872183L625.8461538461538,425.93004999277275L628.6153846153846,431.2361039007537L631.3846153846154,431.60134794491466L634.1538461538462,429.3477229055016L636.9230769230769,431.97201848033205L639.6923076923076,431.81225554106913L642.4615384615385,430.63020087514354L645.2307692307693,431.97299769398245L648,435.98349381017886L650.7692307692308,429.02224853461564L653.5384615384615,432.29210975173197L656.3076923076923,429.4875939115145L659.0769230769231,431.52687788795686L661.8461538461538,435.37263383930724L664.6153846153846,431.66609326094436L667.3846153846154,431.9728975687525L670.1538461538462,432.3446153846154L672.9230769230769,432.0914796438077L675.6923076923077,429.9681747696409L678.4615384615385,432.4061985260491L681.2307692307692,430.19150623449815L684,432.410770194114L686.7692307692308,432.932803511061L689.5384615384615,429.8152502519315L692.3076923076924,433.1647002345668L695.0769230769231,432.66272189349115L697.8461538461538,430.0637826189267L700.6153846153846,431.42458290500514L703.3846153846154,431.194517389355L706.1538461538461,436.36985813074784L708.9230769230769,429.41502893980686" style="fill: none; stroke: #72b7b2; stroke-width: 2;"></path></g></g></g><g transform="translate(0,0)"><path class="background" d="M0,0h720v480h-720Z" style="fill: none;"></path><g><g class="mark-line role-mark marks"><path d="M5.538461538461538,423.1032641583313L8.307692307692308,421.4531500413916L11.076923076923077,423.8936140218975L13.846153846153847,420.2819186085807L16.615384615384617,421.1918239641012L19.384615384615387,420.0054107674272L22.153846153846153,419.8505022932504L24.923076923076923,420.10499885870803L27.692307692307693,417.8810865005343L30.461538461538463,419.7966519461847L33.23076923076923,419.94123232093756L36,419.8259428097804L38.769230769230774,417.23985612418755L41.53846153846154,419.85483832835536L44.30769230769231,419.7583628172929L47.07692307692308,421.4164741516307L49.84615384615385,422.0835074804864L52.61538461538462,421.8950775637045L55.38461538461539,421.5690238398219L58.15384615384616,421.70988909372204L60.92307692307693,420.8463614605082L63.69230769230769,421.486230638464L66.46153846153847,421.427175558854L69.23076923076924,421.34000504800207L72,421.1753500333365L74.76923076923077,418.45186204227196L77.53846153846155,421.3194880903584L80.3076923076923,418.377876908449L83.07692307692308,421.13088519520676L85.84615384615385,418.3512318880546L88.61538461538461,420.91215311945194L91.38461538461539,420.8980984846784L94.15384615384616,418.17888557443604L96.92307692307692,420.84818840197767L99.6923076923077,420.9741174351971L102.46153846153845,420.75393432291776L105.23076923076924,420.7865729106344L108,420.6978187988908L110.76923076923077,420.664272152679L113.53846153846153,418.0511838467588L116.30769230769232,421.1078171321579L119.07692307692308,420.5706470392398L121.84615384615385,420.425169847826L124.61538461538461,417.6621528261662L127.38461538461539,420.5730406279499L130.15384615384616,417.6835553826704L132.92307692307693,417.78753661745264L135.69230769230768,417.60842922854096L138.46153846153848,420.54924667169564L141.23076923076923,420.51504452660936L144,420.406175581302L146.76923076923077,420.49024255434546L149.53846153846155,420.3694431287638L152.3076923076923,420.3318697610766L155.0769230769231,420.3107164325242L157.84615384615384,420.3177595288244L160.6153846153846,417.9599774809356L163.3846153846154,420.2678969902855L166.15384615384616,420.28222206340786L168.92307692307693,420.3493879768433L171.6923076923077,420.3287348124852L174.46153846153845,420.40873585330854L177.23076923076923,420.21969170356914L180,417.5352582183702L182.76923076923077,417.3267732190655L185.53846153846152,420.17555175411536L188.30769230769232,417.28564429201367L191.07692307692307,420.18866640349563L193.84615384615384,428.57520512949344L196.61538461538458,417.2928608069229L199.3846153846154,421.1858489197163L202.15384615384616,420.1274270116614L204.9230769230769,428.4874808229706L207.69230769230768,420.20114161456917L210.46153846153848,420.0805278580011L213.23076923076923,417.1511462461566L216,420.1713043848809L218.76923076923075,420.0878458799861L221.53846153846155,420.04288170187556L224.30769230769232,420.0727924509414L227.07692307692307,417.33415415967903L229.84615384615384,420.1491014478239L232.61538461538464,420.05663362135385L235.3846153846154,420.0319970942514L238.15384615384616,417.243435485205L240.9230769230769,420.02751072791233L243.6923076923077,419.99427254134554L246.46153846153845,420.1225036802073L249.23076923076923,420.3011244803875L251.99999999999997,420.0305144271828L254.76923076923077,417.9008509575905L257.53846153846155,420.09363120101375L260.3076923076923,419.9914501496224L263.07692307692304,420.2971255296771L265.84615384615387,420.12642575464565L268.61538461538464,419.98627046034505L271.38461538461536,419.98953466749504L274.15384615384613,417.19926196837156L276.92307692307696,419.9271098336991L279.6923076923077,420.05516739645685L282.46153846153845,420.07348230691207L285.2307692307692,417.07185205220287L288,419.9651744088075L290.7692307692308,420.0234107754477L293.53846153846155,420.09962882952374L296.3076923076923,420.02754583175283L299.0769230769231,419.9199229697747L301.84615384615387,419.9730383486467L304.6153846153846,417.14027200252826L307.38461538461536,419.9660636754566L310.1538461538462,419.975226472455L312.9230769230769,417.1066940012479L315.6923076923077,417.0987286721705L318.46153846153845,420.09208786370624L321.2307692307692,417.00606345993316L324,420.03184583350344L326.7692307692308,420.005304106063L329.53846153846155,419.9558498896247L332.3076923076923,420.00119045257037L335.0769230769231,419.89434239407115L337.84615384615387,419.99380058902943L340.6153846153846,419.9817017383349L343.3846153846154,419.88683066504484L346.1538461538462,419.9327354866756L348.9230769230769,420.211037476198L351.6923076923077,419.96667716355097L354.46153846153845,420.1714429040048L357.2307692307692,419.8883084128986L360,420.12474012474013L362.7692307692308,420.06043524817534L365.53846153846155,419.9458105592058L368.30769230769226,417.35010236911376L371.07692307692304,417.1772951980133L373.84615384615387,419.99766072751373L376.61538461538464,420.2509604100424L379.3846153846154,417.2020878068479L382.15384615384613,417.34599261939735L384.9230769230769,419.91679123966645L387.6923076923077,420.2974286695217L390.46153846153845,420.1057377611974L393.23076923076917,420.24790845846195L396.00000000000006,420.3659362999774L398.7692307692308,417.38089153371544L401.53846153846155,420.5696402366253L404.3076923076923,420.1769472633742L407.0769230769231,420.235171550722L409.8461538461538,420.2050129441151L412.6153846153846,420.28967807186615L415.38461538461536,420.35336114834837L418.1538461538462,417.4910163459382L420.92307692307696,417.7510616431715L423.6923076923077,420.4366035887271L426.46153846153845,420.4102891230973L429.2307692307692,420.52327639698353L432,420.5895445415558L434.7692307692307,420.53720370017965L437.5384615384615,420.7209779788021L440.3076923076923,424.05061249624293L443.0769230769231,420.87873597505825L445.84615384615387,417.7867070818793L448.61538461538464,417.9215746042805L451.38461538461536,420.7340074991478L454.15384615384613,420.79600493366627L456.9230769230769,420.7132377159625L459.6923076923077,420.7460289130823L462.4615384615385,420.7783917964479L465.2307692307693,420.8714567662856L468,418.2789317507418L470.7692307692308,423.8909173422448L473.53846153846155,420.98106044264205L476.3076923076923,420.90108662972983L479.07692307692304,420.8984797585834L481.8461538461538,420.93393964682L484.61538461538464,421.4131973747532L487.3846153846154,421.03564523671594L490.1538461538462,421.11735637999266L492.9230769230769,421.1083540115798L495.6923076923077,421.04165237082276L498.46153846153845,417.81667434362043L501.2307692307692,421.1286388030574L503.99999999999994,421.06297140852485L506.76923076923083,421.22370322787856L509.53846153846155,420.14759797510214L512.3076923076924,419.5881380492683L515.0769230769231,421.77454592884857L517.8461538461538,418.6583565688044L520.6153846153846,421.5400163252614L523.3846153846154,422.11627788270124L526.1538461538461,419.34476383032495L528.9230769230769,423.08524176977085L531.6923076923077,421.98190711817034L534.4615384615385,419.8078060127219L537.2307692307693,424.6994756189537L540,422.75719510256005L542.7692307692307,426.0213091898033L545.5384615384615,422.8111789146462L548.3076923076923,423.4063382042945L551.0769230769231,420.49005987128606L553.8461538461539,423.4172447734627L556.6153846153846,416.8218399460419L559.3846153846154,419.8995847021633L562.1538461538462,423.5460976471747L564.9230769230769,427.55755975556855L567.6923076923076,419.7546102417163L570.4615384615385,424.0106452252201L573.2307692307692,420.27913015254785L576,419.8825831702544L578.7692307692308,419.8993529834651L581.5384615384615,419.91595386403606L584.3076923076923,423.54924113637253L587.0769230769231,419.9486589360007L589.8461538461538,423.50132625994695L592.6153846153846,419.86652616789604L595.3846153846154,421.27488135477483L598.1538461538462,423.7600689980635L600.9230769230769,423.65465757870817L603.6923076923077,421.99588694075976L606.4615384615385,419.87989705461825L609.2307692307692,423.9362487191875L612,423.8248657579513L614.7692307692307,420.12474012474013L617.5384615384615,427.0321894252419L620.3076923076924,421.24204865892847L623.0769230769231,423.68811558535685L625.8461538461538,419.6542133018847L628.6153846153846,423.71406580123255L631.3846153846154,423.7944883264686L634.1538461538462,423.8441614173832L636.9230769230769,424.19930552396545L639.6923076923076,424.2643222294271L642.4615384615385,420.87414518115787L645.2307692307693,424.10319717317316L648,433.01794453507347L650.7692307692308,421.7968669377309L653.5384615384615,424.53312441854774L656.3076923076923,424.16303451525505L659.0769230769231,426.61831911254825L661.8461538461538,427.43498103040633L664.6153846153846,426.74236155094377L667.3846153846154,421.557457385646L670.1538461538462,424.545493605259L672.9230769230769,424.3370699652107L675.6923076923077,425.1526192059493L678.4615384615385,424.41345799340144L681.2307692307692,424.71987752981L684,424.33253982787033L686.7692307692308,424.9704142011834L689.5384615384615,421.7742485506893L692.3076923076924,424.81515375877785L695.0769230769231,424.7661224882752L697.8461538461538,421.8352479551454L700.6153846153846,424.02912845093795L703.3846153846154,423.9857759155376L706.1538461538461,430.01919197693695L708.9230769230769,423.8098460806819" style="fill: none; stroke: #e45756; stroke-width: 2;"></path></g></g></g><g transform="translate(0,0)"><path class="background" d="M0,0h720v480h-720Z" style="fill: none;"></path><g><g class="mark-line role-mark marks"><path d="M5.538461538461538,413.3944495374614L8.307692307692308,406.84290099418155L11.076923076923077,404.8920016479313L13.846153846153847,400.3789195994964L16.615384615384617,403.53057336058794L19.384615384615387,397.52198490135504L22.153846153846153,396.36482476207607L24.923076923076923,395.4860845154947L27.692307692307693,400.21598098077936L30.461538461538463,394.3954262309071L33.23076923076923,393.8298889220998L36,393.40886591134085L38.769230769230774,392.98427536394485L41.53846153846154,392.69516880568955L44.30769230769231,395.4064871080846L47.07692307692308,392.1919530502531L49.84615384615385,391.97567470584903L52.61538461538462,396.6638042037403L55.38461538461539,391.58895129386565L58.15384615384616,391.41836077098833L60.92307692307693,391.2694049785142L63.69230769230769,393.01679452622847L66.46153846153847,391.0169949187075L69.23076923076924,395.00604237058224L72,394.5667013768367L74.76923076923077,394.33729775599534L77.53846153846155,395.966298501742L80.3076923076923,394.54401268834255L83.07692307692308,399.5683541931109L85.84615384615385,393.7916823451415L88.61538461538461,408.59651023422737L91.38461538461539,407.0140731581945L94.15384615384616,407.2396825243376L96.92307692307692,408.612828274759L99.6923076923077,407.4456830360369L102.46153846153845,407.54290448238L105.23076923076924,406.3939092984173L108,406.7938994916243L110.76923076923077,405.63523473401887L113.53846153846153,405.426889394398L116.30769230769232,406.71626970303004L119.07692307692308,405.7301457298145L121.84615384615385,405.6533304918008L124.61538461538461,405.50856605941743L127.38461538461539,405.0842586961083L130.15384615384616,404.2533248256434L132.92307692307693,404.1248463996068L135.69230769230768,405.6141674927738L138.46153846153848,404.3315261334471L141.23076923076923,404.31199214418064L144,404.45418020618126L146.76923076923077,403.6882045065103L149.53846153846155,403.46857453508864L152.3076923076923,403.45886486899394L155.0769230769231,403.91361357886245L157.84615384615384,404.2369910334636L160.6153846153846,403.76092873584935L163.3846153846154,403.8978965639216L166.15384615384616,403.79690694928433L168.92307692307693,403.58261114216646L171.6923076923077,404.44509922195755L174.46153846153845,406.0874730505335L177.23076923076923,405.4706605421492L180,405.1092157270647L182.76923076923077,407.81678533909184L185.53846153846152,405.1857886637525L188.30769230769232,406.5387641469467L191.07692307692307,407.7353359846485L193.84615384615384,405.5418743977953L196.61538461538458,405.3550215078175L199.3846153846154,404.99895950801573L202.15384615384616,404.5465366094579L204.9230769230769,405.0100428789391L207.69230769230768,404.99773649711005L210.46153846153848,404.12542351136847L213.23076923076923,405.2861115683506L216,406.2447672986949L218.76923076923075,404.53216216839854L221.53846153846155,405.5994537338533L224.30769230769232,404.3413183884086L227.07692307692307,403.6381151896508L229.84615384615384,404.12190378259L232.61538461538464,403.7129467730931L235.3846153846154,405.3741208939966L238.15384615384616,403.3505497012925L240.9230769230769,403.748867919016L243.6923076923077,405.477213122997L246.46153846153845,404.36274082391276L249.23076923076923,404.29742110352043L251.99999999999997,405.47231851265644L254.76923076923077,404.02754699951754L257.53846153846155,404.19174033454806L260.3076923076923,404.2081472916028L263.07692307692304,404.99345786240326L265.84615384615387,405.77192772642843L268.61538461538464,406.1700733604967L271.38461538461536,405.41128157907656L274.15384615384613,404.84833499642366L276.92307692307696,405.5514204026142L279.6923076923077,405.8203449769899L282.46153846153845,406.0176641831549L285.2307692307692,405.0286067967738L288,405.3208868144691L290.7692307692308,406.3136349016053L293.53846153846155,405.1234008336715L296.3076923076923,405.6178886618547L299.0769230769231,405.5444566075618L301.84615384615387,406.0506676128626L304.6153846153846,404.82239157217583L307.38461538461536,405.10608734561583L310.1538461538462,406.15108441429544L312.9230769230769,405.3989525447919L315.6923076923077,404.79063297310944L318.46153846153845,404.5685780083745L321.2307692307692,403.6521014940927L324,406.4221197488698L326.7692307692308,404.50546090338156L329.53846153846155,405.2904366341486L332.3076923076923,404.296533508196L335.0769230769231,405.34573994320624L337.84615384615387,404.9787991917932L340.6153846153846,404.5700573256899L343.3846153846154,405.17164903234055L346.1538461538462,404.42237097819043L348.9230769230769,404.58973685622L351.6923076923077,408.7120162639656L354.46153846153845,405.90538985930834L357.2307692307692,405.97553644880014L360,405.87848212327265L362.7692307692308,406.1480141991896L365.53846153846155,406.4956375986591L368.30769230769226,405.1334980983724L371.07692307692304,405.56885110037746L373.84615384615387,405.63866303500373L376.61538461538464,405.4887491472605L379.3846153846154,405.1593494251628L382.15384615384613,405.94243897481067L384.9230769230769,407.0505142494465L387.6923076923077,405.589284014268L390.46153846153845,406.03662900868L393.23076923076917,405.941293928075L396.00000000000006,404.3448788955939L398.7692307692308,404.79195647682667L401.53846153846155,405.85296921468614L404.3076923076923,405.10133750644974L407.0769230769231,405.11255404823106L409.8461538461538,406.45937013656953L412.6153846153846,405.4418038854934L415.38461538461536,405.1769901924701L418.1538461538462,404.1182633238416L420.92307692307696,404.91307214639227L423.6923076923077,405.91917381671675L426.46153846153845,406.5090654935658L429.2307692307692,404.82279202279204L432,405.350355433048L434.7692307692307,404.4569852431555L437.5384615384615,404.21175782392515L440.3076923076923,409.3113498461176L443.0769230769231,405.98809031444625L445.84615384615387,406.4127209702044L448.61538461538464,406.2781009916809L451.38461538461536,406.79485053013L454.15384615384613,405.79268193399054L456.9230769230769,406.3238679969302L459.6923076923077,406.51320750622534L462.4615384615385,406.03861068884186L465.2307692307693,405.72633476588277L468,406.7931238885596L470.7692307692308,407.03007727460545L473.53846153846155,406.67538530096425L476.3076923076923,406.00375040207774L479.07692307692304,404.8276079221638L481.8461538461538,406.1947298376364L484.61538461538464,407.43150005253506L487.3846153846154,405.581306760217L490.1538461538462,405.62999846529L492.9230769230769,406.10380101369844L495.6923076923077,406.6639497686429L498.46153846153845,404.41975392795064L501.2307692307692,406.37571742228727L503.99999999999994,406.6855771328824L506.76923076923083,405.890972602537L509.53846153846155,403.9356977113287L512.3076923076924,405.8483155007334L515.0769230769231,406.3026317119436L517.8461538461538,406.65068642405754L520.6153846153846,406.66582014881783L523.3846153846154,406.3676671278566L526.1538461538461,405.70594900430274L528.9230769230769,409.2210298772485L531.6923076923077,406.95698119853813L534.4615384615385,405.1727819295387L537.2307692307693,406.96327378968215L540,406.88022284122565L542.7692307692307,407.604913842856L545.5384615384615,406.7414024187113L548.3076923076923,406.45629860546865L551.0769230769231,406.16526242560104L553.8461538461539,405.743952773154L556.6153846153846,404.94891137068896L559.3846153846154,405.11584800741423L562.1538461538462,405.6656071201526L564.9230769230769,407.6018099547511L567.6923076923076,405.4049612645747L570.4615384615385,406.3302720395766L573.2307692307692,406.2251262251262L576,405.44347365634104L578.7692307692308,404.3014832700932L581.5384615384615,405.16733025698335L584.3076923076923,406.68201363853535L587.0769230769231,404.8349115835192L589.8461538461538,406.69759171763087L592.6153846153846,404.5358686257562L595.3846153846154,406.5093358779713L598.1538461538462,406.03742357985146L600.9230769230769,407.2930336451207L603.6923076923077,406.3700075994258L606.4615384615385,405.49383722331294L609.2307692307692,406.7068760888124L612,407.4602186861054L614.7692307692307,405.012139082215L617.5384615384615,410.62145134945945L620.3076923076924,407.0333548233857L623.0769230769231,406.86246757908L625.8461538461538,405.4678868826779L628.6153846153846,407.28777252070387L631.3846153846154,407.22630067028405L634.1538461538462,407.29052699815446L636.9230769230769,407.06709298945646L639.6923076923076,406.7374096441267L642.4615384615385,406.11563010044983L645.2307692307693,406.999771547926L648,406.9468166060709L650.7692307692308,405.7748239784168L653.5384615384615,406.02847068042314L656.3076923076923,406.9856551458554L659.0769230769231,407.3444207714567L661.8461538461538,408.10318246198966L664.6153846153846,407.825879935344L667.3846153846154,406.33723892002035L670.1538461538462,406.9268513625726L672.9230769230769,406.714794639323L675.6923076923077,406.80182995425116L678.4615384615385,406.4779433830149L681.2307692307692,406.6073293222615L684,406.49310872894335L686.7692307692308,406.70943591385407L689.5384615384615,405.85009957378696L692.3076923076924,407.1274237722489L695.0769230769231,406.9397531912313L697.8461538461538,405.98349069592405L700.6153846153846,406.7560101808181L703.3846153846154,406.7250446248806L706.1538461538461,410.7437689195688L708.9230769230769,405.89912439395033" style="fill: none; stroke: #4c78a8; stroke-width: 2;"></path></g></g></g><g transform="translate(0,0)"><path class="background" d="M0,0h720v480h-720Z" style="fill: none;"></path><g><g class="mark-line role-mark marks"><path d="M5.538461538461538,422.58455785411223L8.307692307692308,416.4229972925625L11.076923076923077,400.64175113487966L13.846153846153847,400.7471275811944L16.615384615384617,397.89370535599164L19.384615384615387,394.80138504438065L22.153846153846153,389.2600392646796L24.923076923076923,392.8998590079285L27.692307692307693,387.0113300589006L30.461538461538463,386.42575678567016L33.23076923076923,380.8306673597616L36,388.97317298797407L38.769230769230774,384.6310345873042L41.53846153846154,386.9214016138373L44.30769230769231,383.47745712231693L47.07692307692308,385.7104193576267L49.84615384615385,383.68322042784155L52.61538461538462,385.26745260641934L55.38461538461539,382.5319376560173L58.15384615384616,378.7259579706249L60.92307692307693,381.16361428715976L63.69230769230769,378.46234658821425L66.46153846153847,375.02033190145545L69.23076923076924,383.14621393232L72,382.23546944858424L74.76923076923077,377.23565969562407L77.53846153846155,374.6473066415827L80.3076923076923,376.8441099481655L83.07692307692308,380.9159969272099L85.84615384615385,382.05266275531557L88.61538461538461,380.7886079942319L91.38461538461539,382.14563867224126L94.15384615384616,380.35561349516087L96.92307692307692,375.49104543870686L99.6923076923077,380.09682401235506L102.46153846153845,382.5381183136609L105.23076923076924,379.6533289111053L108,380.78505415879954L110.76923076923077,372.7468333527012L113.53846153846153,374.981189466101L116.30769230769232,379.5023766431403L119.07692307692308,381.91195019658755L121.84615384615385,373.11215453943845L124.61538461538461,381.395155236106L127.38461538461539,374.83460741587487L130.15384615384616,380.7855876151942L132.92307692307693,379.53631288025963L135.69230769230768,380.1648013283835L138.46153846153848,379.08111424376324L141.23076923076923,374.8168025261349L144,379.37040051829825L146.76923076923077,380.78653452886584L149.53846153846155,372.14632586886694L152.3076923076923,380.51635984318455L155.0769230769231,379.12817385593763L157.84615384615384,373.02130772941996L160.6153846153846,371.7821516071639L163.3846153846154,380.46089219204407L166.15384615384616,378.77159807728395L168.92307692307693,373.0176477036063L171.6923076923077,378.57880227622786L174.46153846153845,385.87745781237936L177.23076923076923,378.4716858809933L180,379.9708976011308L182.76923076923077,377.82874944058403L185.53846153846152,380.22502928296825L188.30769230769232,378.57310319738065L191.07692307692307,380.24742072310363L193.84615384615384,378.3993636963834L196.61538461538458,372.4715284715284L199.3846153846154,382.9487910301969L202.15384615384616,380.7604818628441L204.9230769230769,372.6518517735314L207.69230769230768,381.5559627006481L210.46153846153848,372.6813696495132L213.23076923076923,383.22273152533995L216,372.44062072450726L218.76923076923075,381.23328668011874L221.53846153846155,372.8191549550773L224.30769230769232,381.4162644345329L227.07692307692307,379.5074134077067L229.84615384615384,380.67479287076105L232.61538461538464,379.3786134863114L235.3846153846154,381.2513627282733L238.15384615384616,379.79079323537013L240.9230769230769,373.34075337665615L243.6923076923077,379.9264311632604L246.46153846153845,380.95899294775194L249.23076923076923,378.67981466328234L251.99999999999997,373.6429675875952L254.76923076923077,381.91415267211903L257.53846153846155,381.13820326707065L260.3076923076923,372.2400238829734L263.07692307692304,382.1518502585731L265.84615384615387,379.2695058312104L268.61538461538464,380.61236742045224L271.38461538461536,379.2179451300708L274.15384615384613,381.14356577623926L276.92307692307696,378.5010102908698L279.6923076923077,380.56554432510205L282.46153846153845,372.6031780850199L285.2307692307692,380.6785604533416L288,371.5532734274711L290.7692307692308,381.3954955191717L293.53846153846155,378.30082298605953L296.3076923076923,380.8328610858763L299.0769230769231,379.2574512368363L301.84615384615387,380.59732798322005L304.6153846153846,379.006307394558L307.38461538461536,373.9384365811218L310.1538461538462,379.00640790815896L312.9230769230769,381.2465679354365L315.6923076923077,372.6039446279612L318.46153846153845,380.3896526677651L321.2307692307692,379.0904744341079L324,380.16690204134034L326.7692307692308,378.799825297878L329.53846153846155,374.12161200692015L332.3076923076923,379.0643486018331L335.0769230769231,374.36824774189773L337.84615384615387,378.84616257016285L340.6153846153846,379.5426643622824L343.3846153846154,379.0196010885666L346.1538461538462,373.6084555946482L348.9230769230769,390.56310169459715L351.6923076923077,386.6016917542023L354.46153846153845,372.65764346806367L357.2307692307692,380.13332759881297L360,378.70582915222116L362.7692307692308,374.6134193620839L365.53846153846155,379.0857834549103L368.30769230769226,380.68912428132694L371.07692307692304,378.37471165088425L373.84615384615387,379.2205272178873L376.61538461538464,378.80032187460796L379.3846153846154,380.2346468160854L382.15384615384613,372.08328355291025L384.9230769230769,374.1255055481521L387.6923076923077,372.5664839803958L390.46153846153845,380.43436059208926L393.23076923076917,379.7409302483188L396.00000000000006,393.19683156478857L398.7692307692308,372.05024634915L401.53846153846155,374.4338219171946L404.3076923076923,373.08448761386535L407.0769230769231,375.20134744857256L409.8461538461538,370.5443595385062L412.6153846153846,373.6486532778181L415.38461538461536,372.3405570971201L418.1538461538462,372.8155989272021L420.92307692307696,372.363613893888L423.6923076923077,374.0359250717425L426.46153846153845,373.0606006283671L429.2307692307692,374.22651551415527L432,379.71108772601167L434.7692307692307,373.5456530114293L437.5384615384615,373.17879995170836L440.3076923076923,389.12889210246595L443.0769230769231,380.12781966645076L445.84615384615387,374.3699982840117L448.61538461538464,375.5845554870749L451.38461538461536,382.18848029067004L454.15384615384613,373.72704595870806L456.9230769230769,375.0448705032626L459.6923076923077,373.87577898440077L462.4615384615385,380.78086431677593L465.2307692307693,380.1825059156097L468,376.92145967863047L470.7692307692308,383.78996500448403L473.53846153846155,375.3427760080567L476.3076923076923,371.1773450166154L479.07692307692304,375.56415677345916L481.8461538461538,373.3448768451582L484.61538461538464,377.9446112921687L487.3846153846154,376.14414072441326L490.1538461538462,376.69585816422574L492.9230769230769,374.4688424556213L495.6923076923077,376.4998813531402L498.46153846153845,373.9525648405583L501.2307692307692,376.7492493087302L503.99999999999994,376.7858657243816L506.76923076923083,377.1930655902898L509.53846153846155,370.9103590983597L512.3076923076924,377.48914027576404L515.0769230769231,383.0651970927004L517.8461538461538,383.86362867676075L520.6153846153846,378.7162443600302L523.3846153846154,379.2187133037937L526.1538461538461,384.05049973698056L528.9230769230769,386.01345972935815L531.6923076923077,379.94198024548956L534.4615384615385,371.5089850879506L537.2307692307693,386.4546806145274L540,381.526170679287L542.7692307692307,389.894745071978L545.5384615384615,382.3761055647278L548.3076923076923,384.31257053157054L551.0769230769231,381.4244767652826L553.8461538461539,382.8293587841892L556.6153846153846,371.64469489003557L559.3846153846154,370.84034642056764L562.1538461538462,383.9685478135563L564.9230769230769,393.2429410291036L567.6923076923076,369.1699005764722L570.4615384615385,383.7108654976455L573.2307692307692,377.25026105116604L576,368.62416872112533L578.7692307692308,380.01414390877545L581.5384615384615,379.46028614808324L584.3076923076923,388.00823517641913L587.0769230769231,372.22622325778434L589.8461538461538,388.3345785708658L592.6153846153846,371.10059171597635L595.3846153846154,387.9099248990354L598.1538461538462,386.6532145949682L600.9230769230769,385.9332282772016L603.6923076923077,385.13575993835275L606.4615384615385,372.4004173487004L609.2307692307692,385.5909223787318L612,385.9422075599189L614.7692307692307,369.2136968986175L617.5384615384615,399.65411637542786L620.3076923076924,385.97366597366596L623.0769230769231,386.5544331021915L625.8461538461538,368.3492202880897L628.6153846153846,385.5814074401435L631.3846153846154,386.5205532637709L634.1538461538462,385.27241076199175L636.9230769230769,385.34391069403745L639.6923076923076,385.3684606240411L642.4615384615385,385.4289929434349L645.2307692307693,387.46967653297094L648,387.34734994963117L650.7692307692308,385.62184970862984L653.5384615384615,388.54348440374383L656.3076923076923,389.7858842188739L659.0769230769231,394.90566178278004L661.8461538461538,395.10711510711513L664.6153846153846,392.9600386844272L667.3846153846154,385.9465769216251L670.1538461538462,387.0645651652132L672.9230769230769,388.74163529422594L675.6923076923077,388.9240722884071L678.4615384615385,388.3655404563022L681.2307692307692,388.7632271299591L684,388.9041095890411L686.7692307692308,390.1469622517606L689.5384615384615,387.09935319101686L692.3076923076924,387.80294415931655L695.0769230769231,389.8911783403762L697.8461538461538,386.27615062761504L700.6153846153846,389.96975268370795L703.3846153846154,394.0851819488683L706.1538461538461,404.5924666395594L708.9230769230769,382.32032733936353" style="fill: none; stroke: #f58518; stroke-width: 2;"></path></g></g></g><g transform="translate(0,0)"><path class="background" d="M0,0h720v480h-720Z" style="fill: none;"></path><g><g class="mark-line role-mark marks"><path d="M5.538461538461538,416.2603182198828L8.307692307692308,384.3739530431546L11.076923076923077,360.07427831860895L13.846153846153847,320.77461000537926L16.615384615384617,299.9211366339112L19.384615384615387,256.872557100694L22.153846153846153,211.88330840520553L24.923076923076923,300.7774698524455L27.692307692307693,283.78280639460746L30.461538461538463,266.1106145069804L33.23076923076923,244.08667967546472L36,230.33388981636065L38.769230769230774,205.486146962657L41.53846153846154,185.7839858351367L44.30769230769231,150.67659481221457L47.07692307692308,251.32621332972826L49.84615384615385,231.47795569457412L52.61538461538462,220.5475880052151L55.38461538461539,210.11231193049375L58.15384615384616,189.65388668233766L60.92307692307693,182.08398310130707L63.69230769230769,163.36033298935195L66.46153846153847,109.2025245686549L69.23076923076924,221.60195511645912L72,213.57182783678027L74.76923076923077,200.78843170649688L77.53846153846155,191.26976297411667L80.3076923076923,178.08795327564138L83.07692307692308,168.60559365329632L85.84615384615385,158.97102756020988L88.61538461538461,109.74488311184393L91.38461538461539,178.46538029332385L94.15384615384616,171.01007032606762L96.92307692307692,161.1619182221916L99.6923076923077,152.77730218906683L102.46153846153845,143.88816744328167L105.23076923076924,135.8549536496718L108,123.58750218536926L110.76923076923077,85.89958782340965L113.53846153846153,156.14236509758896L116.30769230769232,146.96832579185522L119.07692307692308,141.50061500615007L121.84615384615385,126.05251340794901L124.61538461538461,126.23763999450199L127.38461538461539,117.20471230892167L130.15384615384616,109.56587571972184L132.92307692307693,63.52094391402229L135.69230769230768,134.77773378071402L138.46153846153848,129.38560908868436L141.23076923076923,119.10864442663544L144,114.62132921174646L146.76923076923077,106.84185158077005L149.53846153846155,97.38890901632718L152.3076923076923,96.24792473713335L155.0769230769231,55.78525241284041L157.84615384615384,125.61360048701172L160.6153846153846,117.83374907765698L163.3846153846154,111.25928970624304L166.15384615384616,106.70812946212315L168.92307692307693,90.70833936341289L171.6923076923077,94.05106744522926L174.46153846153845,116.88004440485358L177.23076923076923,60.13259198864367L180,111.37747097583937L182.76923076923077,105.29484964540711L185.53846153846152,99.41426478480977L188.30769230769232,94.34597221032108L191.07692307692307,83.49250139406563L193.84615384615384,84.68402988088025L196.61538461538458,70.59370950642011L199.3846153846154,80.83282649644813L202.15384615384616,97.86515256188181L204.9230769230769,98.59841603019771L207.69230769230768,94.3287049258222L210.46153846153848,81.99297440676742L213.23076923076923,82.45249180588561L216,74.28992927495976L218.76923076923075,72.47176691915989L221.53846153846155,44.73203397743666L224.30769230769232,93.76770735728009L227.07692307692307,90.07511248470297L229.84615384615384,85.84902077296752L232.61538461538464,78.18293078002944L235.3846153846154,67.21811333979304L238.15384615384616,71.15762791553387L240.9230769230769,62.85069327159924L243.6923076923077,45.517635480491435L246.46153846153845,89.84638121900261L249.23076923076923,84.16585478059106L251.99999999999997,79.51036759523716L254.76923076923077,75.94868947450846L257.53846153846155,71.01686571107606L260.3076923076923,59.9417679167849L263.07692307692304,67.82881954417206L265.84615384615387,45.14145283389736L268.61538461538464,86.84186437611096L271.38461538461536,94.66934033448413L274.15384615384613,90.73345259391779L276.92307692307696,85.01647061264109L279.6923076923077,83.95045879589782L282.46153846153845,69.62701425435013L285.2307692307692,75.15948264368832L288,35.615436435376786L290.7692307692308,79.57772384445441L293.53846153846155,73.59688378759859L296.3076923076923,80.9324009324009L299.0769230769231,66.71573820262766L301.84615384615387,94.0807918147718L304.6153846153846,58.38393958853768L307.38461538461536,48.300777068836034L310.1538461538462,44.67710271947521L312.9230769230769,72.21049159221819L315.6923076923077,65.43187396853072L318.46153846153845,64.74228654198662L321.2307692307692,62.87481271318818L324,62.65378561066696L326.7692307692308,57.93164527026752L329.53846153846155,56.96487516945769L332.3076923076923,38.72933859119783L335.0769230769231,63.93144970680267L337.84615384615387,70.72155496470158L340.6153846153846,66.2218181955347L343.3846153846154,67.74233896185122L346.1538461538462,49.85301769692521L348.9230769230769,87.23465288094414L351.6923076923077,126.13394367598761L354.46153846153845,31.698385310705355L357.2307692307692,68.70102305016381L360,64.39590003978701L362.7692307692308,68.95660061579352L365.53846153846155,63.201996218585066L368.30769230769226,67.7030266037427L371.07692307692304,65.43594460264957L373.84615384615387,51.71771515097605L376.61538461538464,32.73667852219732L379.3846153846154,70.00221680336958L382.15384615384613,60.249935438958886L384.9230769230769,59.82630430431399L387.6923076923077,62.19602977667493L390.46153846153845,56.79690029813413L393.23076923076917,76.62384620686362L396.00000000000006,72.55111063476323L398.7692307692308,37.23156977874986L401.53846153846155,70.02999220842983L404.3076923076923,67.76388201428682L407.0769230769231,81.26219684087042L409.8461538461538,73.35421333590646L412.6153846153846,55.19293978833808L415.38461538461536,76.624959679473L418.1538461538462,42.64370929816765L420.92307692307696,39.41791439092901L423.6923076923077,86.81741490956054L426.46153846153845,74.41460349002973L429.2307692307692,77.34977696142748L432,63.08940355596653L434.7692307692307,66.95202043674897L437.5384615384615,64.27254009053422L440.3076923076923,128.1107820229285L443.0769230769231,57.18364128950908L445.84615384615387,70.7699376667837L448.61538461538464,75.33866957397208L451.38461538461536,89.75288962947347L454.15384615384613,76.19208267901145L456.9230769230769,68.36761708313372L459.6923076923077,75.94220292456973L462.4615384615385,73.95977807299758L465.2307692307693,47.39072191526681L468,82.40848704960325L470.7692307692308,91.6059720050122L473.53846153846155,76.02752684980798L476.3076923076923,82.76814517469552L479.07692307692304,86.94535385489226L481.8461538461538,82.42139587283701L484.61538461538464,91.42685941128002L487.3846153846154,68.19744894116175L490.1538461538462,94.1874917441323L492.9230769230769,90.50482627395795L495.6923076923077,85.6763024402995L498.46153846153845,67.02377292846442L501.2307692307692,85.60609737619163L503.99999999999994,81.44071459443892L506.76923076923083,79.38241162301806L509.53846153846155,21.5355310639689L512.3076923076924,93.01214555624254L515.0769230769231,95.80334569177786L517.8461538461538,99.90820266112863L520.6153846153846,87.0070013182295L523.3846153846154,91.49367906382608L526.1538461538461,96.98986466694011L528.9230769230769,119.19444454922319L531.6923076923077,74.59286618631451L534.4615384615385,44.43257780982634L537.2307692307693,109.63457692495302L540,94.10257441997086L542.7692307692307,112.76261359625765L545.5384615384615,93.91660783147375L548.3076923076923,88.44970646087523L551.0769230769231,87.95095783139308L553.8461538461539,85.17105458826254L556.6153846153846,40.97694158190271L559.3846153846154,37.7208706786172L562.1538461538462,91.21684823352649L564.9230769230769,106.52879603339407L567.6923076923076,31.58300611113411L570.4615384615385,92.67518936985235L573.2307692307692,60.71028379860117L576,21.109712956148066L578.7692307692308,46.056952969501225L581.5384615384615,46.31561731246766L584.3076923076923,98.71714122969547L587.0769230769231,31.88416981322746L589.8461538461538,97.41450438408754L592.6153846153846,29.75739977919389L595.3846153846154,94.90671844538159L598.1538461538462,83.40694649869944L600.9230769230769,95.7216386910732L603.6923076923077,93.60742962567983L606.4615384615385,32.87795981566365L609.2307692307692,92.7140225129979L612,91.37473589414982L614.7692307692307,28.874213978228074L617.5384615384615,134.25200417098605L620.3076923076924,81.19270355329553L623.0769230769231,93.05925030229743L625.8461538461538,36.29458385105469L628.6153846153846,93.09747131435773L631.3846153846154,89.94734075255502L634.1538461538462,90.32985466747786L636.9230769230769,88.62494804351633L639.6923076923076,87.10805591481675L642.4615384615385,78.52606105886828L645.2307692307693,108.77937033583065L648,93.86738471894986L650.7692307692308,89.67288954745553L653.5384615384615,96.66302293817279L656.3076923076923,94.92675100207038L659.0769230769231,109.7260743547673L661.8461538461538,107.91932910091188L664.6153846153846,96.41367153070219L667.3846153846154,92.41408359020504L670.1538461538462,90.55891478976574L672.9230769230769,89.38083072595234L675.6923076923077,87.176118109952L678.4615384615385,88.31641548992577L681.2307692307692,86.79320679320674L684,85.50496086589652L686.7692307692308,79.72397983649317L689.5384615384615,87.28836848079338L692.3076923076924,96.92767197119218L695.0769230769231,90.45593723274168L697.8461538461538,85.37860486966848L700.6153846153846,87.31810724621651L703.3846153846154,85.30885804187409L706.1538461538461,147.45350424998153L708.9230769230769,79.19876591531778" style="fill: none; stroke: #eeca3b; stroke-width: 2;"></path></g></g></g><g transform="translate(0,0)"><path class="background" d="M0,0h720v480h-720Z" style="fill: none;"></path><g><g class="mark-line role-mark marks"><path d="M5.538461538461538,421.7326374754698L8.307692307692308,392.60585883868146L11.076923076923077,371.47141200101845L13.846153846153847,334.37760029153634L16.615384615384617,312.2111371212076L19.384615384615387,275.8868957129827L22.153846153846153,244.3433710515646L24.923076923076923,313.1516496798261L27.692307692307693,293.45744556446897L30.461538461538463,277.91626678541536L33.23076923076923,256.10355179539164L36,241.20952048300975L38.769230769230774,218.86688908983194L41.53846153846154,200.14362405118064L44.30769230769231,147.10649183688537L47.07692307692308,262.64291565607084L49.84615384615385,249.86521395778394L52.61538461538462,233.92858982946055L55.38461538461539,223.09666418333947L58.15384615384616,207.76722219206337L60.92307692307693,197.60380355467876L63.69230769230769,180.23250483020593L66.46153846153847,131.2804303558946L69.23076923076924,227.9722820322275L72,217.50103365583394L74.76923076923077,210.4364782327003L77.53846153846155,200.69626498124006L80.3076923076923,192.96463359372078L83.07692307692308,177.55841428196376L85.84615384615385,170.534882794565L88.61538461538461,122.62263616552636L91.38461538461539,187.31641831118267L94.15384615384616,178.4399093816134L96.92307692307692,169.41992892520358L99.6923076923077,161.60405774250887L102.46153846153845,152.28445450753742L105.23076923076924,135.44561249678333L108,134.55337690631796L110.76923076923077,88.34375205632696L113.53846153846153,163.63474839774096L116.30769230769232,155.6715564869499L119.07692307692308,147.5130884503699L121.84615384615385,136.11449138743677L124.61538461538461,132.7331189710611L127.38461538461539,119.76557971792288L130.15384615384616,117.35273588696883L132.92307692307693,77.50771560006984L135.69230769230768,144.9383669520169L138.46153846153848,139.08746771497752L141.23076923076923,131.81882241500804L144,122.57635319020261L146.76923076923077,120.65374792244162L149.53846153846155,104.55774009970153L152.3076923076923,102.64753300237841L155.0769230769231,68.85260839851163L157.84615384615384,131.17264587964024L160.6153846153846,124.11085179495001L163.3846153846154,119.26187468057888L166.15384615384616,112.49076081024184L168.92307692307693,107.34138365888457L171.6923076923077,98.78504063343809L174.46153846153845,125.30727896820869L177.23076923076923,64.9880984448268L180,116.61134505821154L182.76923076923077,113.00368500165227L185.53846153846152,105.99181646624018L188.30769230769232,101.80105230608108L191.07692307692307,96.66439838719401L193.84615384615384,88.46439805547605L196.61538461538458,80.91958422544648L199.3846153846154,86.81035588142731L202.15384615384616,107.85616750113792L204.9230769230769,102.07724893876204L207.69230769230768,97.37812038148579L210.46153846153848,90.30642226587307L213.23076923076923,90.33442554740729L216,79.79455572675909L218.76923076923075,79.33280339853263L221.53846153846155,53.24345405168445L224.30769230769232,101.83700619355551L227.07692307692307,95.18786877364647L229.84615384615384,90.13159344630877L232.61538461538464,83.81509227114924L235.3846153846154,75.53861924956145L238.15384615384616,74.15718560137479L240.9230769230769,64.94217563222165L243.6923076923077,52.12174827450944L246.46153846153845,107.15158876414506L249.23076923076923,101.21841702071566L251.99999999999997,100.77550302105942L254.76923076923077,75.6143937650601L257.53846153846155,110.4352968185834L260.3076923076923,72.7350792237415L263.07692307692304,87.54007885776376L265.84615384615387,65.5158078984793L268.61538461538464,89.31497798130957L271.38461538461536,84.21134243147756L274.15384615384613,78.30476552587022L276.92307692307696,73.31597414752937L279.6923076923077,72.55982113124969L282.46153846153845,75.40204395950886L285.2307692307692,78.63209922914727L288,41.299535880042825L290.7692307692308,83.43844874315167L293.53846153846155,79.34006476155588L296.3076923076923,78.94110975461783L299.0769230769231,64.50569762954237L301.84615384615387,92.91447359070682L304.6153846153846,62.83330552311021L307.38461538461536,56.93127678552006L310.1538461538462,51.889578042218325L312.9230769230769,78.79602635129979L315.6923076923077,65.93392778715707L318.46153846153845,72.58559086526645L321.2307692307692,65.61972152476608L324,64.466139016353L326.7692307692308,61.189459054023686L329.53846153846155,69.26985254929825L332.3076923076923,44.81371570832298L335.0769230769231,67.68503284760502L337.84615384615387,74.16696196683368L340.6153846153846,74.80338707806524L343.3846153846154,70.07318313504376L346.1538461538462,60.83065166439322L348.9230769230769,57.344790100822124L351.6923076923077,129.884213676964L354.46153846153845,36.38021695393681L357.2307692307692,71.53597963386824L360,66.86153382552362L362.7692307692308,79.19752441470965L365.53846153846155,75.61487332287228L368.30769230769226,68.92991497164897L371.07692307692304,67.44972024371891L373.84615384615387,54.70030274783552L376.61538461538464,41.82703537311923L379.3846153846154,73.89081685752986L382.15384615384613,73.29675153341041L384.9230769230769,68.81463272020511L387.6923076923077,66.31009840827714L390.46153846153845,63.61922287299416L393.23076923076917,66.09121176081706L396.00000000000006,76.27674688939608L398.7692307692308,31.574696654907015L401.53846153846155,96.54449290154963L404.3076923076923,67.77816192796315L407.0769230769231,77.23641017740542L409.8461538461538,73.43015640549267L412.6153846153846,69.21268949835988L415.38461538461536,68.4200242537264L418.1538461538462,56.065779471467096L420.92307692307696,38.73747873747875L423.6923076923077,87.75992196895808L426.46153846153845,81.54561083970245L429.2307692307692,70.87146497260852L432,66.94266447478769L434.7692307692307,81.32314199563407L437.5384615384615,76.37516508527354L440.3076923076923,127.7242974710652L443.0769230769231,60.4740682480744L445.84615384615387,80.90328440438981L448.61538461538464,73.75469350698836L451.38461538461536,92.67374490000995L454.15384615384613,71.60857300346942L456.9230769230769,78.61721433177857L459.6923076923077,80.13143214629812L462.4615384615385,78.01038832550088L465.2307692307693,56.60444039102799L468,86.00470363136287L470.7692307692308,93.92275300834288L473.53846153846155,88.08277647298353L476.3076923076923,87.83208411062633L479.07692307692304,88.01166979540143L481.8461538461538,82.60005432619876L484.61538461538464,88.66063391291988L487.3846153846154,73.94650188857617L490.1538461538462,90.04614009517901L492.9230769230769,93.16915156790847L495.6923076923077,91.40863061875663L498.46153846153845,65.07149321266958L501.2307692307692,93.31022783239993L503.99999999999994,89.14710696521368L506.76923076923083,77.6159802518867L509.53846153846155,27.42070048423205L512.3076923076924,93.83638452158942L515.0769230769231,99.08573849039104L517.8461538461538,90.48509583096558L520.6153846153846,82.16468298370143L523.3846153846154,90.98318266772768L526.1538461538461,91.55881950086405L528.9230769230769,112.62912972228152L531.6923076923077,82.35601709728115L534.4615384615385,43.88704928627851L537.2307692307693,112.1867867203182L540,94.21123769067393L542.7692307692307,118.88382522002678L545.5384615384615,95.87096556797947L548.3076923076923,91.41602059775109L551.0769230769231,89.08923036996734L553.8461538461539,84.34150051456146L556.6153846153846,42.5673128166785L559.3846153846154,41.41147274251922L562.1538461538462,93.25153123280293L564.9230769230769,108.70438531229611L567.6923076923076,37.141729174891424L570.4615384615385,95.24973300548893L573.2307692307692,61.82111925149094L576,21.101674660208154L578.7692307692308,43.57534608393023L581.5384615384615,48.86044447464421L584.3076923076923,99.99174547630376L587.0769230769231,36.873895335433815L589.8461538461538,98.43377714339962L592.6153846153846,29.92361581473995L595.3846153846154,96.02010382498185L598.1538461538462,85.34315983417773L600.9230769230769,96.11259403057504L603.6923076923077,94.64740321959168L606.4615384615385,36.50378373690092L609.2307692307692,95.38461538461536L612,92.38702029930363L614.7692307692307,31.41839653287029L617.5384615384615,144.32117494967622L620.3076923076924,82.02519597604665L623.0769230769231,95.1705450231403L625.8461538461538,38.99105003724506L628.6153846153846,94.63670887915767L631.3846153846154,89.54174721837332L634.1538461538462,89.71740373584885L636.9230769230769,90.38455610088833L639.6923076923076,89.74149372167238L642.4615384615385,79.85846115518424L645.2307692307693,107.74146695715324L648,95.4606792753637L650.7692307692308,90.9951950132029L653.5384615384615,93.65860602501826L656.3076923076923,95.56203269547586L659.0769230769231,110.27675891963992L661.8461538461538,110.7542674643979L664.6153846153846,100.76644526635805L667.3846153846154,93.84374090985463L670.1538461538462,91.96651102592561L672.9230769230769,90.83010163392555L675.6923076923077,93.05970149253737L678.4615384615385,89.61929217371886L681.2307692307692,85.50271205093938L684,87.37515705811876L686.7692307692308,80.34682384676692L689.5384615384615,91.19390475490658L692.3076923076924,100.43173974912958L695.0769230769231,91.95400310188644L697.8461538461538,87.72650942088156L700.6153846153846,88.97978975913563L703.3846153846154,86.16524893621799L706.1538461538461,147.72784482120383L708.9230769230769,79.89343752775062" style="fill: none; stroke: #b279a2; stroke-width: 2;"></path></g></g></g><g transform="translate(0,0)"><path class="background" d="M0,0h720v480h-720Z" style="fill: none;"></path><g><g class="mark-line role-mark marks"><path d="M5.538461538461538,424.11702946734795L8.307692307692308,396.2009609553575L11.076923076923077,373.76798336798333L13.846153846153847,340.281979338626L16.615384615384617,322.20997386855225L19.384615384615387,284.4392605120429L22.153846153846153,255.08671232635527L24.923076923076923,317.83918103334673L27.692307692307693,298.2915855061568L30.461538461538463,281.7549277316241L33.23076923076923,261.73442743826655L36,251.0896393379891L38.769230769230774,225.70863586504777L41.53846153846154,207.5584096188003L44.30769230769231,186.0160104432627L47.07692307692308,260.61967538239975L49.84615384615385,247.4780915287244L52.61538461538462,245.4702922317074L55.38461538461539,221.6786560366929L58.15384615384616,208.46665529592352L60.92307692307693,208.50240546272823L63.69230769230769,196.1528383940961L66.46153846153847,168.64611147177618L69.23076923076924,252.5303417209423L72,231.74139728884253L74.76923076923077,218.57419114761365L77.53846153846155,212.57486711463238L80.3076923076923,199.3873465978715L83.07692307692308,191.21398968967955L85.84615384615385,180.03474981151786L88.61538461538461,170.69347288590444L91.38461538461539,208.65766104378156L94.15384615384616,206.62159049335378L96.92307692307692,192.04487612320153L99.6923076923077,190.45762818112658L102.46153846153845,188.0855236369982L105.23076923076924,166.99544878012387L108,159.6400854796985L110.76923076923077,147.0973578237065L113.53846153846153,195.45874219283237L116.30769230769232,194.72108373959185L119.07692307692308,187.56630332530702L121.84615384615385,180.1712220178832L124.61538461538461,173.75285181501377L127.38461538461539,167.0878863958449L130.15384615384616,160.19572569619336L132.92307692307693,145.83891679598725L135.69230769230768,191.0673659218297L138.46153846153848,189.86388767587647L141.23076923076923,179.34271971315036L144,169.16247215116758L146.76923076923077,167.64196697157584L149.53846153846155,161.76396893009272L152.3076923076923,151.19025771505704L155.0769230769231,146.9123922842999L157.84615384615384,180.2497918401332L160.6153846153846,170.1290490331586L163.3846153846154,169.5622842462702L166.15384615384616,164.49650901229876L168.92307692307693,163.4001326374672L171.6923076923077,147.65990409358602L174.46153846153845,148.6922987028164L177.23076923076923,133.31924227410275L180,168.14450270205037L182.76923076923077,169.23676839575026L185.53846153846152,158.65229778273255L188.30769230769232,153.72033248068635L191.07692307692307,148.51268816670645L193.84615384615384,152.05299615838348L196.61538461538458,138.73004871377634L199.3846153846154,139.1399309600554L202.15384615384616,162.9347432052616L204.9230769230769,158.90974218503075L207.69230769230768,172.39349607447767L210.46153846153848,149.63824082859767L213.23076923076923,151.14849932273475L216,147.04200952793414L218.76923076923075,137.59129835058786L221.53846153846155,129.14105062611367L224.30769230769232,165.94693993689185L227.07692307692307,152.4183476378001L229.84615384615384,155.05689677872752L232.61538461538464,151.18568198130748L235.3846153846154,147.29347968688498L238.15384615384616,137.5340369136155L240.9230769230769,139.58994296456115L243.6923076923077,133.7218940872849L246.46153846153845,159.14460060325237L249.23076923076923,149.94301542753053L251.99999999999997,146.31097399921816L254.76923076923077,148.09099373901412L257.53846153846155,144.89239854823813L260.3076923076923,134.35988419133773L263.07692307692304,131.93751050545555L265.84615384615387,135.5181945230331L268.61538461538464,149.22517471370244L271.38461538461536,152.50554904683656L274.15384615384613,142.573183357715L276.92307692307696,145.75042548682953L279.6923076923077,144.45257641960393L282.46153846153845,131.77090335917552L285.2307692307692,129.27154263989456L288,122.80679269464918L290.7692307692308,152.7865141954712L293.53846153846155,142.39500756032962L296.3076923076923,146.59094310043827L299.0769230769231,145.72924673736247L301.84615384615387,142.75512614820425L304.6153846153846,130.3303690654224L307.38461538461536,133.91818348120367L310.1538461538462,129.33001931283815L312.9230769230769,143.26508904617666L315.6923076923077,140.21450346009212L318.46153846153845,137.4454588079543L321.2307692307692,134.51008023650394L324,131.5753547691755L326.7692307692308,137.65362583988352L329.53846153846155,125.35181507929042L332.3076923076923,121.23648840835365L335.0769230769231,152.62439299035822L337.84615384615387,152.6547662802178L340.6153846153846,143.0522511049761L343.3846153846154,147.37981949479286L346.1538461538462,144.67199579793282L348.9230769230769,130.79792141619885L351.6923076923077,185.46808180954133L354.46153846153845,151.71130588062476L357.2307692307692,151.40516737558946L360,157.72882708755566L362.7692307692308,154.09127621503524L365.53846153846155,130.63521917025963L368.30769230769226,141.28814431332205L371.07692307692304,140.1518770545162L373.84615384615387,148.7405805313017L376.61538461538464,134.3944685874208L379.3846153846154,151.57843397466175L382.15384615384613,141.39297124600634L384.9230769230769,144.30199041494296L387.6923076923077,129.32675643247566L390.46153846153845,128.63233719458773L393.23076923076917,131.66221614312147L396.00000000000006,130.02943192355764L398.7692307692308,125.42671723116459L401.53846153846155,148.47960400613474L404.3076923076923,136.14190034591888L407.0769230769231,130.36744142396842L409.8461538461538,135.06253945887585L412.6153846153846,133.14356361004738L415.38461538461536,141.21054572383755L418.1538461538462,122.24942097472936L420.92307692307696,116.55873889066524L423.6923076923077,150.74170444644628L426.46153846153845,139.3828684275488L429.2307692307692,134.9401824073159L432,145.48824220113613L434.7692307692307,129.33702984981778L437.5384615384615,130.97507457902913L440.3076923076923,187.99761821780444L443.0769230769231,143.3566788271328L445.84615384615387,141.67500161792378L448.61538461538464,137.14054434926257L451.38461538461536,151.85815444530266L454.15384615384613,135.01692824624394L456.9230769230769,146.3498513716001L459.6923076923077,141.5664777287352L462.4615384615385,137.76741930988942L465.2307692307693,131.4537886679258L468,155.4940809968847L470.7692307692308,164.64507940114075L473.53846153846155,157.58013267354042L476.3076923076923,150.62352463068012L479.07692307692304,138.0749113555864L481.8461538461538,146.36880404914126L484.61538461538464,141.03441170410056L487.3846153846154,155.8323984195893L490.1538461538462,151.65239654045493L492.9230769230769,155.91029659995178L495.6923076923077,157.47429147198L498.46153846153845,129.4853138982254L501.2307692307692,158.8568700115572L503.99999999999994,157.79668777483087L506.76923076923083,156.68255637074967L509.53846153846155,122.44690317874372L512.3076923076924,166.10403984504708L515.0769230769231,166.629466423987L517.8461538461538,158.2460454744388L520.6153846153846,169.40790184261115L523.3846153846154,161.01380977926158L526.1538461538461,155.67793272101449L528.9230769230769,187.54453962666034L531.6923076923077,157.4883105292544L534.4615384615385,127.22322523261339L537.2307692307693,170.05884766248226L540,170.40091058555714L542.7692307692307,171.9289818169134L545.5384615384615,167.1740489980151L548.3076923076923,174.47737909516377L551.0769230769231,166.08103928240018L553.8461538461539,172.64977731581683L556.6153846153846,126.34845314103671L559.3846153846154,124.55790388036857L562.1538461538462,171.4371272617002L564.9230769230769,182.53161310180317L567.6923076923076,130.09692653636998L570.4615384615385,168.06515792678462L573.2307692307692,116.07665355935951L576,112.94892332746244L578.7692307692308,126.1511387070137L581.5384615384615,131.58431734398934L584.3076923076923,180.29567600902345L587.0769230769231,120.48145285585797L589.8461538461538,168.85343232917813L592.6153846153846,125.80328151489901L595.3846153846154,174.03942203114352L598.1538461538462,164.0626244461754L600.9230769230769,173.06416740951593L603.6923076923077,172.49093098211608L606.4615384615385,129.15214351960793L609.2307692307692,170.1084844713313L612,167.13837574067622L614.7692307692307,124.34950937854617L617.5384615384615,207.34601890999988L620.3076923076924,172.53994450009543L623.0769230769231,172.02887070915736L625.8461538461538,130.1959283255345L628.6153846153846,178.4472701809629L631.3846153846154,169.4837892080344L634.1538461538462,168.25780262496207L636.9230769230769,166.96234383103433L639.6923076923076,166.17993852479268L642.4615384615385,164.44406455904593L645.2307692307693,176.28907115938816L648,179.06632360706942L650.7692307692308,171.02880642726043L653.5384615384615,170.1407698979252L656.3076923076923,167.98009410027538L659.0769230769231,168.3639183654382L661.8461538461538,173.10438022608855L664.6153846153846,178.39992814677936L667.3846153846154,171.93914265554017L670.1538461538462,177.8755880577293L672.9230769230769,177.07660358004662L675.6923076923077,168.80031885213234L678.4615384615385,175.18721130315262L681.2307692307692,173.7630865341709L684,172.6218097447795L686.7692307692308,171.58958435264347L689.5384615384615,170.68629686846185L692.3076923076924,172.3853727691142L695.0769230769231,178.10938150015L697.8461538461538,168.51925388522736L700.6153846153846,174.55651397948733L703.3846153846154,164.56334350784718L706.1538461538461,199.0356551023681L708.9230769230769,168.25245915665877" style="fill: none; stroke: #54a24b; stroke-width: 2;"></path></g></g></g></g><g class="mark-group role-legend"><g transform="translate(738,0)"><path class="background" d="M0,0h101v105h-101Z" style="pointer-events: none; fill: none;"></path><g><g class="mark-group role-legend-entry"><g transform="translate(0,16)"><path class="background" d="M0,0h0v0h0Z" style="pointer-events: none; fill: none;"></path><g><g class="mark-group role-scope"><g transform="translate(0,0)"><path class="background" d="M0,0h101v11h-101Z" style="pointer-events: none; fill: none; opacity: 1;"></path><g><g class="mark-symbol role-legend-symbol" style="pointer-events: none;"><path transform="translate(6,6)" d="M-5,0L5,0" style="fill: none; stroke: #4c78a8; stroke-width: 1.5; opacity: 1;"></path></g><g class="mark-text role-legend-label" style="pointer-events: none;"><text text-anchor="start" transform="translate(16,9)" style="font-family: sans-serif; font-size: 10px; fill: #000; opacity: 1;">Clang-Polly</text></g></g></g><g transform="translate(0,13)"><path class="background" d="M0,0h101v11h-101Z" style="pointer-events: none; fill: none; opacity: 1;"></path><g><g class="mark-symbol role-legend-symbol" style="pointer-events: none;"><path transform="translate(6,6)" d="M-5,0L5,0" style="fill: none; stroke: #f58518; stroke-width: 1.5; opacity: 1;"></path></g><g class="mark-text role-legend-label" style="pointer-events: none;"><text text-anchor="start" transform="translate(16,9)" style="font-family: sans-serif; font-size: 10px; fill: #000; opacity: 1;">GFortran</text></g></g></g><g transform="translate(0,26)"><path class="background" d="M0,0h101v11h-101Z" style="pointer-events: none; fill: none; opacity: 1;"></path><g><g class="mark-symbol role-legend-symbol" style="pointer-events: none;"><path transform="translate(6,6)" d="M-5,0L5,0" style="fill: none; stroke: #e45756; stroke-width: 1.5; opacity: 1;"></path></g><g class="mark-text role-legend-label" style="pointer-events: none;"><text text-anchor="start" transform="translate(16,9)" style="font-family: sans-serif; font-size: 10px; fill: #000; opacity: 1;">Julia</text></g></g></g><g transform="translate(0,39)"><path class="background" d="M0,0h101v11h-101Z" style="pointer-events: none; fill: none; opacity: 1;"></path><g><g class="mark-symbol role-legend-symbol" style="pointer-events: none;"><path transform="translate(6,6)" d="M-5,0L5,0" style="fill: none; stroke: #72b7b2; stroke-width: 1.5; opacity: 1;"></path></g><g class="mark-text role-legend-label" style="pointer-events: none;"><text text-anchor="start" transform="translate(16,9)" style="font-family: sans-serif; font-size: 10px; fill: #000; opacity: 1;">Julia-builtin</text></g></g></g><g transform="translate(0,52)"><path class="background" d="M0,0h101v11h-101Z" style="pointer-events: none; fill: none; opacity: 1;"></path><g><g class="mark-symbol role-legend-symbol" style="pointer-events: none;"><path transform="translate(6,6)" d="M-5,0L5,0" style="fill: none; stroke: #54a24b; stroke-width: 1.5; opacity: 1;"></path></g><g class="mark-text role-legend-label" style="pointer-events: none;"><text text-anchor="start" transform="translate(16,9)" style="font-family: sans-serif; font-size: 10px; fill: #000; opacity: 1;">LoopVectorization</text></g></g></g><g transform="translate(0,65)"><path class="background" d="M0,0h101v11h-101Z" style="pointer-events: none; fill: none; opacity: 1;"></path><g><g class="mark-symbol role-legend-symbol" style="pointer-events: none;"><path transform="translate(6,6)" d="M-5,0L5,0" style="fill: none; stroke: #eeca3b; stroke-width: 1.5; opacity: 1;"></path></g><g class="mark-text role-legend-label" style="pointer-events: none;"><text text-anchor="start" transform="translate(16,9)" style="font-family: sans-serif; font-size: 10px; fill: #000; opacity: 1;">icc</text></g></g></g><g transform="translate(0,78)"><path class="background" d="M0,0h101v11h-101Z" style="pointer-events: none; fill: none; opacity: 1;"></path><g><g class="mark-symbol role-legend-symbol" style="pointer-events: none;"><path transform="translate(6,6)" d="M-5,0L5,0" style="fill: none; stroke: #b279a2; stroke-width: 1.5; opacity: 1;"></path></g><g class="mark-text role-legend-label" style="pointer-events: none;"><text text-anchor="start" transform="translate(16,9)" style="font-family: sans-serif; font-size: 10px; fill: #000; opacity: 1;">ifort</text></g></g></g></g></g></g></g><g class="mark-text role-legend-title" style="pointer-events: none;"><text text-anchor="start" transform="translate(0,9)" style="font-family: sans-serif; font-size: 11px; font-weight: bold; fill: #000; opacity: 1;">Method</text></g></g></g></g><g class="mark-group role-axis"><g transform="translate(0.5,480.5)"><path class="background" d="M0,0h0v0h0Z" style="pointer-events: none; fill: none;"></path><g><g class="mark-rule role-axis-tick" style="pointer-events: none;"><line transform="translate(0,0)" x2="0" y2="5" style="fill: none; stroke: #888; stroke-width: 1; opacity: 1;"></line><line transform="translate(55,0)" x2="0" y2="5" style="fill: none; stroke: #888; stroke-width: 1; opacity: 1;"></line><line transform="translate(111,0)" x2="0" y2="5" style="fill: none; stroke: #888; stroke-width: 1; opacity: 1;"></line><line transform="translate(166,0)" x2="0" y2="5" style="fill: none; stroke: #888; stroke-width: 1; opacity: 1;"></line><line transform="translate(222,0)" x2="0" y2="5" style="fill: none; stroke: #888; stroke-width: 1; opacity: 1;"></line><line transform="translate(277,0)" x2="0" y2="5" style="fill: none; stroke: #888; stroke-width: 1; opacity: 1;"></line><line transform="translate(332,0)" x2="0" y2="5" style="fill: none; stroke: #888; stroke-width: 1; opacity: 1;"></line><line transform="translate(388,0)" x2="0" y2="5" style="fill: none; stroke: #888; stroke-width: 1; opacity: 1;"></line><line transform="translate(443,0)" x2="0" y2="5" style="fill: none; stroke: #888; stroke-width: 1; opacity: 1;"></line><line transform="translate(498,0)" x2="0" y2="5" style="fill: none; stroke: #888; stroke-width: 1; opacity: 1;"></line><line transform="translate(554,0)" x2="0" y2="5" style="fill: none; stroke: #888; stroke-width: 1; opacity: 1;"></line><line transform="translate(609,0)" x2="0" y2="5" style="fill: none; stroke: #888; stroke-width: 1; opacity: 1;"></line><line transform="translate(665,0)" x2="0" y2="5" style="fill: none; stroke: #888; stroke-width: 1; opacity: 1;"></line><line transform="translate(720,0)" x2="0" y2="5" style="fill: none; stroke: #888; stroke-width: 1; opacity: 1;"></line></g><g class="mark-text role-axis-label" style="pointer-events: none;"><text text-anchor="start" transform="translate(0,15)" style="font-family: sans-serif; font-size: 10px; fill: #000; opacity: 1;">0</text><text text-anchor="middle" transform="translate(55.38461538461539,15)" style="font-family: sans-serif; font-size: 10px; fill: #000; opacity: 1;">20</text><text text-anchor="middle" transform="translate(110.76923076923077,15)" style="font-family: sans-serif; font-size: 10px; fill: #000; opacity: 1;">40</text><text text-anchor="middle" transform="translate(166.15384615384616,15)" style="font-family: sans-serif; font-size: 10px; fill: #000; opacity: 1;">60</text><text text-anchor="middle" transform="translate(221.53846153846155,15)" style="font-family: sans-serif; font-size: 10px; fill: #000; opacity: 1;">80</text><text text-anchor="middle" transform="translate(276.92307692307696,15)" style="font-family: sans-serif; font-size: 10px; fill: #000; opacity: 1;">100</text><text text-anchor="middle" transform="translate(332.3076923076923,15)" style="font-family: sans-serif; font-size: 10px; fill: #000; opacity: 1;">120</text><text text-anchor="middle" transform="translate(387.6923076923077,15)" style="font-family: sans-serif; font-size: 10px; fill: #000; opacity: 1;">140</text><text text-anchor="middle" transform="translate(443.0769230769231,15)" style="font-family: sans-serif; font-size: 10px; fill: #000; opacity: 1;">160</text><text text-anchor="middle" transform="translate(498.46153846153845,15)" style="font-family: sans-serif; font-size: 10px; fill: #000; opacity: 1;">180</text><text text-anchor="middle" transform="translate(553.8461538461539,15)" style="font-family: sans-serif; font-size: 10px; fill: #000; opacity: 1;">200</text><text text-anchor="middle" transform="translate(609.2307692307692,15)" style="font-family: sans-serif; font-size: 10px; fill: #000; opacity: 1;">220</text><text text-anchor="middle" transform="translate(664.6153846153846,15)" style="font-family: sans-serif; font-size: 10px; fill: #000; opacity: 1;">240</text><text text-anchor="end" transform="translate(720,15)" style="font-family: sans-serif; font-size: 10px; fill: #000; opacity: 1;">260</text></g><g class="mark-rule role-axis-domain" style="pointer-events: none;"><line transform="translate(0,0)" x2="720" y2="0" style="fill: none; stroke: #888; stroke-width: 1; opacity: 1;"></line></g><g class="mark-text role-axis-title" style="pointer-events: none;"><text text-anchor="middle" transform="translate(360,30)" style="font-family: sans-serif; font-size: 11px; font-weight: bold; fill: #000; opacity: 1;">Size</text></g></g></g></g><g class="mark-group role-axis"><g transform="translate(0.5,0.5)"><path class="background" d="M0,0h0v0h0Z" style="pointer-events: none; fill: none;"></path><g><g class="mark-rule role-axis-tick" style="pointer-events: none;"><line transform="translate(0,480)" x2="-5" y2="0" style="fill: none; stroke: #888; stroke-width: 1; opacity: 1;"></line><line transform="translate(0,443)" x2="-5" y2="0" style="fill: none; stroke: #888; stroke-width: 1; opacity: 1;"></line><line transform="translate(0,406)" x2="-5" y2="0" style="fill: none; stroke: #888; stroke-width: 1; opacity: 1;"></line><line transform="translate(0,369)" x2="-5" y2="0" style="fill: none; stroke: #888; stroke-width: 1; opacity: 1;"></line><line transform="translate(0,332)" x2="-5" y2="0" style="fill: none; stroke: #888; stroke-width: 1; opacity: 1;"></line><line transform="translate(0,295)" x2="-5" y2="0" style="fill: none; stroke: #888; stroke-width: 1; opacity: 1;"></line><line transform="translate(0,258)" x2="-5" y2="0" style="fill: none; stroke: #888; stroke-width: 1; opacity: 1;"></line><line transform="translate(0,222)" x2="-5" y2="0" style="fill: none; stroke: #888; stroke-width: 1; opacity: 1;"></line><line transform="translate(0,185)" x2="-5" y2="0" style="fill: none; stroke: #888; stroke-width: 1; opacity: 1;"></line><line transform="translate(0,148)" x2="-5" y2="0" style="fill: none; stroke: #888; stroke-width: 1; opacity: 1;"></line><line transform="translate(0,111)" x2="-5" y2="0" style="fill: none; stroke: #888; stroke-width: 1; opacity: 1;"></line><line transform="translate(0,74)" x2="-5" y2="0" style="fill: none; stroke: #888; stroke-width: 1; opacity: 1;"></line><line transform="translate(0,37)" x2="-5" y2="0" style="fill: none; stroke: #888; stroke-width: 1; opacity: 1;"></line><line transform="translate(0,0)" x2="-5" y2="0" style="fill: none; stroke: #888; stroke-width: 1; opacity: 1;"></line></g><g class="mark-text role-axis-label" style="pointer-events: none;"><text text-anchor="end" transform="translate(-7,483)" style="font-family: sans-serif; font-size: 10px; fill: #000; opacity: 1;">0.0</text><text text-anchor="end" transform="translate(-7,446.0769230769231)" style="font-family: sans-serif; font-size: 10px; fill: #000; opacity: 1;">0.1</text><text text-anchor="end" transform="translate(-7,409.15384615384613)" style="font-family: sans-serif; font-size: 10px; fill: #000; opacity: 1;">0.2</text><text text-anchor="end" transform="translate(-7,372.2307692307692)" style="font-family: sans-serif; font-size: 10px; fill: #000; opacity: 1;">0.3</text><text text-anchor="end" transform="translate(-7,335.3076923076923)" style="font-family: sans-serif; font-size: 10px; fill: #000; opacity: 1;">0.4</text><text text-anchor="end" transform="translate(-7,298.3846153846154)" style="font-family: sans-serif; font-size: 10px; fill: #000; opacity: 1;">0.5</text><text text-anchor="end" transform="translate(-7,261.4615384615385)" style="font-family: sans-serif; font-size: 10px; fill: #000; opacity: 1;">0.6</text><text text-anchor="end" transform="translate(-7,224.53846153846155)" style="font-family: sans-serif; font-size: 10px; fill: #000; opacity: 1;">0.7</text><text text-anchor="end" transform="translate(-7,187.61538461538458)" style="font-family: sans-serif; font-size: 10px; fill: #000; opacity: 1;">0.8</text><text text-anchor="end" transform="translate(-7,150.6923076923077)" style="font-family: sans-serif; font-size: 10px; fill: #000; opacity: 1;">0.9</text><text text-anchor="end" transform="translate(-7,113.7692307692308)" style="font-family: sans-serif; font-size: 10px; fill: #000; opacity: 1;">1.0</text><text text-anchor="end" transform="translate(-7,76.84615384615385)" style="font-family: sans-serif; font-size: 10px; fill: #000; opacity: 1;">1.1</text><text text-anchor="end" transform="translate(-7,39.92307692307695)" style="font-family: sans-serif; font-size: 10px; fill: #000; opacity: 1;">1.2</text><text text-anchor="end" transform="translate(-7,3)" style="font-family: sans-serif; font-size: 10px; fill: #000; opacity: 1;">1.3</text></g><g class="mark-rule role-axis-domain" style="pointer-events: none;"><line transform="translate(0,480)" x2="0" y2="-480" style="fill: none; stroke: #888; stroke-width: 1; opacity: 1;"></line></g><g class="mark-text role-axis-title" style="pointer-events: none;"><text text-anchor="middle" transform="translate(-26,240) rotate(-90) translate(0,-2)" style="font-family: sans-serif; font-size: 11px; font-weight: bold; fill: #000; opacity: 1;">GFLOPS</text></g></g></g></g></g></g></g></g></svg>