<?xml version="1.0" encoding="UTF-8"?>
<svg xmlns="http://www.w3.org/2000/svg"
     xmlns:xlink="http://www.w3.org/1999/xlink"
     xmlns:gadfly="http://www.gadflyjl.org/ns"
     version="1.2"
     width="304.8mm" height="203.2mm" viewBox="0 0 304.8 203.2"
     stroke="none"
     fill="#000000"
     stroke-width="0.3"
     font-size="3.88"
>
<defs>
  <marker id="arrow" markerWidth="15" markerHeight="7" refX="5" refY="3.5" orient="auto" markerUnits="strokeWidth">
    <path d="M0,0 L15,3.5 L0,7 z" stroke="context-stroke" fill="context-stroke"/>
  </marker>
</defs>
<g class="plotroot xscalable yscalable" id="img-ffc4acf7-1">
  <g font-size="3.88" font-family="'PT Sans','Helvetica Neue','Helvetica',sans-serif" fill="#564A55" stroke="#000000" stroke-opacity="0.000" id="img-ffc4acf7-2">
    <g transform="translate(144.63,191.59)">
      <g class="primitive">
        <text text-anchor="middle" dy="0.6em">Size</text>
      </g>
    </g>
  </g>
  <g class="guide xlabels" font-size="2.82" font-family="'PT Sans Caption','Helvetica Neue','Helvetica',sans-serif" fill="#6C606B" id="img-ffc4acf7-3">
    <g transform="translate(21.63,184.92)">
      <g class="primitive">
        <text text-anchor="middle" dy="0.6em">0</text>
      </g>
    </g>
    <g transform="translate(40.55,184.92)">
      <g class="primitive">
        <text text-anchor="middle" dy="0.6em">20</text>
      </g>
    </g>
    <g transform="translate(59.48,184.92)">
      <g class="primitive">
        <text text-anchor="middle" dy="0.6em">40</text>
      </g>
    </g>
    <g transform="translate(78.4,184.92)">
      <g class="primitive">
        <text text-anchor="middle" dy="0.6em">60</text>
      </g>
    </g>
    <g transform="translate(97.32,184.92)">
      <g class="primitive">
        <text text-anchor="middle" dy="0.6em">80</text>
      </g>
    </g>
    <g transform="translate(116.25,184.92)">
      <g class="primitive">
        <text text-anchor="middle" dy="0.6em">100</text>
      </g>
    </g>
    <g transform="translate(135.17,184.92)">
      <g class="primitive">
        <text text-anchor="middle" dy="0.6em">120</text>
      </g>
    </g>
    <g transform="translate(154.09,184.92)">
      <g class="primitive">
        <text text-anchor="middle" dy="0.6em">140</text>
      </g>
    </g>
    <g transform="translate(173.01,184.92)">
      <g class="primitive">
        <text text-anchor="middle" dy="0.6em">160</text>
      </g>
    </g>
    <g transform="translate(191.94,184.92)">
      <g class="primitive">
        <text text-anchor="middle" dy="0.6em">180</text>
      </g>
    </g>
    <g transform="translate(210.86,184.92)">
      <g class="primitive">
        <text text-anchor="middle" dy="0.6em">200</text>
      </g>
    </g>
    <g transform="translate(229.78,184.92)">
      <g class="primitive">
        <text text-anchor="middle" dy="0.6em">220</text>
      </g>
    </g>
    <g transform="translate(248.7,184.92)">
      <g class="primitive">
        <text text-anchor="middle" dy="0.6em">240</text>
      </g>
    </g>
    <g transform="translate(267.63,184.92)">
      <g class="primitive">
        <text text-anchor="middle" dy="0.6em">260</text>
      </g>
    </g>
  </g>
  <g class="guide colorkey" id="img-ffc4acf7-4">
    <g fill="#4C404B" font-size="2.82" font-family="'PT Sans','Helvetica Neue','Helvetica',sans-serif" id="img-ffc4acf7-5">
      <g transform="translate(274.25,77.07)" id="img-ffc4acf7-6">
        <g class="primitive">
          <text dy="0.35em">LoopVectorization</text>
        </g>
      </g>
      <g transform="translate(274.25,80.69)" id="img-ffc4acf7-7">
        <g class="primitive">
          <text dy="0.35em">Julia</text>
        </g>
      </g>
      <g transform="translate(274.25,84.32)" id="img-ffc4acf7-8">
        <g class="primitive">
          <text dy="0.35em">Clang</text>
        </g>
      </g>
      <g transform="translate(274.25,87.95)" id="img-ffc4acf7-9">
        <g class="primitive">
          <text dy="0.35em">GFortran</text>
        </g>
      </g>
      <g transform="translate(274.25,91.57)" id="img-ffc4acf7-10">
        <g class="primitive">
          <text dy="0.35em">icc</text>
        </g>
      </g>
      <g transform="translate(274.25,95.2)" id="img-ffc4acf7-11">
        <g class="primitive">
          <text dy="0.35em">ifort</text>
        </g>
      </g>
      <g transform="translate(274.25,98.83)" id="img-ffc4acf7-12">
        <g class="primitive">
          <text dy="0.35em">g++ with Eigen-3</text>
        </g>
      </g>
      <g transform="translate(274.25,102.45)" id="img-ffc4acf7-13">
        <g class="primitive">
          <text dy="0.35em">clang++ with Eigen-3</text>
        </g>
      </g>
      <g transform="translate(274.25,106.08)" id="img-ffc4acf7-14">
        <g class="primitive">
          <text dy="0.35em">GFortran-builtin</text>
        </g>
      </g>
      <g transform="translate(274.25,109.71)" id="img-ffc4acf7-15">
        <g class="primitive">
          <text dy="0.35em">OpenBLAS</text>
        </g>
      </g>
      <g transform="translate(274.25,113.33)" id="img-ffc4acf7-16">
        <g class="primitive">
          <text dy="0.35em">ifort-builtin</text>
        </g>
      </g>
      <g transform="translate(274.25,116.96)" id="img-ffc4acf7-17">
        <g class="primitive">
          <text dy="0.35em">MKL</text>
        </g>
      </g>
    </g>
    <g stroke-width="0.3" id="img-ffc4acf7-18">
      <g stroke="#FFFFFF" fill-opacity="1" fill="#77C80D" id="img-ffc4acf7-19">
        <g transform="translate(271.44,116.96)" id="img-ffc4acf7-20">
          <circle cx="0" cy="0" r="0.9" class="primitive"/>
        </g>
      </g>
      <g stroke="#FFFFFF" fill-opacity="1" fill="#458874" id="img-ffc4acf7-21">
        <g transform="translate(271.44,113.33)" id="img-ffc4acf7-22">
          <circle cx="0" cy="0" r="0.9" class="primitive"/>
        </g>
      </g>
      <g stroke="#FFFFFF" fill-opacity="1" fill="#2F5EB8" id="img-ffc4acf7-23">
        <g transform="translate(271.44,109.71)" id="img-ffc4acf7-24">
          <circle cx="0" cy="0" r="0.9" class="primitive"/>
        </g>
      </g>
      <g stroke="#FFFFFF" fill-opacity="1" fill="#33AE26" id="img-ffc4acf7-25">
        <g transform="translate(271.44,106.08)" id="img-ffc4acf7-26">
          <circle cx="0" cy="0" r="0.9" class="primitive"/>
        </g>
      </g>
      <g stroke="#FFFFFF" fill-opacity="1" fill="#F2ED37" id="img-ffc4acf7-27">
        <g transform="translate(271.44,102.45)" id="img-ffc4acf7-28">
          <circle cx="0" cy="0" r="0.9" class="primitive"/>
        </g>
      </g>
      <g stroke="#FFFFFF" fill-opacity="1" fill="#FCC884" id="img-ffc4acf7-29">
        <g transform="translate(271.44,98.83)" id="img-ffc4acf7-30">
          <circle cx="0" cy="0" r="0.9" class="primitive"/>
        </g>
      </g>
      <g stroke="#FFFFFF" fill-opacity="1" fill="#FC93C0" id="img-ffc4acf7-31">
        <g transform="translate(271.44,95.2)" id="img-ffc4acf7-32">
          <circle cx="0" cy="0" r="0.9" class="primitive"/>
        </g>
      </g>
      <g stroke="#FFFFFF" fill-opacity="1" fill="#EF54F2" id="img-ffc4acf7-33">
        <g transform="translate(271.44,91.57)" id="img-ffc4acf7-34">
          <circle cx="0" cy="0" r="0.9" class="primitive"/>
        </g>
      </g>
      <g stroke="#FFFFFF" fill-opacity="1" fill="#B341FB" id="img-ffc4acf7-35">
        <g transform="translate(271.44,87.95)" id="img-ffc4acf7-36">
          <circle cx="0" cy="0" r="0.9" class="primitive"/>
        </g>
      </g>
      <g stroke="#FFFFFF" fill-opacity="1" fill="#732CF8" id="img-ffc4acf7-37">
        <g transform="translate(271.44,84.32)" id="img-ffc4acf7-38">
          <circle cx="0" cy="0" r="0.9" class="primitive"/>
        </g>
      </g>
      <g stroke="#FFFFFF" fill-opacity="1" fill="#FF0000" id="img-ffc4acf7-39">
        <g transform="translate(271.44,80.69)" id="img-ffc4acf7-40">
          <circle cx="0" cy="0" r="0.9" class="primitive"/>
        </g>
      </g>
      <g stroke="#FFFFFF" fill-opacity="1" fill="#000000" id="img-ffc4acf7-41">
        <g transform="translate(271.44,77.07)" id="img-ffc4acf7-42">
          <circle cx="0" cy="0" r="0.9" class="primitive"/>
        </g>
      </g>
    </g>
    <g fill="#362A35" font-size="3.88" font-family="'PT Sans','Helvetica Neue','Helvetica',sans-serif" stroke="#000000" stroke-opacity="0.000" id="img-ffc4acf7-43">
      <g transform="translate(270.63,73.75)" id="img-ffc4acf7-44">
        <g class="primitive">
          <text dy="-0em">Methods</text>
        </g>
      </g>
    </g>
  </g>
  <g clip-path="url(#img-ffc4acf7-45)">
    <g id="img-ffc4acf7-46">
      <g pointer-events="visible" stroke-width="0.3" fill="#000000" fill-opacity="0.000" stroke="#000000" stroke-opacity="0.000" class="guide background" id="img-ffc4acf7-47">
        <g transform="translate(144.63,94.46)" id="img-ffc4acf7-48">
          <path d="M-125,-89.46 L125,-89.46 125,89.46 -125,89.46  z" class="primitive"/>
        </g>
      </g>
      <g class="guide ygridlines xfixed" stroke-dasharray="0.5,0.5" stroke-width="0.2" stroke="#D0D0E0" id="img-ffc4acf7-49">
        <g transform="translate(144.63,181.92)" id="img-ffc4acf7-50">
          <path fill="none" d="M-125,0 L125,0 " class="primitive"/>
        </g>
        <g transform="translate(144.63,166.23)" id="img-ffc4acf7-51">
          <path fill="none" d="M-125,0 L125,0 " class="primitive"/>
        </g>
        <g transform="translate(144.63,150.55)" id="img-ffc4acf7-52">
          <path fill="none" d="M-125,0 L125,0 " class="primitive"/>
        </g>
        <g transform="translate(144.63,134.87)" id="img-ffc4acf7-53">
          <path fill="none" d="M-125,0 L125,0 " class="primitive"/>
        </g>
        <g transform="translate(144.63,119.19)" id="img-ffc4acf7-54">
          <path fill="none" d="M-125,0 L125,0 " class="primitive"/>
        </g>
        <g transform="translate(144.63,103.51)" id="img-ffc4acf7-55">
          <path fill="none" d="M-125,0 L125,0 " class="primitive"/>
        </g>
        <g transform="translate(144.63,87.83)" id="img-ffc4acf7-56">
          <path fill="none" d="M-125,0 L125,0 " class="primitive"/>
        </g>
        <g transform="translate(144.63,72.15)" id="img-ffc4acf7-57">
          <path fill="none" d="M-125,0 L125,0 " class="primitive"/>
        </g>
        <g transform="translate(144.63,56.47)" id="img-ffc4acf7-58">
          <path fill="none" d="M-125,0 L125,0 " class="primitive"/>
        </g>
        <g transform="translate(144.63,40.79)" id="img-ffc4acf7-59">
          <path fill="none" d="M-125,0 L125,0 " class="primitive"/>
        </g>
        <g transform="translate(144.63,25.11)" id="img-ffc4acf7-60">
          <path fill="none" d="M-125,0 L125,0 " class="primitive"/>
        </g>
        <g transform="translate(144.63,9.43)" id="img-ffc4acf7-61">
          <path fill="none" d="M-125,0 L125,0 " class="primitive"/>
        </g>
      </g>
      <g class="guide xgridlines yfixed" stroke-dasharray="0.5,0.5" stroke-width="0.2" stroke="#D0D0E0" id="img-ffc4acf7-62">
        <g transform="translate(21.63,94.46)" id="img-ffc4acf7-63">
          <path fill="none" d="M0,-89.46 L0,89.46 " class="primitive"/>
        </g>
        <g transform="translate(40.55,94.46)" id="img-ffc4acf7-64">
          <path fill="none" d="M0,-89.46 L0,89.46 " class="primitive"/>
        </g>
        <g transform="translate(59.48,94.46)" id="img-ffc4acf7-65">
          <path fill="none" d="M0,-89.46 L0,89.46 " class="primitive"/>
        </g>
        <g transform="translate(78.4,94.46)" id="img-ffc4acf7-66">
          <path fill="none" d="M0,-89.46 L0,89.46 " class="primitive"/>
        </g>
        <g transform="translate(97.32,94.46)" id="img-ffc4acf7-67">
          <path fill="none" d="M0,-89.46 L0,89.46 " class="primitive"/>
        </g>
        <g transform="translate(116.25,94.46)" id="img-ffc4acf7-68">
          <path fill="none" d="M0,-89.46 L0,89.46 " class="primitive"/>
        </g>
        <g transform="translate(135.17,94.46)" id="img-ffc4acf7-69">
          <path fill="none" d="M0,-89.46 L0,89.46 " class="primitive"/>
        </g>
        <g transform="translate(154.09,94.46)" id="img-ffc4acf7-70">
          <path fill="none" d="M0,-89.46 L0,89.46 " class="primitive"/>
        </g>
        <g transform="translate(173.01,94.46)" id="img-ffc4acf7-71">
          <path fill="none" d="M0,-89.46 L0,89.46 " class="primitive"/>
        </g>
        <g transform="translate(191.94,94.46)" id="img-ffc4acf7-72">
          <path fill="none" d="M0,-89.46 L0,89.46 " class="primitive"/>
        </g>
        <g transform="translate(210.86,94.46)" id="img-ffc4acf7-73">
          <path fill="none" d="M0,-89.46 L0,89.46 " class="primitive"/>
        </g>
        <g transform="translate(229.78,94.46)" id="img-ffc4acf7-74">
          <path fill="none" d="M0,-89.46 L0,89.46 " class="primitive"/>
        </g>
        <g transform="translate(248.7,94.46)" id="img-ffc4acf7-75">
          <path fill="none" d="M0,-89.46 L0,89.46 " class="primitive"/>
        </g>
        <g transform="translate(267.63,94.46)" id="img-ffc4acf7-76">
          <path fill="none" d="M0,-89.46 L0,89.46 " class="primitive"/>
        </g>
      </g>
      <g class="plotpanel" id="img-ffc4acf7-77">
        <metadata>
          <boundingbox value="19.63166666666666mm 5.0mm 249.99499999999995mm 178.915mm"/>
          <unitbox value="-2.113864102928922 112.82756348954612 264.22772820585783 -114.10306374096118"/>
        </metadata>
        <g stroke-width="0.3" fill="#000000" fill-opacity="0.000" class="geometry" id="img-ffc4acf7-78">
          <g class="color_RGB{Float64}(0.46484,0.78619,0.051424)" stroke-dasharray="none" stroke="#77C80D" id="img-ffc4acf7-79">
            <g transform="translate(143.68,49.09)" id="img-ffc4acf7-80">
              <path fill="none" d="M-120.16,132.59 L-119.21,132.11 -118.27,131.59 -117.32,130.4 -116.37,128.96 -115.43,126.8 -114.48,124.24 -113.54,122.19 -112.59,119.17 -111.64,115.63 -110.7,111.32 -109.75,106.74 -108.81,101.01 -107.86,95.54 -106.91,90.54 -105.97,94.18 -105.02,89.21 -104.07,85.9 -103.13,79.15 -102.18,73.93 -101.24,66.8 -100.29,62.41 -99.34,55.77 -98.4,74.12 -97.45,70.31 -96.51,66.92 -95.56,63.68 -94.61,60.25 -93.67,56.15 -92.72,51.81 -91.78,43.31 -90.83,53.73 -89.88,52.93 -88.94,48.61 -87.99,42.23 -87.04,40.19 -86.1,36.27 -85.15,32.77 -84.21,22.18 -83.26,37.52 -82.31,34.9 -81.37,32.41 -80.42,27.86 -79.48,23.75 -78.53,20.04 -77.58,17.68 -76.64,1.37 -75.69,26.63 -74.74,24.48 -73.8,22.71 -72.85,19.2 -71.91,17.8 -70.96,12.63 -70.01,10 -69.07,0.53 -68.12,14.58 -67.18,11.59 -66.23,10.59 -65.28,6.12 -64.34,4.03 -63.39,0.48 -62.44,-1.16 -61.5,-10.87 -60.55,4.74 -59.61,2.19 -58.66,1.79 -57.71,-1.81 -56.77,-3.03 -55.82,-5.47 -54.88,-8.08 -53.93,-16.03 -52.98,7.55 -52.04,4.6 -51.09,3.43 -50.15,-0.16 -49.2,-0.67 -48.25,-3.05 -47.31,-4.51 -46.36,-12.25 -45.41,-0.33 -44.47,-3.71 -43.52,-4.42 -42.58,-5.85 -41.63,-6.5 -40.68,-9.97 -39.74,-10.4 -38.79,-21.02 -37.85,-7.71 -36.9,-8.72 -35.95,-8.68 -35.01,-12.53 -34.06,-12.89 -33.11,-15.2 -32.17,-16.95 -31.22,-26.56 -30.28,-7.62 -29.33,-9.34 -28.38,-10.13 -27.44,-12.53 -26.49,-12.57 -25.55,-14.67 -24.6,-16.19 -23.65,-24.07 -22.71,-14.4 -21.76,-15.7 -20.81,-16.76 -19.87,-19.06 -18.92,-18.63 -17.98,-21.25 -17.03,-22.17 -16.08,-30.13 -15.14,-17.32 -14.19,-19.25 -13.25,-19.71 -12.3,-21.94 -11.35,-22.6 -10.41,-23.93 -9.46,-25.16 -8.52,-34.43 -7.57,-17.06 -6.62,-18.15 -5.68,-18.99 -4.73,-21.22 -3.78,-21.35 -2.84,-23.78 -1.89,-23.38 -0.95,-30.65 -0,-21.81 0.95,-24.25 1.89,-24.2 2.84,-26.11 3.78,-26.05 4.73,-28.1 5.68,-28.69 6.62,-35.83 7.57,-23.51 8.52,-25.54 9.46,-26.17 10.41,-28.24 11.35,-28.87 12.3,-30.18 13.25,-31 14.19,-38.8 15.14,-22.6 16.08,-24.39 17.03,-24.96 17.98,-25.65 18.92,-27.3 19.87,-28.96 20.81,-29.47 21.76,-35.66 22.71,-26.94 23.65,-28.63 24.6,-29.05 25.55,-31.14 26.49,-31.23 27.44,-33.22 28.38,-33.37 29.33,-39.19 30.28,-27.78 31.22,-29.68 32.17,-29.98 33.11,-32.14 34.06,-32.69 35.01,-34.47 35.95,-34.97 36.9,-42.09 37.85,-26.52 38.79,-28.04 39.74,-28.08 40.68,-29.82 41.63,-30.8 42.58,-32.56 43.52,-32.76 44.47,-38.68 45.41,-29.96 46.36,-32.5 47.31,-32.62 48.25,-33.53 49.2,-34.61 50.15,-36.05 51.09,-36.2 52.04,-41.51 52.98,-31.5 53.93,-33.31 54.88,-33.64 55.82,-35.08 56.77,-35.56 57.71,-36.88 58.66,-36.91 59.61,-29.88 60.55,-11.19 61.5,-15.02 62.44,-4.46 63.39,-17.89 64.34,-5.35 65.28,-7.75 66.23,0.41 67.18,-19.72 68.12,-10.02 69.07,-10.86 70.01,-2.15 70.96,-14.19 71.91,-3.99 72.85,-4.81 73.8,3.07 74.74,-22.48 75.69,-11.43 76.64,-14.15 77.58,-5.76 78.53,-16.47 79.48,-6.96 80.42,-9.52 81.37,-1.04 82.31,-25.29 83.26,-13 84.21,-15.18 85.15,-6.2 86.1,-18.49 87.04,-8.86 87.99,-10.01 88.94,-1.45 89.88,-22.74 90.83,-11.63 91.78,-12.84 92.72,-5.12 93.67,-15.02 94.61,-6.16 95.56,-7.83 96.51,-0.36 97.45,-24.86 98.4,-14.7 99.34,-15.84 100.29,-7.83 101.24,-18.36 102.18,-8.72 103.13,-11.47 104.07,-3.17 105.02,-26.39 105.97,-15.82 106.91,-17.22 107.86,-9.21 108.81,-21.04 109.75,-11.95 110.7,-13.16 111.64,-4.64 112.59,-24.01 113.54,-14.65 114.48,-15.42 115.43,-7.82 116.37,-18.95 117.32,-9.81 118.27,-11.65 119.21,-4.21 120.16,-27.43 " class="primitive"/>
            </g>
          </g>
        </g>
        <g stroke-width="0.3" fill="#000000" fill-opacity="0.000" class="geometry" id="img-ffc4acf7-81">
          <g class="color_RGB{Float64}(0.271475,0.531685,0.455665)" stroke-dasharray="none" stroke="#458874" id="img-ffc4acf7-82">
            <g transform="translate(143.68,89.61)" id="img-ffc4acf7-83">
              <path fill="none" d="M-120.16,92.12 L-119.21,91.77 -118.27,91.08 -117.32,90.3 -116.37,88.6 -115.43,87.58 -114.48,84.73 -113.54,83.63 -112.59,81.61 -111.64,80.97 -110.7,74.73 -109.75,74.47 -108.81,72.53 -107.86,73.29 -106.91,64.14 -105.97,66.63 -105.02,59.48 -104.07,62.01 -103.13,55.79 -102.18,59.53 -101.24,58.11 -100.29,60.67 -99.34,40.57 -98.4,46.74 -97.45,45.54 -96.51,50.91 -95.56,42.46 -94.61,48.45 -93.67,41.07 -92.72,45.74 -91.78,29.08 -90.83,36.89 -89.88,36.16 -88.94,41.81 -87.99,28.36 -87.04,35.73 -86.1,34.36 -85.15,40.12 -84.21,23.85 -83.26,31.36 -82.31,25.44 -81.37,31.69 -80.42,23.07 -79.48,31.12 -78.53,29.42 -77.58,35.38 -76.64,12.71 -75.69,20.13 -74.74,19.01 -73.8,26.08 -72.85,17.6 -71.91,25.48 -70.96,18.86 -70.01,25.5 -69.07,8.47 -68.12,17.25 -67.18,16.57 -66.23,23.45 -65.28,10.36 -64.34,17.84 -63.39,16.94 -62.44,23.77 -61.5,6.82 -60.55,14.45 -59.61,7.06 -58.66,14 -57.71,6.98 -56.77,14.87 -55.82,14.79 -54.88,20.9 -53.93,2.79 -52.98,6.84 -52.04,10.73 -51.09,14.24 -50.15,8.1 -49.2,15.23 -48.25,11.18 -47.31,13.18 -46.36,0.84 -45.41,4.89 -44.47,9.51 -43.52,15.15 -42.58,-3.44 -41.63,8.39 -40.68,4.25 -39.74,10.67 -38.79,1.79 -37.85,9.1 -36.9,-3.49 -35.95,3.75 -35.01,1.36 -34.06,3.97 -33.11,4.34 -32.17,11.21 -31.22,-13.53 -30.28,0.16 -29.33,-3.92 -28.38,2.28 -27.44,-3.82 -26.49,7.02 -25.55,-4.53 -24.6,1.88 -23.65,-11.53 -22.71,-3.45 -21.76,-2.84 -20.81,3.12 -19.87,-10.84 -18.92,-3.29 -17.98,-3.24 -17.03,2.87 -16.08,-13.16 -15.14,-5.36 -14.19,-12.54 -13.25,-0.63 -12.3,-12.4 -11.35,-5.37 -10.41,-4.92 -9.46,0.85 -8.52,-19.26 -7.57,-11.32 -6.62,-10.69 -5.68,-4.54 -4.73,-10.35 -3.78,-3.81 -2.84,-10.74 -1.89,-4.33 -0.95,-20.63 -0,-12.47 0.95,-12.32 1.89,-6.01 2.84,-19.26 3.78,-6.25 4.73,-6.3 5.68,-2.27 6.62,-17.93 7.57,-6.29 8.52,-17.68 9.46,-7.64 10.41,-11.02 11.35,-10.5 12.3,-10.06 13.25,-4.63 14.19,-26.88 15.14,-18.88 16.08,-12.02 17.03,-12.21 17.98,-11.86 18.92,-11.51 19.87,-17.98 20.81,-12.2 21.76,-23.88 22.71,-16.62 23.65,-10.06 24.6,-10.56 25.55,-22.45 26.49,-15.94 27.44,-15.86 28.38,-10.59 29.33,-19.02 30.28,-10.52 31.22,-22.93 32.17,-16.99 33.11,-22.86 34.06,-15.87 35.01,-10.15 35.95,-11.17 36.9,-27.84 37.85,-20.25 38.79,-13.4 39.74,-7.97 40.68,-19.18 41.63,-13.16 42.58,-12.74 43.52,-7.72 44.47,-20.09 45.41,-19.88 46.36,-13.92 47.31,-14.93 48.25,-17.43 49.2,-19.63 50.15,-12.74 51.09,-7.76 52.04,-18.75 52.98,-17.46 53.93,-16.43 54.88,-11.38 55.82,-21.92 56.77,-16.22 57.71,-16.34 58.66,-11.43 59.61,-28.37 60.55,-29.64 61.5,-30.99 62.44,-28.51 63.39,-30.83 64.34,-28.03 65.28,-31.46 66.23,-25.08 67.18,-27.11 68.12,-25.72 69.07,-29.82 70.01,-28.7 70.96,-27.87 71.91,-25.73 72.85,-29.29 73.8,-27.65 74.74,-28.04 75.69,-30.07 76.64,-29.06 77.58,-27.97 78.53,-27.51 79.48,-32.39 80.42,-28.08 81.37,-30.7 82.31,-30.7 83.26,-32.86 84.21,-32 85.15,-26.57 86.1,-32.39 87.04,-25.83 87.99,-32.85 88.94,-30.77 89.88,-37.4 90.83,-29.68 91.78,-31.37 92.72,-25.98 93.67,-33.62 94.61,-32.09 95.56,-26.52 96.51,-25.56 97.45,-32.05 98.4,-31.01 99.34,-33.18 100.29,-32.52 101.24,-27.54 102.18,-30.84 103.13,-32.6 104.07,-29.77 105.02,-37.25 105.97,-30.82 106.91,-33.8 107.86,-32.16 108.81,-35.55 109.75,-28.47 110.7,-36.88 111.64,-28.52 112.59,-34.01 113.54,-32.84 114.48,-34.36 115.43,-32.04 116.37,-37.13 117.32,-33.51 118.27,-33.33 119.21,-30.89 120.16,-36.61 " class="primitive"/>
            </g>
          </g>
        </g>
        <g stroke-width="0.3" fill="#000000" fill-opacity="0.000" class="geometry" id="img-ffc4acf7-84">
          <g class="color_RGB{Float64}(0.184295,0.36709,0.72131)" stroke-dasharray="none" stroke="#2F5EB8" id="img-ffc4acf7-85">
            <g transform="translate(143.68,119.82)" id="img-ffc4acf7-86">
              <path fill="none" d="M-120.16,61.54 L-119.21,61 -118.27,58.4 -117.32,58.46 -116.37,57.44 -115.43,57.03 -114.48,48.74 -113.54,51.29 -112.59,51.12 -111.64,51.7 -110.7,39.37 -109.75,45.06 -108.81,45.41 -107.86,46.58 -106.91,32.96 -105.97,40.29 -105.02,41.14 -104.07,42.75 -103.13,27.85 -102.18,36.04 -101.24,37.14 -100.29,38.25 -99.34,22.08 -98.4,30.19 -97.45,31.89 -96.51,33.86 -95.56,17.82 -94.61,25.17 -93.67,27.98 -92.72,30.14 -91.78,12.44 -90.83,21.87 -89.88,23.88 -88.94,26.53 -87.99,10.62 -87.04,19.48 -86.1,20.72 -85.15,23.84 -84.21,7.88 -83.26,18.04 -82.31,18.28 -81.37,21.55 -80.42,5.12 -79.48,15.8 -78.53,15.52 -77.58,18.9 -76.64,3.65 -75.69,11.88 -74.74,13.14 -73.8,16.86 -72.85,0.33 -71.91,9.73 -70.96,12.01 -70.01,17.04 -69.07,-1.52 -68.12,9.34 -67.18,10.28 -66.23,13.98 -65.28,-2.21 -64.34,8.13 -63.39,9.58 -62.44,13.28 -61.5,-3.81 -60.55,7.22 -59.61,7.92 -58.66,11.88 -57.71,-4.9 -56.77,5.64 -55.82,6.67 -54.88,10.7 -53.93,-4.42 -52.98,4.44 -52.04,7.96 -51.09,9.26 -50.15,-7.5 -49.2,3.21 -48.25,6.44 -47.31,8.37 -46.36,-7.36 -45.41,2.33 -44.47,5.58 -43.52,9.33 -42.58,-10.13 -41.63,3.52 -40.68,1.48 -39.74,6.1 -38.79,-9.71 -37.85,3.31 -36.9,0.82 -35.95,4.77 -35.01,-12.15 -34.06,-1.14 -33.11,-0.23 -32.17,4.08 -31.22,-13.37 -30.28,1.44 -29.33,-1.65 -28.38,2.25 -27.44,-14.06 -26.49,-3.34 -25.55,-3.17 -24.6,1.59 -23.65,-15.12 -22.71,-3.74 -21.76,-3.39 -20.81,3.57 -19.87,-15.73 -18.92,-1.3 -17.98,-4.68 -17.03,-0.16 -16.08,-16.5 -15.14,-5.59 -14.19,-5.28 -13.25,-1.26 -12.3,-15.7 -11.35,-2.32 -10.41,-4.72 -9.46,-1.62 -8.52,-18.04 -7.57,-6.75 -6.62,-4.27 -5.68,-2.63 -4.73,-18.3 -3.78,-7.6 -2.84,-7.21 -1.89,0.5 -0.95,-18.98 -0,-7.99 0.95,-8.2 1.89,-4.2 2.84,-19.63 3.78,-4.97 4.73,-5.8 5.68,-0.67 6.62,-18.46 7.57,-6.01 8.52,-7.46 9.46,-3.49 10.41,-16.99 11.35,-3.88 12.3,-4.58 13.25,-3.08 14.19,-21 15.14,-9.95 16.08,-6.92 17.03,-6.26 17.98,-20.14 18.92,-10.97 19.87,-7.54 20.81,-2.77 21.76,-21.98 22.71,-11.03 23.65,-7.29 24.6,-4.55 25.55,-20.12 26.49,-11.75 27.44,-5.42 28.38,-3.54 29.33,-19.19 30.28,-4.26 31.22,-9.63 32.17,-1.84 33.11,-18.92 34.06,-11.73 35.01,-5.51 35.95,-7.43 36.9,-21.35 37.85,-8.19 38.79,-8.07 39.74,-2.82 40.68,-20.59 41.63,-11.5 42.58,-6.82 43.52,-7.66 44.47,-21.36 45.41,-9.34 46.36,-9.1 47.31,-9.34 48.25,-20.72 49.2,-12.8 50.15,-9.39 51.09,-4.49 52.04,-21.76 52.98,-12.2 53.93,-9.56 54.88,-5.21 55.82,-22.61 56.77,-13.11 57.71,-13.93 58.66,-8.71 59.61,-22.56 60.55,-8.01 61.5,-13.58 62.44,-9.51 63.39,-22.82 64.34,-12.85 65.28,-13.91 66.23,-5.35 67.18,-21.22 68.12,-13.25 69.07,-13.34 70.01,-10 70.96,-21.51 71.91,-9.19 72.85,-13.86 73.8,-9.39 74.74,-22.44 75.69,-12.86 76.64,-9.71 77.58,-6.24 78.53,-22.1 79.48,-9.07 80.42,-10.47 81.37,-9.8 82.31,-21.62 83.26,-12.98 84.21,-13.68 85.15,-7.52 86.1,-22.7 87.04,-9.13 87.99,-13.92 88.94,-8.77 89.88,-22.75 90.83,-9.17 91.78,-13.96 92.72,-6.61 93.67,-22.17 94.61,-13.64 95.56,-14.5 96.51,-6.34 97.45,-22.29 98.4,-13.75 99.34,-14.16 100.29,-11.12 101.24,-20.9 102.18,-13.66 103.13,-15.05 104.07,-10.36 105.02,-22.17 105.97,-9.19 106.91,-14.47 107.86,-10.83 108.81,-22.74 109.75,-9.63 110.7,-14.99 111.64,-5.51 112.59,-22.1 113.54,-12.17 114.48,-13.35 115.43,-2.79 116.37,-16.5 117.32,-8.5 118.27,-8.77 119.21,-8.39 120.16,-15.45 " class="primitive"/>
            </g>
          </g>
        </g>
        <g stroke-width="0.3" fill="#000000" fill-opacity="0.000" class="geometry" id="img-ffc4acf7-87">
          <g class="color_RGB{Float64}(0.19818750000000002,0.6815825,0.147585)" stroke-dasharray="none" stroke="#33AE26" id="img-ffc4acf7-88">
            <g transform="translate(143.68,165.62)" id="img-ffc4acf7-89">
              <path fill="none" d="M-120.16,15.05 L-119.21,13.85 -118.27,11.87 -117.32,11.01 -116.37,10.94 -115.43,10.54 -114.48,9.38 -113.54,9.97 -112.59,10 -111.64,10.31 -110.7,8.3 -109.75,8.84 -108.81,8.95 -107.86,9.05 -106.91,3.02 -105.97,5.41 -105.02,5.89 -104.07,6.6 -103.13,4.84 -102.18,5.44 -101.24,5.99 -100.29,6.12 -99.34,-1.02 -98.4,2.06 -97.45,3.15 -96.51,3.64 -95.56,1.47 -94.61,2.43 -93.67,3.32 -92.72,0.59 -91.78,-4.38 -90.83,-2 -89.88,-0.82 -88.94,0.32 -87.99,-2.8 -87.04,-1.54 -86.1,-0.93 -85.15,-0.13 -84.21,-3.86 -83.26,-2.06 -82.31,-1.65 -81.37,-0.48 -80.42,-5.36 -79.48,-1.64 -78.53,-2.38 -77.58,-1.48 -76.64,-2.28 -75.69,-2.75 -74.74,-1.85 -73.8,-0.76 -72.85,-4.98 -71.91,-0.58 -70.96,-1.42 -70.01,0.35 -69.07,-3.54 -68.12,-1.28 -67.18,-1.51 -66.23,-0.74 -65.28,-4.17 -64.34,-2.25 -63.39,-2.07 -62.44,-1.22 -61.5,-3.37 -60.55,-1.3 -59.61,-1.78 -58.66,-0.79 -57.71,-3.36 -56.77,-1.71 -55.82,-1.75 -54.88,-0.62 -53.93,-2.5 -52.98,-0.81 -52.04,-0.32 -51.09,-0.7 -50.15,-4.23 -49.2,-2.06 -48.25,-0.28 -47.31,0.47 -46.36,-2.4 -45.41,-2.05 -44.47,-0.28 -43.52,-0.86 -42.58,-3.73 -41.63,-1.77 -40.68,-1.71 -39.74,-0.59 -38.79,-3.47 -37.85,-0.17 -36.9,-1.46 -35.95,-0.42 -35.01,-4.22 -34.06,-1.72 -33.11,-1.35 -32.17,-0.6 -31.22,-3.27 -30.28,-1 -29.33,-1.13 -28.38,-0.44 -27.44,-2.96 -26.49,-0.27 -25.55,-0.86 -24.6,-0.35 -23.65,-1.17 -22.71,-1.14 -21.76,-0.74 -20.81,1.16 -19.87,-2.56 -18.92,0.24 -17.98,-1 -17.03,-0.17 -16.08,-2.11 -15.14,-0.79 -14.19,-0.52 -13.25,0.8 -12.3,-0.61 -11.35,0.23 -10.41,0.09 -9.46,0.21 -8.52,-1.34 -7.57,-0.29 -6.62,0.2 -5.68,0.16 -4.73,-1.71 -3.78,-0.56 -2.84,-0.39 -1.89,0.51 -0.95,-1.47 -0,-0.49 0.95,-0.4 1.89,-0.03 2.84,-1.33 3.78,0.11 4.73,0.04 5.68,0.03 6.62,-1.23 7.57,-0.09 8.52,-0.42 9.46,0.26 10.41,-1.21 11.35,-0.15 12.3,-0.21 13.25,-0.22 14.19,-1.12 15.14,-0.66 16.08,-0.08 17.03,-0.15 17.98,-0.89 18.92,-0.57 19.87,-0.52 20.81,0.44 21.76,-1.46 22.71,-0.58 23.65,-0.07 24.6,-0.12 25.55,-1.81 26.49,-0.78 27.44,-0.26 28.38,-0.32 29.33,-0.96 30.28,-0.02 31.22,-0.31 32.17,0.28 33.11,-1.47 34.06,-0.6 35.01,-0.11 35.95,-0.19 36.9,-1.54 37.85,-0.57 38.79,-0.08 39.74,0.31 40.68,-1.81 41.63,-0.72 42.58,-0.27 43.52,-0.29 44.47,-0.94 45.41,-0.54 46.36,-0.2 47.31,-0.28 48.25,-1.13 49.2,-0.53 50.15,-0.13 51.09,0.31 52.04,-1.23 52.98,-0.53 53.93,-0.68 54.88,-0.17 55.82,-1.78 56.77,-0.75 57.71,-0.75 58.66,-0.32 59.61,-1.34 60.55,-0.12 61.5,-0.69 62.44,-0.2 63.39,-1.59 64.34,-0.57 65.28,-0.65 66.23,0.25 67.18,-1.17 68.12,-0.1 69.07,-0.18 70.01,-0.23 70.96,-1.46 71.91,-0.22 72.85,-0.76 73.8,-0.32 74.74,-1.48 75.69,-0.53 76.64,-0.25 77.58,0.3 78.53,-1.63 79.48,-0.08 80.42,-0.69 81.37,-0.25 82.31,-1.31 83.26,-0.55 84.21,-0.6 85.15,0.17 86.1,-1.75 87.04,-0.11 87.99,-0.67 88.94,-0.35 89.88,-1.47 90.83,-0.04 91.78,-0.69 92.72,0.38 93.67,-1.62 94.61,-0.54 95.56,-0.67 96.51,0.46 97.45,-1.59 98.4,-0.57 99.34,-0.63 100.29,-0.26 101.24,-0.75 102.18,-0.65 103.13,-0.79 104.07,-0.35 105.02,-1.55 105.97,0.14 106.91,-0.77 107.86,-0.24 108.81,-1.62 109.75,0.26 110.7,-0.72 111.64,0.69 112.59,-0.71 113.54,-0.5 114.48,-0.67 115.43,0.52 116.37,-1.04 117.32,-0.63 118.27,0.25 119.21,-0.26 120.16,-1.46 " class="primitive"/>
            </g>
          </g>
        </g>
        <g stroke-width="0.3" fill="#000000" fill-opacity="0.000" class="geometry" id="img-ffc4acf7-90">
          <g class="color_RGB{Float64}(0.9472050000000001,0.93113,0.21654)" stroke-dasharray="none" stroke="#F2ED37" id="img-ffc4acf7-91">
            <g transform="translate(143.68,77.29)" id="img-ffc4acf7-92">
              <path fill="none" d="M-120.16,103.73 L-119.21,103.11 -118.27,102.79 -117.32,102.41 -116.37,101.94 -115.43,100.57 -114.48,91.82 -113.54,93.11 -112.59,92.69 -111.64,92.56 -110.7,88.19 -109.75,88.99 -108.81,89.43 -107.86,90.6 -106.91,61.5 -105.97,69.24 -105.02,72.35 -104.07,75.33 -103.13,67.25 -102.18,72.52 -101.24,74.95 -100.29,77.15 -99.34,34.17 -98.4,45.56 -97.45,51.87 -96.51,57.92 -95.56,49.34 -94.61,57.07 -93.67,59.82 -92.72,65.58 -91.78,26.45 -90.83,37.21 -89.88,39.94 -88.94,45.46 -87.99,39.75 -87.04,46.03 -86.1,46.6 -85.15,50.06 -84.21,10.24 -83.26,23.74 -82.31,27.4 -81.37,32.52 -80.42,27.3 -79.48,33.43 -78.53,35.74 -77.58,41.18 -76.64,3.61 -75.69,13.85 -74.74,17.46 -73.8,24.02 -72.85,17.8 -71.91,25.44 -70.96,27.23 -70.01,34.82 -69.07,1.35 -68.12,13.26 -67.18,16.08 -66.23,21.6 -65.28,19.4 -64.34,25.83 -63.39,23.63 -62.44,29.37 -61.5,-11.25 -60.55,4.54 -59.61,3.29 -58.66,8.86 -57.71,4.5 -56.77,11.27 -55.82,12.28 -54.88,17.26 -53.93,-11.87 -52.98,-4.86 -52.04,1.62 -51.09,2.55 -50.15,-1.8 -49.2,4.62 -48.25,10.55 -47.31,14.84 -46.36,-9.24 -45.41,-3.26 -44.47,2.56 -43.52,2.87 -42.58,-2 -41.63,4.68 -40.68,5.07 -39.74,10.86 -38.79,-24.1 -37.85,-6.95 -36.9,-11.57 -35.95,-4.62 -35.01,-11.46 -34.06,-3.48 -33.11,-2.43 -32.17,3.46 -31.22,-29.01 -30.28,-15.11 -29.33,-16.32 -28.38,-10.45 -27.44,-16.7 -26.49,-9.65 -25.55,-9.64 -24.6,-3.47 -23.65,-26.23 -22.71,-9.53 -21.76,-14.54 -20.81,-4.13 -19.87,-14.31 -18.92,-8.22 -17.98,-8.2 -17.03,-2.26 -16.08,-34.03 -15.14,-22.97 -14.19,-21.91 -13.25,-16.53 -12.3,-15.23 -11.35,-9.15 -10.41,-11.18 -9.46,-8.71 -8.52,-37.4 -7.57,-26.52 -6.62,-17.35 -5.68,-13.06 -4.73,-25.51 -3.78,-18.24 -2.84,-17.85 -1.89,-6.05 -0.95,-33.11 -0,-23.78 0.95,-22.82 1.89,-17.42 2.84,-22.29 3.78,-9.4 4.73,-9.37 5.68,-9.59 6.62,-36.14 7.57,-19.1 8.52,-19.69 9.46,-15.28 10.41,-16.94 11.35,-17.48 12.3,-10.87 13.25,-7.16 14.19,-38.53 15.14,-27.79 16.08,-19.43 17.03,-21.88 17.98,-19.21 18.92,-20.48 19.87,-19.81 20.81,-9.14 21.76,-35.42 22.71,-25.06 23.65,-15.98 24.6,-19.51 25.55,-23.02 26.49,-18.1 27.44,-10.35 28.38,-14.32 29.33,-33.94 30.28,-20.6 31.22,-21.3 32.17,-16.53 33.11,-27.36 34.06,-21.72 35.01,-14.7 35.95,-18.82 36.9,-41.89 37.85,-29.87 38.79,-20.71 39.74,-15.92 40.68,-28.73 41.63,-23.6 42.58,-14.67 43.52,-18.5 44.47,-26.73 45.41,-25.8 46.36,-18.25 47.31,-23.17 48.25,-16.63 49.2,-20.78 50.15,-13.14 51.09,-9.78 52.04,-32.22 52.98,-30.16 53.93,-30.21 54.88,-26.14 55.82,-29.17 56.77,-23.73 57.71,-24.38 58.66,-19.82 59.61,-28 60.55,-20.82 61.5,-29.64 62.44,-25.38 63.39,-29.87 64.34,-23.91 65.28,-23.04 66.23,-11.96 67.18,-24.07 68.12,-23.55 69.07,-16.08 70.01,-15.54 70.96,-18.34 71.91,-14.51 72.85,-19.47 73.8,-15.39 74.74,-35.06 75.69,-26.12 76.64,-16.5 77.58,-16.26 78.53,-25.82 79.48,-15.9 80.42,-22.52 81.37,-18.8 82.31,-28.69 83.26,-26.12 84.21,-25.16 85.15,-17.14 86.1,-27.56 87.04,-16.21 87.99,-20.32 88.94,-17.85 89.88,-31.62 90.83,-15.67 91.78,-21.62 92.72,-13.87 93.67,-21.65 94.61,-17.93 95.56,-17.37 96.51,-9.87 97.45,-31.92 98.4,-27.09 99.34,-15.35 100.29,-23 101.24,-15.59 102.18,-19.82 103.13,-20.57 104.07,-16.89 105.02,-30.99 105.97,-27.03 106.91,-22.52 107.86,-20.06 108.81,-17.83 109.75,-15.61 110.7,-22.78 111.64,-9.15 112.59,-25.11 113.54,-22.69 114.48,-21.48 115.43,-12.81 116.37,-20.81 117.32,-18.1 118.27,-10.54 119.21,-14.95 120.16,-33.46 " class="primitive"/>
            </g>
          </g>
        </g>
        <g stroke-width="0.3" fill="#000000" fill-opacity="0.000" class="geometry" id="img-ffc4acf7-93">
          <g class="color_RGB{Float64}(0.9876875,0.782915,0.516455)" stroke-dasharray="none" stroke="#FCC884" id="img-ffc4acf7-94">
            <g transform="translate(143.68,74.62)" id="img-ffc4acf7-95">
              <path fill="none" d="M-120.16,106.66 L-119.21,106.19 -118.27,105.87 -117.32,105.36 -116.37,105.28 -115.43,103.07 -114.48,95.39 -113.54,95.86 -112.59,94.95 -111.64,94.14 -110.7,90.13 -109.75,90.54 -108.81,90.29 -107.86,91.05 -106.91,63.86 -105.97,71.04 -105.02,71.99 -104.07,74.43 -103.13,67.08 -102.18,72.23 -101.24,73.77 -100.29,76.93 -99.34,32.3 -98.4,45.64 -97.45,49.93 -96.51,55.07 -95.56,48.08 -94.61,55.08 -93.67,58.19 -92.72,64.55 -91.78,26.42 -90.83,39.34 -89.88,44.26 -88.94,49.7 -87.99,40.47 -87.04,47.97 -86.1,51.51 -85.15,55.29 -84.21,12 -83.26,27.57 -82.31,31.32 -81.37,37.48 -80.42,29.28 -79.48,36.69 -78.53,41.2 -77.58,46.81 -76.64,2 -75.69,15.36 -74.74,19.81 -73.8,25.16 -72.85,17.49 -71.91,26.53 -70.96,29.77 -70.01,38.1 -69.07,0.25 -68.12,14.19 -67.18,18.06 -66.23,25.34 -65.28,20.44 -64.34,26.7 -63.39,25.63 -62.44,32.53 -61.5,-11.37 -60.55,7.08 -59.61,6.01 -58.66,12.79 -57.71,4.37 -56.77,16.57 -55.82,15.93 -54.88,23.25 -53.93,-16.49 -52.98,-4.6 -52.04,1.83 -51.09,4.53 -50.15,-3.2 -49.2,5.49 -48.25,10.25 -47.31,17.35 -46.36,-15.38 -45.41,-3.17 -44.47,0.62 -43.52,4.15 -42.58,-2.76 -41.63,5.17 -40.68,7.09 -39.74,13.61 -38.79,-26.47 -37.85,-9.84 -36.9,-9.64 -35.95,-3.62 -35.01,-8.74 -34.06,-2.72 -33.11,-0.08 -32.17,6.01 -31.22,-31.89 -30.28,-16.61 -29.33,-15.74 -28.38,-9.93 -27.44,-14.59 -26.49,-8.72 -25.55,-6.82 -24.6,0.25 -23.65,-28.01 -22.71,-13.73 -21.76,-13.33 -20.81,-6.18 -19.87,-15.09 -18.92,-7.86 -17.98,-5.27 -17.03,0.85 -16.08,-35.63 -15.14,-23.04 -14.19,-21.01 -13.25,-13.05 -12.3,-19.29 -11.35,-11.91 -10.41,-11.25 -9.46,-5.38 -8.52,-39.91 -7.57,-27.76 -6.62,-22.09 -5.68,-19.93 -4.73,-26.99 -3.78,-18.46 -2.84,-14.24 -1.89,-6.97 -0.95,-34.96 -0,-23.55 0.95,-22.63 1.89,-17.28 2.84,-19.06 3.78,-11.85 4.73,-10.35 5.68,-7.76 6.62,-38.12 7.57,-20.09 8.52,-19.22 9.46,-15.33 10.41,-18 11.35,-16.79 12.3,-9.7 13.25,-10.14 14.19,-41.22 15.14,-28.03 16.08,-22.39 17.03,-21.67 17.98,-27.3 18.92,-20.8 19.87,-18.85 20.81,-9.7 21.76,-36.93 22.71,-25.06 23.65,-23.01 24.6,-19.68 25.55,-24.16 26.49,-18.14 27.44,-14.2 28.38,-12.39 29.33,-37.32 30.28,-22.72 31.22,-21.78 32.17,-22.75 33.11,-27.83 34.06,-21.04 35.01,-18.31 35.95,-16.91 36.9,-44.22 37.85,-29.93 38.79,-26.53 39.74,-20.22 40.68,-29.52 41.63,-23.52 42.58,-19 43.52,-16.93 44.47,-34.89 45.41,-25.51 46.36,-22.86 47.31,-22.04 48.25,-21.66 49.2,-20.99 50.15,-19.75 51.09,-11.93 52.04,-37.34 52.98,-29.58 53.93,-28.87 54.88,-25.5 55.82,-29.11 56.77,-22.47 57.71,-22.81 58.66,-18.09 59.61,-39.12 60.55,-27.78 61.5,-28.73 62.44,-24.52 63.39,-30.34 64.34,-22.95 65.28,-21.32 66.23,-14.63 67.18,-33.24 68.12,-26.04 69.07,-20.18 70.01,-19.4 70.96,-23.56 71.91,-18.3 72.85,-17.78 73.8,-13.3 74.74,-34.91 75.69,-25 76.64,-19.66 77.58,-21.92 78.53,-24.78 79.48,-18.38 80.42,-20.64 81.37,-16.45 82.31,-33.37 83.26,-24.66 84.21,-24.13 85.15,-18.57 86.1,-27.08 87.04,-19.07 87.99,-18.81 88.94,-15.49 89.88,-30.62 90.83,-22.11 91.78,-19.92 92.72,-19.06 93.67,-20.34 94.61,-16.28 95.56,-15.82 96.51,-11.48 97.45,-30.2 98.4,-25.08 99.34,-21.31 100.29,-16.89 101.24,-18.17 102.18,-17.55 103.13,-18.59 104.07,-13.57 105.02,-29.45 105.97,-25.51 106.91,-17.4 107.86,-17.05 108.81,-21.43 109.75,-17.67 110.7,-20.16 111.64,-10.07 112.59,-27.67 113.54,-20.22 114.48,-18.9 115.43,-16.07 116.37,-21.58 117.32,-15.43 118.27,-11.17 119.21,-11.42 120.16,-31.49 " class="primitive"/>
            </g>
          </g>
        </g>
        <g stroke-width="0.3" fill="#000000" fill-opacity="0.000" class="geometry" id="img-ffc4acf7-96">
          <g class="color_RGB{Float64}(0.98704,0.57494,0.75486)" stroke-dasharray="none" stroke="#FC93C0" id="img-ffc4acf7-97">
            <g transform="translate(143.68,117.3)" id="img-ffc4acf7-98">
              <path fill="none" d="M-120.16,64.02 L-119.21,63.38 -118.27,61.02 -117.32,60.89 -116.37,59.83 -115.43,59.57 -114.48,50.39 -113.54,54.08 -112.59,52.72 -111.64,53.46 -110.7,40.26 -109.75,47.52 -108.81,46.13 -107.86,47.52 -106.91,31.12 -105.97,43.28 -105.02,41.65 -104.07,43.82 -103.13,25.59 -102.18,38.12 -101.24,36.63 -100.29,38.9 -99.34,20.26 -98.4,33.17 -97.45,31.89 -96.51,34.38 -95.56,14.24 -94.61,28.76 -93.67,27.8 -92.72,31.98 -91.78,10.49 -90.83,25.11 -89.88,23.53 -88.94,27.79 -87.99,6.95 -87.04,21.77 -86.1,21.93 -85.15,24.53 -84.21,4.79 -83.26,18.79 -82.31,18.39 -81.37,21.67 -80.42,2.36 -79.48,16.98 -78.53,15.75 -77.58,19.51 -76.64,1.84 -75.69,14.76 -74.74,13.66 -73.8,17.04 -72.85,-1.3 -71.91,12.24 -70.96,11.65 -70.01,17.08 -69.07,-3.3 -68.12,12.06 -67.18,10.4 -66.23,14.58 -65.28,-4.3 -64.34,10.36 -63.39,9.65 -62.44,13.67 -61.5,-5.09 -60.55,11.12 -59.61,8.17 -58.66,12.15 -57.71,-6.71 -56.77,9.94 -55.82,6.65 -54.88,10.98 -53.93,-6.25 -52.98,6.7 -52.04,8 -51.09,9.7 -50.15,-9.48 -49.2,5.17 -48.25,6.88 -47.31,8.7 -46.36,-8.63 -45.41,4.39 -44.47,5.7 -43.52,7.23 -42.58,-11.34 -41.63,2.68 -40.68,1.56 -39.74,6.64 -38.79,-12.37 -37.85,5.22 -36.9,1.24 -35.95,5.34 -35.01,-13.21 -34.06,0.92 -33.11,-0.05 -32.17,4.71 -31.22,-14.07 -30.28,1.52 -29.33,-1.52 -28.38,2.75 -27.44,-14.91 -26.49,-1.05 -25.55,-2.9 -24.6,2.14 -23.65,-15.69 -22.71,1.72 -21.76,-3 -20.81,4.4 -19.87,-16.38 -18.92,-2.7 -17.98,-4.12 -17.03,0.71 -16.08,-17.03 -15.14,-2.95 -14.19,-4.74 -13.25,-0.56 -12.3,-16.15 -11.35,-0.58 -10.41,-3.8 -9.46,-0.75 -8.52,-18.28 -7.57,-4.23 -6.62,-2.78 -5.68,-1.99 -4.73,-18.75 -3.78,-5.29 -2.84,-4.53 -1.89,-2.1 -0.95,-19.33 -0,-1.8 0.95,-7.92 1.89,-3.52 2.84,-18.28 3.78,-3.04 4.73,-4.53 5.68,2.25 6.62,-17.83 7.57,-4.09 8.52,-1.99 9.46,-2.58 10.41,-19.35 11.35,-4.84 12.3,-0.94 13.25,-4.78 14.19,-21.14 15.14,-7.79 16.08,-6.7 17.03,-5.68 17.98,-21.43 18.92,-8.78 19.87,-7.83 20.81,-5.74 21.76,-21.95 22.71,-8.7 23.65,-10.86 24.6,-2.44 25.55,-19.55 26.49,-9.67 27.44,-2.86 28.38,-6.76 29.33,-21.77 30.28,-1.1 31.22,-6.9 32.17,-3.26 33.11,-20.34 34.06,-10.38 35.01,-3.24 35.95,-6.78 36.9,-23.17 37.85,-4.97 38.79,-5.14 39.74,-1.79 40.68,-21.09 41.63,-10.32 42.58,-7.73 43.52,-7.86 44.47,-22.39 45.41,-8.32 46.36,-9.42 47.31,-9.39 48.25,-22.32 49.2,-11.93 50.15,-13.93 51.09,-8.63 52.04,-23.02 52.98,-11.26 53.93,-14.14 54.88,-9.49 55.82,-22.72 56.77,-12.08 57.71,-14.34 58.66,-8.94 59.61,-24.05 60.55,-10.2 61.5,-14.53 62.44,-9.92 63.39,-24.28 64.34,-12.57 65.28,-15.12 66.23,-5.35 67.18,-24.4 68.12,-10.2 69.07,-10.26 70.01,-10.64 70.96,-23.07 71.91,-8.75 72.85,-14.54 73.8,-9.79 74.74,-24.17 75.69,-12.45 76.64,-10.81 77.58,-10.93 78.53,-24.47 79.48,-8.85 80.42,-15.36 81.37,-10.62 82.31,-23.66 83.26,-12.71 84.21,-15.41 85.15,-8.32 86.1,-24.69 87.04,-8.87 87.99,-15.12 88.94,-10.88 89.88,-24.66 90.83,-13.38 91.78,-15.76 92.72,-11.73 93.67,-24.37 94.61,-13.97 95.56,-15.7 96.51,-6.97 97.45,-24.53 98.4,-13.73 99.34,-15.91 100.29,-7.29 101.24,-23.12 102.18,-13.9 103.13,-16.25 104.07,-11.35 105.02,-24.63 105.97,-13.93 106.91,-14.17 107.86,-11.82 108.81,-23.53 109.75,-9.86 110.7,-14.05 111.64,-10.96 112.59,-24.26 113.54,-12.38 114.48,-12.91 115.43,-9.43 116.37,-18.67 117.32,-8.23 118.27,-7.67 119.21,-9.44 120.16,-19.68 " class="primitive"/>
            </g>
          </g>
        </g>
        <g stroke-width="0.3" fill="#000000" fill-opacity="0.000" class="geometry" id="img-ffc4acf7-99">
          <g class="color_RGB{Float64}(0.9360050000000001,0.3313625,0.949375)" stroke-dasharray="none" stroke="#EF54F2" id="img-ffc4acf7-100">
            <g transform="translate(143.68,122.76)" id="img-ffc4acf7-101">
              <path fill="none" d="M-120.16,58.02 L-119.21,57.1 -118.27,51.29 -117.32,52.73 -116.37,52.5 -115.43,52.45 -114.48,40.38 -113.54,45.72 -112.59,47.39 -111.64,48.65 -110.7,27.72 -109.75,39.88 -108.81,43.16 -107.86,45.72 -106.91,21.11 -105.97,34.49 -105.02,39.88 -104.07,42.7 -103.13,15.06 -102.18,30.24 -101.24,36.47 -100.29,40.08 -99.34,10.77 -98.4,27.1 -97.45,33.62 -96.51,37.55 -95.56,6.11 -94.61,23.86 -93.67,31.27 -92.72,35.78 -91.78,3.49 -90.83,20.27 -89.88,27.88 -88.94,33.69 -87.99,0.93 -87.04,18.44 -86.1,26.9 -85.15,31.61 -84.21,-0.79 -83.26,17.64 -82.31,24.54 -81.37,29.74 -80.42,-2.85 -79.48,14 -78.53,22.34 -77.58,28.55 -76.64,-3.39 -75.69,11.97 -74.74,20.32 -73.8,26.08 -72.85,-7.26 -71.91,9.38 -70.96,18.28 -70.01,25.07 -69.07,-9.31 -68.12,8.46 -67.18,16.55 -66.23,23.2 -65.28,-10.36 -64.34,7.68 -63.39,15.48 -62.44,22.3 -61.5,-11.32 -60.55,9.23 -59.61,13.98 -58.66,20.97 -57.71,-13.38 -56.77,7.65 -55.82,12.99 -54.88,19.94 -53.93,-14.34 -52.98,3.79 -52.04,13.7 -51.09,18.75 -50.15,-15.35 -49.2,2.9 -48.25,11.85 -47.31,17.84 -46.36,-14.88 -45.41,1.77 -44.47,11.32 -43.52,16.38 -42.58,-17.33 -41.63,0.37 -40.68,7.95 -39.74,15.48 -38.79,-18.25 -37.85,3.1 -36.9,7.03 -35.95,14.47 -35.01,-19.46 -34.06,-1.36 -33.11,6.25 -32.17,13.7 -31.22,-20.04 -30.28,-0.53 -29.33,6.14 -28.38,12.44 -27.44,-20.93 -26.49,-3.14 -25.55,4.01 -24.6,11.62 -23.65,-21.57 -22.71,-0.08 -21.76,3.09 -20.81,10.67 -19.87,-22.12 -18.92,-4.9 -17.98,2.37 -17.03,9.94 -16.08,-22.9 -15.14,-5.49 -14.19,1.19 -13.25,8.71 -12.3,-23.5 -11.35,-2.54 -10.41,2.02 -9.46,8.14 -8.52,-23.97 -7.57,-6.77 -6.62,2.52 -5.68,7.13 -4.73,-24.46 -3.78,-7.58 -2.84,1.04 -1.89,7.79 -0.95,-23.56 -0,-3.75 0.95,0.09 1.89,5.61 2.84,-25.62 3.78,-2.71 4.73,2.21 5.68,7.82 6.62,-25.84 7.57,-4.41 8.52,-1.61 9.46,5.72 10.41,-25.1 11.35,-10.07 12.3,0.93 13.25,3.89 14.19,-26.85 15.14,-10.41 16.08,-4.9 17.03,4.63 17.98,-25.31 18.92,-11.21 19.87,-0.58 20.81,4.67 21.76,-27.33 22.71,-8.83 23.65,-5.74 24.6,3.44 25.55,-26 26.49,-12.08 27.44,-0.65 28.38,2.63 29.33,-27.81 30.28,-7.57 31.22,-3.36 32.17,2.56 33.11,-27.28 34.06,-11.13 35.01,-1.28 35.95,0.94 36.9,-28.77 37.85,-9.99 38.79,-3.59 39.74,0.54 40.68,-27.23 41.63,-12.93 42.58,-3.89 43.52,-0.14 44.47,-28.06 45.41,-13.45 46.36,-5.53 47.31,-1.55 48.25,-29.24 49.2,-14.62 50.15,-9.24 51.09,-1.34 52.04,-28.98 52.98,-14.16 53.93,-9.86 54.88,-0.68 55.82,-29.65 56.77,-14.89 57.71,-9.91 58.66,-1.92 59.61,-29.79 60.55,-12.35 61.5,-10.54 62.44,-2.77 63.39,-29.89 64.34,-15.36 65.28,-10.71 66.23,0.53 67.18,-29.94 68.12,-13.02 69.07,-7.01 70.01,-3.71 70.96,-29.03 71.91,-11.25 72.85,-10.76 73.8,-3.22 74.74,-29.67 75.69,-15.75 76.64,-11.68 77.58,-4.35 78.53,-30.06 79.48,-11.44 80.42,-11.57 81.37,-4.42 82.31,-29.67 83.26,-15.95 84.21,-12.06 85.15,-2.72 86.1,-30.4 87.04,-11.48 87.99,-7.92 88.94,-4.86 89.88,-30.19 90.83,-16.58 91.78,-12.63 92.72,-5.49 93.67,-30.12 94.61,-16.72 95.56,-12.39 96.51,-2.07 97.45,-30.3 98.4,-17.08 99.34,-13.1 100.29,-6.2 101.24,-28.96 102.18,-17.13 103.13,-13.07 104.07,-5.88 105.02,-30.47 105.97,-17.45 106.91,-12.41 107.86,-6.46 108.81,-29.86 109.75,-12.7 110.7,-12.24 111.64,-6.1 112.59,-30.33 113.54,-16.32 114.48,-11.66 115.43,-6.09 116.37,-30.4 117.32,-16.78 118.27,-12.22 119.21,-5.86 120.16,-30.68 " class="primitive"/>
            </g>
          </g>
        </g>
        <g stroke-width="0.3" fill="#000000" fill-opacity="0.000" class="geometry" id="img-ffc4acf7-102">
          <g class="color_RGB{Float64}(0.7018800000000001,0.25504499999999997,0.9848349999999999)" stroke-dasharray="none" stroke="#B341FB" id="img-ffc4acf7-103">
            <g transform="translate(143.68,157.45)" id="img-ffc4acf7-104">
              <path fill="none" d="M-120.16,23.27 L-119.21,22.04 -118.27,20.82 -117.32,20.17 -116.37,19.72 -115.43,19.02 -114.48,18.29 -113.54,18.43 -112.59,18.3 -111.64,18.59 -110.7,16.94 -109.75,17.11 -108.81,17.25 -107.86,17.41 -106.91,11.62 -105.97,13.75 -105.02,14.37 -104.07,14.98 -103.13,13.42 -102.18,14 -101.24,14.41 -100.29,14.45 -99.34,8.67 -98.4,10.65 -97.45,11.6 -96.51,11.93 -95.56,10.12 -94.61,11.03 -93.67,11.72 -92.72,12.29 -91.78,5.12 -90.83,8.28 -89.88,9.08 -88.94,9.91 -87.99,7.72 -87.04,9.35 -86.1,9.9 -85.15,10.6 -84.21,1.47 -83.26,5.81 -82.31,7.06 -81.37,7.84 -80.42,5.85 -79.48,7.71 -78.53,8.05 -77.58,8.9 -76.64,-0.38 -75.69,4.14 -74.74,6.38 -73.8,6.41 -72.85,4.45 -71.91,5.87 -70.96,6.98 -70.01,7.83 -69.07,-0.79 -68.12,2.46 -67.18,3.85 -66.23,5.16 -65.28,2.75 -64.34,4.34 -63.39,5.03 -62.44,6.07 -61.5,-10.47 -60.55,-1.14 -59.61,-0.8 -58.66,1.45 -57.71,-2.03 -56.77,2.24 -55.82,1.4 -54.88,3.6 -53.93,-9.69 -52.98,-1.49 -52.04,0.14 -51.09,0.91 -50.15,-3.11 -49.2,0.81 -48.25,1.85 -47.31,2.54 -46.36,-8.73 -45.41,-1.07 -44.47,0.24 -43.52,0.72 -42.58,-3.26 -41.63,0.54 -40.68,0.76 -39.74,2.85 -38.79,-11.22 -37.85,-1.38 -36.9,-1.16 -35.95,0.3 -35.01,-1.9 -34.06,-0.01 -33.11,0.31 -32.17,2.22 -31.22,-11.9 -30.28,-1.59 -29.33,-0.92 -28.38,0.2 -27.44,-4.29 -26.49,-0.2 -25.55,0.47 -24.6,2.1 -23.65,-12.32 -22.71,-1.49 -21.76,-1.72 -20.81,0.02 -19.87,-4.56 -18.92,-0.42 -17.98,-0.24 -17.03,1.71 -16.08,-13.02 -15.14,-2.13 -14.19,-1.76 -13.25,-0.4 -12.3,-4.53 -11.35,0.53 -10.41,0.07 -9.46,1.5 -8.52,-12.18 -7.57,-2.09 -6.62,-1.59 -5.68,-1.5 -4.73,-4.97 -3.78,-0.51 -2.84,-0.56 -1.89,1.26 -0.95,-16.77 -0,-0.47 0.95,-1.6 1.89,0.75 2.84,-6.01 3.78,0.72 4.73,0.38 5.68,1.46 6.62,-16.13 7.57,-0.56 8.52,-1.53 9.46,0.32 10.41,-3.93 11.35,-0.11 12.3,0.14 13.25,0.9 14.19,-17.19 15.14,-0.69 16.08,-1.69 17.03,0.26 17.98,-6.05 18.92,-0.09 19.87,-0.2 20.81,1.32 21.76,-17.17 22.71,-0.7 23.65,-1.84 24.6,0.04 25.55,-6.31 26.49,-0.13 27.44,-0.65 28.38,1.15 29.33,-16.01 30.28,-0.81 31.22,-1.77 32.17,-0.02 33.11,-5.86 34.06,-0.31 35.01,-0.05 35.95,0.73 36.9,-17.55 37.85,-0.8 38.79,-1.27 39.74,-0.16 40.68,-6 41.63,-0.2 42.58,-0.18 43.52,0.52 44.47,-14.95 45.41,-0.97 46.36,-1.94 47.31,-0.29 48.25,-5.7 49.2,-0.33 50.15,-1.21 51.09,0.53 52.04,-16.47 52.98,-1.12 53.93,-2 54.88,-0.03 55.82,-6.05 56.77,-0.49 57.71,-1.38 58.66,0.44 59.61,-18.94 60.55,-2.4 61.5,-3.78 62.44,-2 63.39,-8.05 64.34,-2.12 65.28,-3.4 66.23,-1 67.18,-19.74 68.12,-2.75 69.07,-3.71 70.01,-2.1 70.96,-6.51 71.91,-1.85 72.85,-3.36 73.8,-1.35 74.74,-19.68 75.69,-2.62 76.64,-3.74 77.58,-2.16 78.53,-7.45 79.48,-1.85 80.42,-3.36 81.37,-1.66 82.31,-18.48 83.26,-2.79 84.21,-3.63 85.15,-1.75 86.1,-7.24 87.04,-1.93 87.99,-2.23 88.94,-1.46 89.88,-20.18 90.83,-2.78 91.78,-3.72 92.72,-2.1 93.67,-7.08 94.61,-2.1 95.56,-3.06 96.51,-1.16 97.45,-20.13 98.4,-2.39 99.34,-3.7 100.29,-2.06 101.24,-7.02 102.18,-2.13 103.13,-3.21 104.07,-1.5 105.02,-20.28 105.97,-2.67 106.91,-3.8 107.86,-2.12 108.81,-7 109.75,-2 110.7,-3.29 111.64,-1.53 112.59,-18.2 113.54,-2.84 114.48,-3.74 115.43,-2.14 116.37,-6.26 117.32,-2.34 118.27,-3.28 119.21,-1.51 120.16,-21.52 " class="primitive"/>
            </g>
          </g>
        </g>
        <g stroke-width="0.3" fill="#000000" fill-opacity="0.000" class="geometry" id="img-ffc4acf7-105">
          <g class="color_RGB{Float64}(0.45187999999999995,0.172285,0.9716199999999999)" stroke-dasharray="none" stroke="#732CF8" id="img-ffc4acf7-106">
            <g transform="translate(143.68,163.18)" id="img-ffc4acf7-107">
              <path fill="none" d="M-120.16,16.88 L-119.21,15.42 -118.27,15.26 -117.32,14.76 -116.37,14.61 -115.43,12.39 -114.48,11.84 -113.54,11.58 -112.59,12.47 -111.64,11.94 -110.7,11.79 -109.75,11.65 -108.81,11.27 -107.86,11.24 -106.91,11.26 -105.97,11.73 -105.02,11.62 -104.07,14.04 -103.13,14.4 -102.18,13.77 -101.24,11.99 -100.29,12.1 -99.34,12.26 -98.4,13.83 -97.45,12.22 -96.51,11.98 -95.56,11.91 -94.61,12.01 -93.67,12.35 -92.72,13.28 -91.78,-7.23 -90.83,-2.04 -89.88,-0.93 -88.94,0.75 -87.99,0.05 -87.04,2.1 -86.1,3.08 -85.15,3.46 -84.21,3.32 -83.26,5.12 -82.31,5.51 -81.37,6.07 -80.42,6.25 -79.48,7.01 -78.53,7.05 -77.58,7.65 -76.64,7.14 -75.69,7.99 -74.74,8.6 -73.8,8.83 -72.85,9.01 -71.91,9.49 -70.96,9.82 -70.01,10.06 -69.07,9.87 -68.12,10.51 -67.18,10.58 -66.23,10.7 -65.28,10.64 -64.34,10.96 -63.39,11.01 -62.44,11.21 -61.5,-22.02 -60.55,-11.39 -59.61,-10.46 -58.66,-7.41 -57.71,-7.15 -56.77,-4.61 -55.82,-3.7 -54.88,-3.25 -53.93,-4.77 -52.98,-2.01 -52.04,-1.28 -51.09,-0.15 -50.15,0.21 -49.2,1.74 -48.25,2.76 -47.31,3.1 -46.36,2.91 -45.41,4.42 -44.47,5.37 -43.52,5.17 -42.58,5.55 -41.63,5.79 -40.68,6.15 -39.74,6.47 -38.79,5.57 -37.85,6.85 -36.9,6.99 -35.95,7.29 -35.01,7.33 -34.06,7.61 -33.11,7.66 -32.17,7.95 -31.22,-21.22 -30.28,-9.63 -29.33,-9.47 -28.38,-7.68 -27.44,-8.22 -26.49,-5.23 -25.55,-4.53 -24.6,-3.37 -23.65,-6.16 -22.71,-3.09 -21.76,-2.5 -20.81,-1.57 -19.87,-0.91 -18.92,-0.24 -17.98,0.35 -17.03,1.11 -16.08,-0.73 -15.14,1.82 -14.19,2.12 -13.25,2.87 -12.3,2.63 -11.35,3.41 -10.41,3.55 -9.46,3.97 -8.52,2.67 -7.57,4.46 -6.62,4.7 -5.68,4.91 -4.73,4.83 -3.78,5.37 -2.84,5.52 -1.89,5.83 -0.95,-28.2 -0,-7.36 0.95,-8.5 1.89,-6.56 2.84,-10.76 3.78,-5.53 4.73,-5.82 5.68,-4.49 6.62,-12.27 7.57,-3.55 8.52,-2.88 9.46,-1.98 10.41,-1.86 11.35,-1.03 12.3,-1 13.25,-0.87 14.19,-5.36 15.14,-0.45 16.08,1.44 17.03,0.35 17.98,0.29 18.92,1.08 19.87,1.26 20.81,2 21.76,-0.98 22.71,2.27 23.65,2.39 24.6,2.85 25.55,2.7 26.49,3.26 27.44,3.54 28.38,3.94 29.33,-25.54 30.28,-7.51 31.22,-8.65 32.17,-6.92 33.11,-9.56 34.06,-6.09 35.01,-6.04 35.95,-4.93 36.9,-12.86 37.85,-4.25 38.79,-4.08 39.74,-3.21 40.68,-3.72 41.63,-2.28 42.58,-2.22 43.52,-1.6 44.47,-7.26 45.41,-0.88 46.36,-0.73 47.31,-1.29 48.25,-1.52 49.2,-0.52 50.15,-0.35 51.09,0.07 52.04,-2.94 52.98,0.72 53.93,0.99 54.88,1.26 55.82,1.07 56.77,1.93 57.71,2.01 58.66,2.5 59.61,-28.6 60.55,-9.97 61.5,-11.38 62.44,-9.4 63.39,-12.67 64.34,-8.57 65.28,-9.29 66.23,-7.67 67.18,-16.3 68.12,-6.9 69.07,-7.07 70.01,-5.5 70.96,-5.59 71.91,-4.3 72.85,-4.9 73.8,-3.98 74.74,-10.47 75.69,-1.95 76.64,-3.08 77.58,-2.51 78.53,-2.54 79.48,-1.13 80.42,-1.62 81.37,-0.86 82.31,-4.9 83.26,-0.9 84.21,-0.24 85.15,-0.25 86.1,0.13 87.04,0.74 87.99,0.66 88.94,1.64 89.88,-27.29 90.83,-9.03 91.78,-10 92.72,-8.36 93.67,-11.78 94.61,-7.63 95.56,-8.22 96.51,-7.03 97.45,-16.13 98.4,-6.21 99.34,-6.74 100.29,-5.88 101.24,-6.6 102.18,-5.1 103.13,-5.22 104.07,-4.46 105.02,-10.18 105.97,-3.67 106.91,-3.55 107.86,-2.96 108.81,-3.33 109.75,-1.92 110.7,-2.17 111.64,-1.57 112.59,-4.3 113.54,-1.45 114.48,-1.86 115.43,-1.33 116.37,-1.04 117.32,-0.54 118.27,-0.35 119.21,0.17 120.16,-30.19 " class="primitive"/>
            </g>
          </g>
        </g>
        <g stroke-width="0.3" fill="#000000" fill-opacity="0.000" class="geometry" id="img-ffc4acf7-108">
          <g class="color_RGB{Float64}(1.0,0.0,0.0)" stroke-dasharray="none" stroke="#FF0000" id="img-ffc4acf7-109">
            <g transform="translate(143.68,163.05)" id="img-ffc4acf7-110">
              <path fill="none" d="M-120.16,16.92 L-119.21,15.77 -118.27,14.62 -117.32,14.51 -116.37,14.96 -115.43,14.56 -114.48,14.21 -113.54,11.67 -112.59,13.48 -111.64,13.17 -110.7,11.98 -109.75,11.82 -108.81,12.88 -107.86,13.63 -106.91,11.7 -105.97,13.39 -105.02,12.36 -104.07,13.39 -103.13,12.4 -102.18,12.4 -101.24,12.45 -100.29,12.6 -99.34,12.36 -98.4,13.17 -97.45,12.86 -96.51,12.82 -95.56,12.23 -94.61,12.33 -93.67,12.51 -92.72,12.67 -91.78,-9.86 -90.83,-4.1 -89.88,-2.1 -88.94,-0.72 -87.99,-1.12 -87.04,0.44 -86.1,1.35 -85.15,2.28 -84.21,1.62 -83.26,3.93 -82.31,4.52 -81.37,5.16 -80.42,5.23 -79.48,6.18 -78.53,6.56 -77.58,7.23 -76.64,6.56 -75.69,7.52 -74.74,8.16 -73.8,7.95 -72.85,8.02 -71.91,8.44 -70.96,8.89 -70.01,9.4 -69.07,9 -68.12,9.8 -67.18,10.02 -66.23,10.27 -65.28,10.43 -64.34,10.69 -63.39,10.76 -62.44,11.65 -61.5,-20.69 -60.55,-9.99 -59.61,-7.97 -58.66,-5.43 -57.71,-6.09 -56.77,-2.93 -55.82,-2.33 -54.88,-0.82 -53.93,1.04 -52.98,-1.4 -52.04,-0.5 -51.09,0.33 -50.15,0.2 -49.2,1.82 -48.25,2.05 -47.31,2.89 -46.36,3.32 -45.41,4.09 -44.47,6.63 -43.52,5.22 -42.58,5.58 -41.63,5.96 -40.68,6.32 -39.74,6.76 -38.79,7.03 -37.85,7.11 -36.9,7.41 -35.95,7.39 -35.01,7.85 -34.06,7.93 -33.11,8 -32.17,8.29 -31.22,-23.05 -30.28,-8.71 -29.33,-9.06 -28.38,-7.11 -27.44,-10.56 -26.49,-2.96 -25.55,-5.28 -24.6,-3.95 -23.65,-9.82 -22.71,-3.87 -21.76,-3.79 -20.81,-1.74 -19.87,-2.52 -18.92,-1.17 -17.98,0.6 -17.03,0.49 -16.08,-0.91 -15.14,1.48 -14.19,2.62 -13.25,2.6 -12.3,2.48 -11.35,3.39 -10.41,3.57 -9.46,4.88 -8.52,2.56 -7.57,4.55 -6.62,4.94 -5.68,4.96 -4.73,4.97 -3.78,6.27 -2.84,5.9 -1.89,5.77 -0.95,-28.09 -0,-8.83 0.95,-9.73 1.89,-7.74 2.84,-11.15 3.78,-6.36 4.73,-6.6 5.68,-5.21 6.62,-11.29 7.57,-4.02 8.52,-4.02 9.46,-2.82 10.41,-3.38 11.35,-1.59 12.3,-2.64 13.25,-1.39 14.19,-4.7 15.14,-0.8 16.08,-0.47 17.03,0.08 17.98,0.43 18.92,1.06 19.87,1.27 20.81,2.26 21.76,-0.5 22.71,2.28 23.65,2.43 24.6,2.79 25.55,2.73 26.49,3.32 27.44,3.64 28.38,5.3 29.33,-26.66 30.28,-8.78 31.22,-10.07 32.17,-7.74 33.11,-11.9 34.06,-7.02 35.01,-7.39 35.95,-5.81 36.9,-12.89 37.85,-4.91 38.79,-5.01 39.74,-3.96 40.68,-4.41 41.63,-2.95 42.58,-2.11 43.52,-2.2 44.47,-7.73 45.41,-1.17 46.36,-0.63 47.31,-0.38 48.25,-1.57 49.2,-0.1 50.15,-0.33 51.09,-0.07 52.04,-3.17 52.98,0.4 53.93,0.63 54.88,0.94 55.82,0.92 56.77,1.61 57.71,1.66 58.66,2.12 59.61,-29.08 60.55,-8.39 61.5,-9.72 62.44,-7.55 63.39,-11.99 64.34,-6.92 65.28,-7.88 66.23,-6.16 67.18,-15.78 68.12,-5.47 69.07,-5.9 70.01,-4.9 70.96,-5.4 71.91,-3.37 72.85,-3.92 73.8,-3.02 74.74,-10.1 75.69,-2.42 76.64,-2.34 77.58,-1.86 78.53,-1.68 79.48,-1.13 80.42,-0.95 81.37,-0.44 82.31,-4.7 83.26,-0.26 84.21,0.15 85.15,0.24 86.1,0.56 87.04,1.41 87.99,2.37 88.94,1.25 89.88,-29.74 90.83,-8.27 91.78,-9.51 92.72,-7.65 93.67,-12.12 94.61,-6.88 95.56,-7.91 96.51,-6.45 97.45,-17.86 98.4,-5.61 99.34,-6.04 100.29,-5.25 101.24,-6.83 102.18,-4.69 103.13,-4.97 104.07,-4.19 105.02,-11.26 105.97,-3.47 106.91,-3.55 107.86,-2.95 108.81,-3.32 109.75,-2.08 110.7,-2.28 111.64,-1.68 112.59,-5.42 113.54,-1 114.48,-0.84 115.43,-0.54 116.37,-0.46 117.32,0.01 118.27,0.26 119.21,-0.01 120.16,-30.19 " class="primitive"/>
            </g>
          </g>
        </g>
        <g stroke-width="0.3" fill="#000000" fill-opacity="0.000" class="geometry" id="img-ffc4acf7-111">
          <g class="color_RGB{Float64}(0.0,0.0,0.0)" stroke-dasharray="none" stroke="#000000" id="img-ffc4acf7-112">
            <g transform="translate(143.68,80.09)" id="img-ffc4acf7-113">
              <path fill="none" d="M-120.16,99.33 L-119.21,98.04 -118.27,90.13 -117.32,87.73 -116.37,87.53 -115.43,79.05 -114.48,78.18 -113.54,76.17 -112.59,69.42 -111.64,69.43 -110.7,62.37 -109.75,62.29 -108.81,53.51 -107.86,52.28 -106.91,47.05 -105.97,53.17 -105.02,49.5 -104.07,45.45 -103.13,40.79 -102.18,42.66 -101.24,37.31 -100.29,35.38 -99.34,23.14 -98.4,36.54 -97.45,35.87 -96.51,32.22 -95.56,27.85 -94.61,25.56 -93.67,22.87 -92.72,24.22 -91.78,12.28 -90.83,26.63 -89.88,21.86 -88.94,21.47 -87.99,18.09 -87.04,18.01 -86.1,15.27 -85.15,12.51 -84.21,1.67 -83.26,19.24 -82.31,15.4 -81.37,14.47 -80.42,7.95 -79.48,9.27 -78.53,8.16 -77.58,6.1 -76.64,-7.4 -75.69,9.83 -74.74,6.58 -73.8,9.62 -72.85,3.15 -71.91,6.1 -70.96,1.51 -70.01,2.15 -69.07,-12.91 -68.12,9.09 -67.18,6.55 -66.23,6.64 -65.28,1.16 -64.34,10.25 -63.39,6.72 -62.44,9.68 -61.5,-15.07 -60.55,16.54 -59.61,12.04 -58.66,14.05 -57.71,4.76 -56.77,10.35 -55.82,6.34 -54.88,11.32 -53.93,-20.09 -52.98,11.97 -52.04,6.87 -51.09,9.58 -50.15,2.35 -49.2,9.47 -48.25,5.2 -47.31,7 -46.36,-25.64 -45.41,11.54 -44.47,10.62 -43.52,8.15 -42.58,-3.39 -41.63,5.43 -40.68,3.91 -39.74,5.61 -38.79,-28.86 -37.85,6.5 -36.9,1.89 -35.95,8.37 -35.01,-4.42 -34.06,5.6 -33.11,-0.22 -32.17,2.38 -31.22,-28.72 -30.28,6.88 -29.33,2.12 -28.38,3.65 -27.44,-7.54 -26.49,4.57 -25.55,-1.48 -24.6,2.05 -23.65,-37.28 -22.71,2.65 -21.76,0.63 -20.81,3.17 -19.87,-8.52 -18.92,0.62 -17.98,-4.54 -17.03,1.76 -16.08,-38.11 -15.14,2.45 -14.19,-3.27 -13.25,-0.21 -12.3,-9.68 -11.35,0.81 -10.41,-4.23 -9.46,-1.61 -8.52,-42.74 -7.57,2.14 -6.62,-3.23 -5.68,0.11 -4.73,-13.12 -3.78,-2.1 -2.84,1.64 -1.89,-0.13 -0.95,-38.84 -0,0.12 0.95,-5.09 1.89,0.22 2.84,-13.27 3.78,-1.85 4.73,-7.76 5.68,-4.23 6.62,-45.39 7.57,-0.07 8.52,-5.73 9.46,-2.79 10.41,-7.9 11.35,-1.87 12.3,-8.24 13.25,-3.69 14.19,-47.76 15.14,-3.25 16.08,-5.91 17.03,-2.53 17.98,-15.78 18.92,-4.51 19.87,-9.99 20.81,1.1 21.76,-49.87 22.71,-2.9 23.65,-8.56 24.6,-4.99 25.55,-16.14 26.49,-4.2 27.44,-9.17 28.38,-5.84 29.33,-47.08 30.28,-2.37 31.22,-8.06 32.17,-4.31 33.11,-19.05 34.06,-6.44 35.01,-9.41 35.95,-5.51 36.9,-53.08 37.85,-4.16 38.79,-8.93 39.74,-2.72 40.68,-17.69 41.63,-4.71 42.58,-9.64 43.52,-6.97 44.47,-53.2 45.41,-4.26 46.36,-10.06 47.31,-6.59 48.25,-20.34 49.2,-5.36 50.15,-11.41 51.09,-6.84 52.04,-55.41 52.98,-6.17 53.93,-9.93 54.88,-5.49 55.82,-19.61 56.77,-7.08 57.71,-12.84 58.66,-6.02 59.61,-49.21 60.55,-5.4 61.5,-11.43 62.44,-7.36 63.39,-19.37 64.34,-6.91 65.28,-12.64 66.23,-8.19 67.18,-57.1 68.12,-5.74 69.07,-10.44 70.01,-7.16 70.96,-21.28 71.91,-9.22 72.85,-11.72 73.8,-7.42 74.74,-55.11 75.69,-7.02 76.64,-12.63 77.58,-6.32 78.53,-20.93 79.48,-7.72 80.42,-13.67 81.37,-4.34 82.31,-56.23 83.26,-6.64 84.21,-11.94 85.15,-7.87 86.1,-21.72 87.04,-1.73 87.99,-12.58 88.94,-8.15 89.88,-50.65 90.83,-7.59 91.78,-10.97 92.72,-7.3 93.67,-21.01 94.61,-8.57 95.56,-13.93 96.51,-7.88 97.45,-57.16 98.4,-7.46 99.34,-9.41 100.29,-8.58 101.24,-20.82 102.18,-7.75 103.13,-13.16 104.07,-9.45 105.02,-57.35 105.97,-6.61 106.91,-11.99 107.86,-7.66 108.81,-22.8 109.75,-9.41 110.7,-13.03 111.64,-8.73 112.59,-54.31 113.54,-8.34 114.48,-13.16 115.43,-7.19 116.37,-21.95 117.32,-7.53 118.27,-12.25 119.21,-6.38 120.16,-48.09 " class="primitive"/>
            </g>
          </g>
        </g>
      </g>
    </g>
  </g>
  <g class="guide ylabels" font-size="2.82" font-family="'PT Sans Caption','Helvetica Neue','Helvetica',sans-serif" fill="#6C606B" id="img-ffc4acf7-114">
    <g transform="translate(18.63,181.92)" id="img-ffc4acf7-115">
      <g class="primitive">
        <text text-anchor="end" dy="0.35em">0</text>
      </g>
    </g>
    <g transform="translate(18.63,166.23)" id="img-ffc4acf7-116">
      <g class="primitive">
        <text text-anchor="end" dy="0.35em">10</text>
      </g>
    </g>
    <g transform="translate(18.63,150.55)" id="img-ffc4acf7-117">
      <g class="primitive">
        <text text-anchor="end" dy="0.35em">20</text>
      </g>
    </g>
    <g transform="translate(18.63,134.87)" id="img-ffc4acf7-118">
      <g class="primitive">
        <text text-anchor="end" dy="0.35em">30</text>
      </g>
    </g>
    <g transform="translate(18.63,119.19)" id="img-ffc4acf7-119">
      <g class="primitive">
        <text text-anchor="end" dy="0.35em">40</text>
      </g>
    </g>
    <g transform="translate(18.63,103.51)" id="img-ffc4acf7-120">
      <g class="primitive">
        <text text-anchor="end" dy="0.35em">50</text>
      </g>
    </g>
    <g transform="translate(18.63,87.83)" id="img-ffc4acf7-121">
      <g class="primitive">
        <text text-anchor="end" dy="0.35em">60</text>
      </g>
    </g>
    <g transform="translate(18.63,72.15)" id="img-ffc4acf7-122">
      <g class="primitive">
        <text text-anchor="end" dy="0.35em">70</text>
      </g>
    </g>
    <g transform="translate(18.63,56.47)" id="img-ffc4acf7-123">
      <g class="primitive">
        <text text-anchor="end" dy="0.35em">80</text>
      </g>
    </g>
    <g transform="translate(18.63,40.79)" id="img-ffc4acf7-124">
      <g class="primitive">
        <text text-anchor="end" dy="0.35em">90</text>
      </g>
    </g>
    <g transform="translate(18.63,25.11)" id="img-ffc4acf7-125">
      <g class="primitive">
        <text text-anchor="end" dy="0.35em">100</text>
      </g>
    </g>
    <g transform="translate(18.63,9.43)" id="img-ffc4acf7-126">
      <g class="primitive">
        <text text-anchor="end" dy="0.35em">110</text>
      </g>
    </g>
  </g>
  <g font-size="3.88" font-family="'PT Sans','Helvetica Neue','Helvetica',sans-serif" fill="#564A55" stroke="#000000" stroke-opacity="0.000" id="img-ffc4acf7-127">
    <g transform="translate(8.81,92.46)" id="img-ffc4acf7-128">
      <g class="primitive">
        <text text-anchor="middle" dy="0.35em" transform="rotate(-90,0, 2)">GFLOPS</text>
      </g>
    </g>
  </g>
</g>
<defs>
  <clipPath id="img-ffc4acf7-45">
    <path d="M19.63,5 L269.63,5 269.63,183.92 19.63,183.92 " />
  </clipPath>
</defs>
</svg>
