<?xml version="1.0" encoding="UTF-8"?>
<svg xmlns="http://www.w3.org/2000/svg"
     xmlns:xlink="http://www.w3.org/1999/xlink"
     xmlns:gadfly="http://www.gadflyjl.org/ns"
     version="1.2"
     width="304.8mm" height="203.2mm" viewBox="0 0 304.8 203.2"
     stroke="none"
     fill="#000000"
     stroke-width="0.3"
     font-size="3.88"
>
<defs>
  <marker id="arrow" markerWidth="15" markerHeight="7" refX="5" refY="3.5" orient="auto" markerUnits="strokeWidth">
    <path d="M0,0 L15,3.5 L0,7 z" stroke="context-stroke" fill="context-stroke"/>
  </marker>
</defs>
<g class="plotroot xscalable yscalable" id="img-0192ae67-1">
  <g font-size="3.88" font-family="'PT Sans','Helvetica Neue','Helvetica',sans-serif" fill="#564A55" stroke="#000000" stroke-opacity="0.000" id="img-0192ae67-2">
    <g transform="translate(143.79,191.59)">
      <g class="primitive">
        <text text-anchor="middle" dy="0.6em">Size</text>
      </g>
    </g>
  </g>
  <g class="guide xlabels" font-size="2.82" font-family="'PT Sans Caption','Helvetica Neue','Helvetica',sans-serif" fill="#6C606B" id="img-0192ae67-3">
    <g transform="translate(19.96,184.92)">
      <g class="primitive">
        <text text-anchor="middle" dy="0.6em">0</text>
      </g>
    </g>
    <g transform="translate(39.01,184.92)">
      <g class="primitive">
        <text text-anchor="middle" dy="0.6em">20</text>
      </g>
    </g>
    <g transform="translate(58.06,184.92)">
      <g class="primitive">
        <text text-anchor="middle" dy="0.6em">40</text>
      </g>
    </g>
    <g transform="translate(77.11,184.92)">
      <g class="primitive">
        <text text-anchor="middle" dy="0.6em">60</text>
      </g>
    </g>
    <g transform="translate(96.16,184.92)">
      <g class="primitive">
        <text text-anchor="middle" dy="0.6em">80</text>
      </g>
    </g>
    <g transform="translate(115.22,184.92)">
      <g class="primitive">
        <text text-anchor="middle" dy="0.6em">100</text>
      </g>
    </g>
    <g transform="translate(134.27,184.92)">
      <g class="primitive">
        <text text-anchor="middle" dy="0.6em">120</text>
      </g>
    </g>
    <g transform="translate(153.32,184.92)">
      <g class="primitive">
        <text text-anchor="middle" dy="0.6em">140</text>
      </g>
    </g>
    <g transform="translate(172.37,184.92)">
      <g class="primitive">
        <text text-anchor="middle" dy="0.6em">160</text>
      </g>
    </g>
    <g transform="translate(191.42,184.92)">
      <g class="primitive">
        <text text-anchor="middle" dy="0.6em">180</text>
      </g>
    </g>
    <g transform="translate(210.47,184.92)">
      <g class="primitive">
        <text text-anchor="middle" dy="0.6em">200</text>
      </g>
    </g>
    <g transform="translate(229.52,184.92)">
      <g class="primitive">
        <text text-anchor="middle" dy="0.6em">220</text>
      </g>
    </g>
    <g transform="translate(248.58,184.92)">
      <g class="primitive">
        <text text-anchor="middle" dy="0.6em">240</text>
      </g>
    </g>
    <g transform="translate(267.63,184.92)">
      <g class="primitive">
        <text text-anchor="middle" dy="0.6em">260</text>
      </g>
    </g>
  </g>
  <g class="guide colorkey" id="img-0192ae67-4">
    <g fill="#4C404B" font-size="2.82" font-family="'PT Sans','Helvetica Neue','Helvetica',sans-serif" id="img-0192ae67-5">
      <g transform="translate(274.25,77.07)" id="img-0192ae67-6">
        <g class="primitive">
          <text dy="0.35em">LoopVectorization</text>
        </g>
      </g>
      <g transform="translate(274.25,80.69)" id="img-0192ae67-7">
        <g class="primitive">
          <text dy="0.35em">Julia</text>
        </g>
      </g>
      <g transform="translate(274.25,84.32)" id="img-0192ae67-8">
        <g class="primitive">
          <text dy="0.35em">Clang</text>
        </g>
      </g>
      <g transform="translate(274.25,87.95)" id="img-0192ae67-9">
        <g class="primitive">
          <text dy="0.35em">GFortran</text>
        </g>
      </g>
      <g transform="translate(274.25,91.57)" id="img-0192ae67-10">
        <g class="primitive">
          <text dy="0.35em">icc</text>
        </g>
      </g>
      <g transform="translate(274.25,95.2)" id="img-0192ae67-11">
        <g class="primitive">
          <text dy="0.35em">ifort</text>
        </g>
      </g>
      <g transform="translate(274.25,98.83)" id="img-0192ae67-12">
        <g class="primitive">
          <text dy="0.35em">g++ with Eigen-3</text>
        </g>
      </g>
      <g transform="translate(274.25,102.45)" id="img-0192ae67-13">
        <g class="primitive">
          <text dy="0.35em">clang++ with Eigen-3</text>
        </g>
      </g>
      <g transform="translate(274.25,106.08)" id="img-0192ae67-14">
        <g class="primitive">
          <text dy="0.35em">GFortran-builtin</text>
        </g>
      </g>
      <g transform="translate(274.25,109.71)" id="img-0192ae67-15">
        <g class="primitive">
          <text dy="0.35em">OpenBLAS</text>
        </g>
      </g>
      <g transform="translate(274.25,113.33)" id="img-0192ae67-16">
        <g class="primitive">
          <text dy="0.35em">ifort-builtin</text>
        </g>
      </g>
      <g transform="translate(274.25,116.96)" id="img-0192ae67-17">
        <g class="primitive">
          <text dy="0.35em">MKL</text>
        </g>
      </g>
    </g>
    <g stroke-width="0.3" id="img-0192ae67-18">
      <g stroke="#FFFFFF" fill-opacity="1" fill="#77C80D" id="img-0192ae67-19">
        <g transform="translate(271.44,116.96)" id="img-0192ae67-20">
          <circle cx="0" cy="0" r="0.9" class="primitive"/>
        </g>
      </g>
      <g stroke="#FFFFFF" fill-opacity="1" fill="#458874" id="img-0192ae67-21">
        <g transform="translate(271.44,113.33)" id="img-0192ae67-22">
          <circle cx="0" cy="0" r="0.9" class="primitive"/>
        </g>
      </g>
      <g stroke="#FFFFFF" fill-opacity="1" fill="#2F5EB8" id="img-0192ae67-23">
        <g transform="translate(271.44,109.71)" id="img-0192ae67-24">
          <circle cx="0" cy="0" r="0.9" class="primitive"/>
        </g>
      </g>
      <g stroke="#FFFFFF" fill-opacity="1" fill="#33AE26" id="img-0192ae67-25">
        <g transform="translate(271.44,106.08)" id="img-0192ae67-26">
          <circle cx="0" cy="0" r="0.9" class="primitive"/>
        </g>
      </g>
      <g stroke="#FFFFFF" fill-opacity="1" fill="#F2ED37" id="img-0192ae67-27">
        <g transform="translate(271.44,102.45)" id="img-0192ae67-28">
          <circle cx="0" cy="0" r="0.9" class="primitive"/>
        </g>
      </g>
      <g stroke="#FFFFFF" fill-opacity="1" fill="#FCC884" id="img-0192ae67-29">
        <g transform="translate(271.44,98.83)" id="img-0192ae67-30">
          <circle cx="0" cy="0" r="0.9" class="primitive"/>
        </g>
      </g>
      <g stroke="#FFFFFF" fill-opacity="1" fill="#FC93C0" id="img-0192ae67-31">
        <g transform="translate(271.44,95.2)" id="img-0192ae67-32">
          <circle cx="0" cy="0" r="0.9" class="primitive"/>
        </g>
      </g>
      <g stroke="#FFFFFF" fill-opacity="1" fill="#EF54F2" id="img-0192ae67-33">
        <g transform="translate(271.44,91.57)" id="img-0192ae67-34">
          <circle cx="0" cy="0" r="0.9" class="primitive"/>
        </g>
      </g>
      <g stroke="#FFFFFF" fill-opacity="1" fill="#B341FB" id="img-0192ae67-35">
        <g transform="translate(271.44,87.95)" id="img-0192ae67-36">
          <circle cx="0" cy="0" r="0.9" class="primitive"/>
        </g>
      </g>
      <g stroke="#FFFFFF" fill-opacity="1" fill="#732CF8" id="img-0192ae67-37">
        <g transform="translate(271.44,84.32)" id="img-0192ae67-38">
          <circle cx="0" cy="0" r="0.9" class="primitive"/>
        </g>
      </g>
      <g stroke="#FFFFFF" fill-opacity="1" fill="#FF0000" id="img-0192ae67-39">
        <g transform="translate(271.44,80.69)" id="img-0192ae67-40">
          <circle cx="0" cy="0" r="0.9" class="primitive"/>
        </g>
      </g>
      <g stroke="#FFFFFF" fill-opacity="1" fill="#000000" id="img-0192ae67-41">
        <g transform="translate(271.44,77.07)" id="img-0192ae67-42">
          <circle cx="0" cy="0" r="0.9" class="primitive"/>
        </g>
      </g>
    </g>
    <g fill="#362A35" font-size="3.88" font-family="'PT Sans','Helvetica Neue','Helvetica',sans-serif" stroke="#000000" stroke-opacity="0.000" id="img-0192ae67-43">
      <g transform="translate(270.63,73.75)" id="img-0192ae67-44">
        <g class="primitive">
          <text dy="-0em">Methods</text>
        </g>
      </g>
    </g>
  </g>
  <g clip-path="url(#img-0192ae67-45)">
    <g id="img-0192ae67-46">
      <g pointer-events="visible" stroke-width="0.3" fill="#000000" fill-opacity="0.000" stroke="#000000" stroke-opacity="0.000" class="guide background" id="img-0192ae67-47">
        <g transform="translate(143.79,94.46)" id="img-0192ae67-48">
          <path d="M-125.83,-89.46 L125.83,-89.46 125.83,89.46 -125.83,89.46  z" class="primitive"/>
        </g>
      </g>
      <g class="guide ygridlines xfixed" stroke-dasharray="0.5,0.5" stroke-width="0.2" stroke="#D0D0E0" id="img-0192ae67-49">
        <g transform="translate(143.79,181.91)" id="img-0192ae67-50">
          <path fill="none" d="M-125.83,0 L125.83,0 " class="primitive"/>
        </g>
        <g transform="translate(143.79,146.93)" id="img-0192ae67-51">
          <path fill="none" d="M-125.83,0 L125.83,0 " class="primitive"/>
        </g>
        <g transform="translate(143.79,111.95)" id="img-0192ae67-52">
          <path fill="none" d="M-125.83,0 L125.83,0 " class="primitive"/>
        </g>
        <g transform="translate(143.79,76.97)" id="img-0192ae67-53">
          <path fill="none" d="M-125.83,0 L125.83,0 " class="primitive"/>
        </g>
        <g transform="translate(143.79,41.98)" id="img-0192ae67-54">
          <path fill="none" d="M-125.83,0 L125.83,0 " class="primitive"/>
        </g>
        <g transform="translate(143.79,7)" id="img-0192ae67-55">
          <path fill="none" d="M-125.83,0 L125.83,0 " class="primitive"/>
        </g>
      </g>
      <g class="guide xgridlines yfixed" stroke-dasharray="0.5,0.5" stroke-width="0.2" stroke="#D0D0E0" id="img-0192ae67-56">
        <g transform="translate(19.96,94.46)" id="img-0192ae67-57">
          <path fill="none" d="M0,-89.46 L0,89.46 " class="primitive"/>
        </g>
        <g transform="translate(39.01,94.46)" id="img-0192ae67-58">
          <path fill="none" d="M0,-89.46 L0,89.46 " class="primitive"/>
        </g>
        <g transform="translate(58.06,94.46)" id="img-0192ae67-59">
          <path fill="none" d="M0,-89.46 L0,89.46 " class="primitive"/>
        </g>
        <g transform="translate(77.11,94.46)" id="img-0192ae67-60">
          <path fill="none" d="M0,-89.46 L0,89.46 " class="primitive"/>
        </g>
        <g transform="translate(96.16,94.46)" id="img-0192ae67-61">
          <path fill="none" d="M0,-89.46 L0,89.46 " class="primitive"/>
        </g>
        <g transform="translate(115.22,94.46)" id="img-0192ae67-62">
          <path fill="none" d="M0,-89.46 L0,89.46 " class="primitive"/>
        </g>
        <g transform="translate(134.27,94.46)" id="img-0192ae67-63">
          <path fill="none" d="M0,-89.46 L0,89.46 " class="primitive"/>
        </g>
        <g transform="translate(153.32,94.46)" id="img-0192ae67-64">
          <path fill="none" d="M0,-89.46 L0,89.46 " class="primitive"/>
        </g>
        <g transform="translate(172.37,94.46)" id="img-0192ae67-65">
          <path fill="none" d="M0,-89.46 L0,89.46 " class="primitive"/>
        </g>
        <g transform="translate(191.42,94.46)" id="img-0192ae67-66">
          <path fill="none" d="M0,-89.46 L0,89.46 " class="primitive"/>
        </g>
        <g transform="translate(210.47,94.46)" id="img-0192ae67-67">
          <path fill="none" d="M0,-89.46 L0,89.46 " class="primitive"/>
        </g>
        <g transform="translate(229.52,94.46)" id="img-0192ae67-68">
          <path fill="none" d="M0,-89.46 L0,89.46 " class="primitive"/>
        </g>
        <g transform="translate(248.58,94.46)" id="img-0192ae67-69">
          <path fill="none" d="M0,-89.46 L0,89.46 " class="primitive"/>
        </g>
        <g transform="translate(267.63,94.46)" id="img-0192ae67-70">
          <path fill="none" d="M0,-89.46 L0,89.46 " class="primitive"/>
        </g>
      </g>
      <g class="plotpanel" id="img-0192ae67-71">
        <metadata>
          <boundingbox value="17.958333333333343mm 5.0mm 251.66833333333327mm 178.915mm"/>
          <unitbox value="-2.0995821024084633 50.57170625732498 264.1991642048169 -51.14341251464998"/>
        </metadata>
        <g stroke-width="0.3" fill="#000000" fill-opacity="0.000" class="geometry" id="img-0192ae67-72">
          <g class="color_RGB{Float64}(0.46484,0.78619,0.051424)" stroke-dasharray="none" stroke="#77C80D" id="img-0192ae67-73">
            <g transform="translate(142.84,112.18)" id="img-0192ae67-74">
              <path fill="none" d="M-120.98,69.13 L-120.02,68.48 -119.07,67.46 -118.12,66.43 -117.17,65.19 -116.21,64.12 -115.26,61.9 -114.31,61.52 -113.36,59.67 -112.4,58.82 -111.45,55.91 -110.5,56.45 -109.55,54.7 -108.59,54.29 -107.64,49.96 -106.69,50.46 -105.74,47.46 -104.78,47.31 -103.83,43.1 -102.88,45.22 -101.93,40.97 -100.97,42.23 -100.02,34.41 -99.07,37.81 -98.11,33.92 -97.16,34.63 -96.21,31.04 -95.26,31.11 -94.3,28.77 -93.35,31.07 -92.4,19.4 -91.45,24.01 -90.49,19.8 -89.54,23.06 -88.59,16.11 -87.64,19.12 -86.68,15.03 -85.73,17.63 -84.78,4.45 -83.83,11.64 -82.87,9.12 -81.92,10.89 -80.97,1.72 -80.02,7.97 -79.06,6.24 -78.11,6.78 -77.16,-8.71 -76.21,0.7 -75.25,-1.06 -74.3,3.13 -73.35,-6.94 -72.4,2.01 -71.44,-1.77 -70.49,2.3 -69.54,-15.88 -68.59,-1.27 -67.63,-5.8 -66.68,-0.55 -65.73,-11.67 -64.77,-0.46 -63.82,-4.63 -62.87,4.96 -61.92,-18.67 -60.96,4.19 -60.01,4.06 -59.06,8.98 -58.11,3.23 -57.15,11.99 -56.2,8.49 -55.25,12.04 -54.3,-18.92 -53.34,7.9 -52.39,5.45 -51.44,9.29 -50.49,-0.52 -49.53,8.79 -48.58,5.59 -47.63,8.75 -46.68,-21.2 -45.72,6.57 -44.77,4.72 -43.82,6.4 -42.87,-2.15 -41.91,6.21 -40.96,3.95 -40.01,7.53 -39.06,-26.84 -38.1,5.3 -37.15,2.02 -36.2,5.86 -35.25,-4.47 -34.29,5.02 -33.34,1.84 -32.39,6.45 -31.43,-23.86 -30.48,2.92 -29.53,0.05 -28.58,2.54 -27.62,-6.38 -26.67,2.75 -25.72,-1.15 -24.77,3.54 -23.81,-33 -22.86,3.73 -21.91,0.89 -20.96,4.13 -20,-6.08 -19.05,2.53 -18.1,-0.37 -17.15,4.14 -16.19,-29.01 -15.24,2.85 -14.29,-1.03 -13.34,2.06 -12.38,-6.91 -11.43,1.28 -10.48,-1.33 -9.53,2.08 -8.57,-33.48 -7.62,0.24 -6.67,-3.09 -5.72,0.46 -4.76,-9.9 -3.81,0.46 -2.86,-2.93 -1.91,2.39 -0.95,-27.84 0,-0.18 0.95,-2.04 1.91,0.95 2.86,-7.17 3.81,0.38 4.76,-2.68 5.72,0.77 6.67,-35.95 7.62,-1.15 8.57,-4.41 9.53,-0.5 10.48,-12.6 11.43,-2.46 12.38,-6.15 13.34,-1.36 14.29,-37.65 15.24,-3.19 16.19,-5.94 17.15,-3.03 18.1,-12.09 19.05,-3.72 20,-5.17 20.96,-1.65 21.91,-40.81 22.86,-2.84 23.81,-6.57 24.77,-2.26 25.72,-12.26 26.67,-2.85 27.62,-6.22 28.58,-1.47 29.53,-35.97 30.48,-3.74 31.43,-6.29 32.39,-3.16 33.34,-10.83 34.29,-3.39 35.25,-6.14 36.2,-3.76 37.15,-41.5 38.1,-5.28 39.06,-6.39 40.01,-2.68 40.96,-12.78 41.91,-3.48 42.87,-6.68 43.82,-2.87 44.77,-43.92 45.72,-4.54 46.68,-7.33 47.63,-4.19 48.58,-13.3 49.53,-4.7 50.49,-9.66 51.44,-4.37 52.39,-47.44 53.34,-8.15 54.3,-8.75 55.25,-5.4 56.2,-15.62 57.15,-6.11 58.11,-8.83 59.06,-4.63 60.01,-41.59 60.96,-6.61 61.92,-9.06 62.87,-5.82 63.82,-15.16 64.77,-6.33 65.73,-9.15 66.68,-5.58 67.63,-48.2 68.59,-7 69.54,-9.62 70.49,-6.12 71.44,-16.59 72.4,-8.06 73.35,-9.54 74.3,-6.88 75.25,-47.11 76.21,-7.04 77.16,-9.56 78.11,-6.79 79.06,-18.1 80.02,-7.28 80.97,-11.68 81.92,-6.84 82.87,-51.01 83.83,-8.21 84.78,-10.81 85.73,-7.54 86.68,-20.59 87.64,-7.82 88.59,-12.3 89.54,-6.76 90.49,-44.07 91.45,-10.41 92.4,-10.96 93.35,-8.1 94.3,-16.77 95.26,-8.49 96.21,-10.97 97.16,-7.85 98.11,-52.7 99.07,-9.1 100.02,-11.7 100.97,-10.4 101.93,-18.66 102.88,-8.83 103.83,-11.55 104.78,-9.3 105.74,-52.35 106.69,-11.21 107.64,-13.1 108.59,-10.82 109.55,-20.67 110.5,-10.73 111.45,-13.19 112.4,-10.03 113.36,-54.54 114.31,-9.23 115.26,-11 116.21,-7.89 117.17,-17.38 118.12,-7.13 119.07,-9.22 120.02,-4.19 120.98,-44.05 " class="primitive"/>
            </g>
          </g>
        </g>
        <g stroke-width="0.3" fill="#000000" fill-opacity="0.000" class="geometry" id="img-0192ae67-75">
          <g class="color_RGB{Float64}(0.271475,0.531685,0.455665)" stroke-dasharray="none" stroke="#458874" id="img-0192ae67-76">
            <g transform="translate(142.84,124.44)" id="img-0192ae67-77">
              <path fill="none" d="M-120.98,56.37 L-120.02,55.16 -119.07,54.21 -118.12,53.64 -117.17,51.88 -116.21,50.58 -115.26,46.55 -114.31,46.16 -113.36,45.64 -112.4,43.51 -111.45,38.07 -110.5,39.17 -109.55,38.05 -108.59,37.16 -107.64,30.15 -106.69,32.44 -105.74,31.64 -104.78,31.42 -103.83,22.48 -102.88,26.32 -101.93,26.4 -100.97,26.46 -100.02,17.71 -99.07,22.56 -98.11,20.41 -97.16,20.79 -96.21,15.88 -95.26,13.06 -94.3,15.22 -93.35,15.57 -92.4,6.38 -91.45,7.16 -90.49,11.6 -89.54,11.01 -88.59,-1.15 -87.64,3.06 -86.68,6.23 -85.73,8.7 -84.78,-7.45 -83.83,1.21 -82.87,2.77 -81.92,4.92 -80.97,-9.49 -80.02,-1.32 -79.06,0.37 -78.11,2.43 -77.16,-8.62 -76.21,-1.55 -75.25,-1.26 -74.3,1.68 -73.35,-11.37 -72.4,-1.64 -71.44,-1.73 -70.49,1.43 -69.54,-11.24 -68.59,-5.13 -67.63,-4.85 -66.68,-0.87 -65.73,-11.98 -64.77,-4.96 -63.82,-1.31 -62.87,0.93 -61.92,-11.93 -60.96,-2.16 -60.01,-0.15 -59.06,3.08 -58.11,-12.03 -57.15,5.7 -56.2,5.79 -55.25,8.96 -54.3,-14.09 -53.34,2.94 -52.39,-0.41 -51.44,4.43 -50.49,-14.69 -49.53,4.26 -48.58,4.21 -47.63,7.13 -46.68,-16.06 -45.72,2.15 -44.77,-1 -43.82,4.34 -42.87,-16.3 -41.91,4.53 -40.96,6.95 -40.01,8.9 -39.06,-13.98 -38.1,3.18 -37.15,-0.25 -36.2,5.4 -35.25,-12.32 -34.29,6.8 -33.34,6.07 -32.39,6.26 -31.43,-17.63 -30.48,1.15 -29.53,-1.58 -28.58,3.35 -27.62,-18.68 -26.67,3.18 -25.72,3.21 -24.77,5.69 -23.81,-18.27 -22.86,0.46 -21.91,-2.03 -20.96,2.94 -20,-18.39 -19.05,2.85 -18.1,2.38 -17.15,5.04 -16.19,-18.96 -15.24,2.46 -14.29,-2.78 -13.34,2.18 -12.38,-19.23 -11.43,1.95 -10.48,2.39 -9.53,4.82 -8.57,-19.29 -7.62,-1.23 -6.67,-3.83 -5.72,1.25 -4.76,-20.32 -3.81,0.95 -2.86,0.7 -1.91,3.13 -0.95,-20.11 0,-1.74 0.95,-4.65 1.91,0.59 2.86,-20.05 3.81,0.53 4.76,2.92 5.72,2.94 6.67,-21.04 7.62,-1.93 8.57,-4.61 9.53,1.73 10.48,-21.2 11.43,0.2 12.38,-0.53 13.34,2.1 14.29,-21.48 15.24,-2.46 16.19,-2.92 17.15,-0.9 18.1,-22.01 19.05,-0.18 20,-1.51 20.96,1.7 21.91,-22.06 22.86,-1.02 23.81,-1.77 24.77,1.04 25.72,-22.13 26.67,-0.34 27.62,-0.8 28.58,1.77 29.53,-22.21 30.48,-2.77 31.43,-4.91 32.39,0.62 33.34,-23.06 34.29,2.25 35.25,-0.83 36.2,1.17 37.15,-22.78 38.1,-3.45 39.06,-1.88 40.01,0.78 40.96,-16.55 41.91,-0.02 42.87,1.98 43.82,1.49 44.77,-19.15 45.72,-2.08 46.68,-4.78 47.63,-2.3 48.58,-22.6 49.53,-1.13 50.49,-1.51 51.44,0.84 52.39,-23.18 53.34,-4.3 54.3,-5.45 55.25,-2.67 56.2,-23.21 57.15,-2.15 58.11,-2.84 59.06,0.36 60.01,-23.48 60.96,-3.88 61.92,-5.73 62.87,-2.5 63.82,-22.96 64.77,-2.14 65.73,-1.59 66.68,2.92 67.63,-23.79 68.59,-4.43 69.54,-2.04 70.49,-2.94 71.44,-21.06 72.4,-1.75 73.35,-1.89 74.3,-0.02 75.25,-20.28 76.21,-1.6 77.16,-1.99 78.11,-0.33 79.06,-23.97 80.02,-1.47 80.97,-2.47 81.92,-0.01 82.87,-20.42 83.83,-1.9 84.78,-2.11 85.73,-0.34 86.68,-24.2 87.64,0.91 88.59,-2.53 89.54,-0.5 90.49,-24.5 91.45,-4.56 92.4,-5.8 93.35,-3.29 94.3,-24.38 95.26,-2.19 96.21,-2.67 97.16,-0.61 98.11,-24.64 99.07,-4.91 100.02,-5.88 100.97,-3.22 101.93,-24.42 102.88,-2.43 103.83,-2.9 104.78,-0.47 105.74,-24.6 106.69,-4.59 107.64,-5.59 108.59,-3.32 109.55,-24.67 110.5,-2.29 111.45,-2.97 112.4,-0.63 113.36,-21.29 114.31,-3.62 115.26,-5.07 116.21,-2.12 117.17,-18.75 118.12,0.82 119.07,0.71 120.02,1.25 120.98,-21.88 " class="primitive"/>
            </g>
          </g>
        </g>
        <g stroke-width="0.3" fill="#000000" fill-opacity="0.000" class="geometry" id="img-0192ae67-78">
          <g class="color_RGB{Float64}(0.184295,0.36709,0.72131)" stroke-dasharray="none" stroke="#2F5EB8" id="img-0192ae67-79">
            <g transform="translate(142.84,122.96)" id="img-0192ae67-80">
              <path fill="none" d="M-120.98,56.65 L-120.02,54.97 -119.07,50.55 -118.12,49.97 -117.17,46.61 -116.21,45.39 -115.26,38.69 -114.31,41.13 -113.36,36.78 -112.4,36.6 -111.45,27.74 -110.5,31.73 -109.55,27.73 -108.59,29.47 -107.64,14.12 -106.69,22.24 -105.74,17.85 -104.78,20.7 -103.83,8.39 -102.88,16.27 -101.93,14.07 -100.97,15.88 -100.02,1.86 -99.07,10.4 -98.11,8.82 -97.16,10.84 -96.21,-1.84 -95.26,7.84 -94.3,10.51 -93.35,12.52 -92.4,-6.09 -91.45,14.06 -90.49,2.34 -89.54,6.75 -88.59,7.26 -87.64,-0.25 -86.68,-1.63 -85.73,2.3 -84.78,2.86 -83.83,5.52 -82.87,0.31 -81.92,1.55 -80.97,-6.96 -80.02,-2.47 -79.06,-2.78 -78.11,-0.36 -77.16,-9.36 -76.21,-4.53 -75.25,-4.84 -74.3,-1.34 -73.35,-0.32 -72.4,0.67 -71.44,-4.47 -70.49,-0.94 -69.54,-10.21 -68.59,-5.62 -67.63,-5.62 -66.68,-4.33 -65.73,-9.67 -64.77,-5.81 -63.82,-4.83 -62.87,-2.84 -61.92,-11.81 -60.96,-3.86 -60.01,-3.06 -59.06,0.59 -58.11,-7.8 -57.15,2.87 -56.2,-2.07 -55.25,1.33 -54.3,-6.54 -53.34,-0.22 -52.39,-1.54 -51.44,0.89 -50.49,-8.26 -49.53,-0.75 -48.58,-2.25 -47.63,0.94 -46.68,-7.9 -45.72,-1.85 -44.77,-2.43 -43.82,0.81 -42.87,-8.24 -41.91,-1.88 -40.96,-1.8 -40.01,0.79 -39.06,2.43 -38.1,1.16 -37.15,-2.14 -36.2,2.83 -35.25,0.79 -34.29,0.83 -33.34,-2.33 -32.39,-0.48 -31.43,-6.04 -30.48,-2.71 -29.53,-3.07 -28.58,-1.47 -27.62,-7.14 -26.67,-2.82 -25.72,-3.76 -24.77,-1.65 -23.81,-6.64 -22.86,-2.8 -21.91,-3.49 -20.96,-1.59 -20,-6.88 -19.05,-2.76 -18.1,-3.56 -17.15,-1.75 -16.19,-7.3 -15.24,-0.04 -14.29,-3.75 -13.34,-2.41 -12.38,-7.38 -11.43,-3.46 -10.48,-4.54 -9.53,-2.62 -8.57,-7.27 -7.62,-3.25 -6.67,-3.72 -5.72,-2.63 -4.76,-7.78 -3.81,-3.22 -2.86,-4.1 -1.91,-2.25 -0.95,-8.52 0,-3.88 0.95,-3.55 1.91,-2.74 2.86,-7.96 3.81,-3.72 4.76,-4.97 5.72,-2.65 6.67,-6.26 7.62,-3.61 8.57,-3.54 9.53,-2.59 10.48,-8.22 11.43,-2.54 12.38,-4.81 13.34,-2.6 14.29,-8.55 15.24,-4.03 16.19,-1.7 17.15,-3.13 18.1,-8.81 19.05,-2.49 20,-4.73 20.96,-2.95 21.91,-8.59 22.86,-1.75 23.81,-4.75 24.77,-2.87 25.72,-8.27 26.67,-3.57 27.62,-4.98 28.58,-3.07 29.53,-8.57 30.48,-3.98 31.43,-4.28 32.39,-2.77 33.34,-8.31 34.29,-1.83 35.25,-4.86 36.2,-3 37.15,-8.22 38.1,-3.82 39.06,-4.47 40.01,-2.75 40.96,-1.75 41.91,-3.65 42.87,-4.8 43.82,-2.67 44.77,-0.08 45.72,-2.12 46.68,-4.66 47.63,-2.78 48.58,-8.09 49.53,-2.44 50.49,-4.98 51.44,-3.11 52.39,-8.22 53.34,-3.74 54.3,-4.34 55.25,-2.76 56.2,-8.12 57.15,-3.29 58.11,-4.88 59.06,-2.69 60.01,-7.98 60.96,-3.48 61.92,-4.36 62.87,-2.67 63.82,-6.7 64.77,-3.38 65.73,-4.85 66.68,-2.52 67.63,-7.75 68.59,-3.43 69.54,-4.37 70.49,-2.51 71.44,-1.48 72.4,-3.43 73.35,-4.6 74.3,-2.63 75.25,-1.24 76.21,-1.79 77.16,-4.32 78.11,-2.46 79.06,-7.75 80.02,-1.73 80.97,-4.8 81.92,-2.46 82.87,-1.6 83.83,-2.22 84.78,-4.19 85.73,-2.31 86.68,-7.67 87.64,-1.61 88.59,-4.79 89.54,-2.62 90.49,-7.63 91.45,-3.23 92.4,-4.7 93.35,-2.14 94.3,-7.34 95.26,-3.02 96.21,-4.56 97.16,-2.6 98.11,-7.45 99.07,-1.86 100.02,-1.94 100.97,-2.29 101.93,-6.28 102.88,-3.05 103.83,-4.69 104.78,-2.45 105.74,-7.42 106.69,-3.15 107.64,-4.64 108.59,-2.32 109.55,-7.38 110.5,-2.9 111.45,-4.79 112.4,-2.52 113.36,-1.73 114.31,-1.34 115.26,-3.93 116.21,-2.15 117.17,-1.51 118.12,-1.32 119.07,-4.04 120.02,-2.16 120.98,-7.32 " class="primitive"/>
            </g>
          </g>
        </g>
        <g stroke-width="0.3" fill="#000000" fill-opacity="0.000" class="geometry" id="img-0192ae67-81">
          <g class="color_RGB{Float64}(0.19818750000000002,0.6815825,0.147585)" stroke-dasharray="none" stroke="#33AE26" id="img-0192ae67-82">
            <g transform="translate(142.84,127.45)" id="img-0192ae67-83">
              <path fill="none" d="M-120.98,52.28 L-120.02,50.65 -119.07,48.2 -118.12,46.37 -117.17,45.66 -116.21,44.58 -115.26,40.11 -114.31,41.36 -113.36,42.14 -112.4,40.68 -111.45,37.77 -110.5,38.35 -109.55,38.24 -108.59,38.49 -107.64,27.98 -106.69,31.57 -105.74,32.4 -104.78,33.55 -103.83,30.16 -102.88,31.36 -101.93,31.12 -100.97,31.97 -100.02,17.36 -99.07,23.26 -98.11,25.27 -97.16,25.75 -96.21,21.59 -95.26,22.57 -94.3,25.95 -93.35,25.25 -92.4,11.45 -91.45,16.76 -90.49,18.28 -89.54,19.85 -88.59,17.73 -87.64,19.83 -86.68,21.84 -85.73,20.8 -84.78,6.26 -83.83,11.55 -82.87,13.28 -81.92,16.18 -80.97,12.1 -80.02,16.48 -79.06,14.83 -78.11,19.93 -77.16,0.8 -76.21,9.61 -75.25,9.16 -74.3,11.83 -73.35,10.46 -72.4,13.38 -71.44,14.99 -70.49,16.96 -69.54,-0.65 -68.59,6.83 -67.63,6.09 -66.68,9.07 -65.73,6.42 -64.77,10.19 -63.82,8.56 -62.87,11.9 -61.92,-23.98 -60.96,-10.9 -60.01,1.36 -59.06,0.51 -58.11,-6.39 -57.15,-0.58 -56.2,1.12 -55.25,4.44 -54.3,-17.04 -53.34,-8.93 -52.39,-3.51 -51.44,-0.07 -50.49,-6.72 -49.53,-1.54 -48.58,0.12 -47.63,0.88 -46.68,-22.88 -45.72,-8.64 -44.77,-2.83 -43.82,-3.95 -42.87,-12.01 -41.91,-4.97 -40.96,2.53 -40.01,2.77 -39.06,-21.66 -38.1,-5.82 -37.15,-4.94 -36.2,-0.15 -35.25,-5.5 -34.29,-2.68 -33.34,-1.57 -32.39,1.61 -31.43,-27.84 -30.48,-12.1 -29.53,-10.67 -28.58,-6.93 -27.62,-14.16 -26.67,-7.39 -25.72,-5.2 -24.77,-2.54 -23.81,-28.97 -22.86,-9.25 -21.91,-11.24 -20.96,-6.28 -20,-15.23 -19.05,-8.11 -18.1,-6.36 -17.15,-3.81 -16.19,-29.08 -15.24,-6.69 -14.29,-10.59 -13.34,-7.91 -12.38,-14.9 -11.43,-8.21 -10.48,-7.22 -9.53,-4.24 -8.57,-28.79 -7.62,-11.59 -6.67,-8.04 -5.72,-6.86 -4.76,-16.07 -3.81,-9.02 -2.86,-7.38 -1.91,-5.68 -0.95,-33.48 0,-9.7 0.95,-3.35 1.91,0.11 2.86,-11.1 3.81,1.08 4.76,-2.11 5.72,0.84 6.67,-25.87 7.62,-1.55 8.57,-2.78 9.53,0.37 10.48,-17.86 11.43,-6.31 12.38,-7.67 13.34,-0.77 14.29,-34.2 15.24,-10.17 16.19,-7.45 17.15,-6.32 18.1,-18.8 19.05,-8.44 20,-2.53 20.96,0.53 21.91,-29.71 22.86,-2.38 23.81,-3.8 24.77,-0.58 25.72,-11.98 26.67,-0.28 27.62,-2.81 28.58,0.26 29.53,-30.94 30.48,-2.75 31.43,-3.77 32.39,-0.74 33.34,-10.91 34.29,-0.45 35.25,-1.46 36.2,2.69 37.15,-9.04 38.1,-0.98 39.06,-1.18 40.01,2.61 40.96,-9.98 41.91,-0.02 42.87,-2.67 43.82,1.13 44.77,-8.73 45.72,-2.45 46.68,-3.64 47.63,0.05 48.58,-12.13 49.53,-1.56 50.49,-3.96 51.44,-0.34 52.39,-11.03 53.34,-2.69 54.3,-3.84 55.25,-1.02 56.2,-12.44 57.15,-2.71 58.11,-4.65 59.06,-0.89 60.01,-11.72 60.96,-3.51 61.92,-5.49 62.87,-1.54 63.82,-10.69 64.77,-4.12 65.73,-4.98 66.68,-2.36 67.63,-13 68.59,-4.66 69.54,-6.29 70.49,-1.92 71.44,-14 72.4,-4.33 73.35,-4.29 74.3,-2.37 75.25,-13.37 76.21,-4.9 77.16,-7.13 78.11,-3.02 79.06,-14.77 80.02,-5.81 80.97,-6.53 81.92,-4 82.87,-15.42 83.83,-5.8 84.78,-7.8 85.73,-4.09 86.68,-15.59 87.64,-5.83 88.59,-8.06 89.54,-3.8 90.49,-15.75 91.45,-4.78 92.4,-7.82 93.35,-4.33 94.3,-17 95.26,-7.06 96.21,-8.25 97.16,-4.92 98.11,-16.93 99.07,-5.72 100.02,-6.87 100.97,-4.59 101.93,-15.67 102.88,-7.22 103.83,-9.06 104.78,-4.73 105.74,-17.27 106.69,-7.07 107.64,-7.93 108.59,-5.06 109.55,-17.29 110.5,-7.46 111.45,-8.76 112.4,-4.89 113.36,-17.03 114.31,-6.49 115.26,-8.25 116.21,-4.41 117.17,-18.05 118.12,-6.63 119.07,-8.49 120.02,-4.16 120.98,-14.02 " class="primitive"/>
            </g>
          </g>
        </g>
        <g stroke-width="0.3" fill="#000000" fill-opacity="0.000" class="geometry" id="img-0192ae67-84">
          <g class="color_RGB{Float64}(0.9472050000000001,0.93113,0.21654)" stroke-dasharray="none" stroke="#F2ED37" id="img-0192ae67-85">
            <g transform="translate(142.84,119.62)" id="img-0192ae67-86">
              <path fill="none" d="M-120.98,61.14 L-120.02,60.11 -119.07,58.19 -118.12,57.16 -117.17,55.99 -116.21,54.94 -115.26,51.71 -114.31,51.83 -113.36,50.84 -112.4,49.98 -111.45,46.25 -110.5,47.12 -109.55,46.91 -108.59,45.59 -107.64,36.11 -106.69,39.58 -105.74,43.78 -104.78,43.84 -103.83,32.62 -102.88,36.15 -101.93,34.84 -100.97,35.95 -100.02,19.35 -99.07,26 -98.11,34.89 -97.16,34.14 -96.21,20.38 -95.26,23.62 -94.3,23.89 -93.35,26.65 -92.4,23.32 -91.45,24.05 -90.49,26.86 -89.54,26.98 -88.59,13.01 -87.64,15.82 -86.68,16.03 -85.73,16.89 -84.78,15.94 -83.83,18.08 -82.87,18.1 -81.92,20.05 -80.97,0.67 -80.02,7.81 -79.06,8.74 -78.11,11.61 -77.16,-12.72 -76.21,-3.11 -75.25,-2.63 -74.3,2.73 -73.35,1.15 -72.4,5.14 -71.44,1.52 -70.49,8.75 -69.54,7.08 -68.59,6.28 -67.63,6.91 -66.68,12.96 -65.73,-6.79 -64.77,2.21 -63.82,3.05 -62.87,8.26 -61.92,-22.9 -60.96,-1.54 -60.01,1.19 -59.06,6.02 -58.11,2.23 -57.15,11.42 -56.2,9.79 -55.25,12.22 -54.3,13.96 -53.34,5.55 -52.39,12.64 -51.44,15.14 -50.49,0.43 -49.53,6.99 -48.58,6.21 -47.63,11.11 -46.68,-24.61 -45.72,3.48 -44.77,10.15 -43.82,5.29 -42.87,-3.21 -41.91,6.42 -40.96,6.97 -40.01,9.63 -39.06,8.4 -38.1,9.05 -37.15,1.25 -36.2,10.01 -35.25,6.35 -34.29,3.95 -33.34,1.31 -32.39,4.57 -31.43,-28.21 -30.48,-4.8 -29.53,-4.88 -28.58,-2.28 -27.62,-9.26 -26.67,-1.16 -25.72,-1.07 -24.77,1.45 -23.81,-39.69 -22.86,-5 -21.91,-6.3 -20.96,-3.46 -20,-12.47 -19.05,-1.26 -18.1,-2.04 -17.15,1.32 -16.19,-39.9 -15.24,5.74 -14.29,-8.49 -13.34,-5.29 -12.38,-13.73 -11.43,-3.33 -10.48,-3.25 -9.53,-0.45 -8.57,-44.52 -7.62,-7.53 -6.67,-10.15 -5.72,-5.13 -4.76,-14.75 -3.81,-4.01 -2.86,-4.31 -1.91,-2.32 -0.95,-36.57 0,-8.22 0.95,-1.19 1.91,2.34 2.86,-14.99 3.81,-6.3 4.76,-6.38 5.72,-4.46 6.67,-0.55 7.62,-3.68 8.57,-3.64 9.53,-1.51 10.48,-15.47 11.43,-5.82 12.38,-7.87 13.34,-3.86 14.29,-48.98 15.24,-11.07 16.19,-12.79 17.15,-9.5 18.1,-17.28 19.05,-7.24 20,-9.62 20.96,-5.36 21.91,-1.05 22.86,-3.96 23.81,-6.44 24.77,0.3 25.72,-15.12 26.67,-8.37 27.62,-10.27 28.58,-6.48 29.53,-3.6 30.48,-4.85 31.43,-5.88 32.39,-2.82 33.34,-16.53 34.29,-9.26 35.25,-10.3 36.2,-6.6 37.15,-6.02 38.1,-12.84 39.06,-6.45 40.01,-4.53 40.96,-7.04 41.91,-9.52 42.87,-9.52 43.82,-7.81 44.77,-3.86 45.72,-4.87 46.68,-13.57 47.63,-4.45 48.58,-16.64 49.53,-9.63 50.49,-11.74 51.44,-7.8 52.39,-5.02 53.34,-13.41 54.3,-7.03 55.25,-4.9 56.2,-17.87 57.15,-9.7 58.11,-12.34 59.06,-8.86 60.01,-5.73 60.96,-7.55 61.92,-8.75 62.87,-5.47 63.82,-18.42 64.77,-11.47 65.73,-12.8 66.68,-10.1 67.63,-7.71 68.59,-8.87 69.54,-9.8 70.49,-7.01 71.44,-5.22 72.4,-11.55 73.35,-12.86 74.3,-9.77 75.25,-7.62 76.21,-9.53 77.16,-10.31 78.11,-7.85 79.06,-21.31 80.02,-6.57 80.97,-14.01 81.92,-10.79 82.87,-7.83 83.83,-9.68 84.78,-10.48 85.73,-8.08 86.68,-21.48 87.64,-12.19 88.59,-14.22 89.54,-10.64 90.49,-7.68 91.45,-14.93 92.4,-11.24 93.35,-7.33 94.3,-21.04 95.26,-13.52 96.21,-14.9 97.16,-12.26 98.11,-9.28 99.07,-10 100.02,-10.74 100.97,-14.15 101.93,-20.55 102.88,-13.35 103.83,-15.13 104.78,-10.89 105.74,-59.88 106.69,-15.16 107.64,-17.04 108.59,-13.53 109.55,-21.68 110.5,-12.61 111.45,-14.74 112.4,-10.85 113.36,-7.86 114.31,-9.69 115.26,-16.41 116.21,-13.6 117.17,-10.22 118.12,-11.73 119.07,-14.13 120.02,-10.09 120.98,-54.74 " class="primitive"/>
            </g>
          </g>
        </g>
        <g stroke-width="0.3" fill="#000000" fill-opacity="0.000" class="geometry" id="img-0192ae67-87">
          <g class="color_RGB{Float64}(0.9876875,0.782915,0.516455)" stroke-dasharray="none" stroke="#FCC884" id="img-0192ae67-88">
            <g transform="translate(142.84,122.9)" id="img-0192ae67-89">
              <path fill="none" d="M-120.98,57.87 L-120.02,56.88 -119.07,55.02 -118.12,54.71 -117.17,52.33 -116.21,51.06 -115.26,48.49 -114.31,48.61 -113.36,47.24 -112.4,46.5 -111.45,41.52 -110.5,42.42 -109.55,43.31 -108.59,42.02 -107.64,29.21 -106.69,38.61 -105.74,40.24 -104.78,40.51 -103.83,28.02 -102.88,32.39 -101.93,33.35 -100.97,34.39 -100.02,14.74 -99.07,20.7 -98.11,30.8 -97.16,31.5 -96.21,16.17 -95.26,19.29 -94.3,20.9 -93.35,23.48 -92.4,24.72 -91.45,21.49 -90.49,27.59 -89.54,23.93 -88.59,12.57 -87.64,14.61 -86.68,11.43 -85.73,12.53 -84.78,12.88 -83.83,13.82 -82.87,15.45 -81.92,16.88 -80.97,5.35 -80.02,7.87 -79.06,8.34 -78.11,10.42 -77.16,-17.66 -76.21,-7.59 -75.25,-5.29 -74.3,-0.43 -73.35,-2.06 -72.4,2.8 -71.44,3.18 -70.49,6.89 -69.54,3.95 -68.59,6.25 -67.63,6.37 -66.68,8.95 -65.73,-5.13 -64.77,-6.3 -63.82,-0.46 -62.87,3.57 -61.92,-27.4 -60.96,-5.04 -60.01,-4.55 -59.06,3.11 -58.11,1.17 -57.15,8.26 -56.2,8.46 -55.25,11.74 -54.3,10.92 -53.34,1.2 -52.39,9.79 -51.44,11.79 -50.49,-8.77 -49.53,3.76 -48.58,1.97 -47.63,8.25 -46.68,-29.81 -45.72,-0.46 -44.77,7.34 -43.82,1.7 -42.87,-5.1 -41.91,5.63 -40.96,4.21 -40.01,8.15 -39.06,6.17 -38.1,8.84 -37.15,-4.53 -36.2,8.34 -35.25,3.73 -34.29,3.25 -33.34,1.88 -32.39,3.26 -31.43,-32.66 -30.48,-2.3 -29.53,-4.17 -28.58,-1.13 -27.62,-8.15 -26.67,3.02 -25.72,0.25 -24.77,3.14 -23.81,-46.26 -22.86,-4.54 -21.91,-6.61 -20.96,-3.51 -20,-10.89 -19.05,0.85 -18.1,-1.48 -17.15,2.32 -16.19,-44.57 -15.24,6.68 -14.29,-7.95 -13.34,-2.3 -12.38,-12.63 -11.43,0.35 -10.48,-2.73 -9.53,0.28 -8.57,-50.37 -7.62,-6.62 -6.67,-8.93 -5.72,-3.39 -4.76,-12.71 -3.81,-1.94 -2.86,-3.2 -1.91,0.71 -0.95,-43.56 0,-5.69 0.95,-1.19 1.91,1.75 2.86,-19.87 3.81,-4.63 4.76,-4.9 5.72,-3.37 6.67,1.82 7.62,-1.18 8.57,-2.99 9.53,0.57 10.48,-16.77 11.43,-2.49 12.38,-5.83 13.34,-1.53 14.29,-50.4 15.24,-7.04 16.19,-11.19 17.15,-6.1 18.1,-17.14 19.05,-3.03 20,-9.28 20.96,-4.53 21.91,-0.07 22.86,-2.77 23.81,-4.71 24.77,-0.55 25.72,-23.15 26.67,-6.24 27.62,-9.41 28.58,-4.68 29.53,0.16 30.48,-2.45 31.43,-4.97 32.39,-0.91 33.34,-23.11 34.29,-4.88 35.25,-9.77 36.2,-3.17 37.15,-0.66 38.1,-8.6 39.06,-4.92 40.01,-0.54 40.96,-2.04 41.91,-6.11 42.87,-6.99 43.82,-4.53 44.77,-0.27 45.72,-1.95 46.68,-13.04 47.63,-2.42 48.58,-24.69 49.53,-7.28 50.49,-8.66 51.44,-6.07 52.39,-1.56 53.34,-9.63 54.3,-5.9 55.25,-2.93 56.2,-25.71 57.15,-7.87 58.11,-11.55 59.06,-6.31 60.01,-1.19 60.96,-4.31 61.92,-7.11 62.87,-3.15 63.82,-24.95 64.77,-8.16 65.73,-11.65 66.68,-4.38 67.63,-2.34 68.59,-5.21 69.54,-8.04 70.49,-3.84 71.44,-0 72.4,-6.5 73.35,-12.03 74.3,-5.6 75.25,-2.73 76.21,-5.77 77.16,-8.58 78.11,-3.86 79.06,-22.89 80.02,-2.87 80.97,-10.58 81.92,-6.91 82.87,-2.99 83.83,-6.19 84.78,-9.13 85.73,-4.14 86.68,-23.18 87.64,-7.69 88.59,-10.75 89.54,-7.62 90.49,-2.71 91.45,-10.13 92.4,-8.95 93.35,-4.64 94.3,-27.33 95.26,-9.33 96.21,-13.23 97.16,-8.3 98.11,-3.45 99.07,-5.7 100.02,-8.68 100.97,-9.71 101.93,-28.06 102.88,-9.31 103.83,-13.6 104.78,-6.72 105.74,-64.67 106.69,-10.91 107.64,-15.05 108.59,-10 109.55,-24.47 110.5,-7.82 111.45,-11.73 112.4,-6.95 113.36,-2.5 114.31,-5.54 115.26,-15.79 116.21,-9.01 117.17,-4.62 118.12,-7.6 119.07,-11.4 120.02,-5.1 120.98,-58.18 " class="primitive"/>
            </g>
          </g>
        </g>
        <g stroke-width="0.3" fill="#000000" fill-opacity="0.000" class="geometry" id="img-0192ae67-90">
          <g class="color_RGB{Float64}(0.98704,0.57494,0.75486)" stroke-dasharray="none" stroke="#FC93C0" id="img-0192ae67-91">
            <g transform="translate(142.84,123.14)" id="img-0192ae67-92">
              <path fill="none" d="M-120.98,56.35 L-120.02,54.49 -119.07,51.72 -118.12,50.6 -117.17,48.19 -116.21,46.76 -115.26,40.33 -114.31,42.58 -113.36,39.15 -112.4,38.01 -111.45,32.66 -110.5,35.92 -109.55,32.23 -108.59,31.05 -107.64,14.06 -106.69,18.71 -105.74,17.99 -104.78,19.87 -103.83,11.49 -102.88,17.47 -101.93,13.74 -100.97,15.22 -100.02,5.02 -99.07,13.13 -98.11,9.53 -97.16,10.1 -96.21,1.36 -95.26,12.65 -94.3,10.14 -93.35,12.17 -92.4,-7.44 -91.45,12.38 -90.49,2.66 -89.54,3.63 -88.59,7.47 -87.64,0.31 -86.68,-0.92 -85.73,2.08 -84.78,4.47 -83.83,5.26 -82.87,-0.46 -81.92,1.25 -80.97,-2.08 -80.02,-2.94 -79.06,-3.19 -78.11,-1.14 -77.16,-9.6 -76.21,-4.32 -75.25,-4.92 -74.3,-1.93 -73.35,-1.01 -72.4,0.16 -71.44,-4.91 -70.49,-2.34 -69.54,-10.1 -68.59,-6.21 -67.63,-6.77 -66.68,-3.79 -65.73,-10.86 -64.77,-6.41 -63.82,-5.41 -62.87,-4.54 -61.92,-11.63 -60.96,-3.51 -60.01,-3.2 -59.06,0.57 -58.11,-7.6 -57.15,2.78 -56.2,-2.3 -55.25,1.27 -54.3,-7.54 -53.34,-0.63 -52.39,-1.48 -51.44,0.75 -50.49,-8.34 -49.53,-1.01 -48.58,-2.01 -47.63,0.84 -46.68,-8.3 -45.72,-2.05 -44.77,-2.53 -43.82,0.26 -42.87,-4.04 -41.91,-2.18 -40.96,-1.09 -40.01,0.55 -39.06,2.47 -38.1,0.94 -37.15,-2.23 -36.2,-0.33 -35.25,0.65 -34.29,0.67 -33.34,-2.66 -32.39,-0.64 -31.43,-6.34 -30.48,-2.89 -29.53,-3.1 -28.58,-1.55 -27.62,-7.39 -26.67,-2.96 -25.72,-3.78 -24.77,-1.88 -23.81,-7.03 -22.86,-2.95 -21.91,-3.56 -20.96,-1.88 -20,-7.5 -19.05,-3.03 -18.1,-4.2 -17.15,-1.91 -16.19,-7.38 -15.24,1.37 -14.29,-3.98 -13.34,-2.67 -12.38,-7.56 -11.43,-3.57 -10.48,-4.44 -9.53,-2.81 -8.57,-7.67 -7.62,-3.5 -6.67,-2.05 -5.72,-2.77 -4.76,-8.06 -3.81,-3.3 -2.86,-3 -1.91,-2.39 -0.95,-8.94 0,-3.91 0.95,-3.65 1.91,-2.7 2.86,-8.34 3.81,-3.86 4.76,-5.08 5.72,-2.9 6.67,-8.21 7.62,-3.94 8.57,-3.89 9.53,-2.75 10.48,-8.33 11.43,-2.59 12.38,-4.9 13.34,-2.63 14.29,-9.06 15.24,-4.11 16.19,-4.17 17.15,-3.29 18.1,-9.1 19.05,-2.65 20,-5.04 20.96,-3.18 21.91,-8.91 22.86,-2.03 23.81,-4.84 24.77,-3.01 25.72,-9 26.67,-2.22 27.62,-5.1 28.58,-3.19 29.53,-8.88 30.48,-4.06 31.43,-4.59 32.39,-2.8 33.34,-8.74 34.29,-1.85 35.25,-4.9 36.2,-3.22 37.15,-8.68 38.1,-3.98 39.06,-4.55 40.01,-2.81 40.96,-1.91 41.91,-3.88 42.87,-4.74 43.82,-2.73 44.77,-0.21 45.72,-2.11 46.68,-4.62 47.63,-3.1 48.58,-8.57 49.53,-2.51 50.49,-5.12 51.44,-3.12 52.39,-8.66 53.34,-3.89 54.3,-2.53 55.25,-3.04 56.2,-8.54 57.15,-3.56 58.11,-5.25 59.06,-2.84 60.01,-8.58 60.96,-3.67 61.92,-4.65 62.87,-2.88 63.82,-6.97 64.77,-3.63 65.73,-4.87 66.68,-2.78 67.63,-8.18 68.59,-3.75 69.54,-4.44 70.49,-2.76 71.44,-1.58 72.4,-3.68 73.35,-4.43 74.3,-2.78 75.25,-1.51 76.21,-2.01 77.16,-4.43 78.11,-2.53 79.06,-8.09 80.02,-1.96 80.97,-5.03 81.92,-2.68 82.87,-1.77 83.83,-2.28 84.78,-4.33 85.73,-2.49 86.68,-8.15 87.64,-1.78 88.59,-5.21 89.54,-2.69 90.49,-5.91 91.45,-1.8 92.4,-4.95 93.35,-2.35 94.3,-7.74 95.26,-3.33 96.21,-4.81 97.16,-2.84 98.11,-7.8 99.07,-2.09 100.02,-2.13 100.97,-2.54 101.93,-6.53 102.88,-3.25 103.83,-5.02 104.78,-2.67 105.74,-8.18 106.69,-3.44 107.64,-3.47 108.59,-2.51 109.55,-7.97 110.5,-3.15 111.45,-5.01 112.4,-2.68 113.36,-1.83 114.31,-1.89 115.26,-4.15 116.21,-2.49 117.17,-1.65 118.12,-1.57 119.07,-4.21 120.02,-2.35 120.98,-7.38 " class="primitive"/>
            </g>
          </g>
        </g>
        <g stroke-width="0.3" fill="#000000" fill-opacity="0.000" class="geometry" id="img-0192ae67-93">
          <g class="color_RGB{Float64}(0.9360050000000001,0.3313625,0.949375)" stroke-dasharray="none" stroke="#EF54F2" id="img-0192ae67-94">
            <g transform="translate(142.84,121.69)" id="img-0192ae67-95">
              <path fill="none" d="M-120.98,57.1 L-120.02,55.14 -119.07,50.85 -118.12,50.35 -117.17,46.32 -116.21,46.24 -115.26,37.73 -114.31,39.91 -113.36,36.59 -112.4,37.11 -111.45,27.01 -110.5,31.38 -109.55,28.1 -108.59,29.61 -107.64,12.72 -106.69,16.35 -105.74,15.72 -104.78,19.63 -103.83,7.13 -102.88,12.57 -101.93,12.08 -100.97,15.21 -100.02,0.58 -99.07,7.44 -98.11,6.79 -97.16,9.66 -96.21,-4.47 -95.26,7.06 -94.3,7.45 -93.35,11.62 -92.4,-10.23 -91.45,12.18 -90.49,-0.54 -89.54,3.28 -88.59,5.93 -87.64,-2.93 -86.68,-2.91 -85.73,0.95 -84.78,2.46 -83.83,5.37 -82.87,-2.1 -81.92,0.93 -80.97,-5.35 -80.02,-4.43 -79.06,-4.14 -78.11,-1.62 -77.16,-10.38 -76.21,-4.61 -75.25,-6.13 -74.3,-1.91 -73.35,-1.71 -72.4,0.21 -71.44,-5.42 -70.49,-1.64 -69.54,-11.13 -68.59,-6.86 -67.63,-7.11 -66.68,-5.87 -65.73,-10.61 -64.77,-7.34 -63.82,-6.55 -62.87,-4.16 -61.92,-13.44 -60.96,-3.74 -60.01,-3.58 -59.06,1.42 -58.11,-8.28 -57.15,3.87 -56.2,-1.6 -55.25,2.1 -54.3,-7.88 -53.34,-0.2 -52.39,-1.48 -51.44,1.53 -50.49,-8.54 -49.53,0.01 -48.58,-2.46 -47.63,1.22 -46.68,-8.36 -45.72,-1.81 -44.77,-2.52 -43.82,0.65 -42.87,-8.73 -41.91,-2.29 -40.96,-2.28 -40.01,1.49 -39.06,2.99 -38.1,1.8 -37.15,-1.6 -36.2,0.67 -35.25,1.42 -34.29,1.54 -33.34,-1.97 -32.39,0.19 -31.43,-5.93 -30.48,-2.14 -29.53,-2.83 -28.58,-0.92 -27.62,-7.34 -26.67,-2.38 -25.72,-3.27 -24.77,-1.4 -23.81,-6.82 -22.86,-2.34 -21.91,-3.4 -20.96,-1.17 -20,-7.29 -19.05,-2.36 -18.1,-3.83 -17.15,-1.39 -16.19,-7.55 -15.24,2.07 -14.29,-3.46 -13.34,-1.92 -12.38,-7.35 -11.43,-3.07 -10.48,-3.89 -9.53,-2.24 -8.57,-7.25 -7.62,-2.71 -6.67,-1.68 -5.72,0.12 -4.76,-7.68 -3.81,-2.67 -2.86,-2.5 -1.91,-1.71 -0.95,-8.57 0,-3.57 0.95,-2.88 1.91,-2.36 2.86,-8.15 3.81,-1.22 4.76,-4.31 5.72,-2.49 6.67,-7.9 7.62,-3.5 8.57,-3.07 9.53,-2.13 10.48,-8.42 11.43,-2.12 12.38,-4.67 13.34,-2.08 14.29,-8.55 15.24,-3.64 16.19,-3.26 17.15,-2.73 18.1,-8.7 19.05,-2.11 20,-4.6 20.96,-2.65 21.91,-8.22 22.86,-1.24 23.81,-4.25 24.77,-2.31 25.72,-8.34 26.67,-3.17 27.62,-4.9 28.58,-2.63 29.53,-8.48 30.48,-3.73 31.43,-3.86 32.39,-2.3 33.34,-8.67 34.29,-0.99 35.25,-4.56 36.2,-2.59 37.15,-8.01 38.1,-3.47 39.06,-3.93 40.01,-2.26 40.96,-0.94 41.91,-3.23 42.87,-4.09 43.82,-1.97 44.77,0.87 45.72,-1.16 46.68,-4.06 47.63,-2.42 48.58,-8.27 49.53,-1.99 50.49,-4.67 51.44,-2.49 52.39,-7.79 53.34,-3.38 54.3,-2.03 55.25,-2.41 56.2,-7.92 57.15,-3.01 58.11,-4.64 59.06,-2.13 60.01,-7.96 60.96,-3.11 61.92,-3.91 62.87,-2.24 63.82,-6.52 64.77,-2.88 65.73,-4.21 66.68,-1.76 67.63,-7.43 68.59,-3.15 69.54,-3.79 70.49,-2.19 71.44,-0.68 72.4,-2.95 73.35,-3.73 74.3,-2.19 75.25,-0.61 76.21,-1.02 77.16,-3.75 78.11,-1.74 79.06,-7.5 80.02,-0.93 80.97,-4.38 81.92,-1.96 82.87,-0.9 83.83,-1.29 84.78,-3.58 85.73,-1.7 86.68,-7.36 87.64,-0.75 88.59,-4.68 89.54,-1.83 90.49,-7.44 91.45,-0.99 92.4,-4.31 93.35,-1.6 94.3,-7.37 95.26,-2.45 96.21,-4.21 97.16,-2.01 98.11,-7.05 99.07,-2.79 100.02,-1.51 100.97,-1.78 101.93,-6.07 102.88,-2.57 103.83,-4.53 104.78,-1.99 105.74,-5.59 106.69,-2.75 107.64,-2.67 108.59,-1.5 109.55,-7.24 110.5,-2.5 111.45,-4.18 112.4,-1.9 113.36,-0.78 114.31,-0.86 115.26,-3.25 116.21,-1.58 117.17,-0.52 118.12,-0.62 119.07,-3.39 120.02,-1.38 120.98,-7.07 " class="primitive"/>
            </g>
          </g>
        </g>
        <g stroke-width="0.3" fill="#000000" fill-opacity="0.000" class="geometry" id="img-0192ae67-96">
          <g class="color_RGB{Float64}(0.7018800000000001,0.25504499999999997,0.9848349999999999)" stroke-dasharray="none" stroke="#B341FB" id="img-0192ae67-97">
            <g transform="translate(142.84,125.71)" id="img-0192ae67-98">
              <path fill="none" d="M-120.98,53.86 L-120.02,52.15 -119.07,48.7 -118.12,47.31 -117.17,45.52 -116.21,43.7 -115.26,41.68 -114.31,42.95 -113.36,43.96 -112.4,42.43 -111.45,39.64 -110.5,39.81 -109.55,40.15 -108.59,40.17 -107.64,29.69 -106.69,32.43 -105.74,33.91 -104.78,35.77 -103.83,32.43 -102.88,31.97 -101.93,32.98 -100.97,33.2 -100.02,19.38 -99.07,25.2 -98.11,27.77 -97.16,27.54 -96.21,24.1 -95.26,25.43 -94.3,28.52 -93.35,27 -92.4,14.27 -91.45,18.94 -90.49,20.8 -89.54,22.17 -88.59,20.06 -87.64,20.32 -86.68,22.57 -85.73,22.96 -84.78,9.5 -83.83,16.38 -82.87,15.52 -81.92,18.05 -80.97,12.98 -80.02,18.91 -79.06,17.76 -78.11,21.6 -77.16,3.25 -76.21,11.99 -75.25,12.23 -74.3,13.82 -73.35,14.43 -72.4,16.02 -71.44,17.57 -70.49,16.67 -69.54,2.33 -68.59,6.32 -67.63,8.58 -66.68,10.62 -65.73,9.78 -64.77,12.81 -63.82,11.19 -62.87,13.66 -61.92,-21.96 -60.96,-9.8 -60.01,0.06 -59.06,2.93 -58.11,-2.58 -57.15,3.46 -56.2,4.71 -55.25,7.24 -54.3,-15.61 -53.34,-7.98 -52.39,-1.33 -51.44,2.45 -50.49,-3.6 -49.53,1.79 -48.58,4 -47.63,2.63 -46.68,-19.48 -45.72,-8.13 -44.77,-1.35 -43.82,-3.04 -42.87,-3.54 -41.91,-2.71 -40.96,1.25 -40.01,4.1 -39.06,-20.58 -38.1,-3.45 -37.15,-3.56 -36.2,-1.55 -35.25,-7.28 -34.29,-0.31 -33.34,0.96 -32.39,3 -31.43,-26.63 -30.48,-10.6 -29.53,-9.07 -28.58,-5.34 -27.62,-11.75 -26.67,-5.14 -25.72,-3.14 -24.77,-0.5 -23.81,-26.81 -22.86,-9.61 -21.91,-9.1 -20.96,-7.65 -20,-11.7 -19.05,-5.43 -18.1,-4.39 -17.15,-2.01 -16.19,-26.81 -15.24,-4.98 -14.29,-10.53 -13.34,-8.61 -12.38,-12.52 -11.43,-5.61 -10.48,-5.78 -9.53,-2.65 -8.57,-27.35 -7.62,-10.22 -6.67,-9 -5.72,-6.06 -4.76,-13.06 -3.81,-6.4 -2.86,-5.48 -1.91,-4.22 -0.95,-34.39 0,-6.85 0.95,-1.16 1.91,1.4 2.86,-9.74 3.81,2.54 4.76,-0.11 5.72,2.54 6.67,-29.94 7.62,0.74 8.57,-0.91 9.53,2.61 10.48,-18.09 11.43,-5.52 12.38,-6.7 13.34,-3.87 14.29,-36.25 15.24,-7.46 16.19,-9.57 17.15,-5.58 18.1,-18.5 19.05,-5.73 20,-1.17 20.96,2.15 21.91,-31.71 22.86,0.22 23.81,-1.9 24.77,1.81 25.72,-10.06 26.67,0.38 27.62,-1.77 28.58,1.87 29.53,-32.39 30.48,-0.15 31.43,-2.02 32.39,1.47 33.34,-9.72 34.29,0.63 35.25,-0.93 36.2,-5.05 37.15,-32.27 38.1,-9.61 39.06,-1.82 40.01,1.51 40.96,-9.98 41.91,0.36 42.87,-0.68 43.82,2.51 44.77,-31.51 45.72,-0.31 46.68,-1.86 47.63,1.07 48.58,-8.99 49.53,-0.07 50.49,-8.25 51.44,1.67 52.39,-31.89 53.34,-10.11 54.3,-1.54 55.25,0.52 56.2,-9.56 57.15,-0.15 58.11,-1.86 59.06,0.9 60.01,-33.5 60.96,-3.92 61.92,-5.44 62.87,-2.93 63.82,-10.04 64.77,-3.11 65.73,-5.09 66.68,-1.99 67.63,-33.07 68.59,-4.05 69.54,-5.81 70.49,-2.89 71.44,-12.26 72.4,-11.86 73.35,-4.68 74.3,-10.04 75.25,-33.78 76.21,-4.29 77.16,-5.82 78.11,-3.09 79.06,-20.8 80.02,-3.44 80.97,-12.77 81.92,-2.69 82.87,-33.81 83.83,-4.11 84.78,-6.05 85.73,-2.93 86.68,-18.31 87.64,-3.38 88.59,-11.97 89.54,-2.35 90.49,-33.54 91.45,-11.6 92.4,-6.04 93.35,-2.8 94.3,-12.1 95.26,-3.69 96.21,-4.81 97.16,-2.56 98.11,-33.54 99.07,-4.5 100.02,-4.55 100.97,-10.51 101.93,-11.85 102.88,-3.53 103.83,-4.98 104.78,-9.89 105.74,-39.69 106.69,-12.92 107.64,-12.51 108.59,-11.27 109.55,-17.16 110.5,-11.83 111.45,-12.4 112.4,-9.94 113.36,-34.83 114.31,-4.85 115.26,-6.61 116.21,-3 117.17,-12.03 118.12,-3.79 119.07,-4.75 120.02,-2.43 120.98,-44.48 " class="primitive"/>
            </g>
          </g>
        </g>
        <g stroke-width="0.3" fill="#000000" fill-opacity="0.000" class="geometry" id="img-0192ae67-99">
          <g class="color_RGB{Float64}(0.45187999999999995,0.172285,0.9716199999999999)" stroke-dasharray="none" stroke="#732CF8" id="img-0192ae67-100">
            <g transform="translate(142.84,137.65)" id="img-0192ae67-101">
              <path fill="none" d="M-120.98,40 L-120.02,38.03 -119.07,36.18 -118.12,35.42 -117.17,32.5 -116.21,31.69 -115.26,31.13 -114.31,31.09 -113.36,32.08 -112.4,31.77 -111.45,31.37 -110.5,31.28 -109.55,31.06 -108.59,30.88 -107.64,30.68 -106.69,31.35 -105.74,30.87 -104.78,30.41 -103.83,30.16 -102.88,30.29 -101.93,30.08 -100.97,30.04 -100.02,30.35 -99.07,29.96 -98.11,30.53 -97.16,29.87 -96.21,29.88 -95.26,29.71 -94.3,29.82 -93.35,29.99 -92.4,-24.14 -91.45,-12.73 -90.49,-9.46 -89.54,-4.51 -88.59,-1.18 -87.64,-1.63 -86.68,2.05 -85.73,5.08 -84.78,4.72 -83.83,8.25 -82.87,9.8 -81.92,11.55 -80.97,12.44 -80.02,14.12 -79.06,15.13 -78.11,16.63 -77.16,16.29 -76.21,18.18 -75.25,24.54 -74.3,24.67 -73.35,24.93 -72.4,20.56 -71.44,21.01 -70.49,21.84 -69.54,25.08 -68.59,23.39 -67.63,23.86 -66.68,24.45 -65.73,24.74 -64.77,25.6 -63.82,27.73 -62.87,26.11 -61.92,-54.01 -60.96,-35.59 -60.01,-22.1 -59.06,-17.53 -58.11,-17.26 -57.15,-10.63 -56.2,-7.47 -55.25,-4.75 -54.3,-9.39 -53.34,-4.81 -52.39,-1.94 -51.44,0.35 -50.49,0.6 -49.53,3.56 -48.58,5.08 -47.63,6.08 -46.68,3.01 -45.72,9.69 -44.77,13.81 -43.82,13.03 -42.87,14.43 -41.91,14.51 -40.96,14.95 -40.01,15.93 -39.06,14.51 -38.1,17.22 -37.15,17.75 -36.2,17.88 -35.25,18.04 -34.29,19.09 -33.34,19.34 -32.39,19.75 -31.43,-58.27 -30.48,-34.69 -29.53,-32.89 -28.58,-27.49 -27.62,-28.47 -26.67,-21.46 -25.72,-19.29 -24.77,-16.8 -23.81,-23.83 -22.86,-13.73 -21.91,-11.8 -20.96,-8.32 -20,-6.02 -19.05,-3.98 -18.1,-1.79 -17.15,-0.35 -16.19,-2.76 -15.24,3.85 -14.29,4.21 -13.34,5.48 -12.38,6.07 -11.43,7.12 -10.48,7.85 -9.53,8.69 -8.57,6.48 -7.62,10.45 -6.67,10.67 -5.72,11.48 -4.76,11.38 -3.81,12.56 -2.86,12.84 -1.91,13.53 -0.95,-63.5 0,-24.86 0.95,-18.24 1.91,-12.2 2.86,-20.81 3.81,-12.88 4.76,-11.94 5.72,-9.03 6.67,-23.42 7.62,-7.35 8.57,-8.86 9.53,-4.34 10.48,-9.49 11.43,-3.99 12.38,-2.44 13.34,-4.27 14.29,-10.46 15.24,-1.6 16.19,-1.02 17.15,3 18.1,0.65 19.05,3.39 20,5 20.96,5.9 21.91,1.78 22.86,7.2 23.81,7.8 24.77,8.29 25.72,8.64 26.67,9.39 27.62,9.84 28.58,10.35 29.53,-56.64 30.48,-16.49 31.43,-18.74 32.39,-14.66 33.34,-23.71 34.29,-13.04 35.25,-13.95 36.2,-18.2 37.15,-27.97 38.1,-15.12 39.06,-8.78 40.01,-6.97 40.96,-7.33 41.91,-5.19 42.87,-3.44 43.82,-2.52 44.77,-14.87 45.72,-4.18 46.68,-3.11 47.63,-1.83 48.58,-1.63 49.53,-0.45 50.49,-1.71 51.44,1.09 52.39,-3.95 53.34,0.56 54.3,2.86 55.25,3.66 56.2,4.19 57.15,5.11 58.11,5.48 59.06,6.34 60.01,-48.84 60.96,-20.75 61.92,-22.14 62.87,-19.59 63.82,-24.2 64.77,-17.23 65.73,-18.38 66.68,-15.62 67.63,-30.15 68.59,-13.95 69.54,-13.77 70.49,-11.6 71.44,-11.89 72.4,-12.9 73.35,-8.28 74.3,-10.44 75.25,-18 76.21,-5.27 77.16,-4.6 78.11,-3.53 79.06,-8.5 80.02,-4.77 80.97,-3.43 81.92,-3.17 82.87,-8.15 83.83,-1.58 84.78,-1.07 85.73,-0.16 86.68,-1.64 87.64,1.22 88.59,0.19 89.54,2.61 90.49,-50.31 91.45,-28.46 92.4,-21.33 93.35,-17.64 94.3,-25.49 95.26,-16.64 96.21,-17.85 97.16,-15.43 98.11,-32.66 99.07,-14.03 100.02,-14.11 100.97,-17.91 101.93,-13.8 102.88,-10.67 103.83,-10.72 104.78,-13.02 105.74,-21.73 106.69,-10.9 107.64,-5.33 108.59,-5.31 109.55,-8.12 110.5,-6.91 111.45,-6.14 112.4,-5.31 113.36,-11.63 114.31,-4.13 115.26,-0.8 116.21,-2.53 117.17,-2.58 118.12,-1.59 119.07,-0.06 120.02,0.14 120.98,-64.23 " class="primitive"/>
            </g>
          </g>
        </g>
        <g stroke-width="0.3" fill="#000000" fill-opacity="0.000" class="geometry" id="img-0192ae67-102">
          <g class="color_RGB{Float64}(1.0,0.0,0.0)" stroke-dasharray="none" stroke="#FF0000" id="img-0192ae67-103">
            <g transform="translate(142.84,138.45)" id="img-0192ae67-104">
              <path fill="none" d="M-120.98,38.6 L-120.02,37.76 -119.07,36.3 -118.12,35.34 -117.17,34.46 -116.21,33.78 -115.26,33.65 -114.31,26.57 -113.36,28.66 -112.4,28.2 -111.45,32.4 -110.5,30.38 -109.55,30.22 -108.59,27.19 -107.64,30.31 -106.69,30.18 -105.74,31.03 -104.78,31.03 -103.83,30.94 -102.88,27.85 -101.93,28.55 -100.97,30.75 -100.02,30.48 -99.07,29.74 -98.11,28.46 -97.16,28.37 -96.21,28.35 -95.26,29.1 -94.3,29.96 -93.35,29.87 -92.4,-29.61 -91.45,-16.46 -90.49,-8.63 -89.54,-5.2 -88.59,-4.56 -87.64,0.18 -86.68,1.93 -85.73,4.7 -84.78,4.24 -83.83,7.85 -82.87,9.27 -81.92,10.98 -80.97,11.59 -80.02,13.47 -79.06,14.18 -78.11,15.69 -77.16,15.39 -76.21,17.1 -75.25,18.35 -74.3,18.66 -73.35,18.82 -72.4,19.88 -71.44,20.31 -70.49,20.97 -69.54,20.6 -68.59,22.55 -67.63,23.08 -66.68,23.66 -65.73,23.88 -64.77,24.69 -63.82,25 -62.87,25.36 -61.92,-49.91 -60.96,-30.72 -60.01,-18.98 -59.06,-13.69 -58.11,-15.71 -57.15,-7.08 -56.2,-5.19 -55.25,-2.84 -54.3,-9.05 -53.34,-1.17 -52.39,-0.73 -51.44,0.76 -50.49,1.11 -49.53,3.83 -48.58,5.4 -47.63,5.86 -46.68,4.02 -45.72,8.84 -44.77,10.79 -43.82,11.16 -42.87,12.28 -41.91,13.66 -40.96,14.94 -40.01,15.65 -39.06,14.36 -38.1,17 -37.15,17.23 -36.2,17.92 -35.25,17.92 -34.29,18.79 -33.34,18.75 -32.39,19.58 -31.43,-57.93 -30.48,-25.92 -29.53,-27.03 -28.58,-22 -27.62,-26.93 -26.67,-18.37 -25.72,-17.22 -24.77,-15.3 -23.81,-22.92 -22.86,-12.71 -21.91,-10.88 -20.96,-7.9 -20,-7.23 -19.05,-3.68 -18.1,-2.5 -17.15,-0.54 -16.19,-2.03 -15.24,3.88 -14.29,3.74 -13.34,4.89 -12.38,5.76 -11.43,6.78 -10.48,7.82 -9.53,8.28 -8.57,6.02 -7.62,10.32 -6.67,10.78 -5.72,11.3 -4.76,11.83 -3.81,12.39 -2.86,12.79 -1.91,13.38 -0.95,-64.41 0,-26.54 0.95,-18.05 1.91,-17.25 2.86,-21.4 3.81,-13.01 4.76,-14.23 5.72,-14.47 6.67,-25.93 7.62,-9.4 8.57,-11.96 9.53,-9.5 10.48,-11.27 11.43,-8.27 12.38,-6.4 13.34,-5.32 14.29,-9.42 15.24,-2.29 16.19,-1.61 17.15,0.04 18.1,0.2 19.05,2.7 20,3.99 20.96,4.61 21.91,1.86 22.86,6.16 23.81,6.77 24.77,7.3 25.72,7.71 26.67,8.38 27.62,8.78 28.58,12.44 29.53,-49.76 30.48,-16.75 31.43,-18.69 32.39,-15.06 33.34,-22.85 34.29,-13.58 35.25,-14.72 36.2,-18.87 37.15,-24.5 38.1,-15.6 39.06,-10.37 40.01,-8.21 40.96,-8.21 41.91,-5.88 42.87,-6.62 43.82,-3.01 44.77,-13.26 45.72,-1.38 46.68,-0.84 47.63,-1.73 48.58,-1.9 49.53,-0.7 50.49,0.6 51.44,0.67 52.39,-3.23 53.34,0.39 54.3,2.43 55.25,3.84 56.2,3.8 57.15,4.43 58.11,4.83 59.06,5.62 60.01,-49.78 60.96,-16.29 61.92,-18.05 62.87,-15.06 63.82,-23.18 64.77,-13.24 65.73,-15.22 66.68,-12.36 67.63,-27.13 68.59,-11.27 69.54,-11.58 70.49,-9.68 71.44,-11.1 72.4,-12.06 73.35,-7.6 74.3,-9.71 75.25,-17.33 76.21,-4.79 77.16,-3.8 78.11,-2.97 79.06,-4.77 80.02,-1.72 80.97,-3.13 81.92,-2.86 82.87,-7.87 83.83,-1.28 84.78,-0.91 85.73,-0.16 86.68,-1.1 87.64,1.07 88.59,0.25 89.54,2.4 90.49,-48.73 91.45,-25.75 92.4,-18.15 93.35,-14.66 94.3,-22.9 95.26,-13.53 96.21,-15.12 97.16,-12.9 98.11,-30.69 99.07,-12.02 100.02,-12.41 100.97,-16.97 101.93,-12.81 102.88,-9.53 103.83,-9.52 104.78,-12.75 105.74,-25.84 106.69,-10.57 107.64,-9.09 108.59,-8.66 109.55,-8 110.5,-6.91 111.45,-6.09 112.4,-5.36 113.36,-11.43 114.31,-4.21 115.26,-3.77 116.21,-2.44 117.17,-2.33 118.12,-1.42 119.07,-0.7 120.02,0.17 120.98,-63.8 " class="primitive"/>
            </g>
          </g>
        </g>
        <g stroke-width="0.3" fill="#000000" fill-opacity="0.000" class="geometry" id="img-0192ae67-105">
          <g class="color_RGB{Float64}(0.0,0.0,0.0)" stroke-dasharray="none" stroke="#000000" id="img-0192ae67-106">
            <g transform="translate(142.84,96.55)" id="img-0192ae67-107">
              <path fill="none" d="M-120.98,81.66 L-120.02,77.28 -119.07,76.86 -118.12,67.05 -117.17,61.36 -116.21,55.95 -115.26,48.58 -114.31,54.57 -113.36,50.06 -112.4,44.94 -111.45,41.59 -110.5,42.48 -109.55,36.71 -108.59,27.71 -107.64,14.54 -106.69,28.53 -105.74,23.62 -104.78,28.87 -103.83,14.06 -102.88,17.4 -101.93,11.08 -100.97,6.99 -100.02,-17.11 -99.07,6.98 -98.11,5.72 -97.16,-0.35 -96.21,-0.14 -95.26,-6.69 -94.3,-9.45 -93.35,-15.3 -92.4,-38.7 -91.45,-5.65 -90.49,-10.83 -89.54,-14.64 -88.59,-26.68 -87.64,-22.15 -86.68,-27.58 -85.73,-30.46 -84.78,-55.81 -83.83,-20.24 -82.87,-27.81 -81.92,-28.97 -80.97,-43.07 -80.02,-37.8 -79.06,-43.01 -78.11,-42.61 -77.16,-74.52 -76.21,-31.17 -75.25,-37.79 -74.3,-30.92 -73.35,-48.12 -72.4,-35.72 -71.44,-49.89 -70.49,-42.36 -69.54,-77.57 -68.59,-24.39 -67.63,-37.82 -66.68,-33.49 -65.73,-53.43 -64.77,-30.77 -63.82,-29.49 -62.87,-29.94 -61.92,-78.07 -60.96,-2.67 -60.01,-0.74 -59.06,8.62 -58.11,-0.49 -57.15,17.12 -56.2,11.9 -55.25,15.91 -54.3,-39.19 -53.34,16.97 -52.39,12.26 -51.44,17.06 -50.49,0.68 -49.53,16.72 -48.58,11.79 -47.63,14.36 -46.68,-38.17 -45.72,16.98 -44.77,13.1 -43.82,15.52 -42.87,-2.55 -41.91,15.44 -40.96,12.01 -40.01,16.36 -39.06,-41.11 -38.1,17.97 -37.15,11.59 -36.2,16.74 -35.25,-0.15 -34.29,16.18 -33.34,10.63 -32.39,16.03 -31.43,-30.74 -30.48,15.97 -29.53,9.52 -28.58,14.07 -27.62,-5.05 -26.67,13.81 -25.72,7.82 -24.77,13.88 -23.81,-44.2 -22.86,14.95 -21.91,9.41 -20.96,14.09 -20,-5.33 -19.05,13.49 -18.1,7.16 -17.15,13.07 -16.19,-42.42 -15.24,15.01 -14.29,7.69 -13.34,12.43 -12.38,-5.89 -11.43,11.96 -10.48,6.75 -9.53,10.78 -8.57,-50.44 -7.62,12.78 -6.67,6.65 -5.72,11.41 -4.76,-6.43 -3.81,12.7 -2.86,4.96 -1.91,11.99 -0.95,-34.67 0,14.69 0.95,9.7 1.91,14.99 2.86,-3.7 3.81,13.67 4.76,7.84 5.72,13.26 6.67,-49.84 7.62,14.47 8.57,8.8 9.53,13.87 10.48,-8.35 11.43,11.55 12.38,3.69 13.34,11.38 14.29,-47.66 15.24,12.74 16.19,6.21 17.15,11.27 18.1,-7.93 19.05,10.08 20,6.99 20.96,12.89 21.91,-50.65 22.86,13.74 23.81,7.49 24.77,11.19 25.72,-6.84 26.67,13.02 27.62,5.3 28.58,13.18 29.53,-37.78 30.48,15.07 31.43,9.24 32.39,13.26 33.34,-5.53 34.29,12.81 35.25,6.79 36.2,11.27 37.15,-52.73 38.1,12.47 39.06,8.86 40.01,13.49 40.96,-1.94 41.91,13.86 42.87,7.08 43.82,12.67 44.77,-48.56 45.72,13.43 46.68,7.16 47.63,12.94 48.58,-6.62 49.53,12.32 50.49,4.39 51.44,12.27 52.39,-54.47 53.34,10.98 54.3,6.74 55.25,12.66 56.2,-6.35 57.15,12.18 58.11,6.33 59.06,12.55 60.01,-40.22 60.96,13.81 61.92,7.66 62.87,12.64 63.82,-6.85 64.77,12.19 65.73,5.87 66.68,12.05 67.63,-52.62 68.59,12.96 69.54,6.44 70.49,12.67 71.44,-6.48 72.4,11.3 73.35,7.07 74.3,10.31 75.25,-49.19 76.21,12.83 77.16,6.59 78.11,12.33 79.06,-9.89 80.02,12.01 80.97,3.75 81.92,11.88 82.87,-55.53 83.83,12.37 84.78,6.26 85.73,12.32 86.68,-9.69 87.64,12.08 88.59,3.76 89.54,12.15 90.49,-42.13 91.45,11.52 92.4,6.88 93.35,12.22 94.3,-7.15 95.26,11.89 96.21,5.73 97.16,11.68 98.11,-55.67 99.07,12.34 100.02,6.13 100.97,10.38 101.93,-7.29 102.88,11.95 103.83,5.64 104.78,10 105.74,-53.61 106.69,10.76 107.64,4.23 108.59,10.14 109.55,-10.39 110.5,10.09 111.45,3.63 112.4,9.99 113.36,-55.73 114.31,12.43 115.26,6.37 116.21,12.52 117.17,-6.53 118.12,13.15 119.07,7.9 120.02,15.51 120.98,-39.42 " class="primitive"/>
            </g>
          </g>
        </g>
      </g>
    </g>
  </g>
  <g class="guide ylabels" font-size="2.82" font-family="'PT Sans Caption','Helvetica Neue','Helvetica',sans-serif" fill="#6C606B" id="img-0192ae67-108">
    <g transform="translate(16.96,181.91)" id="img-0192ae67-109">
      <g class="primitive">
        <text text-anchor="end" dy="0.35em">0</text>
      </g>
    </g>
    <g transform="translate(16.96,146.93)" id="img-0192ae67-110">
      <g class="primitive">
        <text text-anchor="end" dy="0.35em">10</text>
      </g>
    </g>
    <g transform="translate(16.96,111.95)" id="img-0192ae67-111">
      <g class="primitive">
        <text text-anchor="end" dy="0.35em">20</text>
      </g>
    </g>
    <g transform="translate(16.96,76.97)" id="img-0192ae67-112">
      <g class="primitive">
        <text text-anchor="end" dy="0.35em">30</text>
      </g>
    </g>
    <g transform="translate(16.96,41.98)" id="img-0192ae67-113">
      <g class="primitive">
        <text text-anchor="end" dy="0.35em">40</text>
      </g>
    </g>
    <g transform="translate(16.96,7)" id="img-0192ae67-114">
      <g class="primitive">
        <text text-anchor="end" dy="0.35em">50</text>
      </g>
    </g>
  </g>
  <g font-size="3.88" font-family="'PT Sans','Helvetica Neue','Helvetica',sans-serif" fill="#564A55" stroke="#000000" stroke-opacity="0.000" id="img-0192ae67-115">
    <g transform="translate(8.81,92.46)" id="img-0192ae67-116">
      <g class="primitive">
        <text text-anchor="middle" dy="0.35em" transform="rotate(-90,0, 2)">GFLOPS</text>
      </g>
    </g>
  </g>
</g>
<defs>
  <clipPath id="img-0192ae67-45">
    <path d="M17.96,5 L269.63,5 269.63,183.92 17.96,183.92 " />
  </clipPath>
</defs>
</svg>
