<?xml version="1.0" encoding="utf-8"?>
<!DOCTYPE svg PUBLIC "-//W3C//DTD SVG 1.1//EN" "http://www.w3.org/Graphics/SVG/1.1/DTD/svg11.dtd">
<svg class="marks" width="1084" height="647" viewBox="0 0 1084 647" version="1.1" xmlns="http://www.w3.org/2000/svg" xmlns:xlink="http://www.w3.org/1999/xlink"><rect width="1084" height="647" style="fill: white;"></rect><g transform="translate(42,10)"><g class="mark-group role-frame root"><g transform="translate(0,0)"><path class="background" d="M0.5,0.5h900v600h-900Z" style="fill: none; stroke: #ddd;"></path><g><g class="mark-group role-axis"><g transform="translate(0.5,600.5)"><path class="background" d="M0,0h0v0h0Z" style="pointer-events: none; fill: none;"></path><g><g class="mark-rule role-axis-grid" style="pointer-events: none;"><line transform="translate(0,-600)" x2="0" y2="600" style="fill: none; stroke: #ddd; stroke-width: 1; opacity: 1;"></line><line transform="translate(35,-600)" x2="0" y2="600" style="fill: none; stroke: #ddd; stroke-width: 1; opacity: 1;"></line><line transform="translate(69,-600)" x2="0" y2="600" style="fill: none; stroke: #ddd; stroke-width: 1; opacity: 1;"></line><line transform="translate(104,-600)" x2="0" y2="600" style="fill: none; stroke: #ddd; stroke-width: 1; opacity: 1;"></line><line transform="translate(138,-600)" x2="0" y2="600" style="fill: none; stroke: #ddd; stroke-width: 1; opacity: 1;"></line><line transform="translate(173,-600)" x2="0" y2="600" style="fill: none; stroke: #ddd; stroke-width: 1; opacity: 1;"></line><line transform="translate(208,-600)" x2="0" y2="600" style="fill: none; stroke: #ddd; stroke-width: 1; opacity: 1;"></line><line transform="translate(242,-600)" x2="0" y2="600" style="fill: none; stroke: #ddd; stroke-width: 1; opacity: 1;"></line><line transform="translate(277,-600)" x2="0" y2="600" style="fill: none; stroke: #ddd; stroke-width: 1; opacity: 1;"></line><line transform="translate(312,-600)" x2="0" y2="600" style="fill: none; stroke: #ddd; stroke-width: 1; opacity: 1;"></line><line transform="translate(346,-600)" x2="0" y2="600" style="fill: none; stroke: #ddd; stroke-width: 1; opacity: 1;"></line><line transform="translate(381,-600)" x2="0" y2="600" style="fill: none; stroke: #ddd; stroke-width: 1; opacity: 1;"></line><line transform="translate(415,-600)" x2="0" y2="600" style="fill: none; stroke: #ddd; stroke-width: 1; opacity: 1;"></line><line transform="translate(450,-600)" x2="0" y2="600" style="fill: none; stroke: #ddd; stroke-width: 1; opacity: 1;"></line><line transform="translate(485,-600)" x2="0" y2="600" style="fill: none; stroke: #ddd; stroke-width: 1; opacity: 1;"></line><line transform="translate(519,-600)" x2="0" y2="600" style="fill: none; stroke: #ddd; stroke-width: 1; opacity: 1;"></line><line transform="translate(554,-600)" x2="0" y2="600" style="fill: none; stroke: #ddd; stroke-width: 1; opacity: 1;"></line><line transform="translate(588,-600)" x2="0" y2="600" style="fill: none; stroke: #ddd; stroke-width: 1; opacity: 1;"></line><line transform="translate(623,-600)" x2="0" y2="600" style="fill: none; stroke: #ddd; stroke-width: 1; opacity: 1;"></line><line transform="translate(658,-600)" x2="0" y2="600" style="fill: none; stroke: #ddd; stroke-width: 1; opacity: 1;"></line><line transform="translate(692,-600)" x2="0" y2="600" style="fill: none; stroke: #ddd; stroke-width: 1; opacity: 1;"></line><line transform="translate(727,-600)" x2="0" y2="600" style="fill: none; stroke: #ddd; stroke-width: 1; opacity: 1;"></line><line transform="translate(762,-600)" x2="0" y2="600" style="fill: none; stroke: #ddd; stroke-width: 1; opacity: 1;"></line><line transform="translate(796,-600)" x2="0" y2="600" style="fill: none; stroke: #ddd; stroke-width: 1; opacity: 1;"></line><line transform="translate(831,-600)" x2="0" y2="600" style="fill: none; stroke: #ddd; stroke-width: 1; opacity: 1;"></line><line transform="translate(865,-600)" x2="0" y2="600" style="fill: none; stroke: #ddd; stroke-width: 1; opacity: 1;"></line><line transform="translate(900,-600)" x2="0" y2="600" style="fill: none; stroke: #ddd; stroke-width: 1; opacity: 1;"></line></g></g><path class="foreground" d="" style="pointer-events: none; display: none; fill: none;"></path></g></g><g class="mark-group role-axis"><g transform="translate(0.5,0.5)"><path class="background" d="M0,0h0v0h0Z" style="pointer-events: none; fill: none;"></path><g><g class="mark-rule role-axis-grid" style="pointer-events: none;"><line transform="translate(0,600)" x2="900" y2="0" style="fill: none; stroke: #ddd; stroke-width: 1; opacity: 1;"></line><line transform="translate(0,554)" x2="900" y2="0" style="fill: none; stroke: #ddd; stroke-width: 1; opacity: 1;"></line><line transform="translate(0,508)" x2="900" y2="0" style="fill: none; stroke: #ddd; stroke-width: 1; opacity: 1;"></line><line transform="translate(0,462)" x2="900" y2="0" style="fill: none; stroke: #ddd; stroke-width: 1; opacity: 1;"></line><line transform="translate(0,415)" x2="900" y2="0" style="fill: none; stroke: #ddd; stroke-width: 1; opacity: 1;"></line><line transform="translate(0,369)" x2="900" y2="0" style="fill: none; stroke: #ddd; stroke-width: 1; opacity: 1;"></line><line transform="translate(0,323)" x2="900" y2="0" style="fill: none; stroke: #ddd; stroke-width: 1; opacity: 1;"></line><line transform="translate(0,277)" x2="900" y2="0" style="fill: none; stroke: #ddd; stroke-width: 1; opacity: 1;"></line><line transform="translate(0,231)" x2="900" y2="0" style="fill: none; stroke: #ddd; stroke-width: 1; opacity: 1;"></line><line transform="translate(0,185)" x2="900" y2="0" style="fill: none; stroke: #ddd; stroke-width: 1; opacity: 1;"></line><line transform="translate(0,138)" x2="900" y2="0" style="fill: none; stroke: #ddd; stroke-width: 1; opacity: 1;"></line><line transform="translate(0,92)" x2="900" y2="0" style="fill: none; stroke: #ddd; stroke-width: 1; opacity: 1;"></line><line transform="translate(0,46)" x2="900" y2="0" style="fill: none; stroke: #ddd; stroke-width: 1; opacity: 1;"></line><line transform="translate(0,0)" x2="900" y2="0" style="fill: none; stroke: #ddd; stroke-width: 1; opacity: 1;"></line></g></g><path class="foreground" d="" style="pointer-events: none; display: none; fill: none;"></path></g></g><g class="mark-group role-axis"><g transform="translate(0.5,600.5)"><path class="background" d="M0,0h0v0h0Z" style="pointer-events: none; fill: none;"></path><g><g class="mark-rule role-axis-tick" style="pointer-events: none;"><line transform="translate(0,0)" x2="0" y2="5" style="fill: none; stroke: #888; stroke-width: 1; opacity: 1;"></line><line transform="translate(35,0)" x2="0" y2="5" style="fill: none; stroke: #888; stroke-width: 1; opacity: 1;"></line><line transform="translate(69,0)" x2="0" y2="5" style="fill: none; stroke: #888; stroke-width: 1; opacity: 1;"></line><line transform="translate(104,0)" x2="0" y2="5" style="fill: none; stroke: #888; stroke-width: 1; opacity: 1;"></line><line transform="translate(138,0)" x2="0" y2="5" style="fill: none; stroke: #888; stroke-width: 1; opacity: 1;"></line><line transform="translate(173,0)" x2="0" y2="5" style="fill: none; stroke: #888; stroke-width: 1; opacity: 1;"></line><line transform="translate(208,0)" x2="0" y2="5" style="fill: none; stroke: #888; stroke-width: 1; opacity: 1;"></line><line transform="translate(242,0)" x2="0" y2="5" style="fill: none; stroke: #888; stroke-width: 1; opacity: 1;"></line><line transform="translate(277,0)" x2="0" y2="5" style="fill: none; stroke: #888; stroke-width: 1; opacity: 1;"></line><line transform="translate(312,0)" x2="0" y2="5" style="fill: none; stroke: #888; stroke-width: 1; opacity: 1;"></line><line transform="translate(346,0)" x2="0" y2="5" style="fill: none; stroke: #888; stroke-width: 1; opacity: 1;"></line><line transform="translate(381,0)" x2="0" y2="5" style="fill: none; stroke: #888; stroke-width: 1; opacity: 1;"></line><line transform="translate(415,0)" x2="0" y2="5" style="fill: none; stroke: #888; stroke-width: 1; opacity: 1;"></line><line transform="translate(450,0)" x2="0" y2="5" style="fill: none; stroke: #888; stroke-width: 1; opacity: 1;"></line><line transform="translate(485,0)" x2="0" y2="5" style="fill: none; stroke: #888; stroke-width: 1; opacity: 1;"></line><line transform="translate(519,0)" x2="0" y2="5" style="fill: none; stroke: #888; stroke-width: 1; opacity: 1;"></line><line transform="translate(554,0)" x2="0" y2="5" style="fill: none; stroke: #888; stroke-width: 1; opacity: 1;"></line><line transform="translate(588,0)" x2="0" y2="5" style="fill: none; stroke: #888; stroke-width: 1; opacity: 1;"></line><line transform="translate(623,0)" x2="0" y2="5" style="fill: none; stroke: #888; stroke-width: 1; opacity: 1;"></line><line transform="translate(658,0)" x2="0" y2="5" style="fill: none; stroke: #888; stroke-width: 1; opacity: 1;"></line><line transform="translate(692,0)" x2="0" y2="5" style="fill: none; stroke: #888; stroke-width: 1; opacity: 1;"></line><line transform="translate(727,0)" x2="0" y2="5" style="fill: none; stroke: #888; stroke-width: 1; opacity: 1;"></line><line transform="translate(762,0)" x2="0" y2="5" style="fill: none; stroke: #888; stroke-width: 1; opacity: 1;"></line><line transform="translate(796,0)" x2="0" y2="5" style="fill: none; stroke: #888; stroke-width: 1; opacity: 1;"></line><line transform="translate(831,0)" x2="0" y2="5" style="fill: none; stroke: #888; stroke-width: 1; opacity: 1;"></line><line transform="translate(865,0)" x2="0" y2="5" style="fill: none; stroke: #888; stroke-width: 1; opacity: 1;"></line><line transform="translate(900,0)" x2="0" y2="5" style="fill: none; stroke: #888; stroke-width: 1; opacity: 1;"></line></g><g class="mark-text role-axis-label" style="pointer-events: none;"><text text-anchor="start" transform="translate(0,15)" style="font-family: sans-serif; font-size: 10px; fill: #000; opacity: 1;">0</text><text text-anchor="middle" transform="translate(34.61538461538462,15)" style="font-family: sans-serif; font-size: 10px; fill: #000; opacity: 1;">10</text><text text-anchor="middle" transform="translate(69.23076923076924,15)" style="font-family: sans-serif; font-size: 10px; fill: #000; opacity: 1;">20</text><text text-anchor="middle" transform="translate(103.84615384615385,15)" style="font-family: sans-serif; font-size: 10px; fill: #000; opacity: 1;">30</text><text text-anchor="middle" transform="translate(138.46153846153848,15)" style="font-family: sans-serif; font-size: 10px; fill: #000; opacity: 1;">40</text><text text-anchor="middle" transform="translate(173.0769230769231,15)" style="font-family: sans-serif; font-size: 10px; fill: #000; opacity: 1;">50</text><text text-anchor="middle" transform="translate(207.6923076923077,15)" style="font-family: sans-serif; font-size: 10px; fill: #000; opacity: 1;">60</text><text text-anchor="middle" transform="translate(242.3076923076923,15)" style="font-family: sans-serif; font-size: 10px; fill: #000; opacity: 1;">70</text><text text-anchor="middle" transform="translate(276.92307692307696,15)" style="font-family: sans-serif; font-size: 10px; fill: #000; opacity: 1;">80</text><text text-anchor="middle" transform="translate(311.53846153846155,15)" style="font-family: sans-serif; font-size: 10px; fill: #000; opacity: 1;">90</text><text text-anchor="middle" transform="translate(346.1538461538462,15)" style="font-family: sans-serif; font-size: 10px; fill: #000; opacity: 1;">100</text><text text-anchor="middle" transform="translate(380.7692307692308,15)" style="font-family: sans-serif; font-size: 10px; fill: #000; opacity: 1;">110</text><text text-anchor="middle" transform="translate(415.3846153846154,15)" style="font-family: sans-serif; font-size: 10px; fill: #000; opacity: 1;">120</text><text text-anchor="middle" transform="translate(450,15)" style="font-family: sans-serif; font-size: 10px; fill: #000; opacity: 1;">130</text><text text-anchor="middle" transform="translate(484.6153846153846,15)" style="font-family: sans-serif; font-size: 10px; fill: #000; opacity: 1;">140</text><text text-anchor="middle" transform="translate(519.2307692307692,15)" style="font-family: sans-serif; font-size: 10px; fill: #000; opacity: 1;">150</text><text text-anchor="middle" transform="translate(553.8461538461539,15)" style="font-family: sans-serif; font-size: 10px; fill: #000; opacity: 1;">160</text><text text-anchor="middle" transform="translate(588.4615384615385,15)" style="font-family: sans-serif; font-size: 10px; fill: #000; opacity: 1;">170</text><text text-anchor="middle" transform="translate(623.0769230769231,15)" style="font-family: sans-serif; font-size: 10px; fill: #000; opacity: 1;">180</text><text text-anchor="middle" transform="translate(657.6923076923076,15)" style="font-family: sans-serif; font-size: 10px; fill: #000; opacity: 1;">190</text><text text-anchor="middle" transform="translate(692.3076923076924,15)" style="font-family: sans-serif; font-size: 10px; fill: #000; opacity: 1;">200</text><text text-anchor="middle" transform="translate(726.9230769230769,15)" style="font-family: sans-serif; font-size: 10px; fill: #000; opacity: 1;">210</text><text text-anchor="middle" transform="translate(761.5384615384615,15)" style="font-family: sans-serif; font-size: 10px; fill: #000; opacity: 1;">220</text><text text-anchor="middle" transform="translate(796.1538461538461,15)" style="font-family: sans-serif; font-size: 10px; fill: #000; opacity: 1;">230</text><text text-anchor="middle" transform="translate(830.7692307692308,15)" style="font-family: sans-serif; font-size: 10px; fill: #000; opacity: 1;">240</text><text text-anchor="middle" transform="translate(865.3846153846154,15)" style="font-family: sans-serif; font-size: 10px; fill: #000; opacity: 1;">250</text><text text-anchor="end" transform="translate(900,15)" style="font-family: sans-serif; font-size: 10px; fill: #000; opacity: 1;">260</text></g><g class="mark-rule role-axis-domain" style="pointer-events: none;"><line transform="translate(0,0)" x2="900" y2="0" style="fill: none; stroke: #888; stroke-width: 1; opacity: 1;"></line></g><g class="mark-text role-axis-title" style="pointer-events: none;"><text text-anchor="middle" transform="translate(450,30)" style="font-family: sans-serif; font-size: 11px; font-weight: bold; fill: #000; opacity: 1;">Size</text></g></g><path class="foreground" d="" style="pointer-events: none; display: none; fill: none;"></path></g></g><g class="mark-group role-axis"><g transform="translate(0.5,0.5)"><path class="background" d="M0,0h0v0h0Z" style="pointer-events: none; fill: none;"></path><g><g class="mark-rule role-axis-tick" style="pointer-events: none;"><line transform="translate(0,600)" x2="-5" y2="0" style="fill: none; stroke: #888; stroke-width: 1; opacity: 1;"></line><line transform="translate(0,554)" x2="-5" y2="0" style="fill: none; stroke: #888; stroke-width: 1; opacity: 1;"></line><line transform="translate(0,508)" x2="-5" y2="0" style="fill: none; stroke: #888; stroke-width: 1; opacity: 1;"></line><line transform="translate(0,462)" x2="-5" y2="0" style="fill: none; stroke: #888; stroke-width: 1; opacity: 1;"></line><line transform="translate(0,415)" x2="-5" y2="0" style="fill: none; stroke: #888; stroke-width: 1; opacity: 1;"></line><line transform="translate(0,369)" x2="-5" y2="0" style="fill: none; stroke: #888; stroke-width: 1; opacity: 1;"></line><line transform="translate(0,323)" x2="-5" y2="0" style="fill: none; stroke: #888; stroke-width: 1; opacity: 1;"></line><line transform="translate(0,277)" x2="-5" y2="0" style="fill: none; stroke: #888; stroke-width: 1; opacity: 1;"></line><line transform="translate(0,231)" x2="-5" y2="0" style="fill: none; stroke: #888; stroke-width: 1; opacity: 1;"></line><line transform="translate(0,185)" x2="-5" y2="0" style="fill: none; stroke: #888; stroke-width: 1; opacity: 1;"></line><line transform="translate(0,138)" x2="-5" y2="0" style="fill: none; stroke: #888; stroke-width: 1; opacity: 1;"></line><line transform="translate(0,92)" x2="-5" y2="0" style="fill: none; stroke: #888; stroke-width: 1; opacity: 1;"></line><line transform="translate(0,46)" x2="-5" y2="0" style="fill: none; stroke: #888; stroke-width: 1; opacity: 1;"></line><line transform="translate(0,0)" x2="-5" y2="0" style="fill: none; stroke: #888; stroke-width: 1; opacity: 1;"></line></g><g class="mark-text role-axis-label" style="pointer-events: none;"><text text-anchor="end" transform="translate(-7,603)" style="font-family: sans-serif; font-size: 10px; fill: #000; opacity: 1;">0.0</text><text text-anchor="end" transform="translate(-7,556.8461538461539)" style="font-family: sans-serif; font-size: 10px; fill: #000; opacity: 1;">0.1</text><text text-anchor="end" transform="translate(-7,510.6923076923077)" style="font-family: sans-serif; font-size: 10px; fill: #000; opacity: 1;">0.2</text><text text-anchor="end" transform="translate(-7,464.53846153846155)" style="font-family: sans-serif; font-size: 10px; fill: #000; opacity: 1;">0.3</text><text text-anchor="end" transform="translate(-7,418.38461538461536)" style="font-family: sans-serif; font-size: 10px; fill: #000; opacity: 1;">0.4</text><text text-anchor="end" transform="translate(-7,372.2307692307692)" style="font-family: sans-serif; font-size: 10px; fill: #000; opacity: 1;">0.5</text><text text-anchor="end" transform="translate(-7,326.07692307692315)" style="font-family: sans-serif; font-size: 10px; fill: #000; opacity: 1;">0.6</text><text text-anchor="end" transform="translate(-7,279.92307692307696)" style="font-family: sans-serif; font-size: 10px; fill: #000; opacity: 1;">0.7</text><text text-anchor="end" transform="translate(-7,233.76923076923075)" style="font-family: sans-serif; font-size: 10px; fill: #000; opacity: 1;">0.8</text><text text-anchor="end" transform="translate(-7,187.6153846153846)" style="font-family: sans-serif; font-size: 10px; fill: #000; opacity: 1;">0.9</text><text text-anchor="end" transform="translate(-7,141.4615384615385)" style="font-family: sans-serif; font-size: 10px; fill: #000; opacity: 1;">1.0</text><text text-anchor="end" transform="translate(-7,95.3076923076923)" style="font-family: sans-serif; font-size: 10px; fill: #000; opacity: 1;">1.1</text><text text-anchor="end" transform="translate(-7,49.15384615384619)" style="font-family: sans-serif; font-size: 10px; fill: #000; opacity: 1;">1.2</text><text text-anchor="end" transform="translate(-7,3)" style="font-family: sans-serif; font-size: 10px; fill: #000; opacity: 1;">1.3</text></g><g class="mark-rule role-axis-domain" style="pointer-events: none;"><line transform="translate(0,600)" x2="0" y2="-600" style="fill: none; stroke: #888; stroke-width: 1; opacity: 1;"></line></g><g class="mark-text role-axis-title" style="pointer-events: none;"><text text-anchor="middle" transform="translate(-26,300) rotate(-90) translate(0,-2)" style="font-family: sans-serif; font-size: 11px; font-weight: bold; fill: #000; opacity: 1;">GFLOPS</text></g></g><path class="foreground" d="" style="pointer-events: none; display: none; fill: none;"></path></g></g><g class="mark-group role-scope pathgroup"><g transform="translate(0,0)"><path class="background" d="M0,0h900v600h-900Z" style="fill: none;"></path><g><g class="mark-line role-mark marks"><path d="M6.923076923076923,534.1884005407367L10.384615384615385,501.8993217488177L13.846153846153847,469.15264977902575L17.30769230769231,436.5916756721354L20.76923076923077,403.8543429600917L24.230769230769234,371.2283459409896L27.692307692307693,375.9788998162152L31.153846153846157,409.8699095022624L34.61538461538462,388.724925226442L38.07692307692308,377.22198499359484L41.53846153846154,355.9479851211037L45,333.60674007043195L48.46153846153847,304.40509334501616L51.92307692307693,296.1716406528039L55.38461538461539,260.98164854899204L58.84615384615385,327.2976429746026L62.307692307692314,326.28041519950426L65.76923076923077,308.31769019908353L69.23076923076924,283.4419457980498L72.6923076923077,284.2431355560816L76.15384615384616,254.26470046277032L79.61538461538461,233.54585947653982L83.07692307692308,241.74980352503613L86.53846153846155,306.0943934740314L90,297.9195773109457L93.46153846153847,278.6942990663557L96.92307692307693,285.2054732420119L100.38461538461539,271.39467741474425L103.84615384615385,242.59380960777085L107.3076923076923,229.3518196738107L110.76923076923077,218.61051872766046L114.23076923076923,293.5359048511262L117.6923076923077,272.6489590811199L121.15384615384615,265.8291457286432L124.61538461538463,248.83071794214246L128.07692307692307,238.73632250102847L131.53846153846155,229.97763377480507L135,206.72268907563017L138.46153846153848,190.90180505788493L141.9230769230769,258.117147247582L145.3846153846154,247.80624571241088L148.84615384615384,235.80964185193793L152.30769230769232,233.62314920092814L155.76923076923077,224.18127477372448L159.23076923076923,220.2664252999275L162.69230769230768,214.65629538994256L166.15384615384616,196.65930166096513L169.6153846153846,234.1941848403631L173.0769230769231,258.987492721231L176.53846153846155,219.5145346513549L180,229.6051075904469L183.46153846153845,215.22146994045184L186.92307692307693,215.30110201339846L190.3846153846154,189.44792074376426L193.84615384615387,189.23129317044626L197.3076923076923,222.9857188985255L200.76923076923077,225.7556335065701L204.23076923076923,219.21022754882515L207.6923076923077,214.04587419799483L211.15384615384616,196.04846276226863L214.6153846153846,199.97438620741423L218.07692307692307,193.72977176475268L221.53846153846155,184.80587729873386L225,223.2418602838998L228.46153846153845,221.95480357484502L231.9230769230769,228.0650028217029L235.3846153846154,195.9313210929204L238.84615384615384,211.49003428280548L242.3076923076923,200.62515287463248L245.76923076923075,195.29191001906904L249.23076923076925,199.48457166524764L252.6923076923077,221.3150763394871L256.15384615384613,215.416194854351L259.6153846153846,198.2692098457521L263.0769230769231,189.51854508629046L266.53846153846155,186.61186142102176L270,189.67640508319138L273.46153846153845,190.92181377122597L276.92307692307696,173.1384682220972L280.3846153846154,199.25771105586955L283.8461538461538,204.85694978626617L287.30769230769226,189.39939542529183L290.7692307692308,211.24933509497416L294.2307692307692,179.74774455948977L297.6923076923077,192.69428315654181L301.15384615384613,170.17449580662276L304.61538461538464,173.8520421112476L308.0769230769231,204.44789152164248L311.53846153846155,228.0244198381107L315,195.6362592406517L318.46153846153845,180.60699327095475L321.9230769230769,186.52445443311075L325.38461538461536,183.37038683859487L328.8461538461538,178.18639774667068L332.3076923076923,176.4755629162408L335.7692307692308,207.01362004218927L339.2307692307692,187.54788013600106L342.6923076923077,191.98165687915406L346.1538461538462,176.7499498842782L349.61538461538464,172.59339227717268L353.0769230769231,191.8443423838495L356.53846153846155,175.8687771458079L360,169.9757869249395L363.46153846153845,198.93960195066077L366.9230769230769,181.8106950538058L370.38461538461536,189.0053021191537L373.84615384615387,175.04538181713824L377.3076923076923,170.69416494658773L380.7692307692308,166.27070451188644L384.2307692307692,173.72315313694153L387.69230769230774,167.60552413446484L391.1538461538462,192.84916111455496L394.6153846153846,196.44700979742572L398.07692307692304,185.6172559384241L401.53846153846155,184.5597280085824L405,182.03751481765562L408.46153846153845,163.97772950840138L411.9230769230769,188.26867223813787L415.3846153846154,169.70026543764902L418.84615384615387,190.2518419858349L422.3076923076923,175.79512846580957L425.7692307692308,183.3177582570154L429.2307692307692,179.95239007727932L432.6923076923077,165.57148144634454L436.15384615384613,172.93061422352704L439.6153846153846,231.6127977998193L443.0769230769231,164.64315477334614L446.53846153846155,187.7940220592716L450,183.98181773265145L453.46153846153845,192.92183986236773L456.9230769230769,177.6615283284145L460.38461538461536,174.78407468535153L463.8461538461538,171.1337379965293L467.3076923076923,160.72498929641782L470.7692307692308,174.94819307238646L474.2307692307692,191.4929144893289L477.6923076923077,171.98736187574L481.15384615384613,178.9478293890333L484.6153846153846,175.91210490321427L488.07692307692304,176.77752363711969L491.5384615384615,173.11726178479907L495.00000000000006,177.94059090547108L498.4615384615385,150.29158996288484L501.92307692307696,176.40811231971455L505.3846153846154,180.02338102089894L508.8461538461538,177.85416778155047L512.3076923076923,179.9229010575828L515.7692307692307,169.80319552398277L519.2307692307692,185.04298270737615L522.6923076923077,168.09875927788988L526.1538461538462,160.18540497994775L529.6153846153846,195.33859727533064L533.0769230769231,188.62119860150065L536.5384615384615,176.19255918202182L540,163.0833277378634L543.4615384615385,175.8453289811403L546.9230769230769,177.48407517735075L550.3846153846155,239.09617128112137L553.8461538461539,180.296004472336L557.3076923076924,202.90909090909088L560.7692307692308,197.70368208860117L564.2307692307692,190.91347855465102L567.6923076923076,180.33596235900836L571.1538461538461,194.45427651557202L574.6153846153845,179.9529344854303L578.0769230769231,195.2691223842676L581.5384615384615,177.14951578615853L585,188.48356949050347L588.4615384615385,213.0725999022871L591.9230769230769,192.38186145203838L595.3846153846154,191.3614640330573L598.8461538461538,188.5668080170017L602.3076923076923,202.91768444718667L605.7692307692308,198.88158269054136L609.2307692307693,197.09045160108772L612.6923076923077,200.75493242054986L616.1538461538462,217.8924728837908L619.6153846153846,195.7666351595395L623.0769230769231,210.55531253643883L626.5384615384615,213.7303628819293L630,209.61705291857726L633.4615384615385,208.4955799841229L636.9230769230769,197.3563966047524L640.3846153846154,206.27578207960417L643.8461538461538,213.2297079550381L647.3076923076923,226.71507231266185L650.7692307692307,215.91958006341216L654.2307692307692,213.85262436722104L657.6923076923076,218.76348599537917L661.1538461538462,265.6593702601676L664.6153846153846,212.747240563976L668.0769230769231,225.37121575131198L671.5384615384615,222.31701155794454L675,226.16645171079583L678.4615384615385,231.07039779144185L681.9230769230769,225.38176370027472L685.3846153846154,225.1472243306201L688.8461538461538,223.44621314184312L692.3076923076924,220.87783441096482L695.7692307692308,234.54770313672884L699.2307692307693,230.77294215343798L702.6923076923077,231.6829287960648L706.1538461538462,228.45579847563414L709.6153846153846,226.09814670327992L713.0769230769231,215.31279178338002L716.5384615384615,223.8455312113015L720,223.19536510256276L723.4615384615385,233.4246614838408L726.9230769230769,230.75959631642752L730.3846153846154,229.7201805620304L733.8461538461538,228.58168413665706L737.3076923076923,226.74360345925112L740.7692307692307,225.24671370889712L744.2307692307692,220.97916733747624L747.6923076923077,219.16447080816454L751.1538461538462,221.01275400473676L754.6153846153846,231.8162567969099L758.0769230769231,229.97598307329886L761.5384615384615,228.92293552190918L765,223.96736015106046L768.4615384615385,216.30535998677192L771.9230769230769,248.16296134224714L775.3846153846155,221.80016231899972L778.8461538461539,231.38790240481123L782.3076923076924,219.06625332756528L785.7692307692308,217.31372920412616L789.2307692307692,225.63439148173944L792.6923076923076,225.44607454401267L796.1538461538461,223.67623973728874L799.6153846153845,212.66208945751416L803.0769230769231,221.57931984818964L806.5384615384615,227.28046009115494L810,218.60691670725765L813.4615384615385,227.56527891684323L816.9230769230769,230.68427921118004L820.3846153846154,224.86354704897755L823.8461538461538,226.0648709061946L827.3076923076923,217.63360623485775L830.7692307692308,227.52783610485753L834.2307692307693,227.68625601056976L837.6923076923077,226.70496938670007L841.1538461538462,215.6761109299285L844.6153846153846,224.38233716033812L848.0769230769231,224.21605906512286L851.5384615384615,222.88268748210803L855,222.53500476504652L858.4615384615385,220.47804608634289L861.9230769230769,232.7001652497353L865.3846153846154,229.1613909017049L868.8461538461538,215.5713459899602L872.3076923076923,225.23634192456962L875.7692307692307,223.48982642677578L879.2307692307692,220.96422801220027L882.6923076923076,242.27262099602524L886.1538461538462,210.06845305649463" style="fill: none; stroke: #1f77b4; stroke-width: 2;"></path></g></g><path class="foreground" d="" style="display: none; fill: none;"></path></g><g transform="translate(0,0)"><path class="background" d="M0,0h900v600h-900Z" style="fill: none;"></path><g><g class="mark-line role-mark marks"><path d="M6.923076923076923,542.8764947460303L10.384615384615385,543.2128094265216L13.846153846153847,538.6200313383642L17.30769230769231,538.1238811462883L20.76923076923077,537.1451850989646L24.230769230769234,536.6918704730223L27.692307692307693,536.497682456112L31.153846153846157,535.8142685951768L34.61538461538462,535.4324775521794L38.07692307692308,535.3096455335527L41.53846153846154,538.328796487719L45,538.7056493282811L48.46153846153847,536.9762990656593L51.92307692307693,539.5447586859281L55.38461538461539,534.8846731971511L58.84615384615385,537.9637852452895L62.307692307692314,534.521448192753L65.76923076923077,534.2332119971808L69.23076923076924,534.9181046352428L72.6923076923077,536.4067884777944L76.15384615384616,535.4533933471635L79.61538461538461,534.2007434944238L83.07692307692308,535.6937799043062L86.53846153846155,538.1006759356619L90,534.1493895600346L93.46153846153847,535.4660941179915L96.92307692307693,535.4843706434524L100.38461538461539,535.7602132831491L103.84615384615385,535.0291143119829L107.3076923076923,535.0263645512814L110.76923076923077,535.2942383153057L114.23076923076923,535.1064675035753L117.6923076923077,535.3102307548893L121.15384615384615,534.7114020847398L124.61538461538463,535.1673810886102L128.07692307692307,535.2772504091653L131.53846153846155,534.7966412371752L135,538.4730644066209L138.46153846153848,536.5704415899833L141.9230769230769,534.7687610996139L145.3846153846154,534.6520794932202L148.84615384615384,534.5904393422593L152.30769230769232,534.7474139955262L155.76923076923077,534.6537049735791L159.23076923076923,534.7819327879148L162.69230769230768,535.3559870550162L166.15384615384616,534.5400878652359L169.6153846153846,534.6077291367517L173.0769230769231,534.4299654022251L176.53846153846155,534.8215577845403L180,534.4858962693357L183.46153846153845,534.3963030872683L186.92307692307693,534.3875636558563L190.3846153846154,534.3310754099135L193.84615384615387,533.8535387122713L197.3076923076923,533.700538462503L200.76923076923077,534.1850817627429L204.23076923076923,533.6474147327106L207.6923076923077,534.940861933684L211.15384615384616,533.7117644007219L214.6153846153846,534.4882853427589L218.07692307692307,534.5754361550174L221.53846153846155,534.4956726169087L225,535.1193891512557L228.46153846153845,534.1346839837659L231.9230769230769,536.1519646771069L235.3846153846154,534.5534719772679L238.84615384615384,534.0806318068912L242.3076923076923,535.2786467440512L245.76923076923075,535.0671299952614L249.23076923076925,535.3493530960118L252.6923076923077,534.172613722023L256.15384615384613,535.7018076054183L259.6153846153846,534.9406050944451L263.0769230769231,534.3941330462987L266.53846153846155,535.9294964994297L270,535.0791634752426L273.46153846153845,535.9719502875228L276.92307692307696,535.5544047413545L280.3846153846154,534.7706506799583L283.8461538461538,536.1231291456174L287.30769230769226,534.9229888264055L290.7692307692308,535.4739311296619L294.2307692307692,534.3701946121096L297.6923076923077,535.1384431502461L301.15384615384613,535.6283022984471L304.61538461538464,536.0357664365164L308.0769230769231,535.6475153957283L311.53846153846155,535.4792458240734L315,535.5391510677564L318.46153846153845,535.9238398388021L321.9230769230769,535.4162857766323L325.38461538461536,535.6514608708326L328.8461538461538,536.9803179582508L332.3076923076923,535.6852365454495L335.7692307692308,535.6807931754911L339.2307692307692,535.4056165142216L342.6923076923077,534.8785786748731L346.1538461538462,535.4079246987458L349.61538461538464,535.0847722571312L353.0769230769231,534.6200930448979L356.53846153846155,535.6276717030787L360,534.7141602587444L363.46153846153845,535.5462958627901L366.9230769230769,535.1181995490573L370.38461538461536,535.2366736864283L373.84615384615387,534.4393786652715L377.3076923076923,534.8148174753829L380.7692307692308,534.2446343141904L384.2307692307692,534.575232093024L387.69230769230774,535.1011008639049L391.1538461538462,534.5322702726836L394.6153846153846,534.6669213765249L398.07692307692304,534.477478967388L401.53846153846155,534.4484335301465L405,534.6315364727333L408.46153846153845,534.5765984402851L411.9230769230769,534.7728443495936L415.3846153846154,534.803834080482L418.84615384615387,534.2817297437972L422.3076923076923,533.9196422904133L425.7692307692308,534.2238172764976L429.2307692307692,533.8515185398389L432.6923076923077,535.1601314823773L436.15384615384613,534.3110882622343L439.6153846153846,542.8551430371267L443.0769230769231,533.7418177679715L446.53846153846155,533.8786165408753L450,534.3975508418981L453.46153846153845,534.363428070386L456.9230769230769,534.0848173306407L460.38461538461536,534.5393693467062L463.8461538461538,533.7762263582889L467.3076923076923,534.6253855628428L470.7692307692308,534.9648061612289L474.2307692307692,534.4694194420296L477.6923076923077,533.9868074321489L481.15384615384613,534.2820670417474L484.6153846153846,534.1528870362343L488.07692307692304,534.962099663279L491.5384615384615,534.4376976243109L495.00000000000006,534.4783083490519L498.4615384615385,534.307068833114L501.92307692307696,534.1178608750965L505.3846153846154,534.5907441422876L508.8461538461538,534.4861395846332L512.3076923076923,534.1358670256558L515.7692307692307,533.7929808710592L519.2307692307692,534.3348484959032L522.6923076923077,534.2897344028779L526.1538461538462,534.0845192578727L529.6153846153846,533.8992936297064L533.0769230769231,534.503388244634L536.5384615384615,533.7668164628632L540,533.7382661512976L543.4615384615385,533.8794247088799L546.9230769230769,534.1671238394177L550.3846153846155,537.2834668963204L553.8461538461539,534.1541205116773L557.3076923076924,533.8546445543063L560.7692307692308,534.3265430221952L564.2307692307692,534.0717121805545L567.6923076923076,534.1977678063917L571.1538461538461,533.8884919230435L574.6153846153845,534.0318713489025L578.0769230769231,534.5807816356111L581.5384615384615,534.2337052260716L585,534.1883226459669L588.4615384615385,534.4296018205429L591.9230769230769,534.4873604025261L595.3846153846154,534.7219674495392L598.8461538461538,534.7128750235864L602.3076923076923,535.0734155487976L605.7692307692308,535.4723729573934L609.2307692307693,534.8119980492984L612.6923076923077,534.6252339210087L616.1538461538462,534.689684272322L619.6153846153846,535.1731131392148L623.0769230769231,534.8875906599866L626.5384615384615,534.8577187005135L630,535.0197261545602L633.4615384615385,535.2189458033913L636.9230769230769,535.1385649407493L640.3846153846154,535.2754583197276L643.8461538461538,535.4782759517822L647.3076923076923,535.8211687182538L650.7692307692307,535.3770531248747L654.2307692307692,535.0333140457517L657.6923076923076,535.4206438675103L661.1538461538462,542.1638589726767L664.6153846153846,536.0316288057571L668.0769230769231,535.5309234443635L671.5384615384615,538.9274527396075L675,535.5208482590629L678.4615384615385,539.5633762282613L681.9230769230769,535.6706686549619L685.3846153846154,535.8209035854937L688.8461538461538,535.6639437894692L692.3076923076924,535.7859531772575L695.7692307692308,535.8220472021925L699.2307692307693,536.2916706090139L702.6923076923077,535.8842758555343L706.1538461538462,540.757663025328L709.6153846153846,536.4314803712815L713.0769230769231,536.6913549893974L716.5384615384615,541.0037905777068L720,537.0615616600013L723.4615384615385,536.2827541703293L726.9230769230769,536.8661562512526L730.3846153846154,536.2582698097818L733.8461538461538,536.0273593683205L737.3076923076923,535.9392074106006L740.7692307692307,535.722223890908L744.2307692307692,535.9842789298954L747.6923076923077,535.7735422675507L751.1538461538462,536.3132098729199L754.6153846153846,537.174283724393L758.0769230769231,535.9543004201475L761.5384615384615,536.3315390403427L765,535.845021699478L768.4615384615385,535.8934252258409L771.9230769230769,545.618156544924L775.3846153846155,537.3350615925474L778.8461538461539,536.2437660571255L782.3076923076924,536.5216088682496L785.7692307692308,537.7189211929433L789.2307692307692,536.7945406746536L792.6923076923076,537.207516817783L796.1538461538461,536.5867107802592L799.6153846153845,536.8392271235873L803.0769230769231,539.1919341944897L806.5384615384615,536.8275500567106L810,537.7665091621528L813.4615384615385,537.5077561295584L816.9230769230769,536.9293127254911L820.3846153846154,536.4412461449068L823.8461538461538,540.971490221853L827.3076923076923,540.9013167384451L830.7692307692308,537.5947995666305L834.2307692307693,537.5949454495236L837.6923076923077,538.3051769264761L841.1538461538462,537.8373538666189L844.6153846153846,538.2015120367752L848.0769230769231,538.0196650532104L851.5384615384615,538.2271700008371L855,538.1107491856677L858.4615384615385,538.731646257607L861.9230769230769,537.7650401153054L865.3846153846154,538.3695035868949L868.8461538461538,538.0965299528941L872.3076923076923,537.6767268740263L875.7692307692307,537.7629086615335L879.2307692307692,538.3158278185903L882.6923076923076,544.9578689861376L886.1538461538462,538.6755352915108" style="fill: none; stroke: #aec7e8; stroke-width: 2;"></path></g></g><path class="foreground" d="" style="display: none; fill: none;"></path></g><g transform="translate(0,0)"><path class="background" d="M0,0h900v600h-900Z" style="fill: none;"></path><g><g class="mark-line role-mark marks"><path d="M6.923076923076923,525.6327543424318L10.384615384615385,519.4596535319989L13.846153846153847,515.9842259540696L17.30769230769231,514.1624730409777L20.76923076923077,512.1959846144022L24.230769230769234,511.04186302986005L27.692307692307693,510.1785190581156L31.153846153846157,509.4536947846429L34.61538461538462,508.8886076808879L38.07692307692308,508.4449542450791L41.53846153846154,515.7175617198069L45,512.9722565561198L48.46153846153847,507.4059342932145L51.92307692307693,507.12769540878253L55.38461538461539,506.9190571514565L58.84615384615385,512.4103046700388L62.307692307692314,509.2213465821483L65.76923076923077,511.760684129006L69.23076923076924,511.24815100314595L72.6923076923077,510.8811594023457L76.15384615384616,510.60029565894365L79.61538461538461,510.2167363515683L83.07692307692308,512.0432356361717L86.53846153846155,509.86885447257055L90,509.66634481278834L93.46153846153847,509.44630882802136L96.92307692307693,509.12089061205444L100.38461538461539,509.1256097829063L103.84615384615385,508.7408509945546L107.3076923076923,511.8505400214512L110.76923076923077,511.04920408301535L114.23076923076923,511.68247747855384L117.6923076923077,511.48466789308833L121.15384615384615,513.61510234813L124.61538461538463,513.0900923860302L128.07692307692307,512.9650848966373L131.53846153846155,512.7822161823611L135,512.6067036837599L138.46153846153848,512.2502789187563L141.9230769230769,511.97261313046977L145.3846153846154,512.2782536674514L148.84615384615384,511.7851144923018L152.30769230769232,512.0239806735334L155.76923076923077,511.8652964478745L159.23076923076923,511.89780536223697L162.69230769230768,511.278394060057L166.15384615384616,511.42213071748796L169.6153846153846,512.5643496057785L173.0769230769231,512.4092740355222L176.53846153846155,512.256618070209L180,512.0561685055166L183.46153846153845,512.1260575952806L186.92307692307693,512.0740340265928L190.3846153846154,511.90179987292504L193.84615384615387,511.72215747033727L197.3076923076923,511.8557663640504L200.76923076923077,511.7523075166642L204.23076923076923,511.5220211858382L207.6923076923077,511.35650501503454L211.15384615384616,512.777202850623L214.6153846153846,511.1706608473014L218.07692307692307,513.7316745517201L221.53846153846155,510.73356552249277L225,511.27124112712414L228.46153846153845,510.990866892537L231.9230769230769,512.2264444155144L235.3846153846154,511.57728667743083L238.84615384615384,511.6746356780329L242.3076923076923,511.7090603321421L245.76923076923075,511.34100161419684L249.23076923076925,512.4336857114613L252.6923076923077,511.2359225268521L256.15384615384613,511.2087912087912L259.6153846153846,511.30144173156845L263.0769230769231,511.50906158852877L266.53846153846155,511.3986075006257L270,511.60793603790347L273.46153846153845,511.15326687834556L276.92307692307696,511.3432719456031L280.3846153846154,512.3050676931825L283.8461538461538,512.2084157934011L287.30769230769226,512.2064578167361L290.7692307692308,512.089935870136L294.2307692307692,512.2015161776593L297.6923076923077,512.7203413842548L301.15384615384613,511.93248088005544L304.61538461538464,511.8503855182776L308.0769230769231,511.657659644866L311.53846153846155,511.8021755463365L315,511.84394170534586L318.46153846153845,511.4414579808374L321.9230769230769,511.6696111770003L325.38461538461536,511.49289535306644L328.8461538461538,511.31086336573003L332.3076923076923,511.1455327459214L335.7692307692308,511.1584612062727L339.2307692307692,510.89819225047256L342.6923076923077,511.05128231125656L346.1538461538462,510.9267790288235L349.61538461538464,510.8612143933116L353.0769230769231,511.1791449732346L356.53846153846155,512.2015241193618L360,510.74360546774545L363.46153846153845,510.46566064349815L366.9230769230769,510.8275453453119L370.38461538461536,510.64042822431037L373.84615384615387,510.7218659934315L377.3076923076923,510.73831377779226L380.7692307692308,510.8542580045171L384.2307692307692,510.7271663543927L387.69230769230774,510.7059808389917L391.1538461538462,511.6434165488024L394.6153846153846,511.1328383056312L398.07692307692304,511.0956331205764L401.53846153846155,511.18184385095765L405,511.3528990694345L408.46153846153845,511.23278993344L411.9230769230769,511.04253320810415L415.3846153846154,511.16588131513504L418.84615384615387,511.1158928849679L422.3076923076923,511.16769409452337L425.7692307692308,511.5675624180375L429.2307692307692,511.33237542077325L432.6923076923077,511.0407778564355L436.15384615384613,511.59429037028093L439.6153846153846,516.0978427644403L443.0769230769231,510.84294421550965L446.53846153846155,510.27719776551396L450,510.47276157837484L453.46153846153845,510.1316797633684L456.9230769230769,510.8244251965886L460.38461538461536,510.8486952503709L463.8461538461538,510.57947658714846L467.3076923076923,510.99612418587924L470.7692307692308,510.4494914326829L474.2307692307692,510.62373859026866L477.6923076923077,510.86167051832285L481.15384615384613,510.33891274819945L484.6153846153846,510.32539072508325L488.07692307692304,510.65368650077596L491.5384615384615,510.5115713159757L495.00000000000006,511.1739174321187L498.4615384615385,510.55682759292637L501.92307692307696,511.0273036195507L505.3846153846154,511.18836711388917L508.8461538461538,511.3132906236354L512.3076923076923,511.3714059798913L515.7692307692307,511.35701112499254L519.2307692307692,511.72214621360814L522.6923076923077,511.59091174258776L526.1538461538462,511.4269376994225L529.6153846153846,511.5726796900989L533.0769230769231,511.5354842325381L536.5384615384615,512.0365663048027L540,511.18883302626233L543.4615384615385,511.9016193916019L546.9230769230769,511.36217542902773L550.3846153846155,516.400580551524L553.8461538461539,510.68303058989903L557.3076923076924,510.68508151958565L560.7692307692308,511.2523967331129L564.2307692307692,510.82979223410933L567.6923076923076,511.2487827289139L571.1538461538461,511.1741423847529L574.6153846153845,510.90565972402567L578.0769230769231,511.2017015242822L581.5384615384615,510.86415465647974L585,510.8512649185661L588.4615384615385,511.6056239320426L591.9230769230769,510.9460706340535L595.3846153846154,512.0308864896557L598.8461538461538,511.072384546429L602.3076923076923,511.33956107808524L605.7692307692308,511.98506951207185L609.2307692307693,511.2656306620941L612.6923076923077,511.69990161162923L616.1538461538462,512.0129374790224L619.6153846153846,512.2552006563159L623.0769230769231,512.2937101455416L626.5384615384615,511.710735163176L630,512.2643065252048L633.4615384615385,512.8416805969313L636.9230769230769,511.9568955634529L640.3846153846154,512.488174077578L643.8461538461538,512.6395992067635L647.3076923076923,512.1915820029028L650.7692307692307,512.7157924059644L654.2307692307692,512.2779874992265L657.6923076923076,512.4127969513506L661.1538461538462,516.6157338688553L664.6153846153846,511.579141273813L668.0769230769231,512.1789183900985L671.5384615384615,512.0792797147864L675,512.1779859484777L678.4615384615385,512.6903402552472L681.9230769230769,511.9815325042818L685.3846153846154,512.3829190943285L688.8461538461538,512.2516921313138L692.3076923076924,512.2967293988672L695.7692307692308,512.2417644790173L699.2307692307693,512.3276572966248L702.6923076923077,512.4125383824365L706.1538461538462,513.0218511280867L709.6153846153846,512.010244010616L713.0769230769231,512.3553437712729L716.5384615384615,513.1073564907126L720,512.3607814496987L723.4615384615385,512.6333317076909L726.9230769230769,512.4057144843408L730.3846153846154,512.4947296391272L733.8461538461538,512.3791941916774L737.3076923076923,512.5376402956474L740.7692307692307,512.4153314097448L744.2307692307692,513.0622312679435L747.6923076923077,512.5582776139745L751.1538461538462,512.5980921949157L754.6153846153846,512.6981478391457L758.0769230769231,512.5102371012524L761.5384615384615,512.7451563646459L765,513.1101456682852L768.4615384615385,512.6425624848338L771.9230769230769,517.2976481132367L775.3846153846155,512.1849865075891L778.8461538461539,512.3956859742249L782.3076923076924,512.1101345570506L785.7692307692308,512.1063500258131L789.2307692307692,512.3661148977604L792.6923076923076,512.5136100552043L796.1538461538461,512.3130297754451L799.6153846153845,512.2579338199452L803.0769230769231,512.1095599795427L806.5384615384615,512.1776549297987L810,512.2093968460413L813.4615384615385,512.1199655959015L816.9230769230769,512.264940053905L820.3846153846154,512.2677130376842L823.8461538461538,512.855094132365L827.3076923076923,514.0303231956259L830.7692307692308,513.5425922812748L834.2307692307693,512.7670227976087L837.6923076923077,512.5079839477457L841.1538461538462,512.4208604139886L844.6153846153846,512.6538551032463L848.0769230769231,512.5197871909925L851.5384615384615,512.7097243496106L855,512.6838235294118L858.4615384615385,512.764622771482L861.9230769230769,512.6724339490297L865.3846153846154,512.5807899199823L868.8461538461538,512.5095129928602L872.3076923076923,512.4913909354508L875.7692307692307,512.5389627973703L879.2307692307692,512.4163098761529L882.6923076923076,516.6012558869702L886.1538461538462,512.0682844728391" style="fill: none; stroke: #ff7f0e; stroke-width: 2;"></path></g></g><path class="foreground" d="" style="display: none; fill: none;"></path></g><g transform="translate(0,0)"><path class="background" d="M0,0h900v600h-900Z" style="fill: none;"></path><g><g class="mark-line role-mark marks"><path d="M6.923076923076923,525.3920836445109L10.384615384615385,519.5946611284677L13.846153846153847,494.9865181840104L17.30769230769231,498.6345517767789L20.76923076923077,483.8378602529546L24.230769230769234,488.54781456105866L27.692307692307693,479.8404319619616L31.153846153846157,486.2525427975657L34.61538461538462,477.32210984535413L38.07692307692308,484.71066505748587L41.53846153846154,481.94451352346084L45,478.9155148441973L48.46153846153847,471.53714449514626L51.92307692307693,475.5651975978575L55.38461538461539,490.16609988476995L58.84615384615385,475.99123351155544L62.307692307692314,477.9272765135301L65.76923076923077,474.2559431312829L69.23076923076924,470.8269942876826L72.6923076923077,473.45494304333505L76.15384615384616,467.8930887367612L79.61538461538461,471.28906174490936L83.07692307692308,468.22137396608895L86.53846153846155,470.12258509888505L90,469.64393482196743L93.46153846153847,470.85289942120784L96.92307692307693,466.9274096279729L100.38461538461539,478.53014380010313L103.84615384615385,466.13189121374694L107.3076923076923,468.53964861829076L110.76923076923077,466.08229155302075L114.23076923076923,489.5774662433218L117.6923076923077,465.44708041679837L121.15384615384615,478.0401492516581L124.61538461538463,465.9292776939836L128.07692307692307,468.0378142690097L131.53846153846155,465.0219597901642L135,467.13162114694427L138.46153846153848,465.92274134197527L141.9230769230769,467.8786467894841L145.3846153846154,465.0423024697805L148.84615384615384,469.5879495221574L152.30769230769232,465.04116714563884L155.76923076923077,466.8756390431563L159.23076923076923,473.48274002943447L162.69230769230768,466.1862796175493L166.15384615384616,464.3255802812178L169.6153846153846,466.3306506906713L173.0769230769231,487.24050479326763L176.53846153846155,465.5938480109766L180,473.50179091569237L183.46153846153845,466.3164457723481L186.92307692307693,463.63762776787917L190.3846153846154,465.43589743589746L193.84615384615387,463.8566912539515L197.3076923076923,466.75177399031764L200.76923076923077,464.38485647480223L204.23076923076923,466.33775517909737L207.6923076923077,466.51552551566317L211.15384615384616,465.64763537952336L214.6153846153846,463.45371341163496L218.07692307692307,483.06784680028596L221.53846153846155,463.6686390532545L225,465.05529373337686L228.46153846153845,463.6143428162303L231.9230769230769,487.61690155643595L235.3846153846154,462.95989293462355L238.84615384615384,474.9273131664362L242.3076923076923,463.7652774813604L245.76923076923075,464.48902394867656L249.23076923076925,470.8845344562254L252.6923076923077,467.58660861108575L256.15384615384613,466.22877406333697L259.6153846153846,468.68037851917535L263.0769230769231,465.35986535986535L266.53846153846155,469.61735548354744L270,465.4236471842857L273.46153846153845,466.8027783740855L276.92307692307696,474.88740065791967L280.3846153846154,467.52115863998165L283.8461538461538,465.9031339031339L287.30769230769226,467.51147791760155L290.7692307692308,488.70326132382604L294.2307692307692,476.68251793342466L297.6923076923077,474.62679191358455L301.15384615384613,466.1450974674061L304.61538461538464,465.94877594101774L308.0769230769231,466.4588791060662L311.53846153846155,465.51447574533745L315,467.4456083803384L318.46153846153845,467.1675281734598L321.9230769230769,466.17589387450084L325.38461538461536,467.81364237380416L328.8461538461538,466.2310742144087L332.3076923076923,465.46065710426905L335.7692307692308,476.49133780235445L339.2307692307692,465.458901436128L342.6923076923077,466.3268371388666L346.1538461538462,465.1399095753772L349.61538461538464,465.304380069236L353.0769230769231,489.1075189414461L356.53846153846155,475.637159562003L360,464.95279748253245L363.46153846153845,465.6168032577745L366.9230769230769,465.2203282075734L370.38461538461536,466.0518141222298L373.84615384615387,465.35309408075307L377.3076923076923,465.6381660967621L380.7692307692308,464.61186232237185L384.2307692307692,467.7476340321872L387.69230769230774,464.86976419369694L391.1538461538462,465.9232971927849L394.6153846153846,473.73424414570525L398.07692307692304,465.72444320518633L401.53846153846155,465.19647284532226L405,466.00828763554256L408.46153846153845,463.89915794293483L411.9230769230769,488.1849796092335L415.3846153846154,473.6967446080133L418.84615384615387,464.9534636556619L422.3076923076923,464.4960181728711L425.7692307692308,465.64054990929077L429.2307692307692,464.59167883051464L432.6923076923077,465.5899453173968L436.15384615384613,464.38288370717794L439.6153846153846,483.1373783028674L443.0769230769231,467.94483387055806L446.53846153846155,465.30991060034523L450,464.39749340821146L453.46153846153845,475.1376768618148L456.9230769230769,464.43584960138867L460.38461538461536,466.3634740770336L463.8461538461538,465.69115784010944L467.3076923076923,464.67244319796055L470.7692307692308,488.07306391090333L474.2307692307692,475.2577076404124L477.6923076923077,465.69598705024896L481.15384615384613,465.11313187992005L484.6153846153846,467.33769925666996L488.07692307692304,466.49412952909984L491.5384615384615,465.7534822160129L495.00000000000006,465.3061224489796L498.4615384615385,465.5844952562111L501.92307692307696,469.9286258252103L505.3846153846154,466.9909000150263L508.8461538461538,466.74923497108665L512.3076923076923,475.26084977306635L515.7692307692307,466.2659923662041L519.2307692307692,466.50422620735264L522.6923076923077,466.7584480022545L526.1538461538462,466.6489061186619L529.6153846153846,489.20319036069344L533.0769230769231,475.78117940735046L536.5384615384615,467.0354201543046L540,466.7121352365178L543.4615384615385,469.2496966053197L546.9230769230769,467.3506800975138L550.3846153846155,481.7103989041355L553.8461538461539,467.2967704593386L557.3076923076924,468.7143245447133L560.7692307692308,471.812844362904L564.2307692307692,469.29626942609497L567.6923076923076,466.542242900548L571.1538461538461,478.30983728640064L574.6153846153845,466.78481266614284L578.0769230769231,473.3589269633632L581.5384615384615,466.9958538830994L585,469.2935451498684L588.4615384615385,495.431090455524L591.9230769230769,477.7871812273487L595.3846153846154,465.80432194235334L598.8461538461538,471.98600586727264L602.3076923076923,469.04823544597537L605.7692307692308,473.44759496301936L609.2307692307693,469.0008448384647L612.6923076923077,470.501167796944L616.1538461538462,470.0399772376695L619.6153846153846,473.5669937680216L623.0769230769231,471.08591667896485L626.5384615384615,472.93685087264504L630,477.30939621984487L633.4615384615385,473.3060885872947L636.9230769230769,471.8865885104014L640.3846153846154,474.71616938214555L643.8461538461538,480.05853866881057L647.3076923076923,493.46730764070503L650.7692307692307,479.5191699036675L654.2307692307692,473.5065300724897L657.6923076923076,475.9820242025235L661.1538461538462,493.4761088105297L664.6153846153846,474.78130355736283L668.0769230769231,475.1228052647479L671.5384615384615,480.0403715201921L675,480.04664852557335L678.4615384615385,483.4934143067313L681.9230769230769,480.41157842552025L685.3846153846154,478.9281587206721L688.8461538461538,484.5211613491176L692.3076923076924,479.9161576776578L695.7692307692308,481.1017314683591L699.2307692307693,480.3590853311552L702.6923076923077,481.2766483408817L706.1538461538462,498.6855069329296L709.6153846153846,484.67541377240366L713.0769230769231,481.33008859652455L716.5384615384615,482.5651398546995L720,481.0679957280171L723.4615384615385,482.0126254061683L726.9230769230769,481.48485861176823L730.3846153846154,482.8284074782501L733.8461538461538,481.4093823638411L737.3076923076923,482.0486213313245L740.7692307692307,481.1831213406016L744.2307692307692,481.8720382160745L747.6923076923077,484.6018019649568L751.1538461538462,482.6604181687094L754.6153846153846,483.95211894421266L758.0769230769231,482.9925067119024L761.5384615384615,482.50129812328464L765,497.2119583473296L768.4615384615385,485.1803754237431L771.9230769230769,495.7529859991118L775.3846153846155,482.95741530958804L778.8461538461539,482.82796867456375L782.3076923076924,483.2957196955208L785.7692307692308,483.0463224617883L789.2307692307692,482.97349055594975L792.6923076923076,480.560167598251L796.1538461538461,482.8485626664686L799.6153846153845,484.036683601612L803.0769230769231,483.8105004590821L806.5384615384615,486.13317043372024L810,483.6772983114447L813.4615384615385,486.1336032388664L816.9230769230769,496.8726785428168L820.3846153846154,484.16082583066947L823.8461538461538,491.88370684433676L827.3076923076923,493.8226082320798L830.7692307692308,488.1118881118881L834.2307692307693,484.0863180171225L837.6923076923077,486.4376997638029L841.1538461538462,485.19805566345764L844.6153846153846,485.78561398034014L848.0769230769231,484.94244326790295L851.5384615384615,485.2732976154124L855,484.5524655293293L858.4615384615385,485.53846153846155L861.9230769230769,497.224935679595L865.3846153846154,486.9443313887758L868.8461538461538,486.72518446645756L872.3076923076923,485.6814504544011L875.7692307692307,485.9564110076856L879.2307692307692,491.7836525147519L882.6923076923076,505.5590533683938L886.1538461538462,484.8066236191419" style="fill: none; stroke: #ffbb78; stroke-width: 2;"></path></g></g><path class="foreground" d="" style="display: none; fill: none;"></path></g><g transform="translate(0,0)"><path class="background" d="M0,0h900v600h-900Z" style="fill: none;"></path><g><g class="mark-line role-mark marks"><path d="M6.923076923076923,520.3253977748535L10.384615384615385,479.6562755149844L13.846153846153847,440.5819265011935L17.30769230769231,400.7618515785485L20.76923076923077,360.76949684697865L24.230769230769234,321.04248387740176L27.692307692307693,264.8541355065069L31.153846153846157,378.4289435886461L34.61538461538462,354.7938579591569L38.07692307692308,329.1184679603816L41.53846153846154,311.0342689912526L45,279.7644539614561L48.46153846153847,255.18632734818573L51.92307692307693,232.30834794866325L55.38461538461539,179.27463870262287L58.84615384615385,305.63240160917474L62.307692307692314,303.45636426353906L65.76923076923077,273.76861529258144L69.23076923076924,254.80454825364058L72.6923076923077,237.54477566632255L76.15384615384616,214.38637698179684L79.61538461538461,203.71036309955005L83.07692307692308,138.98226632337204L86.53846153846155,279.19972404277337L90,266.1997871029189L93.46153846153847,250.8969222956697L96.92307692307693,238.1173660496173L100.38461538461539,228.2883130964572L103.84615384615385,210.0836376487219L107.3076923076923,202.63086485159394L110.76923076923077,141.07301307901514L114.23076923076923,250.8645563938701L117.6923076923077,212.79127227038194L121.15384615384615,202.46190522581793L124.61538461538463,192.0559385118511L128.07692307692307,178.4893579110123L131.53846153846155,167.0863957204497L135,160.56462936959576L138.46153846153848,95.0968748939635L141.9230769230769,193.19806375561174L145.3846153846154,182.75910561102518L148.84615384615384,172.26625362085616L152.30769230769232,163.88709329885802L155.76923076923077,150.29404433905697L159.23076923076923,145.71114735545717L162.69230769230768,134.53619345008116L166.15384615384616,75.05247265898282L169.6153846153846,164.37506386713235L173.0769230769231,179.54168334304237L176.53846153846155,145.0658013775467L180,148.66395834525377L183.46153846153845,133.36280064470904L186.92307692307693,127.40194149479123L190.3846153846154,111.47224949777943L193.84615384615387,74.07010750916494L197.3076923076923,148.5175799427096L200.76923076923077,137.11381497759206L204.23076923076923,134.4398540099111L207.6923076923077,126.91926693073692L211.15384615384616,117.29809939598196L214.6153846153846,105.19933372754014L218.07692307692307,134.97422172455208L221.53846153846155,71.92372678828225L225,137.1596066565809L228.46153846153845,128.64250246813313L231.9230769230769,160.9052778748688L235.3846153846154,108.28910875000459L238.84615384615384,113.90151524237402L242.3076923076923,100.68540511688278L245.76923076923075,92.9816840554268L249.23076923076925,84.04664134038957L252.6923076923077,127.33132850832385L256.15384615384613,121.44171073810072L259.6153846153846,113.32499075617271L263.0769230769231,105.53025374105394L266.53846153846155,100.31092593744174L270,89.11271541686061L273.46153846153845,81.62985751658934L276.92307692307696,61.09373976536612L280.3846153846154,112.66510431150066L283.8461538461538,108.64297286935158L287.30769230769226,102.6107120020676L290.7692307692308,136.07822167901605L294.2307692307692,83.85467801692532L297.6923076923077,98.56895469946048L301.15384615384613,75.8873228928995L304.61538461538464,48.20060277068292L308.0769230769231,101.16961217714535L311.53846153846155,91.05363909833184L315,92.62662427079935L318.46153846153845,99.6876722395738L321.9230769230769,82.9900490442703L325.38461538461536,77.74416864463191L328.8461538461538,69.91307364647376L332.3076923076923,46.41861491351784L335.7692307692308,126.31741103292696L339.2307692307692,103.67247368281502L342.6923076923077,100.39324204950893L346.1538461538462,93.39138959668276L349.61538461538464,90.53349918526557L353.0769230769231,139.17286945153816L356.53846153846155,94.70127502987671L360,52.30462349504879L363.46153846153845,92.84560644141162L366.9230769230769,88.03248392369463L370.38461538461536,84.3726618595556L373.84615384615387,81.10491947264211L377.3076923076923,74.62505834680667L380.7692307692308,66.52690295469219L384.2307692307692,67.20583884012233L387.69230769230774,39.55594834301519L391.1538461538462,87.09703843021866L394.6153846153846,91.26451985948462L398.07692307692304,77.35889261002936L401.53846153846155,68.959745843537L405,71.44270318113193L408.46153846153845,59.54417455075871L411.9230769230769,102.96100603615683L415.3846153846154,76.34652916225544L418.84615384615387,81.43698055861644L422.3076923076923,78.13994261424185L425.7692307692308,68.24668512323666L429.2307692307692,69.47804251567024L432.6923076923077,65.63107629179379L436.15384615384613,55.08846176997617L439.6153846153846,152.24464616901875L443.0769230769231,57.961704080299214L446.53846153846155,79.02570645510487L450,93.24418702101703L453.46153846153845,77.60739105598822L456.9230769230769,64.67751852690846L460.38461538461536,66.21567957376766L463.8461538461538,63.27457898969211L467.3076923076923,62.224055610420635L470.7692307692308,109.02129211320681L474.2307692307692,80.18819690426864L477.6923076923077,84.74310705140356L481.15384615384613,65.29618586739386L484.6153846153846,62.99223945375243L488.07692307692304,76.2185435451516L491.5384615384615,60.19764884178625L495.00000000000006,85.6403986383668L498.4615384615385,57.84587839561291L501.92307692307696,100.81589735312046L505.3846153846154,95.3853569586459L508.8461538461538,90.61995985747684L512.3076923076923,83.13196861817424L515.7692307692307,88.9036913466177L519.2307692307692,75.44328317330017L522.6923076923077,78.14113507729235L526.1538461538462,48.11759547255781L529.6153846153846,144.5661542396034L533.0769230769231,113.72159785189659L536.5384615384615,91.28992909964168L540,79.57989039143494L543.4615384615385,95.26418504154567L546.9230769230769,82.42866584293549L550.3846153846155,158.74882408278458L553.8461538461539,81.98903904466945L557.3076923076924,118.77195679107228L560.7692307692308,102.99762503996628L564.2307692307692,90.88295614601296L567.6923076923076,89.31615267967916L571.1538461538461,92.32015070890192L574.6153846153845,100.42550875508995L578.0769230769231,91.51066981721134L581.5384615384615,76.07860332988712L585,92.05964946257383L588.4615384615385,162.59170937892117L591.9230769230769,119.63315204885407L595.3846153846154,105.31317790402778L598.8461538461538,110.90033508505309L602.3076923076923,93.02800692110256L605.7692307692308,98.70091677192423L609.2307692307693,90.37558196648008L612.6923076923077,113.88672736826877L616.1538461538462,115.91586815633568L619.6153846153846,112.53991816964344L623.0769230769231,114.55698198908613L626.5384615384615,108.58178536074068L630,120.92141480323957L633.4615384615385,104.34641038797021L636.9230769230769,77.30525791726L640.3846153846154,106.78271779189217L643.8461538461538,118.65415510889281L647.3076923076923,148.67713356169583L650.7692307692307,125.42718493709766L654.2307692307692,109.95523047784606L657.6923076923076,112.58674147349763L661.1538461538462,174.16765755053513L664.6153846153846,99.76768116611889L668.0769230769231,120.58091660090481L671.5384615384615,119.97830309657654L675,117.91918671985584L678.4615384615385,134.64205219964558L681.9230769230769,117.13010158805692L685.3846153846154,113.72770490311007L688.8461538461538,119.01615483909886L692.3076923076924,104.26228539272991L695.7692307692308,122.5118730705668L699.2307692307693,118.69980588436802L702.6923076923077,119.54249765131773L706.1538461538462,164.69020235588883L709.6153846153846,122.81265124568819L713.0769230769231,113.53478812262215L716.5384615384615,114.09217513433327L720,97.77600039175036L723.4615384615385,121.56037045994506L726.9230769230769,121.27255380406791L730.3846153846154,116.28664811527673L733.8461538461538,112.43269568981844L737.3076923076923,115.11319084355642L740.7692307692307,112.93117982263874L744.2307692307692,111.15789473684214L747.6923076923077,102.81143570738311L751.1538461538462,113.807851677787L754.6153846153846,120.95310495557558L758.0769230769231,117.88405334962842L761.5384615384615,115.94707688040565L765,153.58524024222302L768.4615384615385,118.03790255657285L771.9230769230769,174.94085542958868L775.3846153846155,100.53156119722715L778.8461538461539,118.05078316747739L782.3076923076924,111.71646426545914L785.7692307692308,113.31939754515736L789.2307692307692,114.01618728037855L792.6923076923076,111.4202073995667L796.1538461538461,110.52926391980556L799.6153846153845,105.38958101937979L803.0769230769231,100.16937439872085L806.5384615384615,122.0468749224201L810,114.23399703801218L813.4615384615385,112.95476403080413L816.9230769230769,157.04045758131053L820.3846153846154,107.2212444352417L823.8461538461538,126.87124216762977L827.3076923076923,134.58609440023977L830.7692307692308,122.5650427117057L834.2307692307693,113.57864770827375L837.6923076923077,122.09421637900108L841.1538461538462,111.3426347087495L844.6153846153846,112.51590245300935L848.0769230769231,107.65874082666566L851.5384615384615,106.75394307274402L855,98.76772018375752L858.4615384615385,98.47780452152513L861.9230769230769,157.52491757787135L865.3846153846154,121.86738529539534L868.8461538461538,112.78465196269036L872.3076923076923,109.88881197975657L875.7692307692307,109.01333400162589L879.2307692307692,106.5374155519732L882.6923076923076,182.60440302773117L886.1538461538462,97.01749922257096" style="fill: none; stroke: #2ca02c; stroke-width: 2;"></path></g></g><path class="foreground" d="" style="display: none; fill: none;"></path></g><g transform="translate(0,0)"><path class="background" d="M0,0h900v600h-900Z" style="fill: none;"></path><g><g class="mark-line role-mark marks"><path d="M6.923076923076923,523.4218696102105L10.384615384615385,485.10418064367724L13.846153846153847,446.8818852380496L17.30769230769231,408.58646501290144L20.76923076923077,370.32282785707434L24.230769230769234,331.8429327402408L27.692307692307693,289.09175787125884L31.153846153846157,383.264359672147L34.61538461538462,358.91766848962845L38.07692307692308,334.78164486810016L41.53846153846154,315.5886606311535L45,287.1011612093315L48.46153846153847,262.5024179508672L51.92307692307693,238.5469369340337L55.38461538461539,186.19258439402319L58.84615384615385,316.1428543459595L62.307692307692314,307.40314161785966L65.76923076923077,286.0807837602225L69.23076923076924,266.35369861176315L72.6923076923077,253.1489658377875L76.15384615384616,212.1808405405964L79.61538461538461,216.93295280500152L83.07692307692308,158.21826033654807L86.53846153846155,283.8253730138156L90,270.35888347363755L93.46153846153847,258.04967625110913L96.92307692307693,242.25778407444378L100.38461538461539,226.99474974957684L103.84615384615385,220.53803863898622L107.3076923076923,211.90991006150145L110.76923076923077,144.1510515567338L114.23076923076923,252.8179977789703L117.6923076923077,212.69483654420895L121.15384615384615,206.03284100847716L124.61538461538463,195.9301557338367L128.07692307692307,186.55255620954827L131.53846153846155,176.0825515947467L135,165.96428050026762L138.46153846153848,106.61800819402056L141.9230769230769,189.79192343942574L145.3846153846154,184.1222965343524L148.84615384615384,172.8526875618343L152.30769230769232,159.78634726662077L155.76923076923077,154.4264217314833L159.23076923076923,145.6521666760989L162.69230769230768,128.47991587304537L166.15384615384616,82.81397664754179L169.6153846153846,166.64394374282435L173.0769230769231,182.1567336886133L176.53846153846155,148.90492596239903L180,149.5770139471077L183.46153846153845,128.75776677849822L186.92307692307693,130.77686843821422L190.3846153846154,118.86997722014749L193.84615384615387,80.75161623167885L197.3076923076923,154.3607347440298L200.76923076923077,145.76678505348673L204.23076923076923,139.81180930998502L207.6923076923077,130.0792107372487L211.15384615384616,122.27196359073606L214.6153846153846,116.93614185233723L218.07692307692307,149.10573404863234L221.53846153846155,74.86230728927079L225,136.55342180423844L228.46153846153845,128.9477617108758L231.9230769230769,163.36507794901533L235.3846153846154,116.82567562173172L238.84615384615384,111.16535826236496L242.3076923076923,104.95013743358574L245.76923076923075,98.68617490582052L249.23076923076925,89.39129426934298L252.6923076923077,129.21156742977274L256.15384615384613,124.70572719179667L259.6153846153846,119.66228411926573L263.0769230769231,105.40812315353767L266.53846153846155,105.17545296897157L270,95.39488832604177L273.46153846153845,90.88912120049216L276.92307692307696,66.23827183702771L280.3846153846154,116.15209953663275L283.8461538461538,110.85159888329028L287.30769230769226,103.62844702467345L290.7692307692308,136.44648663501602L294.2307692307692,90.8029443766692L297.6923076923077,94.48525318851351L301.15384615384613,80.52454360971527L304.61538461538464,54.055076523509605L308.0769230769231,104.91168205153849L311.53846153846155,101.49295467125295L315,94.97948135859598L318.46153846153845,98.58836815358553L321.9230769230769,83.55159568339793L325.38461538461536,77.53539418644544L328.8461538461538,74.8572171293571L332.3076923076923,54.90523826952916L335.7692307692308,119.0504339764639L339.2307692307692,108.5739716402769L342.6923076923077,103.1463470021367L346.1538461538462,94.09691349622872L349.61538461538464,91.04578289394001L353.0769230769231,131.20438386075102L356.53846153846155,102.06687620963557L360,52.434652548609925L363.46153846153845,91.99160499282011L366.9230769230769,89.96517885406774L370.38461538461536,84.81431268451523L373.84615384615387,82.42245199409155L377.3076923076923,77.94994040524428L380.7692307692308,69.97407353243266L384.2307692307692,75.98055594477198L387.69230769230774,41.89156248911794L391.1538461538462,87.39933097778747L394.6153846153846,92.97695931112393L398.07692307692304,79.59968957896521L401.53846153846155,75.64360371595438L405,72.39863214460188L408.46153846153845,63.2137006653368L411.9230769230769,100.61586551221191L415.3846153846154,49.544885150140416L418.84615384615387,80.98786301822007L422.3076923076923,78.6065231627038L425.7692307692308,69.39829680301544L429.2307692307692,69.33522717685912L432.6923076923077,69.92073559577226L436.15384615384613,60.27697298196486L439.6153846153846,152.46145997471126L443.0769230769231,61.43421041776194L446.53846153846155,81.13031375558397L450,73.2039077434415L453.46153846153845,76.8498552040507L456.9230769230769,71.91801991749172L460.38461538461536,62.583198483109605L463.8461538461538,66.36639704715547L467.3076923076923,65.9157411466443L470.7692307692308,97.8371058660793L474.2307692307692,84.16760831801393L477.6923076923077,73.45861533964427L481.15384615384613,69.3328571107161L484.6153846153846,70.8172292064909L488.07692307692304,72.08075265746207L491.5384615384615,56.040025566245745L495.00000000000006,78.91164978227636L498.4615384615385,68.05455553052617L501.92307692307696,85.38847746105733L505.3846153846154,90.9997275073332L508.8461538461538,95.18535202310608L512.3076923076923,86.66099456626692L515.7692307692307,86.28828242486344L519.2307692307692,92.81487743026204L522.6923076923077,75.07752166401909L526.1538461538462,53.567221158400535L529.6153846153846,135.957020032426L533.0769230769231,102.96683583508377L536.5384615384615,87.29859344013767L540,84.03593177000973L543.4615384615385,83.69449492593957L546.9230769230769,78.15017632386257L550.3846153846155,158.70039044736802L553.8461538461539,56.82643082587602L557.3076923076924,103.30692447298615L560.7692307692308,108.13246748945137L564.2307692307692,82.97566536155021L567.6923076923076,84.52156830645825L571.1538461538461,96.37142607327091L574.6153846153845,102.56954862090998L578.0769230769231,86.09132685054328L581.5384615384615,62.26655291169554L585,89.87288951659502L588.4615384615385,149.08595529869555L591.9230769230769,100.56708252718659L595.3846153846154,103.61895924100845L598.8461538461538,114.33012418912271L602.3076923076923,96.19484640064367L605.7692307692308,98.47628626244807L609.2307692307693,88.2819101476823L612.6923076923077,111.4604584183366L616.1538461538462,115.19385175201332L619.6153846153846,106.96290927575171L623.0769230769231,108.64422202001809L626.5384615384615,110.90049131040554L630,116.2982005141388L633.4615384615385,106.73458746139339L636.9230769230769,73.83053593982092L640.3846153846154,99.59938142768019L643.8461538461538,116.01934591621207L647.3076923076923,150.36020473808492L650.7692307692307,121.76458986053929L654.2307692307692,110.20680157266933L657.6923076923076,111.7473003647929L661.1538461538462,176.88138126572736L664.6153846153846,97.4592772580112L668.0769230769231,120.20762117409949L671.5384615384615,118.3325501282113L675,119.67305072521839L678.4615384615385,135.57344544197986L681.9230769230769,117.836622408827L685.3846153846154,125.03414853208102L688.8461538461538,131.70881435124397L692.3076923076924,102.2304428245022L695.7692307692308,121.62832917605407L699.2307692307693,118.0313177675109L702.6923076923077,116.32328500475447L706.1538461538462,168.58411535574686L709.6153846153846,122.84657796559802L713.0769230769231,114.77299595376496L716.5384615384615,118.59687656454405L720,98.75124269537592L723.4615384615385,122.81597011488772L726.9230769230769,121.84179456906739L730.3846153846154,117.39602587060209L733.8461538461538,117.74939257837656L737.3076923076923,114.69173516058797L740.7692307692307,113.4561622149618L744.2307692307692,111.38831372152926L747.6923076923077,108.01066605229089L751.1538461538462,113.99165970761398L754.6153846153846,116.64822351089146L758.0769230769231,118.10137141401607L761.5384615384615,115.59018930014788L765,157.20810841417844L768.4615384615385,118.34704264192007L771.9230769230769,175.35706111154573L775.3846153846155,99.68989867364371L778.8461538461539,115.43866261070883L782.3076923076924,116.94349200694664L785.7692307692308,110.77146885298896L789.2307692307692,114.57135901699544L792.6923076923076,112.19962941528345L796.1538461538461,111.31857638046708L799.6153846153845,111.30710304388568L803.0769230769231,99.54788639433121L806.5384615384615,118.0160677346418L810,114.57314259344717L813.4615384615385,111.09432217652244L816.9230769230769,151.5682034644684L820.3846153846154,107.40184323180848L823.8461538461538,127.70111236376735L827.3076923076923,124.14354692571486L830.7692307692308,121.73488326658195L834.2307692307693,108.44252656719917L837.6923076923077,122.61663608692419L841.1538461538462,109.58878667316965L844.6153846153846,115.21290272312903L848.0769230769231,110.45624892196884L851.5384615384615,109.01470294724236L855,106.7998835968571L858.4615384615385,97.78582110831154L861.9230769230769,157.3627755674604L865.3846153846154,121.34335872774236L868.8461538461538,113.06010509494142L872.3076923076923,110.19277514491026L875.7692307692307,108.1147416949174L879.2307692307692,107.88496965651495L882.6923076923076,184.97292217389133L886.1538461538462,96.7452085620067" style="fill: none; stroke: #98df8a; stroke-width: 2;"></path></g></g><path class="foreground" d="" style="display: none; fill: none;"></path></g><g transform="translate(0,0)"><path class="background" d="M0,0h900v600h-900Z" style="fill: none;"></path><g><g class="mark-line role-mark marks"><path d="M6.923076923076923,547.1498612110166L10.384615384615385,541.5892874596814L13.846153846153847,535.3833165568075L17.30769230769231,532.8329436486661L20.76923076923077,530.3581258613488L24.230769230769234,528.8256349713592L27.692307692307693,527.4172420819436L31.153846153846157,526.350776327352L34.61538461538462,525.4639508158316L38.07692307692308,524.7223364870423L41.53846153846154,526.2387511884493L45,523.4974117151174L48.46153846153847,522.4766571217677L51.92307692307693,522.6756227561522L55.38461538461539,526.2109076341715L58.84615384615385,522.9947403024325L62.307692307692314,526.5908619952295L65.76923076923077,523.2278790827737L69.23076923076924,524.5297258542291L72.6923076923077,522.5555781166825L76.15384615384616,523.7962482000435L79.61538461538461,523.4666868335476L83.07692307692308,524.4450784239544L86.53846153846155,523.3229093797613L90,522.7612299208055L93.46153846153847,522.5594701281805L96.92307692307693,522.3584304571856L100.38461538461539,521.3345801438358L103.84615384615385,521.9894702289153L107.3076923076923,520.5353773805551L110.76923076923077,521.6594132541834L114.23076923076923,528.7066443780468L117.6923076923077,519.7057718505039L121.15384615384615,521.2169318437608L124.61538461538463,520.4754118730683L128.07692307692307,520.9685342282027L131.53846153846155,519.6452265149579L135,521.2565760941301L138.46153846153848,521.9728626206027L141.9230769230769,520.7006162627821L145.3846153846154,520.5532021809302L148.84615384615384,520.825657935772L152.30769230769232,520.289787277835L155.76923076923077,520.6613284474079L159.23076923076923,519.1411687620224L162.69230769230768,518.9404044895375L166.15384615384616,520.0007507437055L169.6153846153846,519.5804632065502L173.0769230769231,524.020261263663L176.53846153846155,518.655624950589L180,519.7366688610928L183.46153846153845,519.6028625307104L186.92307692307693,519.6104478236764L190.3846153846154,518.9443110573469L193.84615384615387,519.5353297418487L197.3076923076923,519.4006700518787L200.76923076923077,520.0682031692953L204.23076923076923,519.686228683845L207.6923076923077,519.6558924694964L211.15384615384616,519.4703592345159L214.6153846153846,519.2034397108732L218.07692307692307,518.9027057426732L221.53846153846155,519.1240884824473L225,518.0814436661522L228.46153846153845,519.3888303477345L231.9230769230769,525.9305210918114L235.3846153846154,517.6395247546807L238.84615384615384,518.5416713572374L242.3076923076923,518.4333640585054L245.76923076923075,518.1730697200021L249.23076923076925,518.8444349261991L252.6923076923077,518.8186314230629L256.15384615384613,518.7542240796679L259.6153846153846,519.1314783993902L263.0769230769231,518.9947001623783L266.53846153846155,518.6509048125946L270,519.2934782608695L273.46153846153845,519.1558365662745L276.92307692307696,518.1315666382689L280.3846153846154,519.0604649825891L283.8461538461538,518.19755013403L287.30769230769226,517.5835031908443L290.7692307692308,523.1598679517592L294.2307692307692,517.6036137030565L297.6923076923077,518.5460362228092L301.15384615384613,517.7365468260805L304.61538461538464,518.6551803003736L308.0769230769231,518.6779144517099L311.53846153846155,517.9107005158346L315,517.9720877242951L318.46153846153845,518.6487130876407L321.9230769230769,518.9153410975621L325.38461538461536,518.5184903565766L328.8461538461538,518.3119780284774L332.3076923076923,518.2602675852976L335.7692307692308,517.6850090571146L339.2307692307692,518.3005120037769L342.6923076923077,518.2362522654798L346.1538461538462,517.5024228119107L349.61538461538464,517.2609074409086L353.0769230769231,525.0627178377958L356.53846153846155,518.9321405095061L360,517.6141482148784L363.46153846153845,518.1308419311591L366.9230769230769,517.3674219184212L370.38461538461536,518.2511557238004L373.84615384615387,518.4088135749315L377.3076923076923,518.0849269228236L380.7692307692308,518.5327863911288L384.2307692307692,518.6843736499052L387.69230769230774,518.2749427007811L391.1538461538462,518.499003275667L394.6153846153846,517.159093875917L398.07692307692304,518.0587839158865L401.53846153846155,518.0238670727609L405,517.5101214574898L408.46153846153845,517.2146186615006L411.9230769230769,522.5445914878087L415.3846153846154,518.0364590868998L418.84615384615387,517.0143147172934L422.3076923076923,518.0695088587513L425.7692307692308,517.15724719832L429.2307692307692,518.0303285336108L432.6923076923077,518.2763288345667L436.15384615384613,518.0148183723029L439.6153846153846,521.0145955076586L443.0769230769231,518.1973038361832L446.53846153846155,518.0928085889993L450,518.4825207712807L453.46153846153845,517.0838555982227L456.9230769230769,518.1008278481203L460.38461538461536,518.0928708465875L463.8461538461538,516.8653389603664L467.3076923076923,516.9896727788138L470.7692307692308,522.5189451122517L474.2307692307692,518.214789895774L477.6923076923077,517.1957092322057L481.15384615384613,518.106209673729L484.6153846153846,517.3726567670476L488.07692307692304,518.3241650492272L491.5384615384615,518.2248143700835L495.00000000000006,518.4618224677298L498.4615384615385,518.194158959019L501.92307692307696,518.245950508288L505.3846153846154,518.2127510466039L508.8461538461538,518.3113296510844L512.3076923076923,517.3430635192494L515.7692307692307,518.4763343248617L519.2307692307692,518.5176977398457L522.6923076923077,517.3253807140164L526.1538461538462,517.082832743449L529.6153846153846,524.9294680459582L533.0769230769231,517.9649168714895L536.5384615384615,517.2414417213539L540,518.1537405628003L543.4615384615385,518.812496296682L546.9230769230769,519.0523086031116L550.3846153846155,522.4513598049091L553.8461538461539,517.1317902067848L557.3076923076924,518.2391618110868L560.7692307692308,518.105990395147L564.2307692307692,518.3247935086557L567.6923076923076,518.3498664325443L571.1538461538461,518.1538888236988L574.6153846153845,518.5221326586361L578.0769230769231,518.9055212903356L581.5384615384615,517.7142857142857L585,516.953316953317L588.4615384615385,524.7515695199593L591.9230769230769,518.404676223234L595.3846153846154,517.6732879041705L598.8461538461538,518.6784407212168L602.3076923076923,518.7227866473149L605.7692307692308,518.8180945447048L609.2307692307693,518.8724839714489L612.6923076923077,517.70921386306L616.1538461538462,518.9324588969349L619.6153846153846,519.1155427693512L623.0769230769231,518.7988240866747L626.5384615384615,519.0361876929042L630,518.3911396094434L633.4615384615385,519.0516211792807L636.9230769230769,519.0206189347984L640.3846153846154,518.6037984894039L643.8461538461538,518.4359583409465L647.3076923076923,522.097939969589L650.7692307692307,519.5836600841235L654.2307692307692,519.4173032510215L657.6923076923076,519.5557217757016L661.1538461538462,530.1475070096307L664.6153846153846,518.8280804109329L668.0769230769231,519.5621066670371L671.5384615384615,523.7840810874518L675,520.1632218575357L678.4615384615385,526.292236240904L681.9230769230769,520.2429149797571L685.3846153846154,520.6661903076523L688.8461538461538,519.7429623853951L692.3076923076924,520.9491373574614L695.7692307692308,521.461877100211L699.2307692307693,520.383630033502L702.6923076923077,521.0280616214534L706.1538461538462,529.9919353454933L709.6153846153846,520.0613512881171L713.0769230769231,522.3481516849697L716.5384615384615,528.7982847380671L720,521.8686416537804L723.4615384615385,521.7160051440201L726.9230769230769,522.1751429877334L730.3846153846154,521.6157313388479L733.8461538461538,521.6980202895696L737.3076923076923,521.1330186059428L740.7692307692307,520.4051649857114L744.2307692307692,520.5963277340408L747.6923076923077,521.975183773728L751.1538461538462,520.297750951897L754.6153846153846,523.6605579549434L758.0769230769231,520.7674821063549L761.5384615384615,520.4493406937781L765,526.4546831062081L768.4615384615385,521.575554181754L771.9230769230769,533.6622127469694L775.3846153846155,522.0797291342965L778.8461538461539,522.2999222999223L782.3076923076924,521.9837753869167L785.7692307692308,522.6966496205779L789.2307692307692,522.6244343891403L792.6923076923076,520.7881977873734L796.1538461538461,521.6865760576568L799.6153846153845,521.9449559884438L803.0769230769231,524.0104158136945L806.5384615384615,520.8927015312186L810,522.3635971533319L813.4615384615385,521.7731421121251L816.9230769230769,524.5319220376381L820.3846153846154,519.2196917623401L823.8461538461538,529.9763155184843L827.3076923076923,530.2908921210236L830.7692307692308,528.4852277298529L834.2307692307693,520.3902310114735L837.6923076923077,522.5166093012086L841.1538461538462,520.9348987283425L844.6153846153846,523.4741882200431L848.0769230769231,521.9135950024701L851.5384615384615,522.6840575155182L855,521.4551467548573L858.4615384615385,521.933202522481L861.9230769230769,526.8797627262983L865.3846153846154,522.31038554766L868.8461538461538,522.5730825784294L872.3076923076923,522.3631985129882L875.7692307692307,520.0812875441579L879.2307692307692,521.4165643981974L882.6923076923076,534.8434326012801L886.1538461538462,520.365406649696" style="fill: none; stroke: #d62728; stroke-width: 2;"></path></g></g><path class="foreground" d="" style="display: none; fill: none;"></path></g></g><g class="mark-group role-legend"><g transform="translate(918,0)"><path class="background" d="M0,0h119v105h-119Z" style="pointer-events: none; fill: none;"></path><g><g class="mark-group role-legend-entry"><g transform="translate(0,16)"><path class="background" d="M0,0h0v0h0Z" style="pointer-events: none; fill: none;"></path><g><g class="mark-group role-scope"><g transform="translate(0,0)"><path class="background" d="M0,0h119v11h-119Z" style="pointer-events: none; fill: none; opacity: 1;"></path><g><g class="mark-symbol role-legend-symbol" style="pointer-events: none;"><path transform="translate(6,6)" d="M-5,0L5,0" style="fill: none; stroke: #1f77b4; stroke-width: 1.5; opacity: 1;"></path></g><g class="mark-text role-legend-label" style="pointer-events: none;"><text text-anchor="start" transform="translate(16,9)" style="font-family: sans-serif; font-size: 10px; fill: #000; opacity: 1;">01. LoopVectorization</text></g></g><path class="foreground" d="" style="pointer-events: none; display: none; fill: none;"></path></g><g transform="translate(0,13)"><path class="background" d="M0,0h119v11h-119Z" style="pointer-events: none; fill: none; opacity: 1;"></path><g><g class="mark-symbol role-legend-symbol" style="pointer-events: none;"><path transform="translate(6,6)" d="M-5,0L5,0" style="fill: none; stroke: #aec7e8; stroke-width: 1.5; opacity: 1;"></path></g><g class="mark-text role-legend-label" style="pointer-events: none;"><text text-anchor="start" transform="translate(16,9)" style="font-family: sans-serif; font-size: 10px; fill: #000; opacity: 1;">02. Julia</text></g></g><path class="foreground" d="" style="pointer-events: none; display: none; fill: none;"></path></g><g transform="translate(0,26)"><path class="background" d="M0,0h119v11h-119Z" style="pointer-events: none; fill: none; opacity: 1;"></path><g><g class="mark-symbol role-legend-symbol" style="pointer-events: none;"><path transform="translate(6,6)" d="M-5,0L5,0" style="fill: none; stroke: #ff7f0e; stroke-width: 1.5; opacity: 1;"></path></g><g class="mark-text role-legend-label" style="pointer-events: none;"><text text-anchor="start" transform="translate(16,9)" style="font-family: sans-serif; font-size: 10px; fill: #000; opacity: 1;">03. Clang</text></g></g><path class="foreground" d="" style="pointer-events: none; display: none; fill: none;"></path></g><g transform="translate(0,39)"><path class="background" d="M0,0h119v11h-119Z" style="pointer-events: none; fill: none; opacity: 1;"></path><g><g class="mark-symbol role-legend-symbol" style="pointer-events: none;"><path transform="translate(6,6)" d="M-5,0L5,0" style="fill: none; stroke: #ffbb78; stroke-width: 1.5; opacity: 1;"></path></g><g class="mark-text role-legend-label" style="pointer-events: none;"><text text-anchor="start" transform="translate(16,9)" style="font-family: sans-serif; font-size: 10px; fill: #000; opacity: 1;">04. GFortran</text></g></g><path class="foreground" d="" style="pointer-events: none; display: none; fill: none;"></path></g><g transform="translate(0,52)"><path class="background" d="M0,0h119v11h-119Z" style="pointer-events: none; fill: none; opacity: 1;"></path><g><g class="mark-symbol role-legend-symbol" style="pointer-events: none;"><path transform="translate(6,6)" d="M-5,0L5,0" style="fill: none; stroke: #2ca02c; stroke-width: 1.5; opacity: 1;"></path></g><g class="mark-text role-legend-label" style="pointer-events: none;"><text text-anchor="start" transform="translate(16,9)" style="font-family: sans-serif; font-size: 10px; fill: #000; opacity: 1;">05. icc</text></g></g><path class="foreground" d="" style="pointer-events: none; display: none; fill: none;"></path></g><g transform="translate(0,65)"><path class="background" d="M0,0h119v11h-119Z" style="pointer-events: none; fill: none; opacity: 1;"></path><g><g class="mark-symbol role-legend-symbol" style="pointer-events: none;"><path transform="translate(6,6)" d="M-5,0L5,0" style="fill: none; stroke: #98df8a; stroke-width: 1.5; opacity: 1;"></path></g><g class="mark-text role-legend-label" style="pointer-events: none;"><text text-anchor="start" transform="translate(16,9)" style="font-family: sans-serif; font-size: 10px; fill: #000; opacity: 1;">06. ifort</text></g></g><path class="foreground" d="" style="pointer-events: none; display: none; fill: none;"></path></g><g transform="translate(0,78)"><path class="background" d="M0,0h119v11h-119Z" style="pointer-events: none; fill: none; opacity: 1;"></path><g><g class="mark-symbol role-legend-symbol" style="pointer-events: none;"><path transform="translate(6,6)" d="M-5,0L5,0" style="fill: none; stroke: #d62728; stroke-width: 1.5; opacity: 1;"></path></g><g class="mark-text role-legend-label" style="pointer-events: none;"><text text-anchor="start" transform="translate(16,9)" style="font-family: sans-serif; font-size: 10px; fill: #000; opacity: 1;">07. Julia-builtin</text></g></g><path class="foreground" d="" style="pointer-events: none; display: none; fill: none;"></path></g></g></g><path class="foreground" d="" style="pointer-events: none; display: none; fill: none;"></path></g></g><g class="mark-text role-legend-title" style="pointer-events: none;"><text text-anchor="start" transform="translate(0,9)" style="font-family: sans-serif; font-size: 11px; font-weight: bold; fill: #000; opacity: 1;">Method</text></g></g><path class="foreground" d="" style="pointer-events: none; display: none; fill: none;"></path></g></g></g><path class="foreground" d="" style="display: none; fill: none;"></path></g></g></g></svg>
