<svg class="marks" width="886" height="527" viewBox="0 0 886 527" version="1.1" xmlns="http://www.w3.org/2000/svg" xmlns:xlink="http://www.w3.org/1999/xlink"><g transform="translate(42,10)"><g class="mark-group role-frame root"><g transform="translate(0,0)"><path class="background" d="M0.5,0.5h720v480h-720Z" style="fill: none; stroke: #ddd;"></path><g><g class="mark-group role-axis"><g transform="translate(0.5,480.5)"><path class="background" d="M0,0h0v0h0Z" style="pointer-events: none; fill: none;"></path><g><g class="mark-rule role-axis-grid" style="pointer-events: none;"><line transform="translate(0,-480)" x2="0" y2="480" style="fill: none; stroke: #ddd; stroke-width: 1; opacity: 1;"></line><line transform="translate(55,-480)" x2="0" y2="480" style="fill: none; stroke: #ddd; stroke-width: 1; opacity: 1;"></line><line transform="translate(111,-480)" x2="0" y2="480" style="fill: none; stroke: #ddd; stroke-width: 1; opacity: 1;"></line><line transform="translate(166,-480)" x2="0" y2="480" style="fill: none; stroke: #ddd; stroke-width: 1; opacity: 1;"></line><line transform="translate(222,-480)" x2="0" y2="480" style="fill: none; stroke: #ddd; stroke-width: 1; opacity: 1;"></line><line transform="translate(277,-480)" x2="0" y2="480" style="fill: none; stroke: #ddd; stroke-width: 1; opacity: 1;"></line><line transform="translate(332,-480)" x2="0" y2="480" style="fill: none; stroke: #ddd; stroke-width: 1; opacity: 1;"></line><line transform="translate(388,-480)" x2="0" y2="480" style="fill: none; stroke: #ddd; stroke-width: 1; opacity: 1;"></line><line transform="translate(443,-480)" x2="0" y2="480" style="fill: none; stroke: #ddd; stroke-width: 1; opacity: 1;"></line><line transform="translate(498,-480)" x2="0" y2="480" style="fill: none; stroke: #ddd; stroke-width: 1; opacity: 1;"></line><line transform="translate(554,-480)" x2="0" y2="480" style="fill: none; stroke: #ddd; stroke-width: 1; opacity: 1;"></line><line transform="translate(609,-480)" x2="0" y2="480" style="fill: none; stroke: #ddd; stroke-width: 1; opacity: 1;"></line><line transform="translate(665,-480)" x2="0" y2="480" style="fill: none; stroke: #ddd; stroke-width: 1; opacity: 1;"></line><line transform="translate(720,-480)" x2="0" y2="480" style="fill: none; stroke: #ddd; stroke-width: 1; opacity: 1;"></line></g></g></g></g><g class="mark-group role-axis"><g transform="translate(0.5,0.5)"><path class="background" d="M0,0h0v0h0Z" style="pointer-events: none; fill: none;"></path><g><g class="mark-rule role-axis-grid" style="pointer-events: none;"><line transform="translate(0,480)" x2="720" y2="0" style="fill: none; stroke: #ddd; stroke-width: 1; opacity: 1;"></line><line transform="translate(0,443)" x2="720" y2="0" style="fill: none; stroke: #ddd; stroke-width: 1; opacity: 1;"></line><line transform="translate(0,406)" x2="720" y2="0" style="fill: none; stroke: #ddd; stroke-width: 1; opacity: 1;"></line><line transform="translate(0,369)" x2="720" y2="0" style="fill: none; stroke: #ddd; stroke-width: 1; opacity: 1;"></line><line transform="translate(0,332)" x2="720" y2="0" style="fill: none; stroke: #ddd; stroke-width: 1; opacity: 1;"></line><line transform="translate(0,295)" x2="720" y2="0" style="fill: none; stroke: #ddd; stroke-width: 1; opacity: 1;"></line><line transform="translate(0,258)" x2="720" y2="0" style="fill: none; stroke: #ddd; stroke-width: 1; opacity: 1;"></line><line transform="translate(0,222)" x2="720" y2="0" style="fill: none; stroke: #ddd; stroke-width: 1; opacity: 1;"></line><line transform="translate(0,185)" x2="720" y2="0" style="fill: none; stroke: #ddd; stroke-width: 1; opacity: 1;"></line><line transform="translate(0,148)" x2="720" y2="0" style="fill: none; stroke: #ddd; stroke-width: 1; opacity: 1;"></line><line transform="translate(0,111)" x2="720" y2="0" style="fill: none; stroke: #ddd; stroke-width: 1; opacity: 1;"></line><line transform="translate(0,74)" x2="720" y2="0" style="fill: none; stroke: #ddd; stroke-width: 1; opacity: 1;"></line><line transform="translate(0,37)" x2="720" y2="0" style="fill: none; stroke: #ddd; stroke-width: 1; opacity: 1;"></line><line transform="translate(0,0)" x2="720" y2="0" style="fill: none; stroke: #ddd; stroke-width: 1; opacity: 1;"></line></g></g></g></g><g class="mark-group role-scope pathgroup"><g transform="translate(0,0)"><path class="background" d="M0,0h720v480h-720Z" style="fill: none;"></path><g><g class="mark-line role-mark marks"><path d="M5.538461538461538,452.1535322532829L8.307692307692308,452.5554366111026L11.076923076923077,446.54045617743185L13.846153846153847,447.54323491195356L16.615384615384617,447.1532695810774L19.384615384615387,443.29028410728785L22.153846153846153,443.65817228905075L24.923076923076923,439.4846432079768L27.692307692307693,442.21020573062344L30.461538461538463,442.1834258000247L33.23076923076923,439.9084404027943L36,441.48051097281365L38.769230769230774,442.8058061486742L41.53846153846154,440.9583595919467L44.30769230769231,441.34491629816966L47.07692307692308,441.34051865351756L49.84615384615385,441.5507793072598L52.61538461538462,440.0485885678146L55.38461538461539,440.275379618577L58.15384615384616,440.64399168399166L60.92307692307693,440.9602800111026L63.69230769230769,442.3237168703075L66.46153846153847,439.5572263614473L69.23076923076924,442.3360213370271L72,444.45049799948924L74.76923076923077,443.8811133095625L77.53846153846155,444.4764373241739L80.3076923076923,441.56913751426436L83.07692307692308,441.8567012184033L85.84615384615385,440.80729595364306L88.61538461538461,442.56167337975046L91.38461538461539,442.13394955974337L94.15384615384616,440.35848814720805L96.92307692307692,442.5474415519471L99.6923076923077,439.7844865450499L102.46153846153845,442.06068348063536L105.23076923076924,444.01609806139356L108,441.5756915285747L110.76923076923077,440.3136659585689L113.53846153846153,441.830037639824L116.30769230769232,441.8933060684429L119.07692307692308,441.50705154380125L121.84615384615385,441.93059652812593L124.61538461538461,440.08110505639337L127.38461538461539,444.69019352740287L130.15384615384616,441.37392635611L132.92307692307693,440.9345686474129L135.69230769230768,442.81043158971414L138.46153846153848,441.68974609219487L141.23076923076923,441.05331716971097L144,438.4935291551549L146.76923076923077,440.272835400636L149.53846153846155,443.33807755394304L152.3076923076923,439.47130516088754L155.0769230769231,439.7622050081066L157.84615384615384,440.12799673139887L160.6153846153846,442.01327784506583L163.3846153846154,438.2746104792642L166.15384615384616,440.50182357481197L168.92307692307693,440.05725537955414L171.6923076923077,439.882535705337L174.46153846153845,443.9856840702057L177.23076923076923,441.7713462871771L180,438.52925306405615L182.76923076923077,441.0061112581314L185.53846153846152,441.2958010121702L188.30769230769232,440.4375082302146L191.07692307692307,438.90546095126246L193.84615384615384,438.8420587581069L196.61538461538458,444.0979720832236L199.3846153846154,443.06233712616955L202.15384615384616,441.5442102567586L204.9230769230769,442.0603585205355L207.69230769230768,442.4352370784172L210.46153846153848,442.8589252828532L213.23076923076923,439.89830801318044L216,439.469696969697L218.76923076923075,439.30752537888173L221.53846153846155,440.61026074686384L224.30769230769232,442.3819091510359L227.07692307692307,439.7036303089748L229.84615384615384,440.13961818900503L232.61538461538464,441.14958926804576L235.3846153846154,442.0654855348733L238.15384615384616,446.9174217815011L240.9230769230769,440.3590091650806L243.6923076923077,438.79940292365535L246.46153846153845,440.0361406929724L249.23076923076923,442.67190050072344L251.99999999999997,441.0756160921154L254.76923076923077,442.8662993499963L257.53846153846155,443.75289608730486L260.3076923076923,442.4300942612295L263.07692307692304,440.18145205747686L265.84615384615387,438.7666767090395L268.61538461538464,438.0606184126245L271.38461538461536,438.5868727173452L274.15384615384613,441.95259924721546L276.92307692307696,438.9660272032327L279.6923076923077,439.6506082931697L282.46153846153845,442.69480388056076L285.2307692307692,442.88790094888355L288,438.2838866218154L290.7692307692308,440.14087774426895L293.53846153846155,442.9267697190728L296.3076923076923,438.5089043314908L299.0769230769231,441.2281754205152L301.84615384615387,441.548773561819L304.6153846153846,443.4856129418457L307.38461538461536,445.07570862713146L310.1538461538462,440.5716747057614L312.9230769230769,442.4171034544418L315.6923076923077,442.9052565543867L318.46153846153845,443.09445956560654L321.2307692307692,442.58942385645855L324,441.09464877113476L326.7692307692308,440.45068942558686L329.53846153846155,443.6875628949332L332.3076923076923,441.29303695393025L335.0769230769231,443.4304061741714L337.84615384615387,441.05593434315904L340.6153846153846,443.16710361008967L343.3846153846154,446.5405461958516L346.1538461538462,442.5564358921452L348.9230769230769,442.6811010085302L351.6923076923077,440.76215768211034L354.46153846153845,441.2318433848179L357.2307692307692,441.69463698839206L360,440.2233668885896L362.7692307692308,442.5269617172451L365.53846153846155,442.19612964234653L368.30769230769226,442.2660619748321L371.07692307692304,445.2681735357072L373.84615384615387,444.9610874664105L376.61538461538464,443.17845307762815L379.3846153846154,445.4295878713105L382.15384615384613,444.2233467380348L384.9230769230769,442.8612244698953L387.6923076923077,443.74720850245325L390.46153846153845,441.59308640281796L393.23076923076917,443.43276302698064L396.00000000000006,443.41280426808936L398.7692307692308,443.66182373917474L401.53846153846155,443.4601283425244L404.3076923076923,443.88053983337016L407.0769230769231,446.3677431800135L409.8461538461538,445.5173242058488L412.6153846153846,445.11345444115676L415.38461538461536,444.91636199021053L418.1538461538462,445.0928394264549L420.92307692307696,445.5049276290979L423.6923076923077,444.2239759488914L426.46153846153845,443.80946917508453L429.2307692307692,445.41124162823L432,443.0537039366117L434.7692307692307,446.92640878752377L437.5384615384615,443.5072506343989L440.3076923076923,444.32664576540077L443.0769230769231,444.31885313590743L445.84615384615387,441.71224732461354L448.61538461538464,448.615824909648L451.38461538461536,445.86641847884374L454.15384615384613,444.25200946212055L456.9230769230769,449.16128027412196L459.6923076923077,442.17043140647587L462.4615384615385,443.94132368089987L465.2307692307693,446.2395408060148L468,445.27215963078595L470.7692307692308,442.31596360628623L473.53846153846155,444.80788350873615L476.3076923076923,446.3965003433118L479.07692307692304,444.7580226304972L481.8461538461538,445.08487708081924L484.61538461538464,444.4820295983087L487.3846153846154,448.5700254475646L490.1538461538462,443.0157668418538L492.9230769230769,446.79362611737275L495.6923076923077,443.65072202166067L498.46153846153845,443.7227477406027L501.2307692307692,444.50835409943215L503.99999999999994,447.9389312977099L506.76923076923083,447.433376340259L509.53846153846155,447.0585426985737L512.3076923076924,445.93472356488513L515.0769230769231,446.902687673772L517.8461538461538,447.34171135836067L520.6153846153846,447.6264412762874L523.3846153846154,443.1145097023488L526.1538461538461,446.5104801633349L528.9230769230769,445.04259099678944L531.6923076923077,446.0509971782838L534.4615384615385,446.65346819768905L537.2307692307693,446.68646208223925L540,448.21472717640825L542.7692307692307,448.1501492961752L545.5384615384615,445.1401986300865L548.3076923076923,445.8598616289846L551.0769230769231,447.22121561521993L553.8461538461539,444.9420082386281L556.6153846153846,446.6687395062496L559.3846153846154,444.8052966286262L562.1538461538462,445.94864339730776L564.9230769230769,448.102364308005L567.6923076923076,448.05422989267004L570.4615384615385,448.1697612732096L573.2307692307692,448.57028981381313L576,443.71539261079084L578.7692307692308,446.5702517894512L581.5384615384615,445.52007224365815L584.3076923076923,447.47883941071456L587.0769230769231,444.9986929543359L589.8461538461538,445.4727571138143L592.6153846153846,445.65145860920506L595.3846153846154,449.61238118794387L598.1538461538462,446.4561548814577L600.9230769230769,445.1911213297954L603.6923076923077,447.0356672568156L606.4615384615385,447.50460598716506L609.2307692307692,446.31664901693097L612,447.6087646872023L614.7692307692307,445.9709271134047L617.5384615384615,448.27278763160393L620.3076923076924,446.1256175017643L623.0769230769231,449.7682230433322L625.8461538461538,448.33883979126045L628.6153846153846,446.91846202424034L631.3846153846154,448.762665905523L634.1538461538462,446.6979731572091L636.9230769230769,449.6247668205605L639.6923076923076,446.26629184768717L642.4615384615385,447.1492796205175L645.2307692307693,445.91760984439856L648,444.7749510763209L650.7692307692308,447.7437803831856L653.5384615384615,445.5115722558135L656.3076923076923,446.3431952662722L659.0769230769231,448.63554747772037L661.8461538461538,445.5449969365322L664.6153846153846,444.9907614509384L667.3846153846154,445.2077668968504L670.1538461538462,447.93445555377656L672.9230769230769,446.1805213256401L675.6923076923077,444.0866189538756L678.4615384615385,447.2169535183234L681.2307692307692,446.6333225954121L684,446.7880553532411L686.7692307692308,446.10806470899746L689.5384615384615,446.2932755761616L692.3076923076924,445.72819027708755L695.0769230769231,449.750987963665L697.8461538461538,446.0092957382356L700.6153846153846,447.52124865607936L703.3846153846154,445.70193995588966L706.1538461538461,444.14006468851073L708.9230769230769,447.37883872063884" style="fill: none; stroke: #e45756; stroke-width: 2;"></path></g></g></g><g transform="translate(0,0)"><path class="background" d="M0,0h720v480h-720Z" style="fill: none;"></path><g><g class="mark-line role-mark marks"><path d="M5.538461538461538,435.4891349750768L8.307692307692308,431.131221719457L11.076923076923077,428.6171222628031L13.846153846153847,426.99477737452423L16.615384615384617,425.8562910835304L19.384615384615387,425.0081833060556L22.153846153846153,429.6060333480175L24.923076923076923,427.9787945455074L27.692307692307693,427.5275275716069L30.461538461538463,428.3817505978171L33.23076923076923,427.44970669141287L36,426.70136162767227L38.769230769230774,426.49120968924836L41.53846153846154,427.8072916283754L44.30769230769231,424.948279852066L47.07692307692308,424.5039147166807L49.84615384615385,425.09805951644506L52.61538461538462,424.5003315971058L55.38461538461539,424.4004908068467L58.15384615384616,425.1323066204113L60.92307692307693,425.270488819525L63.69230769230769,424.3454688705074L66.46153846153847,423.77903975219414L69.23076923076924,423.37059398280775L72,423.3126486963773L74.76923076923077,424.41187159297397L77.53846153846155,424.42252309777297L80.3076923076923,423.5737735384206L83.07692307692308,423.34467813555267L85.84615384615385,423.34722183928363L88.61538461538461,423.40261037464654L91.38461538461539,422.8233984664853L94.15384615384616,422.9024210944938L96.92307692307692,422.98442683288243L99.6923076923077,422.7303632756023L102.46153846153845,422.91363975829995L105.23076923076924,423.4197343230153L108,423.06830627855L110.76923076923077,425.19228308395776L113.53846153846153,425.7710902729649L116.30769230769232,424.9328145066994L119.07692307692308,426.46341577885204L121.84615384615385,425.7620027716663L124.61538461538461,425.33225826213464L127.38461538461539,425.0847319037593L130.15384615384616,425.7840011535319L132.92307692307693,425.68307799800164L135.69230769230768,424.4207693170349L138.46153846153848,425.0007436433669L141.23076923076923,424.32521272544705L144,424.6026420969839L146.76923076923077,424.578006474428L149.53846153846155,424.88720392138384L152.3076923076923,425.000440701597L155.0769230769231,424.38033023068783L157.84615384615384,424.7012231242386L160.6153846153846,425.22785271600435L163.3846153846154,423.6852090631335L166.15384615384616,424.9534621023063L168.92307692307693,425.2231757797269L171.6923076923077,424.4053709487649L174.46153846153845,424.85197870762244L177.23076923076923,424.6537288775125L180,424.698485281509L182.76923076923077,424.8005294670621L185.53846153846152,424.7807312212836L188.30769230769232,424.8390194823013L191.07692307692307,424.29761756028176L193.84615384615384,424.8989041518753L196.61538461538458,424.7008958863965L199.3846153846154,424.6694975761903L202.15384615384616,424.515496207984L204.9230769230769,424.694720670971L207.69230769230768,424.83426800362827L210.46153846153848,424.8194499102116L213.23076923076923,424.7967728102588L216,424.9071340992689L218.76923076923075,425.2020224271593L221.53846153846155,426.46845074492L224.30769230769232,424.5044587834409L227.07692307692307,424.5418239209497L229.84615384615384,424.70970064553717L232.61538461538464,424.63028351169993L235.3846153846154,424.64053779902156L238.15384615384616,424.8095139413467L240.9230769230769,424.9648254109051L243.6923076923077,424.0773251223902L246.46153846153845,423.9279806777428L249.23076923076923,424.0905642414055L251.99999999999997,424.3383356070941L254.76923076923077,424.41221429173237L257.53846153846155,424.38200198537305L260.3076923076923,424.44000339134965L263.07692307692304,424.76517397409896L265.84615384615387,423.7844560182921L268.61538461538464,423.88613975150525L271.38461538461536,424.0543106528508L274.15384615384613,424.5062262086712L276.92307692307696,424.15702747363054L279.6923076923077,424.2028911373239L282.46153846153845,424.33759111883904L285.2307692307692,424.29261222966625L288,425.4436817016982L290.7692307692308,425.1546421247416L293.53846153846155,424.9945384951948L296.3076923076923,425.06456217759467L299.0769230769231,425.1944701579738L301.84615384615387,425.2741132016265L304.6153846153846,425.3773536581324L307.38461538461536,425.54369058860715L310.1538461538462,424.994624638024L312.9230769230769,424.7172871338127L315.6923076923077,424.8593634381493L318.46153846153845,424.7044449225558L321.2307692307692,425.0028898596731L324,424.83735160625565L326.7692307692308,424.9952554793898L329.53846153846155,425.31294803998435L332.3076923076923,424.8936715739363L335.0769230769231,424.64237717527436L337.84615384615387,424.68452895419193L340.6153846153846,424.30293768042117L343.3846153846154,424.70123149391225L346.1538461538462,424.7003071587629L348.9230769230769,424.751555703266L351.6923076923077,424.613850555138L354.46153846153845,425.0376573250847L357.2307692307692,424.94927878751594L360,424.7891251307076L362.7692307692308,424.66978050547294L365.53846153846155,425.0512157667298L368.30769230769226,424.9278241638739L371.07692307692304,424.6904315196998L373.84615384615387,425.2569863211079L376.61538461538464,425.1079217759202L379.3846153846154,425.03309965708064L382.15384615384613,425.10544962589717L384.9230769230769,425.2309434581795L387.6923076923077,425.1047208139599L390.46153846153845,425.0939942831078L393.23076923076917,425.2134072823728L396.00000000000006,425.37583294427236L398.7692307692308,425.0422466526021L401.53846153846155,424.9041627965887L404.3076923076923,425.1093426906448L407.0769230769231,425.1153854172848L409.8461538461538,425.03596135301154L412.6153846153846,424.9352273926892L415.38461538461536,425.2227592024661L418.1538461538462,425.30380259595637L420.92307692307696,424.89003273422344L423.6923076923077,424.86145837651065L426.46153846153845,424.8545424606448L429.2307692307692,424.80844378882495L432,424.8253841548593L434.7692307692307,424.76201294664304L437.5384615384615,424.73058265207305L440.3076923076923,424.9407101117452L443.0769230769231,424.51609763220017L445.84615384615387,424.5486762559933L448.61538461538464,424.528965896764L451.38461538461536,424.64826469965107L454.15384615384613,424.7678319914073L456.9230769230769,424.52955026376185L459.6923076923077,424.6382127474905L462.4615384615385,424.53884114788565L465.2307692307693,425.0877480728227L468,425.30331469077817L470.7692307692308,424.9340208756629L473.53846153846155,425.0621994879701L476.3076923076923,425.31227263941344L479.07692307692304,425.2706901421712L481.8461538461538,425.2660605200425L484.61538461538464,425.37185436541023L487.3846153846154,425.2515245713594L490.1538461538462,425.119233460731L492.9230769230769,425.21189437128817L495.6923076923077,424.99835849943247L498.46153846153845,425.0120023760246L501.2307692307692,425.2495850396375L503.99999999999994,425.01840901483877L506.76923076923083,425.07490491345186L509.53846153846155,425.09691838962846L512.3076923076924,424.94959159408387L515.0769230769231,424.9290926555437L517.8461538461538,425.0310187479705L520.6153846153846,424.7535522897626L523.3846153846154,424.8778709442216L526.1538461538461,424.6922057808214L528.9230769230769,424.9923536205839L531.6923076923077,424.4873420263084L534.4615384615385,424.57897739290956L537.2307692307693,424.4598224487244L540,424.19490694482056L542.7692307692307,424.5420595011735L545.5384615384615,424.27036103385586L548.3076923076923,424.4194074043055L551.0769230769231,424.4282316516596L553.8461538461539,424.4224068614312L556.6153846153846,424.58209121294044L559.3846153846154,424.4306031350566L562.1538461538462,424.53288805821467L564.9230769230769,424.55078564526167L567.6923076923076,424.6704231232295L570.4615384615385,424.48169528940167L573.2307692307692,424.5886158307618L576,424.46935507351867L578.7692307692308,424.28022809263354L581.5384615384615,424.139292874382L584.3076923076923,424.2907249079516L587.0769230769231,424.781972022902L589.8461538461538,424.7302194406403L592.6153846153846,424.64937832162235L595.3846153846154,424.68301468381105L598.1538461538462,424.511511236661L600.9230769230769,424.31290967028247L603.6923076923077,424.1789447645632L606.4615384615385,424.45634520831806L609.2307692307692,424.6222496257616L612,424.95481927710847L614.7692307692307,424.6807223448985L617.5384615384615,424.3599839555996L620.3076923076924,424.64793047507914L623.0769230769231,424.4405575698711L625.8461538461538,424.4719278489081L628.6153846153846,424.36970456616694L631.3846153846154,424.7338657788125L634.1538461538462,425.041215902303L636.9230769230769,424.49917579582666L639.6923076923076,424.42312349796003L642.4615384615385,425.2417467107918L645.2307692307693,424.6777389347434L648,425.1425122898777L650.7692307692308,424.59044578165293L653.5384615384615,424.8953532208831L656.3076923076923,424.7991545186958L659.0769230769231,424.89513382769485L661.8461538461538,425.0279624079816L664.6153846153846,424.68598276895585L667.3846153846154,424.8037802256438L670.1538461538462,424.6972109228701L672.9230769230769,424.851766970857L675.6923076923077,424.8252498925478L678.4615384615385,424.8139183122016L681.2307692307692,424.5994877682593L684,424.86744714104566L686.7692307692308,425.5736972049216L689.5384615384615,424.83140621754484L692.3076923076924,424.70185081229624L695.0769230769231,424.73127625669997L697.8461538461538,424.7522596477887L700.6153846153846,424.86418588461413L703.3846153846154,424.5258397109811L706.1538461538461,424.75573237116805L708.9230769230769,424.37388283438656" style="fill: none; stroke: #4c78a8; stroke-width: 2;"></path></g></g></g><g transform="translate(0,0)"><path class="background" d="M0,0h720v480h-720Z" style="fill: none;"></path><g><g class="mark-line role-mark marks"><path d="M5.538461538461538,450.01369494662725L8.307692307692308,446.6643470515372L11.076923076923077,445.50409249654905L13.846153846153847,444.3454371715241L16.615384615384617,442.94533868498365L19.384615384615387,441.9864465175207L22.153846153846153,315.5682431911118L24.923076923076923,354.9460494256874L27.692307692307693,372.95482579238103L30.461538461538463,388.0531796596893L33.23076923076923,397.7036515845551L36,403.5409121502516L38.769230769230774,407.858020099981L41.53846153846154,412.7556861555048L44.30769230769231,256.07759502176515L47.07692307692308,293.1823562337698L49.84615384615385,323.0327525319708L52.61538461538462,343.7948717948718L55.38461538461539,359.6552498228073L58.15384615384616,382.32615384615383L60.92307692307693,386.64104526744563L63.69230769230769,384.6435825312516L66.46153846153847,218.61159234452361L69.23076923076924,268.56778580535484L72,292.2747084462245L74.76923076923077,332.64809837003145L77.53846153846155,340.90436674942L80.3076923076923,348.3545851595129L83.07692307692308,354.9326675240774L85.84615384615385,365.793541952375L88.61538461538461,232.3214997617728L91.38461538461539,250.30631071781463L94.15384615384616,276.5546648473478L96.92307692307692,301.3830977582858L99.6923076923077,314.0847302935118L102.46153846153845,324.8122466848371L105.23076923076924,344.68761285662697L108,351.10577447876864L110.76923076923077,205.37124620847288L113.53846153846153,234.41260658651964L116.30769230769232,259.4262116260569L119.07692307692308,292.1847975597349L121.84615384615385,302.9170305084516L124.61538461538461,313.2684213242988L127.38461538461539,331.38008888986076L130.15384615384616,334.81293515644654L132.92307692307693,205.92326380403372L135.69230769230768,226.44826777603112L138.46153846153848,239.65450334856354L141.23076923076923,263.81541458749984L144,276.8711774930793L146.76923076923077,300.7612625049534L149.53846153846155,306.52846693064777L152.3076923076923,318.50872746974534L155.0769230769231,186.06160717825378L157.84615384615384,239.7404465470121L160.6153846153846,245.24978664181887L163.3846153846154,249.3415637860082L166.15384615384616,276.92204607051883L168.92307692307693,285.14860493738564L171.6923076923077,299.14984652590454L174.46153846153845,308.416355252112L177.23076923076923,199.51104790468864L180,214.24878836833608L182.76923076923077,234.00208431248336L185.53846153846152,252.95493444723806L188.30769230769232,266.0201701161629L191.07692307692307,273.47814756101127L193.84615384615384,305.61838644467446L196.61538461538458,299.2272838172249L199.3846153846154,192.05580313892654L202.15384615384616,212.7951813558772L204.9230769230769,219.13704788959222L207.69230769230768,253.69836188269431L210.46153846153848,263.08296634820164L213.23076923076923,264.77210072225165L216,279.25286615998965L218.76923076923075,286.80254386315073L221.53846153846155,192.23275292043195L224.30769230769232,185.16746809306707L227.07692307692307,211.10157582429497L229.84615384615384,228.90262092478162L232.61538461538464,249.54775607908772L235.3846153846154,259.2656630661917L238.15384615384616,265.6587791770273L240.9230769230769,279.7866302135183L243.6923076923077,169.2769054699495L246.46153846153845,190.50731574286164L249.23076923076923,208.24787749762743L251.99999999999997,218.42679474537994L254.76923076923077,241.85902978225303L257.53846153846155,259.5926611681534L260.3076923076923,267.94968548558336L263.07692307692304,279.6058614349726L265.84615384615387,178.58817222511894L268.61538461538464,199.75845571011732L271.38461538461536,202.19377598467278L274.15384615384613,221.47834459221454L276.92307692307696,231.25980171584672L279.6923076923077,248.49418027565292L282.46153846153845,265.60879152287885L285.2307692307692,263.5984490638576L288,157.487555806435L290.7692307692308,191.68395883536715L293.53846153846155,212.21428471179345L296.3076923076923,213.47484819007977L299.0769230769231,227.845225245868L301.84615384615387,241.6359187566351L304.6153846153846,248.65903688175172L307.38461538461536,261.0326517714221L310.1538461538462,168.8291096450963L312.9230769230769,176.0248792442516L315.6923076923077,205.90266875981166L318.46153846153845,205.68161702949072L321.2307692307692,220.7403475825651L324,235.60289731572223L326.7692307692308,247.57608124988684L329.53846153846155,253.28650188666936L332.3076923076923,169.6407362039291L335.0769230769231,196.6325326751737L337.84615384615387,203.68354793566024L340.6153846153846,204.355345775022L343.3846153846154,233.13438772412783L346.1538461538462,240.61805897363098L348.9230769230769,243.01568682028747L351.6923076923077,253.39366515837105L354.46153846153845,154.51284011355358L357.2307692307692,169.56930154686376L360,197.76786260008558L362.7692307692308,199.63076329806466L365.53846153846155,211.98706346510784L368.30769230769226,232.46077117773132L371.07692307692304,232.63374690352538L373.84615384615387,247.91883369161133L376.61538461538464,161.5689989669682L379.3846153846154,175.23154533893265L382.15384615384613,190.78111711606596L384.9230769230769,205.69880119320447L387.6923076923077,216.27794450757247L390.46153846153845,219.83286408988624L393.23076923076917,232.13986353411178L396.00000000000006,246.9392556885025L398.7692307692308,162.64523082620732L401.53846153846155,169.9117564972605L404.3076923076923,190.85411712658296L407.0769230769231,190.10281237066368L409.8461538461538,201.8275442405378L412.6153846153846,214.7762660159116L415.38461538461536,223.30156481076978L418.1538461538462,230.5329859320415L420.92307692307696,143.30624468631038L423.6923076923077,172.8015826941931L426.46153846153845,173.21048936020262L429.2307692307692,190.32204625602014L432,194.09120129835915L434.7692307692307,215.65853404634254L437.5384615384615,221.10978256055972L440.3076923076923,231.4628575105363L443.0769230769231,152.2215476045915L445.84615384615387,169.2282267393819L448.61538461538464,178.2114461538461L451.38461538461536,202.53179710625147L454.15384615384613,206.4666722642709L456.9230769230769,225.77685950992438L459.6923076923077,231.30011913636588L462.4615384615385,227.6827147910546L465.2307692307693,161.87109556604605L468,177.79732028041647L470.7692307692308,194.6099107083025L473.53846153846155,203.80533464705465L476.3076923076923,207.88104410254493L479.07692307692304,211.78428888343606L481.8461538461538,230.35046003783938L484.61538461538464,231.35192202451873L487.3846153846154,174.5327843776491L490.1538461538462,162.29972919050107L492.9230769230769,194.33678676086566L495.6923076923077,194.38015377212025L498.46153846153845,212.7702619754965L501.2307692307692,210.4143290529028L503.99999999999994,223.56215245249288L506.76923076923083,233.10696862985816L509.53846153846155,164.8281940754888L512.3076923076924,178.4997251269441L515.0769230769231,178.11407017944904L517.8461538461538,186.35803111971356L520.6153846153846,197.70068711245185L523.3846153846154,215.30242844907923L526.1538461538461,225.9288337343295L528.9230769230769,230.5287000379422L531.6923076923077,185.15717591286185L534.4615384615385,159.62924745847874L537.2307692307693,190.112559425516L540,196.855717879684L542.7692307692307,212.4851256427252L545.5384615384615,209.04842840694587L548.3076923076923,226.59274431047393L551.0769230769231,225.32758724418872L553.8461538461539,182.82253351129907L556.6153846153846,179.924317562127L559.3846153846154,193.20830303722266L562.1538461538462,192.58933743483215L564.9230769230769,194.1605055651574L567.6923076923076,211.5540425008693L570.4615384615385,214.84681397313682L573.2307692307692,225.80926523349478L576,162.3737708490335L578.7692307692308,170.72850847425227L581.5384615384615,165.31752336010956L584.3076923076923,193.05567749440198L587.0769230769231,209.78440244876228L589.8461538461538,207.48721578588493L592.6153846153846,244.62951128451783L595.3846153846154,222.0326037707935L598.1538461538462,158.53964479948448L600.9230769230769,155.86938901540012L603.6923076923077,190.09839821351574L606.4615384615385,195.58423214623167L609.2307692307692,204.70875763747455L612,209.77519941986947L614.7692307692307,218.6880328872864L617.5384615384615,216.1608735082433L620.3076923076924,170.5766878861049L623.0769230769231,156.93361081587696L625.8461538461538,162.41200918903976L628.6153846153846,183.4321296906879L631.3846153846154,196.56411649496877L634.1538461538462,189.48233400209034L636.9230769230769,203.0461820878755L639.6923076923076,205.23880500291625L642.4615384615385,159.4686719832879L645.2307692307693,153.83318629691436L648,176.05372787638547L650.7692307692308,177.48071173873595L653.5384615384615,183.57674380570768L656.3076923076923,193.31673487864694L659.0769230769231,198.2104751624515L661.8461538461538,210.0655673669819L664.6153846153846,142.926789894261L667.3846153846154,163.02331832669347L670.1538461538462,215.5420945598761L672.9230769230769,213.76263148701267L675.6923076923077,186.83345054090046L678.4615384615385,190.59253471474534L681.2307692307692,193.6933987997818L684,199.65501588742623L686.7692307692308,160.32814574752288L689.5384615384615,151.53623864289344L692.3076923076924,165.93805642759904L695.0769230769231,168.00105468676432L697.8461538461538,177.73833270576662L700.6153846153846,181.8369578965382L703.3846153846154,193.40578606914877L706.1538461538461,208.31265607039515L708.9230769230769,137.14551443518698" style="fill: none; stroke: #f58518; stroke-width: 2;"></path></g></g></g><g transform="translate(0,0)"><path class="background" d="M0,0h720v480h-720Z" style="fill: none;"></path><g><g class="mark-line role-mark marks"><path d="M5.538461538461538,421.45698918173946L8.307692307692308,391.7938917270021L11.076923076923077,362.82108244025096L13.846153846153847,333.45659262153947L16.615384615384617,304.4544678776057L19.384615384615387,275.2293309605938L22.153846153846153,258.7381158167675L24.923076923076923,312.30178590857514L27.692307692307693,293.5744776804112L30.461538461538463,275.1183133166571L33.23076923076923,256.5378401888903L36,237.76924631238634L38.769230769230774,219.05702180588483L41.53846153846154,200.61588179544145L44.30769230769231,170.42254430420604L47.07692307692308,237.08200594194082L49.84615384615385,224.43779230709953L52.61538461538462,210.67572525950735L55.38461538461539,194.56831317404516L58.15384615384616,207.15822362532745L60.92307692307693,182.10807785585467L63.69230769230769,154.05110849461283L66.46153846153847,119.23409543055459L69.23076923076924,214.78164486810022L72,189.8661498395009L74.76923076923077,221.79552457725674L77.53846153846155,212.17673559616082L80.3076923076923,165.47653832542358L83.07692307692308,145.27071910709043L85.84615384615385,151.8751660496998L88.61538461538461,105.50524831583901L91.38461538461539,181.66842980202506L94.15384615384616,162.86158679915334L96.92307692307692,162.68378257541886L99.6923076923077,142.61632461225122L102.46153846153845,126.03550295857983L105.23076923076924,157.70995937985157L108,127.39168877099907L110.76923076923077,100.51123455174788L113.53846153846153,171.9606992664114L116.30769230769232,142.09447520320415L119.07692307692308,160.34333162289502L121.84615384615385,149.5157626165346L124.61538461538461,144.06310996461622L127.38461538461539,138.34558058171575L130.15384615384616,128.20420969570196L132.92307692307693,123.41688157759657L135.69230769230768,147.72774643127923L138.46153846153848,142.64038991311722L141.23076923076923,116.47868952280888L144,123.99388766725055L146.76923076923077,93.87751615402912L149.53846153846155,94.58660234741365L152.3076923076923,108.68620959693769L155.0769230769231,92.7261038035829L157.84615384615384,199.77295558743407L160.6153846153846,151.910069688396L163.3846153846154,103.65976269719583L166.15384615384616,97.30769230769228L168.92307692307693,162.71961591878824L171.6923076923077,104.25769738847679L174.46153846153845,100.3538481746809L177.23076923076923,64.52404253930968L180,132.93018911977586L182.76923076923077,117.28871404391518L185.53846153846152,111.53903843269379L188.30769230769232,87.42078031450714L191.07692307692307,81.68514991881557L193.84615384615384,145.49179867205123L196.61538461538458,70.23002409591922L199.3846153846154,74.99044067316541L202.15384615384616,116.23407498478856L204.9230769230769,112.41168075712936L207.69230769230768,149.84580588680583L210.46153846153848,99.58897348385393L213.23076923076923,75.1159670985279L216,92.69961771005603L218.76923076923075,87.54269736773465L221.53846153846155,44.76002629848779L224.30769230769232,111.7646968874481L227.07692307692307,109.24536910302032L229.84615384615384,110.32428778223257L232.61538461538464,101.09216013898077L235.3846153846154,96.77032644774576L238.15384615384616,66.07727114514445L240.9230769230769,87.17232371518011L243.6923076923077,44.4392147405579L246.46153846153845,112.36311670068392L249.23076923076923,108.34749780356476L251.99999999999997,103.97139365409855L254.76923076923077,95.62013191037695L257.53846153846155,119.80124856669634L260.3076923076923,116.76884943753576L263.07692307692304,111.37073748458151L265.84615384615387,46.85567509015682L268.61538461538464,154.32736557618733L271.38461538461536,98.48334151495101L274.15384615384613,126.313272220008L276.92307692307696,93.43647345554731L279.6923076923077,86.63634616616488L282.46153846153845,122.9378464144668L285.2307692307692,38.88014881360084L288,62.223004488251306L290.7692307692308,58.79014189693805L293.53846153846155,102.27626532385452L296.3076923076923,91.78959763030554L299.0769230769231,100.48764970560562L301.84615384615387,69.42683363148474L304.6153846153846,69.83174109946782L307.38461538461536,65.61110261821197L310.1538461538462,16.419184732568812L312.9230769230769,82.53360056064167L315.6923076923077,157.59251806744058L318.46153846153845,85.3700851800614L321.2307692307692,97.70035990750421L324,135.66490443269618L326.7692307692308,134.89997127648064L329.53846153846155,52.672436162996554L332.3076923076923,52.41017191587977L335.0769230769231,109.24655245712592L337.84615384615387,106.24262759727408L340.6153846153846,85.80543322040157L343.3846153846154,97.94279140302254L346.1538461538462,75.03339739817184L348.9230769230769,110.60153199814826L351.6923076923077,42.6877194004631L354.46153846153845,39.98586566272156L357.2307692307692,97.8119618930532L360,57.907788095110355L362.7692307692308,131.17827186792707L365.53846153846155,74.96666358538636L368.30769230769226,77.94152767612957L371.07692307692304,95.72465138986358L373.84615384615387,71.90234745641932L376.61538461538464,8.498549564869435L379.3846153846154,78.0530350847869L382.15384615384613,56.735154944534386L384.9230769230769,72.26991255613795L387.6923076923077,136.05055252288213L390.46153846153845,91.30291555026766L393.23076923076917,89.15550244570098L396.00000000000006,84.81100709393726L398.7692307692308,51.92042265982451L401.53846153846155,71.95281028198734L404.3076923076923,120.8718166858595L407.0769230769231,70.48609231908614L409.8461538461538,132.91280463060733L412.6153846153846,89.09698996655518L415.38461538461536,91.17635121873322L418.1538461538462,55.31962414357507L420.92307692307696,40.788403430172266L423.6923076923077,104.72442519511L426.46153846153845,61.060907839801274L429.2307692307692,67.3330473753494L432,55.64321950480809L434.7692307692307,90.05624778410571L437.5384615384615,49.79755242102557L440.3076923076923,67.44161909704202L443.0769230769231,34.293086795519265L445.84615384615387,81.4681989469118L448.61538461538464,75.7239639662769L451.38461538461536,90.46598226592874L454.15384615384613,97.58792355869603L456.9230769230769,121.0670978172999L459.6923076923077,100.34235386035944L462.4615384615385,64.79379712770778L465.2307692307693,77.75325829078604L468,92.38746849117747L470.7692307692308,114.67804376730113L473.53846153846155,86.2660332966196L476.3076923076923,40.204846447710345L479.07692307692304,20.542026726412193L481.8461538461538,103.38623703058607L484.61538461538464,43.92541971991218L487.3846153846154,59.56751976802772L490.1538461538462,64.66265476428552L492.9230769230769,82.6211570337343L495.6923076923077,78.30917827538508L498.46153846153845,52.37466455139522L501.2307692307692,75.54793262342093L503.99999999999994,133.6459922416423L506.76923076923083,71.05198256248151L509.53846153846155,62.98245065223513L512.3076923076924,84.6513351741008L515.0769230769231,54.57086727008212L517.8461538461538,78.91344073072122L520.6153846153846,49.612318593718015L523.3846153846154,76.13739404055609L526.1538461538461,46.62899414363505L528.9230769230769,63.65988301484862L531.6923076923077,63.05781081874203L534.4615384615385,62.48607833883908L537.2307692307693,41.26426635211038L540,74.18922743137442L542.7692307692307,74.06450566822953L545.5384615384615,40.045947276465554L548.3076923076923,50.033789037648674L551.0769230769231,122.80254939411267L553.8461538461539,33.29535022658712L556.6153846153846,79.09070910024198L559.3846153846154,89.702522747438L562.1538461538462,37.22689591648763L564.9230769230769,52.10918114143926L567.6923076923076,71.81190635754626L570.4615384615385,47.95004063850337L573.2307692307692,75.68924945843764L576,58.734549464687795L578.7692307692308,81.977813696385L581.5384615384615,54.00408498045973L584.3076923076923,72.08156779661013L587.0769230769231,69.95374305869879L589.8461538461538,65.43897508741266L592.6153846153846,38.17349266761467L595.3846153846154,77.75484469798002L598.1538461538462,109.30347396025944L600.9230769230769,84.79120468747135L603.6923076923077,73.16411382160697L606.4615384615385,72.10159183227178L609.2307692307692,41.298363299792804L612,86.44703997041512L614.7692307692307,66.00069635991434L617.5384615384615,35.11921164716911L620.3076923076924,103.93055069244048L623.0769230769231,96.389092372926L625.8461538461538,91.93081305214744L628.6153846153846,44.95937569871606L631.3846153846154,86.82290739117464L634.1538461538462,45.72971457560142L636.9230769230769,63.797224673137066L639.6923076923076,40.84612624307931L642.4615384615385,104.2505763918139L645.2307692307693,51.938796632499745L648,117.54776540953644L650.7692307692308,78.47449089731586L653.5384615384615,77.37090120547501L656.3076923076923,44.37734133673498L659.0769230769231,74.43030320613343L661.8461538461538,32.353277210607416L664.6153846153846,33.919245757178835L667.3846153846154,42.19305321307232L670.1538461538462,64.51096623959855L672.9230769230769,70.49277570678349L675.6923076923077,36.80889473992924L678.4615384615385,17.2486055014579L681.2307692307692,52.468460422016356L684,40.19804222293138L686.7692307692308,53.23859615037678L689.5384615384615,62.83588284569346L692.3076923076924,15.119128804373627L695.0769230769231,61.41526442307695L697.8461538461538,29.384187588014363L700.6153846153846,69.51937697096488L703.3846153846154,48.74453730757434L706.1538461538461,21.700992491516526L708.9230769230769,57.085130929644095" style="fill: none; stroke: #54a24b; stroke-width: 2;"></path></g></g></g><g transform="translate(0,0)"><path class="background" d="M0,0h720v480h-720Z" style="fill: none;"></path><g><g class="mark-line role-mark marks"><path d="M5.538461538461538,426.1998004909268L8.307692307692308,399.18194165385177L11.076923076923077,372.2111314462796L13.846153846153847,345.4210638464903L16.615384615384617,318.5255194243958L19.384615384615387,290.7617964112326L22.153846153846153,270.95407284696034L24.923076923076923,315.6882871632426L27.692307692307693,304.7189039814016L30.461538461538463,279.09502262443436L33.23076923076923,260.7875167621602L36,242.4727560927283L38.769230769230774,224.2014296383228L41.53846153846154,205.90294873065113L44.30769230769231,173.76377047609924L47.07692307692308,238.1698104242885L49.84615384615385,225.45776581235944L52.61538461538462,211.58434879029875L55.38461538461539,195.34004813263215L58.15384615384616,220.96744789655008L60.92307692307693,202.06422211907676L63.69230769230769,155.47392108580658L66.46153846153847,124.56975385357345L69.23076923076924,209.00294305706083L72,184.2415262085571L74.76923076923077,212.26691420851532L77.53846153846155,202.30599294557481L80.3076923076923,163.7430610626487L83.07692307692308,139.37113358078415L85.84615384615385,148.16471693470825L88.61538461538461,105.46297655034778L91.38461538461539,182.99590390539484L94.15384615384616,159.40100882723831L96.92307692307692,164.40925654466045L99.6923076923077,149.5813610942762L102.46153846153845,124.31624154818388L105.23076923076924,158.1370363939805L108,127.53019738780316L110.76923076923077,106.36581890578336L113.53846153846153,175.78912734428832L116.30769230769232,148.46266123333177L119.07692307692308,163.88342826212653L121.84615384615385,153.74043812466266L124.61538461538461,145.67832167832162L127.38461538461539,139.32260103357254L130.15384615384616,130.7207943816277L132.92307692307693,132.132574976655L135.69230769230768,152.25273724927806L138.46153846153848,147.83785813838978L141.23076923076923,140.28546642826657L144,104.12938259945689L146.76923076923077,128.21346675005205L149.53846153846155,96.90863880644903L152.3076923076923,90.92629402407196L155.0769230769231,95.96471176102325L157.84615384615384,187.8886191042L160.6153846153846,148.14174589455487L163.3846153846154,103.9988245822592L166.15384615384616,97.36083663593726L168.92307692307693,129.54377472475815L171.6923076923077,103.46184395429825L174.46153846153845,106.61936455173544L177.23076923076923,59.861779275688214L180,130.60524150899047L182.76923076923077,115.3099111757218L185.53846153846152,112.22306932220991L188.30769230769232,83.94061220749067L191.07692307692307,78.27308070589896L193.84615384615384,103.34560068636966L196.61538461538458,68.10552118594613L199.3846153846154,72.33857747663419L202.15384615384616,108.12974069406438L204.9230769230769,106.95790817676915L207.69230769230768,121.50128121388732L210.46153846153848,88.77898952197667L213.23076923076923,72.89736046960478L216,86.81511656711893L218.76923076923075,77.34105753977174L221.53846153846155,41.27060686112975L224.30769230769232,113.12302779042064L227.07692307692307,108.45570893517788L229.84615384615384,108.7970756143241L232.61538461538464,99.77032319948846L235.3846153846154,94.40424192717768L238.15384615384616,62.7507433091983L240.9230769230769,57.65317973347264L243.6923076923077,40.91476091476089L246.46153846153845,111.01212370788633L249.23076923076923,108.45673816099787L251.99999999999997,104.03946237045751L254.76923076923077,99.96822209034603L257.53846153846155,108.72463831556828L260.3076923076923,105.81041170876999L263.07692307692304,115.31587126927047L265.84615384615387,50.68080565107648L268.61538461538464,136.5724391141593L271.38461538461536,101.54962376444443L274.15384615384613,121.9920505026888L276.92307692307696,120.81617784334881L279.6923076923077,87.43266280259128L282.46153846153845,126.64505653608751L285.2307692307692,38.85947487390993L288,88.07412309728662L290.7692307692308,84.99999205947147L293.53846153846155,108.93727810650878L296.3076923076923,63.34668946258997L299.0769230769231,100.65625018572558L301.84615384615387,69.33345209087491L304.6153846153846,69.58818322428628L307.38461538461536,65.78083326900625L310.1538461538462,15.471425126597467L312.9230769230769,78.60497754350433L315.6923076923077,145.7662452927325L318.46153846153845,83.45290328603434L321.2307692307692,96.14742865790262L324,140.15926021063447L326.7692307692308,137.25463850303302L329.53846153846155,50.792733391556446L332.3076923076923,71.44111771847625L335.0769230769231,100.6027563470618L337.84615384615387,97.42585346017188L340.6153846153846,83.14224054223344L343.3846153846154,92.55651039526127L346.1538461538462,75.25727720278724L348.9230769230769,94.97656018814146L351.6923076923077,39.93785178236395L354.46153846153845,37.105742701784976L357.2307692307692,94.637789395071L360,54.51259761574118L362.7692307692308,132.0738347129388L365.53846153846155,47.27451782241836L368.30769230769226,74.28460372371433L371.07692307692304,79.05248722104474L373.84615384615387,70.17167083143147L376.61538461538464,3.290062309087567L379.3846153846154,78.71028966176866L382.15384615384613,54.52528933966319L384.9230769230769,97.78944796407592L387.6923076923077,135.2899473303291L390.46153846153845,66.90016928483075L393.23076923076917,83.20375632555775L396.00000000000006,85.81945018128417L398.7692307692308,53.41340564696225L401.53846153846155,71.07326087426677L404.3076923076923,119.75554187582898L407.0769230769231,67.73178544843226L409.8461538461538,131.1548911664979L412.6153846153846,61.968228364034346L415.38461538461536,90.05207980008821L418.1538461538462,54.105588233527L420.92307692307696,38.14642293773776L423.6923076923077,105.16037468066989L426.46153846153845,61.23161436070801L429.2307692307692,66.52577915437854L432,56.79579638356483L434.7692307692307,89.0660484299648L437.5384615384615,51.4720070367664L440.3076923076923,66.08671636438963L443.0769230769231,34.22424005503757L445.84615384615387,81.88643171244662L448.61538461538464,74.14925834761641L451.38461538461536,77.70751038426553L454.15384615384613,96.1152969577772L456.9230769230769,118.82711723145118L459.6923076923077,89.99240064064722L462.4615384615385,62.5205804754996L465.2307692307693,63.98228424060362L468,83.25074956604071L470.7692307692308,100.87230447276053L473.53846153846155,78.47628991771359L476.3076923076923,38.02171078331586L479.07692307692304,19.7534910717334L481.8461538461538,91.9905505162807L484.61538461538464,64.66999293364269L487.3846153846154,48.26780532924495L490.1538461538462,61.37003482759779L492.9230769230769,78.4104067402503L495.6923076923077,75.27602500513598L498.46153846153845,67.888224772473L501.2307692307692,71.58503129057769L503.99999999999994,123.60570166633211L506.76923076923083,69.23315342068248L509.53846153846155,62.109171710083956L512.3076923076924,81.48460810712466L515.0769230769231,78.69071083849322L517.8461538461538,75.26324037675609L520.6153846153846,47.407736771898605L523.3846153846154,45.27112362822572L526.1538461538461,68.89580870479689L528.9230769230769,66.81415256170831L531.6923076923077,59.42721823429282L534.4615384615385,57.15110749521589L537.2307692307693,39.36245915337153L540,75.24397558480054L542.7692307692307,71.66888662966117L545.5384615384615,39.099857121713555L548.3076923076923,47.24756505967232L551.0769230769231,119.0962937238332L553.8461538461539,61.19455727791031L556.6153846153846,77.73027082234756L559.3846153846154,76.91300190954627L562.1538461538462,35.138260369886325L564.9230769230769,50.88779916562984L567.6923076923076,70.5873838217053L570.4615384615385,46.87141810719679L573.2307692307692,44.76173016813247L576,50.66813552568357L578.7692307692308,83.06308504539983L581.5384615384615,72.40491082566918L584.3076923076923,50.06075541544652L587.0769230769231,61.30559048025333L589.8461538461538,64.73851626363847L592.6153846153846,34.219636403212434L595.3846153846154,62.91641992199459L598.1538461538462,26.94134203670986L600.9230769230769,53.16749348780473L603.6923076923077,74.0422363066533L606.4615384615385,72.17568702748105L609.2307692307692,40.94461339727688L612,83.30106135128139L614.7692307692307,66.77891547408466L617.5384615384615,35.33539213995695L620.3076923076924,99.61035576049879L623.0769230769231,80.34922939194347L625.8461538461538,79.01408184004389L628.6153846153846,41.09859338866382L631.3846153846154,79.96028001028967L634.1538461538462,42.65092739099488L636.9230769230769,61.712328877552736L639.6923076923076,39.057673410768686L642.4615384615385,101.2868687748921L645.2307692307693,50.18799796230262L648,112.69270125955829L650.7692307692308,76.64005130819757L653.5384615384615,75.54630410963311L656.3076923076923,42.91272532571833L659.0769230769231,71.38865214622183L661.8461538461538,31.26019147864616L664.6153846153846,33.3661092459155L667.3846153846154,69.91433996593133L670.1538461538462,67.8962294165174L672.9230769230769,64.78487704908622L675.6923076923077,64.33528091741985L678.4615384615385,16.94312267534201L681.2307692307692,50.13752578316107L684,38.667134918503464L686.7692307692308,52.06348618587629L689.5384615384615,63.83244374161903L692.3076923076924,12.549076569847752L695.0769230769231,24.19734464300582L697.8461538461538,24.118497898808684L700.6153846153846,65.48405907342882L703.3846153846154,45.997370686593L706.1538461538461,18.230118361738494L708.9230769230769,36.03735477343296" style="fill: none; stroke: #eeca3b; stroke-width: 2;"></path></g></g></g><g transform="translate(0,0)"><path class="background" d="M0,0h720v480h-720Z" style="fill: none;"></path><g><g class="mark-line role-mark marks"><path d="M5.538461538461538,439.5457843319216L8.307692307692308,416.3446493681192L11.076923076923077,398.8512730257313L13.846153846153847,374.32112695922007L16.615384615384617,354.35169576647945L19.384615384615387,346.6444184882363L22.153846153846153,312.63995532598074L24.923076923076923,350.4031134387162L27.692307692307693,341.7771346542987L30.461538461538463,323.0619276291126L33.23076923076923,307.20415125162157L36,292.8165051578618L38.769230769230774,278.46778260765143L41.53846153846154,264.0726242224837L44.30769230769231,245.578939649483L47.07692307692308,303.9059641657044L49.84615384615385,294.120977765502L52.61538461538462,283.88364576599866L55.38461538461539,283.01633298208645L58.15384615384616,315.77106102598964L60.92307692307693,310.1659251707484L63.69230769230769,241.5406258251343L66.46153846153847,234.13386079607486L69.23076923076924,303.77268151856583L72,285.1674953133915L74.76923076923077,301.5364706467909L77.53846153846155,296.1362100509304L80.3076923076923,243.50759405575795L83.07692307692308,247.33275581814104L85.84615384615385,224.04200200338505L88.61538461538461,223.7931462252606L91.38461538461539,257.45709630140044L94.15384615384616,257.1281282682632L96.92307692307692,243.60514875792296L99.6923076923077,224.44784646894627L102.46153846153845,217.7950162179166L105.23076923076924,258.9432912465499L108,223.5842370879416L110.76923076923077,211.2278766664603L113.53846153846153,239.20272461568035L116.30769230769232,235.8578644580735L119.07692307692308,243.3688857895624L121.84615384615385,236.99046833322126L124.61538461538461,223.28205447053955L127.38461538461539,251.62807944371067L130.15384615384616,207.14768938748688L132.92307692307693,215.2379322862355L135.69230769230768,243.47431166619356L138.46153846153848,220.6808542124128L141.23076923076923,218.59329587289284L144,203.3822761302304L146.76923076923077,216.99836174230578L149.53846153846155,203.11568936145474L152.3076923076923,197.79067060922938L155.0769230769231,206.09689805427325L157.84615384615384,252.73760601556356L160.6153846153846,226.43922346460198L163.3846153846154,221.8131237304601L166.15384615384616,220.77737693471423L168.92307692307693,211.02718752899696L171.6923076923077,210.10140984417507L174.46153846153845,197.9072581101097L177.23076923076923,195.17073745782793L180,242.189974675403L182.76923076923077,225.11115816218506L185.53846153846152,213.9574348490881L188.30769230769232,207.9326702062631L191.07692307692307,201.5360156536627L193.84615384615384,241.53111206221976L196.61538461538458,194.46647227356902L199.3846153846154,198.02813462115935L202.15384615384616,219.58528794762867L204.9230769230769,210.46677870872801L207.69230769230768,230.62694888626027L210.46153846153848,213.40132464467618L213.23076923076923,199.1805012632425L216,197.1694658919048L218.76923076923075,189.80282582171432L221.53846153846155,204.38678537232994L224.30769230769232,209.02315540155763L227.07692307692307,202.23782476371701L229.84615384615384,203.93629818684235L232.61538461538464,194.55390422744148L235.3846153846154,200.39925453172833L238.15384615384616,183.17594035019584L240.9230769230769,184.70704448605L243.6923076923077,188.333964885689L246.46153846153845,204.23687632156137L249.23076923076923,201.94905178323998L251.99999999999997,194.37673130193906L254.76923076923077,193.7407996620217L257.53846153846155,203.63184268180814L260.3076923076923,202.27731158871964L263.07692307692304,188.77203043660734L265.84615384615387,175.0133788055456L268.61538461538464,225.01728955935513L271.38461538461536,205.3848660922676L274.15384615384613,201.3030509158997L276.92307692307696,201.0532758294898L279.6923076923077,204.3467584466935L282.46153846153845,220.81087462988978L285.2307692307692,195.1318696468276L288,185.76670214764258L290.7692307692308,202.0557872837178L293.53846153846155,212.3190768195814L296.3076923076923,188.9195407099574L299.0769230769231,191.76514196752913L301.84615384615387,185.86289047919666L304.6153846153846,189.2225846054638L307.38461538461536,186.93961188488424L310.1538461538462,186.062461726883L312.9230769230769,198.5412333488509L315.6923076923077,203.9830016661363L318.46153846153845,181.85979590205423L321.2307692307692,186.46086227186726L324,188.96678045125302L326.7692307692308,193.48068405242606L329.53846153846155,178.18480002172197L332.3076923076923,182.2694432639184L335.0769230769231,206.4551171652782L337.84615384615387,203.17078417032656L340.6153846153846,204.4385372804281L343.3846153846154,204.38540989166074L346.1538461538462,197.94676939444773L348.9230769230769,194.07987985169189L351.6923076923077,188.64247759121758L354.46153846153845,181.2903886836348L357.2307692307692,188.1966764792637L360,199.74460440387463L362.7692307692308,190.32254491778363L365.53846153846155,188.95852492532657L368.30769230769226,192.98103211538694L371.07692307692304,191.20549474552823L373.84615384615387,183.93288781458838L376.61538461538464,173.28924151953166L379.3846153846154,190.22406482062055L382.15384615384613,197.6272076393555L384.9230769230769,187.99798160491557L387.6923076923077,185.61627173207245L390.46153846153845,179.10425886465435L393.23076923076917,180.6714832129197L396.00000000000006,184.4730077120823L398.7692307692308,177.03154005792598L401.53846153846155,187.37145000554722L404.3076923076923,198.49382592982755L407.0769230769231,181.5590255625685L409.8461538461538,179.28321316039768L412.6153846153846,177.71766694843615L415.38461538461536,176.1818596356657L418.1538461538462,165.49247111557213L420.92307692307696,152.79735282353366L423.6923076923077,196.99755930228113L426.46153846153845,166.18517988921286L429.2307692307692,183.17094231967386L432,159.2552077272198L434.7692307692307,180.684476476154L437.5384615384615,160.61058973977586L440.3076923076923,168.9337752947243L443.0769230769231,169.49933540097476L445.84615384615387,189.82902876097188L448.61538461538464,186.16653816870746L451.38461538461536,189.9931880270675L454.15384615384613,184.1486549376526L456.9230769230769,198.22656813593844L459.6923076923077,186.93995089783022L462.4615384615385,170.6008892188955L465.2307692307693,183.06074466384106L468,195.28306901745373L470.7692307692308,195.97633136094674L473.53846153846155,193.9531114952463L476.3076923076923,182.5445579233716L479.07692307692304,170.14211221945732L481.8461538461538,186.85083374982955L484.61538461538464,175.25954123993142L487.3846153846154,173.32940526263013L490.1538461538462,183.25068389937695L492.9230769230769,179.4618057790564L495.6923076923077,183.30557317748057L498.46153846153845,195.52851485332167L501.2307692307692,183.35574342845598L503.99999999999994,189.90766346379186L506.76923076923083,195.21521996275143L509.53846153846155,193.18162811775017L512.3076923076924,198.22759890463178L515.0769230769231,181.30315665124263L517.8461538461538,181.12846599493477L520.6153846153846,184.6796545491062L523.3846153846154,179.47798975898615L526.1538461538461,191.92574219235948L528.9230769230769,170.0877571784107L531.6923076923077,187.84282680188733L534.4615384615385,182.40304658725537L537.2307692307693,179.8609555361986L540,181.82183461942378L542.7692307692307,190.26183234317858L545.5384615384615,166.88470069725008L548.3076923076923,170.6747950688327L551.0769230769231,170.90767991946225L553.8461538461539,185.97703762336874L556.6153846153846,188.32295531471436L559.3846153846154,177.3010647632442L562.1538461538462,175.93447002577744L564.9230769230769,177.79166526641097L567.6923076923076,174.23990433059095L570.4615384615385,170.98719560202767L573.2307692307692,171.94667078212828L576,164.402669935976L578.7692307692308,174.8890610223779L581.5384615384615,175.0961004965074L584.3076923076923,179.58299073580574L587.0769230769231,181.93657790297598L589.8461538461538,165.595647804997L592.6153846153846,173.74416633875055L595.3846153846154,159.2857547350931L598.1538461538462,167.49375448048136L600.9230769230769,174.06242141440103L603.6923076923077,186.73119754737823L606.4615384615385,181.62689053911225L609.2307692307692,183.29838154921725L612,217.02773207047403L614.7692307692307,180.2369638927978L617.5384615384615,180.8186455632838L620.3076923076924,213.24814268527263L623.0769230769231,167.27497034903428L625.8461538461538,167.56354818837227L628.6153846153846,261.7495439040132L631.3846153846154,216.5050964288333L634.1538461538462,168.04197577420464L636.9230769230769,171.27356345731616L639.6923076923076,166.98016961746526L642.4615384615385,213.7901908442567L645.2307692307693,174.20090201839474L648,218.3314677653671L650.7692307692308,173.70744104132126L653.5384615384615,171.7425546836037L656.3076923076923,171.8231977914402L659.0769230769231,172.42246608137938L661.8461538461538,171.55972794328957L664.6153846153846,166.2155350011317L667.3846153846154,182.0783247465849L670.1538461538462,183.04688364313452L672.9230769230769,178.22354940135818L675.6923076923077,179.6898809438709L678.4615384615385,161.23369107710633L681.2307692307692,153.69050133230292L684,146.50527349371072L686.7692307692308,179.15079177251133L689.5384615384615,162.14519144393296L692.3076923076924,151.5791568873002L695.0769230769231,159.24425914390642L697.8461538461538,156.71629823956783L700.6153846153846,158.01345111996466L703.3846153846154,164.80828759180517L706.1538461538461,152.06747751667845L708.9230769230769,141.83844190455346" style="fill: none; stroke: #72b7b2; stroke-width: 2;"></path></g></g></g></g><g class="mark-group role-legend"><g transform="translate(738,0)"><path class="background" d="M0,0h101v92h-101Z" style="pointer-events: none; fill: none;"></path><g><g class="mark-group role-legend-entry"><g transform="translate(0,16)"><path class="background" d="M0,0h0v0h0Z" style="pointer-events: none; fill: none;"></path><g><g class="mark-group role-scope"><g transform="translate(0,0)"><path class="background" d="M0,0h101v11h-101Z" style="pointer-events: none; fill: none; opacity: 1;"></path><g><g class="mark-symbol role-legend-symbol" style="pointer-events: none;"><path transform="translate(6,6)" d="M-5,0L5,0" style="fill: none; stroke: #4c78a8; stroke-width: 1.5; opacity: 1;"></path></g><g class="mark-text role-legend-label" style="pointer-events: none;"><text text-anchor="start" transform="translate(16,9)" style="font-family: sans-serif; font-size: 10px; fill: #000; opacity: 1;">Clang-Polly</text></g></g></g><g transform="translate(0,13)"><path class="background" d="M0,0h101v11h-101Z" style="pointer-events: none; fill: none; opacity: 1;"></path><g><g class="mark-symbol role-legend-symbol" style="pointer-events: none;"><path transform="translate(6,6)" d="M-5,0L5,0" style="fill: none; stroke: #f58518; stroke-width: 1.5; opacity: 1;"></path></g><g class="mark-text role-legend-label" style="pointer-events: none;"><text text-anchor="start" transform="translate(16,9)" style="font-family: sans-serif; font-size: 10px; fill: #000; opacity: 1;">GFortran</text></g></g></g><g transform="translate(0,26)"><path class="background" d="M0,0h101v11h-101Z" style="pointer-events: none; fill: none; opacity: 1;"></path><g><g class="mark-symbol role-legend-symbol" style="pointer-events: none;"><path transform="translate(6,6)" d="M-5,0L5,0" style="fill: none; stroke: #e45756; stroke-width: 1.5; opacity: 1;"></path></g><g class="mark-text role-legend-label" style="pointer-events: none;"><text text-anchor="start" transform="translate(16,9)" style="font-family: sans-serif; font-size: 10px; fill: #000; opacity: 1;">Julia</text></g></g></g><g transform="translate(0,39)"><path class="background" d="M0,0h101v11h-101Z" style="pointer-events: none; fill: none; opacity: 1;"></path><g><g class="mark-symbol role-legend-symbol" style="pointer-events: none;"><path transform="translate(6,6)" d="M-5,0L5,0" style="fill: none; stroke: #72b7b2; stroke-width: 1.5; opacity: 1;"></path></g><g class="mark-text role-legend-label" style="pointer-events: none;"><text text-anchor="start" transform="translate(16,9)" style="font-family: sans-serif; font-size: 10px; fill: #000; opacity: 1;">LoopVectorization</text></g></g></g><g transform="translate(0,52)"><path class="background" d="M0,0h101v11h-101Z" style="pointer-events: none; fill: none; opacity: 1;"></path><g><g class="mark-symbol role-legend-symbol" style="pointer-events: none;"><path transform="translate(6,6)" d="M-5,0L5,0" style="fill: none; stroke: #54a24b; stroke-width: 1.5; opacity: 1;"></path></g><g class="mark-text role-legend-label" style="pointer-events: none;"><text text-anchor="start" transform="translate(16,9)" style="font-family: sans-serif; font-size: 10px; fill: #000; opacity: 1;">icc</text></g></g></g><g transform="translate(0,65)"><path class="background" d="M0,0h101v11h-101Z" style="pointer-events: none; fill: none; opacity: 1;"></path><g><g class="mark-symbol role-legend-symbol" style="pointer-events: none;"><path transform="translate(6,6)" d="M-5,0L5,0" style="fill: none; stroke: #eeca3b; stroke-width: 1.5; opacity: 1;"></path></g><g class="mark-text role-legend-label" style="pointer-events: none;"><text text-anchor="start" transform="translate(16,9)" style="font-family: sans-serif; font-size: 10px; fill: #000; opacity: 1;">ifort</text></g></g></g></g></g></g></g><g class="mark-text role-legend-title" style="pointer-events: none;"><text text-anchor="start" transform="translate(0,9)" style="font-family: sans-serif; font-size: 11px; font-weight: bold; fill: #000; opacity: 1;">Method</text></g></g></g></g><g class="mark-group role-axis"><g transform="translate(0.5,480.5)"><path class="background" d="M0,0h0v0h0Z" style="pointer-events: none; fill: none;"></path><g><g class="mark-rule role-axis-tick" style="pointer-events: none;"><line transform="translate(0,0)" x2="0" y2="5" style="fill: none; stroke: #888; stroke-width: 1; opacity: 1;"></line><line transform="translate(55,0)" x2="0" y2="5" style="fill: none; stroke: #888; stroke-width: 1; opacity: 1;"></line><line transform="translate(111,0)" x2="0" y2="5" style="fill: none; stroke: #888; stroke-width: 1; opacity: 1;"></line><line transform="translate(166,0)" x2="0" y2="5" style="fill: none; stroke: #888; stroke-width: 1; opacity: 1;"></line><line transform="translate(222,0)" x2="0" y2="5" style="fill: none; stroke: #888; stroke-width: 1; opacity: 1;"></line><line transform="translate(277,0)" x2="0" y2="5" style="fill: none; stroke: #888; stroke-width: 1; opacity: 1;"></line><line transform="translate(332,0)" x2="0" y2="5" style="fill: none; stroke: #888; stroke-width: 1; opacity: 1;"></line><line transform="translate(388,0)" x2="0" y2="5" style="fill: none; stroke: #888; stroke-width: 1; opacity: 1;"></line><line transform="translate(443,0)" x2="0" y2="5" style="fill: none; stroke: #888; stroke-width: 1; opacity: 1;"></line><line transform="translate(498,0)" x2="0" y2="5" style="fill: none; stroke: #888; stroke-width: 1; opacity: 1;"></line><line transform="translate(554,0)" x2="0" y2="5" style="fill: none; stroke: #888; stroke-width: 1; opacity: 1;"></line><line transform="translate(609,0)" x2="0" y2="5" style="fill: none; stroke: #888; stroke-width: 1; opacity: 1;"></line><line transform="translate(665,0)" x2="0" y2="5" style="fill: none; stroke: #888; stroke-width: 1; opacity: 1;"></line><line transform="translate(720,0)" x2="0" y2="5" style="fill: none; stroke: #888; stroke-width: 1; opacity: 1;"></line></g><g class="mark-text role-axis-label" style="pointer-events: none;"><text text-anchor="start" transform="translate(0,15)" style="font-family: sans-serif; font-size: 10px; fill: #000; opacity: 1;">0</text><text text-anchor="middle" transform="translate(55.38461538461539,15)" style="font-family: sans-serif; font-size: 10px; fill: #000; opacity: 1;">20</text><text text-anchor="middle" transform="translate(110.76923076923077,15)" style="font-family: sans-serif; font-size: 10px; fill: #000; opacity: 1;">40</text><text text-anchor="middle" transform="translate(166.15384615384616,15)" style="font-family: sans-serif; font-size: 10px; fill: #000; opacity: 1;">60</text><text text-anchor="middle" transform="translate(221.53846153846155,15)" style="font-family: sans-serif; font-size: 10px; fill: #000; opacity: 1;">80</text><text text-anchor="middle" transform="translate(276.92307692307696,15)" style="font-family: sans-serif; font-size: 10px; fill: #000; opacity: 1;">100</text><text text-anchor="middle" transform="translate(332.3076923076923,15)" style="font-family: sans-serif; font-size: 10px; fill: #000; opacity: 1;">120</text><text text-anchor="middle" transform="translate(387.6923076923077,15)" style="font-family: sans-serif; font-size: 10px; fill: #000; opacity: 1;">140</text><text text-anchor="middle" transform="translate(443.0769230769231,15)" style="font-family: sans-serif; font-size: 10px; fill: #000; opacity: 1;">160</text><text text-anchor="middle" transform="translate(498.46153846153845,15)" style="font-family: sans-serif; font-size: 10px; fill: #000; opacity: 1;">180</text><text text-anchor="middle" transform="translate(553.8461538461539,15)" style="font-family: sans-serif; font-size: 10px; fill: #000; opacity: 1;">200</text><text text-anchor="middle" transform="translate(609.2307692307692,15)" style="font-family: sans-serif; font-size: 10px; fill: #000; opacity: 1;">220</text><text text-anchor="middle" transform="translate(664.6153846153846,15)" style="font-family: sans-serif; font-size: 10px; fill: #000; opacity: 1;">240</text><text text-anchor="end" transform="translate(720,15)" style="font-family: sans-serif; font-size: 10px; fill: #000; opacity: 1;">260</text></g><g class="mark-rule role-axis-domain" style="pointer-events: none;"><line transform="translate(0,0)" x2="720" y2="0" style="fill: none; stroke: #888; stroke-width: 1; opacity: 1;"></line></g><g class="mark-text role-axis-title" style="pointer-events: none;"><text text-anchor="middle" transform="translate(360,30)" style="font-family: sans-serif; font-size: 11px; font-weight: bold; fill: #000; opacity: 1;">Size</text></g></g></g></g><g class="mark-group role-axis"><g transform="translate(0.5,0.5)"><path class="background" d="M0,0h0v0h0Z" style="pointer-events: none; fill: none;"></path><g><g class="mark-rule role-axis-tick" style="pointer-events: none;"><line transform="translate(0,480)" x2="-5" y2="0" style="fill: none; stroke: #888; stroke-width: 1; opacity: 1;"></line><line transform="translate(0,443)" x2="-5" y2="0" style="fill: none; stroke: #888; stroke-width: 1; opacity: 1;"></line><line transform="translate(0,406)" x2="-5" y2="0" style="fill: none; stroke: #888; stroke-width: 1; opacity: 1;"></line><line transform="translate(0,369)" x2="-5" y2="0" style="fill: none; stroke: #888; stroke-width: 1; opacity: 1;"></line><line transform="translate(0,332)" x2="-5" y2="0" style="fill: none; stroke: #888; stroke-width: 1; opacity: 1;"></line><line transform="translate(0,295)" x2="-5" y2="0" style="fill: none; stroke: #888; stroke-width: 1; opacity: 1;"></line><line transform="translate(0,258)" x2="-5" y2="0" style="fill: none; stroke: #888; stroke-width: 1; opacity: 1;"></line><line transform="translate(0,222)" x2="-5" y2="0" style="fill: none; stroke: #888; stroke-width: 1; opacity: 1;"></line><line transform="translate(0,185)" x2="-5" y2="0" style="fill: none; stroke: #888; stroke-width: 1; opacity: 1;"></line><line transform="translate(0,148)" x2="-5" y2="0" style="fill: none; stroke: #888; stroke-width: 1; opacity: 1;"></line><line transform="translate(0,111)" x2="-5" y2="0" style="fill: none; stroke: #888; stroke-width: 1; opacity: 1;"></line><line transform="translate(0,74)" x2="-5" y2="0" style="fill: none; stroke: #888; stroke-width: 1; opacity: 1;"></line><line transform="translate(0,37)" x2="-5" y2="0" style="fill: none; stroke: #888; stroke-width: 1; opacity: 1;"></line><line transform="translate(0,0)" x2="-5" y2="0" style="fill: none; stroke: #888; stroke-width: 1; opacity: 1;"></line></g><g class="mark-text role-axis-label" style="pointer-events: none;"><text text-anchor="end" transform="translate(-7,483)" style="font-family: sans-serif; font-size: 10px; fill: #000; opacity: 1;">0.0</text><text text-anchor="end" transform="translate(-7,446.0769230769231)" style="font-family: sans-serif; font-size: 10px; fill: #000; opacity: 1;">0.2</text><text text-anchor="end" transform="translate(-7,409.15384615384613)" style="font-family: sans-serif; font-size: 10px; fill: #000; opacity: 1;">0.4</text><text text-anchor="end" transform="translate(-7,372.2307692307692)" style="font-family: sans-serif; font-size: 10px; fill: #000; opacity: 1;">0.6</text><text text-anchor="end" transform="translate(-7,335.3076923076923)" style="font-family: sans-serif; font-size: 10px; fill: #000; opacity: 1;">0.8</text><text text-anchor="end" transform="translate(-7,298.3846153846154)" style="font-family: sans-serif; font-size: 10px; fill: #000; opacity: 1;">1.0</text><text text-anchor="end" transform="translate(-7,261.4615384615385)" style="font-family: sans-serif; font-size: 10px; fill: #000; opacity: 1;">1.2</text><text text-anchor="end" transform="translate(-7,224.53846153846155)" style="font-family: sans-serif; font-size: 10px; fill: #000; opacity: 1;">1.4</text><text text-anchor="end" transform="translate(-7,187.61538461538458)" style="font-family: sans-serif; font-size: 10px; fill: #000; opacity: 1;">1.6</text><text text-anchor="end" transform="translate(-7,150.6923076923077)" style="font-family: sans-serif; font-size: 10px; fill: #000; opacity: 1;">1.8</text><text text-anchor="end" transform="translate(-7,113.7692307692308)" style="font-family: sans-serif; font-size: 10px; fill: #000; opacity: 1;">2.0</text><text text-anchor="end" transform="translate(-7,76.84615384615385)" style="font-family: sans-serif; font-size: 10px; fill: #000; opacity: 1;">2.2</text><text text-anchor="end" transform="translate(-7,39.92307692307695)" style="font-family: sans-serif; font-size: 10px; fill: #000; opacity: 1;">2.4</text><text text-anchor="end" transform="translate(-7,3)" style="font-family: sans-serif; font-size: 10px; fill: #000; opacity: 1;">2.6</text></g><g class="mark-rule role-axis-domain" style="pointer-events: none;"><line transform="translate(0,480)" x2="0" y2="-480" style="fill: none; stroke: #888; stroke-width: 1; opacity: 1;"></line></g><g class="mark-text role-axis-title" style="pointer-events: none;"><text text-anchor="middle" transform="translate(-26,240) rotate(-90) translate(0,-2)" style="font-family: sans-serif; font-size: 11px; font-weight: bold; fill: #000; opacity: 1;">GFLOPS</text></g></g></g></g></g></g></g></g></svg>