<?xml version="1.0" encoding="utf-8"?>
<!DOCTYPE svg PUBLIC "-//W3C//DTD SVG 1.1//EN" "http://www.w3.org/Graphics/SVG/1.1/DTD/svg11.dtd">
<svg class="marks" width="1066" height="647" viewBox="0 0 1066 647" version="1.1" xmlns="http://www.w3.org/2000/svg" xmlns:xlink="http://www.w3.org/1999/xlink"><rect width="1066" height="647" style="fill: white;"></rect><g transform="translate(42,10)"><g class="mark-group role-frame root"><g transform="translate(0,0)"><path class="background" d="M0.5,0.5h900v600h-900Z" style="fill: none; stroke: #ddd;"></path><g><g class="mark-group role-axis"><g transform="translate(0.5,600.5)"><path class="background" d="M0,0h0v0h0Z" style="pointer-events: none; fill: none;"></path><g><g class="mark-rule role-axis-grid" style="pointer-events: none;"><line transform="translate(0,-600)" x2="0" y2="600" style="fill: none; stroke: #ddd; stroke-width: 1; opacity: 1;"></line><line transform="translate(35,-600)" x2="0" y2="600" style="fill: none; stroke: #ddd; stroke-width: 1; opacity: 1;"></line><line transform="translate(69,-600)" x2="0" y2="600" style="fill: none; stroke: #ddd; stroke-width: 1; opacity: 1;"></line><line transform="translate(104,-600)" x2="0" y2="600" style="fill: none; stroke: #ddd; stroke-width: 1; opacity: 1;"></line><line transform="translate(138,-600)" x2="0" y2="600" style="fill: none; stroke: #ddd; stroke-width: 1; opacity: 1;"></line><line transform="translate(173,-600)" x2="0" y2="600" style="fill: none; stroke: #ddd; stroke-width: 1; opacity: 1;"></line><line transform="translate(208,-600)" x2="0" y2="600" style="fill: none; stroke: #ddd; stroke-width: 1; opacity: 1;"></line><line transform="translate(242,-600)" x2="0" y2="600" style="fill: none; stroke: #ddd; stroke-width: 1; opacity: 1;"></line><line transform="translate(277,-600)" x2="0" y2="600" style="fill: none; stroke: #ddd; stroke-width: 1; opacity: 1;"></line><line transform="translate(312,-600)" x2="0" y2="600" style="fill: none; stroke: #ddd; stroke-width: 1; opacity: 1;"></line><line transform="translate(346,-600)" x2="0" y2="600" style="fill: none; stroke: #ddd; stroke-width: 1; opacity: 1;"></line><line transform="translate(381,-600)" x2="0" y2="600" style="fill: none; stroke: #ddd; stroke-width: 1; opacity: 1;"></line><line transform="translate(415,-600)" x2="0" y2="600" style="fill: none; stroke: #ddd; stroke-width: 1; opacity: 1;"></line><line transform="translate(450,-600)" x2="0" y2="600" style="fill: none; stroke: #ddd; stroke-width: 1; opacity: 1;"></line><line transform="translate(485,-600)" x2="0" y2="600" style="fill: none; stroke: #ddd; stroke-width: 1; opacity: 1;"></line><line transform="translate(519,-600)" x2="0" y2="600" style="fill: none; stroke: #ddd; stroke-width: 1; opacity: 1;"></line><line transform="translate(554,-600)" x2="0" y2="600" style="fill: none; stroke: #ddd; stroke-width: 1; opacity: 1;"></line><line transform="translate(588,-600)" x2="0" y2="600" style="fill: none; stroke: #ddd; stroke-width: 1; opacity: 1;"></line><line transform="translate(623,-600)" x2="0" y2="600" style="fill: none; stroke: #ddd; stroke-width: 1; opacity: 1;"></line><line transform="translate(658,-600)" x2="0" y2="600" style="fill: none; stroke: #ddd; stroke-width: 1; opacity: 1;"></line><line transform="translate(692,-600)" x2="0" y2="600" style="fill: none; stroke: #ddd; stroke-width: 1; opacity: 1;"></line><line transform="translate(727,-600)" x2="0" y2="600" style="fill: none; stroke: #ddd; stroke-width: 1; opacity: 1;"></line><line transform="translate(762,-600)" x2="0" y2="600" style="fill: none; stroke: #ddd; stroke-width: 1; opacity: 1;"></line><line transform="translate(796,-600)" x2="0" y2="600" style="fill: none; stroke: #ddd; stroke-width: 1; opacity: 1;"></line><line transform="translate(831,-600)" x2="0" y2="600" style="fill: none; stroke: #ddd; stroke-width: 1; opacity: 1;"></line><line transform="translate(865,-600)" x2="0" y2="600" style="fill: none; stroke: #ddd; stroke-width: 1; opacity: 1;"></line><line transform="translate(900,-600)" x2="0" y2="600" style="fill: none; stroke: #ddd; stroke-width: 1; opacity: 1;"></line></g></g><path class="foreground" d="" style="pointer-events: none; display: none; fill: none;"></path></g></g><g class="mark-group role-axis"><g transform="translate(0.5,0.5)"><path class="background" d="M0,0h0v0h0Z" style="pointer-events: none; fill: none;"></path><g><g class="mark-rule role-axis-grid" style="pointer-events: none;"><line transform="translate(0,600)" x2="900" y2="0" style="fill: none; stroke: #ddd; stroke-width: 1; opacity: 1;"></line><line transform="translate(0,570)" x2="900" y2="0" style="fill: none; stroke: #ddd; stroke-width: 1; opacity: 1;"></line><line transform="translate(0,540)" x2="900" y2="0" style="fill: none; stroke: #ddd; stroke-width: 1; opacity: 1;"></line><line transform="translate(0,510)" x2="900" y2="0" style="fill: none; stroke: #ddd; stroke-width: 1; opacity: 1;"></line><line transform="translate(0,480)" x2="900" y2="0" style="fill: none; stroke: #ddd; stroke-width: 1; opacity: 1;"></line><line transform="translate(0,450)" x2="900" y2="0" style="fill: none; stroke: #ddd; stroke-width: 1; opacity: 1;"></line><line transform="translate(0,420)" x2="900" y2="0" style="fill: none; stroke: #ddd; stroke-width: 1; opacity: 1;"></line><line transform="translate(0,390)" x2="900" y2="0" style="fill: none; stroke: #ddd; stroke-width: 1; opacity: 1;"></line><line transform="translate(0,360)" x2="900" y2="0" style="fill: none; stroke: #ddd; stroke-width: 1; opacity: 1;"></line><line transform="translate(0,330)" x2="900" y2="0" style="fill: none; stroke: #ddd; stroke-width: 1; opacity: 1;"></line><line transform="translate(0,300)" x2="900" y2="0" style="fill: none; stroke: #ddd; stroke-width: 1; opacity: 1;"></line><line transform="translate(0,270)" x2="900" y2="0" style="fill: none; stroke: #ddd; stroke-width: 1; opacity: 1;"></line><line transform="translate(0,240)" x2="900" y2="0" style="fill: none; stroke: #ddd; stroke-width: 1; opacity: 1;"></line><line transform="translate(0,210)" x2="900" y2="0" style="fill: none; stroke: #ddd; stroke-width: 1; opacity: 1;"></line><line transform="translate(0,180)" x2="900" y2="0" style="fill: none; stroke: #ddd; stroke-width: 1; opacity: 1;"></line><line transform="translate(0,150)" x2="900" y2="0" style="fill: none; stroke: #ddd; stroke-width: 1; opacity: 1;"></line><line transform="translate(0,120)" x2="900" y2="0" style="fill: none; stroke: #ddd; stroke-width: 1; opacity: 1;"></line><line transform="translate(0,90)" x2="900" y2="0" style="fill: none; stroke: #ddd; stroke-width: 1; opacity: 1;"></line><line transform="translate(0,60)" x2="900" y2="0" style="fill: none; stroke: #ddd; stroke-width: 1; opacity: 1;"></line><line transform="translate(0,30)" x2="900" y2="0" style="fill: none; stroke: #ddd; stroke-width: 1; opacity: 1;"></line><line transform="translate(0,0)" x2="900" y2="0" style="fill: none; stroke: #ddd; stroke-width: 1; opacity: 1;"></line></g></g><path class="foreground" d="" style="pointer-events: none; display: none; fill: none;"></path></g></g><g class="mark-group role-axis"><g transform="translate(0.5,600.5)"><path class="background" d="M0,0h0v0h0Z" style="pointer-events: none; fill: none;"></path><g><g class="mark-rule role-axis-tick" style="pointer-events: none;"><line transform="translate(0,0)" x2="0" y2="5" style="fill: none; stroke: #888; stroke-width: 1; opacity: 1;"></line><line transform="translate(35,0)" x2="0" y2="5" style="fill: none; stroke: #888; stroke-width: 1; opacity: 1;"></line><line transform="translate(69,0)" x2="0" y2="5" style="fill: none; stroke: #888; stroke-width: 1; opacity: 1;"></line><line transform="translate(104,0)" x2="0" y2="5" style="fill: none; stroke: #888; stroke-width: 1; opacity: 1;"></line><line transform="translate(138,0)" x2="0" y2="5" style="fill: none; stroke: #888; stroke-width: 1; opacity: 1;"></line><line transform="translate(173,0)" x2="0" y2="5" style="fill: none; stroke: #888; stroke-width: 1; opacity: 1;"></line><line transform="translate(208,0)" x2="0" y2="5" style="fill: none; stroke: #888; stroke-width: 1; opacity: 1;"></line><line transform="translate(242,0)" x2="0" y2="5" style="fill: none; stroke: #888; stroke-width: 1; opacity: 1;"></line><line transform="translate(277,0)" x2="0" y2="5" style="fill: none; stroke: #888; stroke-width: 1; opacity: 1;"></line><line transform="translate(312,0)" x2="0" y2="5" style="fill: none; stroke: #888; stroke-width: 1; opacity: 1;"></line><line transform="translate(346,0)" x2="0" y2="5" style="fill: none; stroke: #888; stroke-width: 1; opacity: 1;"></line><line transform="translate(381,0)" x2="0" y2="5" style="fill: none; stroke: #888; stroke-width: 1; opacity: 1;"></line><line transform="translate(415,0)" x2="0" y2="5" style="fill: none; stroke: #888; stroke-width: 1; opacity: 1;"></line><line transform="translate(450,0)" x2="0" y2="5" style="fill: none; stroke: #888; stroke-width: 1; opacity: 1;"></line><line transform="translate(485,0)" x2="0" y2="5" style="fill: none; stroke: #888; stroke-width: 1; opacity: 1;"></line><line transform="translate(519,0)" x2="0" y2="5" style="fill: none; stroke: #888; stroke-width: 1; opacity: 1;"></line><line transform="translate(554,0)" x2="0" y2="5" style="fill: none; stroke: #888; stroke-width: 1; opacity: 1;"></line><line transform="translate(588,0)" x2="0" y2="5" style="fill: none; stroke: #888; stroke-width: 1; opacity: 1;"></line><line transform="translate(623,0)" x2="0" y2="5" style="fill: none; stroke: #888; stroke-width: 1; opacity: 1;"></line><line transform="translate(658,0)" x2="0" y2="5" style="fill: none; stroke: #888; stroke-width: 1; opacity: 1;"></line><line transform="translate(692,0)" x2="0" y2="5" style="fill: none; stroke: #888; stroke-width: 1; opacity: 1;"></line><line transform="translate(727,0)" x2="0" y2="5" style="fill: none; stroke: #888; stroke-width: 1; opacity: 1;"></line><line transform="translate(762,0)" x2="0" y2="5" style="fill: none; stroke: #888; stroke-width: 1; opacity: 1;"></line><line transform="translate(796,0)" x2="0" y2="5" style="fill: none; stroke: #888; stroke-width: 1; opacity: 1;"></line><line transform="translate(831,0)" x2="0" y2="5" style="fill: none; stroke: #888; stroke-width: 1; opacity: 1;"></line><line transform="translate(865,0)" x2="0" y2="5" style="fill: none; stroke: #888; stroke-width: 1; opacity: 1;"></line><line transform="translate(900,0)" x2="0" y2="5" style="fill: none; stroke: #888; stroke-width: 1; opacity: 1;"></line></g><g class="mark-text role-axis-label" style="pointer-events: none;"><text text-anchor="start" transform="translate(0,15)" style="font-family: sans-serif; font-size: 10px; fill: #000; opacity: 1;">0</text><text text-anchor="middle" transform="translate(34.61538461538462,15)" style="font-family: sans-serif; font-size: 10px; fill: #000; opacity: 1;">10</text><text text-anchor="middle" transform="translate(69.23076923076924,15)" style="font-family: sans-serif; font-size: 10px; fill: #000; opacity: 1;">20</text><text text-anchor="middle" transform="translate(103.84615384615385,15)" style="font-family: sans-serif; font-size: 10px; fill: #000; opacity: 1;">30</text><text text-anchor="middle" transform="translate(138.46153846153848,15)" style="font-family: sans-serif; font-size: 10px; fill: #000; opacity: 1;">40</text><text text-anchor="middle" transform="translate(173.0769230769231,15)" style="font-family: sans-serif; font-size: 10px; fill: #000; opacity: 1;">50</text><text text-anchor="middle" transform="translate(207.6923076923077,15)" style="font-family: sans-serif; font-size: 10px; fill: #000; opacity: 1;">60</text><text text-anchor="middle" transform="translate(242.3076923076923,15)" style="font-family: sans-serif; font-size: 10px; fill: #000; opacity: 1;">70</text><text text-anchor="middle" transform="translate(276.92307692307696,15)" style="font-family: sans-serif; font-size: 10px; fill: #000; opacity: 1;">80</text><text text-anchor="middle" transform="translate(311.53846153846155,15)" style="font-family: sans-serif; font-size: 10px; fill: #000; opacity: 1;">90</text><text text-anchor="middle" transform="translate(346.1538461538462,15)" style="font-family: sans-serif; font-size: 10px; fill: #000; opacity: 1;">100</text><text text-anchor="middle" transform="translate(380.7692307692308,15)" style="font-family: sans-serif; font-size: 10px; fill: #000; opacity: 1;">110</text><text text-anchor="middle" transform="translate(415.3846153846154,15)" style="font-family: sans-serif; font-size: 10px; fill: #000; opacity: 1;">120</text><text text-anchor="middle" transform="translate(450,15)" style="font-family: sans-serif; font-size: 10px; fill: #000; opacity: 1;">130</text><text text-anchor="middle" transform="translate(484.6153846153846,15)" style="font-family: sans-serif; font-size: 10px; fill: #000; opacity: 1;">140</text><text text-anchor="middle" transform="translate(519.2307692307692,15)" style="font-family: sans-serif; font-size: 10px; fill: #000; opacity: 1;">150</text><text text-anchor="middle" transform="translate(553.8461538461539,15)" style="font-family: sans-serif; font-size: 10px; fill: #000; opacity: 1;">160</text><text text-anchor="middle" transform="translate(588.4615384615385,15)" style="font-family: sans-serif; font-size: 10px; fill: #000; opacity: 1;">170</text><text text-anchor="middle" transform="translate(623.0769230769231,15)" style="font-family: sans-serif; font-size: 10px; fill: #000; opacity: 1;">180</text><text text-anchor="middle" transform="translate(657.6923076923076,15)" style="font-family: sans-serif; font-size: 10px; fill: #000; opacity: 1;">190</text><text text-anchor="middle" transform="translate(692.3076923076924,15)" style="font-family: sans-serif; font-size: 10px; fill: #000; opacity: 1;">200</text><text text-anchor="middle" transform="translate(726.9230769230769,15)" style="font-family: sans-serif; font-size: 10px; fill: #000; opacity: 1;">210</text><text text-anchor="middle" transform="translate(761.5384615384615,15)" style="font-family: sans-serif; font-size: 10px; fill: #000; opacity: 1;">220</text><text text-anchor="middle" transform="translate(796.1538461538461,15)" style="font-family: sans-serif; font-size: 10px; fill: #000; opacity: 1;">230</text><text text-anchor="middle" transform="translate(830.7692307692308,15)" style="font-family: sans-serif; font-size: 10px; fill: #000; opacity: 1;">240</text><text text-anchor="middle" transform="translate(865.3846153846154,15)" style="font-family: sans-serif; font-size: 10px; fill: #000; opacity: 1;">250</text><text text-anchor="end" transform="translate(900,15)" style="font-family: sans-serif; font-size: 10px; fill: #000; opacity: 1;">260</text></g><g class="mark-rule role-axis-domain" style="pointer-events: none;"><line transform="translate(0,0)" x2="900" y2="0" style="fill: none; stroke: #888; stroke-width: 1; opacity: 1;"></line></g><g class="mark-text role-axis-title" style="pointer-events: none;"><text text-anchor="middle" transform="translate(450,30)" style="font-family: sans-serif; font-size: 11px; font-weight: bold; fill: #000; opacity: 1;">Size</text></g></g><path class="foreground" d="" style="pointer-events: none; display: none; fill: none;"></path></g></g><g class="mark-group role-axis"><g transform="translate(0.5,0.5)"><path class="background" d="M0,0h0v0h0Z" style="pointer-events: none; fill: none;"></path><g><g class="mark-rule role-axis-tick" style="pointer-events: none;"><line transform="translate(0,600)" x2="-5" y2="0" style="fill: none; stroke: #888; stroke-width: 1; opacity: 1;"></line><line transform="translate(0,570)" x2="-5" y2="0" style="fill: none; stroke: #888; stroke-width: 1; opacity: 1;"></line><line transform="translate(0,540)" x2="-5" y2="0" style="fill: none; stroke: #888; stroke-width: 1; opacity: 1;"></line><line transform="translate(0,510)" x2="-5" y2="0" style="fill: none; stroke: #888; stroke-width: 1; opacity: 1;"></line><line transform="translate(0,480)" x2="-5" y2="0" style="fill: none; stroke: #888; stroke-width: 1; opacity: 1;"></line><line transform="translate(0,450)" x2="-5" y2="0" style="fill: none; stroke: #888; stroke-width: 1; opacity: 1;"></line><line transform="translate(0,420)" x2="-5" y2="0" style="fill: none; stroke: #888; stroke-width: 1; opacity: 1;"></line><line transform="translate(0,390)" x2="-5" y2="0" style="fill: none; stroke: #888; stroke-width: 1; opacity: 1;"></line><line transform="translate(0,360)" x2="-5" y2="0" style="fill: none; stroke: #888; stroke-width: 1; opacity: 1;"></line><line transform="translate(0,330)" x2="-5" y2="0" style="fill: none; stroke: #888; stroke-width: 1; opacity: 1;"></line><line transform="translate(0,300)" x2="-5" y2="0" style="fill: none; stroke: #888; stroke-width: 1; opacity: 1;"></line><line transform="translate(0,270)" x2="-5" y2="0" style="fill: none; stroke: #888; stroke-width: 1; opacity: 1;"></line><line transform="translate(0,240)" x2="-5" y2="0" style="fill: none; stroke: #888; stroke-width: 1; opacity: 1;"></line><line transform="translate(0,210)" x2="-5" y2="0" style="fill: none; stroke: #888; stroke-width: 1; opacity: 1;"></line><line transform="translate(0,180)" x2="-5" y2="0" style="fill: none; stroke: #888; stroke-width: 1; opacity: 1;"></line><line transform="translate(0,150)" x2="-5" y2="0" style="fill: none; stroke: #888; stroke-width: 1; opacity: 1;"></line><line transform="translate(0,120)" x2="-5" y2="0" style="fill: none; stroke: #888; stroke-width: 1; opacity: 1;"></line><line transform="translate(0,90)" x2="-5" y2="0" style="fill: none; stroke: #888; stroke-width: 1; opacity: 1;"></line><line transform="translate(0,60)" x2="-5" y2="0" style="fill: none; stroke: #888; stroke-width: 1; opacity: 1;"></line><line transform="translate(0,30)" x2="-5" y2="0" style="fill: none; stroke: #888; stroke-width: 1; opacity: 1;"></line><line transform="translate(0,0)" x2="-5" y2="0" style="fill: none; stroke: #888; stroke-width: 1; opacity: 1;"></line></g><g class="mark-text role-axis-label" style="pointer-events: none;"><text text-anchor="end" transform="translate(-7,603)" style="font-family: sans-serif; font-size: 10px; fill: #000; opacity: 1;">0.0</text><text text-anchor="end" transform="translate(-7,573)" style="font-family: sans-serif; font-size: 10px; fill: #000; opacity: 1;">0.2</text><text text-anchor="end" transform="translate(-7,543)" style="font-family: sans-serif; font-size: 10px; fill: #000; opacity: 1;">0.4</text><text text-anchor="end" transform="translate(-7,513)" style="font-family: sans-serif; font-size: 10px; fill: #000; opacity: 1;">0.6</text><text text-anchor="end" transform="translate(-7,483)" style="font-family: sans-serif; font-size: 10px; fill: #000; opacity: 1;">0.8</text><text text-anchor="end" transform="translate(-7,453)" style="font-family: sans-serif; font-size: 10px; fill: #000; opacity: 1;">1.0</text><text text-anchor="end" transform="translate(-7,423)" style="font-family: sans-serif; font-size: 10px; fill: #000; opacity: 1;">1.2</text><text text-anchor="end" transform="translate(-7,393)" style="font-family: sans-serif; font-size: 10px; fill: #000; opacity: 1;">1.4</text><text text-anchor="end" transform="translate(-7,363)" style="font-family: sans-serif; font-size: 10px; fill: #000; opacity: 1;">1.6</text><text text-anchor="end" transform="translate(-7,333)" style="font-family: sans-serif; font-size: 10px; fill: #000; opacity: 1;">1.8</text><text text-anchor="end" transform="translate(-7,303)" style="font-family: sans-serif; font-size: 10px; fill: #000; opacity: 1;">2.0</text><text text-anchor="end" transform="translate(-7,273)" style="font-family: sans-serif; font-size: 10px; fill: #000; opacity: 1;">2.2</text><text text-anchor="end" transform="translate(-7,243)" style="font-family: sans-serif; font-size: 10px; fill: #000; opacity: 1;">2.4</text><text text-anchor="end" transform="translate(-7,213)" style="font-family: sans-serif; font-size: 10px; fill: #000; opacity: 1;">2.6</text><text text-anchor="end" transform="translate(-7,183.00000000000003)" style="font-family: sans-serif; font-size: 10px; fill: #000; opacity: 1;">2.8</text><text text-anchor="end" transform="translate(-7,153)" style="font-family: sans-serif; font-size: 10px; fill: #000; opacity: 1;">3.0</text><text text-anchor="end" transform="translate(-7,122.99999999999997)" style="font-family: sans-serif; font-size: 10px; fill: #000; opacity: 1;">3.2</text><text text-anchor="end" transform="translate(-7,93.00000000000001)" style="font-family: sans-serif; font-size: 10px; fill: #000; opacity: 1;">3.4</text><text text-anchor="end" transform="translate(-7,62.999999999999986)" style="font-family: sans-serif; font-size: 10px; fill: #000; opacity: 1;">3.6</text><text text-anchor="end" transform="translate(-7,33.00000000000003)" style="font-family: sans-serif; font-size: 10px; fill: #000; opacity: 1;">3.8</text><text text-anchor="end" transform="translate(-7,3)" style="font-family: sans-serif; font-size: 10px; fill: #000; opacity: 1;">4.0</text></g><g class="mark-rule role-axis-domain" style="pointer-events: none;"><line transform="translate(0,600)" x2="0" y2="-600" style="fill: none; stroke: #888; stroke-width: 1; opacity: 1;"></line></g><g class="mark-text role-axis-title" style="pointer-events: none;"><text text-anchor="middle" transform="translate(-26,300) rotate(-90) translate(0,-2)" style="font-family: sans-serif; font-size: 11px; font-weight: bold; fill: #000; opacity: 1;">GFLOPS</text></g></g><path class="foreground" d="" style="pointer-events: none; display: none; fill: none;"></path></g></g><g class="mark-group role-scope pathgroup"><g transform="translate(0,0)"><path class="background" d="M0,0h900v600h-900Z" style="fill: none;"></path><g><g class="mark-line role-mark marks"><path d="M6.923076923076923,505.8928197613565L10.384615384615385,457.0815450643777L13.846153846153847,425.9504708754796L17.30769230769231,399.1845512791791L20.76923076923077,381.6462310157447L24.230769230769234,371.409760513538L27.692307692307693,366.7554701489277L31.153846153846157,367.4656994164958L34.61538461538462,381.22268953462964L38.07692307692308,380.72886500011583L41.53846153846154,376.91107644305765L45,375.22585223395834L48.46153846153847,373.84992537126755L51.92307692307693,371.2862752609903L55.38461538461539,368.3897002305918L58.84615384615385,367.2055637666781L62.307692307692314,369.1670011855973L65.76923076923077,372.3720371006527L69.23076923076924,375.7632220151928L72.6923076923077,374.9433332007794L76.15384615384616,381.6620066673836L79.61538461538461,380.4569913436793L83.07692307692308,383.25063536245915L86.53846153846155,382.19664917921807L90,383.1186470869841L93.46153846153847,383.52938824869824L96.92307692307693,383.7731503694463L100.38461538461539,385.69618827768704L103.84615384615385,385.9499271155666L107.3076923076923,385.3462644378381L110.76923076923077,209.8570214652528L114.23076923076923,229.01724272974457L117.6923076923077,230.0498474815862L121.15384615384615,235.6407012470631L124.61538461538463,235.4726038089291L128.07692307692307,241.50266309069607L131.53846153846155,244.98104114911177L135,249.50799158182127L138.46153846153848,244.48784298408356L141.9230769230769,255.8561959430201L145.3846153846154,260.2824187164448L148.84615384615384,268.36108676599474L152.30769230769232,272.282477056813L155.76923076923077,282.1329639889197L159.23076923076923,287.6926040061633L162.69230769230768,293.6170212765957L166.15384615384616,296.43779039752195L169.6153846153846,308.0784812137581L173.0769230769231,313.7190330065115L176.53846153846155,318.31185384506443L180,323.95833333333326L183.46153846153845,332.35660847880297L186.92307692307693,342.2471650080999L190.3846153846154,346.9463767322123L193.84615384615387,347.46835443037975L197.3076923076923,358.3333333333333L200.76923076923077,359.3154110659581L204.23076923076923,363.45097262782747L207.6923076923077,361.0735009671179L211.15384615384616,368.25980392156856L214.6153846153846,368.5409533842507L218.07692307692307,370.35818250854317L221.53846153846155,193.03463118763452L225,210.70780399274048L228.46153846153845,218.44224574321217L231.9230769230769,220.94403461090468L235.3846153846154,218.01899592944366L238.84615384615384,224.8640811888365L242.3076923076923,228.40607000443066L245.76923076923075,235.2431289640592L249.23076923076925,233.51066577139608L252.6923076923077,244.05017571261223L256.15384615384613,247.2789756143489L259.6153846153846,251.41562853907132L263.0769230769231,253.30232149910037L266.53846153846155,260.26564987848815L270,264.56854838709677L273.46153846153845,285.1282902931163L276.92307692307696,285.6276531231049L280.3846153846154,294.12848261570343L283.8461538461538,299.39269019838787L287.30769230769226,304.3570444185307L290.7692307692308,307.2170585019136L294.2307692307692,307.7071740361867L297.6923076923077,312.03694794573266L301.15384615384613,317.99621132393173L304.61538461538464,323.43702707247354L308.0769230769231,332.7624555160142L311.53846153846155,330.6764797995615L315,334.14988205407366L318.46153846153845,335.65396498455203L321.9230769230769,338.60261138243794L325.38461538461536,337.90966900375014L328.8461538461538,344.72849412203766L332.3076923076923,244.98665650019063L335.7692307692308,253.75169112290556L339.2307692307692,255.9923006787559L342.6923076923077,259.80494829166116L346.1538461538462,258.3660846594936L349.61538461538464,264.61724490745047L353.0769230769231,268.76951717511406L356.53846153846155,272.04338698390484L360,265.22627737226276L363.46153846153845,272.8074473297403L366.9230769230769,275.42766295707474L370.38461538461536,277.33689076412367L373.84615384615387,278.1359176109609L377.3076923076923,286.98149329929805L380.7692307692308,290.84259389506263L384.2307692307692,300.19292604501607L387.69230769230774,294.60442070718443L391.1538461538462,306.01570107108074L394.6153846153846,308.6494014460116L398.07692307692304,310.66254084849186L401.53846153846155,307.52521334367725L405,315.97462712154976L408.46153846153845,320.0465193553747L411.9230769230769,322.88883857822054L415.3846153846154,321.51008534987045L418.84615384615387,328.9054848188051L422.3076923076923,329.42661377569414L425.7692307692308,332.848079093846L429.2307692307692,332.3176113904133L432.6923076923077,335.52130756026565L436.15384615384613,336.8669151501864L439.6153846153846,339.3479422768572L443.0769230769231,261.8933861169886L446.53846153846155,255.8823529411765L450,255.34455425506792L453.46153846153845,257.0975311498166L456.9230769230769,255.12228661231703L460.38461538461536,259.48476260229916L463.8461538461538,261.7567623717123L467.3076923076923,265.6279088591202L470.7692307692308,257.17790407654246L474.2307692307692,269.668025626092L477.6923076923077,271.55359385107107L481.15384615384613,275.0528776577981L484.6153846153846,271.45023486333537L488.07692307692304,275.21358278360543L491.5384615384615,277.68253968253964L495.00000000000006,284.6554364471669L498.4615384615385,282.06273474774133L501.92307692307696,287.4507874015747L505.3846153846154,288.71591568362015L508.8461538461538,288.1307339449541L512.3076923076923,286.9096071935636L515.7692307692307,294.9499545040946L519.2307692307692,301.97368421052624L522.6923076923077,311.0532941670164L526.1538461538462,306.68460438913644L529.6153846153846,314.42307692307685L533.0769230769231,314.769377837967L536.5384615384615,318.7281892206281L540,316.5277777777777L543.4615384615385,321.1137760455704L546.9230769230769,320.1411065725956L550.3846153846155,329.51516869861075L553.8461538461539,271.7077315208156L557.3076923076924,277.9204741911583L560.7692307692308,274.18771078391046L564.2307692307692,276.86356676605686L567.6923076923076,277.55004766444233L571.1538461538461,280.5458362491253L574.6153846153845,300.64790151896904L578.0769230769231,285.0942831487578L581.5384615384615,276.75142314990507L585,287.10520583750815L588.4615384615385,300.94643714422875L591.9230769230769,290.79058031959624L595.3846153846154,285.0328134923435L598.8461538461538,293.8779661016949L602.3076923076923,300.8644966926452L605.7692307692308,298.35466179159044L609.2307692307693,296.86668829062603L612.6923076923077,301.92999053926206L616.1538461538462,301.14432216108054L619.6153846153846,306.3791008505468L623.0769230769231,303.88996606883177L626.5384615384615,318.84495021337125L630,320.1333258640972L633.4615384615385,321.0889612899663L636.9230769230769,314.66890192791277L640.3846153846154,324.73468081702305L643.8461538461538,325.70842752746967L647.3076923076923,341.8795888399413L650.7692307692307,327.57104886526275L654.2307692307692,330.1623083859333L657.6923076923076,330.9061248702358L661.1538461538462,334.7350147080098L664.6153846153846,287.06226776263935L668.0769230769231,288.606121091151L671.5384615384615,287.9571075061864L675,287.83011162537434L678.4615384615385,285.94512525756426L681.9230769230769,291.2779653862389L685.3846153846154,290.9647058823529L688.8461538461538,294.09715105554415L692.3076923076924,288.11420295851866L695.7692307692308,298.60444400455293L699.2307692307693,297.3429119716577L702.6923076923077,301.74292985067456L706.1538461538462,293.3268149596675L709.6153846153846,316.0817533951862L713.0769230769231,312.7066115702479L716.5384615384615,329.3550685161128L720,297.7052524222335L723.4615384615385,305.6206403147916L726.9230769230769,312.7452675252831L730.3846153846154,307.8758326439984L733.8461538461538,307.6650841605524L737.3076923076923,316.04717803895505L740.7692307692307,328.4263959390863L744.2307692307692,326.01769911504425L747.6923076923077,322.0148663609047L751.1538461538462,333.29700067653914L754.6153846153846,330.49450549450546L758.0769230769231,329.14324263548457L761.5384615384615,337.6146788990825L765,339.9540636042402L768.4615384615385,344.1374082624126L771.9230769230769,337.55516637478104L775.3846153846155,310.6552357624005L778.8461538461539,306.0920160295931L782.3076923076924,305.85964375812244L785.7692307692308,314.2552173432956L789.2307692307692,304.54956994114985L792.6923076923076,312.5313830367864L796.1538461538461,312.97630195202765L799.6153846153845,318.5786802030457L803.0769230769231,323.2439074339545L806.5384615384615,323.34156489969894L810,324.56339533175276L813.4615384615385,319.51178394416536L816.9230769230769,369.73871994730484L820.3846153846154,326.9884805266045L823.8461538461538,323.3006875081074L827.3076923076923,335.76561636263125L830.7692307692308,336.3639126074934L834.2307692307693,322.6899546708086L837.6923076923077,334.31824342640283L841.1538461538462,344.0485783354438L844.6153846153846,338.9823601327356L848.0769230769231,349.75779887618677L851.5384615384615,348.7027489040227L855,362.7636776742144L858.4615384615385,349.42379483850027L861.9230769230769,354.06273869412905L865.3846153846154,358.81463639624866L868.8461538461538,358.776568697244L872.3076923076923,360.81334567191055L875.7692307692307,356.5279987876032L879.2307692307692,358.0078708777523L882.6923076923076,359.0076786769049L886.1538461538462,379.04352498656635" style="fill: none; stroke: #ff7f0e; stroke-width: 2;"></path></g></g><path class="foreground" d="" style="display: none; fill: none;"></path></g><g transform="translate(0,0)"><path class="background" d="M0,0h900v600h-900Z" style="fill: none;"></path><g><g class="mark-line role-mark marks"><path d="M6.923076923076923,462.63736263736257L10.384615384615385,416.1913523459061L13.846153846153847,388.87243494817005L17.30769230769231,375.27048687637745L20.76923076923077,342.30800821355234L24.230769230769234,345.8346029617893L27.692307692307693,333.2834928229665L31.153846153846157,343.34303838960335L34.61538461538462,357.84551072883926L38.07692307692308,352.07099060874964L41.53846153846154,351.1806098514464L45,348.2249107497025L48.46153846153847,349.1801967527793L51.92307692307693,348.47549685224044L55.38461538461539,355.7176843774782L58.84615384615385,355.99244008364155L62.307692307692314,355.69489642035086L65.76923076923077,357.9847547878557L69.23076923076924,360.39626508767924L72.6923076923077,364.050380155134L76.15384615384616,368.76995530012766L79.61538461538461,368.25578760778876L83.07692307692308,370.2266630379845L86.53846153846155,370.9159818645509L90,371.9107433470098L93.46153846153847,372.9026663776284L96.92307692307693,373.5012544891032L100.38461538461539,373.6145795604019L103.84615384615385,374.2422825070159L107.3076923076923,375.23512758640345L110.76923076923077,166.3415597235933L114.23076923076923,182.8789531079607L117.6923076923077,189.0396623295078L121.15384615384615,190.89111086693774L124.61538461538463,191.53098560540133L128.07692307692307,199.14917753828698L131.53846153846155,204.885430177259L135,208.9711694627249L138.46153846153848,213.1211613623674L141.9230769230769,222.78203723986852L145.3846153846154,231.03164296347907L148.84615384615384,238.33714815960408L152.30769230769232,244.39433991603175L155.76923076923077,253.43403527048142L159.23076923076923,263.224670399133L162.69230769230768,272.3787394713912L166.15384615384616,275.97354886113146L169.6153846153846,291.5393654524089L173.0769230769231,296.11503932628904L176.53846153846155,303.55466130114013L180,305.995306165991L183.46153846153845,315.62003179650236L186.92307692307693,323.41218103929964L190.3846153846154,329.4448348559381L193.84615384615387,327.6605426312496L197.3076923076923,347.22193903557957L200.76923076923077,347.15669640413773L204.23076923076923,354.4067012693356L207.6923076923077,348.6647337097512L211.15384615384616,358.09248554913296L214.6153846153846,358.0813873468826L218.07692307692307,361.71255964628114L221.53846153846155,158.35515606200016L225,183.25238002720025L228.46153846153845,186.98630136986296L231.9230769230769,196.98059798313383L235.3846153846154,204.93965759191693L238.84615384615384,211.50731942731514L242.3076923076923,219.07924991058186L245.76923076923075,225.17923093634587L249.23076923076925,228.30801466736514L252.6923076923077,238.65325537607765L256.15384615384613,243.89258555133082L259.6153846153846,249.22277430824627L263.0769230769231,253.77333683933742L266.53846153846155,260.635359116022L270,264.8658448150834L273.46153846153845,269.8653459216839L276.92307692307696,275.96399599955544L280.3846153846154,278.8459988717866L283.8461538461538,282.8271844660194L287.30769230769226,308.92391190898655L290.7692307692308,291.48782946852947L294.2307692307692,296.20779220779224L297.6923076923077,297.2688650617034L301.15384615384613,300.9569689473341L304.61538461538464,304.87973371852036L308.0769230769231,311.99876724994L311.53846153846155,312.23731762816215L315,315.3303108808291L318.46153846153845,317.0456692913385L321.9230769230769,321.64301310043663L325.38461538461536,324.02578290558034L328.8461538461538,341.529159843809L332.3076923076923,219.9442214815319L335.7692307692308,229.91272750867859L339.2307692307692,231.5346393644966L342.6923076923077,236.57658287592216L346.1538461538462,235.97981670270823L349.61538461538464,246.41911548393423L353.0769230769231,249.9444673626757L356.53846153846155,254.79098888957088L360,246.7434838868692L363.46153846153845,263.5041750647855L366.9230769230769,264.01816865249157L370.38461538461536,268.35459183673464L373.84615384615387,268.71580000625374L377.3076923076923,276.39297067114495L380.7692307692308,277.60011735367465L384.2307692307692,282.4611193097968L387.69230769230774,280.75338434373157L391.1538461538462,290.30676026541005L394.6153846153846,293.13713251357586L398.07692307692304,297.33180058083246L401.53846153846155,295.795104748812L405,302.52528154447253L408.46153846153845,301.7522744167935L411.9230769230769,302.88171446405653L415.3846153846154,300.10327022375213L418.84615384615387,318.1659082954148L422.3076923076923,317.5252556942962L425.7692307692308,319.50631411173316L429.2307692307692,318.1020894798529L432.6923076923077,322.2657627649986L436.15384615384613,325.7949049921937L439.6153846153846,326.26852267624605L443.0769230769231,242.3290203327172L446.53846153846155,226.12585832763594L450,227.75413849382133L453.46153846153845,228.83411440632494L456.9230769230769,231.74381205425806L460.38461538461536,233.53096404948764L463.8461538461538,234.54545454545453L467.3076923076923,237.5958153765174L470.7692307692308,235.8922580855291L474.2307692307692,244.72423188950478L477.6923076923077,246.71141488969835L481.15384615384613,252.00286123032902L484.6153846153846,250.71563384712178L488.07692307692304,254.91209927611166L491.5384615384615,257.98180933488044L495.00000000000006,265.1344319167389L498.4615384615385,272.28209689233023L501.92307692307696,272.73008347933626L505.3846153846154,273.23386114494514L508.8461538461538,276.02501737317584L512.3076923076923,276.21378230227094L515.7692307692307,278.57142857142856L519.2307692307692,278.54101617939256L522.6923076923077,290.70164405713774L526.1538461538462,291.86467626534755L529.6153846153846,300.127269641948L533.0769230769231,302.76440312136805L536.5384615384615,301.2109728972732L540,299.87746099174905L543.4615384615385,307.2001888574126L546.9230769230769,308.4938500812254L550.3846153846155,309.8540145985402L553.8461538461539,257.47717400939626L557.3076923076924,249.5924764890282L560.7692307692308,248.88750997252015L564.2307692307692,251.92708333333331L567.6923076923076,253.04726899735016L571.1538461538461,251.6153650470618L574.6153846153845,267.54876878797563L578.0769230769231,256.092179455749L581.5384615384615,251.26105470029475L585,262.39717978848415L588.4615384615385,278.04932073242765L591.9230769230769,269.57759137207904L595.3846153846154,264.50691521346965L598.8461538461538,271.25591554423005L602.3076923076923,284.3251088534107L605.7692307692308,276.8778850188837L609.2307692307693,279.0218436598434L612.6923076923077,283.3779981240788L616.1538461538462,284.5762935586061L619.6153846153846,288.7357506279384L623.0769230769231,287.9310344827586L626.5384615384615,292.8389382731398L630,292.2569914993224L633.4615384615385,294.74193158467307L636.9230769230769,292.7797833935018L640.3846153846154,305.10769582357307L643.8461538461538,305.3371738393765L647.3076923076923,317.8943989728775L650.7692307692307,307.9241560718982L654.2307692307692,311.39627089584224L657.6923076923076,310.5752871118673L661.1538461538462,314.362862187143L664.6153846153846,269.9679372996081L668.0769230769231,261.7094325984821L671.5384615384615,259.94486726194043L675,261.59022489817596L678.4615384615385,259.9859105318774L681.9230769230769,264.1274397244546L685.3846153846154,264.0347885402456L688.8461538461538,267.7611441927764L692.3076923076924,262.3740201567749L695.7692307692308,268.8074392299744L699.2307692307693,270.42276161388844L702.6923076923077,278.91036906854134L706.1538461538462,269.3896911563192L709.6153846153846,295.3102453102453L713.0769230769231,291.17902665121665L716.5384615384615,318.6372745490982L720,283.17947721309883L723.4615384615385,287.36347231455983L726.9230769230769,295.1146788990826L730.3846153846154,291.84348305318264L733.8461538461538,294.1064896355507L737.3076923076923,301.0232192050374L740.7692307692307,304.0903828838485L744.2307692307692,303.5240040858019L747.6923076923077,305.4175221016466L751.1538461538462,317.6435478094783L754.6153846153846,312.2011011533979L758.0769230769231,312.19784158336984L761.5384615384615,320.8207326876698L765,324.7625102849876L768.4615384615385,321.4277675657425L771.9230769230769,324.1440247404461L775.3846153846155,283.20482735501173L778.8461538461539,282.96687310362023L782.3076923076924,280.5338757887745L785.7692307692308,298.06316116988177L789.2307692307692,283.3333333333333L792.6923076923076,286.37608669763006L796.1538461538461,291.6305525460455L799.6153846153845,293.4914401189614L803.0769230769231,314.00959367945825L806.5384615384615,296.4028509911649L810,301.78958785249455L813.4615384615385,296.00964700723523L816.9230769230769,362.28820762735876L820.3846153846154,320.550252667041L823.8461538461538,300.3371615214414L827.3076923076923,308.4575765790186L830.7692307692308,313.0288095789369L834.2307692307693,305.60304213218467L837.6923076923077,317.7582952036604L841.1538461538462,327.1505706221622L844.6153846153846,321.04526364909003L848.0769230769231,325.0623441396508L851.5384615384615,322.116527942925L855,341.26657843606563L858.4615384615385,332.9912657461589L861.9230769230769,336.0424028268551L865.3846153846154,342.03140844684407L868.8461538461538,347.4432347539063L872.3076923076923,350.69343065693425L875.7692307692307,341.9196787148594L879.2307692307692,347.51819126819123L882.6923076923076,340.93181998571316L886.1538461538462,362.0198220357375" style="fill: none; stroke: #1f77b4; stroke-width: 2;"></path></g></g><path class="foreground" d="" style="display: none; fill: none;"></path></g><g transform="translate(0,0)"><path class="background" d="M0,0h900v600h-900Z" style="fill: none;"></path><g><g class="mark-line role-mark marks"><path d="M6.923076923076923,489.9106158932288L10.384615384615385,447.2477064220183L13.846153846153847,421.7008099094807L17.30769230769231,397.5426867829072L20.76923076923077,387.0754076086956L24.230769230769234,369.3316003429108L27.692307692307693,387.4872777345387L31.153846153846157,384.6388241620362L34.61538461538462,373.5869013369436L38.07692307692308,379.09815064983457L41.53846153846154,379.61924736820873L45,385.39780848022866L48.46153846153847,386.7742775318927L51.92307692307693,386.26220086603394L55.38461538461539,244.63231321852697L58.84615384615385,277.3413371972676L62.307692307692314,292.29517475590774L65.76923076923077,300.5221464938107L69.23076923076924,303.08436174483757L72.6923076923077,304.82530604950404L76.15384615384616,308.7654752903204L79.61538461538461,317.0976070286308L83.07692307692308,193.23750316464597L86.53846153846155,224.94908811150827L90,233.7345146126605L93.46153846153847,248.64328348199308L96.92307692307693,259.8851124940162L100.38461538461539,263.5438869672874L103.84615384615385,269.9265195472272L107.3076923076923,280.3297016463161L110.76923076923077,158.393627613674L114.23076923076923,202.5384505838792L117.6923076923077,215.31434947654L121.15384615384615,223.92519124894324L124.61538461538463,222.15962815140685L128.07692307692307,230.49323938297465L131.53846153846155,243.53411707671796L135,245.43104183042428L138.46153846153848,135.23383714489194L141.9230769230769,176.81753020684L145.3846153846154,193.4171154997008L148.84615384615384,194.8308964702407L152.30769230769232,197.49332885088145L155.76923076923077,207.29507885717172L159.23076923076923,221.27222861187292L162.69230769230768,223.39133953864825L166.15384615384616,126.52938523974149L169.6153846153846,169.9502226879748L173.0769230769231,175.61086315152423L176.53846153846155,185.1741022850925L180,189.39213349225267L183.46153846153845,199.49622166246849L186.92307692307693,209.21052631578948L190.3846153846154,216.47019757595874L193.84615384615387,128.4152467251059L197.3076923076923,168.59504132231402L200.76923076923077,170.711716985866L204.23076923076923,178.23669579030968L207.6923076923077,179.2136123246723L211.15384615384616,189.95301770870972L214.6153846153846,198.09301687474272L218.07692307692307,205.47945205479448L221.53846153846155,134.74500447360575L225,182.38691673697187L228.46153846153845,188.11475409836063L231.9230769230769,191.53666845974536L235.3846153846154,187.04453441295544L238.84615384615384,216.52463875509446L242.3076923076923,220.62999338456055L245.76923076923075,223.91280653950957L249.23076923076925,144.1457068516912L252.6923076923077,202.2525224979547L256.15384615384613,205.11752925055336L259.6153846153846,213.02489313552928L263.0769230769231,216.17839965019675L266.53846153846155,248.55879675783444L270,246.91426146010184L273.46153846153845,253.12843029637756L276.92307692307696,186.77373641946144L280.3846153846154,227.69058295964126L283.8461538461538,228.94354252483643L287.30769230769226,235.73667711598748L290.7692307692308,233.3168486324038L294.2307692307692,254.01908968998976L297.6923076923077,252.79399822112225L301.15384615384613,259.8593113661607L304.61538461538464,194.95862703034007L308.0769230769231,233.36766220391343L311.53846153846155,232.28196206083734L315,239.87525540380682L318.46153846153845,235.3200255736307L321.9230769230769,250.79724376685198L325.38461538461536,250.7056944489716L328.8461538461538,257.43262278148177L332.3076923076923,192.50237035956528L335.7692307692308,208.7797516976473L339.2307692307692,214.8216767021769L342.6923076923077,219.36496747941436L346.1538461538462,217.0616113744076L349.61538461538464,228.12499999999994L353.0769230769231,230.10763504677598L356.53846153846155,236.50583330640205L360,192.0879433633355L363.46153846153845,211.53769445552447L366.9230769230769,214.10518129678223L370.38461538461536,220.20157756354072L373.84615384615387,216.82063364126728L377.3076923076923,227.47447847314692L380.7692307692308,229.51885565669699L384.2307692307692,234.94942903752033L387.69230769230774,195.3841001126572L391.1538461538462,214.04174573055025L394.6153846153846,215.55504871134863L398.07692307692304,221.58413969174518L401.53846153846155,215.63296516567542L405,229.32490080844838L408.46153846153845,229.82425307557114L411.9230769230769,233.42840844266968L415.3846153846154,190.2163687676387L418.84615384615387,217.71882373251998L422.3076923076923,220.35756451340865L425.7692307692308,223.93977250312318L429.2307692307692,219.89929374836518L432.6923076923077,227.15422006186478L436.15384615384613,229.84609690651698L439.6153846153846,236.2225869013874L443.0769230769231,220.12269938650306L446.53846153846155,221.13681547081154L450,222.29418026969478L453.46153846153845,227.19903414970682L456.9230769230769,222.916547339481L460.38461538461536,232.05560525772486L463.8461538461538,233.1992835659491L467.3076923076923,236.3756395444793L470.7692307692308,205.4771315640881L474.2307692307692,223.79862700228827L477.6923076923077,223.266775777414L481.15384615384613,227.80912307545185L484.6153846153846,222.93464073095416L488.07692307692304,233.95222231250503L491.5384615384615,235.73051624476776L495.00000000000006,240.6003956095101L498.4615384615385,212.63192612137203L501.92307692307696,225.1328060441506L505.3846153846154,225.86580925079406L508.8461538461538,226.6275122993021L512.3076923076923,220.70863433092532L515.7692307692307,237.60674521673332L519.2307692307692,237.25176169122355L522.6923076923077,243.6393748059207L526.1538461538462,210.7999553720852L529.6153846153846,232.60914760914753L533.0769230769231,233.03269447576096L536.5384615384615,235.40410132689988L540,232.50975292587768L543.4615384615385,240.284222737819L546.9230769230769,243.08581170676266L550.3846153846155,247.8730275906616L553.8461538461539,236.2951807228916L557.3076923076924,235.89576547231263L560.7692307692308,237.4794069192751L564.2307692307692,243.0339179204131L567.6923076923076,237.23299669318078L571.1538461538461,242.3970754634868L574.6153846153845,262.55781871297575L578.0769230769231,247.537688442211L581.5384615384615,221.80978598703487L585,239.402560455192L588.4615384615385,258.2680250783699L591.9230769230769,245.7808109193095L595.3846153846154,237.74044314584856L598.8461538461538,246.66249315282886L602.3076923076923,266.0940127202281L605.7692307692308,252.0822351080653L609.2307692307693,228.61230329041487L612.6923076923077,238.83072220099348L616.1538461538462,239.705993215228L619.6153846153846,244.52780229479256L623.0769230769231,238.3214920071048L626.5384615384615,251.23517786561266L630,252.14454811307616L633.4615384615385,251.66896551724142L636.9230769230769,224.03357631985864L640.3846153846154,245.13578549329662L643.8461538461538,246.69194826301884L647.3076923076923,265.71156893819335L650.7692307692307,247.29005360333525L654.2307692307692,254.4013858591043L657.6923076923076,256.1058816097037L661.1538461538462,258.65342848278L664.6153846153846,249.02443644629668L668.0769230769231,251.6375139560848L671.5384615384615,251.5505066011667L675,255.4894537587885L678.4615384615385,249.87305041712003L681.9230769230769,259.98953974895386L685.3846153846154,258.5023400936037L688.8461538461538,263.60511635769427L692.3076923076924,237.35867211931682L695.7692307692308,254.21563617782317L699.2307692307693,254.0745739834655L702.6923076923077,262.29205175600737L706.1538461538462,250.19795906987113L709.6153846153846,283.2116423284657L713.0769230769231,276.25145518044235L716.5384615384615,297.3287093448308L720,242.3235148922165L723.4615384615385,256.76972003545177L726.9230769230769,261.4455990220049L730.3846153846154,259.27994718935656L733.8461538461538,256.83453237410066L737.3076923076923,273.10671256454384L740.7692307692307,278.9552030515886L744.2307692307692,276.2860727728983L747.6923076923077,254.43821881450899L751.1538461538462,276.0898342995389L754.6153846153846,268.9793843024868L758.0769230769231,271.6194111232279L761.5384615384615,279.40038684719536L765,291.5632858340318L768.4615384615385,286.5121580547112L771.9230769230769,285.17647058823525L775.3846153846155,271.87499999999994L778.8461538461539,271.921372962278L782.3076923076924,275.00211166483655L785.7692307692308,286.5425768159244L789.2307692307692,272.9664272590613L792.6923076923076,282.48131179165665L796.1538461538461,291.2841371295758L799.6153846153845,286.70641880042086L803.0769230769231,288.72509501324424L806.5384615384615,282.3961165048543L810,294.5113143957631L813.4615384615385,289.5663855511605L816.9230769230769,346.232721333293L820.3846153846154,291.21929856574576L823.8461538461538,289.18072201377L827.3076923076923,302.45876128229065L830.7692307692308,285.45843454301564L834.2307692307693,279.4320263832906L837.6923076923077,297.6866132017273L841.1538461538462,306.02895484894555L844.6153846153846,296.84573514993747L848.0769230769231,307.5407608695652L851.5384615384615,301.27822752449936L855,321.1072664359862L858.4615384615385,297.4523125163313L861.9230769230769,304.53754390405965L865.3846153846154,307.88591645459616L868.8461538461538,314.3691483276634L872.3076923076923,315.3241650294695L875.7692307692307,307.77602619293026L879.2307692307692,311.1662752326307L882.6923076923076,307.8148778086116L886.1538461538462,349.91637524707306" style="fill: none; stroke: #aec7e8; stroke-width: 2;"></path></g></g><path class="foreground" d="" style="display: none; fill: none;"></path></g><g transform="translate(0,0)"><path class="background" d="M0,0h900v600h-900Z" style="fill: none;"></path><g><g class="mark-line role-mark marks"><path d="M6.923076923076923,531.0350122850123L10.384615384615385,498.6287455561199L13.846153846153847,465.26581593542863L17.30769230769231,433.64295002786554L20.76923076923077,401.2567837760639L24.230769230769234,369.7167334530883L27.692307692307693,339.2232347351493L31.153846153846157,387.42890195700375L34.61538461538462,373.50065602911917L38.07692307692308,342.4053434193055L41.53846153846154,322.31765474239376L45,296.56802397156855L48.46153846153847,276.8408280882687L51.92307692307693,256.0100345703184L55.38461538461539,216.24169184290034L58.84615384615385,308.5086522582035L62.307692307692314,291.0251628722653L65.76923076923077,284.42136498516317L69.23076923076924,258.40238062772215L72.6923076923077,245.7037713946998L76.15384615384616,228.33723653395776L79.61538461538461,216.2601046336485L83.07692307692308,181.9338240548845L86.53846153846155,265.84730316021876L90,250.91948472311051L93.46153846153847,238.92114628207526L96.92307692307693,221.26256533976684L100.38461538461539,212.97367250374083L103.84615384615385,197.8317711895088L107.3076923076923,186.7380702430468L110.76923076923077,166.0674068513177L114.23076923076923,259.5273417642726L117.6923076923077,246.36049149532423L121.15384615384615,250.2296160662704L124.61538461538463,223.8294836350664L128.07692307692307,241.90508532133458L131.53846153846155,228.04072155742094L135,230.50790447359566L138.46153846153848,181.8420481051627L141.9230769230769,222.5657550949312L145.3846153846154,214.46107015081733L148.84615384615384,215.88566922084976L152.30769230769232,198.02845420152394L155.76923076923077,207.4883913038036L159.23076923076923,202.80870271237285L162.69230769230768,203.6908226275818L166.15384615384616,161.50655662155935L169.6153846153846,200.20287554026638L173.0769230769231,195.7810023167906L176.53846153846155,203.07323887447617L180,190.12492563950025L183.46153846153845,205.45905707196025L186.92307692307693,202.4096385542168L190.3846153846154,209.86319878398916L193.84615384615387,162.4600201041762L197.3076923076923,211.39409137214952L200.76923076923077,199.7348721147848L204.23076923076923,211.58657011191565L207.6923076923077,185.69164591351588L211.15384615384616,216.37814444143893L214.6153846153846,214.0061927663219L218.07692307692307,229.0480863591756L221.53846153846155,155.87188612099646L225,242.97603195739012L228.46153846153845,240.87709799675147L231.9230769230769,248.90829694323142L235.3846153846154,235.26119402985066L238.84615384615384,254.12157861234877L242.3076923076923,239.1577928363988L245.76923076923075,244.56118665018542L249.23076923076925,218.0438176239436L252.6923076923077,258.2294498078545L256.15384615384613,250.8783374493267L259.6153846153846,253.0814661196519L263.0769230769231,238.3520256351568L266.53846153846155,250.7688331825817L270,247.33338985925045L273.46153846153845,249.59546593289247L276.92307692307696,234.6932809955318L280.3846153846154,245.16422635536205L283.8461538461538,241.98488154613466L287.30769230769226,244.68856172140434L290.7692307692308,235.71428571428567L294.2307692307692,245.67597043260488L297.6923076923077,241.13673608057874L301.15384615384613,242.75770890850404L304.61538461538464,227.15118816201846L308.0769230769231,242.88898796255012L311.53846153846155,237.5304270856384L315,240.93069802351764L318.46153846153845,233.78513339991437L321.9230769230769,242.10023540650266L325.38461538461536,238.2662705914123L328.8461538461538,237.75983053091483L332.3076923076923,207.4336904971017L335.7692307692308,224.5779167352312L339.2307692307692,214.91085899513774L342.6923076923077,222.11336599020294L346.1538461538462,202.62295081967216L349.61538461538464,216.21075039914845L353.0769230769231,210.75158786167958L356.53846153846155,214.01509951956078L360,195.09852390705555L363.46153846153845,214.3578405491024L366.9230769230769,209.4992950126241L370.38461538461536,211.19584721866192L373.84615384615387,203.5346569586554L377.3076923076923,212.04585374872883L380.7692307692308,208.91647855530474L384.2307692307692,211.6964630990273L387.69230769230774,199.36084898549845L391.1538461538462,211.9545571908081L394.6153846153846,208.56583618087106L398.07692307692304,215.04424778761063L401.53846153846155,211.48854961832052L405,220.20418144027383L408.46153846153845,218.4354337127502L411.9230769230769,217.02127659574467L415.3846153846154,200.29363185905663L418.84615384615387,216.18373537483754L422.3076923076923,215.37322359240167L425.7692307692308,220.13084050078044L429.2307692307692,213.42777334397445L432.6923076923077,219.54071115691835L436.15384615384613,218.93951420860455L439.6153846153846,223.21527906545518L443.0769230769231,221.16855307433468L446.53846153846155,222.68254634907305L450,220.85905960579436L453.46153846153845,223.9452547336677L456.9230769230769,220.18634436207336L460.38461538461536,226.72531155094774L463.8461538461538,225.3365550569554L467.3076923076923,229.25318883990172L470.7692307692308,218.65256694524987L474.2307692307692,229.58463949843252L477.6923076923077,227.75082476227436L481.15384615384613,232.40248087397285L484.6153846153846,226.11275964391686L488.07692307692304,230.62069530993762L491.5384615384615,231.6483250695368L495.00000000000006,233.47836405347675L498.4615384615385,232.88270688442609L501.92307692307696,231.91144082531582L505.3846153846154,232.00990664888553L508.8461538461538,233.929105593778L512.3076923076923,228.58746912194027L515.7692307692307,232.6429980276134L519.2307692307692,232.38476520233718L522.6923076923077,233.47173427020118L526.1538461538462,221.64859002169192L529.6153846153846,234.01677539608565L533.0769230769231,232.5808106721396L536.5384615384615,233.89522559806196L540,232.98701298701297L543.4615384615385,236.34675527756056L546.9230769230769,234.7838728435743L550.3846153846155,238.2252559726962L553.8461538461539,241.09232769830948L557.3076923076924,238.5866050808314L560.7692307692308,235.8462811436977L564.2307692307692,238.69165615426203L567.6923076923076,228.22861329913897L571.1538461538461,231.75584834632969L574.6153846153845,249.59130361506698L578.0769230769231,232.13286713286715L581.5384615384615,227.56449497157845L585,237.52207923290433L588.4615384615385,250.60096153846158L591.9230769230769,235.86992406734896L595.3846153846154,230.14584023864765L598.8461538461538,236.09767891682785L602.3076923076923,244.13712504869494L605.7692307692308,236.93516699410605L609.2307692307693,236.61248930710005L612.6923076923077,237.02764976958525L616.1538461538462,234.63802461585507L619.6153846153846,236.91683569979716L623.0769230769231,234.2887076255332L626.5384615384615,239.7419072615923L630,239.23310225303288L633.4615384615385,237.3115036622146L636.9230769230769,229.0053040761462L640.3846153846154,240.31358885017414L643.8461538461538,241.8657331136738L647.3076923076923,259.01066925315223L650.7692307692307,243.10968260345516L654.2307692307692,243.84422110552762L657.6923076923076,244.6105634262584L661.1538461538462,246.09148812970466L664.6153846153846,252.16520650813516L668.0769230769231,247.94709459035914L671.5384615384615,247.0862615834318L675,248.1526942432797L678.4615384615385,245.15378017399826L681.9230769230769,251.9807280513918L685.3846153846154,250.93905031892277L688.8461538461538,255.01300202253685L692.3076923076924,244.07980167630743L695.7692307692308,251.10563703024744L699.2307692307693,257.2168970129291L702.6923076923077,257.71434868856073L706.1538461538462,249.72918644257078L709.6153846153846,274.3689919292654L713.0769230769231,267.11943793911007L716.5384615384615,287.7586540321021L720,254.96587121011692L723.4615384615385,256.71602878298046L726.9230769230769,261.566271195071L730.3846153846154,258.23867977385015L733.8461538461538,257.5112504424331L737.3076923076923,261.2850490438918L740.7692307692307,271.96634821046626L744.2307692307692,265.0800519255733L747.6923076923077,260.5118300338001L751.1538461538462,269.9274351102428L754.6153846153846,269.40725694765024L758.0769230769231,265.447643736691L761.5384615384615,272.8275985823875L765,290.47358681022877L768.4615384615385,273.38581984517947L771.9230769230769,275.2286420181179L775.3846153846155,274.89464178205895L778.8461538461539,268.75841403569723L782.3076923076924,270.0553102088067L785.7692307692308,278.40099420049705L789.2307692307692,265.2647775355815L792.6923076923076,279.46689386562804L796.1538461538461,277.7526181715256L799.6153846153845,276.06382978723406L803.0769230769231,297.76353063963023L806.5384615384615,280.48523206751054L810,288.9940426815474L813.4615384615385,300.4321209938783L816.9230769230769,342.8729044714824L820.3846153846154,283.91736401673637L823.8461538461538,283.7780742717367L827.3076923076923,282.94210856026825L830.7692307692308,288.99881707710506L834.2307692307693,280.5907481105553L837.6923076923077,296.417263215859L841.1538461538462,300.46477165566483L844.6153846153846,289.06688858836986L848.0769230769231,303.07419450192134L851.5384615384615,292.313145635001L855,312.49413310804465L858.4615384615385,306.13876463310174L861.9230769230769,303.0246167546593L865.3846153846154,301.49372066472154L868.8461538461538,310.4906627608933L872.3076923076923,312.24047662032854L875.7692307692307,298.63060809754575L879.2307692307692,305.84940506827326L882.6923076923076,296.5320606192085L886.1538461538462,348.8854961832061" style="fill: none; stroke: #2ca02c; stroke-width: 2;"></path></g></g><path class="foreground" d="" style="display: none; fill: none;"></path></g><g transform="translate(0,0)"><path class="background" d="M0,0h900v600h-900Z" style="fill: none;"></path><g><g class="mark-line role-mark marks"><path d="M6.923076923076923,486.5345784957092L10.384615384615385,445.52873464478995L13.846153846153847,410.66211345095803L17.30769230769231,388.81095838825075L20.76923076923077,370.68700614574186L24.230769230769234,357.76267642446413L27.692307692307693,345.1312245238492L31.153846153846157,340.3998049731838L34.61538461538462,359.3580490429013L38.07692307692308,353.5386041242952L41.53846153846154,350.3720304796055L45,350.2614398392957L48.46153846153847,346.8245425188375L51.92307692307693,348.0089042790007L55.38461538461539,345.665034030914L58.84615384615385,345.4529380088571L62.307692307692314,345.17271245159975L65.76923076923077,344.90249694859443L69.23076923076924,346.3241199841506L72.6923076923077,345.95114514899643L76.15384615384616,346.8124536693847L79.61538461538461,351.69730781180346L83.07692307692308,356.542749464893L86.53846153846155,358.89015282654924L90,361.50854475990025L93.46153846153847,365.0752167261601L96.92307692307693,364.0963563733204L100.38461538461539,366.79188724383425L103.84615384615385,366.65664292292365L107.3076923076923,367.72955945272463L110.76923076923077,315.61938958707356L114.23076923076923,396.36099641544536L117.6923076923077,374.4496934365263L121.15384615384615,347.5090453659894L124.61538461538463,321.7157032187227L128.07692307692307,321.97337350968434L131.53846153846155,324.70209428406304L135,326.60557157983135L138.46153846153848,352.20347519516497L141.9230769230769,337.5571521881123L145.3846153846154,344.7951012717852L148.84615384615384,344.02453323712456L152.30769230769232,355.8569667077682L155.76923076923077,351.14210146669876L159.23076923076923,356.1287411640848L162.69230769230768,356.33640552995394L166.15384615384616,373.3376164471571L169.6153846153846,361.935609250502L173.0769230769231,365.7398334149926L176.53846153846155,366L180,374.45578045719895L183.46153846153845,369.73825359364946L186.92307692307693,374.1673848025549L190.3846153846154,373.849668225824L193.84615384615387,385.45182972367434L197.3076923076923,376.55452087714025L200.76923076923077,379.3839541547278L204.23076923076923,379.6680497925311L207.6923076923077,385.29526789206096L211.15384615384616,383.6201051025597L214.6153846153846,386.1678832116788L218.07692307692307,386.13021099367404L221.53846153846155,235.34361851332397L225,360.8399405351833L228.46153846153845,332.21639079531695L231.9230769230769,333.5672514619883L235.3846153846154,250.41117059440361L238.84615384615384,301.0590500641848L242.3076923076923,258.68857462610634L245.76923076923075,260.82469160072736L249.23076923076925,286.75613632350337L252.6923076923077,277.0140395943133L256.15384615384613,282.80343761906784L259.6153846153846,283.2420861976701L263.0769230769231,295.0083001968884L266.53846153846155,294.34538394842986L270,299.072114601986L273.46153846153845,300.1067657874965L276.92307692307696,313.8230531429412L280.3846153846154,306.86281721221036L283.8461538461538,310.37270825206565L287.30769230769226,313.45982601548053L290.7692307692308,319.8535181794402L294.2307692307692,319.4396469007868L297.6923076923077,323.72696581797715L301.15384615384613,326.5156154317208L304.61538461538464,334.52561577944925L308.0769230769231,331.3025142966678L311.53846153846155,332.78540799204524L315,335.8990536277603L318.46153846153845,341.9041599632268L321.9230769230769,340.4308666820626L325.38461538461536,344.37022900763355L328.8461538461538,344.6014064347502L332.3076923076923,251.22351430405934L335.7692307692308,325.63017125264577L339.2307692307692,304.7645268801623L342.6923076923077,306.9946397448124L346.1538461538462,248.82943143812705L349.61538461538464,283.6642784032753L353.0769230769231,257.3811224648259L356.53846153846155,257.5030450669915L360,277.0186335403726L363.46153846153845,266.943742518952L366.9230769230769,269.85348814644715L370.38461538461536,273.80504328189687L373.84615384615387,282.2957898524649L377.3076923076923,282.7202963747023L380.7692307692308,285.30026633065097L384.2307692307692,285.92842105263156L387.69230769230774,304.4647861012516L391.1538461538462,293.8882200114061L394.6153846153846,299.84431283961163L398.07692307692304,303.0099738779387L401.53846153846155,309.27110704901173L405,310.15081003534056L408.46153846153845,312.352338682144L411.9230769230769,311.8062563067608L415.3846153846154,321.08211941732026L418.84615384615387,316.9861963190184L422.3076923076923,320.45454545454544L425.7692307692308,322.06203936178827L429.2307692307692,326.15916139923837L432.6923076923077,325.14154967811993L436.15384615384613,329.26911797879535L439.6153846153846,332.6901995176496L443.0769230769231,256.738964728709L446.53846153846155,311.86667175747397L450,292.7225340817963L453.46153846153845,294.83509157221846L456.9230769230769,246.3573490901765L460.38461538461536,273.65615462868766L463.8461538461538,249.67885614691923L467.3076923076923,252.5688333806415L470.7692307692308,263.0470602419323L474.2307692307692,257.25163161711384L477.6923076923077,259.90701706000556L481.15384615384613,262.62135922330094L484.6153846153846,266.4413653261237L488.07692307692304,265.48229004232564L491.5384615384615,270.99805573558L495.00000000000006,271.5090928427097L498.4615384615385,286.8939318204539L501.92307692307696,279.01546548064283L505.3846153846154,283.170947741364L508.8461538461538,285.78856152513004L512.3076923076923,290.5416783609318L515.7692307692307,292.74127027770135L519.2307692307692,296.0275565894247L522.6923076923077,298.23823297396797L526.1538461538462,304.8980627696472L529.6153846153846,302.1489971346704L533.0769230769231,304.50606585788563L536.5384615384615,306.81432382184136L540,311.8814210650145L543.4615384615385,311.28957169459954L546.9230769230769,312.8476720262135L550.3846153846155,315.3725665697024L553.8461538461539,262.70949720670393L557.3076923076924,303.343949044586L560.7692307692308,289.657604011596L564.2307692307692,288.4866376631448L567.6923076923076,250.98882201203782L571.1538461538461,272.15927226300664L574.6153846153845,269.26747792889523L578.0769230769231,255.1904956984842L581.5384615384615,267.09919487219565L585,265.02137582588415L588.4615384615385,271.3025780189959L591.9230769230769,268.33558863328824L595.3846153846154,268.6168238176553L598.8461538461538,269.64442493415277L602.3076923076923,283.99750933997507L605.7692307692308,273.56744153183064L609.2307692307693,288.8533759488613L612.6923076923077,278.09413527688855L616.1538461538462,283.1543357199682L619.6153846153846,286.2706913339824L623.0769230769231,291.34087033411225L626.5384615384615,291.9965093810384L630,295.33479692645443L633.4615384615385,294.8710203588473L636.9230769230769,299.8942047725403L640.3846153846154,299.3359352245587L643.8461538461538,303.0225409836065L647.3076923076923,319.21622916777596L650.7692307692307,307.5716010095468L654.2307692307692,306.50574837901155L657.6923076923076,309.07487574154237L661.1538461538462,310.05692599620494L664.6153846153846,268.43235504652824L668.0769230769231,300.2881690591813L671.5384615384615,288.3683892580592L675,288.15274151436023L678.4615384615385,260.56379300240286L681.9230769230769,278.5749601714002L685.3846153846154,263.86282204401977L688.8461538461538,267.4465240641711L692.3076923076924,271.74741426238427L695.7692307692308,267.6144736123997L699.2307692307693,271.60170848905494L702.6923076923077,276.63716814159295L706.1538461538462,273.7909516380655L709.6153846153846,280.83337532120726L713.0769230769231,286.94694596711037L716.5384615384615,304.9342105263158L720,289.21933085501854L723.4615384615385,283.50079323109463L726.9230769230769,291.6206560571614L730.3846153846154,288.5247423637545L733.8461538461538,295.37216100742074L737.3076923076923,295.4432071269487L740.7692307692307,304.7991787501604L744.2307692307692,304.1661358134794L747.6923076923077,308.035380590507L751.1538461538462,313.3432980528399L754.6153846153846,309.5985401459854L758.0769230769231,309.02282884406327L761.5384615384615,315.4173332813048L765,316.87377370830603L768.4615384615385,319.52334189454604L771.9230769230769,318.27342457512407L775.3846153846155,285.66795559436196L778.8461538461539,312.86327360337293L782.3076923076924,298.10513927030206L785.7692307692308,305.47441101710984L789.2307692307692,277.30531520395544L792.6923076923076,291.78402840088944L796.1538461538461,284.05090390104664L799.6153846153845,284.85181119648735L803.0769230769231,306.1961011667512L806.5384615384615,293.8915297376202L810,297.0915500716096L813.4615384615385,305.9800664451827L816.9230769230769,355.17100501925995L820.3846153846154,297.165252872329L823.8461538461538,294.7626372840125L827.3076923076923,302.7465883572292L830.7692307692308,316.5446941975954L834.2307692307693,309.83117184649575L837.6923076923077,314.76475343573156L841.1538461538462,321.43326964638084L844.6153846153846,320.0524491898473L848.0769230769231,324.78614265274433L851.5384615384615,320.2915451895043L855,335.66928454302234L858.4615384615385,328.36363636363643L861.9230769230769,327.4757026530076L865.3846153846154,333.7943322586119L868.8461538461538,333.413880303456L872.3076923076923,342.6910969408346L875.7692307692307,327.1793275217932L879.2307692307692,333.1126555503667L882.6923076923076,330.0843486410497L886.1538461538462,349.7007203002942" style="fill: none; stroke: #98df8a; stroke-width: 2;"></path></g></g><path class="foreground" d="" style="display: none; fill: none;"></path></g><g transform="translate(0,0)"><path class="background" d="M0,0h900v600h-900Z" style="fill: none;"></path><g><g class="mark-line role-mark marks"><path d="M6.923076923076923,530.8438558669541L10.384615384615385,484.25257731958766L13.846153846153847,443.4605118542942L17.30769230769231,440.3060132677081L20.76923076923077,396.8928386092372L24.230769230769234,361.2160769495019L27.692307692307693,271.62608589257303L31.153846153846157,369.97278604981705L34.61538461538462,329.0418159295591L38.07692307692308,303.64543478926265L41.53846153846154,255.02557679829783L45,247.62228260869563L48.46153846153847,206.4941608102521L51.92307692307693,173.6317796089041L55.38461538461539,115.6568582734434L58.84615384615385,270.9608451412761L62.307692307692314,242.60927842728427L65.76923076923077,244.885607069362L69.23076923076924,201.8733860490481L72.6923076923077,195.32445923460898L76.15384615384616,164.38522540544403L79.61538461538461,154.65672718528305L83.07692307692308,105.0352507934456L86.53846153846155,233.94533217343533L90,192.40411216230066L93.46153846153847,187.60282567272387L96.92307692307693,171.71292959916508L100.38461538461539,163.46499455602049L103.84615384615385,136.85749054257812L107.3076923076923,128.66896469116415L110.76923076923077,74.43460440606002L114.23076923076923,179.6598316641275L117.6923076923077,160.9342139246578L121.15384615384615,155.5778751964457L124.61538461538463,121.7796059753193L128.07692307692307,126.33620689655167L131.53846153846155,112.49457314290157L135,106.37162045806781L138.46153846153848,65.68908489525904L141.9230769230769,144.25531914893614L145.3846153846154,136.533517335249L148.84615384615384,132.32051104013328L152.30769230769232,112.66143677578154L155.76923076923077,117.69220100781284L159.23076923076923,114.08175958385158L162.69230769230768,111.77936990872506L166.15384615384616,65.91695501730095L169.6153846153846,171.26587904151694L173.0769230769231,162.69650075537947L176.53846153846155,160.6500473335437L180,141.70823885109593L183.46153846153845,156.0737999346903L186.92307692307693,143.10448841698832L190.3846153846154,147.2363778910231L193.84615384615387,103.9153669974915L197.3076923076923,192.45562130177512L200.76923076923077,184.47340726948923L204.23076923076923,185.480093676815L207.6923076923077,166.52191077773395L211.15384615384616,179.4974427396041L214.6153846153846,169.95008807985909L218.07692307692307,170.48505077764352L221.53846153846155,105.54675118858954L225,192.61838440111416L228.46153846153845,185.56701030927834L231.9230769230769,188.9076034648701L235.3846153846154,166.0109761361534L238.84615384615384,177.9693598182559L242.3076923076923,173.51258581235692L245.76923076923075,175.32122286220644L249.23076923076925,126.1734479235531L252.6923076923077,191.30800268997982L256.15384615384613,183.0550918196995L259.6153846153846,183.37845154304267L263.0769230769231,169.68244457759133L266.53846153846155,181.08499095840867L270,173.70605718970992L273.46153846153845,174.14524581981527L276.92307692307696,141.67758160004183L280.3846153846154,206.99947405329598L283.8461538461538,197.5250777519821L287.30769230769226,199.99150021249466L290.7692307692308,184.2929227584423L294.2307692307692,195.65270835040565L297.6923076923077,185.61230769230767L301.15384615384613,188.55095541401272L304.61538461538464,153.40232312565993L308.0769230769231,220.87326943556965L311.53846153846155,211.5415019762845L315,213.07914500288848L318.46153846153845,201.56777523380805L321.9230769230769,209.84825944659326L325.38461538461536,202.33050061231305L328.8461538461538,204.7813368964645L332.3076923076923,189.22177700988865L335.7692307692308,216.77081233622252L339.2307692307692,212.0493168943685L342.6923076923077,214.83594864479315L346.1538461538462,199.84152139461173L349.61538461538464,211.2452830188679L353.0769230769231,206.47474315068493L356.53846153846155,207.31766923855736L360,183.6695790309769L363.46153846153845,217.60086384607834L366.9230769230769,214.60470534934143L370.38461538461536,216.31039716670875L373.84615384615387,207.45045731707322L377.3076923076923,214.3159120151951L380.7692307692308,208.48653270628475L384.2307692307692,209.64114832535876L387.69230769230774,199.69876796096034L391.1538461538462,230.9469998408403L394.6153846153846,225.44046220754893L398.07692307692304,228.2857054397969L401.53846153846155,218.64502029347477L405,224.78031103729427L408.46153846153845,218.45847296440536L411.9230769230769,219.68455005474505L415.3846153846154,205.94638603262666L418.84615384615387,235.9017363851618L422.3076923076923,231.32636682281253L425.7692307692308,232.50554181257428L429.2307692307692,229.18660287081337L432.6923076923077,230.00375869197518L436.15384615384613,223.3878306712273L439.6153846153846,229.96236493869128L443.0769230769231,232.16205780140788L446.53846153846155,235.0116076610563L450,233.58482988123242L453.46153846153845,235.84289775718648L456.9230769230769,226.93111386576942L460.38461538461536,235.0568239991809L463.8461538461538,229.1006014215418L467.3076923076923,232.93459065009498L470.7692307692308,217.9749171308478L474.2307692307692,240.62727704736258L477.6923076923077,234.60537176963618L481.15384615384613,237.84119106699754L484.6153846153846,230.69055835030977L488.07692307692304,234.81274319066142L491.5384615384615,231.79675222629646L495.00000000000006,233.85490753911805L498.4615384615385,231.52941176470588L501.92307692307696,245.48600774039892L505.3846153846154,241.38353570235043L508.8461538461538,242.60212463038002L512.3076923076923,230.9906291834002L515.7692307692307,239.01152148164093L519.2307692307692,236.3976883561644L522.6923076923077,238.32335329341313L526.1538461538462,225.30612244897955L529.6153846153846,249.86130374479885L533.0769230769231,243.90850323222273L536.5384615384615,249.12450420818416L540,245.38610038610037L543.4615384615385,249.2364253393665L546.9230769230769,244.8350612629595L550.3846153846155,247.51524108627376L553.8461538461539,258.4158415841584L557.3076923076924,254.0542930409408L560.7692307692308,248.94974740760435L564.2307692307692,253.58099352051838L567.6923076923076,240.41459957476962L571.1538461538461,246.73258813413588L574.6153846153845,294.82606781153675L578.0769230769231,247.56720542668117L581.5384615384615,240.51658647758921L585,255.07443572914994L588.4615384615385,259.84086122162415L591.9230769230769,255.0316678395496L595.3846153846154,249.46202780177492L598.8461538461538,252.3215523215523L602.3076923076923,277.4364406779661L605.7692307692308,252.44865718799366L609.2307692307693,252.1661456007146L612.6923076923077,260.3248760152376L616.1538461538462,258.08413220775503L619.6153846153846,260.43701257640697L623.0769230769231,251.5508021390374L626.5384615384615,259.87747797356826L630,251.3920870839439L633.4615384615385,253.46140651801034L636.9230769230769,239.889978136681L640.3846153846154,265.1638014920532L643.8461538461538,262.9651162790698L647.3076923076923,320.89552238805965L650.7692307692307,260.99732858414956L654.2307692307692,263.5330126803673L657.6923076923076,260.86225157311065L661.1538461538462,263.12695204850263L664.6153846153846,269.32000713903267L668.0769230769231,269.1428571428571L671.5384615384615,265.8127208480565L675,267.5943642372586L678.4615384615385,260.98103488644347L681.9230769230769,265.6819610307982L685.3846153846154,261.3396745358698L688.8461538461538,270.311464546057L692.3076923076924,246.3757916959887L695.7692307692308,268.3204443960353L699.2307692307693,272.9288524938849L702.6923076923077,274.9280443769951L706.1538461538462,262.687530246814L709.6153846153846,282.57666867107633L713.0769230769231,287.25308038333657L716.5384615384615,300.68128099365066L720,261.88945348957793L723.4615384615385,276.5977305103895L726.9230769230769,280.3337822239323L730.3846153846154,274.6921361388538L733.8461538461538,270.37812058980967L737.3076923076923,276.21821281432017L740.7692307692307,286.8647912885662L744.2307692307692,286.96355547566617L747.6923076923077,272.8034251675354L751.1538461538462,300.4938375823062L754.6153846153846,288.9907061582558L758.0769230769231,294.15996614473124L761.5384615384615,300.45590832546105L765,312.83021812931673L768.4615384615385,307.58417011222684L771.9230769230769,299.56696070569365L775.3846153846155,310.044874007594L778.8461538461539,294.5212062958068L782.3076923076924,294.88521470203403L785.7692307692308,302.02656022107925L789.2307692307692,287.0034369754616L792.6923076923076,291.8561566363743L796.1538461538461,295.82061068702285L799.6153846153845,297.0720126615669L803.0769230769231,314.37226997322813L806.5384615384615,313.24333800841515L810,322.09494289275966L813.4615384615385,300.52917671622447L816.9230769230769,367.41516966067866L820.3846153846154,329.70097757331797L823.8461538461538,301.94920878890554L827.3076923076923,331.70351429729646L830.7692307692308,321.3872832369942L834.2307692307693,301.6574020393548L837.6923076923077,329.45344129554655L841.1538461538462,335.508237673229L844.6153846153846,315.3604418626797L848.0769230769231,329.1073622389357L851.5384615384615,324.7432954820004L855,366.2520033580096L858.4615384615385,314.24340583063395L861.9230769230769,349.0054298156013L865.3846153846154,342.03140844684407L868.8461538461538,339.17418077853523L872.3076923076923,332.89576583621937L875.7692307692307,345.06625056200573L879.2307692307692,343.5731630067567L882.6923076923076,342.4784346728382L886.1538461538462,390.1059168828959" style="fill: none; stroke: #ffbb78; stroke-width: 2;"></path></g></g><path class="foreground" d="" style="display: none; fill: none;"></path></g></g><g class="mark-group role-legend"><g transform="translate(918,0)"><path class="background" d="M0,0h101v92h-101Z" style="pointer-events: none; fill: none;"></path><g><g class="mark-group role-legend-entry"><g transform="translate(0,16)"><path class="background" d="M0,0h0v0h0Z" style="pointer-events: none; fill: none;"></path><g><g class="mark-group role-scope"><g transform="translate(0,0)"><path class="background" d="M0,0h101v11h-101Z" style="pointer-events: none; fill: none; opacity: 1;"></path><g><g class="mark-symbol role-legend-symbol" style="pointer-events: none;"><path transform="translate(6,6)" d="M-5,0L5,0" style="fill: none; stroke: #1f77b4; stroke-width: 1.5; opacity: 1;"></path></g><g class="mark-text role-legend-label" style="pointer-events: none;"><text text-anchor="start" transform="translate(16,9)" style="font-family: sans-serif; font-size: 10px; fill: #000; opacity: 1;">Clang</text></g></g><path class="foreground" d="" style="pointer-events: none; display: none; fill: none;"></path></g><g transform="translate(0,13)"><path class="background" d="M0,0h101v11h-101Z" style="pointer-events: none; fill: none; opacity: 1;"></path><g><g class="mark-symbol role-legend-symbol" style="pointer-events: none;"><path transform="translate(6,6)" d="M-5,0L5,0" style="fill: none; stroke: #aec7e8; stroke-width: 1.5; opacity: 1;"></path></g><g class="mark-text role-legend-label" style="pointer-events: none;"><text text-anchor="start" transform="translate(16,9)" style="font-family: sans-serif; font-size: 10px; fill: #000; opacity: 1;">GFortran</text></g></g><path class="foreground" d="" style="pointer-events: none; display: none; fill: none;"></path></g><g transform="translate(0,26)"><path class="background" d="M0,0h101v11h-101Z" style="pointer-events: none; fill: none; opacity: 1;"></path><g><g class="mark-symbol role-legend-symbol" style="pointer-events: none;"><path transform="translate(6,6)" d="M-5,0L5,0" style="fill: none; stroke: #ff7f0e; stroke-width: 1.5; opacity: 1;"></path></g><g class="mark-text role-legend-label" style="pointer-events: none;"><text text-anchor="start" transform="translate(16,9)" style="font-family: sans-serif; font-size: 10px; fill: #000; opacity: 1;">Julia</text></g></g><path class="foreground" d="" style="pointer-events: none; display: none; fill: none;"></path></g><g transform="translate(0,39)"><path class="background" d="M0,0h101v11h-101Z" style="pointer-events: none; fill: none; opacity: 1;"></path><g><g class="mark-symbol role-legend-symbol" style="pointer-events: none;"><path transform="translate(6,6)" d="M-5,0L5,0" style="fill: none; stroke: #ffbb78; stroke-width: 1.5; opacity: 1;"></path></g><g class="mark-text role-legend-label" style="pointer-events: none;"><text text-anchor="start" transform="translate(16,9)" style="font-family: sans-serif; font-size: 10px; fill: #000; opacity: 1;">LoopVectorization</text></g></g><path class="foreground" d="" style="pointer-events: none; display: none; fill: none;"></path></g><g transform="translate(0,52)"><path class="background" d="M0,0h101v11h-101Z" style="pointer-events: none; fill: none; opacity: 1;"></path><g><g class="mark-symbol role-legend-symbol" style="pointer-events: none;"><path transform="translate(6,6)" d="M-5,0L5,0" style="fill: none; stroke: #2ca02c; stroke-width: 1.5; opacity: 1;"></path></g><g class="mark-text role-legend-label" style="pointer-events: none;"><text text-anchor="start" transform="translate(16,9)" style="font-family: sans-serif; font-size: 10px; fill: #000; opacity: 1;">icc</text></g></g><path class="foreground" d="" style="pointer-events: none; display: none; fill: none;"></path></g><g transform="translate(0,65)"><path class="background" d="M0,0h101v11h-101Z" style="pointer-events: none; fill: none; opacity: 1;"></path><g><g class="mark-symbol role-legend-symbol" style="pointer-events: none;"><path transform="translate(6,6)" d="M-5,0L5,0" style="fill: none; stroke: #98df8a; stroke-width: 1.5; opacity: 1;"></path></g><g class="mark-text role-legend-label" style="pointer-events: none;"><text text-anchor="start" transform="translate(16,9)" style="font-family: sans-serif; font-size: 10px; fill: #000; opacity: 1;">ifort</text></g></g><path class="foreground" d="" style="pointer-events: none; display: none; fill: none;"></path></g></g></g><path class="foreground" d="" style="pointer-events: none; display: none; fill: none;"></path></g></g><g class="mark-text role-legend-title" style="pointer-events: none;"><text text-anchor="start" transform="translate(0,9)" style="font-family: sans-serif; font-size: 11px; font-weight: bold; fill: #000; opacity: 1;">Method</text></g></g><path class="foreground" d="" style="pointer-events: none; display: none; fill: none;"></path></g></g></g><path class="foreground" d="" style="display: none; fill: none;"></path></g></g></g></svg>
