<svg class="marks" width="887" height="522" viewBox="0 0 887 522" version="1.1" xmlns="http://www.w3.org/2000/svg" xmlns:xlink="http://www.w3.org/1999/xlink"><g transform="translate(39,5)"><g class="mark-group role-frame root"><g transform="translate(0,0)"><path class="background" d="M0.5,0.5h720v480h-720Z" style="fill: none; stroke: #ddd;"></path><g><g class="mark-group role-axis"><g transform="translate(0.5,480.5)"><path class="background" d="M0,0h0v0h0Z" style="pointer-events: none; fill: none;"></path><g><g class="mark-rule role-axis-grid" style="pointer-events: none;"><line transform="translate(0,-480)" x2="0" y2="480" style="fill: none; stroke: #ddd; stroke-width: 1; opacity: 1;"></line><line transform="translate(55,-480)" x2="0" y2="480" style="fill: none; stroke: #ddd; stroke-width: 1; opacity: 1;"></line><line transform="translate(111,-480)" x2="0" y2="480" style="fill: none; stroke: #ddd; stroke-width: 1; opacity: 1;"></line><line transform="translate(166,-480)" x2="0" y2="480" style="fill: none; stroke: #ddd; stroke-width: 1; opacity: 1;"></line><line transform="translate(222,-480)" x2="0" y2="480" style="fill: none; stroke: #ddd; stroke-width: 1; opacity: 1;"></line><line transform="translate(277,-480)" x2="0" y2="480" style="fill: none; stroke: #ddd; stroke-width: 1; opacity: 1;"></line><line transform="translate(332,-480)" x2="0" y2="480" style="fill: none; stroke: #ddd; stroke-width: 1; opacity: 1;"></line><line transform="translate(388,-480)" x2="0" y2="480" style="fill: none; stroke: #ddd; stroke-width: 1; opacity: 1;"></line><line transform="translate(443,-480)" x2="0" y2="480" style="fill: none; stroke: #ddd; stroke-width: 1; opacity: 1;"></line><line transform="translate(498,-480)" x2="0" y2="480" style="fill: none; stroke: #ddd; stroke-width: 1; opacity: 1;"></line><line transform="translate(554,-480)" x2="0" y2="480" style="fill: none; stroke: #ddd; stroke-width: 1; opacity: 1;"></line><line transform="translate(609,-480)" x2="0" y2="480" style="fill: none; stroke: #ddd; stroke-width: 1; opacity: 1;"></line><line transform="translate(665,-480)" x2="0" y2="480" style="fill: none; stroke: #ddd; stroke-width: 1; opacity: 1;"></line><line transform="translate(720,-480)" x2="0" y2="480" style="fill: none; stroke: #ddd; stroke-width: 1; opacity: 1;"></line></g></g></g></g><g class="mark-group role-axis"><g transform="translate(0.5,0.5)"><path class="background" d="M0,0h0v0h0Z" style="pointer-events: none; fill: none;"></path><g><g class="mark-rule role-axis-grid" style="pointer-events: none;"><line transform="translate(0,480)" x2="720" y2="0" style="fill: none; stroke: #ddd; stroke-width: 1; opacity: 1;"></line><line transform="translate(0,453)" x2="720" y2="0" style="fill: none; stroke: #ddd; stroke-width: 1; opacity: 1;"></line><line transform="translate(0,425)" x2="720" y2="0" style="fill: none; stroke: #ddd; stroke-width: 1; opacity: 1;"></line><line transform="translate(0,398)" x2="720" y2="0" style="fill: none; stroke: #ddd; stroke-width: 1; opacity: 1;"></line><line transform="translate(0,370)" x2="720" y2="0" style="fill: none; stroke: #ddd; stroke-width: 1; opacity: 1;"></line><line transform="translate(0,343)" x2="720" y2="0" style="fill: none; stroke: #ddd; stroke-width: 1; opacity: 1;"></line><line transform="translate(0,315)" x2="720" y2="0" style="fill: none; stroke: #ddd; stroke-width: 1; opacity: 1;"></line><line transform="translate(0,288)" x2="720" y2="0" style="fill: none; stroke: #ddd; stroke-width: 1; opacity: 1;"></line><line transform="translate(0,261)" x2="720" y2="0" style="fill: none; stroke: #ddd; stroke-width: 1; opacity: 1;"></line><line transform="translate(0,233)" x2="720" y2="0" style="fill: none; stroke: #ddd; stroke-width: 1; opacity: 1;"></line><line transform="translate(0,206)" x2="720" y2="0" style="fill: none; stroke: #ddd; stroke-width: 1; opacity: 1;"></line><line transform="translate(0,178)" x2="720" y2="0" style="fill: none; stroke: #ddd; stroke-width: 1; opacity: 1;"></line><line transform="translate(0,151)" x2="720" y2="0" style="fill: none; stroke: #ddd; stroke-width: 1; opacity: 1;"></line><line transform="translate(0,123)" x2="720" y2="0" style="fill: none; stroke: #ddd; stroke-width: 1; opacity: 1;"></line><line transform="translate(0,96)" x2="720" y2="0" style="fill: none; stroke: #ddd; stroke-width: 1; opacity: 1;"></line><line transform="translate(0,69)" x2="720" y2="0" style="fill: none; stroke: #ddd; stroke-width: 1; opacity: 1;"></line><line transform="translate(0,41)" x2="720" y2="0" style="fill: none; stroke: #ddd; stroke-width: 1; opacity: 1;"></line><line transform="translate(0,14)" x2="720" y2="0" style="fill: none; stroke: #ddd; stroke-width: 1; opacity: 1;"></line></g></g></g></g><g class="mark-group role-scope pathgroup"><g transform="translate(0,0)"><path class="background" d="M0,0h720v480h-720Z" style="fill: none;"></path><g><g class="mark-line role-mark marks"><path d="M5.538461538461538,472.3723540826989L8.307692307692308,466.8238893180271L11.076923076923077,461.5771004684433L13.846153846153847,457.3328899235118L16.615384615384617,453.80167581756285L19.384615384615387,451.66783306307076L22.153846153846153,447.5676718524751L24.923076923076923,448.144189824191L27.692307692307693,445.88556419632283L30.461538461538463,444.0691597239448L33.23076923076923,442.480362730698L36,440.37873419341423L38.769230769230774,439.52071076960016L41.53846153846154,437.7901146550414L44.30769230769231,437.14661869970126L47.07692307692308,435.87119555276325L49.84615384615385,435.1792648781038L52.61538461538462,434.1258029429269L55.38461538461539,433.47459242679923L58.15384615384616,432.55082734631515L60.92307692307693,432.02195456624486L63.69230769230769,431.24951174568844L66.46153846153847,430.7685535456359L69.23076923076924,430.9104422861599L72,429.7276429643167L74.76923076923077,429.03523785370095L77.53846153846155,428.98615962329376L80.3076923076923,428.36059044237953L83.07692307692308,428.14540093595576L85.84615384615385,427.8534658858777L88.61538461538461,349.7490817500449L91.38461538461539,371.5943452814587L94.15384615384616,361.7601155903212L96.92307692307692,371.3391072618254L99.6923076923077,363.99164390165515L102.46153846153845,375.7160283607164L105.23076923076924,377.56366409923896L108,379.44584654835006L110.76923076923077,370.176437108708L113.53846153846153,383.1846773188692L116.30769230769232,383.8751446507389L119.07692307692308,386.0107077719598L121.84615384615385,389.52111027461575L124.61538461538461,394.5331118635073L127.38461538461539,393.63345632148935L130.15384615384616,397.11073981607126L132.92307692307693,390.04881017554084L135.69230769230768,399.26080940011167L138.46153846153848,399.7229947782781L141.23076923076923,399.8422969881141L144,401.2480280455741L146.76923076923077,402.5437311503662L149.53846153846155,402.40058767273285L152.3076923076923,412.16300501068713L155.0769230769231,409.6795291039896L157.84615384615384,407.56609886090496L160.6153846153846,413.29739442946993L163.3846153846154,413.8880645735652L166.15384615384616,413.5333487191323L168.92307692307693,405.1637232103576L171.6923076923077,420.2733651099368L174.46153846153845,406.37359664547546L177.23076923076923,336.44130005681046L180,355.68578171453095L182.76923076923077,371.39273053099066L185.53846153846152,363.36946372752L188.30769230769232,353.48656929105806L191.07692307692307,363.4873049862343L193.84615384615384,363.6867157074859L196.61538461538458,370.48124469589817L199.3846153846154,353.72139051002284L202.15384615384616,369.51027504508494L204.9230769230769,369.55966386554627L207.69230769230768,372.08525265040623L210.46153846153848,371.66614567052204L213.23076923076923,374.5643153526971L216,374.154872148022L218.76923076923075,375.99507000078114L221.53846153846155,364.38196855505686L224.30769230769232,382.4824660545913L227.07692307692307,377.39654281740513L229.84615384615384,380.8524354226946L232.61538461538464,390.73977657066723L235.3846153846154,383.4774944721909L238.15384615384616,377.1550244432374L240.9230769230769,383.39873258785474L243.6923076923077,371.65679309214124L246.46153846153845,395.71017205916763L249.23076923076923,393.2180522918772L251.99999999999997,386.180916976456L254.76923076923077,383.7054633080073L257.53846153846155,387.84809751946875L260.3076923076923,397.6770186335404L263.07692307692304,402.17163068803865L265.84615384615387,321.88295847518964L268.61538461538464,344.0348619295987L271.38461538461536,339.17673473751734L274.15384615384613,344.4643517369975L276.92307692307696,336.4625494344475L279.6923076923077,362.902129072973L282.46153846153845,345.892031001738L285.2307692307692,342.7982277571548L288,330.34181073932876L290.7692307692308,367.741296815707L293.53846153846155,350.81104531239606L296.3076923076923,354.14759635875544L299.0769230769231,348.84062705390085L301.84615384615387,358.6599762407135L304.6153846153846,370.50741414962624L307.38461538461536,359.5625700030547L310.1538461538462,359.7399510660608L312.9230769230769,361.13734088227847L315.6923076923077,370.8233646904397L318.46153846153845,355.2841916840847L321.2307692307692,355.740321925568L324,377.51415216193953L326.7692307692308,366.3431504883778L329.53846153846155,371.5644891122278L332.3076923076923,351.5487853745506L335.0769230769231,374.0417640407086L337.84615384615387,369.53239109951437L340.6153846153846,371.6090898914139L343.3846153846154,371.56717843238084L346.1538461538462,377.182808965659L348.9230769230769,376.9090909090909L351.6923076923077,374.3587364399263L354.46153846153845,306.2146079761342L357.2307692307692,343.55103108468074L360,332.26314261810853L362.7692307692308,333.37537129952057L365.53846153846155,329.52284994602377L368.30769230769226,331.1705521472392L371.07692307692304,333.2347676163514L373.84615384615387,332.49213550641014L376.61538461538464,330.75564988075104L379.3846153846154,353.4674157303371L382.15384615384613,346.8663911594968L384.9230769230769,354.2412366940131L387.6923076923077,344.5697628387375L390.46153846153845,349.28009314749494L393.23076923076917,343.3479933641594L396.00000000000006,365.12806109014304L398.7692307692308,329.51478842628467L401.53846153846155,349.65871298957086L404.3076923076923,348.2800038621222L407.0769230769231,347.2215572694979L409.8461538461538,343.4112374147451L412.6153846153846,353.1862077172523L415.38461538461536,343.00501046489507L418.1538461538462,356.3015281734913L420.92307692307696,348.89797848445437L423.6923076923077,368.5253458888113L426.46153846153845,346.64308097818133L429.2307692307692,359.71681508233485L432,351.4571272678921L434.7692307692307,363.16134845885125L437.5384615384615,359.72477478607817L440.3076923076923,354.9013685214299L443.0769230769231,291.4279959524848L445.84615384615387,327.4814746713248L448.61538461538464,323.53347410259585L451.38461538461536,329.89191919687295L454.15384615384613,315.0571100038329L456.9230769230769,342.1228107195611L459.6923076923077,327.63706875035996L462.4615384615385,335.96320190087647L465.2307692307693,305.5141192001803L468,325.50095087832983L470.7692307692308,329.64231519618465L473.53846153846155,345.1128729998559L476.3076923076923,343.6376556448257L479.07692307692304,328.1530879639212L481.8461538461538,337.19628066181616L484.61538461538464,341.89207852421816L487.3846153846154,312.9806509590271L490.1538461538462,343.0800327779295L492.9230769230769,341.8059890686548L495.6923076923077,346.51495228548L498.46153846153845,339.56737867233744L501.2307692307692,357.3552491116213L503.99999999999994,343.7211255774884L506.76923076923083,349.87456742152875L509.53846153846155,339.0776808477428L512.3076923076924,350.0117205465632L515.0769230769231,349.1507367425735L517.8461538461538,352.1517259107982L520.6153846153846,365.26033511996343L523.3846153846154,354.6167578462425L526.1538461538461,366.521974033912L528.9230769230769,361.45228880589434L531.6923076923077,297.33225512293313L534.4615384615385,324.40211124503406L537.2307692307693,323.91700470444914L540,337.1858922947517L542.7692307692307,328.2635273787666L545.5384615384615,329.74056130551173L548.3076923076923,318.1581357747036L551.0769230769231,331.83988308366827L553.8461538461539,301.0090614162658L556.6153846153846,345.41878621742603L559.3846153846154,328.6499978266434L562.1538461538462,344.48819086440477L564.9230769230769,325.6955148940279L567.6923076923076,350.94393943432937L570.4615384615385,332.59813117927473L573.2307692307692,337.7880622986903L576,334.1458069953645L578.7692307692308,339.81582349008244L581.5384615384615,350.478637969804L584.3076923076923,342.4782354549988L587.0769230769231,350.61820798848504L589.8461538461538,331.8386882792169L592.6153846153846,376.1112515802781L595.3846153846154,366.54266538830296L598.1538461538462,332.55128141820154L600.9230769230769,334.17913593256065L603.6923076923077,395.01953004945375L606.4615384615385,336.63669199153065L609.2307692307692,381.31993925943226L612,339.4145390762034L614.7692307692307,348.3364454771877L617.5384615384615,383.0220100553552L620.3076923076924,371.40250927167995L623.0769230769231,325.11194327145245L625.8461538461538,320.42126503181294L628.6153846153846,350.3452107932431L631.3846153846154,353.99727314043326L634.1538461538462,329.96539957382765L636.9230769230769,398.45726488864625L639.6923076923076,365.735342337419L642.4615384615385,315.61792355289737L645.2307692307693,385.05198531622045L648,335.1847597008141L650.7692307692308,372.9888479588232L653.5384615384615,329.09002130932384L656.3076923076923,336.8049606309667L659.0769230769231,346.8896504455106L661.8461538461538,376.87023245317084L664.6153846153846,319.73567515868183L667.3846153846154,352.5944612009871L670.1538461538462,367.01365568383926L672.9230769230769,383.98211321521734L675.6923076923077,367.2868975309616L678.4615384615385,373.94485957227516L681.2307692307692,397.8324128225618L684,401.2077542948623L686.7692307692308,380.5795110123257L689.5384615384615,367.228192497158L692.3076923076924,376.90987345686966L695.0769230769231,376.7231993442847L697.8461538461538,364.952179656539L700.6153846153846,405.1980985654029L703.3846153846154,397.13501689132687L706.1538461538461,406.65750237919L708.9230769230769,372.5226393337604" style="fill: none; stroke: #72b7b2; stroke-width: 2;"></path></g></g></g><g transform="translate(0,0)"><path class="background" d="M0,0h720v480h-720Z" style="fill: none;"></path><g><g class="mark-line role-mark marks"><path d="M5.538461538461538,474.213038680714L8.307692307692308,468.1303799648627L11.076923076923077,464.43047646213876L13.846153846153847,461.9735372617312L16.615384615384617,456.8609774489482L19.384615384615387,456.82029775634305L22.153846153846153,445.946868430224L24.923076923076923,444.7175498298493L27.692307692307693,439.9163212135991L30.461538461538463,435.5035584099983L33.23076923076923,434.3767076713853L36,434.1422630299757L38.769230769230774,430.5715105749151L41.53846153846154,426.0895330252668L44.30769230769231,426.58933289259136L47.07692307692308,427.66755039385845L49.84615384615385,423.93328720731216L52.61538461538462,421.0663694892849L55.38461538461539,423.02211476925265L58.15384615384616,424.66625882267004L60.92307692307693,422.06317081826637L63.69230769230769,418.9283573007494L66.46153846153847,419.4686746691794L69.23076923076924,421.85096860605665L72,418.9086472655934L74.76923076923077,416.0813639609202L77.53846153846155,417.32791443850266L80.3076923076923,418.51724861671164L83.07692307692308,418.2672866100755L85.84615384615385,415.7625911929103L88.61538461538461,396.7920096493641L91.38461538461539,419.20618850301867L94.15384615384616,410.02751992663053L96.92307692307692,408.29534621717653L99.6923076923077,408.9812866323L102.46153846153845,414.7684554149247L105.23076923076924,413.70805830491724L108,411.4694275293434L110.76923076923077,407.0599816721557L113.53846153846153,413.4022187996472L116.30769230769232,411.3463643471462L119.07692307692308,410.74317377043656L121.84615384615385,412.3180267940305L124.61538461538461,412.0381356735344L127.38461538461539,415.251736759738L130.15384615384616,409.96385936641434L132.92307692307693,407.8275467061004L135.69230769230768,412.9240562734738L138.46153846153848,411.3003320483951L141.23076923076923,410.2622538751571L144,413.29718756825514L146.76923076923077,414.62294684526336L149.53846153846155,413.237300262342L152.3076923076923,411.6713921012694L155.0769230769231,408.06222296562686L157.84615384615384,416.01247320210484L160.6153846153846,411.79857026704536L163.3846153846154,410.6314609540416L166.15384615384616,410.2958794699582L168.92307692307693,413.68309663046506L171.6923076923077,412.2307310891962L174.46153846153845,410.3359569975043L177.23076923076923,408.33614303028094L180,408.346185441344L182.76923076923077,417.78439015681255L185.53846153846152,410.464303866913L188.30769230769232,407.28487886382624L191.07692307692307,413.4654157174155L193.84615384615384,411.99757134183363L196.61538461538458,412.7020249233218L199.3846153846154,404.0155430525761L202.15384615384616,410.5070409780394L204.9230769230769,411.60689530555453L207.69230769230768,410.6303927376016L210.46153846153848,410.2252577860114L213.23076923076923,413.2596443228454L216,412.59071556809437L218.76923076923075,411.4084222175581L221.53846153846155,404.69203897775327L224.30769230769232,415.71877622298325L227.07692307692307,411.81615886578095L229.84615384615384,411.46062964924806L232.61538461538464,412.08204008422365L235.3846153846154,412.49525539749226L238.15384615384616,409.71916896714805L240.9230769230769,411.06070492987067L243.6923076923077,404.5535672000271L246.46153846153845,416.6860806394538L249.23076923076923,412.9597379084404L251.99999999999997,410.9092015209125L254.76923076923077,408.2972964029253L257.53846153846155,413.0048815911567L260.3076923076923,414.15056184136466L263.07692307692304,410.24996981040937L265.84615384615387,397.103762480602L268.61538461538464,411.2829612723771L271.38461538461536,408.7200405885337L274.15384615384613,407.9307185224547L276.92307692307696,407.35356019580485L279.6923076923077,417.6820134270896L282.46153846153845,410.98745897391603L285.2307692307692,408.83099821809157L288,401.81131222997203L290.7692307692308,417.71369721936145L293.53846153846155,411.5920852359209L296.3076923076923,411.34890693316675L299.0769230769231,408.62644612295634L301.84615384615387,419.21790567545963L304.6153846153846,416.08803301237964L307.38461538461536,410.9828451394562L310.1538461538462,408.2708997230247L312.9230769230769,411.20498358447685L315.6923076923077,413.15716205537126L318.46153846153845,409.0709746502479L321.2307692307692,407.9775866635072L324,411.3437270071531L326.7692307692308,415.97215425330205L329.53846153846155,410.7965316545908L332.3076923076923,407.5392578679537L335.0769230769231,410.84523604516716L337.84615384615387,412.882836756838L340.6153846153846,408.9196887388049L343.3846153846154,407.6145578776164L346.1538461538462,411.6952332380102L348.9230769230769,411.8364535720994L351.6923076923077,407.6138116742868L354.46153846153845,395.6972772100336L357.2307692307692,408.74155288618084L360,408.26856842207656L362.7692307692308,409.09196555004155L365.53846153846155,407.1337091279764L368.30769230769226,408.96697118763177L371.07692307692304,410.36402050569404L373.84615384615387,408.25156242310914L376.61538461538464,400.30556141524124L379.3846153846154,410.7403663200784L382.15384615384613,409.80114039971585L384.9230769230769,413.24968623340635L387.6923076923077,406.29558541266795L390.46153846153845,415.188539168453L393.23076923076917,409.5901063926525L396.00000000000006,414.51918233923914L398.7692307692308,406.319414821018L401.53846153846155,410.92757045326215L404.3076923076923,408.9359741627791L407.0769230769231,410.0506687647522L409.8461538461538,407.28208320365184L412.6153846153846,413.19344878927984L415.38461538461536,406.7051238547676L418.1538461538462,410.2814250147311L420.92307692307696,401.35401144417307L423.6923076923077,410.1256471246677L426.46153846153845,407.34053168515896L429.2307692307692,409.4991517522811L432,406.85714285714283L434.7692307692307,408.45641723356005L437.5384615384615,409.23451249040335L440.3076923076923,407.3523609967822L443.0769230769231,393.4083822208129L445.84615384615387,409.58542141230066L448.61538461538464,408.2317618572853L451.38461538461536,408.7216633132126L454.15384615384613,404.1029982363316L456.9230769230769,409.9622156121875L459.6923076923077,407.6864031490897L462.4615384615385,413.4821366459627L465.2307692307693,400.0347071583514L468,408.0966105028519L470.7692307692308,409.7575795936451L473.53846153846155,409.77507598784194L476.3076923076923,407.6527409822702L479.07692307692304,408.3736397970758L481.8461538461538,408.79812839137196L484.61538461538464,409.399899142713L487.3846153846154,398.9364155546771L490.1538461538462,411.4963556851312L492.9230769230769,408.88323591302316L495.6923076923077,409.4388713654872L498.46153846153845,406.9172932330827L501.2307692307692,413.07608337145837L503.99999999999994,409.51012491271626L506.76923076923083,408.2826804675649L509.53846153846155,400.8471092494277L512.3076923076924,409.60308532861967L515.0769230769231,408.78123257708967L517.8461538461538,409.083200422498L520.6153846153846,406.8736947596418L523.3846153846154,408.96055684454757L526.1538461538461,409.44984477581556L528.9230769230769,409.2446814958482L531.6923076923077,397.10716042442556L534.4615384615385,409.15775501713654L537.2307692307693,411.2989675039455L540,409.06886367169284L542.7692307692307,405.8899985933324L545.5384615384615,411.27539359729946L548.3076923076923,406.9143129011273L551.0769230769231,414.3845078444571L553.8461538461539,402.2050019752636L556.6153846153846,410.27485595635096L559.3846153846154,410.3982942430704L562.1538461538462,407.87748851454825L564.9230769230769,410.76560753494095L567.6923076923076,409.6069792802617L570.4615384615385,410.5679517333061L573.2307692307692,408.5148800472686L576,406.81203193007804L578.7692307692308,410.2493201041259L581.5384615384615,408.9056071470554L584.3076923076923,410.52583327237704L587.0769230769231,415.38370299372497L589.8461538461538,407.8562898056202L592.6153846153846,419.0795452183492L595.3846153846154,415.66970854504467L598.1538461538462,399.32752766995975L600.9230769230769,408.11354149273666L603.6923076923077,426.1401773171048L606.4615384615385,406.82713793048646L609.2307692307692,421.2825486689877L612,413.07159986296676L614.7692307692307,408.6541555768346L617.5384615384615,414.52717186332126L620.3076923076924,411.6994540942928L623.0769230769231,410.26109042381455L625.8461538461538,408.39551677558325L628.6153846153846,417.04659671538656L631.3846153846154,417.73866393856787L634.1538461538462,412.83611718875073L636.9230769230769,427.7353422458242L639.6923076923076,421.2344013490725L642.4615384615385,400.1905379732172L645.2307692307693,422.9562628606453L648,413.7006640558488L650.7692307692308,416.58980001913693L653.5384615384615,412.20034997844334L656.3076923076923,412.4608553517413L659.0769230769231,411.44188509399L661.8461538461538,422.99627329192543L664.6153846153846,405.736311258545L667.3846153846154,416.6896293310473L670.1538461538462,413.8415627206401L672.9230769230769,422.41111810959626L675.6923076923077,421.72688760762844L678.4615384615385,422.0730420097108L681.2307692307692,424.2847936166948L684,427.4569921412423L686.7692307692308,420.1168983300963L689.5384615384615,419.22960058809116L692.3076923076924,421.15050757687214L695.0769230769231,423.21489834144694L697.8461538461538,418.7285774588434L700.6153846153846,430.373807774L703.3846153846154,428.57660948838446L706.1538461538461,431.2373453318335L708.9230769230769,421.0713723727099" style="fill: none; stroke: #f58518; stroke-width: 2;"></path></g></g></g><g transform="translate(0,0)"><path class="background" d="M0,0h720v480h-720Z" style="fill: none;"></path><g><g class="mark-line role-mark marks"><path d="M5.538461538461538,468.02135831381736L8.307692307692308,459.39247215557066L11.076923076923077,449.38277325610426L13.846153846153847,442.03170371780834L16.615384615384617,436.71879341887706L19.384615384615387,431.673894189072L22.153846153846153,390.2618937745841L24.923076923076923,392.5149942558333L27.692307692307693,393.3981322660568L30.461538461538463,396.4765242376091L33.23076923076923,399.49013857623754L36,399.8313401999668L38.769230769230774,401.37594965160713L41.53846153846154,399.64911943951245L44.30769230769231,293.4463396157113L47.07692307692308,326.1138471684765L49.84615384615385,322.57457642810846L52.61538461538462,339.932224467589L55.38461538461539,349.28595288466124L58.15384615384616,356.115424973767L60.92307692307693,361.03322842967685L63.69230769230769,364.95702832181L66.46153846153847,203.960175406968L69.23076923076924,291.406453651408L72,278.0876443600696L74.76923076923077,299.0530304843959L77.53846153846155,307.77621404682276L80.3076923076923,329.85697379543535L83.07692307692308,333.07538726333905L85.84615384615385,340.62096036522564L88.61538461538461,158.8429451130596L91.38461538461539,324.86915848735464L94.15384615384616,262.08143907848483L96.92307692307692,279.07092837828463L99.6923076923077,258.3184547354145L102.46153846153845,302.3948409716372L105.23076923076924,302.2694928717756L108,310.5109463562262L110.76923076923077,154.59647815557918L113.53846153846153,241.32528384641375L116.30769230769232,263.9329548526629L119.07692307692308,273.3628962544327L121.84615384615385,327.64250539446067L124.61538461538461,302.6270820173543L127.38461538461539,314.552858771787L130.15384615384616,330.67322933355615L132.92307692307693,293.29855277668105L135.69230769230768,344.172783618556L138.46153846153848,325.57226735301214L141.23076923076923,328.95292351298633L144,336.697624611436L146.76923076923077,330.43504812795953L149.53846153846155,333.5770536192913L152.3076923076923,340.0073578849886L155.0769230769231,298.56305302555006L157.84615384615384,320.5525725850719L160.6153846153846,317.84507831057726L163.3846153846154,321.0041855056401L166.15384615384616,331.63937967082813L168.92307692307693,330.0582730001766L171.6923076923077,327.9934093569787L174.46153846153845,331.64966740576494L177.23076923076923,286.71364207907754L180,336.3491558978178L182.76923076923077,338.04704367792533L185.53846153846152,331.97831153855594L188.30769230769232,309.3005191309364L191.07692307692307,343.64948986694776L193.84615384615384,327.87269458685665L196.61538461538458,355.60285328706385L199.3846153846154,305.7604596801598L202.15384615384616,329.76168450729045L204.9230769230769,317.53503824461103L207.69230769230768,329.9458137660822L210.46153846153848,322.9701372074253L213.23076923076923,350.13974287311345L216,338.31598864711447L218.76923076923075,333.9405168210629L221.53846153846155,287.7410024483996L224.30769230769232,338.7893462469733L227.07692307692307,316.1353049438345L229.84615384615384,327.0615713707579L232.61538461538464,328.15942256394163L235.3846153846154,332.15500703414756L238.15384615384616,314.3039171071516L240.9230769230769,332.2791681066905L243.6923076923077,295.4909163109302L246.46153846153845,329.53132884153035L249.23076923076923,320.5430068388512L251.99999999999997,327.8762306610407L254.76923076923077,310.3081437238297L257.53846153846155,349.51060820367746L260.3076923076923,343.605798220014L263.07692307692304,327.6940520870872L265.84615384615387,295.8373056347703L268.61538461538464,323.03890732792325L271.38461538461536,315.6578701104248L274.15384615384613,316.3303326810176L276.92307692307696,305.1732332935724L279.6923076923077,341.70631477369903L282.46153846153845,317.73988904141856L285.2307692307692,311.8950235206734L288,280.5328927779005L290.7692307692308,333.0056710775047L293.53846153846155,311.1856767246776L296.3076923076923,317.6827803485281L299.0769230769231,318.5476217177462L301.84615384615387,336.398858485815L304.6153846153846,336.24355430881565L307.38461538461536,324.0962193273434L310.1538461538462,293.25227963525833L312.9230769230769,322.6615325375433L315.6923076923077,318.81855764813963L318.46153846153845,306.908132427458L321.2307692307692,301.4518536720214L324,338.5090889514957L326.7692307692308,316.75727312201474L329.53846153846155,320.4134215932435L332.3076923076923,291.39946640795534L335.0769230769231,317.44555956771484L337.84615384615387,326.5493771180373L340.6153846153846,317.8894993364999L343.3846153846154,304.4612020269422L346.1538461538462,319.4997146661593L348.9230769230769,315.79402522311136L351.6923076923077,311.282729897756L354.46153846153845,285.24353885628983L357.2307692307692,330.7333173714239L360,311.3844590459254L362.7692307692308,316.35987992230264L365.53846153846155,304.35319923461054L368.30769230769226,307.5276088158622L371.07692307692304,312.75068220683295L373.84615384615387,308.225346235741L376.61538461538464,292.95085152455084L379.3846153846154,327.0056518762637L382.15384615384613,324.4867063270546L384.9230769230769,322.1072053714413L387.6923076923077,319.6241190289741L390.46153846153845,320.91388561842945L393.23076923076917,313.4127366609294L396.00000000000006,336.56901748040985L398.7692307692308,288.7482301230357L401.53846153846155,314.5175323976572L404.3076923076923,311.1429809179989L407.0769230769231,324.1278106508876L409.8461538461538,304.3095577522598L412.6153846153846,316.33348851719416L415.38461538461536,304.07558234240105L418.1538461538462,318.2414853817375L420.92307692307696,293.9772606947597L423.6923076923077,332.15854741620336L426.46153846153845,302.867762687634L429.2307692307692,315.8726205301548L432,302.8087163856484L434.7692307692307,323.5811739820201L437.5384615384615,313.59066763878764L440.3076923076923,307.9045559297997L443.0769230769231,279.5800118249098L445.84615384615387,316.15367901234566L448.61538461538464,309.94674496304543L451.38461538461536,316.072881519329L454.15384615384613,300.01840234211625L456.9230769230769,330.9410288582183L459.6923076923077,312.4279605992462L462.4615384615385,318.05570845304703L465.2307692307693,286.9191192189838L468,313.195072243346L470.7692307692308,308.4495285206369L473.53846153846155,331.04212397520143L476.3076923076923,317.9105389067769L479.07692307692304,306.71306655408455L481.8461538461538,313.1916782246879L484.61538461538464,317.30914490461277L487.3846153846154,282.91639327965004L490.1538461538462,315.6541410903262L492.9230769230769,309.67658120934396L495.6923076923077,320.43354285368446L498.46153846153845,315.2353289130991L501.2307692307692,322.9042957042957L503.99999999999994,310.97904005953114L506.76923076923083,314.2406517059589L509.53846153846155,293.81018259935547L512.3076923076924,314.29075778590345L515.0769230769231,310.40382643182676L517.8461538461538,313.7551409505652L520.6153846153846,313.19149494039084L523.3846153846154,315.2431559830497L526.1538461538461,325.10177264072513L528.9230769230769,322.5556669468933L531.6923076923077,283.0911670607873L534.4615384615385,313.00312894036335L537.2307692307693,310.7979488140117L540,324.1465289044488L542.7692307692307,319.7469278501034L545.5384615384615,317.7818609309009L548.3076923076923,303.96213177170546L551.0769230769231,318.5026528973718L553.8461538461539,290.87548071200786L556.6153846153846,329.109243697479L559.3846153846154,312.12907926032267L562.1538461538462,331.2806815565278L564.9230769230769,311.3683810649389L567.6923076923076,330.780191684428L570.4615384615385,310.9918894812172L573.2307692307692,316.8789927629622L576,298.4243176721066L578.7692307692308,318.3938723896235L581.5384615384615,326.2177395431622L584.3076923076923,317.532356085624L587.0769230769231,328.68047696983865L589.8461538461538,308.52914573111616L592.6153846153846,368.1859660723823L595.3846153846154,350.8479459829159L598.1538461538462,296.41095637738636L600.9230769230769,312.84252758274823L603.6923076923077,378.2026217437385L606.4615384615385,308.20741569889464L609.2307692307692,365.72412351357L612,313.0182577933949L614.7692307692307,322.0806408544727L617.5384615384615,345.66915219899266L620.3076923076924,365.44564674546365L623.0769230769231,317.07949917031226L625.8461538461538,311.10331366110177L628.6153846153846,348.1314744222003L631.3846153846154,339.20343071562587L634.1538461538462,318.45668078552177L636.9230769230769,386.23165124909985L639.6923076923076,359.14986376021795L642.4615384615385,287.5208046191097L645.2307692307693,378.4402050002923L648,326.0400966537307L650.7692307692308,351.0637676929811L653.5384615384615,307.3308287673445L656.3076923076923,322.0185163482949L659.0769230769231,320.95977070324494L661.8461538461538,364.13345447630314L664.6153846153846,293.8975521102111L667.3846153846154,334.36704843743877L670.1538461538462,337.85975956615727L672.9230769230769,370.2838562331856L675.6923076923077,355.69555997781623L678.4615384615385,360.09613283810353L681.2307692307692,391.50677461366803L684,397.5873078411369L686.7692307692308,374.80782832556855L689.5384615384615,346.9848371417397L692.3076923076924,351.3867721295135L695.0769230769231,358.80295773801174L697.8461538461538,353.09114754098357L700.6153846153846,390.520593824401L703.3846153846154,385.45085946325526L706.1538461538461,395.5439503199708L708.9230769230769,367.2013769363167" style="fill: none; stroke: #e45756; stroke-width: 2;"></path></g></g></g><g transform="translate(0,0)"><path class="background" d="M0,0h720v480h-720Z" style="fill: none;"></path><g><g class="mark-line role-mark marks"><path d="M5.538461538461538,468.0526955059329L8.307692307692308,456.7743185426365L11.076923076923077,442.52835164835165L13.846153846153847,430.5465946124335L16.615384615384617,413.7643692508594L19.384615384615387,398.62452223503004L22.153846153846153,403.85319205858383L24.923076923076923,421.04904051172707L27.692307692307693,401.42918959015884L30.461538461538463,392.64775044536253L33.23076923076923,387.0798865933231L36,375.1500117502676L38.769230769230774,365.92409956830824L41.53846153846154,356.65141144546595L44.30769230769231,324.47908475194436L47.07692307692308,338.1838979551021L49.84615384615385,352.83443229835336L52.61538461538462,325.68553083064376L55.38461538461539,313.08684291730395L58.15384615384616,315.6805389304902L60.92307692307693,300.2481798791749L63.69230769230769,298.8291467810023L66.46153846153847,288.696942808744L69.23076923076924,320.2930550499768L72,316.14542231295076L74.76923076923077,330.6896742727584L77.53846153846155,280.0518856593802L80.3076923076923,326.3268203900356L83.07692307692308,298.66300068370253L85.84615384615385,283.664561147633L88.61538461538461,261.976279380041L91.38461538461539,336.37298409303287L94.15384615384616,281.05031665479675L96.92307692307692,267.4121466166598L99.6923076923077,252.62898831446057L102.46153846153845,254.87901164441922L105.23076923076924,254.61025947355955L108,247.5648326609599L110.76923076923077,233.54087646084352L113.53846153846153,273.3391865478804L116.30769230769232,262.85869123425005L119.07692307692308,277.5308376901524L121.84615384615385,310.03758418054855L124.61538461538461,290.2042153134972L127.38461538461539,305.07654762515483L130.15384615384616,334.28194013318927L132.92307692307693,298.06107282024203L135.69230769230768,363.9197350477304L138.46153846153848,360.1653274648864L141.23076923076923,360.35869745498775L144,351.96860470076354L146.76923076923077,353.72391422731187L149.53846153846155,352.58868172171617L152.3076923076923,351.7439604625706L155.0769230769231,315.5449849849849L157.84615384615384,352.91470808501356L160.6153846153846,352.0491999101155L163.3846153846154,352.2921381711641L166.15384615384616,349.40784125910073L168.92307692307693,353.02868066347196L171.6923076923077,339.2633172931319L174.46153846153845,334.68369569860323L177.23076923076923,340.02234869697713L180,320.6906147758469L182.76923076923077,339.51095114824284L185.53846153846152,314.3590551596959L188.30769230769232,313.9006846498125L191.07692307692307,315.4428034902437L193.84615384615384,325.29409109375706L196.61538461538458,313.5881708181994L199.3846153846154,303.19731697568943L202.15384615384616,319.966452201997L204.9230769230769,315.91466142597034L207.69230769230768,317.45399318620275L210.46153846153848,327.3514108740537L213.23076923076923,319.4926901486645L216,313.5314944421572L218.76923076923075,306.8092732843845L221.53846153846155,310.0649979255981L224.30769230769232,300.7045360736703L227.07692307692307,310.3626616209397L229.84615384615384,297.7337430583307L232.61538461538464,299.76531942633636L235.3846153846154,299.69663490908147L238.15384615384616,296.2650898598729L240.9230769230769,306.5751757222812L243.6923076923077,295.10545165141264L246.46153846153845,304.7465400615356L249.23076923076923,301.8781138688138L251.99999999999997,303.8846243312398L254.76923076923077,312.00272916171315L257.53846153846155,297.47348289165626L260.3076923076923,300.35515740652494L263.07692307692304,297.3385056501939L265.84615384615387,291.15963373247104L268.61538461538464,298.51235684147076L271.38461538461536,302.78910191725527L274.15384615384613,305.9791373825553L276.92307692307696,289.867105028619L279.6923076923077,306.5351164644407L282.46153846153845,292.7145388574804L285.2307692307692,292.4703781106436L288,286.47917249091415L290.7692307692308,340.5359037033621L293.53846153846155,305.38955888304326L296.3076923076923,309.72959156009637L299.0769230769231,296.36617085130456L301.84615384615387,337.02678140531873L304.6153846153846,337.28414780231594L307.38461538461536,300.18334118791716L310.1538461538462,330.64073623893034L312.9230769230769,297.9554921921989L315.6923076923077,299.8323405177082L318.46153846153845,308.6703902237883L321.2307692307692,315.64842341864755L324,296.64528331137114L326.7692307692308,290.51604977161753L329.53846153846155,302.3075280841762L332.3076923076923,304.90676499148566L335.0769230769231,284.8679716784673L337.84615384615387,295.9852900142379L340.6153846153846,287.15162066065716L343.3846153846154,283.60762515799513L346.1538461538462,286.64981416898803L348.9230769230769,287.9153065725628L351.6923076923077,303.01823100222884L354.46153846153845,307.3864782309151L357.2307692307692,295.83655902960123L360,284.10923067635287L362.7692307692308,302.92612319965605L365.53846153846155,289.31689244390395L368.30769230769226,306.4996821360457L371.07692307692304,300.11416512548766L373.84615384615387,305.6280210623066L376.61538461538464,288.7193249147166L379.3846153846154,293.2427057001203L382.15384615384613,295.9372213863424L384.9230769230769,293.34037033723945L387.6923076923077,294.7342625210599L390.46153846153845,289.3997103909722L393.23076923076917,300.08142020633886L396.00000000000006,294.99567670722945L398.7692307692308,291.8405898129659L401.53846153846155,301.55621125219636L404.3076923076923,311.21000943410814L407.0769230769231,299.1252336448598L409.8461538461538,298.17494784855006L412.6153846153846,299.82640305178955L415.38461538461536,284.1282687795422L418.1538461538462,286.7295995232025L420.92307692307696,288.3370112931188L423.6923076923077,294.58217821782176L426.46153846153845,310.2518837459634L429.2307692307692,283.51206006069964L432,298.2494226103361L434.7692307692307,294.5102761705526L437.5384615384615,286.47182981300625L440.3076923076923,288.51977100252964L443.0769230769231,288.16298652512023L445.84615384615387,285.40531663758594L448.61538461538464,286.59333573227775L451.38461538461536,284.2639679608623L454.15384615384613,296.2200790063703L456.9230769230769,294.99256742408147L459.6923076923077,284.5709853172038L462.4615384615385,303.6871293159864L465.2307692307693,293.1505413419764L468,299.9936974789916L470.7692307692308,307.56991920447484L473.53846153846155,296.0401061633736L476.3076923076923,293.71743408107045L479.07692307692304,298.5720329618287L481.8461538461538,292.2175991730198L484.61538461538464,284.44326193960353L487.3846153846154,293.491219267436L490.1538461538462,297.10699626014775L492.9230769230769,284.0164948453608L495.6923076923077,296.88132162524187L498.46153846153845,295.50507147517646L501.2307692307692,295.53382797149476L503.99999999999994,293.2489208633093L506.76923076923083,290.12615166548545L509.53846153846155,290.5295557887373L512.3076923076924,298.69384076298394L515.0769230769231,288.0998439937597L517.8461538461538,290.4072515742806L520.6153846153846,296.1220064038007L523.3846153846154,286.31734317343177L526.1538461538461,293.6323304025167L528.9230769230769,298.0963403813275L531.6923076923077,281.675019847756L534.4615384615385,286.5719694920755L537.2307692307693,289.58527159019036L540,302.84484850445665L542.7692307692307,291.6998957557707L545.5384615384615,291.87474016410687L548.3076923076923,287.90036664936923L551.0769230769231,299.9570931306386L553.8461538461539,292.81258835343317L556.6153846153846,297.8955968109981L559.3846153846154,297.3159720926762L562.1538461538462,300.4783837870462L564.9230769230769,301.53975351436344L567.6923076923076,298.7202034589824L570.4615384615385,288.8549188519629L573.2307692307692,289.2004842457779L576,300.2832478743428L578.7692307692308,299.1972612544248L581.5384615384615,296.44916540212444L584.3076923076923,287.4750222974982L587.0769230769231,314.80187419535474L589.8461538461538,292.76979159502025L592.6153846153846,361.74365871372083L595.3846153846154,333.44620702561673L598.1538461538462,294.80891601235436L600.9230769230769,287.86290202612236L603.6923076923077,377.00415387393895L606.4615384615385,288.3867343074381L609.2307692307692,371.36310498012625L612,299.20593041022204L614.7692307692307,300.16300737875883L617.5384615384615,313.60498187563894L620.3076923076924,373.4538979639235L623.0769230769231,313.7239338317053L625.8461538461538,288.07045733661477L628.6153846153846,341.9219561212527L631.3846153846154,326.092880530041L634.1538461538462,299.8795699437683L636.9230769230769,381.96138996138995L639.6923076923076,333.1095945403452L642.4615384615385,291.3093777388256L645.2307692307693,378.5785509953879L648,294.22736630059285L650.7692307692308,345.58320550688995L653.5384615384615,292.9317464852793L656.3076923076923,293.3468102045761L659.0769230769231,310.7186750926128L661.8461538461538,357.01174122211876L664.6153846153846,296.59802875605993L667.3846153846154,308.4244634202631L670.1538461538462,343.985871537438L672.9230769230769,364.28736770124215L675.6923076923077,351.42843645607206L678.4615384615385,355.1024123805189L681.2307692307692,388.9685516852348L684,393.7561349128633L686.7692307692308,374.59750970678806L689.5384615384615,341.91954716280793L692.3076923076924,345.72525148541433L695.0769230769231,345.96126058242095L697.8461538461538,350.8612099644128L700.6153846153846,385.8215090348981L703.3846153846154,381.695366130453L706.1538461538461,390.509640885958L708.9230769230769,370.99097288399895" style="fill: none; stroke: #eeca3b; stroke-width: 2;"></path></g></g></g><g transform="translate(0,0)"><path class="background" d="M0,0h720v480h-720Z" style="fill: none;"></path><g><g class="mark-line role-mark marks"><path d="M5.538461538461538,467.90503515464894L8.307692307692308,456.2188731230197L11.076923076923077,442.82700646817995L13.846153846153847,428.1745671486933L16.615384615384617,412.6093336329266L19.384615384615387,395.4279949558638L22.153846153846153,398.94394749378074L24.923076923076923,410.29530963954295L27.692307692307693,383.4000121356769L30.461538461538463,372.04672927779046L33.23076923076923,387.5299001360094L36,348.96175103400316L38.769230769230774,349.9175061589872L41.53846153846154,325.8426205659841L44.30769230769231,326.8355661982481L47.07692307692308,335.28229596659526L49.84615384615385,325.4923860174315L52.61538461538462,313.5903299862842L55.38461538461539,312.78021310808197L58.15384615384616,311.4098192100077L60.92307692307693,293.5693956115254L63.69230769230769,293.0102119365517L66.46153846153847,299.37712448323373L69.23076923076924,306.6914716537746L72,293.28136496219105L74.76923076923077,298.2588313968068L77.53846153846155,277.388288595313L80.3076923076923,319.82643622285303L83.07692307692308,298.08534829076024L85.84615384615385,253.0717387276345L88.61538461538461,273.0876705311699L91.38461538461539,329.22068459585614L94.15384615384616,260.3774013916229L96.92307692307692,252.77125086385627L99.6923076923077,245.01651335476L102.46153846153845,239.65490992133974L105.23076923076924,232.87873048211753L108,238.21282775750635L110.76923076923077,231.73003937850112L113.53846153846153,244.53360902255633L116.30769230769232,258.10728983189796L119.07692307692308,268.0218136466364L121.84615384615385,298.6658091486454L124.61538461538461,267.02320797746273L127.38461538461539,273.85165734292343L130.15384615384616,304.6958134072946L132.92307692307693,279.89050968434907L135.69230769230768,353.46353798520613L138.46153846153848,342.5624313697708L141.23076923076923,341.96215908005524L144,326.9896620518711L146.76923076923077,326.37432662591243L149.53846153846155,315.2616950196011L152.3076923076923,319.8186399439747L155.0769230769231,298.25581320138417L157.84615384615384,344.76919865327073L160.6153846153846,335.0357984513522L163.3846153846154,334.1256227521613L166.15384615384616,324.07188107933086L168.92307692307693,325.81643346136406L171.6923076923077,286.72535958746687L174.46153846153845,290.89774183443916L177.23076923076923,282.10108602446115L180,298.7878679901819L182.76923076923077,302.39675796090205L185.53846153846152,291.67864312343806L188.30769230769232,286.4774172151777L191.07692307692307,301.4184554527733L193.84615384615384,286.0097100118095L196.61538461538458,306.2075691736585L199.3846153846154,298.0589154157204L202.15384615384616,288.52243383789875L204.9230769230769,288.9221902017291L207.69230769230768,289.77691842521904L210.46153846153848,289.72830726724663L213.23076923076923,305.671056661562L216,300.1894499870121L218.76923076923075,288.16088673004674L221.53846153846155,282.97457786427526L224.30769230769232,302.06954998728776L227.07692307692307,285.412835739909L229.84615384615384,281.5471867966991L232.61538461538464,293.94347240915204L235.3846153846154,285.6571260454756L238.15384615384616,278.54844658816853L240.9230769230769,289.11469552881834L243.6923076923077,295.3305015276846L246.46153846153845,295.9890621786107L249.23076923076923,289.37672366243794L251.99999999999997,289.16148546462773L254.76923076923077,279.3470798864057L257.53846153846155,300.64737711823216L260.3076923076923,294.61113964441427L263.07692307692304,285.9856907728998L265.84615384615387,294.144758263573L268.61538461538464,296.31642094560243L271.38461538461536,296.5315503552026L274.15384615384613,286.9461913311105L276.92307692307696,283.2948119006639L279.6923076923077,297.7681013788868L282.46153846153845,284.4092822872809L285.2307692307692,285.3450302456925L288,281.17456700527543L290.7692307692308,299.22525107604014L293.53846153846155,293.9526540468285L296.3076923076923,285.10785435008114L299.0769230769231,298.8101845484187L301.84615384615387,303.5822557693498L304.6153846153846,298.80011231398L307.38461538461536,284.74495691505166L310.1538461538462,293.40419762460004L312.9230769230769,298.00279122249606L315.6923076923077,292.6449520205433L318.46153846153845,285.2178182125022L321.2307692307692,285.1840289560004L324,297.0126480440012L326.7692307692308,282.30074098176385L329.53846153846155,288.7353504404443L332.3076923076923,290.6157241799224L335.0769230769231,283.21052877210997L337.84615384615387,295.5325979372571L340.6153846153846,285.332201496705L343.3846153846154,284.7291167521644L346.1538461538462,283.66777679207684L348.9230769230769,283.7307692307692L351.6923076923077,283.35067629066737L354.46153846153845,309.61168519309814L357.2307692307692,295.16536718624457L360,282.35523430520584L362.7692307692308,284.29107324348945L365.53846153846155,283.56949092830723L368.30769230769226,283.90443686006824L371.07692307692304,283.59062136020657L373.84615384615387,284.0005476792094L376.61538461538464,291.6623473049658L379.3846153846154,294.6472891032638L382.15384615384613,294.77690285759314L384.9230769230769,293.1502445685631L387.6923076923077,296.69255540822127L390.46153846153845,284.16715784913384L393.23076923076917,284.15378389316066L396.00000000000006,294.88882602545965L398.7692307692308,286.7089695351377L401.53846153846155,284.1814212951734L404.3076923076923,284.67136772022764L407.0769230769231,298.58545357156527L409.8461538461538,290.3025840244927L412.6153846153846,293.5369473212235L415.38461538461536,281.37017793921564L418.1538461538462,284.38711118806515L420.92307692307696,293.0236145797111L423.6923076923077,296.2348515823043L426.46153846153845,282.730553449583L429.2307692307692,283.6511069845644L432,285.9870035501484L434.7692307692307,296.18709066634295L437.5384615384615,285.2055454236031L440.3076923076923,283.32646549366393L443.0769230769231,281.28864025712164L445.84615384615387,283.6316934230968L448.61538461538464,282.6293509075152L451.38461538461536,284.0402771575505L454.15384615384613,291.1077052508367L456.9230769230769,297.16684155299055L459.6923076923077,283.39542466962394L462.4615384615385,283.50489890279255L465.2307692307693,289.210013026793L468,292.79786979824524L470.7692307692308,284.35794372752275L473.53846153846155,294.9181776224698L476.3076923076923,293.76018885865113L479.07692307692304,286.8707400685622L481.8461538461538,285.3316365828338L484.61538461538464,284.4887780548628L487.3846153846154,288.62399845544934L490.1538461538462,296.2858713578889L492.9230769230769,283.94701730639076L495.6923076923077,299.2964399013042L498.46153846153845,300.7158914058447L501.2307692307692,293.27776293525693L503.99999999999994,286.59871061914606L506.76923076923083,285.65549342602384L509.53846153846155,294.855775712292L512.3076923076924,292.64487433532435L515.0769230769231,284.96705619824996L517.8461538461538,288.144476406378L520.6153846153846,296.89187900810384L523.3846153846154,286.2151898734177L526.1538461538461,293.42748574479253L528.9230769230769,299.34431782522535L531.6923076923077,288.1959803080258L534.4615384615385,284.69235215671637L537.2307692307693,288.08668631981516L540,299.6643159727797L542.7692307692307,292.59297465540243L545.5384615384615,290.16369719924586L548.3076923076923,286.92308218475324L551.0769230769231,297.179276737625L553.8461538461539,291.73009744438315L556.6153846153846,296.4598989191543L559.3846153846154,297.3636702722864L562.1538461538462,297.4868399806233L564.9230769230769,299.565074045805L567.6923076923076,291.6034070531978L570.4615384615385,287.0807741666627L573.2307692307692,285.87888855330715L576,300.94490836742693L578.7692307692308,299.0115368181171L581.5384615384615,295.8848062345886L584.3076923076923,288.91505827755947L587.0769230769231,315.12776323582796L589.8461538461538,288.2400750234448L592.6153846153846,358.0822229309078L595.3846153846154,332.49138513700683L598.1538461538462,297.23034547485577L600.9230769230769,288.4953442856295L603.6923076923077,374.3409719890226L606.4615384615385,286.9300055351482L609.2307692307692,359.34719102582415L612,296.4186704384725L614.7692307692307,299.42429678256553L617.5384615384615,318.91086191188543L620.3076923076924,366.09038238702203L623.0769230769231,289.5042111916276L625.8461538461538,288.28058239615257L628.6153846153846,330.62704955158983L631.3846153846154,321.85956702914814L634.1538461538462,298.20251336125955L636.9230769230769,375.6360908745286L639.6923076923076,328.65929066280626L642.4615384615385,289.446217673904L645.2307692307693,370.6462719919428L648,292.00665200364784L650.7692307692308,344.64633570343517L653.5384615384615,293.4343520107005L656.3076923076923,291.28914397704204L659.0769230769231,294.49526387009473L661.8461538461538,350.59160580065844L664.6153846153846,297.89460395523326L667.3846153846154,305.7660746836102L670.1538461538462,324.0913464871535L672.9230769230769,365.4251758428329L675.6923076923077,351.98279801102L678.4615384615385,356.76646706586826L681.2307692307692,383.69764280741305L684,391.5684767591971L686.7692307692308,372.5361920535828L689.5384615384615,337.71428571428567L692.3076923076924,348.84815895603134L695.0769230769231,347.9382935749768L697.8461538461538,344.8701318851823L700.6153846153846,383.10307254421167L703.3846153846154,375.5937392007957L706.1538461538461,390.2935893198443L708.9230769230769,379.2569154770578" style="fill: none; stroke: #ff9da6; stroke-width: 2;"></path></g></g></g><g transform="translate(0,0)"><path class="background" d="M0,0h720v480h-720Z" style="fill: none;"></path><g><g class="mark-line role-mark marks"><path d="M5.538461538461538,472.68766814860044L8.307692307692308,468.40276263177026L11.076923076923077,464.9670238873943L13.846153846153847,461.1246858474785L16.615384615384617,456.3219756022524L19.384615384615387,454.1482998770996L22.153846153846153,436.3882344935768L24.923076923076923,446.368371875214L27.692307692307693,439.40355357413375L30.461538461538463,440.0606910129792L33.23076923076923,440.90008242018075L36,435.85126244730407L38.769230769230774,432.4252358898476L41.53846153846154,435.7703460274502L44.30769230769231,419.35440107004456L47.07692307692308,429.3301342014517L49.84615384615385,427.06591120016157L52.61538461538462,428.9635447540012L55.38461538461539,420.5499922705646L58.15384615384616,428.21826711625863L60.92307692307693,424.5965359307536L63.69230769230769,426.0828123156777L66.46153846153847,414.0676609676246L69.23076923076924,423.47196964151993L72,421.2554470193933L74.76923076923077,423.19859316741196L77.53846153846155,414.62686808087057L80.3076923076923,421.2611244333041L83.07692307692308,419.8496240601504L85.84615384615385,420.8538790312135L88.61538461538461,411.52135865012707L91.38461538461539,418.22353199645454L94.15384615384616,417.327471357028L96.92307692307692,417.7783874349654L99.6923076923077,411.9342470461869L102.46153846153845,416.8615954427424L105.23076923076924,415.32178520480943L108,416.9188504045049L110.76923076923077,410.2874122485593L113.53846153846153,414.61366080194483L116.30769230769232,413.9737991266375L119.07692307692308,414.58965229570816L121.84615384615385,417.06836420275624L124.61538461538461,415.19895482185194L127.38461538461539,414.3189607623105L130.15384615384616,416.6245200522339L132.92307692307693,413.9719688941296L135.69230769230768,416.56102494942684L138.46153846153848,418.09566798643266L141.23076923076923,417.41405887734516L144,414.867078999862L146.76923076923077,416.98629496781126L149.53846153846155,415.98390084383357L152.3076923076923,416.8414184582259L155.0769230769231,414.34895435811325L157.84615384615384,416.1957266618253L160.6153846153846,420.29009623651444L163.3846153846154,417.6362788093683L166.15384615384616,414.939146641064L168.92307692307693,416.9327601274706L171.6923076923077,416.31972665855614L174.46153846153845,416.94526498696786L177.23076923076923,415.5029401392568L180,416.91234455565666L182.76923076923077,423.0420194774239L185.53846153846152,416.8677346342321L188.30769230769232,416.75730353086436L191.07692307692307,416.94812998160637L193.84615384615384,416.3100252737995L196.61538461538458,416.97929417892954L199.3846153846154,415.96019473695503L202.15384615384616,416.8700588211098L204.9230769230769,416.179136287913L207.69230769230768,416.409075445529L210.46153846153848,415.7871264515714L213.23076923076923,416.2397734698323L216,415.6824608306772L218.76923076923075,416.0679131641037L221.53846153846155,414.6154983120592L224.30769230769232,416.0613590349487L227.07692307692307,415.48651604914966L229.84615384615384,415.811925071984L232.61538461538464,418.62089197224975L235.3846153846154,415.62204870578137L238.15384615384616,415.46372472717565L240.9230769230769,415.4782309489586L243.6923076923077,418.4484059425922L246.46153846153845,419.70604938822237L249.23076923076923,423.3741739336234L251.99999999999997,415.40161399267663L254.76923076923077,414.16598388673106L257.53846153846155,415.4542830906467L260.3076923076923,419.24320452673425L263.07692307692304,415.2744523093588L265.84615384615387,413.80078190763015L268.61538461538464,421.7343009192066L271.38461538461536,414.49724698944976L274.15384615384613,414.8048780487805L276.92307692307696,418.20803295571574L279.6923076923077,415.3279841505696L282.46153846153845,414.8264926590538L285.2307692307692,414.5207663623505L288,417.6468398138418L290.7692307692308,415.24030960320613L293.53846153846155,414.41657842069264L296.3076923076923,414.39751701086306L299.0769230769231,413.68475288961713L301.84615384615387,414.41950321987116L304.6153846153846,414.48762055157636L307.38461538461536,414.31324074545427L310.1538461538462,417.7729012810852L312.9230769230769,414.3452191261733L315.6923076923077,422.40584982134783L318.46153846153845,413.9867411932926L321.2307692307692,417.43012141565487L324,413.95431586882773L326.7692307692308,418.2153834776218L329.53846153846155,414.0303678793437L332.3076923076923,417.32204066087525L335.0769230769231,414.078316050147L337.84615384615387,413.57303245421963L340.6153846153846,418.24897959183676L343.3846153846154,417.3117137930742L346.1538461538462,418.14637042901677L348.9230769230769,413.6953178530643L351.6923076923077,414.09477273017484L354.46153846153845,421.73228988191715L357.2307692307692,413.9953209004942L360,416.44656628718326L362.7692307692308,413.6876393074752L365.53846153846155,417.0687785401549L368.30769230769226,418.7277893540443L371.07692307692304,417.5505701424677L373.84615384615387,417.7167064184259L376.61538461538464,415.0950329895274L379.3846153846154,417.66968393621073L382.15384615384613,414.4028991227283L384.9230769230769,418.8404583298986L387.6923076923077,416.82726204465337L390.46153846153845,417.612604465171L393.23076923076917,413.47730162548544L396.00000000000006,417.93439668663746L398.7692307692308,414.3006980313207L401.53846153846155,413.4388603086664L404.3076923076923,413.6735758852605L407.0769230769231,413.41152679474214L409.8461538461538,412.5252214093184L412.6153846153846,413.7746912141692L415.38461538461536,416.63180438003315L418.1538461538462,413.5247813411079L420.92307692307696,412.55537310709724L423.6923076923077,413.2631297607911L426.46153846153845,415.4025819265144L429.2307692307692,415.79153965006054L432,415.3258682021399L434.7692307692307,415.116424458459L437.5384615384615,416.0247727606412L440.3076923076923,415.8655462184874L443.0769230769231,421.6994828486027L445.84615384615387,416.52566735112936L448.61538461538464,413.3423994285185L451.38461538461536,416.27024798550815L454.15384615384613,415.09995098593674L456.9230769230769,416.21398674785536L459.6923076923077,415.6473636197774L462.4615384615385,416.04586334157443L465.2307692307693,414.94588235294117L468,416.13862977325925L470.7692307692308,415.6847290640394L473.53846153846155,416.0619533527697L476.3076923076923,418.25545144248537L479.07692307692304,415.896477097789L481.8461538461538,415.48574980023085L484.61538461538464,415.9463169132225L487.3846153846154,414.69929839586285L490.1538461538462,415.8293096642734L492.9230769230769,415.48757648705686L495.6923076923077,415.8652224226186L498.46153846153845,414.69387755102036L501.2307692307692,418.9256148595508L503.99999999999994,415.17345701034606L506.76923076923083,415.8371452520656L509.53846153846155,414.9977800443991L512.3076923076924,415.7333568054455L515.0769230769231,415.26714938653L517.8461538461538,415.6793378295524L520.6153846153846,423.2348384722199L523.3846153846154,415.38376310756445L526.1538461538461,418.58640274319737L528.9230769230769,415.68442510054547L531.6923076923077,414.3082863082863L534.4615384615385,415.68228787265616L537.2307692307693,414.8746631577999L540,415.39572419651705L542.7692307692307,415.304475962424L545.5384615384615,417.2435191267876L548.3076923076923,414.7466645860966L551.0769230769231,416.24096870492735L553.8461538461539,414.35392466087137L556.6153846153846,415.31743437510426L559.3846153846154,415.1717198464186L562.1538461538462,415.7854789228497L564.9230769230769,414.922039420101L567.6923076923076,415.9369913696596L570.4615384615385,417.31034323569463L573.2307692307692,415.16374153787956L576,419.2914659903968L578.7692307692308,415.2654296211677L581.5384615384615,414.94675701839304L584.3076923076923,418.0442704935856L587.0769230769231,418.4363906169739L589.8461538461538,415.1297056173249L592.6153846153846,423.8606097366321L595.3846153846154,419.166792328677L598.1538461538462,418.365966932937L600.9230769230769,418.73231820122385L603.6923076923077,427.40071711034506L606.4615384615385,418.8110277554438L609.2307692307692,424.21854459671175L612,416.89878204696856L614.7692307692307,418.8911118717186L617.5384615384615,419.4748212383995L620.3076923076924,426.3385191250439L623.0769230769231,415.09528706312847L625.8461538461538,415.12957425978357L628.6153846153846,422.43139354230556L631.3846153846154,421.41478933590037L634.1538461538462,417.5566870290552L636.9230769230769,426.11062475129324L639.6923076923076,422.2818834292925L642.4615384615385,417.4760533384962L645.2307692307693,427.7904100737802L648,416.35836869601013L650.7692307692308,426.32188039466826L653.5384615384615,419.87477509895643L656.3076923076923,417.32413536587495L659.0769230769231,419.1292900799248L661.8461538461538,423.76960741587664L664.6153846153846,417.9901988269992L667.3846153846154,422.2106555975312L670.1538461538462,419.0203151946376L672.9230769230769,426.3094306740796L675.6923076923077,423.2418953609041L678.4615384615385,424.8756152275086L681.2307692307692,427.5505599718321L684,429.63158913145367L686.7692307692308,426.5727044451985L689.5384615384615,423.0132411653757L692.3076923076924,425.7040599789151L695.0769230769231,426.227675237384L697.8461538461538,427.66153846153844L700.6153846153846,431.4349415349111L703.3846153846154,429.4636247919318L706.1538461538461,430.84356703847925L708.9230769230769,428.66024456222385" style="fill: none; stroke: #4c78a8; stroke-width: 2;"></path></g></g></g><g transform="translate(0,0)"><path class="background" d="M0,0h720v480h-720Z" style="fill: none;"></path><g><g class="mark-line role-mark marks"><path d="M5.538461538461538,474.36768740759265L8.307692307692308,471.86769628475787L11.076923076923077,471.3968399137694L13.846153846153847,467.8512269149648L16.615384615384617,462.87293268903557L19.384615384615387,463.54035345723776L22.153846153846153,443.910285107863L24.923076923076923,458.6526644466599L27.692307692307693,450.6755011511034L30.461538461538463,453.89748504443793L33.23076923076923,458.7995477499177L36,451.6415654398696L38.769230769230774,444.8092892445088L41.53846153846154,448.41607075161824L44.30769230769231,428.7204359911576L47.07692307692308,446.55436064663843L49.84615384615385,438.3333986278051L52.61538461538462,443.3222403838239L55.38461538461539,420.14113681845316L58.15384615384616,440.6711741738882L60.92307692307693,431.49542375761695L63.69230769230769,437.9826947612604L66.46153846153847,413.8631636562671L69.23076923076924,433.60927814437116L72,423.97894150072773L74.76923076923077,432.756422846966L77.53846153846155,401.32474349797184L80.3076923076923,427.5403053254749L83.07692307692308,417.9041802689589L85.84615384615385,425.22674371695587L88.61538461538461,401.5617852013405L91.38461538461539,427.8017801760972L94.15384615384616,417.8081408825109L96.92307692307692,428.2755742676175L99.6923076923077,391.6508681906094L102.46153846153845,422.99536692976903L105.23076923076924,410.2925442413693L108,422.87639742308596L110.76923076923077,388.03891889236513L113.53846153846153,418.140182113488L116.30769230769232,407.6096764791606L119.07692307692308,417.04638955880273L121.84615384615385,394.74012156652344L124.61538461538461,415.2269887546855L127.38461538461539,409.0953863476425L130.15384615384616,418.66506626945966L132.92307692307693,392.5485565950531L135.69230769230768,416.53045489591364L138.46153846153848,410.4217329763468L141.23076923076923,416.44390709513203L144,399.50142697244416L146.76923076923077,418.3920860843938L149.53846153846155,411.7212614941828L152.3076923076923,419.7666580243713L155.0769230769231,393.88065678814576L157.84615384615384,417.2470751556731L160.6153846153846,410.0616127600134L163.3846153846154,414.88005923962817L166.15384615384616,402.2252227923305L168.92307692307693,418.2492048126124L171.6923076923077,411.8584446639769L174.46153846153845,418.0151454762854L177.23076923076923,395.80047322833803L180,413.3300458602495L182.76923076923077,414.1859330489935L185.53846153846152,417.0323938105466L188.30769230769232,399.22188759587647L191.07692307692307,414.4769550569851L193.84615384615384,407.21758908263837L196.61538461538458,414.0571852502328L199.3846153846154,394.00682534882714L202.15384615384616,414.0005160402511L204.9230769230769,404.3203608618456L207.69230769230768,412.57725522838416L210.46153846153848,400.0507526385605L213.23076923076923,411.7884140373771L216,405.2796588486141L218.76923076923075,410.0760028787987L221.53846153846155,394.54534215243865L224.30769230769232,409.5843783189551L227.07692307692307,401.4858602444809L229.84615384615384,408.431998268544L232.61538461538464,408.20477309261776L235.3846153846154,406.1350593413875L238.15384615384616,400.39782749514177L240.9230769230769,406.493500362496L243.6923076923077,392.26885202910904L246.46153846153845,411.23269181856716L249.23076923076923,409.39373818887583L251.99999999999997,405.3387874360847L254.76923076923077,393.54688608313234L257.53846153846155,404.69196800580477L260.3076923076923,407.8183665111925L263.07692307692304,405.99892167172914L265.84615384615387,390.1096278568324L268.61538461538464,408.7871333964049L271.38461538461536,397.6767842493847L274.15384615384613,404.5687829759942L276.92307692307696,391.14813272247676L279.6923076923077,406.8643123197132L282.46153846153845,400.0317059989191L285.2307692307692,403.4690737627157L288,388.4112442182909L290.7692307692308,406.3593668464081L293.53846153846155,398.58201477539694L296.3076923076923,402.1680416386361L299.0769230769231,392.80270996378925L301.84615384615387,403.7837621115937L304.6153846153846,401.7329784725264L307.38461538461536,402.9335418295544L310.1538461538462,394.13732620320854L312.9230769230769,401.6550666283194L315.6923076923077,406.92033739456417L318.46153846153845,400.20113136392206L321.2307692307692,389.80792459417L324,400.93472113591235L326.7692307692308,396.84061216871964L329.53846153846155,404.51101321585907L332.3076923076923,389.53471631437736L335.0769230769231,404.05792089907067L337.84615384615387,395.3491513374211L340.6153846153846,403.6608571866582L343.3846153846154,390.753287584268L346.1538461538462,404.1488873063163L348.9230769230769,395.286427598729L351.6923076923077,403.19079311798794L354.46153846153845,404.0981227982692L357.2307692307692,404.68999849147684L360,396.2120520920304L362.7692307692308,403.70628334321276L365.53846153846155,397.0909451388258L368.30769230769226,403.0916526646165L371.07692307692304,395.5740145756602L373.84615384615387,403.2880556310671L376.61538461538464,388.5197709064993L379.3846153846154,405.1386026723393L382.15384615384613,393.5411622276029L384.9230769230769,407.4442184321702L387.6923076923077,391.6777288558849L390.46153846153845,403.65047028997463L393.23076923076917,394.4384724186705L396.00000000000006,405.7595159307932L398.7692307692308,389.14975766039595L401.53846153846155,400.87188333071975L404.3076923076923,397.5537716179329L407.0769230769231,401.09641561553565L409.8461538461538,388.439756380321L412.6153846153846,399.72557567996387L415.38461538461536,394.9882420080092L418.1538461538462,401.30625598252766L420.92307692307696,390.7608217869087L423.6923076923077,398.9093927037852L426.46153846153845,393.9527100763914L429.2307692307692,398.8558762995409L432,385.75004916718353L434.7692307692307,400.7586899738798L437.5384615384615,398.09813917194003L440.3076923076923,398.92017216131495L443.0769230769231,395.7326871864035L445.84615384615387,399.91709844559585L448.61538461538464,393.15425538026676L451.38461538461536,398.7116883116883L454.15384615384613,389.16656796927674L456.9230769230769,395.3832456495346L459.6923076923077,389.8172396747746L462.4615384615385,397.2305314248616L465.2307692307693,388.17160254636036L468,396.1255429795044L470.7692307692308,392.0606041395924L473.53846153846155,394.5767539521933L476.3076923076923,398.86342794292L479.07692307692304,395.881779456326L481.8461538461538,393.4701022641004L484.61538461538464,396.38463069878554L487.3846153846154,387.5285776478637L490.1538461538462,393.78451747910964L492.9230769230769,391.67325366979804L495.6923076923077,394.1423547144532L498.46153846153845,388.21258889839766L501.2307692307692,401.46587759382726L503.99999999999994,391.7832799300903L506.76923076923083,393.8154035868429L509.53846153846155,386.6993153535904L512.3076923076924,393.9241832805009L515.0769230769231,392.34815655432686L517.8461538461538,393.5355887239057L520.6153846153846,396.9150301190068L523.3846153846154,393.46263910969793L526.1538461538461,398.24872617474995L528.9230769230769,394.4548419008537L531.6923076923077,383.8487203173396L534.4615384615385,393.6359376886849L537.2307692307693,391.23802972607785L540,396.2675474814203L542.7692307692307,384.4179970972424L545.5384615384615,396.0773077442898L548.3076923076923,392.6687473170053L551.0769230769231,395.00791415157613L553.8461538461539,385.0996577162134L556.6153846153846,396.72490311221804L559.3846153846154,390.58596879672217L562.1538461538462,395.29496402877703L564.9230769230769,388.22003468911885L567.6923076923076,397.0072925130885L570.4615384615385,390.31292517006807L573.2307692307692,394.4934989346775L576,392.13108372560424L578.7692307692308,393.4065171602032L581.5384615384615,394.31607282000425L584.3076923076923,395.09196018833063L587.0769230769231,393.0641950433206L589.8461538461538,391.1772407464056L592.6153846153846,406.1584352981684L595.3846153846154,399.92637903967955L598.1538461538462,387.3481444706466L600.9230769230769,393.78519457980104L603.6923076923077,412.1827465495329L606.4615384615385,391.72906701431157L609.2307692307692,406.35399660807406L612,393.0725548541394L614.7692307692307,391.0372020871527L617.5384615384615,404.30657999048674L620.3076923076924,408.84256243213895L623.0769230769231,394.4177856042263L625.8461538461538,391.80725752057197L628.6153846153846,400.2973632694492L631.3846153846154,394.70677411360543L634.1538461538462,391.51687289088864L636.9230769230769,412.5443315401474L639.6923076923076,398.18346469897705L642.4615384615385,387.609022556391L645.2307692307693,414.0944624995258L648,389.5199194443727L650.7692307692308,405.84241373039964L653.5384615384615,388.6108091477797L656.3076923076923,392.00894233985787L659.0769230769231,389.4020642603067L661.8461538461538,408.34450360981344L664.6153846153846,390.2592607619589L667.3846153846154,395.06750241814484L670.1538461538462,397.032856921499L672.9230769230769,410.03457107064173L675.6923076923077,397.8825591586328L678.4615384615385,403.8799759582043L681.2307692307692,414.9428772998578L684,417.8776510269995L686.7692307692308,407.053236307928L689.5384615384615,400.48074174025726L692.3076923076924,404.0996318832146L695.0769230769231,406.30384559146074L697.8461538461538,406.32189839685293L700.6153846153846,417.1153899290294L703.3846153846154,420.02637720173135L706.1538461538461,417.87729511867445L708.9230769230769,409.4715401128867" style="fill: none; stroke: #b279a2; stroke-width: 2;"></path></g></g></g><g transform="translate(0,0)"><path class="background" d="M0,0h720v480h-720Z" style="fill: none;"></path><g><g class="mark-line role-mark marks"><path d="M5.538461538461538,464.7155806123872L8.307692307692308,450.56453978105924L11.076923076923077,442.2691739686915L13.846153846153847,429.78774252382L16.615384615384617,410.58229682405505L19.384615384615387,391.9238295357542L22.153846153846153,368.4555129068054L24.923076923076923,393.24966957145097L27.692307692307693,372.7326168413023L30.461538461538463,347.36834857647773L33.23076923076923,380.8619913595345L36,342.0705809832024L38.769230769230774,329.81381347587563L41.53846153846154,293.3401793600995L44.30769230769231,301.7364196966093L47.07692307692308,336.5986904827564L49.84615384615385,313.38627449910814L52.61538461538462,329.8319669495528L55.38461538461539,288.96925730699377L58.15384615384616,294.391429696731L60.92307692307693,272.36866359447004L63.69230769230769,285.84468219005663L66.46153846153847,239.3645973169279L69.23076923076924,355.19338155335436L72,338.19862351222156L74.76923076923077,344.64382307446067L77.53846153846155,320.06788151404396L80.3076923076923,351.44755958574893L83.07692307692308,334.845869297164L85.84615384615385,313.7540448423355L88.61538461538461,32.466181061394366L91.38461538461539,306.4913432809077L94.15384615384616,218.12790080528245L96.92307692307692,211.3631326191355L99.6923076923077,193.3246455979366L102.46153846153845,205.5688889152243L105.23076923076924,162.78140819840675L108,212.95422514986015L110.76923076923077,92.49096048911977L113.53846153846153,242.3266653382657L116.30769230769232,227.55426617624195L119.07692307692308,239.9613285802894L121.84615384615385,276.6014641390315L124.61538461538461,289.5757495532464L127.38461538461539,311.17531505938524L130.15384615384616,339.967560823456L132.92307692307693,301.0275243725774L135.69230769230768,364.73940321346595L138.46153846153848,363.47936412564593L141.23076923076923,362.82389060853313L144,356.3528352537893L146.76923076923077,362.262471633939L149.53846153846155,362.9994714104054L152.3076923076923,363.343635383795L155.0769230769231,332.1294052083234L157.84615384615384,356.71924111567324L160.6153846153846,354.0391141043906L163.3846153846154,354.5608105351288L166.15384615384616,349.4406785341079L168.92307692307693,356.0411611611612L171.6923076923077,352.7456009543692L174.46153846153845,353.6297747306562L177.23076923076923,300.26597666983866L180,361.2503229139757L182.76923076923077,349.67878485946477L185.53846153846152,362.2878994810161L188.30769230769232,340.9773690597786L191.07692307692307,350.08811323972486L193.84615384615384,349.61583236321303L196.61538461538458,347.38209421501193L199.3846153846154,296.37506685532844L202.15384615384616,353.44860853432283L204.9230769230769,349.48309250707587L207.69230769230768,352.47006589046595L210.46153846153848,343.1887490747594L213.23076923076923,357.6527234426723L216,347.1796970937372L218.76923076923075,350.80625336927227L221.53846153846155,308.6216370761914L224.30769230769232,361.23095489515765L227.07692307692307,355.6122517800538L229.84615384615384,358.5321235719796L232.61538461538464,348.97569561979554L235.3846153846154,353.8083108944036L238.15384615384616,353.51183795628236L240.9230769230769,352.68850362245837L243.6923076923077,324.47033964790427L246.46153846153845,355.8220654516951L249.23076923076923,350.7403836563715L251.99999999999997,345.8143793938678L254.76923076923077,342.75174190279125L257.53846153846155,351.19681057350726L260.3076923076923,348.6544238332662L263.07692307692304,352.321612779628L265.84615384615387,283.84750967198397L268.61538461538464,352.81355507924343L271.38461538461536,344.17242446117353L274.15384615384613,350.4515497353364L276.92307692307696,328.9948721175323L279.6923076923077,347.5961031449753L282.46153846153845,342.3927499846917L285.2307692307692,348.5221432515975L288,296.83803879025214L290.7692307692308,354.06996113270407L293.53846153846155,349.74938449669605L296.3076923076923,351.7780859916782L299.0769230769231,340.93495704971195L301.84615384615387,356.3945669973991L304.6153846153846,346.6232896373553L307.38461538461536,354.6485799067401L310.1538461538462,291.2235268298035L312.9230769230769,361.85904362119646L315.6923076923077,354.18011496700024L318.46153846153845,357.52414716203015L321.2307692307692,341.82571903969574L324,353.6961687710994L326.7692307692308,350.47860211233484L329.53846153846155,353.4131258402249L332.3076923076923,306.15694164989935L335.0769230769231,350.4366142004471L337.84615384615387,347.05304660331933L340.6153846153846,353.4953564079393L343.3846153846154,339.60661974510174L346.1538461538462,350.0314090761399L348.9230769230769,346.3374131911138L351.6923076923077,343.2154507006482L354.46153846153845,278.48998911008783L357.2307692307692,354.58317509383966L360,349.51184569679236L362.7692307692308,351.7565060012357L365.53846153846155,327.955005624297L368.30769230769226,346.863140563902L371.07692307692304,340.62261033034673L373.84615384615387,345.6266350497055L376.61538461538464,287.3553979036448L379.3846153846154,348.7554220158427L382.15384615384613,352.4687663492728L384.9230769230769,355.794957645562L387.6923076923077,347.89300007020995L390.46153846153845,354.2164958645006L393.23076923076917,347.31482623894715L396.00000000000006,356.4799597306991L398.7692307692308,287.1059383394613L401.53846153846155,354.31346908275736L404.3076923076923,350.21399124754237L407.0769230769231,356.28435114503816L409.8461538461538,335.31966423558555L412.6153846153846,351.79788865830557L415.38461538461536,342.6653102746694L418.1538461538462,353.089085374692L420.92307692307696,299.91127440283776L423.6923076923077,353.8472535389164L426.46153846153845,341.9030115549085L429.2307692307692,350.16194104070104L432,332.1965014392813L434.7692307692307,354.0641040993095L437.5384615384615,348.32597856295814L440.3076923076923,348.6742752528555L443.0769230769231,288.05154865636666L445.84615384615387,353.22488038277515L448.61538461538464,345.8233380524846L451.38461538461536,350.9530358671226L454.15384615384613,332.745828442159L456.9230769230769,349.40869326249253L459.6923076923077,345.1802989055419L462.4615384615385,349.3500548981335L465.2307692307693,293.07964540719536L468,354.63795350113156L470.7692307692308,340.1718620064007L473.53846153846155,350.9843230796807L476.3076923076923,332.7186029325969L479.07692307692304,357.17551704385147L481.8461538461538,348.6614429411924L484.61538461538464,358.6372699164909L487.3846153846154,303.8957716451498L490.1538461538462,358.60713907318177L492.9230769230769,351.8144349013427L495.6923076923077,354.8716655310234L498.46153846153845,338.6605836430889L501.2307692307692,358.43784786641936L503.99999999999994,347.66721044045676L506.76923076923083,352.8511016961721L509.53846153846155,301.19539534307995L512.3076923076924,355.13396420020524L515.0769230769231,349.78368285116375L517.8461538461538,353.01076204346424L520.6153846153846,326.36522526601766L523.3846153846154,350.16815742397137L526.1538461538461,343.5516686434797L528.9230769230769,353.9559479821489L531.6923076923077,285.2966673238184L534.4615384615385,355.01791830743065L537.2307692307693,343.3210798337408L540,354.2296693578951L542.7692307692307,327.566582278481L545.5384615384615,352.257838884984L548.3076923076923,344.108465274142L551.0769230769231,352.5716967218609L553.8461538461539,286.64814830355573L556.6153846153846,349.6406108204398L559.3846153846154,348.62875476507213L562.1538461538462,355.858978583196L564.9230769230769,336.20817611949246L567.6923076923076,352.023346920649L570.4615384615385,347.46084523538406L573.2307692307692,352.3346885571521L576,320.20068485244894L578.7692307692308,354.72737049650476L581.5384615384615,350.58949395527975L584.3076923076923,353.66569122993707L587.0769230769231,365.9726469072506L589.8461538461538,349.8183013764141L592.6153846153846,380.58418226016164L595.3846153846154,376.54135338345867L598.1538461538462,300.34150939612124L600.9230769230769,352.62485207100593L603.6923076923077,406.14225006677833L606.4615384615385,348.67308432807084L609.2307692307692,392.976541649108L612,353.9282084375252L614.7692307692307,342.2871114215858L617.5384615384615,368.79867694672845L620.3076923076924,373.4703924452357L623.0769230769231,353.43255595921715L625.8461538461538,349.35170061683164L628.6153846153846,384.51514274132836L631.3846153846154,364.11517741036596L634.1538461538462,352.65323468032636L636.9230769230769,405.20765832106036L639.6923076923076,382.5879534109817L642.4615384615385,299.4256824840263L645.2307692307693,392.9657072718619L648,354.4248447204969L650.7692307692308,376.78775843943464L653.5384615384615,345.0356290939381L656.3076923076923,353.8218322218322L659.0769230769231,363.1216429699842L661.8461538461538,388.52178264895025L664.6153846153846,301.77049814397986L667.3846153846154,374.316116681514L670.1538461538462,378.43659223932366L672.9230769230769,397.13753636111153L675.6923076923077,389.85938239283354L678.4615384615385,389.79124431537997L681.2307692307692,405.61651675682594L684,406.4411748083118L686.7692307692308,390.7613808113173L689.5384615384615,388.7024825713826L692.3076923076924,386.3078256388635L695.0769230769231,399.7311673833413L697.8461538461538,379.94117647058823L700.6153846153846,404.623242805623L703.3846153846154,406.9190668916447L706.1538461538461,411.42857142857144L708.9230769230769,386.31370943123693" style="fill: none; stroke: #54a24b; stroke-width: 2;"></path></g></g></g></g><g class="mark-group role-legend"><g transform="translate(738,0)"><path class="background" d="M0,0h105v118h-105Z" style="pointer-events: none; fill: none;"></path><g><g class="mark-group role-legend-entry"><g transform="translate(0,16)"><path class="background" d="M0,0h0v0h0Z" style="pointer-events: none; fill: none;"></path><g><g class="mark-group role-scope"><g transform="translate(0,0)"><path class="background" d="M0,0h105v11h-105Z" style="pointer-events: none; fill: none; opacity: 1;"></path><g><g class="mark-symbol role-legend-symbol" style="pointer-events: none;"><path transform="translate(6,6)" d="M-5,0L5,0" style="fill: none; stroke: #4c78a8; stroke-width: 1.5; opacity: 1;"></path></g><g class="mark-text role-legend-label" style="pointer-events: none;"><text text-anchor="start" transform="translate(16,9)" style="font-family: sans-serif; font-size: 10px; fill: #000; opacity: 1;">Clang++ &amp; Eigen-3</text></g></g></g><g transform="translate(0,13)"><path class="background" d="M0,0h105v11h-105Z" style="pointer-events: none; fill: none; opacity: 1;"></path><g><g class="mark-symbol role-legend-symbol" style="pointer-events: none;"><path transform="translate(6,6)" d="M-5,0L5,0" style="fill: none; stroke: #f58518; stroke-width: 1.5; opacity: 1;"></path></g><g class="mark-text role-legend-label" style="pointer-events: none;"><text text-anchor="start" transform="translate(16,9)" style="font-family: sans-serif; font-size: 10px; fill: #000; opacity: 1;">Clang-Polly</text></g></g></g><g transform="translate(0,26)"><path class="background" d="M0,0h105v11h-105Z" style="pointer-events: none; fill: none; opacity: 1;"></path><g><g class="mark-symbol role-legend-symbol" style="pointer-events: none;"><path transform="translate(6,6)" d="M-5,0L5,0" style="fill: none; stroke: #e45756; stroke-width: 1.5; opacity: 1;"></path></g><g class="mark-text role-legend-label" style="pointer-events: none;"><text text-anchor="start" transform="translate(16,9)" style="font-family: sans-serif; font-size: 10px; fill: #000; opacity: 1;">GFortran</text></g></g></g><g transform="translate(0,39)"><path class="background" d="M0,0h105v11h-105Z" style="pointer-events: none; fill: none; opacity: 1;"></path><g><g class="mark-symbol role-legend-symbol" style="pointer-events: none;"><path transform="translate(6,6)" d="M-5,0L5,0" style="fill: none; stroke: #72b7b2; stroke-width: 1.5; opacity: 1;"></path></g><g class="mark-text role-legend-label" style="pointer-events: none;"><text text-anchor="start" transform="translate(16,9)" style="font-family: sans-serif; font-size: 10px; fill: #000; opacity: 1;">Julia</text></g></g></g><g transform="translate(0,52)"><path class="background" d="M0,0h105v11h-105Z" style="pointer-events: none; fill: none; opacity: 1;"></path><g><g class="mark-symbol role-legend-symbol" style="pointer-events: none;"><path transform="translate(6,6)" d="M-5,0L5,0" style="fill: none; stroke: #54a24b; stroke-width: 1.5; opacity: 1;"></path></g><g class="mark-text role-legend-label" style="pointer-events: none;"><text text-anchor="start" transform="translate(16,9)" style="font-family: sans-serif; font-size: 10px; fill: #000; opacity: 1;">LoopVectorization</text></g></g></g><g transform="translate(0,65)"><path class="background" d="M0,0h105v11h-105Z" style="pointer-events: none; fill: none; opacity: 1;"></path><g><g class="mark-symbol role-legend-symbol" style="pointer-events: none;"><path transform="translate(6,6)" d="M-5,0L5,0" style="fill: none; stroke: #eeca3b; stroke-width: 1.5; opacity: 1;"></path></g><g class="mark-text role-legend-label" style="pointer-events: none;"><text text-anchor="start" transform="translate(16,9)" style="font-family: sans-serif; font-size: 10px; fill: #000; opacity: 1;">icc</text></g></g></g><g transform="translate(0,78)"><path class="background" d="M0,0h105v11h-105Z" style="pointer-events: none; fill: none; opacity: 1;"></path><g><g class="mark-symbol role-legend-symbol" style="pointer-events: none;"><path transform="translate(6,6)" d="M-5,0L5,0" style="fill: none; stroke: #b279a2; stroke-width: 1.5; opacity: 1;"></path></g><g class="mark-text role-legend-label" style="pointer-events: none;"><text text-anchor="start" transform="translate(16,9)" style="font-family: sans-serif; font-size: 10px; fill: #000; opacity: 1;">icpc &amp; Eigen-3</text></g></g></g><g transform="translate(0,91)"><path class="background" d="M0,0h105v11h-105Z" style="pointer-events: none; fill: none; opacity: 1;"></path><g><g class="mark-symbol role-legend-symbol" style="pointer-events: none;"><path transform="translate(6,6)" d="M-5,0L5,0" style="fill: none; stroke: #ff9da6; stroke-width: 1.5; opacity: 1;"></path></g><g class="mark-text role-legend-label" style="pointer-events: none;"><text text-anchor="start" transform="translate(16,9)" style="font-family: sans-serif; font-size: 10px; fill: #000; opacity: 1;">ifort</text></g></g></g></g></g></g></g><g class="mark-text role-legend-title" style="pointer-events: none;"><text text-anchor="start" transform="translate(0,9)" style="font-family: sans-serif; font-size: 11px; font-weight: bold; fill: #000; opacity: 1;">Method</text></g></g></g></g><g class="mark-group role-axis"><g transform="translate(0.5,480.5)"><path class="background" d="M0,0h0v0h0Z" style="pointer-events: none; fill: none;"></path><g><g class="mark-rule role-axis-tick" style="pointer-events: none;"><line transform="translate(0,0)" x2="0" y2="5" style="fill: none; stroke: #888; stroke-width: 1; opacity: 1;"></line><line transform="translate(55,0)" x2="0" y2="5" style="fill: none; stroke: #888; stroke-width: 1; opacity: 1;"></line><line transform="translate(111,0)" x2="0" y2="5" style="fill: none; stroke: #888; stroke-width: 1; opacity: 1;"></line><line transform="translate(166,0)" x2="0" y2="5" style="fill: none; stroke: #888; stroke-width: 1; opacity: 1;"></line><line transform="translate(222,0)" x2="0" y2="5" style="fill: none; stroke: #888; stroke-width: 1; opacity: 1;"></line><line transform="translate(277,0)" x2="0" y2="5" style="fill: none; stroke: #888; stroke-width: 1; opacity: 1;"></line><line transform="translate(332,0)" x2="0" y2="5" style="fill: none; stroke: #888; stroke-width: 1; opacity: 1;"></line><line transform="translate(388,0)" x2="0" y2="5" style="fill: none; stroke: #888; stroke-width: 1; opacity: 1;"></line><line transform="translate(443,0)" x2="0" y2="5" style="fill: none; stroke: #888; stroke-width: 1; opacity: 1;"></line><line transform="translate(498,0)" x2="0" y2="5" style="fill: none; stroke: #888; stroke-width: 1; opacity: 1;"></line><line transform="translate(554,0)" x2="0" y2="5" style="fill: none; stroke: #888; stroke-width: 1; opacity: 1;"></line><line transform="translate(609,0)" x2="0" y2="5" style="fill: none; stroke: #888; stroke-width: 1; opacity: 1;"></line><line transform="translate(665,0)" x2="0" y2="5" style="fill: none; stroke: #888; stroke-width: 1; opacity: 1;"></line><line transform="translate(720,0)" x2="0" y2="5" style="fill: none; stroke: #888; stroke-width: 1; opacity: 1;"></line></g><g class="mark-text role-axis-label" style="pointer-events: none;"><text text-anchor="start" transform="translate(0,15)" style="font-family: sans-serif; font-size: 10px; fill: #000; opacity: 1;">0</text><text text-anchor="middle" transform="translate(55.38461538461539,15)" style="font-family: sans-serif; font-size: 10px; fill: #000; opacity: 1;">20</text><text text-anchor="middle" transform="translate(110.76923076923077,15)" style="font-family: sans-serif; font-size: 10px; fill: #000; opacity: 1;">40</text><text text-anchor="middle" transform="translate(166.15384615384616,15)" style="font-family: sans-serif; font-size: 10px; fill: #000; opacity: 1;">60</text><text text-anchor="middle" transform="translate(221.53846153846155,15)" style="font-family: sans-serif; font-size: 10px; fill: #000; opacity: 1;">80</text><text text-anchor="middle" transform="translate(276.92307692307696,15)" style="font-family: sans-serif; font-size: 10px; fill: #000; opacity: 1;">100</text><text text-anchor="middle" transform="translate(332.3076923076923,15)" style="font-family: sans-serif; font-size: 10px; fill: #000; opacity: 1;">120</text><text text-anchor="middle" transform="translate(387.6923076923077,15)" style="font-family: sans-serif; font-size: 10px; fill: #000; opacity: 1;">140</text><text text-anchor="middle" transform="translate(443.0769230769231,15)" style="font-family: sans-serif; font-size: 10px; fill: #000; opacity: 1;">160</text><text text-anchor="middle" transform="translate(498.46153846153845,15)" style="font-family: sans-serif; font-size: 10px; fill: #000; opacity: 1;">180</text><text text-anchor="middle" transform="translate(553.8461538461539,15)" style="font-family: sans-serif; font-size: 10px; fill: #000; opacity: 1;">200</text><text text-anchor="middle" transform="translate(609.2307692307692,15)" style="font-family: sans-serif; font-size: 10px; fill: #000; opacity: 1;">220</text><text text-anchor="middle" transform="translate(664.6153846153846,15)" style="font-family: sans-serif; font-size: 10px; fill: #000; opacity: 1;">240</text><text text-anchor="end" transform="translate(720,15)" style="font-family: sans-serif; font-size: 10px; fill: #000; opacity: 1;">260</text></g><g class="mark-rule role-axis-domain" style="pointer-events: none;"><line transform="translate(0,0)" x2="720" y2="0" style="fill: none; stroke: #888; stroke-width: 1; opacity: 1;"></line></g><g class="mark-text role-axis-title" style="pointer-events: none;"><text text-anchor="middle" transform="translate(360,30)" style="font-family: sans-serif; font-size: 11px; font-weight: bold; fill: #000; opacity: 1;">Size</text></g></g></g></g><g class="mark-group role-axis"><g transform="translate(0.5,0.5)"><path class="background" d="M0,0h0v0h0Z" style="pointer-events: none; fill: none;"></path><g><g class="mark-rule role-axis-tick" style="pointer-events: none;"><line transform="translate(0,480)" x2="-5" y2="0" style="fill: none; stroke: #888; stroke-width: 1; opacity: 1;"></line><line transform="translate(0,453)" x2="-5" y2="0" style="fill: none; stroke: #888; stroke-width: 1; opacity: 1;"></line><line transform="translate(0,425)" x2="-5" y2="0" style="fill: none; stroke: #888; stroke-width: 1; opacity: 1;"></line><line transform="translate(0,398)" x2="-5" y2="0" style="fill: none; stroke: #888; stroke-width: 1; opacity: 1;"></line><line transform="translate(0,370)" x2="-5" y2="0" style="fill: none; stroke: #888; stroke-width: 1; opacity: 1;"></line><line transform="translate(0,343)" x2="-5" y2="0" style="fill: none; stroke: #888; stroke-width: 1; opacity: 1;"></line><line transform="translate(0,315)" x2="-5" y2="0" style="fill: none; stroke: #888; stroke-width: 1; opacity: 1;"></line><line transform="translate(0,288)" x2="-5" y2="0" style="fill: none; stroke: #888; stroke-width: 1; opacity: 1;"></line><line transform="translate(0,261)" x2="-5" y2="0" style="fill: none; stroke: #888; stroke-width: 1; opacity: 1;"></line><line transform="translate(0,233)" x2="-5" y2="0" style="fill: none; stroke: #888; stroke-width: 1; opacity: 1;"></line><line transform="translate(0,206)" x2="-5" y2="0" style="fill: none; stroke: #888; stroke-width: 1; opacity: 1;"></line><line transform="translate(0,178)" x2="-5" y2="0" style="fill: none; stroke: #888; stroke-width: 1; opacity: 1;"></line><line transform="translate(0,151)" x2="-5" y2="0" style="fill: none; stroke: #888; stroke-width: 1; opacity: 1;"></line><line transform="translate(0,123)" x2="-5" y2="0" style="fill: none; stroke: #888; stroke-width: 1; opacity: 1;"></line><line transform="translate(0,96)" x2="-5" y2="0" style="fill: none; stroke: #888; stroke-width: 1; opacity: 1;"></line><line transform="translate(0,69)" x2="-5" y2="0" style="fill: none; stroke: #888; stroke-width: 1; opacity: 1;"></line><line transform="translate(0,41)" x2="-5" y2="0" style="fill: none; stroke: #888; stroke-width: 1; opacity: 1;"></line><line transform="translate(0,14)" x2="-5" y2="0" style="fill: none; stroke: #888; stroke-width: 1; opacity: 1;"></line></g><g class="mark-text role-axis-label" style="pointer-events: none;"><text text-anchor="end" transform="translate(-7,483)" style="font-family: sans-serif; font-size: 10px; fill: #000; opacity: 1;">0</text><text text-anchor="end" transform="translate(-7,455.57142857142856)" style="font-family: sans-serif; font-size: 10px; fill: #000; opacity: 1;">2</text><text text-anchor="end" transform="translate(-7,428.1428571428571)" style="font-family: sans-serif; font-size: 10px; fill: #000; opacity: 1;">4</text><text text-anchor="end" transform="translate(-7,400.71428571428567)" style="font-family: sans-serif; font-size: 10px; fill: #000; opacity: 1;">6</text><text text-anchor="end" transform="translate(-7,373.2857142857143)" style="font-family: sans-serif; font-size: 10px; fill: #000; opacity: 1;">8</text><text text-anchor="end" transform="translate(-7,345.8571428571429)" style="font-family: sans-serif; font-size: 10px; fill: #000; opacity: 1;">10</text><text text-anchor="end" transform="translate(-7,318.42857142857144)" style="font-family: sans-serif; font-size: 10px; fill: #000; opacity: 1;">12</text><text text-anchor="end" transform="translate(-7,291)" style="font-family: sans-serif; font-size: 10px; fill: #000; opacity: 1;">14</text><text text-anchor="end" transform="translate(-7,263.5714285714286)" style="font-family: sans-serif; font-size: 10px; fill: #000; opacity: 1;">16</text><text text-anchor="end" transform="translate(-7,236.14285714285717)" style="font-family: sans-serif; font-size: 10px; fill: #000; opacity: 1;">18</text><text text-anchor="end" transform="translate(-7,208.71428571428572)" style="font-family: sans-serif; font-size: 10px; fill: #000; opacity: 1;">20</text><text text-anchor="end" transform="translate(-7,181.28571428571428)" style="font-family: sans-serif; font-size: 10px; fill: #000; opacity: 1;">22</text><text text-anchor="end" transform="translate(-7,153.85714285714286)" style="font-family: sans-serif; font-size: 10px; fill: #000; opacity: 1;">24</text><text text-anchor="end" transform="translate(-7,126.42857142857142)" style="font-family: sans-serif; font-size: 10px; fill: #000; opacity: 1;">26</text><text text-anchor="end" transform="translate(-7,98.99999999999997)" style="font-family: sans-serif; font-size: 10px; fill: #000; opacity: 1;">28</text><text text-anchor="end" transform="translate(-7,71.5714285714286)" style="font-family: sans-serif; font-size: 10px; fill: #000; opacity: 1;">30</text><text text-anchor="end" transform="translate(-7,44.14285714285715)" style="font-family: sans-serif; font-size: 10px; fill: #000; opacity: 1;">32</text><text text-anchor="end" transform="translate(-7,16.71428571428572)" style="font-family: sans-serif; font-size: 10px; fill: #000; opacity: 1;">34</text></g><g class="mark-rule role-axis-domain" style="pointer-events: none;"><line transform="translate(0,480)" x2="0" y2="-480" style="fill: none; stroke: #888; stroke-width: 1; opacity: 1;"></line></g><g class="mark-text role-axis-title" style="pointer-events: none;"><text text-anchor="middle" transform="translate(-23,240) rotate(-90) translate(0,-2)" style="font-family: sans-serif; font-size: 11px; font-weight: bold; fill: #000; opacity: 1;">GFLOPS</text></g></g></g></g></g></g></g></g></svg>