<svg class="marks" width="886" height="527" viewBox="0 0 886 527" version="1.1" xmlns="http://www.w3.org/2000/svg" xmlns:xlink="http://www.w3.org/1999/xlink"><g transform="translate(42,10)"><g class="mark-group role-frame root"><g transform="translate(0,0)"><path class="background" d="M0.5,0.5h720v480h-720Z" style="fill: none; stroke: #ddd;"></path><g><g class="mark-group role-axis"><g transform="translate(0.5,480.5)"><path class="background" d="M0,0h0v0h0Z" style="pointer-events: none; fill: none;"></path><g><g class="mark-rule role-axis-grid" style="pointer-events: none;"><line transform="translate(0,-480)" x2="0" y2="480" style="fill: none; stroke: #ddd; stroke-width: 1; opacity: 1;"></line><line transform="translate(55,-480)" x2="0" y2="480" style="fill: none; stroke: #ddd; stroke-width: 1; opacity: 1;"></line><line transform="translate(111,-480)" x2="0" y2="480" style="fill: none; stroke: #ddd; stroke-width: 1; opacity: 1;"></line><line transform="translate(166,-480)" x2="0" y2="480" style="fill: none; stroke: #ddd; stroke-width: 1; opacity: 1;"></line><line transform="translate(222,-480)" x2="0" y2="480" style="fill: none; stroke: #ddd; stroke-width: 1; opacity: 1;"></line><line transform="translate(277,-480)" x2="0" y2="480" style="fill: none; stroke: #ddd; stroke-width: 1; opacity: 1;"></line><line transform="translate(332,-480)" x2="0" y2="480" style="fill: none; stroke: #ddd; stroke-width: 1; opacity: 1;"></line><line transform="translate(388,-480)" x2="0" y2="480" style="fill: none; stroke: #ddd; stroke-width: 1; opacity: 1;"></line><line transform="translate(443,-480)" x2="0" y2="480" style="fill: none; stroke: #ddd; stroke-width: 1; opacity: 1;"></line><line transform="translate(498,-480)" x2="0" y2="480" style="fill: none; stroke: #ddd; stroke-width: 1; opacity: 1;"></line><line transform="translate(554,-480)" x2="0" y2="480" style="fill: none; stroke: #ddd; stroke-width: 1; opacity: 1;"></line><line transform="translate(609,-480)" x2="0" y2="480" style="fill: none; stroke: #ddd; stroke-width: 1; opacity: 1;"></line><line transform="translate(665,-480)" x2="0" y2="480" style="fill: none; stroke: #ddd; stroke-width: 1; opacity: 1;"></line><line transform="translate(720,-480)" x2="0" y2="480" style="fill: none; stroke: #ddd; stroke-width: 1; opacity: 1;"></line></g></g></g></g><g class="mark-group role-axis"><g transform="translate(0.5,0.5)"><path class="background" d="M0,0h0v0h0Z" style="pointer-events: none; fill: none;"></path><g><g class="mark-rule role-axis-grid" style="pointer-events: none;"><line transform="translate(0,480)" x2="720" y2="0" style="fill: none; stroke: #ddd; stroke-width: 1; opacity: 1;"></line><line transform="translate(0,420)" x2="720" y2="0" style="fill: none; stroke: #ddd; stroke-width: 1; opacity: 1;"></line><line transform="translate(0,360)" x2="720" y2="0" style="fill: none; stroke: #ddd; stroke-width: 1; opacity: 1;"></line><line transform="translate(0,300)" x2="720" y2="0" style="fill: none; stroke: #ddd; stroke-width: 1; opacity: 1;"></line><line transform="translate(0,240)" x2="720" y2="0" style="fill: none; stroke: #ddd; stroke-width: 1; opacity: 1;"></line><line transform="translate(0,180)" x2="720" y2="0" style="fill: none; stroke: #ddd; stroke-width: 1; opacity: 1;"></line><line transform="translate(0,120)" x2="720" y2="0" style="fill: none; stroke: #ddd; stroke-width: 1; opacity: 1;"></line><line transform="translate(0,60)" x2="720" y2="0" style="fill: none; stroke: #ddd; stroke-width: 1; opacity: 1;"></line><line transform="translate(0,0)" x2="720" y2="0" style="fill: none; stroke: #ddd; stroke-width: 1; opacity: 1;"></line></g></g></g></g><g class="mark-group role-scope pathgroup"><g transform="translate(0,0)"><path class="background" d="M0,0h720v480h-720Z" style="fill: none;"></path><g><g class="mark-line role-mark marks"><path d="M5.538461538461538,398.79882592007226L8.307692307692308,371.63625395867894L11.076923076923077,340.8978454033335L13.846153846153847,323.3209525890321L16.615384615384617,315.67553383409324L19.384615384615387,311.01096224116935L22.153846153846153,307.410261610221L24.923076923076923,305.32248461996426L27.692307692307693,313.34120796913146L30.461538461538463,316.5800568683204L33.23076923076923,313.5502465517072L36,310.1421319796954L38.769230769230774,306.3062189356286L41.53846153846154,304.11058381374016L44.30769230769231,303.57907685425926L47.07692307692308,300.6687248181675L49.84615384615385,302.7290228041107L52.61538461538462,304.69990921623344L55.38461538461539,302.2838137472284L58.15384615384616,306.8173591280215L60.92307692307693,312.02268746350825L63.69230769230769,315.21158295395173L66.46153846153847,315.2326575899771L69.23076923076924,311.9390548220783L72,314.21381082514176L74.76923076923077,313.88845370515423L77.53846153846155,313.5449705321299L80.3076923076923,313.341158573803L83.07692307692308,313.23466425546087L85.84615384615385,313.20688624913714L88.61538461538461,177.03150154984738L91.38461538461539,191.10757735832615L94.15384615384616,193.04509954216817L96.92307692307692,202.54714402842313L99.6923076923077,197.31100149133877L102.46153846153845,203.51602663145772L105.23076923076924,206.2664714494875L108,213.4289299157555L110.76923076923077,214.51816322816182L113.53846153846153,226.435899265178L116.30769230769232,228.46231607323375L119.07692307692308,232.04950855478702L121.84615384615385,239.0915235906448L124.61538461538461,242.79602750190986L127.38461538461539,244.95741982243152L130.15384615384616,247.92113159022716L132.92307692307693,246.22214859604074L135.69230769230768,252.28719696382925L138.46153846153848,254.1030562527683L141.23076923076923,257.67220902612826L144,259.7842588893328L146.76923076923077,266.89501116902454L149.53846153846155,275.41932150852415L152.3076923076923,278.7256984152916L155.0769230769231,279.5079822036116L157.84615384615384,286.67713465807566L160.6153846153846,287.5125L163.3846153846154,291.544338739094L166.15384615384616,289.0342528624571L168.92307692307693,293.92373923739234L171.6923076923077,294.1229345670852L174.46153846153845,296.06150206978117L177.23076923076923,175.1636541279922L180,177.7986498385676L182.76923076923077,175.29715762273898L185.53846153846152,182.53006148321452L188.30769230769232,180.74940207281423L191.07692307692307,185.06818644412778L193.84615384615384,189.27801549044028L196.61538461538458,194.442950243095L199.3846153846154,197.3771471247199L202.15384615384616,203.1058376839108L204.9230769230769,205.52431541349935L207.69230769230768,234.1042540443379L210.46153846153848,228.96091515729265L213.23076923076923,232.17849774585463L216,233.05354558610708L218.76923076923075,236.81590444506796L221.53846153846155,240.99585062240664L224.30769230769232,246.47793444424096L227.07692307692307,249.83266988410188L229.84615384615384,254.14051427414455L232.61538461538464,254.75600538924127L235.3846153846154,259.9297541394882L238.15384615384616,261.01463414634145L240.9230769230769,268.2924581097541L243.6923076923077,267.66162088887455L246.46153846153845,273.5567010309278L249.23076923076923,272.72069900572455L251.99999999999997,275.69810005229215L254.76923076923077,274.5601280597612L257.53846153846155,278.11918660594006L260.3076923076923,277.56942258044205L263.07692307692304,279.40736215060326L265.84615384615387,209.74190650589088L268.61538461538464,211.92869372545073L271.38461538461536,212.31466579077022L274.15384615384613,216.6437596985147L276.92307692307696,216.0545064244159L279.6923076923077,219.142702116115L282.46153846153845,222.5300501808846L285.2307692307692,224.73290527570006L288,219.04211888877828L290.7692307692308,227.37240313987581L293.53846153846155,230.41290993001007L296.3076923076923,239.04083405734144L299.0769230769231,235.8942457231726L301.84615384615387,242.45666171371965L304.6153846153846,242.5976214394504L307.38461538461536,246.3304304241589L310.1538461538462,242.72224478955096L312.9230769230769,248.71839372811874L315.6923076923077,252.7180791123696L318.46153846153845,253.9621575826038L321.2307692307692,252.59983244903654L324,257.99396984924624L326.7692307692308,259.72613484100793L329.53846153846155,262.93061405453335L332.3076923076923,260.9587663426081L335.0769230769231,265.9545674238763L337.84615384615387,267.784412319296L340.6153846153846,268.35446941371464L343.3846153846154,268.3638018660396L346.1538461538462,270.99856242397436L348.9230769230769,271.59539830692427L351.6923076923077,274.3146351750316L354.46153846153845,221.32637075718011L357.2307692307692,217.90902875004073L360,215.29354619345224L362.7692307692308,216.97880026618503L365.53846153846155,216.41838351822503L368.30769230769226,217.57945110229463L371.07692307692304,219.12834481653582L373.84615384615387,221.7519731186997L376.61538461538464,218.74269689179715L379.3846153846154,223.5412035118128L382.15384615384613,223.78450578806766L384.9230769230769,232.94117647058826L387.6923076923077,229.227186110523L390.46153846153845,232.0751212465173L393.23076923076917,233.21855377759772L396.00000000000006,233.85596174917816L398.7692307692308,234.6656222461569L401.53846153846155,237.94187708432582L404.3076923076923,240.84687529018476L407.0769230769231,242.05614290922347L409.8461538461538,241.66441502296675L412.6153846153846,247.22791182086445L415.38461538461536,249.81707317073167L418.1538461538462,253.6861133935908L420.92307692307696,251.08358625215322L423.6923076923077,258.84708642940944L426.46153846153845,257.9362741297775L429.2307692307692,259.5639291954721L432,257.3791849719739L434.7692307692307,259.9748688003548L437.5384615384615,262.5091984705289L440.3076923076923,263.07397143466216L443.0769230769231,230.1050929668553L445.84615384615387,231.61971272121258L448.61538461538464,228.69379014989295L451.38461538461536,229.9734996102884L454.15384615384613,229.83050847457625L456.9230769230769,234.34977578475338L459.6923076923077,232.05783707237083L462.4615384615385,237.68533179789839L465.2307692307693,230.4731214296177L468,238.30061693774536L470.7692307692308,236.87203791469193L473.53846153846155,242.98166677859112L476.3076923076923,240.41867954911433L479.07692307692304,243.34905660377362L481.8461538461538,244.27327269208436L484.61538461538464,247.35695851954424L487.3846153846154,245.48055207026346L490.1538461538462,247.51199114500062L492.9230769230769,251.31168132065312L495.6923076923077,252.06861993751107L498.46153846153845,251.00685292567206L501.2307692307692,254.75555555555556L503.99999999999994,258.61186506397826L506.76923076923083,261.50435299843184L509.53846153846155,257.8188740821322L512.3076923076924,266.02964037724115L515.0769230769231,266.3950870010235L517.8461538461538,266.1773948302078L520.6153846153846,264.5239539114615L523.3846153846154,268.2769124944725L526.1538461538461,268.46845096420066L528.9230769230769,270.01574652860614L531.6923076923077,234.6231100320053L534.4615384615385,239.3959515904466L537.2307692307693,226.7730239303843L540,239.63523924322624L542.7692307692307,239.11411489472317L545.5384615384615,245.8703481392557L548.3076923076923,243.78877953739322L551.0769230769231,244.69428979652162L553.8461538461539,240.46476984954566L556.6153846153846,241.5854374633L559.3846153846154,246.22547389424676L562.1538461538462,249.49580221717144L564.9230769230769,246.75962074735077L567.6923076923076,250.8523626497852L570.4615384615385,251.48930469343097L573.2307692307692,254.04355812122805L576,249.66442953020137L578.7692307692308,239.824889415842L581.5384615384615,253.77467665078282L584.3076923076923,242.7474033149171L587.0769230769231,242.76345168775447L589.8461538461538,263.2954320351808L592.6153846153846,261.2519809825673L595.3846153846154,268.3237740722452L598.1538461538462,266.1597536402692L600.9230769230769,254.67968563943793L603.6923076923077,259.66078227760465L606.4615384615385,270.4761904761905L609.2307692307692,276.7532919947049L612,257.185028195133L614.7692307692307,270.2880542219712L617.5384615384615,270.7404433583522L620.3076923076924,246.82859125607212L623.0769230769231,250.61875046988945L625.8461538461538,249.20446877108793L628.6153846153846,233.19027181688125L631.3846153846154,249.0671187939995L634.1538461538462,252.58203799654575L636.9230769230769,254.47470817120617L639.6923076923076,256.88592839300577L642.4615384615385,247.62600752283714L645.2307692307693,254.74901879776903L648,259.87123461320346L650.7692307692308,260.8121727102065L653.5384615384615,257.3186025679307L656.3076923076923,263.4078909474897L659.0769230769231,267.0119820269596L661.8461538461538,263.254085713386L664.6153846153846,259.65714285714284L667.3846153846154,270.51632793558616L670.1538461538462,268.00372517799747L672.9230769230769,267.10870410819547L675.6923076923077,270.1658525170387L678.4615384615385,272.9636733174935L681.2307692307692,274.8500365764448L684,277.90168261299897L686.7692307692308,272.4883786054327L689.5384615384615,282.68892469426027L692.3076923076924,283.30181286244186L695.0769230769231,285.41837571780144L697.8461538461538,280.2005640864933L700.6153846153846,289.50941159033647L703.3846153846154,285.1590584342333L706.1538461538461,289.702417101907L708.9230769230769,270.04228386033026" style="fill: none; stroke: #e45756; stroke-width: 2;"></path></g></g></g><g transform="translate(0,0)"><path class="background" d="M0,0h720v480h-720Z" style="fill: none;"></path><g><g class="mark-line role-mark marks"><path d="M5.538461538461538,377.09871244635195L8.307692307692308,336.38814016172506L11.076923076923077,309.801748028139L13.846153846153847,295.92902200112826L16.615384615384617,277.69314472252444L19.384615384615387,273.7096973440395L22.153846153846153,266.637428357837L24.923076923076923,261.48945329315535L27.692307692307693,278.0717846149038L30.461538461538463,281.78477146850247L33.23076923076923,281.07916850950903L36,282.7986168606633L38.769230769230774,278.9091593003573L41.53846153846154,279.07925490473826L44.30769230769231,279.89864999880115L47.07692307692308,279.23358299947745L49.84615384615385,282.4537979852981L52.61538461538462,281.5539614092959L55.38461538461539,283.19769068104773L58.15384615384616,288.0012498698052L60.92307692307693,288.76503149456L63.69230769230769,293.19647153167597L66.46153846153847,294.17218204584367L69.23076923076924,294.95793386812755L72,297.42362066120245L74.76923076923077,297.8237827095064L77.53846153846155,298.07965860597443L80.3076923076923,298.12192985796423L83.07692307692308,298.6196396379566L85.84615384615385,298.39816933638446L88.61538461538461,133.70680820873952L91.38461538461539,144.70764020320752L94.15384615384616,152.5984251968504L96.92307692307692,154.30183480219566L99.6923076923077,155.46536332143717L102.46153846153845,158.83675503288816L105.23076923076924,164.67782899970285L108,166.64914856410786L110.76923076923077,171.05469224515733L113.53846153846153,181.17279753296873L116.30769230769232,186.89498738059487L119.07692307692308,191.88175721910497L121.84615384615385,196.81472182052212L124.61538461538461,203.97273804820227L127.38461538461539,209.89068193649135L130.15384615384616,217.0373967945605L132.92307692307693,221.65675057208236L135.69230769230768,232.9411764705882L138.46153846153848,235.98086124401914L141.23076923076923,242.68456375838926L144,243.9737367970311L146.76923076923077,252.19421597240648L149.53846153846155,258.5647716682199L152.3076923076923,262.75436430964555L155.0769230769231,260.7943229941627L157.84615384615384,273.11639549436796L160.6153846153846,277.4148988653182L163.3846153846154,280.65696855936176L166.15384615384616,277.6762041255054L168.92307692307693,283.09679907443115L171.6923076923077,287.17282991269366L174.46153846153845,288.67486818980666L177.23076923076923,128.37641755300422L180,146.8392441107947L182.76923076923077,149.85628071921855L185.53846153846152,158.22965099170145L188.30769230769232,163.50758853288366L191.07692307692307,169.32246998284734L193.84615384615384,175.02965841685412L196.61538461538458,180.647400097598L199.3846153846154,182.52174824441877L202.15384615384616,191.6940106740462L204.9230769230769,193.39772401262312L207.69230769230768,199.4293787885693L210.46153846153848,202.72703342984994L213.23076923076923,207.65335684595033L216,211.80623841379867L218.76923076923075,215.81049698095677L221.53846153846155,221.31736526946105L224.30769230769232,223.0664463875569L227.07692307692307,226.3700943286363L229.84615384615384,235.2521300325447L232.61538461538464,233.05688655114025L235.3846153846154,235.41614387285654L238.15384615384616,238.17386034610465L240.9230769230769,240.843420538852L243.6923076923077,243.30174720604435L246.46153846153845,247.5051831375259L249.23076923076923,250.16670564260178L251.99999999999997,252.82336219149758L254.76923076923077,252.6555530952456L257.53846153846155,255.7845561967573L260.3076923076923,256.9624167459562L263.07692307692304,260.1715974633418L265.84615384615387,176.9962376707453L268.61538461538464,183.4876693634857L271.38461538461536,185.0690310322989L274.15384615384613,189.78886756237998L276.92307692307696,189.48190254425919L279.6923076923077,197.55997258396158L282.46153846153845,200.7354197651973L285.2307692307692,204.2052350885797L288,197.3338263843949L290.7692307692308,209.6747144715917L293.53846153846155,212.01719555015913L296.3076923076923,214.5736434108527L299.0769230769231,215.07204701028354L301.84615384615387,221.10661268556L304.6153846153846,222.44279729294232L307.38461538461536,226.50845345642998L310.1538461538462,225.23107892750303L312.9230769230769,231.9432587695369L315.6923076923077,233.9414414414414L318.46153846153845,236.98324022346367L321.2307692307692,235.67223739086077L324,241.38956100933282L326.7692307692308,240.75817271856033L329.53846153846155,242.4865726463148L332.3076923076923,238.41103677770457L335.0769230769231,250.3975891902401L337.84615384615387,251.31536336793982L340.6153846153846,253.3261775998018L343.3846153846154,251.73246062589487L346.1538461538462,256.1105626850938L348.9230769230769,255.480551874659L351.6923076923077,257.9572013962665L354.46153846153845,190.63730358081665L357.2307692307692,183.23836489116965L360,181.8035370337944L362.7692307692308,182.7163323782235L365.53846153846155,183.88361796331432L368.30769230769226,186.4424693730483L371.07692307692304,187.49848413393516L373.84615384615387,190.21012133767388L376.61538461538464,189.80076578622882L379.3846153846154,194.36593119511502L382.15384615384613,195.88068298703973L384.9230769230769,199.64142788538499L387.6923076923077,199.96689916065725L390.46153846153845,204.03537654580953L393.23076923076917,206.74342105263153L396.00000000000006,209.05263157894734L398.7692307692308,215.50089728702628L401.53846153846155,215.87024329382405L404.3076923076923,220.11705348133196L407.0769230769231,220.20101502637078L409.8461538461538,221.830243902439L412.6153846153846,224.0595476667621L415.38461538461536,223.65745543714038L418.1538461538462,227.06217283497105L420.92307692307696,228.87789075857103L423.6923076923077,236.90482331699764L426.46153846153845,236.92464358452133L429.2307692307692,238.32083958020985L432,237.96425924400887L434.7692307692307,241.7480390587482L437.5384615384615,243.44632768361583L440.3076923076923,246.9618320610687L443.0769230769231,203.80271622587563L445.84615384615387,198.33693304535635L448.61538461538464,198.18569903948767L451.38461538461536,200.44967320261438L454.15384615384613,197.70842388942015L456.9230769230769,201.9759769920487L459.6923076923077,201.66666666666663L462.4615384615385,204.82876992235393L465.2307692307693,199.46974063400575L468,208.51405622489958L470.7692307692308,209.35060904647375L473.53846153846155,213.52661381653454L476.3076923076923,211.6055321707757L479.07692307692304,216.42904049616928L481.8461538461538,217.04663212435233L484.61538461538464,221.21271530597954L487.3846153846154,222.3325062034739L490.1538461538462,225.93642900342718L492.9230769230769,227.2440007932835L495.6923076923077,231.5805705474171L498.46153846153845,228.72421106754933L501.2307692307692,233.33582927742412L503.99999999999994,231.64854284471505L506.76923076923083,235.48320726172466L509.53846153846155,231.92517915705088L512.3076923076924,245.33303023414405L515.0769230769231,243.98982188295167L517.8461538461538,246.25000000000003L520.6153846153846,243.42229373578203L523.3846153846154,248.99324541653266L526.1538461538461,248.4109763880026L528.9230769230769,251.40719962599343L531.6923076923077,208.6103143118706L534.4615384615385,206.7173529590657L537.2307692307693,195.97322154789458L540,208.35820895522386L542.7692307692307,206.44704215373713L545.5384615384615,218.65326633165824L548.3076923076923,209.0406876790831L551.0769230769231,210.8385933273219L553.8461538461539,206.87124900917226L556.6153846153846,210.26407573492773L559.3846153846154,213.9432278994323L562.1538461538462,216.94140066698426L564.9230769230769,220.30221486234728L567.6923076923076,221.94928200427745L570.4615384615385,223.03018128860546L573.2307692307692,228.13688212927755L576,225.59180687637163L578.7692307692308,218.1525305757184L581.5384615384615,232.04252937884723L584.3076923076923,220.99686369119416L587.0769230769231,223.04248861911984L589.8461538461538,237.55329994237837L592.6153846153846,235.09226401703333L595.3846153846154,241.57104351174434L598.1538461538462,241.88976377952756L600.9230769230769,232.50817456511314L603.6923076923077,235.45140222819822L606.4615384615385,250.71700507614213L609.2307692307692,254.9074074074074L612,237.5089583590757L614.7692307692307,251.7390302005687L617.5384615384615,251.55226952246653L620.3076923076924,218.36303858799096L623.0769230769231,221.51734654975218L625.8461538461538,220.21015318394728L628.6153846153846,203.55025371672747L631.3846153846154,219.80730897009965L634.1538461538462,222.31898238747556L636.9230769230769,226.93974755894257L639.6923076923076,225.47670875054416L642.4615384615385,217.82555977689756L645.2307692307693,227.28108463053803L648,228.1662405068122L650.7692307692308,230.9561052277065L653.5384615384615,227.23808089176768L656.3076923076923,235.50065019505854L659.0769230769231,238.89795485853554L661.8461538461538,240.80897939326545L664.6153846153846,236.9066965536565L667.3846153846154,246.03349714171094L670.1538461538462,241.5167286245353L672.9230769230769,246.30624712605925L675.6923076923077,248.78746857474368L678.4615384615385,249.5660485566813L681.2307692307692,251.67872240488487L684,258.1852198316183L686.7692307692308,252.00664574487723L689.5384615384615,261.27836500453844L692.3076923076924,263.0783856192204L695.0769230769231,267.5310715485387L697.8461538461538,263.547784756408L700.6153846153846,269.4947178773237L703.3846153846154,265.2987486533521L706.1538461538461,269.6398936598727L708.9230769230769,250.71963756752044" style="fill: none; stroke: #4c78a8; stroke-width: 2;"></path></g></g></g><g transform="translate(0,0)"><path class="background" d="M0,0h720v480h-720Z" style="fill: none;"></path><g><g class="mark-line role-mark marks"><path d="M5.538461538461538,396.7307247047928L8.307692307692308,361.26774513040607L11.076923076923077,334.2711121927476L13.846153846153847,318.04146528750164L16.615384615384617,305.626760318509L19.384615384615387,299.0783260055365L22.153846153846153,316.3195753356156L24.923076923076923,315.22768045177287L27.692307692307693,301.7630126128131L30.461538461538463,306.58060965963153L33.23076923076923,305.91966722994925L36,308.41338795155133L38.769230769230774,310.51269043839693L41.53846153846154,315.62105263157895L44.30769230769231,211.73582700175336L47.07692307692308,231.8696456664031L49.84615384615385,236.7371975686306L52.61538461538462,245.25826266444506L55.38461538461539,248.49883352547636L58.15384615384616,249.43454166454825L60.92307692307693,252.74753727917894L63.69230769230769,256.0526315789474L66.46153846153847,165.2118766215047L69.23076923076924,190.57002509099905L72,195.32802485919595L74.76923076923077,208.84242416045655L77.53846153846155,209.07644802096004L80.3076923076923,218.62100045065344L83.07692307692308,224.60471567267683L85.84615384615385,236.08607935440486L88.61538461538461,145.02127659574467L91.38461538461539,170.56179775280893L94.15384615384616,175.08453895764336L96.92307692307692,180.80587282383578L99.6923076923077,182.1614906832298L102.46153846153845,192.6994938566617L105.23076923076924,199.0206142196045L108,199.5213078688338L110.76923076923077,119.37423851064862L113.53846153846153,156.61068104966043L116.30769230769232,155.83913965465004L119.07692307692308,163.82365796883417L121.84615384615385,165.96697983324705L124.61538461538461,178.85122048582875L127.38461538461539,182.99107049934435L130.15384615384616,186.32283659806598L132.92307692307693,111.4255006876148L135.69230769230768,145.0328904940023L138.46153846153848,146.3536965805494L141.23076923076923,157.96458258041196L144,158.1313868613138L146.76923076923077,168.5180482495918L149.53846153846155,176.80986814121647L152.3076923076923,179.70750731231715L155.0769230769231,111.26684636118596L157.84615384615384,142.48085758039815L160.6153846153846,145.98340653977553L163.3846153846154,153.30616011689602L166.15384615384616,152.6540955504211L168.92307692307693,161.80607165392973L171.6923076923077,166.47491638795987L174.46153846153845,170.93580325774514L177.23076923076923,114.31250457841914L180,150.54908485856896L182.76923076923077,149.83573917371825L185.53846153846152,153.50253807106597L188.30769230769232,168.65295288652953L191.07692307692307,175.38024911967204L193.84615384615384,180.88770750789908L196.61538461538458,183.46116661295517L199.3846153846154,148.77428841508245L202.15384615384616,160.87955365933703L204.9230769230769,164.6590909090909L207.69230769230768,171.36669006317052L210.46153846153848,184.18160542944068L213.23076923076923,196.33882888004547L216,199.7439568769477L218.76923076923075,202.87454323995127L221.53846153846155,156.7184035476718L224.30769230769232,182.18956283472414L227.07692307692307,183.69331237150806L229.84615384615384,189.835838150289L232.61538461538464,191.80625630676084L235.3846153846154,203.66213821618425L238.15384615384616,204.2823691988791L240.9230769230769,208.82116370881448L243.6923076923077,159.46644435181324L246.46153846153845,186.5598168288494L249.23076923076923,187.67400356930398L251.99999999999997,192.6624003432126L254.76923076923077,189.48395996180093L257.53846153846155,201.9705151565347L260.3076923076923,203.1365456659346L263.07692307692304,207.03367183324423L265.84615384615387,161.53895479320292L268.61538461538464,182.4629128492713L271.38461538461536,182.18328323847282L274.15384615384613,187.6566125290023L276.92307692307696,182.04396993748685L279.6923076923077,191.79377872510494L282.46153846153845,194.64933553205933L285.2307692307692,198.23767026773132L288,154.86176095278603L290.7692307692308,178.76272715556124L293.53846153846155,179.9848847461897L296.3076923076923,184.88143013498723L299.0769230769231,178.43000914913088L301.84615384615387,189.52614426210596L304.6153846153846,190.10057708161585L307.38461538461536,194.03341746270087L310.1538461538462,161.09431245500363L312.9230769230769,176.31851221269068L315.6923076923077,177.75216138328528L318.46153846153845,181.32470924808754L321.2307692307692,176.17759537356585L324,186.662732021129L326.7692307692308,187.96533795493932L329.53846153846155,191.81433416486817L332.3076923076923,157.3930753564154L335.0769230769231,179.9678193366267L337.84615384615387,179.46927467538964L340.6153846153846,183.37428284334376L343.3846153846154,177.02892885066453L346.1538461538462,187.0130836485397L348.9230769230769,190.43218626534366L351.6923076923077,192.85070804015663L354.46153846153845,180.07265681763135L357.2307692307692,184.44131124427207L360,181.66423357664226L362.7692307692308,185.01954652071933L365.53846153846155,178.09979650912834L368.30769230769226,188.12514927155482L371.07692307692304,190.6564478507164L373.84615384615387,191.670211025683L376.61538461538464,165.23703938338085L379.3846153846154,181.9743842364532L382.15384615384613,181.91142191142194L384.9230769230769,185.4490413723511L387.6923076923077,177.90530846484933L390.46153846153845,189.1117478510028L393.23076923076917,190.88946015424165L396.00000000000006,190.65105386416857L398.7692307692308,172.48895434462446L401.53846153846155,182.8192630142328L404.3076923076923,181.90516609437088L407.0769230769231,183.94405594405595L409.8461538461538,182.45792886323596L412.6153846153846,196.67018804141136L415.38461538461536,197.02238417490886L418.1538461538462,200.12600345493343L420.92307692307696,169.26400178153875L423.6923076923077,187.9090909090909L426.46153846153845,189.64014191586412L429.2307692307692,193.22395730381493L432,188.2838709677419L434.7692307692307,196.63779152784383L437.5384615384615,200.63386155129277L440.3076923076923,204.00325467860046L443.0769230769231,189.74647887323943L445.84615384615387,193.93474088291748L448.61538461538464,193.497287522604L451.38461538461536,197.61971830985914L454.15384615384613,190.7686826400641L456.9230769230769,200.27234042553187L459.6923076923077,199.9326485940394L462.4615384615385,203.3590797041906L465.2307692307693,176.99039487726785L468,193.106432553882L470.7692307692308,192.3206333498268L473.53846153846155,198.7248963978323L476.3076923076923,190.074699577785L479.07692307692304,197.3299945222631L481.8461538461538,199.11753401491274L484.61538461538464,201.35102533172494L487.3846153846154,183.52605281941467L490.1538461538462,192.66757865937075L492.9230769230769,193.66434509099082L495.6923076923077,197.09958293700151L498.46153846153845,191.38343422412518L501.2307692307692,199.64255319148936L503.99999999999994,201.21093749999994L506.76923076923083,203.67913560828836L509.53846153846155,182.94524034615665L512.3076923076924,200.62246278755075L515.0769230769231,200.06438631790746L517.8461538461538,201.2053925455987L520.6153846153846,196.55653792461607L523.3846153846154,205.02073894454725L526.1538461538461,206.0787520442823L528.9230769230769,208.72395512267292L531.6923076923077,197.3275697667027L534.4615384615385,202.99383477188655L537.2307692307693,192.8834355828221L540,205.89050920392057L542.7692307692307,198.86171955585218L545.5384615384615,215.95532238957523L548.3076923076923,206.7702976018492L551.0769230769231,208.867442520579L553.8461538461539,189.86948938473566L556.6153846153846,200.4039940319063L559.3846153846154,202.7607189137416L562.1538461538462,205.62720848056534L564.9230769230769,207.02349869451692L567.6923076923076,211.07620462746763L570.4615384615385,209.9002375296912L573.2307692307692,216.5665629939326L576,196.24020887728454L578.7692307692308,191.40821917808216L581.5384615384615,204.62582215547152L584.3076923076923,192.55006961550816L587.0769230769231,191.27877237851658L589.8461538461538,216.74848397343342L592.6153846153846,214.90181015028568L595.3846153846154,222.0238866771595L598.1538461538462,202.25371586588318L600.9230769230769,195.22423999197346L603.6923076923077,199.2610378791591L606.4615384615385,219.77855792600593L609.2307692307692,225.3783713013878L612,200.98763091796596L614.7692307692307,222.16744064927735L617.5384615384615,219.46016429782233L620.3076923076924,205.56493329703238L623.0769230769231,214.19871934486213L625.8461538461538,215.3634526931178L628.6153846153846,202.30181086519116L631.3846153846154,212.36052968816747L634.1538461538462,221.02028272894898L636.9230769230769,222.20209453722052L639.6923076923076,221.75641488977226L642.4615384615385,202.51700389271502L645.2307692307693,216.25831418551212L648,221.49723821835704L650.7692307692308,223.9913832897369L653.5384615384615,222.2983298137838L656.3076923076923,229.13012860902117L659.0769230769231,228.77291129922705L661.8461538461538,226.643109540636L664.6153846153846,212.1912258363236L667.3846153846154,225.5687643145381L670.1538461538462,222.55882674838563L672.9230769230769,225.70070409950318L675.6923076923077,227.4618038442582L678.4615384615385,236.32896465752498L681.2307692307692,231.87368134485806L684,242.00479181506185L686.7692307692308,224.6681827579078L689.5384615384615,234.41365026136697L692.3076923076924,236.1844320683849L695.0769230769231,239.612351543943L697.8461538461538,227.4593167189305L700.6153846153846,240.08213552361394L703.3846153846154,243.15212091662602L706.1538461538461,241.14888556880203L708.9230769230769,242.07576168520018" style="fill: none; stroke: #f58518; stroke-width: 2;"></path></g></g></g><g transform="translate(0,0)"><path class="background" d="M0,0h720v480h-720Z" style="fill: none;"></path><g><g class="mark-line role-mark marks"><path d="M5.538461538461538,424.9927275510985L8.307692307692308,398.99898545823464L11.076923076923077,372.34372185191853L13.846153846153847,347.50998668442077L16.615384615384617,320.6463515490807L19.384615384615387,295.7479270315091L22.153846153846153,263.5248906530478L24.923076923076923,321.4249608857865L27.692307692307693,291.6383221614027L30.461538461538463,273.64751071059237L33.23076923076923,257.8240078876017L36,236.9749892445612L38.769230769230774,220.92256250474958L41.53846153846154,213.91879675345956L44.30769230769231,172.90676122169396L47.07692307692308,246.55922050954393L49.84615384615385,232.70470053070503L52.61538461538462,220.83536219053337L55.38461538461539,206.9912497195423L58.15384615384616,196.98939580764485L60.92307692307693,183.10719570060715L63.69230769230769,170.65176975012668L66.46153846153847,146.26256863723881L69.23076923076924,213.23598355301078L72,200.9789437711942L74.76923076923077,198.32094027344684L77.53846153846155,177.36689254598258L80.3076923076923,171.0783532177649L83.07692307692308,158.61448203809366L85.84615384615385,149.80291186112254L88.61538461538461,133.02757849009407L91.38461538461539,203.25206337159665L94.15384615384616,197.36401673640162L96.92307692307692,199.95884168749083L99.6923076923077,179.6142509544816L102.46153846153845,192.97986957754463L105.23076923076924,182.63104497801822L108,184.9301423268481L110.76923076923077,146.189219751225L113.53846153846153,179.13806491691253L116.30769230769232,171.49568002530688L119.07692307692308,173.9154803987134L121.84615384615385,163.2L124.61538461538461,166.73092514187908L127.38461538461539,159.29442484513453L130.15384615384616,162.85699071691013L132.92307692307693,133.10501021930068L135.69230769230768,159.02035998819707L138.46153846153848,155.26530612244892L141.23076923076923,161.6152796725784L144,150.59760956175296L146.76923076923077,164.33823529411762L149.53846153846155,161.58670597694982L152.3076923076923,168.23281315900456L155.0769230769231,132.03488372093022L157.84615384615384,169.38302536799247L160.6153846153846,159.66300023402763L163.3846153846154,169.4055713972362L166.15384615384616,149.42646394701188L168.92307692307693,174.73330194390257L171.6923076923077,171.26597286260045L174.46153846153845,181.46233109150364L177.23076923076923,124.21637802009833L180,193.3630289532294L182.76923076923077,193.44637649854195L185.53846153846152,198.89557303717416L188.30769230769232,185.61539265920737L191.07692307692307,201.95511966313094L193.84615384615384,191.40383891607075L196.61538461538458,195.20891364902505L199.3846153846154,175.20618556701032L202.15384615384616,206.41688159437282L204.9230769230769,199.99813145232866L207.69230769230768,201.2335280532536L210.46153846153848,189.27089562537373L213.23076923076923,199.93955355986353L216,196.50862619808305L218.76923076923075,198.39260665071376L221.53846153846155,184.18463099163068L224.30769230769232,196.12014721595625L227.07692307692307,194.0336134453781L229.84615384615384,195.4285714285714L232.61538461538464,187.9865187260954L235.3846153846154,193.70757180156656L238.15384615384616,193.13870362234908L240.9230769230769,194.25061234011113L243.6923076923077,180.84271674690643L246.46153846153845,192.74235122716573L249.23076923076923,190.1739899734591L251.99999999999997,191.99311975919156L254.76923076923077,185.97938144329896L257.53846153846155,191.5644762166621L260.3076923076923,188.14012868961288L263.07692307692304,191.18295177145876L265.84615384615387,165.23925213900918L268.61538461538464,177.040037182126L271.38461538461536,172.35606936416178L274.15384615384613,174.7976878612716L276.92307692307696,160.73756997036548L279.6923076923077,171.47991015722485L282.46153846153845,167.7749867327083L285.2307692307692,169.81764280051019L288,152.35319331333045L290.7692307692308,168.7956860395446L293.53846153846155,167.06585646247333L296.3076923076923,167.6354743210194L299.0769230769231,161.0887864030703L301.84615384615387,168.00223041417547L304.6153846153846,167.09500274574413L307.38461538461536,169.64336661911557L310.1538461538462,160.34638282518495L312.9230769230769,167.30299089726915L315.6923076923077,168.42383231556363L318.46153846153845,169.9076644928004L321.2307692307692,163.42112936145395L324,170.7758352516643L326.7692307692308,168.65703815477477L329.53846153846155,172.747213340107L332.3076923076923,159.04706351886523L335.0769230769231,174.91245192031687L337.84615384615387,173.34657849175488L340.6153846153846,176.26605595937468L343.3846153846154,168.9736129226447L346.1538461538462,177.57096681281405L348.9230769230769,175.07415758884622L351.6923076923077,178.0029104870421L354.46153846153845,173.3230150131558L357.2307692307692,180.4019651630192L360,177.97824544809643L362.7692307692308,179.03402662953619L365.53846153846155,175.49028677150778L368.30769230769226,180.1661350811398L371.07692307692304,181.0946643717728L373.84615384615387,181.27114335107285L376.61538461538464,172.69972167817747L379.3846153846154,182.74558616397522L382.15384615384613,181.77625186240854L384.9230769230769,182.20932827493866L387.6923076923077,180.44576523031202L390.46153846153845,184.8232933371555L393.23076923076917,184.94995156603161L396.00000000000006,184.52708358244647L398.7692307692308,184.76040848389633L401.53846153846155,186.5044094427542L404.3076923076923,187.26983405319388L407.0769230769231,186.2646264626463L409.8461538461538,184.3417377378869L412.6153846153846,186.43607705779334L415.38461538461536,186.5745438842707L418.1538461538462,186.58996484499843L420.92307692307696,176.95732435660761L423.6923076923077,185.4136278391331L426.46153846153845,186.1551087402544L429.2307692307692,187.64735516372795L432,183.00727566693612L434.7692307692307,186.2060797473352L437.5384615384615,187.74212312166748L440.3076923076923,188.75787063537496L443.0769230769231,189.8009763424709L445.84615384615387,186.58666916658854L448.61538461538464,185.18049869743203L451.38461538461536,186.88596491228068L454.15384615384613,180.49806308799117L456.9230769230769,185.80021482277124L459.6923076923077,184.66619318181816L462.4615384615385,186.0660031430068L465.2307692307693,179.74090067859342L468,186.53728294177733L470.7692307692308,183.8709677419355L473.53846153846155,187.31901484368518L476.3076923076923,183.8221632382216L479.07692307692304,186.96519834509613L481.8461538461538,186.43528561099058L484.61538461538464,187.91844476054996L487.3846153846154,188.61018006079973L490.1538461538462,187.6461490875348L492.9230769230769,188.42370167009835L495.6923076923077,192.94082708441604L498.46153846153845,186.19974449537833L501.2307692307692,188.69270449521L503.99999999999994,189.6672962371059L506.76923076923083,190.51440034388878L509.53846153846155,184.5779995660664L512.3076923076924,194.0839218944744L515.0769230769231,193.47291823985722L517.8461538461538,193.16834375849876L520.6153846153846,190.12033448908826L523.3846153846154,195.63943513263825L526.1538461538461,194.94403351443347L528.9230769230769,196.63618802318086L531.6923076923077,195.61013046815046L534.4615384615385,197.2766171658696L537.2307692307693,186.74418604651163L540,198.98780711966174L542.7692307692307,195.04059040590406L545.5384615384615,207.65927736079593L548.3076923076923,198.89179548156957L551.0769230769231,200.86499123319695L553.8461538461539,194.57310218330272L556.6153846153846,197.8293855330978L559.3846153846154,201.8360655737705L562.1538461538462,201.98937062937065L564.9230769230769,202.41827534708779L567.6923076923076,205.49699366231516L570.4615384615385,204.47555459832003L573.2307692307692,208.1532147742818L576,203.48987596734864L578.7692307692308,190.75841616782913L581.5384615384615,204.71136422469587L584.3076923076923,190.98691649168146L587.0769230769231,191.34029405497546L589.8461538461538,208.73239436619716L592.6153846153846,207.01112484548824L595.3846153846154,212.62965983783522L598.1538461538462,205.9615103532278L600.9230769230769,191.9585954942155L603.6923076923077,194.63239689181108L606.4615384615385,212.43243243243242L609.2307692307692,220.91211865535766L612,192.4150058616647L614.7692307692307,213.55220667384282L617.5384615384615,208.32487309644665L620.3076923076924,207.62891240711548L623.0769230769231,209.34131736526945L625.8461538461538,207.81678309311167L628.6153846153846,195.6393938006501L631.3846153846154,207.0317605541759L634.1538461538462,211.40113042369637L636.9230769230769,225.05758157389633L639.6923076923076,214.29846306395638L642.4615384615385,207.04733852303806L645.2307692307693,210.94378418390423L648,213.38181818181815L650.7692307692308,215.0109496316942L653.5384615384615,217.24397118697146L656.3076923076923,224.08408635487166L659.0769230769231,219.8887279932932L661.8461538461538,219.71639251276233L664.6153846153846,215.4273080734924L667.3846153846154,222.93333333333334L670.1538461538462,224.21052631578945L672.9230769230769,222.08721499256893L675.6923076923077,226.03129646675632L678.4615384615385,226.60500315324785L681.2307692307692,224.48275862068965L684,226.87603305785126L686.7692307692308,223.9624075737682L689.5384615384615,226.6680231966629L692.3076923076924,225.12591389114536L695.0769230769231,228.85881613340828L697.8461538461538,226.58938094134012L700.6153846153846,233.3680877602584L703.3846153846154,232.6603869653768L706.1538461538461,232.43031413943493L708.9230769230769,242.2119149448828" style="fill: none; stroke: #54a24b; stroke-width: 2;"></path></g></g></g><g transform="translate(0,0)"><path class="background" d="M0,0h720v480h-720Z" style="fill: none;"></path><g><g class="mark-line role-mark marks"><path d="M5.538461538461538,398.8629441624365L8.307692307692308,355.19000520562207L11.076923076923077,326.18546108399687L13.846153846153847,306.32342978805764L16.615384615384617,291.74969030369004L19.384615384615387,281.0031908865893L22.153846153846153,273.2425383946682L24.923076923076923,269.8318465303544L27.692307692307693,285.7096321766276L30.461538461538463,282.16878051300597L33.23076923076923,279.8468087018048L36,281.8625954198473L38.769230769230774,276.20684065488734L41.53846153846154,276.3954993527831L44.30769230769231,276.24851703518505L47.07692307692308,276.29747036074303L49.84615384615385,274.50888759075355L52.61538461538462,274.7570621468926L55.38461538461539,274.3050890026057L58.15384615384616,276.1985801926021L60.92307692307693,276.43489221253424L63.69230769230769,279.61700001350493L66.46153846153847,283.0343077655019L69.23076923076924,285.5129595691364L72,286.58286562456516L74.76923076923077,289.8519976045855L77.53846153846155,291.09033261304194L80.3076923076923,293.816313029138L83.07692307692308,292.5812716372541L85.84615384615385,292.1956670767324L88.61538461538461,256.2448499117128L91.38461538461539,312.39479199745955L94.15384615384616,297.5582749852825L96.92307692307692,293.25955933208184L99.6923076923077,259.15304321516817L102.46153846153845,276.7830276392528L105.23076923076924,260.6851192107427L108,265.01677762026947L110.76923076923077,283.1835986332194L113.53846153846153,271.78537691290387L116.30769230769232,274.8892674616695L119.07692307692308,276.57736761938895L121.84615384615385,285.3735255570118L124.61538461538461,281.0890454836643L127.38461538461539,285.1959753716774L130.15384615384616,285.32144398101536L132.92307692307693,299.0653247003013L135.69230769230768,290.5548037889039L138.46153846153848,293.9704541309502L141.23076923076923,299.41780627588946L144,303.3993698937363L146.76923076923077,304.40820082826326L149.53846153846155,304.99386201816844L152.3076923076923,303.54251763832156L155.0769230769231,311.25165206324345L157.84615384615384,305.3189823874755L160.6153846153846,308.820750347383L163.3846153846154,309.564907275321L166.15384615384616,312.33085896076346L168.92307692307693,313.6092553364836L171.6923076923077,315.1319029194513L174.46153846153845,317.28570360959566L177.23076923076923,196.86234473370766L180,298.94490035169986L182.76923076923077,278.98307938378645L185.53846153846152,282.5410329467474L188.30769230769232,217.38805970149255L191.07692307692307,257.8648383937316L193.84615384615384,228.34263209714464L196.61538461538458,232.54538120209756L199.3846153846154,237.3012954807816L202.15384615384616,245.65874035989714L204.9230769230769,250.62605234960967L207.69230769230768,254.05028445586345L210.46153846153848,260.9606986899563L213.23076923076923,258.8071611253197L216,261.6184288245717L218.76923076923075,263.6388274730761L221.53846153846155,271.3743376484003L224.30769230769232,267.3496748374187L227.07692307692307,270.08674420098953L229.84615384615384,270.1909031064857L232.61538461538464,277.0509859655356L235.3846153846154,277.20849588209796L238.15384615384616,281.65120242378333L240.9230769230769,279.7309417040359L243.6923076923077,282.40043251036224L246.46153846153845,286.3825501424419L249.23076923076923,291.26443718965186L251.99999999999997,288.6504135829343L254.76923076923077,296.56355283307806L257.53846153846155,294.5534898794968L260.3076923076923,296.33387608192646L263.07692307692304,291.5486166915394L265.84615384615387,214.50387573876625L268.61538461538464,277.59515008132485L271.38461538461536,263.2589558788329L274.15384615384613,262.0716644246056L276.92307692307696,218.5032671680434L279.6923076923077,244.19847952260275L282.46153846153845,223.2715636363636L285.2307692307692,224.85113140134976L288,234.03097137494134L290.7692307692308,229.53250997937153L293.53846153846155,231.8388184884675L296.3076923076923,232.07628128724667L299.0769230769231,237.791621420815L301.84615384615387,237.52605117546273L304.6153846153846,239.53390410022158L307.38461538461536,241.08898734852932L310.1538461538462,250.37798609011188L312.9230769230769,246.45414715213775L315.6923076923077,250.40280210157619L318.46153846153845,253.06492770059538L321.2307692307692,254.68249356686312L324,258.6095613536899L326.7692307692308,259.9131428571428L329.53846153846155,264.1677687511808L332.3076923076923,267.29170481596776L335.0769230769231,267.09933297277803L337.84615384615387,267.20762595028947L340.6153846153846,268.73720661793L343.3846153846154,269.99661284859434L346.1538461538462,271.1756040070713L348.9230769230769,272.1893149597778L351.6923076923077,273.3778201461709L354.46153846153845,216.08071659285403L357.2307692307692,261.8300086730269L360,250.0030012004802L362.7692307692308,247.88396286214993L365.53846153846155,213.77310207563255L368.30769230769226,234.26404688038608L371.07692307692304,217.50906892382102L373.84615384615387,218.61668050777078L376.61538461538464,224.57273419649658L379.3846153846154,222.5517267466051L382.15384615384613,224.93905592080964L384.9230769230769,225.65785652047637L387.6923076923077,227.71371769383694L390.46153846153845,228.493666910918L393.23076923076917,231.76039119804398L396.00000000000006,230.9283338373148L398.7692307692308,239.40080660649127L401.53846153846155,235.98885793871867L404.3076923076923,242.14998152936832L407.0769230769231,243.60738862730895L409.8461538461538,246.27450980392155L412.6153846153846,248.97234903953827L415.38461538461536,251.84588264920671L418.1538461538462,254.00180520226473L420.92307692307696,255.53929059760316L423.6923076923077,256.0443564356436L426.46153846153845,263.5575034003325L429.2307692307692,258.09727745487913L432,260.63591580832957L434.7692307692307,260.8495914010159L437.5384615384615,263.4154752496587L440.3076923076923,264.28490672696444L443.0769230769231,219.16125221500295L445.84615384615387,254.2795326698399L448.61538461538464,243.79276928811035L451.38461538461536,242.87403903015965L454.15384615384613,215.1386623164763L456.9230769230769,233.1505820503192L459.6923076923077,218.51281245087247L462.4615384615385,219.80060282865753L465.2307692307693,223.07819923082724L468,223.08070646098815L470.7692307692308,224.27094787772154L473.53846153846155,228.686983765309L476.3076923076923,226.541737649063L479.07692307692304,226.8292682926829L481.8461538461538,230.29043941775436L484.61538461538464,230.152098965727L487.3846153846154,238.4492116826053L490.1538461538462,235.16642921901305L492.9230769230769,239.81908411332373L495.6923076923077,244.4162807701682L498.46153846153845,246.39579349904395L501.2307692307692,248.54382575092214L503.99999999999994,252.48704958160184L506.76923076923083,253.82367758186393L509.53846153846155,252.12986723195365L512.3076923076924,256.60679506600303L515.0769230769231,255.12849523193796L517.8461538461538,258.70751154007553L520.6153846153846,258.6627906976744L523.3846153846154,258.21924858466286L526.1538461538461,262.4992508240935L528.9230769230769,262.0062416406598L531.6923076923077,220.91242789722077L534.4615384615385,254.44578313253004L537.2307692307693,235.72535514421003L540,244.72760849492147L542.7692307692307,222.75816122584945L545.5384615384615,240.18444512757452L548.3076923076923,225.32801895938815L551.0769230769231,226.46990126340376L553.8461538461539,229.46767073487408L556.6153846153846,225.38879598662209L559.3846153846154,230.25529107242556L562.1538461538462,232.678047081073L564.9230769230769,233.3107211325763L567.6923076923076,237.9364700262718L570.4615384615385,234.98970553028488L573.2307692307692,238.50806263145594L576,240.5508124483613L578.7692307692308,226.43493332049493L581.5384615384615,242.61440242867985L584.3076923076923,232.2573498869248L587.0769230769231,234.70915757548318L589.8461538461538,251.69998747860927L592.6153846153846,252.40611731728433L595.3846153846154,254.39883410250178L598.1538461538462,255.93753734613392L600.9230769230769,243.42071264846842L603.6923076923077,246.75189316830878L606.4615384615385,260.00837106654996L609.2307692307692,264.9703313308517L612,247.680530344882L614.7692307692307,263.05872042068364L617.5384615384615,262.21770091556454L620.3076923076924,229.21214131696797L623.0769230769231,254.00837006036818L625.8461538461538,246.224652540442L628.6153846153846,234.0308910891089L631.3846153846154,228.20399469517338L634.1538461538462,239.22285714285715L636.9230769230769,242.1133539793291L639.6923076923076,233.92056325093745L642.4615384615385,235.20887580663418L645.2307692307693,232.65991229396639L648,237.39705882352945L650.7692307692308,237.9663235989381L653.5384615384615,238.03597822560292L656.3076923076923,240.57726999398676L659.0769230769231,240.9079127114785L661.8461538461538,241.08295730649078L664.6153846153846,249.26298992719651L667.3846153846154,246.15857529486453L670.1538461538462,263.4099628617906L672.9230769230769,252.5734377497203L675.6923076923077,255.86702493282507L678.4615384615385,256.0866873065016L681.2307692307692,259.2145344436033L684,259.3570463755065L686.7692307692308,264.1468103699388L689.5384615384615,264.8254407189768L692.3076923076924,264.53086101811317L695.0769230769231,267.54296590718246L697.8461538461538,265.0498693563341L700.6153846153846,270.2619196562135L703.3846153846154,271.7363344051447L706.1538461538461,270.1526922046611L708.9230769230769,257.81104888413586" style="fill: none; stroke: #eeca3b; stroke-width: 2;"></path></g></g></g><g transform="translate(0,0)"><path class="background" d="M0,0h720v480h-720Z" style="fill: none;"></path><g><g class="mark-line role-mark marks"><path d="M5.538461538461538,420.5701065851442L8.307692307692308,387.84738698300737L11.076923076923077,353.0946698488465L13.846153846153847,344.1535194174757L16.615384615384617,284.9487099782406L19.384615384615387,253.05773342836773L22.153846153846153,192.34726688102887L24.923076923076923,316.5333126982898L27.692307692307693,265.89993717138987L30.461538461538463,235.98558637944325L33.23076923076923,204.92555065416053L36,227.75138959070236L38.769230769230774,172.83819628647217L41.53846153846154,174.85721869539248L44.30769230769231,95.89665802221462L47.07692307692308,232.5707518275003L49.84615384615385,199.63456289734745L52.61538461538462,183.52395224053754L55.38461538461539,159.6790113549733L58.15384615384616,172.4670763827919L60.92307692307693,138.23550594166372L63.69230769230769,123.34229383490744L66.46153846153847,79.28125049692298L69.23076923076924,167.99316149395057L72,140.64752024829403L74.76923076923077,135.46487048117226L77.53846153846155,108.90158382649739L80.3076923076923,117.41729409080536L83.07692307692308,88.42595957444134L85.84615384615385,81.10761877548899L88.61538461538461,53.72732669348977L91.38461538461539,136.50445510623717L94.15384615384616,116.53539318728627L96.92307692307692,109.39813963748668L99.6923076923077,93.94115933585783L102.46153846153845,94.90997118155613L105.23076923076924,78.4820634450044L108,68.64944451880602L110.76923076923077,34.516977249342574L113.53846153846153,122.91334195790326L116.30769230769232,112.99240732469853L119.07692307692308,104.84505534067516L121.84615384615385,91.61053185692778L124.61538461538461,106.49736864088212L127.38461538461539,90.49065880961983L130.15384615384616,91.80092475174122L132.92307692307693,35.12544535432486L135.69230769230768,133.56831804908035L138.46153846153848,123.68623391985805L141.23076923076923,123.16060692814196L144,105.64618298178016L146.76923076923077,120.40834133147189L149.53846153846155,108.87300610593078L152.3076923076923,108.41823056300262L155.0769230769231,48.55940969588303L157.84615384615384,146.67786926566964L160.6153846153846,138.48303393213575L163.3846153846154,136.64403491755573L166.15384615384616,124.02658453558111L168.92307692307693,135.45095657455207L171.6923076923077,124.98977505112465L174.46153846153845,125.4345595778982L177.23076923076923,69.67614663817193L180,150.80189282516943L182.76923076923077,143.59832635983264L185.53846153846152,142.74751711800621L188.30769230769232,127.94597636465949L191.07692307692307,139.4194382418615L193.84615384615384,130.75832991743277L196.61538461538458,132.22518283349396L199.3846153846154,81.44075829383885L202.15384615384616,157.08197265733105L204.9230769230769,149.16878242631637L207.69230769230768,149.8487611283921L210.46153846153848,133.8795180722891L213.23076923076923,147.51345532831L216,139.87120515179387L218.76923076923075,141.6132070794705L221.53846153846155,97.5528717416252L224.30769230769232,160.8861604163886L227.07692307692307,153.87727938240377L229.84615384615384,155.79074273412266L232.61538461538464,141.61137440758293L235.3846153846154,153.02547111203148L238.15384615384616,146.3958384939311L240.9230769230769,148.45182244677005L243.6923076923077,112.77936962750715L246.46153846153845,167.05844050138364L249.23076923076923,162.58377069035117L251.99999999999997,162.46533127889055L254.76923076923077,147.18962722852513L257.53846153846155,161.26395746296998L260.3076923076923,153.46690028186177L263.07692307692304,156.82256099811744L265.84615384615387,140.99658703071674L268.61538461538464,171.509701845717L271.38461538461536,166.53720593679532L274.15384615384613,167.3787046478734L276.92307692307696,154.07307808665837L279.6923076923077,165.0945679169585L282.46153846153845,159.16528820460616L285.2307692307692,161.83303277819036L288,134.47593935398814L290.7692307692308,177.80852026633912L293.53846153846155,172.18183580498203L296.3076923076923,173.4941585096306L299.0769230769231,159.46580226904373L301.84615384615387,172.72355615217987L304.6153846153846,164.97097398408945L307.38461538461536,168.0394324122479L310.1538461538462,152.00296186597558L312.9230769230769,179.9048759180768L315.6923076923077,177.286896286319L318.46153846153845,176.932979931844L321.2307692307692,164.70815990707575L324,176.91374211055887L326.7692307692308,170.126582278481L329.53846153846155,174.50007428316746L332.3076923076923,149.5932492651939L335.0769230769231,186.7443631427342L337.84615384615387,180.8273799634491L340.6153846153846,183.93089391439383L343.3846153846154,169.40987876966238L346.1538461538462,183.49220294311442L348.9230769230769,175.02572898799312L351.6923076923077,178.88861447270926L354.46153846153845,181.62631008312252L357.2307692307692,191.05303965769752L360,185.59253176592614L362.7692307692308,186.98767959896918L365.53846153846155,175.3669963560645L368.30769230769226,186.30136986301372L371.07692307692304,179.9481668336846L373.84615384615387,184.33790720300604L376.61538461538464,162.80333392445468L379.3846153846154,194.3209721085437L382.15384615384613,188.50793047772817L384.9230769230769,192.15383351138144L387.6923076923077,177.83787231328526L390.46153846153845,190.54855031724355L393.23076923076917,186.02967788635536L396.00000000000006,188.0299330445057L398.7692307692308,176.42583094382297L401.53846153846155,197.48220640569394L404.3076923076923,193.00026002005868L407.0769230769231,193.83097665241698L409.8461538461538,183.14773959540813L412.6153846153846,192.94016911056406L415.38461538461536,187.4903142488162L418.1538461538462,192.3509138381201L420.92307692307696,171.36031851360318L423.6923076923077,197.67948077883173L426.46153846153845,194.50214292833653L429.2307692307692,197.3031956352299L432,183.72580645161287L434.7692307692307,196.34076615208687L437.5384615384615,190.6315991553081L440.3076923076923,195.86001489203278L443.0769230769231,207.62357916997087L445.84615384615387,203.0230088495575L448.61538461538464,197.58288770053474L451.38461538461536,201.80730205532907L454.15384615384613,190.04553978033752L456.9230769230769,198.57179553043926L459.6923076923077,196.20542569527385L462.4615384615385,199.88351776354105L465.2307692307693,177.55525965379488L468,206.16362192216042L470.7692307692308,200.50316481051195L473.53846153846155,205.57032890132956L476.3076923076923,191.1768988109682L479.07692307692304,202.71129193214094L481.8461538461538,198.03379890423645L484.61538461538464,203.06309006443877L487.3846153846154,192.0887245841035L490.1538461538462,207.51567567567568L492.9230769230769,205.26837680534598L495.6923076923077,209.1109087087508L498.46153846153845,194.1896337451568L501.2307692307692,208.8538308525962L503.99999999999994,203.3912381479687L506.76923076923083,206.05830508474577L509.53846153846155,185.26011977776176L512.3076923076924,213.97758020873596L515.0769230769231,210.2675455602947L517.8461538461538,208.24529760371036L520.6153846153846,197.02681178656752L523.3846153846154,210.1859620562269L526.1538461538461,208.3174246677896L528.9230769230769,209.20804873546243L531.6923076923077,222.17429118107498L534.4615384615385,215.2519003005126L537.2307692307693,202.1276856215951L540,216.94293088614856L542.7692307692307,202.03251544783728L545.5384615384615,226.75539685116047L548.3076923076923,207.2903449071404L551.0769230769231,212.81118881118877L553.8461538461539,192.37777247793943L556.6153846153846,214.00447671561938L559.3846153846154,212.88893714037565L562.1538461538462,220.85106382978725L564.9230769230769,207.46823069403715L567.6923076923076,222.74836286105892L570.4615384615385,214.34534316270373L573.2307692307692,226.16949152542372L576,202.75510204081633L578.7692307692308,208.62737015663643L581.5384615384615,218.6483165396903L584.3076923076923,208.48558421851283L587.0769230769231,192.8698601102162L589.8461538461538,234.03183739544917L592.6153846153846,215.2323406704071L595.3846153846154,225.3132854988346L598.1538461538462,206.214953271028L600.9230769230769,208.3346094946401L603.6923076923077,220.67354698533407L606.4615384615385,232.1179900531641L609.2307692307692,237.16307333721798L612,207.1301446051168L614.7692307692307,220.56858378095112L617.5384615384615,223.62773191907957L620.3076923076924,225.65793347070945L623.0769230769231,227.20357941834453L625.8461538461538,226.21815483551816L628.6153846153846,213.27378140433754L631.3846153846154,217.54021447721183L634.1538461538462,229.25017852892165L636.9230769230769,228.8734835355286L639.6923076923076,225.06303020692934L642.4615384615385,204.03981962052242L645.2307692307693,236.2445512462278L648,239.50142138639842L650.7692307692308,234.93611223625584L653.5384615384615,223.3821449053718L656.3076923076923,241.89953566905865L659.0769230769231,240.12651110486362L661.8461538461538,238.80580278926342L664.6153846153846,225.64643799472296L667.3846153846154,243.4795539033457L670.1538461538462,257.62203384489334L672.9230769230769,238.73041709053916L675.6923076923077,246.2789561137718L678.4615384615385,248.3408071748879L681.2307692307692,243.23418625795554L684,246.68084431042692L686.7692307692308,229.63713764443546L689.5384615384615,254.34751087481874L692.3076923076924,266.1767378464334L695.0769230769231,259.1159095538806L697.8461538461538,250.17272973054162L700.6153846153846,262.5374354925129L703.3846153846154,250.99587507365936L706.1538461538461,261.25157074641874L708.9230769230769,290.0692840646651" style="fill: none; stroke: #72b7b2; stroke-width: 2;"></path></g></g></g></g><g class="mark-group role-legend"><g transform="translate(738,0)"><path class="background" d="M0,0h101v92h-101Z" style="pointer-events: none; fill: none;"></path><g><g class="mark-group role-legend-entry"><g transform="translate(0,16)"><path class="background" d="M0,0h0v0h0Z" style="pointer-events: none; fill: none;"></path><g><g class="mark-group role-scope"><g transform="translate(0,0)"><path class="background" d="M0,0h101v11h-101Z" style="pointer-events: none; fill: none; opacity: 1;"></path><g><g class="mark-symbol role-legend-symbol" style="pointer-events: none;"><path transform="translate(6,6)" d="M-5,0L5,0" style="fill: none; stroke: #4c78a8; stroke-width: 1.5; opacity: 1;"></path></g><g class="mark-text role-legend-label" style="pointer-events: none;"><text text-anchor="start" transform="translate(16,9)" style="font-family: sans-serif; font-size: 10px; fill: #000; opacity: 1;">Clang-Polly</text></g></g></g><g transform="translate(0,13)"><path class="background" d="M0,0h101v11h-101Z" style="pointer-events: none; fill: none; opacity: 1;"></path><g><g class="mark-symbol role-legend-symbol" style="pointer-events: none;"><path transform="translate(6,6)" d="M-5,0L5,0" style="fill: none; stroke: #f58518; stroke-width: 1.5; opacity: 1;"></path></g><g class="mark-text role-legend-label" style="pointer-events: none;"><text text-anchor="start" transform="translate(16,9)" style="font-family: sans-serif; font-size: 10px; fill: #000; opacity: 1;">GFortran</text></g></g></g><g transform="translate(0,26)"><path class="background" d="M0,0h101v11h-101Z" style="pointer-events: none; fill: none; opacity: 1;"></path><g><g class="mark-symbol role-legend-symbol" style="pointer-events: none;"><path transform="translate(6,6)" d="M-5,0L5,0" style="fill: none; stroke: #e45756; stroke-width: 1.5; opacity: 1;"></path></g><g class="mark-text role-legend-label" style="pointer-events: none;"><text text-anchor="start" transform="translate(16,9)" style="font-family: sans-serif; font-size: 10px; fill: #000; opacity: 1;">Julia</text></g></g></g><g transform="translate(0,39)"><path class="background" d="M0,0h101v11h-101Z" style="pointer-events: none; fill: none; opacity: 1;"></path><g><g class="mark-symbol role-legend-symbol" style="pointer-events: none;"><path transform="translate(6,6)" d="M-5,0L5,0" style="fill: none; stroke: #72b7b2; stroke-width: 1.5; opacity: 1;"></path></g><g class="mark-text role-legend-label" style="pointer-events: none;"><text text-anchor="start" transform="translate(16,9)" style="font-family: sans-serif; font-size: 10px; fill: #000; opacity: 1;">LoopVectorization</text></g></g></g><g transform="translate(0,52)"><path class="background" d="M0,0h101v11h-101Z" style="pointer-events: none; fill: none; opacity: 1;"></path><g><g class="mark-symbol role-legend-symbol" style="pointer-events: none;"><path transform="translate(6,6)" d="M-5,0L5,0" style="fill: none; stroke: #54a24b; stroke-width: 1.5; opacity: 1;"></path></g><g class="mark-text role-legend-label" style="pointer-events: none;"><text text-anchor="start" transform="translate(16,9)" style="font-family: sans-serif; font-size: 10px; fill: #000; opacity: 1;">icc</text></g></g></g><g transform="translate(0,65)"><path class="background" d="M0,0h101v11h-101Z" style="pointer-events: none; fill: none; opacity: 1;"></path><g><g class="mark-symbol role-legend-symbol" style="pointer-events: none;"><path transform="translate(6,6)" d="M-5,0L5,0" style="fill: none; stroke: #eeca3b; stroke-width: 1.5; opacity: 1;"></path></g><g class="mark-text role-legend-label" style="pointer-events: none;"><text text-anchor="start" transform="translate(16,9)" style="font-family: sans-serif; font-size: 10px; fill: #000; opacity: 1;">ifort</text></g></g></g></g></g></g></g><g class="mark-text role-legend-title" style="pointer-events: none;"><text text-anchor="start" transform="translate(0,9)" style="font-family: sans-serif; font-size: 11px; font-weight: bold; fill: #000; opacity: 1;">Method</text></g></g></g></g><g class="mark-group role-axis"><g transform="translate(0.5,480.5)"><path class="background" d="M0,0h0v0h0Z" style="pointer-events: none; fill: none;"></path><g><g class="mark-rule role-axis-tick" style="pointer-events: none;"><line transform="translate(0,0)" x2="0" y2="5" style="fill: none; stroke: #888; stroke-width: 1; opacity: 1;"></line><line transform="translate(55,0)" x2="0" y2="5" style="fill: none; stroke: #888; stroke-width: 1; opacity: 1;"></line><line transform="translate(111,0)" x2="0" y2="5" style="fill: none; stroke: #888; stroke-width: 1; opacity: 1;"></line><line transform="translate(166,0)" x2="0" y2="5" style="fill: none; stroke: #888; stroke-width: 1; opacity: 1;"></line><line transform="translate(222,0)" x2="0" y2="5" style="fill: none; stroke: #888; stroke-width: 1; opacity: 1;"></line><line transform="translate(277,0)" x2="0" y2="5" style="fill: none; stroke: #888; stroke-width: 1; opacity: 1;"></line><line transform="translate(332,0)" x2="0" y2="5" style="fill: none; stroke: #888; stroke-width: 1; opacity: 1;"></line><line transform="translate(388,0)" x2="0" y2="5" style="fill: none; stroke: #888; stroke-width: 1; opacity: 1;"></line><line transform="translate(443,0)" x2="0" y2="5" style="fill: none; stroke: #888; stroke-width: 1; opacity: 1;"></line><line transform="translate(498,0)" x2="0" y2="5" style="fill: none; stroke: #888; stroke-width: 1; opacity: 1;"></line><line transform="translate(554,0)" x2="0" y2="5" style="fill: none; stroke: #888; stroke-width: 1; opacity: 1;"></line><line transform="translate(609,0)" x2="0" y2="5" style="fill: none; stroke: #888; stroke-width: 1; opacity: 1;"></line><line transform="translate(665,0)" x2="0" y2="5" style="fill: none; stroke: #888; stroke-width: 1; opacity: 1;"></line><line transform="translate(720,0)" x2="0" y2="5" style="fill: none; stroke: #888; stroke-width: 1; opacity: 1;"></line></g><g class="mark-text role-axis-label" style="pointer-events: none;"><text text-anchor="start" transform="translate(0,15)" style="font-family: sans-serif; font-size: 10px; fill: #000; opacity: 1;">0</text><text text-anchor="middle" transform="translate(55.38461538461539,15)" style="font-family: sans-serif; font-size: 10px; fill: #000; opacity: 1;">20</text><text text-anchor="middle" transform="translate(110.76923076923077,15)" style="font-family: sans-serif; font-size: 10px; fill: #000; opacity: 1;">40</text><text text-anchor="middle" transform="translate(166.15384615384616,15)" style="font-family: sans-serif; font-size: 10px; fill: #000; opacity: 1;">60</text><text text-anchor="middle" transform="translate(221.53846153846155,15)" style="font-family: sans-serif; font-size: 10px; fill: #000; opacity: 1;">80</text><text text-anchor="middle" transform="translate(276.92307692307696,15)" style="font-family: sans-serif; font-size: 10px; fill: #000; opacity: 1;">100</text><text text-anchor="middle" transform="translate(332.3076923076923,15)" style="font-family: sans-serif; font-size: 10px; fill: #000; opacity: 1;">120</text><text text-anchor="middle" transform="translate(387.6923076923077,15)" style="font-family: sans-serif; font-size: 10px; fill: #000; opacity: 1;">140</text><text text-anchor="middle" transform="translate(443.0769230769231,15)" style="font-family: sans-serif; font-size: 10px; fill: #000; opacity: 1;">160</text><text text-anchor="middle" transform="translate(498.46153846153845,15)" style="font-family: sans-serif; font-size: 10px; fill: #000; opacity: 1;">180</text><text text-anchor="middle" transform="translate(553.8461538461539,15)" style="font-family: sans-serif; font-size: 10px; fill: #000; opacity: 1;">200</text><text text-anchor="middle" transform="translate(609.2307692307692,15)" style="font-family: sans-serif; font-size: 10px; fill: #000; opacity: 1;">220</text><text text-anchor="middle" transform="translate(664.6153846153846,15)" style="font-family: sans-serif; font-size: 10px; fill: #000; opacity: 1;">240</text><text text-anchor="end" transform="translate(720,15)" style="font-family: sans-serif; font-size: 10px; fill: #000; opacity: 1;">260</text></g><g class="mark-rule role-axis-domain" style="pointer-events: none;"><line transform="translate(0,0)" x2="720" y2="0" style="fill: none; stroke: #888; stroke-width: 1; opacity: 1;"></line></g><g class="mark-text role-axis-title" style="pointer-events: none;"><text text-anchor="middle" transform="translate(360,30)" style="font-family: sans-serif; font-size: 11px; font-weight: bold; fill: #000; opacity: 1;">Size</text></g></g></g></g><g class="mark-group role-axis"><g transform="translate(0.5,0.5)"><path class="background" d="M0,0h0v0h0Z" style="pointer-events: none; fill: none;"></path><g><g class="mark-rule role-axis-tick" style="pointer-events: none;"><line transform="translate(0,480)" x2="-5" y2="0" style="fill: none; stroke: #888; stroke-width: 1; opacity: 1;"></line><line transform="translate(0,420)" x2="-5" y2="0" style="fill: none; stroke: #888; stroke-width: 1; opacity: 1;"></line><line transform="translate(0,360)" x2="-5" y2="0" style="fill: none; stroke: #888; stroke-width: 1; opacity: 1;"></line><line transform="translate(0,300)" x2="-5" y2="0" style="fill: none; stroke: #888; stroke-width: 1; opacity: 1;"></line><line transform="translate(0,240)" x2="-5" y2="0" style="fill: none; stroke: #888; stroke-width: 1; opacity: 1;"></line><line transform="translate(0,180)" x2="-5" y2="0" style="fill: none; stroke: #888; stroke-width: 1; opacity: 1;"></line><line transform="translate(0,120)" x2="-5" y2="0" style="fill: none; stroke: #888; stroke-width: 1; opacity: 1;"></line><line transform="translate(0,60)" x2="-5" y2="0" style="fill: none; stroke: #888; stroke-width: 1; opacity: 1;"></line><line transform="translate(0,0)" x2="-5" y2="0" style="fill: none; stroke: #888; stroke-width: 1; opacity: 1;"></line></g><g class="mark-text role-axis-label" style="pointer-events: none;"><text text-anchor="end" transform="translate(-7,483)" style="font-family: sans-serif; font-size: 10px; fill: #000; opacity: 1;">0.0</text><text text-anchor="end" transform="translate(-7,423)" style="font-family: sans-serif; font-size: 10px; fill: #000; opacity: 1;">0.5</text><text text-anchor="end" transform="translate(-7,363)" style="font-family: sans-serif; font-size: 10px; fill: #000; opacity: 1;">1.0</text><text text-anchor="end" transform="translate(-7,303)" style="font-family: sans-serif; font-size: 10px; fill: #000; opacity: 1;">1.5</text><text text-anchor="end" transform="translate(-7,243)" style="font-family: sans-serif; font-size: 10px; fill: #000; opacity: 1;">2.0</text><text text-anchor="end" transform="translate(-7,183)" style="font-family: sans-serif; font-size: 10px; fill: #000; opacity: 1;">2.5</text><text text-anchor="end" transform="translate(-7,123)" style="font-family: sans-serif; font-size: 10px; fill: #000; opacity: 1;">3.0</text><text text-anchor="end" transform="translate(-7,63)" style="font-family: sans-serif; font-size: 10px; fill: #000; opacity: 1;">3.5</text><text text-anchor="end" transform="translate(-7,3)" style="font-family: sans-serif; font-size: 10px; fill: #000; opacity: 1;">4.0</text></g><g class="mark-rule role-axis-domain" style="pointer-events: none;"><line transform="translate(0,480)" x2="0" y2="-480" style="fill: none; stroke: #888; stroke-width: 1; opacity: 1;"></line></g><g class="mark-text role-axis-title" style="pointer-events: none;"><text text-anchor="middle" transform="translate(-26,240) rotate(-90) translate(0,-2)" style="font-family: sans-serif; font-size: 11px; font-weight: bold; fill: #000; opacity: 1;">GFLOPS</text></g></g></g></g></g></g></g></g></svg>