<?xml version="1.0" encoding="utf-8"?>
<!DOCTYPE svg PUBLIC "-//W3C//DTD SVG 1.1//EN" "http://www.w3.org/Graphics/SVG/1.1/DTD/svg11.dtd">
<svg class="marks" width="1063" height="647" viewBox="0 0 1063 647" version="1.1" xmlns="http://www.w3.org/2000/svg" xmlns:xlink="http://www.w3.org/1999/xlink"><rect width="1063" height="647" style="fill: white;"></rect><g transform="translate(39,10)"><g class="mark-group role-frame root"><g transform="translate(0,0)"><path class="background" d="M0.5,0.5h900v600h-900Z" style="fill: none; stroke: #ddd;"></path><g><g class="mark-group role-axis"><g transform="translate(0.5,600.5)"><path class="background" d="M0,0h0v0h0Z" style="pointer-events: none; fill: none;"></path><g><g class="mark-rule role-axis-grid" style="pointer-events: none;"><line transform="translate(0,-600)" x2="0" y2="600" style="fill: none; stroke: #ddd; stroke-width: 1; opacity: 1;"></line><line transform="translate(35,-600)" x2="0" y2="600" style="fill: none; stroke: #ddd; stroke-width: 1; opacity: 1;"></line><line transform="translate(69,-600)" x2="0" y2="600" style="fill: none; stroke: #ddd; stroke-width: 1; opacity: 1;"></line><line transform="translate(104,-600)" x2="0" y2="600" style="fill: none; stroke: #ddd; stroke-width: 1; opacity: 1;"></line><line transform="translate(138,-600)" x2="0" y2="600" style="fill: none; stroke: #ddd; stroke-width: 1; opacity: 1;"></line><line transform="translate(173,-600)" x2="0" y2="600" style="fill: none; stroke: #ddd; stroke-width: 1; opacity: 1;"></line><line transform="translate(208,-600)" x2="0" y2="600" style="fill: none; stroke: #ddd; stroke-width: 1; opacity: 1;"></line><line transform="translate(242,-600)" x2="0" y2="600" style="fill: none; stroke: #ddd; stroke-width: 1; opacity: 1;"></line><line transform="translate(277,-600)" x2="0" y2="600" style="fill: none; stroke: #ddd; stroke-width: 1; opacity: 1;"></line><line transform="translate(312,-600)" x2="0" y2="600" style="fill: none; stroke: #ddd; stroke-width: 1; opacity: 1;"></line><line transform="translate(346,-600)" x2="0" y2="600" style="fill: none; stroke: #ddd; stroke-width: 1; opacity: 1;"></line><line transform="translate(381,-600)" x2="0" y2="600" style="fill: none; stroke: #ddd; stroke-width: 1; opacity: 1;"></line><line transform="translate(415,-600)" x2="0" y2="600" style="fill: none; stroke: #ddd; stroke-width: 1; opacity: 1;"></line><line transform="translate(450,-600)" x2="0" y2="600" style="fill: none; stroke: #ddd; stroke-width: 1; opacity: 1;"></line><line transform="translate(485,-600)" x2="0" y2="600" style="fill: none; stroke: #ddd; stroke-width: 1; opacity: 1;"></line><line transform="translate(519,-600)" x2="0" y2="600" style="fill: none; stroke: #ddd; stroke-width: 1; opacity: 1;"></line><line transform="translate(554,-600)" x2="0" y2="600" style="fill: none; stroke: #ddd; stroke-width: 1; opacity: 1;"></line><line transform="translate(588,-600)" x2="0" y2="600" style="fill: none; stroke: #ddd; stroke-width: 1; opacity: 1;"></line><line transform="translate(623,-600)" x2="0" y2="600" style="fill: none; stroke: #ddd; stroke-width: 1; opacity: 1;"></line><line transform="translate(658,-600)" x2="0" y2="600" style="fill: none; stroke: #ddd; stroke-width: 1; opacity: 1;"></line><line transform="translate(692,-600)" x2="0" y2="600" style="fill: none; stroke: #ddd; stroke-width: 1; opacity: 1;"></line><line transform="translate(727,-600)" x2="0" y2="600" style="fill: none; stroke: #ddd; stroke-width: 1; opacity: 1;"></line><line transform="translate(762,-600)" x2="0" y2="600" style="fill: none; stroke: #ddd; stroke-width: 1; opacity: 1;"></line><line transform="translate(796,-600)" x2="0" y2="600" style="fill: none; stroke: #ddd; stroke-width: 1; opacity: 1;"></line><line transform="translate(831,-600)" x2="0" y2="600" style="fill: none; stroke: #ddd; stroke-width: 1; opacity: 1;"></line><line transform="translate(865,-600)" x2="0" y2="600" style="fill: none; stroke: #ddd; stroke-width: 1; opacity: 1;"></line><line transform="translate(900,-600)" x2="0" y2="600" style="fill: none; stroke: #ddd; stroke-width: 1; opacity: 1;"></line></g></g><path class="foreground" d="" style="pointer-events: none; display: none; fill: none;"></path></g></g><g class="mark-group role-axis"><g transform="translate(0.5,0.5)"><path class="background" d="M0,0h0v0h0Z" style="pointer-events: none; fill: none;"></path><g><g class="mark-rule role-axis-grid" style="pointer-events: none;"><line transform="translate(0,600)" x2="900" y2="0" style="fill: none; stroke: #ddd; stroke-width: 1; opacity: 1;"></line><line transform="translate(0,550)" x2="900" y2="0" style="fill: none; stroke: #ddd; stroke-width: 1; opacity: 1;"></line><line transform="translate(0,500)" x2="900" y2="0" style="fill: none; stroke: #ddd; stroke-width: 1; opacity: 1;"></line><line transform="translate(0,450)" x2="900" y2="0" style="fill: none; stroke: #ddd; stroke-width: 1; opacity: 1;"></line><line transform="translate(0,400)" x2="900" y2="0" style="fill: none; stroke: #ddd; stroke-width: 1; opacity: 1;"></line><line transform="translate(0,350)" x2="900" y2="0" style="fill: none; stroke: #ddd; stroke-width: 1; opacity: 1;"></line><line transform="translate(0,300)" x2="900" y2="0" style="fill: none; stroke: #ddd; stroke-width: 1; opacity: 1;"></line><line transform="translate(0,250)" x2="900" y2="0" style="fill: none; stroke: #ddd; stroke-width: 1; opacity: 1;"></line><line transform="translate(0,200)" x2="900" y2="0" style="fill: none; stroke: #ddd; stroke-width: 1; opacity: 1;"></line><line transform="translate(0,150)" x2="900" y2="0" style="fill: none; stroke: #ddd; stroke-width: 1; opacity: 1;"></line><line transform="translate(0,100)" x2="900" y2="0" style="fill: none; stroke: #ddd; stroke-width: 1; opacity: 1;"></line><line transform="translate(0,50)" x2="900" y2="0" style="fill: none; stroke: #ddd; stroke-width: 1; opacity: 1;"></line><line transform="translate(0,0)" x2="900" y2="0" style="fill: none; stroke: #ddd; stroke-width: 1; opacity: 1;"></line></g></g><path class="foreground" d="" style="pointer-events: none; display: none; fill: none;"></path></g></g><g class="mark-group role-axis"><g transform="translate(0.5,600.5)"><path class="background" d="M0,0h0v0h0Z" style="pointer-events: none; fill: none;"></path><g><g class="mark-rule role-axis-tick" style="pointer-events: none;"><line transform="translate(0,0)" x2="0" y2="5" style="fill: none; stroke: #888; stroke-width: 1; opacity: 1;"></line><line transform="translate(35,0)" x2="0" y2="5" style="fill: none; stroke: #888; stroke-width: 1; opacity: 1;"></line><line transform="translate(69,0)" x2="0" y2="5" style="fill: none; stroke: #888; stroke-width: 1; opacity: 1;"></line><line transform="translate(104,0)" x2="0" y2="5" style="fill: none; stroke: #888; stroke-width: 1; opacity: 1;"></line><line transform="translate(138,0)" x2="0" y2="5" style="fill: none; stroke: #888; stroke-width: 1; opacity: 1;"></line><line transform="translate(173,0)" x2="0" y2="5" style="fill: none; stroke: #888; stroke-width: 1; opacity: 1;"></line><line transform="translate(208,0)" x2="0" y2="5" style="fill: none; stroke: #888; stroke-width: 1; opacity: 1;"></line><line transform="translate(242,0)" x2="0" y2="5" style="fill: none; stroke: #888; stroke-width: 1; opacity: 1;"></line><line transform="translate(277,0)" x2="0" y2="5" style="fill: none; stroke: #888; stroke-width: 1; opacity: 1;"></line><line transform="translate(312,0)" x2="0" y2="5" style="fill: none; stroke: #888; stroke-width: 1; opacity: 1;"></line><line transform="translate(346,0)" x2="0" y2="5" style="fill: none; stroke: #888; stroke-width: 1; opacity: 1;"></line><line transform="translate(381,0)" x2="0" y2="5" style="fill: none; stroke: #888; stroke-width: 1; opacity: 1;"></line><line transform="translate(415,0)" x2="0" y2="5" style="fill: none; stroke: #888; stroke-width: 1; opacity: 1;"></line><line transform="translate(450,0)" x2="0" y2="5" style="fill: none; stroke: #888; stroke-width: 1; opacity: 1;"></line><line transform="translate(485,0)" x2="0" y2="5" style="fill: none; stroke: #888; stroke-width: 1; opacity: 1;"></line><line transform="translate(519,0)" x2="0" y2="5" style="fill: none; stroke: #888; stroke-width: 1; opacity: 1;"></line><line transform="translate(554,0)" x2="0" y2="5" style="fill: none; stroke: #888; stroke-width: 1; opacity: 1;"></line><line transform="translate(588,0)" x2="0" y2="5" style="fill: none; stroke: #888; stroke-width: 1; opacity: 1;"></line><line transform="translate(623,0)" x2="0" y2="5" style="fill: none; stroke: #888; stroke-width: 1; opacity: 1;"></line><line transform="translate(658,0)" x2="0" y2="5" style="fill: none; stroke: #888; stroke-width: 1; opacity: 1;"></line><line transform="translate(692,0)" x2="0" y2="5" style="fill: none; stroke: #888; stroke-width: 1; opacity: 1;"></line><line transform="translate(727,0)" x2="0" y2="5" style="fill: none; stroke: #888; stroke-width: 1; opacity: 1;"></line><line transform="translate(762,0)" x2="0" y2="5" style="fill: none; stroke: #888; stroke-width: 1; opacity: 1;"></line><line transform="translate(796,0)" x2="0" y2="5" style="fill: none; stroke: #888; stroke-width: 1; opacity: 1;"></line><line transform="translate(831,0)" x2="0" y2="5" style="fill: none; stroke: #888; stroke-width: 1; opacity: 1;"></line><line transform="translate(865,0)" x2="0" y2="5" style="fill: none; stroke: #888; stroke-width: 1; opacity: 1;"></line><line transform="translate(900,0)" x2="0" y2="5" style="fill: none; stroke: #888; stroke-width: 1; opacity: 1;"></line></g><g class="mark-text role-axis-label" style="pointer-events: none;"><text text-anchor="start" transform="translate(0,15)" style="font-family: sans-serif; font-size: 10px; fill: #000; opacity: 1;">0</text><text text-anchor="middle" transform="translate(34.61538461538462,15)" style="font-family: sans-serif; font-size: 10px; fill: #000; opacity: 1;">10</text><text text-anchor="middle" transform="translate(69.23076923076924,15)" style="font-family: sans-serif; font-size: 10px; fill: #000; opacity: 1;">20</text><text text-anchor="middle" transform="translate(103.84615384615385,15)" style="font-family: sans-serif; font-size: 10px; fill: #000; opacity: 1;">30</text><text text-anchor="middle" transform="translate(138.46153846153848,15)" style="font-family: sans-serif; font-size: 10px; fill: #000; opacity: 1;">40</text><text text-anchor="middle" transform="translate(173.0769230769231,15)" style="font-family: sans-serif; font-size: 10px; fill: #000; opacity: 1;">50</text><text text-anchor="middle" transform="translate(207.6923076923077,15)" style="font-family: sans-serif; font-size: 10px; fill: #000; opacity: 1;">60</text><text text-anchor="middle" transform="translate(242.3076923076923,15)" style="font-family: sans-serif; font-size: 10px; fill: #000; opacity: 1;">70</text><text text-anchor="middle" transform="translate(276.92307692307696,15)" style="font-family: sans-serif; font-size: 10px; fill: #000; opacity: 1;">80</text><text text-anchor="middle" transform="translate(311.53846153846155,15)" style="font-family: sans-serif; font-size: 10px; fill: #000; opacity: 1;">90</text><text text-anchor="middle" transform="translate(346.1538461538462,15)" style="font-family: sans-serif; font-size: 10px; fill: #000; opacity: 1;">100</text><text text-anchor="middle" transform="translate(380.7692307692308,15)" style="font-family: sans-serif; font-size: 10px; fill: #000; opacity: 1;">110</text><text text-anchor="middle" transform="translate(415.3846153846154,15)" style="font-family: sans-serif; font-size: 10px; fill: #000; opacity: 1;">120</text><text text-anchor="middle" transform="translate(450,15)" style="font-family: sans-serif; font-size: 10px; fill: #000; opacity: 1;">130</text><text text-anchor="middle" transform="translate(484.6153846153846,15)" style="font-family: sans-serif; font-size: 10px; fill: #000; opacity: 1;">140</text><text text-anchor="middle" transform="translate(519.2307692307692,15)" style="font-family: sans-serif; font-size: 10px; fill: #000; opacity: 1;">150</text><text text-anchor="middle" transform="translate(553.8461538461539,15)" style="font-family: sans-serif; font-size: 10px; fill: #000; opacity: 1;">160</text><text text-anchor="middle" transform="translate(588.4615384615385,15)" style="font-family: sans-serif; font-size: 10px; fill: #000; opacity: 1;">170</text><text text-anchor="middle" transform="translate(623.0769230769231,15)" style="font-family: sans-serif; font-size: 10px; fill: #000; opacity: 1;">180</text><text text-anchor="middle" transform="translate(657.6923076923076,15)" style="font-family: sans-serif; font-size: 10px; fill: #000; opacity: 1;">190</text><text text-anchor="middle" transform="translate(692.3076923076924,15)" style="font-family: sans-serif; font-size: 10px; fill: #000; opacity: 1;">200</text><text text-anchor="middle" transform="translate(726.9230769230769,15)" style="font-family: sans-serif; font-size: 10px; fill: #000; opacity: 1;">210</text><text text-anchor="middle" transform="translate(761.5384615384615,15)" style="font-family: sans-serif; font-size: 10px; fill: #000; opacity: 1;">220</text><text text-anchor="middle" transform="translate(796.1538461538461,15)" style="font-family: sans-serif; font-size: 10px; fill: #000; opacity: 1;">230</text><text text-anchor="middle" transform="translate(830.7692307692308,15)" style="font-family: sans-serif; font-size: 10px; fill: #000; opacity: 1;">240</text><text text-anchor="middle" transform="translate(865.3846153846154,15)" style="font-family: sans-serif; font-size: 10px; fill: #000; opacity: 1;">250</text><text text-anchor="end" transform="translate(900,15)" style="font-family: sans-serif; font-size: 10px; fill: #000; opacity: 1;">260</text></g><g class="mark-rule role-axis-domain" style="pointer-events: none;"><line transform="translate(0,0)" x2="900" y2="0" style="fill: none; stroke: #888; stroke-width: 1; opacity: 1;"></line></g><g class="mark-text role-axis-title" style="pointer-events: none;"><text text-anchor="middle" transform="translate(450,30)" style="font-family: sans-serif; font-size: 11px; font-weight: bold; fill: #000; opacity: 1;">Size</text></g></g><path class="foreground" d="" style="pointer-events: none; display: none; fill: none;"></path></g></g><g class="mark-group role-axis"><g transform="translate(0.5,0.5)"><path class="background" d="M0,0h0v0h0Z" style="pointer-events: none; fill: none;"></path><g><g class="mark-rule role-axis-tick" style="pointer-events: none;"><line transform="translate(0,600)" x2="-5" y2="0" style="fill: none; stroke: #888; stroke-width: 1; opacity: 1;"></line><line transform="translate(0,550)" x2="-5" y2="0" style="fill: none; stroke: #888; stroke-width: 1; opacity: 1;"></line><line transform="translate(0,500)" x2="-5" y2="0" style="fill: none; stroke: #888; stroke-width: 1; opacity: 1;"></line><line transform="translate(0,450)" x2="-5" y2="0" style="fill: none; stroke: #888; stroke-width: 1; opacity: 1;"></line><line transform="translate(0,400)" x2="-5" y2="0" style="fill: none; stroke: #888; stroke-width: 1; opacity: 1;"></line><line transform="translate(0,350)" x2="-5" y2="0" style="fill: none; stroke: #888; stroke-width: 1; opacity: 1;"></line><line transform="translate(0,300)" x2="-5" y2="0" style="fill: none; stroke: #888; stroke-width: 1; opacity: 1;"></line><line transform="translate(0,250)" x2="-5" y2="0" style="fill: none; stroke: #888; stroke-width: 1; opacity: 1;"></line><line transform="translate(0,200)" x2="-5" y2="0" style="fill: none; stroke: #888; stroke-width: 1; opacity: 1;"></line><line transform="translate(0,150)" x2="-5" y2="0" style="fill: none; stroke: #888; stroke-width: 1; opacity: 1;"></line><line transform="translate(0,100)" x2="-5" y2="0" style="fill: none; stroke: #888; stroke-width: 1; opacity: 1;"></line><line transform="translate(0,50)" x2="-5" y2="0" style="fill: none; stroke: #888; stroke-width: 1; opacity: 1;"></line><line transform="translate(0,0)" x2="-5" y2="0" style="fill: none; stroke: #888; stroke-width: 1; opacity: 1;"></line></g><g class="mark-text role-axis-label" style="pointer-events: none;"><text text-anchor="end" transform="translate(-7,603)" style="font-family: sans-serif; font-size: 10px; fill: #000; opacity: 1;">0</text><text text-anchor="end" transform="translate(-7,553)" style="font-family: sans-serif; font-size: 10px; fill: #000; opacity: 1;">5</text><text text-anchor="end" transform="translate(-7,503)" style="font-family: sans-serif; font-size: 10px; fill: #000; opacity: 1;">10</text><text text-anchor="end" transform="translate(-7,453)" style="font-family: sans-serif; font-size: 10px; fill: #000; opacity: 1;">15</text><text text-anchor="end" transform="translate(-7,403.00000000000006)" style="font-family: sans-serif; font-size: 10px; fill: #000; opacity: 1;">20</text><text text-anchor="end" transform="translate(-7,352.99999999999994)" style="font-family: sans-serif; font-size: 10px; fill: #000; opacity: 1;">25</text><text text-anchor="end" transform="translate(-7,303)" style="font-family: sans-serif; font-size: 10px; fill: #000; opacity: 1;">30</text><text text-anchor="end" transform="translate(-7,252.99999999999997)" style="font-family: sans-serif; font-size: 10px; fill: #000; opacity: 1;">35</text><text text-anchor="end" transform="translate(-7,203.00000000000003)" style="font-family: sans-serif; font-size: 10px; fill: #000; opacity: 1;">40</text><text text-anchor="end" transform="translate(-7,153)" style="font-family: sans-serif; font-size: 10px; fill: #000; opacity: 1;">45</text><text text-anchor="end" transform="translate(-7,102.99999999999997)" style="font-family: sans-serif; font-size: 10px; fill: #000; opacity: 1;">50</text><text text-anchor="end" transform="translate(-7,53.00000000000002)" style="font-family: sans-serif; font-size: 10px; fill: #000; opacity: 1;">55</text><text text-anchor="end" transform="translate(-7,3)" style="font-family: sans-serif; font-size: 10px; fill: #000; opacity: 1;">60</text></g><g class="mark-rule role-axis-domain" style="pointer-events: none;"><line transform="translate(0,600)" x2="0" y2="-600" style="fill: none; stroke: #888; stroke-width: 1; opacity: 1;"></line></g><g class="mark-text role-axis-title" style="pointer-events: none;"><text text-anchor="middle" transform="translate(-23,300) rotate(-90) translate(0,-2)" style="font-family: sans-serif; font-size: 11px; font-weight: bold; fill: #000; opacity: 1;">GFLOPS</text></g></g><path class="foreground" d="" style="pointer-events: none; display: none; fill: none;"></path></g></g><g class="mark-group role-scope pathgroup"><g transform="translate(0,0)"><path class="background" d="M0,0h900v600h-900Z" style="fill: none;"></path><g><g class="mark-line role-mark marks"><path d="M6.923076923076923,587.0406092351702L10.384615384615385,586.9628207040573L13.846153846153847,586.3470949930983L17.30769230769231,587.3909349588014L20.76923076923077,586.8284487586336L24.230769230769234,585.6901379041979L27.692307692307693,586.5608171875867L31.153846153846157,583.3693109721606L34.61538461538462,586.3409930901494L38.07692307692308,586.2361993977919L41.53846153846154,586.1499292786422L45,586.0759289176091L48.46153846153847,586.0221870047544L51.92307692307693,585.9610130092574L55.38461538461539,585.915857605178L58.84615384615385,585.8816767843673L62.307692307692314,585.840616966581L65.76923076923077,585.8094671819773L69.23076923076924,585.7851042226603L72.6923076923077,585.7530168181675L76.15384615384616,585.7326166117566L79.61538461538461,585.7108808948774L83.07692307692308,585.6929955290611L86.53846153846155,585.6752839664296L90,585.663076475236L93.46153846153847,585.648498417355L96.92307692307693,585.6410256410256L100.38461538461539,585.6268221574344L103.84615384615385,585.6135401974612L107.3076923076923,585.5960148122024L110.76923076923077,585.6262901494509L114.23076923076923,585.5997199751089L117.6923076923077,585.5743962416502L121.15384615384615,582.0148544779343L124.61538461538463,585.5641462455773L128.07692307692307,585.5563830447464L131.53846153846155,585.5446943822872L135,585.5515198927135L138.46153846153848,585.554965480616L141.9230769230769,585.5211024978466L145.3846153846154,585.5004351610096L148.84615384615384,585.4960317460318L152.30769230769232,585.4898157129L155.76923076923077,585.4844830494181L159.23076923076923,585.4805247225025L162.69230769230768,585.4749748588226L166.15384615384616,585.4685760926022L169.6153846153846,585.4867728630352L173.0769230769231,585.471078900588L176.53846153846155,585.4673634391639L180,581.8595106550907L183.46153846153845,585.4557914293546L186.92307692307693,585.4584922264594L190.3846153846154,585.453439692238L193.84615384615387,585.458512901642L197.3076923076923,585.4304932735427L200.76923076923077,585.4327780325029L204.23076923076923,585.4362217901705L207.6923076923077,585.4479741297318L211.15384615384616,585.4310324972938L214.6153846153846,585.4280298807001L218.07692307692307,585.4131355932203L221.53846153846155,585.4161605160641L225,585.4266003855129L228.46153846153845,585.4182419659735L231.9230769230769,585.4233759287911L235.3846153846154,585.4034983473837L238.84615384615384,581.9300752383292L242.3076923076923,585.4023552502454L245.76923076923075,585.3931377729295L249.23076923076925,585.4102377326005L252.6923076923077,585.3952926003547L256.15384615384613,585.3932090629511L259.6153846153846,585.4029919096321L263.0769230769231,585.3983077311999L266.53846153846155,585.3984557215083L270,585.3940010167769L273.46153846153845,585.387497073285L276.92307692307696,585.389893781305L280.3846153846154,585.3865705863085L283.8461538461538,585.3805522515954L287.30769230769226,585.392645994961L290.7692307692308,585.3790178081691L294.2307692307692,585.3797167003928L297.6923076923077,581.9878516990431L301.15384615384613,585.3745780243013L304.61538461538464,585.3773186715539L308.0769230769231,585.3729089724093L311.53846153846155,585.3716058301109L315,585.3654555850096L318.46153846153845,585.3645933987692L321.9230769230769,585.3618398128328L325.38461538461536,585.3745642903044L328.8461538461538,585.371655765527L332.3076923076923,585.3688329395504L335.7692307692308,585.3898850028772L339.2307692307692,585.3605437297133L342.6923076923077,585.362388867414L346.1538461538462,585.3670293348024L349.61538461538464,585.358116836515L353.0769230769231,585.3563060415131L356.53846153846155,581.714555113959L360,585.3574784589167L363.46153846153845,585.3545614377808L366.9230769230769,585.3545359749739L370.38461538461536,585.3518423746161L373.84615384615387,585.3514967051801L377.3076923076923,585.3480594849474L380.7692307692308,585.3449319967797L384.2307692307692,585.3510182957534L387.69230769230774,585.3440822525996L391.1538461538462,585.3494367841693L394.6153846153846,585.3454497214115L398.07692307692304,585.3479793799652L401.53846153846155,585.3393235959521L405,585.3386045046464L408.46153846153845,585.3430671397346L411.9230769230769,585.3352217348928L415.3846153846154,581.7635972198425L418.84615384615387,585.3427045362197L422.3076923076923,585.343180699163L425.7692307692308,585.3297474275024L429.2307692307692,585.3396822191936L432.6923076923077,585.3357661009837L436.15384615384613,585.3458142843181L439.6153846153846,585.3339787545866L443.0769230769231,585.3345338324882L446.53846153846155,585.3329289347207L450,585.3384705672221L453.46153846153845,585.3306348208673L456.9230769230769,585.3382699427802L460.38461538461536,585.325776133824L463.8461538461538,585.3317571983239L467.3076923076923,585.3265039356654L470.7692307692308,585.3321391252425L474.2307692307692,581.6860478464505L477.6923076923077,585.3377656201881L481.15384615384613,585.3363482950436L484.6153846153846,585.3291475318888L488.07692307692304,585.3276115806884L491.5384615384615,585.3286824027905L495.00000000000006,585.3251917548577L498.4615384615385,585.3228244169925L501.92307692307696,585.3278627959672L505.3846153846154,585.3227700956686L508.8461538461538,585.3227295065265L512.3076923076923,585.3311798306087L515.7692307692307,585.3220524866605L519.2307692307692,585.3221641077987L522.6923076923077,585.3242642576698L526.1538461538462,585.3257515187291L529.6153846153846,585.3179879578524L533.0769230769231,581.7661637541156L536.5384615384615,585.3175901327592L540,585.3213456994245L543.4615384615385,585.3164082347788L546.9230769230769,585.3234195601052L550.3846153846155,585.3246305351436L553.8461538461539,585.3114895742627L557.3076923076924,585.3209258013152L560.7692307692308,585.3151424386551L564.2307692307692,585.323427056289L567.6923076923076,585.3193429485121L571.1538461538461,585.3205174967569L574.6153846153845,585.3174237509129L578.0769230769231,585.3194427672138L581.5384615384615,585.3225288390063L585,585.3172798364612L588.4615384615385,585.3138993345967L591.9230769230769,581.7600501959403L595.3846153846154,585.3109958409271L598.8461538461538,585.3156260281801L602.3076923076923,585.313564690373L605.7692307692308,585.3141122742287L609.2307692307693,585.3119787569941L612.6923076923077,585.3125603251907L616.1538461538462,585.3153651747424L619.6153846153846,585.3119640603596L623.0769230769231,585.3091793624376L626.5384615384615,585.3109447159575L630,585.3113628597439L633.4615384615385,585.3096059513703L636.9230769230769,585.3128676236045L640.3846153846154,585.3107508665981L643.8461538461538,585.3129292132194L647.3076923076923,585.3129145985636L650.7692307692307,581.6579206847814L654.2307692307692,585.3086419753087L657.6923076923076,585.3089735671641L661.1538461538462,585.3060910193715L664.6153846153846,585.3086026143545L668.0769230769231,585.3073076789216L671.5384615384615,585.3112968655657L675,585.3083223862143L678.4615384615385,585.3101951301805L681.9230769230769,585.3071836911038L685.3846153846154,585.3089565662087L688.8461538461538,585.302415041284L692.3076923076924,585.3074629445573L695.7692307692308,585.3080987421922L699.2307692307693,585.3079396278207L702.6923076923077,585.3007505387219L706.1538461538462,585.3023066423739L709.6153846153846,581.7318584319712L713.0769230769231,585.3048071262556L716.5384615384615,585.3044290492695L720,585.3030263670606L723.4615384615385,585.3382128493043L726.9230769230769,585.3126138727916L730.3846153846154,585.306771810074L733.8461538461538,585.3101027074625L737.3076923076923,581.6875013355557L740.7692307692307,585.3009545962601L744.2307692307692,585.3142076502733L747.6923076923077,585.3043528206344L751.1538461538462,585.302734877026L754.6153846153846,585.3065426067852L758.0769230769231,585.3077872581968L761.5384615384615,585.2990836047619L765,585.304633933091L768.4615384615385,585.3069857003062L771.9230769230769,585.301935243831L775.3846153846155,585.3035035880118L778.8461538461539,585.3134663035243L782.3076923076924,585.3074913363656L785.7692307692308,585.3003550764522L789.2307692307692,585.3225953785162L792.6923076923076,585.29569524463L796.1538461538461,585.3028178451542L799.6153846153845,585.3304753372511L803.0769230769231,585.3158430237223L806.5384615384615,581.6970950571549L810,585.3025611714347L813.4615384615385,585.3226033393785L816.9230769230769,585.3273268526568L820.3846153846154,585.3034509931879L823.8461538461538,585.3340156506536L827.3076923076923,585.3103849935709L830.7692307692308,585.2988645354624L834.2307692307693,585.3093601819932L837.6923076923077,585.2983122979712L841.1538461538462,585.2979419552889L844.6153846153846,585.3047475513043L848.0769230769231,581.6796531356039L851.5384615384615,585.3017663220127L855,585.302223614156L858.4615384615385,585.3306938249815L861.9230769230769,585.3070825968406L865.3846153846154,585.2988993199444L868.8461538461538,585.3081266306897L872.3076923076923,585.3013409724331L875.7692307692307,585.3258867285374L879.2307692307692,585.3072980438702L882.6923076923076,585.3312924465959L886.1538461538462,585.3205245606152" style="fill: none; stroke: #ff7f0e; stroke-width: 2;"></path></g></g><path class="foreground" d="" style="display: none; fill: none;"></path></g><g transform="translate(0,0)"><path class="background" d="M0,0h900v600h-900Z" style="fill: none;"></path><g><g class="mark-line role-mark marks"><path d="M6.923076923076923,581.4288467362278L10.384615384615385,578.6851939349684L13.846153846153847,578.5236915758318L17.30769230769231,577.4642655873764L20.76923076923077,579.6256027478697L24.230769230769234,576.462533282617L27.692307692307693,578.7601549552114L31.153846153846157,578.1177262402199L34.61538461538462,577.7833822450477L38.07692307692308,577.4818781620758L41.53846153846154,577.3333333333334L45,577.1730494199904L48.46153846153847,576.9347916378237L51.92307692307693,576.7773662801287L55.38461538461539,577.1883845266799L58.84615384615385,576.5774976162729L62.307692307692314,576.4593028777662L65.76923076923077,576.3253321903129L69.23076923076924,576.3011152416357L72.6923076923077,576.1990555180761L76.15384615384616,576.1377560268262L79.61538461538461,576.087216645616L83.07692307692308,576.0427807486631L86.53846153846155,576.5866020273248L90,575.9423410491058L93.46153846153847,576.0382830626451L96.92307692307693,575.8980077760029L100.38461538461539,575.8340141420401L103.84615384615385,575.7857753299782L107.3076923076923,575.7704742977486L110.76923076923077,575.856593044624L114.23076923076923,575.7039272942026L117.6923076923077,575.7252851319636L121.15384615384615,575.6575102279369L124.61538461538463,575.682119205298L128.07692307692307,575.8703991705547L131.53846153846155,575.767028627838L135,575.6158053564692L138.46153846153848,575.7251227130746L141.9230769230769,576.126148705096L145.3846153846154,575.6036446469249L148.84615384615384,576.141935483871L152.30769230769232,576.1126433444622L155.76923076923077,576.0987294313685L159.23076923076923,575.5575185160019L162.69230769230768,575.4411091491728L166.15384615384616,576.0455018041711L169.6153846153846,575.4173693086003L173.0769230769231,575.4235817961024L176.53846153846155,575.4377291412065L180,575.422124792814L183.46153846153845,575.989038616251L186.92307692307693,575.3373134328358L190.3846153846154,575.3404622614366L193.84615384615387,575.4107282874406L197.3076923076923,575.3709979488094L200.76923076923077,575.3180837289599L204.23076923076923,575.3716497419676L207.6923076923077,575.310634177828L211.15384615384616,575.3095238095239L214.6153846153846,575.3487494813082L218.07692307692307,575.9136829329241L221.53846153846155,575.2823825920273L225,575.7003180188105L228.46153846153845,575.388194629088L231.9230769230769,575.2760318797382L235.3846153846154,575.2524870923057L238.84615384615384,575.2213445995592L242.3076923076923,575.2171843389266L245.76923076923075,575.8790249943706L249.23076923076925,575.2247617441174L252.6923076923077,575.2268314692773L256.15384615384613,575.2111625925335L259.6153846153846,575.2337416798322L263.0769230769231,575.845714847978L266.53846153846155,575.2107722577472L270,575.2119832234871L273.46153846153845,575.1750198886238L276.92307692307696,575.8340366931723L280.3846153846154,575.1919483985765L283.8461538461538,575.8477011494253L287.30769230769226,575.2094578861581L290.7692307692308,575.1399970985058L294.2307692307692,575.1602726151233L297.6923076923077,575.1537427871315L301.15384615384613,575.1226726987993L304.61538461538464,575.0869556989572L308.0769230769231,575.1215681927355L311.53846153846155,575.1120589936379L315,575.1167476800707L318.46153846153845,575.1045902036437L321.9230769230769,575.1204778503503L325.38461538461536,575.1148073291143L328.8461538461538,575.1046602193808L332.3076923076923,575.0982262063703L335.7692307692308,575.1258844568852L339.2307692307692,575.1013374407149L342.6923076923077,575.0786005953004L346.1538461538462,575.183568602835L349.61538461538464,575.0740948356403L353.0769230769231,575.0865578296452L356.53846153846155,575.0638774437962L360,575.0678653269874L363.46153846153845,575.4389988206002L366.9230769230769,575.0825745519059L370.38461538461536,575.0502499679528L373.84615384615387,575.0825605066727L377.3076923076923,575.0556372034432L380.7692307692308,575.064853201445L384.2307692307692,575.0307560260353L387.69230769230774,575.0683361977249L391.1538461538462,575.0717164873276L394.6153846153846,575.051155227319L398.07692307692304,575.0369186014235L401.53846153846155,575.0551236055527L405,575.0473933649289L408.46153846153845,575.0592152400219L411.9230769230769,575.0373811424838L415.3846153846154,575.0412919801798L418.84615384615387,575.0399125534005L422.3076923076923,575.0413793783723L425.7692307692308,575.0191343875053L429.2307692307692,575.0220260107598L432.6923076923077,575.018574424663L436.15384615384613,575.0400443910108L439.6153846153846,575.0256853993989L443.0769230769231,575.034240435983L446.53846153846155,575.0115271484219L450,575.0280315343897L453.46153846153845,575.0049692421048L456.9230769230769,575.0340933035526L460.38461538461536,574.9758257121221L463.8461538461538,575.0186591593558L467.3076923076923,574.9945521900196L470.7692307692308,575.0331904081308L474.2307692307692,574.9772180091442L477.6923076923077,574.9806412723436L481.15384615384613,575.0188618974461L484.6153846153846,575.0134981102645L488.07692307692304,574.9642957673447L491.5384615384615,574.9857337799281L495.00000000000006,574.9875525240316L498.4615384615385,574.9727016492606L501.92307692307696,574.9947530432349L505.3846153846154,574.9986546249853L508.8461538461538,574.9912859963238L512.3076923076923,574.9804812169508L515.7692307692307,574.9710196827418L519.2307692307692,574.9775943164794L522.6923076923077,574.9809912927858L526.1538461538462,574.9784674973881L529.6153846153846,574.9806359944172L533.0769230769231,574.9784645938063L536.5384615384615,574.9803972017005L540,574.990509122124L543.4615384615385,574.9729442400497L546.9230769230769,574.9788930028535L550.3846153846155,574.9907184879573L553.8461538461539,574.9630371124649L557.3076923076924,574.9734773620482L560.7692307692308,574.9602640086207L564.2307692307692,574.9656082163385L567.6923076923076,574.9855296054972L571.1538461538461,574.9721507213774L574.6153846153845,574.9627475922224L578.0769230769231,574.9719953756737L581.5384615384615,574.9765050093093L585,574.9510150385637L588.4615384615385,574.9516929147909L591.9230769230769,574.9632580698776L595.3846153846154,574.9398070637009L598.8461538461538,574.9551815626646L602.3076923076923,574.9458701662837L605.7692307692308,574.9269178349379L609.2307692307693,574.9515052633081L612.6923076923077,574.9487067323296L616.1538461538462,574.9565039497483L619.6153846153846,574.9511620848547L623.0769230769231,574.9495170004911L626.5384615384615,574.9477306463947L630,574.9433552555465L633.4615384615385,574.932610638757L636.9230769230769,574.9521500907385L640.3846153846154,574.9456346215954L643.8461538461538,574.9549887152408L647.3076923076923,574.9651306757405L650.7692307692307,574.934797300116L654.2307692307692,574.9450427033049L657.6923076923076,574.9325011539137L661.1538461538462,574.9427484000258L664.6153846153846,574.9399980005999L668.0769230769231,574.9370490427734L671.5384615384615,574.9441167947242L675,574.9260105427704L678.4615384615385,574.9354457391117L681.9230769230769,574.9314917546926L685.3846153846154,574.9325610260654L688.8461538461538,574.9234723334513L692.3076923076924,574.9410377358491L695.7692307692308,574.9367047034482L699.2307692307693,574.9402830863493L702.6923076923077,574.9240081325257L706.1538461538462,574.9291432337901L709.6153846153846,574.9401939050399L713.0769230769231,574.9283380829917L716.5384615384615,574.9328786309375L720,574.9188215916492L723.4615384615385,574.9607337345944L726.9230769230769,574.975633202932L730.3846153846154,574.9384269484336L733.8461538461538,574.9425091336032L737.3076923076923,574.9382451283351L740.7692307692307,574.9172157159657L744.2307692307692,574.914767830123L747.6923076923077,574.9227116221865L751.1538461538462,574.9212719298246L754.6153846153846,574.9273648701071L758.0769230769231,574.9317595550458L761.5384615384615,574.8969548676049L765,574.9219384750139L768.4615384615385,574.9869236556443L771.9230769230769,574.9228606092247L775.3846153846155,574.9302124632987L778.8461538461539,574.929211892402L782.3076923076924,574.9835921046188L785.7692307692308,574.9488678284841L789.2307692307692,574.9305555555555L792.6923076923076,574.9188482043636L796.1538461538461,574.9184913722175L799.6153846153845,574.9702834249388L803.0769230769231,574.9729080679527L806.5384615384615,574.9451483207866L810,574.9229654334491L813.4615384615385,574.9315763474452L816.9230769230769,574.9674280879865L820.3846153846154,574.921985182306L823.8461538461538,574.967362228571L827.3076923076923,574.9640467688499L830.7692307692308,574.9162337462728L834.2307692307693,574.9136286144754L837.6923076923077,574.910651509386L841.1538461538462,574.9248619888592L844.6153846153846,574.913446094664L848.0769230769231,574.9240046887326L851.5384615384615,574.9481440715731L855,574.9258887666663L858.4615384615385,574.9140342711268L861.9230769230769,574.9268036234228L865.3846153846154,574.9431652029544L868.8461538461538,574.9496662347443L872.3076923076923,574.9109796767334L875.7692307692307,574.94668861593L879.2307692307692,574.9680588110438L882.6923076923076,574.967277486911L886.1538461538462,574.9285061682277" style="fill: none; stroke: #1f77b4; stroke-width: 2;"></path></g></g><path class="foreground" d="" style="display: none; fill: none;"></path></g><g transform="translate(0,0)"><path class="background" d="M0,0h900v600h-900Z" style="fill: none;"></path><g><g class="mark-line role-mark marks"><path d="M6.923076923076923,584.8231395270194L10.384615384615385,580.1026694045174L13.846153846153847,577.970753655793L17.30769230769231,576.7942875742534L20.76923076923077,576.0642659526005L24.230769230769234,575.6236576460482L27.692307692307693,575.2761327640821L31.153846153846157,576.5521101849587L34.61538461538462,575.9025243538317L38.07692307692308,575.738156084136L41.53846153846154,575.6078118772419L45,575.4150265274687L48.46153846153847,575.2745621846245L51.92307692307693,575.1865066493675L55.38461538461539,575.0229568411387L58.84615384615385,574.9770805745136L62.307692307692314,574.9851137911894L65.76923076923077,574.8986547900381L69.23076923076924,574.8355263157895L72.6923076923077,574.7773914993832L76.15384615384616,574.7336097036696L79.61538461538461,574.7414247094758L83.07692307692308,574.7327677966648L86.53846153846155,574.6497835645387L90,574.6489348291946L93.46153846153847,574.594839956658L96.92307692307693,574.6149450828518L100.38461538461539,574.5604982206405L103.84615384615385,574.5449705520248L107.3076923076923,574.5275664213547L110.76923076923077,574.6696932658168L114.23076923076923,574.5210569777043L117.6923076923077,574.5209386749643L121.15384615384615,574.4802091417835L124.61538461538463,574.4694657962841L128.07692307692307,574.4617579282344L131.53846153846155,574.4477984802749L135,574.4546532305868L138.46153846153848,574.569932685116L141.9230769230769,574.4025438910785L145.3846153846154,574.4042335268009L148.84615384615384,574.4155949861631L152.30769230769232,574.4094549412954L155.76923076923077,574.403301360696L159.23076923076923,574.3953306285144L162.69230769230768,574.3805430481648L166.15384615384616,574.3597800471327L169.6153846153846,574.3595703247692L173.0769230769231,574.3450440661596L176.53846153846155,574.3669565217391L180,574.3582306018855L183.46153846153845,574.3373817712812L186.92307692307693,574.3615205585726L190.3846153846154,574.3119036914931L193.84615384615387,574.3544352511065L197.3076923076923,574.3102325581395L200.76923076923077,574.2998382167895L204.23076923076923,574.3556075576356L207.6923076923077,574.283553239768L211.15384615384616,574.325432259112L214.6153846153846,574.3058231431604L218.07692307692307,574.2773817239145L221.53846153846155,574.285608774327L225,574.2664182580345L228.46153846153845,574.2785689475512L231.9230769230769,574.2802736678912L235.3846153846154,574.2572701074142L238.84615384615384,574.2632281862121L242.3076923076923,574.2551613302015L245.76923076923075,574.2582079240636L249.23076923076925,574.2601787487587L252.6923076923077,574.2406664960619L256.15384615384613,574.266205943331L259.6153846153846,574.2770679219906L263.0769230769231,574.2339080007347L266.53846153846155,574.2454517579722L270,574.2434505428828L273.46153846153845,574.2232750242955L276.92307692307696,574.2412046024907L280.3846153846154,574.2551472624873L283.8461538461538,574.2299975201208L287.30769230769226,574.2382314122306L290.7692307692308,574.2210569297887L294.2307692307692,574.2262092120449L297.6923076923077,574.2072332656368L301.15384615384613,574.2107267406902L304.61538461538464,574.21497963021L308.0769230769231,574.209074716056L311.53846153846155,574.207204000974L315,574.2199717984873L318.46153846153845,574.2126957955483L321.9230769230769,574.2133323979726L325.38461538461536,574.2461337996776L328.8461538461538,574.2090841850458L332.3076923076923,574.2205548425313L335.7692307692308,574.2027933681699L339.2307692307692,574.2007458441312L342.6923076923077,574.1827168910858L346.1538461538462,574.2115562567316L349.61538461538464,574.1908262888439L353.0769230769231,574.2020741259353L356.53846153846155,574.1829139110768L360,574.1832579820841L363.46153846153845,574.1870842457547L366.9230769230769,574.1858233664437L370.38461538461536,574.1838656621393L373.84615384615387,574.2047612852868L377.3076923076923,574.1816438706379L380.7692307692308,574.1936293266758L384.2307692307692,574.1806370494552L387.69230769230774,574.20241465244L391.1538461538462,574.1887039239001L394.6153846153846,574.1853617498598L398.07692307692304,574.1746691784599L401.53846153846155,574.1846949024388L405,574.1708380967181L408.46153846153845,574.1934499149622L411.9230769230769,574.175668572532L415.3846153846154,574.1720386997395L418.84615384615387,574.1939263237566L422.3076923076923,574.1860844725567L425.7692307692308,574.1680727973967L429.2307692307692,574.1796809403862L432.6923076923077,574.1697865512714L436.15384615384613,574.1833904076831L439.6153846153846,574.1768301296842L443.0769230769231,574.168513795502L446.53846153846155,574.1549804036214L450,574.1776020133021L453.46153846153845,574.150311450571L456.9230769230769,574.1893658179537L460.38461538461536,574.1517818769448L463.8461538461538,574.1736467164153L467.3076923076923,574.1452688324586L470.7692307692308,574.2015096816541L474.2307692307692,574.1457070625223L477.6923076923077,574.1922420802576L481.15384615384613,574.2018410593946L484.6153846153846,574.1709430861537L488.07692307692304,574.1455596949274L491.5384615384615,574.1769558175449L495.00000000000006,574.1498364069007L498.4615384615385,574.1469138699836L501.92307692307696,574.163293335261L505.3846153846154,574.1627926874482L508.8461538461538,574.1490035466982L512.3076923076923,574.1841375485302L515.7692307692307,574.1516450702682L519.2307692307692,574.1552307785863L522.6923076923077,574.1555930417853L526.1538461538462,574.1523477345268L529.6153846153846,574.1483204167939L533.0769230769231,574.1798060789262L536.5384615384615,574.1566954992122L540,574.1647984513066L543.4615384615385,574.1407889215275L546.9230769230769,574.1510537215252L550.3846153846155,574.170813500649L553.8461538461539,574.1349594075765L557.3076923076924,574.1519826372595L560.7692307692308,574.1411448311038L564.2307692307692,574.1429806332686L567.6923076923076,574.1571712787122L571.1538461538461,574.218319156403L574.6153846153845,574.143673244101L578.0769230769231,574.1593995944974L581.5384615384615,574.1645622102446L585,574.1434436923863L588.4615384615385,574.1382940643884L591.9230769230769,574.1407778101461L595.3846153846154,574.1310810949828L598.8461538461538,574.1654691966711L602.3076923076923,574.1403686825803L605.7692307692308,574.1247775911255L609.2307692307693,574.1487768837659L612.6923076923077,574.1351729362743L616.1538461538462,574.1486686248536L619.6153846153846,574.1429432679664L623.0769230769231,574.1418162698114L626.5384615384615,574.1445377058922L630,574.1470626044479L633.4615384615385,574.1289569113598L636.9230769230769,574.1441150044924L640.3846153846154,574.1409961822053L643.8461538461538,574.1597430613832L647.3076923076923,574.2356816261079L650.7692307692307,574.1403916505272L654.2307692307692,574.1370454603532L657.6923076923076,574.136150808535L661.1538461538462,574.1352590114982L664.6153846153846,574.1388531246905L668.0769230769231,574.13475206274L671.5384615384615,574.1822862653792L675,574.1437239757287L678.4615384615385,574.1482531212641L681.9230769230769,574.1826129150916L685.3846153846154,574.13933996857L688.8461538461538,574.1213712405437L692.3076923076924,574.1410453862682L695.7692307692308,574.2103524022305L699.2307692307693,574.1451323739345L702.6923076923077,574.1294794528642L706.1538461538462,574.1312320602593L709.6153846153846,574.2383375222215L713.0769230769231,574.1977803450015L716.5384615384615,574.1380448906846L720,574.1393229349798L723.4615384615385,574.4082808628254L726.9230769230769,574.2710649864097L730.3846153846154,574.1738154222031L733.8461538461538,574.1769242728423L737.3076923076923,574.3860983345234L740.7692307692307,574.1380707827022L744.2307692307692,574.1729221991428L747.6923076923077,574.1784762034983L751.1538461538462,574.2029634690248L754.6153846153846,574.1771876777918L758.0769230769231,574.3301198901846L761.5384615384615,574.2005073356725L765,574.1412999470554L768.4615384615385,574.1987657210431L771.9230769230769,574.3580978610339L775.3846153846155,574.1653794665843L778.8461538461539,574.2168822687047L782.3076923076924,574.3620875470584L785.7692307692308,574.3615056589526L789.2307692307692,574.2422440628169L792.6923076923076,574.2038467214325L796.1538461538461,574.1466051068577L799.6153846153845,574.294276168697L803.0769230769231,574.3646408839779L806.5384615384615,574.364951947114L810,574.2687969924812L813.4615384615385,574.7134191998363L816.9230769230769,574.3707401051338L820.3846153846154,574.3078889307432L823.8461538461538,574.3290537226216L827.3076923076923,574.3503572513438L830.7692307692308,574.200143859492L834.2307692307693,574.1925644416797L837.6923076923077,574.1913842357126L841.1538461538462,574.1637068379764L844.6153846153846,574.2467105849065L848.0769230769231,574.2303904237588L851.5384615384615,574.2521198530369L855,574.2208871976L858.4615384615385,574.269085289174L861.9230769230769,574.2864984337949L865.3846153846154,574.3359347637577L868.8461538461538,574.3189104293301L872.3076923076923,574.3312029217074L875.7692307692307,574.3168123337496L879.2307692307692,574.298402045307L882.6923076923076,574.3019441648321L886.1538461538462,574.2553638894987" style="fill: none; stroke: #aec7e8; stroke-width: 2;"></path></g></g><path class="foreground" d="" style="display: none; fill: none;"></path></g><g transform="translate(0,0)"><path class="background" d="M0,0h900v600h-900Z" style="fill: none;"></path><g><g class="mark-line role-mark marks"><path d="M6.923076923076923,590.4366843850934L10.384615384615385,587.4738482695393L13.846153846153847,585.8361843429261L17.30769230769231,584.2278196971938L20.76923076923077,582.8714443338088L24.230769230769234,582.8630207440425L27.692307692307693,581.0280773929478L31.153846153846157,580.926273458445L34.61538461538462,579.9347140512328L38.07692307692308,579.5587796879659L41.53846153846154,579.1925201869954L45,578.5196261682242L48.46153846153847,580.125260960334L51.92307692307693,579.5738545338032L55.38461538461539,579.649815555671L58.84615384615385,580.2787565229027L62.307692307692314,579.0729483282676L65.76923076923077,579.0100326822223L69.23076923076924,578.8844466871094L72.6923076923077,578.4739071136314L76.15384615384616,578.236402711192L79.61538461538461,579.9786909229693L83.07692307692308,577.9054250072527L86.53846153846155,577.7719665271967L90,577.6470969624274L93.46153846153847,577.5434887654022L96.92307692307693,578.0998389694041L100.38461538461539,577.956458725215L103.84615384615385,578.5660250483315L107.3076923076923,577.0965932987523L110.76923076923077,577.0433865224845L114.23076923076923,577.5418520016175L117.6923076923077,577.429654301137L121.15384615384615,579.1833266693322L124.61538461538463,577.3914828116983L128.07692307692307,577.4267701260911L131.53846153846155,577.2955974842768L135,578.1465517241379L138.46153846153848,577.1486179954633L141.9230769230769,576.7439778645834L145.3846153846154,576.9518100069172L148.84615384615384,576.856869385952L152.30769230769232,577.1174302996593L155.76923076923077,576.7398648648649L159.23076923076923,576.7877653739433L162.69230769230768,576.6446918340692L166.15384615384616,576.512353082274L169.6153846153846,576.270565664787L173.0769230769231,577.446402037784L176.53846153846155,576.472810471427L180,576.7439036729737L183.46153846153845,576.3364717542121L186.92307692307693,576.2221795855718L190.3846153846154,576.0356959783774L193.84615384615387,575.9682654165164L197.3076923076923,576.2479573406727L200.76923076923077,576.3725004131549L204.23076923076923,577.2789402956422L207.6923076923077,575.8798723052063L211.15384615384616,576.1114048338369L214.6153846153846,575.7638245002411L218.07692307692307,577.2818181818182L221.53846153846155,576.9659278862058L225,575.7724482223572L228.46153846153845,576.0031109238796L231.9230769230769,575.9036943479634L235.3846153846154,576.9430674918606L238.84615384615384,576.9061545924045L242.3076923076923,575.8109010657141L245.76923076923075,575.5702842156276L249.23076923076925,575.5478482838988L252.6923076923077,575.8347782016058L256.15384615384613,576.7374681393374L259.6153846153846,576.8209913949823L263.0769230769231,575.6262721540982L266.53846153846155,575.3845214545632L270,575.3519851294028L273.46153846153845,575.3457731096343L276.92307692307696,575.6708407871199L280.3846153846154,575.3258561189275L283.8461538461538,577.4837985305414L287.30769230769226,575.3066818478926L290.7692307692308,575.2349492113304L294.2307692307692,576.533692516383L297.6923076923077,575.3910592656384L301.15384615384613,575.3197406782263L304.61538461538464,575.2806203879302L308.0769230769231,575.387582021897L311.53846153846155,576.5409383624656L315,575.2244768659474L318.46153846153845,576.4973375583941L321.9230769230769,575.391142799759L325.38461538461536,575.1682867155988L328.8461538461538,575.3633079084706L332.3076923076923,575.1763475615553L335.7692307692308,575.3736605493287L339.2307692307692,576.452296819788L342.6923076923077,575.4899307138969L346.1538461538462,576.7228513137896L349.61538461538464,575.4516371048794L353.0769230769231,575.4711119740382L356.53846153846155,575.192159559835L360,576.2534385452855L363.46153846153845,575.4361017548918L366.9230769230769,575.3023015257305L370.38461538461536,575.2944237823841L373.84615384615387,575.2970636235658L377.3076923076923,575.2878921352714L380.7692307692308,575.074521968834L384.2307692307692,575.2444155537171L387.69230769230774,575.1491067578748L391.1538461538462,575.2225228001689L394.6153846153846,576.353205608477L398.07692307692304,575.1489460478175L401.53846153846155,575.117801901364L405,575.1441388518024L408.46153846153845,576.2798621131955L411.9230769230769,575.0454027158702L415.3846153846154,575.0667128394207L418.84615384615387,575.0496706998005L422.3076923076923,576.3538493168608L425.7692307692308,575.190944255274L429.2307692307692,575.192703736393L432.6923076923077,575.196791573679L436.15384615384613,578.4012100162456L439.6153846153846,575.0781214495414L443.0769230769231,575.1352026924485L446.53846153846155,575.2081781454574L450,575.2212236730892L453.46153846153845,576.2867500629943L456.9230769230769,576.2691876301875L460.38461538461536,575.2745825145329L463.8461538461538,576.2190713617949L467.3076923076923,576.3061898716752L470.7692307692308,575.1332969544552L474.2307692307692,576.2947251114414L477.6923076923077,576.3234799397388L481.15384615384613,576.329300019458L484.6153846153846,576.2446261665585L488.07692307692304,576.2709924736015L491.5384615384615,576.514613793009L495.00000000000006,575.3970006440335L498.4615384615385,576.440773117331L501.92307692307696,576.4714207661065L505.3846153846154,576.4517659291029L508.8461538461538,576.4895584668259L512.3076923076923,576.4766230566593L515.7692307692307,576.4330895989309L519.2307692307692,576.4592206001822L522.6923076923077,575.3562255226082L526.1538461538462,576.4765914630859L529.6153846153846,576.4643226779431L533.0769230769231,576.4675530859298L536.5384615384615,576.4688767514749L540,576.3899399065212L543.4615384615385,576.4573653428021L546.9230769230769,575.211270896368L550.3846153846155,576.3774424931981L553.8461538461539,576.3528382571086L557.3076923076924,576.4952847297787L560.7692307692308,576.468863232401L564.2307692307692,576.4403932921264L567.6923076923076,576.4512473991059L571.1538461538461,576.4032140471808L574.6153846153845,576.3288529560384L578.0769230769231,576.377383497008L581.5384615384615,576.2034231186982L585,576.3854208716544L588.4615384615385,576.3903639238225L591.9230769230769,576.3485364646772L595.3846153846154,576.3484934702151L598.8461538461538,576.3355395041L602.3076923076923,576.1889737551872L605.7692307692308,576.2735384727564L609.2307692307693,576.1561240661082L612.6923076923077,576.3490667839015L616.1538461538462,576.2457331863286L619.6153846153846,576.3053653613592L623.0769230769231,576.2633270989373L626.5384615384615,576.2574124046672L630,576.1934597416873L633.4615384615385,576.2167886504913L636.9230769230769,576.1400541412232L640.3846153846154,576.2583396241813L643.8461538461538,576.2176806929292L647.3076923076923,576.2676902563366L650.7692307692307,576.1748833225611L654.2307692307692,576.2454329950946L657.6923076923076,576.9572449320582L661.1538461538462,576.2278637248739L664.6153846153846,576.1720119389365L668.0769230769231,576.4077315420238L671.5384615384615,576.1977358883643L675,576.110271372978L678.4615384615385,576.1487162631022L681.9230769230769,576.2714625847893L685.3846153846154,576.1837069436851L688.8461538461538,576.1262948108273L692.3076923076924,576.0964858318949L695.7692307692308,576.145809817208L699.2307692307693,576.1393249769534L702.6923076923077,576.275280746671L706.1538461538462,576.1113474746247L709.6153846153846,576.1782897917674L713.0769230769231,576.2311869052953L716.5384615384615,576.1127215966105L720,576.1897855588936L723.4615384615385,576.1190098697857L726.9230769230769,576.1305892691128L730.3846153846154,576.0817545467473L733.8461538461538,576.1533827921885L737.3076923076923,576.1802801764073L740.7692307692307,576.0421468554495L744.2307692307692,576.0898140006146L747.6923076923077,576.0535476527615L751.1538461538462,576.0524772793902L754.6153846153846,576.0994470888593L758.0769230769231,576.1559719955782L761.5384615384615,576.0551534676083L765,576.2309128072416L768.4615384615385,575.9661966013012L771.9230769230769,576.2062870636446L775.3846153846155,576.0844258526137L778.8461538461539,576.1674983523209L782.3076923076924,576.1496245103802L785.7692307692308,576.1372879647614L789.2307692307692,576.1950452137045L792.6923076923076,576.152086799741L796.1538461538461,576.115605462629L799.6153846153845,576.2449983240457L803.0769230769231,576.1251604688299L806.5384615384615,576.1744668437616L810,576.1980960563359L813.4615384615385,576.2283666932533L816.9230769230769,576.094568186753L820.3846153846154,576.2667180334795L823.8461538461538,576.2237997061765L827.3076923076923,576.1278498625772L830.7692307692308,576.0463807823088L834.2307692307693,576.1156990807934L837.6923076923077,576.082142350926L841.1538461538462,576.0457163856422L844.6153846153846,576.1348373953067L848.0769230769231,576.1155479198753L851.5384615384615,576.041527906511L855,576.0652397161484L858.4615384615385,576.0630036630037L861.9230769230769,576.1674267793306L865.3846153846154,576.1992764580043L868.8461538461538,576.1432673181315L872.3076923076923,576.1453594101126L875.7692307692307,576.2002007825708L879.2307692307692,575.9784834606936L882.6923076923076,576.2351876375894L886.1538461538462,576.0917093353133" style="fill: none; stroke: #2ca02c; stroke-width: 2;"></path></g></g><path class="foreground" d="" style="display: none; fill: none;"></path></g><g transform="translate(0,0)"><path class="background" d="M0,0h900v600h-900Z" style="fill: none;"></path><g><g class="mark-line role-mark marks"><path d="M6.923076923076923,589.7649052534279L10.384615384615385,585.5583066366181L13.846153846153847,584.2610510339593L17.30769230769231,583.5062531546184L20.76923076923077,583.0452936732016L24.230769230769234,582.7077234257732L27.692307692307693,582.4951124830457L31.153846153846157,582.5240228962159L34.61538461538462,582.2491385611361L38.07692307692308,582.1332406844436L41.53846153846154,582.8114028928521L45,582.6938136256853L48.46153846153847,582.5768667642752L51.92307692307693,582.4844815304773L55.38461538461539,582.407473948976L58.84615384615385,582.490397180533L62.307692307692314,582.3673469387755L65.76923076923077,582.3077477477477L69.23076923076924,582.2413736819769L72.6923076923077,582.1809106651726L76.15384615384616,582.1368979313339L79.61538461538461,582.140800317744L83.07692307692308,582.0801561642164L86.53846153846155,582.0387118586764L90,582.06504775579L93.46153846153847,581.9801087620322L96.92307692307693,582.0092464482166L100.38461538461539,581.9470926194836L103.84615384615385,581.924152325444L107.3076923076923,581.9220980413854L110.76923076923077,581.9344126193441L114.23076923076923,581.8996871333594L117.6923076923077,582.1296717286533L121.15384615384615,581.8486882245271L124.61538461538463,581.8711429276722L128.07692307692307,581.8463338533542L131.53846153846155,581.8391654953022L135,581.8023787740165L138.46153846153848,581.8011508095811L141.9230769230769,581.7783587323854L145.3846153846154,581.7702127659575L148.84615384615384,581.7557606361368L152.30769230769232,581.7560975609756L155.76923076923077,581.7441798801506L159.23076923076923,581.7373204041224L162.69230769230768,581.7233659415L166.15384615384616,581.7245240761478L169.6153846153846,581.6873794248285L173.0769230769231,581.7102035546758L176.53846153846155,581.692199403776L180,581.6904325659204L183.46153846153845,581.6799662395458L186.92307692307693,581.6624126068139L190.3846153846154,581.6699340581001L193.84615384615387,581.6620803522289L197.3076923076923,581.643457742032L200.76923076923077,581.6422701592193L204.23076923076923,581.6266145057128L207.6923076923077,581.6436712657468L211.15384615384616,581.6289605901316L214.6153846153846,581.7198164932304L218.07692307692307,581.609474229333L221.53846153846155,581.6492291474502L225,581.5989034919171L228.46153846153845,581.60244465976L231.9230769230769,581.6015719176431L235.3846153846154,581.6065704190747L238.84615384615384,581.5884895359418L242.3076923076923,581.5765028530985L245.76923076923075,581.5784608770422L249.23076923076925,581.5878321912085L252.6923076923077,581.5755541997153L256.15384615384613,581.5725088087414L259.6153846153846,581.5637772807897L263.0769230769231,581.568840919756L266.53846153846155,581.5583203732505L270,581.5603494384026L273.46153846153845,581.5483478260869L276.92307692307696,581.6275181951738L280.3846153846154,581.5348321303225L283.8461538461538,581.5411943287149L287.30769230769226,581.5375277852222L290.7692307692308,581.5484009906321L294.2307692307692,581.5378487253488L297.6923076923077,581.5336260960242L301.15384615384613,581.5376999784777L304.61538461538464,581.5342319722834L308.0769230769231,581.5265049662514L311.53846153846155,581.5187630858431L315,581.5253280839895L318.46153846153845,581.5691247486197L321.9230769230769,581.5213211175206L325.38461538461536,581.5162366028031L328.8461538461538,581.5168417501927L332.3076923076923,581.528013582343L335.7692307692308,581.5066133284002L339.2307692307692,581.5048257737097L342.6923076923077,581.5034413854352L346.1538461538462,581.5020347761746L349.61538461538464,581.5035677336092L353.0769230769231,581.503806575755L356.53846153846155,581.497512182611L360,581.4980881465084L363.46153846153845,581.4896201631541L366.9230769230769,581.4905472058297L370.38461538461536,581.4832749828754L373.84615384615387,581.5726035035547L377.3076923076923,581.4888508033104L380.7692307692308,581.5111095131948L384.2307692307692,581.4883914130925L387.69230769230774,581.482941569775L391.1538461538462,581.4765163668635L394.6153846153846,581.4825245159668L398.07692307692304,581.4792694680825L401.53846153846155,581.4784706815864L405,581.4729274642336L408.46153846153845,581.4769428206994L411.9230769230769,581.4697958680994L415.3846153846154,581.4776983316309L418.84615384615387,581.4993235910625L422.3076923076923,581.4746860929091L425.7692307692308,581.4934448170161L429.2307692307692,581.5075945695468L432.6923076923077,581.4789635889498L436.15384615384613,581.4868572682873L439.6153846153846,581.5033155917133L443.0769230769231,581.4730904567738L446.53846153846155,581.4665129290295L450,581.4554233043299L453.46153846153845,581.4557046510594L456.9230769230769,581.4586084942569L460.38461538461536,581.4579569488035L463.8461538461538,581.4545830118411L467.3076923076923,581.4589292767292L470.7692307692308,581.4543631484266L474.2307692307692,581.4602386956573L477.6923076923077,581.4508264817945L481.15384615384613,581.4481383579595L484.6153846153846,581.4538572859847L488.07692307692304,581.4461462450593L491.5384615384615,581.4451427117672L495.00000000000006,581.4503727182015L498.4615384615385,581.4573744536029L501.92307692307696,581.4691441873487L505.3846153846154,581.4506849034583L508.8461538461538,581.4391313574308L512.3076923076923,581.4554998331648L515.7692307692307,581.4438620988043L519.2307692307692,581.4545454545455L522.6923076923077,581.4440545547678L526.1538461538462,581.4498448517709L529.6153846153846,581.4372008844026L533.0769230769231,581.4595203605344L536.5384615384615,581.4654722520977L540,581.4466443931207L543.4615384615385,581.4385949369893L546.9230769230769,581.4488977868311L550.3846153846155,581.4400093279957L553.8461538461539,581.4495916523163L557.3076923076924,581.4443022090468L560.7692307692308,581.4455215780215L564.2307692307692,581.4424175192079L567.6923076923076,581.4462172734503L571.1538461538461,581.454582610403L574.6153846153845,581.460881816347L578.0769230769231,581.458014759657L581.5384615384615,581.4948859166011L585,581.5024363111316L588.4615384615385,581.4561787574545L591.9230769230769,581.4544416712369L595.3846153846154,581.4442361900265L598.8461538461538,581.4389735844652L602.3076923076923,581.4411042480232L605.7692307692308,581.4366143950252L609.2307692307693,581.4408413425108L612.6923076923077,581.4422999864108L616.1538461538462,581.4419151113393L619.6153846153846,581.4391153970661L623.0769230769231,581.437295264286L626.5384615384615,581.4358664964484L630,581.4397120575885L633.4615384615385,581.4420014668732L636.9230769230769,581.4536092108104L640.3846153846154,581.4351854806288L643.8461538461538,581.4394455805499L647.3076923076923,581.4527421236872L650.7692307692307,581.4364012729014L654.2307692307692,581.4413112108774L657.6923076923076,581.4375115316095L661.1538461538462,581.434772326547L664.6153846153846,581.4278347765786L668.0769230769231,581.4456789906412L671.5384615384615,581.439984219351L675,581.4403020428085L678.4615384615385,581.4387503659261L681.9230769230769,581.4620405571337L685.3846153846154,581.4530487753972L688.8461538461538,581.4304431535453L692.3076923076924,581.449553698086L695.7692307692308,581.4577748260697L699.2307692307693,581.4466254944808L702.6923076923077,581.4498721051544L706.1538461538462,581.4416536600081L709.6153846153846,581.5060496709829L713.0769230769231,581.455610137294L716.5384615384615,581.4409610313508L720,581.426930001995L723.4615384615385,581.7959246711349L726.9230769230769,581.5132184063935L730.3846153846154,581.4379365484225L733.8461538461538,581.4398289850848L737.3076923076923,581.5869048301151L740.7692307692307,581.4304080371902L744.2307692307692,581.5336369447108L747.6923076923077,581.4482123059219L751.1538461538462,581.4986433329173L754.6153846153846,581.4838022116542L758.0769230769231,581.6298928214961L761.5384615384615,581.4908545295442L765,581.4357964212969L768.4615384615385,581.5481179841474L771.9230769230769,581.65415606032L775.3846153846155,581.5524624341463L778.8461538461539,581.5799949916849L782.3076923076924,581.6493542449072L785.7692307692308,581.6172538979707L789.2307692307692,581.665203995892L792.6923076923076,581.5396004340228L796.1538461538461,581.5051322075587L799.6153846153845,581.6407679354953L803.0769230769231,581.6593805935895L806.5384615384615,581.6747810892917L810,581.681442574688L813.4615384615385,582.6438572944513L816.9230769230769,581.6299653487822L820.3846153846154,581.6956316709606L823.8461538461538,581.6033287737183L827.3076923076923,581.799392723933L830.7692307692308,581.5527560657183L834.2307692307693,581.5050144044716L837.6923076923077,581.4766054670348L841.1538461538462,581.4958930269939L844.6153846153846,581.6123728496397L848.0769230769231,581.600670033664L851.5384615384615,581.5884344732302L855,581.5443022657834L858.4615384615385,581.7138060093042L861.9230769230769,581.7561420574724L865.3846153846154,581.6880119816415L868.8461538461538,581.7042767923033L872.3076923076923,581.8843456708914L875.7692307692307,582.0306624766126L879.2307692307692,581.6018908532157L882.6923076923076,581.9987102678637L886.1538461538462,582.4387229790011" style="fill: none; stroke: #98df8a; stroke-width: 2;"></path></g></g><path class="foreground" d="" style="display: none; fill: none;"></path></g><g transform="translate(0,0)"><path class="background" d="M0,0h900v600h-900Z" style="fill: none;"></path><g><g class="mark-line role-mark marks"><path d="M6.923076923076923,577.1225697379543L10.384615384615385,547.2212591873526L13.846153846153847,509.18730286557945L17.30769230769231,476.29704537460435L20.76923076923077,431.0878637805353L24.230769230769234,428.33340286179134L27.692307692307693,380.4379562043796L31.153846153846157,427.6903189110229L34.61538461538462,394.4209827190817L38.07692307692308,362.30661937112967L41.53846153846154,344.52097683155915L45,325.59722335480717L48.46153846153847,282.21025358549076L51.92307692307693,246.60923699158383L55.38461538461539,160.02741603838254L58.84615384615385,284.8696711913601L62.307692307692314,258.86070923787895L65.76923076923077,251.92726868327404L69.23076923076924,233.38460293046225L72.6923076923077,208.95162017862563L76.15384615384616,144.69409853816998L79.61538461538461,138.87382440611356L83.07692307692308,177.0375081880061L86.53846153846155,242.70352701962926L90,196.1639397375669L93.46153846153847,167.30960514417765L96.92307692307693,226.02622410170486L100.38461538461539,143.4942259592358L103.84615384615385,70.13991582300076L107.3076923076923,124.15014563562907L110.76923076923077,77.27966239246882L114.23076923076923,168.2946635730858L117.6923076923077,137.49062740228257L121.15384615384615,136.66580517568795L124.61538461538463,91.69364141643655L128.07692307692307,120.27621272502411L131.53846153846155,100.80195221657928L135,95.69354855093815L138.46153846153848,62.83012882826646L141.9230769230769,181.73691153672092L145.3846153846154,112.49957957284597L148.84615384615384,141.8063613305734L152.30769230769232,134.51175107580266L155.76923076923077,148.62155105178076L159.23076923076923,111.2966874343271L162.69230769230768,150.8387461169162L166.15384615384616,62.732927059119106L169.6153846153846,182.75491949910554L173.0769230769231,175.67891373801922L176.53846153846155,192.88279163981207L180,142.51592356687897L183.46153846153845,152.1616805776985L186.92307692307693,122.5657324472695L190.3846153846154,141.58495275450164L193.84615384615387,103.47396852007083L197.3076923076923,172.5661662281381L200.76923076923077,184.0570223288967L204.23076923076923,167.76714630048934L207.6923076923077,139.43407585791687L211.15384615384616,162.1746954595792L214.6153846153846,132.82813840434667L218.07692307692307,165.2232746955346L221.53846153846155,77.78611069446526L225,167.37140103601982L228.46153846153845,137.5218586060455L231.9230769230769,193.17091374346947L235.3846153846154,148.8262641336165L238.84615384615384,162.1950559852869L242.3076923076923,106.22406639004139L245.76923076923075,138.89157923056234L249.23076923076925,76.89202825428865L252.6923076923077,190.7969887076536L256.15384615384613,158.66624525916572L259.6153846153846,167.45991858069044L263.0769230769231,139.38913791306155L266.53846153846155,157.4725596370554L270,144.16923754958125L273.46153846153845,151.28148496240595L276.92307692307696,66.2014827736589L280.3846153846154,174.89921233166768L283.8461538461538,154.64415584415582L287.30769230769226,137.102766798419L290.7692307692308,98.08545260123664L294.2307692307692,172.35289566327523L297.6923076923077,102.07339611018216L301.15384615384613,146.35811657787528L304.61538461538464,79.74356722578378L308.0769230769231,163.98753389727608L311.53846153846155,130.4614685155717L315,154.15043547110054L318.46153846153845,127.11198751129726L321.9230769230769,145.7387811848304L325.38461538461536,105.77997121118653L328.8461538461538,147.7023989387184L332.3076923076923,75.99390538481543L335.7692307692308,150.25165190496273L339.2307692307692,157.11921877119224L342.6923076923077,175.3087363792774L346.1538461538462,128.2200714607833L349.61538461538464,131.11531702041364L353.0769230769231,119.78822331579843L356.53846153846155,136.814125200642L360,81.68569415081046L363.46153846153845,160.37429212880744L366.9230769230769,124.94706174944929L370.38461538461536,138.1276696725202L373.84615384615387,123.24792196194265L377.3076923076923,137.67404597625978L380.7692307692308,105.30800151166385L384.2307692307692,128.9320481927711L387.69230769230774,57.00426507097844L391.1538461538462,168.28598892903315L394.6153846153846,123.2516415425876L398.07692307692304,139.6838164321857L401.53846153846155,112.77529286474972L405,146.30946191837788L408.46153846153845,104.4543469808894L411.9230769230769,117.303168025665L415.3846153846154,51.015569936566884L418.84615384615387,155.0908657570161L422.3076923076923,145.10457242164557L425.7692307692308,138.81892352290717L429.2307692307692,120.98225466540424L432.6923076923077,139.00555362721278L436.15384615384613,85.52802134959978L439.6153846153846,138.25310842291395L443.0769230769231,94.39748283060541L446.53846153846155,152.49145785876996L450,154.22808378588056L453.46153846153845,143.3046336881653L456.9230769230769,122.56858257309557L460.38461538461536,130.86895475819034L463.8461538461538,121.08318428566946L467.3076923076923,129.6559995142094L470.7692307692308,90.36921780284605L474.2307692307692,141.24539912583384L477.6923076923077,136.65891445132206L481.15384615384613,149.85849864665784L484.6153846153846,115.31725482209869L488.07692307692304,137.50880914098045L491.5384615384615,107.44604419921255L495.00000000000006,116.55529673538918L498.4615384615385,49.14835765853049L501.92307692307696,158.33470631847769L505.3846153846154,132.67949833962012L508.8461538461538,147.78046778826425L512.3076923076923,116.35808682663891L515.7692307692307,139.2671414038657L519.2307692307692,98.24549896697594L522.6923076923077,130.9003993706887L526.1538461538462,65.8761134153804L529.6153846153846,139.35293436740363L533.0769230769231,129.2063368494803L536.5384615384615,143.9649397052256L540,113.41357274473675L543.4615384615385,124.00643695569859L546.9230769230769,106.16190217602106L550.3846153846155,149.21648835745754L553.8461538461539,71.35279588614007L557.3076923076924,139.25449602676707L560.7692307692308,120.63178252927902L564.2307692307692,133.87719298245625L567.6923076923076,116.92340200739564L571.1538461538461,149.6935201401051L574.6153846153845,90.31443803721031L578.0769230769231,131.1846138633442L581.5384615384615,68.47457627118645L585,142.46419148134177L588.4615384615385,123.19487577639758L591.9230769230769,157.58543965824148L595.3846153846154,126.52231218226318L598.8461538461538,148.46201632942845L602.3076923076923,100.49301242236028L605.7692307692308,124.3696327425543L609.2307692307693,74.6687948922585L612.6923076923077,143.54388069934865L616.1538461538462,125.73038654574276L619.6153846153846,140.34008438818572L623.0769230769231,107.95068786850092L626.5384615384615,140.21547098159004L630,90.90678962119159L633.4615384615385,122.46854554604928L636.9230769230769,65.2494657623339L640.3846153846154,136.17267219387756L643.8461538461538,124.89538734954357L647.3076923076923,195.7341040462428L650.7692307692307,114.66235864297256L654.2307692307692,141.034691255385L657.6923076923076,92.97752808988761L661.1538461538462,129.88402061855672L664.6153846153846,67.14735141569592L668.0769230769231,140.43617098483205L671.5384615384615,166.72851628631403L675,139.35366635787074L678.4615384615385,111.64884468705598L681.9230769230769,124.57087266700293L685.3846153846154,96.0544423440453L688.8461538461538,116.78366350846964L692.3076923076924,82.06260949044102L695.7692307692308,173.74976726866498L699.2307692307693,129.52523060227884L702.6923076923077,129.41962786323634L706.1538461538462,102.83063949402667L709.6153846153846,213.80344883507223L713.0769230769231,121.19731864339276L716.5384615384615,148.70639985131038L720,74.27591136526091L723.4615384615385,189.12355447352408L726.9230769230769,148.21019645655062L730.3846153846154,151.73122482823976L733.8461538461538,120.49202962219157L737.3076923076923,185.33709677419355L740.7692307692307,107.38294102758796L744.2307692307692,153.4577792931015L747.6923076923077,72.67335948407691L751.1538461538462,207.41846893237212L754.6153846153846,140.30839260312945L758.0769230769231,188.19283802212243L761.5384615384615,148.01142606020653L765,138.98001110494164L768.4615384615385,162.60610806577918L771.9230769230769,210.40001843402925L775.3846153846155,132.96539640823474L778.8461538461539,190.06144612746502L782.3076923076924,181.14230583695127L785.7692307692308,209.82005255890604L789.2307692307692,166.92737430167602L792.6923076923076,163.9961852594512L796.1538461538461,142.96894851857505L799.6153846153845,224.90200132318893L803.0769230769231,163.59612724757955L806.5384615384615,239.7966591210678L810,216.31754667985652L813.4615384615385,263.52770410723247L816.9230769230769,197.34977673825222L820.3846153846154,220.78117553613976L823.8461538461538,194.10386106895962L827.3076923076923,261.2394906680621L830.7692307692308,98.9510310597145L834.2307692307693,175.65024926938284L837.6923076923077,145.10280544640406L841.1538461538462,148.75797896251018L844.6153846153846,144.8727403543484L848.0769230769231,210.30169944624788L851.5384615384615,146.05656797423106L855,149.8272494465905L858.4615384615385,166.81940589137005L861.9230769230769,211.90875952722854L865.3846153846154,211.06230324328277L868.8461538461538,237.55769881556682L872.3076923076923,226.53751686442735L875.7692307692307,233.50746017311653L879.2307692307692,209.07755916737955L882.6923076923076,243.84786390875703L886.1538461538462,202.55707762557077" style="fill: none; stroke: #ffbb78; stroke-width: 2;"></path></g></g><path class="foreground" d="" style="display: none; fill: none;"></path></g></g><g class="mark-group role-legend"><g transform="translate(918,0)"><path class="background" d="M0,0h101v92h-101Z" style="pointer-events: none; fill: none;"></path><g><g class="mark-group role-legend-entry"><g transform="translate(0,16)"><path class="background" d="M0,0h0v0h0Z" style="pointer-events: none; fill: none;"></path><g><g class="mark-group role-scope"><g transform="translate(0,0)"><path class="background" d="M0,0h101v11h-101Z" style="pointer-events: none; fill: none; opacity: 1;"></path><g><g class="mark-symbol role-legend-symbol" style="pointer-events: none;"><path transform="translate(6,6)" d="M-5,0L5,0" style="fill: none; stroke: #1f77b4; stroke-width: 1.5; opacity: 1;"></path></g><g class="mark-text role-legend-label" style="pointer-events: none;"><text text-anchor="start" transform="translate(16,9)" style="font-family: sans-serif; font-size: 10px; fill: #000; opacity: 1;">Clang</text></g></g><path class="foreground" d="" style="pointer-events: none; display: none; fill: none;"></path></g><g transform="translate(0,13)"><path class="background" d="M0,0h101v11h-101Z" style="pointer-events: none; fill: none; opacity: 1;"></path><g><g class="mark-symbol role-legend-symbol" style="pointer-events: none;"><path transform="translate(6,6)" d="M-5,0L5,0" style="fill: none; stroke: #aec7e8; stroke-width: 1.5; opacity: 1;"></path></g><g class="mark-text role-legend-label" style="pointer-events: none;"><text text-anchor="start" transform="translate(16,9)" style="font-family: sans-serif; font-size: 10px; fill: #000; opacity: 1;">GFortran</text></g></g><path class="foreground" d="" style="pointer-events: none; display: none; fill: none;"></path></g><g transform="translate(0,26)"><path class="background" d="M0,0h101v11h-101Z" style="pointer-events: none; fill: none; opacity: 1;"></path><g><g class="mark-symbol role-legend-symbol" style="pointer-events: none;"><path transform="translate(6,6)" d="M-5,0L5,0" style="fill: none; stroke: #ff7f0e; stroke-width: 1.5; opacity: 1;"></path></g><g class="mark-text role-legend-label" style="pointer-events: none;"><text text-anchor="start" transform="translate(16,9)" style="font-family: sans-serif; font-size: 10px; fill: #000; opacity: 1;">Julia</text></g></g><path class="foreground" d="" style="pointer-events: none; display: none; fill: none;"></path></g><g transform="translate(0,39)"><path class="background" d="M0,0h101v11h-101Z" style="pointer-events: none; fill: none; opacity: 1;"></path><g><g class="mark-symbol role-legend-symbol" style="pointer-events: none;"><path transform="translate(6,6)" d="M-5,0L5,0" style="fill: none; stroke: #ffbb78; stroke-width: 1.5; opacity: 1;"></path></g><g class="mark-text role-legend-label" style="pointer-events: none;"><text text-anchor="start" transform="translate(16,9)" style="font-family: sans-serif; font-size: 10px; fill: #000; opacity: 1;">LoopVectorization</text></g></g><path class="foreground" d="" style="pointer-events: none; display: none; fill: none;"></path></g><g transform="translate(0,52)"><path class="background" d="M0,0h101v11h-101Z" style="pointer-events: none; fill: none; opacity: 1;"></path><g><g class="mark-symbol role-legend-symbol" style="pointer-events: none;"><path transform="translate(6,6)" d="M-5,0L5,0" style="fill: none; stroke: #2ca02c; stroke-width: 1.5; opacity: 1;"></path></g><g class="mark-text role-legend-label" style="pointer-events: none;"><text text-anchor="start" transform="translate(16,9)" style="font-family: sans-serif; font-size: 10px; fill: #000; opacity: 1;">icc</text></g></g><path class="foreground" d="" style="pointer-events: none; display: none; fill: none;"></path></g><g transform="translate(0,65)"><path class="background" d="M0,0h101v11h-101Z" style="pointer-events: none; fill: none; opacity: 1;"></path><g><g class="mark-symbol role-legend-symbol" style="pointer-events: none;"><path transform="translate(6,6)" d="M-5,0L5,0" style="fill: none; stroke: #98df8a; stroke-width: 1.5; opacity: 1;"></path></g><g class="mark-text role-legend-label" style="pointer-events: none;"><text text-anchor="start" transform="translate(16,9)" style="font-family: sans-serif; font-size: 10px; fill: #000; opacity: 1;">ifort</text></g></g><path class="foreground" d="" style="pointer-events: none; display: none; fill: none;"></path></g></g></g><path class="foreground" d="" style="pointer-events: none; display: none; fill: none;"></path></g></g><g class="mark-text role-legend-title" style="pointer-events: none;"><text text-anchor="start" transform="translate(0,9)" style="font-family: sans-serif; font-size: 11px; font-weight: bold; fill: #000; opacity: 1;">Method</text></g></g><path class="foreground" d="" style="pointer-events: none; display: none; fill: none;"></path></g></g></g><path class="foreground" d="" style="display: none; fill: none;"></path></g></g></g></svg>
