<?xml version="1.0" encoding="utf-8"?>
<!DOCTYPE svg PUBLIC "-//W3C//DTD SVG 1.1//EN" "http://www.w3.org/Graphics/SVG/1.1/DTD/svg11.dtd">
<svg class="marks" width="1081" height="647" viewBox="0 0 1081 647" version="1.1" xmlns="http://www.w3.org/2000/svg" xmlns:xlink="http://www.w3.org/1999/xlink"><rect width="1081" height="647" style="fill: white;"></rect><g transform="translate(39,10)"><g class="mark-group role-frame root"><g transform="translate(0,0)"><path class="background" d="M0.5,0.5h900v600h-900Z" style="fill: none; stroke: #ddd;"></path><g><g class="mark-group role-axis"><g transform="translate(0.5,600.5)"><path class="background" d="M0,0h0v0h0Z" style="pointer-events: none; fill: none;"></path><g><g class="mark-rule role-axis-grid" style="pointer-events: none;"><line transform="translate(0,-600)" x2="0" y2="600" style="fill: none; stroke: #ddd; stroke-width: 1; opacity: 1;"></line><line transform="translate(35,-600)" x2="0" y2="600" style="fill: none; stroke: #ddd; stroke-width: 1; opacity: 1;"></line><line transform="translate(69,-600)" x2="0" y2="600" style="fill: none; stroke: #ddd; stroke-width: 1; opacity: 1;"></line><line transform="translate(104,-600)" x2="0" y2="600" style="fill: none; stroke: #ddd; stroke-width: 1; opacity: 1;"></line><line transform="translate(138,-600)" x2="0" y2="600" style="fill: none; stroke: #ddd; stroke-width: 1; opacity: 1;"></line><line transform="translate(173,-600)" x2="0" y2="600" style="fill: none; stroke: #ddd; stroke-width: 1; opacity: 1;"></line><line transform="translate(208,-600)" x2="0" y2="600" style="fill: none; stroke: #ddd; stroke-width: 1; opacity: 1;"></line><line transform="translate(242,-600)" x2="0" y2="600" style="fill: none; stroke: #ddd; stroke-width: 1; opacity: 1;"></line><line transform="translate(277,-600)" x2="0" y2="600" style="fill: none; stroke: #ddd; stroke-width: 1; opacity: 1;"></line><line transform="translate(312,-600)" x2="0" y2="600" style="fill: none; stroke: #ddd; stroke-width: 1; opacity: 1;"></line><line transform="translate(346,-600)" x2="0" y2="600" style="fill: none; stroke: #ddd; stroke-width: 1; opacity: 1;"></line><line transform="translate(381,-600)" x2="0" y2="600" style="fill: none; stroke: #ddd; stroke-width: 1; opacity: 1;"></line><line transform="translate(415,-600)" x2="0" y2="600" style="fill: none; stroke: #ddd; stroke-width: 1; opacity: 1;"></line><line transform="translate(450,-600)" x2="0" y2="600" style="fill: none; stroke: #ddd; stroke-width: 1; opacity: 1;"></line><line transform="translate(485,-600)" x2="0" y2="600" style="fill: none; stroke: #ddd; stroke-width: 1; opacity: 1;"></line><line transform="translate(519,-600)" x2="0" y2="600" style="fill: none; stroke: #ddd; stroke-width: 1; opacity: 1;"></line><line transform="translate(554,-600)" x2="0" y2="600" style="fill: none; stroke: #ddd; stroke-width: 1; opacity: 1;"></line><line transform="translate(588,-600)" x2="0" y2="600" style="fill: none; stroke: #ddd; stroke-width: 1; opacity: 1;"></line><line transform="translate(623,-600)" x2="0" y2="600" style="fill: none; stroke: #ddd; stroke-width: 1; opacity: 1;"></line><line transform="translate(658,-600)" x2="0" y2="600" style="fill: none; stroke: #ddd; stroke-width: 1; opacity: 1;"></line><line transform="translate(692,-600)" x2="0" y2="600" style="fill: none; stroke: #ddd; stroke-width: 1; opacity: 1;"></line><line transform="translate(727,-600)" x2="0" y2="600" style="fill: none; stroke: #ddd; stroke-width: 1; opacity: 1;"></line><line transform="translate(762,-600)" x2="0" y2="600" style="fill: none; stroke: #ddd; stroke-width: 1; opacity: 1;"></line><line transform="translate(796,-600)" x2="0" y2="600" style="fill: none; stroke: #ddd; stroke-width: 1; opacity: 1;"></line><line transform="translate(831,-600)" x2="0" y2="600" style="fill: none; stroke: #ddd; stroke-width: 1; opacity: 1;"></line><line transform="translate(865,-600)" x2="0" y2="600" style="fill: none; stroke: #ddd; stroke-width: 1; opacity: 1;"></line><line transform="translate(900,-600)" x2="0" y2="600" style="fill: none; stroke: #ddd; stroke-width: 1; opacity: 1;"></line></g></g><path class="foreground" d="" style="pointer-events: none; display: none; fill: none;"></path></g></g><g class="mark-group role-axis"><g transform="translate(0.5,0.5)"><path class="background" d="M0,0h0v0h0Z" style="pointer-events: none; fill: none;"></path><g><g class="mark-rule role-axis-grid" style="pointer-events: none;"><line transform="translate(0,600)" x2="900" y2="0" style="fill: none; stroke: #ddd; stroke-width: 1; opacity: 1;"></line><line transform="translate(0,563)" x2="900" y2="0" style="fill: none; stroke: #ddd; stroke-width: 1; opacity: 1;"></line><line transform="translate(0,525)" x2="900" y2="0" style="fill: none; stroke: #ddd; stroke-width: 1; opacity: 1;"></line><line transform="translate(0,488)" x2="900" y2="0" style="fill: none; stroke: #ddd; stroke-width: 1; opacity: 1;"></line><line transform="translate(0,450)" x2="900" y2="0" style="fill: none; stroke: #ddd; stroke-width: 1; opacity: 1;"></line><line transform="translate(0,413)" x2="900" y2="0" style="fill: none; stroke: #ddd; stroke-width: 1; opacity: 1;"></line><line transform="translate(0,375)" x2="900" y2="0" style="fill: none; stroke: #ddd; stroke-width: 1; opacity: 1;"></line><line transform="translate(0,338)" x2="900" y2="0" style="fill: none; stroke: #ddd; stroke-width: 1; opacity: 1;"></line><line transform="translate(0,300)" x2="900" y2="0" style="fill: none; stroke: #ddd; stroke-width: 1; opacity: 1;"></line><line transform="translate(0,263)" x2="900" y2="0" style="fill: none; stroke: #ddd; stroke-width: 1; opacity: 1;"></line><line transform="translate(0,225)" x2="900" y2="0" style="fill: none; stroke: #ddd; stroke-width: 1; opacity: 1;"></line><line transform="translate(0,188)" x2="900" y2="0" style="fill: none; stroke: #ddd; stroke-width: 1; opacity: 1;"></line><line transform="translate(0,150)" x2="900" y2="0" style="fill: none; stroke: #ddd; stroke-width: 1; opacity: 1;"></line><line transform="translate(0,113)" x2="900" y2="0" style="fill: none; stroke: #ddd; stroke-width: 1; opacity: 1;"></line><line transform="translate(0,75)" x2="900" y2="0" style="fill: none; stroke: #ddd; stroke-width: 1; opacity: 1;"></line><line transform="translate(0,38)" x2="900" y2="0" style="fill: none; stroke: #ddd; stroke-width: 1; opacity: 1;"></line><line transform="translate(0,0)" x2="900" y2="0" style="fill: none; stroke: #ddd; stroke-width: 1; opacity: 1;"></line></g></g><path class="foreground" d="" style="pointer-events: none; display: none; fill: none;"></path></g></g><g class="mark-group role-axis"><g transform="translate(0.5,600.5)"><path class="background" d="M0,0h0v0h0Z" style="pointer-events: none; fill: none;"></path><g><g class="mark-rule role-axis-tick" style="pointer-events: none;"><line transform="translate(0,0)" x2="0" y2="5" style="fill: none; stroke: #888; stroke-width: 1; opacity: 1;"></line><line transform="translate(35,0)" x2="0" y2="5" style="fill: none; stroke: #888; stroke-width: 1; opacity: 1;"></line><line transform="translate(69,0)" x2="0" y2="5" style="fill: none; stroke: #888; stroke-width: 1; opacity: 1;"></line><line transform="translate(104,0)" x2="0" y2="5" style="fill: none; stroke: #888; stroke-width: 1; opacity: 1;"></line><line transform="translate(138,0)" x2="0" y2="5" style="fill: none; stroke: #888; stroke-width: 1; opacity: 1;"></line><line transform="translate(173,0)" x2="0" y2="5" style="fill: none; stroke: #888; stroke-width: 1; opacity: 1;"></line><line transform="translate(208,0)" x2="0" y2="5" style="fill: none; stroke: #888; stroke-width: 1; opacity: 1;"></line><line transform="translate(242,0)" x2="0" y2="5" style="fill: none; stroke: #888; stroke-width: 1; opacity: 1;"></line><line transform="translate(277,0)" x2="0" y2="5" style="fill: none; stroke: #888; stroke-width: 1; opacity: 1;"></line><line transform="translate(312,0)" x2="0" y2="5" style="fill: none; stroke: #888; stroke-width: 1; opacity: 1;"></line><line transform="translate(346,0)" x2="0" y2="5" style="fill: none; stroke: #888; stroke-width: 1; opacity: 1;"></line><line transform="translate(381,0)" x2="0" y2="5" style="fill: none; stroke: #888; stroke-width: 1; opacity: 1;"></line><line transform="translate(415,0)" x2="0" y2="5" style="fill: none; stroke: #888; stroke-width: 1; opacity: 1;"></line><line transform="translate(450,0)" x2="0" y2="5" style="fill: none; stroke: #888; stroke-width: 1; opacity: 1;"></line><line transform="translate(485,0)" x2="0" y2="5" style="fill: none; stroke: #888; stroke-width: 1; opacity: 1;"></line><line transform="translate(519,0)" x2="0" y2="5" style="fill: none; stroke: #888; stroke-width: 1; opacity: 1;"></line><line transform="translate(554,0)" x2="0" y2="5" style="fill: none; stroke: #888; stroke-width: 1; opacity: 1;"></line><line transform="translate(588,0)" x2="0" y2="5" style="fill: none; stroke: #888; stroke-width: 1; opacity: 1;"></line><line transform="translate(623,0)" x2="0" y2="5" style="fill: none; stroke: #888; stroke-width: 1; opacity: 1;"></line><line transform="translate(658,0)" x2="0" y2="5" style="fill: none; stroke: #888; stroke-width: 1; opacity: 1;"></line><line transform="translate(692,0)" x2="0" y2="5" style="fill: none; stroke: #888; stroke-width: 1; opacity: 1;"></line><line transform="translate(727,0)" x2="0" y2="5" style="fill: none; stroke: #888; stroke-width: 1; opacity: 1;"></line><line transform="translate(762,0)" x2="0" y2="5" style="fill: none; stroke: #888; stroke-width: 1; opacity: 1;"></line><line transform="translate(796,0)" x2="0" y2="5" style="fill: none; stroke: #888; stroke-width: 1; opacity: 1;"></line><line transform="translate(831,0)" x2="0" y2="5" style="fill: none; stroke: #888; stroke-width: 1; opacity: 1;"></line><line transform="translate(865,0)" x2="0" y2="5" style="fill: none; stroke: #888; stroke-width: 1; opacity: 1;"></line><line transform="translate(900,0)" x2="0" y2="5" style="fill: none; stroke: #888; stroke-width: 1; opacity: 1;"></line></g><g class="mark-text role-axis-label" style="pointer-events: none;"><text text-anchor="start" transform="translate(0,15)" style="font-family: sans-serif; font-size: 10px; fill: #000; opacity: 1;">0</text><text text-anchor="middle" transform="translate(34.61538461538462,15)" style="font-family: sans-serif; font-size: 10px; fill: #000; opacity: 1;">10</text><text text-anchor="middle" transform="translate(69.23076923076924,15)" style="font-family: sans-serif; font-size: 10px; fill: #000; opacity: 1;">20</text><text text-anchor="middle" transform="translate(103.84615384615385,15)" style="font-family: sans-serif; font-size: 10px; fill: #000; opacity: 1;">30</text><text text-anchor="middle" transform="translate(138.46153846153848,15)" style="font-family: sans-serif; font-size: 10px; fill: #000; opacity: 1;">40</text><text text-anchor="middle" transform="translate(173.0769230769231,15)" style="font-family: sans-serif; font-size: 10px; fill: #000; opacity: 1;">50</text><text text-anchor="middle" transform="translate(207.6923076923077,15)" style="font-family: sans-serif; font-size: 10px; fill: #000; opacity: 1;">60</text><text text-anchor="middle" transform="translate(242.3076923076923,15)" style="font-family: sans-serif; font-size: 10px; fill: #000; opacity: 1;">70</text><text text-anchor="middle" transform="translate(276.92307692307696,15)" style="font-family: sans-serif; font-size: 10px; fill: #000; opacity: 1;">80</text><text text-anchor="middle" transform="translate(311.53846153846155,15)" style="font-family: sans-serif; font-size: 10px; fill: #000; opacity: 1;">90</text><text text-anchor="middle" transform="translate(346.1538461538462,15)" style="font-family: sans-serif; font-size: 10px; fill: #000; opacity: 1;">100</text><text text-anchor="middle" transform="translate(380.7692307692308,15)" style="font-family: sans-serif; font-size: 10px; fill: #000; opacity: 1;">110</text><text text-anchor="middle" transform="translate(415.3846153846154,15)" style="font-family: sans-serif; font-size: 10px; fill: #000; opacity: 1;">120</text><text text-anchor="middle" transform="translate(450,15)" style="font-family: sans-serif; font-size: 10px; fill: #000; opacity: 1;">130</text><text text-anchor="middle" transform="translate(484.6153846153846,15)" style="font-family: sans-serif; font-size: 10px; fill: #000; opacity: 1;">140</text><text text-anchor="middle" transform="translate(519.2307692307692,15)" style="font-family: sans-serif; font-size: 10px; fill: #000; opacity: 1;">150</text><text text-anchor="middle" transform="translate(553.8461538461539,15)" style="font-family: sans-serif; font-size: 10px; fill: #000; opacity: 1;">160</text><text text-anchor="middle" transform="translate(588.4615384615385,15)" style="font-family: sans-serif; font-size: 10px; fill: #000; opacity: 1;">170</text><text text-anchor="middle" transform="translate(623.0769230769231,15)" style="font-family: sans-serif; font-size: 10px; fill: #000; opacity: 1;">180</text><text text-anchor="middle" transform="translate(657.6923076923076,15)" style="font-family: sans-serif; font-size: 10px; fill: #000; opacity: 1;">190</text><text text-anchor="middle" transform="translate(692.3076923076924,15)" style="font-family: sans-serif; font-size: 10px; fill: #000; opacity: 1;">200</text><text text-anchor="middle" transform="translate(726.9230769230769,15)" style="font-family: sans-serif; font-size: 10px; fill: #000; opacity: 1;">210</text><text text-anchor="middle" transform="translate(761.5384615384615,15)" style="font-family: sans-serif; font-size: 10px; fill: #000; opacity: 1;">220</text><text text-anchor="middle" transform="translate(796.1538461538461,15)" style="font-family: sans-serif; font-size: 10px; fill: #000; opacity: 1;">230</text><text text-anchor="middle" transform="translate(830.7692307692308,15)" style="font-family: sans-serif; font-size: 10px; fill: #000; opacity: 1;">240</text><text text-anchor="middle" transform="translate(865.3846153846154,15)" style="font-family: sans-serif; font-size: 10px; fill: #000; opacity: 1;">250</text><text text-anchor="end" transform="translate(900,15)" style="font-family: sans-serif; font-size: 10px; fill: #000; opacity: 1;">260</text></g><g class="mark-rule role-axis-domain" style="pointer-events: none;"><line transform="translate(0,0)" x2="900" y2="0" style="fill: none; stroke: #888; stroke-width: 1; opacity: 1;"></line></g><g class="mark-text role-axis-title" style="pointer-events: none;"><text text-anchor="middle" transform="translate(450,30)" style="font-family: sans-serif; font-size: 11px; font-weight: bold; fill: #000; opacity: 1;">Size</text></g></g><path class="foreground" d="" style="pointer-events: none; display: none; fill: none;"></path></g></g><g class="mark-group role-axis"><g transform="translate(0.5,0.5)"><path class="background" d="M0,0h0v0h0Z" style="pointer-events: none; fill: none;"></path><g><g class="mark-rule role-axis-tick" style="pointer-events: none;"><line transform="translate(0,600)" x2="-5" y2="0" style="fill: none; stroke: #888; stroke-width: 1; opacity: 1;"></line><line transform="translate(0,563)" x2="-5" y2="0" style="fill: none; stroke: #888; stroke-width: 1; opacity: 1;"></line><line transform="translate(0,525)" x2="-5" y2="0" style="fill: none; stroke: #888; stroke-width: 1; opacity: 1;"></line><line transform="translate(0,488)" x2="-5" y2="0" style="fill: none; stroke: #888; stroke-width: 1; opacity: 1;"></line><line transform="translate(0,450)" x2="-5" y2="0" style="fill: none; stroke: #888; stroke-width: 1; opacity: 1;"></line><line transform="translate(0,413)" x2="-5" y2="0" style="fill: none; stroke: #888; stroke-width: 1; opacity: 1;"></line><line transform="translate(0,375)" x2="-5" y2="0" style="fill: none; stroke: #888; stroke-width: 1; opacity: 1;"></line><line transform="translate(0,338)" x2="-5" y2="0" style="fill: none; stroke: #888; stroke-width: 1; opacity: 1;"></line><line transform="translate(0,300)" x2="-5" y2="0" style="fill: none; stroke: #888; stroke-width: 1; opacity: 1;"></line><line transform="translate(0,263)" x2="-5" y2="0" style="fill: none; stroke: #888; stroke-width: 1; opacity: 1;"></line><line transform="translate(0,225)" x2="-5" y2="0" style="fill: none; stroke: #888; stroke-width: 1; opacity: 1;"></line><line transform="translate(0,188)" x2="-5" y2="0" style="fill: none; stroke: #888; stroke-width: 1; opacity: 1;"></line><line transform="translate(0,150)" x2="-5" y2="0" style="fill: none; stroke: #888; stroke-width: 1; opacity: 1;"></line><line transform="translate(0,113)" x2="-5" y2="0" style="fill: none; stroke: #888; stroke-width: 1; opacity: 1;"></line><line transform="translate(0,75)" x2="-5" y2="0" style="fill: none; stroke: #888; stroke-width: 1; opacity: 1;"></line><line transform="translate(0,38)" x2="-5" y2="0" style="fill: none; stroke: #888; stroke-width: 1; opacity: 1;"></line><line transform="translate(0,0)" x2="-5" y2="0" style="fill: none; stroke: #888; stroke-width: 1; opacity: 1;"></line></g><g class="mark-text role-axis-label" style="pointer-events: none;"><text text-anchor="end" transform="translate(-7,603)" style="font-family: sans-serif; font-size: 10px; fill: #000; opacity: 1;">0</text><text text-anchor="end" transform="translate(-7,565.5)" style="font-family: sans-serif; font-size: 10px; fill: #000; opacity: 1;">5</text><text text-anchor="end" transform="translate(-7,528)" style="font-family: sans-serif; font-size: 10px; fill: #000; opacity: 1;">10</text><text text-anchor="end" transform="translate(-7,490.5)" style="font-family: sans-serif; font-size: 10px; fill: #000; opacity: 1;">15</text><text text-anchor="end" transform="translate(-7,453)" style="font-family: sans-serif; font-size: 10px; fill: #000; opacity: 1;">20</text><text text-anchor="end" transform="translate(-7,415.5)" style="font-family: sans-serif; font-size: 10px; fill: #000; opacity: 1;">25</text><text text-anchor="end" transform="translate(-7,378)" style="font-family: sans-serif; font-size: 10px; fill: #000; opacity: 1;">30</text><text text-anchor="end" transform="translate(-7,340.5)" style="font-family: sans-serif; font-size: 10px; fill: #000; opacity: 1;">35</text><text text-anchor="end" transform="translate(-7,303)" style="font-family: sans-serif; font-size: 10px; fill: #000; opacity: 1;">40</text><text text-anchor="end" transform="translate(-7,265.5)" style="font-family: sans-serif; font-size: 10px; fill: #000; opacity: 1;">45</text><text text-anchor="end" transform="translate(-7,228)" style="font-family: sans-serif; font-size: 10px; fill: #000; opacity: 1;">50</text><text text-anchor="end" transform="translate(-7,190.5)" style="font-family: sans-serif; font-size: 10px; fill: #000; opacity: 1;">55</text><text text-anchor="end" transform="translate(-7,153)" style="font-family: sans-serif; font-size: 10px; fill: #000; opacity: 1;">60</text><text text-anchor="end" transform="translate(-7,115.5)" style="font-family: sans-serif; font-size: 10px; fill: #000; opacity: 1;">65</text><text text-anchor="end" transform="translate(-7,78)" style="font-family: sans-serif; font-size: 10px; fill: #000; opacity: 1;">70</text><text text-anchor="end" transform="translate(-7,40.5)" style="font-family: sans-serif; font-size: 10px; fill: #000; opacity: 1;">75</text><text text-anchor="end" transform="translate(-7,3)" style="font-family: sans-serif; font-size: 10px; fill: #000; opacity: 1;">80</text></g><g class="mark-rule role-axis-domain" style="pointer-events: none;"><line transform="translate(0,600)" x2="0" y2="-600" style="fill: none; stroke: #888; stroke-width: 1; opacity: 1;"></line></g><g class="mark-text role-axis-title" style="pointer-events: none;"><text text-anchor="middle" transform="translate(-23,300) rotate(-90) translate(0,-2)" style="font-family: sans-serif; font-size: 11px; font-weight: bold; fill: #000; opacity: 1;">GFLOPS</text></g></g><path class="foreground" d="" style="pointer-events: none; display: none; fill: none;"></path></g></g><g class="mark-group role-scope pathgroup"><g transform="translate(0,0)"><path class="background" d="M0,0h900v600h-900Z" style="fill: none;"></path><g><g class="mark-line role-mark marks"><path d="M6.923076923076923,569.9628208911183L10.384615384615385,539.7293488568117L13.846153846153847,522.6094250419399L17.30769230769231,501.71924436999814L20.76923076923077,465.23948908994146L24.230769230769234,433.6727409355627L27.692307692307693,318.3473826620876L31.153846153846157,451.71175221865144L34.61538461538462,423.27991452991455L38.07692307692308,388.39029702412L41.53846153846154,374.3599399506374L45,356.71441676663613L48.46153846153847,309.355237333721L51.92307692307693,300.7518776352776L55.38461538461539,150.03574062517723L58.84615384615385,332.9552999011733L62.307692307692314,322.73147548416347L65.76923076923077,316.66396953831514L69.23076923076924,269.62071041541236L72.6923076923077,292.9602477748376L76.15384615384616,232.1733149931225L79.61538461538461,246.91242077537248L83.07692307692308,67.84824886519796L86.53846153846155,272.91173988686205L90,266.1942775845717L93.46153846153847,238.25450182115267L96.92307692307693,219.4604205847154L100.38461538461539,214.08181128195076L103.84615384615385,189.6651544084557L107.3076923076923,188.769955941428L110.76923076923077,77.29846566649276L114.23076923076923,240.5895910638461L117.6923076923077,213.224250376259L121.15384615384615,241.72613737734164L124.61538461538463,198.2738710265605L128.07692307692307,183.53373339408185L131.53846153846155,152.13641947529098L135,190.9592176219883L138.46153846153848,65.68747030955105L141.9230769230769,219.79722019791353L145.3846153846154,213.86094379890912L148.84615384615384,210.9339484640486L152.30769230769232,176.45040132695274L155.76923076923077,208.0979802483658L159.23076923076923,177.46674248851022L162.69230769230768,210.12575457951706L166.15384615384616,150.37584323803412L169.6153846153846,244.15124585184765L173.0769230769231,248.2186315014998L176.53846153846155,226.5273221368065L180,209.7403116260488L183.46153846153845,228.0919003115264L186.92307692307693,180.7864693446089L190.3846153846154,224.70808601732028L193.84615384615387,154.73178151397448L197.3076923076923,241.77836388792807L200.76923076923077,233.75458970198957L204.23076923076923,227.75517906567143L207.6923076923077,213.0174521541185L211.15384615384616,215.0064919256675L214.6153846153846,199.5506168804641L218.07692307692307,212.61004363469343L221.53846153846155,152.1481862618986L225,223.82157821229052L228.46153846153845,229.64123766337687L231.9230769230769,219.39918872190452L235.3846153846154,207.43108270075905L238.84615384615384,206.66915052160954L242.3076923076923,168.48321591380022L245.76923076923075,202.66598664688422L249.23076923076925,148.77116329874386L252.6923076923077,244.1006233303651L256.15384615384613,218.7462458362912L259.6153846153846,214.477503628447L263.0769230769231,196.7143091835058L266.53846153846155,212.77148857699015L270,167.92179580014482L273.46153846153845,204.59653820671383L276.92307692307696,143.4709634105404L280.3846153846154,214.3257261410788L283.8461538461538,221.03192534381137L287.30769230769226,217.59251644736835L290.7692307692308,192.22602739726025L294.2307692307692,204.73480333730635L297.6923076923077,179.58537672759695L301.15384615384613,197.41227866876804L304.61538461538464,150.45075125208683L308.0769230769231,214.41702371357064L311.53846153846155,212.99288004330265L315,204.1801349606365L318.46153846153845,192.3424973767051L321.9230769230769,202.72486190056838L325.38461538461536,161.60022483569705L328.8461538461538,195.55621729282203L332.3076923076923,143.73285011648983L335.7692307692308,218.2657809951871L339.2307692307692,200.56758409785937L342.6923076923077,210.49559728824124L346.1538461538462,191.88572800384102L349.61538461538464,190.99764150943398L353.0769230769231,154.82921918114704L356.53846153846155,191.32973299595903L360,138.30006277463903L363.46153846153845,213.50357437448451L366.9230769230769,209.39572611703753L370.38461538461536,203.23514422586894L373.84615384615387,173.58947707967457L377.3076923076923,193.86641643486712L380.7692307692308,150.10388947617832L384.2307692307692,204.12587412587408L387.69230769230774,135.37366548042706L391.1538461538462,207.29384906960706L394.6153846153846,193.63311494937463L398.07692307692304,189.94919228764985L401.53846153846155,168.93467336683418L405,185.59688962756925L408.46153846153845,163.08511760362836L411.9230769230769,191.48320835218823L415.3846153846154,138.4905423238862L418.84615384615387,194.47933153337684L422.3076923076923,191.99060138829168L425.7692307692308,188.72308184337962L429.2307692307692,182.96116209809765L432.6923076923077,185.57763744427936L436.15384615384613,148.94855796778506L439.6153846153846,191.42074240868908L443.0769230769231,145.72307309950608L446.53846153846155,189.52843876958795L450,188.762007761308L453.46153846153845,186.73576352818966L456.9230769230769,165.67741935483872L460.38461538461536,178.4134525515609L463.8461538461538,156.11904608026893L467.3076923076923,182.82091561938955L470.7692307692308,137.90202482037884L474.2307692307692,201.61025837384295L477.6923076923077,194.8423160353746L481.15384615384613,195.94967332768374L484.6153846153846,165.73116691285074L488.07692307692304,176.17486414936602L491.5384615384615,156.561260277123L495.00000000000006,187.70873525411935L498.4615384615385,136.29044988161021L501.92307692307696,198.3868430514772L505.3846153846154,203.36972067365227L508.8461538461538,184.5676266586249L512.3076923076923,165.2750537031848L515.7692307692307,188.5476626548055L519.2307692307692,143.4543892036412L522.6923076923077,179.4694777954578L526.1538461538462,130.43644594637675L529.6153846153846,185.85388698095534L533.0769230769231,178.9472951333287L536.5384615384615,192.02377384876633L540,166.68784694340675L543.4615384615385,187.76881455976385L546.9230769230769,139.66938562998953L550.3846153846155,184.91694031292258L553.8461538461539,137.10335046977477L557.3076923076924,185.3463886913972L560.7692307692308,193.75435046539863L564.2307692307692,180.14284238793635L567.6923076923076,168.68974625035372L571.1538461538461,183.04054054054055L574.6153846153845,139.4087572102779L578.0769230769231,181.15581687541717L581.5384615384615,139.6642041638684L585,188.54346352303114L588.4615384615385,187.3278082652033L591.9230769230769,185.29171301446058L595.3846153846154,169.98365950978527L598.8461538461538,193.0958093410109L602.3076923076923,143.49692526017031L605.7692307692308,182.34169429885546L609.2307692307693,136.92175408426482L612.6923076923077,189.59750333915537L616.1538461538462,174.6778269109286L619.6153846153846,186.26417865100262L623.0769230769231,177.78004905968925L626.5384615384615,174.72739767868057L630,139.9945539701558L633.4615384615385,186.33525479558227L636.9230769230769,134.84482758620686L640.3846153846154,182.42224880382778L643.8461538461538,179.06384196965362L647.3076923076923,177.58905731880625L650.7692307692307,157.85321821036106L654.2307692307692,168.66867127568895L657.6923076923076,150.64434247778968L661.1538461538462,173.7419813049854L664.6153846153846,142.96382730455073L668.0769230769231,179.41485122210418L671.5384615384615,186.61354238456238L675,175.1675867507887L678.4615384615385,153.46522016592215L681.9230769230769,178.59414920797138L685.3846153846154,132.93683423659127L688.8461538461538,174.59537450501307L692.3076923076924,135.05333211778648L695.7692307692308,177.32604414540083L699.2307692307693,175.68632248593096L702.6923076923077,174.1146551025371L706.1538461538462,160.64916783969528L709.6153846153846,167.922949762116L713.0769230769231,130.77877027144214L716.5384615384615,173.31712746016862L720,139.28338762214992L723.4615384615385,173.98244473341998L726.9230769230769,175.320996978852L730.3846153846154,235.65933889602053L733.8461538461538,168.7567730282962L737.3076923076923,169.18540999478657L740.7692307692307,145.49778158324906L744.2307692307692,179.20266314436668L747.6923076923077,198.44471445929528L751.1538461538462,317.17319106840023L754.6153846153846,174.54641202078363L758.0769230769231,219.04887241465244L761.5384615384615,213.17620510248852L765,187.40956072351423L768.4615384615385,128.2145806742248L771.9230769230769,177.04972983790273L775.3846153846155,193.65853658536585L778.8461538461539,217.0688478879924L782.3076923076924,176.13967716740433L785.7692307692308,237.81987320837925L789.2307692307692,161.75879396984922L792.6923076923076,256.90540332512313L796.1538461538461,183.47742851849566L799.6153846153845,240.89900242795315L803.0769230769231,191.51428571428562L806.5384615384615,221.8809406751885L810,216.15405762040905L813.4615384615385,230.42265903842113L816.9230769230769,212.58919803600648L820.3846153846154,209.70366232492233L823.8461538461538,264.8828360632917L827.3076923076923,223.9711121437423L830.7692307692308,218.632185698707L834.2307692307693,216.62210084903705L837.6923076923077,284.46120689655174L841.1538461538462,329.5611372534933L844.6153846153846,208.33599917444926L848.0769230769231,228.23338676770626L851.5384615384615,168.9021119678176L855,204.09978114820842L858.4615384615385,306.44405345711823L861.9230769230769,266.66129032258067L865.3846153846154,298.87200997619317L868.8461538461538,349.71560104692463L872.3076923076923,261.6340005850642L875.7692307692307,321.11989133406234L879.2307692307692,263.4292144026187L882.6923076923076,309.85205081542665L886.1538461538462,246.62775945191575" style="fill: none; stroke: #1f77b4; stroke-width: 2;"></path></g></g><path class="foreground" d="" style="display: none; fill: none;"></path></g><g transform="translate(0,0)"><path class="background" d="M0,0h900v600h-900Z" style="fill: none;"></path><g><g class="mark-line role-mark marks"><path d="M6.923076923076923,589.4906770116381L10.384615384615385,588.694935993976L13.846153846153847,588.6621351459416L17.30769230769231,588.3697496817989L20.76923076923077,588.4153492635518L24.230769230769234,588.3293550778354L27.692307692307693,588.2520934332306L31.153846153846157,588.182636887608L34.61538461538462,588.1549609810479L38.07692307692308,588.1472802704365L41.53846153846154,588.5429017160686L45,588.512288745535L48.46153846153847,588.4938865299023L51.92307692307693,588.4614095459422L55.38461538461539,588.4255319148937L58.84615384615385,588.3940312610732L62.307692307692314,588.4233019231443L65.76923076923077,588.366611904461L69.23076923076924,588.3792845284985L72.6923076923077,588.3279707007503L76.15384615384616,588.3169254070428L79.61538461538461,588.3342461804555L83.07692307692308,588.3287775729451L86.53846153846155,588.2660649075274L90,588.2901976767882L93.46153846153847,588.2471391540747L96.92307692307693,588.2680646297093L100.38461538461539,588.1947043928217L103.84615384615385,588.2295620063596L107.3076923076923,588.2003563174114L110.76923076923077,588.2176698853893L114.23076923076923,588.138774987186L117.6923076923077,588.2116292089898L121.15384615384615,588.1631299734747L124.61538461538463,588.1971428571428L128.07692307692307,588.1726860008131L131.53846153846155,588.196563662008L135,588.1765943177661L138.46153846153848,588.1629337356388L141.9230769230769,588.1743820348709L145.3846153846154,588.1856384934601L148.84615384615384,588.1765635187321L152.30769230769232,588.1583113456464L155.76923076923077,588.1559933941924L159.23076923076923,588.1577561232552L162.69230769230768,588.15113588557L166.15384615384616,588.1366610128423L169.6153846153846,588.072180011689L173.0769230769231,588.1628787878788L176.53846153846155,588.1332748872826L180,588.1379025598678L183.46153846153845,588.1357041110412L186.92307692307693,588.1418046119989L190.3846153846154,588.1235565819861L193.84615384615387,588.1465670579865L197.3076923076923,588.1093202824502L200.76923076923077,588.1428137008265L204.23076923076923,588.1281931255852L207.6923076923077,588.1337090561258L211.15384615384616,588.1069038128901L214.6153846153846,588.1119169476314L218.07692307692307,588.118440515602L221.53846153846155,588.1111844651354L225,588.075803523995L228.46153846153845,588.1075351705531L231.9230769230769,588.0984092326887L235.3846153846154,588.0901781746193L238.84615384615384,588.092596951686L242.3076923076923,588.0993199611406L245.76923076923075,588.0879327600267L249.23076923076925,588.1128716076471L252.6923076923077,588.0631148981025L256.15384615384613,588.0932160032743L259.6153846153846,588.10496243345L263.0769230769231,588.1079335346456L266.53846153846155,588.0977516413963L270,588.096399963171L273.46153846153845,588.1066063821837L276.92307692307696,588.0922847928554L280.3846153846154,588.0509727459719L283.8461538461538,588.1161891296211L287.30769230769226,588.0853567552903L290.7692307692308,588.0957484816006L294.2307692307692,588.106189719952L297.6923076923077,588.0926585347374L301.15384615384613,588.0959738000962L304.61538461538464,588.0703195795325L308.0769230769231,588.0771205950062L311.53846153846155,588.0812242495585L315,588.0805204335064L318.46153846153845,588.0787415492024L321.9230769230769,588.0667947191862L325.38461538461536,588.0814396343785L328.8461538461538,588.0707087985569L332.3076923076923,588.0845713126806L335.7692307692308,588.0604765269665L339.2307692307692,588.063343211417L342.6923076923077,588.0889165308398L346.1538461538462,588.0951269386269L349.61538461538464,588.08600047633L353.0769230769231,588.0653722963976L356.53846153846155,588.0689455950323L360,588.0690401003591L363.46153846153845,588.0727376861398L366.9230769230769,588.0909272282906L370.38461538461536,588.0697671567625L373.84615384615387,588.0657716289633L377.3076923076923,588.0864831068327L380.7692307692308,588.063460377884L384.2307692307692,588.0774470442695L387.69230769230774,588.0793339643876L391.1538461538462,588.0510275229358L394.6153846153846,588.0755197651072L398.07692307692304,588.0624738939902L401.53846153846155,588.0854196326261L405,588.0672238744744L408.46153846153845,588.0634576982296L411.9230769230769,588.0607336040099L415.3846153846154,588.0704079842499L418.84615384615387,588.024202085004L422.3076923076923,588.0589342008394L425.7692307692308,588.0778299700238L429.2307692307692,588.0620391063154L432.6923076923077,588.0613684986427L436.15384615384613,588.0588623948464L439.6153846153846,588.0670127021522L443.0769230769231,588.066767968741L446.53846153846155,588.0462015617429L450,588.061202440119L453.46153846153845,588.0419319579178L456.9230769230769,588.05535841022L460.38461538461536,588.0700373977118L463.8461538461538,588.0590530235858L467.3076923076923,588.051853394419L470.7692307692308,588.0542216278645L474.2307692307692,588.0690044572078L477.6923076923077,588.0837144932373L481.15384615384613,588.0765740256722L484.6153846153846,588.0795649685175L488.07692307692304,588.0668513645201L491.5384615384615,588.0479493449619L495.00000000000006,588.0796829780134L498.4615384615385,588.050656711291L501.92307692307696,588.0307214552339L505.3846153846154,588.079084150273L508.8461538461538,588.0724382007879L512.3076923076923,588.0667091111861L515.7692307692307,588.0666957555522L519.2307692307692,588.0773770437298L522.6923076923077,588.0767960922152L526.1538461538462,588.0478611394002L529.6153846153846,588.0426129876165L533.0769230769231,588.0772430652761L536.5384615384615,588.049129001424L540,588.0668261428056L543.4615384615385,588.0659085903502L546.9230769230769,588.0463512737024L550.3846153846155,588.0464760527341L553.8461538461539,588.0634567702581L557.3076923076924,588.0061567326676L560.7692307692308,588.0610344384661L564.2307692307692,588.0647874769226L567.6923076923076,588.0424708405251L571.1538461538461,588.065532879039L574.6153846153845,588.0573306864998L578.0769230769231,588.0423462353298L581.5384615384615,588.0685536947577L585,588.0549651147915L588.4615384615385,588.0458409031922L591.9230769230769,588.064019119455L595.3846153846154,588.0737211206774L598.8461538461538,588.0634139856421L602.3076923076923,588.0729491734899L605.7692307692308,588.0646805479988L609.2307692307693,588.0402630909554L612.6923076923077,588.0361705059049L616.1538461538462,588.0749032492317L619.6153846153846,588.0678343083964L623.0769230769231,588.0554808601441L626.5384615384615,588.0307196135011L630,588.0391001804057L633.4615384615385,588.0693858448127L636.9230769230769,588.0595495610129L640.3846153846154,588.0515007885917L643.8461538461538,588.0587184276781L647.3076923076923,588.0411146844481L650.7692307692307,588.0672059738644L654.2307692307692,588.030288097641L657.6923076923076,588.0713889565592L661.1538461538462,588.0461479747216L664.6153846153846,588.0650559272755L668.0769230769231,588.0344172089824L671.5384615384615,588.0668007888173L675,588.0550621122603L678.4615384615385,588.044433921506L681.9230769230769,588.0607861115468L685.3846153846154,588.0523320433973L688.8461538461538,588.0621737218407L692.3076923076924,588.0719332589583L695.7692307692308,588.0602293324927L699.2307692307693,588.0684859562738L702.6923076923077,588.066214297882L706.1538461538462,588.040894153921L709.6153846153846,588.0497896854425L713.0769230769231,588.0704187465825L716.5384615384615,588.0662747188177L720,588.0583211560318L723.4615384615385,588.0335027180336L726.9230769230769,588.069346426586L730.3846153846154,588.0943664335077L733.8461538461538,588.0730805734553L737.3076923076923,588.0297830293123L740.7692307692307,588.068011835964L744.2307692307692,588.0454283610578L747.6923076923077,588.055971070771L751.1538461538462,588.1203674390075L754.6153846153846,588.0644475041809L758.0769230769231,588.1181312809432L761.5384615384615,588.0772745627271L765,588.0348709189007L768.4615384615385,588.0743244525589L771.9230769230769,588.0820896223755L775.3846153846155,588.1179027135455L778.8461538461539,588.0437087969592L782.3076923076924,588.098980986703L785.7692307692308,588.1067118868662L789.2307692307692,588.0355253894616L792.6923076923076,588.0774254463234L796.1538461538461,588.0596209032536L799.6153846153845,588.0710604939527L803.0769230769231,588.0443413861648L806.5384615384615,588.0791602873327L810,588.0970291121436L813.4615384615385,588.0821053540236L816.9230769230769,588.0928994092761L820.3846153846154,588.0773812199398L823.8461538461538,588.043537284325L827.3076923076923,588.1000833312909L830.7692307692308,588.1181583145387L834.2307692307693,588.0447201328988L837.6923076923077,588.1252753229528L841.1538461538462,588.0794274956617L844.6153846153846,588.0960490783692L848.0769230769231,588.1086532948618L851.5384615384615,588.002136536168L855,588.1077164985966L858.4615384615385,588.119859470089L861.9230769230769,588.0689206811095L865.3846153846154,588.0897578269442L868.8461538461538,588.1117170063759L872.3076923076923,588.0398476759954L875.7692307692307,588.0936682101873L879.2307692307692,588.1205907795754L882.6923076923076,588.1010345070089L886.1538461538462,588.0985859322478" style="fill: none; stroke: #aec7e8; stroke-width: 2;"></path></g></g><path class="foreground" d="" style="display: none; fill: none;"></path></g><g transform="translate(0,0)"><path class="background" d="M0,0h900v600h-900Z" style="fill: none;"></path><g><g class="mark-line role-mark marks"><path d="M6.923076923076923,567.7656744775175L10.384615384615385,554.4693649908373L13.846153846153847,546.1628185667493L17.30769230769231,543.9520380264828L20.76923076923077,537.3183157894737L24.230769230769234,533.9355687011442L27.692307692307693,366.9644243766357L31.153846153846157,418.85458487233024L34.61538461538462,439.8328510063979L38.07692307692308,453.78926482662155L41.53846153846154,472.28089887640454L45,474.5575887073841L48.46153846153847,466.6376825635188L51.92307692307693,480.1058743169399L55.38461538461539,300.3346594667167L58.84615384615385,357.79067524890917L62.307692307692314,375.6517016654598L65.76923076923077,395.57087863176633L69.23076923076924,413.74060284108424L72.6923076923077,417.26155733899316L76.15384615384616,424.6734693877551L79.61538461538461,455.5366889188484L83.07692307692308,262.7865132544916L86.53846153846155,314.4474171640255L90,348.9814739907774L93.46153846153847,367.8227961931406L96.92307692307693,379.3721853123467L100.38461538461539,383.583868249394L103.84615384615385,410.6274931394461L107.3076923076923,416.5930867799325L110.76923076923077,248.3393261071377L114.23076923076923,288.7179850087185L117.6923076923077,312.797945865852L121.15384615384615,369.52386578449904L124.61538461538463,356.6652415562207L128.07692307692307,367.9417128766874L131.53846153846155,372.144257644654L135,425.7144782960367L138.46153846153848,228.1198487346068L141.9230769230769,270.181847184559L145.3846153846154,315.7040248555801L148.84615384615384,363.12735493594573L152.30769230769232,339.92751180040455L155.76923076923077,377.50129265770425L159.23076923076923,369.9803904851223L162.69230769230768,407.86718057166246L166.15384615384616,303.44746361571464L169.6153846153846,318.50344827586207L173.0769230769231,324.8834800621439L176.53846153846155,340.3276955602537L180,347.6688867745005L183.46153846153845,359.4549667539794L186.92307692307693,359.8566076734272L190.3846153846154,393.9042962487977L193.84615384615387,319.0951243501475L197.3076923076923,311.6071428571429L200.76923076923077,318.4891047519033L204.23076923076923,334.80670411089864L207.6923076923077,354.2168674698795L211.15384615384616,350.7473468529999L214.6153846153846,350.6055363321799L218.07692307692307,377.4854651162791L221.53846153846155,294.3999063725203L225,308.50243506493507L228.46153846153845,314.30555555555554L231.9230769230769,327.6121040664164L235.3846153846154,349.2656648709952L238.84615384615384,340.9923908405632L242.3076923076923,338.14790667349695L245.76923076923075,363.5292494481236L249.23076923076925,298.8335358444715L252.6923076923077,318.82345503034753L256.15384615384613,309.41037735849056L259.6153846153846,321.9125630089182L263.0769230769231,331.2371761080248L266.53846153846155,347.7091445099566L270,344.6852628980499L273.46153846153845,375.5827398998801L276.92307692307696,307.22372827300273L280.3846153846154,302.1856210443038L283.8461538461538,306.7243148732373L287.30769230769226,314.48620535532893L290.7692307692308,344.4567533020878L294.2307692307692,346.12443158329893L297.6923076923077,338.32182871414204L301.15384615384613,363.5846398824106L304.61538461538464,301.0491257285595L308.0769230769231,317.29521676755655L311.53846153846155,301.6143594929394L315,325.7501866943732L318.46153846153845,341.7041646720919L321.9230769230769,339.8128454900903L325.38461538461536,324.5982189628078L328.8461538461538,357.2755009793581L332.3076923076923,294.7551630081829L335.7692307692308,310.4398986241854L339.2307692307692,311.2782942603072L342.6923076923077,311.602238633741L346.1538461538462,325.2070568675144L349.61538461538464,328.1215844954759L353.0769230769231,324.39019322667775L356.53846153846155,351.57988980716254L360,283.7996658914475L363.46153846153845,295.41842072680004L366.9230769230769,303.265867731913L370.38461538461536,319.36028068826306L373.84615384615387,314.830297219559L377.3076923076923,329.49508928571424L380.7692307692308,321.46661450967406L384.2307692307692,356.4151367611487L387.69230769230774,303.5385708548302L391.1538461538462,307.14180782491377L394.6153846153846,314.8119675281834L398.07692307692304,310.41803818301514L401.53846153846155,318.20242436188033L405,329.77217130117043L408.46153846153845,324.80080607657726L411.9230769230769,348.4461859979101L415.3846153846154,291.81703734788084L418.84615384615387,306.06419663664417L422.3076923076923,312.72933696639427L425.7692307692308,307.55798969072157L429.2307692307692,325.8413453134287L432.6923076923077,319.11350017624255L436.15384615384613,306.76662320730117L439.6153846153846,348.93816383835923L443.0769230769231,288.60533063025457L446.53846153846155,305.67331368129015L450,301.7234219269103L453.46153846153845,313.9459406458361L456.9230769230769,313.7902602422056L460.38461538461536,324.1952347953693L463.8461538461538,316.91657736377874L467.3076923076923,337.08985479917027L470.7692307692308,289.4294274520133L474.2307692307692,301.9371211492153L477.6923076923077,305.61226964112507L481.15384615384613,306.68826401016037L484.6153846153846,318.686679174484L488.07692307692304,314.69638703384106L491.5384615384615,311.1120683197244L495.00000000000006,344.93763451379374L498.4615384615385,289.8600140767968L501.92307692307696,301.0830173951829L505.3846153846154,302.29050279329607L508.8461538461538,316.0519942285891L512.3076923076923,308.2365231926452L515.7692307692307,324.51313868613136L519.2307692307692,305.2250308261405L522.6923076923077,327.4653135839505L526.1538461538462,293.18196021247786L529.6153846153846,293.0638111888112L533.0769230769231,299.7527554364015L536.5384615384615,312.40376490470373L540,309.3630573248408L543.4615384615385,329.0501336322097L546.9230769230769,295.56097560975616L550.3846153846155,340.15900846432896L553.8461538461539,289.3203883495146L557.3076923076924,304.9171875L560.7692307692308,305.2664493966352L564.2307692307692,309.97024828767127L567.6923076923076,307.55244755244746L571.1538461538461,320.65125543215834L574.6153846153845,307.94763092269324L578.0769230769231,328.6234068533923L581.5384615384615,292.56215292609994L585,298.89800727633536L588.4615384615385,298.3915854956209L591.9230769230769,310.5862831858407L595.3846153846154,307.48662272198527L598.8461538461538,320.54577077993406L602.3076923076923,308.88461538461536L605.7692307692308,327.7635431918008L609.2307692307693,287.1978457151909L612.6923076923077,302.28460162480434L616.1538461538462,298.3039581777446L619.6153846153846,307.3619269340974L623.0769230769231,310.8560229579338L626.5384615384615,321.066611018364L630,295.72694524495677L633.4615384615385,325.7116014646367L636.9230769230769,290.56344086021505L640.3846153846154,297.6590106007067L643.8461538461538,302.0004053506283L647.3076923076923,306.2493411516669L650.7692307692307,308.3828382838284L654.2307692307692,314.13334797891036L657.6923076923076,301.4496983848998L661.1538461538462,325.3909847679773L664.6153846153846,293.8604832931675L668.0769230769231,298.6135613656555L671.5384615384615,302.6711692174236L675,305.33109463319755L678.4615384615385,307.4574449023473L681.9230769230769,317.4101941747573L685.3846153846154,298.19405868856416L688.8461538461538,321.9643447136564L692.3076923076924,291.7497733454216L695.7692307692308,303.3785845905793L699.2307692307693,297.6339648959665L702.6923076923077,310.1799602846268L706.1538461538462,301.7905918057663L709.6153846153846,314.3671037901808L713.0769230769231,297.0215029678575L716.5384615384615,321.4334336120742L720,291.8690649089487L723.4615384615385,296.014000327493L726.9230769230769,300.3118004477135L730.3846153846154,311.94420481071757L733.8461538461538,307.7241660716107L737.3076923076923,311.0182594794425L740.7692307692307,297.85304010349284L744.2307692307692,325.2103925773965L747.6923076923077,294.9571816829906L751.1538461538462,330.93808819575156L754.6153846153846,300.81913790549555L758.0769230769231,311.22839535323004L761.5384615384615,309.13461538461536L765,335.3044503953073L768.4615384615385,286.8322950411163L771.9230769230769,323.1245633187773L775.3846153846155,303.25896377383L778.8461538461539,309.5753655793027L782.3076923076924,300.7128084930373L785.7692307692308,308.64977827050996L789.2307692307692,304.2541609031279L792.6923076923076,333.22317759246704L796.1538461538461,300.4995559502664L799.6153846153845,333.0170113408939L803.0769230769231,294.60371145031365L806.5384615384615,314.3627491437296L810,307.6347418233594L813.4615384615385,317.9124434117222L816.9230769230769,311.96398150401563L820.3846153846154,317.2812956456516L823.8461538461538,328.0524908686975L827.3076923076923,324.44466515323495L830.7692307692308,302.0689655172414L834.2307692307693,309.6746971419611L837.6923076923077,330.09542743538765L841.1538461538462,356.1855144272807L844.6153846153846,311.98816208832903L848.0769230769231,322.5799289520426L851.5384615384615,297.9175475687103L855,330.6842260153031L858.4615384615385,331.51093915842097L861.9230769230769,320.5483774038462L865.3846153846154,317.6805073336639L868.8461538461538,351.91094261535613L872.3076923076923,323.27283912642264L875.7692307692307,341.0721310955297L879.2307692307692,310.30850501848914L882.6923076923076,343.37798309963785L886.1538461538462,313.743062692703" style="fill: none; stroke: #ff7f0e; stroke-width: 2;"></path></g></g><path class="foreground" d="" style="display: none; fill: none;"></path></g><g transform="translate(0,0)"><path class="background" d="M0,0h900v600h-900Z" style="fill: none;"></path><g><g class="mark-line role-mark marks"><path d="M6.923076923076923,571.9247970846446L10.384615384615385,560.8677211502211L13.846153846153847,552.0831356173484L17.30769230769231,548.0997609918837L20.76923076923077,543.1387796410407L24.230769230769234,530.4774819867534L27.692307692307693,392.24211905557127L31.153846153846157,465.9915703630301L34.61538461538462,461.0841737781226L38.07692307692308,474.0595167064439L41.53846153846154,482.6130330364099L45,483.5414157324192L48.46153846153847,484.6852615293813L51.92307692307693,480.8856502242152L55.38461538461539,388.71185525249797L58.84615384615385,425.5643629758071L62.307692307692314,436.3649682565522L65.76923076923077,446.7280805687204L69.23076923076924,453.5766757875157L72.6923076923077,457.30853790296237L76.15384615384616,454.7450409850609L79.61538461538461,465.6964921330926L83.07692307692308,305.96380769271394L86.53846153846155,368.77972112517125L90,384.1850915191427L93.46153846153847,400.2838255607446L96.92307692307693,407.7111491590291L100.38461538461539,411.72540150582574L103.84615384615385,412.646029407625L107.3076923076923,426.0505607723041L110.76923076923077,316.56487960769186L114.23076923076923,348.8316216373928L117.6923076923077,362.9122672477484L121.15384615384615,398.9640960902982L124.61538461538463,388.328300850947L128.07692307692307,396.65553462905075L131.53846153846155,391.98515939904723L135,421.33084577114425L138.46153846153848,265.8429200397671L141.9230769230769,319.17256289308176L145.3846153846154,349.6794071339378L148.84615384615384,381.89703025256733L152.30769230769232,373.1666972982907L155.76923076923077,386.99158485273495L159.23076923076923,388.764484810523L162.69230769230768,414.1063296152069L166.15384615384616,313.2650073206442L169.6153846153846,338.5536766589803L173.0769230769231,353.40399195420076L176.53846153846155,364.7030651340996L180,373.80921138958144L183.46153846153845,380.43924717999016L186.92307692307693,376.04361183061263L190.3846153846154,398.58608804637316L193.84615384615387,322.043795620438L197.3076923076923,337.3692385722437L200.76923076923077,342.086590499098L204.23076923076923,354.66944889724175L207.6923076923077,367.34755943028034L211.15384615384616,370.351879739687L214.6153846153846,364.67189500640205L218.07692307692307,380.40368852459017L221.53846153846155,297.5152041702867L225,320.39473684210526L228.46153846153845,331.1472676419965L231.9230769230769,343.41863419007774L235.3846153846154,365.50998762595015L238.84615384615384,357.92061768876283L242.3076923076923,348.54657662895215L245.76923076923075,369.03383908963866L249.23076923076925,291.8761006940848L252.6923076923077,325.26608410459164L256.15384615384613,324.084043207166L259.6153846153846,336.60787154166326L263.0769230769231,343.05252955999225L266.53846153846155,352.7260089136035L270,354.23049504950495L273.46153846153845,372.7629042621546L276.92307692307696,304.4786930103416L280.3846153846154,307.76899041260725L283.8461538461538,317.40914709517926L287.30769230769226,324.2128811962793L290.7692307692308,350.056607049835L294.2307692307692,356.4848164425206L297.6923076923077,340.07993384785004L301.15384615384613,362.35374305213537L304.61538461538464,287.148288973384L308.0769230769231,318.9864700358248L311.53846153846155,311.06836859590834L315,331.067880794702L318.46153846153845,342.9522253981217L321.9230769230769,340.1456776408806L325.38461538461536,328.98965600192446L328.8461538461538,356.018280123584L332.3076923076923,284.0334778662902L335.7692307692308,309.21664531320334L339.2307692307692,314.7184317380017L342.6923076923077,319.72468760012816L346.1538461538462,328.0455847400816L349.61538461538464,334.7977716283134L353.0769230769231,324.22648569986035L356.53846153846155,349.6024620510922L360,267.94124729111485L363.46153846153845,294.16881643563124L366.9230769230769,311.47883879506287L370.38461538461536,321.1650377256375L373.84615384615387,319.96736128546326L377.3076923076923,331.9047548817179L380.7692307692308,324.6728138013087L384.2307692307692,340.65120847916523L387.69230769230774,287.26869806094186L391.1538461538462,302.5672918823458L394.6153846153846,314.42695467340724L398.07692307692304,314.3104227261175L401.53846153846155,318.1653908072411L405,333.65672211200973L408.46153846153845,316.4403910043446L411.9230769230769,340.21934620586455L415.3846153846154,272.25990717600854L418.84615384615387,305.94381084401874L422.3076923076923,310.5472682346482L425.7692307692308,311.99422181079785L429.2307692307692,323.1505736981465L432.6923076923077,320.80618036577675L436.15384615384613,305.2808596138726L439.6153846153846,332.25083002408695L443.0769230769231,274.59654807153095L446.53846153846155,300.4584759820704L450,301.2685429086372L453.46153846153845,314.766327727806L456.9230769230769,310.46104721253795L460.38461538461536,324.1052642309574L463.8461538461538,309.3022665227605L467.3076923076923,329.8561325324549L470.7692307692308,268.8214022399326L474.2307692307692,297.4655499367889L477.6923076923077,301.180210854494L481.15384615384613,306.2335532853679L484.6153846153846,313.4940956166164L488.07692307692304,315.66713404374656L491.5384615384615,306.7514543173263L495.00000000000006,329.510582010582L498.4615384615385,272.67054599480014L501.92307692307696,291.87500000000006L505.3846153846154,300.58499504241485L508.8461538461538,309.8928609034432L512.3076923076923,306.11806797853313L515.7692307692307,320.18312574139975L519.2307692307692,301.91708229426433L522.6923076923077,317.75461165048546L526.1538461538462,271.10978786751025L529.6153846153846,286.65118110236216L533.0769230769231,297.19707590626876L536.5384615384615,307.3201318555322L540,306.5039727582293L543.4615384615385,317.6834800574919L546.9230769230769,292.02612481857767L550.3846153846155,324.5725455011535L553.8461538461539,271.2990936555891L557.3076923076924,293.3351118121926L560.7692307692308,296.99266503667485L564.2307692307692,304.68594717112717L567.6923076923076,303.5324630414109L571.1538461538461,313.29086478896505L574.6153846153845,295.9946352859738L578.0769230769231,318.14778852251106L581.5384615384615,267.90697674418595L585,286.6155335628227L588.4615384615385,293.52491058803963L591.9230769230769,303.0483870967742L595.3846153846154,300.9466423531277L598.8461538461538,311.5249848805564L602.3076923076923,296.9309884588208L605.7692307692308,314.31902985074623L609.2307692307693,270.19290187891437L612.6923076923077,289.67934275947795L616.1538461538462,291.62519083969465L619.6153846153846,302.02571115973745L623.0769230769231,300.32644178454836L626.5384615384615,311.09230183981185L630,289.39398396705155L633.4615384615385,313.18281050581044L636.9230769230769,266.8230935473912L640.3846153846154,286.98891758123517L643.8461538461538,293.6599763872491L647.3076923076923,296.9448409461664L650.7692307692307,296.9699414968731L654.2307692307692,304.7946914700544L657.6923076923076,289.27631134814015L661.1538461538462,310.3240019929003L664.6153846153846,272.2800167340677L668.0769230769231,284.60303493159785L671.5384615384615,291.7855995889267L675,295.14006791171477L678.4615384615385,295.2439024390244L681.9230769230769,304.12894642430047L685.3846153846154,290.09176018352036L688.8461538461538,307.56819761380746L692.3076923076924,264.8705480352214L695.7692307692308,288.9979170440137L699.2307692307693,286.0851988173535L702.6923076923077,300.0029976019184L706.1538461538462,292.7952755905511L709.6153846153846,303.1968370907882L713.0769230769231,288.3659716622509L716.5384615384615,304.84886547811993L720,271.22660627011567L723.4615384615385,281.42503718110055L726.9230769230769,285.264483627204L730.3846153846154,304.8293120482554L733.8461538461538,295.3556618819777L737.3076923076923,299.90934322473544L740.7692307692307,283.1285613501926L744.2307692307692,306.35805390862447L747.6923076923077,270.9094932507192L751.1538461538462,328.67645065075925L754.6153846153846,288.2429512245318L758.0769230769231,306.55849608906385L761.5384615384615,299.927060539752L765,322.85248564689135L768.4615384615385,278.5003837298542L771.9230769230769,304.1597844344905L775.3846153846155,284.59103682887144L778.8461538461539,295.3899244926852L782.3076923076924,287.0042295491685L785.7692307692308,299.24708171206225L789.2307692307692,292.42377836558546L792.6923076923076,331.89672801635993L796.1538461538461,299.13685431349813L799.6153846153845,320.2151786815808L803.0769230769231,281.5960655129216L806.5384615384615,299.1808996088657L810,299.06504590715116L813.4615384615385,316.5611665727397L816.9230769230769,305.0857593753894L820.3846153846154,311.2395669529455L823.8461538461538,330.0549450549451L827.3076923076923,313.5525073746313L830.7692307692308,283.91150899543777L834.2307692307693,295.25401234567903L837.6923076923077,328.3871085082391L841.1538461538462,357.2233239818129L844.6153846153846,304.77442439327945L848.0769230769231,319.6737299000037L851.5384615384615,291.30666133226646L855,316.5629099256668L858.4615384615385,328.6963742042624L861.9230769230769,324.1659688056108L865.3846153846154,318.3789228159457L868.8461538461538,360.57028525440404L872.3076923076923,321.5981845064127L875.7692307692307,348.0427433546356L879.2307692307692,306.2322774186636L882.6923076923076,334.74892820578447L886.1538461538462,304.5422721968813" style="fill: none; stroke: #ffbb78; stroke-width: 2;"></path></g></g><path class="foreground" d="" style="display: none; fill: none;"></path></g><g transform="translate(0,0)"><path class="background" d="M0,0h900v600h-900Z" style="fill: none;"></path><g><g class="mark-line role-mark marks"><path d="M6.923076923076923,564.156338028169L10.384615384615385,535.5249971850017L13.846153846153847,513.3765347885402L17.30769230769231,489.6079881656804L20.76923076923077,456.3502408614338L24.230769230769234,447.18944367657224L27.692307692307693,417.77497067580975L31.153846153846157,467.2307758643564L34.61538461538462,452.9628829607229L38.07692307692308,438.89545759653157L41.53846153846154,435.14008872285785L45,418.2243330339201L48.46153846153847,390.5769390332722L51.92307692307693,376.5904267447775L55.38461538461539,334.7922647743893L58.84615384615385,408.59066925853926L62.307692307692314,399.5985987447088L65.76923076923077,397.0592591506335L69.23076923076924,377.28610713040786L72.6923076923077,355.49653204781345L76.15384615384616,340.64698718204687L79.61538461538461,342.49911413385155L83.07692307692308,317.1165788853078L86.53846153846155,365.5773402019928L90,363.4610969640195L93.46153846153847,346.4967982924227L96.92307692307693,333.7045549519432L100.38461538461539,327.0842940842941L103.84615384615385,319.417072156882L107.3076923076923,308.57121087166985L110.76923076923077,283.0721802138583L114.23076923076923,342.75401423361956L117.6923076923077,320.9297553431936L121.15384615384615,358.732972897065L124.61538461538463,308.3785572468564L128.07692307692307,296.3782029838764L131.53846153846155,280.1601679950365L135,326.6087015207415L138.46153846153848,257.9921448955949L141.9230769230769,324.6116222408088L145.3846153846154,315.9524770522753L148.84615384615384,336.6909068835741L152.30769230769232,296.6946549252509L155.76923076923077,313.2312106627175L159.23076923076923,292.40481005033774L162.69230769230768,333.26309309593717L166.15384615384616,312.56360078277885L169.6153846153846,334.5408428720084L173.0769230769231,334.1977985323549L176.53846153846155,329.4603524229075L180,318.26428046089734L183.46153846153845,319.9566033309876L186.92307692307693,293.7479406919275L190.3846153846154,337.09100204498975L193.84615384615387,327.7221654749745L197.3076923076923,329.93839233326815L200.76923076923077,321.9384116693679L204.23076923076923,326.15073733571916L207.6923076923077,324.0757439134356L211.15384615384616,313.9763067462471L214.6153846153846,287.86778754298814L218.07692307692307,314.79033985233616L221.53846153846155,300.7906497078034L225,320.91622629779295L228.46153846153845,316.23237277743715L231.9230769230769,318.79421880117917L235.3846153846154,328.79938665985173L238.84615384615384,307.5505861570579L242.3076923076923,279.56608709032156L245.76923076923075,302.51748521470813L249.23076923076925,303.0283061255055L252.6923076923077,326.20097161278767L256.15384615384613,311.4387398971345L259.6153846153846,310.720768162058L263.0769230769231,304.7810787938177L266.53846153846155,308.60341356861403L270,297.2642123064915L273.46153846153845,321.3080320659999L276.92307692307696,311.0481586402266L280.3846153846154,311.6968867274259L283.8461538461538,309.46304175923484L287.30769230769226,305.68049815704234L290.7692307692308,320.2829382044306L294.2307692307692,322.9198781817499L297.6923076923077,284.56011893700054L301.15384615384613,316.8080111510528L304.61538461538464,300.0729040097205L308.0769230769231,323.90322249940203L311.53846153846155,302.720207253886L315,313.14881477959653L318.46153846153845,318.1245918767141L321.9230769230769,307.2707966950924L325.38461538461536,274.0308871930269L328.8461538461538,311.7696787525831L332.3076923076923,295.2005447294186L335.7692307692308,315.2992778681855L339.2307692307692,308.6283907811544L342.6923076923077,303.9799492385787L346.1538461538462,303.9997346776333L349.61538461538464,303.931823355338L353.0769230769231,275.35242290748903L356.53846153846155,308.6246768833087L360,284.8628884826326L363.46153846153845,303.63795855671344L366.9230769230769,306.62541688608036L370.38461538461536,307.5575255430584L373.84615384615387,295.8062065338086L377.3076923076923,302.85847391133785L380.7692307692308,282.1132108795478L384.2307692307692,301.3824293498923L387.69230769230774,300.69989395546133L391.1538461538462,310.9119562000592L394.6153846153846,311.08250268809394L398.07692307692304,302.45500264690315L401.53846153846155,296.96370219906385L405,308.5987978963186L408.46153846153845,276.9912363162204L411.9230769230769,304.3705177325867L415.3846153846154,289.26123381568925L418.84615384615387,311.8002377570555L422.3076923076923,308.8240709485378L425.7692307692308,299.96150256649554L429.2307692307692,304.566141233913L432.6923076923077,296.6458307954684L436.15384615384613,264.70266688752696L439.6153846153846,297.3765341260264L443.0769230769231,289.82597849973274L446.53846153846155,309.36235060443136L450,299.86419194205524L453.46153846153845,306.57089214470113L456.9230769230769,293.9262218854407L460.38461538461536,303.8769079271295L463.8461538461538,272.7011494252874L467.3076923076923,299.6364517692681L470.7692307692308,286.58138684918765L474.2307692307692,307.54674515235456L477.6923076923077,302.65613519470975L481.15384615384613,299.09273208469057L484.6153846153846,299.83183856502245L488.07692307692304,294.26757930285856L491.5384615384615,273.6284870989241L495.00000000000006,300.270443746168L498.4615384615385,285.94258562660866L501.92307692307696,303.2339754234474L505.3846153846154,303.8153879686137L508.8461538461538,306.24293634715855L512.3076923076923,291.5099966861814L515.7692307692307,302.8524564350199L519.2307692307692,268.76106535293667L522.6923076923077,290.46768526405447L526.1538461538462,289.56054378754345L529.6153846153846,298.5204545454546L533.0769230769231,298.9756097560976L536.5384615384615,303.35197559558395L540,294.2713567839196L543.4615384615385,303.9054550593555L546.9230769230769,260.41715565987414L550.3846153846155,298.6136044880785L553.8461538461539,285.76104746317515L557.3076923076924,304.838126283826L560.7692307692308,302.9640479360852L564.2307692307692,300.7995495495495L567.6923076923076,293.2426871813221L571.1538461538461,300.1133909287257L574.6153846153845,265.23201524535494L578.0769230769231,295.3784374196864L581.5384615384615,288.40938609403406L585,300.0142103962435L588.4615384615385,298.44095261478026L591.9230769230769,300.8323302840636L595.3846153846154,291.63178548070636L598.8461538461538,298.65375503435206L602.3076923076923,267.48298733741063L605.7692307692308,292.834526431718L609.2307692307693,286.94990488268866L612.6923076923077,303.9176117411607L616.1538461538462,294.67840677197495L619.6153846153846,301.2412242211496L623.0769230769231,293.97733165419663L626.5384615384615,299.94774082321675L630,264.0968742543546L633.4615384615385,293.302147679931L636.9230769230769,287.47176368375324L640.3846153846154,299.94585023722755L643.8461538461538,300.99037418655104L647.3076923076923,301.4098915081704L650.7692307692307,294.67037062131584L654.2307692307692,296.12840272217767L657.6923076923076,273.05370080977406L661.1538461538462,292.55552250644456L664.6153846153846,292.4784087935096L668.0769230769231,298.7664911835596L671.5384615384615,301.8398160805269L675,296.93145589798087L678.4615384615385,291.7533039647577L681.9230769230769,297.1201873048907L685.3846153846154,271.53962412932054L688.8461538461538,292.29523432262783L692.3076923076924,288.7776896320254L695.7692307692308,303.6516223679668L699.2307692307693,295.2428094429149L702.6923076923077,302.24710982658956L706.1538461538462,292.34997390850583L709.6153846153846,295.9721118928734L713.0769230769231,270.46775077653933L716.5384615384615,292.6788828261236L720,292.6587920659684L723.4615384615385,297.1051558166095L726.9230769230769,293.6665758648869L730.3846153846154,310.7258064516129L733.8461538461538,296.4369338348254L737.3076923076923,292.75256280873214L740.7692307692307,273.14207344379764L744.2307692307692,295.6997366790583L747.6923076923077,291.55656953230323L751.1538461538462,334.4605263157895L754.6153846153846,295.924624880815L758.0769230769231,308.4889402679124L761.5384615384615,297.3071074704468L765,319.8097862767154L768.4615384615385,264.4751174711662L771.9230769230769,296.60027275337353L775.3846153846155,299.8057341279152L778.8461538461539,310.85035613492806L782.3076923076924,310.81353523691104L785.7692307692308,303.3749830692131L789.2307692307692,293.0363097443497L792.6923076923076,325.19717644157663L796.1538461538461,281.73131370328423L799.6153846153845,308.4035873478484L803.0769230769231,294.78028820494575L806.5384615384615,314.20943435177537L810,306.52864769431244L813.4615384615385,319.3292342647586L816.9230769230769,303.05093250815423L820.3846153846154,305.84295161422824L823.8461538461538,322.6851745190647L827.3076923076923,303.849727553676L830.7692307692308,305.94594594594594L834.2307692307693,312.69340446168763L837.6923076923077,328.6437475015445L841.1538461538462,355.3377258546731L844.6153846153846,305.6444858073523L848.0769230769231,308.9046631927275L851.5384615384615,278.89674976070575L855,306.5989929088714L858.4615384615385,336.68580638662235L861.9230769230769,323.8865700314356L865.3846153846154,321.1188493035627L868.8461538461538,348.97254601706305L872.3076923076923,313.8347352795646L875.7692307692307,334.242485916181L879.2307692307692,300.79332169358366L882.6923076923076,331.3364820635795L886.1538461538462,318.62068965517244" style="fill: none; stroke: #2ca02c; stroke-width: 2;"></path></g></g><path class="foreground" d="" style="display: none; fill: none;"></path></g><g transform="translate(0,0)"><path class="background" d="M0,0h900v600h-900Z" style="fill: none;"></path><g><g class="mark-line role-mark marks"><path d="M6.923076923076923,586.6377898684697L10.384615384615385,579.0598310391464L13.846153846153847,571.3413719494606L17.30769230769231,563.7475120841626L20.76923076923077,556.0543390519787L24.230769230769234,548.4975769941975L27.692307692307693,541.2851176598849L31.153846153846157,563.9320485923544L34.61538461538462,559.7797174287891L38.07692307692308,556.8892215568862L41.53846153846154,551.5698824624694L45,547.3307912297425L48.46153846153847,545.0198789394921L51.92307692307693,540.729561780848L55.38461538461539,532.4918860439957L58.84615384615385,552.8531883219941L62.307692307692314,549.9104963384866L65.76923076923077,547.4593727948196L69.23076923076924,544.5635435852532L72.6923076923077,541.7363383507853L76.15384615384616,539.3036293892003L79.61538461538461,536.8764623303697L83.07692307692308,533.2181504046558L86.53846153846155,547.5187697576396L90,545.0704225352113L93.46153846153847,543.0712929503277L96.92307692307693,541.954590325765L100.38461538461539,539.3783921302578L103.84615384615385,537.0024704913533L107.3076923076923,536.0570399749505L110.76923076923077,527.2200234126763L114.23076923076923,542.2698189041855L117.6923076923077,539.9714906326365L121.15384615384615,538.5813999213527L124.61538461538463,536.8294962195225L128.07692307692307,535.0023790806405L131.53846153846155,535.9617391304348L135,531.859627547435L138.46153846153848,529.786989942254L141.9230769230769,540.6726410850836L145.3846153846154,539.1765262659726L148.84615384615384,537.46128593693L152.30769230769232,536.8635099274227L155.76923076923077,533.7109663339645L159.23076923076923,532.1453722334004L162.69230769230768,531.0893918210415L166.15384615384616,525.8977107901874L169.6153846153846,536.6776247746816L173.0769230769231,535.8319912573335L176.53846153846155,534.6224741251848L180,533.4290219804975L183.46153846153845,532.1775975255649L186.92307692307693,531.179737150614L190.3846153846154,529.9217188540972L193.84615384615387,528.9320733477501L197.3076923076923,537.6527648174348L200.76923076923077,534.8675818502096L204.23076923076923,533.7946388615412L207.6923076923077,532.7610453533341L211.15384615384616,532.0790980672871L214.6153846153846,537.5993888659007L218.07692307692307,529.3254425473971L221.53846153846155,529.7238015138772L225,533.9384989576095L228.46153846153845,533.1231436140323L231.9230769230769,532.1809582115491L235.3846153846154,531.6029235469275L238.84615384615384,530.1919538467436L242.3076923076923,529.4307014571332L245.76923076923075,536.4076877411695L249.23076923076925,527.6690741956664L252.6923076923077,535.4014546491728L256.15384615384613,532.9050547760907L259.6153846153846,532.6268201033349L263.0769230769231,531.0836608646828L266.53846153846155,530.7232862903226L270,529.7555012224939L273.46153846153845,528.5958811916727L276.92307692307696,525.6356511437164L280.3846153846154,533.0563780409732L283.8461538461538,532.0350404312669L287.30769230769226,536.7549323156682L290.7692307692308,530.5136325017379L294.2307692307692,530.5340849106402L297.6923076923077,528.8094519100106L301.15384615384613,528.291908158716L304.61538461538464,527.1912100877516L308.0769230769231,532.846100139637L311.53846153846155,531.5515641569459L315,537.4287365177196L318.46153846153845,530.3722820827151L321.9230769230769,531.8829143245414L325.38461538461536,529.3939583855603L328.8461538461538,528.3328662182362L332.3076923076923,532.015737097894L335.7692307692308,531.3977526162292L339.2307692307692,531.2729415726553L342.6923076923077,531.2636138613861L346.1538461538462,537.2477606063588L349.61538461538464,534.1454430379747L353.0769230769231,531.1583372255955L356.53846153846155,528.8379892676768L360,528.4359107420861L363.46153846153845,534.2768141013653L366.9230769230769,532.5204898728215L370.38461538461536,530.4020453895299L373.84615384615387,530.5130361648444L377.3076923076923,531.047043561382L380.7692307692308,534.0395057505665L384.2307692307692,529.3298169058437L387.69230769230774,534.6159192183476L391.1538461538462,533.3150036864095L394.6153846153846,532.9371053909665L398.07692307692304,532.1071227250765L401.53846153846155,535.2026286966046L405,532.0850033075217L408.46153846153845,534.0156104813232L411.9230769230769,529.977603257708L415.3846153846154,528.65747037109L418.84615384615387,534.484697995999L422.3076923076923,534.6788517141678L425.7692307692308,533.1619022869023L429.2307692307692,531.0868953880765L432.6923076923077,531.4339184305627L436.15384615384613,543.4251935492887L439.6153846153846,530.8547964089977L443.0769230769231,542.9308272319965L446.53846153846155,534.0935141179759L450,534.376427592508L453.46153846153845,536.8534632034632L456.9230769230769,535.4066234408165L460.38461538461536,534.9087275246039L463.8461538461538,535.6985170205595L467.3076923076923,536.9163160038007L470.7692307692308,536.5484582683098L474.2307692307692,539.9787434161024L477.6923076923077,539.5285532836899L481.15384615384613,539.6115142303827L484.6153846153846,539.4636757830478L488.07692307692304,539.7258946617525L491.5384615384615,542.5122425706044L495.00000000000006,540.274717093508L498.4615384615385,540.6132213212336L501.92307692307696,541.4031760951299L505.3846153846154,541.5491322020775L508.8461538461538,541.0487097740499L512.3076923076923,541.6387687292333L515.7692307692307,542.2120429536778L519.2307692307692,542.096923946391L522.6923076923077,541.9781354782053L526.1538461538462,541.9714758490269L529.6153846153846,543.070412192191L533.0769230769231,543.9405624872542L536.5384615384615,544.1431892778993L540,544.456259062349L543.4615384615385,544.7020657012652L546.9230769230769,548.318476301817L550.3846153846155,544.2311585175958L553.8461538461539,542.010446647479L557.3076923076924,545.1464315352697L560.7692307692308,546.1373404375191L564.2307692307692,544.2369833248284L567.6923076923076,544.3693525623347L571.1538461538461,543.5891133357168L574.6153846153845,543.4182046574548L578.0769230769231,542.7408978921434L581.5384615384615,544.5539428677082L585,547.2127636442705L588.4615384615385,544.0500774393391L591.9230769230769,542.5525054701224L595.3846153846154,544.1885653409091L598.8461538461538,544.7324570932001L602.3076923076923,545.8393781656448L605.7692307692308,544.8957451312447L609.2307692307693,543.5592711682743L612.6923076923077,545.9003521365206L616.1538461538462,545.9368057600171L619.6153846153846,545.6281692952685L623.0769230769231,545.899578302208L626.5384615384615,545.1934355892618L630,545.8529174199008L633.4615384615385,545.3011426960967L636.9230769230769,544.7073742458595L640.3846153846154,546.2858048474254L643.8461538461538,546.6833873229223L647.3076923076923,546.3323483033812L650.7692307692307,546.7232573536367L654.2307692307692,546.3787571965104L657.6923076923076,547.5380406907163L661.1538461538462,546.0915660276767L664.6153846153846,543.7207687241813L668.0769230769231,547.9249177631579L671.5384615384615,547.2177796354757L675,546.1144856177477L678.4615384615385,547.0676724231093L681.9230769230769,545.86212650029L685.3846153846154,546.9541547277937L688.8461538461538,546.4454019940603L692.3076923076924,546.5739217884118L695.7692307692308,547.4487354750512L699.2307692307693,547.1622554894274L702.6923076923077,547.1264792899408L706.1538461538462,546.2281990737457L709.6153846153846,545.820525395108L713.0769230769231,548.2829122817079L716.5384615384615,546.8498817966903L720,546.3392900571029L723.4615384615385,547.3499007373795L726.9230769230769,547.629093550911L730.3846153846154,547.451676957685L733.8461538461538,547.2250209521003L737.3076923076923,546.7686209371664L740.7692307692307,547.2324793276399L744.2307692307692,546.6282023418186L747.6923076923077,546.9742565784782L751.1538461538462,548.111182652585L754.6153846153846,548.372526966924L758.0769230769231,547.6954675311346L761.5384615384615,547.7228829927824L765,547.2080952542431L768.4615384615385,548.8072116402979L771.9230769230769,547.5549641430308L775.3846153846155,547.850074180348L778.8461538461539,548.3670437001543L782.3076923076924,548.1839448117825L785.7692307692308,547.7601280165388L789.2307692307692,547.607544306199L792.6923076923076,547.8514409390477L796.1538461538461,548.0361641640408L799.6153846153845,547.3435637663886L803.0769230769231,547.524717649128L806.5384615384615,548.2397423146812L810,548.4832899193459L813.4615384615385,548.086855065839L816.9230769230769,548.3343276632278L820.3846153846154,547.4763474612942L823.8461538461538,549.0262769704199L827.3076923076923,547.4077116385878L830.7692307692308,547.6591286499277L834.2307692307693,547.9004383064346L837.6923076923077,549.0275037716142L841.1538461538462,549.930852514182L844.6153846153846,548.0143543946637L848.0769230769231,548.0558760647505L851.5384615384615,548.236324115445L855,547.6079511012326L858.4615384615385,548.7550400261395L861.9230769230769,548.5778475248812L865.3846153846154,548.9087715023946L868.8461538461538,550.1367067470343L872.3076923076923,549.5299419673746L875.7692307692307,549.1276398793198L879.2307692307692,549.5074611290827L882.6923076923076,549.1724346162806L886.1538461538462,547.2661293885253" style="fill: none; stroke: #98df8a; stroke-width: 2;"></path></g></g><path class="foreground" d="" style="display: none; fill: none;"></path></g></g><g class="mark-group role-legend"><g transform="translate(918,0)"><path class="background" d="M0,0h119v92h-119Z" style="pointer-events: none; fill: none;"></path><g><g class="mark-group role-legend-entry"><g transform="translate(0,16)"><path class="background" d="M0,0h0v0h0Z" style="pointer-events: none; fill: none;"></path><g><g class="mark-group role-scope"><g transform="translate(0,0)"><path class="background" d="M0,0h119v11h-119Z" style="pointer-events: none; fill: none; opacity: 1;"></path><g><g class="mark-symbol role-legend-symbol" style="pointer-events: none;"><path transform="translate(6,6)" d="M-5,0L5,0" style="fill: none; stroke: #1f77b4; stroke-width: 1.5; opacity: 1;"></path></g><g class="mark-text role-legend-label" style="pointer-events: none;"><text text-anchor="start" transform="translate(16,9)" style="font-family: sans-serif; font-size: 10px; fill: #000; opacity: 1;">01. LoopVectorization</text></g></g><path class="foreground" d="" style="pointer-events: none; display: none; fill: none;"></path></g><g transform="translate(0,13)"><path class="background" d="M0,0h119v11h-119Z" style="pointer-events: none; fill: none; opacity: 1;"></path><g><g class="mark-symbol role-legend-symbol" style="pointer-events: none;"><path transform="translate(6,6)" d="M-5,0L5,0" style="fill: none; stroke: #aec7e8; stroke-width: 1.5; opacity: 1;"></path></g><g class="mark-text role-legend-label" style="pointer-events: none;"><text text-anchor="start" transform="translate(16,9)" style="font-family: sans-serif; font-size: 10px; fill: #000; opacity: 1;">02. Julia</text></g></g><path class="foreground" d="" style="pointer-events: none; display: none; fill: none;"></path></g><g transform="translate(0,26)"><path class="background" d="M0,0h119v11h-119Z" style="pointer-events: none; fill: none; opacity: 1;"></path><g><g class="mark-symbol role-legend-symbol" style="pointer-events: none;"><path transform="translate(6,6)" d="M-5,0L5,0" style="fill: none; stroke: #ff7f0e; stroke-width: 1.5; opacity: 1;"></path></g><g class="mark-text role-legend-label" style="pointer-events: none;"><text text-anchor="start" transform="translate(16,9)" style="font-family: sans-serif; font-size: 10px; fill: #000; opacity: 1;">03. Clang</text></g></g><path class="foreground" d="" style="pointer-events: none; display: none; fill: none;"></path></g><g transform="translate(0,39)"><path class="background" d="M0,0h119v11h-119Z" style="pointer-events: none; fill: none; opacity: 1;"></path><g><g class="mark-symbol role-legend-symbol" style="pointer-events: none;"><path transform="translate(6,6)" d="M-5,0L5,0" style="fill: none; stroke: #ffbb78; stroke-width: 1.5; opacity: 1;"></path></g><g class="mark-text role-legend-label" style="pointer-events: none;"><text text-anchor="start" transform="translate(16,9)" style="font-family: sans-serif; font-size: 10px; fill: #000; opacity: 1;">04. GFortran</text></g></g><path class="foreground" d="" style="pointer-events: none; display: none; fill: none;"></path></g><g transform="translate(0,52)"><path class="background" d="M0,0h119v11h-119Z" style="pointer-events: none; fill: none; opacity: 1;"></path><g><g class="mark-symbol role-legend-symbol" style="pointer-events: none;"><path transform="translate(6,6)" d="M-5,0L5,0" style="fill: none; stroke: #2ca02c; stroke-width: 1.5; opacity: 1;"></path></g><g class="mark-text role-legend-label" style="pointer-events: none;"><text text-anchor="start" transform="translate(16,9)" style="font-family: sans-serif; font-size: 10px; fill: #000; opacity: 1;">05. icc</text></g></g><path class="foreground" d="" style="pointer-events: none; display: none; fill: none;"></path></g><g transform="translate(0,65)"><path class="background" d="M0,0h119v11h-119Z" style="pointer-events: none; fill: none; opacity: 1;"></path><g><g class="mark-symbol role-legend-symbol" style="pointer-events: none;"><path transform="translate(6,6)" d="M-5,0L5,0" style="fill: none; stroke: #98df8a; stroke-width: 1.5; opacity: 1;"></path></g><g class="mark-text role-legend-label" style="pointer-events: none;"><text text-anchor="start" transform="translate(16,9)" style="font-family: sans-serif; font-size: 10px; fill: #000; opacity: 1;">06. ifort</text></g></g><path class="foreground" d="" style="pointer-events: none; display: none; fill: none;"></path></g></g></g><path class="foreground" d="" style="pointer-events: none; display: none; fill: none;"></path></g></g><g class="mark-text role-legend-title" style="pointer-events: none;"><text text-anchor="start" transform="translate(0,9)" style="font-family: sans-serif; font-size: 11px; font-weight: bold; fill: #000; opacity: 1;">Method</text></g></g><path class="foreground" d="" style="pointer-events: none; display: none; fill: none;"></path></g></g></g><path class="foreground" d="" style="display: none; fill: none;"></path></g></g></g></svg>
