<?xml version="1.0" encoding="utf-8"?>
<!DOCTYPE svg PUBLIC "-//W3C//DTD SVG 1.1//EN" "http://www.w3.org/Graphics/SVG/1.1/DTD/svg11.dtd">
<svg class="marks" width="1063" height="647" viewBox="0 0 1063 647" version="1.1" xmlns="http://www.w3.org/2000/svg" xmlns:xlink="http://www.w3.org/1999/xlink"><rect width="1063" height="647" style="fill: white;"></rect><g transform="translate(39,10)"><g class="mark-group role-frame root"><g transform="translate(0,0)"><path class="background" d="M0.5,0.5h900v600h-900Z" style="fill: none; stroke: #ddd;"></path><g><g class="mark-group role-axis"><g transform="translate(0.5,600.5)"><path class="background" d="M0,0h0v0h0Z" style="pointer-events: none; fill: none;"></path><g><g class="mark-rule role-axis-grid" style="pointer-events: none;"><line transform="translate(0,-600)" x2="0" y2="600" style="fill: none; stroke: #ddd; stroke-width: 1; opacity: 1;"></line><line transform="translate(35,-600)" x2="0" y2="600" style="fill: none; stroke: #ddd; stroke-width: 1; opacity: 1;"></line><line transform="translate(69,-600)" x2="0" y2="600" style="fill: none; stroke: #ddd; stroke-width: 1; opacity: 1;"></line><line transform="translate(104,-600)" x2="0" y2="600" style="fill: none; stroke: #ddd; stroke-width: 1; opacity: 1;"></line><line transform="translate(138,-600)" x2="0" y2="600" style="fill: none; stroke: #ddd; stroke-width: 1; opacity: 1;"></line><line transform="translate(173,-600)" x2="0" y2="600" style="fill: none; stroke: #ddd; stroke-width: 1; opacity: 1;"></line><line transform="translate(208,-600)" x2="0" y2="600" style="fill: none; stroke: #ddd; stroke-width: 1; opacity: 1;"></line><line transform="translate(242,-600)" x2="0" y2="600" style="fill: none; stroke: #ddd; stroke-width: 1; opacity: 1;"></line><line transform="translate(277,-600)" x2="0" y2="600" style="fill: none; stroke: #ddd; stroke-width: 1; opacity: 1;"></line><line transform="translate(312,-600)" x2="0" y2="600" style="fill: none; stroke: #ddd; stroke-width: 1; opacity: 1;"></line><line transform="translate(346,-600)" x2="0" y2="600" style="fill: none; stroke: #ddd; stroke-width: 1; opacity: 1;"></line><line transform="translate(381,-600)" x2="0" y2="600" style="fill: none; stroke: #ddd; stroke-width: 1; opacity: 1;"></line><line transform="translate(415,-600)" x2="0" y2="600" style="fill: none; stroke: #ddd; stroke-width: 1; opacity: 1;"></line><line transform="translate(450,-600)" x2="0" y2="600" style="fill: none; stroke: #ddd; stroke-width: 1; opacity: 1;"></line><line transform="translate(485,-600)" x2="0" y2="600" style="fill: none; stroke: #ddd; stroke-width: 1; opacity: 1;"></line><line transform="translate(519,-600)" x2="0" y2="600" style="fill: none; stroke: #ddd; stroke-width: 1; opacity: 1;"></line><line transform="translate(554,-600)" x2="0" y2="600" style="fill: none; stroke: #ddd; stroke-width: 1; opacity: 1;"></line><line transform="translate(588,-600)" x2="0" y2="600" style="fill: none; stroke: #ddd; stroke-width: 1; opacity: 1;"></line><line transform="translate(623,-600)" x2="0" y2="600" style="fill: none; stroke: #ddd; stroke-width: 1; opacity: 1;"></line><line transform="translate(658,-600)" x2="0" y2="600" style="fill: none; stroke: #ddd; stroke-width: 1; opacity: 1;"></line><line transform="translate(692,-600)" x2="0" y2="600" style="fill: none; stroke: #ddd; stroke-width: 1; opacity: 1;"></line><line transform="translate(727,-600)" x2="0" y2="600" style="fill: none; stroke: #ddd; stroke-width: 1; opacity: 1;"></line><line transform="translate(762,-600)" x2="0" y2="600" style="fill: none; stroke: #ddd; stroke-width: 1; opacity: 1;"></line><line transform="translate(796,-600)" x2="0" y2="600" style="fill: none; stroke: #ddd; stroke-width: 1; opacity: 1;"></line><line transform="translate(831,-600)" x2="0" y2="600" style="fill: none; stroke: #ddd; stroke-width: 1; opacity: 1;"></line><line transform="translate(865,-600)" x2="0" y2="600" style="fill: none; stroke: #ddd; stroke-width: 1; opacity: 1;"></line><line transform="translate(900,-600)" x2="0" y2="600" style="fill: none; stroke: #ddd; stroke-width: 1; opacity: 1;"></line></g></g><path class="foreground" d="" style="pointer-events: none; display: none; fill: none;"></path></g></g><g class="mark-group role-axis"><g transform="translate(0.5,0.5)"><path class="background" d="M0,0h0v0h0Z" style="pointer-events: none; fill: none;"></path><g><g class="mark-rule role-axis-grid" style="pointer-events: none;"><line transform="translate(0,600)" x2="900" y2="0" style="fill: none; stroke: #ddd; stroke-width: 1; opacity: 1;"></line><line transform="translate(0,563)" x2="900" y2="0" style="fill: none; stroke: #ddd; stroke-width: 1; opacity: 1;"></line><line transform="translate(0,525)" x2="900" y2="0" style="fill: none; stroke: #ddd; stroke-width: 1; opacity: 1;"></line><line transform="translate(0,488)" x2="900" y2="0" style="fill: none; stroke: #ddd; stroke-width: 1; opacity: 1;"></line><line transform="translate(0,450)" x2="900" y2="0" style="fill: none; stroke: #ddd; stroke-width: 1; opacity: 1;"></line><line transform="translate(0,413)" x2="900" y2="0" style="fill: none; stroke: #ddd; stroke-width: 1; opacity: 1;"></line><line transform="translate(0,375)" x2="900" y2="0" style="fill: none; stroke: #ddd; stroke-width: 1; opacity: 1;"></line><line transform="translate(0,338)" x2="900" y2="0" style="fill: none; stroke: #ddd; stroke-width: 1; opacity: 1;"></line><line transform="translate(0,300)" x2="900" y2="0" style="fill: none; stroke: #ddd; stroke-width: 1; opacity: 1;"></line><line transform="translate(0,263)" x2="900" y2="0" style="fill: none; stroke: #ddd; stroke-width: 1; opacity: 1;"></line><line transform="translate(0,225)" x2="900" y2="0" style="fill: none; stroke: #ddd; stroke-width: 1; opacity: 1;"></line><line transform="translate(0,188)" x2="900" y2="0" style="fill: none; stroke: #ddd; stroke-width: 1; opacity: 1;"></line><line transform="translate(0,150)" x2="900" y2="0" style="fill: none; stroke: #ddd; stroke-width: 1; opacity: 1;"></line><line transform="translate(0,113)" x2="900" y2="0" style="fill: none; stroke: #ddd; stroke-width: 1; opacity: 1;"></line><line transform="translate(0,75)" x2="900" y2="0" style="fill: none; stroke: #ddd; stroke-width: 1; opacity: 1;"></line><line transform="translate(0,38)" x2="900" y2="0" style="fill: none; stroke: #ddd; stroke-width: 1; opacity: 1;"></line><line transform="translate(0,0)" x2="900" y2="0" style="fill: none; stroke: #ddd; stroke-width: 1; opacity: 1;"></line></g></g><path class="foreground" d="" style="pointer-events: none; display: none; fill: none;"></path></g></g><g class="mark-group role-axis"><g transform="translate(0.5,600.5)"><path class="background" d="M0,0h0v0h0Z" style="pointer-events: none; fill: none;"></path><g><g class="mark-rule role-axis-tick" style="pointer-events: none;"><line transform="translate(0,0)" x2="0" y2="5" style="fill: none; stroke: #888; stroke-width: 1; opacity: 1;"></line><line transform="translate(35,0)" x2="0" y2="5" style="fill: none; stroke: #888; stroke-width: 1; opacity: 1;"></line><line transform="translate(69,0)" x2="0" y2="5" style="fill: none; stroke: #888; stroke-width: 1; opacity: 1;"></line><line transform="translate(104,0)" x2="0" y2="5" style="fill: none; stroke: #888; stroke-width: 1; opacity: 1;"></line><line transform="translate(138,0)" x2="0" y2="5" style="fill: none; stroke: #888; stroke-width: 1; opacity: 1;"></line><line transform="translate(173,0)" x2="0" y2="5" style="fill: none; stroke: #888; stroke-width: 1; opacity: 1;"></line><line transform="translate(208,0)" x2="0" y2="5" style="fill: none; stroke: #888; stroke-width: 1; opacity: 1;"></line><line transform="translate(242,0)" x2="0" y2="5" style="fill: none; stroke: #888; stroke-width: 1; opacity: 1;"></line><line transform="translate(277,0)" x2="0" y2="5" style="fill: none; stroke: #888; stroke-width: 1; opacity: 1;"></line><line transform="translate(312,0)" x2="0" y2="5" style="fill: none; stroke: #888; stroke-width: 1; opacity: 1;"></line><line transform="translate(346,0)" x2="0" y2="5" style="fill: none; stroke: #888; stroke-width: 1; opacity: 1;"></line><line transform="translate(381,0)" x2="0" y2="5" style="fill: none; stroke: #888; stroke-width: 1; opacity: 1;"></line><line transform="translate(415,0)" x2="0" y2="5" style="fill: none; stroke: #888; stroke-width: 1; opacity: 1;"></line><line transform="translate(450,0)" x2="0" y2="5" style="fill: none; stroke: #888; stroke-width: 1; opacity: 1;"></line><line transform="translate(485,0)" x2="0" y2="5" style="fill: none; stroke: #888; stroke-width: 1; opacity: 1;"></line><line transform="translate(519,0)" x2="0" y2="5" style="fill: none; stroke: #888; stroke-width: 1; opacity: 1;"></line><line transform="translate(554,0)" x2="0" y2="5" style="fill: none; stroke: #888; stroke-width: 1; opacity: 1;"></line><line transform="translate(588,0)" x2="0" y2="5" style="fill: none; stroke: #888; stroke-width: 1; opacity: 1;"></line><line transform="translate(623,0)" x2="0" y2="5" style="fill: none; stroke: #888; stroke-width: 1; opacity: 1;"></line><line transform="translate(658,0)" x2="0" y2="5" style="fill: none; stroke: #888; stroke-width: 1; opacity: 1;"></line><line transform="translate(692,0)" x2="0" y2="5" style="fill: none; stroke: #888; stroke-width: 1; opacity: 1;"></line><line transform="translate(727,0)" x2="0" y2="5" style="fill: none; stroke: #888; stroke-width: 1; opacity: 1;"></line><line transform="translate(762,0)" x2="0" y2="5" style="fill: none; stroke: #888; stroke-width: 1; opacity: 1;"></line><line transform="translate(796,0)" x2="0" y2="5" style="fill: none; stroke: #888; stroke-width: 1; opacity: 1;"></line><line transform="translate(831,0)" x2="0" y2="5" style="fill: none; stroke: #888; stroke-width: 1; opacity: 1;"></line><line transform="translate(865,0)" x2="0" y2="5" style="fill: none; stroke: #888; stroke-width: 1; opacity: 1;"></line><line transform="translate(900,0)" x2="0" y2="5" style="fill: none; stroke: #888; stroke-width: 1; opacity: 1;"></line></g><g class="mark-text role-axis-label" style="pointer-events: none;"><text text-anchor="start" transform="translate(0,15)" style="font-family: sans-serif; font-size: 10px; fill: #000; opacity: 1;">0</text><text text-anchor="middle" transform="translate(34.61538461538462,15)" style="font-family: sans-serif; font-size: 10px; fill: #000; opacity: 1;">10</text><text text-anchor="middle" transform="translate(69.23076923076924,15)" style="font-family: sans-serif; font-size: 10px; fill: #000; opacity: 1;">20</text><text text-anchor="middle" transform="translate(103.84615384615385,15)" style="font-family: sans-serif; font-size: 10px; fill: #000; opacity: 1;">30</text><text text-anchor="middle" transform="translate(138.46153846153848,15)" style="font-family: sans-serif; font-size: 10px; fill: #000; opacity: 1;">40</text><text text-anchor="middle" transform="translate(173.0769230769231,15)" style="font-family: sans-serif; font-size: 10px; fill: #000; opacity: 1;">50</text><text text-anchor="middle" transform="translate(207.6923076923077,15)" style="font-family: sans-serif; font-size: 10px; fill: #000; opacity: 1;">60</text><text text-anchor="middle" transform="translate(242.3076923076923,15)" style="font-family: sans-serif; font-size: 10px; fill: #000; opacity: 1;">70</text><text text-anchor="middle" transform="translate(276.92307692307696,15)" style="font-family: sans-serif; font-size: 10px; fill: #000; opacity: 1;">80</text><text text-anchor="middle" transform="translate(311.53846153846155,15)" style="font-family: sans-serif; font-size: 10px; fill: #000; opacity: 1;">90</text><text text-anchor="middle" transform="translate(346.1538461538462,15)" style="font-family: sans-serif; font-size: 10px; fill: #000; opacity: 1;">100</text><text text-anchor="middle" transform="translate(380.7692307692308,15)" style="font-family: sans-serif; font-size: 10px; fill: #000; opacity: 1;">110</text><text text-anchor="middle" transform="translate(415.3846153846154,15)" style="font-family: sans-serif; font-size: 10px; fill: #000; opacity: 1;">120</text><text text-anchor="middle" transform="translate(450,15)" style="font-family: sans-serif; font-size: 10px; fill: #000; opacity: 1;">130</text><text text-anchor="middle" transform="translate(484.6153846153846,15)" style="font-family: sans-serif; font-size: 10px; fill: #000; opacity: 1;">140</text><text text-anchor="middle" transform="translate(519.2307692307692,15)" style="font-family: sans-serif; font-size: 10px; fill: #000; opacity: 1;">150</text><text text-anchor="middle" transform="translate(553.8461538461539,15)" style="font-family: sans-serif; font-size: 10px; fill: #000; opacity: 1;">160</text><text text-anchor="middle" transform="translate(588.4615384615385,15)" style="font-family: sans-serif; font-size: 10px; fill: #000; opacity: 1;">170</text><text text-anchor="middle" transform="translate(623.0769230769231,15)" style="font-family: sans-serif; font-size: 10px; fill: #000; opacity: 1;">180</text><text text-anchor="middle" transform="translate(657.6923076923076,15)" style="font-family: sans-serif; font-size: 10px; fill: #000; opacity: 1;">190</text><text text-anchor="middle" transform="translate(692.3076923076924,15)" style="font-family: sans-serif; font-size: 10px; fill: #000; opacity: 1;">200</text><text text-anchor="middle" transform="translate(726.9230769230769,15)" style="font-family: sans-serif; font-size: 10px; fill: #000; opacity: 1;">210</text><text text-anchor="middle" transform="translate(761.5384615384615,15)" style="font-family: sans-serif; font-size: 10px; fill: #000; opacity: 1;">220</text><text text-anchor="middle" transform="translate(796.1538461538461,15)" style="font-family: sans-serif; font-size: 10px; fill: #000; opacity: 1;">230</text><text text-anchor="middle" transform="translate(830.7692307692308,15)" style="font-family: sans-serif; font-size: 10px; fill: #000; opacity: 1;">240</text><text text-anchor="middle" transform="translate(865.3846153846154,15)" style="font-family: sans-serif; font-size: 10px; fill: #000; opacity: 1;">250</text><text text-anchor="end" transform="translate(900,15)" style="font-family: sans-serif; font-size: 10px; fill: #000; opacity: 1;">260</text></g><g class="mark-rule role-axis-domain" style="pointer-events: none;"><line transform="translate(0,0)" x2="900" y2="0" style="fill: none; stroke: #888; stroke-width: 1; opacity: 1;"></line></g><g class="mark-text role-axis-title" style="pointer-events: none;"><text text-anchor="middle" transform="translate(450,30)" style="font-family: sans-serif; font-size: 11px; font-weight: bold; fill: #000; opacity: 1;">Size</text></g></g><path class="foreground" d="" style="pointer-events: none; display: none; fill: none;"></path></g></g><g class="mark-group role-axis"><g transform="translate(0.5,0.5)"><path class="background" d="M0,0h0v0h0Z" style="pointer-events: none; fill: none;"></path><g><g class="mark-rule role-axis-tick" style="pointer-events: none;"><line transform="translate(0,600)" x2="-5" y2="0" style="fill: none; stroke: #888; stroke-width: 1; opacity: 1;"></line><line transform="translate(0,563)" x2="-5" y2="0" style="fill: none; stroke: #888; stroke-width: 1; opacity: 1;"></line><line transform="translate(0,525)" x2="-5" y2="0" style="fill: none; stroke: #888; stroke-width: 1; opacity: 1;"></line><line transform="translate(0,488)" x2="-5" y2="0" style="fill: none; stroke: #888; stroke-width: 1; opacity: 1;"></line><line transform="translate(0,450)" x2="-5" y2="0" style="fill: none; stroke: #888; stroke-width: 1; opacity: 1;"></line><line transform="translate(0,413)" x2="-5" y2="0" style="fill: none; stroke: #888; stroke-width: 1; opacity: 1;"></line><line transform="translate(0,375)" x2="-5" y2="0" style="fill: none; stroke: #888; stroke-width: 1; opacity: 1;"></line><line transform="translate(0,338)" x2="-5" y2="0" style="fill: none; stroke: #888; stroke-width: 1; opacity: 1;"></line><line transform="translate(0,300)" x2="-5" y2="0" style="fill: none; stroke: #888; stroke-width: 1; opacity: 1;"></line><line transform="translate(0,263)" x2="-5" y2="0" style="fill: none; stroke: #888; stroke-width: 1; opacity: 1;"></line><line transform="translate(0,225)" x2="-5" y2="0" style="fill: none; stroke: #888; stroke-width: 1; opacity: 1;"></line><line transform="translate(0,188)" x2="-5" y2="0" style="fill: none; stroke: #888; stroke-width: 1; opacity: 1;"></line><line transform="translate(0,150)" x2="-5" y2="0" style="fill: none; stroke: #888; stroke-width: 1; opacity: 1;"></line><line transform="translate(0,113)" x2="-5" y2="0" style="fill: none; stroke: #888; stroke-width: 1; opacity: 1;"></line><line transform="translate(0,75)" x2="-5" y2="0" style="fill: none; stroke: #888; stroke-width: 1; opacity: 1;"></line><line transform="translate(0,38)" x2="-5" y2="0" style="fill: none; stroke: #888; stroke-width: 1; opacity: 1;"></line><line transform="translate(0,0)" x2="-5" y2="0" style="fill: none; stroke: #888; stroke-width: 1; opacity: 1;"></line></g><g class="mark-text role-axis-label" style="pointer-events: none;"><text text-anchor="end" transform="translate(-7,603)" style="font-family: sans-serif; font-size: 10px; fill: #000; opacity: 1;">0</text><text text-anchor="end" transform="translate(-7,565.5)" style="font-family: sans-serif; font-size: 10px; fill: #000; opacity: 1;">5</text><text text-anchor="end" transform="translate(-7,528)" style="font-family: sans-serif; font-size: 10px; fill: #000; opacity: 1;">10</text><text text-anchor="end" transform="translate(-7,490.5)" style="font-family: sans-serif; font-size: 10px; fill: #000; opacity: 1;">15</text><text text-anchor="end" transform="translate(-7,453)" style="font-family: sans-serif; font-size: 10px; fill: #000; opacity: 1;">20</text><text text-anchor="end" transform="translate(-7,415.5)" style="font-family: sans-serif; font-size: 10px; fill: #000; opacity: 1;">25</text><text text-anchor="end" transform="translate(-7,378)" style="font-family: sans-serif; font-size: 10px; fill: #000; opacity: 1;">30</text><text text-anchor="end" transform="translate(-7,340.5)" style="font-family: sans-serif; font-size: 10px; fill: #000; opacity: 1;">35</text><text text-anchor="end" transform="translate(-7,303)" style="font-family: sans-serif; font-size: 10px; fill: #000; opacity: 1;">40</text><text text-anchor="end" transform="translate(-7,265.5)" style="font-family: sans-serif; font-size: 10px; fill: #000; opacity: 1;">45</text><text text-anchor="end" transform="translate(-7,228)" style="font-family: sans-serif; font-size: 10px; fill: #000; opacity: 1;">50</text><text text-anchor="end" transform="translate(-7,190.5)" style="font-family: sans-serif; font-size: 10px; fill: #000; opacity: 1;">55</text><text text-anchor="end" transform="translate(-7,153)" style="font-family: sans-serif; font-size: 10px; fill: #000; opacity: 1;">60</text><text text-anchor="end" transform="translate(-7,115.5)" style="font-family: sans-serif; font-size: 10px; fill: #000; opacity: 1;">65</text><text text-anchor="end" transform="translate(-7,78)" style="font-family: sans-serif; font-size: 10px; fill: #000; opacity: 1;">70</text><text text-anchor="end" transform="translate(-7,40.5)" style="font-family: sans-serif; font-size: 10px; fill: #000; opacity: 1;">75</text><text text-anchor="end" transform="translate(-7,3)" style="font-family: sans-serif; font-size: 10px; fill: #000; opacity: 1;">80</text></g><g class="mark-rule role-axis-domain" style="pointer-events: none;"><line transform="translate(0,600)" x2="0" y2="-600" style="fill: none; stroke: #888; stroke-width: 1; opacity: 1;"></line></g><g class="mark-text role-axis-title" style="pointer-events: none;"><text text-anchor="middle" transform="translate(-23,300) rotate(-90) translate(0,-2)" style="font-family: sans-serif; font-size: 11px; font-weight: bold; fill: #000; opacity: 1;">GFLOPS</text></g></g><path class="foreground" d="" style="pointer-events: none; display: none; fill: none;"></path></g></g><g class="mark-group role-scope pathgroup"><g transform="translate(0,0)"><path class="background" d="M0,0h900v600h-900Z" style="fill: none;"></path><g><g class="mark-line role-mark marks"><path d="M6.923076923076923,590.4062106107483L10.384615384615385,588.9862380152422L13.846153846153847,588.3672643926116L17.30769230769231,588.2250973681105L20.76923076923077,587.8565129428853L24.230769230769234,587.7290559931611L27.692307692307693,587.6381195852862L31.153846153846157,587.5809360944528L34.61538461538462,587.5549048316252L38.07692307692308,587.5141631595985L41.53846153846154,588.0078380143697L45,587.9447801275596L48.46153846153847,588.7926051425155L51.92307692307693,587.8488563629518L55.38461538461539,587.8077529675438L58.84615384615385,587.7730308183666L62.307692307692314,587.7463848720801L65.76923076923077,587.8310585280412L69.23076923076924,587.6930501930501L72.6923076923077,587.6713390759593L76.15384615384616,587.6491779842745L79.61538461538461,587.6288517975055L83.07692307692308,587.6367105300076L86.53846153846155,588.5555794915985L90,587.653277561311L93.46153846153847,587.5776003207591L96.92307692307693,587.5681950087057L100.38461538461539,587.55820924386L103.84615384615385,587.5690607734807L107.3076923076923,587.5694937607792L110.76923076923077,587.5479256080115L114.23076923076923,587.5316540948277L117.6923076923077,587.5262356127284L121.15384615384615,587.5239635753654L124.61538461538463,587.5459752788664L128.07692307692307,588.4749092109607L131.53846153846155,587.5298022216201L135,587.4917763157895L138.46153846153848,587.4885004599817L141.9230769230769,587.4698918444899L145.3846153846154,587.4827471059662L148.84615384615384,587.4695705325821L152.30769230769232,587.4636871508379L155.76923076923077,587.4568839875632L159.23076923076923,587.4492928917008L162.69230769230768,587.4494229312419L166.15384615384616,587.4782608695651L169.6153846153846,587.4434987694832L173.0769230769231,587.4359479700433L176.53846153846155,587.4549839228296L180,587.4266958424507L183.46153846153845,587.4391505629011L186.92307692307693,587.4186998747928L190.3846153846154,587.4274700915995L193.84615384615387,587.4173144097932L197.3076923076923,587.4234167223268L200.76923076923077,587.4197806065583L204.23076923076923,587.4155750255189L207.6923076923077,587.4004940982707L211.15384615384616,587.4016809177333L214.6153846153846,587.3946143360511L218.07692307692307,587.405487804878L221.53846153846155,587.3937287276414L225,588.3923569212204L228.46153846153845,587.3949751480901L231.9230769230769,587.3918383081838L235.3846153846154,587.3966394458934L238.84615384615384,587.3793608881866L242.3076923076923,587.3869417750142L245.76923076923075,587.3789396170839L249.23076923076925,587.392034182817L252.6923076923077,587.3739152249457L256.15384615384613,587.3758724189057L259.6153846153846,587.3754598743158L263.0769230769231,587.3693959455287L266.53846153846155,587.3724630418442L270,587.37451171875L273.46153846153845,587.3746152381557L276.92307692307696,587.37467508355L280.3846153846154,587.3632511556241L283.8461538461538,587.3605295748068L287.30769230769226,587.3662692020022L290.7692307692308,587.3607013403017L294.2307692307692,588.360908953074L297.6923076923077,587.360061122728L301.15384615384613,587.3537563391909L304.61538461538464,588.3611330496387L308.0769230769231,587.3548837442247L311.53846153846155,587.361406858066L315,587.3511177400804L318.46153846153845,587.3602098901356L321.9230769230769,587.3494608236779L325.38461538461536,587.3496451670859L328.8461538461538,587.3443738108069L332.3076923076923,587.3428411392132L335.7692307692308,587.3400151964457L339.2307692307692,587.3446123317968L342.6923076923077,587.3377225425326L346.1538461538462,587.3488058264951L349.61538461538464,587.3420712005606L353.0769230769231,587.3453598412577L356.53846153846155,587.3383178882336L360,587.3401266868631L363.46153846153845,587.3448134610537L366.9230769230769,587.3359971005012L370.38461538461536,587.3366052761705L373.84615384615387,587.3379310344827L377.3076923076923,587.3422616063372L380.7692307692308,587.3483897950648L384.2307692307692,587.3344983552631L387.69230769230774,587.3376191531811L391.1538461538462,587.3335239473439L394.6153846153846,588.3355742494105L398.07692307692304,587.325996106522L401.53846153846155,587.3288182160609L405,587.3321756739102L408.46153846153845,587.3298029503915L411.9230769230769,587.3320318255488L415.3846153846154,587.3344370860927L418.84615384615387,588.3352131774469L422.3076923076923,587.3268020996113L425.7692307692308,587.3294786487037L429.2307692307692,587.3272267723356L432.6923076923077,587.3296307367457L436.15384615384613,587.3251263298289L439.6153846153846,587.3252829002514L443.0769230769231,587.3228102754565L446.53846153846155,587.3300957829239L450,587.3229865919881L453.46153846153845,587.320119495361L456.9230769230769,587.32550576798L460.38461538461536,587.3212458680938L463.8461538461538,587.3234921179838L467.3076923076923,587.3240733164225L470.7692307692308,587.3238800675131L474.2307692307692,587.3166973186981L477.6923076923077,587.3198460485982L481.15384615384613,587.3234832501415L484.6153846153846,587.3345226752083L488.07692307692304,587.3238977041442L491.5384615384615,587.3199903330653L495.00000000000006,587.3206235501801L498.4615384615385,587.3182524607149L501.92307692307696,587.3140782350268L505.3846153846154,587.3163458172909L508.8461538461538,588.3246072743761L512.3076923076923,587.3147466819285L515.7692307692307,587.3197382979963L519.2307692307692,587.3143304398583L522.6923076923077,587.31901932816L526.1538461538462,587.3170815716734L529.6153846153846,587.3112511691182L533.0769230769231,587.3162639105029L536.5384615384615,587.314523008879L540,587.3157769947102L543.4615384615385,587.3192965537834L546.9230769230769,588.3229815943267L550.3846153846155,587.3119321849758L553.8461538461539,587.318066315945L557.3076923076924,587.3106051879838L560.7692307692308,587.3148179740011L564.2307692307692,587.3090863794221L567.6923076923076,587.3104377204052L571.1538461538461,587.3114271406013L574.6153846153845,587.3101886465342L578.0769230769231,587.3070271254323L581.5384615384615,587.3081440255633L585,587.3094515382578L588.4615384615385,587.3084076740262L591.9230769230769,587.3044448757764L595.3846153846154,587.3077039554487L598.8461538461538,587.3032830248947L602.3076923076923,587.3090617387045L605.7692307692308,587.3044715896528L609.2307692307693,587.3173520014129L612.6923076923077,587.3121654887635L616.1538461538462,587.3080439474817L619.6153846153846,587.3042839828454L623.0769230769231,588.3149283790817L626.5384615384615,587.3051411256622L630,587.3012565511145L633.4615384615385,587.3019086477983L636.9230769230769,587.305978773897L640.3846153846154,587.3258412770333L643.8461538461538,587.306868867083L647.3076923076923,587.3074935805098L650.7692307692307,587.2998748689506L654.2307692307692,587.3024311024993L657.6923076923076,588.3128803979372L661.1538461538462,587.3074073568739L664.6153846153846,587.3043450075361L668.0769230769231,587.3030728758686L671.5384615384615,587.3071978754471L675,587.3009631302125L678.4615384615385,587.3048900915192L681.9230769230769,587.3021537964095L685.3846153846154,587.2985650723308L688.8461538461538,587.3022326783841L692.3076923076924,587.3016189190939L695.7692307692308,587.2998875731329L699.2307692307693,587.2989936867392L702.6923076923077,587.3003867303161L706.1538461538462,587.3036337271905L709.6153846153846,587.2982379825813L713.0769230769231,587.3030783744081L716.5384615384615,587.3023918207216L720,587.2998155809889L723.4615384615385,587.2991970390101L726.9230769230769,587.2978706100818L730.3846153846154,587.3000910583803L733.8461538461538,587.2999592205812L737.3076923076923,588.3093455752919L740.7692307692307,587.297900527968L744.2307692307692,587.2952944397259L747.6923076923077,587.2976175986369L751.1538461538462,587.3069299918394L754.6153846153846,587.3084584304681L758.0769230769231,587.3013390122293L761.5384615384615,587.29941158674L765,587.3007802383132L768.4615384615385,587.2996838922485L771.9230769230769,587.299724379403L775.3846153846155,587.2962566547587L778.8461538461539,587.302670404249L782.3076923076924,587.295692327501L785.7692307692308,587.294923536874L789.2307692307692,587.2980379681337L792.6923076923076,587.3045911537695L796.1538461538461,587.2954386202844L799.6153846153845,588.3116165243026L803.0769230769231,587.297177730597L806.5384615384615,587.2970315654248L810,587.2980186671033L813.4615384615385,587.298872604284L816.9230769230769,587.3008004463616L820.3846153846154,587.298932879788L823.8461538461538,587.3382726525231L827.3076923076923,587.3008003557136L830.7692307692308,587.3065256280626L834.2307692307693,587.3025335512068L837.6923076923077,587.3122860080032L841.1538461538462,587.3130811592347L844.6153846153846,588.3243891747226L848.0769230769231,587.3004385746573L851.5384615384615,587.3054009453753L855,587.3134649069873L858.4615384615385,587.3132029561368L861.9230769230769,587.2990412979351L865.3846153846154,587.3136146108951L868.8461538461538,587.2920766782261L872.3076923076923,587.2970878295058L875.7692307692307,587.2997422957156L879.2307692307692,587.3030384885507L882.6923076923076,587.3146508987643L886.1538461538462,587.3221755417688" style="fill: none; stroke: #ff7f0e; stroke-width: 2;"></path></g></g><path class="foreground" d="" style="display: none; fill: none;"></path></g><g transform="translate(0,0)"><path class="background" d="M0,0h900v600h-900Z" style="fill: none;"></path><g><g class="mark-line role-mark marks"><path d="M6.923076923076923,569.7629656032793L10.384615384615385,556.3179087917974L13.846153846153847,551.4355792814889L17.30769230769231,545.0585218306155L20.76923076923077,537.2883902493821L24.230769230769234,535.3400586374509L27.692307692307693,400.5239399097166L31.153846153846157,422.1019083166859L34.61538461538462,451.34889470622454L38.07692307692308,458.43537247163295L41.53846153846154,464.93607522153826L45,466.79046867904685L48.46153846153847,481.3162825149231L51.92307692307693,499.71549827098397L55.38461538461539,293.98973946283076L58.84615384615385,359.7792829545727L62.307692307692314,408.5758925276185L65.76923076923077,389.7851359767491L69.23076923076924,405.8924827792752L72.6923076923077,419.09618804555885L76.15384615384616,443.46260632524803L79.61538461538461,445.155023479622L83.07692307692308,262.99094915930567L86.53846153846155,317.44833785364153L90,353.0571809047254L93.46153846153847,374.93730531490314L96.92307692307693,370.0841038985177L100.38461538461539,384.6770487221687L103.84615384615385,389.98247663551405L107.3076923076923,433.7092180770916L110.76923076923077,295.7641190177871L114.23076923076923,287.9477298524404L117.6923076923077,320.0821638479069L121.15384615384615,377.8470578288806L124.61538461538463,387.4817799879962L128.07692307692307,405.0742880726372L131.53846153846155,375.04451038575667L135,400.417667238422L138.46153846153848,254.74768938574798L141.9230769230769,261.2389523301815L145.3846153846154,290.28038641140597L148.84615384615384,322.10189647401444L152.30769230769232,337.0946023051467L155.76923076923077,372.76227776799857L159.23076923076923,383.78746594005446L162.69230769230768,410.42774449754324L166.15384615384616,305.1786431152147L169.6153846153846,339.2884517118038L173.0769230769231,323.1631057842626L176.53846153846155,367.01735281719823L180,357.46746394653536L183.46153846153845,373.6252449276278L186.92307692307693,371.55760368663596L190.3846153846154,409.5265858208955L193.84615384615387,299.05163329820857L197.3076923076923,343.97558714462303L200.76923076923077,340.0387902297109L204.23076923076923,355.04856780175504L207.6923076923077,347.7606198823982L211.15384615384616,356.75374282198527L214.6153846153846,363.5872012005574L218.07692307692307,373.36646596337584L221.53846153846155,316.42050390964374L225,333.55751264014077L228.46153846153845,312.47152619589974L231.9230769230769,345.29630636867097L235.3846153846154,331.38054978990533L238.84615384615384,366.64755253716044L242.3076923076923,338.1844850065189L245.76923076923075,364.8844653091086L249.23076923076925,291.1722562558405L252.6923076923077,317.7462497115162L256.15384615384613,308.93927463059896L259.6153846153846,329.1815263908702L263.0769230769231,344.84293193717275L266.53846153846155,342.1147941778485L270,355.30617877843935L273.46153846153845,372.738566991539L276.92307692307696,304.6332046332046L280.3846153846154,318.18276249298145L283.8461538461538,331.5243090894856L287.30769230769226,315.8600889607764L290.7692307692308,320.7929549598479L294.2307692307692,340.60190073917636L297.6923076923077,336.68691099476433L301.15384615384613,362.6126260673999L304.61538461538464,292.5668470011287L308.0769230769231,304.0071805392732L311.53846153846155,306.65719865080774L315,328.36956521739137L318.46153846153845,321.7853114627308L321.9230769230769,338.12692947043456L325.38461538461536,329.5287581026855L328.8461538461538,350.94114282180516L332.3076923076923,288.25628440671215L335.7692307692308,321.35473006603183L339.2307692307692,323.3728135286903L342.6923076923077,312.5121602524074L346.1538461538462,333.64569655007756L349.61538461538464,337.52724363594433L353.0769230769231,324.09537958698564L356.53846153846155,344.97596153846155L360,284.0480476548948L363.46153846153845,300.2341964965728L366.9230769230769,311.67792760415165L370.38461538461536,314.89306640625L373.84615384615387,321.5577607189665L377.3076923076923,333.1875825627477L380.7692307692308,330.37487984620316L384.2307692307692,337.6321503131524L387.69230769230774,303.59351351351347L391.1538461538462,298.32350216182834L394.6153846153846,317.0360039846307L398.07692307692304,309.9115437550178L401.53846153846155,307.95960054471175L405,328.57026220024255L408.46153846153845,314.30479562278725L411.9230769230769,356.8640587126313L415.3846153846154,292.46231155778895L418.84615384615387,304.6877966208948L422.3076923076923,298.5560885726086L425.7692307692308,318.45114724427833L429.2307692307692,318.52170916609236L432.6923076923077,338.9263833830226L436.15384615384613,304.1003976143141L439.6153846153846,338.56502669717776L443.0769230769231,286.9440115094114L446.53846153846155,306.6093960659591L450,302.9672261088328L453.46153846153845,314.5151188961738L456.9230769230769,317.62821734985704L460.38461538461536,316.16568084570855L463.8461538461538,307.4542376130084L467.3076923076923,336.7324105895238L470.7692307692308,289.77669615549047L474.2307692307692,303.08356424996896L477.6923076923077,305.4694323144105L481.15384615384613,308.60805535841024L484.6153846153846,357.8018995929444L488.07692307692304,321.8652390183241L491.5384615384615,310.7870856457177L495.00000000000006,345.08726046147825L498.4615384615385,290.63421483735084L501.92307692307696,298.8104378113179L505.3846153846154,302.15999999999997L508.8461538461538,318.2011353175821L512.3076923076923,307.2271726596079L515.7692307692307,324.6203424457632L519.2307692307692,313.49745331069613L522.6923076923077,339.5747110991669L526.1538461538462,306.97702178454193L529.6153846153846,293.0953727506427L533.0769230769231,306.02858253937393L536.5384615384615,310.4464032517251L540,308.95413188256265L543.4615384615385,328.51179163787145L546.9230769230769,303.5568594579492L550.3846153846155,331.7916874687968L553.8461538461539,289.20205675109503L557.3076923076924,299.41541609822644L560.7692307692308,316.9351154724643L564.2307692307692,310.0199024139702L567.6923076923076,309.5341351854989L571.1538461538461,320.606286220219L574.6153846153845,299.7872340425532L578.0769230769231,326.3048414408867L581.5384615384615,293.21739130434776L585,299.44474248927037L588.4615384615385,296.703432381266L591.9230769230769,312.46124479407683L595.3846153846154,309.5140546784752L598.8461538461538,324.341002672831L602.3076923076923,299.22159887798034L605.7692307692308,327.02128775167785L609.2307692307693,287.12350471361793L612.6923076923077,302.6613443501563L616.1538461538462,301.8224092116918L619.6153846153846,305.84479406682027L623.0769230769231,309.00253592561285L626.5384615384615,319.2669198198804L630,295.28787878787875L633.4615384615385,330.9484877126654L636.9230769230769,291.1390955924441L640.3846153846154,318.5444078947368L643.8461538461538,303.3431972560361L647.3076923076923,304.7123981720644L650.7692307692307,306.23468057366364L654.2307692307692,314.27681932245923L657.6923076923076,301.21713729308664L661.1538461538462,333.0198886465389L664.6153846153846,291.89380530973455L668.0769230769231,297.0756792958286L671.5384615384615,301.4688316536021L675,306.8633230545982L678.4615384615385,306.38772329456907L681.9230769230769,316.1131669535284L685.3846153846154,296.6003034901365L688.8461538461538,332.4114950447824L692.3076923076924,291.99178644763856L695.7692307692308,300.42875835998836L699.2307692307693,295.40339578454325L702.6923076923077,310.14798367076736L706.1538461538462,300.20679134414377L709.6153846153846,317.85648465062405L713.0769230769231,301.81372278864694L716.5384615384615,325.3131127759063L720,291.66238121855787L723.4615384615385,296.1798319786155L726.9230769230769,297.5552686783928L730.3846153846154,308.99069517071666L733.8461538461538,306.0449369036627L737.3076923076923,317.24765372959234L740.7692307692307,301.13169882786514L744.2307692307692,319.6285857000143L747.6923076923077,288.56918485943146L751.1538461538462,308.9325883550686L754.6153846153846,311.6673804425411L758.0769230769231,312.86906606564304L761.5384615384615,309.31273258278765L765,321.1397832609377L768.4615384615385,345.8148942194895L771.9230769230769,326.3509926629262L775.3846153846155,290.1515958734925L778.8461538461539,303.6551352095864L782.3076923076924,296.21728786677244L785.7692307692308,301.3660227272727L789.2307692307692,306.4936675228058L792.6923076923076,320.63894459764356L796.1538461538461,289.72536571901736L799.6153846153845,334.19567510548524L803.0769230769231,294.1272954180781L806.5384615384615,303.8401720006846L810,304.39132828047593L813.4615384615385,317.2213855421687L816.9230769230769,305.8431713682118L820.3846153846154,318.69166863068585L823.8461538461538,344.66643097047904L827.3076923076923,338.35360158074366L830.7692307692308,303.8829079472602L834.2307692307693,326.7205144291092L837.6923076923077,304.0815598620854L841.1538461538462,316.6554702495202L844.6153846153846,329.6613127248122L848.0769230769231,325.3772247739343L851.5384615384615,309.9436111424383L855,333.6170850313345L858.4615384615385,314.01312910284463L861.9230769230769,327.5409285172675L865.3846153846154,333.5400922891727L868.8461538461538,359.97646865475406L872.3076923076923,341.0197031729785L875.7692307692307,337.6596001157222L879.2307692307692,329.7614901935018L882.6923076923076,340.05494763905443L886.1538461538462,338.110700181784" style="fill: none; stroke: #1f77b4; stroke-width: 2;"></path></g></g><path class="foreground" d="" style="display: none; fill: none;"></path></g><g transform="translate(0,0)"><path class="background" d="M0,0h900v600h-900Z" style="fill: none;"></path><g><g class="mark-line role-mark marks"><path d="M6.923076923076923,581.349235518965L10.384615384615385,570.3685964181591L13.846153846153847,559.8884395481801L17.30769230769231,551.776266938927L20.76923076923077,546.5309631638856L24.230769230769234,536.5281623374525L27.692307692307693,444.45423964737273L31.153846153846157,471.57031250000006L34.61538461538462,477.51696774590414L38.07692307692308,493.5579508729225L41.53846153846154,489.84000000000003L45,493.0303247031898L48.46153846153847,498.10676901605024L51.92307692307693,494.8381332050312L55.38461538461539,399.47094494580523L58.84615384615385,424.8799869195552L62.307692307692314,456.7422257660326L65.76923076923077,448.23103684961376L69.23076923076924,460.3341027346348L72.6923076923077,460.8454085357554L76.15384615384616,458.1231058626816L79.61538461538461,464.9351245896901L83.07692307692308,339.7428564323195L86.53846153846155,385.2935861207859L90,400.0489753834257L93.46153846153847,401.4570005558159L96.92307692307693,407.5436960380253L100.38461538461539,414.32467532467535L103.84615384615385,423.70447519227866L107.3076923076923,431.9961014243615L110.76923076923077,341.0641839817498L114.23076923076923,350.44469594302353L117.6923076923077,372.0815917227418L121.15384615384615,400.45754207960704L124.61538461538463,409.38733658036404L128.07692307692307,411.527724847561L131.53846153846155,401.9548210443967L135,412.5761090171064L138.46153846153848,292.258064516129L141.9230769230769,324.3525307402911L145.3846153846154,337.7572919892875L148.84615384615384,362.15385756676557L152.30769230769232,374.6576593025379L155.76923076923077,395.4626475481264L159.23076923076923,393.04234427738567L162.69230769230768,417.3373759647189L166.15384615384616,317.75557263643356L169.6153846153846,361.508647553755L173.0769230769231,354.1457770921712L176.53846153846155,388.8933095677637L180,380.2536809229397L183.46153846153845,384.4173237825799L186.92307692307693,389.8422926911989L190.3846153846154,402.94921575639904L193.84615384615387,299.86488515237954L197.3076923076923,359.67540755351865L200.76923076923077,362.0471567267684L204.23076923076923,371.1167551957093L207.6923076923077,369.89020905399315L211.15384615384616,371.0169196117338L214.6153846153846,375.46500381776536L218.07692307692307,379.136438582028L221.53846153846155,318.89331467326946L225,340.8495028864657L228.46153846153845,336.5322580645161L231.9230769230769,361.8306130941372L235.3846153846154,351.48517633834484L238.84615384615384,373.7598351830379L242.3076923076923,351.2497788002123L245.76923076923075,367.30570417152745L249.23076923076925,286.8642417223772L252.6923076923077,323.9639100798989L256.15384615384613,325.76983503534956L259.6153846153846,347.2318491541353L263.0769230769231,357.96894256840034L266.53846153846155,354.52264978080865L270,355.11305789037533L273.46153846153845,365.9452900948599L276.92307692307696,298.7076923076923L280.3846153846154,326.71430904933027L283.8461538461538,337.4342483059607L287.30769230769226,333.27842095274247L290.7692307692308,332.49879204608806L294.2307692307692,343.08872232874324L297.6923076923077,342.3172564557999L301.15384615384613,364.9092570036541L304.61538461538464,286.1663157058286L308.0769230769231,314.5888088172955L311.53846153846155,319.3423466268089L315,334.99137200765534L318.46153846153845,330.1509705248023L321.9230769230769,337.09231633799936L325.38461538461536,328.23316562133846L328.8461538461538,351.7165248751618L332.3076923076923,281.74425297085L335.7692307692308,320.75244413407825L339.2307692307692,326.7590054191903L342.6923076923077,320.81601876675603L346.1538461538462,335.9858009170241L349.61538461538464,346.1199492484872L353.0769230769231,324.8475420037337L356.53846153846155,340.51587428461806L360,267.40352811466374L363.46153846153845,303.46826688364524L366.9230769230769,315.15310180275713L370.38461538461536,323.41917453500486L373.84615384615387,328.8678213309024L377.3076923076923,333.0386829583505L380.7692307692308,328.794937153907L384.2307692307692,332.5929130730822L387.69230769230774,292.3913322220797L391.1538461538462,299.2800849675215L394.6153846153846,315.76591000057186L398.07692307692304,314.8579521434007L401.53846153846155,311.2041297273034L405,333.0619876422366L408.46153846153845,315.8321861894548L411.9230769230769,342.0122169036222L415.3846153846154,273.5129367831422L418.84615384615387,301.8578706957133L422.3076923076923,303.7882808353886L425.7692307692308,321.91743793789465L429.2307692307692,320.80464271727135L432.6923076923077,332.24186015254855L436.15384615384613,308.7747820332058L439.6153846153846,330.063006596003L443.0769230769231,274.0074906367041L446.53846153846155,303.3067645516518L450,303.3454945962691L453.46153846153845,316.3379140468011L456.9230769230769,313.61500531760606L460.38461538461536,317.5165956913828L463.8461538461538,304.8138477903491L467.3076923076923,331.0131771878376L470.7692307692308,268.47221734087793L474.2307692307692,301.42888334373055L477.6923076923077,302.12112537826124L481.15384615384613,309.8322470454278L484.6153846153846,344.7395301327885L488.07692307692304,315.5820585705203L491.5384615384615,307.2412222433099L495.00000000000006,329.90287993369935L498.4615384615385,275.3767445667744L501.92307692307696,290.6185081172578L505.3846153846154,300.0562851782364L508.8461538461538,313.48299708818644L512.3076923076923,305.34289934585354L515.7692307692307,320.43185185185183L519.2307692307692,302.50440734211344L522.6923076923077,326.1818310257135L526.1538461538462,282.60316776209464L529.6153846153846,287.60231316725975L533.0769230769231,300.1398254660849L536.5384615384615,308.85015682919874L540,307.61025254428944L543.4615384615385,319.14678284182304L546.9230769230769,298.13069044006073L550.3846153846155,321.1895597266672L553.8461538461539,272.6178535606821L557.3076923076924,293.6478031145718L560.7692307692308,306.7645254578915L564.2307692307692,305.2512398851475L567.6923076923076,305.54353426069036L571.1538461538461,315.38311741554605L574.6153846153845,296.7817381548287L578.0769230769231,317.70026198793266L581.5384615384615,272.79869067103107L585,295.47353236327143L588.4615384615385,292.06501754972425L591.9230769230769,307.2455830388692L595.3846153846154,303.48557503340936L598.8461538461538,312.5030136367061L602.3076923076923,295.256177469014L605.7692307692308,315.00711626888545L609.2307692307693,269.8620747304188L612.6923076923077,290.7125435540069L616.1538461538462,293.42718372922513L619.6153846153846,300.45259568851736L623.0769230769231,300.15242795964286L626.5384615384615,313.41149228130365L630,291.32363689519076L633.4615384615385,315.96836958690886L636.9230769230769,267.79744497460365L640.3846153846154,307.60603725542745L643.8461538461538,295.4577464788733L647.3076923076923,300.74854017048125L650.7692307692307,297.0717934928744L654.2307692307692,306.506798556515L657.6923076923076,292.7608303851545L661.1538461538462,313.32342064714953L664.6153846153846,270.2104967723828L668.0769230769231,284.7914316054954L671.5384615384615,294.6101953796219L675,297.93224299065423L678.4615384615385,296.22674274373605L681.9230769230769,303.8101580270561L685.3846153846154,290.2262022806147L688.8461538461538,315.6862717495355L692.3076923076924,269.8388036511944L695.7692307692308,285.69604612850077L699.2307692307693,287.1423416922244L702.6923076923077,306.76707779886146L706.1538461538462,295.2653342522398L709.6153846153846,302.9994179923508L713.0769230769231,291.7218392114409L716.5384615384615,317.4279766214958L720,272.5342831700802L723.4615384615385,282.80399248205947L726.9230769230769,286.0728044218637L730.3846153846154,298.2228867623605L733.8461538461538,297.1748665644983L737.3076923076923,303.78187730438344L740.7692307692307,290.4363270066801L744.2307692307692,306.48966633466136L747.6923076923077,264.2221720478663L751.1538461538462,299.22110615700615L754.6153846153846,301.64409867546414L758.0769230769231,308.57229662107414L761.5384615384615,303.2459725895648L765,320.9273326162946L768.4615384615385,347.8042221865468L771.9230769230769,307.62485013372685L775.3846153846155,269.8095483870967L778.8461538461539,290.52656182576595L782.3076923076924,292.2987147987148L785.7692307692308,290.91327154685735L789.2307692307692,300.52593529730706L792.6923076923076,309.4334231454522L796.1538461538461,283.3004648542048L799.6153846153845,312.94344120501245L803.0769230769231,277.7989576975445L806.5384615384615,290.7404387454204L810,295.1890499476074L813.4615384615385,321.0084990886758L816.9230769230769,300.55913978494624L820.3846153846154,311.3675842334354L823.8461538461538,346.4947874618274L827.3076923076923,328.9468346421526L830.7692307692308,286.68941979522185L834.2307692307693,318.20360363788575L837.6923076923077,297.27925079056195L841.1538461538462,314.0402803099362L844.6153846153846,325.37751890307874L848.0769230769231,322.77086502934145L851.5384615384615,310.6723413829308L855,322.5676760111278L858.4615384615385,303.62598737669595L861.9230769230769,332.29274611398966L865.3846153846154,335.74034156856237L868.8461538461538,364.3907107030769L872.3076923076923,345.12843112566105L875.7692307692307,337.7017580510382L879.2307692307692,321.19746475054234L882.6923076923076,337.51187272439455L886.1538461538462,334.7773369306459" style="fill: none; stroke: #aec7e8; stroke-width: 2;"></path></g></g><path class="foreground" d="" style="display: none; fill: none;"></path></g><g transform="translate(0,0)"><path class="background" d="M0,0h900v600h-900Z" style="fill: none;"></path><g><g class="mark-line role-mark marks"><path d="M6.923076923076923,563.7297798047459L10.384615384615385,539.8117897727273L13.846153846153847,520.8815856080371L17.30769230769231,492.96030405405406L20.76923076923077,470.36774744027304L24.230769230769234,447.640700364209L27.692307692307693,420.3419412288513L31.153846153846157,469.8072861668427L34.61538461538462,462.0527360362915L38.07692307692308,447.3743934970279L41.53846153846154,439.2756715564869L45,423.2368938312825L48.46153846153847,399.51023398343625L51.92307692307693,392.87264150943395L55.38461538461539,333.2097469133567L58.84615384615385,402.1187183365747L62.307692307692314,421.0399866988112L65.76923076923077,392.0494789769001L69.23076923076924,379.5908875085999L72.6923076923077,356.37342921374216L76.15384615384616,357.60638650999135L79.61538461538461,331.62677787722265L83.07692307692308,317.1737308293501L86.53846153846155,375.50119499038664L90,363.4142736486487L93.46153846153847,346.5669208883269L96.92307692307693,334.2178988326848L100.38461538461539,327.54623543094084L103.84615384615385,312.2762148337596L107.3076923076923,322.97205791673326L110.76923076923077,311.1958498955737L114.23076923076923,334.21986682143074L117.6923076923077,334.6329422697177L121.15384615384615,357.11157431261415L124.61538461538463,338.2885358922998L128.07692307692307,330.62397699106776L131.53846153846155,297.3262363562862L135,283.7893081761007L138.46153846153848,280.31679303355605L141.9230769230769,309.2731452801572L145.3846153846154,310.9094204888767L148.84615384615384,304.6004471351693L152.30769230769232,296.3498098859315L155.76923076923077,325.27197842518524L159.23076923076923,303.8443539301499L162.69230769230768,336.60572337042925L166.15384615384616,315.8719411935391L169.6153846153846,352.8638895616372L173.0769230769231,330.2614876872303L176.53846153846155,358.5178038301901L180,324.7864612437136L183.46153846153845,325.30487804878044L186.92307692307693,316.2774725274726L190.3846153846154,335.7399794450154L193.84615384615387,307.6124314442413L197.3076923076923,355.34638554216866L200.76923076923077,337.26799387442577L204.23076923076923,340.08696416022485L207.6923076923077,321.85189673978914L211.15384615384616,315.1269965173533L214.6153846153846,311.7339136572168L218.07692307692307,305.7178995115143L221.53846153846155,323.360525479394L225,343.6042360780581L228.46153846153845,315.56386356652666L231.9230769230769,336.70376712328766L235.3846153846154,305.7920709731079L238.84615384615384,333.34403065208903L242.3076923076923,279.45100051308356L245.76923076923075,303.6452943286029L249.23076923076925,297.28563431886414L252.6923076923077,325.36479385610346L256.15384615384613,310.2010791864595L259.6153846153846,322.4745248946599L263.0769230769231,323.1659844624509L266.53846153846155,310.672868381884L270,295.2156640181612L273.46153846153845,310.95986196876134L276.92307692307696,304.1691842900302L280.3846153846154,330.35899915387404L283.8461538461538,328.5490382331987L287.30769230769226,307.3800666296502L290.7692307692308,298.7588362229332L294.2307692307692,304.28554231371135L297.6923076923077,282.95752549590947L301.15384615384613,316.0894347810098L304.61538461538464,297.2449214258337L308.0769230769231,313.7495128432242L311.53846153846155,308.735810477332L315,313.31432644333574L318.46153846153845,298.0842804686134L321.9230769230769,303.51268694337085L325.38461538461536,275.9413202933986L328.8461538461538,301.70123136746594L332.3076923076923,291.0634941501249L335.7692307692308,324.66203809960984L339.2307692307692,321.5304895877327L342.6923076923077,304.3601291063945L346.1538461538462,311.6782426102406L349.61538461538464,313.7703565140845L353.0769230769231,274.2019578260411L356.53846153846155,298.8380248091603L360,285.0274079874707L363.46153846153845,308.53635959715643L366.9230769230769,309.5652803521779L370.38461538461536,307.507299270073L373.84615384615387,302.8453443452778L377.3076923076923,301.37452359048496L380.7692307692308,287.90098838217443L384.2307692307692,290.8028801994489L387.69230769230774,301.751048951049L391.1538461538462,306.68453292496173L394.6153846153846,314.31206896551726L398.07692307692304,302.5862068965517L401.53846153846155,289.1299489626431L405,307.7693595646714L408.46153846153845,269.9349281110561L411.9230769230769,308.1456905470063L415.3846153846154,289.67265761451347L418.84615384615387,309.14186662511696L422.3076923076923,298.70923697329573L425.7692307692308,311.6497996890696L429.2307692307692,301.70719089498186L432.6923076923077,310.2441312505454L436.15384615384613,263.1515010317513L439.6153846153846,295.1604654610139L443.0769230769231,286.70925942589764L446.53846153846155,312.1910607704829L450,300.62521708926715L453.46153846153845,306.4429462668545L456.9230769230769,295.97865133942315L460.38461538461536,296.06529209621993L463.8461538461538,272.8414644602589L467.3076923076923,299.8982952344053L470.7692307692308,286.45637360811037L474.2307692307692,309.9805082006948L477.6923076923077,303.61191357773527L481.15384615384613,301.39066224897977L484.6153846153846,324.9312052834342L488.07692307692304,294.4272884352648L491.5384615384615,274.07327586206895L495.00000000000006,299.9024516574586L498.4615384615385,290.3322531526959L501.92307692307696,300.1579918720406L505.3846153846154,302.1926364234056L508.8461538461538,308.9427952672724L512.3076923076923,290.24401064773735L515.7692307692307,303.2263053050954L519.2307692307692,268.35260115606934L522.6923076923077,299.67691115702485L526.1538461538462,296.3760049474335L529.6153846153846,297.3588014601501L533.0769230769231,303.7823275862069L536.5384615384615,300.71446018563745L540,294.57230042327L543.4615384615385,303.4024631936579L546.9230769230769,268.1703502919099L550.3846153846155,296.0558698727015L553.8461538461539,286.3649466705102L557.3076923076924,304.9171875L560.7692307692308,306.73882559158636L564.2307692307692,301.77414385069113L567.6923076923076,294.6629863769922L571.1538461538461,300.24287564766837L574.6153846153845,265.4232930197124L578.0769230769231,293.9890275387263L581.5384615384615,290.04651162790697L585,301.4162430305018L588.4615384615385,296.05295718881473L591.9230769230769,304.1793620566532L595.3846153846154,292.611849075055L598.8461538461538,300.7334718845581L602.3076923076923,266.9953416149069L605.7692307692308,292.2292504138094L609.2307692307693,285.9292246520875L612.6923076923077,304.22454646427246L616.1538461538462,295.50689681163794L619.6153846153846,299.08459781968173L623.0769230769231,292.06112560566527L626.5384615384615,300.3996915794004L630,263.5348948374761L633.4615384615385,295.7064210376283L636.9230769230769,287.4038670432327L640.3846153846154,315.23835160532497L643.8461538461538,299.19599018003277L647.3076923076923,303.84938558618404L650.7692307692307,290.34838177695326L654.2307692307692,294.88661485898035L657.6923076923076,271.65430161221286L661.1538461538462,295.65350389321463L664.6153846153846,296.90075449796865L668.0769230769231,297.28806807317227L671.5384615384615,298.6378195063744L675,298.1203300124533L678.4615384615385,291.2286452751687L681.9230769230769,295.4611336779912L685.3846153846154,267.6743567581942L688.8461538461538,298.21723148646225L692.3076923076924,288.1687557321919L695.7692307692308,301.24536016703394L699.2307692307693,292.28662684095343L702.6923076923077,299.9173282311954L706.1538461538462,287.7881729920565L709.6153846153846,296.74642028411347L713.0769230769231,271.8069877471794L716.5384615384615,300.2497805333041L720,288.3701485791763L723.4615384615385,296.22954619832007L726.9230769230769,293.2152989960716L730.3846153846154,299.7234712230216L733.8461538461538,292.6761771961815L737.3076923076923,295.1329450827448L740.7692307692307,272.22465476591447L744.2307692307692,292.2034938374765L747.6923076923077,284.1709583222723L751.1538461538462,307.6855007546619L754.6153846153846,308.3926079214592L758.0769230769231,309.5136810602822L761.5384615384615,297.87025703794365L765,312.03572254335256L768.4615384615385,339.977240751469L771.9230769230769,294.4804365633884L775.3846153846155,286.0768438098042L778.8461538461539,304.61799835255357L782.3076923076924,295.7631394533987L785.7692307692308,293.6087534393508L789.2307692307692,295.89538885065383L792.6923076923076,306.3580368906456L796.1538461538461,265.0235907623541L799.6153846153845,305.0664340211548L803.0769230769231,293.4988834301027L806.5384615384615,307.33383366453853L810,302.9448557569569L813.4615384615385,314.6659845199984L816.9230769230769,297.97380061245326L820.3846153846154,305.3831043277933L823.8461538461538,338.1395939086294L827.3076923076923,320.29620170520013L830.7692307692308,318.3941102036121L834.2307692307693,329.3077640092115L837.6923076923077,302.1813178047224L841.1538461538462,319.4011591070031L844.6153846153846,322.455575868373L848.0769230769231,318.5914288866009L851.5384615384615,299.24809978561683L855,315.04698146384345L858.4615384615385,319.26538502846097L861.9230769230769,336.21437867058194L865.3846153846154,334.8963704714062L868.8461538461538,359.1416041979011L872.3076923076923,339.2935570080819L875.7692307692307,329.3869785794814L879.2307692307692,317.66638064183974L882.6923076923076,329.3808754406581L886.1538461538462,339.8555417185554" style="fill: none; stroke: #2ca02c; stroke-width: 2;"></path></g></g><path class="foreground" d="" style="display: none; fill: none;"></path></g><g transform="translate(0,0)"><path class="background" d="M0,0h900v600h-900Z" style="fill: none;"></path><g><g class="mark-line role-mark marks"><path d="M6.923076923076923,589.3096278694785L10.384615384615385,582.6017766340071L13.846153846153847,574.5056024400016L17.30769230769231,568.1178773981421L20.76923076923077,559.3136801986487L24.230769230769234,552.2269731714499L27.692307692307693,545.4072681198602L31.153846153846157,564.4078579240532L34.61538461538462,561.0070823049684L38.07692307692308,557.3695747479176L41.53846153846154,553.3350193470069L45,548.4193321384321L48.46153846153847,545.9156275748421L51.92307692307693,539.6551724137931L55.38461538461539,533.4678304500078L58.84615384615385,552.4978012048193L62.307692307692314,551.4480532806L65.76923076923077,549.4892920089122L69.23076923076924,546.2478920741991L72.6923076923077,542.5847214244686L76.15384615384616,539.9824936782727L79.61538461538461,538.6785162287481L83.07692307692308,534.6095628172023L86.53846153846155,547.3558168725639L90,546.6811011444479L93.46153846153847,543.057342400294L96.92307692307693,541.1029931652133L100.38461538461539,539.3372369314325L103.84615384615385,537.1886802780666L107.3076923076923,535.7182204501338L110.76923076923077,527.8793570126498L114.23076923076923,541.777593998975L117.6923076923077,540.1502436383324L121.15384615384615,538.3632596685084L124.61538461538463,536.8160768152271L128.07692307692307,535.2728677379481L131.53846153846155,535.215623411659L135,531.555L138.46153846153848,530.4887744671184L141.9230769230769,540.2717107325739L145.3846153846154,538.783342406097L148.84615384615384,537.4467661691542L152.30769230769232,536.2149940243548L155.76923076923077,534.4868053793454L159.23076923076923,532.6583226358579L162.69230769230768,531.7714389534883L166.15384615384616,526.1492049525485L169.6153846153846,536.7654479461756L173.0769230769231,535.8301458111645L176.53846153846155,535.0577695094488L180,533.439732286505L183.46153846153845,533.0398541692633L186.92307692307693,530.8362012836016L190.3846153846154,530.8039051520498L193.84615384615387,528.6488415667847L197.3076923076923,537.8417411920053L200.76923076923077,534.9327952911193L204.23076923076923,534.465256039218L207.6923076923077,532.9535495179666L211.15384615384616,532.4249545988677L214.6153846153846,535.9207687781918L218.07692307692307,529.5811445468777L221.53846153846155,528.7068700726938L225,534.2609730301427L228.46153846153845,533.5472420532046L231.9230769230769,532.156841439804L235.3846153846154,531.8401479825812L238.84615384615384,530.9777706185566L242.3076923076923,529.792852861852L245.76923076923075,536.5395438388625L249.23076923076925,528.5371391501784L252.6923076923077,535.1610363584311L256.15384615384613,533.1043403276803L259.6153846153846,532.5063523433089L263.0769230769231,531.3982300884956L266.53846153846155,531.2024481252275L270,530.2042468958072L273.46153846153845,528.8703405738804L276.92307692307696,526.2139433945204L280.3846153846154,532.5489840348331L283.8461538461538,533.4024702866465L287.30769230769226,536.6134444684997L290.7692307692308,530.5672609400324L294.2307692307692,530.7742165777411L297.6923076923077,528.8201992753624L301.15384615384613,528.0352348993289L304.61538461538464,527.5012849695279L308.0769230769231,533.2014352801111L311.53846153846155,532.1808510638298L315,536.8788485681832L318.46153846153845,530.9470181725109L321.9230769230769,531.8744980539939L325.38461538461536,530.3025241276912L328.8461538461538,528.8601236476044L332.3076923076923,531.1715089034676L335.7692307692308,531.8498267340794L339.2307692307692,531.7060791968768L342.6923076923077,531.796337736055L346.1538461538462,537.762374304403L349.61538461538464,534.1220939067011L353.0769230769231,531.739309422117L356.53846153846155,528.3099692601229L360,528.8714668867341L363.46153846153845,533.0146533238027L366.9230769230769,533.1128023158091L370.38461538461536,530.4385275196569L373.84615384615387,531.1021542738013L377.3076923076923,531.6660276073619L380.7692307692308,534.0676952006496L384.2307692307692,529.5516615094848L387.69230769230774,534.6399673069064L391.1538461538462,532.7725358219433L394.6153846153846,531.9790640394089L398.07692307692304,533.2229416656766L401.53846153846155,534.1227969127981L405,532.3062676957685L408.46153846153845,533.5637302597111L411.9230769230769,530.0101756018141L415.3846153846154,528.2644369774166L418.84615384615387,535.1560546060858L422.3076923076923,534.561724137931L425.7692307692308,534.4764597982269L429.2307692307692,531.7395543175488L432.6923076923077,532.7304575384096L436.15384615384613,543.6205888087346L439.6153846153846,531.4791583366654L443.0769230769231,543.1142094657154L446.53846153846155,534.0607421450104L450,534.3724301769561L453.46153846153845,536.6816905891885L456.9230769230769,536.0223476558L460.38461538461536,538.0007284822829L463.8461538461538,535.8426745880506L467.3076923076923,536.4539748953976L470.7692307692308,536.6371110752862L474.2307692307692,539.3965735558538L477.6923076923077,540.285524568393L481.15384615384613,539.9310534016093L484.6153846153846,540.1709401709402L488.07692307692304,539.7845994868871L491.5384615384615,542.9117999733535L495.00000000000006,540.3744254122167L498.4615384615385,540.7728667756894L501.92307692307696,541.3429137218004L505.3846153846154,542.7990234251679L508.8461538461538,541.4931197044021L512.3076923076923,542.6973346738617L515.7692307692307,542.3849480968858L519.2307692307692,542.3192922489193L522.6923076923077,541.286757280769L526.1538461538462,541.6056773579669L529.6153846153846,543.1463226470084L533.0769230769231,543.9966291926731L536.5384615384615,543.804004843237L540,543.9059929494712L543.4615384615385,544.2824660934314L546.9230769230769,547.5312793630384L550.3846153846155,544.999104171999L553.8461538461539,541.6757500491395L557.3076923076924,545.0095257903494L560.7692307692308,544.952620669233L564.2307692307692,543.8348061809862L567.6923076923076,544.528631510838L571.1538461538461,543.6788113317757L574.6153846153845,543.2527902056111L578.0769230769231,542.6143002388484L581.5384615384615,544.1789470418515L585,546.9466702603477L588.4615384615385,543.8993011677654L591.9230769230769,542.7817382362872L595.3846153846154,544.1033772469287L598.8461538461538,544.8243565644881L602.3076923076923,545.9440422343896L605.7692307692308,544.9330470468776L609.2307692307693,543.3479645408383L612.6923076923077,546.0078465032035L616.1538461538462,545.8266058736758L619.6153846153846,545.6382985801541L623.0769230769231,541.5005097994789L626.5384615384615,545.5705154934716L630,546.0210889570552L633.4615384615385,544.9378755835246L636.9230769230769,544.4419275123558L640.3846153846154,546.7868945417297L643.8461538461538,546.1857820830335L647.3076923076923,547.0405817931296L650.7692307692307,546.6298735136671L654.2307692307692,546.58127001255L657.6923076923076,547.1106336037507L661.1538461538462,547.3611409752951L664.6153846153846,543.8256982706075L668.0769230769231,547.6361125505805L671.5384615384615,547.7403018884363L675,546.1132877625876L678.4615384615385,546.8978078449229L681.9230769230769,545.9372473395538L685.3846153846154,547.0087037645637L688.8461538461538,546.6919263904725L692.3076923076924,546.8051818011139L695.7692307692308,547.1087934203366L699.2307692307693,547.2891316021438L702.6923076923077,546.5531351087421L706.1538461538462,546.1085945276158L709.6153846153846,545.5496417864946L713.0769230769231,548.0390480946527L716.5384615384615,547.1143384025634L720,546.7639480008107L723.4615384615385,547.5462675180831L726.9230769230769,547.618847991951L730.3846153846154,547.2691107209542L733.8461538461538,547.3607628076171L737.3076923076923,547.2044220325834L740.7692307692307,547.4769272285689L744.2307692307692,546.9519851306469L747.6923076923077,546.7430638244537L751.1538461538462,547.5733502737537L754.6153846153846,548.253042401469L758.0769230769231,547.8204356952692L761.5384615384615,548.2003156162912L765,548.9119261313294L768.4615384615385,552.7618739757334L771.9230769230769,548.4838962600649L775.3846153846155,547.3331686836256L778.8461538461539,548.0804731300424L782.3076923076924,548.2045510582284L785.7692307692308,547.7035756075429L789.2307692307692,547.8047628047628L792.6923076923076,547.6222640888652L796.1538461538461,547.4777482732037L799.6153846153845,547.4841955353835L803.0769230769231,547.3608959116361L806.5384615384615,547.8937413900829L810,548.1377122736119L813.4615384615385,548.109809571536L816.9230769230769,547.8337141052106L820.3846153846154,547.5824519670632L823.8461538461538,551.6556774595184L827.3076923076923,547.3445916146711L830.7692307692308,547.6964055522716L834.2307692307693,548.3412916547495L837.6923076923077,548.0663940241205L841.1538461538462,548.354352881456L844.6153846153846,548.8567135821268L848.0769230769231,547.9265185175105L851.5384615384615,548.3993740344682L855,547.8709313157171L858.4615384615385,548.2655020220745L861.9230769230769,549.5241265037162L865.3846153846154,549.545074649546L868.8461538461538,551.0507096239511L872.3076923076923,550.5326889827039L875.7692307692307,549.5789725688867L879.2307692307692,549.6591840981139L882.6923076923076,548.9162548676493L886.1538461538462,548.6442334285978" style="fill: none; stroke: #98df8a; stroke-width: 2;"></path></g></g><path class="foreground" d="" style="display: none; fill: none;"></path></g><g transform="translate(0,0)"><path class="background" d="M0,0h900v600h-900Z" style="fill: none;"></path><g><g class="mark-line role-mark marks"><path d="M6.923076923076923,582.6631363170482L10.384615384615385,563.7439605848697L13.846153846153847,540.2319062933349L17.30769230769231,535.8847372912348L20.76923076923077,497.8279932546374L24.230769230769234,468.21700507614213L27.692307692307693,385.7859637980311L31.153846153846157,463.56886569354975L34.61538461538462,445.4526021954256L38.07692307692308,424.37983209220704L41.53846153846154,397.32957548000707L45,386.73936758893285L48.46153846153847,355.86280416657826L51.92307692307693,328.88967162417856L55.38461538461539,160.0675993904973L58.84615384615385,344.9105765184458L62.307692307692314,349.14662357543796L65.76923076923077,314.4215172707208L69.23076923076924,284.646865756311L72.6923076923077,283.200454214515L76.15384615384616,273.9434821279182L79.61538461538461,241.55859617640968L83.07692307692308,69.54795434769746L86.53846153846155,299.885309506357L90,270.579374536298L93.46153846153847,265.0662868412403L96.92307692307693,217.25297779408223L100.38461538461539,235.74927798063584L103.84615384615385,179.3756227167054L107.3076923076923,230.93115912264847L110.76923076923077,78.81358114778723L114.23076923076923,244.28176158635L117.6923076923077,224.62137831908618L121.15384615384615,242.6617404065031L124.61538461538463,216.36977627691016L128.07692307692307,220.56574686127502L131.53846153846155,143.3904958935181L135,165.4747609964609L138.46153846153848,57.54533426725816L141.9230769230769,209.04021362727403L145.3846153846154,188.01607232546453L148.84615384615384,200.97889031521885L152.30769230769232,178.4556123755942L155.76923076923077,218.2106430575567L159.23076923076923,193.01901292195595L162.69230769230768,212.48946599019695L166.15384615384616,136.14831602608155L169.6153846153846,252.57647665720918L173.0769230769231,225.08223520264744L176.53846153846155,253.52748533311907L180,218.15141662796103L183.46153846153845,227.4471220527046L186.92307692307693,193.49936220615928L190.3846153846154,242.45156206544914L193.84615384615387,140.31000431131824L197.3076923076923,247.89842753931154L200.76923076923077,232.6881904598784L204.23076923076923,241.32253111362536L207.6923076923077,216.50931573230855L211.15384615384616,215.69258809234512L214.6153846153846,197.21400394477314L218.07692307692307,218.82532389273882L221.53846153846155,144.88888888888886L225,241.0664312366737L228.46153846153845,218.5508241758241L231.9230769230769,220.6604586426299L235.3846153846154,194.33014518681614L238.84615384615384,219.0124270382226L242.3076923076923,173.3164868187406L245.76923076923075,199.64650554378974L249.23076923076925,137.4343900902793L252.6923076923077,239.3973569684747L256.15384615384613,205.38631097044026L259.6153846153846,224.9803911315624L263.0769230769231,194.47136563876657L266.53846153846155,207.76864006641424L270,177.3158238884046L273.46153846153845,203.08443717785295L276.92307692307696,132.27100768084372L280.3846153846154,211.0983263598326L283.8461538461538,202.4018344841801L287.30769230769226,209.16011569267278L290.7692307692308,181.7141085912073L294.2307692307692,209.05891922478438L297.6923076923077,161.78499509474872L301.15384615384613,191.67751868741482L304.61538461538464,128.35624436070276L308.0769230769231,204.12249564459935L311.53846153846155,195.28215623095008L315,202.93968326926293L318.46153846153845,187.91463362891938L321.9230769230769,200.42163217650372L325.38461538461536,168.44818046392857L328.8461538461538,192.66096994965383L332.3076923076923,127.88571428571419L335.7692307692308,201.4460132890365L339.2307692307692,197.54816975473483L342.6923076923077,204.8764870953717L346.1538461538462,172.7748691099476L349.61538461538464,191.14228456913827L353.0769230769231,150.724795845407L356.53846153846155,185.87141216991958L360,125.6865517636718L363.46153846153845,208.2662765179225L366.9230769230769,193.12979267253618L370.38461538461536,201.47493430706754L373.84615384615387,174.03222341568204L377.3076923076923,197.37466361008669L380.7692307692308,170.48895075691658L384.2307692307692,193.07667400595773L387.69230769230774,130.2390131071704L391.1538461538462,205.44479642708765L394.6153846153846,187.8134328358209L398.07692307692304,188.11765013783722L401.53846153846155,163.4503816793892L405,184.04492373689226L408.46153846153845,144.22258592471366L411.9230769230769,197.58358009360967L415.3846153846154,123.44180915609493L418.84615384615387,200.5168908590646L422.3076923076923,176.9571032769658L425.7692307692308,196.86413984594256L429.2307692307692,168.25294950448324L432.6923076923077,196.96793445276143L436.15384615384613,139.91200441601455L439.6153846153846,182.6651059635288L443.0769230769231,127.53731825525041L446.53846153846155,201.80278385986858L450,176.6699410609038L453.46153846153845,180.47598504457872L456.9230769230769,172.61254328587913L460.38461538461536,175.7036026714327L463.8461538461538,138.8633006579831L467.3076923076923,172.3012147984539L470.7692307692308,120.78032920138185L474.2307692307692,196.1782821464731L477.6923076923077,194.56043191495274L481.15384615384613,191.52558532864634L484.6153846153846,182.18853623874938L488.07692307692304,174.157496850063L491.5384615384615,136.29952504058198L495.00000000000006,182.9338228236875L498.4615384615385,123.8754989945073L501.92307692307696,180.94614663123338L505.3846153846154,171.15062959573322L508.8461538461538,199.6007121057986L512.3076923076923,165.7617315048046L515.7692307692307,177.88369769453308L519.2307692307692,136.80530887719178L522.6923076923077,181.58786701208982L526.1538461538462,125.97837281153441L529.6153846153846,174.94250008900914L533.0769230769231,177.93348919984643L536.5384615384615,178.08787576185387L540,166.3699252323388L543.4615384615385,186.1811179142801L546.9230769230769,150.5475341546934L550.3846153846155,170.48071157305614L553.8461538461539,130.94013163567385L557.3076923076924,189.6029430026078L560.7692307692308,173.39070567986238L564.2307692307692,186.44736306665578L567.6923076923076,156.24340849535767L571.1538461538461,176.42617449664434L574.6153846153845,135.64976044936392L578.0769230769231,171.72223783523359L581.5384615384615,131.4222468179303L585,180.8554903314917L588.4615384615385,167.87263984988857L591.9230769230769,187.76785714285717L595.3846153846154,168.6066104990278L598.8461538461538,184.77176278563655L602.3076923076923,136.25780874579536L605.7692307692308,170.960608724316L609.2307692307693,122.49546608632573L612.6923076923077,185.6812052691629L616.1538461538462,163.0856586632057L619.6153846153846,174.36679516565954L623.0769230769231,161.0455849537775L626.5384615384615,170.39725393397106L630,147.5832886984467L633.4615384615385,173.31393024882576L636.9230769230769,124.23233770527939L640.3846153846154,204.02109800362973L643.8461538461538,160.52704991531337L647.3076923076923,174.85005244588535L650.7692307692307,159.36638310354948L654.2307692307692,166.7813659278988L657.6923076923076,151.60740379931812L661.1538461538462,179.82588075880764L664.6153846153846,135.6032012646972L668.0769230769231,177.205777619514L671.5384615384615,162.29225576940618L675,170.99482346694987L678.4615384615385,159.09262759924385L681.9230769230769,178.19900264257097L685.3846153846154,126.61142153613025L688.8461538461538,175.38243209149772L692.3076923076924,119.6835562252778L695.7692307692308,181.48135359116014L699.2307692307693,171.24526124938188L702.6923076923077,168.69582170415362L706.1538461538462,148.9211935730681L709.6153846153846,178.0954724409449L713.0769230769231,146.66191872643483L716.5384615384615,198.70372410753637L720,128.29143150333508L723.4615384615385,173.6236793752871L726.9230769230769,168.54281767955803L730.3846153846154,168.82434485377894L733.8461538461538,156.40501625638643L737.3076923076923,177.2456698092523L740.7692307692307,143.90017184814877L744.2307692307692,222.05415544440172L747.6923076923077,125.39971278123507L751.1538461538462,210.56966335863015L754.6153846153846,206.92118066818034L758.0769230769231,220.3968278602024L761.5384615384615,191.6219972205678L765,239.08499478381827L768.4615384615385,316.5797663614632L771.9230769230769,177.6695197495504L775.3846153846155,168.6440563684175L778.8461538461539,190.98361954248787L782.3076923076924,171.98882681564237L785.7692307692308,169.83254763307798L789.2307692307692,162.0194277406992L792.6923076923076,195.72963903500812L796.1538461538461,125.81903824521939L799.6153846153845,182.4519761875537L803.0769230769231,155.187969924812L806.5384615384615,190.0593722238673L810,170.74581898671906L813.4615384615385,226.52164111812442L816.9230769230769,156.311152764761L820.3846153846154,225.2460753532182L823.8461538461538,338.2439926062847L827.3076923076923,275.82446808510645L830.7692307692308,251.38137282825411L834.2307692307693,276.45370936735407L837.6923076923077,178.49788314987302L841.1538461538462,226.309251997816L844.6153846153846,269.5468199033565L848.0769230769231,209.4116821475962L851.5384615384615,250.66373885090778L855,240.41015624999997L858.4615384615385,221.60972785176608L861.9230769230769,277.9332858015889L865.3846153846154,281.6829112407126L868.8461538461538,336.4104646583973L872.3076923076923,320.57012700165654L875.7692307692307,315.2127752381617L879.2307692307692,312.23403883155504L882.6923076923076,278.69288454830837L886.1538461538462,312.64048421487036" style="fill: none; stroke: #ffbb78; stroke-width: 2;"></path></g></g><path class="foreground" d="" style="display: none; fill: none;"></path></g></g><g class="mark-group role-legend"><g transform="translate(918,0)"><path class="background" d="M0,0h101v92h-101Z" style="pointer-events: none; fill: none;"></path><g><g class="mark-group role-legend-entry"><g transform="translate(0,16)"><path class="background" d="M0,0h0v0h0Z" style="pointer-events: none; fill: none;"></path><g><g class="mark-group role-scope"><g transform="translate(0,0)"><path class="background" d="M0,0h101v11h-101Z" style="pointer-events: none; fill: none; opacity: 1;"></path><g><g class="mark-symbol role-legend-symbol" style="pointer-events: none;"><path transform="translate(6,6)" d="M-5,0L5,0" style="fill: none; stroke: #1f77b4; stroke-width: 1.5; opacity: 1;"></path></g><g class="mark-text role-legend-label" style="pointer-events: none;"><text text-anchor="start" transform="translate(16,9)" style="font-family: sans-serif; font-size: 10px; fill: #000; opacity: 1;">Clang</text></g></g><path class="foreground" d="" style="pointer-events: none; display: none; fill: none;"></path></g><g transform="translate(0,13)"><path class="background" d="M0,0h101v11h-101Z" style="pointer-events: none; fill: none; opacity: 1;"></path><g><g class="mark-symbol role-legend-symbol" style="pointer-events: none;"><path transform="translate(6,6)" d="M-5,0L5,0" style="fill: none; stroke: #aec7e8; stroke-width: 1.5; opacity: 1;"></path></g><g class="mark-text role-legend-label" style="pointer-events: none;"><text text-anchor="start" transform="translate(16,9)" style="font-family: sans-serif; font-size: 10px; fill: #000; opacity: 1;">GFortran</text></g></g><path class="foreground" d="" style="pointer-events: none; display: none; fill: none;"></path></g><g transform="translate(0,26)"><path class="background" d="M0,0h101v11h-101Z" style="pointer-events: none; fill: none; opacity: 1;"></path><g><g class="mark-symbol role-legend-symbol" style="pointer-events: none;"><path transform="translate(6,6)" d="M-5,0L5,0" style="fill: none; stroke: #ff7f0e; stroke-width: 1.5; opacity: 1;"></path></g><g class="mark-text role-legend-label" style="pointer-events: none;"><text text-anchor="start" transform="translate(16,9)" style="font-family: sans-serif; font-size: 10px; fill: #000; opacity: 1;">Julia</text></g></g><path class="foreground" d="" style="pointer-events: none; display: none; fill: none;"></path></g><g transform="translate(0,39)"><path class="background" d="M0,0h101v11h-101Z" style="pointer-events: none; fill: none; opacity: 1;"></path><g><g class="mark-symbol role-legend-symbol" style="pointer-events: none;"><path transform="translate(6,6)" d="M-5,0L5,0" style="fill: none; stroke: #ffbb78; stroke-width: 1.5; opacity: 1;"></path></g><g class="mark-text role-legend-label" style="pointer-events: none;"><text text-anchor="start" transform="translate(16,9)" style="font-family: sans-serif; font-size: 10px; fill: #000; opacity: 1;">LoopVectorization</text></g></g><path class="foreground" d="" style="pointer-events: none; display: none; fill: none;"></path></g><g transform="translate(0,52)"><path class="background" d="M0,0h101v11h-101Z" style="pointer-events: none; fill: none; opacity: 1;"></path><g><g class="mark-symbol role-legend-symbol" style="pointer-events: none;"><path transform="translate(6,6)" d="M-5,0L5,0" style="fill: none; stroke: #2ca02c; stroke-width: 1.5; opacity: 1;"></path></g><g class="mark-text role-legend-label" style="pointer-events: none;"><text text-anchor="start" transform="translate(16,9)" style="font-family: sans-serif; font-size: 10px; fill: #000; opacity: 1;">icc</text></g></g><path class="foreground" d="" style="pointer-events: none; display: none; fill: none;"></path></g><g transform="translate(0,65)"><path class="background" d="M0,0h101v11h-101Z" style="pointer-events: none; fill: none; opacity: 1;"></path><g><g class="mark-symbol role-legend-symbol" style="pointer-events: none;"><path transform="translate(6,6)" d="M-5,0L5,0" style="fill: none; stroke: #98df8a; stroke-width: 1.5; opacity: 1;"></path></g><g class="mark-text role-legend-label" style="pointer-events: none;"><text text-anchor="start" transform="translate(16,9)" style="font-family: sans-serif; font-size: 10px; fill: #000; opacity: 1;">ifort</text></g></g><path class="foreground" d="" style="pointer-events: none; display: none; fill: none;"></path></g></g></g><path class="foreground" d="" style="pointer-events: none; display: none; fill: none;"></path></g></g><g class="mark-text role-legend-title" style="pointer-events: none;"><text text-anchor="start" transform="translate(0,9)" style="font-family: sans-serif; font-size: 11px; font-weight: bold; fill: #000; opacity: 1;">Method</text></g></g><path class="foreground" d="" style="pointer-events: none; display: none; fill: none;"></path></g></g></g><path class="foreground" d="" style="display: none; fill: none;"></path></g></g></g></svg>
