<?xml version="1.0" encoding="utf-8"?>
<!DOCTYPE svg PUBLIC "-//W3C//DTD SVG 1.1//EN" "http://www.w3.org/Graphics/SVG/1.1/DTD/svg11.dtd">
<svg class="marks" width="1066" height="642" viewBox="0 0 1066 642" version="1.1" xmlns="http://www.w3.org/2000/svg" xmlns:xlink="http://www.w3.org/1999/xlink"><rect width="1066" height="642" style="fill: white;"></rect><g transform="translate(42,5)"><g class="mark-group role-frame root"><g transform="translate(0,0)"><path class="background" d="M0.5,0.5h900v600h-900Z" style="fill: none; stroke: #ddd;"></path><g><g class="mark-group role-axis"><g transform="translate(0.5,600.5)"><path class="background" d="M0,0h0v0h0Z" style="pointer-events: none; fill: none;"></path><g><g class="mark-rule role-axis-grid" style="pointer-events: none;"><line transform="translate(0,-600)" x2="0" y2="600" style="fill: none; stroke: #ddd; stroke-width: 1; opacity: 1;"></line><line transform="translate(35,-600)" x2="0" y2="600" style="fill: none; stroke: #ddd; stroke-width: 1; opacity: 1;"></line><line transform="translate(69,-600)" x2="0" y2="600" style="fill: none; stroke: #ddd; stroke-width: 1; opacity: 1;"></line><line transform="translate(104,-600)" x2="0" y2="600" style="fill: none; stroke: #ddd; stroke-width: 1; opacity: 1;"></line><line transform="translate(138,-600)" x2="0" y2="600" style="fill: none; stroke: #ddd; stroke-width: 1; opacity: 1;"></line><line transform="translate(173,-600)" x2="0" y2="600" style="fill: none; stroke: #ddd; stroke-width: 1; opacity: 1;"></line><line transform="translate(208,-600)" x2="0" y2="600" style="fill: none; stroke: #ddd; stroke-width: 1; opacity: 1;"></line><line transform="translate(242,-600)" x2="0" y2="600" style="fill: none; stroke: #ddd; stroke-width: 1; opacity: 1;"></line><line transform="translate(277,-600)" x2="0" y2="600" style="fill: none; stroke: #ddd; stroke-width: 1; opacity: 1;"></line><line transform="translate(312,-600)" x2="0" y2="600" style="fill: none; stroke: #ddd; stroke-width: 1; opacity: 1;"></line><line transform="translate(346,-600)" x2="0" y2="600" style="fill: none; stroke: #ddd; stroke-width: 1; opacity: 1;"></line><line transform="translate(381,-600)" x2="0" y2="600" style="fill: none; stroke: #ddd; stroke-width: 1; opacity: 1;"></line><line transform="translate(415,-600)" x2="0" y2="600" style="fill: none; stroke: #ddd; stroke-width: 1; opacity: 1;"></line><line transform="translate(450,-600)" x2="0" y2="600" style="fill: none; stroke: #ddd; stroke-width: 1; opacity: 1;"></line><line transform="translate(485,-600)" x2="0" y2="600" style="fill: none; stroke: #ddd; stroke-width: 1; opacity: 1;"></line><line transform="translate(519,-600)" x2="0" y2="600" style="fill: none; stroke: #ddd; stroke-width: 1; opacity: 1;"></line><line transform="translate(554,-600)" x2="0" y2="600" style="fill: none; stroke: #ddd; stroke-width: 1; opacity: 1;"></line><line transform="translate(588,-600)" x2="0" y2="600" style="fill: none; stroke: #ddd; stroke-width: 1; opacity: 1;"></line><line transform="translate(623,-600)" x2="0" y2="600" style="fill: none; stroke: #ddd; stroke-width: 1; opacity: 1;"></line><line transform="translate(658,-600)" x2="0" y2="600" style="fill: none; stroke: #ddd; stroke-width: 1; opacity: 1;"></line><line transform="translate(692,-600)" x2="0" y2="600" style="fill: none; stroke: #ddd; stroke-width: 1; opacity: 1;"></line><line transform="translate(727,-600)" x2="0" y2="600" style="fill: none; stroke: #ddd; stroke-width: 1; opacity: 1;"></line><line transform="translate(762,-600)" x2="0" y2="600" style="fill: none; stroke: #ddd; stroke-width: 1; opacity: 1;"></line><line transform="translate(796,-600)" x2="0" y2="600" style="fill: none; stroke: #ddd; stroke-width: 1; opacity: 1;"></line><line transform="translate(831,-600)" x2="0" y2="600" style="fill: none; stroke: #ddd; stroke-width: 1; opacity: 1;"></line><line transform="translate(865,-600)" x2="0" y2="600" style="fill: none; stroke: #ddd; stroke-width: 1; opacity: 1;"></line><line transform="translate(900,-600)" x2="0" y2="600" style="fill: none; stroke: #ddd; stroke-width: 1; opacity: 1;"></line></g></g><path class="foreground" d="" style="pointer-events: none; display: none; fill: none;"></path></g></g><g class="mark-group role-axis"><g transform="translate(0.5,0.5)"><path class="background" d="M0,0h0v0h0Z" style="pointer-events: none; fill: none;"></path><g><g class="mark-rule role-axis-grid" style="pointer-events: none;"><line transform="translate(0,600)" x2="900" y2="0" style="fill: none; stroke: #ddd; stroke-width: 1; opacity: 1;"></line><line transform="translate(0,566)" x2="900" y2="0" style="fill: none; stroke: #ddd; stroke-width: 1; opacity: 1;"></line><line transform="translate(0,531)" x2="900" y2="0" style="fill: none; stroke: #ddd; stroke-width: 1; opacity: 1;"></line><line transform="translate(0,497)" x2="900" y2="0" style="fill: none; stroke: #ddd; stroke-width: 1; opacity: 1;"></line><line transform="translate(0,463)" x2="900" y2="0" style="fill: none; stroke: #ddd; stroke-width: 1; opacity: 1;"></line><line transform="translate(0,429)" x2="900" y2="0" style="fill: none; stroke: #ddd; stroke-width: 1; opacity: 1;"></line><line transform="translate(0,394)" x2="900" y2="0" style="fill: none; stroke: #ddd; stroke-width: 1; opacity: 1;"></line><line transform="translate(0,360)" x2="900" y2="0" style="fill: none; stroke: #ddd; stroke-width: 1; opacity: 1;"></line><line transform="translate(0,326)" x2="900" y2="0" style="fill: none; stroke: #ddd; stroke-width: 1; opacity: 1;"></line><line transform="translate(0,291)" x2="900" y2="0" style="fill: none; stroke: #ddd; stroke-width: 1; opacity: 1;"></line><line transform="translate(0,257)" x2="900" y2="0" style="fill: none; stroke: #ddd; stroke-width: 1; opacity: 1;"></line><line transform="translate(0,223)" x2="900" y2="0" style="fill: none; stroke: #ddd; stroke-width: 1; opacity: 1;"></line><line transform="translate(0,189)" x2="900" y2="0" style="fill: none; stroke: #ddd; stroke-width: 1; opacity: 1;"></line><line transform="translate(0,154)" x2="900" y2="0" style="fill: none; stroke: #ddd; stroke-width: 1; opacity: 1;"></line><line transform="translate(0,120)" x2="900" y2="0" style="fill: none; stroke: #ddd; stroke-width: 1; opacity: 1;"></line><line transform="translate(0,86)" x2="900" y2="0" style="fill: none; stroke: #ddd; stroke-width: 1; opacity: 1;"></line><line transform="translate(0,51)" x2="900" y2="0" style="fill: none; stroke: #ddd; stroke-width: 1; opacity: 1;"></line><line transform="translate(0,17)" x2="900" y2="0" style="fill: none; stroke: #ddd; stroke-width: 1; opacity: 1;"></line></g></g><path class="foreground" d="" style="pointer-events: none; display: none; fill: none;"></path></g></g><g class="mark-group role-axis"><g transform="translate(0.5,600.5)"><path class="background" d="M0,0h0v0h0Z" style="pointer-events: none; fill: none;"></path><g><g class="mark-rule role-axis-tick" style="pointer-events: none;"><line transform="translate(0,0)" x2="0" y2="5" style="fill: none; stroke: #888; stroke-width: 1; opacity: 1;"></line><line transform="translate(35,0)" x2="0" y2="5" style="fill: none; stroke: #888; stroke-width: 1; opacity: 1;"></line><line transform="translate(69,0)" x2="0" y2="5" style="fill: none; stroke: #888; stroke-width: 1; opacity: 1;"></line><line transform="translate(104,0)" x2="0" y2="5" style="fill: none; stroke: #888; stroke-width: 1; opacity: 1;"></line><line transform="translate(138,0)" x2="0" y2="5" style="fill: none; stroke: #888; stroke-width: 1; opacity: 1;"></line><line transform="translate(173,0)" x2="0" y2="5" style="fill: none; stroke: #888; stroke-width: 1; opacity: 1;"></line><line transform="translate(208,0)" x2="0" y2="5" style="fill: none; stroke: #888; stroke-width: 1; opacity: 1;"></line><line transform="translate(242,0)" x2="0" y2="5" style="fill: none; stroke: #888; stroke-width: 1; opacity: 1;"></line><line transform="translate(277,0)" x2="0" y2="5" style="fill: none; stroke: #888; stroke-width: 1; opacity: 1;"></line><line transform="translate(312,0)" x2="0" y2="5" style="fill: none; stroke: #888; stroke-width: 1; opacity: 1;"></line><line transform="translate(346,0)" x2="0" y2="5" style="fill: none; stroke: #888; stroke-width: 1; opacity: 1;"></line><line transform="translate(381,0)" x2="0" y2="5" style="fill: none; stroke: #888; stroke-width: 1; opacity: 1;"></line><line transform="translate(415,0)" x2="0" y2="5" style="fill: none; stroke: #888; stroke-width: 1; opacity: 1;"></line><line transform="translate(450,0)" x2="0" y2="5" style="fill: none; stroke: #888; stroke-width: 1; opacity: 1;"></line><line transform="translate(485,0)" x2="0" y2="5" style="fill: none; stroke: #888; stroke-width: 1; opacity: 1;"></line><line transform="translate(519,0)" x2="0" y2="5" style="fill: none; stroke: #888; stroke-width: 1; opacity: 1;"></line><line transform="translate(554,0)" x2="0" y2="5" style="fill: none; stroke: #888; stroke-width: 1; opacity: 1;"></line><line transform="translate(588,0)" x2="0" y2="5" style="fill: none; stroke: #888; stroke-width: 1; opacity: 1;"></line><line transform="translate(623,0)" x2="0" y2="5" style="fill: none; stroke: #888; stroke-width: 1; opacity: 1;"></line><line transform="translate(658,0)" x2="0" y2="5" style="fill: none; stroke: #888; stroke-width: 1; opacity: 1;"></line><line transform="translate(692,0)" x2="0" y2="5" style="fill: none; stroke: #888; stroke-width: 1; opacity: 1;"></line><line transform="translate(727,0)" x2="0" y2="5" style="fill: none; stroke: #888; stroke-width: 1; opacity: 1;"></line><line transform="translate(762,0)" x2="0" y2="5" style="fill: none; stroke: #888; stroke-width: 1; opacity: 1;"></line><line transform="translate(796,0)" x2="0" y2="5" style="fill: none; stroke: #888; stroke-width: 1; opacity: 1;"></line><line transform="translate(831,0)" x2="0" y2="5" style="fill: none; stroke: #888; stroke-width: 1; opacity: 1;"></line><line transform="translate(865,0)" x2="0" y2="5" style="fill: none; stroke: #888; stroke-width: 1; opacity: 1;"></line><line transform="translate(900,0)" x2="0" y2="5" style="fill: none; stroke: #888; stroke-width: 1; opacity: 1;"></line></g><g class="mark-text role-axis-label" style="pointer-events: none;"><text text-anchor="start" transform="translate(0,15)" style="font-family: sans-serif; font-size: 10px; fill: #000; opacity: 1;">0</text><text text-anchor="middle" transform="translate(34.61538461538462,15)" style="font-family: sans-serif; font-size: 10px; fill: #000; opacity: 1;">10</text><text text-anchor="middle" transform="translate(69.23076923076924,15)" style="font-family: sans-serif; font-size: 10px; fill: #000; opacity: 1;">20</text><text text-anchor="middle" transform="translate(103.84615384615385,15)" style="font-family: sans-serif; font-size: 10px; fill: #000; opacity: 1;">30</text><text text-anchor="middle" transform="translate(138.46153846153848,15)" style="font-family: sans-serif; font-size: 10px; fill: #000; opacity: 1;">40</text><text text-anchor="middle" transform="translate(173.0769230769231,15)" style="font-family: sans-serif; font-size: 10px; fill: #000; opacity: 1;">50</text><text text-anchor="middle" transform="translate(207.6923076923077,15)" style="font-family: sans-serif; font-size: 10px; fill: #000; opacity: 1;">60</text><text text-anchor="middle" transform="translate(242.3076923076923,15)" style="font-family: sans-serif; font-size: 10px; fill: #000; opacity: 1;">70</text><text text-anchor="middle" transform="translate(276.92307692307696,15)" style="font-family: sans-serif; font-size: 10px; fill: #000; opacity: 1;">80</text><text text-anchor="middle" transform="translate(311.53846153846155,15)" style="font-family: sans-serif; font-size: 10px; fill: #000; opacity: 1;">90</text><text text-anchor="middle" transform="translate(346.1538461538462,15)" style="font-family: sans-serif; font-size: 10px; fill: #000; opacity: 1;">100</text><text text-anchor="middle" transform="translate(380.7692307692308,15)" style="font-family: sans-serif; font-size: 10px; fill: #000; opacity: 1;">110</text><text text-anchor="middle" transform="translate(415.3846153846154,15)" style="font-family: sans-serif; font-size: 10px; fill: #000; opacity: 1;">120</text><text text-anchor="middle" transform="translate(450,15)" style="font-family: sans-serif; font-size: 10px; fill: #000; opacity: 1;">130</text><text text-anchor="middle" transform="translate(484.6153846153846,15)" style="font-family: sans-serif; font-size: 10px; fill: #000; opacity: 1;">140</text><text text-anchor="middle" transform="translate(519.2307692307692,15)" style="font-family: sans-serif; font-size: 10px; fill: #000; opacity: 1;">150</text><text text-anchor="middle" transform="translate(553.8461538461539,15)" style="font-family: sans-serif; font-size: 10px; fill: #000; opacity: 1;">160</text><text text-anchor="middle" transform="translate(588.4615384615385,15)" style="font-family: sans-serif; font-size: 10px; fill: #000; opacity: 1;">170</text><text text-anchor="middle" transform="translate(623.0769230769231,15)" style="font-family: sans-serif; font-size: 10px; fill: #000; opacity: 1;">180</text><text text-anchor="middle" transform="translate(657.6923076923076,15)" style="font-family: sans-serif; font-size: 10px; fill: #000; opacity: 1;">190</text><text text-anchor="middle" transform="translate(692.3076923076924,15)" style="font-family: sans-serif; font-size: 10px; fill: #000; opacity: 1;">200</text><text text-anchor="middle" transform="translate(726.9230769230769,15)" style="font-family: sans-serif; font-size: 10px; fill: #000; opacity: 1;">210</text><text text-anchor="middle" transform="translate(761.5384615384615,15)" style="font-family: sans-serif; font-size: 10px; fill: #000; opacity: 1;">220</text><text text-anchor="middle" transform="translate(796.1538461538461,15)" style="font-family: sans-serif; font-size: 10px; fill: #000; opacity: 1;">230</text><text text-anchor="middle" transform="translate(830.7692307692308,15)" style="font-family: sans-serif; font-size: 10px; fill: #000; opacity: 1;">240</text><text text-anchor="middle" transform="translate(865.3846153846154,15)" style="font-family: sans-serif; font-size: 10px; fill: #000; opacity: 1;">250</text><text text-anchor="end" transform="translate(900,15)" style="font-family: sans-serif; font-size: 10px; fill: #000; opacity: 1;">260</text></g><g class="mark-rule role-axis-domain" style="pointer-events: none;"><line transform="translate(0,0)" x2="900" y2="0" style="fill: none; stroke: #888; stroke-width: 1; opacity: 1;"></line></g><g class="mark-text role-axis-title" style="pointer-events: none;"><text text-anchor="middle" transform="translate(450,30)" style="font-family: sans-serif; font-size: 11px; font-weight: bold; fill: #000; opacity: 1;">Size</text></g></g><path class="foreground" d="" style="pointer-events: none; display: none; fill: none;"></path></g></g><g class="mark-group role-axis"><g transform="translate(0.5,0.5)"><path class="background" d="M0,0h0v0h0Z" style="pointer-events: none; fill: none;"></path><g><g class="mark-rule role-axis-tick" style="pointer-events: none;"><line transform="translate(0,600)" x2="-5" y2="0" style="fill: none; stroke: #888; stroke-width: 1; opacity: 1;"></line><line transform="translate(0,566)" x2="-5" y2="0" style="fill: none; stroke: #888; stroke-width: 1; opacity: 1;"></line><line transform="translate(0,531)" x2="-5" y2="0" style="fill: none; stroke: #888; stroke-width: 1; opacity: 1;"></line><line transform="translate(0,497)" x2="-5" y2="0" style="fill: none; stroke: #888; stroke-width: 1; opacity: 1;"></line><line transform="translate(0,463)" x2="-5" y2="0" style="fill: none; stroke: #888; stroke-width: 1; opacity: 1;"></line><line transform="translate(0,429)" x2="-5" y2="0" style="fill: none; stroke: #888; stroke-width: 1; opacity: 1;"></line><line transform="translate(0,394)" x2="-5" y2="0" style="fill: none; stroke: #888; stroke-width: 1; opacity: 1;"></line><line transform="translate(0,360)" x2="-5" y2="0" style="fill: none; stroke: #888; stroke-width: 1; opacity: 1;"></line><line transform="translate(0,326)" x2="-5" y2="0" style="fill: none; stroke: #888; stroke-width: 1; opacity: 1;"></line><line transform="translate(0,291)" x2="-5" y2="0" style="fill: none; stroke: #888; stroke-width: 1; opacity: 1;"></line><line transform="translate(0,257)" x2="-5" y2="0" style="fill: none; stroke: #888; stroke-width: 1; opacity: 1;"></line><line transform="translate(0,223)" x2="-5" y2="0" style="fill: none; stroke: #888; stroke-width: 1; opacity: 1;"></line><line transform="translate(0,189)" x2="-5" y2="0" style="fill: none; stroke: #888; stroke-width: 1; opacity: 1;"></line><line transform="translate(0,154)" x2="-5" y2="0" style="fill: none; stroke: #888; stroke-width: 1; opacity: 1;"></line><line transform="translate(0,120)" x2="-5" y2="0" style="fill: none; stroke: #888; stroke-width: 1; opacity: 1;"></line><line transform="translate(0,86)" x2="-5" y2="0" style="fill: none; stroke: #888; stroke-width: 1; opacity: 1;"></line><line transform="translate(0,51)" x2="-5" y2="0" style="fill: none; stroke: #888; stroke-width: 1; opacity: 1;"></line><line transform="translate(0,17)" x2="-5" y2="0" style="fill: none; stroke: #888; stroke-width: 1; opacity: 1;"></line></g><g class="mark-text role-axis-label" style="pointer-events: none;"><text text-anchor="end" transform="translate(-7,603)" style="font-family: sans-serif; font-size: 10px; fill: #000; opacity: 1;">0.0</text><text text-anchor="end" transform="translate(-7,568.7142857142857)" style="font-family: sans-serif; font-size: 10px; fill: #000; opacity: 1;">0.2</text><text text-anchor="end" transform="translate(-7,534.4285714285714)" style="font-family: sans-serif; font-size: 10px; fill: #000; opacity: 1;">0.4</text><text text-anchor="end" transform="translate(-7,500.1428571428571)" style="font-family: sans-serif; font-size: 10px; fill: #000; opacity: 1;">0.6</text><text text-anchor="end" transform="translate(-7,465.85714285714283)" style="font-family: sans-serif; font-size: 10px; fill: #000; opacity: 1;">0.8</text><text text-anchor="end" transform="translate(-7,431.57142857142856)" style="font-family: sans-serif; font-size: 10px; fill: #000; opacity: 1;">1.0</text><text text-anchor="end" transform="translate(-7,397.2857142857143)" style="font-family: sans-serif; font-size: 10px; fill: #000; opacity: 1;">1.2</text><text text-anchor="end" transform="translate(-7,363.00000000000006)" style="font-family: sans-serif; font-size: 10px; fill: #000; opacity: 1;">1.4</text><text text-anchor="end" transform="translate(-7,328.71428571428567)" style="font-family: sans-serif; font-size: 10px; fill: #000; opacity: 1;">1.6</text><text text-anchor="end" transform="translate(-7,294.4285714285714)" style="font-family: sans-serif; font-size: 10px; fill: #000; opacity: 1;">1.8</text><text text-anchor="end" transform="translate(-7,260.14285714285717)" style="font-family: sans-serif; font-size: 10px; fill: #000; opacity: 1;">2.0</text><text text-anchor="end" transform="translate(-7,225.8571428571428)" style="font-family: sans-serif; font-size: 10px; fill: #000; opacity: 1;">2.2</text><text text-anchor="end" transform="translate(-7,191.57142857142856)" style="font-family: sans-serif; font-size: 10px; fill: #000; opacity: 1;">2.4</text><text text-anchor="end" transform="translate(-7,157.28571428571428)" style="font-family: sans-serif; font-size: 10px; fill: #000; opacity: 1;">2.6</text><text text-anchor="end" transform="translate(-7,123.00000000000004)" style="font-family: sans-serif; font-size: 10px; fill: #000; opacity: 1;">2.8</text><text text-anchor="end" transform="translate(-7,88.71428571428574)" style="font-family: sans-serif; font-size: 10px; fill: #000; opacity: 1;">3.0</text><text text-anchor="end" transform="translate(-7,54.42857142857138)" style="font-family: sans-serif; font-size: 10px; fill: #000; opacity: 1;">3.2</text><text text-anchor="end" transform="translate(-7,20.14285714285715)" style="font-family: sans-serif; font-size: 10px; fill: #000; opacity: 1;">3.4</text></g><g class="mark-rule role-axis-domain" style="pointer-events: none;"><line transform="translate(0,600)" x2="0" y2="-600" style="fill: none; stroke: #888; stroke-width: 1; opacity: 1;"></line></g><g class="mark-text role-axis-title" style="pointer-events: none;"><text text-anchor="middle" transform="translate(-26,300) rotate(-90) translate(0,-2)" style="font-family: sans-serif; font-size: 11px; font-weight: bold; fill: #000; opacity: 1;">GFLOPS</text></g></g><path class="foreground" d="" style="pointer-events: none; display: none; fill: none;"></path></g></g><g class="mark-group role-scope pathgroup"><g transform="translate(0,0)"><path class="background" d="M0,0h900v600h-900Z" style="fill: none;"></path><g><g class="mark-line role-mark marks"><path d="M6.923076923076923,486.22047866871253L10.384615384615385,436.6203587912962L13.846153846153847,414.11247407223254L17.30769230769231,366.6065651667328L20.76923076923077,367.1222178836392L24.230769230769234,336.78275290215583L27.692307692307693,333.6463076850852L31.153846153846157,338.10552725351084L34.61538461538462,354.17142393490315L38.07692307692308,347.91709074025164L41.53846153846154,344.25888101245545L45,341.74522965532844L48.46153846153847,338.9959693433494L51.92307692307693,335.8800948191654L55.38461538461539,332.10578553138595L58.84615384615385,334.08538494446844L62.307692307692314,336.88179268552756L65.76923076923077,336.5595971786679L69.23076923076924,340.20211378347733L72.6923076923077,344.64833021534054L76.15384615384616,351.87837264988605L79.61538461538461,352.10752228864766L83.07692307692308,352.64052713642644L86.53846153846155,351.197412293599L90,353.0532354373749L93.46153846153847,353.60971482605885L96.92307692307693,353.5976729944887L100.38461538461539,354.2668183172383L103.84615384615385,354.66236764005424L107.3076923076923,354.9170505080337L110.76923076923077,149.9768276420482L114.23076923076923,170.76972122843682L117.6923076923077,181.1882126275228L121.15384615384615,186.83264398666034L124.61538461538463,183.76275236665546L128.07692307692307,195.81946453691629L131.53846153846155,197.61671317595588L135,203.79417814709424L138.46153846153848,193.10067300353847L141.9230769230769,210.68360875698116L145.3846153846154,217.3106906577894L148.84615384615384,223.5575009948269L152.30769230769232,225.39415598066003L155.76923076923077,238.7303203286914L159.23076923076923,240.51544963281137L162.69230769230768,250.67034852962047L166.15384615384616,253.42960288808663L169.6153846153846,265.525205064904L173.0769230769231,272.55216693418936L176.53846153846155,279.77138027148595L180,285.76179390944935L183.46153846153845,315.5116714434817L186.92307692307693,307.01872646860556L190.3846153846154,311.93191117900597L193.84615384615387,312.31796435518635L197.3076923076923,325.9758399975441L200.76923076923077,326.2014653914255L204.23076923076923,331.0295338464352L207.6923076923077,329.94466079114574L211.15384615384616,335.4782304598706L214.6153846153846,338.1078614575638L218.07692307692307,339.03850994210916L221.53846153846155,137.16065865598577L225,155.79332481965955L228.46153846153845,163.07945656648823L231.9230769230769,167.9673794509506L235.3846153846154,163.71075225490492L238.84615384615384,169.557080474111L242.3076923076923,178.125L245.76923076923075,182.7821776192491L249.23076923076925,180.87362296582882L252.6923076923077,190.48180592991915L256.15384615384613,196.7573749537488L259.6153846153846,203.3428481220641L263.0769230769231,204.83193277310926L266.53846153846155,212.2682957445918L270,217.89776478896692L273.46153846153845,240.28103044496487L276.92307692307696,238.7750124844669L280.3846153846154,248.1370298428395L283.8461538461538,258.1599393099118L287.30769230769226,268.7820423998891L290.7692307692308,264.5541434003631L294.2307692307692,267.53522394565044L297.6923076923077,271.68910950826864L301.15384615384613,278.1164599537523L304.61538461538464,284.4268350010073L308.0769230769231,295.4083087745983L311.53846153846155,294.2698936104025L315,296.5200579990334L318.46153846153845,301.5869325117711L321.9230769230769,303.61357279413835L325.38461538461536,309.83595459981495L328.8461538461538,313.7626196578961L332.3076923076923,198.3158916383211L335.7692307692308,204.72642849717587L339.2307692307692,207.3124662709119L342.6923076923077,213.59570661896242L346.1538461538462,210.38961038961045L349.61538461538464,218.99713378740714L353.0769230769231,222.35801581595967L356.53846153846155,224.8533488982927L360,216.46080899139494L363.46153846153845,225.72334651976323L366.9230769230769,229.59018438300862L370.38461538461536,233.0522527608228L373.84615384615387,233.9346719127231L377.3076923076923,241.24472223145708L380.7692307692308,248.0239583291627L384.2307692307692,257.374360953024L387.69230769230774,253.01944728761512L391.1538461538462,264.42638324476394L394.6153846153846,266.72174697799744L398.07692307692304,268.0904001658718L401.53846153846155,265.4739652870494L405,275.0653362426144L408.46153846153845,279.38199254128926L411.9230769230769,283.01447023404876L415.3846153846154,282.9622216662497L418.84615384615387,289.9499422410474L422.3076923076923,294.51880502824565L425.7692307692308,295.5486060283452L429.2307692307692,295.28178243774573L432.6923076923077,298.8287785833798L436.15384615384613,300.52401746724894L439.6153846153846,300.89697787454577L443.0769230769231,212.00348551455394L446.53846153846155,206.53429920520867L450,206.6520383416099L453.46153846153845,210.42903608859518L456.9230769230769,206.38242218153272L460.38461538461536,211.76694834487571L463.8461538461538,212.80886584698797L467.3076923076923,216.40114912509796L470.7692307692308,209.87820908022852L474.2307692307692,224.95329935252778L477.6923076923077,224.1177911438914L481.15384615384613,226.07883429852413L484.6153846153846,222.93864210369924L488.07692307692304,229.3766486186311L491.5384615384615,230.93420574336605L495.00000000000006,242.09093147550004L498.4615384615385,237.7096587622904L501.92307692307696,244.79369118695723L505.3846153846154,245.41249036237468L508.8461538461538,244.52916507815485L512.3076923076923,246.16783441193772L515.7692307692307,256.80503659722575L519.2307692307692,258.9197871699628L522.6923076923077,267.73952276401184L526.1538461538462,264.83876778958745L529.6153846153846,273.94252502421693L533.0769230769231,278.1247541886258L536.5384615384615,278.24708087069337L540,280.7612095933263L543.4615384615385,283.73812711162105L546.9230769230769,282.7062129648146L550.3846153846155,286.5869308557056L553.8461538461539,230.15075376884417L557.3076923076924,227.86516853932574L560.7692307692308,231.672672323608L564.2307692307692,230.58213853860772L567.6923076923076,227.37110267032347L571.1538461538461,238.17303140721492L574.6153846153845,230.91465850086536L578.0769230769231,238.37593984962402L581.5384615384615,227.94679712582172L585,237.64399226435717L588.4615384615385,246.11357964574836L591.9230769230769,247.16185144456662L595.3846153846154,238.89079913432164L598.8461538461538,248.022450232395L602.3076923076923,250.9528585757272L605.7692307692308,255.7569435389229L609.2307692307693,252.09492787342947L612.6923076923077,259.8420096089828L616.1538461538462,260.2987037218022L619.6153846153846,258.9212936008045L623.0769230769231,262.141258414926L626.5384615384615,281.7223693851095L630,283.57348703170027L633.4615384615385,285.44804876339947L636.9230769230769,274.48939747706964L640.3846153846154,277.02271447343713L643.8461538461538,286.06178216034476L647.3076923076923,288.2342942867489L650.7692307692307,287.53462603878114L654.2307692307692,293.8836399801094L657.6923076923076,293.9769365368264L661.1538461538462,297.11752883847697L664.6153846153846,241.14466484820122L668.0769230769231,245.9078407111727L671.5384615384615,242.7312220613234L675,244.58909682668838L678.4615384615385,241.9344368711457L681.9230769230769,245.4913128436614L685.3846153846154,245.42632170978627L688.8461538461538,250.2533759043908L692.3076923076924,242.43093595036729L695.7692307692308,236.36472195063692L699.2307692307693,255.51308438694502L702.6923076923077,257.6884131346738L706.1538461538462,258.074934080085L709.6153846153846,257.53211734573193L713.0769230769231,257.2232419179807L716.5384615384615,261.5759481234034L720,256.1303591203923L723.4615384615385,263.8370118845501L726.9230769230769,263.35756071618505L730.3846153846154,267.591015772558L733.8461538461538,265.85968958308916L737.3076923076923,281.00681160772604L740.7692307692307,278.0772796445626L744.2307692307692,284.70721357850067L747.6923076923077,280.0764452938366L751.1538461538462,286.9726328791446L754.6153846153846,290.20996793433295L758.0769230769231,290.1009841126906L761.5384615384615,286.7654875095966L765,307.619113834785L768.4615384615385,296.7504160243387L771.9230769230769,293.0532654670585L775.3846153846155,254.27553919410983L778.8461538461539,258.0171495824693L782.3076923076924,265.2088556310262L785.7692307692308,259.78537739724896L789.2307692307692,259.11457624905466L792.6923076923076,266.25479200329494L796.1538461538461,268.4020824989988L799.6153846153845,268.3800173260179L803.0769230769231,257.75067007154456L806.5384615384615,272.01359541605876L810,268.7914713352139L813.4615384615385,276.7939702397141L816.9230769230769,269.18496904696184L820.3846153846154,277.24966622162884L823.8461538461538,289.7387762894142L827.3076923076923,284.2988776722362L830.7692307692308,300.19567104802786L834.2307692307693,301.67520609723863L837.6923076923077,291.5796190592739L841.1538461538462,287.98063429694076L844.6153846153846,293.237944143443L848.0769230769231,306.21854474110717L851.5384615384615,301.55455684078686L855,308.07771123572303L858.4615384615385,293.291115663997L861.9230769230769,308.47870372538455L865.3846153846154,309.52548113458647L868.8461538461538,312.15290682240504L872.3076923076923,314.9147060357869L875.7692307692307,314.8536818050718L879.2307692307692,322.1155599412225L882.6923076923076,322.4214420364832L886.1538461538462,296.0102266339126" style="fill: none; stroke: #ff7f0e; stroke-width: 2;"></path></g></g><path class="foreground" d="" style="display: none; fill: none;"></path></g><g transform="translate(0,0)"><path class="background" d="M0,0h900v600h-900Z" style="fill: none;"></path><g><g class="mark-line role-mark marks"><path d="M6.923076923076923,463.9556656768361L10.384615384615385,419.85574033259866L13.846153846153847,395.40096354255644L17.30769230769231,372.180852415686L20.76923076923077,348.47271961238675L24.230769230769234,335.56950074970837L27.692307692307693,325.12813920979477L31.153846153846157,320.1785220585331L34.61538461538462,334.9774592318205L38.07692307692308,324.6299268771179L41.53846153846154,319.6301463806843L45,318.3620891560621L48.46153846153847,318.2939725061685L51.92307692307693,317.2786998414583L55.38461538461539,315.5386698462098L58.84615384615385,315.81358325247373L62.307692307692314,317.06745520788087L65.76923076923077,317.593657056821L69.23076923076924,320.2467101600944L72.6923076923077,331.7148906139732L76.15384615384616,337.3355990595685L79.61538461538461,341.3976395687558L83.07692307692308,339.95263371631256L86.53846153846155,339.1014952667814L90,340.2994604203964L93.46153846153847,341.1647833105675L96.92307692307693,343.67138556271135L100.38461538461539,342.79379157427934L103.84615384615385,341.8197038524852L107.3076923076923,343.10873030290196L110.76923076923077,69.23866138434278L114.23076923076923,101.54341082302476L117.6923076923077,129.84449203836482L121.15384615384615,133.3135919455138L124.61538461538463,127.95215428395738L128.07692307692307,136.599552252684L131.53846153846155,150.17012307064658L135,150.9323412661186L138.46153846153848,152.70765464194994L141.9230769230769,171.10478293717665L145.3846153846154,183.16070690258354L148.84615384615384,189.58344519496143L152.30769230769232,194.2559962741597L155.76923076923077,208.69565217391303L159.23076923076923,215.15031645569613L162.69230769230768,226.04635743293636L166.15384615384616,226.70123136746594L169.6153846153846,242.34011751681842L173.0769230769231,249.83750629377036L176.53846153846155,261.3567438148443L180,264.9952897559789L183.46153846153845,278.50824229829533L186.92307692307693,285.6560738761146L190.3846153846154,291.5167095115681L193.84615384615387,295.9155320922478L197.3076923076923,311.3315045368221L200.76923076923077,314.50510231670677L204.23076923076923,323.2893765470521L207.6923076923077,313.996295438759L211.15384615384616,324.850958915183L214.6153846153846,328.6627645204863L218.07692307692307,331.63071613459874L221.53846153846155,42.59585966636157L225,94.79386451290004L228.46153846153845,102.19520432286386L231.9230769230769,113.19585425793355L235.3846153846154,115.83527530075412L238.84615384615384,128.98344615734686L242.3076923076923,135.61890227285107L245.76923076923075,145.25304491575045L249.23076923076925,143.92155728458616L252.6923076923077,156.9575650800401L256.15384615384613,163.69830108747863L259.6153846153846,173.5483602809759L263.0769230769231,179.21424243836512L266.53846153846155,186.22906898861348L270,191.8304261426363L273.46153846153845,197.57089794233823L276.92307692307696,201.0648303852884L280.3846153846154,208.32987529211354L283.8461538461538,214.69792127377266L287.30769230769226,222.99503193754433L290.7692307692308,227.82212086659064L294.2307692307692,236.1109670728545L297.6923076923077,242.97047420220693L301.15384615384613,250.05808749309614L304.61538461538464,251.6724422289346L308.0769230769231,263.91608391608383L311.53846153846155,260.998240833362L315,269.1127066728147L318.46153846153845,268.85341074020323L321.9230769230769,274.887656119255L325.38461538461536,274.15696171739586L328.8461538461538,280.49513911190263L332.3076923076923,135.9468438538206L335.7692307692308,164.93242115801763L339.2307692307692,175.51124581272924L342.6923076923077,178.6188060866172L346.1538461538462,171.9129697654704L349.61538461538464,180.935593220339L353.0769230769231,185.43947913583895L356.53846153846155,189.2113000127829L360,180.96699923254033L363.46153846153845,196.44670050761422L366.9230769230769,200.44621888210426L370.38461538461536,205.8438974475584L373.84615384615387,207.05059852200768L377.3076923076923,213.88317380803286L380.7692307692308,221.16204208448787L384.2307692307692,225.43718328011948L387.69230769230774,223.54029902542004L391.1538461538462,232.99493831967405L394.6153846153846,246.16339639955734L398.07692307692304,252.11495331977255L401.53846153846155,247.7793733455596L405,247.7117595274244L408.46153846153845,250.64437478230573L411.9230769230769,266.46229307173513L415.3846153846154,267.79315242829966L418.84615384615387,283.95784177731787L422.3076923076923,286.93475199499295L425.7692307692308,289.3510608203677L429.2307692307692,285.12290364083697L432.6923076923077,293.8196938196938L436.15384615384613,294.0100390407139L439.6153846153846,298.8281792777631L443.0769230769231,149.53554036911234L446.53846153846155,164.12500108297306L450,165.39307300018282L453.46153846153845,171.84949200663576L456.9230769230769,160.66799019035372L460.38461538461536,170.12909353125332L463.8461538461538,169.5248671373047L467.3076923076923,176.13243937397195L470.7692307692308,160.8185152992825L474.2307692307692,180.40863884149633L477.6923076923077,182.56517205422313L481.15384615384613,190.0544791709335L484.6153846153846,186.84681751587178L488.07692307692304,195.44931554517856L491.5384615384615,196.667475888857L495.00000000000006,202.36655920957352L498.4615384615385,196.69925207369815L501.92307692307696,207.78743573512827L505.3846153846154,214.46086136435082L508.8461538461538,217.39844070578582L512.3076923076923,212.98701298701297L515.7692307692307,220.27467081976496L519.2307692307692,223.7541528239202L522.6923076923077,240.60754736677282L526.1538461538462,235.34776757131095L529.6153846153846,253.37681283789578L533.0769230769231,256.8553459119497L536.5384615384615,258.2171127026008L540,256.3008700533258L543.4615384615385,263.97019811480493L546.9230769230769,263.88600862962835L550.3846153846155,270.88198195284457L553.8461538461539,179.70876558484824L557.3076923076924,187.56572271930628L560.7692307692308,190.74741369289782L564.2307692307692,194.20627190041876L567.6923076923076,188.97243107769418L571.1538461538461,194.31237502777157L574.6153846153845,192.49332386015624L578.0769230769231,196.34074695761646L581.5384615384615,182.68027094229612L585,198.34098375934946L588.4615384615385,207.29483282674775L591.9230769230769,207.5609322184664L595.3846153846154,204.38742272153164L598.8461538461538,210.77516539878886L602.3076923076923,211.37581893984515L605.7692307692308,214.5704065990218L609.2307692307693,213.71841901317492L612.6923076923077,224.9546162468876L616.1538461538462,234.57167706849916L619.6153846153846,234.83878279594265L623.0769230769231,233.544855511918L626.5384615384615,239.75503955090576L630,242.322871640669L633.4615384615385,252.95840454861678L636.9230769230769,243.9640896016735L640.3846153846154,260.1649301269072L643.8461538461538,267.1897426083628L647.3076923076923,269.1148096440728L650.7692307692307,264.17466093284816L654.2307692307692,277.25699905630705L657.6923076923076,274.8305008810967L661.1538461538462,279.5479370257635L664.6153846153846,188.38481546963368L668.0769230769231,196.5664002873304L671.5384615384615,197.42113991291475L675,201.605253557096L678.4615384615385,193.14032823160613L681.9230769230769,204.40496615140165L685.3846153846154,202.85579895175377L688.8461538461538,206.524962926347L692.3076923076924,192.7051671732523L695.7692307692308,194.57462388496867L699.2307692307693,208.48788638262323L702.6923076923077,212.78498963674048L706.1538461538462,209.5876023992345L709.6153846153846,217.56848539732846L713.0769230769231,218.9304518137339L716.5384615384615,222.18322218322223L720,230.61497610196494L723.4615384615385,226.6004962779156L726.9230769230769,229.04722371441133L730.3846153846154,233.74204245389225L733.8461538461538,228.54949273375368L737.3076923076923,237.28091988779912L740.7692307692307,239.54718163657017L744.2307692307692,249.52045533159333L747.6923076923077,247.34693877551018L751.1538461538462,260.92737383451095L754.6153846153846,246.73934490923438L758.0769230769231,263.88196103737556L761.5384615384615,260.28705348045065L765,292.93068377405723L768.4615384615385,273.8627754537369L771.9230769230769,269.9097987818981L775.3846153846155,204.7213834751578L778.8461538461539,213.37903680565674L782.3076923076924,222.61291746358685L785.7692307692308,217.87944602019274L789.2307692307692,218.35890626237278L792.6923076923076,224.72390452440328L796.1538461538461,226.99647800802686L799.6153846153845,224.23002985807184L803.0769230769231,214.35170597432858L806.5384615384615,225.56571703274687L810,228.35177832220998L813.4615384615385,235.91205256276288L816.9230769230769,228.8191832942529L820.3846153846154,241.64103324315306L823.8461538461538,253.48779361074583L827.3076923076923,240.07529805480021L830.7692307692308,251.33171912832933L834.2307692307693,251.82974150796966L837.6923076923077,256.88613146494083L841.1538461538462,257.4432846743443L844.6153846153846,251.47598966127052L848.0769230769231,265.2735931577413L851.5384615384615,264.06479642845625L855,268.5909054021154L858.4615384615385,265.1253592668245L861.9230769230769,282.4263139770684L865.3846153846154,281.2887278637456L868.8461538461538,288.9054654999282L872.3076923076923,283.13570869451775L875.7692307692307,284.78803807997775L879.2307692307692,289.7270281275199L882.6923076923076,295.23809523809524L886.1538461538462,258.00574391495877" style="fill: none; stroke: #1f77b4; stroke-width: 2;"></path></g></g><path class="foreground" d="" style="display: none; fill: none;"></path></g><g transform="translate(0,0)"><path class="background" d="M0,0h900v600h-900Z" style="fill: none;"></path><g><g class="mark-line role-mark marks"><path d="M6.923076923076923,475.1770095793419L10.384615384615385,424.0358151994422L13.846153846153847,398.1646737619132L17.30769230769231,368.9646062746058L20.76923076923077,355.6199897663312L24.230769230769234,336.08247422680415L27.692307692307693,372.5148887487035L31.153846153846157,363.56993036703767L34.61538461538462,341.45729705356007L38.07692307692308,345.5701429007818L41.53846153846154,347.78015061256605L45,354.7468438186486L48.46153846153847,358.4167757993802L51.92307692307693,358.3623597369572L55.38461538461539,193.59587690881966L58.84615384615385,233.5441341727752L62.307692307692314,244.16359281085133L65.76923076923077,253.47296232797365L69.23076923076924,264.42357202464444L72.6923076923077,262.7604882068992L76.15384615384616,266.28007402837756L79.61538461538461,277.62707957121444L83.07692307692308,139.63469072652222L86.53846153846155,168.8452856232237L90,181.6428580425406L93.46153846153847,197.8021092228118L96.92307692307693,210.73825503355704L100.38461538461539,217.34927167025933L103.84615384615385,222.12168184130695L107.3076923076923,234.90662139219012L110.76923076923077,94.60921817045767L114.23076923076923,141.20094727811653L117.6923076923077,159.25994977133902L121.15384615384615,168.7061598626084L124.61538461538463,169.90331548439264L128.07692307692307,179.03734961977804L131.53846153846155,192.056007849585L135,194.20563037802887L138.46153846153848,68.73356964773323L141.9230769230769,118.30371295899143L145.3846153846154,131.01501637123184L148.84615384615384,138.9855746859004L152.30769230769232,139.66033966033967L155.76923076923077,150.1258795429604L159.23076923076923,166.46083067226124L162.69230769230768,169.72070106489042L166.15384615384616,58.47465757075096L169.6153846153846,107.16495395228105L173.0769230769231,114.88740432685918L176.53846153846155,125.5260394383727L180,125.6454388984509L183.46153846153845,141.25425766379482L186.92307692307693,155.10061417086928L190.3846153846154,160.62245152700342L193.84615384615387,61.89399154292457L197.3076923076923,102.98793550569394L200.76923076923077,111.38716356107659L204.23076923076923,118.67295141406807L207.6923076923077,118.10401579986835L211.15384615384616,129.7433399993783L214.6153846153846,142.5917070838171L218.07692307692307,147.67358157188653L221.53846153846155,69.46670350925663L225,124.73273140198297L228.46153846153845,129.215536668027L231.9230769230769,132.03800393734483L235.3846153846154,128.27232587950434L238.84615384615384,163.15289648622982L242.3076923076923,165.99256278335284L245.76923076923075,171.26083310036336L249.23076923076925,82.1377254850443L252.6923076923077,144.36287526162874L256.15384615384613,150.8833975213918L259.6153846153846,158.34242093784076L263.0769230769231,162.07013629529027L266.53846153846155,194.73431008090958L270,195.42594517699837L273.46153846153845,204.9885702711305L276.92307692307696,127.51822846340805L280.3846153846154,173.35204867575072L283.8461538461538,174.93985936343446L287.30769230769226,184.75969889982625L290.7692307692308,182.58497214959647L294.2307692307692,202.08212839791784L297.6923076923077,202.94746850487277L301.15384615384613,211.08059625672692L304.61538461538464,136.70511682934037L308.0769230769231,180.14283530259672L311.53846153846155,177.9981965734896L315,188.19267601592477L318.46153846153845,186.0459021681063L321.9230769230769,199.04255471627798L325.38461538461536,200.16790261648248L328.8461538461538,208.66591873131094L332.3076923076923,131.00466921987297L335.7692307692308,153.5648243271009L339.2307692307692,157.99754177324516L342.6923076923077,166.8343907241303L346.1538461538462,161.35826931950817L349.61538461538464,176.3689945857035L353.0769230769231,178.04404578619716L356.53846153846155,183.9192076131288L360,135.7142857142857L363.46153846153845,158.42094822455869L366.9230769230769,161.70418317070806L370.38461538461536,168.33618677042801L373.84615384615387,164.44362223661088L377.3076923076923,176.10040657592364L380.7692307692308,181.08417200365972L384.2307692307692,187.61609907120746L387.69230769230774,138.56530854069823L391.1538461538462,158.55215249518088L394.6153846153846,161.84782205057735L398.07692307692304,166.5547492689267L401.53846153846155,164.6007289448123L405,178.82141586021044L408.46153846153845,181.4899597229868L411.9230769230769,184.4861240770602L415.3846153846154,133.65005018400802L418.84615384615387,164.71041142791626L422.3076923076923,166.82917441785875L425.7692307692308,169.23974901502987L429.2307692307692,164.11698537682787L432.6923076923077,175.32479788606125L436.15384615384613,178.1898699141987L439.6153846153846,182.52294206273106L443.0769230769231,164.96041382157017L446.53846153846155,167.7426560929297L450,167.90175664132204L453.46153846153845,174.19879095307863L456.9230769230769,168.86227544910173L460.38461538461536,176.43144322750587L463.8461538461538,177.96096119449405L467.3076923076923,185.12771746805882L470.7692307692308,148.89384325158636L474.2307692307692,169.9985311050354L477.6923076923077,170.27764943083957L481.15384615384613,173.66050033547398L484.6153846153846,170.25842910660992L488.07692307692304,184.6800076058334L491.5384615384615,183.90765342713703L495.00000000000006,189.4327584488086L498.4615384615385,155.31366099529086L501.92307692307696,170.6511329194506L505.3846153846154,172.76562802399832L508.8461538461538,174.57034220532316L512.3076923076923,169.27350659215452L515.7692307692307,184.89397926017645L519.2307692307692,184.8987446165124L522.6923076923077,191.33479731734815L526.1538461538462,152.4369056083309L529.6153846153846,179.55657333194537L533.0769230769231,178.882371102192L536.5384615384615,185.40279484468317L540,184.6232121657527L543.4615384615385,190.20360963118986L546.9230769230769,190.7024737285144L550.3846153846155,196.37733853374758L553.8461538461539,185.6244721779112L557.3076923076924,184.49958182325062L560.7692307692308,186.4099719376101L564.2307692307692,189.5540912289681L567.6923076923076,187.25356856863215L571.1538461538461,193.92644024659938L574.6153846153845,187.86377095283515L578.0769230769231,195.86589362238468L581.5384615384615,162.0658628756523L585,180.62475671467496L588.4615384615385,189.19886477383793L591.9230769230769,193.84105503003516L595.3846153846154,185.24851033185047L598.8461538461538,195.14021205532265L602.3076923076923,196.56851379550193L605.7692307692308,199.93938475526588L609.2307692307693,176.0286712334981L612.6923076923077,188.304857730881L616.1538461538462,189.65839209246911L619.6153846153846,185.5770879780483L623.0769230769231,189.23712163397383L626.5384615384615,201.8331805682859L630,202.3124608205056L633.4615384615385,203.71118652046843L636.9230769230769,169.37284544103233L640.3846153846154,183.56109122081588L643.8461538461538,194.32381470754038L647.3076923076923,197.33127165478334L650.7692307692307,193.62198945893653L654.2307692307692,205.94034054538471L657.6923076923076,207.96881611047598L661.1538461538462,210.87963781699844L664.6153846153846,196.28489718098876L668.0769230769231,202.38935938620008L671.5384615384615,200.39787681663339L675,206.0132291040288L678.4615384615385,199.6128720058069L681.9230769230769,210.55661868707872L685.3846153846154,210.2799116415548L688.8461538461538,215.59202530524854L692.3076923076924,187.73459132396673L695.7692307692308,190.92901221611174L699.2307692307693,205.23389678216432L702.6923076923077,206.4745011086474L706.1538461538462,203.23521738099183L709.6153846153846,213.56738702740628L713.0769230769231,213.204024400384L716.5384615384615,218.4331797235023L720,194.05475230728524L723.4615384615385,208.32899531494016L726.9230769230769,207.76618816482494L730.3846153846154,212.67083255162854L733.8461538461538,206.59508200291853L737.3076923076923,219.69839184031036L740.7692307692307,220.96071068150457L744.2307692307692,225.41086636508456L747.6923076923077,192.55615840981696L751.1538461538462,214.56273764258552L754.6153846153846,192.21012171684808L758.0769230769231,220.72697931631663L761.5384615384615,214.03764098832394L765,249.3087365455292L768.4615384615385,228.23099451801045L771.9230769230769,227.46019316105455L775.3846153846155,212.88588198395985L778.8461538461539,216.9972382626161L782.3076923076924,224.75450904857388L785.7692307692308,224.2235761781736L789.2307692307692,219.6401253005027L792.6923076923076,231.76415753903515L796.1538461538461,230.4021425962748L799.6153846153845,226.90058479532163L803.0769230769231,207.27484077204363L806.5384615384615,220.85718921675436L810,222.48780013386954L813.4615384615385,234.04816892114812L816.9230769230769,223.11454513805046L820.3846153846154,233.3244852299875L823.8461538461538,252.10317885047627L827.3076923076923,240.27280566515972L830.7692307692308,220.99883145674747L834.2307692307693,233.77080062794343L837.6923076923077,238.2189638819819L841.1538461538462,238.65253449668108L844.6153846153846,230.67608476286574L848.0769230769231,250.0711237553343L851.5384615384615,243.7639241743209L855,243.9484429719401L858.4615384615385,222.1559359368547L861.9230769230769,239.27158937806945L865.3846153846154,238.11125795987016L868.8461538461538,250.53500064457907L872.3076923076923,250.90072824837102L875.7692307692307,252.3277517786134L879.2307692307692,252.05012154339968L882.6923076923076,254.64581092281372L886.1538461538462,259.5644862231038" style="fill: none; stroke: #aec7e8; stroke-width: 2;"></path></g></g><path class="foreground" d="" style="display: none; fill: none;"></path></g><g transform="translate(0,0)"><path class="background" d="M0,0h900v600h-900Z" style="fill: none;"></path><g><g class="mark-line role-mark marks"><path d="M6.923076923076923,521.6161968758181L10.384615384615385,482.3951096162817L13.846153846153847,446.1914628025789L17.30769230769231,410.875453407885L20.76923076923077,373.4114294760171L24.230769230769234,337.029877947755L27.692307692307693,310.23130737328285L31.153846153846157,356.40405993233446L34.61538461538462,330.87643945556323L38.07692307692308,304.7904686332188L41.53846153846154,280.6150513427701L45,256.8272815131851L48.46153846153847,226.93282082641736L51.92307692307693,219.1005974258184L55.38461538461539,161.52505221008303L58.84615384615385,266.6436286870746L62.307692307692314,246.8802961958647L65.76923076923077,229.6623446449892L69.23076923076924,210.8860412857706L72.6923076923077,195.4463947883593L76.15384615384616,176.1737646291915L79.61538461538461,157.99532015979062L83.07692307692308,122.06065387310854L86.53846153846155,218.14250771649876L90,200.1061551285262L93.46153846153847,186.47317196907997L96.92307692307693,166.64027589538523L100.38461538461539,158.09523809523807L103.84615384615385,139.70641272569614L107.3076923076923,127.3752332552507L110.76923076923077,103.36407110260278L114.23076923076923,203.7896439738745L117.6923076923077,194.50440800856884L121.15384615384615,198.76949688934323L124.61538461538463,168.41010249151586L128.07692307692307,189.5320892272455L131.53846153846155,175.14337230889137L135,174.23011160672473L138.46153846153848,122.29917794031965L141.9230769230769,166.06170075804883L145.3846153846154,156.7839195979899L148.84615384615384,159.0892189111273L152.30769230769232,142.10971791183525L155.76923076923077,153.77627223034875L159.23076923076923,141.78735429176967L162.69230769230768,144.240133876747L166.15384615384616,100.83222141216284L169.6153846153846,141.37646086648564L173.0769230769231,137.94152834725236L176.53846153846155,146.07295219077002L180,126.98383804236167L183.46153846153845,149.22034966136394L186.92307692307693,146.82433721152L190.3846153846154,152.80765647497245L193.84615384615387,100.6843690117712L197.3076923076923,149.63218599582234L200.76923076923077,143.40864614837218L204.23076923076923,157.3293873680481L207.6923076923077,126.86179667553617L211.15384615384616,161.752834160567L214.6153846153846,159.21269172536364L218.07692307692307,175.79477108137965L221.53846153846155,93.7941104891701L225,190.15349340806313L228.46153846153845,188.14672234209345L231.9230769230769,198.7111075226987L235.3846153846154,183.84578997161776L238.84615384615384,202.79302809018705L242.3076923076923,187.54235920606737L245.76923076923075,194.64019559614968L249.23076923076925,164.22928997489691L252.6923076923077,209.89869947510942L256.15384615384613,200.0720590884525L259.6153846153846,204.235375802812L263.0769230769231,188.60892149268696L266.53846153846155,200.10357327809422L270,195.30539271727753L273.46153846153845,201.90833906845984L276.92307692307696,186.52959943282522L280.3846153846154,194.730003050813L283.8461538461538,191.28578101020878L287.30769230769226,191.64831827499802L290.7692307692308,184.47436912979515L294.2307692307692,191.21094205093553L297.6923076923077,188.32382862874329L301.15384615384613,193.3045224907176L304.61538461538464,176.39104861064155L308.0769230769231,191.8124681501613L311.53846153846155,185.16767617077846L315,189.48836211519892L318.46153846153845,182.18406006470383L321.9230769230769,190.87399087399083L325.38461538461536,184.62701319844172L328.8461538461538,187.88004311744797L332.3076923076923,151.25820102101775L335.7692307692308,169.7283738737252L339.2307692307692,160.0872842689942L342.6923076923077,167.27617104975596L346.1538461538462,144.8400180261379L349.61538461538464,163.61325849835856L353.0769230769231,158.30851697438945L356.53846153846155,157.1266149870801L360,136.73195220250292L363.46153846153845,159.36788624591728L366.9230769230769,156.66449511400643L370.38461538461536,159.09958031285763L373.84615384615387,148.93671371096497L377.3076923076923,155.4319614386355L380.7692307692308,154.14904299668314L384.2307692307692,157.40944017563112L387.69230769230774,151.1526185128265L391.1538461538462,159.47678892023595L394.6153846153846,156.13655600489037L398.07692307692304,163.2573811266876L401.53846153846155,156.00103595396362L405,163.23756211800986L408.46153846153845,160.99696048632217L411.9230769230769,164.32236822590693L415.3846153846154,147.812245886607L418.84615384615387,161.89706767351174L422.3076923076923,161.8366304109788L425.7692307692308,164.28666653969944L429.2307692307692,156.86220320488684L432.6923076923077,169.0755873340143L436.15384615384613,165.94936708860754L439.6153846153846,167.71897478626607L443.0769230769231,163.37674357109805L446.53846153846155,169.10321909272722L450,166.2840843492139L453.46153846153845,170.45979581190844L456.9230769230769,165.36306394777873L460.38461538461536,172.0858573479463L463.8461538461538,172.65403146823888L467.3076923076923,176.23231055524298L470.7692307692308,162.41296806423355L474.2307692307692,176.3499792257022L477.6923076923077,175.24553787672588L481.15384615384613,178.04199342271693L484.6153846153846,173.25262460985527L488.07692307692304,179.78172659857285L491.5384615384615,176.87752869471595L495.00000000000006,179.40460587904892L498.4615384615385,178.22915497699472L501.92307692307696,180.57521490759785L505.3846153846154,179.58406338081815L508.8461538461538,180.50389922015592L512.3076923076923,176.6535305002586L515.7692307692307,178.6861038675422L519.2307692307692,178.68303571428567L522.6923076923077,180.12713996066893L526.1538461538462,168.11365430149954L529.6153846153846,179.6440836715579L533.0769230769231,178.49196538936957L536.5384615384615,184.36349572416947L540,181.7265818461275L543.4615384615385,183.90830304724628L546.9230769230769,182.00246807448585L550.3846153846155,183.3037591111353L553.8461538461539,191.26249537208443L557.3076923076924,186.11496806442653L560.7692307692308,179.4553272814142L564.2307692307692,184.078002230117L567.6923076923076,178.28571428571422L571.1538461538461,180.8775710587725L574.6153846153845,173.6279510907179L578.0769230769231,178.47502191060477L581.5384615384615,168.01278068696192L585,177.7121789297044L588.4615384615385,182.8021288046403L591.9230769230769,185.25482085570923L595.3846153846154,176.57270926964623L598.8461538461538,181.61643772151314L602.3076923076923,181.7307692307692L605.7692307692308,182.90544276799113L609.2307692307693,183.72882865828532L612.6923076923077,184.9832049002173L616.1538461538462,185.17071900530541L619.6153846153846,178.39641466845495L623.0769230769231,184.09837983894127L626.5384615384615,188.84601383327262L630,187.66519823788545L633.4615384615385,186.2712975098296L636.9230769230769,177.17349674454232L640.3846153846154,178.592860204519L643.8461538461538,186.87531549722365L647.3076923076923,190.43541575651665L650.7692307692307,188.76586551444768L654.2307692307692,198.38204592901874L657.6923076923076,195.24119341946275L661.1538461538462,197.24334861755577L664.6153846153846,199.97121266642682L668.0769230769231,197.0476130687066L671.5384615384615,197.69585253456225L675,198.94717512395172L678.4615384615385,195.5270394133822L681.9230769230769,202.1927028887586L685.3846153846154,198.41685068795653L688.8461538461538,203.43753892140987L692.3076923076924,198.14399840057314L695.7692307692308,186.03884518003704L699.2307692307693,203.13893750352855L702.6923076923077,202.97522509926736L706.1538461538462,202.15633423180591L709.6153846153846,204.59727066313994L713.0769230769231,205.3311120366514L716.5384615384615,208.26724490879033L720,206.86100141681487L723.4615384615385,209.79151540296647L726.9230769230769,207.78644085299732L730.3846153846154,209.0970659559128L733.8461538461538,207.55241716458434L737.3076923076923,208.7102081693969L740.7692307692307,211.1118937270204L744.2307692307692,213.36783754344825L747.6923076923077,204.13833875258646L751.1538461538462,211.21817920322158L754.6153846153846,192.6363616971352L758.0769230769231,214.5856942870475L761.5384615384615,209.5719906849755L765,238.51684482621002L768.4615384615385,217.21425027545632L771.9230769230769,215.63804479554736L775.3846153846155,217.98647035415837L778.8461538461539,213.92697386319776L782.3076923076924,219.19772368787312L785.7692307692308,213.19831097492616L789.2307692307692,214.21367305596436L792.6923076923076,218.73393897716167L796.1538461538461,219.88230875172155L799.6153846153845,221.47418730171808L803.0769230769231,212.07539948330296L806.5384615384615,216.89434883680076L810,217.58723204506342L813.4615384615385,220.67393187725133L816.9230769230769,217.47614868176584L820.3846153846154,227.36136267293537L823.8461538461538,243.36186087338163L827.3076923076923,233.99304484691214L830.7692307692308,223.64576894296775L834.2307692307693,234.06569274368113L837.6923076923077,234.46721884663793L841.1538461538462,226.9555232817243L844.6153846153846,230.10286951813748L848.0769230769231,237.613552663884L851.5384615384615,233.40807851260442L855,233.765962005072L858.4615384615385,229.33973589435777L861.9230769230769,232.5645225552259L865.3846153846154,237.25702724185268L868.8461538461538,241.64187983343248L872.3076923076923,244.01016220441662L875.7692307692307,239.0569490795565L879.2307692307692,243.32063696021288L882.6923076923076,240.93890516067825L886.1538461538462,263.3747628285756" style="fill: none; stroke: #2ca02c; stroke-width: 2;"></path></g></g><path class="foreground" d="" style="display: none; fill: none;"></path></g><g transform="translate(0,0)"><path class="background" d="M0,0h900v600h-900Z" style="fill: none;"></path><g><g class="mark-line role-mark marks"><path d="M6.923076923076923,481.1264626165135L10.384615384615385,436.4956866667424L13.846153846153847,398.3906265782297L17.30769230769231,367.5281059142364L20.76923076923077,337.8992426736911L24.230769230769234,313.014420326941L27.692307692307693,312.74762990600215L31.153846153846157,299.7146188001569L34.61538461538462,331.90718967849335L38.07692307692308,319.9118446004817L41.53846153846154,314.30751621518505L45,314.96622053516114L48.46153846153847,311.7727749536029L51.92307692307693,311.90907768763896L55.38461538461539,312.67442665090624L58.84615384615385,310.16984306224504L62.307692307692314,310.64125676649826L65.76923076923077,313.28337417671963L69.23076923076924,308.9124753320178L72.6923076923077,312.0691103245545L76.15384615384616,316.2473045025364L79.61538461538461,323.87269593813505L83.07692307692308,323.3687391008365L86.53846153846155,326.2331791347565L90,329.5052138235246L93.46153846153847,328.8441111146876L96.92307692307693,332.40199285390764L100.38461538461539,332.76524065495806L103.84615384615385,332.45448043928275L107.3076923076923,335.93114333576233L110.76923076923077,274.2956637094767L114.23076923076923,361.7455008759357L117.6923076923077,339.96175908221795L121.15384615384615,308.44999721122207L124.61538461538463,284.1078765961589L128.07692307692307,295.2220382357369L131.53846153846155,287.427044128075L135,287.5777417916403L138.46153846153848,317.6507414798294L141.9230769230769,300.933497358709L145.3846153846154,307.538258076705L148.84615384615384,308.2985366104352L152.30769230769232,320.4968944099379L155.76923076923077,315.2257901796462L159.23076923076923,321.1222186391486L162.69230769230768,321.72768949283557L166.15384615384616,341.09034868040834L169.6153846153846,327.44970798182993L173.0769230769231,332.8140962393147L176.53846153846155,332.90137393304065L180,341.5018094560689L183.46153846153845,337.0270829026255L186.92307692307693,340.9996657122509L190.3846153846154,341.23284687431925L193.84615384615387,354.77767265846734L197.3076923076923,345.36040565694594L200.76923076923077,348.01178203240056L204.23076923076923,348.6324426677887L207.6923076923077,354.83622876493973L211.15384615384616,352.2151380404385L214.6153846153846,355.72939888938424L218.07692307692307,355.03839338452445L221.53846153846155,182.51793868232227L225,325.7341754917688L228.46153846153845,292.91469209549956L231.9230769230769,296.216036006001L235.3846153846154,200.2713575767137L238.84615384615384,261.25732987863086L242.3076923076923,209.29379394680512L245.76923076923075,213.8513726175904L249.23076923076925,242.82694050135913L252.6923076923077,233.84086259053316L256.15384615384613,238.24008690928838L259.6153846153846,240.50665436431694L263.0769230769231,251.63978702060348L266.53846153846155,248.12030075187965L270,253.99840905900518L273.46153846153845,257.15641899337163L276.92307692307696,273.33735920392786L280.3846153846154,264.4801439674179L283.8461538461538,269.7469179795896L287.30769230769226,270.0507263880741L290.7692307692308,280.40732399882506L294.2307692307692,279.369851372282L297.6923076923077,283.8146217777151L301.15384615384613,286.3580499795165L304.61538461538464,299.94253240533806L308.0769230769231,292.1697357886309L311.53846153846155,294.03194172036973L315,297.0508413244075L318.46153846153845,305.1688490696072L321.9230769230769,305.38101479123765L325.38461538461536,306.8072377061141L328.8461538461538,307.9523216509517L332.3076923076923,200.30046142289947L335.7692307692308,286.71579621916055L339.2307692307692,263.45609065155804L342.6923076923077,266.5949465373209L346.1538461538462,198.27643354325488L349.61538461538464,238.33596629805155L353.0769230769231,209.7929369525519L356.53846153846155,210.8500847662872L360,229.67359050445106L363.46153846153845,220.41721139089407L366.9230769230769,224.3904458335058L370.38461538461536,226.52638004865736L373.84615384615387,235.40069686411152L377.3076923076923,234.04832556167867L380.7692307692308,239.15477695502977L384.2307692307692,243.55243351731056L387.69230769230774,263.6696223724189L391.1538461538462,250.6781522441619L394.6153846153846,255.67204359911574L398.07692307692304,261.1561501174777L401.53846153846155,268.599753378832L405,266.0209049399764L408.46153846153845,270.0997019220886L411.9230769230769,273.1751276659657L415.3846153846154,284.04875992220894L418.84615384615387,276.9479068834402L422.3076923076923,280.4004046642884L425.7692307692308,280.44138701679645L429.2307692307692,287.2477804681194L432.6923076923077,287.01700154559506L436.15384615384613,290.20892151326933L439.6153846153846,290.1897879774478L443.0769230769231,203.88629003238574L446.53846153846155,272.480483478091L450,249.2617150179923L453.46153846153845,250.81558931095603L456.9230769230769,196.243627582506L460.38461538461536,225.3433616742969L463.8461538461538,199.36142921738167L467.3076923076923,201.8936793032416L470.7692307692308,215.4518248426266L474.2307692307692,208.00331743727963L477.6923076923077,213.30294494811758L481.15384615384613,214.51351975964877L484.6153846153846,219.9034033471863L488.07692307692304,220.77749893460862L491.5384615384615,223.59120118635687L495.00000000000006,223.7415111002831L498.4615384615385,241.66297212648195L501.92307692307696,230.92211358254266L505.3846153846154,239.47084762371384L508.8461538461538,239.40829546553223L512.3076923076923,248.50368599322573L515.7692307692307,247.13312106938923L519.2307692307692,253.6564853396536L522.6923076923077,254.52378861809012L526.1538461538462,262.0258683330911L529.6153846153846,258.5918350097202L533.0769230769231,260.8933454876937L536.5384615384615,267.0567986230636L540,271.34022924238184L543.4615384615385,270.4288039326402L546.9230769230769,272.49972840847363L550.3846153846155,271.84779103514995L553.8461538461539,216.26694473409802L557.3076923076924,259.6483215345969L560.7692307692308,243.67578265563154L564.2307692307692,243.87406190328164L567.6923076923076,203.48259313982877L571.1538461538461,224.4858788044968L574.6153846153845,202.6801390232541L578.0769230769231,205.80280304893043L581.5384615384615,216.03029346797098L585,209.61137784219582L588.4615384615385,218.5957009468413L591.9230769230769,216.89407014230355L595.3846153846154,221.44500397561626L598.8461538461538,218.57174535125608L602.3076923076923,223.9734908514623L605.7692307692308,227.85452495066252L609.2307692307693,243.09678158505258L612.6923076923077,232.40804659167142L616.1538461538462,236.03270854553585L619.6153846153846,238.61367630014587L623.0769230769231,246.6664859149201L626.5384615384615,247.4246113504401L630,252.23535144353758L633.4615384615385,250.94377111066962L636.9230769230769,256.8807801829499L640.3846153846154,251.26472699632615L643.8461538461538,257.2414019643268L647.3076923076923,259.7175282512079L650.7692307692307,265.70440700290874L654.2307692307692,265.59834863382036L657.6923076923076,269.12334554074795L661.1538461538462,269.49011243212385L664.6153846153846,220.83937311345693L668.0769230769231,255.91140927261867L671.5384615384615,244.22082196934068L675,244.89729553953717L678.4615384615385,212.45901639344257L681.9230769230769,233.3821559765964L685.3846153846154,215.9305980878733L688.8461538461538,219.47255198788935L692.3076923076924,226.60226639420392L695.7692307692308,209.88998670872897L699.2307692307693,224.30655763989097L702.6923076923077,223.74390502437987L706.1538461538462,233.23564449056852L709.6153846153846,229.488276194863L713.0769230769231,231.84643720501901L716.5384615384615,233.623122633348L720,246.27193577260027L723.4615384615385,238.9981767584685L726.9230769230769,242.221280203476L730.3846153846154,247.14049065236256L733.8461538461538,250.02809478599522L737.3076923076923,251.0491161140918L740.7692307692307,255.76622129670614L744.2307692307692,255.91291623188576L747.6923076923077,260.775953054418L751.1538461538462,259.6037609133647L754.6153846153846,250.316476943266L758.0769230769231,264.78231375345706L761.5384615384615,266.7123663284891L765,279.26520339287754L768.4615384615385,270.81405464710997L771.9230769230769,271.84518106917034L775.3846153846155,233.4323292320746L778.8461538461539,259.553100677881L782.3076923076924,253.07185122569732L785.7692307692308,251.74639310526575L789.2307692307692,225.90367920134702L792.6923076923076,241.13104701339992L796.1538461538461,232.37134207870835L799.6153846153845,225.71498411146413L803.0769230769231,239.97269291181243L806.5384615384615,230.6702267582656L810,236.8279407151388L813.4615384615385,237.4254987633067L816.9230769230769,238.93873862242594L820.3846153846154,245.54252199413486L823.8461538461538,258.54751733314663L827.3076923076923,247.02624534629703L830.7692307692308,264.6454299919311L834.2307692307693,252.86934439076649L837.6923076923077,270.02623248245317L841.1538461538462,252.38225522767252L844.6153846153846,264.19817812438555L848.0769230769231,266.2575101750759L851.5384615384615,265.96084863089317L855,264.9213895967143L858.4615384615385,269.12367497477203L861.9230769230769,273.416924610461L865.3846153846154,274.9813319290914L868.8461538461538,281.7375990607572L872.3076923076923,286.44461657629745L875.7692307692307,277.5169679709945L879.2307692307692,284.58856996765695L882.6923076923076,284.35558349249334L886.1538461538462,273.43346059505535" style="fill: none; stroke: #98df8a; stroke-width: 2;"></path></g></g><path class="foreground" d="" style="display: none; fill: none;"></path></g><g transform="translate(0,0)"><path class="background" d="M0,0h900v600h-900Z" style="fill: none;"></path><g><g class="mark-line role-mark marks"><path d="M6.923076923076923,545.17878144522L10.384615384615385,506.0910518053375L13.846153846153847,468.98687347565146L17.30769230769231,443.2036492828633L20.76923076923077,399.860034151667L24.230769230769234,356.00523197661L27.692307692307693,323.3545716226269L31.153846153846157,372.0800428554147L34.61538461538462,332.36510639890696L38.07692307692308,294.71356991170444L41.53846153846154,243.51659202313357L45,266.158104367785L48.46153846153847,216.79860458875615L51.92307692307693,187.7661142222322L55.38461538461539,102.97281458257945L58.84615384615385,269.1560716788467L62.307692307692314,236.18633925801163L65.76923076923077,206.58229050411987L69.23076923076924,178.74012622553892L72.6923076923077,186.71757340909647L76.15384615384616,156.93899718907807L79.61538461538461,124.7024606788871L83.07692307692308,79.69372041698304L86.53846153846155,178.20459978567305L90,173.30511813239386L93.46153846153847,155.63279396914123L96.92307692307693,154.76789047915366L100.38461538461539,125.77787871905517L103.84615384615385,94.98229829371513L107.3076923076923,109.03825372811762L110.76923076923077,27.824519555092643L114.23076923076923,157.48828515987455L117.6923076923077,141.9005818107584L121.15384615384615,129.99911637359716L124.61538461538463,92.57715246141767L128.07692307692307,110.25845894192517L131.53846153846155,97.75729396248276L135,83.6098259575763L138.46153846153848,28.160161645782857L141.9230769230769,115.19043401240019L145.3846153846154,100.88248175862682L148.84615384615384,89.11435282087325L152.30769230769232,73.78328996179613L155.76923076923077,85.0581493225071L159.23076923076923,79.68583828948235L162.69230769230768,73.3507418575244L166.15384615384616,18.28390945779961L169.6153846153846,127.9462383215866L173.0769230769231,124.2595706553091L176.53846153846155,116.92155895411938L180,93.96498536532387L183.46153846153845,110.05734828383116L186.92307692307693,106.97893178768554L190.3846153846154,97.57350842135321L193.84615384615387,47.01492537313423L197.3076923076923,149.84681720186083L200.76923076923077,150.23493718579203L204.23076923076923,140.05067238355093L207.6923076923077,128.85141441122522L211.15384615384616,136.03631233515304L214.6153846153846,124.05999004904393L218.07692307692307,120.16660881638317L221.53846153846155,51.21750123673945L225,154.12357740477057L228.46153846153845,146.26375599620346L231.9230769230769,147.04600624684133L235.3846153846154,124.45142654436725L238.84615384615384,146.27650830182475L242.3076923076923,135.49231272489365L245.76923076923075,133.1400260279915L249.23076923076925,84.56691755130052L252.6923076923077,154.13714835958453L256.15384615384613,145.23038170603098L259.6153846153846,145.82008395983493L263.0769230769231,133.82899628252784L266.53846153846155,143.1895489277791L270,133.85213462683427L273.46153846153845,142.01976690352055L276.92307692307696,95.21789933786286L280.3846153846154,158.974989548238L283.8461538461538,154.65941243115844L287.30769230769226,153.86338185890256L290.7692307692308,139.29153945882646L294.2307692307692,156.72343220981355L297.6923076923077,140.0383654278542L301.15384615384613,143.52845052694332L304.61538461538464,102.87336393396365L308.0769230769231,180.94366151129708L311.53846153846155,168.33205226748652L315,169.97752808988758L318.46153846153845,163.79394583112054L321.9230769230769,165.83513538681206L325.38461538461536,162.4716107728504L328.8461538461538,159.06971122369833L332.3076923076923,137.14099318100625L335.7692307692308,173.6542612335666L339.2307692307692,169.06335017489306L342.6923076923077,168.30807105838107L346.1538461538462,159.32080136712358L349.61538461538464,166.626936829559L353.0769230769231,161.91535200500374L356.53846153846155,161.80671552752676L360,132.7176122383483L363.46153846153845,176.40342530922942L366.9230769230769,171.94615674927664L370.38461538461536,169.90261150052717L373.84615384615387,166.27571384709853L377.3076923076923,165.7239443421569L380.7692307692308,168.74172185430461L384.2307692307692,167.78305713292386L387.69230769230774,151.3515110336475L391.1538461538462,183.09555273874696L394.6153846153846,178.9229506441597L398.07692307692304,180.54711246200606L401.53846153846155,179.08121729017245L405,178.05802576564724L408.46153846153845,170.57739192483797L411.9230769230769,175.69980067596848L415.3846153846154,156.605494081372L418.84615384615387,194.5675011329149L422.3076923076923,187.879342701515L425.7692307692308,187.87103631213213L429.2307692307692,183.6634926603902L432.6923076923077,184.781472026574L436.15384615384613,180.62740781507983L439.6153846153846,184.0806457802965L443.0769230769231,187.78054240278271L446.53846153846155,193.80330019680073L450,191.07349211351737L453.46153846153845,193.08951858025293L456.9230769230769,188.83841661258913L460.38461538461536,189.63062458025522L463.8461538461538,187.02362324561614L467.3076923076923,190.88440237499478L470.7692307692308,173.01555472800703L474.2307692307692,195.93210679110186L477.6923076923077,193.96490897972626L481.15384615384613,192.5579123071286L484.6153846153846,189.76845678264033L488.07692307692304,190.99822960642788L491.5384615384615,189.00052287434704L495.00000000000006,190.6389088298636L498.4615384615385,182.99538991550946L501.92307692307696,200.75436115040068L505.3846153846154,202.07657365347168L508.8461538461538,198.57927026154337L512.3076923076923,196.67738641386347L515.7692307692307,194.25727296107465L519.2307692307692,192.17969300943778L522.6923076923077,191.7164499918469L526.1538461538462,176.37415182840743L529.6153846153846,203.10504077822532L533.0769230769231,204.10216718266255L536.5384615384615,205.37482319660535L540,204.23898845993284L543.4615384615385,200.48316959252693L546.9230769230769,200.57238254233246L550.3846153846155,201.43092148210042L553.8461538461539,213.682092555332L557.3076923076924,215.24825746493417L560.7692307692308,216.73500489858122L564.2307692307692,214.74328949738788L567.6923076923076,207.57489697511693L571.1538461538461,206.78095876152992L574.6153846153845,199.66785804541675L578.0769230769231,204.7012410618887L581.5384615384615,188.53664722292672L585,211.15246667117816L588.4615384615385,210.15187581721253L591.9230769230769,212.23893387240307L595.3846153846154,208.09553077530953L598.8461538461538,206.5912283949945L602.3076923076923,208.37272113436867L605.7692307692308,207.37656157049375L609.2307692307693,206.0531973190574L612.6923076923077,216.32247130577738L616.1538461538462,217.208133516214L619.6153846153846,210.20264139530198L623.0769230769231,217.45596868884542L626.5384615384615,214.8673532019368L630,209.97335883598606L633.4615384615385,209.1317133570655L636.9230769230769,193.6896970179243L640.3846153846154,209.65741511003554L643.8461538461538,217.7312109611122L647.3076923076923,221.22161667130558L650.7692307692307,222.8359133126934L654.2307692307692,218.6346177673151L657.6923076923076,217.04260651629076L661.1538461538462,217.64818322414717L664.6153846153846,223.20083380644508L668.0769230769231,227.991852820878L671.5384615384615,227.3977100176468L675,226.70920692798535L678.4615384615385,225.69554399457127L681.9230769230769,225.41354225853684L685.3846153846154,222.98344656013776L688.8461538461538,226.08334833906156L692.3076923076924,212.84109149277683L695.7692307692308,212.90568616078875L699.2307692307693,226.81955725433986L702.6923076923077,226.16113744075824L706.1538461538462,226.3736263736263L709.6153846153846,228.21340532926396L713.0769230769231,224.89444053483464L716.5384615384615,226.5228674073485L720,218.90345910801037L723.4615384615385,238.49517128717625L726.9230769230769,234.43861591029403L730.3846153846154,233.51448780621024L733.8461538461538,232.132843633105L737.3076923076923,230.69818314395084L740.7692307692307,228.00412340571754L744.2307692307692,233.22846875781545L747.6923076923077,216.62293048332458L751.1538461538462,237.70550393137952L754.6153846153846,214.14629875334222L758.0769230769231,246.48910411622268L761.5384615384615,235.23601125351664L765,268.41598377967387L768.4615384615385,244.74264903751276L771.9230769230769,235.48442022816275L775.3846153846155,235.02724622988202L778.8461538461539,241.66798794989697L782.3076923076924,249.42084942084944L785.7692307692308,242.3550006910213L789.2307692307692,246.66711781823102L792.6923076923076,244.7736699526769L796.1538461538461,264.07258510677536L799.6153846153845,241.18106545852208L803.0769230769231,234.92326135039758L806.5384615384615,246.61693933878135L810,248.12030075187965L813.4615384615385,249.79267086236294L816.9230769230769,245.3097008418282L820.3846153846154,254.70647050421368L823.8461538461538,284.9777088583059L827.3076923076923,258.4884222851784L830.7692307692308,244.55733540907042L834.2307692307693,256.5303808836737L837.6923076923077,259.11376690127577L841.1538461538462,254.20348176012598L844.6153846153846,254.3792789450608L848.0769230769231,265.82573258296134L851.5384615384615,256.7926570957872L855,263.0073305918112L858.4615384615385,251.8774986728553L861.9230769230769,268.218238669675L865.3846153846154,283.63205525725374L868.8461538461538,292.1382129979273L872.3076923076923,278.22886919657316L875.7692307692307,280.95389796568514L879.2307692307692,298.3993325701868L882.6923076923076,291.6949379344002L886.1538461538462,290.83554257206293" style="fill: none; stroke: #ffbb78; stroke-width: 2;"></path></g></g><path class="foreground" d="" style="display: none; fill: none;"></path></g></g><g class="mark-group role-legend"><g transform="translate(918,0)"><path class="background" d="M0,0h101v92h-101Z" style="pointer-events: none; fill: none;"></path><g><g class="mark-group role-legend-entry"><g transform="translate(0,16)"><path class="background" d="M0,0h0v0h0Z" style="pointer-events: none; fill: none;"></path><g><g class="mark-group role-scope"><g transform="translate(0,0)"><path class="background" d="M0,0h101v11h-101Z" style="pointer-events: none; fill: none; opacity: 1;"></path><g><g class="mark-symbol role-legend-symbol" style="pointer-events: none;"><path transform="translate(6,6)" d="M-5,0L5,0" style="fill: none; stroke: #1f77b4; stroke-width: 1.5; opacity: 1;"></path></g><g class="mark-text role-legend-label" style="pointer-events: none;"><text text-anchor="start" transform="translate(16,9)" style="font-family: sans-serif; font-size: 10px; fill: #000; opacity: 1;">Clang-Polly</text></g></g><path class="foreground" d="" style="pointer-events: none; display: none; fill: none;"></path></g><g transform="translate(0,13)"><path class="background" d="M0,0h101v11h-101Z" style="pointer-events: none; fill: none; opacity: 1;"></path><g><g class="mark-symbol role-legend-symbol" style="pointer-events: none;"><path transform="translate(6,6)" d="M-5,0L5,0" style="fill: none; stroke: #aec7e8; stroke-width: 1.5; opacity: 1;"></path></g><g class="mark-text role-legend-label" style="pointer-events: none;"><text text-anchor="start" transform="translate(16,9)" style="font-family: sans-serif; font-size: 10px; fill: #000; opacity: 1;">GFortran</text></g></g><path class="foreground" d="" style="pointer-events: none; display: none; fill: none;"></path></g><g transform="translate(0,26)"><path class="background" d="M0,0h101v11h-101Z" style="pointer-events: none; fill: none; opacity: 1;"></path><g><g class="mark-symbol role-legend-symbol" style="pointer-events: none;"><path transform="translate(6,6)" d="M-5,0L5,0" style="fill: none; stroke: #ff7f0e; stroke-width: 1.5; opacity: 1;"></path></g><g class="mark-text role-legend-label" style="pointer-events: none;"><text text-anchor="start" transform="translate(16,9)" style="font-family: sans-serif; font-size: 10px; fill: #000; opacity: 1;">Julia</text></g></g><path class="foreground" d="" style="pointer-events: none; display: none; fill: none;"></path></g><g transform="translate(0,39)"><path class="background" d="M0,0h101v11h-101Z" style="pointer-events: none; fill: none; opacity: 1;"></path><g><g class="mark-symbol role-legend-symbol" style="pointer-events: none;"><path transform="translate(6,6)" d="M-5,0L5,0" style="fill: none; stroke: #ffbb78; stroke-width: 1.5; opacity: 1;"></path></g><g class="mark-text role-legend-label" style="pointer-events: none;"><text text-anchor="start" transform="translate(16,9)" style="font-family: sans-serif; font-size: 10px; fill: #000; opacity: 1;">LoopVectorization</text></g></g><path class="foreground" d="" style="pointer-events: none; display: none; fill: none;"></path></g><g transform="translate(0,52)"><path class="background" d="M0,0h101v11h-101Z" style="pointer-events: none; fill: none; opacity: 1;"></path><g><g class="mark-symbol role-legend-symbol" style="pointer-events: none;"><path transform="translate(6,6)" d="M-5,0L5,0" style="fill: none; stroke: #2ca02c; stroke-width: 1.5; opacity: 1;"></path></g><g class="mark-text role-legend-label" style="pointer-events: none;"><text text-anchor="start" transform="translate(16,9)" style="font-family: sans-serif; font-size: 10px; fill: #000; opacity: 1;">icc</text></g></g><path class="foreground" d="" style="pointer-events: none; display: none; fill: none;"></path></g><g transform="translate(0,65)"><path class="background" d="M0,0h101v11h-101Z" style="pointer-events: none; fill: none; opacity: 1;"></path><g><g class="mark-symbol role-legend-symbol" style="pointer-events: none;"><path transform="translate(6,6)" d="M-5,0L5,0" style="fill: none; stroke: #98df8a; stroke-width: 1.5; opacity: 1;"></path></g><g class="mark-text role-legend-label" style="pointer-events: none;"><text text-anchor="start" transform="translate(16,9)" style="font-family: sans-serif; font-size: 10px; fill: #000; opacity: 1;">ifort</text></g></g><path class="foreground" d="" style="pointer-events: none; display: none; fill: none;"></path></g></g></g><path class="foreground" d="" style="pointer-events: none; display: none; fill: none;"></path></g></g><g class="mark-text role-legend-title" style="pointer-events: none;"><text text-anchor="start" transform="translate(0,9)" style="font-family: sans-serif; font-size: 11px; font-weight: bold; fill: #000; opacity: 1;">Method</text></g></g><path class="foreground" d="" style="pointer-events: none; display: none; fill: none;"></path></g></g></g><path class="foreground" d="" style="display: none; fill: none;"></path></g></g></g></svg>
