<?xml version="1.0" encoding="UTF-8"?>
<svg xmlns="http://www.w3.org/2000/svg"
     xmlns:xlink="http://www.w3.org/1999/xlink"
     xmlns:gadfly="http://www.gadflyjl.org/ns"
     version="1.2"
     width="304.8mm" height="203.2mm" viewBox="0 0 304.8 203.2"
     stroke="none"
     fill="#000000"
     stroke-width="0.3"
     font-size="3.88"
>
<defs>
  <marker id="arrow" markerWidth="15" markerHeight="7" refX="5" refY="3.5" orient="auto" markerUnits="strokeWidth">
    <path d="M0,0 L15,3.5 L0,7 z" stroke="context-stroke" fill="context-stroke"/>
  </marker>
</defs>
<g class="plotroot xscalable yscalable" id="img-c5a059aa-1">
  <g font-size="3.88" font-family="'PT Sans','Helvetica Neue','Helvetica',sans-serif" fill="#564A55" stroke="#000000" stroke-opacity="0.000" id="img-c5a059aa-2">
    <g transform="translate(145.6,191.59)">
      <g class="primitive">
        <text text-anchor="middle" dy="0.6em">Size</text>
      </g>
    </g>
  </g>
  <g class="guide xlabels" font-size="2.82" font-family="'PT Sans Caption','Helvetica Neue','Helvetica',sans-serif" fill="#6C606B" id="img-c5a059aa-3">
    <g transform="translate(19.96,184.92)">
      <g class="primitive">
        <text text-anchor="middle" dy="0.6em">0</text>
      </g>
    </g>
    <g transform="translate(39.29,184.92)">
      <g class="primitive">
        <text text-anchor="middle" dy="0.6em">20</text>
      </g>
    </g>
    <g transform="translate(58.62,184.92)">
      <g class="primitive">
        <text text-anchor="middle" dy="0.6em">40</text>
      </g>
    </g>
    <g transform="translate(77.95,184.92)">
      <g class="primitive">
        <text text-anchor="middle" dy="0.6em">60</text>
      </g>
    </g>
    <g transform="translate(97.28,184.92)">
      <g class="primitive">
        <text text-anchor="middle" dy="0.6em">80</text>
      </g>
    </g>
    <g transform="translate(116.61,184.92)">
      <g class="primitive">
        <text text-anchor="middle" dy="0.6em">100</text>
      </g>
    </g>
    <g transform="translate(135.93,184.92)">
      <g class="primitive">
        <text text-anchor="middle" dy="0.6em">120</text>
      </g>
    </g>
    <g transform="translate(155.26,184.92)">
      <g class="primitive">
        <text text-anchor="middle" dy="0.6em">140</text>
      </g>
    </g>
    <g transform="translate(174.59,184.92)">
      <g class="primitive">
        <text text-anchor="middle" dy="0.6em">160</text>
      </g>
    </g>
    <g transform="translate(193.92,184.92)">
      <g class="primitive">
        <text text-anchor="middle" dy="0.6em">180</text>
      </g>
    </g>
    <g transform="translate(213.25,184.92)">
      <g class="primitive">
        <text text-anchor="middle" dy="0.6em">200</text>
      </g>
    </g>
    <g transform="translate(232.58,184.92)">
      <g class="primitive">
        <text text-anchor="middle" dy="0.6em">220</text>
      </g>
    </g>
    <g transform="translate(251.91,184.92)">
      <g class="primitive">
        <text text-anchor="middle" dy="0.6em">240</text>
      </g>
    </g>
    <g transform="translate(271.24,184.92)">
      <g class="primitive">
        <text text-anchor="middle" dy="0.6em">260</text>
      </g>
    </g>
  </g>
  <g class="guide colorkey" id="img-c5a059aa-4">
    <g fill="#4C404B" font-size="2.82" font-family="'PT Sans','Helvetica Neue','Helvetica',sans-serif" id="img-c5a059aa-5">
      <g transform="translate(277.87,87.95)" id="img-c5a059aa-6">
        <g class="primitive">
          <text dy="0.35em">LoopVectorization</text>
        </g>
      </g>
      <g transform="translate(277.87,91.57)" id="img-c5a059aa-7">
        <g class="primitive">
          <text dy="0.35em">Julia</text>
        </g>
      </g>
      <g transform="translate(277.87,95.2)" id="img-c5a059aa-8">
        <g class="primitive">
          <text dy="0.35em">Clang</text>
        </g>
      </g>
      <g transform="translate(277.87,98.83)" id="img-c5a059aa-9">
        <g class="primitive">
          <text dy="0.35em">GFortran</text>
        </g>
      </g>
      <g transform="translate(277.87,102.45)" id="img-c5a059aa-10">
        <g class="primitive">
          <text dy="0.35em">icc</text>
        </g>
      </g>
      <g transform="translate(277.87,106.08)" id="img-c5a059aa-11">
        <g class="primitive">
          <text dy="0.35em">ifort</text>
        </g>
      </g>
    </g>
    <g stroke-width="0.3" id="img-c5a059aa-12">
      <g stroke="#FFFFFF" fill-opacity="1" fill="#FC93C0" id="img-c5a059aa-13">
        <g transform="translate(275.05,106.08)" id="img-c5a059aa-14">
          <circle cx="0" cy="0" r="0.9" class="primitive"/>
        </g>
      </g>
      <g stroke="#FFFFFF" fill-opacity="1" fill="#EF54F2" id="img-c5a059aa-15">
        <g transform="translate(275.05,102.45)" id="img-c5a059aa-16">
          <circle cx="0" cy="0" r="0.9" class="primitive"/>
        </g>
      </g>
      <g stroke="#FFFFFF" fill-opacity="1" fill="#B341FB" id="img-c5a059aa-17">
        <g transform="translate(275.05,98.83)" id="img-c5a059aa-18">
          <circle cx="0" cy="0" r="0.9" class="primitive"/>
        </g>
      </g>
      <g stroke="#FFFFFF" fill-opacity="1" fill="#732CF8" id="img-c5a059aa-19">
        <g transform="translate(275.05,95.2)" id="img-c5a059aa-20">
          <circle cx="0" cy="0" r="0.9" class="primitive"/>
        </g>
      </g>
      <g stroke="#FFFFFF" fill-opacity="1" fill="#FF0000" id="img-c5a059aa-21">
        <g transform="translate(275.05,91.57)" id="img-c5a059aa-22">
          <circle cx="0" cy="0" r="0.9" class="primitive"/>
        </g>
      </g>
      <g stroke="#FFFFFF" fill-opacity="1" fill="#000000" id="img-c5a059aa-23">
        <g transform="translate(275.05,87.95)" id="img-c5a059aa-24">
          <circle cx="0" cy="0" r="0.9" class="primitive"/>
        </g>
      </g>
    </g>
    <g fill="#362A35" font-size="3.88" font-family="'PT Sans','Helvetica Neue','Helvetica',sans-serif" stroke="#000000" stroke-opacity="0.000" id="img-c5a059aa-25">
      <g transform="translate(274.24,84.63)" id="img-c5a059aa-26">
        <g class="primitive">
          <text dy="-0em">Methods</text>
        </g>
      </g>
    </g>
  </g>
  <g clip-path="url(#img-c5a059aa-27)">
    <g id="img-c5a059aa-28">
      <g pointer-events="visible" stroke-width="0.3" fill="#000000" fill-opacity="0.000" stroke="#000000" stroke-opacity="0.000" class="guide background" id="img-c5a059aa-29">
        <g transform="translate(145.6,94.46)" id="img-c5a059aa-30">
          <path d="M-127.64,-89.46 L127.64,-89.46 127.64,89.46 -127.64,89.46  z" class="primitive"/>
        </g>
      </g>
      <g class="guide ygridlines xfixed" stroke-dasharray="0.5,0.5" stroke-width="0.2" stroke="#D0D0E0" id="img-c5a059aa-31">
        <g transform="translate(145.6,181.92)" id="img-c5a059aa-32">
          <path fill="none" d="M-127.64,0 L127.64,0 " class="primitive"/>
        </g>
        <g transform="translate(145.6,160.05)" id="img-c5a059aa-33">
          <path fill="none" d="M-127.64,0 L127.64,0 " class="primitive"/>
        </g>
        <g transform="translate(145.6,138.19)" id="img-c5a059aa-34">
          <path fill="none" d="M-127.64,0 L127.64,0 " class="primitive"/>
        </g>
        <g transform="translate(145.6,116.32)" id="img-c5a059aa-35">
          <path fill="none" d="M-127.64,0 L127.64,0 " class="primitive"/>
        </g>
        <g transform="translate(145.6,94.46)" id="img-c5a059aa-36">
          <path fill="none" d="M-127.64,0 L127.64,0 " class="primitive"/>
        </g>
        <g transform="translate(145.6,72.59)" id="img-c5a059aa-37">
          <path fill="none" d="M-127.64,0 L127.64,0 " class="primitive"/>
        </g>
        <g transform="translate(145.6,50.73)" id="img-c5a059aa-38">
          <path fill="none" d="M-127.64,0 L127.64,0 " class="primitive"/>
        </g>
        <g transform="translate(145.6,28.86)" id="img-c5a059aa-39">
          <path fill="none" d="M-127.64,0 L127.64,0 " class="primitive"/>
        </g>
        <g transform="translate(145.6,7)" id="img-c5a059aa-40">
          <path fill="none" d="M-127.64,0 L127.64,0 " class="primitive"/>
        </g>
      </g>
      <g class="guide xgridlines yfixed" stroke-dasharray="0.5,0.5" stroke-width="0.2" stroke="#D0D0E0" id="img-c5a059aa-41">
        <g transform="translate(19.96,94.46)" id="img-c5a059aa-42">
          <path fill="none" d="M0,-89.46 L0,89.46 " class="primitive"/>
        </g>
        <g transform="translate(39.29,94.46)" id="img-c5a059aa-43">
          <path fill="none" d="M0,-89.46 L0,89.46 " class="primitive"/>
        </g>
        <g transform="translate(58.62,94.46)" id="img-c5a059aa-44">
          <path fill="none" d="M0,-89.46 L0,89.46 " class="primitive"/>
        </g>
        <g transform="translate(77.95,94.46)" id="img-c5a059aa-45">
          <path fill="none" d="M0,-89.46 L0,89.46 " class="primitive"/>
        </g>
        <g transform="translate(97.28,94.46)" id="img-c5a059aa-46">
          <path fill="none" d="M0,-89.46 L0,89.46 " class="primitive"/>
        </g>
        <g transform="translate(116.61,94.46)" id="img-c5a059aa-47">
          <path fill="none" d="M0,-89.46 L0,89.46 " class="primitive"/>
        </g>
        <g transform="translate(135.93,94.46)" id="img-c5a059aa-48">
          <path fill="none" d="M0,-89.46 L0,89.46 " class="primitive"/>
        </g>
        <g transform="translate(155.26,94.46)" id="img-c5a059aa-49">
          <path fill="none" d="M0,-89.46 L0,89.46 " class="primitive"/>
        </g>
        <g transform="translate(174.59,94.46)" id="img-c5a059aa-50">
          <path fill="none" d="M0,-89.46 L0,89.46 " class="primitive"/>
        </g>
        <g transform="translate(193.92,94.46)" id="img-c5a059aa-51">
          <path fill="none" d="M0,-89.46 L0,89.46 " class="primitive"/>
        </g>
        <g transform="translate(213.25,94.46)" id="img-c5a059aa-52">
          <path fill="none" d="M0,-89.46 L0,89.46 " class="primitive"/>
        </g>
        <g transform="translate(232.58,94.46)" id="img-c5a059aa-53">
          <path fill="none" d="M0,-89.46 L0,89.46 " class="primitive"/>
        </g>
        <g transform="translate(251.91,94.46)" id="img-c5a059aa-54">
          <path fill="none" d="M0,-89.46 L0,89.46 " class="primitive"/>
        </g>
        <g transform="translate(271.24,94.46)" id="img-c5a059aa-55">
          <path fill="none" d="M0,-89.46 L0,89.46 " class="primitive"/>
        </g>
      </g>
      <g class="plotpanel" id="img-c5a059aa-56">
        <metadata>
          <boundingbox value="17.958333333333343mm 5.0mm 255.2816666666666mm 178.915mm"/>
          <unitbox value="-2.0693909225371265 80.91473001171998 264.1387818450742 -81.82946002343996"/>
        </metadata>
        <g stroke-width="0.3" fill="#000000" fill-opacity="0.000" class="geometry" id="img-c5a059aa-57">
          <g class="color_RGB{Float64}(0.98704,0.57494,0.75486)" stroke-dasharray="none" stroke="#FC93C0" id="img-c5a059aa-58">
            <g transform="translate(144.63,163.71)" id="img-c5a059aa-59">
              <path fill="none" d="M-122.74,9.08 L-121.77,5.53 -120.81,4.03 -119.84,3.67 -118.88,2.28 -117.91,1.92 -116.94,1.05 -115.98,1.82 -115.01,1.46 -114.04,0.52 -113.08,-0.2 -112.11,-0.3 -111.14,0.03 -110.18,-0.27 -109.21,-1.26 -108.24,-0.2 -107.28,-0.71 -106.31,-0.75 -105.35,-1.18 -104.38,-0.6 -103.41,-0.85 -102.45,-1.13 -101.48,-2.4 -100.51,-2.18 -99.55,-2.21 -98.58,-2.3 -97.61,-2.72 -96.65,-2.34 -95.68,-2.6 -94.71,-2.38 -93.75,-2.94 -92.78,-2.48 -91.81,-2.79 -90.85,-1.37 -89.88,-3.01 -88.92,-1.54 -87.95,-1.72 -86.98,-1.61 -86.02,-2.02 -85.05,-1.72 -84.08,-1.64 -83.12,-1.74 -82.15,-1.88 -81.18,-1.65 -80.22,-1.63 -79.25,-1.86 -78.28,-1.72 -77.32,-1.79 -76.35,-1.6 -75.38,-1.64 -74.42,-1.68 -73.45,-1.61 -72.49,-1.89 -71.52,-2.74 -70.55,-3.05 -69.59,-2.69 -68.62,-1.75 -67.65,-1.86 -66.69,-1.88 -65.72,-1.83 -64.75,-0.06 -63.79,-1.82 -62.82,-1.34 -61.85,-1.73 -60.89,-1.75 -59.92,-1.97 -58.95,-1.94 -57.99,-2.89 -57.02,-1.91 -56.06,-1.3 -55.09,-3.19 -54.12,-2.5 -53.16,-2.41 -52.19,-2.9 -51.22,-3.08 -50.26,-2.39 -49.29,-3.09 -48.32,-2.52 -47.36,-0.78 -46.39,-3 -45.42,-2.9 -44.46,-2.62 -43.49,-3.22 -42.52,-2.93 -41.56,-3.12 -40.59,-1.8 -39.63,-3.16 -38.66,-2.86 -37.69,-3.12 -36.73,0.33 -35.76,-3.01 -34.79,-2.31 -33.83,0.61 -32.86,-1.88 -31.89,-0.82 -30.93,-1.75 -29.96,-3.05 -28.99,-3.06 -28.03,-3.02 -27.06,-2.09 -26.09,-1.54 -25.13,-1.69 -24.16,-1.98 -23.2,-1.46 -22.23,-1.39 -21.26,-1.77 -20.3,-1.75 -19.33,-1.73 -18.36,-0.53 -17.4,-1.68 -16.43,0.27 -15.46,-1.54 -14.5,-1.22 -13.53,-0.79 -12.56,-0.01 -11.6,-1.57 -10.63,-1.42 -9.66,-1.6 -8.7,0.06 -7.73,-0.75 -6.77,-0.73 -5.8,-1.31 -4.83,-1.98 -3.87,-1.5 -2.9,0.67 -1.93,-1.28 -0.97,0.73 0,-0.99 0.97,-0.86 1.93,-0.07 2.9,-1.01 3.87,-0.3 4.83,-0.69 5.8,0.22 6.77,-0.51 7.73,-0.1 8.7,0.15 9.66,0.09 10.63,0.04 11.6,-0.07 12.56,1.24 13.53,0.22 14.5,1.17 15.46,0.38 16.43,0.6 17.4,0.37 18.36,0 19.33,0.35 20.3,0.56 21.26,0.3 22.23,0.39 23.2,0.27 24.16,0.47 25.13,0.44 26.09,0.48 27.06,0.46 28.03,2.67 28.99,0.43 29.96,1.25 30.93,1.03 31.89,0.62 32.86,0.67 33.83,0.44 34.79,-0.73 35.76,1.9 36.73,0.14 37.69,0.22 38.66,2.45 39.63,1.38 40.59,0.96 41.56,0.5 42.52,0.66 43.49,1.48 44.46,0.46 45.42,1.27 46.39,0.58 47.36,0.71 48.32,0.3 49.29,-0 50.26,1.36 51.22,0.52 52.19,0.68 53.16,0.49 54.12,0.3 55.09,1.11 56.06,0.41 57.02,0.05 57.99,0.33 58.95,2.42 59.92,0.46 60.89,0.9 61.85,2.14 62.82,0.74 63.79,2.34 64.75,0.46 65.72,1.39 66.69,0.88 67.65,1.03 68.62,0.49 69.59,1.07 70.55,1.49 71.52,2.37 72.49,1.45 73.45,1.66 74.42,2.41 75.38,1.5 76.35,1.75 77.32,1.68 78.28,1.74 79.25,1.47 80.22,1.63 81.18,1.81 82.15,1.52 83.12,1.81 84.08,1.87 85.05,1.44 86.02,2.05 86.98,2.02 87.95,3.09 88.92,2.38 89.88,2.58 90.85,2.44 91.81,1.47 92.78,2.21 93.75,2.4 94.71,2.25 95.68,2.54 96.65,2.67 97.61,2.06 98.58,2.4 99.55,2.63 100.51,2.49 101.48,2.6 102.45,2.83 103.41,2.76 104.38,2.58 105.35,2.91 106.31,2.74 107.28,2.12 108.24,2.15 109.21,2.87 110.18,2.93 111.14,2.94 112.11,2.92 113.08,2.76 114.04,2.91 115.01,2.91 115.98,2.75 116.94,2.85 117.91,2.81 118.88,3.11 119.84,2.9 120.81,2.71 121.77,3.49 122.74,2.95 " class="primitive"/>
            </g>
          </g>
        </g>
        <g stroke-width="0.3" fill="#000000" fill-opacity="0.000" class="geometry" id="img-c5a059aa-60">
          <g class="color_RGB{Float64}(0.9360050000000001,0.3313625,0.949375)" stroke-dasharray="none" stroke="#EF54F2" id="img-c5a059aa-61">
            <g transform="translate(144.63,118.97)" id="img-c5a059aa-62">
              <path fill="none" d="M-122.74,49.68 L-121.77,42.03 -120.81,37.79 -119.84,43.41 -118.88,39.07 -117.91,35.03 -116.94,23.89 -115.98,29.58 -115.01,26.49 -114.04,23.39 -113.08,14.11 -112.11,21.79 -111.14,19.06 -110.18,14.95 -109.21,9.19 -108.24,18.75 -107.28,16.33 -106.31,13.66 -105.35,5.11 -104.38,16.6 -103.41,13.94 -102.45,15.79 -101.48,1.67 -100.51,13.51 -99.55,10.67 -98.58,9.12 -97.61,2.14 -96.65,13.75 -95.68,9.09 -94.71,9.58 -93.75,1.63 -92.78,8.27 -91.81,7.65 -90.85,9.77 -89.88,-0.2 -88.92,6.75 -87.95,6.34 -86.98,8.41 -86.02,1.28 -85.05,6.77 -84.08,3.82 -83.12,1.93 -82.15,-2.29 -81.18,4.34 -80.22,3.53 -79.25,2.13 -78.28,-2.98 -77.32,7.09 -76.35,2.02 -75.38,2.2 -74.42,-2.66 -73.45,3.49 -72.49,4.24 -71.52,2.46 -70.55,-4.6 -69.59,4 -68.62,0.31 -67.65,3.12 -66.69,1.83 -65.72,3.43 -64.75,2.12 -63.79,1.01 -62.82,-2.17 -61.85,0.75 -60.89,-0.12 -59.92,0.97 -58.95,-3.9 -57.99,-0.06 -57.02,-1.14 -56.06,-2.21 -55.09,-3.29 -54.12,1.05 -53.16,3.72 -52.19,-1.79 -51.22,-6.86 -50.26,-0.11 -49.29,0.3 -48.32,-1.96 -47.36,-0.35 -46.39,-1.51 -45.42,-1.13 -44.46,-0.16 -43.49,-4.59 -42.52,-0.48 -41.56,-2.79 -40.59,-0.92 -39.63,-7.86 -38.66,-2.69 -37.69,2.24 -36.73,-0.69 -35.76,-7.33 -34.79,0.17 -33.83,-2.89 -32.86,-1.5 -31.89,-5.82 -30.93,-0.63 -29.96,3.38 -28.99,4.05 -28.03,-5.67 -27.06,-1.68 -26.09,-2.5 -25.13,3.64 -24.16,-7 -23.2,-2.32 -22.23,-2.2 -21.26,-3.03 -20.3,-1.49 -19.33,-1.38 -18.36,-3.31 -17.4,-4.07 -16.43,-7.08 -15.46,-3.93 -14.5,0.24 -13.53,-2.77 -12.56,-6.54 -11.6,-1.82 -10.63,-3.04 -9.66,-2.65 -8.7,-8.78 -7.73,-3.55 -6.77,-3.82 -5.8,-3.19 -4.83,-8.25 -3.87,-2.32 -2.9,-5.37 -1.93,-4.36 -0.97,-3.11 0,-3.94 0.97,-3.85 1.93,-4.34 2.9,-7.94 3.87,2.72 4.83,3.52 5.8,-1.47 6.77,-7.69 7.73,-3.73 8.7,-4.91 9.66,-4 10.63,-7.82 11.6,-2.93 12.56,-4.92 13.53,-4.43 14.5,-4.01 15.46,-3.83 16.43,-5.68 17.4,-4.94 18.36,-3.39 19.33,-4.27 20.3,-5.34 21.26,-4.99 22.23,-9.54 23.2,-2.07 24.16,-2.87 25.13,-1.64 26.09,-3.93 27.06,-4.96 28.03,-5.75 28.99,-5 29.96,-9.65 30.93,-1.87 31.89,-2.79 32.86,6 33.83,-4.38 34.79,-4.49 35.76,-5.86 36.73,-5.04 37.69,-8.52 38.66,-2.77 39.63,-3.7 40.59,-2.83 41.56,-8.64 42.52,-4.78 43.49,-6.15 44.46,-1.36 45.42,-8.88 46.39,-4.87 47.36,-5.97 48.32,-5.46 49.29,-2.12 50.26,-3.93 51.22,-5.69 52.19,-5.77 53.16,-9.16 54.12,-5.02 55.09,-5.82 56.06,-5.6 57.02,-9.45 57.99,-5.14 58.95,-0.35 59.92,-4.26 60.89,-9.05 61.85,-4.47 62.82,-5.86 63.79,-0.87 64.75,-8.96 65.72,-2.97 66.69,-0.35 67.65,-3.74 68.62,-8.72 69.59,-4.88 70.55,-6.33 71.52,-4.31 72.49,-9.29 73.45,0.67 74.42,-6.58 75.38,-3.97 76.35,-4.75 77.32,-4.61 78.28,0.05 79.25,1.88 80.22,-9.11 81.18,-4.27 82.15,-6.53 83.12,-4.97 84.08,-5.8 85.05,-4.51 86.02,-5.55 86.98,-4.12 87.95,-5.18 88.92,-3.44 89.88,-6.82 90.85,1.51 91.81,-3.18 92.78,-4.73 93.75,-6.48 94.71,2.02 95.68,-7.55 96.65,2.53 97.61,-6.49 98.58,-5.22 99.55,-2.62 100.51,-4.57 101.48,-5.92 102.45,-4.4 103.41,-8.8 104.38,1.9 105.35,-7.06 106.31,-3.87 107.28,-2.19 108.24,-4.41 109.21,-5.01 110.18,-2.98 111.14,-4.97 112.11,-0.77 113.08,-2.89 114.04,-0.43 115.01,-4.9 115.98,-2.76 116.94,-4.58 117.91,-3.15 118.88,-6.7 119.84,-2.7 120.81,0.05 121.77,-3.82 122.74,-1.93 " class="primitive"/>
            </g>
          </g>
        </g>
        <g stroke-width="0.3" fill="#000000" fill-opacity="0.000" class="geometry" id="img-c5a059aa-63">
          <g class="color_RGB{Float64}(0.7018800000000001,0.25504499999999997,0.9848349999999999)" stroke-dasharray="none" stroke="#B341FB" id="img-c5a059aa-64">
            <g transform="translate(144.63,105.83)" id="img-c5a059aa-65">
              <path fill="none" d="M-122.74,69.13 L-121.77,66.36 -120.81,53.75 -119.84,56.94 -118.88,56.56 -117.91,56.21 -116.94,38.83 -115.98,39.71 -115.01,42.25 -114.04,46.18 -113.08,33.39 -112.11,35.21 -111.14,36.45 -110.18,39.67 -109.21,13.74 -108.24,27.94 -107.28,32.27 -106.31,34.94 -105.35,12.74 -104.38,26.34 -103.41,27.95 -102.45,35.83 -101.48,-4.37 -100.51,13.98 -99.55,18.64 -98.58,25.85 -97.61,2.51 -96.65,20.42 -95.68,18.96 -94.71,26.65 -93.75,-3.98 -92.78,6.33 -91.81,15.19 -90.85,21.49 -89.88,-2.78 -88.92,7.71 -87.95,15.15 -86.98,19.71 -86.02,-4.2 -85.05,3.87 -84.08,6.96 -83.12,13.28 -82.15,-4.83 -81.18,8.47 -80.22,11.33 -79.25,19.1 -78.28,-5.5 -77.32,10.85 -76.35,8.39 -75.38,14.43 -74.42,0.68 -73.45,7.38 -72.49,12.71 -71.52,18.51 -70.55,-7.15 -69.59,6.51 -68.62,5.98 -67.65,15.65 -66.69,-3.05 -65.72,7.57 -64.75,7.72 -63.79,14.4 -62.82,-4.64 -61.85,-0.69 -60.89,3.59 -59.92,9.8 -58.95,-3.43 -57.99,1.97 -57.02,1.32 -56.06,9.11 -55.09,-4.45 -54.12,1.24 -53.16,2.37 -52.19,6.48 -51.22,-7.32 -50.26,1.45 -49.29,3.1 -48.32,7.76 -47.36,-12.47 -46.39,-4.11 -45.42,0.9 -44.46,7.45 -43.49,-3.18 -42.52,0.75 -41.56,-3.16 -40.59,9.41 -39.63,-13.94 -38.66,-5.65 -37.69,3.22 -36.73,6.41 -35.76,-8.59 -34.79,1.03 -33.83,-2.53 -32.86,7.77 -31.89,-9.14 -30.93,-2.19 -29.96,1.9 -28.99,5.04 -28.03,-7.05 -27.06,-2.59 -26.09,-1.48 -25.13,8.13 -24.16,-12.41 -23.2,-5.17 -22.23,-0.97 -21.26,0.84 -20.3,-9.4 -19.33,-0.77 -18.36,-3.38 -17.4,2.3 -16.43,-11.77 -15.46,-9.17 -14.5,-1.55 -13.53,1.18 -12.56,-8.41 -11.6,-2.62 -10.63,-5.27 -9.66,2.75 -8.7,-16.2 -7.73,-7.13 -6.77,-3.72 -5.8,0.81 -4.83,-11.31 -3.87,-3.41 -2.9,-8.36 -1.93,-0.43 -0.97,-15.5 0,-8.84 0.97,-4.97 1.93,-2.92 2.9,-10.3 3.87,-6.94 4.83,-9.52 5.8,0.52 6.77,-13.26 7.73,-6.41 8.7,-4.95 9.66,-1.44 10.63,-10.35 11.6,-5.06 12.56,-8.7 13.53,-0.47 14.5,-13.67 15.46,-8.02 16.43,-7.33 17.4,-4.45 18.36,-11.86 19.33,-7.72 20.3,-9.07 21.26,-2.03 22.23,-16.19 23.2,-10.09 24.16,-8.67 25.13,-2.75 26.09,-11.76 27.06,-8.29 28.03,-9.86 28.99,-1.97 29.96,-16.67 30.93,-9.73 31.89,-7.91 32.86,-0.87 33.83,-12.82 34.79,-7.93 35.76,-11.59 36.73,-3.12 37.69,-13.1 38.66,-8.65 39.63,-7.71 40.59,-4.86 41.56,-12.79 42.52,-8.11 43.49,-12.01 44.46,-3.06 45.42,-15.96 46.39,-10.25 47.36,-8.4 48.32,-5.92 49.29,-11.48 50.26,-7.74 51.22,-11.37 52.19,-4.71 53.16,-16.04 54.12,-10.5 55.09,-7.94 56.06,-6.03 57.02,-13.43 57.99,-8.29 58.95,-9.49 59.92,-4.95 60.89,-16.56 61.85,-11.29 62.82,-10.15 63.79,-6.32 64.75,-13.93 65.72,-8.33 66.69,-10.19 67.65,-4.36 68.62,-16.21 69.59,-11.09 70.55,-10.3 71.52,-6.98 72.49,-14.64 73.45,-8.04 74.42,-12.87 75.38,-4.81 76.35,-14.91 77.32,-11.45 78.28,-10.39 79.25,-6.06 80.22,-14.99 81.18,-10.57 82.15,-13.35 83.12,-6.52 84.08,-14.55 85.05,-10.4 86.02,-8.05 86.98,-5.89 87.95,-12.54 88.92,-8.54 89.88,-13.26 90.85,-5.18 91.81,-15.2 92.78,-10.46 93.75,-10.88 94.71,-5.25 95.68,-9.67 96.65,-6.99 97.61,-13.43 98.58,-6.66 99.55,-13.23 100.51,-9.37 101.48,-9.21 102.45,-6.31 103.41,-12.8 104.38,-8.25 105.35,-13.32 106.31,-3.39 107.28,-12.88 108.24,-9.3 109.21,-8.02 110.18,-5.62 111.14,-11.08 112.11,-6.41 113.08,-11.14 114.04,-2.49 115.01,-9.61 115.98,-4.94 116.94,-5.31 117.91,-2.05 118.88,-7.21 119.84,-3.94 120.81,-7.83 121.77,-2.31 122.74,-9.36 " class="primitive"/>
            </g>
          </g>
        </g>
        <g stroke-width="0.3" fill="#000000" fill-opacity="0.000" class="geometry" id="img-c5a059aa-66">
          <g class="color_RGB{Float64}(0.45187999999999995,0.172285,0.9716199999999999)" stroke-dasharray="none" stroke="#732CF8" id="img-c5a059aa-67">
            <g transform="translate(144.63,108.3)" id="img-c5a059aa-68">
              <path fill="none" d="M-122.74,64.84 L-121.77,61.19 -120.81,59.25 -119.84,57.59 -118.88,56.53 -117.91,56.68 -116.94,24.02 -115.98,24.07 -115.01,30.16 -114.04,35.43 -113.08,35.94 -112.11,37.36 -111.14,40.5 -110.18,45.21 -109.21,-9.4 -108.24,8.72 -107.28,13.88 -106.31,18.49 -105.35,21.16 -104.38,26.26 -103.41,27.87 -102.45,38.41 -101.48,-18.41 -100.51,-5.14 -99.55,4.11 -98.58,10.73 -97.61,11.27 -96.65,22.3 -95.68,24.44 -94.71,27.74 -93.75,-13.3 -92.78,-11.56 -91.81,-0.57 -90.85,9.19 -89.88,7.37 -88.92,13.28 -87.95,18.94 -86.98,22.55 -86.02,-12.33 -85.05,-9.21 -84.08,-8.27 -83.12,-1.7 -82.15,4.62 -81.18,9.94 -80.22,12.6 -79.25,19.32 -78.28,-7.39 -77.32,3.46 -76.35,-1.67 -75.38,2.9 -74.42,5.11 -73.45,8.85 -72.49,14.8 -71.52,19.86 -70.55,-8.95 -69.59,-1.21 -68.62,-3.64 -67.65,6.98 -66.69,2.56 -65.72,8.01 -64.75,7.73 -63.79,16.25 -62.82,-3.73 -61.85,-6.24 -60.89,-4.81 -59.92,0.29 -58.95,2.75 -57.99,4.02 -57.02,3.56 -56.06,10.66 -55.09,-4.59 -54.12,-5.56 -53.16,-6.42 -52.19,-2.67 -51.22,-1.86 -50.26,2.74 -49.29,4.58 -48.32,9.06 -47.36,-11.38 -46.39,-8.26 -45.42,-5.08 -44.46,3.33 -43.49,3.21 -42.52,4.24 -41.56,-0.59 -40.59,11.43 -39.63,-12.48 -38.66,-9.14 -37.69,-2.15 -36.73,-0.18 -35.76,-4.22 -34.79,2.97 -33.83,0.22 -32.86,9.97 -31.89,-6.95 -30.93,-5 -29.96,-1.81 -28.99,1.2 -28.03,0.37 -27.06,-0.09 -26.09,1.04 -25.13,9.74 -24.16,-9.78 -23.2,-6.31 -22.23,-5.17 -21.26,-5.22 -20.3,-5.81 -19.33,2.68 -18.36,-0.15 -17.4,5.28 -16.43,-11.01 -15.46,-10.31 -14.5,-3.89 -13.53,-1.71 -12.56,-1.78 -11.6,0.16 -10.63,-3.15 -9.66,4.77 -8.7,-12.88 -7.73,-7.61 -6.77,-5.58 -5.8,-2.52 -4.83,-4.53 -3.87,-0.81 -2.9,-4.86 -1.93,2.06 -0.97,-11.63 0,-10.16 0.97,-7.55 1.93,-7 2.9,-3.71 3.87,-3.44 4.83,-7.21 5.8,3.87 6.77,-9.55 7.73,-6.22 8.7,-6.11 9.66,-4.34 10.63,-4.16 11.6,-2.1 12.56,-6.27 13.53,2.48 14.5,-11.54 15.46,-8.46 16.43,-8.1 17.4,-7.85 18.36,-6.23 19.33,-3.25 20.3,-5.62 21.26,1.75 22.23,-12.23 23.2,-9.4 24.16,-10.55 25.13,-4.73 26.09,-6.42 27.06,-3.72 28.03,-6.48 28.99,1.83 29.96,-12.34 30.93,-8.41 31.89,-8.92 32.86,-3.45 33.83,-6.66 34.79,-4.32 35.76,-8.79 36.73,0.48 37.69,-10.35 38.66,-8.07 39.63,-7.75 40.59,-7.25 41.56,-7.64 42.52,-4.23 43.49,-9.07 44.46,1.25 45.42,-12.67 46.39,-9.51 47.36,-8.09 48.32,-7.11 49.29,-6.36 50.26,-3.57 51.22,-8.31 52.19,-0.7 53.16,-12.39 54.12,-9.38 55.09,-8.24 56.06,-7.86 57.02,-6.97 57.99,-3.82 58.95,-10.4 59.92,-1.59 60.89,-12.65 61.85,-8.98 62.82,-9.88 63.79,-7.36 64.75,-8.62 65.72,-3.9 66.69,-8.23 67.65,-0.61 68.62,-12.31 69.59,-10.02 70.55,-10.64 71.52,-7.16 72.49,-8.94 73.45,-3.62 74.42,-9.84 75.38,-1.03 76.35,-11.6 77.32,-9.4 78.28,-10.3 79.25,-7.85 80.22,-8.7 81.18,-5.88 82.15,-10.15 83.12,-2.98 84.08,-10.99 85.05,-8.94 86.02,-8.27 86.98,-6.74 87.95,-7.09 88.92,-4.55 89.88,-10.42 90.85,-1.51 91.81,-12.68 92.78,-8.78 93.75,-10.4 94.71,-5.99 95.68,-6.1 96.65,-2.98 97.61,-10.18 98.58,-2.83 99.55,-11 100.51,-8.07 101.48,-8.72 102.45,-7.26 103.41,-7.46 104.38,-4.68 105.35,-10.66 106.31,-0.83 107.28,-10.7 108.24,-7.87 109.21,-7.88 110.18,-6.78 111.14,-6.62 112.11,-3.73 113.08,-9.34 114.04,-0.69 115.01,-9.04 115.98,-5.9 116.94,-6.32 117.91,-5.24 118.88,-5.51 119.84,-2.91 120.81,-8.67 121.77,-0.41 122.74,-7.76 " class="primitive"/>
            </g>
          </g>
        </g>
        <g stroke-width="0.3" fill="#000000" fill-opacity="0.000" class="geometry" id="img-c5a059aa-69">
          <g class="color_RGB{Float64}(1.0,0.0,0.0)" stroke-dasharray="none" stroke="#FF0000" id="img-c5a059aa-70">
            <g transform="translate(144.63,107.32)" id="img-c5a059aa-71">
              <path fill="none" d="M-122.74,64.85 L-121.77,63.76 -120.81,59.98 -119.84,58.59 -118.88,57.21 -117.91,56.12 -116.94,16.52 -115.98,21.18 -115.01,29.57 -114.04,36.06 -113.08,39.1 -112.11,40.38 -111.14,42.21 -110.18,45.27 -109.21,-14.02 -108.24,4.25 -107.28,15.62 -106.31,18.33 -105.35,23.68 -104.38,30.52 -103.41,30.75 -102.45,38.73 -101.48,-21.01 -100.51,-4.73 -99.55,2.99 -98.58,11.35 -97.61,14.45 -96.65,24.47 -95.68,25.75 -94.71,27.64 -93.75,-22.02 -92.78,-12.43 -91.81,-2.61 -90.85,5.85 -89.88,11.15 -88.92,16.37 -87.95,19.97 -86.98,22.61 -86.02,-16.78 -85.05,-13.16 -84.08,-8.42 -83.12,0.92 -82.15,6.83 -81.18,12.23 -80.22,13.85 -79.25,19.88 -78.28,-14.19 -77.32,-1.77 -76.35,-5.58 -75.38,1.52 -74.42,6.85 -73.45,10.64 -72.49,16.07 -71.52,20.12 -70.55,-14.94 -69.59,-6 -68.62,-6.69 -67.65,5.55 -66.69,3.67 -65.72,9.66 -64.75,8.86 -63.79,16.79 -62.82,-7.21 -61.85,-11.65 -60.89,-7.93 -59.92,-0.85 -58.95,4.34 -57.99,5.65 -57.02,4.78 -56.06,11.58 -55.09,-7.41 -54.12,-10.03 -53.16,-8.64 -52.19,-3.21 -51.22,-0.33 -50.26,4.09 -49.29,5.81 -48.32,9.72 -47.36,-15.29 -46.39,-12.9 -45.42,-6.98 -44.46,1.62 -43.49,4.03 -42.52,5.81 -41.56,0.65 -40.59,12.02 -39.63,-16.22 -38.66,-13.28 -37.69,-3.99 -36.73,-1.44 -35.76,-2.82 -34.79,4.08 -33.83,1.42 -32.86,10.61 -31.89,-9.03 -30.93,-7.97 -29.96,-3.22 -28.99,2.94 -28.03,1.89 -27.06,1.18 -26.09,2.38 -25.13,10.29 -24.16,-11.84 -23.2,-8.82 -22.23,-6.56 -21.26,-5.56 -20.3,-4.53 -19.33,4.1 -18.36,1.08 -17.4,6.12 -16.43,-13.63 -15.46,-13.29 -14.5,-5.27 -13.53,-2 -12.56,-0.52 -11.6,1.41 -10.63,-2.02 -9.66,5.43 -8.7,-15.01 -7.73,-9.72 -6.77,-6.49 -5.8,-2.62 -4.83,-3.16 -3.87,3.11 -2.9,-3.39 -1.93,2.64 -0.97,-13.3 0,-12.45 0.97,-8.56 1.93,-4.06 2.9,-2.45 3.87,-2.21 4.83,-6.04 5.8,4.52 6.77,-10.03 7.73,-7.74 8.7,-6.86 9.66,-4.42 10.63,-3.11 11.6,-0.88 12.56,-5.29 13.53,3.17 14.5,-12.68 15.46,-10.17 16.43,-8.86 17.4,-8.01 18.36,-5.2 19.33,-1.74 20.3,-4.45 21.26,2.23 22.23,-12 23.2,-10.88 24.16,-11.29 25.13,-4.6 26.09,-5.98 27.06,-2.26 28.03,-5.47 28.99,2.55 29.96,-12.11 30.93,-8.7 31.89,-7.53 32.86,-1.88 33.83,-5.65 34.79,-3.14 35.76,-7.55 36.73,1.06 37.69,-11.06 38.66,-9.03 39.63,-8.25 40.59,-6.92 41.56,-6.65 42.52,-2.79 43.49,-8 44.46,0.45 45.42,-13.57 46.39,-10.62 47.36,-8.42 48.32,-6.94 49.29,-4.57 50.26,-2.13 51.22,-7.34 52.19,0.04 53.16,-13.32 54.12,-10.38 55.09,-8.66 56.06,-7.71 57.02,-5.85 57.99,-2.69 58.95,-9.54 59.92,-0.85 60.89,-13.42 61.85,-9.78 62.82,-10.42 63.79,-6.17 64.75,-7.58 65.72,-2.74 66.69,-7.01 67.65,-0.03 68.62,-12.86 69.59,-10.89 70.55,-11.03 71.52,-6.81 72.49,-7.93 73.45,-3.34 74.42,-8.79 75.38,-0.34 76.35,-12.14 77.32,-10.13 78.28,-10.55 79.25,-7.55 80.22,-7.67 81.18,-4.68 82.15,-9.01 83.12,-2.14 84.08,-10.79 85.05,-9.44 86.02,-8.39 86.98,-6.51 87.95,-6.69 88.92,-3.23 89.88,-9.34 90.85,-0.68 91.81,-12.68 92.78,-9.17 93.75,-10.64 94.71,-4.6 95.68,-5.01 96.65,-1.65 97.61,-8.87 98.58,-1.94 99.55,-10.67 100.51,-8.09 101.48,-8.6 102.45,-6.75 103.41,-6.28 104.38,-3.2 105.35,-9.54 106.31,-0.19 107.28,-9.66 108.24,-7.94 109.21,-7.69 110.18,-6.26 111.14,-5.55 112.11,-2.5 113.08,-8.17 114.04,0.16 115.01,-8.72 115.98,-5.95 116.94,-6.66 117.91,-4.69 118.88,-4.31 119.84,-1.53 120.81,-7.42 121.77,0.52 122.74,-7.19 " class="primitive"/>
            </g>
          </g>
        </g>
        <g stroke-width="0.3" fill="#000000" fill-opacity="0.000" class="geometry" id="img-c5a059aa-72">
          <g class="color_RGB{Float64}(0.0,0.0,0.0)" stroke-dasharray="none" stroke="#000000" id="img-c5a059aa-73">
            <g transform="translate(144.63,64.69)" id="img-c5a059aa-74">
              <path fill="none" d="M-122.74,109.19 L-121.77,100.88 -120.81,89.23 -119.84,79.72 -118.88,66.76 -117.91,52.59 -116.94,41.46 -115.98,68.31 -115.01,53.43 -114.04,56.08 -113.08,41.33 -112.11,22.67 -111.14,12.62 -110.18,5.45 -109.21,-16.88 -108.24,29.43 -107.28,24.53 -106.31,7.6 -105.35,2.04 -104.38,-1.13 -103.41,-10.04 -102.45,-2.59 -101.48,-44.29 -100.51,4.47 -99.55,-1.59 -98.58,-4.82 -97.61,-19.31 -96.65,-8.02 -95.68,-22.69 -94.71,-21.28 -93.75,-52.7 -92.78,-8.83 -91.81,-6.5 -90.85,-15.36 -89.88,-22.08 -88.92,-26.48 -87.95,-31.79 -86.98,-26.51 -86.02,-53.77 -85.05,-10.4 -84.08,-10.94 -83.12,-18.6 -82.15,-11.27 -81.18,-8.14 -80.22,-13.05 -79.25,-3.7 -78.28,-22.03 -77.32,10.32 -76.35,9.89 -75.38,9.54 -74.42,6.2 -73.45,1.31 -72.49,-3.67 -71.52,0.66 -70.55,-19.44 -69.59,10.51 -68.62,6.07 -67.65,3.13 -66.69,-2.16 -65.72,1.26 -64.75,1.37 -63.79,0.58 -62.82,-20.93 -61.85,5.87 -60.89,3.33 -59.92,7.3 -58.95,-3.1 -57.99,1.88 -57.02,-2.34 -56.06,3.19 -55.09,-22.04 -54.12,8.77 -53.16,0.84 -52.19,5.77 -51.22,-4.9 -50.26,-0.06 -49.29,-4.67 -48.32,2.93 -47.36,-22.07 -46.39,6.12 -45.42,0.63 -44.46,3.38 -43.49,-2.46 -42.52,5.58 -41.56,-3.62 -40.59,-0.23 -39.63,-23.31 -38.66,4.37 -37.69,1.04 -36.73,3.26 -35.76,-5.8 -34.79,0.47 -33.83,-7.24 -32.86,1.98 -31.89,-20.35 -30.93,5.01 -29.96,0.55 -28.99,5.21 -28.03,-4.95 -27.06,4.45 -26.09,-2.11 -25.13,2.71 -24.16,-23.16 -23.2,6.37 -22.23,-2.63 -21.26,1.83 -20.3,-5.14 -19.33,0.69 -18.36,-7.88 -17.4,-0.69 -16.43,-22.6 -15.46,2.92 -14.5,-4.28 -13.53,1.57 -12.56,-8.46 -11.6,0.82 -10.63,-5.13 -9.66,11.21 -8.7,-25.2 -7.73,4.2 -6.77,-3.21 -5.8,2.67 -4.83,-7.97 -3.87,0.81 -2.9,-7.86 -1.93,7.19 -0.97,-18.13 0,8.61 0.97,-0.82 1.93,2.91 2.9,-5.43 3.87,-1.92 4.83,-5.94 5.8,0.45 6.77,-17.23 7.73,0.37 8.7,-4.65 9.66,-1.15 10.63,-6.88 11.6,-0.99 12.56,-8.64 13.53,0.95 14.5,-17.28 15.46,2.61 16.43,-2.13 17.4,2.68 18.36,-7.75 19.33,1.28 20.3,-8.29 21.26,0.06 22.23,-24.25 23.2,0.7 24.16,-4.51 25.13,-0.7 26.09,-10.72 27.06,-1.8 28.03,-6.32 28.99,0.74 29.96,-23.02 30.93,-0.74 31.89,-4.9 32.86,2.02 33.83,-6.63 34.79,1.81 35.76,-4.8 36.73,2 37.69,-20.64 38.66,3.92 39.63,-0.9 40.59,6.12 41.56,6.74 42.52,2.17 43.49,-5.33 44.46,-0.03 45.42,-23.23 46.39,0.51 47.36,-4.17 48.32,0.13 49.29,-5.16 50.26,-0.14 51.22,-9.94 52.19,-0.94 53.16,-25.06 54.12,0.35 55.09,-6.85 56.06,-0.09 57.02,-7.72 57.99,-0.86 58.95,-10.08 59.92,-1.55 60.89,-21.03 61.85,0.42 62.82,-5.87 63.79,1.68 64.75,-8.98 65.72,0.24 66.69,-6.86 67.65,0.44 68.62,-23.62 69.59,-1.25 70.55,-5.36 71.52,2.17 72.49,-7.65 73.45,6.95 74.42,-5.57 75.38,0.2 76.35,-23.53 77.32,2.39 78.28,-3.75 79.25,0.94 80.22,-10.33 81.18,-1.55 82.15,-9.62 83.12,0.99 84.08,-7.16 85.05,0.94 86.02,-0.7 86.98,4.53 87.95,-8.82 88.92,2.72 89.88,-4.6 90.85,1.4 91.81,-14.81 92.78,0.37 93.75,-4.01 94.71,5.74 95.68,5.1 96.65,5.98 97.61,-4.16 98.58,1.45 99.55,-19.39 100.51,7.78 101.48,-1.38 102.45,4.34 103.41,-7.03 104.38,1.95 105.35,1.05 106.31,8.85 107.28,-18.08 108.24,4.22 109.21,5.53 110.18,10.52 111.14,0.31 112.11,9.36 113.08,5.08 114.04,11.34 115.01,-9.86 115.98,15.17 116.94,8.82 117.91,14.27 118.88,12.35 119.84,20.84 120.81,18.32 121.77,30.68 122.74,11.67 " class="primitive"/>
            </g>
          </g>
        </g>
      </g>
    </g>
  </g>
  <g class="guide ylabels" font-size="2.82" font-family="'PT Sans Caption','Helvetica Neue','Helvetica',sans-serif" fill="#6C606B" id="img-c5a059aa-75">
    <g transform="translate(16.96,181.92)" id="img-c5a059aa-76">
      <g class="primitive">
        <text text-anchor="end" dy="0.35em">0</text>
      </g>
    </g>
    <g transform="translate(16.96,160.05)" id="img-c5a059aa-77">
      <g class="primitive">
        <text text-anchor="end" dy="0.35em">10</text>
      </g>
    </g>
    <g transform="translate(16.96,138.19)" id="img-c5a059aa-78">
      <g class="primitive">
        <text text-anchor="end" dy="0.35em">20</text>
      </g>
    </g>
    <g transform="translate(16.96,116.32)" id="img-c5a059aa-79">
      <g class="primitive">
        <text text-anchor="end" dy="0.35em">30</text>
      </g>
    </g>
    <g transform="translate(16.96,94.46)" id="img-c5a059aa-80">
      <g class="primitive">
        <text text-anchor="end" dy="0.35em">40</text>
      </g>
    </g>
    <g transform="translate(16.96,72.59)" id="img-c5a059aa-81">
      <g class="primitive">
        <text text-anchor="end" dy="0.35em">50</text>
      </g>
    </g>
    <g transform="translate(16.96,50.73)" id="img-c5a059aa-82">
      <g class="primitive">
        <text text-anchor="end" dy="0.35em">60</text>
      </g>
    </g>
    <g transform="translate(16.96,28.86)" id="img-c5a059aa-83">
      <g class="primitive">
        <text text-anchor="end" dy="0.35em">70</text>
      </g>
    </g>
    <g transform="translate(16.96,7)" id="img-c5a059aa-84">
      <g class="primitive">
        <text text-anchor="end" dy="0.35em">80</text>
      </g>
    </g>
  </g>
  <g font-size="3.88" font-family="'PT Sans','Helvetica Neue','Helvetica',sans-serif" fill="#564A55" stroke="#000000" stroke-opacity="0.000" id="img-c5a059aa-85">
    <g transform="translate(8.81,92.46)" id="img-c5a059aa-86">
      <g class="primitive">
        <text text-anchor="middle" dy="0.35em" transform="rotate(-90,0, 2)">GFLOPS</text>
      </g>
    </g>
  </g>
</g>
<defs>
  <clipPath id="img-c5a059aa-27">
    <path d="M17.96,5 L273.24,5 273.24,183.92 17.96,183.92 " />
  </clipPath>
</defs>
</svg>
