<?xml version="1.0" encoding="utf-8"?>
<!DOCTYPE svg PUBLIC "-//W3C//DTD SVG 1.1//EN" "http://www.w3.org/Graphics/SVG/1.1/DTD/svg11.dtd">
<svg class="marks" width="1063" height="642" viewBox="0 0 1063 642" version="1.1" xmlns="http://www.w3.org/2000/svg" xmlns:xlink="http://www.w3.org/1999/xlink"><rect width="1063" height="642" style="fill: white;"></rect><g transform="translate(39,5)"><g class="mark-group role-frame root"><g transform="translate(0,0)"><path class="background" d="M0.5,0.5h900v600h-900Z" style="fill: none; stroke: #ddd;"></path><g><g class="mark-group role-axis"><g transform="translate(0.5,600.5)"><path class="background" d="M0,0h0v0h0Z" style="pointer-events: none; fill: none;"></path><g><g class="mark-rule role-axis-grid" style="pointer-events: none;"><line transform="translate(0,-600)" x2="0" y2="600" style="fill: none; stroke: #ddd; stroke-width: 1; opacity: 1;"></line><line transform="translate(35,-600)" x2="0" y2="600" style="fill: none; stroke: #ddd; stroke-width: 1; opacity: 1;"></line><line transform="translate(69,-600)" x2="0" y2="600" style="fill: none; stroke: #ddd; stroke-width: 1; opacity: 1;"></line><line transform="translate(104,-600)" x2="0" y2="600" style="fill: none; stroke: #ddd; stroke-width: 1; opacity: 1;"></line><line transform="translate(138,-600)" x2="0" y2="600" style="fill: none; stroke: #ddd; stroke-width: 1; opacity: 1;"></line><line transform="translate(173,-600)" x2="0" y2="600" style="fill: none; stroke: #ddd; stroke-width: 1; opacity: 1;"></line><line transform="translate(208,-600)" x2="0" y2="600" style="fill: none; stroke: #ddd; stroke-width: 1; opacity: 1;"></line><line transform="translate(242,-600)" x2="0" y2="600" style="fill: none; stroke: #ddd; stroke-width: 1; opacity: 1;"></line><line transform="translate(277,-600)" x2="0" y2="600" style="fill: none; stroke: #ddd; stroke-width: 1; opacity: 1;"></line><line transform="translate(312,-600)" x2="0" y2="600" style="fill: none; stroke: #ddd; stroke-width: 1; opacity: 1;"></line><line transform="translate(346,-600)" x2="0" y2="600" style="fill: none; stroke: #ddd; stroke-width: 1; opacity: 1;"></line><line transform="translate(381,-600)" x2="0" y2="600" style="fill: none; stroke: #ddd; stroke-width: 1; opacity: 1;"></line><line transform="translate(415,-600)" x2="0" y2="600" style="fill: none; stroke: #ddd; stroke-width: 1; opacity: 1;"></line><line transform="translate(450,-600)" x2="0" y2="600" style="fill: none; stroke: #ddd; stroke-width: 1; opacity: 1;"></line><line transform="translate(485,-600)" x2="0" y2="600" style="fill: none; stroke: #ddd; stroke-width: 1; opacity: 1;"></line><line transform="translate(519,-600)" x2="0" y2="600" style="fill: none; stroke: #ddd; stroke-width: 1; opacity: 1;"></line><line transform="translate(554,-600)" x2="0" y2="600" style="fill: none; stroke: #ddd; stroke-width: 1; opacity: 1;"></line><line transform="translate(588,-600)" x2="0" y2="600" style="fill: none; stroke: #ddd; stroke-width: 1; opacity: 1;"></line><line transform="translate(623,-600)" x2="0" y2="600" style="fill: none; stroke: #ddd; stroke-width: 1; opacity: 1;"></line><line transform="translate(658,-600)" x2="0" y2="600" style="fill: none; stroke: #ddd; stroke-width: 1; opacity: 1;"></line><line transform="translate(692,-600)" x2="0" y2="600" style="fill: none; stroke: #ddd; stroke-width: 1; opacity: 1;"></line><line transform="translate(727,-600)" x2="0" y2="600" style="fill: none; stroke: #ddd; stroke-width: 1; opacity: 1;"></line><line transform="translate(762,-600)" x2="0" y2="600" style="fill: none; stroke: #ddd; stroke-width: 1; opacity: 1;"></line><line transform="translate(796,-600)" x2="0" y2="600" style="fill: none; stroke: #ddd; stroke-width: 1; opacity: 1;"></line><line transform="translate(831,-600)" x2="0" y2="600" style="fill: none; stroke: #ddd; stroke-width: 1; opacity: 1;"></line><line transform="translate(865,-600)" x2="0" y2="600" style="fill: none; stroke: #ddd; stroke-width: 1; opacity: 1;"></line><line transform="translate(900,-600)" x2="0" y2="600" style="fill: none; stroke: #ddd; stroke-width: 1; opacity: 1;"></line></g></g><path class="foreground" d="" style="pointer-events: none; display: none; fill: none;"></path></g></g><g class="mark-group role-axis"><g transform="translate(0.5,0.5)"><path class="background" d="M0,0h0v0h0Z" style="pointer-events: none; fill: none;"></path><g><g class="mark-rule role-axis-grid" style="pointer-events: none;"><line transform="translate(0,600)" x2="900" y2="0" style="fill: none; stroke: #ddd; stroke-width: 1; opacity: 1;"></line><line transform="translate(0,566)" x2="900" y2="0" style="fill: none; stroke: #ddd; stroke-width: 1; opacity: 1;"></line><line transform="translate(0,531)" x2="900" y2="0" style="fill: none; stroke: #ddd; stroke-width: 1; opacity: 1;"></line><line transform="translate(0,497)" x2="900" y2="0" style="fill: none; stroke: #ddd; stroke-width: 1; opacity: 1;"></line><line transform="translate(0,463)" x2="900" y2="0" style="fill: none; stroke: #ddd; stroke-width: 1; opacity: 1;"></line><line transform="translate(0,429)" x2="900" y2="0" style="fill: none; stroke: #ddd; stroke-width: 1; opacity: 1;"></line><line transform="translate(0,394)" x2="900" y2="0" style="fill: none; stroke: #ddd; stroke-width: 1; opacity: 1;"></line><line transform="translate(0,360)" x2="900" y2="0" style="fill: none; stroke: #ddd; stroke-width: 1; opacity: 1;"></line><line transform="translate(0,326)" x2="900" y2="0" style="fill: none; stroke: #ddd; stroke-width: 1; opacity: 1;"></line><line transform="translate(0,291)" x2="900" y2="0" style="fill: none; stroke: #ddd; stroke-width: 1; opacity: 1;"></line><line transform="translate(0,257)" x2="900" y2="0" style="fill: none; stroke: #ddd; stroke-width: 1; opacity: 1;"></line><line transform="translate(0,223)" x2="900" y2="0" style="fill: none; stroke: #ddd; stroke-width: 1; opacity: 1;"></line><line transform="translate(0,189)" x2="900" y2="0" style="fill: none; stroke: #ddd; stroke-width: 1; opacity: 1;"></line><line transform="translate(0,154)" x2="900" y2="0" style="fill: none; stroke: #ddd; stroke-width: 1; opacity: 1;"></line><line transform="translate(0,120)" x2="900" y2="0" style="fill: none; stroke: #ddd; stroke-width: 1; opacity: 1;"></line><line transform="translate(0,86)" x2="900" y2="0" style="fill: none; stroke: #ddd; stroke-width: 1; opacity: 1;"></line><line transform="translate(0,51)" x2="900" y2="0" style="fill: none; stroke: #ddd; stroke-width: 1; opacity: 1;"></line><line transform="translate(0,17)" x2="900" y2="0" style="fill: none; stroke: #ddd; stroke-width: 1; opacity: 1;"></line></g></g><path class="foreground" d="" style="pointer-events: none; display: none; fill: none;"></path></g></g><g class="mark-group role-axis"><g transform="translate(0.5,600.5)"><path class="background" d="M0,0h0v0h0Z" style="pointer-events: none; fill: none;"></path><g><g class="mark-rule role-axis-tick" style="pointer-events: none;"><line transform="translate(0,0)" x2="0" y2="5" style="fill: none; stroke: #888; stroke-width: 1; opacity: 1;"></line><line transform="translate(35,0)" x2="0" y2="5" style="fill: none; stroke: #888; stroke-width: 1; opacity: 1;"></line><line transform="translate(69,0)" x2="0" y2="5" style="fill: none; stroke: #888; stroke-width: 1; opacity: 1;"></line><line transform="translate(104,0)" x2="0" y2="5" style="fill: none; stroke: #888; stroke-width: 1; opacity: 1;"></line><line transform="translate(138,0)" x2="0" y2="5" style="fill: none; stroke: #888; stroke-width: 1; opacity: 1;"></line><line transform="translate(173,0)" x2="0" y2="5" style="fill: none; stroke: #888; stroke-width: 1; opacity: 1;"></line><line transform="translate(208,0)" x2="0" y2="5" style="fill: none; stroke: #888; stroke-width: 1; opacity: 1;"></line><line transform="translate(242,0)" x2="0" y2="5" style="fill: none; stroke: #888; stroke-width: 1; opacity: 1;"></line><line transform="translate(277,0)" x2="0" y2="5" style="fill: none; stroke: #888; stroke-width: 1; opacity: 1;"></line><line transform="translate(312,0)" x2="0" y2="5" style="fill: none; stroke: #888; stroke-width: 1; opacity: 1;"></line><line transform="translate(346,0)" x2="0" y2="5" style="fill: none; stroke: #888; stroke-width: 1; opacity: 1;"></line><line transform="translate(381,0)" x2="0" y2="5" style="fill: none; stroke: #888; stroke-width: 1; opacity: 1;"></line><line transform="translate(415,0)" x2="0" y2="5" style="fill: none; stroke: #888; stroke-width: 1; opacity: 1;"></line><line transform="translate(450,0)" x2="0" y2="5" style="fill: none; stroke: #888; stroke-width: 1; opacity: 1;"></line><line transform="translate(485,0)" x2="0" y2="5" style="fill: none; stroke: #888; stroke-width: 1; opacity: 1;"></line><line transform="translate(519,0)" x2="0" y2="5" style="fill: none; stroke: #888; stroke-width: 1; opacity: 1;"></line><line transform="translate(554,0)" x2="0" y2="5" style="fill: none; stroke: #888; stroke-width: 1; opacity: 1;"></line><line transform="translate(588,0)" x2="0" y2="5" style="fill: none; stroke: #888; stroke-width: 1; opacity: 1;"></line><line transform="translate(623,0)" x2="0" y2="5" style="fill: none; stroke: #888; stroke-width: 1; opacity: 1;"></line><line transform="translate(658,0)" x2="0" y2="5" style="fill: none; stroke: #888; stroke-width: 1; opacity: 1;"></line><line transform="translate(692,0)" x2="0" y2="5" style="fill: none; stroke: #888; stroke-width: 1; opacity: 1;"></line><line transform="translate(727,0)" x2="0" y2="5" style="fill: none; stroke: #888; stroke-width: 1; opacity: 1;"></line><line transform="translate(762,0)" x2="0" y2="5" style="fill: none; stroke: #888; stroke-width: 1; opacity: 1;"></line><line transform="translate(796,0)" x2="0" y2="5" style="fill: none; stroke: #888; stroke-width: 1; opacity: 1;"></line><line transform="translate(831,0)" x2="0" y2="5" style="fill: none; stroke: #888; stroke-width: 1; opacity: 1;"></line><line transform="translate(865,0)" x2="0" y2="5" style="fill: none; stroke: #888; stroke-width: 1; opacity: 1;"></line><line transform="translate(900,0)" x2="0" y2="5" style="fill: none; stroke: #888; stroke-width: 1; opacity: 1;"></line></g><g class="mark-text role-axis-label" style="pointer-events: none;"><text text-anchor="start" transform="translate(0,15)" style="font-family: sans-serif; font-size: 10px; fill: #000; opacity: 1;">0</text><text text-anchor="middle" transform="translate(34.61538461538462,15)" style="font-family: sans-serif; font-size: 10px; fill: #000; opacity: 1;">10</text><text text-anchor="middle" transform="translate(69.23076923076924,15)" style="font-family: sans-serif; font-size: 10px; fill: #000; opacity: 1;">20</text><text text-anchor="middle" transform="translate(103.84615384615385,15)" style="font-family: sans-serif; font-size: 10px; fill: #000; opacity: 1;">30</text><text text-anchor="middle" transform="translate(138.46153846153848,15)" style="font-family: sans-serif; font-size: 10px; fill: #000; opacity: 1;">40</text><text text-anchor="middle" transform="translate(173.0769230769231,15)" style="font-family: sans-serif; font-size: 10px; fill: #000; opacity: 1;">50</text><text text-anchor="middle" transform="translate(207.6923076923077,15)" style="font-family: sans-serif; font-size: 10px; fill: #000; opacity: 1;">60</text><text text-anchor="middle" transform="translate(242.3076923076923,15)" style="font-family: sans-serif; font-size: 10px; fill: #000; opacity: 1;">70</text><text text-anchor="middle" transform="translate(276.92307692307696,15)" style="font-family: sans-serif; font-size: 10px; fill: #000; opacity: 1;">80</text><text text-anchor="middle" transform="translate(311.53846153846155,15)" style="font-family: sans-serif; font-size: 10px; fill: #000; opacity: 1;">90</text><text text-anchor="middle" transform="translate(346.1538461538462,15)" style="font-family: sans-serif; font-size: 10px; fill: #000; opacity: 1;">100</text><text text-anchor="middle" transform="translate(380.7692307692308,15)" style="font-family: sans-serif; font-size: 10px; fill: #000; opacity: 1;">110</text><text text-anchor="middle" transform="translate(415.3846153846154,15)" style="font-family: sans-serif; font-size: 10px; fill: #000; opacity: 1;">120</text><text text-anchor="middle" transform="translate(450,15)" style="font-family: sans-serif; font-size: 10px; fill: #000; opacity: 1;">130</text><text text-anchor="middle" transform="translate(484.6153846153846,15)" style="font-family: sans-serif; font-size: 10px; fill: #000; opacity: 1;">140</text><text text-anchor="middle" transform="translate(519.2307692307692,15)" style="font-family: sans-serif; font-size: 10px; fill: #000; opacity: 1;">150</text><text text-anchor="middle" transform="translate(553.8461538461539,15)" style="font-family: sans-serif; font-size: 10px; fill: #000; opacity: 1;">160</text><text text-anchor="middle" transform="translate(588.4615384615385,15)" style="font-family: sans-serif; font-size: 10px; fill: #000; opacity: 1;">170</text><text text-anchor="middle" transform="translate(623.0769230769231,15)" style="font-family: sans-serif; font-size: 10px; fill: #000; opacity: 1;">180</text><text text-anchor="middle" transform="translate(657.6923076923076,15)" style="font-family: sans-serif; font-size: 10px; fill: #000; opacity: 1;">190</text><text text-anchor="middle" transform="translate(692.3076923076924,15)" style="font-family: sans-serif; font-size: 10px; fill: #000; opacity: 1;">200</text><text text-anchor="middle" transform="translate(726.9230769230769,15)" style="font-family: sans-serif; font-size: 10px; fill: #000; opacity: 1;">210</text><text text-anchor="middle" transform="translate(761.5384615384615,15)" style="font-family: sans-serif; font-size: 10px; fill: #000; opacity: 1;">220</text><text text-anchor="middle" transform="translate(796.1538461538461,15)" style="font-family: sans-serif; font-size: 10px; fill: #000; opacity: 1;">230</text><text text-anchor="middle" transform="translate(830.7692307692308,15)" style="font-family: sans-serif; font-size: 10px; fill: #000; opacity: 1;">240</text><text text-anchor="middle" transform="translate(865.3846153846154,15)" style="font-family: sans-serif; font-size: 10px; fill: #000; opacity: 1;">250</text><text text-anchor="end" transform="translate(900,15)" style="font-family: sans-serif; font-size: 10px; fill: #000; opacity: 1;">260</text></g><g class="mark-rule role-axis-domain" style="pointer-events: none;"><line transform="translate(0,0)" x2="900" y2="0" style="fill: none; stroke: #888; stroke-width: 1; opacity: 1;"></line></g><g class="mark-text role-axis-title" style="pointer-events: none;"><text text-anchor="middle" transform="translate(450,30)" style="font-family: sans-serif; font-size: 11px; font-weight: bold; fill: #000; opacity: 1;">Size</text></g></g><path class="foreground" d="" style="pointer-events: none; display: none; fill: none;"></path></g></g><g class="mark-group role-axis"><g transform="translate(0.5,0.5)"><path class="background" d="M0,0h0v0h0Z" style="pointer-events: none; fill: none;"></path><g><g class="mark-rule role-axis-tick" style="pointer-events: none;"><line transform="translate(0,600)" x2="-5" y2="0" style="fill: none; stroke: #888; stroke-width: 1; opacity: 1;"></line><line transform="translate(0,566)" x2="-5" y2="0" style="fill: none; stroke: #888; stroke-width: 1; opacity: 1;"></line><line transform="translate(0,531)" x2="-5" y2="0" style="fill: none; stroke: #888; stroke-width: 1; opacity: 1;"></line><line transform="translate(0,497)" x2="-5" y2="0" style="fill: none; stroke: #888; stroke-width: 1; opacity: 1;"></line><line transform="translate(0,463)" x2="-5" y2="0" style="fill: none; stroke: #888; stroke-width: 1; opacity: 1;"></line><line transform="translate(0,429)" x2="-5" y2="0" style="fill: none; stroke: #888; stroke-width: 1; opacity: 1;"></line><line transform="translate(0,394)" x2="-5" y2="0" style="fill: none; stroke: #888; stroke-width: 1; opacity: 1;"></line><line transform="translate(0,360)" x2="-5" y2="0" style="fill: none; stroke: #888; stroke-width: 1; opacity: 1;"></line><line transform="translate(0,326)" x2="-5" y2="0" style="fill: none; stroke: #888; stroke-width: 1; opacity: 1;"></line><line transform="translate(0,291)" x2="-5" y2="0" style="fill: none; stroke: #888; stroke-width: 1; opacity: 1;"></line><line transform="translate(0,257)" x2="-5" y2="0" style="fill: none; stroke: #888; stroke-width: 1; opacity: 1;"></line><line transform="translate(0,223)" x2="-5" y2="0" style="fill: none; stroke: #888; stroke-width: 1; opacity: 1;"></line><line transform="translate(0,189)" x2="-5" y2="0" style="fill: none; stroke: #888; stroke-width: 1; opacity: 1;"></line><line transform="translate(0,154)" x2="-5" y2="0" style="fill: none; stroke: #888; stroke-width: 1; opacity: 1;"></line><line transform="translate(0,120)" x2="-5" y2="0" style="fill: none; stroke: #888; stroke-width: 1; opacity: 1;"></line><line transform="translate(0,86)" x2="-5" y2="0" style="fill: none; stroke: #888; stroke-width: 1; opacity: 1;"></line><line transform="translate(0,51)" x2="-5" y2="0" style="fill: none; stroke: #888; stroke-width: 1; opacity: 1;"></line><line transform="translate(0,17)" x2="-5" y2="0" style="fill: none; stroke: #888; stroke-width: 1; opacity: 1;"></line></g><g class="mark-text role-axis-label" style="pointer-events: none;"><text text-anchor="end" transform="translate(-7,603)" style="font-family: sans-serif; font-size: 10px; fill: #000; opacity: 1;">0</text><text text-anchor="end" transform="translate(-7,568.7142857142857)" style="font-family: sans-serif; font-size: 10px; fill: #000; opacity: 1;">2</text><text text-anchor="end" transform="translate(-7,534.4285714285714)" style="font-family: sans-serif; font-size: 10px; fill: #000; opacity: 1;">4</text><text text-anchor="end" transform="translate(-7,500.1428571428571)" style="font-family: sans-serif; font-size: 10px; fill: #000; opacity: 1;">6</text><text text-anchor="end" transform="translate(-7,465.8571428571429)" style="font-family: sans-serif; font-size: 10px; fill: #000; opacity: 1;">8</text><text text-anchor="end" transform="translate(-7,431.57142857142856)" style="font-family: sans-serif; font-size: 10px; fill: #000; opacity: 1;">10</text><text text-anchor="end" transform="translate(-7,397.2857142857143)" style="font-family: sans-serif; font-size: 10px; fill: #000; opacity: 1;">12</text><text text-anchor="end" transform="translate(-7,363)" style="font-family: sans-serif; font-size: 10px; fill: #000; opacity: 1;">14</text><text text-anchor="end" transform="translate(-7,328.7142857142858)" style="font-family: sans-serif; font-size: 10px; fill: #000; opacity: 1;">16</text><text text-anchor="end" transform="translate(-7,294.42857142857144)" style="font-family: sans-serif; font-size: 10px; fill: #000; opacity: 1;">18</text><text text-anchor="end" transform="translate(-7,260.14285714285717)" style="font-family: sans-serif; font-size: 10px; fill: #000; opacity: 1;">20</text><text text-anchor="end" transform="translate(-7,225.85714285714286)" style="font-family: sans-serif; font-size: 10px; fill: #000; opacity: 1;">22</text><text text-anchor="end" transform="translate(-7,191.57142857142856)" style="font-family: sans-serif; font-size: 10px; fill: #000; opacity: 1;">24</text><text text-anchor="end" transform="translate(-7,157.28571428571428)" style="font-family: sans-serif; font-size: 10px; fill: #000; opacity: 1;">26</text><text text-anchor="end" transform="translate(-7,122.99999999999997)" style="font-family: sans-serif; font-size: 10px; fill: #000; opacity: 1;">28</text><text text-anchor="end" transform="translate(-7,88.71428571428574)" style="font-family: sans-serif; font-size: 10px; fill: #000; opacity: 1;">30</text><text text-anchor="end" transform="translate(-7,54.428571428571445)" style="font-family: sans-serif; font-size: 10px; fill: #000; opacity: 1;">32</text><text text-anchor="end" transform="translate(-7,20.14285714285715)" style="font-family: sans-serif; font-size: 10px; fill: #000; opacity: 1;">34</text></g><g class="mark-rule role-axis-domain" style="pointer-events: none;"><line transform="translate(0,600)" x2="0" y2="-600" style="fill: none; stroke: #888; stroke-width: 1; opacity: 1;"></line></g><g class="mark-text role-axis-title" style="pointer-events: none;"><text text-anchor="middle" transform="translate(-23,300) rotate(-90) translate(0,-2)" style="font-family: sans-serif; font-size: 11px; font-weight: bold; fill: #000; opacity: 1;">GFLOPS</text></g></g><path class="foreground" d="" style="pointer-events: none; display: none; fill: none;"></path></g></g><g class="mark-group role-scope pathgroup"><g transform="translate(0,0)"><path class="background" d="M0,0h900v600h-900Z" style="fill: none;"></path><g><g class="mark-line role-mark marks"><path d="M6.923076923076923,574.1695286319219L10.384615384615385,570.1209626206366L13.846153846153847,567.2374394673124L17.30769230769231,567.2565765015148L20.76923076923077,569.2399376512102L24.230769230769234,564.7881246224216L27.692307692307693,568.2458700507124L31.153846153846157,571.0069775982373L34.61538461538462,566.820760795451L38.07692307692308,566.4099284217402L41.53846153846154,565.953501309659L45,565.747667729725L48.46153846153847,565.5467760419808L51.92307692307693,566.9765166340509L55.38461538461539,565.4532090671214L58.84615384615385,565.0334110948559L62.307692307692314,564.8011550227513L65.76923076923077,564.5917718644992L69.23076923076924,564.7567579240608L72.6923076923077,564.411214953271L76.15384615384616,566.3350267653176L79.61538461538461,564.5747300003283L83.07692307692308,564.5656041735774L86.53846153846155,564.9657901244744L90,564.4276299101903L93.46153846153847,564.906103840327L96.92307692307693,564.7037014150652L100.38461538461539,564.1480020228447L103.84615384615385,564.8162964169537L107.3076923076923,564.2890842023771L110.76923076923077,564.1361786873143L114.23076923076923,564.3982671032741L117.6923076923077,563.9880888753149L121.15384615384615,563.8151226434219L124.61538461538463,564.1862859310232L128.07692307692307,563.7929290964956L131.53846153846155,564.0905489254325L135,565.8134461558802L138.46153846153848,564.1456582633053L141.9230769230769,565.3002246372413L145.3846153846154,564.2279590842669L148.84615384615384,565.3271070991939L152.30769230769232,564.0610411946166L155.76923076923077,567.077106993425L159.23076923076923,563.7214462205637L162.69230769230768,563.6126094118407L166.15384615384616,563.6621155660013L169.6153846153846,563.4381858083394L173.0769230769231,563.6368821834983L176.53846153846155,563.7196326862722L180,563.668840150168L183.46153846153845,563.7135258358662L186.92307692307693,563.6275588817962L190.3846153846154,564.1418983700863L193.84615384615387,565.0374904361132L197.3076923076923,563.5096566759894L200.76923076923077,563.4150944402091L204.23076923076923,563.520340280382L207.6923076923077,563.5473799679352L211.15384615384616,563.3807545913716L214.6153846153846,563.5974709634293L218.07692307692307,564.8745824476161L221.53846153846155,565.2683689204973L225,563.4188266352027L228.46153846153845,563.6121518862941L231.9230769230769,563.2903202530275L235.3846153846154,564.7971339005821L238.84615384615384,564.8451548451549L242.3076923076923,563.688145247419L245.76923076923075,563.3139860514065L249.23076923076925,563.5995153651284L252.6923076923077,565.2007067952214L256.15384615384613,563.2957782574839L259.6153846153846,563.191896122559L263.0769230769231,563.3037991634926L266.53846153846155,563.2584843072212L270,563.3174422556858L273.46153846153845,563.3379215020013L276.92307692307696,563.3120331810288L280.3846153846154,563.2302675497998L283.8461538461538,563.4770522750691L287.30769230769226,563.6597866167428L290.7692307692308,563.5978686115881L294.2307692307692,563.5070292112131L297.6923076923077,563.4924506387921L301.15384615384613,563.3626844529231L304.61538461538464,563.4735561916476L308.0769230769231,563.1797984769561L311.53846153846155,564.8855124050364L315,563.6466069142125L318.46153846153845,563.1331336247115L321.9230769230769,563.3793064800344L325.38461538461536,563.2076060932023L328.8461538461538,563.1291830383427L332.3076923076923,563.3742112573711L335.7692307692308,563.1345599815619L339.2307692307692,565.134721028439L342.6923076923077,563.2787186329734L346.1538461538462,563.3989461049481L349.61538461538464,563.5870453420029L353.0769230769231,563.6055352641597L356.53846153846155,563.2597476674861L360,563.1872533889468L363.46153846153845,563.3929588697733L366.9230769230769,563.2851040109946L370.38461538461536,563.0088391857369L373.84615384615387,563.2623682044932L377.3076923076923,563.1864369708586L380.7692307692308,565.0582574709845L384.2307692307692,563.1946675491607L387.69230769230774,563.2177246521175L391.1538461538462,563.499966370729L394.6153846153846,563.0867936192342L398.07692307692304,563.4168665615326L401.53846153846155,563.2205395077624L405,563.37612262884L408.46153846153845,563.132227060633L411.9230769230769,563.3123533176872L415.3846153846154,563.0319908687406L418.84615384615387,563.0985348207105L422.3076923076923,563.1179608772969L425.7692307692308,563.0852588192798L429.2307692307692,563.340158761325L432.6923076923077,563.2397036572314L436.15384615384613,563.1457452147107L439.6153846153846,563.0940584897386L443.0769230769231,563.1860777618681L446.53846153846155,563.0211681766044L450,563.2350510428786L453.46153846153845,563.0244222902643L456.9230769230769,563.2654655716053L460.38461538461536,563.4020318479025L463.8461538461538,563.1888331147591L467.3076923076923,563.2228273879591L470.7692307692308,565.0216877209214L474.2307692307692,563.3954168698197L477.6923076923077,565.0725883304864L481.15384615384613,563.2880754453371L484.6153846153846,563.3117091656496L488.07692307692304,563.4078489009428L491.5384615384615,563.2580174927114L495.00000000000006,563.0741695088088L498.4615384615385,563.2188897178124L501.92307692307696,563.2821829855537L505.3846153846154,563.0569099060294L508.8461538461538,562.9658031697492L512.3076923076923,563.0034923173985L515.7692307692307,563.1271473186808L519.2307692307692,563.2846408214001L522.6923076923077,563.037481395188L526.1538461538462,562.9807859212476L529.6153846153846,563.0615504687854L533.0769230769231,563.2060646068014L536.5384615384615,563.0983501888338L540,563.2610055050651L543.4615384615385,563.0664751092935L546.9230769230769,563.2473548648763L550.3846153846155,563.1210357782853L553.8461538461539,562.9886075725094L557.3076923076924,563.0278143491305L560.7692307692308,563.0626319493315L564.2307692307692,563.1972578946546L567.6923076923076,563.2201561746921L571.1538461538461,565.0219419784561L574.6153846153845,562.9712704816797L578.0769230769231,563.2026502265007L581.5384615384615,563.2539168427589L585,563.220353640977L588.4615384615385,562.9833570772448L591.9230769230769,563.1850675580182L595.3846153846154,562.9862067696611L598.8461538461538,563.1536150158809L602.3076923076923,563.1230427246527L605.7692307692308,563.2142312495621L609.2307692307693,563.0216962339982L612.6923076923077,562.9159563517529L616.1538461538462,564.9404911070249L619.6153846153846,563.3048703671891L623.0769230769231,563.0948798165911L626.5384615384615,563.0719399536192L630,562.9473878147923L633.4615384615385,563.0521965853429L636.9230769230769,563.3394304908123L640.3846153846154,563.1282402539551L643.8461538461538,562.9588676438866L647.3076923076923,563.3653066946857L650.7692307692307,563.023354207619L654.2307692307692,563.0840263125233L657.6923076923076,563.0229181185894L661.1538461538462,563.0886754749116L664.6153846153846,563.2796951927824L668.0769230769231,562.985010938201L671.5384615384615,562.9377383446451L675,564.9714202625778L678.4615384615385,562.9649183744356L681.9230769230769,563.0709080121352L685.3846153846154,563.1027304736807L688.8461538461538,563.2669508210437L692.3076923076924,563.3989461049481L695.7692307692308,562.976454765244L699.2307692307693,563.0640618094493L702.6923076923077,563.0842152827515L706.1538461538462,563.1923270523691L709.6153846153846,563.3842110186058L713.0769230769231,563.1729885289732L716.5384615384615,565.2031040635143L720,565.2482119822781L723.4615384615385,565.2785474455883L726.9230769230769,564.9268353919124L730.3846153846154,564.8629923940546L733.8461538461538,564.7662625878338L737.3076923076923,564.8091843958957L740.7692307692307,563.4414067162209L744.2307692307692,564.8859731566616L747.6923076923077,564.8729027336385L751.1538461538462,565.0294329006315L754.6153846153846,565.0727266046002L758.0769230769231,563.2765405936157L761.5384615384615,564.8617956371202L765,564.9407672199422L768.4615384615385,564.818441496727L771.9230769230769,562.9092943245427L775.3846153846155,562.9484694381732L778.8461538461539,564.9595495279082L782.3076923076924,563.1264458607111L785.7692307692308,562.8905105984588L789.2307692307692,563.2288029836556L792.6923076923076,563.2714918114171L796.1538461538461,563.1421460522689L799.6153846153845,562.9846639420548L803.0769230769231,563.0051546374385L806.5384615384615,562.9760612122639L810,563.0443194600675L813.4615384615385,562.9570079150259L816.9230769230769,563.5032789918384L820.3846153846154,563.4942497389142L823.8461538461538,563.0836939384791L827.3076923076923,562.966780431514L830.7692307692308,562.9521964027965L834.2307692307693,563.4904967944668L837.6923076923077,562.8249310458134L841.1538461538462,563.4046395252506L844.6153846153846,563.7179923787537L848.0769230769231,563.0460545911998L851.5384615384615,563.5081122879702L855,562.9834220293478L858.4615384615385,563.1611362050862L861.9230769230769,562.8156845428575L865.3846153846154,563.440619106592L868.8461538461538,563.1136498854423L872.3076923076923,563.3469064406243L875.7692307692307,563.5912656975952L879.2307692307692,563.5612621432336L882.6923076923076,563.5818597573112L886.1538461538462,565.0072135266712" style="fill: none; stroke: #ff7f0e; stroke-width: 2;"></path></g></g><path class="foreground" d="" style="display: none; fill: none;"></path></g><g transform="translate(0,0)"><path class="background" d="M0,0h900v600h-900Z" style="fill: none;"></path><g><g class="mark-line role-mark marks"><path d="M6.923076923076923,566.1642662969722L10.384615384615385,561.9796736755002L13.846153846153847,562.3858417164262L17.30769230769231,560.6301296107536L20.76923076923077,564.7371916456176L24.230769230769234,558.9254418237522L27.692307692307693,563.5304623445041L31.153846153846157,563.5594785547509L34.61538461538462,561.1372436336043L38.07692307692308,560.7228384101027L41.53846153846154,560.4022322271048L45,560.1332130715326L48.46153846153847,560.002800924305L51.92307692307693,559.4812898897433L55.38461538461539,559.3938310097892L58.84615384615385,559.1437657367696L62.307692307692314,559.2106309740946L65.76923076923077,558.7554371838032L69.23076923076924,558.7536225372363L72.6923076923077,558.6885245901639L76.15384615384616,558.5949646434731L79.61538461538461,558.2828536637223L83.07692307692308,558.2059398897386L86.53846153846155,558.1569361031801L90,558.1513064060936L93.46153846153847,558.5096321508781L96.92307692307693,558.3129086209518L100.38461538461539,557.9254221215825L103.84615384615385,558.2971802897392L107.3076923076923,557.7607901268615L110.76923076923077,557.6915209267942L114.23076923076923,558.0661692880502L117.6923076923077,557.7048518789205L121.15384615384615,557.5925559295189L124.61538461538463,557.6199025391126L128.07692307692307,557.5929300291546L131.53846153846155,557.5226751647464L135,557.4930133157981L138.46153846153848,557.7065111758989L141.9230769230769,557.448846645407L145.3846153846154,557.636588380717L148.84615384615384,557.3355955208687L152.30769230769232,557.5050301810866L155.76923076923077,557.5314581791266L159.23076923076923,557.456857044301L162.69230769230768,557.1992743643565L166.15384615384616,557.1942223274622L169.6153846153846,557.1984340592121L173.0769230769231,557.428337701798L176.53846153846155,557.3315105946685L180,557.1260687082232L183.46153846153845,557.2766109731821L186.92307692307693,557.1627324183025L190.3846153846154,557.3934837092731L193.84615384615387,557.0223371737598L197.3076923076923,557.1947817101524L200.76923076923077,557.0918367346939L204.23076923076923,557.017928262738L207.6923076923077,556.9653038622233L211.15384615384616,557.0923232585876L214.6153846153846,557.1261269634724L218.07692307692307,556.9863523111823L221.53846153846155,556.8893268600733L225,556.9344998675907L228.46153846153845,556.9936019668387L231.9230769230769,556.8357246554423L235.3846153846154,556.844753913863L238.84615384615384,556.8579512897164L242.3076923076923,556.8031943856253L245.76923076923075,556.8637452338307L249.23076923076925,556.9998942822988L252.6923076923077,556.8124900683299L256.15384615384613,556.9314282629985L259.6153846153846,556.7379469469621L263.0769230769231,556.824289415153L266.53846153846155,556.8342951360264L270,556.8222426317108L273.46153846153845,556.7188036483423L276.92307692307696,556.7081480597252L280.3846153846154,556.790516437078L283.8461538461538,556.980840941237L287.30769230769226,556.7055242695716L290.7692307692308,556.6871682534334L294.2307692307692,556.7431294976697L297.6923076923077,556.7239747362624L301.15384615384613,556.6431547853043L304.61538461538464,556.6994847056244L308.0769230769231,556.7171223391575L311.53846153846155,556.875088081928L315,556.766808190466L318.46153846153845,556.6234405695595L321.9230769230769,556.6324441374767L325.38461538461536,556.6465838823028L328.8461538461538,556.6326530612245L332.3076923076923,556.7287097538914L335.7692307692308,556.6652217496139L339.2307692307692,556.6434823019131L342.6923076923077,556.5992307091194L346.1538461538462,556.6261986264963L349.61538461538464,556.6732805196698L353.0769230769231,556.8235523874622L356.53846153846155,556.6439158855476L360,556.6216001022304L363.46153846153845,556.6349943313718L366.9230769230769,556.6986494681182L370.38461538461536,556.5268310842253L373.84615384615387,556.5838652113463L377.3076923076923,556.5770039737282L380.7692307692308,556.5284007755993L384.2307692307692,556.5223167257386L387.69230769230774,556.5797631632083L391.1538461538462,556.587787671678L394.6153846153846,556.6881386667537L398.07692307692304,556.5245416617652L401.53846153846155,556.5623645058281L405,556.6085587804337L408.46153846153845,556.6079448589393L411.9230769230769,556.5463868678466L415.3846153846154,556.5248277331818L418.84615384615387,556.5458574178314L422.3076923076923,556.6111886732866L425.7692307692308,556.5562149501137L429.2307692307692,556.6105146088491L432.6923076923077,556.5274909918141L436.15384615384613,556.590857914884L439.6153846153846,556.5296270362395L443.0769230769231,556.4798866663715L446.53846153846155,556.467394440519L450,556.5994055644305L453.46153846153845,556.4612797795234L456.9230769230769,556.5148200889646L460.38461538461536,556.4906061680255L463.8461538461538,556.6203147759975L467.3076923076923,556.4584470308265L470.7692307692308,556.4729212017179L474.2307692307692,556.4566952415828L477.6923076923077,556.5737178269063L481.15384615384613,556.43329674666L484.6153846153846,556.4862991262216L488.07692307692304,556.5104790499423L491.5384615384615,556.5183896357589L495.00000000000006,556.4808682970187L498.4615384615385,556.4036615555221L501.92307692307696,556.436244930461L505.3846153846154,556.4857703238202L508.8461538461538,556.4194267207374L512.3076923076923,556.4575661577769L515.7692307692307,556.497436818562L519.2307692307692,556.5579511253288L522.6923076923077,556.4399825812524L526.1538461538462,556.4266900871334L529.6153846153846,556.4595302070331L533.0769230769231,556.4409151068255L536.5384615384615,556.3900876451484L540,556.4457140049761L543.4615384615385,556.4838839488544L546.9230769230769,556.4977884383761L550.3846153846155,556.4242960900085L553.8461538461539,556.4216413146605L557.3076923076924,556.4526226588036L560.7692307692308,556.5126458946431L564.2307692307692,556.404674768956L567.6923076923076,556.4277097956938L571.1538461538461,556.4646529573057L574.6153846153845,556.4708506012006L578.0769230769231,556.3981232976865L581.5384615384615,556.4687141110658L585,556.4059904648177L588.4615384615385,556.4507944058817L591.9230769230769,556.4283157760952L595.3846153846154,556.3499705992757L598.8461538461538,556.3848099095624L602.3076923076923,556.4696786343316L605.7692307692308,556.4006741408368L609.2307692307693,556.392635107112L612.6923076923077,556.3759450228116L616.1538461538462,556.3599536021152L619.6153846153846,556.3833857713391L623.0769230769231,556.3689364994283L626.5384615384615,556.36310214827L630,556.4620401315167L633.4615384615385,556.4124200966846L636.9230769230769,556.3849097591473L640.3846153846154,556.4655126723836L643.8461538461538,556.4144074375312L647.3076923076923,556.3722362170919L650.7692307692307,556.4465873623284L654.2307692307692,556.3710887404341L657.6923076923076,556.5721456464231L661.1538461538462,556.3430364138297L664.6153846153846,556.4332060361129L668.0769230769231,556.3772951474681L671.5384615384615,556.4209002750036L675,556.3556141699235L678.4615384615385,556.3532590262103L681.9230769230769,556.3680673241463L685.3846153846154,556.5533493771696L688.8461538461538,556.3444713796126L692.3076923076924,556.3718253953402L695.7692307692308,556.3625100466035L699.2307692307693,556.4289613896643L702.6923076923077,556.3345622723009L706.1538461538462,556.3175188603618L709.6153846153846,556.3468442848538L713.0769230769231,556.4094925905225L716.5384615384615,556.3678891636459L720,556.3546163683244L723.4615384615385,556.3298533158671L726.9230769230769,556.5117349286701L730.3846153846154,556.33225489588L733.8461538461538,556.2911603853458L737.3076923076923,556.3248466224376L740.7692307692307,556.342673959723L744.2307692307692,556.4885168609939L747.6923076923077,556.3624559799625L751.1538461538462,556.3914734594265L754.6153846153846,556.3917435348211L758.0769230769231,556.344833217399L761.5384615384615,556.3465044840154L765,556.3309560625664L768.4615384615385,556.3810345231516L771.9230769230769,556.32001426044L775.3846153846155,556.3451376574059L778.8461538461539,556.3388838227479L782.3076923076924,556.5101625812656L785.7692307692308,556.3204687110447L789.2307692307692,556.5037228079976L792.6923076923076,556.3718624073693L796.1538461538461,556.4912908801285L799.6153846153845,556.3234067412449L803.0769230769231,556.4028799259253L806.5384615384615,556.3328087992402L810,556.4346556339742L813.4615384615385,556.3117413334305L816.9230769230769,556.4852169403803L820.3846153846154,556.3266514894935L823.8461538461538,556.3724010708896L827.3076923076923,556.3603557178734L830.7692307692308,556.452306892939L834.2307692307693,556.471464317033L837.6923076923077,556.4751563090872L841.1538461538462,556.4031067230297L844.6153846153846,556.4386356299989L848.0769230769231,556.334853488494L851.5384615384615,556.4928756625047L855,556.3168965564442L858.4615384615385,556.4163857618057L861.9230769230769,556.3620442851864L865.3846153846154,556.462025666575L868.8461538461538,556.3697876778177L872.3076923076923,556.4261025983933L875.7692307692307,556.4094531717878L879.2307692307692,556.5347521810622L882.6923076923076,556.4248331574792L886.1538461538462,556.4437598470603" style="fill: none; stroke: #1f77b4; stroke-width: 2;"></path></g></g><path class="foreground" d="" style="display: none; fill: none;"></path></g><g transform="translate(0,0)"><path class="background" d="M0,0h900v600h-900Z" style="fill: none;"></path><g><g class="mark-line role-mark marks"><path d="M6.923076923076923,573.2943688883894L10.384615384615385,566.2116297904538L13.846153846153847,562.2895346269776L17.30769230769231,560.2213682426542L20.76923076923077,558.9568243665913L24.230769230769234,558.29980532122L27.692307692307693,557.7108699813018L31.153846153846157,559.9281243973844L34.61538461538462,558.7336907049661L38.07692307692308,558.2236677508131L41.53846153846154,558.055258085243L45,557.8867647957003L48.46153846153847,557.4936746539663L51.92307692307693,557.429443243895L55.38461538461539,557.165002993791L58.84615384615385,557.1798987529324L62.307692307692314,556.9457029949481L65.76923076923077,556.9201770521212L69.23076923076924,556.8768606542457L72.6923076923077,556.7870885792207L76.15384615384616,556.7443006642608L79.61538461538461,556.7269318871017L83.07692307692308,556.6385903408828L86.53846153846155,556.5706110770489L90,556.4751925261962L93.46153846153847,556.6918081481697L96.92307692307693,556.6657183499289L100.38461538461539,556.3933051202868L103.84615384615385,556.5680221417927L107.3076923076923,556.3384171328796L110.76923076923077,556.3108867240276L114.23076923076923,556.4566489283509L117.6923076923077,556.2222820386683L121.15384615384615,556.3017666979476L124.61538461538463,556.2620904147964L128.07692307692307,556.2009315747378L131.53846153846155,556.2599670363936L135,556.2123029593147L138.46153846153848,556.2255243817392L141.9230769230769,556.1107840376789L145.3846153846154,556.1888529060849L148.84615384615384,556.1445895197014L152.30769230769232,556.1645781768539L155.76923076923077,556.1264696198901L159.23076923076923,556.0906538633682L162.69230769230768,556.0689426582699L166.15384615384616,556.0395817355356L169.6153846153846,556.0090531874764L173.0769230769231,556.0519104493046L176.53846153846155,556.1440804046682L180,555.978835978836L183.46153846153845,556.044734904271L186.92307692307693,556.0005325522567L190.3846153846154,556.1276287164612L193.84615384615387,555.9492938738131L197.3076923076923,556.0074604575835L200.76923076923077,555.9900469435395L204.23076923076923,555.9484624975962L207.6923076923077,555.9590774434197L211.15384615384616,555.9130904465701L214.6153846153846,555.9770727955582L218.07692307692307,555.9376785646261L221.53846153846155,555.897013649175L225,555.9026676353516L228.46153846153845,555.8938622353257L231.9230769230769,555.8510104905894L235.3846153846154,555.8970474787853L238.84615384615384,555.872803849142L242.3076923076923,555.8850787766451L245.76923076923075,555.868562330757L249.23076923076925,555.900352785168L252.6923076923077,555.848674992385L256.15384615384613,555.8495308708334L259.6153846153846,555.8263078877469L263.0769230769231,555.8874334083328L266.53846153846155,555.8459612092096L270,555.8338167001762L273.46153846153845,555.8166958754837L276.92307692307696,555.826377634397L280.3846153846154,555.8374247703516L283.8461538461538,555.8527110576134L287.30769230769226,555.8165578342079L290.7692307692308,555.8056265984654L294.2307692307692,555.8135770047128L297.6923076923077,555.8092113934247L301.15384615384613,555.7800682167701L304.61538461538464,555.8126863542535L308.0769230769231,555.847027384459L311.53846153846155,555.8110926886666L315,555.8751576984257L318.46153846153845,555.7717912791338L321.9230769230769,555.784203166584L325.38461538461536,555.8050517086662L328.8461538461538,555.7884878611051L332.3076923076923,555.8168435499488L335.7692307692308,555.7655160016869L339.2307692307692,555.7789960975148L342.6923076923077,555.7609939042603L346.1538461538462,555.7576822230463L349.61538461538464,555.7866289334634L353.0769230769231,555.8168737301402L356.53846153846155,555.7914991665849L360,555.7688113413304L363.46153846153845,555.7687807161245L366.9230769230769,555.7566925379818L370.38461538461536,555.7308516082564L373.84615384615387,555.7444719089839L377.3076923076923,555.7439209435069L380.7692307692308,555.7510701916665L384.2307692307692,555.7305951353541L387.69230769230774,555.7530864197531L391.1538461538462,555.769945223436L394.6153846153846,555.730299179623L398.07692307692304,555.7447799705719L401.53846153846155,555.735200447643L405,555.7572838606442L408.46153846153845,555.7293101835977L411.9230769230769,555.7477562487267L415.3846153846154,555.7333027934914L418.84615384615387,555.7173992331848L422.3076923076923,555.7561495206718L425.7692307692308,555.7415894685519L429.2307692307692,555.7566995360855L432.6923076923077,555.7415836112646L436.15384615384613,555.7285566655185L439.6153846153846,555.7500453888309L443.0769230769231,555.7084152177052L446.53846153846155,555.6922281767422L450,555.7350212812397L453.46153846153845,555.7105789508975L456.9230769230769,555.7308251798418L460.38461538461536,555.723402245145L463.8461538461538,555.7412298613644L467.3076923076923,555.6994151879549L470.7692307692308,555.7096960868437L474.2307692307692,555.7009689642206L477.6923076923077,555.7351934161818L481.15384615384613,555.6896656391439L484.6153846153846,555.6934533043748L488.07692307692304,555.7197665303378L491.5384615384615,555.706898965209L495.00000000000006,555.7236258347732L498.4615384615385,555.691147434521L501.92307692307696,555.6831954471202L505.3846153846154,555.6864755246893L508.8461538461538,555.678391959799L512.3076923076923,555.6898618759054L515.7692307692307,555.7167399179651L519.2307692307692,555.7311734518208L522.6923076923077,555.6896890069294L526.1538461538462,555.6774883368395L529.6153846153846,555.6954986097543L533.0769230769231,555.6848739765201L536.5384615384615,555.6826104136959L540,555.7058275607327L543.4615384615385,555.7234784446323L546.9230769230769,555.6821219715956L550.3846153846155,555.6731761779563L553.8461538461539,555.6817921446859L557.3076923076924,555.7041832318896L560.7692307692308,555.6900524392182L564.2307692307692,555.6779945146154L567.6923076923076,555.6782178177832L571.1538461538461,555.7058637751342L574.6153846153845,555.6773148202902L578.0769230769231,555.6699350479349L581.5384615384615,555.6846687642774L585,555.6728224963445L588.4615384615385,555.6665804402361L591.9230769230769,555.7007846649467L595.3846153846154,555.6487193167338L598.8461538461538,555.6559424367633L602.3076923076923,555.683231061541L605.7692307692308,555.6882838332986L609.2307692307693,555.6644643093937L612.6923076923077,555.6490964127148L616.1538461538462,555.6495873756929L619.6153846153846,555.6839251984146L623.0769230769231,555.6616936782226L626.5384615384615,555.6508201942985L630,555.6645983842595L633.4615384615385,555.6989626624629L636.9230769230769,555.6702487979867L640.3846153846154,555.7314683895838L643.8461538461538,555.6421953190895L647.3076923076923,555.7316798462019L650.7692307692307,555.6818315926123L654.2307692307692,555.6629400114994L657.6923076923076,555.6582353249315L661.1538461538462,555.6584098067044L664.6153846153846,555.753335596583L668.0769230769231,555.6664562434437L671.5384615384615,555.664133351581L675,555.6717638433234L678.4615384615385,555.7435100743569L681.9230769230769,555.6612889586079L685.3846153846154,555.6576325428059L688.8461538461538,555.6453319351145L692.3076923076924,555.6546803876303L695.7692307692308,555.6606436084336L699.2307692307693,555.6730741068733L702.6923076923077,555.7448345242087L706.1538461538462,555.7553009748812L709.6153846153846,555.6617610552099L713.0769230769231,555.6540594701504L716.5384615384615,555.7065784973207L720,555.6585238659605L723.4615384615385,555.684506403447L726.9230769230769,556.0640920014905L730.3846153846154,555.6732987073328L733.8461538461538,556.1968780770262L737.3076923076923,555.6737107684527L740.7692307692307,555.9954800897387L744.2307692307692,555.8159148732798L747.6923076923077,555.6727660044161L751.1538461538462,556.2326421003617L754.6153846153846,555.6716806900203L758.0769230769231,555.6595900887122L761.5384615384615,555.6471338146133L765,555.6481467467801L768.4615384615385,555.6633604335087L771.9230769230769,555.6710873013445L775.3846153846155,555.6783855626919L778.8461538461539,555.6963111360877L782.3076923076924,556.3663591227964L785.7692307692308,555.6946785984031L789.2307692307692,555.8461634544524L792.6923076923076,556.0885603706339L796.1538461538461,555.8318848148468L799.6153846153845,555.6952583910495L803.0769230769231,555.7644108862107L806.5384615384615,555.6753719381367L810,555.9830555894881L813.4615384615385,555.6697465173133L816.9230769230769,555.80404695778L820.3846153846154,556.5947417346684L823.8461538461538,555.7035828521134L827.3076923076923,555.796716281801L830.7692307692308,556.3843039320345L834.2307692307693,556.4300073949511L837.6923076923077,556.5023336150152L841.1538461538462,556.0034010996596L844.6153846153846,555.9065921498893L848.0769230769231,555.8154924881538L851.5384615384615,555.7443659964833L855,555.8115186963836L858.4615384615385,555.9720985268141L861.9230769230769,556.3539277725748L865.3846153846154,556.1334094834408L868.8461538461538,556.2212284839542L872.3076923076923,556.2639164927721L875.7692307692307,556.450871543799L879.2307692307692,555.9093280000804L882.6923076923076,555.7277925573189L886.1538461538462,555.9740744716794" style="fill: none; stroke: #aec7e8; stroke-width: 2;"></path></g></g><path class="foreground" d="" style="display: none; fill: none;"></path></g><g transform="translate(0,0)"><path class="background" d="M0,0h900v600h-900Z" style="fill: none;"></path><g><g class="mark-line role-mark marks"><path d="M6.923076923076923,586.0822301722949L10.384615384615385,582.9989661586195L13.846153846153847,581.3718065945395L17.30769230769231,579.9546485260771L20.76923076923077,578.8948636133356L24.230769230769234,578.0762927380616L27.692307692307693,577.3742629502528L31.153846153846157,576.9520461963344L34.61538461538462,576.5185261922028L38.07692307692308,576.1673039045302L41.53846153846154,576.5449841908594L45,575.5899081919238L48.46153846153847,575.9876687374468L51.92307692307693,575.1654733348964L55.38461538461539,575.8048599689592L58.84615384615385,575.6431747408865L62.307692307692314,575.4889072249057L65.76923076923077,575.304651084806L69.23076923076924,575.1575486345785L72.6923076923077,575.0293060457886L76.15384615384616,575.0093438231635L79.61538461538461,574.8185759554221L83.07692307692308,574.6874272961492L86.53846153846155,574.6053876412886L90,574.521553973848L93.46153846153847,574.4547380475236L96.92307692307693,574.367450731087L100.38461538461539,574.3306002753008L103.84615384615385,574.2630051726313L107.3076923076923,574.1925122426412L110.76923076923077,574.4828681365664L114.23076923076923,575.0479035863107L117.6923076923077,574.9485850259199L121.15384615384615,574.9033391915641L124.61538461538463,574.7936846922431L128.07692307692307,574.7761450157607L131.53846153846155,574.6843014412045L135,574.6213868577317L138.46153846153848,574.5407745407746L141.9230769230769,574.5166755840913L145.3846153846154,574.4480341965306L148.84615384615384,574.4013573125212L152.30769230769232,574.3740875557199L155.76923076923077,574.3058665472458L159.23076923076923,574.2617447663569L162.69230769230768,574.2204983867647L166.15384615384616,574.1729583594342L169.6153846153846,574.1380839739799L173.0769230769231,574.0998425676705L176.53846153846155,574.0923605753737L180,574.0713721656075L183.46153846153845,574.0917537379227L186.92307692307693,573.9818224760971L190.3846153846154,573.9349704756836L193.84615384615387,573.9297124600639L197.3076923076923,573.966857425657L200.76923076923077,573.9299105362129L204.23076923076923,573.8950912960846L207.6923076923077,573.8681165402297L211.15384615384616,573.8873599911935L214.6153846153846,573.83446002309L218.07692307692307,573.8278085756307L221.53846153846155,573.714185048634L225,573.8558324637821L228.46153846153845,573.8190303344568L231.9230769230769,573.8172149075781L235.3846153846154,573.753662343733L238.84615384615384,573.8263487092976L242.3076923076923,573.7808460634548L245.76923076923075,573.7488799997958L249.23076923076925,573.6681124849982L252.6923076923077,573.7141116221039L256.15384615384613,573.6843022749063L259.6153846153846,573.6665159710573L263.0769230769231,573.6574111334675L266.53846153846155,573.6463051933197L270,573.6259028579078L273.46153846153845,573.6033886146363L276.92307692307696,573.5665694849368L280.3846153846154,573.570579477195L283.8461538461538,573.5829260119481L287.30769230769226,573.557090925512L290.7692307692308,573.5225268145706L294.2307692307692,573.5208200838624L297.6923076923077,573.5578463296401L301.15384615384613,573.5014012332225L304.61538461538464,573.4663117142688L308.0769230769231,573.5165238597848L311.53846153846155,573.4877474693506L315,573.4989293361884L318.46153846153845,573.4477445308679L321.9230769230769,573.4710803447384L325.38461538461536,573.4983136370453L328.8461538461538,573.4966156397463L332.3076923076923,573.3952203593221L335.7692307692308,573.4724045762491L339.2307692307692,573.4310449574726L342.6923076923077,573.4377540771917L346.1538461538462,573.3743333794497L349.61538461538464,573.4378458274778L353.0769230769231,573.4145021645021L356.53846153846155,573.410112884123L360,573.2975439148508L363.46153846153845,573.3981338124374L366.9230769230769,573.3564570498663L370.38461538461536,573.3805181439274L373.84615384615387,573.2975423633711L377.3076923076923,573.3527566655929L380.7692307692308,573.31139196163L384.2307692307692,573.3276030026932L387.69230769230774,573.2066842568162L391.1538461538462,573.3297156945457L394.6153846153846,573.3121536533438L398.07692307692304,573.319791653275L401.53846153846155,573.2361718992986L405,573.2823962985499L408.46153846153845,573.2605091853882L411.9230769230769,573.2802424054075L415.3846153846154,573.1601510106972L418.84615384615387,573.2465187271251L422.3076923076923,573.2621812686906L425.7692307692308,573.2776776298359L429.2307692307692,573.1915493704078L432.6923076923077,573.2539328256266L436.15384615384613,573.2156998957971L439.6153846153846,573.2513988825199L443.0769230769231,573.097789604331L446.53846153846155,573.311268066265L450,573.2893889703678L453.46153846153845,573.2985637327846L456.9230769230769,573.2903513774891L460.38461538461536,573.2976271256675L463.8461538461538,573.2588703972598L467.3076923076923,573.2887799081391L470.7692307692308,573.2953035856721L474.2307692307692,573.2991815853924L477.6923076923077,573.3084898076962L481.15384615384613,573.2998329496911L484.6153846153846,573.2779430752821L488.07692307692304,573.2747921835308L491.5384615384615,573.2665232980501L495.00000000000006,573.2484194069065L498.4615384615385,573.4187423534357L501.92307692307696,573.4223736383854L505.3846153846154,573.4103299751253L508.8461538461538,573.4785996150753L512.3076923076923,573.397408572524L515.7692307692307,573.3905591502847L519.2307692307692,573.3727656182652L522.6923076923077,573.3715522275272L526.1538461538462,573.3510946866339L529.6153846153846,573.3564613469631L533.0769230769231,573.3454685692249L536.5384615384615,573.3406512233079L540,573.3298521967422L543.4615384615385,573.3270599218653L546.9230769230769,573.312707321291L550.3846153846155,573.4541829039619L553.8461538461539,573.4350814206819L557.3076923076924,573.4597669246633L560.7692307692308,573.4372074261839L564.2307692307692,573.4369636620797L567.6923076923076,573.4229506481529L571.1538461538461,573.4223609350482L574.6153846153845,573.413960377918L578.0769230769231,573.4096766082423L581.5384615384615,573.3838995062032L585,573.3975165602222L588.4615384615385,573.6399933827245L591.9230769230769,573.4079465480986L595.3846153846154,573.370820725021L598.8461538461538,573.3686526898441L602.3076923076923,573.3616380751107L605.7692307692308,573.3663183150205L609.2307692307693,573.3329056990428L612.6923076923077,573.3453835092203L616.1538461538462,573.3363475104162L619.6153846153846,573.5697848621043L623.0769230769231,573.3167760839252L626.5384615384615,573.326037474691L630,573.3168221044077L633.4615384615385,573.3161319351924L636.9230769230769,573.2940888059522L640.3846153846154,573.3169711767949L643.8461538461538,573.3055252649842L647.3076923076923,573.3276651112707L650.7692307692307,573.3043452504369L654.2307692307692,573.3059472433131L657.6923076923076,573.2937717742395L661.1538461538462,573.2889664308703L664.6153846153846,573.2507454500249L668.0769230769231,573.2907933539776L671.5384615384615,573.28541852964L675,573.2758457343364L678.4615384615385,573.2951683077628L681.9230769230769,573.2633642889732L685.3846153846154,573.2543834919654L688.8461538461538,573.2514801970461L692.3076923076924,573.2316310269016L695.7692307692308,573.2474626357946L699.2307692307693,573.2434851032972L702.6923076923077,573.2418630351859L706.1538461538462,573.2431780798431L709.6153846153846,573.2383999041051L713.0769230769231,573.2235834420028L716.5384615384615,573.2209994614298L720,573.2058998984503L723.4615384615385,573.2171440593911L726.9230769230769,573.229127176227L730.3846153846154,573.2155309673574L733.8461538461538,573.2520442608848L737.3076923076923,573.2394017601616L740.7692307692307,573.2824666745216L744.2307692307692,573.2010708317703L747.6923076923077,573.1800867337881L751.1538461538462,573.2520680164973L754.6153846153846,573.1772404437879L758.0769230769231,573.1836734693877L761.5384615384615,573.1718470684423L765,573.178192194577L768.4615384615385,573.1858358223404L771.9230769230769,573.1938475978029L775.3846153846155,573.1556280084153L778.8461538461539,573.1795671801525L782.3076923076924,573.2717202621548L785.7692307692308,573.1833609996932L789.2307692307692,573.1833756560185L792.6923076923076,573.2411084791804L796.1538461538461,573.1691598990375L799.6153846153845,573.1887161344382L803.0769230769231,573.177592101676L806.5384615384615,573.1795800741046L810,573.229731034891L813.4615384615385,573.1656501075552L816.9230769230769,573.2028552843657L820.3846153846154,573.255741327616L823.8461538461538,573.1459740141431L827.3076923076923,573.1693224454272L830.7692307692308,573.1872456868305L834.2307692307693,573.2575242049555L837.6923076923077,573.275465865255L841.1538461538462,573.1777078756163L844.6153846153846,573.1751229447912L848.0769230769231,573.1973768884258L851.5384615384615,573.1816971223675L855,573.1828166946168L858.4615384615385,573.159393440887L861.9230769230769,573.2187767056239L865.3846153846154,573.2195236603933L868.8461538461538,573.2322149719768L872.3076923076923,573.1620597494993L875.7692307692307,573.1793581574246L879.2307692307692,573.1974435749385L882.6923076923076,573.2269253762431L886.1538461538462,573.1367632893146" style="fill: none; stroke: #2ca02c; stroke-width: 2;"></path></g></g><path class="foreground" d="" style="display: none; fill: none;"></path></g><g transform="translate(0,0)"><path class="background" d="M0,0h900v600h-900Z" style="fill: none;"></path><g><g class="mark-line role-mark marks"><path d="M6.923076923076923,577.3295012679629L10.384615384615385,575.939505514358L13.846153846153847,566.8908177163169L17.30769230769231,565.390053096233L20.76923076923077,563.9271654262195L24.230769230769234,567.2171013924299L27.692307692307693,566.311048557354L31.153846153846157,562.1643017156997L34.61538461538462,564.3155792958684L38.07692307692308,561.5523999896161L41.53846153846154,564.296652811201L45,564.0919885014373L48.46153846153847,562.6226933647429L51.92307692307693,564.2798776644177L55.38461538461539,562.7362697738803L58.84615384615385,562.3145215130897L62.307692307692314,563.4271942552198L65.76923076923077,562.9484864577802L69.23076923076924,562.7195111504526L72.6923076923077,562.3660322108345L76.15384615384616,562.6452784503632L79.61538461538461,563.0019199122326L83.07692307692308,561.916121086407L86.53846153846155,561.8663077613279L90,562.5155614348232L93.46153846153847,562.3524448026058L96.92307692307693,561.5072724209581L100.38461538461539,561.9411428039025L103.84615384615385,561.9853738933106L107.3076923076923,561.8650793650794L110.76923076923077,561.7969842997046L114.23076923076923,561.8045836700309L117.6923076923077,562.0289932857089L121.15384615384615,561.9848791396017L124.61538461538463,562.1172087691647L128.07692307692307,562.3759228323544L131.53846153846155,562.4533496482105L135,562.55277036894L138.46153846153848,562.6044017735412L141.9230769230769,562.3854861354861L145.3846153846154,562.1638330757341L148.84615384615384,562.420571269166L152.30769230769232,562.6353831598865L155.76923076923077,562.642092983297L159.23076923076923,562.2443606720838L162.69230769230768,562.7687401373134L166.15384615384616,562.7674709675375L169.6153846153846,562.9169537336372L173.0769230769231,562.3516210949035L176.53846153846155,563.4308320008821L180,562.8518900135361L183.46153846153845,562.8304187639458L186.92307692307693,561.9518372829319L190.3846153846154,563.5247040187253L193.84615384615387,562.891018353094L197.3076923076923,562.9252739507644L200.76923076923077,562.261693960824L204.23076923076923,562.7774691002107L207.6923076923077,562.8424700852539L211.15384615384616,562.6659190840145L214.6153846153846,564.2195078548842L218.07692307692307,562.7105967310358L221.53846153846155,562.9380455609963L225,562.7075229643604L228.46153846153845,562.1812239061322L231.9230769230769,562.66380726782L235.3846153846154,562.7487017474577L238.84615384615384,562.632532693129L242.3076923076923,562.0958751393534L245.76923076923075,564.1273794698452L249.23076923076925,562.8219875409559L252.6923076923077,563.040864894268L256.15384615384613,562.3012648317382L259.6153846153846,562.7587415537799L263.0769230769231,562.9157447826346L266.53846153846155,563.1927402862985L270,561.9402518230492L273.46153846153845,562.9110358227999L276.92307692307696,562.8938056870018L280.3846153846154,562.7176450270472L283.8461538461538,562.4769600695917L287.30769230769226,563.656497373845L290.7692307692308,562.8896789446139L294.2307692307692,562.6612149355141L297.6923076923077,562.1486773973428L301.15384615384613,562.6498889711324L304.61538461538464,562.6471332338691L308.0769230769231,562.7610428578342L311.53846153846155,562.1393858991896L315,564.0645055615944L318.46153846153845,562.748407808212L321.9230769230769,563.1749278378056L325.38461538461536,562.6098031487896L328.8461538461538,562.5916617055732L332.3076923076923,563.0918549637802L335.7692307692308,562.6077097505669L339.2307692307692,562.1327777251634L342.6923076923077,562.7616725738051L346.1538461538462,564.0624256805678L349.61538461538464,562.9244879633985L353.0769230769231,562.1503382083606L356.53846153846155,562.7883673027259L360,563.0686417273412L363.46153846153845,562.8975265017668L366.9230769230769,562.6088630350168L370.38461538461536,562.8957151118087L373.84615384615387,563.0715938560674L377.3076923076923,562.8183922646085L380.7692307692308,562.4315681974184L384.2307692307692,562.9737831798114L387.69230769230774,563.9322783061683L391.1538461538462,562.9781482507941L394.6153846153846,562.6926416307714L398.07692307692304,562.906694091249L401.53846153846155,563.8027723273625L405,563.0134830865408L408.46153846153845,562.5918282685279L411.9230769230769,562.9885923374947L415.3846153846154,563.2431052669117L418.84615384615387,562.6691364227783L422.3076923076923,562.5650692827122L425.7692307692308,562.7537667823201L429.2307692307692,562.763169453658L432.6923076923077,562.8055198358892L436.15384615384613,564.5366956655041L439.6153846153846,562.9258080327213L443.0769230769231,563.5717064972517L446.53846153846155,563.2384071106952L450,562.5666533115743L453.46153846153845,563.3452868691543L456.9230769230769,563.0454454720873L460.38461538461536,563.4867973708069L463.8461538461538,562.7684708034761L467.3076923076923,563.0395839008106L470.7692307692308,563.4518804945427L474.2307692307692,563.4191627121332L477.6923076923077,563.3892785051802L481.15384615384613,563.3179711493718L484.6153846153846,563.9444016613854L488.07692307692304,564.0271730405406L491.5384615384615,563.4499818736273L495.00000000000006,564.2589744622262L498.4615384615385,565.0465740611442L501.92307692307696,564.2143783258826L505.3846153846154,564.1404607145743L508.8461538461538,563.9482708282048L512.3076923076923,564.0858579932069L515.7692307692307,564.2212984599926L519.2307692307692,564.0889467499323L522.6923076923077,564.3579041417407L526.1538461538462,564.5827904145721L529.6153846153846,564.6194025040508L533.0769230769231,564.5124487186728L536.5384615384615,564.382369014674L540,564.5175045188053L543.4615384615385,564.518772592981L546.9230769230769,566.2343111214838L550.3846153846155,564.4828540851448L553.8461538461539,564.9168535340439L557.3076923076924,565.6108819753626L560.7692307692308,564.5329736576421L564.2307692307692,565.1393634099657L567.6923076923076,564.474717266019L571.1538461538461,565.1899825069305L574.6153846153845,565.1328338212672L578.0769230769231,565.2720864621496L581.5384615384615,566.5221231374113L585,566.7620070658155L588.4615384615385,565.3006908550287L591.9230769230769,564.9749576364236L595.3846153846154,565.3134364730048L598.8461538461538,565.3130762911478L602.3076923076923,565.5715394996413L605.7692307692308,565.2733194037517L609.2307692307693,565.9238192304271L612.6923076923077,565.5317166090857L616.1538461538462,565.5382108654135L619.6153846153846,565.5332504405656L623.0769230769231,565.3420334813071L626.5384615384615,565.9049822924607L630,565.5305245792761L633.4615384615385,565.6921696309618L636.9230769230769,565.9062125451433L640.3846153846154,565.5304520749415L643.8461538461538,565.5131576182641L647.3076923076923,565.6935681896548L650.7692307692307,565.6015033827543L654.2307692307692,565.531914893617L657.6923076923076,565.7590327498643L661.1538461538462,565.6251027719322L664.6153846153846,564.615405607985L668.0769230769231,565.6602191044393L671.5384615384615,565.4093661836671L675,565.9231983721365L678.4615384615385,565.6554910315758L681.9230769230769,565.5927199619988L685.3846153846154,565.7026554486637L688.8461538461538,565.7159662617368L692.3076923076924,565.771869510286L695.7692307692308,565.5875721500721L699.2307692307693,565.4331335485246L702.6923076923077,565.9693625992485L706.1538461538462,565.8888261193448L709.6153846153846,565.6016668933648L713.0769230769231,565.7930921118921L716.5384615384615,565.8899324291631L720,565.6550741895189L723.4615384615385,565.9057903641618L726.9230769230769,566.3453607032594L730.3846153846154,565.8788824612722L733.8461538461538,566.4737566121314L737.3076923076923,565.9974518137091L740.7692307692307,566.2560734404099L744.2307692307692,566.3336531015674L747.6923076923077,566.0365554478294L751.1538461538462,566.4343525509792L754.6153846153846,565.998783728902L758.0769230769231,566.6616441282812L761.5384615384615,565.954441790909L765,566.1413636139662L768.4615384615385,566.0110804447863L771.9230769230769,575.298361294407L775.3846153846155,575.2561158651218L778.8461538461539,566.156255038466L782.3076923076924,575.4840103197936L785.7692307692308,575.3210820496062L789.2307692307692,575.4361244582146L792.6923076923076,575.4781040829392L796.1538461538461,574.1116378642365L799.6153846153845,574.0625630676085L803.0769230769231,575.4738421208284L806.5384615384615,575.305161409005L810,575.4180628061401L813.4615384615385,575.3004650771215L816.9230769230769,575.4486982519328L820.3846153846154,575.0848153063073L823.8461538461538,575.3144743905885L827.3076923076923,575.3175382193492L830.7692307692308,567.485074081699L834.2307692307693,570.5486390781992L837.6923076923077,568.4114639381548L841.1538461538462,568.3131355591131L844.6153846153846,568.4917482887573L848.0769230769231,566.3157610966585L851.5384615384615,568.2329891230228L855,566.3969713136619L858.4615384615385,570.4915497396482L861.9230769230769,571.9584784660418L865.3846153846154,568.5652205106636L868.8461538461538,567.7068698699476L872.3076923076923,569.8656180543683L875.7692307692307,570.8936116715898L879.2307692307692,568.145004728173L882.6923076923076,570.559592129694L886.1538461538462,566.3246727829301" style="fill: none; stroke: #98df8a; stroke-width: 2;"></path></g></g><path class="foreground" d="" style="display: none; fill: none;"></path></g><g transform="translate(0,0)"><path class="background" d="M0,0h900v600h-900Z" style="fill: none;"></path><g><g class="mark-line role-mark marks"><path d="M6.923076923076923,559.7150001984678L10.384615384615385,516.7745642597204L13.846153846153847,499.72023149399365L17.30769230769231,475.5260590079924L20.76923076923077,427.9346840613458L24.230769230769234,423.29212752114506L27.692307692307693,327.3044073745145L31.153846153846157,413.38447704793015L34.61538461538462,386.0921317628115L38.07692307692308,348.0887766356166L41.53846153846154,300.3825667881449L45,302.0059315179294L48.46153846153847,261.22603909660273L51.92307692307693,245.06885653201928L55.38461538461539,176.7102126442262L58.84615384615385,288.89546018558485L62.307692307692314,270.1092613556221L65.76923076923077,276.0604269821507L69.23076923076924,215.83650318485675L72.6923076923077,218.58850313033577L76.15384615384616,192.72015655577297L79.61538461538461,166.7102480292251L83.07692307692308,107.29875741792961L86.53846153846155,223.96661715907052L90,213.5564247766946L93.46153846153847,242.54273817021144L96.92307692307693,166.86255924170615L100.38461538461539,173.16992197855527L103.84615384615385,142.69490263545094L107.3076923076923,131.31521406276028L110.76923076923077,87.3181545691192L114.23076923076923,187.00183273849714L117.6923076923077,166.75901570666238L121.15384615384615,159.64335992491777L124.61538461538463,133.34709172866994L128.07692307692307,134.22263208754984L131.53846153846155,119.19696413269678L135,109.94732149026554L138.46153846153848,68.0426446575789L141.9230769230769,168.64363073749354L145.3846153846154,159.44811037792442L148.84615384615384,145.541512548344L152.30769230769232,129.51491470504146L155.76923076923077,146.67164146346812L159.23076923076923,113.90284002612545L162.69230769230768,116.72868832241252L166.15384615384616,123.92836885179483L169.6153846153846,172.29828850855745L173.0769230769231,177.78660838466115L176.53846153846155,178.9558883043302L180,131.35720657576147L183.46153846153845,132.8561646069065L186.92307692307693,111.4374414822845L190.3846153846154,111.9192622237689L193.84615384615387,79.45548783960813L197.3076923076923,171.30179811133635L200.76923076923077,155.81497036994426L204.23076923076923,143.83383890653434L207.6923076923077,130.00071108582802L211.15384615384616,122.4284875429914L214.6153846153846,120.09791721915104L218.07692307692307,125.75645756457561L221.53846153846155,93.55476089459971L225,158.99508800654937L228.46153846153845,131.56352134949915L231.9230769230769,124.47472882529422L235.3846153846154,108.54642075648646L238.84615384615384,122.52426654139641L242.3076923076923,94.95028883561902L245.76923076923075,114.57059069962293L249.23076923076925,84.57576085779274L252.6923076923077,147.00904739334024L256.15384615384613,130.40413222706235L259.6153846153846,132.30079478296307L263.0769230769231,116.45188593588895L266.53846153846155,135.43807763401114L270,99.80917453376716L273.46153846153845,101.15038006425824L276.92307692307696,86.946227791395L280.3846153846154,135.93925525275648L283.8461538461538,129.7096033188192L287.30769230769226,112.28318584070793L290.7692307692308,101.53270769124222L294.2307692307692,111.8243243243243L297.6923076923077,91.323960756549L301.15384615384613,96.81418236329269L304.61538461538464,76.80874316939888L308.0769230769231,129.32218694474392L311.53846153846155,115.58148397877513L315,121.68863343573484L318.46153846153845,102.51930390688028L321.9230769230769,105.14072557461188L325.38461538461536,92.08135892510789L328.8461538461538,100.77956588348536L332.3076923076923,69.01597134290141L335.7692307692308,119.30378742977345L339.2307692307692,113.97082658022697L342.6923076923077,109.32663637218847L346.1538461538462,96.45171243443376L349.61538461538464,112.14958529278L353.0769230769231,81.54301510851994L356.53846153846155,99.1956533812177L360,64.62807644713328L363.46153846153845,129.36868316976714L366.9230769230769,108.0243654299365L370.38461538461536,115.68168810809463L373.84615384615387,86.11857393377626L377.3076923076923,114.2618655149781L380.7692307692308,71.84409515536136L384.2307692307692,86.93413894814196L387.69230769230774,72.33256351039266L391.1538461538462,119.85401392581805L394.6153846153846,113.46833909875855L398.07692307692304,110.77140681101073L401.53846153846155,92.95799623185195L405,103.79480527557267L408.46153846153845,75.44175696326423L411.9230769230769,88.39834710743804L415.3846153846154,66.71265640671871L418.84615384615387,111.76988546581967L422.3076923076923,107.81540257087745L425.7692307692308,114.47826702534327L429.2307692307692,94.69940073458348L432.6923076923077,97.50922218368703L436.15384615384613,76.41795548849495L439.6153846153846,86.68216352829216L443.0769230769231,68.03219286006077L446.53846153846155,126.07614021862045L450,106.20183906728928L453.46153846153845,107.02752939519826L456.9230769230769,89.97072834758646L460.38461538461536,98.14252336448594L463.8461538461538,74.92560419712744L467.3076923076923,86.88187476710318L470.7692307692308,76.67350901525658L474.2307692307692,114.18217806707011L477.6923076923077,107.02027764383419L481.15384615384613,106.12302179006853L484.6153846153846,91.81494661921712L488.07692307692304,103.82020822373654L491.5384615384615,80.10566094968465L495.00000000000006,95.13530522341097L498.4615384615385,65.45220193340494L501.92307692307696,114.13165377165065L505.3846153846154,101.35724606105082L508.8461538461538,108.85353299017315L512.3076923076923,87.93105819256954L515.7692307692307,109.66231797758891L519.2307692307692,86.6403462661193L522.6923076923077,98.23583348615443L526.1538461538462,74.42309622311183L529.6153846153846,118.42076601924126L533.0769230769231,110.23809523809524L536.5384615384615,101.84479341363006L540,88.07523355812663L543.4615384615385,102.25728539752932L546.9230769230769,81.56325396259838L550.3846153846155,93.94836772541288L553.8461538461539,82.62334059837528L557.3076923076924,114.67266302601993L560.7692307692308,104.06877003168013L564.2307692307692,105.68400700423177L567.6923076923076,91.68204558087831L571.1538461538461,102.53038703725268L574.6153846153845,72.39959829934209L578.0769230769231,92.87755484049242L581.5384615384615,76.82991985752447L585,110.0081574985913L588.4615384615385,99.68600960640879L591.9230769230769,109.12080315997376L595.3846153846154,90.02585726115831L598.8461538461538,96.03248891860436L602.3076923076923,77.01431873798667L605.7692307692308,91.71365111908416L609.2307692307693,75.49291566025045L612.6923076923077,104.8180000929756L616.1538461538462,107.59263773768895L619.6153846153846,105.2107430509296L623.0769230769231,86.52532958367965L626.5384615384615,100.05281308208471L630,74.96573479821605L633.4615384615385,93.50503769933944L636.9230769230769,74.3417307253216L640.3846153846154,117.59804327999335L643.8461538461538,109.30730242162568L647.3076923076923,114.36903910956804L650.7692307692307,86.27174919843246L654.2307692307692,94.77699587478763L657.6923076923076,74.62814339218828L661.1538461538462,89.06162464985997L664.6153846153846,83.54855989121917L668.0769230769231,107.77986500667194L671.5384615384615,97.28638214842269L675,112.10445874294777L678.4615384615385,98.22875582646111L681.9230769230769,94.6583517907409L685.3846153846154,74.51174159296683L688.8461538461538,84.2302977680167L692.3076923076924,70.10578402914417L695.7692307692308,101.96668016218791L699.2307692307693,103.17729565191442L702.6923076923077,113.19497365220914L706.1538461538462,93.88259280676753L709.6153846153846,93.4533164742446L713.0769230769231,75.46070928689583L716.5384615384615,87.38001407459532L720,72.09991147690033L723.4615384615385,99.70951351654836L726.9230769230769,126.36815920398013L730.3846153846154,98.1165314648217L733.8461538461538,119.6051452673496L737.3076923076923,98.81267362333277L740.7692307692307,123.82393117086998L744.2307692307692,118.53875216991734L747.6923076923077,69.92743251446612L751.1538461538462,152.19187469407734L754.6153846153846,87.9339139804256L758.0769230769231,98.52160898802695L761.5384615384615,83.74413084170786L765,94.16600244703584L768.4615384615385,72.40327244294478L771.9230769230769,86.57485993653499L775.3846153846155,73.52943294329431L778.8461538461539,107.1958237500358L782.3076923076924,143.41873825079867L785.7692307692308,97.9263504800114L789.2307692307692,139.0347525591706L792.6923076923076,150.4660495253783L796.1538461538461,89.73715193554337L799.6153846153845,88.47340548008285L803.0769230769231,140.44908362665365L806.5384615384615,99.022649242085L810,146.40526273044742L813.4615384615385,98.48422121021918L816.9230769230769,135.79460864023008L820.3846153846154,226.53712147631975L823.8461538461538,71.80494672511442L827.3076923076923,95.11111496249951L830.7692307692308,170.4305418971335L834.2307692307693,173.5548005355523L837.6923076923077,207.78529571083868L841.1538461538462,126.99030498651184L844.6153846153846,168.00887788638013L848.0769230769231,125.33036659159367L851.5384615384615,85.7832630092594L855,111.69246342353365L858.4615384615385,143.08088974347766L861.9230769230769,170.22898325184076L865.3846153846154,151.44960932140478L868.8461538461538,179.35549329702556L872.3076923076923,160.59452015765234L875.7692307692307,216.12438925440537L879.2307692307692,182.6087618371062L882.6923076923076,210.65617075232456L886.1538461538462,161.74706615092117" style="fill: none; stroke: #ffbb78; stroke-width: 2;"></path></g></g><path class="foreground" d="" style="display: none; fill: none;"></path></g></g><g class="mark-group role-legend"><g transform="translate(918,0)"><path class="background" d="M0,0h101v92h-101Z" style="pointer-events: none; fill: none;"></path><g><g class="mark-group role-legend-entry"><g transform="translate(0,16)"><path class="background" d="M0,0h0v0h0Z" style="pointer-events: none; fill: none;"></path><g><g class="mark-group role-scope"><g transform="translate(0,0)"><path class="background" d="M0,0h101v11h-101Z" style="pointer-events: none; fill: none; opacity: 1;"></path><g><g class="mark-symbol role-legend-symbol" style="pointer-events: none;"><path transform="translate(6,6)" d="M-5,0L5,0" style="fill: none; stroke: #1f77b4; stroke-width: 1.5; opacity: 1;"></path></g><g class="mark-text role-legend-label" style="pointer-events: none;"><text text-anchor="start" transform="translate(16,9)" style="font-family: sans-serif; font-size: 10px; fill: #000; opacity: 1;">Clang-Polly</text></g></g><path class="foreground" d="" style="pointer-events: none; display: none; fill: none;"></path></g><g transform="translate(0,13)"><path class="background" d="M0,0h101v11h-101Z" style="pointer-events: none; fill: none; opacity: 1;"></path><g><g class="mark-symbol role-legend-symbol" style="pointer-events: none;"><path transform="translate(6,6)" d="M-5,0L5,0" style="fill: none; stroke: #aec7e8; stroke-width: 1.5; opacity: 1;"></path></g><g class="mark-text role-legend-label" style="pointer-events: none;"><text text-anchor="start" transform="translate(16,9)" style="font-family: sans-serif; font-size: 10px; fill: #000; opacity: 1;">GFortran</text></g></g><path class="foreground" d="" style="pointer-events: none; display: none; fill: none;"></path></g><g transform="translate(0,26)"><path class="background" d="M0,0h101v11h-101Z" style="pointer-events: none; fill: none; opacity: 1;"></path><g><g class="mark-symbol role-legend-symbol" style="pointer-events: none;"><path transform="translate(6,6)" d="M-5,0L5,0" style="fill: none; stroke: #ff7f0e; stroke-width: 1.5; opacity: 1;"></path></g><g class="mark-text role-legend-label" style="pointer-events: none;"><text text-anchor="start" transform="translate(16,9)" style="font-family: sans-serif; font-size: 10px; fill: #000; opacity: 1;">Julia</text></g></g><path class="foreground" d="" style="pointer-events: none; display: none; fill: none;"></path></g><g transform="translate(0,39)"><path class="background" d="M0,0h101v11h-101Z" style="pointer-events: none; fill: none; opacity: 1;"></path><g><g class="mark-symbol role-legend-symbol" style="pointer-events: none;"><path transform="translate(6,6)" d="M-5,0L5,0" style="fill: none; stroke: #ffbb78; stroke-width: 1.5; opacity: 1;"></path></g><g class="mark-text role-legend-label" style="pointer-events: none;"><text text-anchor="start" transform="translate(16,9)" style="font-family: sans-serif; font-size: 10px; fill: #000; opacity: 1;">LoopVectorization</text></g></g><path class="foreground" d="" style="pointer-events: none; display: none; fill: none;"></path></g><g transform="translate(0,52)"><path class="background" d="M0,0h101v11h-101Z" style="pointer-events: none; fill: none; opacity: 1;"></path><g><g class="mark-symbol role-legend-symbol" style="pointer-events: none;"><path transform="translate(6,6)" d="M-5,0L5,0" style="fill: none; stroke: #2ca02c; stroke-width: 1.5; opacity: 1;"></path></g><g class="mark-text role-legend-label" style="pointer-events: none;"><text text-anchor="start" transform="translate(16,9)" style="font-family: sans-serif; font-size: 10px; fill: #000; opacity: 1;">icc</text></g></g><path class="foreground" d="" style="pointer-events: none; display: none; fill: none;"></path></g><g transform="translate(0,65)"><path class="background" d="M0,0h101v11h-101Z" style="pointer-events: none; fill: none; opacity: 1;"></path><g><g class="mark-symbol role-legend-symbol" style="pointer-events: none;"><path transform="translate(6,6)" d="M-5,0L5,0" style="fill: none; stroke: #98df8a; stroke-width: 1.5; opacity: 1;"></path></g><g class="mark-text role-legend-label" style="pointer-events: none;"><text text-anchor="start" transform="translate(16,9)" style="font-family: sans-serif; font-size: 10px; fill: #000; opacity: 1;">ifort</text></g></g><path class="foreground" d="" style="pointer-events: none; display: none; fill: none;"></path></g></g></g><path class="foreground" d="" style="pointer-events: none; display: none; fill: none;"></path></g></g><g class="mark-text role-legend-title" style="pointer-events: none;"><text text-anchor="start" transform="translate(0,9)" style="font-family: sans-serif; font-size: 11px; font-weight: bold; fill: #000; opacity: 1;">Method</text></g></g><path class="foreground" d="" style="pointer-events: none; display: none; fill: none;"></path></g></g></g><path class="foreground" d="" style="display: none; fill: none;"></path></g></g></g></svg>
