<?xml version="1.0" encoding="utf-8"?>
<!DOCTYPE svg PUBLIC "-//W3C//DTD SVG 1.1//EN" "http://www.w3.org/Graphics/SVG/1.1/DTD/svg11.dtd">
<svg class="marks" width="1066" height="647" viewBox="0 0 1066 647" version="1.1" xmlns="http://www.w3.org/2000/svg" xmlns:xlink="http://www.w3.org/1999/xlink"><rect width="1066" height="647" style="fill: white;"></rect><g transform="translate(42,10)"><g class="mark-group role-frame root"><g transform="translate(0,0)"><path class="background" d="M0.5,0.5h900v600h-900Z" style="fill: none; stroke: #ddd;"></path><g><g class="mark-group role-axis"><g transform="translate(0.5,600.5)"><path class="background" d="M0,0h0v0h0Z" style="pointer-events: none; fill: none;"></path><g><g class="mark-rule role-axis-grid" style="pointer-events: none;"><line transform="translate(0,-600)" x2="0" y2="600" style="fill: none; stroke: #ddd; stroke-width: 1; opacity: 1;"></line><line transform="translate(35,-600)" x2="0" y2="600" style="fill: none; stroke: #ddd; stroke-width: 1; opacity: 1;"></line><line transform="translate(69,-600)" x2="0" y2="600" style="fill: none; stroke: #ddd; stroke-width: 1; opacity: 1;"></line><line transform="translate(104,-600)" x2="0" y2="600" style="fill: none; stroke: #ddd; stroke-width: 1; opacity: 1;"></line><line transform="translate(138,-600)" x2="0" y2="600" style="fill: none; stroke: #ddd; stroke-width: 1; opacity: 1;"></line><line transform="translate(173,-600)" x2="0" y2="600" style="fill: none; stroke: #ddd; stroke-width: 1; opacity: 1;"></line><line transform="translate(208,-600)" x2="0" y2="600" style="fill: none; stroke: #ddd; stroke-width: 1; opacity: 1;"></line><line transform="translate(242,-600)" x2="0" y2="600" style="fill: none; stroke: #ddd; stroke-width: 1; opacity: 1;"></line><line transform="translate(277,-600)" x2="0" y2="600" style="fill: none; stroke: #ddd; stroke-width: 1; opacity: 1;"></line><line transform="translate(312,-600)" x2="0" y2="600" style="fill: none; stroke: #ddd; stroke-width: 1; opacity: 1;"></line><line transform="translate(346,-600)" x2="0" y2="600" style="fill: none; stroke: #ddd; stroke-width: 1; opacity: 1;"></line><line transform="translate(381,-600)" x2="0" y2="600" style="fill: none; stroke: #ddd; stroke-width: 1; opacity: 1;"></line><line transform="translate(415,-600)" x2="0" y2="600" style="fill: none; stroke: #ddd; stroke-width: 1; opacity: 1;"></line><line transform="translate(450,-600)" x2="0" y2="600" style="fill: none; stroke: #ddd; stroke-width: 1; opacity: 1;"></line><line transform="translate(485,-600)" x2="0" y2="600" style="fill: none; stroke: #ddd; stroke-width: 1; opacity: 1;"></line><line transform="translate(519,-600)" x2="0" y2="600" style="fill: none; stroke: #ddd; stroke-width: 1; opacity: 1;"></line><line transform="translate(554,-600)" x2="0" y2="600" style="fill: none; stroke: #ddd; stroke-width: 1; opacity: 1;"></line><line transform="translate(588,-600)" x2="0" y2="600" style="fill: none; stroke: #ddd; stroke-width: 1; opacity: 1;"></line><line transform="translate(623,-600)" x2="0" y2="600" style="fill: none; stroke: #ddd; stroke-width: 1; opacity: 1;"></line><line transform="translate(658,-600)" x2="0" y2="600" style="fill: none; stroke: #ddd; stroke-width: 1; opacity: 1;"></line><line transform="translate(692,-600)" x2="0" y2="600" style="fill: none; stroke: #ddd; stroke-width: 1; opacity: 1;"></line><line transform="translate(727,-600)" x2="0" y2="600" style="fill: none; stroke: #ddd; stroke-width: 1; opacity: 1;"></line><line transform="translate(762,-600)" x2="0" y2="600" style="fill: none; stroke: #ddd; stroke-width: 1; opacity: 1;"></line><line transform="translate(796,-600)" x2="0" y2="600" style="fill: none; stroke: #ddd; stroke-width: 1; opacity: 1;"></line><line transform="translate(831,-600)" x2="0" y2="600" style="fill: none; stroke: #ddd; stroke-width: 1; opacity: 1;"></line><line transform="translate(865,-600)" x2="0" y2="600" style="fill: none; stroke: #ddd; stroke-width: 1; opacity: 1;"></line><line transform="translate(900,-600)" x2="0" y2="600" style="fill: none; stroke: #ddd; stroke-width: 1; opacity: 1;"></line></g></g><path class="foreground" d="" style="pointer-events: none; display: none; fill: none;"></path></g></g><g class="mark-group role-axis"><g transform="translate(0.5,0.5)"><path class="background" d="M0,0h0v0h0Z" style="pointer-events: none; fill: none;"></path><g><g class="mark-rule role-axis-grid" style="pointer-events: none;"><line transform="translate(0,600)" x2="900" y2="0" style="fill: none; stroke: #ddd; stroke-width: 1; opacity: 1;"></line><line transform="translate(0,554)" x2="900" y2="0" style="fill: none; stroke: #ddd; stroke-width: 1; opacity: 1;"></line><line transform="translate(0,508)" x2="900" y2="0" style="fill: none; stroke: #ddd; stroke-width: 1; opacity: 1;"></line><line transform="translate(0,462)" x2="900" y2="0" style="fill: none; stroke: #ddd; stroke-width: 1; opacity: 1;"></line><line transform="translate(0,415)" x2="900" y2="0" style="fill: none; stroke: #ddd; stroke-width: 1; opacity: 1;"></line><line transform="translate(0,369)" x2="900" y2="0" style="fill: none; stroke: #ddd; stroke-width: 1; opacity: 1;"></line><line transform="translate(0,323)" x2="900" y2="0" style="fill: none; stroke: #ddd; stroke-width: 1; opacity: 1;"></line><line transform="translate(0,277)" x2="900" y2="0" style="fill: none; stroke: #ddd; stroke-width: 1; opacity: 1;"></line><line transform="translate(0,231)" x2="900" y2="0" style="fill: none; stroke: #ddd; stroke-width: 1; opacity: 1;"></line><line transform="translate(0,185)" x2="900" y2="0" style="fill: none; stroke: #ddd; stroke-width: 1; opacity: 1;"></line><line transform="translate(0,138)" x2="900" y2="0" style="fill: none; stroke: #ddd; stroke-width: 1; opacity: 1;"></line><line transform="translate(0,92)" x2="900" y2="0" style="fill: none; stroke: #ddd; stroke-width: 1; opacity: 1;"></line><line transform="translate(0,46)" x2="900" y2="0" style="fill: none; stroke: #ddd; stroke-width: 1; opacity: 1;"></line><line transform="translate(0,0)" x2="900" y2="0" style="fill: none; stroke: #ddd; stroke-width: 1; opacity: 1;"></line></g></g><path class="foreground" d="" style="pointer-events: none; display: none; fill: none;"></path></g></g><g class="mark-group role-axis"><g transform="translate(0.5,600.5)"><path class="background" d="M0,0h0v0h0Z" style="pointer-events: none; fill: none;"></path><g><g class="mark-rule role-axis-tick" style="pointer-events: none;"><line transform="translate(0,0)" x2="0" y2="5" style="fill: none; stroke: #888; stroke-width: 1; opacity: 1;"></line><line transform="translate(35,0)" x2="0" y2="5" style="fill: none; stroke: #888; stroke-width: 1; opacity: 1;"></line><line transform="translate(69,0)" x2="0" y2="5" style="fill: none; stroke: #888; stroke-width: 1; opacity: 1;"></line><line transform="translate(104,0)" x2="0" y2="5" style="fill: none; stroke: #888; stroke-width: 1; opacity: 1;"></line><line transform="translate(138,0)" x2="0" y2="5" style="fill: none; stroke: #888; stroke-width: 1; opacity: 1;"></line><line transform="translate(173,0)" x2="0" y2="5" style="fill: none; stroke: #888; stroke-width: 1; opacity: 1;"></line><line transform="translate(208,0)" x2="0" y2="5" style="fill: none; stroke: #888; stroke-width: 1; opacity: 1;"></line><line transform="translate(242,0)" x2="0" y2="5" style="fill: none; stroke: #888; stroke-width: 1; opacity: 1;"></line><line transform="translate(277,0)" x2="0" y2="5" style="fill: none; stroke: #888; stroke-width: 1; opacity: 1;"></line><line transform="translate(312,0)" x2="0" y2="5" style="fill: none; stroke: #888; stroke-width: 1; opacity: 1;"></line><line transform="translate(346,0)" x2="0" y2="5" style="fill: none; stroke: #888; stroke-width: 1; opacity: 1;"></line><line transform="translate(381,0)" x2="0" y2="5" style="fill: none; stroke: #888; stroke-width: 1; opacity: 1;"></line><line transform="translate(415,0)" x2="0" y2="5" style="fill: none; stroke: #888; stroke-width: 1; opacity: 1;"></line><line transform="translate(450,0)" x2="0" y2="5" style="fill: none; stroke: #888; stroke-width: 1; opacity: 1;"></line><line transform="translate(485,0)" x2="0" y2="5" style="fill: none; stroke: #888; stroke-width: 1; opacity: 1;"></line><line transform="translate(519,0)" x2="0" y2="5" style="fill: none; stroke: #888; stroke-width: 1; opacity: 1;"></line><line transform="translate(554,0)" x2="0" y2="5" style="fill: none; stroke: #888; stroke-width: 1; opacity: 1;"></line><line transform="translate(588,0)" x2="0" y2="5" style="fill: none; stroke: #888; stroke-width: 1; opacity: 1;"></line><line transform="translate(623,0)" x2="0" y2="5" style="fill: none; stroke: #888; stroke-width: 1; opacity: 1;"></line><line transform="translate(658,0)" x2="0" y2="5" style="fill: none; stroke: #888; stroke-width: 1; opacity: 1;"></line><line transform="translate(692,0)" x2="0" y2="5" style="fill: none; stroke: #888; stroke-width: 1; opacity: 1;"></line><line transform="translate(727,0)" x2="0" y2="5" style="fill: none; stroke: #888; stroke-width: 1; opacity: 1;"></line><line transform="translate(762,0)" x2="0" y2="5" style="fill: none; stroke: #888; stroke-width: 1; opacity: 1;"></line><line transform="translate(796,0)" x2="0" y2="5" style="fill: none; stroke: #888; stroke-width: 1; opacity: 1;"></line><line transform="translate(831,0)" x2="0" y2="5" style="fill: none; stroke: #888; stroke-width: 1; opacity: 1;"></line><line transform="translate(865,0)" x2="0" y2="5" style="fill: none; stroke: #888; stroke-width: 1; opacity: 1;"></line><line transform="translate(900,0)" x2="0" y2="5" style="fill: none; stroke: #888; stroke-width: 1; opacity: 1;"></line></g><g class="mark-text role-axis-label" style="pointer-events: none;"><text text-anchor="start" transform="translate(0,15)" style="font-family: sans-serif; font-size: 10px; fill: #000; opacity: 1;">0</text><text text-anchor="middle" transform="translate(34.61538461538462,15)" style="font-family: sans-serif; font-size: 10px; fill: #000; opacity: 1;">10</text><text text-anchor="middle" transform="translate(69.23076923076924,15)" style="font-family: sans-serif; font-size: 10px; fill: #000; opacity: 1;">20</text><text text-anchor="middle" transform="translate(103.84615384615385,15)" style="font-family: sans-serif; font-size: 10px; fill: #000; opacity: 1;">30</text><text text-anchor="middle" transform="translate(138.46153846153848,15)" style="font-family: sans-serif; font-size: 10px; fill: #000; opacity: 1;">40</text><text text-anchor="middle" transform="translate(173.0769230769231,15)" style="font-family: sans-serif; font-size: 10px; fill: #000; opacity: 1;">50</text><text text-anchor="middle" transform="translate(207.6923076923077,15)" style="font-family: sans-serif; font-size: 10px; fill: #000; opacity: 1;">60</text><text text-anchor="middle" transform="translate(242.3076923076923,15)" style="font-family: sans-serif; font-size: 10px; fill: #000; opacity: 1;">70</text><text text-anchor="middle" transform="translate(276.92307692307696,15)" style="font-family: sans-serif; font-size: 10px; fill: #000; opacity: 1;">80</text><text text-anchor="middle" transform="translate(311.53846153846155,15)" style="font-family: sans-serif; font-size: 10px; fill: #000; opacity: 1;">90</text><text text-anchor="middle" transform="translate(346.1538461538462,15)" style="font-family: sans-serif; font-size: 10px; fill: #000; opacity: 1;">100</text><text text-anchor="middle" transform="translate(380.7692307692308,15)" style="font-family: sans-serif; font-size: 10px; fill: #000; opacity: 1;">110</text><text text-anchor="middle" transform="translate(415.3846153846154,15)" style="font-family: sans-serif; font-size: 10px; fill: #000; opacity: 1;">120</text><text text-anchor="middle" transform="translate(450,15)" style="font-family: sans-serif; font-size: 10px; fill: #000; opacity: 1;">130</text><text text-anchor="middle" transform="translate(484.6153846153846,15)" style="font-family: sans-serif; font-size: 10px; fill: #000; opacity: 1;">140</text><text text-anchor="middle" transform="translate(519.2307692307692,15)" style="font-family: sans-serif; font-size: 10px; fill: #000; opacity: 1;">150</text><text text-anchor="middle" transform="translate(553.8461538461539,15)" style="font-family: sans-serif; font-size: 10px; fill: #000; opacity: 1;">160</text><text text-anchor="middle" transform="translate(588.4615384615385,15)" style="font-family: sans-serif; font-size: 10px; fill: #000; opacity: 1;">170</text><text text-anchor="middle" transform="translate(623.0769230769231,15)" style="font-family: sans-serif; font-size: 10px; fill: #000; opacity: 1;">180</text><text text-anchor="middle" transform="translate(657.6923076923076,15)" style="font-family: sans-serif; font-size: 10px; fill: #000; opacity: 1;">190</text><text text-anchor="middle" transform="translate(692.3076923076924,15)" style="font-family: sans-serif; font-size: 10px; fill: #000; opacity: 1;">200</text><text text-anchor="middle" transform="translate(726.9230769230769,15)" style="font-family: sans-serif; font-size: 10px; fill: #000; opacity: 1;">210</text><text text-anchor="middle" transform="translate(761.5384615384615,15)" style="font-family: sans-serif; font-size: 10px; fill: #000; opacity: 1;">220</text><text text-anchor="middle" transform="translate(796.1538461538461,15)" style="font-family: sans-serif; font-size: 10px; fill: #000; opacity: 1;">230</text><text text-anchor="middle" transform="translate(830.7692307692308,15)" style="font-family: sans-serif; font-size: 10px; fill: #000; opacity: 1;">240</text><text text-anchor="middle" transform="translate(865.3846153846154,15)" style="font-family: sans-serif; font-size: 10px; fill: #000; opacity: 1;">250</text><text text-anchor="end" transform="translate(900,15)" style="font-family: sans-serif; font-size: 10px; fill: #000; opacity: 1;">260</text></g><g class="mark-rule role-axis-domain" style="pointer-events: none;"><line transform="translate(0,0)" x2="900" y2="0" style="fill: none; stroke: #888; stroke-width: 1; opacity: 1;"></line></g><g class="mark-text role-axis-title" style="pointer-events: none;"><text text-anchor="middle" transform="translate(450,30)" style="font-family: sans-serif; font-size: 11px; font-weight: bold; fill: #000; opacity: 1;">Size</text></g></g><path class="foreground" d="" style="pointer-events: none; display: none; fill: none;"></path></g></g><g class="mark-group role-axis"><g transform="translate(0.5,0.5)"><path class="background" d="M0,0h0v0h0Z" style="pointer-events: none; fill: none;"></path><g><g class="mark-rule role-axis-tick" style="pointer-events: none;"><line transform="translate(0,600)" x2="-5" y2="0" style="fill: none; stroke: #888; stroke-width: 1; opacity: 1;"></line><line transform="translate(0,554)" x2="-5" y2="0" style="fill: none; stroke: #888; stroke-width: 1; opacity: 1;"></line><line transform="translate(0,508)" x2="-5" y2="0" style="fill: none; stroke: #888; stroke-width: 1; opacity: 1;"></line><line transform="translate(0,462)" x2="-5" y2="0" style="fill: none; stroke: #888; stroke-width: 1; opacity: 1;"></line><line transform="translate(0,415)" x2="-5" y2="0" style="fill: none; stroke: #888; stroke-width: 1; opacity: 1;"></line><line transform="translate(0,369)" x2="-5" y2="0" style="fill: none; stroke: #888; stroke-width: 1; opacity: 1;"></line><line transform="translate(0,323)" x2="-5" y2="0" style="fill: none; stroke: #888; stroke-width: 1; opacity: 1;"></line><line transform="translate(0,277)" x2="-5" y2="0" style="fill: none; stroke: #888; stroke-width: 1; opacity: 1;"></line><line transform="translate(0,231)" x2="-5" y2="0" style="fill: none; stroke: #888; stroke-width: 1; opacity: 1;"></line><line transform="translate(0,185)" x2="-5" y2="0" style="fill: none; stroke: #888; stroke-width: 1; opacity: 1;"></line><line transform="translate(0,138)" x2="-5" y2="0" style="fill: none; stroke: #888; stroke-width: 1; opacity: 1;"></line><line transform="translate(0,92)" x2="-5" y2="0" style="fill: none; stroke: #888; stroke-width: 1; opacity: 1;"></line><line transform="translate(0,46)" x2="-5" y2="0" style="fill: none; stroke: #888; stroke-width: 1; opacity: 1;"></line><line transform="translate(0,0)" x2="-5" y2="0" style="fill: none; stroke: #888; stroke-width: 1; opacity: 1;"></line></g><g class="mark-text role-axis-label" style="pointer-events: none;"><text text-anchor="end" transform="translate(-7,603)" style="font-family: sans-serif; font-size: 10px; fill: #000; opacity: 1;">0.0</text><text text-anchor="end" transform="translate(-7,556.8461538461539)" style="font-family: sans-serif; font-size: 10px; fill: #000; opacity: 1;">0.2</text><text text-anchor="end" transform="translate(-7,510.6923076923077)" style="font-family: sans-serif; font-size: 10px; fill: #000; opacity: 1;">0.4</text><text text-anchor="end" transform="translate(-7,464.53846153846155)" style="font-family: sans-serif; font-size: 10px; fill: #000; opacity: 1;">0.6</text><text text-anchor="end" transform="translate(-7,418.38461538461536)" style="font-family: sans-serif; font-size: 10px; fill: #000; opacity: 1;">0.8</text><text text-anchor="end" transform="translate(-7,372.2307692307692)" style="font-family: sans-serif; font-size: 10px; fill: #000; opacity: 1;">1.0</text><text text-anchor="end" transform="translate(-7,326.07692307692315)" style="font-family: sans-serif; font-size: 10px; fill: #000; opacity: 1;">1.2</text><text text-anchor="end" transform="translate(-7,279.92307692307696)" style="font-family: sans-serif; font-size: 10px; fill: #000; opacity: 1;">1.4</text><text text-anchor="end" transform="translate(-7,233.76923076923075)" style="font-family: sans-serif; font-size: 10px; fill: #000; opacity: 1;">1.6</text><text text-anchor="end" transform="translate(-7,187.6153846153846)" style="font-family: sans-serif; font-size: 10px; fill: #000; opacity: 1;">1.8</text><text text-anchor="end" transform="translate(-7,141.4615384615385)" style="font-family: sans-serif; font-size: 10px; fill: #000; opacity: 1;">2.0</text><text text-anchor="end" transform="translate(-7,95.3076923076923)" style="font-family: sans-serif; font-size: 10px; fill: #000; opacity: 1;">2.2</text><text text-anchor="end" transform="translate(-7,49.15384615384619)" style="font-family: sans-serif; font-size: 10px; fill: #000; opacity: 1;">2.4</text><text text-anchor="end" transform="translate(-7,3)" style="font-family: sans-serif; font-size: 10px; fill: #000; opacity: 1;">2.6</text></g><g class="mark-rule role-axis-domain" style="pointer-events: none;"><line transform="translate(0,600)" x2="0" y2="-600" style="fill: none; stroke: #888; stroke-width: 1; opacity: 1;"></line></g><g class="mark-text role-axis-title" style="pointer-events: none;"><text text-anchor="middle" transform="translate(-26,300) rotate(-90) translate(0,-2)" style="font-family: sans-serif; font-size: 11px; font-weight: bold; fill: #000; opacity: 1;">GFLOPS</text></g></g><path class="foreground" d="" style="pointer-events: none; display: none; fill: none;"></path></g></g><g class="mark-group role-scope pathgroup"><g transform="translate(0,0)"><path class="background" d="M0,0h900v600h-900Z" style="fill: none;"></path><g><g class="mark-line role-mark marks"><path d="M6.923076923076923,565.983650792749L10.384615384615385,555.7128980883869L13.846153846153847,558.4101775362067L17.30769230769231,556.3618182721912L20.76923076923077,550.1323955662103L24.230769230769234,564.7582250321976L27.692307692307693,555.1143655167207L31.153846153846157,556.8000000000001L34.61538461538462,552.6637046879541L38.07692307692308,553.7060114535074L41.53846153846154,557.0984614897707L45,552.2827974615747L48.46153846153847,557.1794416800627L51.92307692307693,553.336633409861L55.38461538461539,551.2975511888777L58.84615384615385,551.7531661189042L62.307692307692314,555.2785325497209L65.76923076923077,548.5929482882598L69.23076923076924,552.7259536344939L72.6923076923077,548.5625537657949L76.15384615384616,552.2491928437308L79.61538461538461,553.2386514565414L83.07692307692308,550.0563833679914L86.53846153846155,553.1143204841103L90,558.9101692416075L93.46153846153847,552.5610113616647L96.92307692307693,551.1912971313835L100.38461538461539,546.9742987777349L103.84615384615385,554.8068564295745L107.3076923076923,553.916501852806L110.76923076923077,554.9782999221023L114.23076923076923,554.9814022609876L117.6923076923077,553.6546623073513L121.15384615384615,556.7144048246138L124.61538461538463,553.2375308937524L128.07692307692307,554.0161830240004L131.53846153846155,550.7546722400834L135,550.4504145090123L138.46153846153848,548.8055236016357L141.9230769230769,550.8920696480372L145.3846153846154,553.0302700413088L148.84615384615384,552.8703786257229L152.30769230769232,550.895540764668L155.76923076923077,552.1664304515084L159.23076923076923,552.4857884533237L162.69230769230768,552.4518176953134L166.15384615384616,550.0188360585653L169.6153846153846,551.2232941690662L173.0769230769231,555.6413735518213L176.53846153846155,556.8574530846316L180,553.518572420124L183.46153846153845,553.149374285021L186.92307692307693,554.2131994138653L190.3846153846154,554.5965210592437L193.84615384615387,553.9640783744558L197.3076923076923,557.4785733498721L200.76923076923077,554.8565536692333L204.23076923076923,553.1344803092908L207.6923076923077,555.5521401675247L211.15384615384616,555.2370051491223L214.6153846153846,556.5162520973284L218.07692307692307,553.6523954890632L221.53846153846155,555.156578280836L225,555.2456426941718L228.46153846153845,554.856076557437L231.9230769230769,551.9474216255151L235.3846153846154,555.4489289512331L238.84615384615384,556.1755839229965L242.3076923076923,552.2069273150812L245.76923076923075,550.4217641472543L249.23076923076925,554.328366481603L252.6923076923077,553.1524557016181L256.15384615384613,549.4973111994389L259.6153846153846,549.8159401508619L263.0769230769231,548.3323278908368L266.53846153846155,550.1746509281493L270,552.4179754315037L273.46153846153845,553.1035274260267L276.92307692307696,553.4583063994829L280.3846153846154,549.9938263983207L283.8461538461538,550.2595357199849L287.30769230769226,550.4748645020138L290.7692307692308,556.4321439548464L294.2307692307692,551.5262575609534L297.6923076923077,554.5392250915285L301.15384615384613,554.9157185145696L304.61538461538464,554.6616406359096L308.0769230769231,555.6668524752928L311.53846153846155,552.2817891562017L315,550.2606584303363L318.46153846153845,553.5905999882209L321.9230769230769,555.8235881765294L325.38461538461536,557.4678007748553L328.8461538461538,555.2719303939703L332.3076923076923,551.5437652824265L335.7692307692308,557.1529603601444L339.2307692307692,552.1052049766569L342.6923076923077,554.2232543727529L346.1538461538462,554.7087986958637L349.61538461538464,556.3932503845392L353.0769230769231,551.7917909507205L356.53846153846155,556.6605938645448L360,555.3877021125929L363.46153846153845,556.9991074866513L366.9230769230769,551.2909400862849L370.38461538461536,560.4182991167027L373.84615384615387,553.9430329334817L377.3076923076923,557.538601602862L380.7692307692308,556.1795749719565L384.2307692307692,556.9006428232452L387.69230769230774,558.6236993391285L391.1538461538462,559.6105105820678L394.6153846153846,558.397300939527L398.07692307692304,554.7858436862372L401.53846153846155,555.495666687138L405,553.6148890479599L408.46153846153845,558.1763793887005L411.9230769230769,557.93799857229L415.3846153846154,557.8119201580462L418.84615384615387,556.4250736070319L422.3076923076923,556.3680564850022L425.7692307692308,556.3677893402607L429.2307692307692,552.611811905616L432.6923076923077,555.735518790926L436.15384615384613,555.9154896518539L439.6153846153846,553.4939345896667L443.0769230769231,555.8553034947885L446.53846153846155,556.8464680270121L450,555.7271305707584L453.46153846153845,557.8323851510793L456.9230769230769,554.2831086963308L460.38461538461536,554.2763398454316L463.8461538461538,556.2760874040268L467.3076923076923,555.8359419099912L470.7692307692308,555.4694705773842L474.2307692307692,558.0047242431294L477.6923076923077,558.1950095303797L481.15384615384613,556.917349245161L484.6153846153846,554.2756018410208L488.07692307692304,556.7362248150392L491.5384615384615,557.4572570677813L495.00000000000006,557.1637827345155L498.4615384615385,554.9000250921725L501.92307692307696,554.1748309209279L505.3846153846154,553.4130299838886L508.8461538461538,557.2599537347492L512.3076923076923,555.38390487259L515.7692307692307,558.3188399723404L519.2307692307692,558.5078713385437L522.6923076923077,559.7531783070485L526.1538461538462,557.7276348822177L529.6153846153846,556.8320569975582L533.0769230769231,557.8739986816006L536.5384615384615,555.8771931760256L540,554.2320182408623L543.4615384615385,557.9689452079243L546.9230769230769,556.1429916892916L550.3846153846155,556.0986688874143L553.8461538461539,557.490147456051L557.3076923076924,556.6971490048413L560.7692307692308,556.2907213786881L564.2307692307692,557.3901298959961L567.6923076923076,553.4154009154399L571.1538461538461,559.4992636229749L574.6153846153845,556.1767081843957L578.0769230769231,557.1275205377148L581.5384615384615,556.6871451118978L585,562.2751015670342L588.4615384615385,559.2437838208097L591.9230769230769,557.500478501704L595.3846153846154,557.0368922338428L598.8461538461538,558.4047958709347L602.3076923076923,562.0689154035082L605.7692307692308,561.1050607872336L609.2307692307693,557.320263940473L612.6923076923077,559.1660963249487L616.1538461538462,559.8779809758516L619.6153846153846,560.508898367407L623.0769230769231,558.6187870706699L626.5384615384615,559.3447237986852L630,560.5818864382918L633.4615384615385,560.2346805736636L636.9230769230769,563.5460693153001L640.3846153846154,557.7471222364334L643.8461538461538,557.510317835006L647.3076923076923,561.2135123549828L650.7692307692307,563.3544932979007L654.2307692307692,556.6275013769047L657.6923076923076,557.6365663322185L661.1538461538462,558.8527603837537L664.6153846153846,557.045378276595L668.0769230769231,563.3065896041675L671.5384615384615,559.0849654823335L675,556.8965517241379L678.4615384615385,558.4695902756687L681.9230769230769,558.6412495801142L685.3846153846154,558.649495301079L688.8461538461538,561.1183837752291L692.3076923076924,558.5878455326638L695.7692307692308,559.6935910804524L699.2307692307693,559.866220735786L702.6923076923077,558.1132386926379L706.1538461538462,560.2558690781569L709.6153846153846,558.9983599343974L713.0769230769231,559.6276335129838L716.5384615384615,560.4264511894369L720,557.8688668480646L723.4615384615385,558.317544524441L726.9230769230769,560.4460182325021L730.3846153846154,560.2154524942334L733.8461538461538,561.1444071772878L737.3076923076923,559.9071401681515L740.7692307692307,558.8461538461538L744.2307692307692,557.8315616051465L747.6923076923077,560.7572399258748L751.1538461538462,559.1675447839831L754.6153846153846,560.6232840421945L758.0769230769231,558.9184998061604L761.5384615384615,563.7569740368141L765,560.4467194043741L768.4615384615385,559.8630764409518L771.9230769230769,563.2023321690823L775.3846153846155,563.9347605579378L778.8461538461539,557.1803752902218L782.3076923076924,560.0934683955572L785.7692307692308,562.2044622044622L789.2307692307692,561.6673578497854L792.6923076923076,560.2151969839992L796.1538461538461,560.4198933057994L799.6153846153845,560.4718283347974L803.0769230769231,562.9337707432418L806.5384615384615,561.6071183368578L810,561.8886301079823L813.4615384615385,561.2665029420975L816.9230769230769,562.5178675419556L820.3846153846154,557.8024012867004L823.8461538461538,561.2316814265004L827.3076923076923,557.4725528924002L830.7692307692308,562.4179850820279L834.2307692307693,560.0263173899341L837.6923076923077,560.4768904131962L841.1538461538462,562.1025051855626L844.6153846153846,561.5647151483329L848.0769230769231,562.057270291617L851.5384615384615,561.6786615571549L855,562.4851915229696L858.4615384615385,563.4261444077395L861.9230769230769,562.3499289336008L865.3846153846154,559.9164123585717L868.8461538461538,559.2263290700571L872.3076923076923,562.5562770241155L875.7692307692307,561.7876723708257L879.2307692307692,562.4212177103574L882.6923076923076,564.0282695481669L886.1538461538462,562.3833663948277" style="fill: none; stroke: #ff7f0e; stroke-width: 2;"></path></g></g><path class="foreground" d="" style="display: none; fill: none;"></path></g><g transform="translate(0,0)"><path class="background" d="M0,0h900v600h-900Z" style="fill: none;"></path><g><g class="mark-line role-mark marks"><path d="M6.923076923076923,561.6312787653388L10.384615384615385,556.4608307440244L13.846153846153847,554.4153899495917L17.30769230769231,552.6831863788385L20.76923076923077,551.8120913713778L24.230769230769234,551.3886622499266L27.692307692307693,550.6445152971321L31.153846153846157,549.8677228850651L34.61538461538462,549.9581719806242L38.07692307692308,549.7288962767805L41.53846153846154,549.3182402881399L45,549.5037795032653L48.46153846153847,549.466807098096L51.92307692307693,549.4817043713509L55.38461538461539,548.6072896479172L58.84615384615385,548.4923576694015L62.307692307692314,548.7290764989121L65.76923076923077,548.2199852688436L69.23076923076924,548.7780767310841L72.6923076923077,548.6290622679592L76.15384615384616,548.8021359503535L79.61538461538461,548.6172308453639L83.07692307692308,550.6763667239151L86.53846153846155,550.546680055336L90,550.6601364796961L93.46153846153847,550.5959926562995L96.92307692307693,550.1860668470584L100.38461538461539,550.2767313878992L103.84615384615385,550.0635080820559L107.3076923076923,550.0204458072169L110.76923076923077,549.6919141919345L114.23076923076923,549.3723221724124L117.6923076923077,549.5203863533832L121.15384615384615,549.4566930480656L124.61538461538463,549.3190383877348L128.07692307692307,549.3358585274597L131.53846153846155,549.1215715683675L135,549.4059484889563L138.46153846153848,548.942422480027L141.9230769230769,548.8053481093311L145.3846153846154,549.121744397335L148.84615384615384,548.9950147070248L152.30769230769232,548.679933854137L155.76923076923077,548.9158481567624L159.23076923076923,548.6860767159089L162.69230769230768,548.9725167943903L166.15384615384616,548.5537198518673L169.6153846153846,548.2695767063833L173.0769230769231,548.0743702478453L176.53846153846155,548.6576809894129L180,548.0690418498908L183.46153846153845,548.4606523047073L186.92307692307693,548.6678231354626L190.3846153846154,548.0418604162949L193.84615384615387,548.1473960070981L197.3076923076923,548.1722842996494L200.76923076923077,548.37424992496L204.23076923076923,548.1637946227762L207.6923076923077,548.4961815377945L211.15384615384616,548.1928054141846L214.6153846153846,547.9347831074849L218.07692307692307,548.118453871238L221.53846153846155,547.943202753829L225,547.9515205591493L228.46153846153845,548.1107120667673L231.9230769230769,548.0402431356109L235.3846153846154,548.2794244618678L238.84615384615384,547.9638009049773L242.3076923076923,547.8915105947801L245.76923076923075,548.0778487704732L249.23076923076925,547.7503628447024L252.6923076923077,548.0593642165694L256.15384615384613,548.0958610735584L259.6153846153846,547.9279132214541L263.0769230769231,547.4580301917448L266.53846153846155,547.8711841247166L270,547.7398282188798L273.46153846153845,547.8389649657782L276.92307692307696,547.6608389755546L280.3846153846154,547.5151779435383L283.8461538461538,547.8538154223452L287.30769230769226,547.793269734773L290.7692307692308,547.2192821651563L294.2307692307692,547.8969920293113L297.6923076923077,547.5282487283836L301.15384615384613,547.4439652264999L304.61538461538464,547.4722601171158L308.0769230769231,547.5164868528478L311.53846153846155,547.7107683828879L315,547.670724262095L318.46153846153845,547.6629913824081L321.9230769230769,547.1149699702119L325.38461538461536,547.353240156036L328.8461538461538,547.5952875952876L332.3076923076923,547.3949909956877L335.7692307692308,547.1390610836908L339.2307692307692,547.599590870904L342.6923076923077,547.437601995669L346.1538461538462,547.7563369628314L349.61538461538464,546.9378296817013L353.0769230769231,547.4747789992743L356.53846153846155,547.3919371119623L360,546.780130348158L363.46153846153845,546.8475559982904L366.9230769230769,547.0090571254402L370.38461538461536,547.2760198741482L373.84615384615387,546.9462603646692L377.3076923076923,547.3678562997618L380.7692307692308,547.6484709759821L384.2307692307692,547.2745313291674L387.69230769230774,547.1858659317398L391.1538461538462,547.0869189706663L394.6153846153846,547.403593469446L398.07692307692304,547.2657131701476L401.53846153846155,547.5926634748726L405,547.2747429338596L408.46153846153845,547.1834761864058L411.9230769230769,547.2116720058589L415.3846153846154,547.1325400138858L418.84615384615387,546.7191383213682L422.3076923076923,547.2685595628049L425.7692307692308,547.2565718473321L429.2307692307692,546.8010889781069L432.6923076923077,547.2921110665145L436.15384615384613,547.1395485705782L439.6153846153846,547.2490466403704L443.0769230769231,547.0520181772735L446.53846153846155,547.009054147468L450,547.1886570419907L453.46153846153845,547.2842402389967L456.9230769230769,546.6898449949298L460.38461538461536,547.2057614335536L463.8461538461538,547.0405075120931L467.3076923076923,547.1705059239328L470.7692307692308,547.0169464227805L474.2307692307692,547.1954579345758L477.6923076923077,546.9655244788142L481.15384615384613,547.0238270402491L484.6153846153846,547.0201921545193L488.07692307692304,547.0810529433926L491.5384615384615,546.5623925375943L495.00000000000006,546.6009370237266L498.4615384615385,546.9558417722747L501.92307692307696,546.9890134613222L505.3846153846154,547.1819746252162L508.8461538461538,546.811664849164L512.3076923076923,546.8681673972798L515.7692307692307,547.0429649235855L519.2307692307692,546.5512028678788L522.6923076923077,547.0068031659463L526.1538461538462,546.9125991465927L529.6153846153846,546.939849749789L533.0769230769231,546.9530385124493L536.5384615384615,546.7356283598032L540,546.4999664426313L543.4615384615385,546.5607418003519L546.9230769230769,546.5301124345987L550.3846153846155,546.761425371976L553.8461538461539,546.8769104285684L557.3076923076924,546.9046267933912L560.7692307692308,546.7471876738994L564.2307692307692,546.7058600978227L567.6923076923076,546.4773690988472L571.1538461538461,546.5507647540067L574.6153846153845,546.4200928549989L578.0769230769231,546.4612367284591L581.5384615384615,546.8436612370298L585,546.7884977156677L588.4615384615385,546.9803292566107L591.9230769230769,546.5096765506619L595.3846153846154,547.2129569134487L598.8461538461538,546.9926403190724L602.3076923076923,546.6859568031495L605.7692307692308,546.4012251148546L609.2307692307693,546.6100174801194L612.6923076923077,546.3655207546507L616.1538461538462,546.9277462012891L619.6153846153846,546.4257765484518L623.0769230769231,546.9455769011897L626.5384615384615,546.5028933114039L630,546.7241379310345L633.4615384615385,546.3662540374116L636.9230769230769,546.7935246980579L640.3846153846154,546.8858126367073L643.8461538461538,546.9335697476967L647.3076923076923,546.8548692686624L650.7692307692307,547.0527293392655L654.2307692307692,547.2000275915983L657.6923076923076,546.8157407898042L661.1538461538462,546.8414744115453L664.6153846153846,546.7978806478969L668.0769230769231,546.7640245504264L671.5384615384615,546.7675612169181L675,547.1570312632958L678.4615384615385,546.4496877227883L681.9230769230769,547.1279873901251L685.3846153846154,546.7977270110081L688.8461538461538,546.8774696403902L692.3076923076924,546.7972218265124L695.7692307692308,546.4002646900509L699.2307692307693,547.0947715588321L702.6923076923077,547.1197261813796L706.1538461538462,546.46906408331L709.6153846153846,547.0962685425907L713.0769230769231,547.113528995695L716.5384615384615,546.3728599304006L720,546.7780614218303L723.4615384615385,546.3818225282638L726.9230769230769,546.875292794903L730.3846153846154,546.7721163250765L733.8461538461538,546.577567058033L737.3076923076923,547.0214438923151L740.7692307692307,547.0852123538485L744.2307692307692,546.6749708572515L747.6923076923077,546.7265901181113L751.1538461538462,546.78329109785L754.6153846153846,547.090945863952L758.0769230769231,546.678137224666L761.5384615384615,546.4408230112651L765,546.8196037539103L768.4615384615385,546.8608418730183L771.9230769230769,546.9842633644619L775.3846153846155,546.7580719816856L778.8461538461539,546.8321703594562L782.3076923076924,546.9081986896714L785.7692307692308,546.7442730822297L789.2307692307692,546.4746850301276L792.6923076923076,546.6573491730725L796.1538461538461,546.7633670241494L799.6153846153845,546.8623481781376L803.0769230769231,546.6695273050487L806.5384615384615,546.878847293785L810,546.8765371372356L813.4615384615385,546.8377911667785L816.9230769230769,546.7420902977328L820.3846153846154,546.8593978893241L823.8461538461538,546.4582989636607L827.3076923076923,546.8652734548689L830.7692307692308,546.7301958405161L834.2307692307693,546.7948104703104L837.6923076923077,546.7878476930406L841.1538461538462,546.7556750124164L844.6153846153846,546.7388457172793L848.0769230769231,546.792338096686L851.5384615384615,546.9793305601655L855,546.509009009009L858.4615384615385,546.6876858586221L861.9230769230769,546.7307514030422L865.3846153846154,546.9203167795495L868.8461538461538,546.6392658470043L872.3076923076923,546.7894170062713L875.7692307692307,546.548919358587L879.2307692307692,546.9111632864916L882.6923076923076,546.6199620408619L886.1538461538462,546.6766647920182" style="fill: none; stroke: #1f77b4; stroke-width: 2;"></path></g></g><path class="foreground" d="" style="display: none; fill: none;"></path></g><g transform="translate(0,0)"><path class="background" d="M0,0h900v600h-900Z" style="fill: none;"></path><g><g class="mark-line role-mark marks"><path d="M6.923076923076923,564.7764000705178L10.384615384615385,557.6016766738417L13.846153846153847,555.8880461914541L17.30769230769231,554.2594718714122L20.76923076923077,553.8693350848047L24.230769230769234,553.0243674970884L27.692307692307693,382.2798143893646L31.153846153846157,447.3210643216536L34.61538461538462,465.1515356240457L38.07692307692308,482.9432986569891L41.53846153846154,495.5106327119979L45,503.78162106350027L48.46153846153847,511.44909024056926L51.92307692307693,515.263576924027L55.38461538461539,338.73205637244206L58.84615384615385,365.33021042730945L62.307692307692314,402.96010013395113L65.76923076923077,428.48649269197534L69.23076923076924,452.06241953847643L72.6923076923077,460.1217693448022L76.15384615384616,476.19089083271973L79.61538461538461,481.52205396461443L83.07692307692308,275.71812171401484L86.53846153846155,351.1194626579242L90,414.0202070599975L93.46153846153847,425.1722563957658L96.92307692307693,412.27339324416477L100.38461538461539,433.99056512948874L103.84615384615385,447.09863606692545L107.3076923076923,450.7443775736459L110.76923076923077,285.9488931222492L114.23076923076923,298.1725795096268L117.6923076923077,351.6929248598515L121.15384615384615,381.227946365561L124.61538461538463,386.0365353160742L128.07692307692307,403.4579524500238L131.53846153846155,428.79650050567204L135,435.9513930053349L138.46153846153848,238.57826268393137L141.9230769230769,291.20143056313265L145.3846153846154,342.106935497848L148.84615384615384,350.5195922883722L152.30769230769232,373.35164835164835L155.76923076923077,389.3626102627335L159.23076923076923,404.3896837251872L162.69230769230768,425.7781483646037L166.15384615384616,229.6277148484958L169.6153846153846,277.47986610545854L173.0769230769231,302.4963911692611L176.53846153846155,325.14122192119885L180,355.218333849489L183.46153846153845,369.6983867196633L186.92307692307693,393.8020326346611L190.3846153846154,404.7891155143196L193.84615384615387,228.9543043338041L197.3076923076923,261.87413167278936L200.76923076923077,290.1854283196345L204.23076923076923,324.92764941694406L207.6923076923077,346.19769411319646L211.15384615384616,352.15709159776867L214.6153846153846,369.12057332271064L218.07692307692307,383.99469383075933L221.53846153846155,222.11329927946682L225,308.1689029202841L228.46153846153845,280.0204133707578L231.9230769230769,299.50373675759516L235.3846153846154,327.43990703174376L238.84615384615384,345.84489096362444L242.3076923076923,362.88956457523636L245.76923076923075,374.82724902216427L249.23076923076925,225.08875739644972L252.6923076923077,248.73477829601325L256.15384615384613,287.68112730345325L259.6153846153846,301.11446096548775L263.0769230769231,311.46307202598035L266.53846153846155,329.88716483584733L270,343.4735580436752L273.46153846153845,359.40746533458923L276.92307692307696,251.45565574470717L280.3846153846154,236.08223152107044L283.8461538461538,280.4996210783593L287.30769230769226,280.5469365465289L290.7692307692308,303.16521262042346L294.2307692307692,319.8130622051628L297.6923076923077,334.4045718982041L301.15384615384613,348.46946148364816L304.61538461538464,218.0505065193156L308.0769230769231,230.91083801142972L311.53846153846155,249.37105254805704L315,285.0884582982309L318.46153846153845,297.47457032620133L321.9230769230769,322.46899537946206L325.38461538461536,328.24607738997724L328.8461538461538,336.8073158254732L332.3076923076923,230.56252618062373L335.7692307692308,246.36118330985494L339.2307692307692,267.71620900213185L342.6923076923077,286.1995836713154L346.1538461538462,287.50301095505887L349.61538461538464,301.2269594935291L353.0769230769231,333.2933060761014L356.53846153846155,332.3492474238269L360,219.38668177036976L363.46153846153845,229.69211556473493L366.9230769230769,251.25970550819582L370.38461538461536,266.3015898506503L373.84615384615387,290.3627496034511L377.3076923076923,311.8551345079911L380.7692307692308,319.8567138308093L384.2307692307692,325.50517054619985L387.69230769230774,226.80347140506328L391.1538461538462,239.18162466163832L394.6153846153846,281.8442103801906L398.07692307692304,270.48417684010906L401.53846153846155,275.27540976307165L405,303.0543572044867L408.46153846153845,307.26876953304827L411.9230769230769,318.51203784712095L415.3846153846154,211.81617898035796L418.84615384615387,207.08086158113608L422.3076923076923,248.18163092486208L425.7692307692308,264.92124380473894L429.2307692307692,280.73399437115376L432.6923076923077,290.3492730503353L436.15384615384613,299.5099640640313L439.6153846153846,311.14248185897975L443.0769230769231,210.3486509279279L446.53846153846155,219.60013376164082L450,252.41189732708008L453.46153846153845,302.86615471206164L456.9230769230769,280.1558640979212L460.38461538461536,284.99045850052147L463.8461538461538,302.83349322157983L467.3076923076923,300.6465343832286L470.7692307692308,198.55295938914472L474.2307692307692,226.0395584958928L477.6923076923077,240.03757436593247L481.15384615384613,264.02340768382663L484.6153846153846,259.8624957909049L488.07692307692304,283.83762885982486L491.5384615384615,296.91011730216496L495.00000000000006,304.4985914674876L498.4615384615385,225.28132033008242L501.92307692307696,224.29232447887193L505.3846153846154,242.7381685504469L508.8461538461538,241.7889413414669L512.3076923076923,248.5170525402592L515.7692307692307,273.1918180718708L519.2307692307692,278.10762239302204L522.6923076923077,294.27957159438637L526.1538461538462,206.07152045279136L529.6153846153846,221.7316781800239L533.0769230769231,224.2807141165172L536.5384615384615,225.44277057919734L540,257.91639989024054L543.4615384615385,255.81543093290685L546.9230769230769,283.105062028638L550.3846153846155,292.0370839929855L553.8461538461539,179.98613471973957L557.3076923076924,214.18643661634317L560.7692307692308,228.2667730851964L564.2307692307692,246.2860698452205L567.6923076923076,245.3643572379464L571.1538461538461,275.98030228374336L574.6153846153845,277.5631490182505L578.0769230769231,287.8942096105979L581.5384615384615,193.4793683138053L585,202.4948338212502L588.4615384615385,210.88799353265648L591.9230769230769,227.7438953330277L595.3846153846154,257.7605157747482L598.8461538461538,255.25280679361273L602.3076923076923,278.96371154976185L605.7692307692308,287.9103242874406L609.2307692307693,196.26343012438997L612.6923076923077,206.03973119799323L616.1538461538462,219.51416842753667L619.6153846153846,246.01466770966547L623.0769230769231,252.98211630037466L626.5384615384615,259.36388248019557L630,278.15952304501394L633.4615384615385,288.42467810572873L636.9230769230769,203.67422223792138L640.3846153846154,208.79441375248888L643.8461538461538,224.7327437143658L647.3076923076923,227.29659554098544L650.7692307692307,251.8101128194104L654.2307692307692,259.0255284256063L657.6923076923076,268.892857379955L661.1538461538462,287.1998195713795L664.6153846153846,183.0042647291107L668.0769230769231,225.59597621560684L671.5384615384615,242.52187956540757L675,254.02938190400988L678.4615384615385,264.19516675306835L681.9230769230769,263.1987752778678L685.3846153846154,297.10512797458307L688.8461538461538,280.9476478271963L692.3076923076924,211.24888961274957L695.7692307692308,198.2724963852758L699.2307692307693,231.3590823083237L702.6923076923077,249.60963763205945L706.1538461538462,276.3213185480389L709.6153846153846,285.60037485204447L713.0769230769231,262.5479236319981L716.5384615384615,274.3980682994136L720,203.54111526877796L723.4615384615385,208.0986887962439L726.9230769230769,214.7909151581905L730.3846153846154,238.52799694395634L733.8461538461538,245.66388035827296L737.3076923076923,243.5156837704029L740.7692307692307,256.44213690394866L744.2307692307692,264.5320677437181L747.6923076923077,210.0658114234938L751.1538461538462,199.47092468030715L754.6153846153846,221.75642501820988L758.0769230769231,239.3454305916434L761.5384615384615,237.3143275827616L765,252.93530532619542L768.4615384615385,248.8684221479736L771.9230769230769,256.98682886599477L775.3846153846155,190.33473730880067L778.8461538461539,210.55015676467323L782.3076923076924,221.55397306634703L785.7692307692308,275.6011874888354L789.2307692307692,239.09630174439982L792.6923076923076,239.26060238097187L796.1538461538461,268.18414978199536L799.6153846153845,287.8925854926618L803.0769230769231,174.65076354231252L806.5384615384615,189.1598384443261L810,215.8444941718714L813.4615384615385,237.98589949737445L816.9230769230769,217.04933573644277L820.3846153846154,253.61204838301978L823.8461538461538,248.0530779335688L827.3076923076923,260.21251910646214L830.7692307692308,179.32599257984404L834.2307692307693,211.4556668768182L837.6923076923077,220.15600905212983L841.1538461538462,220.97724995698945L844.6153846153846,238.56564062800726L848.0769230769231,228.39209723625774L851.5384615384615,250.82067584637076L855,252.89117682269836L858.4615384615385,177.24539400078768L861.9230769230769,194.5738829097696L865.3846153846154,196.02156581850753L868.8461538461538,263.89823213403264L872.3076923076923,221.26834864378637L875.7692307692307,229.06437240177632L879.2307692307692,237.76670337593185L882.6923076923076,242.3456669210627L886.1538461538462,176.8589503660448" style="fill: none; stroke: #aec7e8; stroke-width: 2;"></path></g></g><path class="foreground" d="" style="display: none; fill: none;"></path></g><g transform="translate(0,0)"><path class="background" d="M0,0h900v600h-900Z" style="fill: none;"></path><g><g class="mark-line role-mark marks"><path d="M6.923076923076923,533.9242013360672L10.384615384615385,489.0176831824796L13.846153846153847,448.35273154642306L17.30769230769231,417.2559148168905L20.76923076923077,380.60285460063625L24.230769230769234,456.34954328206953L27.692307692307693,317.9094994940819L31.153846153846157,390.0803162842823L34.61538461538462,415.7166574432762L38.07692307692308,342.75481061847466L41.53846153846154,320.0787677363616L45,296.8133535660091L48.46153846153847,273.3921815889029L51.92307692307693,244.77894986369563L55.38461538461539,241.33511028585968L58.84615384615385,298.2015902851484L62.307692307692314,281.2595370184175L65.76923076923077,263.83604871735776L69.23076923076924,249.13514273660525L72.6923076923077,246.04350567465312L76.15384615384616,212.15789721607237L79.61538461538461,192.43849172294202L83.07692307692308,145.96068628564936L86.53846153846155,268.1445355796941L90,363.15476897493767L93.46153846153847,298.22312737056484L96.92307692307693,211.9266182454483L100.38461538461539,214.09123031587924L103.84615384615385,200.76096329418874L107.3076923076923,152.71654795523986L110.76923076923077,156.70098322729905L114.23076923076923,217.73545153869387L117.6923076923077,239.90906901973003L121.15384615384615,229.0107662539248L124.61538461538463,182.77406655403828L128.07692307692307,173.35507673802672L131.53846153846155,156.73681418966353L135,159.73700996025707L138.46153846153848,89.59697614791612L141.9230769230769,188.71853062923634L145.3846153846154,189.47316769983144L148.84615384615384,171.20115339560869L152.30769230769232,164.16002545980132L155.76923076923077,153.06036975728438L159.23076923076923,142.8913498952409L162.69230769230768,159.05264579088006L166.15384615384616,87.84063870090861L169.6153846153846,166.54644811981947L173.0769230769231,183.4717109614617L176.53846153846155,127.71338250790296L180,139.5650161962055L183.46153846153845,130.891396784543L186.92307692307693,122.07713655447246L190.3846153846154,231.39761456879526L193.84615384615387,93.63135389336257L197.3076923076923,168.1851092531762L200.76923076923077,137.29093503952788L204.23076923076923,148.95209772730183L207.6923076923077,144.94703511069855L211.15384615384616,112.88382619675652L214.6153846153846,104.36396455266352L218.07692307692307,104.20041528634142L221.53846153846155,111.70412823497801L225,231.98377562881802L228.46153846153845,151.1854161625661L231.9230769230769,138.05188072247873L235.3846153846154,116.78581641406917L238.84615384615384,132.71225626930917L242.3076923076923,126.10803182459658L245.76923076923075,119.29554225246481L249.23076923076925,68.93172424539993L252.6923076923077,148.62154294939322L256.15384615384613,143.94110398956278L259.6153846153846,144.77593675811934L263.0769230769231,106.6376116801046L266.53846153846155,94.02557411618872L270,104.77035722209888L273.46153846153845,87.00292311615954L276.92307692307696,53.40327104840059L280.3846153846154,118.43217164603988L283.8461538461538,105.8520504450798L287.30769230769226,261.6875854355661L290.7692307692308,124.61881103306489L294.2307692307692,88.76933586092322L297.6923076923077,82.46931953984881L301.15384615384613,75.32053815148727L304.61538461538464,90.2759972411965L308.0769230769231,146.3650183313959L311.53846153846155,101.18007628550016L315,95.73540101768833L318.46153846153845,119.45719978825441L321.9230769230769,104.96451358520329L325.38461538461536,78.41618529474894L328.8461538461538,99.54237793197389L332.3076923076923,119.65111160954449L335.7692307692308,121.9815847490598L339.2307692307692,144.74026890914513L342.6923076923077,86.62659037854814L346.1538461538462,98.84550354456584L349.61538461538464,111.2280850702551L353.0769230769231,87.2913013646413L356.53846153846155,65.95696022652872L360,91.00588159532907L363.46153846153845,88.36314675899217L366.9230769230769,93.06764551651803L370.38461538461536,111.49914427124286L373.84615384615387,92.27911407477971L377.3076923076923,85.16738481935691L380.7692307692308,92.91393501962423L384.2307692307692,42.764107414482424L387.69230769230774,59.22365049448337L391.1538461538462,102.43161772915042L394.6153846153846,90.16501011469371L398.07692307692304,96.55758278968992L401.53846153846155,68.54609737039583L405,96.65001135589377L408.46153846153845,112.15153531038825L411.9230769230769,85.18108590051033L415.3846153846154,78.28313071317487L418.84615384615387,83.17859884419852L422.3076923076923,103.9125464851888L425.7692307692308,93.64750204017756L429.2307692307692,87.37368079051741L432.6923076923077,94.58560475600248L436.15384615384613,56.03644247570407L439.6153846153846,52.36413622421124L443.0769230769231,35.67287198366442L446.53846153846155,96.02826232830022L450,79.95838256299932L453.46153846153845,66.36271306190942L456.9230769230769,110.61790668348041L460.38461538461536,52.965444597243746L463.8461538461538,54.171386939069556L467.3076923076923,88.31596241654943L470.7692307692308,36.08097402560926L474.2307692307692,86.10332204910685L477.6923076923077,106.60888407367277L481.15384615384613,64.5394383269848L484.6153846153846,107.53996342300331L488.07692307692304,56.816502664356385L491.5384615384615,64.21414715886297L495.00000000000006,48.85880472124897L498.4615384615385,57.743361133360736L501.92307692307696,81.67202807161031L505.3846153846154,73.38118893958277L508.8461538461538,62.32224834844915L512.3076923076923,49.9824295729248L515.7692307692307,55.0157190256817L519.2307692307692,41.476137638903346L522.6923076923077,84.77242750590509L526.1538461538462,45.48676255993329L529.6153846153846,59.12513661465284L533.0769230769231,68.09783018157162L536.5384615384615,89.30281597329011L540,90.08498583569397L543.4615384615385,46.18915676108048L546.9230769230769,88.74165438379478L550.3846153846155,80.57322066382089L553.8461538461539,46.39159209589088L557.3076923076924,59.99085871909795L560.7692307692308,76.81520468094789L564.2307692307692,62.66098193485992L567.6923076923076,63.24930542423666L571.1538461538461,67.24141931933585L574.6153846153845,52.93161278982905L578.0769230769231,46.75396088166177L581.5384615384615,29.426248978858727L585,98.50045119167683L588.4615384615385,52.07007160642425L591.9230769230769,59.37770095073456L595.3846153846154,105.33602852755362L598.8461538461538,53.08531634793643L602.3076923076923,53.8887363795336L605.7692307692308,38.189285219879096L609.2307692307693,27.762008138395046L612.6923076923077,78.23862598209392L616.1538461538462,52.70599758922712L619.6153846153846,88.49384749348891L623.0769230769231,66.65117359981399L626.5384615384615,43.306251088832795L630,80.11942440512041L633.4615384615385,62.58713219418901L636.9230769230769,47.165899427206014L640.3846153846154,107.23867772870899L643.8461538461538,85.45998823969639L647.3076923076923,61.53052078442733L650.7692307692307,65.1598608770089L654.2307692307692,58.600845638405644L657.6923076923076,52.95550319677491L661.1538461538462,95.77752173111993L664.6153846153846,81.16319550107727L668.0769230769231,76.83619211862865L671.5384615384615,78.27863347362765L675,59.472930035511794L678.4615384615385,57.04073348748986L681.9230769230769,62.66386574456535L685.3846153846154,16.47333905704851L688.8461538461538,43.01032853500706L692.3076923076924,0.2695069880786827L695.7692307692308,69.22031647995361L699.2307692307693,102.40683799017593L702.6923076923077,78.02511594630386L706.1538461538462,20.147526401918547L709.6153846153846,16.983728887487317L713.0769230769231,14.425288486111377L716.5384615384615,50.6787113734666L720,89.28171850525845L723.4615384615385,113.84529962899057L726.9230769230769,62.12609690446551L730.3846153846154,73.45346869269744L733.8461538461538,34.14954222052924L737.3076923076923,27.875405469430458L740.7692307692307,20.664126947162664L744.2307692307692,25.475236888522623L747.6923076923077,51.274011860511216L751.1538461538462,64.26746862765597L754.6153846153846,63.11815036565902L758.0769230769231,87.97968797112023L761.5384615384615,56.952566320895045L765,46.57278704188181L768.4615384615385,51.960352975039534L771.9230769230769,34.99569765621744L775.3846153846155,32.89886448990409L778.8461538461539,92.71735602207252L782.3076923076924,83.18980197538073L785.7692307692308,50.640431233887284L789.2307692307692,48.36040453570334L792.6923076923076,52.88226566591019L796.1538461538461,75.07625761465697L799.6153846153845,99.58405749593327L803.0769230769231,24.726967746640604L806.5384615384615,60.220621617973656L810,50.5442498816848L813.4615384615385,89.58504512940404L816.9230769230769,39.38915060026391L820.3846153846154,45.69992739607376L823.8461538461538,51.57180861028885L827.3076923076923,50.91292402870615L830.7692307692308,40.654999958939264L834.2307692307693,52.87773685246413L837.6923076923077,48.50532631222426L841.1538461538462,46.58612141745033L844.6153846153846,78.98521663794085L848.0769230769231,9.427172908713954L851.5384615384615,15.774162807416436L855,18.856292975233302L858.4615384615385,15.949559944036707L861.9230769230769,28.776820902058063L865.3846153846154,64.51109671198284L868.8461538461538,58.34305663699235L872.3076923076923,33.932054959506885L875.7692307692307,20.315525783165334L879.2307692307692,52.220073133994035L882.6923076923076,4.83817246526399L886.1538461538462,55.90046781407192" style="fill: none; stroke: #2ca02c; stroke-width: 2;"></path></g></g><path class="foreground" d="" style="display: none; fill: none;"></path></g><g transform="translate(0,0)"><path class="background" d="M0,0h900v600h-900Z" style="fill: none;"></path><g><g class="mark-line role-mark marks"><path d="M6.923076923076923,550.3844912216805L10.384615384615385,499.59279299380825L13.846153846153847,466.0654493504174L17.30769230769231,432.41159711747946L20.76923076923077,399.0398570950095L24.230769230769234,449.9656721114512L27.692307692307693,327.01188686979094L31.153846153846157,395.5212226425392L34.61538461538462,480.56638129312546L38.07692307692308,350.3029660375072L41.53846153846154,327.8444133338378L45,304.90350531705394L48.46153846153847,282.2976216617323L51.92307692307693,260.2400350680956L55.38461538461539,253.24898118725164L58.84615384615385,300.21203910943575L62.307692307692314,282.8688447415497L65.76923076923077,262.46172833645835L69.23076923076924,253.0204259017819L72.6923076923077,248.5385118478643L76.15384615384616,214.22497100889063L79.61538461538461,194.8698337990881L83.07692307692308,150.1688555347091L86.53846153846155,278.03543545868655L90,328.5228046289993L93.46153846153847,270.97050195567147L96.92307692307693,206.6478355120541L100.38461538461539,226.39575561206706L103.84615384615385,212.6027042763796L107.3076923076923,149.12924145636492L110.76923076923077,167.85234233340248L114.23076923076923,220.46795993309368L117.6923076923077,232.87894759642458L121.15384615384615,251.8657944882492L124.61538461538463,187.2442701565141L128.07692307692307,175.4403194929852L131.53846153846155,155.85861940954646L135,160.98634962571555L138.46153846153848,87.1794871794872L141.9230769230769,197.6391995349341L145.3846153846154,200.3172085646312L148.84615384615384,177.18140682846567L152.30769230769232,166.69962428317183L155.76923076923077,158.2335914629939L159.23076923076923,148.55153386323326L162.69230769230768,151.2682050856014L166.15384615384616,99.9721091091649L169.6153846153846,166.04490121672984L173.0769230769231,178.1455362568719L176.53846153846155,133.03773070334842L180,139.04953094236194L183.46153846153845,152.99851663488027L186.92307692307693,146.51339443966174L190.3846153846154,192.29251323192383L193.84615384615387,95.53656220322881L197.3076923076923,165.5738752392904L200.76923076923077,137.99721405355206L204.23076923076923,152.3388360779205L207.6923076923077,140.48022025718927L211.15384615384616,113.54362304940564L214.6153846153846,107.1948959376265L218.07692307692307,107.09522860947138L221.53846153846155,114.04781911236721L225,201.1579285944033L228.46153846153845,151.83708637348954L231.9230769230769,146.52486362324805L235.3846153846154,118.69433947933086L238.84615384615384,139.39596292777367L242.3076923076923,132.69331612278654L245.76923076923075,126.2383356553761L249.23076923076925,67.78511511690164L252.6923076923077,149.47336113593897L256.15384615384613,143.20324410657426L259.6153846153846,152.989383497858L263.0769230769231,103.81229357838384L266.53846153846155,91.22441239162202L270,107.66515936914085L273.46153846153845,84.97428602691754L276.92307692307696,53.14238903714792L280.3846153846154,117.4295580801762L283.8461538461538,105.86505810386409L287.30769230769226,262.67927747405326L290.7692307692308,126.64529861878503L294.2307692307692,90.2425458854254L297.6923076923077,82.30601342700001L301.15384615384613,76.05209690866852L304.61538461538464,89.27996251939913L308.0769230769231,143.73327205151816L311.53846153846155,101.43381798058051L315,97.8161723896624L318.46153846153845,125.85301860043L321.9230769230769,165.22775678786428L325.38461538461536,79.40142583302429L328.8461538461538,97.97964161991646L332.3076923076923,59.66228893058157L335.7692307692308,148.36330700514344L339.2307692307692,143.62329553496994L342.6923076923077,86.5450100410373L346.1538461538462,99.47197414191584L349.61538461538464,109.72961464764748L353.0769230769231,84.62389945675311L356.53846153846155,65.77509849395065L360,120.39845315948253L363.46153846153845,88.34127679582812L366.9230769230769,93.53506988830433L370.38461538461536,111.3718208330955L373.84615384615387,132.27723931949282L377.3076923076923,82.96092872300589L380.7692307692308,96.67292007281563L384.2307692307692,43.44964993485394L387.69230769230774,59.784218320287685L391.1538461538462,94.97473770729582L394.6153846153846,90.88548350569943L398.07692307692304,100.17338254654875L401.53846153846155,68.30011331339507L405,97.96126401630988L408.46153846153845,114.08017476240092L411.9230769230769,85.78786053122607L415.3846153846154,73.63582171000142L418.84615384615387,83.2168883313147L422.3076923076923,107.44423497907398L425.7692307692308,122.89864766115555L429.2307692307692,87.37368079051741L432.6923076923077,112.03288193479199L436.15384615384613,55.446920224940975L439.6153846153846,51.66719997194655L443.0769230769231,35.97887065875764L446.53846153846155,98.92211968624783L450,83.86306356762813L453.46153846153845,66.30526888160817L456.9230769230769,111.5387762037521L460.38461538461536,61.5768599937466L463.8461538461538,53.93629753768299L467.3076923076923,89.4091974585158L470.7692307692308,36.73922925400266L474.2307692307692,83.82830763085734L477.6923076923077,108.0879675704541L481.15384615384613,104.32004779007326L484.6153846153846,110.93653819364653L488.07692307692304,96.7033661518043L491.5384615384615,64.8474215978793L495.00000000000006,49.60766330378075L498.4615384615385,54.99649560503859L501.92307692307696,82.03263255836572L505.3846153846154,78.41920887461681L508.8461538461538,63.47634258161505L512.3076923076923,50.43397427477292L515.7692307692307,55.94841408329307L519.2307692307692,44.97583568264189L522.6923076923077,83.92518848202377L526.1538461538462,46.789651817171205L529.6153846153846,60.55166800520049L533.0769230769231,68.36631560617063L536.5384615384615,55.45466398561707L540,91.51069131366975L543.4615384615385,48.265258260902776L546.9230769230769,59.22037944391789L550.3846153846155,82.27956180084217L553.8461538461539,45.48196079960014L557.3076923076924,59.8782512451578L560.7692307692308,91.84539947709965L564.2307692307692,63.18793911007039L567.6923076923076,63.20245559418689L571.1538461538461,82.4857360826072L574.6153846153845,53.28395567721071L578.0769230769231,73.06254634604043L581.5384615384615,29.452032573078533L585,97.339788779229L588.4615384615385,54.957042842926796L591.9230769230769,60.34270442203087L595.3846153846154,107.07033187191408L598.8461538461538,53.877408003010885L602.3076923076923,55.997823588572615L605.7692307692308,38.01269595646095L609.2307692307693,27.646098421739683L612.6923076923077,77.93550064596853L616.1538461538462,51.87867870915368L619.6153846153846,89.98286315992317L623.0769230769231,63.31592113535878L626.5384615384615,43.19925485752425L630,79.65269138525875L633.4615384615385,61.184612748492626L636.9230769230769,43.213935873518935L640.3846153846154,110.14509525147827L643.8461538461538,74.93044894523966L647.3076923076923,61.84301113242845L650.7692307692307,65.6780970033982L654.2307692307692,58.21137986438707L657.6923076923076,53.23063035359126L661.1538461538462,96.55741110725697L664.6153846153846,78.80951798684312L668.0769230769231,52.96689324661348L671.5384615384615,78.27351027874352L675,58.23758617244481L678.4615384615385,56.199579221242566L681.9230769230769,61.460869466478904L685.3846153846154,21.063134978229357L688.8461538461538,43.688560999633054L692.3076923076924,10.625783904238851L695.7692307692308,70.14242302200424L699.2307692307693,104.18594167126226L702.6923076923077,76.53344973647631L706.1538461538462,24.661141163632337L709.6153846153846,22.060659942270398L713.0769230769231,19.17519742614795L716.5384615384615,66.27492503293698L720,90.8368933554928L723.4615384615385,95.34163202752029L726.9230769230769,57.71270154119878L730.3846153846154,72.79611469099724L733.8461538461538,37.80713845711858L737.3076923076923,35.371563690518435L740.7692307692307,30.731730295856472L744.2307692307692,26.539363577068787L747.6923076923077,47.14979897995153L751.1538461538462,64.53223293874292L754.6153846153846,98.09401347700113L758.0769230769231,87.1453083331611L761.5384615384615,57.30013033710579L765,49.98869545557321L768.4615384615385,52.2250291152758L771.9230769230769,35.28135830524739L775.3846153846155,36.45299779502227L778.8461538461539,89.96611831660684L782.3076923076924,89.7043292500818L785.7692307692308,53.049505804294924L789.2307692307692,50.50112808786569L792.6923076923076,53.11494716639582L796.1538461538461,75.5387794524294L799.6153846153845,93.33984947707951L803.0769230769231,25.66691399288532L806.5384615384615,60.63359956056566L810,53.407376496645554L813.4615384615385,87.11594482552565L816.9230769230769,40.3442360905331L820.3846153846154,43.12858597650329L823.8461538461538,54.149682365187644L827.3076923076923,52.38139591390449L830.7692307692308,40.341547449629125L834.2307692307693,49.445214194368226L837.6923076923077,48.53423216020833L841.1538461538462,43.77738719109681L844.6153846153846,79.02668384979651L848.0769230769231,15.334384431428361L851.5384615384615,20.078513764802274L855,50.29065587576762L858.4615384615385,12.44443331371543L861.9230769230769,30.804945805260942L865.3846153846154,68.37376487410167L868.8461538461538,57.15822793114811L872.3076923076923,34.77205363443887L875.7692307692307,24.11958061728232L879.2307692307692,51.091812411695095L882.6923076923076,5.467441971276021L886.1538461538462,38.65624080485317" style="fill: none; stroke: #98df8a; stroke-width: 2;"></path></g></g><path class="foreground" d="" style="display: none; fill: none;"></path></g><g transform="translate(0,0)"><path class="background" d="M0,0h900v600h-900Z" style="fill: none;"></path><g><g class="mark-line role-mark marks"><path d="M6.923076923076923,560.378368731037L10.384615384615385,522.9483751542575L13.846153846153847,495.9429196396021L17.30769230769231,486.4789927425342L20.76923076923077,445.70766656656224L24.230769230769234,454.12914844352974L27.692307692307693,389.9660981314551L31.153846153846157,448.45962635113096L34.61538461538462,464.26139429027387L38.07692307692308,400.97919659997825L41.53846153846154,392.82666359128126L45,364.6088595664467L48.46153846153847,355.73426573426576L51.92307692307693,324.93820210969426L55.38461538461539,352.373961634092L58.84615384615385,383.3190575420923L62.307692307692314,366.1587059150235L65.76923076923077,359.54556994160953L69.23076923076924,349.5488781615163L72.6923076923077,326.9078747339617L76.15384615384616,334.11292180005734L79.61538461538461,301.3880758172995L83.07692307692308,290.04740563087444L86.53846153846155,364.65621534428874L90,385.9140787491931L93.46153846153847,370.0183483097012L96.92307692307693,310.14311995260516L100.38461538461539,326.3286885556552L103.84615384615385,317.4022698612862L107.3076923076923,285.37860338098784L110.76923076923077,305.8792768793969L114.23076923076923,310.6904015765838L117.6923076923077,333.987901154318L121.15384615384615,330.4350967182617L124.61538461538463,309.20446611715164L128.07692307692307,270.439539147154L131.53846153846155,288.61266138308355L135,289.2674971373052L138.46153846153848,240.0639645364227L141.9230769230769,293.86513359691315L145.3846153846154,322.84566208427293L148.84615384615384,278.75395839179055L152.30769230769232,286.642768265917L155.76923076923077,271.9744600131025L159.23076923076923,258.72008837271795L162.69230769230768,294.23601041248094L166.15384615384616,234.14316203816117L169.6153846153846,283.0603347200389L173.0769230769231,272.22530301829994L176.53846153846155,255.17390080708861L180,264.6969441161574L183.46153846153845,256.55759279037846L186.92307692307693,274.46552499483454L190.3846153846154,310.0005858574023L193.84615384615387,241.4673814830432L197.3076923076923,273.70559353037453L200.76923076923077,257.6727528285068L204.23076923076923,283.66781419748963L207.6923076923077,290.9675448220312L211.15384615384616,247.10655512810783L214.6153846153846,240.4664889083075L218.07692307692307,249.082607481906L221.53846153846155,235.2231160326066L225,326.20019292127324L228.46153846153845,262.23668028722176L231.9230769230769,249.21342293237055L235.3846153846154,257.3489875324596L238.84615384615384,262.72912423625246L242.3076923076923,261.3262599469496L245.76923076923075,255.47184267654194L249.23076923076925,224.65245597775714L252.6923076923077,252.4424363262156L256.15384615384613,269.1130120886247L259.6153846153846,261.6629073656374L263.0769230769231,240.2441556284516L266.53846153846155,229.55773126266038L270,224.56458865502748L273.46153846153845,227.84344920849577L276.92307692307696,240.0491008072428L280.3846153846154,247.8747881555408L283.8461538461538,261.5228006197249L287.30769230769226,235.07318929331606L290.7692307692308,232.48554194390888L294.2307692307692,231.97101190205825L297.6923076923077,224.1128778442211L301.15384615384613,236.91063577113928L304.61538461538464,243.47043193746018L308.0769230769231,256.8069488366249L311.53846153846155,232.66067984320875L315,244.0677966101695L318.46153846153845,244.45820384700653L321.9230769230769,245.27576844746486L325.38461538461536,242.94444795795485L328.8461538461538,215.6041486294951L332.3076923076923,239.45513990306452L335.7692307692308,263.3064110648276L339.2307692307692,258.84368592907583L342.6923076923077,271.52532808146145L346.1538461538462,242.38531551550943L349.61538461538464,242.47636793584178L353.0769230769231,254.42412699441238L356.53846153846155,230.9792904569225L360,249.5826227448164L363.46153846153845,238.43501407201018L366.9230769230769,246.69160419005027L370.38461538461536,236.56021252160596L373.84615384615387,238.75307299330103L377.3076923076923,245.55646315433358L380.7692307692308,241.69381107491853L384.2307692307692,216.52207087548743L387.69230769230774,239.19920533510316L391.1538461538462,259.3822412219687L394.6153846153846,266.3236395413179L398.07692307692304,240.8783628371128L401.53846153846155,223.20287340158146L405,251.2111556971644L408.46153846153845,219.19382574381206L411.9230769230769,231.05247712977018L415.3846153846154,243.8489308525409L418.84615384615387,223.02275415321785L422.3076923076923,230.69183646083317L425.7692307692308,238.61704183415063L429.2307692307692,241.43631209406368L432.6923076923077,224.60564242229722L436.15384615384613,212.88650398212226L439.6153846153846,224.9154205806872L443.0769230769231,234.71670791738316L446.53846153846155,236.37760734555317L450,234.4235383255462L453.46153846153845,252.6611442860651L456.9230769230769,223.77776160474906L460.38461538461536,222.93022199066908L463.8461538461538,240.69453706364732L467.3076923076923,212.7046444588387L470.7692307692308,214.7658996742213L474.2307692307692,241.86003782073269L477.6923076923077,236.38160169952076L481.15384615384613,238.4912203226635L484.6153846153846,222.1000924079568L488.07692307692304,233.60000289334062L491.5384615384615,225.7618184813046L495.00000000000006,218.69206074378678L498.4615384615385,228.88197085088274L501.92307692307696,234.02160851654642L505.3846153846154,237.9782675369818L508.8461538461538,219.9439871764854L512.3076923076923,197.38338560975086L515.7692307692307,215.8748972967149L519.2307692307692,213.80630141850963L522.6923076923077,214.68350285783433L526.1538461538462,219.3969129980595L529.6153846153846,229.03063889593125L533.0769230769231,220.25506622725257L536.5384615384615,196.50202925463432L540,219.87751608851732L543.4615384615385,200.2791004868279L546.9230769230769,222.05911265482666L550.3846153846155,209.74352099167757L553.8461538461539,210.8358324614122L557.3076923076924,238.12314937233253L560.7692307692308,225.23280813995282L564.2307692307692,213.41195052559877L567.6923076923076,208.7368593060624L571.1538461538461,227.94753971743194L574.6153846153845,208.33709821013332L578.0769230769231,212.39404114354838L581.5384615384615,211.5910097594223L585,207.30149916712932L588.4615384615385,195.51953413584806L591.9230769230769,204.3703954237313L595.3846153846154,218.74226235066837L598.8461538461538,211.2972851522351L602.3076923076923,225.8260216826846L605.7692307692308,219.84246352317302L609.2307692307693,218.63488624051996L612.6923076923077,218.21813219324076L616.1538461538462,228.99295861735573L619.6153846153846,229.6513067051585L623.0769230769231,223.32328520969372L626.5384615384615,213.90378492940306L630,215.23745661091826L633.4615384615385,222.1042503365399L636.9230769230769,219.32481970862617L640.3846153846154,222.4966599977401L643.8461538461538,226.09426062761665L647.3076923076923,212.36922777480413L650.7692307692307,228.17825886688158L654.2307692307692,209.94440048311196L657.6923076923076,202.03864907489555L661.1538461538462,211.7332081618479L664.6153846153846,197.04472903727287L668.0769230769231,226.652205032677L671.5384615384615,219.46362017039968L675,216.61788557260303L678.4615384615385,213.33268101198064L681.9230769230769,212.24842849687718L685.3846153846154,205.3021581637872L688.8461538461538,207.10647206827127L692.3076923076924,204.09676290035137L695.7692307692308,219.01839719853217L699.2307692307693,209.411494428916L702.6923076923077,214.95495948659257L706.1538461538462,204.85222836556215L709.6153846153846,200.94346476501696L713.0769230769231,199.53977463499547L716.5384615384615,215.9747792738849L720,212.76790276171778L723.4615384615385,218.12906697512193L726.9230769230769,214.9294492489759L730.3846153846154,220.61936939977164L733.8461538461538,212.3569449669938L737.3076923076923,197.20541865436334L740.7692307692307,202.26204167405433L744.2307692307692,191.39526204132952L747.6923076923077,223.09957907539678L751.1538461538462,216.06438759375416L754.6153846153846,217.51599528420599L758.0769230769231,230.88471584883152L761.5384615384615,216.65805578396635L765,225.831695942926L768.4615384615385,198.8380346913031L771.9230769230769,190.19936132727972L775.3846153846155,206.77192476731386L778.8461538461539,236.14632241597698L782.3076923076924,228.36048821080408L785.7692307692308,227.97798747563272L789.2307692307692,218.36293508351736L792.6923076923076,201.09938291975305L796.1538461538461,171.79494090256023L799.6153846153845,252.65025660802752L803.0769230769231,180.1588682482179L806.5384615384615,204.2117156096016L810,215.06024096385542L813.4615384615385,235.58962720022944L816.9230769230769,184.65174227083526L820.3846153846154,217.21840077034324L823.8461538461538,190.79320953089902L827.3076923076923,198.82181685848155L830.7692307692308,199.61247820189882L834.2307692307693,227.08822155826763L837.6923076923077,223.43522387984635L841.1538461538462,220.09917678383857L844.6153846153846,225.87466548867863L848.0769230769231,178.40994804164018L851.5384615384615,207.5494482036461L855,188.53075544561955L858.4615384615385,192.5872553823097L861.9230769230769,202.85802503044988L865.3846153846154,189.3975251004339L868.8461538461538,188.2692323736533L872.3076923076923,195.22017848700585L875.7692307692307,185.87989986852787L879.2307692307692,182.8451127357385L882.6923076923076,182.1435577740481L886.1538461538462,202.68392044092977" style="fill: none; stroke: #ffbb78; stroke-width: 2;"></path></g></g><path class="foreground" d="" style="display: none; fill: none;"></path></g></g><g class="mark-group role-legend"><g transform="translate(918,0)"><path class="background" d="M0,0h101v92h-101Z" style="pointer-events: none; fill: none;"></path><g><g class="mark-group role-legend-entry"><g transform="translate(0,16)"><path class="background" d="M0,0h0v0h0Z" style="pointer-events: none; fill: none;"></path><g><g class="mark-group role-scope"><g transform="translate(0,0)"><path class="background" d="M0,0h101v11h-101Z" style="pointer-events: none; fill: none; opacity: 1;"></path><g><g class="mark-symbol role-legend-symbol" style="pointer-events: none;"><path transform="translate(6,6)" d="M-5,0L5,0" style="fill: none; stroke: #1f77b4; stroke-width: 1.5; opacity: 1;"></path></g><g class="mark-text role-legend-label" style="pointer-events: none;"><text text-anchor="start" transform="translate(16,9)" style="font-family: sans-serif; font-size: 10px; fill: #000; opacity: 1;">Clang-Polly</text></g></g><path class="foreground" d="" style="pointer-events: none; display: none; fill: none;"></path></g><g transform="translate(0,13)"><path class="background" d="M0,0h101v11h-101Z" style="pointer-events: none; fill: none; opacity: 1;"></path><g><g class="mark-symbol role-legend-symbol" style="pointer-events: none;"><path transform="translate(6,6)" d="M-5,0L5,0" style="fill: none; stroke: #aec7e8; stroke-width: 1.5; opacity: 1;"></path></g><g class="mark-text role-legend-label" style="pointer-events: none;"><text text-anchor="start" transform="translate(16,9)" style="font-family: sans-serif; font-size: 10px; fill: #000; opacity: 1;">GFortran</text></g></g><path class="foreground" d="" style="pointer-events: none; display: none; fill: none;"></path></g><g transform="translate(0,26)"><path class="background" d="M0,0h101v11h-101Z" style="pointer-events: none; fill: none; opacity: 1;"></path><g><g class="mark-symbol role-legend-symbol" style="pointer-events: none;"><path transform="translate(6,6)" d="M-5,0L5,0" style="fill: none; stroke: #ff7f0e; stroke-width: 1.5; opacity: 1;"></path></g><g class="mark-text role-legend-label" style="pointer-events: none;"><text text-anchor="start" transform="translate(16,9)" style="font-family: sans-serif; font-size: 10px; fill: #000; opacity: 1;">Julia</text></g></g><path class="foreground" d="" style="pointer-events: none; display: none; fill: none;"></path></g><g transform="translate(0,39)"><path class="background" d="M0,0h101v11h-101Z" style="pointer-events: none; fill: none; opacity: 1;"></path><g><g class="mark-symbol role-legend-symbol" style="pointer-events: none;"><path transform="translate(6,6)" d="M-5,0L5,0" style="fill: none; stroke: #ffbb78; stroke-width: 1.5; opacity: 1;"></path></g><g class="mark-text role-legend-label" style="pointer-events: none;"><text text-anchor="start" transform="translate(16,9)" style="font-family: sans-serif; font-size: 10px; fill: #000; opacity: 1;">LoopVectorization</text></g></g><path class="foreground" d="" style="pointer-events: none; display: none; fill: none;"></path></g><g transform="translate(0,52)"><path class="background" d="M0,0h101v11h-101Z" style="pointer-events: none; fill: none; opacity: 1;"></path><g><g class="mark-symbol role-legend-symbol" style="pointer-events: none;"><path transform="translate(6,6)" d="M-5,0L5,0" style="fill: none; stroke: #2ca02c; stroke-width: 1.5; opacity: 1;"></path></g><g class="mark-text role-legend-label" style="pointer-events: none;"><text text-anchor="start" transform="translate(16,9)" style="font-family: sans-serif; font-size: 10px; fill: #000; opacity: 1;">icc</text></g></g><path class="foreground" d="" style="pointer-events: none; display: none; fill: none;"></path></g><g transform="translate(0,65)"><path class="background" d="M0,0h101v11h-101Z" style="pointer-events: none; fill: none; opacity: 1;"></path><g><g class="mark-symbol role-legend-symbol" style="pointer-events: none;"><path transform="translate(6,6)" d="M-5,0L5,0" style="fill: none; stroke: #98df8a; stroke-width: 1.5; opacity: 1;"></path></g><g class="mark-text role-legend-label" style="pointer-events: none;"><text text-anchor="start" transform="translate(16,9)" style="font-family: sans-serif; font-size: 10px; fill: #000; opacity: 1;">ifort</text></g></g><path class="foreground" d="" style="pointer-events: none; display: none; fill: none;"></path></g></g></g><path class="foreground" d="" style="pointer-events: none; display: none; fill: none;"></path></g></g><g class="mark-text role-legend-title" style="pointer-events: none;"><text text-anchor="start" transform="translate(0,9)" style="font-family: sans-serif; font-size: 11px; font-weight: bold; fill: #000; opacity: 1;">Method</text></g></g><path class="foreground" d="" style="pointer-events: none; display: none; fill: none;"></path></g></g></g><path class="foreground" d="" style="display: none; fill: none;"></path></g></g></g></svg>
