<?xml version="1.0" encoding="utf-8"?>
<!DOCTYPE svg PUBLIC "-//W3C//DTD SVG 1.1//EN" "http://www.w3.org/Graphics/SVG/1.1/DTD/svg11.dtd">
<svg class="marks" width="1066" height="647" viewBox="0 0 1066 647" version="1.1" xmlns="http://www.w3.org/2000/svg" xmlns:xlink="http://www.w3.org/1999/xlink"><rect width="1066" height="647" style="fill: white;"></rect><g transform="translate(42,10)"><g class="mark-group role-frame root"><g transform="translate(0,0)"><path class="background" d="M0.5,0.5h900v600h-900Z" style="fill: none; stroke: #ddd;"></path><g><g class="mark-group role-axis"><g transform="translate(0.5,600.5)"><path class="background" d="M0,0h0v0h0Z" style="pointer-events: none; fill: none;"></path><g><g class="mark-rule role-axis-grid" style="pointer-events: none;"><line transform="translate(0,-600)" x2="0" y2="600" style="fill: none; stroke: #ddd; stroke-width: 1; opacity: 1;"></line><line transform="translate(35,-600)" x2="0" y2="600" style="fill: none; stroke: #ddd; stroke-width: 1; opacity: 1;"></line><line transform="translate(69,-600)" x2="0" y2="600" style="fill: none; stroke: #ddd; stroke-width: 1; opacity: 1;"></line><line transform="translate(104,-600)" x2="0" y2="600" style="fill: none; stroke: #ddd; stroke-width: 1; opacity: 1;"></line><line transform="translate(138,-600)" x2="0" y2="600" style="fill: none; stroke: #ddd; stroke-width: 1; opacity: 1;"></line><line transform="translate(173,-600)" x2="0" y2="600" style="fill: none; stroke: #ddd; stroke-width: 1; opacity: 1;"></line><line transform="translate(208,-600)" x2="0" y2="600" style="fill: none; stroke: #ddd; stroke-width: 1; opacity: 1;"></line><line transform="translate(242,-600)" x2="0" y2="600" style="fill: none; stroke: #ddd; stroke-width: 1; opacity: 1;"></line><line transform="translate(277,-600)" x2="0" y2="600" style="fill: none; stroke: #ddd; stroke-width: 1; opacity: 1;"></line><line transform="translate(312,-600)" x2="0" y2="600" style="fill: none; stroke: #ddd; stroke-width: 1; opacity: 1;"></line><line transform="translate(346,-600)" x2="0" y2="600" style="fill: none; stroke: #ddd; stroke-width: 1; opacity: 1;"></line><line transform="translate(381,-600)" x2="0" y2="600" style="fill: none; stroke: #ddd; stroke-width: 1; opacity: 1;"></line><line transform="translate(415,-600)" x2="0" y2="600" style="fill: none; stroke: #ddd; stroke-width: 1; opacity: 1;"></line><line transform="translate(450,-600)" x2="0" y2="600" style="fill: none; stroke: #ddd; stroke-width: 1; opacity: 1;"></line><line transform="translate(485,-600)" x2="0" y2="600" style="fill: none; stroke: #ddd; stroke-width: 1; opacity: 1;"></line><line transform="translate(519,-600)" x2="0" y2="600" style="fill: none; stroke: #ddd; stroke-width: 1; opacity: 1;"></line><line transform="translate(554,-600)" x2="0" y2="600" style="fill: none; stroke: #ddd; stroke-width: 1; opacity: 1;"></line><line transform="translate(588,-600)" x2="0" y2="600" style="fill: none; stroke: #ddd; stroke-width: 1; opacity: 1;"></line><line transform="translate(623,-600)" x2="0" y2="600" style="fill: none; stroke: #ddd; stroke-width: 1; opacity: 1;"></line><line transform="translate(658,-600)" x2="0" y2="600" style="fill: none; stroke: #ddd; stroke-width: 1; opacity: 1;"></line><line transform="translate(692,-600)" x2="0" y2="600" style="fill: none; stroke: #ddd; stroke-width: 1; opacity: 1;"></line><line transform="translate(727,-600)" x2="0" y2="600" style="fill: none; stroke: #ddd; stroke-width: 1; opacity: 1;"></line><line transform="translate(762,-600)" x2="0" y2="600" style="fill: none; stroke: #ddd; stroke-width: 1; opacity: 1;"></line><line transform="translate(796,-600)" x2="0" y2="600" style="fill: none; stroke: #ddd; stroke-width: 1; opacity: 1;"></line><line transform="translate(831,-600)" x2="0" y2="600" style="fill: none; stroke: #ddd; stroke-width: 1; opacity: 1;"></line><line transform="translate(865,-600)" x2="0" y2="600" style="fill: none; stroke: #ddd; stroke-width: 1; opacity: 1;"></line><line transform="translate(900,-600)" x2="0" y2="600" style="fill: none; stroke: #ddd; stroke-width: 1; opacity: 1;"></line></g></g><path class="foreground" d="" style="pointer-events: none; display: none; fill: none;"></path></g></g><g class="mark-group role-axis"><g transform="translate(0.5,0.5)"><path class="background" d="M0,0h0v0h0Z" style="pointer-events: none; fill: none;"></path><g><g class="mark-rule role-axis-grid" style="pointer-events: none;"><line transform="translate(0,600)" x2="900" y2="0" style="fill: none; stroke: #ddd; stroke-width: 1; opacity: 1;"></line><line transform="translate(0,554)" x2="900" y2="0" style="fill: none; stroke: #ddd; stroke-width: 1; opacity: 1;"></line><line transform="translate(0,508)" x2="900" y2="0" style="fill: none; stroke: #ddd; stroke-width: 1; opacity: 1;"></line><line transform="translate(0,462)" x2="900" y2="0" style="fill: none; stroke: #ddd; stroke-width: 1; opacity: 1;"></line><line transform="translate(0,415)" x2="900" y2="0" style="fill: none; stroke: #ddd; stroke-width: 1; opacity: 1;"></line><line transform="translate(0,369)" x2="900" y2="0" style="fill: none; stroke: #ddd; stroke-width: 1; opacity: 1;"></line><line transform="translate(0,323)" x2="900" y2="0" style="fill: none; stroke: #ddd; stroke-width: 1; opacity: 1;"></line><line transform="translate(0,277)" x2="900" y2="0" style="fill: none; stroke: #ddd; stroke-width: 1; opacity: 1;"></line><line transform="translate(0,231)" x2="900" y2="0" style="fill: none; stroke: #ddd; stroke-width: 1; opacity: 1;"></line><line transform="translate(0,185)" x2="900" y2="0" style="fill: none; stroke: #ddd; stroke-width: 1; opacity: 1;"></line><line transform="translate(0,138)" x2="900" y2="0" style="fill: none; stroke: #ddd; stroke-width: 1; opacity: 1;"></line><line transform="translate(0,92)" x2="900" y2="0" style="fill: none; stroke: #ddd; stroke-width: 1; opacity: 1;"></line><line transform="translate(0,46)" x2="900" y2="0" style="fill: none; stroke: #ddd; stroke-width: 1; opacity: 1;"></line><line transform="translate(0,0)" x2="900" y2="0" style="fill: none; stroke: #ddd; stroke-width: 1; opacity: 1;"></line></g></g><path class="foreground" d="" style="pointer-events: none; display: none; fill: none;"></path></g></g><g class="mark-group role-axis"><g transform="translate(0.5,600.5)"><path class="background" d="M0,0h0v0h0Z" style="pointer-events: none; fill: none;"></path><g><g class="mark-rule role-axis-tick" style="pointer-events: none;"><line transform="translate(0,0)" x2="0" y2="5" style="fill: none; stroke: #888; stroke-width: 1; opacity: 1;"></line><line transform="translate(35,0)" x2="0" y2="5" style="fill: none; stroke: #888; stroke-width: 1; opacity: 1;"></line><line transform="translate(69,0)" x2="0" y2="5" style="fill: none; stroke: #888; stroke-width: 1; opacity: 1;"></line><line transform="translate(104,0)" x2="0" y2="5" style="fill: none; stroke: #888; stroke-width: 1; opacity: 1;"></line><line transform="translate(138,0)" x2="0" y2="5" style="fill: none; stroke: #888; stroke-width: 1; opacity: 1;"></line><line transform="translate(173,0)" x2="0" y2="5" style="fill: none; stroke: #888; stroke-width: 1; opacity: 1;"></line><line transform="translate(208,0)" x2="0" y2="5" style="fill: none; stroke: #888; stroke-width: 1; opacity: 1;"></line><line transform="translate(242,0)" x2="0" y2="5" style="fill: none; stroke: #888; stroke-width: 1; opacity: 1;"></line><line transform="translate(277,0)" x2="0" y2="5" style="fill: none; stroke: #888; stroke-width: 1; opacity: 1;"></line><line transform="translate(312,0)" x2="0" y2="5" style="fill: none; stroke: #888; stroke-width: 1; opacity: 1;"></line><line transform="translate(346,0)" x2="0" y2="5" style="fill: none; stroke: #888; stroke-width: 1; opacity: 1;"></line><line transform="translate(381,0)" x2="0" y2="5" style="fill: none; stroke: #888; stroke-width: 1; opacity: 1;"></line><line transform="translate(415,0)" x2="0" y2="5" style="fill: none; stroke: #888; stroke-width: 1; opacity: 1;"></line><line transform="translate(450,0)" x2="0" y2="5" style="fill: none; stroke: #888; stroke-width: 1; opacity: 1;"></line><line transform="translate(485,0)" x2="0" y2="5" style="fill: none; stroke: #888; stroke-width: 1; opacity: 1;"></line><line transform="translate(519,0)" x2="0" y2="5" style="fill: none; stroke: #888; stroke-width: 1; opacity: 1;"></line><line transform="translate(554,0)" x2="0" y2="5" style="fill: none; stroke: #888; stroke-width: 1; opacity: 1;"></line><line transform="translate(588,0)" x2="0" y2="5" style="fill: none; stroke: #888; stroke-width: 1; opacity: 1;"></line><line transform="translate(623,0)" x2="0" y2="5" style="fill: none; stroke: #888; stroke-width: 1; opacity: 1;"></line><line transform="translate(658,0)" x2="0" y2="5" style="fill: none; stroke: #888; stroke-width: 1; opacity: 1;"></line><line transform="translate(692,0)" x2="0" y2="5" style="fill: none; stroke: #888; stroke-width: 1; opacity: 1;"></line><line transform="translate(727,0)" x2="0" y2="5" style="fill: none; stroke: #888; stroke-width: 1; opacity: 1;"></line><line transform="translate(762,0)" x2="0" y2="5" style="fill: none; stroke: #888; stroke-width: 1; opacity: 1;"></line><line transform="translate(796,0)" x2="0" y2="5" style="fill: none; stroke: #888; stroke-width: 1; opacity: 1;"></line><line transform="translate(831,0)" x2="0" y2="5" style="fill: none; stroke: #888; stroke-width: 1; opacity: 1;"></line><line transform="translate(865,0)" x2="0" y2="5" style="fill: none; stroke: #888; stroke-width: 1; opacity: 1;"></line><line transform="translate(900,0)" x2="0" y2="5" style="fill: none; stroke: #888; stroke-width: 1; opacity: 1;"></line></g><g class="mark-text role-axis-label" style="pointer-events: none;"><text text-anchor="start" transform="translate(0,15)" style="font-family: sans-serif; font-size: 10px; fill: #000; opacity: 1;">0</text><text text-anchor="middle" transform="translate(34.61538461538462,15)" style="font-family: sans-serif; font-size: 10px; fill: #000; opacity: 1;">10</text><text text-anchor="middle" transform="translate(69.23076923076924,15)" style="font-family: sans-serif; font-size: 10px; fill: #000; opacity: 1;">20</text><text text-anchor="middle" transform="translate(103.84615384615385,15)" style="font-family: sans-serif; font-size: 10px; fill: #000; opacity: 1;">30</text><text text-anchor="middle" transform="translate(138.46153846153848,15)" style="font-family: sans-serif; font-size: 10px; fill: #000; opacity: 1;">40</text><text text-anchor="middle" transform="translate(173.0769230769231,15)" style="font-family: sans-serif; font-size: 10px; fill: #000; opacity: 1;">50</text><text text-anchor="middle" transform="translate(207.6923076923077,15)" style="font-family: sans-serif; font-size: 10px; fill: #000; opacity: 1;">60</text><text text-anchor="middle" transform="translate(242.3076923076923,15)" style="font-family: sans-serif; font-size: 10px; fill: #000; opacity: 1;">70</text><text text-anchor="middle" transform="translate(276.92307692307696,15)" style="font-family: sans-serif; font-size: 10px; fill: #000; opacity: 1;">80</text><text text-anchor="middle" transform="translate(311.53846153846155,15)" style="font-family: sans-serif; font-size: 10px; fill: #000; opacity: 1;">90</text><text text-anchor="middle" transform="translate(346.1538461538462,15)" style="font-family: sans-serif; font-size: 10px; fill: #000; opacity: 1;">100</text><text text-anchor="middle" transform="translate(380.7692307692308,15)" style="font-family: sans-serif; font-size: 10px; fill: #000; opacity: 1;">110</text><text text-anchor="middle" transform="translate(415.3846153846154,15)" style="font-family: sans-serif; font-size: 10px; fill: #000; opacity: 1;">120</text><text text-anchor="middle" transform="translate(450,15)" style="font-family: sans-serif; font-size: 10px; fill: #000; opacity: 1;">130</text><text text-anchor="middle" transform="translate(484.6153846153846,15)" style="font-family: sans-serif; font-size: 10px; fill: #000; opacity: 1;">140</text><text text-anchor="middle" transform="translate(519.2307692307692,15)" style="font-family: sans-serif; font-size: 10px; fill: #000; opacity: 1;">150</text><text text-anchor="middle" transform="translate(553.8461538461539,15)" style="font-family: sans-serif; font-size: 10px; fill: #000; opacity: 1;">160</text><text text-anchor="middle" transform="translate(588.4615384615385,15)" style="font-family: sans-serif; font-size: 10px; fill: #000; opacity: 1;">170</text><text text-anchor="middle" transform="translate(623.0769230769231,15)" style="font-family: sans-serif; font-size: 10px; fill: #000; opacity: 1;">180</text><text text-anchor="middle" transform="translate(657.6923076923076,15)" style="font-family: sans-serif; font-size: 10px; fill: #000; opacity: 1;">190</text><text text-anchor="middle" transform="translate(692.3076923076924,15)" style="font-family: sans-serif; font-size: 10px; fill: #000; opacity: 1;">200</text><text text-anchor="middle" transform="translate(726.9230769230769,15)" style="font-family: sans-serif; font-size: 10px; fill: #000; opacity: 1;">210</text><text text-anchor="middle" transform="translate(761.5384615384615,15)" style="font-family: sans-serif; font-size: 10px; fill: #000; opacity: 1;">220</text><text text-anchor="middle" transform="translate(796.1538461538461,15)" style="font-family: sans-serif; font-size: 10px; fill: #000; opacity: 1;">230</text><text text-anchor="middle" transform="translate(830.7692307692308,15)" style="font-family: sans-serif; font-size: 10px; fill: #000; opacity: 1;">240</text><text text-anchor="middle" transform="translate(865.3846153846154,15)" style="font-family: sans-serif; font-size: 10px; fill: #000; opacity: 1;">250</text><text text-anchor="end" transform="translate(900,15)" style="font-family: sans-serif; font-size: 10px; fill: #000; opacity: 1;">260</text></g><g class="mark-rule role-axis-domain" style="pointer-events: none;"><line transform="translate(0,0)" x2="900" y2="0" style="fill: none; stroke: #888; stroke-width: 1; opacity: 1;"></line></g><g class="mark-text role-axis-title" style="pointer-events: none;"><text text-anchor="middle" transform="translate(450,30)" style="font-family: sans-serif; font-size: 11px; font-weight: bold; fill: #000; opacity: 1;">Size</text></g></g><path class="foreground" d="" style="pointer-events: none; display: none; fill: none;"></path></g></g><g class="mark-group role-axis"><g transform="translate(0.5,0.5)"><path class="background" d="M0,0h0v0h0Z" style="pointer-events: none; fill: none;"></path><g><g class="mark-rule role-axis-tick" style="pointer-events: none;"><line transform="translate(0,600)" x2="-5" y2="0" style="fill: none; stroke: #888; stroke-width: 1; opacity: 1;"></line><line transform="translate(0,554)" x2="-5" y2="0" style="fill: none; stroke: #888; stroke-width: 1; opacity: 1;"></line><line transform="translate(0,508)" x2="-5" y2="0" style="fill: none; stroke: #888; stroke-width: 1; opacity: 1;"></line><line transform="translate(0,462)" x2="-5" y2="0" style="fill: none; stroke: #888; stroke-width: 1; opacity: 1;"></line><line transform="translate(0,415)" x2="-5" y2="0" style="fill: none; stroke: #888; stroke-width: 1; opacity: 1;"></line><line transform="translate(0,369)" x2="-5" y2="0" style="fill: none; stroke: #888; stroke-width: 1; opacity: 1;"></line><line transform="translate(0,323)" x2="-5" y2="0" style="fill: none; stroke: #888; stroke-width: 1; opacity: 1;"></line><line transform="translate(0,277)" x2="-5" y2="0" style="fill: none; stroke: #888; stroke-width: 1; opacity: 1;"></line><line transform="translate(0,231)" x2="-5" y2="0" style="fill: none; stroke: #888; stroke-width: 1; opacity: 1;"></line><line transform="translate(0,185)" x2="-5" y2="0" style="fill: none; stroke: #888; stroke-width: 1; opacity: 1;"></line><line transform="translate(0,138)" x2="-5" y2="0" style="fill: none; stroke: #888; stroke-width: 1; opacity: 1;"></line><line transform="translate(0,92)" x2="-5" y2="0" style="fill: none; stroke: #888; stroke-width: 1; opacity: 1;"></line><line transform="translate(0,46)" x2="-5" y2="0" style="fill: none; stroke: #888; stroke-width: 1; opacity: 1;"></line><line transform="translate(0,0)" x2="-5" y2="0" style="fill: none; stroke: #888; stroke-width: 1; opacity: 1;"></line></g><g class="mark-text role-axis-label" style="pointer-events: none;"><text text-anchor="end" transform="translate(-7,603)" style="font-family: sans-serif; font-size: 10px; fill: #000; opacity: 1;">0.0</text><text text-anchor="end" transform="translate(-7,556.8461538461539)" style="font-family: sans-serif; font-size: 10px; fill: #000; opacity: 1;">0.1</text><text text-anchor="end" transform="translate(-7,510.6923076923077)" style="font-family: sans-serif; font-size: 10px; fill: #000; opacity: 1;">0.2</text><text text-anchor="end" transform="translate(-7,464.53846153846155)" style="font-family: sans-serif; font-size: 10px; fill: #000; opacity: 1;">0.3</text><text text-anchor="end" transform="translate(-7,418.38461538461536)" style="font-family: sans-serif; font-size: 10px; fill: #000; opacity: 1;">0.4</text><text text-anchor="end" transform="translate(-7,372.2307692307692)" style="font-family: sans-serif; font-size: 10px; fill: #000; opacity: 1;">0.5</text><text text-anchor="end" transform="translate(-7,326.07692307692315)" style="font-family: sans-serif; font-size: 10px; fill: #000; opacity: 1;">0.6</text><text text-anchor="end" transform="translate(-7,279.92307692307696)" style="font-family: sans-serif; font-size: 10px; fill: #000; opacity: 1;">0.7</text><text text-anchor="end" transform="translate(-7,233.76923076923075)" style="font-family: sans-serif; font-size: 10px; fill: #000; opacity: 1;">0.8</text><text text-anchor="end" transform="translate(-7,187.6153846153846)" style="font-family: sans-serif; font-size: 10px; fill: #000; opacity: 1;">0.9</text><text text-anchor="end" transform="translate(-7,141.4615384615385)" style="font-family: sans-serif; font-size: 10px; fill: #000; opacity: 1;">1.0</text><text text-anchor="end" transform="translate(-7,95.3076923076923)" style="font-family: sans-serif; font-size: 10px; fill: #000; opacity: 1;">1.1</text><text text-anchor="end" transform="translate(-7,49.15384615384619)" style="font-family: sans-serif; font-size: 10px; fill: #000; opacity: 1;">1.2</text><text text-anchor="end" transform="translate(-7,3)" style="font-family: sans-serif; font-size: 10px; fill: #000; opacity: 1;">1.3</text></g><g class="mark-rule role-axis-domain" style="pointer-events: none;"><line transform="translate(0,600)" x2="0" y2="-600" style="fill: none; stroke: #888; stroke-width: 1; opacity: 1;"></line></g><g class="mark-text role-axis-title" style="pointer-events: none;"><text text-anchor="middle" transform="translate(-26,300) rotate(-90) translate(0,-2)" style="font-family: sans-serif; font-size: 11px; font-weight: bold; fill: #000; opacity: 1;">GFLOPS</text></g></g><path class="foreground" d="" style="pointer-events: none; display: none; fill: none;"></path></g></g><g class="mark-group role-scope pathgroup"><g transform="translate(0,0)"><path class="background" d="M0,0h900v600h-900Z" style="fill: none;"></path><g><g class="mark-line role-mark marks"><path d="M6.923076923076923,549.3166817762037L10.384615384615385,547.474463086953L13.846153846153847,541.8211615282188L17.30769230769231,540.4389028429616L20.76923076923077,538.7998205454799L24.230769230769234,541.0891039762363L27.692307692307693,536.2713384450606L31.153846153846157,536.4779927112984L34.61538461538462,537.522118199659L38.07692307692308,535.5598770263618L41.53846153846154,535.2329086842361L45,534.8883622302607L48.46153846153847,534.7682689116598L51.92307692307693,535.9714632293479L55.38461538461539,534.2040485360981L58.84615384615385,536.6853324061523L62.307692307692314,535.9779474244117L65.76923076923077,535.0267473941366L69.23076923076924,535.553371755055L72.6923076923077,534.6228014668467L76.15384615384616,534.9442482758109L79.61538461538461,534.4615238487233L83.07692307692308,534.1933691288908L86.53846153846155,534.8908511085085L90,532.2196018932335L93.46153846153847,531.9019595162646L96.92307692307693,533.8289019687436L100.38461538461539,533.8084248433973L103.84615384615385,533.5976135022174L107.3076923076923,534.509755188269L110.76923076923077,533.5669230123162L114.23076923076923,533.3743464899736L117.6923076923077,534.2393991170629L121.15384615384615,533.8156773814237L124.61538461538463,533.6964614600886L128.07692307692307,533.7993473752747L131.53846153846155,533.2847121849018L135,533.6016096579476L138.46153846153848,533.4727379614677L141.9230769230769,533.1665489063653L145.3846153846154,533.8199114318518L148.84615384615384,540.1083844526212L152.30769230769232,530.8731808731809L155.76923076923077,532.9098572711154L159.23076923076923,532.9197313719219L162.69230769230768,532.9049277770009L166.15384615384616,532.7920047377488L169.6153846153846,533.4584814474578L173.0769230769231,532.8160201283616L176.53846153846155,533.4153323103893L180,533.2900954322246L183.46153846153845,532.8817043352714L186.92307692307693,532.5660154702921L190.3846153846154,532.5694813799818L193.84615384615387,532.9606302927369L197.3076923076923,532.4723766626786L200.76923076923077,532.7019288496174L204.23076923076923,533.2407378595736L207.6923076923077,532.4272959937833L211.15384615384616,530.5790795537404L214.6153846153846,532.4404240406518L218.07692307692307,534.7304548479059L221.53846153846155,532.5613677184735L225,532.3878252555376L228.46153846153845,532.297764173843L231.9230769230769,532.5675652662591L235.3846153846154,532.8795856341766L238.84615384615384,532.6327395056214L242.3076923076923,532.4461982221555L245.76923076923075,532.2123799925741L249.23076923076925,532.1728278560162L252.6923076923077,532.7276214335111L256.15384615384613,532.1814446305166L259.6153846153846,549.8225495371653L263.0769230769231,532.6196829188854L266.53846153846155,532.6822013154726L270,530.1881647122989L273.46153846153845,532.0826810305941L276.92307692307696,532.0822028125976L280.3846153846154,532.4104428327493L283.8461538461538,532.0404644109535L287.30769230769226,532.0759557878098L290.7692307692308,532.0220465076048L294.2307692307692,532.4829079630452L297.6923076923077,532.6519735625641L301.15384615384613,531.9874629933913L304.61538461538464,532.2664687165554L308.0769230769231,532.1367633689869L311.53846153846155,532.5581543033867L315,532.153061796179L318.46153846153845,530.7810284457563L321.9230769230769,532.4419666375277L325.38461538461536,532.0710791472752L328.8461538461538,530.0198742069105L332.3076923076923,532.0395798799864L335.7692307692308,532.0392785728118L339.2307692307692,532.3264565210741L342.6923076923077,532.0547527357303L346.1538461538462,532.0436332827337L349.61538461538464,533.5410935743596L353.0769230769231,532.4696498501352L356.53846153846155,532.3044832581726L360,531.9230538742734L363.46153846153845,532.4980574980575L366.9230769230769,532.1581638826444L370.38461538461536,532.4501460198741L373.84615384615387,532.0569547256066L377.3076923076923,530.099920975494L380.7692307692308,532.4473012185074L384.2307692307692,531.8569382233237L387.69230769230774,529.8963855698793L391.1538461538462,531.8755804669806L394.6153846153846,531.9812229959749L398.07692307692304,532.1883983194516L401.53846153846155,532.4201312272883L405,532.1412676388198L408.46153846153845,532.3412969283277L411.9230769230769,531.8581640303149L415.3846153846154,532.2038458175557L418.84615384615387,531.8036542757317L422.3076923076923,531.9133103897311L425.7692307692308,532.0531268782321L429.2307692307692,532.4958875036655L432.6923076923077,532.296541149764L436.15384615384613,532.1626398857128L439.6153846153846,536.9680304862743L443.0769230769231,532.2215572033049L446.53846153846155,529.8895034346816L450,531.8265247259951L453.46153846153845,532.5590751612615L456.9230769230769,532.0959056586745L460.38461538461536,532.019630739311L463.8461538461538,532.2014841466157L467.3076923076923,532.6198454311732L470.7692307692308,532.2571315329984L474.2307692307692,532.5749261769265L477.6923076923077,532.587014044372L481.15384615384613,531.944293330432L484.6153846153846,532.4748973238428L488.07692307692304,533.0339288094921L491.5384615384615,532.6467423527087L495.00000000000006,532.6401735025834L498.4615384615385,532.7652620520603L501.92307692307696,533.5481272654047L505.3846153846154,532.8102349340758L508.8461538461538,530.5357374497341L512.3076923076923,530.33381712627L515.7692307692307,532.9276984597379L519.2307692307692,532.9808623129048L522.6923076923077,532.8461093733786L526.1538461538462,533.4782418416023L529.6153846153846,533.3691407667629L533.0769230769231,532.7559857361182L536.5384615384615,532.8277356446371L540,533.3518467092474L543.4615384615385,532.9121947398033L546.9230769230769,532.8578612254148L550.3846153846155,538.5902800128741L553.8461538461539,533.0436541425752L557.3076923076924,532.9776383984015L560.7692307692308,533.6033826754011L564.2307692307692,533.1163146952621L567.6923076923076,530.7924406214613L571.1538461538461,533.2744710822342L574.6153846153845,533.6088521530463L578.0769230769231,532.8481241706542L581.5384615384615,533.3919237707572L585,533.7016574585635L588.4615384615385,537.059571264609L591.9230769230769,533.7949191149426L595.3846153846154,533.1891807905947L598.8461538461538,533.8638666063498L602.3076923076923,533.5641195336761L605.7692307692308,534.6474384907915L609.2307692307693,534.146113311091L612.6923076923077,533.6859260554365L616.1538461538462,534.0923817458114L619.6153846153846,533.5247951276274L623.0769230769231,533.4426189096915L626.5384615384615,531.170419759033L630,534.0089559274099L633.4615384615385,531.7647936164659L636.9230769230769,530.7146308859616L640.3846153846154,534.6512969657008L643.8461538461538,534.9255959322666L647.3076923076923,535.509458038039L650.7692307692307,535.1597438579953L654.2307692307692,534.9558055098283L657.6923076923076,535.6386732533522L661.1538461538462,543.6176231827015L664.6153846153846,535.0993228245316L668.0769230769231,549.7365291293742L671.5384615384615,539.2959582790091L675,536.9792031370353L678.4615384615385,541.6188845036861L681.9230769230769,536.6433858803729L685.3846153846154,536.8498269749047L688.8461538461538,537.3918515022809L692.3076923076924,537.3122632884943L695.7692307692308,536.9988246049367L699.2307692307693,537.4416095881572L702.6923076923077,537.8244689811482L706.1538461538462,543.0957052134377L709.6153846153846,537.7202576254709L713.0769230769231,538.4814473782445L716.5384615384615,542.975730250411L720,538.7716053319728L723.4615384615385,538.6025469661139L726.9230769230769,538.8767882177733L730.3846153846154,538.3680682332666L733.8461538461538,538.0798925160399L737.3076923076923,537.9017798574365L740.7692307692307,534.9689025749072L744.2307692307692,538.1701232283823L747.6923076923077,538.4767293925527L751.1538461538462,537.9352753585882L754.6153846153846,536.2992183505004L758.0769230769231,538.495239700059L761.5384615384615,539.1766733326575L765,538.8892217362651L768.4615384615385,538.6163800254383L771.9230769230769,545.2827873880506L775.3846153846155,538.4688635968246L778.8461538461539,538.7699564586356L782.3076923076924,538.6100333660806L785.7692307692308,538.6704731199258L789.2307692307692,538.8974746076128L792.6923076923076,538.5724121281485L796.1538461538461,539.4651880965749L799.6153846153845,538.8287425466839L803.0769230769231,537.069101923642L806.5384615384615,539.639390694622L810,538.8794567062819L813.4615384615385,538.6980509458326L816.9230769230769,539.544276559318L820.3846153846154,539.3049520671317L823.8461538461538,543.5325379909763L827.3076923076923,544.3115446750342L830.7692307692308,543.1135832121863L834.2307692307693,539.6075745299331L837.6923076923077,539.5702495848576L841.1538461538462,539.5592551445105L844.6153846153846,540.8066309511776L848.0769230769231,539.0814981807332L851.5384615384615,540.22089109753L855,540.0063151247238L858.4615384615385,540.6227429260059L861.9230769230769,539.7961774199398L865.3846153846154,541.4825969243253L868.8461538461538,539.9138206192148L872.3076923076923,540.0104743616193L875.7692307692307,538.9601511922474L879.2307692307692,538.6996605151803L882.6923076923076,545.3159127913904L886.1538461538462,535.4526926228647" style="fill: none; stroke: #ffbb78; stroke-width: 2;"></path></g></g><path class="foreground" d="" style="display: none; fill: none;"></path></g><g transform="translate(0,0)"><path class="background" d="M0,0h900v600h-900Z" style="fill: none;"></path><g><g class="mark-line role-mark marks"><path d="M6.923076923076923,527.6231185814421L10.384615384615385,527.1754833054686L13.846153846153847,525.9038833506919L17.30769230769231,525.2234269837608L20.76923076923077,525.5292527901507L24.230769230769234,529.5281626985275L27.692307692307693,524.8872691333622L31.153846153846157,525.1147884763362L34.61538461538462,524.9089109112991L38.07692307692308,524.7321115909887L41.53846153846154,524.9328149980068L45,521.7029078310574L48.46153846153847,524.6326203986614L51.92307692307693,529.9022715484238L55.38461538461539,524.7141839850184L58.84615384615385,526.987745271223L62.307692307692314,527.6338910089929L65.76923076923077,526.9224055008563L69.23076923076924,526.7815732259427L72.6923076923077,526.6240760687888L76.15384615384616,526.5894572301492L79.61538461538461,526.4748873356543L83.07692307692308,526.6298890472943L86.53846153846155,523.4245269829136L90,526.2316509945894L93.46153846153847,522.8502361163762L96.92307692307693,526.1176421926997L100.38461538461539,526.0342091018352L103.84615384615385,525.9522346204805L107.3076923076923,527.3450194310702L110.76923076923077,525.8882791541486L114.23076923076923,522.2798615224065L117.6923076923077,525.4961344694677L121.15384615384615,525.50708597002L124.61538461538463,526.0224681102297L128.07692307692307,525.9402814834431L131.53846153846155,525.8832626967937L135,522.2968209377746L138.46153846153848,525.8148257798374L141.9230769230769,525.7772285859405L145.3846153846154,525.2165351435392L148.84615384615384,526.8251825603564L152.30769230769232,525.6384850663918L155.76923076923077,525.9066427457773L159.23076923076923,525.6328139434625L162.69230769230768,525.5862225919358L166.15384615384616,525.5897841573037L169.6153846153846,522.2774915615563L173.0769230769231,525.5080867484788L176.53846153846155,525.5663262929629L180,525.5429162357807L183.46153846153845,525.385902765377L186.92307692307693,525.0741978235305L190.3846153846154,524.971580143994L193.84615384615387,524.9214051995154L197.3076923076923,524.9509346877592L200.76923076923077,521.576978381569L204.23076923076923,525.3144861415121L207.6923076923077,521.8582844172396L211.15384615384616,521.5301918865526L214.6153846153846,521.4713259486957L218.07692307692307,525.1997699841006L221.53846153846155,524.8185335406122L225,521.7313035651391L228.46153846153845,525.0315918008037L231.9230769230769,524.9193863934131L235.3846153846154,525.2523671648798L238.84615384615384,525.0501494248168L242.3076923076923,525.1953098646661L245.76923076923075,525.5603624021054L249.23076923076925,525.1729483272039L252.6923076923077,525.1467812231074L256.15384615384613,525.1145524407033L259.6153846153846,525.1292186074795L263.0769230769231,525.0043423573253L266.53846153846155,522.9057956022793L270,521.4931949585658L273.46153846153845,525.0853458085726L276.92307692307696,525.3301686325767L280.3846153846154,525.094085241984L283.8461538461538,525.2484122884317L287.30769230769226,525.0315779074609L290.7692307692308,521.5042135609467L294.2307692307692,525.1784702027347L297.6923076923077,525.037389551723L301.15384615384613,524.8949005208138L304.61538461538464,524.9282887317958L308.0769230769231,524.9094578240258L311.53846153846155,524.8990398560155L315,524.881003894418L318.46153846153845,525.8189829263815L321.9230769230769,524.9890363845118L325.38461538461536,524.8651168986878L328.8461538461538,521.446882918661L332.3076923076923,524.8456029458667L335.7692307692308,521.3029170420691L339.2307692307692,525.0943014638408L342.6923076923077,524.9134354128705L346.1538461538462,524.9481862118892L349.61538461538464,529.7841361730409L353.0769230769231,524.528788885806L356.53846153846155,524.534327769376L360,524.8889638500028L363.46153846153845,524.9307139662975L366.9230769230769,525.144215876491L370.38461538461536,525.0033194966555L373.84615384615387,521.1969449207702L377.3076923076923,521.3434513731299L380.7692307692308,524.6271141983949L384.2307692307692,521.2846146847986L387.69230769230774,521.3431863833719L391.1538461538462,524.9577602226284L394.6153846153846,524.8947721588484L398.07692307692304,524.9431229493209L401.53846153846155,524.9886942053753L405,524.9770150168556L408.46153846153845,525.0694685378345L411.9230769230769,524.8318190910335L415.3846153846154,521.1522940336499L418.84615384615387,524.5508359733723L422.3076923076923,524.5089072118237L425.7692307692308,524.5317716411946L429.2307692307692,524.5774391251039L432.6923076923077,524.5506128608113L436.15384615384613,521.1847731595456L439.6153846153846,528.7000071291081L443.0769230769231,521.1164007762312L446.53846153846155,521.1525192739998L450,524.5520276642565L453.46153846153845,524.8760906074632L456.9230769230769,524.4932051299706L460.38461538461536,524.4299262977892L463.8461538461538,524.738204395121L467.3076923076923,525.0326977268686L470.7692307692308,524.8764512224761L474.2307692307692,524.9768613739202L477.6923076923077,525.4748499784388L481.15384615384613,524.8228740377508L484.6153846153846,525.1852846872207L488.07692307692304,525.2182050113618L491.5384615384615,525.357918814392L495.00000000000006,521.4597381991273L498.4615384615385,525.1323182292407L501.92307692307696,525.1583512395998L505.3846153846154,521.5219519686702L508.8461538461538,521.8488649011646L512.3076923076923,525.3379629734834L515.7692307692307,525.0607728631702L519.2307692307692,525.3476002363992L522.6923076923077,525.2809004740684L526.1538461538462,525.5577484250695L529.6153846153846,525.467169830929L533.0769230769231,525.2870465204032L536.5384615384615,525.1013109100959L540,525.28795268237L543.4615384615385,525.2405934638775L546.9230769230769,525.207100591716L550.3846153846155,529.7956420313639L553.8461538461539,525.4079254079254L557.3076923076924,525.4562524918653L560.7692307692308,525.9710586443259L564.2307692307692,525.5877653503766L567.6923076923076,525.5607529660963L571.1538461538461,525.4811843311239L574.6153846153845,525.7386986377971L578.0769230769231,525.2696111334856L581.5384615384615,525.6582343830667L585,525.3159708923785L588.4615384615385,527.8381877480563L591.9230769230769,525.5793711239256L595.3846153846154,525.6837526824421L598.8461538461538,525.999857417837L602.3076923076923,525.7510241238052L605.7692307692308,526.4865470381079L609.2307692307693,525.9518967814319L612.6923076923077,526.1037469992694L616.1538461538462,525.5650573943589L619.6153846153846,525.7189492758635L623.0769230769231,525.9563965446318L626.5384615384615,526.2939284114509L630,526.2057454098216L633.4615384615385,526.4592612437627L636.9230769230769,525.6235094385383L640.3846153846154,526.6013793650689L643.8461538461538,526.589572561866L647.3076923076923,527.0248648789276L650.7692307692307,526.8634265262721L654.2307692307692,523.2528864765359L657.6923076923076,527.2021354040281L661.1538461538462,534.2429910832119L664.6153846153846,523.8699444885012L668.0769230769231,527.467695564756L671.5384615384615,530.4123249098768L675,525.8221379708234L678.4615384615385,533.0658242977888L681.9230769230769,527.9531878581007L685.3846153846154,526.0582446924384L688.8461538461538,528.6132800822681L692.3076923076924,528.730935525253L695.7692307692308,528.396703635975L699.2307692307693,528.9832653635212L702.6923076923077,528.8970875826761L706.1538461538462,533.7084797902935L709.6153846153846,529.0898713817098L713.0769230769231,529.759956355701L716.5384615384615,533.6446301302531L720,529.9832251476917L723.4615384615385,529.2388949079091L726.9230769230769,529.8472228408534L730.3846153846154,529.6252237428708L733.8461538461538,529.2456765882176L737.3076923076923,526.4494296665478L740.7692307692307,526.0985927652594L744.2307692307692,526.1016017048189L747.6923076923077,529.5012320965224L751.1538461538462,529.1798570542737L754.6153846153846,530.5813546188874L758.0769230769231,529.7637946793669L761.5384615384615,530.0458411722622L765,529.7036526533425L768.4615384615385,529.7583201058899L771.9230769230769,536.8492594655314L775.3846153846155,526.2276185353109L778.8461538461539,529.7054397575619L782.3076923076924,529.9572305212918L785.7692307692308,529.7934525435697L789.2307692307692,529.6162335423924L792.6923076923076,529.5384615384615L796.1538461538461,526.8409054763293L799.6153846153845,529.8028808168392L803.0769230769231,531.073754054121L806.5384615384615,530.1426130060663L810,529.9110909208904L813.4615384615385,529.8528402137249L816.9230769230769,530.4139290084477L820.3846153846154,529.6923670236436L823.8461538461538,532.8732865765376L827.3076923076923,534.2035834728946L830.7692307692308,533.2795863334353L834.2307692307693,530.2190908213493L837.6923076923077,530.4401147833919L841.1538461538462,530.05248462402L844.6153846153846,527.8984668574271L848.0769230769231,526.4922816895773L851.5384615384615,531.0969404427349L855,530.6695858419996L858.4615384615385,531.1592359045297L861.9230769230769,530.8067451844922L865.3846153846154,531.3432016038229L868.8461538461538,530.6435048517309L872.3076923076923,530.8885303299706L875.7692307692307,529.9230446082754L879.2307692307692,529.6207184782559L882.6923076923076,537.4509419152276L886.1538461538462,526.2045805047491" style="fill: none; stroke: #ff7f0e; stroke-width: 2;"></path></g></g><path class="foreground" d="" style="display: none; fill: none;"></path></g><g transform="translate(0,0)"><path class="background" d="M0,0h900v600h-900Z" style="fill: none;"></path><g><g class="mark-line role-mark marks"><path d="M6.923076923076923,524.3454060092013L10.384615384615385,517.4129719193071L13.846153846153847,513.4805215467056L17.30769230769231,510.8743441598535L20.76923076923077,509.1006081297343L24.230769230769234,507.7507017237299L27.692307692307693,506.73946927292155L31.153846153846157,505.9205304772782L34.61538461538462,505.26053353278485L38.07692307692308,504.7272908462872L41.53846153846154,513.4919134919135L45,503.86973367992545L48.46153846153847,503.53115521418147L51.92307692307693,503.4703754480435L55.38461538461539,503.00111144559804L58.84615384615385,509.03750803863L62.307692307692314,508.58268093011066L65.76923076923077,508.1442076568546L69.23076923076924,507.7294898703027L72.6923076923077,507.32683339599873L76.15384615384616,506.97589739038216L79.61538461538461,506.64977750071296L83.07692307692308,506.9578994730771L86.53846153846155,506.051803638906L90,506.36576202611457L93.46153846153847,508.968726959941L96.92307692307693,505.3960341833994L100.38461538461539,505.7962528149964L103.84615384615385,506.4205874707564L107.3076923076923,505.4192823614125L110.76923076923077,516.2938331838936L114.23076923076923,514.7896253602305L117.6923076923077,514.7669692670386L121.15384615384615,517.0938667347598L124.61538461538463,514.3454859746994L128.07692307692307,517.8455482850846L131.53846153846155,514.0889154604785L135,517.8864976910579L138.46153846153848,513.8285017452993L141.9230769230769,513.3932422084723L145.3846153846154,513.2327184957339L148.84615384615384,514.4919782658541L152.30769230769232,513.1480994097078L155.76923076923077,515.0177675097101L159.23076923076923,512.6630932633508L162.69230769230768,512.402834733248L166.15384615384616,511.9487012772246L169.6153846153846,513.3244101514317L173.0769230769231,513.7481759432978L176.53846153846155,513.2509240290341L180,513.1754993594915L183.46153846153845,512.8142336647919L186.92307692307693,513.5569923127832L190.3846153846154,512.4624368784658L193.84615384615387,513.5359392771483L197.3076923076923,513.5636338442413L200.76923076923077,513.1439845256524L204.23076923076923,512.2186650753587L207.6923076923077,512.0786082369318L211.15384615384616,511.8903469682535L214.6153846153846,512.8838441072885L218.07692307692307,513.377144530708L221.53846153846155,513.1560776936086L225,513.270979135326L228.46153846153845,512.8791128056441L231.9230769230769,513.2095322947994L235.3846153846154,513.2067177887513L238.84615384615384,513.0633035944635L242.3076923076923,512.7676447264076L245.76923076923075,512.7610651667566L249.23076923076925,516.1110484014456L252.6923076923077,512.6132408270407L256.15384615384613,513.0563958513396L259.6153846153846,512.6420167873405L263.0769230769231,513.7357729813468L266.53846153846155,512.6819126819126L270,512.1983342072851L273.46153846153845,512.1218132569992L276.92307692307696,512.4038837928024L280.3846153846154,512.6137799053438L283.8461538461538,513.1787920109089L287.30769230769226,512.7497279536835L290.7692307692308,512.7959865460859L294.2307692307692,513.1072297056592L297.6923076923077,512.7312236488749L301.15384615384613,513.8432717337665L304.61538461538464,512.5003470005274L308.0769230769231,512.534878998393L311.53846153846155,512.9209970315471L315,512.3677319082799L318.46153846153845,513.233922602144L321.9230769230769,513.4678011310182L325.38461538461536,512.5852448853069L328.8461538461538,511.7628048863202L332.3076923076923,513.1046066751687L335.7692307692308,512.7252554118406L339.2307692307692,512.5874826113145L342.6923076923077,512.3610373622861L346.1538461538462,512.7861420813678L349.61538461538464,512.8266383886341L353.0769230769231,513.0171990760134L356.53846153846155,512.6734258869515L360,512.6373467638647L363.46153846153845,512.3374460620684L366.9230769230769,512.170182758418L370.38461538461536,512.3130826274668L373.84615384615387,512.476308737991L377.3076923076923,511.79995693102364L380.7692307692308,512.6881745035167L384.2307692307692,512.6031884440416L387.69230769230774,511.92584857743225L391.1538461538462,513.2311787591291L394.6153846153846,512.4657402766372L398.07692307692304,512.7048354778404L401.53846153846155,513.5956772588974L405,513.2728019345714L408.46153846153845,512.4532522652847L411.9230769230769,512.5501575490005L415.3846153846154,512.2328619443211L418.84615384615387,512.2940008294013L422.3076923076923,512.0409311973893L425.7692307692308,512.7056340078614L429.2307692307692,513.1969333048294L432.6923076923077,511.97842799835405L436.15384615384613,512.002627895684L439.6153846153846,517.6005107565508L443.0769230769231,512.8522381613298L446.53846153846155,512.2915982333813L450,512.4920384370413L453.46153846153845,512.710030071083L456.9230769230769,512.4684767959076L460.38461538461536,512.9541538894969L463.8461538461538,512.9511630999431L467.3076923076923,513.1133722636837L470.7692307692308,512.0292819367834L474.2307692307692,512.421048840549L477.6923076923077,512.2306897295824L481.15384615384613,512.0937553340691L484.6153846153846,512.0143135797449L488.07692307692304,511.6313404575582L491.5384615384615,512.3531130146346L495.00000000000006,512.3424759080801L498.4615384615385,511.92590409900686L501.92307692307696,513.2101344456685L505.3846153846154,512.373712113634L508.8461538461538,512.464298710894L512.3076923076923,512.3652209656376L515.7692307692307,512.4671248561925L519.2307692307692,512.6602171528926L522.6923076923077,512.6173772665471L526.1538461538462,512.827458585874L529.6153846153846,512.4997446887975L533.0769230769231,512.2176298760066L536.5384615384615,512.8783857207986L540,513.7831365100338L543.4615384615385,512.5815874250412L546.9230769230769,512.6811750765864L550.3846153846155,518.2406635657247L553.8461538461539,512.6946324250771L557.3076923076924,513.0304303463178L560.7692307692308,512.6709357265669L564.2307692307692,513.4442226885367L567.6923076923076,513.3782925204957L571.1538461538461,514.0505173543239L574.6153846153845,513.0737084332758L578.0769230769231,512.5819517385783L581.5384615384615,512.9998955199246L585,513.0672498633132L588.4615384615385,513.9039915738945L591.9230769230769,512.8295291400511L595.3846153846154,512.5900594485L598.8461538461538,513.4146171919532L602.3076923076923,512.9455909943715L605.7692307692308,513.4110825133789L609.2307692307693,513.5076104020203L612.6923076923077,513.4156781215605L616.1538461538462,513.8035398658628L619.6153846153846,513.6243974886199L623.0769230769231,513.3971017813162L626.5384615384615,513.2622499101474L630,513.6903538695491L633.4615384615385,513.7663602414227L636.9230769230769,512.4090486847804L640.3846153846154,513.849094986581L643.8461538461538,513.4615384615385L647.3076923076923,514.450843546198L650.7692307692307,513.8681449580794L654.2307692307692,513.6898721331439L657.6923076923076,514.1495741709341L661.1538461538462,518.5495277151933L664.6153846153846,513.3538461538461L668.0769230769231,514.0681814808768L671.5384615384615,514.6195656160374L675,514.2367066895368L678.4615384615385,514.9237858915278L681.9230769230769,514.0125998457755L685.3846153846154,513.7311286843997L688.8461538461538,514.0741380427039L692.3076923076924,514.4189761656849L695.7692307692308,514.0548167785522L699.2307692307693,514.160050427429L702.6923076923077,514.0989202417643L706.1538461538462,515.420547831615L709.6153846153846,514.2044027789403L713.0769230769231,514.5299145299145L716.5384615384615,515.2727371954048L720,514.1400590287094L723.4615384615385,514.8918841878079L726.9230769230769,514.2425438656194L730.3846153846154,514.5224125475157L733.8461538461538,514.5448438024857L737.3076923076923,514.2466047560256L740.7692307692307,514.3965758630345L744.2307692307692,514.2047646284202L747.6923076923077,514.1397746169083L751.1538461538462,514.3691465852888L754.6153846153846,514.1213856133623L758.0769230769231,513.8524477312511L761.5384615384615,514.443493816598L765,514.7584823667057L768.4615384615385,514.2078720074198L771.9230769230769,518.6121485662843L775.3846153846155,513.8533327350926L778.8461538461539,514.1696389402812L782.3076923076924,513.9730372720063L785.7692307692308,513.855261659899L789.2307692307692,514.1253719350668L792.6923076923076,514.141098544023L796.1538461538461,514.1844412660904L799.6153846153845,514.0129166744216L803.0769230769231,513.7450273264676L806.5384615384615,514.3733883760956L810,513.738019169329L813.4615384615385,513.987677667297L816.9230769230769,514.1797376906108L820.3846153846154,513.9652230732929L823.8461538461538,515.2552431367429L827.3076923076923,516.1158233401579L830.7692307692308,514.6484583377787L834.2307692307693,514.8961214760756L837.6923076923077,514.6279082073625L841.1538461538462,514.0517693663528L844.6153846153846,514.1061821254026L848.0769230769231,514.19916300408L851.5384615384615,514.2523513794566L855,514.0854623558671L858.4615384615385,514.6700920966614L861.9230769230769,514.1916845194677L865.3846153846154,514.3904025934L868.8461538461538,514.397285268489L872.3076923076923,514.27793904209L875.7692307692307,513.988486469335L879.2307692307692,513.9274822094205L882.6923076923076,518.6927062574731L886.1538461538462,513.4530866145282" style="fill: none; stroke: #1f77b4; stroke-width: 2;"></path></g></g><path class="foreground" d="" style="display: none; fill: none;"></path></g><g transform="translate(0,0)"><path class="background" d="M0,0h900v600h-900Z" style="fill: none;"></path><g><g class="mark-line role-mark marks"><path d="M6.923076923076923,528.6037592014675L10.384615384615385,519.4962916489278L13.846153846153847,495.19926068351737L17.30769230769231,498.97690852418293L20.76923076923077,483.23651939212573L24.230769230769234,488.73312260464917L27.692307692307693,478.5215844390186L31.153846153846157,484.63153723393947L34.61538461538462,477.35047318872273L38.07692307692308,483.4773636472367L41.53846153846154,473.0306053785646L45,478.36420831876967L48.46153846153847,472.2477843312849L51.92307692307693,478.3688474668082L55.38461538461539,472.23443223443223L58.84615384615385,477.7122199607633L62.307692307692314,471.2465833658727L65.76923076923077,480.878512095199L69.23076923076924,471.1412243130349L72.6923076923077,473.82115974294146L76.15384615384616,469.5437324987646L79.61538461538461,471.8839779698654L83.07692307692308,468.9945158511518L86.53846153846155,471.8575550314043L90,468.7430990062569L93.46153846153847,479.24990971844113L96.92307692307693,475.5869010907282L100.38461538461539,470.9327841358947L103.84615384615385,467.38518138491423L107.3076923076923,477.4931726901811L110.76923076923077,475.19581457787007L114.23076923076923,469.72592885763726L117.6923076923077,467.89932453223804L121.15384615384615,469.1120964185297L124.61538461538463,474.61392337917874L128.07692307692307,469.67591738425983L131.53846153846155,466.2994089026499L135,468.7555574374391L138.46153846153848,466.4947280588637L141.9230769230769,468.5745141764082L145.3846153846154,466.85819010352174L148.84615384615384,469.4231834556546L152.30769230769232,473.8673187287294L155.76923076923077,476.72011954412653L159.23076923076923,465.2145638833035L162.69230769230768,468.28665401969766L166.15384615384616,473.6165921794664L169.6153846153846,475.819382508468L173.0769230769231,465.75357790687457L176.53846153846155,467.56125766674415L180,466.1874659050797L183.46153846153845,476.3777915423749L186.92307692307693,465.5207872416006L190.3846153846154,467.39627032028505L193.84615384615387,469.1563561494893L197.3076923076923,467.32636886178324L200.76923076923077,465.6673134825097L204.23076923076923,467.1851653899469L207.6923076923077,465.1716052470717L211.15384615384616,475.45900266598807L214.6153846153846,465.2208925390234L218.07692307692307,480.3885789024017L221.53846153846155,473.0629376233359L225,466.4603936903248L228.46153846153845,472.90927828068527L231.9230769230769,467.0588750485102L235.3846153846154,464.84252275200777L238.84615384615384,466.6695499659024L242.3076923076923,472.73832262545585L245.76923076923075,466.4967407655023L249.23076923076925,472.4101776511068L252.6923076923077,468.3997338069481L256.15384615384613,467.1915332989159L259.6153846153846,468.37799058849123L263.0769230769231,466.7908050385363L266.53846153846155,468.42900192162114L270,474.19218069456394L273.46153846153845,467.99961614667717L276.92307692307696,474.8846997444956L280.3846153846154,476.79786524349566L283.8461538461538,467.2617643890495L287.30769230769226,476.43513784279014L290.7692307692308,466.98720015715793L294.2307692307692,467.9218870301673L297.6923076923077,466.62565758956794L301.15384615384613,468.38601926707656L304.61538461538464,474.90580570822624L308.0769230769231,468.31193029245753L311.53846153846155,467.00954124448697L315,467.86994947811826L318.46153846153845,472.84745226976224L321.9230769230769,467.64746829634015L325.38461538461536,466.95578275089485L328.8461538461538,477.50189836239383L332.3076923076923,466.69434181576656L335.7692307692308,476.01523180571456L339.2307692307692,466.38599738473516L342.6923076923077,476.06336807753587L346.1538461538462,474.40964403872573L349.61538461538464,467.70050735407165L353.0769230769231,466.3870507490591L356.53846153846155,467.9364898459259L360,474.11503281484164L363.46153846153845,467.2723681611693L366.9230769230769,465.74135155817083L370.38461538461536,467.13816417355656L373.84615384615387,466.13310706429013L377.3076923076923,467.3923760754441L380.7692307692308,466.1273579840355L384.2307692307692,468.1310320947676L387.69230769230774,473.7456764469929L391.1538461538462,467.3719246340704L394.6153846153846,473.8635384300312L398.07692307692304,466.67922747201936L401.53846153846155,474.27985313406276L405,475.80294811183774L408.46153846153845,466.31432560958683L411.9230769230769,467.1494438511032L415.3846153846154,465.77656645271696L418.84615384615387,475.25577354817443L422.3076923076923,466.5217662215804L425.7692307692308,467.52181855084234L429.2307692307692,465.80743399407237L432.6923076923077,466.4809477034723L436.15384615384613,466.3859087870135L439.6153846153846,486.9412735154633L443.0769230769231,465.8359052000233L446.53846153846155,466.00953177827733L450,462.66213497953805L453.46153846153845,466.61900249806183L456.9230769230769,462.254699156484L460.38461538461536,466.61994583551103L463.8461538461538,466.04261250228353L467.3076923076923,464.451268459882L470.7692307692308,467.3226866956848L474.2307692307692,467.513007181395L477.6923076923077,474.2721114797401L481.15384615384613,475.64434347810817L484.6153846153846,467.9535951205709L488.07692307692304,468.3405094153655L491.5384615384615,465.29218315203644L495.00000000000006,467.15775276235934L498.4615384615385,467.3149354607358L501.92307692307696,464.3767622864866L505.3846153846154,463.234271587134L508.8461538461538,466.3996113466071L512.3076923076923,465.7823576413353L515.7692307692307,466.79621173790093L519.2307692307692,467.1474809802181L522.6923076923077,466.72509692594195L526.1538461538462,464.48431267752244L529.6153846153846,466.8068449331102L533.0769230769231,467.98024194097076L536.5384615384615,469.5635542975175L540,466.84410348741625L543.4615384615385,467.0886935526464L546.9230769230769,466.3674380827294L550.3846153846155,487.8420368986232L553.8461538461539,464.39791638021785L557.3076923076924,469.7604856593459L560.7692307692308,468.4704255949442L564.2307692307692,470.2274966570484L567.6923076923076,475.5364868908552L571.1538461538461,476.29933725855005L574.6153846153845,469.25824871311636L578.0769230769231,478.2434756599118L581.5384615384615,475.5273377980424L585,468.49268618900055L588.4615384615385,479.8400165500121L591.9230769230769,471.79029712481986L595.3846153846154,465.5541937531114L598.8461538461538,473.89138622281615L602.3076923076923,468.5942388607185L605.7692307692308,475.30228944713815L609.2307692307693,468.05475727573054L612.6923076923077,469.95469231276434L616.1538461538462,467.12305161073044L619.6153846153846,470.0395646377275L623.0769230769231,468.47371682109207L626.5384615384615,480.4232715227635L630,469.30913132061494L633.4615384615385,470.63633257537373L636.9230769230769,467.9753171245059L640.3846153846154,481.7848476338036L643.8461538461538,474.29829629064426L647.3076923076923,475.9823209101753L650.7692307692307,474.4832544046453L654.2307692307692,476.0703428637396L657.6923076923076,474.4933193214232L661.1538461538462,493.0282591991804L664.6153846153846,475.41895859580603L668.0769230769231,477.4149155771979L671.5384615384615,481.5088806748338L675,476.9685039370079L678.4615384615385,480.5607450510848L681.9230769230769,478.8466060460417L685.3846153846154,476.28876123130715L688.8461538461538,480.26945818276886L692.3076923076924,479.341651549167L695.7692307692308,484.3458580735818L699.2307692307693,480.322949137447L702.6923076923077,481.1316067569912L706.1538461538462,488.59690348374625L709.6153846153846,480.98848088992804L713.0769230769231,480.25417687749155L716.5384615384615,485.2995732690027L720,479.74727105042194L723.4615384615385,482.15696518609593L726.9230769230769,484.6134498979114L730.3846153846154,481.9360253660356L733.8461538461538,480.84616087173396L737.3076923076923,479.9245814843735L740.7692307692307,485.34370657275684L744.2307692307692,484.2267233904576L747.6923076923077,482.54016489799835L751.1538461538462,482.9199863316727L754.6153846153846,483.06896387647663L758.0769230769231,482.20845696664367L761.5384615384615,482.03995288630006L765,482.9323261200726L768.4615384615385,482.7143993735711L771.9230769230769,499.45972753435876L775.3846153846155,482.59048586032236L778.8461538461539,483.1712514738812L782.3076923076924,482.79507808475404L785.7692307692308,483.72774349014674L789.2307692307692,483.34233469639685L792.6923076923076,484.0775347493198L796.1538461538461,483.360239365074L799.6153846153845,485.32647584973165L803.0769230769231,481.50412032298186L806.5384615384615,483.7955949553324L810,485.7561332845112L813.4615384615385,486.2723781802879L816.9230769230769,486.1034399549562L820.3846153846154,484.4056564815748L823.8461538461538,492.07491270764996L827.3076923076923,492.5190565061948L830.7692307692308,492.571786665473L834.2307692307693,484.67520038282095L837.6923076923077,484.3827923642688L841.1538461538462,484.8801241024402L844.6153846153846,485.1058820451781L848.0769230769231,485.1389011882003L851.5384615384615,487.14890422670305L855,485.29538594221646L858.4615384615385,486.1173649333835L861.9230769230769,485.8304421586758L865.3846153846154,485.458824182766L868.8461538461538,485.58404558404555L872.3076923076923,485.7937035470421L875.7692307692307,487.3210163377103L879.2307692307692,480.69186560565873L882.6923076923076,505.6423413033691L886.1538461538462,488.8068453285845" style="fill: none; stroke: #aec7e8; stroke-width: 2;"></path></g></g><path class="foreground" d="" style="display: none; fill: none;"></path></g><g transform="translate(0,0)"><path class="background" d="M0,0h900v600h-900Z" style="fill: none;"></path><g><g class="mark-line role-mark marks"><path d="M6.923076923076923,520.2909632505967L10.384615384615385,480.52938597074024L13.846153846153847,440.62325507192423L17.30769230769231,400.89950640084504L20.76923076923077,360.97619332456026L24.230769230769234,331.8429327402408L27.692307692307693,264.73228643743096L31.153846153846157,378.2272349049686L34.61538461538462,353.45379010188265L38.07692307692308,328.92988230641527L41.53846153846154,304.3663050730188L45,280.1753635585971L48.46153846153847,258.023471379454L51.92307692307693,230.25992648876732L55.38461538461539,190.67780317433187L58.84615384615385,311.7195422280168L62.307692307692314,289.8020922337943L65.76923076923077,279.3788265089801L69.23076923076924,252.47964793918106L72.6923076923077,235.06220563663987L76.15384615384616,241.87455520623428L79.61538461538461,206.69120490382826L83.07692307692308,135.19483549817224L86.53846153846155,275.18023735067453L90,259.9218014212735L93.46153846153847,249.12502644660188L96.92307692307693,237.84457344315103L100.38461538461539,220.68200927757425L103.84615384615385,210.24943251323037L107.3076923076923,196.4684599653925L110.76923076923077,136.23075708054378L114.23076923076923,226.74483634966342L117.6923076923077,212.22160628688823L121.15384615384615,201.89840001836416L124.61538461538463,190.57497690414112L128.07692307692307,178.6782490793246L131.53846153846155,166.60061879122796L135,157.09497206703904L138.46153846153848,94.17648583532696L141.9230769230769,189.8458638821127L145.3846153846154,180.85256312152396L148.84615384615384,173.27986273352272L152.30769230769232,165.52863711018034L155.76923076923077,155.9424685827176L159.23076923076923,139.85732009925553L162.69230769230768,133.5951061417385L166.15384615384616,81.71402291495862L169.6153846153846,172.10614970891572L173.0769230769231,156.03983934585668L176.53846153846155,147.61961880315232L180,136.78111419958498L183.46153846153845,144.44772485649003L186.92307692307693,121.76405865225559L190.3846153846154,114.43865270082117L193.84615384615387,71.6762527413414L197.3076923076923,148.96641658885278L200.76923076923077,137.20336540998184L204.23076923076923,127.30369863237001L207.6923076923077,121.21959931162122L211.15384615384616,122.34672472849904L214.6153846153846,108.60501586354533L218.07692307692307,148.06776382314573L221.53846153846155,80.92995653535687L225,133.2167832167833L228.46153846153845,133.4431678554709L231.9230769230769,118.99182834388904L235.3846153846154,113.62093235074934L238.84615384615384,103.51320760264002L242.3076923076923,103.3098183223812L245.76923076923075,93.87756092706717L249.23076923076925,77.45332553265538L252.6923076923077,122.928639244222L256.15384615384613,116.84996581295886L259.6153846153846,108.93376789663596L263.0769230769231,100.13885031935574L266.53846153846155,93.51855291015114L270,94.43451179422102L273.46153846153845,82.62312259867272L276.92307692307696,56.17044074825264L280.3846153846154,119.81426137389069L283.8461538461538,106.60416234186722L287.30769230769226,108.32930877435373L290.7692307692308,96.17296330228908L294.2307692307692,88.83788427146551L297.6923076923077,82.27656808075541L301.15384615384613,73.474048054306L304.61538461538464,57.56026543878647L308.0769230769231,100.6836034964067L311.53846153846155,95.45463787662989L315,92.35336113929277L318.46153846153845,103.71171346301051L321.9230769230769,83.71447504970058L325.38461538461536,73.03039956003568L328.8461538461538,81.65523571556051L332.3076923076923,48.69798806517935L335.7692307692308,122.10642651769608L339.2307692307692,101.40541499434555L342.6923076923077,113.64531218957143L346.1538461538462,112.09626735688025L349.61538461538464,88.36707648811861L353.0769230769231,80.46753943298906L356.53846153846155,78.8107641265251L360,61.60337552742619L363.46153846153845,95.02011506170795L366.9230769230769,86.4201392666738L370.38461538461536,83.12289030832112L373.84615384615387,78.94095341278442L377.3076923076923,70.84404335450634L380.7692307692308,67.57515724365281L384.2307692307692,61.563991932395524L387.69230769230774,43.0827955317221L391.1538461538462,85.71180097015443L394.6153846153846,86.42331895016164L398.07692307692304,72.59563149690887L401.53846153846155,81.58665843818562L405,83.74655082216083L408.46153846153845,66.42985719428776L411.9230769230769,63.42442283907932L415.3846153846154,48.09691956534454L418.84615384615387,88.19078088670071L422.3076923076923,73.72302273183884L425.7692307692308,75.16195737602345L429.2307692307692,66.93972813778541L432.6923076923077,65.10519215273345L436.15384615384613,58.201201413644824L439.6153846153846,154.74949261809058L443.0769230769231,34.70811838815264L446.53846153846155,75.17851634310763L450,76.46672191581175L453.46153846153845,85.30459902819413L456.9230769230769,87.33045497563494L460.38461538461536,75.36983222122082L463.8461538461538,70.20306315608332L467.3076923076923,80.121050193748L470.7692307692308,71.93807965084564L474.2307692307692,87.23692726775194L477.6923076923077,100.5470133612075L481.15384615384613,76.45841849290495L484.6153846153846,74.5533994840577L488.07692307692304,59.945023203255474L491.5384615384615,55.11333214349459L495.00000000000006,63.70110303765166L498.4615384615385,34.011404303878834L501.92307692307696,94.33337746590755L505.3846153846154,82.11542798728999L508.8461538461538,74.01031407631666L512.3076923076923,69.94665102016211L515.7692307692307,71.77213779504967L519.2307692307692,77.82680264403862L522.6923076923077,59.96690033772427L526.1538461538462,40.196697775576325L529.6153846153846,103.47049900647207L533.0769230769231,84.05719817067865L536.5384615384615,108.85579078957473L540,100.19692792437966L543.4615384615385,88.71858576206407L546.9230769230769,89.9856220318209L550.3846153846155,155.999480303059L553.8461538461539,65.49051289329468L557.3076923076924,96.12760716264181L560.7692307692308,84.84980565983736L564.2307692307692,104.77395520207597L567.6923076923076,110.3668635258804L571.1538461538461,99.21019392919976L574.6153846153845,98.95252474251367L578.0769230769231,104.06832292394111L581.5384615384615,81.97599124417327L585,90.44781918855034L588.4615384615385,108.32067064531994L591.9230769230769,109.43107722889076L595.3846153846154,103.71691345903382L598.8461538461538,97.43980985636523L602.3076923076923,109.15588512573665L605.7692307692308,99.84142202520478L609.2307692307693,84.4309428230444L612.6923076923077,115.48589799350938L616.1538461538462,99.50357032224242L619.6153846153846,111.05513149308767L623.0769230769231,116.8590803004099L626.5384615384615,113.27842085579552L630,111.701595419423L633.4615384615385,108.83992956947186L636.9230769230769,59.11429638196542L640.3846153846154,120.82282170481875L643.8461538461538,114.23241523098868L647.3076923076923,107.35440584174248L650.7692307692307,117.70374207167495L654.2307692307692,111.04995183707165L657.6923076923076,111.64484299810084L661.1538461538462,172.8980322003578L664.6153846153846,98.67771224409813L668.0769230769231,121.80829818777536L671.5384615384615,121.28079359207982L675,118.19813938305866L678.4615384615385,131.0352092276091L681.9230769230769,117.23562556423752L685.3846153846154,111.33183580372197L688.8461538461538,113.03603935182885L692.3076923076924,104.74157884071596L695.7692307692308,127.0714686773081L699.2307692307693,122.9767842769408L702.6923076923077,114.08446728553385L706.1538461538462,134.0929276524475L709.6153846153846,116.9231528159086L713.0769230769231,115.30306608803376L716.5384615384615,124.80324668589225L720,97.61609300502909L723.4615384615385,121.6649210597774L726.9230769230769,125.07717086274701L730.3846153846154,118.66530052003787L733.8461538461538,117.41406783519236L737.3076923076923,115.31343233266465L740.7692307692307,115.95366149825001L744.2307692307692,117.12521055586747L747.6923076923077,99.32539564019882L751.1538461538462,124.15174257115756L754.6153846153846,117.9009025162871L758.0769230769231,115.00693968294928L761.5384615384615,114.70198958815179L765,114.07535729753143L768.4615384615385,112.1554922794578L771.9230769230769,182.31240891802162L775.3846153846155,97.96321038332465L778.8461538461539,118.26145913251378L782.3076923076924,117.36682331468866L785.7692307692308,114.15271015035582L789.2307692307692,115.5678709597457L792.6923076923076,112.77332384055983L796.1538461538461,111.24372316425291L799.6153846153845,107.58985650637322L803.0769230769231,95.36065463795626L806.5384615384615,116.77695153829826L810,123.61604875571362L813.4615384615385,119.85501185793832L816.9230769230769,119.97580240383239L820.3846153846154,109.8508393415706L823.8461538461538,128.8758126512599L827.3076923076923,132.72226543612166L830.7692307692308,118.34912417198072L834.2307692307693,115.6242522850169L837.6923076923077,113.03181295515527L841.1538461538462,114.12173889912285L844.6153846153846,110.41509098189255L848.0769230769231,110.32791195133893L851.5384615384615,115.1271101126453L855,113.07712197971631L858.4615384615385,96.13570062003996L861.9230769230769,114.36929960419884L865.3846153846154,122.25762768330037L868.8461538461538,119.25316063247094L872.3076923076923,111.15756610327306L875.7692307692307,115.30334624323446L879.2307692307692,108.00383682500407L882.6923076923076,182.9915516799983L886.1538461538462,100.28749509463934" style="fill: none; stroke: #98df8a; stroke-width: 2;"></path></g></g><path class="foreground" d="" style="display: none; fill: none;"></path></g><g transform="translate(0,0)"><path class="background" d="M0,0h900v600h-900Z" style="fill: none;"></path><g><g class="mark-line role-mark marks"><path d="M6.923076923076923,523.3263618397068L10.384615384615385,485.04689028249237L13.846153846153847,446.75465788884986L17.30769230769231,408.3477749285381L20.76923076923077,370.227446971633L24.230769230769234,342.9601648351648L27.692307692307693,289.4582097478208L31.153846153846157,383.08272494319004L34.61538461538462,358.9808054924334L38.07692307692308,334.83721998573486L41.53846153846154,310.7466655921344L45,286.72427336999215L48.46153846153847,263.33139032381257L51.92307692307693,239.28363248979917L55.38461538461539,194.43945884623858L58.84615384615385,327.3738274576381L62.307692307692314,299.5436956181358L65.76923076923077,287.5309907110509L69.23076923076924,265.5640176013041L72.6923076923077,242.59548034517454L76.15384615384616,251.97805983200402L79.61538461538461,208.52793846381925L83.07692307692308,151.8112047198819L86.53846153846155,282.086605761753L90,269.4618759371355L93.46153846153847,255.06316887532356L96.92307692307693,245.09032674365858L100.38461538461539,231.24094702165021L103.84615384615385,222.69573081571755L107.3076923076923,204.03875661233735L110.76923076923077,143.07275717839377L114.23076923076923,232.36330115714364L117.6923076923077,215.07235338918503L121.15384615384615,201.81918370158348L124.61538461538463,194.28739303077109L128.07692307692307,181.10814927646607L131.53846153846155,174.25496314385202L135,153.1786984620008L138.46153846153848,102.8409980767665L141.9230769230769,189.88181629691067L145.3846153846154,183.6471221086605L148.84615384615384,170.4126471033891L152.30769230769232,166.1199461588315L155.76923076923077,157.59704435129805L159.23076923076923,140.05890718411524L162.69230769230768,129.42109436954792L166.15384615384616,87.94574868538257L169.6153846153846,172.64858983941375L173.0769230769231,159.62286566710875L176.53846153846155,148.2887684522562L180,142.76881460728436L183.46153846153845,146.34396187268325L186.92307692307693,126.95617151140839L190.3846153846154,111.76766274786365L193.84615384615387,80.62475627269893L197.3076923076923,154.5681946592323L200.76923076923077,146.76093137631602L204.23076923076923,140.82328139612284L207.6923076923077,131.16429917091276L211.15384615384616,122.41225581583856L214.6153846153846,115.36153129751148L218.07692307692307,149.0985919611655L221.53846153846155,81.5225445264688L225,138.18576347940942L228.46153846153845,135.6299259756127L231.9230769230769,126.6333253949352L235.3846153846154,117.45550049410338L238.84615384615384,110.07456958397455L242.3076923076923,108.17554393981077L245.76923076923075,97.67357828110971L249.23076923076925,79.43295375319535L252.6923076923077,130.38383931785373L256.15384615384613,121.23762425562867L259.6153846153846,113.65494467450492L263.0769230769231,107.13479598777997L266.53846153846155,100.74335749060263L270,97.38669721486362L273.46153846153845,86.8134091277931L276.92307692307696,60.05629023818477L280.3846153846154,125.72890066828708L283.8461538461538,107.31614056662755L287.30769230769226,110.19910506358441L290.7692307692308,95.28715815120314L294.2307692307692,94.77538927720339L297.6923076923077,83.24937976916986L301.15384615384613,81.41282806545564L304.61538461538464,59.29310964889625L308.0769230769231,105.43727320676624L311.53846153846155,100.87157625860786L315,96.49932224889007L318.46153846153845,118.86365001119093L321.9230769230769,88.94787745663419L325.38461538461536,77.13041830835972L328.8461538461538,89.76053854426836L332.3076923076923,51.61779924111758L335.7692307692308,121.12551890082473L339.2307692307692,103.80360682130865L342.6923076923077,110.02413972969738L346.1538461538462,112.72999298044257L349.61538461538464,88.54929450504L353.0769230769231,84.88798521452425L356.53846153846155,78.27770381724737L360,51.06840157574308L363.46153846153845,94.05143017543378L366.9230769230769,90.75431592083972L370.38461538461536,84.23661691693749L373.84615384615387,87.38066082207223L377.3076923076923,74.56729817819556L380.7692307692308,72.88958907706449L384.2307692307692,65.56007474991756L387.69230769230774,47.259079162573414L391.1538461538462,89.46519292050714L394.6153846153846,89.20271131120671L398.07692307692304,74.43619418643857L401.53846153846155,91.04938007212833L405,86.5362883932116L408.46153846153845,66.26375001202966L411.9230769230769,60.32266779883433L415.3846153846154,42.42090134078866L418.84615384615387,89.84653506910803L422.3076923076923,79.63755941179069L425.7692307692308,77.32952353302953L429.2307692307692,68.2058711633573L432.6923076923077,64.42855522898547L436.15384615384613,60.92256278150583L439.6153846153846,153.57164232105876L443.0769230769231,36.42118663289753L446.53846153846155,79.54603158111166L450,85.05557996690449L453.46153846153845,87.74706939334298L456.9230769230769,71.06081604592033L460.38461538461536,82.36277570178633L463.8461538461538,75.46254410974909L467.3076923076923,74.8378059148773L470.7692307692308,60.94559142071785L474.2307692307692,84.02276530513808L477.6923076923077,77.53914761084346L481.15384615384613,73.97252254418405L484.6153846153846,79.78182174292945L488.07692307692304,59.36131356003853L491.5384615384615,64.69465046662646L495.00000000000006,65.14229583344704L498.4615384615385,36.850167298493L501.92307692307696,87.48860007218562L505.3846153846154,91.6509803092151L508.8461538461538,77.43808378578629L512.3076923076923,84.70943262547277L515.7692307692307,68.70879072968322L519.2307692307692,77.2211613315323L522.6923076923077,71.63365509870074L526.1538461538462,52.419283407179606L529.6153846153846,87.71715339262119L533.0769230769231,103.2473751554731L536.5384615384615,105.09904844728032L540,100.22483668680648L543.4615384615385,96.87306355472376L546.9230769230769,97.6859368918922L550.3846153846155,155.68943637598872L553.8461538461539,49.53513804643026L557.3076923076924,85.2056400214179L560.7692307692308,102.46654503110426L564.2307692307692,84.74590694246129L567.6923076923076,98.03150711158206L571.1538461538461,94.3059500082657L574.6153846153845,89.06974878796294L578.0769230769231,89.3335872048743L581.5384615384615,79.13984551013837L585,90.56926042505427L588.4615384615385,116.820825351321L591.9230769230769,108.0434417779482L595.3846153846154,113.25960464427689L598.8461538461538,113.54313946653537L602.3076923076923,100.26725809153787L605.7692307692308,91.5833727291145L609.2307692307693,99.40774832572062L612.6923076923077,117.77252555083962L616.1538461538462,113.20277930218445L619.6153846153846,104.67575933237808L623.0769230769231,95.9198607771635L626.5384615384615,117.72805257142302L630,110.54678852661206L633.4615384615385,108.44871356570629L636.9230769230769,63.36128326649661L640.3846153846154,113.03913857305004L643.8461538461538,108.6637944589452L647.3076923076923,114.05873459476783L650.7692307692307,118.0604385504927L654.2307692307692,107.62273917522391L657.6923076923076,115.46167582747573L661.1538461538462,169.05979702691369L664.6153846153846,87.02181753680594L668.0769230769231,120.74621231746214L671.5384615384615,125.80742975897286L675,122.96819787985866L678.4615384615385,132.675462031833L681.9230769230769,117.04799548559164L685.3846153846154,112.48855236884638L688.8461538461538,113.71205066120318L692.3076923076924,99.68932521436551L695.7692307692308,128.3283852731507L699.2307692307693,123.69103188505584L702.6923076923077,116.79932134035278L706.1538461538462,134.22688258424594L709.6153846153846,113.55370054353462L713.0769230769231,116.67903467337356L716.5384615384615,121.96623962170787L720,99.24134933197735L723.4615384615385,121.78549960248972L726.9230769230769,120.90249697122279L730.3846153846154,117.8897136936707L733.8461538461538,117.50762850447589L737.3076923076923,115.35836177474397L740.7692307692307,117.65054065866866L744.2307692307692,116.63827938215421L747.6923076923077,97.83499462381215L751.1538461538462,118.00697948528438L754.6153846153846,118.21286000139375L758.0769230769231,115.46773273022875L761.5384615384615,116.51281873692629L765,114.26024955436725L768.4615384615385,112.45000688402268L771.9230769230769,180.46018497631397L775.3846153846155,98.3764416078826L778.8461538461539,118.65222623345363L782.3076923076924,117.69119100696068L785.7692307692308,114.04003282548969L789.2307692307692,116.04320835090063L792.6923076923076,111.08732770438942L796.1538461538461,111.7935794742562L799.6153846153845,108.49172270085707L803.0769230769231,95.3603191345281L806.5384615384615,116.75019821144778L810,123.77728888136737L813.4615384615385,122.00072331145122L816.9230769230769,120.14427497112139L820.3846153846154,112.02674636397771L823.8461538461538,130.33370378157574L827.3076923076923,138.7274306789191L830.7692307692308,116.29616052775118L834.2307692307693,115.64279493535207L837.6923076923077,113.30696520748143L841.1538461538462,114.04238211301607L844.6153846153846,110.09869048316855L848.0769230769231,110.64150582868189L851.5384615384615,115.45133136967465L855,112.50369494531478L858.4615384615385,100.18693335825775L861.9230769230769,114.49963527258211L865.3846153846154,118.00479171166684L868.8461538461538,119.93397040358956L872.3076923076923,112.21655745441323L875.7692307692307,114.77642711666243L879.2307692307692,108.3650384251788L882.6923076923076,182.20214615789817L886.1538461538462,99.3730659948695" style="fill: none; stroke: #d62728; stroke-width: 2;"></path></g></g><path class="foreground" d="" style="display: none; fill: none;"></path></g><g transform="translate(0,0)"><path class="background" d="M0,0h900v600h-900Z" style="fill: none;"></path><g><g class="mark-line role-mark marks"><path d="M6.923076923076923,538.3668449032737L10.384615384615385,507.4945672883817L13.846153846153847,476.7006934041666L17.30769230769231,445.7416662373126L20.76923076923077,415.1129042218151L24.230769230769234,386.667480990625L27.692307692307693,379.66257612275314L31.153846153846157,417.47779727221206L34.61538461538462,396.9377561214296L38.07692307692308,378.2186234817814L41.53846153846154,358.0354552018733L45,346.95121951219505L48.46153846153847,317.7946806537028L51.92307692307693,298.4965187851064L55.38461538461539,262.86008157974453L58.84615384615385,338.3738033184528L62.307692307692314,321.47038067167585L65.76923076923077,303.7422037422038L69.23076923076924,288.050024975874L72.6923076923077,274.58779145599385L76.15384615384616,257.3485866346643L79.61538461538461,241.86633039092052L83.07692307692308,235.49497431827027L86.53846153846155,308.18151835914193L90,296.5320131676321L93.46153846153847,284.90841182393245L96.92307692307693,279.5423573523864L100.38461538461539,261.5855633077217L103.84615384615385,257.85965686227496L107.3076923076923,251.51220102433027L110.76923076923077,222.91002179813844L114.23076923076923,283.2733472248531L117.6923076923077,273.7511047514835L121.15384615384615,264.1908809729207L124.61538461538463,255.2129715197849L128.07692307692307,245.0540665628813L131.53846153846155,227.29873314262355L135,218.94150417827294L138.46153846153848,206.9137863363789L141.9230769230769,255.34543197150086L145.3846153846154,246.82882964919065L148.84615384615384,238.7269376632063L152.30769230769232,232.22348380812693L155.76923076923077,234.33667781493867L159.23076923076923,213.29291370199869L162.69230769230768,212.13107978283696L166.15384615384616,187.0417762094837L169.6153846153846,253.73066095618495L173.0769230769231,238.3842164621984L176.53846153846155,236.40287647664354L180,224.754451808672L183.46153846153845,217.67873923786019L186.92307692307693,214.99499317250803L190.3846153846154,207.87764549381546L193.84615384615387,191.37834111618932L197.3076923076923,236.45383034512082L200.76923076923077,222.5205208843127L204.23076923076923,223.76583699162964L207.6923076923077,209.96749729144094L211.15384615384616,205.40898106258285L214.6153846153846,204.93261208398272L218.07692307692307,211.57163856408556L221.53846153846155,189.8020824879304L225,220.96689986425812L228.46153846153845,222.35018792154136L231.9230769230769,210.84805685579522L235.3846153846154,210.34674493916728L238.84615384615384,204.48452024465692L242.3076923076923,199.36143794714118L245.76923076923075,197.01755622928857L249.23076923076925,180.76080941267057L252.6923076923077,221.11924065651573L256.15384615384613,215.37559172638825L259.6153846153846,202.75935124717006L263.0769230769231,197.5109228121277L266.53846153846155,192.5023819389765L270,188.33128848971424L273.46153846153845,189.3537356951992L276.92307692307696,170.99376781487032L280.3846153846154,213.819678019789L283.8461538461538,212.87600236961336L287.30769230769226,204.16371772955438L290.7692307692308,199.02349710100705L294.2307692307692,197.1999826892284L297.6923076923077,189.3063520791993L301.15384615384613,184.45717729683128L304.61538461538464,174.1541449930426L308.0769230769231,210.65906386925633L311.53846153846155,203.73768989040585L315,192.24985540775018L318.46153846153845,198.05125398484878L321.9230769230769,181.7021177867365L325.38461538461536,178.61169818309287L328.8461538461538,174.43291658980985L332.3076923076923,160.82838362882688L335.7692307692308,196.36563254665512L339.2307692307692,191.1708253358925L342.6923076923077,189.00485013853242L346.1538461538462,184.22398634846184L349.61538461538464,187.573543864731L353.0769230769231,174.3945337555449L356.53846153846155,170.33088105697135L360,169.87175163562435L363.46153846153845,215.0660336167482L366.9230769230769,198.98030050129898L370.38461538461536,182.46552239672852L373.84615384615387,187.90625399212152L377.3076923076923,185.34740206187L380.7692307692308,170.92693458108712L384.2307692307692,167.14556612536612L387.69230769230774,168.5330645206961L391.1538461538462,187.13460662156623L394.6153846153846,184.58110710904603L398.07692307692304,188.91425459020192L401.53846153846155,187.57127894798091L405,182.0572177331295L408.46153846153845,178.19027862298978L411.9230769230769,165.33294488846872L415.3846153846154,165.7427395329662L418.84615384615387,193.22640619903282L422.3076923076923,189.4250569334118L425.7692307692308,186.32818218474793L429.2307692307692,173.54930431488634L432.6923076923077,170.09164743799826L436.15384615384613,174.54509340895797L439.6153846153846,231.56070947933375L443.0769230769231,153.7605197868281L446.53846153846155,182.29154019688926L450,177.53570889071653L453.46153846153845,193.35929595219557L456.9230769230769,180.4581517600872L460.38461538461536,177.92071474366858L463.8461538461538,174.53099799992552L467.3076923076923,170.84209269972456L470.7692307692308,163.63856244307587L474.2307692307692,178.37263082489167L477.6923076923077,185.0077726112185L481.15384615384613,184.376399099636L484.6153846153846,180.2723484070951L488.07692307692304,175.68146747462112L491.5384615384615,181.89096609770624L495.00000000000006,168.45355671474522L498.4615384615385,165.77183661910027L501.92307692307696,193.57713167024556L505.3846153846154,181.1770707606544L508.8461538461538,177.95340899121936L512.3076923076923,189.48534006731552L515.7692307692307,181.42471778835417L519.2307692307692,179.11128842327025L522.6923076923077,181.4159270373869L526.1538461538462,175.32704409075203L529.6153846153846,179.4812227502883L533.0769230769231,195.85897176973629L536.5384615384615,213.0516317511643L540,181.1359924041873L543.4615384615385,197.4812699175492L546.9230769230769,187.10699937341045L550.3846153846155,228.00041145042326L553.8461538461539,159.8911708667516L557.3076923076924,196.6082356798596L560.7692307692308,213.60208645424063L564.2307692307692,184.7427641355884L567.6923076923076,185.6260527793374L571.1538461538461,195.09713128488605L574.6153846153845,182.53680122031508L578.0769230769231,184.24881923652003L581.5384615384615,178.98746799773667L585,203.76363839677947L588.4615384615385,197.9200159049542L591.9230769230769,195.91552546594812L595.3846153846154,191.6184164793049L598.8461538461538,217.0597173863623L602.3076923076923,183.6712844304577L605.7692307692308,200.08125333265622L609.2307692307693,181.44798257309773L612.6923076923077,201.73132014156417L616.1538461538462,210.02106150828513L619.6153846153846,197.97683533835325L623.0769230769231,197.18960112093382L626.5384615384615,197.3167936358121L630,207.22969411524664L633.4615384615385,199.7230543152659L636.9230769230769,173.93526697655273L640.3846153846154,221.2235311579825L643.8461538461538,223.24765990720732L647.3076923076923,214.503321883111L650.7692307692307,212.60865847749875L654.2307692307692,211.59968515636825L657.6923076923076,224.10543618743276L661.1538461538462,240.7786264327583L664.6153846153846,196.99597695636712L668.0769230769231,226.9402737372356L671.5384615384615,225.299374211326L675,221.45204069514267L678.4615384615385,227.76633735630682L681.9230769230769,225.2095817944993L685.3846153846154,216.59539388943276L688.8461538461538,223.211004065267L692.3076923076924,211.1001252389427L695.7692307692308,222.64544525334276L699.2307692307693,222.46433710224483L702.6923076923077,229.80973800984742L706.1538461538462,234.43671302550297L709.6153846153846,227.57445686961103L713.0769230769231,226.57645776114626L716.5384615384615,228.94723918345966L720,215.36166403819104L723.4615384615385,232.58858455365004L726.9230769230769,231.16305264728948L730.3846153846154,231.297423817833L733.8461538461538,220.9375826334412L737.3076923076923,217.0558305045182L740.7692307692307,215.29268766023512L744.2307692307692,216.05605199982102L747.6923076923077,210.92832451792927L751.1538461538462,221.0453203681195L754.6153846153846,222.62105033776422L758.0769230769231,229.5293712798253L761.5384615384615,230.00401179362208L765,224.50421700478688L768.4615384615385,224.4481425958272L771.9230769230769,265.89104512508766L775.3846153846155,211.64339812026645L778.8461538461539,230.93594822795473L782.3076923076924,231.99155510636743L785.7692307692308,219.01672934701747L789.2307692307692,226.82814183814847L792.6923076923076,225.92256476148535L796.1538461538461,225.6066442347589L799.6153846153845,220.47291889912236L803.0769230769231,211.28324173788823L806.5384615384615,232.4412764051202L810,231.07007061379687L813.4615384615385,229.9512449448335L816.9230769230769,228.8821910627702L820.3846153846154,227.16377422259768L823.8461538461538,230.5057072884293L827.3076923076923,237.67798677846937L830.7692307692308,226.21569535533408L834.2307692307693,231.11860092615336L837.6923076923077,220.6937070705991L841.1538461538462,227.88760403344247L844.6153846153846,218.51618505017493L848.0769230769231,224.87993462709238L851.5384615384615,223.69538589483307L855,223.71159320702859L858.4615384615385,225.24823078273994L861.9230769230769,231.46688696557277L865.3846153846154,220.58401956100153L868.8461538461538,219.24638485829436L872.3076923076923,217.9569504341053L875.7692307692307,226.11707574394146L879.2307692307692,222.61744946813954L882.6923076923076,244.7000072436288L886.1538461538462,213.04834196564863" style="fill: none; stroke: #2ca02c; stroke-width: 2;"></path></g></g><path class="foreground" d="" style="display: none; fill: none;"></path></g></g><g class="mark-group role-legend"><g transform="translate(918,0)"><path class="background" d="M0,0h101v105h-101Z" style="pointer-events: none; fill: none;"></path><g><g class="mark-group role-legend-entry"><g transform="translate(0,16)"><path class="background" d="M0,0h0v0h0Z" style="pointer-events: none; fill: none;"></path><g><g class="mark-group role-scope"><g transform="translate(0,0)"><path class="background" d="M0,0h101v11h-101Z" style="pointer-events: none; fill: none; opacity: 1;"></path><g><g class="mark-symbol role-legend-symbol" style="pointer-events: none;"><path transform="translate(6,6)" d="M-5,0L5,0" style="fill: none; stroke: #1f77b4; stroke-width: 1.5; opacity: 1;"></path></g><g class="mark-text role-legend-label" style="pointer-events: none;"><text text-anchor="start" transform="translate(16,9)" style="font-family: sans-serif; font-size: 10px; fill: #000; opacity: 1;">Clang-Polly</text></g></g><path class="foreground" d="" style="pointer-events: none; display: none; fill: none;"></path></g><g transform="translate(0,13)"><path class="background" d="M0,0h101v11h-101Z" style="pointer-events: none; fill: none; opacity: 1;"></path><g><g class="mark-symbol role-legend-symbol" style="pointer-events: none;"><path transform="translate(6,6)" d="M-5,0L5,0" style="fill: none; stroke: #aec7e8; stroke-width: 1.5; opacity: 1;"></path></g><g class="mark-text role-legend-label" style="pointer-events: none;"><text text-anchor="start" transform="translate(16,9)" style="font-family: sans-serif; font-size: 10px; fill: #000; opacity: 1;">GFortran</text></g></g><path class="foreground" d="" style="pointer-events: none; display: none; fill: none;"></path></g><g transform="translate(0,26)"><path class="background" d="M0,0h101v11h-101Z" style="pointer-events: none; fill: none; opacity: 1;"></path><g><g class="mark-symbol role-legend-symbol" style="pointer-events: none;"><path transform="translate(6,6)" d="M-5,0L5,0" style="fill: none; stroke: #ff7f0e; stroke-width: 1.5; opacity: 1;"></path></g><g class="mark-text role-legend-label" style="pointer-events: none;"><text text-anchor="start" transform="translate(16,9)" style="font-family: sans-serif; font-size: 10px; fill: #000; opacity: 1;">Julia</text></g></g><path class="foreground" d="" style="pointer-events: none; display: none; fill: none;"></path></g><g transform="translate(0,39)"><path class="background" d="M0,0h101v11h-101Z" style="pointer-events: none; fill: none; opacity: 1;"></path><g><g class="mark-symbol role-legend-symbol" style="pointer-events: none;"><path transform="translate(6,6)" d="M-5,0L5,0" style="fill: none; stroke: #ffbb78; stroke-width: 1.5; opacity: 1;"></path></g><g class="mark-text role-legend-label" style="pointer-events: none;"><text text-anchor="start" transform="translate(16,9)" style="font-family: sans-serif; font-size: 10px; fill: #000; opacity: 1;">Julia-builtin</text></g></g><path class="foreground" d="" style="pointer-events: none; display: none; fill: none;"></path></g><g transform="translate(0,52)"><path class="background" d="M0,0h101v11h-101Z" style="pointer-events: none; fill: none; opacity: 1;"></path><g><g class="mark-symbol role-legend-symbol" style="pointer-events: none;"><path transform="translate(6,6)" d="M-5,0L5,0" style="fill: none; stroke: #2ca02c; stroke-width: 1.5; opacity: 1;"></path></g><g class="mark-text role-legend-label" style="pointer-events: none;"><text text-anchor="start" transform="translate(16,9)" style="font-family: sans-serif; font-size: 10px; fill: #000; opacity: 1;">LoopVectorization</text></g></g><path class="foreground" d="" style="pointer-events: none; display: none; fill: none;"></path></g><g transform="translate(0,65)"><path class="background" d="M0,0h101v11h-101Z" style="pointer-events: none; fill: none; opacity: 1;"></path><g><g class="mark-symbol role-legend-symbol" style="pointer-events: none;"><path transform="translate(6,6)" d="M-5,0L5,0" style="fill: none; stroke: #98df8a; stroke-width: 1.5; opacity: 1;"></path></g><g class="mark-text role-legend-label" style="pointer-events: none;"><text text-anchor="start" transform="translate(16,9)" style="font-family: sans-serif; font-size: 10px; fill: #000; opacity: 1;">icc</text></g></g><path class="foreground" d="" style="pointer-events: none; display: none; fill: none;"></path></g><g transform="translate(0,78)"><path class="background" d="M0,0h101v11h-101Z" style="pointer-events: none; fill: none; opacity: 1;"></path><g><g class="mark-symbol role-legend-symbol" style="pointer-events: none;"><path transform="translate(6,6)" d="M-5,0L5,0" style="fill: none; stroke: #d62728; stroke-width: 1.5; opacity: 1;"></path></g><g class="mark-text role-legend-label" style="pointer-events: none;"><text text-anchor="start" transform="translate(16,9)" style="font-family: sans-serif; font-size: 10px; fill: #000; opacity: 1;">ifort</text></g></g><path class="foreground" d="" style="pointer-events: none; display: none; fill: none;"></path></g></g></g><path class="foreground" d="" style="pointer-events: none; display: none; fill: none;"></path></g></g><g class="mark-text role-legend-title" style="pointer-events: none;"><text text-anchor="start" transform="translate(0,9)" style="font-family: sans-serif; font-size: 11px; font-weight: bold; fill: #000; opacity: 1;">Method</text></g></g><path class="foreground" d="" style="pointer-events: none; display: none; fill: none;"></path></g></g></g><path class="foreground" d="" style="display: none; fill: none;"></path></g></g></g></svg>
