<svg class="marks" width="883" height="522" viewBox="0 0 883 522" version="1.1" xmlns="http://www.w3.org/2000/svg" xmlns:xlink="http://www.w3.org/1999/xlink"><g transform="translate(39,5)"><g class="mark-group role-frame root"><g transform="translate(0,0)"><path class="background" d="M0.5,0.5h720v480h-720Z" style="fill: none; stroke: #ddd;"></path><g><g class="mark-group role-axis"><g transform="translate(0.5,480.5)"><path class="background" d="M0,0h0v0h0Z" style="pointer-events: none; fill: none;"></path><g><g class="mark-rule role-axis-grid" style="pointer-events: none;"><line transform="translate(0,-480)" x2="0" y2="480" style="fill: none; stroke: #ddd; stroke-width: 1; opacity: 1;"></line><line transform="translate(55,-480)" x2="0" y2="480" style="fill: none; stroke: #ddd; stroke-width: 1; opacity: 1;"></line><line transform="translate(111,-480)" x2="0" y2="480" style="fill: none; stroke: #ddd; stroke-width: 1; opacity: 1;"></line><line transform="translate(166,-480)" x2="0" y2="480" style="fill: none; stroke: #ddd; stroke-width: 1; opacity: 1;"></line><line transform="translate(222,-480)" x2="0" y2="480" style="fill: none; stroke: #ddd; stroke-width: 1; opacity: 1;"></line><line transform="translate(277,-480)" x2="0" y2="480" style="fill: none; stroke: #ddd; stroke-width: 1; opacity: 1;"></line><line transform="translate(332,-480)" x2="0" y2="480" style="fill: none; stroke: #ddd; stroke-width: 1; opacity: 1;"></line><line transform="translate(388,-480)" x2="0" y2="480" style="fill: none; stroke: #ddd; stroke-width: 1; opacity: 1;"></line><line transform="translate(443,-480)" x2="0" y2="480" style="fill: none; stroke: #ddd; stroke-width: 1; opacity: 1;"></line><line transform="translate(498,-480)" x2="0" y2="480" style="fill: none; stroke: #ddd; stroke-width: 1; opacity: 1;"></line><line transform="translate(554,-480)" x2="0" y2="480" style="fill: none; stroke: #ddd; stroke-width: 1; opacity: 1;"></line><line transform="translate(609,-480)" x2="0" y2="480" style="fill: none; stroke: #ddd; stroke-width: 1; opacity: 1;"></line><line transform="translate(665,-480)" x2="0" y2="480" style="fill: none; stroke: #ddd; stroke-width: 1; opacity: 1;"></line><line transform="translate(720,-480)" x2="0" y2="480" style="fill: none; stroke: #ddd; stroke-width: 1; opacity: 1;"></line></g></g></g></g><g class="mark-group role-axis"><g transform="translate(0.5,0.5)"><path class="background" d="M0,0h0v0h0Z" style="pointer-events: none; fill: none;"></path><g><g class="mark-rule role-axis-grid" style="pointer-events: none;"><line transform="translate(0,480)" x2="720" y2="0" style="fill: none; stroke: #ddd; stroke-width: 1; opacity: 1;"></line><line transform="translate(0,453)" x2="720" y2="0" style="fill: none; stroke: #ddd; stroke-width: 1; opacity: 1;"></line><line transform="translate(0,425)" x2="720" y2="0" style="fill: none; stroke: #ddd; stroke-width: 1; opacity: 1;"></line><line transform="translate(0,398)" x2="720" y2="0" style="fill: none; stroke: #ddd; stroke-width: 1; opacity: 1;"></line><line transform="translate(0,370)" x2="720" y2="0" style="fill: none; stroke: #ddd; stroke-width: 1; opacity: 1;"></line><line transform="translate(0,343)" x2="720" y2="0" style="fill: none; stroke: #ddd; stroke-width: 1; opacity: 1;"></line><line transform="translate(0,315)" x2="720" y2="0" style="fill: none; stroke: #ddd; stroke-width: 1; opacity: 1;"></line><line transform="translate(0,288)" x2="720" y2="0" style="fill: none; stroke: #ddd; stroke-width: 1; opacity: 1;"></line><line transform="translate(0,261)" x2="720" y2="0" style="fill: none; stroke: #ddd; stroke-width: 1; opacity: 1;"></line><line transform="translate(0,233)" x2="720" y2="0" style="fill: none; stroke: #ddd; stroke-width: 1; opacity: 1;"></line><line transform="translate(0,206)" x2="720" y2="0" style="fill: none; stroke: #ddd; stroke-width: 1; opacity: 1;"></line><line transform="translate(0,178)" x2="720" y2="0" style="fill: none; stroke: #ddd; stroke-width: 1; opacity: 1;"></line><line transform="translate(0,151)" x2="720" y2="0" style="fill: none; stroke: #ddd; stroke-width: 1; opacity: 1;"></line><line transform="translate(0,123)" x2="720" y2="0" style="fill: none; stroke: #ddd; stroke-width: 1; opacity: 1;"></line><line transform="translate(0,96)" x2="720" y2="0" style="fill: none; stroke: #ddd; stroke-width: 1; opacity: 1;"></line><line transform="translate(0,69)" x2="720" y2="0" style="fill: none; stroke: #ddd; stroke-width: 1; opacity: 1;"></line><line transform="translate(0,41)" x2="720" y2="0" style="fill: none; stroke: #ddd; stroke-width: 1; opacity: 1;"></line><line transform="translate(0,14)" x2="720" y2="0" style="fill: none; stroke: #ddd; stroke-width: 1; opacity: 1;"></line></g></g></g></g><g class="mark-group role-scope pathgroup"><g transform="translate(0,0)"><path class="background" d="M0,0h720v480h-720Z" style="fill: none;"></path><g><g class="mark-line role-mark marks"><path d="M5.538461538461538,472.66464412521896L8.307692307692308,466.67190667017377L11.076923076923077,465.26788964321827L13.846153846153847,457.5508859758909L16.615384615384617,453.79747096655854L19.384615384615387,450.39014501793235L22.153846153846153,447.52198307899954L24.923076923076923,448.1638334063934L27.692307692307693,446.1712884939482L30.461538461538463,444.1306251921863L33.23076923076923,442.39857874386036L36,440.23625169571113L38.769230769230774,439.37752915357805L41.53846153846154,437.6545800367319L44.30769230769231,438.1126056927041L47.07692307692308,435.61529131583694L49.84615384615385,435.27789878283147L52.61538461538462,433.8264762310808L55.38461538461539,433.37180898790535L58.15384615384616,434.43804593982526L60.92307692307693,432.0655545881461L63.69230769230769,431.3697724611351L66.46153846153847,443.33901710127833L69.23076923076924,429.98722792110885L72,429.94439379274326L74.76923076923077,429.09655952305565L77.53846153846155,441.11959406258205L80.3076923076923,428.5008677632431L83.07692307692308,434.9749228104526L85.84615384615385,427.7022932040974L88.61538461538461,346.1957750119567L91.38461538461539,362.4527634098693L94.15384615384616,361.71812271290014L96.92307692307692,370.2490176698888L99.6923076923077,364.0945106335597L102.46153846153845,379.7541348317464L105.23076923076924,379.1585205252662L108,382.78968453767936L110.76923076923077,372.15811894552263L113.53846153846153,383.49149935924817L116.30769230769232,389.4004020972129L119.07692307692308,387.29516901204124L121.84615384615385,386.3230883460786L124.61538461538461,390.96793332171023L127.38461538461539,399.0889591073375L130.15384615384616,393.4270985644912L132.92307692307693,388.78293827693875L135.69230769230768,398.43650144905996L138.46153846153848,397.5379876188502L141.23076923076923,399.78244970850307L144,399.7861093261137L146.76923076923077,401.8257884377718L149.53846153846155,401.07586906876423L152.3076923076923,402.96775733782505L155.0769230769231,399.61121495327103L157.84615384615384,412.2573709073139L160.6153846153846,403.7755354930076L163.3846153846154,406.7631685641964L166.15384615384616,403.38982299413675L168.92307692307693,414.3907725085406L171.6923076923077,405.2549067266209L174.46153846153845,417.6958736336061L177.23076923076923,325.81997176879366L180,357.4719771046983L182.76923076923077,362.74891350063086L185.53846153846152,361.34638417379097L188.30769230769232,359.79365530687676L191.07692307692307,364.446129925291L193.84615384615384,364.3970411147428L196.61538461538458,369.69491139096243L199.3846153846154,353.21469970065596L202.15384615384616,369.8267452002283L204.9230769230769,381.4572515792828L207.69230769230768,372.055051923519L210.46153846153848,378.1959718728771L213.23076923076923,373.43817574208765L216,372.8293439268971L218.76923076923075,376.25979377873205L221.53846153846155,363.54593529066136L224.30769230769232,388.9599549031936L227.07692307692307,377.86813917060897L229.84615384615384,374.1544764892289L232.61538461538464,375.4989200863931L235.3846153846154,377.31518287402014L238.15384615384616,384.9828036132486L240.9230769230769,377.81450837923353L243.6923076923077,380.5430667350442L246.46153846153845,379.4210468303365L249.23076923076923,396.66488050584076L251.99999999999997,380.6066028103272L254.76923076923077,391.74661638256146L257.53846153846155,387.7286214369061L260.3076923076923,394.17887494941317L263.07692307692304,388.9692851889469L265.84615384615387,306.52915571938354L268.61538461538464,352.11326631742884L271.38461538461536,344.01115068917454L274.15384615384613,343.6570327273781L276.92307692307696,336.2594516897001L279.6923076923077,358.79916666093686L282.46153846153845,346.10876267929757L285.2307692307692,353.8058387427635L288,329.98613037447984L290.7692307692308,351.355643788996L293.53846153846155,343.5802254011973L296.3076923076923,356.2037920030035L299.0769230769231,346.894336432798L301.84615384615387,348.11863328900967L304.6153846153846,347.6574466738401L307.38461538461536,362.23004502660666L310.1538461538462,350.71743486973946L312.9230769230769,357.77273809985434L315.6923076923077,358.6628052733953L318.46153846153845,355.426957901106L321.2307692307692,355.544784028261L324,373.39682314349596L326.7692307692308,362.5191898884366L329.53846153846155,369.27708095781077L332.3076923076923,367.48855474393145L335.0769230769231,374.1918218132031L337.84615384615387,367.1622838190002L340.6153846153846,369.7207966932579L343.3846153846154,376.7187237615449L346.1538461538462,377.61441589024264L348.9230769230769,373.1396319018405L351.6923076923077,380.3581839827536L354.46153846153845,288.6798756588728L357.2307692307692,323.11221683907297L360,339.21784073714525L362.7692307692308,343.2128404850988L365.53846153846155,333.00563519525457L368.30769230769226,330.79295763819476L371.07692307692304,338.4647090821385L373.84615384615387,338.2939756108673L376.61538461538464,330.0221404551622L379.3846153846154,343.75815087687795L382.15384615384613,347.2132915702029L384.9230769230769,343.2084848652461L387.6923076923077,334.5847984852583L390.46153846153845,348.0418985722681L393.23076923076917,342.4009098663634L396.00000000000006,347.76882661996495L398.7692307692308,325.0512223006008L401.53846153846155,363.3564493758668L404.3076923076923,347.82056002325356L407.0769230769231,357.2688063895873L409.8461538461538,342.80972108954495L412.6153846153846,354.3598903528163L415.38461538461536,354.86240658131044L418.1538461538462,355.348199752279L420.92307692307696,349.51116340638333L423.6923076923077,358.0522119771906L426.46153846153845,349.32958360834505L429.2307692307692,362.6791913762627L432,351.31670193380177L434.7692307692307,370.4306273267767L437.5384615384615,358.55864194924203L440.3076923076923,367.3583959899749L443.0769230769231,299.0104897840826L445.84615384615387,337.2828630419821L448.61538461538464,334.29907325747826L451.38461538461536,328.31257805530777L454.15384615384613,313.8684853944152L456.9230769230769,344.21622744924866L459.6923076923077,327.9231963207818L462.4615384615385,333.43809645457367L465.2307692307693,315.8821284714861L468,333.1928484421222L470.7692307692308,335.39769889287993L473.53846153846155,351.43104466947887L476.3076923076923,324.65456932270376L479.07692307692304,340.2350022498145L481.8461538461538,325.3100102009136L484.61538461538464,339.8692112638462L487.3846153846154,320.62513063751106L490.1538461538462,351.3492657595421L492.9230769230769,352.6857812565401L495.6923076923077,343.63597673428853L498.46153846153845,337.72833723653395L501.2307692307692,357.6266609599035L503.99999999999994,345.8302321460216L506.76923076923083,348.93226860180096L509.53846153846155,338.8592099149293L512.3076923076924,351.8789604008657L515.0769230769231,349.6092260882367L517.8461538461538,354.3993040940595L520.6153846153846,358.42926562730935L523.3846153846154,353.93109659986493L526.1538461538461,351.2139651984875L528.9230769230769,357.36477069788623L531.6923076923077,295.9133043191788L534.4615384615385,325.05340514682626L537.2307692307693,320.6548354090957L540,341.54633896569385L542.7692307692307,322.63329251172377L545.5384615384615,317.6680653046286L548.3076923076923,325.8160485380812L551.0769230769231,318.0451396876518L553.8461538461539,313.79645259303504L556.6153846153846,320.93964025295486L559.3846153846154,327.33907197661676L562.1538461538462,333.1500584643367L564.9230769230769,326.1737849779087L567.6923076923076,348.6198418427437L570.4615384615385,328.6645399456711L573.2307692307692,336.660680891594L576,298.5631285111439L578.7692307692308,338.10018611471435L581.5384615384615,340.6826122010212L584.3076923076923,341.18066367130405L587.0769230769231,335.15239139679056L589.8461538461538,343.46205210194677L592.6153846153846,340.69437095011006L595.3846153846154,343.4038230676886L598.1538461538462,331.3178310013445L600.9230769230769,350.16646562123043L603.6923076923077,344.64014241210504L606.4615384615385,352.80006630383735L609.2307692307692,339.5192743764172L612,348.1587582774474L614.7692307692307,338.3771907505799L617.5384615384615,362.2416102416102L620.3076923076924,295.3605903068925L623.0769230769231,324.49326990763456L625.8461538461538,311.02861967365646L628.6153846153846,363.53931631980413L631.3846153846154,307.66445463806565L634.1538461538462,332.6701101827599L636.9230769230769,318.3858956815071L639.6923076923076,334.29407665505227L642.4615384615385,311.110956157936L645.2307692307693,343.83780959347894L648,323.244039542547L650.7692307692308,323.14560866285L653.5384615384615,322.10214839424145L656.3076923076923,334.0373824186235L659.0769230769231,329.71329077190944L661.8461538461538,323.7627215225939L664.6153846153846,306.23979386086654L667.3846153846154,336.29813664596276L670.1538461538462,370.8448724420456L672.9230769230769,351.09990335967257L675.6923076923077,348.1160209520733L678.4615384615385,361.7496229260935L681.2307692307692,359.09771807331714L684,361.51315483355415L686.7692307692308,346.4423357499124L689.5384615384615,368.00060213758843L692.3076923076924,362.9519517762041L695.0769230769231,377.3611648508298L697.8461538461538,380.83552519214345L700.6153846153846,380.8597081387188L703.3846153846154,375.297218254203L706.1538461538461,379.9134199134199L708.9230769230769,360.194690939559" style="fill: none; stroke: #e45756; stroke-width: 2;"></path></g></g></g><g transform="translate(0,0)"><path class="background" d="M0,0h720v480h-720Z" style="fill: none;"></path><g><g class="mark-line role-mark marks"><path d="M5.538461538461538,474.40857011413675L8.307692307692308,468.4916968377176L11.076923076923077,464.5357914387911L13.846153846153847,462.7434062162957L16.615384615384617,457.2014952723008L19.384615384615387,451.44299877416717L22.153846153846153,445.7372256581236L24.923076923076923,446.0125900725938L27.692307692307693,440.2861890068156L30.461538461538463,435.90720257071314L33.23076923076923,433.8381851410244L36,434.24557327724926L38.769230769230774,431.1119307814554L41.53846153846154,425.69620305107327L44.30769230769231,426.08544596273293L47.07692307692308,427.3515572515912L49.84615384615385,423.8921681615473L52.61538461538462,420.15693046171396L55.38461538461539,424.11312329446787L58.15384615384616,435.3270270914246L60.92307692307693,421.92111690159805L63.69230769230769,419.0728757286134L66.46153846153847,419.59391140206435L69.23076923076924,421.35199094557055L72,418.77735849056603L74.76923076923077,415.41836005309915L77.53846153846155,416.8993700533032L80.3076923076923,422.8063903544995L83.07692307692308,416.1215566801361L85.84615384615385,413.88989049657124L88.61538461538461,396.41376616064605L91.38461538461539,411.107971130873L94.15384615384616,408.124940099341L96.92307692307692,407.1606840240333L99.6923076923077,406.9834983101042L102.46153846153845,414.0651580544516L105.23076923076924,412.06370987503067L108,412.1587541905483L110.76923076923077,405.3125008395144L113.53846153846153,413.32073627626653L116.30769230769232,415.53312681123214L119.07692307692308,408.9800789189095L121.84615384615385,408.02495555630094L124.61538461538461,411.47187991128476L127.38461538461539,412.46790108318004L130.15384615384616,408.15368905261346L132.92307692307693,406.94885803851315L135.69230769230768,412.02758620689656L138.46153846153848,411.67198996432353L141.23076923076923,411.41538715082265L144,408.34812371475493L146.76923076923077,412.99690656330364L149.53846153846155,411.1155677497939L152.3076923076923,410.81678598229917L155.0769230769231,408.2661996497373L157.84615384615384,412.5394181896831L160.6153846153846,411.33161101011063L163.3846153846154,413.18951987764524L166.15384615384616,409.57000203790506L168.92307692307693,412.09014952045095L171.6923076923077,411.56210010941936L174.46153846153845,410.4472271914133L177.23076923076923,393.8241707667189L180,409.88097399061274L182.76923076923077,408.93662217161886L185.53846153846152,407.77212580345093L188.30769230769232,408.3973836810736L191.07692307692307,412.07769241057497L193.84615384615384,411.1051876153373L196.61538461538458,411.8275177145111L199.3846153846154,404.27049729137497L202.15384615384616,411.4664384326275L204.9230769230769,410.25900457691205L207.69230769230768,410.66156853233656L210.46153846153848,408.6898296002572L213.23076923076923,411.88999022755826L216,410.2813639799992L218.76923076923075,410.20271695866313L221.53846153846155,404.82820030043706L224.30769230769232,411.1411200932905L227.07692307692307,409.99293848285834L229.84615384615384,408.18113699299556L232.61538461538464,406.66621758167736L235.3846153846154,410.76577550782747L238.15384615384616,409.8595686296032L240.9230769230769,407.4440154440154L243.6923076923077,404.7258735908917L246.46153846153845,409.51483376107245L249.23076923076923,410.5849861913131L251.99999999999997,408.78353909465017L254.76923076923077,408.3166687802914L257.53846153846155,413.3998556188337L260.3076923076923,409.6695133073543L263.07692307692304,409.30881498026497L265.84615384615387,397.1987997262533L268.61538461538464,409.0245993821916L271.38461538461536,407.7498628634119L274.15384615384613,407.9355484176715L276.92307692307696,406.23505851730545L279.6923076923077,410.3562208868186L282.46153846153845,410.0767292075049L285.2307692307692,413.3749386713767L288,402.0987517701231L290.7692307692308,410.3409240489667L293.53846153846155,406.72920558367014L296.3076923076923,408.7683732987686L299.0769230769231,405.24075310455333L301.84615384615387,412.55020697811943L304.6153846153846,407.94938593226647L307.38461538461536,409.74065934065936L310.1538461538462,402.6449975911354L312.9230769230769,409.13902537718945L315.6923076923077,409.10265662736185L318.46153846153845,407.0051170010924L321.2307692307692,406.3976753130208L324,408.4387952824152L326.7692307692308,408.873185851303L329.53846153846155,409.6220329769886L332.3076923076923,403.9464514945902L335.0769230769231,409.80363333680157L337.84615384615387,410.0068252698268L340.6153846153846,407.4216253357486L343.3846153846154,406.1785901827911L346.1538461538462,409.6293342465882L348.9230769230769,410.35378414688756L351.6923076923077,407.0167235430533L354.46153846153845,394.8372355353815L357.2307692307692,407.774090584395L360,407.65056077058574L362.7692307692308,407.87728084614577L365.53846153846155,404.7922090184388L368.30769230769226,407.812890555258L371.07692307692304,405.33920071378765L373.84615384615387,408.79374462651407L376.61538461538464,400.7685683050356L379.3846153846154,408.484148483315L382.15384615384613,407.81236673773986L384.9230769230769,408.58813790979264L387.6923076923077,405.838046627121L390.46153846153845,409.6604413322891L393.23076923076917,407.948187299933L396.00000000000006,408.10986194016186L398.7692307692308,401.97827673886525L401.53846153846155,409.04949381327333L404.3076923076923,408.43435938984516L407.0769230769231,408.704410585405L409.8461538461538,405.5796570579179L412.6153846153846,408.07775028121483L415.38461538461536,408.17517277307013L418.1538461538462,408.34294880538624L420.92307692307696,401.6093871492189L423.6923076923077,409.31798452538214L426.46153846153845,408.39889928453493L429.2307692307692,408.0991349076455L432,404.0900249106466L434.7692307692307,409.1462107374914L437.5384615384615,407.8323295591424L440.3076923076923,408.00854295206454L443.0769230769231,397.25531126898085L445.84615384615387,407.4958188863961L448.61538461538464,407.7926142470229L451.38461538461536,406.89108002751664L454.15384615384613,402.1158301158301L456.9230769230769,408.3493708364175L459.6923076923077,407.0090087604332L462.4615384615385,408.20690487363413L465.2307692307693,396.56132787238624L468,408.7376122467544L470.7692307692308,404.41253797218326L473.53846153846155,407.9648951730863L476.3076923076923,405.51433292244747L479.07692307692304,408.5046408042402L481.8461538461538,405.92083598827577L484.61538461538464,407.9773643144988L487.3846153846154,401.0089783775169L490.1538461538462,408.5278454390988L492.9230769230769,414.9515825491873L495.6923076923077,407.7330106781632L498.46153846153845,405.40828317225834L501.2307692307692,410.1253943568096L503.99999999999994,407.8933333333333L506.76923076923083,406.3269627388973L509.53846153846155,401.1562477257841L512.3076923076924,409.0282862975083L515.0769230769231,407.09596979541664L517.8461538461538,409.91745475042273L520.6153846153846,404.8091655494122L523.3846153846154,408.55651159399156L526.1538461538461,406.9461835198887L528.9230769230769,407.3015319466933L531.6923076923077,396.77968253968254L534.4615384615385,410.0022706808127L537.2307692307693,406.0528857961523L540,406.9474379371416L542.7692307692307,403.9263591076456L545.5384615384615,404.6815659398975L548.3076923076923,407.0184800946305L551.0769230769231,405.05355294674274L553.8461538461539,399.8931909212283L556.6153846153846,405.6729683891801L559.3846153846154,406.8738694170906L562.1538461538462,408.0885608856089L564.9230769230769,404.55103254865304L567.6923076923076,408.0605558081686L570.4615384615385,404.1621802747682L573.2307692307692,407.69690205211583L576,397.4835050215066L578.7692307692308,408.42419328684934L581.5384615384615,404.4943820224719L584.3076923076923,408.04081151612087L587.0769230769231,406.92651367600985L589.8461538461538,408.4083041570097L592.6153846153846,408.64177372363474L595.3846153846154,407.2375486780078L598.1538461538462,400.69731495498365L600.9230769230769,412.2145481263777L603.6923076923077,407.6427738789104L606.4615384615385,408.2009761878772L609.2307692307692,404.75526513955356L612,412.1667498535188L614.7692307692307,404.3203608618456L617.5384615384615,407.68553554387506L620.3076923076924,397.35687263556116L623.0769230769231,407.6936352545601L625.8461538461538,403.118114680841L628.6153846153846,413.1551808010378L631.3846153846154,401.44527259419004L634.1538461538462,412.3432871925816L636.9230769230769,404.29450962269493L639.6923076923076,405.7688289293503L642.4615384615385,401.67256851806934L645.2307692307693,408.2756266901539L648,404.28519574799066L650.7692307692308,408.82850833327734L653.5384615384615,406.0176418090119L656.3076923076923,406.5699714707865L659.0769230769231,409.0726318192194L661.8461538461538,406.06892088658793L664.6153846153846,403.95987321144946L667.3846153846154,415.3904020301392L670.1538461538462,423.34343760077394L672.9230769230769,411.97691246175077L675.6923076923077,412.7047132378048L678.4615384615385,415.7226516748653L681.2307692307692,416.3083754049565L684,418.2102609007564L686.7692307692308,408.60910464905385L689.5384615384615,419.00509819795354L692.3076923076924,420.58347032144343L695.0769230769231,422.20450755639223L697.8461538461538,421.1585703668671L700.6153846153846,422.25701599830853L703.3846153846154,426.57382663227725L706.1538461538461,426.8614331681904L708.9230769230769,421.3156979157436" style="fill: none; stroke: #4c78a8; stroke-width: 2;"></path></g></g></g><g transform="translate(0,0)"><path class="background" d="M0,0h720v480h-720Z" style="fill: none;"></path><g><g class="mark-line role-mark marks"><path d="M5.538461538461538,468.30135858377935L8.307692307692308,458.3542275331971L11.076923076923077,449.5488125862874L13.846153846153847,442.3204837490552L16.615384615384617,436.8971005328108L19.384615384615387,431.8305597579425L22.153846153846153,403.0556327446703L24.923076923076923,415.27468723150105L27.692307692307693,394.05333837715153L30.461538461538463,410.5481359552908L33.23076923076923,391.17785832730294L36,394.52031933245075L38.769230769230774,398.9335306905962L41.53846153846154,399.6752044348856L44.30769230769231,330.5986096000295L47.07692307692308,333.9449992384017L49.84615384615385,347.59497630847994L52.61538461538462,337.3758003681113L55.38461538461539,341.4527055359356L58.15384615384616,388.20813988543864L60.92307692307693,363.215991354241L63.69230769230769,365.630005585985L66.46153846153847,263.73258300506467L69.23076923076924,283.71395992832703L72,316.4608406935613L74.76923076923077,296.3147014290371L77.53846153846155,303.43800180034367L80.3076923076923,336.0042040559585L83.07692307692308,328.3872900797451L85.84615384615385,338.9075978754331L88.61538461538461,153.4244438682914L91.38461538461539,254.58842374636166L94.15384615384616,260.49947429237676L96.92307692307692,279.265288264979L99.6923076923077,262.75836659085945L102.46153846153845,296.72804527425143L105.23076923076924,306.8145607858237L108,323.7962577689687L110.76923076923077,220.12604563541774L113.53846153846153,280.7141029687837L116.30769230769232,321.70368423818786L119.07692307692308,287.25265951019577L121.84615384615385,284.256380063779L124.61538461538461,309.2858631262465L127.38461538461539,356.10226306965683L130.15384615384616,325.57481722879925L132.92307692307693,286.752176578786L135.69230769230768,318.2631759909622L138.46153846153848,311.54466523011695L141.23076923076923,327.81428151630917L144,309.7604048841804L146.76923076923077,345.3257299195779L149.53846153846155,329.4892816249315L152.3076923076923,339.4467975869593L155.0769230769231,299.10021889351475L157.84615384615384,323.98143773294584L160.6153846153846,314.396367435949L163.3846153846154,346.12161710375415L166.15384615384616,334.6183160685573L168.92307692307693,326.31075267002984L171.6923076923077,331.14402150202335L174.46153846153845,332.8122927687702L177.23076923076923,295.2335850512402L180,343.3928100156085L182.76923076923077,325.00008833417337L185.53846153846152,329.15032476371977L188.30769230769232,323.48740905660526L191.07692307692307,329.6866251464512L193.84615384615384,329.04153354632587L196.61538461538458,337.8373138274434L199.3846153846154,286.968850698174L202.15384615384616,323.491545765823L204.9230769230769,334.64157829976085L207.69230769230768,326.252402306214L210.46153846153848,334.25259561046124L213.23076923076923,343.22624053826746L216,343.952854580606L218.76923076923075,330.93894611135994L221.53846153846155,283.9034926572921L224.30769230769232,335.9637768986256L227.07692307692307,318.84156388875016L229.84615384615384,339.1986374281456L232.61538461538464,310.98768666492003L235.3846153846154,318.68829583115297L238.15384615384616,320.45480590978036L240.9230769230769,317.01769732857815L243.6923076923077,294.65370231862374L246.46153846153845,306.0096786372112L249.23076923076923,328.46093133385943L251.99999999999997,310.19138755980856L254.76923076923077,326.94394213381554L257.53846153846155,347.7354402956543L260.3076923076923,321.7403309763241L263.07692307692304,327.6096668660077L265.84615384615387,281.50630994447243L268.61538461538464,332.91495009037465L271.38461538461536,317.43273265860284L274.15384615384613,317.97768287642924L276.92307692307696,304.77115295105455L279.6923076923077,335.8480900861117L282.46153846153845,316.7279682212741L285.2307692307692,334.53746786428405L288,280.1970443349754L290.7692307692308,316.7346938775511L293.53846153846155,302.2576685094708L296.3076923076923,321.18256496954723L299.0769230769231,304.3028957422938L301.84615384615387,327.4191179749394L304.6153846153846,307.03475386402215L307.38461538461536,322.416099831985L310.1538461538462,280.71589921807123L312.9230769230769,307.4607883768757L315.6923076923077,312.5946864656946L318.46153846153845,307.2104522977816L321.2307692307692,303.2945146140167L324,335.93334632625215L326.7692307692308,317.0667966845441L329.53846153846155,326.2260150442088L332.3076923076923,284.93097420057853L335.0769230769231,315.58952697214085L337.84615384615387,321.1971424866788L340.6153846153846,316.5485704282151L343.3846153846154,319.6283831092011L346.1538461538462,319.77972679476375L348.9230769230769,328.84082230879005L351.6923076923077,319.87295969664757L354.46153846153845,276.1951409135082L357.2307692307692,308.20551546145384L360,319.1965111669089L362.7692307692308,325.90173407400863L365.53846153846155,317.0187239156206L368.30769230769226,307.86076398470453L371.07692307692304,318.20386709217195L373.84615384615387,318.64895241937813L376.61538461538464,294.53124891194597L379.3846153846154,317.6387740620178L382.15384615384613,325.13220493326486L384.9230769230769,316.7005843705635L387.6923076923077,303.17970645068453L390.46153846153845,318.5589731118559L393.23076923076917,312.58068282557457L396.00000000000006,319.58046343917425L398.7692307692308,281.6726185863729L401.53846153846155,329.12895404409187L404.3076923076923,309.85924744202003L407.0769230769231,325.46387250268873L409.8461538461538,303.2759705639803L412.6153846153846,318.94159042927515L415.38461538461536,312.55408318999974L418.1538461538462,316.9765116603826L420.92307692307696,294.3247247917626L423.6923076923077,315.3811034653261L426.46153846153845,316.62330020451367L429.2307692307692,317.0265686828717L432,303.2017708155968L434.7692307692307,334.82352219393226L437.5384615384615,311.78015652967395L440.3076923076923,316.0317535384927L443.0769230769231,279.2864033811617L445.84615384615387,327.99853399303646L448.61538461538464,322.71294793357475L451.38461538461536,316.770510687316L454.15384615384613,293.53077860528094L456.9230769230769,330.61301477522784L459.6923076923077,311.68160850062037L462.4615384615385,316.8517717315133L465.2307692307693,280.2080134202206L468,313.4989524821618L470.7692307692308,315.75170943965895L473.53846153846155,333.1647043951685L476.3076923076923,301.19406931721596L479.07692307692304,315.20123892282544L481.8461538461538,301.7966891477621L484.61538461538464,315.0839304996564L487.3846153846154,296.856808523742L490.1538461538462,327.87837353688707L492.9230769230769,316.4403656569277L495.6923076923077,313.88882488479265L498.46153846153845,312.3339951665214L501.2307692307692,322.47284019667586L503.99999999999994,310.78491386000314L506.76923076923083,314.44480109857096L509.53846153846155,292.95565850430177L512.3076923076924,315.51988252373724L515.0769230769231,309.7190709756806L517.8461538461538,321.2792132573698L520.6153846153846,315.0084367326099L523.3846153846154,313.75311784168997L526.1538461538461,310.1641299154235L528.9230769230769,319.813384195288L531.6923076923077,284.996266823402L534.4615384615385,315.7416628387689L537.2307692307693,309.92821603912574L540,331.3650522201185L542.7692307692307,311.3654695602074L545.5384615384615,306.95395705507224L548.3076923076923,310.0442999390368L551.0769230769231,305.89618882752177L553.8461538461539,294.06459318559644L556.6153846153846,307.5426863972681L559.3846153846154,308.52835474621895L562.1538461538462,315.467699205217L564.9230769230769,313.9587134420288L567.6923076923076,331.24236628027563L570.4615384615385,318.2885127792911L573.2307692307692,313.6642455305017L576,284.38650364537216L578.7692307692308,314.53840235168775L581.5384615384615,314.11958310477235L584.3076923076923,316.75590821851097L587.0769230769231,309.84821058858324L589.8461538461538,315.1778997161778L592.6153846153846,312.1930589616114L595.3846153846154,316.5494760492827L598.1538461538462,293.5950258446326L600.9230769230769,330.90799953826615L603.6923076923077,308.79455871660764L606.4615384615385,314.5593014795052L609.2307692307692,302.76979412017124L612,314.20311173974545L614.7692307692307,316.0804711860492L617.5384615384615,330.701025769327L620.3076923076924,285.32484617016763L623.0769230769231,313.14450509836234L625.8461538461538,303.803079576693L628.6153846153846,346.1330879766189L631.3846153846154,301.2776564122766L634.1538461538462,317.4281300961781L636.9230769230769,316.76775468878066L639.6923076923076,324.345847070084L642.4615384615385,293.4257459705629L645.2307692307693,325.32359880692695L648,304.8401597236492L650.7692307692308,308.99719381995294L653.5384615384615,300.23279427092086L656.3076923076923,307.5408102345416L659.0769230769231,319.4809381134415L661.8461538461538,309.42325219690485L664.6153846153846,291.17656097935765L667.3846153846154,327.5668493787334L670.1538461538462,349.80654424194705L672.9230769230769,338.7203668627256L675.6923076923077,342.1253437545231L678.4615384615385,339.1134691083347L681.2307692307692,343.02463867210525L684,347.1807513067931L686.7692307692308,324.5191836734694L689.5384615384615,340.7550268449311L692.3076923076924,348.2838483068986L695.0769230769231,354.0137482814648L697.8461538461538,372.50654159466797L700.6153846153846,362.90813468244437L703.3846153846154,362.3572853154026L706.1538461538461,362.36757306800837L708.9230769230769,352.0689732301717" style="fill: none; stroke: #f58518; stroke-width: 2;"></path></g></g></g><g transform="translate(0,0)"><path class="background" d="M0,0h720v480h-720Z" style="fill: none;"></path><g><g class="mark-line role-mark marks"><path d="M5.538461538461538,464.9712640300875L8.307692307692308,452.85821200591175L11.076923076923077,437.28166367394664L13.846153846153847,436.66247500836823L16.615384615384617,403.69141000563604L19.384615384615387,385.4481883547159L22.153846153846153,406.07784300934986L24.923076923076923,421.4359585622041L27.692307692307693,403.95644935260935L30.461538461538463,411.93359785064854L33.23076923076923,385.7190756059626L36,375.1524072810828L38.769230769230774,368.3648668530234L41.53846153846154,357.2108774971274L44.30769230769231,325.2450098370676L47.07692307692308,337.9054343898108L49.84615384615385,331.0089985287577L52.61538461538462,310.0268603193471L55.38461538461539,316.44721899501496L58.15384615384616,342.64280655366167L60.92307692307693,297.65447923430924L63.69230769230769,298.4855913287658L66.46153846153847,300.81398483600526L69.23076923076924,309.5529002065067L72,323.3767736602838L74.76923076923077,285.84553612976134L77.53846153846155,269.16111035939923L80.3076923076923,274.3518245025969L83.07692307692308,259.292937679547L85.84615384615385,260.8301697019542L88.61538461538461,293.9461222903232L91.38461538461539,271.37954654816156L94.15384615384616,260.86860107077774L96.92307692307692,252.6036311576755L99.6923076923077,245.2290032664661L102.46153846153845,241.81709641064177L105.23076923076924,236.78236316551613L108,237.96945965071188L110.76923076923077,231.7439342121426L113.53846153846153,259.08938545419113L116.30769230769232,328.49376399104574L119.07692307692308,277.5518893811414L121.84615384615385,252.19210315857165L124.61538461538461,293.30132052821125L127.38461538461539,326.1586791844849L130.15384615384616,307.76215960633203L132.92307692307693,309.0006050420168L135.69230769230768,353.31175279744576L138.46153846153848,351.35959647536583L141.23076923076923,358.65564958442957L144,335.23563215886855L146.76923076923077,361.55105658139684L149.53846153846155,346.13125449158593L152.3076923076923,349.0752520651401L155.0769230769231,311.8973983144009L157.84615384615384,356.6568462679189L160.6153846153846,347.80713507693986L163.3846153846154,355.1965201726732L166.15384615384616,339.05301825123655L168.92307692307693,352.3203774458071L171.6923076923077,315.8013618283557L174.46153846153845,323.3948741033595L177.23076923076923,331.95083781323865L180,317.24579104998395L182.76923076923077,308.63645943098L185.53846153846152,323.1544569547521L188.30769230769232,310.6934909358645L191.07692307692307,307.0021480142696L193.84615384615384,322.9218407596785L196.61538461538458,314.2016505700668L199.3846153846154,326.69839172061546L202.15384615384616,304.0979331791118L204.9230769230769,304.151628914683L207.69230769230768,298.6102614475552L210.46153846153848,303.4836581210185L213.23076923076923,306.14925373134326L216,305.16147116051866L218.76923076923075,300.9583576135192L221.53846153846155,321.9102511321532L224.30769230769232,300.6688020499679L227.07692307692307,327.1999053142384L229.84615384615384,303.81778221778217L232.61538461538464,300.1171112556929L235.3846153846154,302.2518355265687L238.15384615384616,313.81525822420394L240.9230769230769,308.28216944345974L243.6923076923077,284.197218710493L246.46153846153845,288.0218129489138L249.23076923076923,290.17478761839664L251.99999999999997,320.5167813509338L254.76923076923077,293.7392261140657L257.53846153846155,305.0002107659234L260.3076923076923,289.25636931933167L263.07692307692304,291.1945258615993L265.84615384615387,289.1637367615021L268.61538461538464,296.8248785780193L271.38461538461536,296.7102699693849L274.15384615384613,292.37616654702083L276.92307692307696,300.90387575206375L279.6923076923077,296.6695995656813L282.46153846153845,300.9294320137693L285.2307692307692,298.31311545597254L288,294.52489617291116L290.7692307692308,302.8989751098096L293.53846153846155,285.8661867266592L296.3076923076923,293.122045771415L299.0769230769231,287.0521336814081L301.84615384615387,296.1991781484167L304.6153846153846,297.0521391953507L307.38461538461536,286.9974708329934L310.1538461538462,293.50533904276654L312.9230769230769,311.20280298046174L315.6923076923077,286.01778717581936L318.46153846153845,286.5268242877715L321.2307692307692,286.0643911813056L324,295.16095456889684L326.7692307692308,311.96094562977964L329.53846153846155,297.14907417093843L332.3076923076923,290.72664623061297L335.0769230769231,283.56348559316115L337.84615384615387,293.41551318882216L340.6153846153846,284.2198723901387L343.3846153846154,290.206738908374L346.1538461538462,285.293141991779L348.9230769230769,294.401212350824L351.6923076923077,284.7872692124506L354.46153846153845,286.51992783336067L357.2307692307692,300.55085993859365L360,292.5921695213281L362.7692307692308,300.8215781173528L365.53846153846155,289.07990336265004L368.30769230769226,303.6335877862595L371.07692307692304,292.08381985997715L373.84615384615387,300.936460554371L376.61538461538464,287.24153694914025L379.3846153846154,290.5857604232977L382.15384615384613,293.41691424942735L384.9230769230769,288.3757791425128L387.6923076923077,302.99777759486375L390.46153846153845,284.8524053782314L393.23076923076917,295.72788662339286L396.00000000000006,282.28029790115096L398.7692307692308,293.46052569929253L401.53846153846155,295.0017758326363L404.3076923076923,309.7725578275857L407.0769230769231,295.84464812800996L409.8461538461538,284.05383714903064L412.6153846153846,299.15755756605114L415.38461538461536,281.4979552451408L418.1538461538462,299.698336619595L420.92307692307696,288.3007746243018L423.6923076923077,282.93100216491734L426.46153846153845,294.98976109215016L429.2307692307692,282.57016595867617L432,296.7148201721052L434.7692307692307,294.5675103831988L437.5384615384615,285.46150802106484L440.3076923076923,299.3920327434246L443.0769230769231,278.51608936257435L445.84615384615387,293.23894270234774L448.61538461538464,299.43738661864893L451.38461538461536,284.9972333583398L454.15384615384613,283.9806411205375L456.9230769230769,295.430246107129L459.6923076923077,283.6890453463941L462.4615384615385,298.3311959287532L465.2307692307693,284.57958889289574L468,283.40361915517195L470.7692307692308,292.25511757739804L473.53846153846155,294.81439456410595L476.3076923076923,284.20778325462754L479.07692307692304,295.9218374603581L481.8461538461538,281.91535473318345L484.61538461538464,297.1414355019281L487.3846153846154,290.55037747268494L490.1538461538462,294.2721462315126L492.9230769230769,292.04572699746643L495.6923076923077,298.0188729477888L498.46153846153845,293.88224030636667L501.2307692307692,296.7376977536929L503.99999999999994,285.40334128878277L506.76923076923083,297.2816838037141L509.53846153846155,289.79218727139715L512.3076923076924,283.74518412328644L515.0769230769231,298.93165173460307L517.8461538461538,299.130734624606L520.6153846153846,291.3877696608654L523.3846153846154,293.3996952767903L526.1538461538461,299.0586413038748L528.9230769230769,295.70647126149476L531.6923076923077,287.99565962410543L534.4615384615385,299.35697236313115L537.2307692307693,296.7077922077922L540,294.7804246898546L542.7692307692307,288.50015145089964L545.5384615384615,286.4766060228291L548.3076923076923,296.2805887090869L551.0769230769231,289.1038915390409L553.8461538461539,289.93627420652103L556.6153846153846,288.379437266866L559.3846153846154,288.4881196831915L562.1538461538462,285.8897475528078L564.9230769230769,297.8024854634591L567.6923076923076,294.82365468999575L570.4615384615385,294.0818999548195L573.2307692307692,285.78265242045524L576,290.25428297318285L578.7692307692308,296.3932588697354L581.5384615384615,293.6611516776042L584.3076923076923,284.25310519180744L587.0769230769231,296.97453539719777L589.8461538461538,288.2578032137354L592.6153846153846,297.7530530522231L595.3846153846154,296.4453029670043L598.1538461538462,289.9745443437531L600.9230769230769,293.9517732131025L603.6923076923077,286.3184706886231L606.4615384615385,287.84374608739205L609.2307692307692,288.0614679183319L612,296.08472581783946L614.7692307692307,294.21251865232074L617.5384615384615,295.1391978625156L620.3076923076924,287.9129069402282L623.0769230769231,284.40589800733477L625.8461538461538,283.8652179782697L628.6153846153846,342.8331854480923L631.3846153846154,294.45761317637437L634.1538461538462,299.6782255573116L636.9230769230769,295.4860685332788L639.6923076923076,297.24788512564385L642.4615384615385,291.31540677107347L645.2307692307693,293.1597961936429L648,286.0465090536763L650.7692307692308,288.8351024271516L653.5384615384615,285.5606053029924L656.3076923076923,287.73300529496703L659.0769230769231,299.5302590312464L661.8461538461538,295.40168542477863L664.6153846153846,296.5625380115666L667.3846153846154,303.37719163943336L670.1538461538462,346.31767167586077L672.9230769230769,327.6646243147372L675.6923076923077,318.7332185886403L678.4615384615385,326.2170745376424L681.2307692307692,323.7330607633752L684,342.611681914145L686.7692307692308,335.0591238815314L689.5384615384615,338.64858638992126L692.3076923076924,338.52226505853633L695.0769230769231,343.89197947610046L697.8461538461538,368.9496971628945L700.6153846153846,354.1812076414341L703.3846153846154,352.4993360987309L706.1538461538461,355.2505520638696L708.9230769230769,354.82180660565064" style="fill: none; stroke: #54a24b; stroke-width: 2;"></path></g></g></g><g transform="translate(0,0)"><path class="background" d="M0,0h720v480h-720Z" style="fill: none;"></path><g><g class="mark-line role-mark marks"><path d="M5.538461538461538,466.2942889297772L8.307692307692308,454.52109869673666L11.076923076923077,440.2630031981976L13.846153846153847,437.45988331305665L16.615384615384617,406.9655588612085L19.384615384615387,390.77549391339056L22.153846153846153,398.06356340288926L24.923076923076923,412.2893147324851L27.692307692307693,381.85057695666916L30.461538461538463,410.0607700464368L33.23076923076923,358.86405430422707L36,351.8332524522868L38.769230769230774,335.67394657790044L41.53846153846154,325.8348487740235L44.30769230769231,326.01708621984017L47.07692307692308,339.1162751093393L49.84615384615385,320.99737388273127L52.61538461538462,309.3406539457667L55.38461538461539,305.12523583371285L58.15384615384616,317.79214436488553L60.92307692307693,283.80050749232595L63.69230769230769,286.10937457082434L66.46153846153847,303.8916290656609L69.23076923076924,296.5879973027646L72,325.7107897201123L74.76923076923077,274.51921416402223L77.53846153846155,258.17604056254305L80.3076923076923,258.4456208019048L83.07692307692308,247.35558752389213L85.84615384615385,244.46891046916167L88.61538461538461,283.96434994755265L91.38461538461539,270.66222477467227L94.15384615384616,261.0339479918733L96.92307692307692,249.99413722203414L99.6923076923077,245.04499413029697L102.46153846153845,238.21970514450672L105.23076923076924,235.2323529578214L108,234.44992880873275L110.76923076923077,256.2201537838931L113.53846153846153,257.58399379422895L116.30769230769232,318.401971900419L119.07692307692308,274.1818959908627L121.84615384615385,244.09201026931095L124.61538461538461,282.96213910727676L127.38461538461539,309.2454472651406L130.15384615384616,261.04801035309424L132.92307692307693,272.44127906324655L135.69230769230768,345.3492828009232L138.46153846153848,335.04901802180734L141.23076923076923,340.7669406798489L144,296.9894459288922L146.76923076923077,346.58299001931437L149.53846153846155,313.80467280045303L152.3076923076923,319.4036625900814L155.0769230769231,298.14210668248745L157.84615384615384,347.5098658247829L160.6153846153846,333.6203031584193L163.3846153846154,343.05172451985914L166.15384615384616,326.435564454283L168.92307692307693,325.8296908442169L171.6923076923077,292.61955996662425L174.46153846153845,289.30689336747804L177.23076923076923,294.44385998355034L180,301.19144368626854L182.76923076923077,284.6355131153417L185.53846153846152,288.0767513736264L188.30769230769232,286.9213966973265L191.07692307692307,286.618469378981L193.84615384615384,287.27276323466873L196.61538461538458,300.1771442083573L199.3846153846154,282.27017481900054L202.15384615384616,286.9565940950424L204.9230769230769,298.14725567770057L207.69230769230768,285.74920888892217L210.46153846153848,300.48481732224985L213.23076923076923,301.2285934993166L216,302.1163075373235L218.76923076923075,287.3409948829796L221.53846153846155,281.5915853574147L224.30769230769232,299.2458244848763L227.07692307692307,285.65888905614935L229.84615384615384,296.8326593917908L232.61538461538464,292.11921172701676L235.3846153846154,287.8803406966277L238.15384615384616,280.6860736041322L240.9230769230769,285.8478844638014L243.6923076923077,294.79914801390083L246.46153846153845,285.1988574502696L249.23076923076923,294.26899467360926L251.99999999999997,284.69819432502146L254.76923076923077,288.5000176759642L257.53846153846155,299.51482479784363L260.3076923076923,283.64671705188596L263.07692307692304,285.0383105120444L265.84615384615387,281.06892713802284L268.61538461538464,298.1286620356388L271.38461538461536,293.0020586356215L274.15384615384613,284.23286588156964L276.92307692307696,291.4615656545819L279.6923076923077,295.53345388788426L282.46153846153845,297.6453082351223L285.2307692307692,299.79829434870305L288,281.41413175485064L290.7692307692308,284.524886877828L293.53846153846155,278.55714192337507L296.3076923076923,287.86238724564714L299.0769230769231,283.5330034740499L301.84615384615387,300.41284186991226L304.6153846153846,292.35612919900814L307.38461538461536,283.82688304903434L310.1538461538462,284.28668941979527L312.9230769230769,291.20401672609097L315.6923076923077,282.7765219178299L318.46153846153845,284.113372317282L321.2307692307692,283.2628693268352L324,297.9981995706668L326.7692307692308,284.54686357654623L329.53846153846155,299.5279297883325L332.3076923076923,292.1469715614407L335.0769230769231,283.306915451895L337.84615384615387,296.3531906689801L340.6153846153846,284.0349609462843L343.3846153846154,294.2652462041775L346.1538461538462,282.92546203030565L348.9230769230769,296.1512407937327L351.6923076923077,283.80610736459755L354.46153846153845,278.62042279568664L357.2307692307692,284.2621759048118L360,293.3718477996906L362.7692307692308,299.0459429938307L365.53846153846155,289.4267232103298L368.30769230769226,284.3437584012904L371.07692307692304,290.7519914122254L373.84615384615387,284.40955444868155L376.61538461538464,292.2740846030049L379.3846153846154,284.8824343348053L382.15384615384613,293.9117512341595L384.9230769230769,284.6236745394536L387.6923076923077,283.2290861767457L390.46153846153845,284.8834390671945L393.23076923076917,295.35877334700524L396.00000000000006,283.41984834745455L398.7692307692308,283.87625615763545L401.53846153846155,295.016611295681L404.3076923076923,283.4878120348487L407.0769230769231,298.6548361188664L409.8461538461538,283.62151466511017L412.6153846153846,295.68863401741464L415.38461538461536,282.2215736432778L418.1538461538462,291.7260910234494L420.92307692307696,292.8717808103604L423.6923076923077,283.87157584683354L426.46153846153845,296.5808543634569L429.2307692307692,282.924432576769L432,285.2937462887146L434.7692307692307,296.9708349246097L437.5384615384615,284.7542466088232L440.3076923076923,291.9916723959292L443.0769230769231,281.6815029630564L445.84615384615387,294.3605209047293L448.61538461538464,296.5030931213896L451.38461538461536,285.3098108436896L454.15384615384613,281.9878927313251L456.9230769230769,297.4860335195531L459.6923076923077,282.69615237598003L462.4615384615385,287.4891964767212L465.2307692307693,277.2317061192417L468,281.71171838981746L470.7692307692308,293.2911605370302L473.53846153846155,295.76241262757196L476.3076923076923,283.183367983368L479.07692307692304,286.7928182368368L481.8461538461538,281.841077211522L484.61538461538464,293.0484547882487L487.3846153846154,295.73900920159866L490.1538461538462,297.3180672396513L492.9230769230769,291.8538954009835L495.6923076923077,285.0614107357881L498.46153846153845,298.7993358771955L501.2307692307692,297.1266426328642L503.99999999999994,284.2473452553172L506.76923076923083,290.2438247011952L509.53846153846155,293.9904424880054L512.3076923076924,286.1078162343985L515.0769230769231,286.2527126356318L517.8461538461538,298.5204413069822L520.6153846153846,293.78497338236093L523.3846153846154,286.8772667542707L526.1538461538461,288.9578567294176L528.9230769230769,298.91384793043716L531.6923076923077,294.0855251637306L534.4615384615385,293.63447715753676L537.2307692307693,287.2265706282513L540,295.75655611869354L542.7692307692307,289.25126719768286L545.5384615384615,287.1078320972314L548.3076923076923,287.59674691455325L551.0769230769231,285.7873724451785L553.8461538461539,293.6012814911897L556.6153846153846,285.72550591063913L559.3846153846154,283.7704166614485L562.1538461538462,284.502046699337L564.9230769230769,297.30674958843974L567.6923076923076,292.449444470271L570.4615384615385,295.17421602787454L573.2307692307692,284.37968423054974L576,281.81212601280737L578.7692307692308,295.75514723327973L581.5384615384615,293.2929954002408L584.3076923076923,285.2893314989112L587.0769230769231,297.2458691425691L589.8461538461538,287.5044307238101L592.6153846153846,292.67055550110996L595.3846153846154,297.0175040719131L598.1538461538462,293.9743824032695L600.9230769230769,294.6193592834998L603.6923076923077,283.95905844741793L606.4615384615385,289.21485754064935L609.2307692307692,289.2007736435573L612,293.5051881609498L614.7692307692307,294.46751107799696L617.5384615384615,295.07654167957855L620.3076923076924,292.3329924319902L623.0769230769231,286.21430066688595L625.8461538461538,284.7263875268196L628.6153846153846,337.43727484941934L631.3846153846154,290.44941910427633L634.1538461538462,301.32459062939483L636.9230769230769,295.5036647502793L639.6923076923076,295.04820875718707L642.4615384615385,292.1975030439602L645.2307692307693,292.8192433568129L648,284.8811124566751L650.7692307692308,290.05168259541574L653.5384615384615,284.89633278598797L656.3076923076923,286.46499232819184L659.0769230769231,287.63549319026004L661.8461538461538,287.9887950604892L664.6153846153846,292.78756792443244L667.3846153846154,297.17468454043177L670.1538461538462,338.809276861839L672.9230769230769,328.8305288141017L675.6923076923077,316.09480793220627L678.4615384615385,326.01571268237933L681.2307692307692,321.8270031854937L684,329.7854834572967L686.7692307692308,322.5161634482023L689.5384615384615,333.98824957990405L692.3076923076924,332.48380395097536L695.0769230769231,339.94266262186505L697.8461538461538,368.3231390652048L700.6153846153846,346.0301084645991L703.3846153846154,352.342972566317L706.1538461538461,350.09884507335346L708.9230769230769,350.04346029909937" style="fill: none; stroke: #eeca3b; stroke-width: 2;"></path></g></g></g><g transform="translate(0,0)"><path class="background" d="M0,0h720v480h-720Z" style="fill: none;"></path><g><g class="mark-line role-mark marks"><path d="M5.538461538461538,464.88004256744773L8.307692307692308,450.8842637881599L11.076923076923077,438.4240601503759L13.846153846153847,440.13614160057915L16.615384615384617,408.53334438423997L19.384615384615387,388.65486243530376L22.153846153846153,365.2480700670915L24.923076923076923,407.6698545788026L27.692307692307693,367.6090955574232L30.461538461538463,372.3286008028982L33.23076923076923,338.9893895125327L36,342.4004373003536L38.769230769230774,309.11502670205624L41.53846153846154,308.7105245276533L44.30769230769231,261.7311192419551L47.07692307692308,341.05866815277386L49.84615384615385,322.28114293950944L52.61538461538462,305.86036251107475L55.38461538461539,297.872356867556L58.15384615384616,333.23341548056123L60.92307692307693,281.86229576747L63.69230769230769,283.7430674311107L66.46153846153847,237.45901518155358L69.23076923076924,350.5362428448199L72,357.0776813965001L74.76923076923077,333.173987741789L77.53846153846155,318.89445429092495L80.3076923076923,328.58067252841226L83.07692307692308,313.4068739174036L85.84615384615385,310.4414223447993L88.61538461538461,50.50649553501691L91.38461538461539,208.073961042779L94.15384615384616,227.544244406135L96.92307692307692,219.3528548466L99.6923076923077,109.60462919003271L102.46153846153845,175.33975030973033L105.23076923076924,149.25913153274013L108,180.3450709512726L110.76923076923077,39.97286975204963L113.53846153846153,272.4314097186475L116.30769230769232,294.67336500647855L119.07692307692308,269.5237216900963L121.84615384615385,273.96160241874526L124.61538461538461,299.449106525817L127.38461538461539,309.6307701185907L130.15384615384616,327.4766419348432L132.92307692307693,306.509256889501L135.69230769230768,361.1125827814569L138.46153846153848,361.35197159146935L141.23076923076923,363.98745539093755L144,354.27452077794885L146.76923076923077,362.15708106064767L149.53846153846155,357.56827853413256L152.3076923076923,357.77643291777156L155.0769230769231,327.4820530023482L157.84615384615384,358.1763039731901L160.6153846153846,349.2528821329852L163.3846153846154,359.03043641944913L166.15384615384616,343.0166210556688L168.92307692307693,355.07026519943963L171.6923076923077,346.05962417303215L174.46153846153845,347.2903398447953L177.23076923076923,300.18186145646405L180,355.35149587424513L182.76923076923077,351.8185371087015L185.53846153846152,351.90641749685983L188.30769230769232,337.89895893993724L191.07692307692307,348.83544739711874L193.84615384615384,343.05510741275367L196.61538461538458,346.48568117861277L199.3846153846154,294.87516513468034L202.15384615384616,353.88536916060644L204.9230769230769,348.64988444000244L207.69230769230768,350.47874892065624L210.46153846153848,340.3917619215469L213.23076923076923,346.7889908256881L216,347.6642120765832L218.76923076923075,347.8541652881625L221.53846153846155,302.63023427012513L224.30769230769232,357.4038714198126L227.07692307692307,353.73881407153124L229.84615384615384,355.6053794789805L232.61538461538464,338.28805740645817L235.3846153846154,352.5831488642522L238.15384615384616,352.0761039943786L240.9230769230769,356.08519927011037L243.6923076923077,325.082884441064L246.46153846153845,349.50464635370633L249.23076923076923,345.24447833357885L251.99999999999997,351.572995589732L254.76923076923077,336.9149900946511L257.53846153846155,349.6253493703482L260.3076923076923,343.2980669282773L263.07692307692304,347.1124881131323L265.84615384615387,282.99141587895383L268.61538461538464,351.6539284332841L271.38461538461536,343.14214463840403L274.15384615384613,352.0816930769347L276.92307692307696,332.3917154850316L279.6923076923077,345.975319906024L282.46153846153845,344.5124649564405L285.2307692307692,348.7659135813074L288,288.2180951765282L290.7692307692308,349.29837199250824L293.53846153846155,350.9733052452501L296.3076923076923,356.37706987265204L299.0769230769231,343.52537139607L301.84615384615387,354.77436000658753L304.6153846153846,349.8203779223609L307.38461538461536,354.05685891748004L310.1538461538462,287.5812314747497L312.9230769230769,358.7413403676531L315.6923076923077,347.68856235528403L318.46153846153845,355.6641766277292L321.2307692307692,337.6938688079121L324,352.05227259204764L326.7692307692308,350.59563070767047L329.53846153846155,352.0210873146623L332.3076923076923,311.6484557355976L335.0769230769231,351.11751457111905L337.84615384615387,343.84711649426686L340.6153846153846,350.3987953487075L343.3846153846154,326.8435851764747L346.1538461538462,346.42102978254457L348.9230769230769,339.94821902388037L351.6923076923077,341.7838229879158L354.46153846153845,279.51881488195556L357.2307692307692,349.42568005925773L360,342.21509782481763L362.7692307692308,352.5680638143582L365.53846153846155,320.6218088052262L368.30769230769226,344.74293480154716L371.07692307692304,337.1510612511265L373.84615384615387,344.2721383964936L376.61538461538464,292.2045936624146L379.3846153846154,350.96359754541913L382.15384615384613,354.37908406912425L384.9230769230769,350.75353633893104L387.6923076923077,333.8584389547725L390.46153846153845,350.0676696847982L393.23076923076917,345.8063084922011L396.00000000000006,353.1599147121535L398.7692307692308,285.27143781010705L401.53846153846155,350.1492537313432L404.3076923076923,344.7005851433105L407.0769230769231,352.989407947101L409.8461538461538,332.94702611979443L412.6153846153846,348.90382900199904L415.38461538461536,342.0249121686362L418.1538461538462,348.3766686710764L420.92307692307696,300.8974170039669L423.6923076923077,351.3103764220814L426.46153846153845,342.81417208966013L429.2307692307692,349.55365980110287L432,327.17367698044086L434.7692307692307,350.7702726072908L437.5384615384615,345.3879048867253L440.3076923076923,349.0833767868381L443.0769230769231,284.46353980188564L445.84615384615387,355.1066869656869L448.61538461538464,343.7105531262678L451.38461538461536,347.7045086165536L454.15384615384613,336.1016533531488L456.9230769230769,350.5032763126927L459.6923076923077,343.96705505251566L462.4615384615385,347.6471373369695L465.2307692307693,298.76227424749163L468,350.41166072728305L470.7692307692308,348.3333807910248L473.53846153846155,349.4513221656916L476.3076923076923,329.86644229371416L479.07692307692304,352.8927111535807L481.8461538461538,342.9929009814181L484.61538461538464,349.81184712191185L487.3846153846154,296.38184624884224L490.1538461538462,358.4354073512694L492.9230769230769,345.2765855667911L495.6923076923077,352.4138588974105L498.46153846153845,333.9690886213826L501.2307692307692,352.0279946492785L503.99999999999994,345.2971177796228L506.76923076923083,352.1120182984436L509.53846153846155,301.84715313463516L512.3076923076924,353.14285714285717L515.0769230769231,345.9766452960196L517.8461538461538,355.74171339736824L520.6153846153846,324.6019125783167L523.3846153846154,349.93116723640105L526.1538461538461,341.4078761884766L528.9230769230769,349.9055172221655L531.6923076923077,282.2439160682853L534.4615384615385,350.25374853732205L537.2307692307693,342.88993036449534L540,347.4287166962498L542.7692307692307,327.33910926950824L545.5384615384615,345.95196718657246L548.3076923076923,343.5177262528048L551.0769230769231,346.85476132105214L553.8461538461539,289.99113456899573L556.6153846153846,347.5105554416889L559.3846153846154,346.15163301916346L562.1538461538462,350.0152566412389L564.9230769230769,329.0322141817976L567.6923076923076,348.84407407808754L570.4615384615385,343.37976558439016L573.2307692307692,347.4388836969482L576,286.83827940786625L578.7692307692308,350.0816060972209L581.5384615384615,345.3156664068589L584.3076923076923,352.664501713094L587.0769230769231,341.9386589443707L589.8461538461538,350.8719666760551L592.6153846153846,341.110254628167L595.3846153846154,345.6188962071315L598.1538461538462,297.744438001648L600.9230769230769,357.20250998288645L603.6923076923077,344.64014241210504L606.4615384615385,350.75047020183587L609.2307692307692,327.0983771095108L612,353.7618868127726L614.7692307692307,340.03419814809337L617.5384615384615,348.3147877417041L620.3076923076924,285.81925925925924L623.0769230769231,348.3693782755305L625.8461538461538,344.77396580253725L628.6153846153846,385.37813100737384L631.3846153846154,331.1175882695147L634.1538461538462,353.6599284773198L636.9230769230769,340.4432597315159L639.6923076923076,348.54535656547506L642.4615384615385,289.15061359040413L645.2307692307693,350.66188532218234L648,346.48778939080296L650.7692307692308,350.85490176972826L653.5384615384615,333.05293244654536L656.3076923076923,349.5040294281358L659.0769230769231,350.53878843429715L661.8461538461538,356.3126684636119L664.6153846153846,298.7996657545918L667.3846153846154,370.97461968636344L670.1538461538462,377.19508114285713L672.9230769230769,365.39274594638306L675.6923076923077,352.3231095722104L678.4615384615385,379.4073440459461L681.2307692307692,366.1935256378863L684,374.69575770651846L686.7692307692308,356.11317785541183L689.5384615384615,384.98386092620086L692.3076923076924,372.9307529644798L695.0769230769231,385.30837697564647L697.8461538461538,394.5494505494505L700.6153846153846,390.03456681673435L703.3846153846154,392.7382161701408L706.1538461538461,388.16893949424076L708.9230769230769,368.21151385927504" style="fill: none; stroke: #72b7b2; stroke-width: 2;"></path></g></g></g></g><g class="mark-group role-legend"><g transform="translate(738,0)"><path class="background" d="M0,0h101v92h-101Z" style="pointer-events: none; fill: none;"></path><g><g class="mark-group role-legend-entry"><g transform="translate(0,16)"><path class="background" d="M0,0h0v0h0Z" style="pointer-events: none; fill: none;"></path><g><g class="mark-group role-scope"><g transform="translate(0,0)"><path class="background" d="M0,0h101v11h-101Z" style="pointer-events: none; fill: none; opacity: 1;"></path><g><g class="mark-symbol role-legend-symbol" style="pointer-events: none;"><path transform="translate(6,6)" d="M-5,0L5,0" style="fill: none; stroke: #4c78a8; stroke-width: 1.5; opacity: 1;"></path></g><g class="mark-text role-legend-label" style="pointer-events: none;"><text text-anchor="start" transform="translate(16,9)" style="font-family: sans-serif; font-size: 10px; fill: #000; opacity: 1;">Clang-Polly</text></g></g></g><g transform="translate(0,13)"><path class="background" d="M0,0h101v11h-101Z" style="pointer-events: none; fill: none; opacity: 1;"></path><g><g class="mark-symbol role-legend-symbol" style="pointer-events: none;"><path transform="translate(6,6)" d="M-5,0L5,0" style="fill: none; stroke: #f58518; stroke-width: 1.5; opacity: 1;"></path></g><g class="mark-text role-legend-label" style="pointer-events: none;"><text text-anchor="start" transform="translate(16,9)" style="font-family: sans-serif; font-size: 10px; fill: #000; opacity: 1;">GFortran</text></g></g></g><g transform="translate(0,26)"><path class="background" d="M0,0h101v11h-101Z" style="pointer-events: none; fill: none; opacity: 1;"></path><g><g class="mark-symbol role-legend-symbol" style="pointer-events: none;"><path transform="translate(6,6)" d="M-5,0L5,0" style="fill: none; stroke: #e45756; stroke-width: 1.5; opacity: 1;"></path></g><g class="mark-text role-legend-label" style="pointer-events: none;"><text text-anchor="start" transform="translate(16,9)" style="font-family: sans-serif; font-size: 10px; fill: #000; opacity: 1;">Julia</text></g></g></g><g transform="translate(0,39)"><path class="background" d="M0,0h101v11h-101Z" style="pointer-events: none; fill: none; opacity: 1;"></path><g><g class="mark-symbol role-legend-symbol" style="pointer-events: none;"><path transform="translate(6,6)" d="M-5,0L5,0" style="fill: none; stroke: #72b7b2; stroke-width: 1.5; opacity: 1;"></path></g><g class="mark-text role-legend-label" style="pointer-events: none;"><text text-anchor="start" transform="translate(16,9)" style="font-family: sans-serif; font-size: 10px; fill: #000; opacity: 1;">LoopVectorization</text></g></g></g><g transform="translate(0,52)"><path class="background" d="M0,0h101v11h-101Z" style="pointer-events: none; fill: none; opacity: 1;"></path><g><g class="mark-symbol role-legend-symbol" style="pointer-events: none;"><path transform="translate(6,6)" d="M-5,0L5,0" style="fill: none; stroke: #54a24b; stroke-width: 1.5; opacity: 1;"></path></g><g class="mark-text role-legend-label" style="pointer-events: none;"><text text-anchor="start" transform="translate(16,9)" style="font-family: sans-serif; font-size: 10px; fill: #000; opacity: 1;">icc</text></g></g></g><g transform="translate(0,65)"><path class="background" d="M0,0h101v11h-101Z" style="pointer-events: none; fill: none; opacity: 1;"></path><g><g class="mark-symbol role-legend-symbol" style="pointer-events: none;"><path transform="translate(6,6)" d="M-5,0L5,0" style="fill: none; stroke: #eeca3b; stroke-width: 1.5; opacity: 1;"></path></g><g class="mark-text role-legend-label" style="pointer-events: none;"><text text-anchor="start" transform="translate(16,9)" style="font-family: sans-serif; font-size: 10px; fill: #000; opacity: 1;">ifort</text></g></g></g></g></g></g></g><g class="mark-text role-legend-title" style="pointer-events: none;"><text text-anchor="start" transform="translate(0,9)" style="font-family: sans-serif; font-size: 11px; font-weight: bold; fill: #000; opacity: 1;">Method</text></g></g></g></g><g class="mark-group role-axis"><g transform="translate(0.5,480.5)"><path class="background" d="M0,0h0v0h0Z" style="pointer-events: none; fill: none;"></path><g><g class="mark-rule role-axis-tick" style="pointer-events: none;"><line transform="translate(0,0)" x2="0" y2="5" style="fill: none; stroke: #888; stroke-width: 1; opacity: 1;"></line><line transform="translate(55,0)" x2="0" y2="5" style="fill: none; stroke: #888; stroke-width: 1; opacity: 1;"></line><line transform="translate(111,0)" x2="0" y2="5" style="fill: none; stroke: #888; stroke-width: 1; opacity: 1;"></line><line transform="translate(166,0)" x2="0" y2="5" style="fill: none; stroke: #888; stroke-width: 1; opacity: 1;"></line><line transform="translate(222,0)" x2="0" y2="5" style="fill: none; stroke: #888; stroke-width: 1; opacity: 1;"></line><line transform="translate(277,0)" x2="0" y2="5" style="fill: none; stroke: #888; stroke-width: 1; opacity: 1;"></line><line transform="translate(332,0)" x2="0" y2="5" style="fill: none; stroke: #888; stroke-width: 1; opacity: 1;"></line><line transform="translate(388,0)" x2="0" y2="5" style="fill: none; stroke: #888; stroke-width: 1; opacity: 1;"></line><line transform="translate(443,0)" x2="0" y2="5" style="fill: none; stroke: #888; stroke-width: 1; opacity: 1;"></line><line transform="translate(498,0)" x2="0" y2="5" style="fill: none; stroke: #888; stroke-width: 1; opacity: 1;"></line><line transform="translate(554,0)" x2="0" y2="5" style="fill: none; stroke: #888; stroke-width: 1; opacity: 1;"></line><line transform="translate(609,0)" x2="0" y2="5" style="fill: none; stroke: #888; stroke-width: 1; opacity: 1;"></line><line transform="translate(665,0)" x2="0" y2="5" style="fill: none; stroke: #888; stroke-width: 1; opacity: 1;"></line><line transform="translate(720,0)" x2="0" y2="5" style="fill: none; stroke: #888; stroke-width: 1; opacity: 1;"></line></g><g class="mark-text role-axis-label" style="pointer-events: none;"><text text-anchor="start" transform="translate(0,15)" style="font-family: sans-serif; font-size: 10px; fill: #000; opacity: 1;">0</text><text text-anchor="middle" transform="translate(55.38461538461539,15)" style="font-family: sans-serif; font-size: 10px; fill: #000; opacity: 1;">20</text><text text-anchor="middle" transform="translate(110.76923076923077,15)" style="font-family: sans-serif; font-size: 10px; fill: #000; opacity: 1;">40</text><text text-anchor="middle" transform="translate(166.15384615384616,15)" style="font-family: sans-serif; font-size: 10px; fill: #000; opacity: 1;">60</text><text text-anchor="middle" transform="translate(221.53846153846155,15)" style="font-family: sans-serif; font-size: 10px; fill: #000; opacity: 1;">80</text><text text-anchor="middle" transform="translate(276.92307692307696,15)" style="font-family: sans-serif; font-size: 10px; fill: #000; opacity: 1;">100</text><text text-anchor="middle" transform="translate(332.3076923076923,15)" style="font-family: sans-serif; font-size: 10px; fill: #000; opacity: 1;">120</text><text text-anchor="middle" transform="translate(387.6923076923077,15)" style="font-family: sans-serif; font-size: 10px; fill: #000; opacity: 1;">140</text><text text-anchor="middle" transform="translate(443.0769230769231,15)" style="font-family: sans-serif; font-size: 10px; fill: #000; opacity: 1;">160</text><text text-anchor="middle" transform="translate(498.46153846153845,15)" style="font-family: sans-serif; font-size: 10px; fill: #000; opacity: 1;">180</text><text text-anchor="middle" transform="translate(553.8461538461539,15)" style="font-family: sans-serif; font-size: 10px; fill: #000; opacity: 1;">200</text><text text-anchor="middle" transform="translate(609.2307692307692,15)" style="font-family: sans-serif; font-size: 10px; fill: #000; opacity: 1;">220</text><text text-anchor="middle" transform="translate(664.6153846153846,15)" style="font-family: sans-serif; font-size: 10px; fill: #000; opacity: 1;">240</text><text text-anchor="end" transform="translate(720,15)" style="font-family: sans-serif; font-size: 10px; fill: #000; opacity: 1;">260</text></g><g class="mark-rule role-axis-domain" style="pointer-events: none;"><line transform="translate(0,0)" x2="720" y2="0" style="fill: none; stroke: #888; stroke-width: 1; opacity: 1;"></line></g><g class="mark-text role-axis-title" style="pointer-events: none;"><text text-anchor="middle" transform="translate(360,30)" style="font-family: sans-serif; font-size: 11px; font-weight: bold; fill: #000; opacity: 1;">Size</text></g></g></g></g><g class="mark-group role-axis"><g transform="translate(0.5,0.5)"><path class="background" d="M0,0h0v0h0Z" style="pointer-events: none; fill: none;"></path><g><g class="mark-rule role-axis-tick" style="pointer-events: none;"><line transform="translate(0,480)" x2="-5" y2="0" style="fill: none; stroke: #888; stroke-width: 1; opacity: 1;"></line><line transform="translate(0,453)" x2="-5" y2="0" style="fill: none; stroke: #888; stroke-width: 1; opacity: 1;"></line><line transform="translate(0,425)" x2="-5" y2="0" style="fill: none; stroke: #888; stroke-width: 1; opacity: 1;"></line><line transform="translate(0,398)" x2="-5" y2="0" style="fill: none; stroke: #888; stroke-width: 1; opacity: 1;"></line><line transform="translate(0,370)" x2="-5" y2="0" style="fill: none; stroke: #888; stroke-width: 1; opacity: 1;"></line><line transform="translate(0,343)" x2="-5" y2="0" style="fill: none; stroke: #888; stroke-width: 1; opacity: 1;"></line><line transform="translate(0,315)" x2="-5" y2="0" style="fill: none; stroke: #888; stroke-width: 1; opacity: 1;"></line><line transform="translate(0,288)" x2="-5" y2="0" style="fill: none; stroke: #888; stroke-width: 1; opacity: 1;"></line><line transform="translate(0,261)" x2="-5" y2="0" style="fill: none; stroke: #888; stroke-width: 1; opacity: 1;"></line><line transform="translate(0,233)" x2="-5" y2="0" style="fill: none; stroke: #888; stroke-width: 1; opacity: 1;"></line><line transform="translate(0,206)" x2="-5" y2="0" style="fill: none; stroke: #888; stroke-width: 1; opacity: 1;"></line><line transform="translate(0,178)" x2="-5" y2="0" style="fill: none; stroke: #888; stroke-width: 1; opacity: 1;"></line><line transform="translate(0,151)" x2="-5" y2="0" style="fill: none; stroke: #888; stroke-width: 1; opacity: 1;"></line><line transform="translate(0,123)" x2="-5" y2="0" style="fill: none; stroke: #888; stroke-width: 1; opacity: 1;"></line><line transform="translate(0,96)" x2="-5" y2="0" style="fill: none; stroke: #888; stroke-width: 1; opacity: 1;"></line><line transform="translate(0,69)" x2="-5" y2="0" style="fill: none; stroke: #888; stroke-width: 1; opacity: 1;"></line><line transform="translate(0,41)" x2="-5" y2="0" style="fill: none; stroke: #888; stroke-width: 1; opacity: 1;"></line><line transform="translate(0,14)" x2="-5" y2="0" style="fill: none; stroke: #888; stroke-width: 1; opacity: 1;"></line></g><g class="mark-text role-axis-label" style="pointer-events: none;"><text text-anchor="end" transform="translate(-7,483)" style="font-family: sans-serif; font-size: 10px; fill: #000; opacity: 1;">0</text><text text-anchor="end" transform="translate(-7,455.57142857142856)" style="font-family: sans-serif; font-size: 10px; fill: #000; opacity: 1;">2</text><text text-anchor="end" transform="translate(-7,428.1428571428571)" style="font-family: sans-serif; font-size: 10px; fill: #000; opacity: 1;">4</text><text text-anchor="end" transform="translate(-7,400.71428571428567)" style="font-family: sans-serif; font-size: 10px; fill: #000; opacity: 1;">6</text><text text-anchor="end" transform="translate(-7,373.2857142857143)" style="font-family: sans-serif; font-size: 10px; fill: #000; opacity: 1;">8</text><text text-anchor="end" transform="translate(-7,345.8571428571429)" style="font-family: sans-serif; font-size: 10px; fill: #000; opacity: 1;">10</text><text text-anchor="end" transform="translate(-7,318.42857142857144)" style="font-family: sans-serif; font-size: 10px; fill: #000; opacity: 1;">12</text><text text-anchor="end" transform="translate(-7,291)" style="font-family: sans-serif; font-size: 10px; fill: #000; opacity: 1;">14</text><text text-anchor="end" transform="translate(-7,263.5714285714286)" style="font-family: sans-serif; font-size: 10px; fill: #000; opacity: 1;">16</text><text text-anchor="end" transform="translate(-7,236.14285714285717)" style="font-family: sans-serif; font-size: 10px; fill: #000; opacity: 1;">18</text><text text-anchor="end" transform="translate(-7,208.71428571428572)" style="font-family: sans-serif; font-size: 10px; fill: #000; opacity: 1;">20</text><text text-anchor="end" transform="translate(-7,181.28571428571428)" style="font-family: sans-serif; font-size: 10px; fill: #000; opacity: 1;">22</text><text text-anchor="end" transform="translate(-7,153.85714285714286)" style="font-family: sans-serif; font-size: 10px; fill: #000; opacity: 1;">24</text><text text-anchor="end" transform="translate(-7,126.42857142857142)" style="font-family: sans-serif; font-size: 10px; fill: #000; opacity: 1;">26</text><text text-anchor="end" transform="translate(-7,98.99999999999997)" style="font-family: sans-serif; font-size: 10px; fill: #000; opacity: 1;">28</text><text text-anchor="end" transform="translate(-7,71.5714285714286)" style="font-family: sans-serif; font-size: 10px; fill: #000; opacity: 1;">30</text><text text-anchor="end" transform="translate(-7,44.14285714285715)" style="font-family: sans-serif; font-size: 10px; fill: #000; opacity: 1;">32</text><text text-anchor="end" transform="translate(-7,16.71428571428572)" style="font-family: sans-serif; font-size: 10px; fill: #000; opacity: 1;">34</text></g><g class="mark-rule role-axis-domain" style="pointer-events: none;"><line transform="translate(0,480)" x2="0" y2="-480" style="fill: none; stroke: #888; stroke-width: 1; opacity: 1;"></line></g><g class="mark-text role-axis-title" style="pointer-events: none;"><text text-anchor="middle" transform="translate(-23,240) rotate(-90) translate(0,-2)" style="font-family: sans-serif; font-size: 11px; font-weight: bold; fill: #000; opacity: 1;">GFLOPS</text></g></g></g></g></g></g></g></g></svg>