<?xml version="1.0" encoding="UTF-8"?>
<svg xmlns="http://www.w3.org/2000/svg"
     xmlns:xlink="http://www.w3.org/1999/xlink"
     xmlns:gadfly="http://www.gadflyjl.org/ns"
     version="1.2"
     width="304.8mm" height="203.2mm" viewBox="0 0 304.8 203.2"
     stroke="none"
     fill="#000000"
     stroke-width="0.3"
     font-size="3.88"
>
<defs>
  <marker id="arrow" markerWidth="15" markerHeight="7" refX="5" refY="3.5" orient="auto" markerUnits="strokeWidth">
    <path d="M0,0 L15,3.5 L0,7 z" stroke="context-stroke" fill="context-stroke"/>
  </marker>
</defs>
<g class="plotroot xscalable yscalable" id="img-2844d864-1">
  <g font-size="3.88" font-family="'PT Sans','Helvetica Neue','Helvetica',sans-serif" fill="#564A55" stroke="#000000" stroke-opacity="0.000" id="img-2844d864-2">
    <g transform="translate(146.46,192.38)">
      <g class="primitive">
        <text text-anchor="middle" dy="0.6em">Size</text>
      </g>
    </g>
  </g>
  <g class="guide xlabels" font-size="2.82" font-family="'PT Sans Caption','Helvetica Neue','Helvetica',sans-serif" fill="#6C606B" id="img-2844d864-3">
    <g transform="translate(22.88,186.61)">
      <g class="primitive">
        <text text-anchor="middle" dy="0.6em">0</text>
      </g>
    </g>
    <g transform="translate(72.31,186.61)">
      <g class="primitive">
        <text text-anchor="middle" dy="0.6em">100</text>
      </g>
    </g>
    <g transform="translate(121.75,186.61)">
      <g class="primitive">
        <text text-anchor="middle" dy="0.6em">200</text>
      </g>
    </g>
    <g transform="translate(171.18,186.61)">
      <g class="primitive">
        <text text-anchor="middle" dy="0.6em">300</text>
      </g>
    </g>
    <g transform="translate(220.61,186.61)">
      <g class="primitive">
        <text text-anchor="middle" dy="0.6em">400</text>
      </g>
    </g>
    <g transform="translate(270.05,186.61)">
      <g class="primitive">
        <text text-anchor="middle" dy="0.6em">500</text>
      </g>
    </g>
  </g>
  <g class="guide colorkey" id="img-2844d864-4">
    <g fill="#4C404B" font-size="2.82" font-family="'PT Sans','Helvetica Neue','Helvetica',sans-serif" id="img-2844d864-5">
      <g transform="translate(276.16,91.23)" id="img-2844d864-6">
        <g class="primitive">
          <text dy="0.35em">Octavian</text>
        </g>
      </g>
      <g transform="translate(276.16,94.35)" id="img-2844d864-7">
        <g class="primitive">
          <text dy="0.35em">BLIS</text>
        </g>
      </g>
      <g transform="translate(276.16,97.47)" id="img-2844d864-8">
        <g class="primitive">
          <text dy="0.35em">MKL</text>
        </g>
      </g>
      <g transform="translate(276.16,100.58)" id="img-2844d864-9">
        <g class="primitive">
          <text dy="0.35em">OpenBLAS</text>
        </g>
      </g>
      <g transform="translate(276.16,103.7)" id="img-2844d864-10">
        <g class="primitive">
          <text dy="0.35em">LoopVectorization</text>
        </g>
      </g>
    </g>
    <g stroke-width="0.3" id="img-2844d864-11">
      <g stroke="#FFFFFF" fill-opacity="1" fill="#A0FF35" id="img-2844d864-12">
        <g transform="translate(273.61,103.7)" id="img-2844d864-13">
          <circle cx="0" cy="0" r="0.9" class="primitive"/>
        </g>
      </g>
      <g stroke="#FFFFFF" fill-opacity="1" fill="#008C00" id="img-2844d864-14">
        <g transform="translate(273.61,100.58)" id="img-2844d864-15">
          <circle cx="0" cy="0" r="0.9" class="primitive"/>
        </g>
      </g>
      <g stroke="#FFFFFF" fill-opacity="1" fill="#0071C5" id="img-2844d864-16">
        <g transform="translate(273.61,97.47)" id="img-2844d864-17">
          <circle cx="0" cy="0" r="0.9" class="primitive"/>
        </g>
      </g>
      <g stroke="#FFFFFF" fill-opacity="1" fill="#B46300" id="img-2844d864-18">
        <g transform="translate(273.61,94.35)" id="img-2844d864-19">
          <circle cx="0" cy="0" r="0.9" class="primitive"/>
        </g>
      </g>
      <g stroke="#FFFFFF" fill-opacity="1" fill="#66023C" id="img-2844d864-20">
        <g transform="translate(273.61,91.23)" id="img-2844d864-21">
          <circle cx="0" cy="0" r="0.9" class="primitive"/>
        </g>
      </g>
    </g>
    <g fill="#362A35" font-size="3.88" font-family="'PT Sans','Helvetica Neue','Helvetica',sans-serif" stroke="#000000" stroke-opacity="0.000" id="img-2844d864-22">
      <g transform="translate(273.05,88.18)" id="img-2844d864-23">
        <g class="primitive">
          <text dy="-0em">Libraries</text>
        </g>
      </g>
    </g>
  </g>
  <g clip-path="url(#img-2844d864-24)">
    <g id="img-2844d864-25">
      <g pointer-events="visible" stroke-width="0.3" fill="#000000" fill-opacity="0.000" stroke="#000000" stroke-opacity="0.000" class="guide background" id="img-2844d864-26">
        <g transform="translate(146.46,95.31)" id="img-2844d864-27">
          <path d="M-125.58,-90.31 L125.58,-90.31 125.58,90.31 -125.58,90.31  z" class="primitive"/>
        </g>
      </g>
      <g class="guide ygridlines xfixed" stroke-dasharray="0.5,0.5" stroke-width="0.2" stroke="#D0D0E0" id="img-2844d864-28">
        <g transform="translate(146.46,183.61)" id="img-2844d864-29">
          <path fill="none" d="M-125.58,0 L125.58,0 " class="primitive"/>
        </g>
        <g transform="translate(146.46,148.29)" id="img-2844d864-30">
          <path fill="none" d="M-125.58,0 L125.58,0 " class="primitive"/>
        </g>
        <g transform="translate(146.46,112.97)" id="img-2844d864-31">
          <path fill="none" d="M-125.58,0 L125.58,0 " class="primitive"/>
        </g>
        <g transform="translate(146.46,77.65)" id="img-2844d864-32">
          <path fill="none" d="M-125.58,0 L125.58,0 " class="primitive"/>
        </g>
        <g transform="translate(146.46,42.32)" id="img-2844d864-33">
          <path fill="none" d="M-125.58,0 L125.58,0 " class="primitive"/>
        </g>
        <g transform="translate(146.46,7)" id="img-2844d864-34">
          <path fill="none" d="M-125.58,0 L125.58,0 " class="primitive"/>
        </g>
      </g>
      <g class="guide xgridlines yfixed" stroke-dasharray="0.5,0.5" stroke-width="0.2" stroke="#D0D0E0" id="img-2844d864-35">
        <g transform="translate(22.88,95.31)" id="img-2844d864-36">
          <path fill="none" d="M0,-90.31 L0,90.31 " class="primitive"/>
        </g>
        <g transform="translate(72.31,95.31)" id="img-2844d864-37">
          <path fill="none" d="M0,-90.31 L0,90.31 " class="primitive"/>
        </g>
        <g transform="translate(121.75,95.31)" id="img-2844d864-38">
          <path fill="none" d="M0,-90.31 L0,90.31 " class="primitive"/>
        </g>
        <g transform="translate(171.18,95.31)" id="img-2844d864-39">
          <path fill="none" d="M0,-90.31 L0,90.31 " class="primitive"/>
        </g>
        <g transform="translate(220.61,95.31)" id="img-2844d864-40">
          <path fill="none" d="M0,-90.31 L0,90.31 " class="primitive"/>
        </g>
        <g transform="translate(270.05,95.31)" id="img-2844d864-41">
          <path fill="none" d="M0,-90.31 L0,90.31 " class="primitive"/>
        </g>
      </g>
      <g class="plotpanel" id="img-2844d864-42">
        <metadata>
          <boundingbox value="20.877777777777766mm 5.0mm 251.1694444444444mm 180.61388888888888mm"/>
          <unitbox value="-4.045807531945022 2528.3103442852425 508.09161506389 -2556.620688570485"/>
        </metadata>
        <g stroke-width="0.3" fill="#000000" fill-opacity="0.000" class="geometry" id="img-2844d864-43">
          <g class="color_RGB{N0f8}(0.627,1.0,0.208)" stroke-dasharray="4,1" stroke="#A0FF35" id="img-2844d864-44">
            <g transform="translate(148.93,101.75)" id="img-2844d864-45">
              <path fill="none" d="M-121.11,79.42 L-120.62,78.96 -120.12,78.62 -119.63,77.92 -119.14,77.2 -118.64,76.66 -118.15,75.89 -117.65,77.65 -117.16,77.13 -116.66,76.94 -116.17,76.27 -115.68,75.93 -115.18,75.57 -114.69,75.7 -114.19,74.27 -113.7,76.44 -113.2,76.27 -112.71,75.99 -112.21,76.21 -111.72,75.87 -111.23,75.39 -110.73,75.32 -110.24,74.58 -109.74,74.01 -109.25,73.32 -108.75,72.52 -108.26,71.87 -107.77,71.98 -107.27,71.38 -106.78,71.46 -106.28,70.4 -105.79,71.72 -105.29,71.06 -104.8,70.93 -104.31,70.16 -103.81,69.97 -103.32,70.01 -102.82,69.42 -102.33,68.28 -101.83,70.69 -101.34,71.18 -100.85,70.04 -100.35,65.66 -99.86,66.9 -99.36,64.91 -98.87,67.21 -98.37,64.69 -97.88,67.81 -97.38,66.8 -96.89,67.18 -96.4,66.18 -95.9,67.16 -95.41,66.1 -94.91,66.13 -94.42,62.08 -93.92,66.21 -93.43,65.75 -92.94,65.89 -92.44,59.59 -91.95,60.03 -91.45,59.37 -90.96,59.72 -90.46,54.92 -89.97,63.64 -89.48,62.49 -88.98,63.36 -88.49,61.62 -87.99,62.79 -87.5,61.55 -87,62.12 -86.51,56.68 -86.01,61.68 -85.52,56.36 -85.03,56.7 -84.53,53.54 -84.04,53.73 -83.54,54.77 -83.05,53.41 -82.55,47.29 -82.06,54.9 -81.57,52.43 -81.07,55.57 -80.58,53.4 -80.08,55.99 -79.59,54.66 -79.09,56.65 -78.6,39.4 -78.11,50.35 -77.61,48.44 -77.12,48.05 -76.62,47.5 -76.13,48 -75.63,45.5 -75.14,46.74 -74.65,39.37 -74.15,54.18 -73.66,53.22 -73.16,54.1 -72.67,42.04 -72.17,44.37 -71.68,43.61 -71.18,40.55 -70.69,32.23 -70.2,41.08 -69.7,40.45 -69.21,40.86 -68.71,38.94 -68.22,39.8 -67.72,39.34 -67.23,44.51 -66.74,32.61 -66.24,43.64 -65.75,42.63 -65.25,42.69 -64.76,38.91 -64.26,41.56 -63.77,39.33 -63.28,40.26 -62.78,29.48 -62.29,41.73 -61.79,34.25 -61.3,30.34 -60.8,28.14 -60.31,29.53 -59.82,28.31 -59.32,33.5 -58.83,16.33 -58.33,29.67 -57.84,28.1 -57.34,27.92 -56.85,26.15 -56.35,34.01 -55.86,29.39 -55.37,33.41 -54.87,16.26 -54.38,34.01 -53.88,32.15 -53.39,32.91 -52.89,28.96 -52.4,32.56 -51.91,30.66 -51.41,22.24 -50.92,3.57 -50.42,22.17 -49.93,21.25 -49.43,18.14 -48.94,16.18 -48.45,15.81 -47.95,14.82 -47.46,14.98 -46.96,-0.69 -46.47,25.22 -45.97,19.79 -45.48,22.18 -44.98,15.54 -44.49,18.92 -44,19.24 -43.5,17.43 -43.01,2.4 -42.51,23.47 -42.02,17.22 -41.52,8.43 -41.03,6.38 -40.54,7.36 -40.04,4.9 -39.55,5.47 -39.05,-11.61 -38.56,6.27 -38.06,9.01 -37.57,4.5 -37.08,4.27 -36.58,0.82 -36.09,1.65 -35.59,-1.19 -35.1,-18.41 -34.6,-0.13 -34.11,1.67 -33.62,-2.08 -33.12,-2.79 -32.63,7.13 -32.13,-0.71 -31.64,-0.17 -31.14,-20.92 -30.65,-0.74 -30.15,-4.15 -29.66,2.43 -29.17,-9.54 -28.67,-4.79 -28.18,-10.45 -27.68,-2.01 -27.19,-30.88 -26.69,-1.99 -26.2,-2.82 -25.71,-1.25 -25.21,-7.68 -24.72,-2.88 -24.22,-9.33 -23.73,-3.32 -23.23,-38.61 -22.74,-5.64 -22.25,-7.54 -21.75,-9.27 -21.26,-16.47 -20.76,-13.41 -20.27,-11.08 -19.77,-19.44 -19.28,-48.82 -18.78,-13.17 -18.29,-24.52 -17.8,-15.14 -17.3,-21.91 -16.81,-25.46 -16.31,-19.39 -15.82,-21.03 -15.32,-49.19 -14.83,-12.35 -14.34,-15.44 -13.84,-13.95 -13.35,-17.26 -12.85,-9.87 -12.36,-13.93 -11.86,-16.15 -11.37,-41.65 -10.88,-9.63 -10.38,-13.18 -9.89,-18.02 -9.39,-21.72 -8.9,-11.45 -8.4,-14.32 -7.91,-13.38 -7.42,-43.02 -6.92,-17.75 -6.43,-19.07 -5.93,-23.47 -5.44,-21.58 -4.94,-5.1 -4.45,-9.93 -3.95,-16.17 -3.46,-42.88 -2.97,-20.98 -2.47,-19.32 -1.98,-16.49 -1.48,-29.05 -0.99,-16.99 -0.49,-18.7 0,-16.43 0.49,-51.99 0.99,-25.58 1.48,-21.23 1.98,-18.88 2.47,-31.61 2.97,-19.29 3.46,-21.84 3.95,-23.45 4.45,-55.18 4.94,-23.06 5.44,-19.58 5.93,-12.78 6.43,-21.71 6.92,-24.82 7.42,-18.49 7.91,-25.55 8.4,-52.29 8.9,-21.64 9.39,-16.26 9.89,-16.84 10.38,-21.04 10.88,-17.91 11.37,-18.14 11.86,-14.45 12.36,-50.95 12.85,-15.3 13.35,-20.64 13.84,-26.65 14.34,-33.27 14.83,-27.7 15.32,-20.82 15.82,-28.56 16.31,-55.81 16.81,-15.98 17.3,-25.65 17.8,-28 18.29,-26.62 18.78,-17.52 19.28,-21.72 19.77,-29.94 20.27,-55.78 20.76,-14.34 21.26,-26.85 21.75,-16.11 22.25,-31.41 22.74,-26.34 23.23,-20.81 23.73,-28.27 24.22,-50.34 24.72,-27.83 25.21,-19.66 25.71,-28.94 26.2,-33.68 26.69,-29.83 27.19,-23.84 27.68,-18.91 28.18,-52.27 28.67,-20.02 29.17,-24.66 29.66,-33.84 30.15,-27.07 30.65,-35.08 31.14,-36.55 31.64,-24.48 32.13,-62.12 32.63,-22.66 33.12,-33.23 33.62,-32.46 34.11,-35.94 34.6,-25.56 35.1,-27.18 35.59,-25.47 36.09,-50.63 36.58,-22.23 37.08,-24.63 37.57,-14.2 38.06,-30.14 38.56,-24.16 39.05,-26.63 39.55,-16.44 40.04,-47.5 40.54,-12.35 41.03,-16.91 41.52,-19.86 42.02,-27.76 42.51,-25.63 43.01,-28.44 43.5,-16.18 44,-52.85 44.49,-18.22 44.98,-22.07 45.48,-31.5 45.97,-37.05 46.47,-20.19 46.96,-33.91 47.46,-21.39 47.95,-54.3 48.45,-20.96 48.94,-25.2 49.43,-20.82 49.93,-26.02 50.42,-21.84 50.92,-38.04 51.41,-36.61 51.91,-61.82 52.4,-27.8 52.89,-28.25 53.39,-26.16 53.88,-34.46 54.38,-25.45 54.87,-20.55 55.37,-28.48 55.86,-52.87 56.35,-26.11 56.85,-30.54 57.34,-29.45 57.84,-21.86 58.33,-18.98 58.83,-32 59.32,-19.99 59.82,-56.9 60.31,-32.73 60.8,-21.72 61.3,-18.02 61.79,-24.53 62.29,-16.82 62.78,-31.57 63.28,-31.17 63.77,-54.31 64.26,-25.66 64.76,-28.71 65.25,-14.48 65.75,-23.07 66.24,-16.59 66.74,-0.98 67.23,-30.36 67.72,-52.35 68.22,-17.64 68.71,-32.73 69.21,-23.68 69.7,-36.53 70.2,-19.54 70.69,-27.8 71.18,-25.63 71.68,-57.27 72.17,-33.75 72.67,-25.35 73.16,-35.74 73.66,-28.66 74.15,-36.54 74.65,-38.68 75.14,-24.03 75.63,-61.93 76.13,-27.49 76.62,-22.7 77.12,-25.4 77.61,-30.54 78.11,-22.24 78.6,-25.63 79.09,-26.71 79.59,-58.4 80.08,-33.28 80.58,-25.06 81.07,-22.03 81.57,-33.08 82.06,-22.03 82.55,-26 83.05,-22.91 83.54,-59.36 84.04,-35.55 84.53,-26.81 85.03,-35.03 85.52,-27.85 86.01,-37 86.51,-27.8 87,-2.22 87.5,-55.83 87.99,-26.7 88.49,-25.28 88.98,-22.12 89.48,-32.81 89.97,-26.93 90.46,-29.52 90.96,-23.36 91.45,-53.38 91.95,-29.88 92.44,-31.16 92.94,-25.47 93.43,-35.97 93.92,-19.06 94.42,-21.78 94.91,-31.26 95.41,-50.23 95.9,-32.35 96.4,-21.8 96.89,-33.09 97.38,-25.51 97.88,-33.96 98.37,-36.02 98.87,22.47 99.36,-53.74 99.86,-31.4 100.35,-21.95 100.85,-22.87 101.34,-25.46 101.83,-35.06 102.33,-35.96 102.82,-36.02 103.32,-55.45 103.81,-15.81 104.31,-28.55 104.8,-27.66 105.29,-20.57 105.79,-28.3 106.28,-29.95 106.78,-29.27 107.27,-52.31 107.77,-18.92 108.26,-21.92 108.75,-18.63 109.25,-22.08 109.74,-31.75 110.24,-30.37 110.73,-31.62 111.23,-53.09 111.72,-20.08 112.21,17.26 112.71,-36.49 113.2,-39.44 113.7,-36.81 114.19,-39.75 114.69,-34.04 115.18,-57.21 115.68,-27.91 116.17,-23.76 116.66,-33.15 117.16,-38.42 117.65,-35 118.15,-28.65 118.64,-22.54 119.14,-60.77 119.63,-26.3 120.12,-28.01 120.62,-27.4 121.11,-20.91 " class="primitive"/>
            </g>
          </g>
        </g>
        <g stroke-width="0.3" fill="#000000" fill-opacity="0.000" class="geometry" id="img-2844d864-46">
          <g class="color_RGB{N0f8}(0.0,0.549,0.0)" stroke-dasharray="4,1" stroke="#008C00" id="img-2844d864-47">
            <g transform="translate(148.93,165.93)" id="img-2844d864-48">
              <path fill="none" d="M-121.11,17.18 L-120.62,17.15 -120.12,16.8 -119.63,16.83 -119.14,16.7 -118.64,16.75 -118.15,16.2 -117.65,16.38 -117.16,16 -116.66,16.14 -116.17,15.76 -115.68,15.98 -115.18,15.89 -114.69,16.11 -114.19,14.89 -113.7,15.3 -113.2,15.25 -112.71,15.53 -112.21,15.1 -111.72,15.47 -111.23,15.03 -110.73,15.37 -110.24,14.29 -109.74,14.82 -109.25,14.81 -108.75,15.13 -108.26,14.39 -107.77,14.77 -107.27,14.74 -106.78,15.08 -106.28,14.14 -105.79,14.66 -105.29,14.28 -104.8,14.68 -104.31,14.18 -103.81,14.65 -103.32,14.58 -102.82,14.89 -102.33,13.53 -101.83,14.03 -101.34,14.01 -100.85,14.38 -100.35,14.06 -99.86,14.37 -99.36,14.02 -98.87,14.38 -98.37,13.4 -97.88,13.93 -97.38,13.93 -96.89,14.28 -96.4,13.69 -95.9,13.97 -95.41,13.97 -94.91,14.35 -94.42,13.36 -93.92,17.28 -93.43,17.27 -92.94,17.25 -92.44,17.23 -91.95,17.21 -91.45,17.18 -90.96,17.16 -90.46,17.12 -89.97,17.11 -89.48,17.08 -88.98,17.08 -88.49,17.05 -87.99,17.05 -87.5,17.02 -87,17 -86.51,16.97 -86.01,16.95 -85.52,16.93 -85.03,16.9 -84.53,16.87 -84.04,16.86 -83.54,16.83 -83.05,16.81 -82.55,16.74 -82.06,16.72 -81.57,16.7 -81.07,16.68 -80.58,16.63 -80.08,16.6 -79.59,16.56 -79.09,16.53 -78.6,16.48 -78.11,16.46 -77.61,16.43 -77.12,16.39 -76.62,16.39 -76.13,16.34 -75.63,16.3 -75.14,16.27 -74.65,16.2 -74.15,16.19 -73.66,16.15 -73.16,16.12 -72.67,16.07 -72.17,16.11 -71.68,16.07 -71.18,16.04 -70.69,15.98 -70.2,15.95 -69.7,15.91 -69.21,15.87 -68.71,15.84 -68.22,15.73 -67.72,15.76 -67.23,15.71 -66.74,15.65 -66.24,15.61 -65.75,15.49 -65.25,15.43 -64.76,15.47 -64.26,15.35 -63.77,15.27 -63.28,15.31 -62.78,15.22 -62.29,15.11 -61.79,15.07 -61.3,14.99 -60.8,14.91 -60.31,14.86 -59.82,14.78 -59.32,14.72 -58.83,14.62 -58.33,14.57 -57.84,14.47 -57.34,14.39 -56.85,14.43 -56.35,14.24 -55.86,14.13 -55.37,14.02 -54.87,13.61 -54.38,13.72 -53.88,13.66 -53.39,13.66 -52.89,13.6 -52.4,13.47 -51.91,13.39 -51.41,13.34 -50.92,13.29 -50.42,13.43 -49.93,13.38 -49.43,13.34 -48.94,13.03 -48.45,13 -47.95,12.9 -47.46,12.86 -46.96,12.78 -46.47,12.76 -45.97,12.71 -45.48,12.68 -44.98,12.58 -44.49,12.52 -44,12.61 -43.5,12.51 -43.01,12.42 -42.51,12.31 -42.02,12.06 -41.52,12.03 -41.03,11.95 -40.54,11.82 -40.04,11.98 -39.55,11.79 -39.05,11.84 -38.56,11.64 -38.06,11.56 -37.57,11.65 -37.08,11.38 -36.58,11.6 -36.09,11.78 -35.59,11.78 -35.1,11.61 -34.6,11.47 -34.11,11.44 -33.62,11.34 -33.12,11.24 -32.63,11.13 -32.13,10.86 -31.64,10.68 -31.14,10.67 -30.65,10.43 -30.15,10.36 -29.66,10.23 -29.17,10.2 -28.67,10.12 -28.18,9.98 -27.68,10.01 -27.19,9.6 -26.69,9.56 -26.2,9.72 -25.71,9.5 -25.21,9.37 -24.72,9.27 -24.22,9.17 -23.73,8.72 -23.23,8.63 -22.74,8.47 -22.25,8.31 -21.75,8.16 -21.26,7.94 -20.76,7.83 -20.27,7.55 -19.77,7.43 -19.28,6.57 -18.78,7.52 -18.29,7.41 -17.8,7.11 -17.3,7.11 -16.81,6.92 -16.31,7.33 -15.82,6.91 -15.32,7.29 -14.83,7.13 -14.34,6.72 -13.84,6.71 -13.35,6.55 -12.85,6.89 -12.36,6.46 -11.86,6.24 -11.37,6.48 -10.88,6.39 -10.38,6.4 -9.89,6.09 -9.39,6.4 -8.9,5.96 -8.4,5.85 -7.91,5.87 -7.42,5.96 -6.92,5.94 -6.43,5.7 -5.93,5.57 -5.44,5.55 -4.94,5.43 -4.45,5.43 -3.95,5.34 -3.46,5.29 -2.97,5.28 -2.47,5.09 -1.98,5.07 -1.48,5.3 -0.99,6.26 -0.49,6.03 0,6.12 0.49,5.7 0.99,5.5 1.48,5.51 1.98,5.47 2.47,5.01 2.97,4.88 3.46,4.69 3.95,4.62 4.45,4.24 4.94,4.16 5.44,4.05 5.93,3.71 6.43,3.7 6.92,3.34 7.42,3.2 7.91,3.22 8.4,2.77 8.9,2.65 9.39,2.48 9.89,2.52 10.38,2.23 10.88,1.98 11.37,1.68 11.86,1.42 12.36,0.89 12.85,1.28 13.35,0.62 13.84,0.2 14.34,0 14.83,-0.51 15.32,-0.05 15.82,-1.3 16.31,-5.8 16.81,-3.93 17.3,-3.77 17.8,-3.48 18.29,-4 18.78,-3.77 19.28,-4.25 19.77,-4.43 20.27,-4.49 20.76,-4.75 21.26,-4.32 21.75,-4.71 22.25,-4.79 22.74,-4.7 23.23,-4.98 23.73,-5.32 24.22,-5.57 24.72,-5.03 25.21,-5.16 25.71,-5.07 26.2,-5.28 26.69,-5.7 27.19,-5.91 27.68,-5.53 28.18,-6.31 28.67,-6.04 29.17,-6.29 29.66,-6.46 30.15,-6.69 30.65,-6.74 31.14,-6.86 31.64,-6.91 32.13,-6.85 32.63,-6.45 33.12,-6.62 33.62,-6.78 34.11,-7.15 34.6,-4.07 35.1,-4.25 35.59,-4.2 36.09,-4.52 36.58,-5.34 37.08,-5.5 37.57,-5.49 38.06,-5.94 38.56,-6.19 39.05,-6.09 39.55,-6.96 40.04,-6.7 40.54,-6.94 41.03,-7.54 41.52,-7.83 42.02,-8.04 42.51,-7.88 43.01,-8.23 43.5,-8.62 44,-8.6 44.49,-9.59 44.98,-9.82 45.48,-10.01 45.97,-10.12 46.47,-11.01 46.96,-11.2 47.46,-11.54 47.95,-11.98 48.45,-12.57 48.94,-12.54 49.43,-12.26 49.93,-12.9 50.42,-13.2 50.92,-14.65 51.41,-15.28 51.91,-17.31 52.4,-14.14 52.89,-14.03 53.39,-13.79 53.88,-13.97 54.38,-13.87 54.87,-13.94 55.37,-13.78 55.86,-14.03 56.35,-13.76 56.85,-13.93 57.34,-13.98 57.84,-14.34 58.33,-13.92 58.83,-14.47 59.32,-14.47 59.82,-14.51 60.31,-14.24 60.8,-14.5 61.3,-14.45 61.79,-14.28 62.29,-14.27 62.78,-13.34 63.28,-13.57 63.77,-14.06 64.26,-13.24 64.76,-12.74 65.25,-13.4 65.75,-13.61 66.24,-12.79 66.74,-13.12 67.23,-12.97 67.72,-12.96 68.22,-13.23 68.71,-12.94 69.21,-13.45 69.7,-13.62 70.2,-10.52 70.69,-10.88 71.18,-10.94 71.68,-11.42 72.17,-11.84 72.67,-12.65 73.16,-12.94 73.66,-13.29 74.15,-13.66 74.65,-13.74 75.14,-14.21 75.63,-14.13 76.13,-14.98 76.62,-14.95 77.12,-14.97 77.61,-15.37 78.11,-16.43 78.6,-17 79.09,-17.61 79.59,-18.22 80.08,-18.32 80.58,-18.14 81.07,-18.62 81.57,-18.83 82.06,-19.51 82.55,-19.92 83.05,-20.11 83.54,-21.13 84.04,-21.16 84.53,-22 85.03,-22.14 85.52,-22.96 86.01,-23.28 86.51,-23.43 87,-24.01 87.5,-28.94 87.99,-23.57 88.49,-23.92 88.98,-23.23 89.48,-24.31 89.97,-23.66 90.46,-23.75 90.96,-23.91 91.45,-25.25 91.95,-23.09 92.44,-23.46 92.94,-23.5 93.43,-23.46 93.92,-23.85 94.42,-23.67 94.91,-23.63 95.41,-23.09 95.9,-23.91 96.4,-24.61 96.89,-24.64 97.38,-23.26 97.88,-22.88 98.37,-24.87 98.87,-24.54 99.36,-24.15 99.86,-24.05 100.35,-24.27 100.85,-23.1 101.34,-23.68 101.83,-22.71 102.33,-23.58 102.82,-23.98 103.32,-24.09 103.81,-23.17 104.31,-24.95 104.8,-24.09 105.29,-24.21 105.79,-20.99 106.28,-21.21 106.78,-21.74 107.27,-22.13 107.77,-22.24 108.26,-21.79 108.75,-22.01 109.25,-22.75 109.74,-22.98 110.24,-22.31 110.73,-22.73 111.23,-23.17 111.72,-22.68 112.21,-23.07 112.71,-23.14 113.2,-23.31 113.7,-23.28 114.19,-22.61 114.69,-23.83 115.18,-23.64 115.68,-24.1 116.17,-24.25 116.66,-23.52 117.16,-23.66 117.65,-24.08 118.15,-25.02 118.64,-24.8 119.14,-25.38 119.63,-24.96 120.12,-24.55 120.62,-25.05 121.11,-25.88 " class="primitive"/>
            </g>
          </g>
        </g>
        <g stroke-width="0.3" fill="#000000" fill-opacity="0.000" class="geometry" id="img-2844d864-49">
          <g class="color_RGB{N0f8}(0.0,0.443,0.773)" stroke-dasharray="4,1" stroke="#0071C5" id="img-2844d864-50">
            <g transform="translate(148.93,109.96)" id="img-2844d864-51">
              <path fill="none" d="M-121.11,72.98 L-120.62,72.81 -120.12,72.58 -119.63,72.33 -119.14,72.09 -118.64,71.79 -118.15,71.45 -117.65,71.64 -117.16,71.3 -116.66,71.01 -116.17,70.69 -115.68,70.36 -115.18,70.1 -114.69,69.78 -114.19,69.14 -113.7,70.35 -113.2,70.14 -112.71,69.89 -112.21,69.71 -111.72,69.42 -111.23,69.19 -110.73,68.97 -110.24,68.28 -109.74,69.19 -109.25,69.07 -108.75,68.76 -108.26,68.59 -107.77,68.39 -107.27,68.2 -106.78,68.01 -106.28,67.31 -105.79,68.5 -105.29,68.25 -104.8,68.13 -104.31,67.85 -103.81,67.68 -103.32,67.51 -102.82,67.28 -102.33,66.38 -101.83,68.05 -101.34,67.88 -100.85,68.97 -100.35,68.43 -99.86,68.5 -99.36,68.22 -98.87,66.7 -98.37,63.84 -97.88,66.4 -97.38,65.93 -96.89,65.64 -96.4,64.49 -95.9,64.96 -95.41,64.22 -94.91,64.04 -94.42,58.74 -93.92,62.39 -93.43,61.64 -92.94,61.46 -92.44,59.66 -91.95,60.43 -91.45,59.24 -90.96,58.98 -90.46,53.82 -89.97,59.08 -89.48,57.52 -88.98,57.75 -88.49,55.48 -87.99,56.51 -87.5,55.25 -87,55.4 -86.51,48.81 -86.01,57.2 -85.52,55.65 -85.03,55.94 -84.53,52.67 -84.04,54.87 -83.54,53.66 -83.05,53.5 -82.55,44.48 -82.06,52.47 -81.57,51.35 -81.07,51.99 -80.58,49.25 -80.08,50.42 -79.59,49.02 -79.09,48.91 -78.6,40.52 -78.11,48.88 -77.61,46.77 -77.12,47.81 -76.62,43.61 -76.13,46.1 -75.63,44.05 -75.14,44.68 -74.65,30.91 -74.15,43.55 -73.66,41.54 -73.16,42.04 -72.67,37.49 -72.17,40.88 -71.68,39.37 -71.18,39.83 -70.69,25.34 -70.2,37.87 -69.7,36.3 -69.21,37.34 -68.71,30.69 -68.22,36.51 -67.72,31.9 -67.23,34.31 -66.74,15.38 -66.24,33.17 -65.75,27.91 -65.25,31.04 -64.76,25.55 -64.26,31.71 -63.77,25.5 -63.28,28.89 -62.78,18.19 -62.29,24.26 -61.79,23.03 -61.3,24.09 -60.8,19.85 -60.31,22.45 -59.82,19.09 -59.32,20.07 -58.83,0.17 -58.33,17.62 -57.84,17.28 -57.34,18.27 -56.85,13.37 -56.35,16.21 -55.86,14.96 -55.37,14.84 -54.87,-7.44 -54.38,24.97 -53.88,23.31 -53.39,25.73 -52.89,21.66 -52.4,24.53 -51.91,20.4 -51.41,22.84 -50.92,4.02 -50.42,19 -49.93,18.22 -49.43,19.95 -48.94,14.49 -48.45,18.63 -47.95,14.72 -47.46,16.78 -46.96,-3.06 -46.47,15.71 -45.97,14.75 -45.48,17.73 -44.98,10.02 -44.49,14.05 -44,11.8 -43.5,14.47 -43.01,-9.25 -42.51,8.32 -42.02,6.36 -41.52,9.24 -41.03,-0.78 -40.54,6.63 -40.04,4.23 -39.55,5.5 -39.05,-16.5 -38.56,3.61 -38.06,-0.49 -37.57,6.77 -37.08,-5.32 -36.58,2.31 -36.09,0.86 -35.59,3.83 -35.1,-24.95 -34.6,-0.44 -34.11,-4.2 -33.62,0.82 -33.12,-13.31 -32.63,-5.87 -32.13,-6.53 -31.64,-8.06 -31.14,-30.07 -30.65,-6.81 -30.15,-9.14 -29.66,-2.2 -29.17,-14.04 -28.67,-8.26 -28.18,-8.72 -27.68,-5.69 -27.19,-35.02 -26.69,-8.37 -26.2,-12.62 -25.71,-5.94 -25.21,-21.86 -24.72,-16.51 -24.22,-16.22 -23.73,-11.51 -23.23,-41.89 -22.74,-13.9 -22.25,-23.76 -21.75,-15.7 -21.26,-27.71 -20.76,-17.84 -20.27,-22.31 -19.77,-19.16 -19.28,-49.74 -18.78,6.76 -18.29,5.4 -17.8,6.81 -17.3,-2.56 -16.81,6.29 -16.31,3.54 -15.82,5.48 -15.32,-16.74 -14.83,5.47 -14.34,3.17 -13.84,6.95 -13.35,-2.5 -12.85,5.08 -12.36,1.8 -11.86,4.16 -11.37,-17.51 -10.88,3.29 -10.38,0.39 -9.89,1.98 -9.39,-9.56 -8.9,-0.92 -8.4,-3.12 -7.91,-1.34 -7.42,-21.99 -6.92,-1.71 -6.43,-5.03 -5.93,-0.3 -5.44,-13.25 -4.94,-1.08 -4.45,-6.77 -3.95,-4.9 -3.46,-27.63 -2.97,-4.57 -2.47,-8.95 -1.98,-3.48 -1.48,-16.39 -0.99,-5.58 -0.49,-9.49 0,-7.44 0.49,2.64 0.99,-6.2 1.48,-9.96 1.98,-7.89 2.47,-18.27 2.97,-9.89 3.46,-12.02 3.95,-10.48 4.45,-36.61 4.94,-13.16 5.44,-15.39 5.93,-11.78 6.43,-23.05 6.92,-14.33 7.42,-17.23 7.91,-16.41 8.4,-40.72 8.9,-15.17 9.39,-20.3 9.89,-14.16 10.38,-25.73 10.88,-15.47 11.37,-18.54 11.86,-16.52 12.36,-44.47 12.85,-18.47 13.35,-22.49 13.84,-18.46 14.34,-29.35 14.83,-20.77 15.32,-23.41 15.82,-22.57 16.31,-48.44 16.81,-12.05 17.3,-15.75 17.8,-13.19 18.29,-21.28 18.78,-13.4 19.28,-16.83 19.77,-13.57 20.27,-40.35 20.76,-18.23 21.26,-19.72 21.75,-17.78 22.25,-25.9 22.74,-17.26 23.23,-20.4 23.73,-20.05 24.22,-45.02 24.72,-18.44 25.21,-20.77 25.71,-18.39 26.2,-28.26 26.69,-20.02 27.19,-22.83 27.68,-19.99 28.18,-47.34 28.67,-21.93 29.17,-25.55 29.66,-21.12 30.15,-33.66 30.65,-23.68 31.14,-28.74 31.64,-24.73 32.13,-52.06 32.63,-26.91 33.12,-26.6 33.62,-19.85 34.11,-30.9 34.6,-21.82 35.1,-25.44 35.59,-22.33 36.09,-50.09 36.58,-24.22 37.08,-27.8 37.57,-23.02 38.06,-35.37 38.56,-25.43 39.05,-29.87 39.55,-26.46 40.04,-56.13 40.54,-28.7 41.03,-32.37 41.52,-27.96 42.02,-39.09 42.51,-30.49 43.01,-33.65 43.5,-30.62 44,-60.42 44.49,-33.3 44.98,-36.12 45.48,-33.01 45.97,-45.03 46.47,-36.25 46.96,-39.15 47.46,-38.41 47.95,-66.06 48.45,-35.67 48.94,-40.42 49.43,-32.13 49.93,-40.99 50.42,-33.41 50.92,-37.72 51.41,-34.92 51.91,-64.86 52.4,-22.78 52.89,-24.51 53.39,-21.8 53.88,-33.26 54.38,-24.57 54.87,-27.32 55.37,-25.56 55.86,-51.22 56.35,-26.37 56.85,-32.06 57.34,-26.61 57.84,-36.23 58.33,-27.66 58.83,-31.13 59.32,-29.11 59.82,-55.44 60.31,-29.66 60.8,-30.93 61.3,-28.64 61.79,-42.5 62.29,-29.21 62.78,-34.01 63.28,-31.5 63.77,-55.45 64.26,-26.71 64.76,-26.31 65.25,-22.92 65.75,-33.22 66.24,-20.8 66.74,-23.11 67.23,-25.22 67.72,-55.73 68.22,-24.02 68.71,-27.59 69.21,-24.77 69.7,-38.7 70.2,-26.17 70.69,-31.18 71.18,-28.45 71.68,-59.96 72.17,-28.6 72.67,-30.66 73.16,-25.83 73.66,-39.44 74.15,-27.19 74.65,-30.58 75.14,-28.79 75.63,-60.82 76.13,-27.12 76.62,-31.64 77.12,-30.23 77.61,-41.91 78.11,-30.44 78.6,-33.86 79.09,-30.97 79.59,-65.27 80.08,-30.91 80.58,-33.26 81.07,-31.18 81.57,-42.23 82.06,-29.56 82.55,-33.35 83.05,-32.04 83.54,-65.77 84.04,-30.67 84.53,-33.55 85.03,-32.22 85.52,-43.95 86.01,-31.98 86.51,-34.92 87,-30.97 87.5,-68.36 87.99,-10.72 88.49,-12.53 88.98,-10.94 89.48,-19.69 89.97,-11.41 90.46,-13.47 90.96,-11.39 91.45,-37.59 91.95,-11.57 92.44,-13.3 92.94,-11.47 93.43,-20.71 93.92,-12.42 94.42,-15.66 94.91,-15.1 95.41,-43.5 95.9,-16.22 96.4,-16.36 96.89,-13.26 97.38,-20.64 97.88,-10.91 98.37,-13.59 98.87,-11.13 99.36,-38.31 99.86,-12.24 100.35,-15.4 100.85,-13.92 101.34,-23.32 101.83,-15.17 102.33,-16.92 102.82,-15.63 103.32,-42.08 103.81,-16.74 104.31,-18.73 104.8,-18.1 105.29,-25.84 105.79,-18.03 106.28,-19.76 106.78,-18.64 107.27,-45.27 107.77,-18.76 108.26,-21.03 108.75,-19.98 109.25,-31.01 109.74,-21.4 110.24,-24.86 110.73,-22.89 111.23,-50.96 111.72,-22.27 112.21,-19.06 112.71,-20.21 113.2,-29.98 113.7,-19.63 114.19,-22.04 114.69,-20.01 115.18,-47.25 115.68,-19.74 116.17,-22.44 116.66,-20.79 117.16,-29.43 117.65,-20.41 118.15,-22.71 118.64,-20.83 119.14,-47.5 119.63,-20.72 120.12,-22.96 120.62,-21.41 121.11,-29.97 " class="primitive"/>
            </g>
          </g>
        </g>
        <g stroke-width="0.3" fill="#000000" fill-opacity="0.000" class="geometry" id="img-2844d864-52">
          <g class="color_RGB{N0f8}(0.706,0.388,0.0)" stroke-dasharray="4,1" stroke="#B46300" id="img-2844d864-53">
            <g transform="translate(148.93,151.17)" id="img-2844d864-54">
              <path fill="none" d="M-121.11,32.44 L-120.62,32.44 -120.12,32.43 -119.63,32.43 -119.14,32.43 -118.64,32.43 -118.15,32.43 -117.65,32.43 -117.16,32.41 -116.66,32.41 -116.17,32.4 -115.68,32.41 -115.18,32.4 -114.69,32.4 -114.19,32.37 -113.7,32.36 -113.2,32.35 -112.71,32.37 -112.21,32.36 -111.72,32.35 -111.23,32.3 -110.73,32.28 -110.24,32.27 -109.74,32.32 -109.25,32.3 -108.75,32.29 -108.26,32.2 -107.77,32.19 -107.27,32.17 -106.78,32.23 -106.28,32.22 -105.79,32.2 -105.29,32.07 -104.8,32.05 -104.31,32.03 -103.81,32.12 -103.32,32.1 -102.82,32.08 -102.33,31.9 -101.83,31.88 -101.34,31.84 -100.85,31.99 -100.35,31.97 -99.86,31.93 -99.36,31.68 -98.87,31.65 -98.37,31.59 -97.88,31.82 -97.38,31.78 -96.89,31.75 -96.4,31.4 -95.9,31.37 -95.41,31.3 -94.91,31.58 -94.42,31.55 -93.92,31.55 -93.43,31.11 -92.94,31.06 -92.44,30.96 -91.95,31.39 -91.45,31.33 -90.96,31.31 -90.46,30.72 -89.97,30.69 -89.48,30.59 -88.98,31.11 -88.49,31.04 -87.99,31.01 -87.5,30.36 -87,30.25 -86.51,30.1 -86.01,30.84 -85.52,30.76 -85.03,30.71 -84.53,29.8 -84.04,29.79 -83.54,29.67 -83.05,30.43 -82.55,30.4 -82.06,30.32 -81.57,29.29 -81.07,29.22 -80.58,29.05 -80.08,30.02 -79.59,29.97 -79.09,29.89 -78.6,28.6 -78.11,28.63 -77.61,28.42 -77.12,29.62 -76.62,29.58 -76.13,29.46 -75.63,28.07 -75.14,27.99 -74.65,27.8 -74.15,29.1 -73.66,29.01 -73.16,28.98 -72.67,27.31 -72.17,27.2 -71.68,27.13 -71.18,28.6 -70.69,28.42 -70.2,28.4 -69.7,26.77 -69.21,26.6 -68.71,26.44 -68.22,28.04 -67.72,27.98 -67.23,27.84 -66.74,25.68 -66.24,25.74 -65.75,25.47 -65.25,27.4 -64.76,27.28 -64.26,27.22 -63.77,24.81 -63.28,24.78 -62.78,24.42 -62.29,26.81 -61.79,26.73 -61.3,26.6 -60.8,23.88 -60.31,23.89 -59.82,23.65 -59.32,26.1 -58.83,25.99 -58.33,25.91 -57.84,22.8 -57.34,22.87 -56.85,22.53 -56.35,25.47 -55.86,25.33 -55.37,25.05 -54.87,21.9 -54.38,22.07 -53.88,21.8 -53.39,24.7 -52.89,24.48 -52.4,24.28 -51.91,21.16 -51.41,20.94 -50.92,20.73 -50.42,23.68 -49.93,23.54 -49.43,23.53 -48.94,19.96 -48.45,19.92 -47.95,19.63 -47.46,22.78 -46.96,22.43 -46.47,22.66 -45.97,19.04 -45.48,18.41 -44.98,18.31 -44.49,22.06 -44,21.72 -43.5,21.56 -43.01,17.63 -42.51,18.04 -42.02,17.41 -41.52,21.11 -41.03,20.83 -40.54,20.66 -40.04,16.59 -39.55,16.42 -39.05,16.18 -38.56,19.83 -38.06,19.74 -37.57,19.52 -37.08,15.32 -36.58,14.7 -36.09,14.48 -35.59,18.72 -35.1,18.47 -34.6,18.49 -34.11,14.26 -33.62,13.97 -33.12,13.73 -32.63,17.4 -32.13,17.33 -31.64,17.11 -31.14,12.17 -30.65,12.88 -30.15,12.53 -29.66,16.64 -29.17,16.3 -28.67,16.03 -28.18,11.43 -27.68,11.08 -27.19,10.82 -26.69,14.8 -26.2,14.97 -25.71,14.82 -25.21,9.88 -24.72,9.94 -24.22,9.46 -23.73,13.99 -23.23,13.69 -22.74,13.88 -22.25,8.13 -21.75,8.27 -21.26,7.83 -20.76,13.56 -20.27,12.9 -19.77,13.14 -19.28,6.47 -18.78,6.24 -18.29,6.21 -17.8,12.47 -17.3,11.81 -16.81,11.93 -16.31,5.14 -15.82,4.48 -15.32,3.56 -14.83,10.93 -14.34,10.52 -13.84,10.41 -13.35,3.69 -12.85,3.33 -12.36,2.25 -11.86,9.47 -11.37,8.53 -10.88,9.26 -10.38,1.53 -9.89,1 -9.39,0.3 -8.9,7.7 -8.4,7.76 -7.91,6.91 -7.42,-1.15 -6.92,0.37 -6.43,0.61 -5.93,6.71 -5.44,5.76 -4.94,5.7 -4.45,-0.98 -3.95,-1.01 -3.46,-3.02 -2.97,4.37 -2.47,4.39 -1.98,4.17 -1.48,-3.43 -0.99,0.45 -0.49,-0.79 0,4.1 0.49,3.31 0.99,3.57 1.48,-1.24 1.98,-2 2.47,-3.87 2.97,2.4 3.46,2.08 3.95,2 4.45,-3.7 4.94,-3.79 5.44,-4.01 5.93,1.81 6.43,0.67 6.92,0.97 7.42,-4.3 7.91,-4.17 8.4,-5.72 8.9,0 9.39,-0.57 9.89,-0.58 10.38,-6.1 10.88,-5.93 11.37,-7.03 11.86,-2.51 12.36,-3.94 12.85,-1.32 13.35,-8.69 13.84,-8.12 14.34,-9.26 14.83,-3.77 15.32,-4.39 15.82,-4.25 16.31,-10.7 16.81,-7.66 17.3,-7.99 17.8,-2.35 18.29,-3.39 18.78,-3.83 19.28,-8.72 19.77,-9.84 20.27,-10.49 20.76,-3.19 21.26,-3.64 21.75,-3.8 22.25,-10.43 22.74,-10.67 23.23,-11.18 23.73,-5.41 24.22,-5.79 24.72,-4.63 25.21,-12.34 25.71,-12.37 26.2,-11.28 26.69,-5.88 27.19,-6.29 27.68,-6.2 28.18,-14.77 28.67,-14.56 29.17,-14.56 29.66,-6.34 30.15,-7.64 30.65,-7.03 31.14,-15.92 31.64,-16.9 32.13,-18.51 32.63,-9.34 33.12,-9.71 33.62,-9.87 34.11,-18.96 34.6,-18.21 35.1,-18.28 35.59,-10.47 36.09,-12.2 36.58,-11.49 37.08,-19.94 37.57,-20.87 38.06,-21.65 38.56,-13.29 39.05,-12.15 39.55,-13.17 40.04,-24.59 40.54,-16.97 41.03,-16.96 41.52,-11.79 42.02,-13.63 42.51,-13.04 43.01,-18.52 43.5,-17.58 44,-19.15 44.49,-14.58 44.98,-14.38 45.48,-14.61 45.97,-20.11 46.47,-19.98 46.96,-20.13 47.46,-15.83 47.95,-17.58 48.45,-16.9 48.94,-20.48 49.43,-21.11 49.93,-21.87 50.42,-17.83 50.92,-17.49 51.41,-17.94 51.91,-23 52.4,-22.85 52.89,-23.82 53.39,-19.14 53.88,-20.39 54.38,-19.35 54.87,-23.41 55.37,-23.83 55.86,-26.32 56.35,-20.28 56.85,-20.88 57.34,-20.91 57.84,-26.48 58.33,-25.79 58.83,-26.32 59.32,-21.35 59.82,-23.3 60.31,-23.55 60.8,-28.26 61.3,-27.71 61.79,-28.86 62.29,-21.84 62.78,-21.6 63.28,-22.12 63.77,-31.23 64.26,-25.67 64.76,-26.38 65.25,-20.66 65.75,-20.71 66.24,-20.12 66.74,-27.52 67.23,-28.31 67.72,-30.97 68.22,-21.05 68.71,-21.88 69.21,-21.59 69.7,-30.77 70.2,-30.47 70.69,-31.5 71.18,-22.88 71.68,-24.62 72.17,-23.25 72.67,-31.39 73.16,-31.62 73.66,-32.68 74.15,-24.25 74.65,-25.23 75.14,-25.86 75.63,-33.67 76.13,-33.51 76.62,-35.6 77.12,-26.86 77.61,-27.25 78.11,-26.81 78.6,-36.17 79.09,-36.23 79.59,-37.24 80.08,-28.46 80.58,-29 81.07,-28.74 81.57,-37.94 82.06,-31.82 82.55,-32.35 83.05,-26.51 83.54,-28.7 84.04,-26.97 84.53,-34.39 85.03,-34.6 85.52,-34.57 86.01,-27.71 86.51,-28.92 87,-28.1 87.5,-36.18 87.99,-29.33 88.49,-31.13 88.98,-30.36 89.48,-32.66 89.97,-30.96 90.46,-31.19 90.96,-30.73 91.45,-30.87 91.95,-33.12 92.44,-34.35 92.94,-31.73 93.43,-32.65 93.92,-33.01 94.42,-33.69 94.91,-34.2 95.41,-35.88 95.9,-34.51 96.4,-34.57 96.89,-35.05 97.38,-34.96 97.88,-35.78 98.37,-36.5 98.87,-35.35 99.36,-34.8 99.86,-34.6 100.35,-36.33 100.85,-39.35 101.34,-39.44 101.83,-37.45 102.33,-35.74 102.82,-36.69 103.32,-40.68 103.81,-35.68 104.31,-36.97 104.8,-34.99 105.29,-40.06 105.79,-39.87 106.28,-41.03 106.78,-38.83 107.27,-40.15 107.77,-37.43 108.26,-40.71 108.75,-39.48 109.25,-42.13 109.74,-37.72 110.24,-38.18 110.73,-39.35 111.23,-42.22 111.72,-35.49 112.21,-34.83 112.71,-28.3 113.2,-30.51 113.7,-28.89 114.19,-36.82 114.69,-37.32 115.18,-39.64 115.68,-29.86 116.17,-30.68 116.66,-30.43 117.16,-38.94 117.65,-37.04 118.15,-37.78 118.64,-30.21 119.14,-36.04 119.63,-31.28 120.12,-41.21 120.62,-40.6 121.11,-42.07 " class="primitive"/>
            </g>
          </g>
        </g>
        <g stroke-width="0.3" fill="#000000" fill-opacity="0.000" class="geometry" id="img-2844d864-55">
          <g class="color_RGB{N0f8}(0.4,0.008,0.235)" stroke-dasharray="none" stroke="#66023C" id="img-2844d864-56">
            <g transform="translate(148.93,101.43)" id="img-2844d864-57">
              <path fill="none" d="M-121.11,79.36 L-120.62,78.7 -120.12,78.13 -119.63,78.08 -119.14,77.63 -118.64,76.92 -118.15,75.92 -117.65,77.69 -117.16,76.93 -116.66,77.19 -116.17,76.37 -115.68,76.26 -115.18,75.65 -114.69,75.81 -114.19,74.4 -113.7,76.63 -113.2,76.46 -112.71,76.15 -112.21,76.11 -111.72,76.15 -111.23,75.74 -110.73,75.36 -110.24,74.04 -109.74,74.95 -109.25,74.39 -108.75,73.86 -108.26,72.29 -107.77,73.22 -107.27,71.95 -106.78,71.99 -106.28,70.47 -105.79,72.05 -105.29,71.31 -104.8,71.32 -104.31,70.2 -103.81,70.53 -103.32,67.74 -102.82,67.41 -102.33,65.75 -101.83,67.87 -101.34,68.54 -100.85,68.4 -100.35,66.2 -99.86,67.12 -99.36,66.74 -98.87,66.98 -98.37,61.43 -97.88,63.79 -97.38,63.66 -96.89,64.09 -96.4,63.56 -95.9,62.77 -95.41,61.75 -94.91,63.03 -94.42,57.8 -93.92,62.3 -93.43,63.46 -92.94,61.99 -92.44,60.19 -91.95,60.93 -91.45,59.88 -90.96,60.56 -90.46,55.41 -89.97,58.54 -89.48,57.62 -88.98,59.61 -88.49,55.11 -87.99,56.68 -87.5,56.82 -87,57.31 -86.51,50.37 -86.01,59.08 -85.52,55.69 -85.03,55.82 -84.53,53.97 -84.04,54.96 -83.54,53.25 -83.05,53.16 -82.55,47.44 -82.06,54.39 -81.57,52.66 -81.07,50.08 -80.58,47.28 -80.08,49.16 -79.59,49.18 -79.09,48.91 -78.6,40.4 -78.11,51.96 -77.61,49.8 -77.12,51.21 -76.62,49.1 -76.13,47.49 -75.63,46.94 -75.14,48.36 -74.65,40.67 -74.15,48.05 -73.66,47.58 -73.16,46.4 -72.67,45.1 -72.17,42.56 -71.68,43.38 -71.18,42.7 -70.69,33.71 -70.2,42.14 -69.7,41.41 -69.21,41.35 -68.71,41.44 -68.22,39.91 -67.72,38.92 -67.23,43.78 -66.74,30.9 -66.24,40.98 -65.75,40.2 -65.25,43.99 -64.76,38.58 -64.26,39.24 -63.77,38.5 -63.28,35.02 -62.78,25.63 -62.29,36.37 -61.79,37.66 -61.3,34.5 -60.8,9.35 -60.31,13.02 -59.82,10.05 -59.32,10.63 -58.83,-6.26 -58.33,8.32 -57.84,8.23 -57.34,9.08 -56.85,1.81 -56.35,5.61 -55.86,5.21 -55.37,7.65 -54.87,-10.89 -54.38,10.02 -53.88,6.01 -53.39,7.72 -52.89,7.25 -52.4,6.01 -51.91,4.65 -51.41,4.65 -50.92,-13.25 -50.42,5.12 -49.93,2.7 -49.43,6.92 -48.94,2.07 -48.45,0.82 -47.95,1.37 -47.46,-1.28 -46.96,-18.4 -46.47,-1.34 -45.97,-3.42 -45.48,-0.77 -44.98,-7.29 -44.49,0.92 -44,1.85 -43.5,5.07 -43.01,-16.5 -42.51,3.86 -42.02,-0.65 -41.52,2.02 -41.03,-5.63 -40.54,-0.94 -40.04,-3.17 -39.55,-2.51 -39.05,-23.78 -38.56,-4.93 -38.06,-7.17 -37.57,-1.86 -37.08,-5.82 -36.58,-4.1 -36.09,-10.18 -35.59,-7.52 -35.1,-29.12 -34.6,-4.55 -34.11,-14.03 -33.62,-7.23 -33.12,-18.95 -32.63,-15.45 -32.13,-13.05 -31.64,-11.83 -31.14,-36.5 -30.65,-5.63 -30.15,-15.64 -29.66,-9.29 -29.17,-20.69 -28.67,-13.85 -28.18,-15.69 -27.68,-9.94 -27.19,-38.57 -26.69,-16.73 -26.2,-20.56 -25.71,-19.54 -25.21,-22.62 -24.72,-12.17 -24.22,-22.97 -23.73,-14.39 -23.23,-44.05 -22.74,-13.95 -22.25,-17.97 -21.75,-23.53 -21.26,-28.05 -20.76,-25.75 -20.27,-24.8 -19.77,-19.65 -19.28,-47.93 -18.78,-7.49 -18.29,-8.7 -17.8,-9.22 -17.3,-13.62 -16.81,-8.95 -16.31,-3.91 -15.82,-10.85 -15.32,-33.06 -14.83,-2.49 -14.34,-13.34 -13.84,-12.35 -13.35,-18.93 -12.85,-14.46 -12.36,-16.95 -11.86,-16.1 -11.37,-39.14 -10.88,-9.63 -10.38,-12.6 -9.89,-11.19 -9.39,-19.43 -8.9,-19.62 -8.4,-22.92 -7.91,-14.62 -7.42,-44.25 -6.92,-11.27 -6.43,-18.11 -5.93,-11.21 -5.44,-19.49 -4.94,-22.97 -4.45,-24.77 -3.95,-24.33 -3.46,-45.77 -2.97,-13.81 -2.47,-17.44 -1.98,-24.9 -1.48,-29.06 -0.99,-16.2 -0.49,-28.45 0,-27.99 0.49,-50.92 0.99,-16.99 1.48,-28.4 1.98,-22.25 2.47,-26.29 2.97,-18.72 3.46,-23.88 3.95,-23.03 4.45,-54.07 4.94,-20.69 5.44,-29.71 5.93,-18.09 6.43,-24.71 6.92,-29.04 7.42,-26.49 7.91,-22.89 8.4,-47.02 8.9,-14.18 9.39,-25 9.89,-25.11 10.38,-25.55 10.88,-25.19 11.37,-28.57 11.86,-26.68 12.36,-53.4 12.85,-20.59 13.35,-21.38 13.84,-29.23 14.34,-36.21 14.83,-31.05 15.32,-24.95 15.82,-32.19 16.31,-59.19 16.81,-11.99 17.3,-14.74 17.8,-12.81 18.29,-19.84 18.78,-4.53 19.28,-16.16 19.77,-15.52 20.27,-37.67 20.76,-14.37 21.26,-14.18 21.75,-12.07 22.25,-18.31 22.74,-12.88 23.23,-7.56 23.73,-14.67 24.22,-37.87 24.72,-6.41 25.21,-10.85 25.71,-7.21 26.2,-21.93 26.69,-7.62 27.19,-20.02 27.68,-17.96 28.18,-42.5 28.67,-17.86 29.17,-21.32 29.66,-10.2 30.15,-26.08 30.65,-21.31 31.14,-22.86 31.64,-21.61 32.13,-47.08 32.63,-22.02 33.12,-17.27 33.62,-23.24 34.11,-28.5 34.6,-20.55 35.1,-14.31 35.59,-20.56 36.09,-45.79 36.58,-12.81 37.08,-17.89 37.57,-23.01 38.06,-21.51 38.56,-22.38 39.05,-19.62 39.55,-15.56 40.04,-47.59 40.54,-19.85 41.03,-21.61 41.52,-18.7 42.02,-24.26 42.51,-17.76 43.01,-23.27 43.5,-22.81 44,-47.99 44.49,-11.54 44.98,-24.46 45.48,-22.7 45.97,-27.64 46.47,-23.9 46.96,-25.1 47.46,-21.96 47.95,-48.36 48.45,-22.06 48.94,-23.32 49.43,-20.4 49.93,-23.48 50.42,-21.2 50.92,-25.73 51.41,-22.81 51.91,-51.88 52.4,-24.94 52.89,-26.97 53.39,-26.16 53.88,-28.99 54.38,-27.79 54.87,-29.05 55.37,-25.95 55.86,-56.82 56.35,-28.81 56.85,-30.83 57.34,-30.18 57.84,-32.3 58.33,-30.51 58.83,-31.93 59.32,-29.76 59.82,-59.95 60.31,-23.04 60.8,-25.23 61.3,-29.51 61.79,-28.08 62.29,-26.52 62.78,-31.98 63.28,-22.99 63.77,-53.56 64.26,-24.9 64.76,-25.66 65.25,-24.99 65.75,-27.85 66.24,-21.34 66.74,-7.18 67.23,-22.92 67.72,-49.89 68.22,-27.49 68.71,-22.4 69.21,-27.75 69.7,-31.38 70.2,-29.12 70.69,-30.02 71.18,-29.75 71.68,-51.58 72.17,-26.5 72.67,-28.35 73.16,-29.91 73.66,-32.69 74.15,-26.98 74.65,-29.93 75.14,-29.02 75.63,-52.22 76.13,-28 76.62,-29.03 77.12,-26.87 77.61,-33.19 78.11,-31.1 78.6,-32.63 79.09,-28.09 79.59,-50.36 80.08,-30.82 80.58,-32.52 81.07,-31.78 81.57,-32.93 82.06,-32.34 82.55,-34.49 83.05,-33.42 83.54,-54.87 84.04,-32.4 84.53,-33.92 85.03,-22.74 85.52,-26.44 86.01,-33.57 86.51,-24.58 87,-6.15 87.5,-51.81 87.99,-11.46 88.49,-13.34 88.98,-12.53 89.48,-16.25 89.97,-13.82 90.46,-6.05 90.96,-14.2 91.45,-32.72 91.95,-14.09 92.44,-15.69 92.94,-14.96 93.43,-18.45 93.92,-15.35 94.42,-8.17 94.91,-6.21 95.41,-30.76 95.9,-6.23 96.4,-8.57 96.89,-6.32 97.38,-8.44 97.88,-5.65 98.37,-8.95 98.87,20.3 99.36,-30.5 99.86,-7.02 100.35,-18.05 100.85,-16.92 101.34,-12.19 101.83,-18.05 102.33,-11.04 102.82,-8.26 103.32,-37.71 103.81,-9.2 104.31,-12.9 104.8,-10.77 105.29,-14.22 105.79,-10.12 106.28,-20.06 106.78,-18.78 107.27,-36.02 107.77,-18.62 108.26,-13.34 108.75,-10.57 109.25,-14.48 109.74,-11.25 110.24,-14.44 110.73,-11.21 111.23,-33.88 111.72,-12.26 112.21,10.09 112.71,-12.18 113.2,-15.37 113.7,-13.23 114.19,-16.84 114.69,-12.78 115.18,-38.84 115.68,-12.83 116.17,-15.91 116.66,-13.57 117.16,-17.15 117.65,-14.05 118.15,-16.6 118.64,-14.88 119.14,-40.32 119.63,-15.8 120.12,-19.06 120.62,-18.06 121.11,-20.7 " class="primitive"/>
            </g>
          </g>
        </g>
      </g>
    </g>
  </g>
  <g class="guide ylabels" font-size="2.82" font-family="'PT Sans Caption','Helvetica Neue','Helvetica',sans-serif" fill="#6C606B" id="img-2844d864-58">
    <g transform="translate(19.88,183.61)" id="img-2844d864-59">
      <g class="primitive">
        <text text-anchor="end" dy="0.35em">0</text>
      </g>
    </g>
    <g transform="translate(19.88,148.29)" id="img-2844d864-60">
      <g class="primitive">
        <text text-anchor="end" dy="0.35em">500</text>
      </g>
    </g>
    <g transform="translate(19.88,112.97)" id="img-2844d864-61">
      <g class="primitive">
        <text text-anchor="end" dy="0.35em">1000</text>
      </g>
    </g>
    <g transform="translate(19.88,77.65)" id="img-2844d864-62">
      <g class="primitive">
        <text text-anchor="end" dy="0.35em">1500</text>
      </g>
    </g>
    <g transform="translate(19.88,42.32)" id="img-2844d864-63">
      <g class="primitive">
        <text text-anchor="end" dy="0.35em">2000</text>
      </g>
    </g>
    <g transform="translate(19.88,7)" id="img-2844d864-64">
      <g class="primitive">
        <text text-anchor="end" dy="0.35em">2500</text>
      </g>
    </g>
  </g>
  <g font-size="3.88" font-family="'PT Sans','Helvetica Neue','Helvetica',sans-serif" fill="#564A55" stroke="#000000" stroke-opacity="0.000" id="img-2844d864-65">
    <g transform="translate(8.41,93.31)" id="img-2844d864-66">
      <g class="primitive">
        <text text-anchor="middle" dy="0.35em" transform="rotate(-90,0, 2)">GFLOPS</text>
      </g>
    </g>
  </g>
</g>
<defs>
  <clipPath id="img-2844d864-24">
    <path d="M20.88,5 L272.05,5 272.05,185.61 20.88,185.61 " />
  </clipPath>
</defs>
</svg>
