<?xml version="1.0" encoding="UTF-8"?>
<svg xmlns="http://www.w3.org/2000/svg"
     xmlns:xlink="http://www.w3.org/1999/xlink"
     xmlns:gadfly="http://www.gadflyjl.org/ns"
     version="1.2"
     width="304.8mm" height="203.2mm" viewBox="0 0 304.8 203.2"
     stroke="none"
     fill="#000000"
     stroke-width="0.3"
     font-size="3.88"
>
<defs>
  <marker id="arrow" markerWidth="15" markerHeight="7" refX="5" refY="3.5" orient="auto" markerUnits="strokeWidth">
    <path d="M0,0 L15,3.5 L0,7 z" stroke="context-stroke" fill="context-stroke"/>
  </marker>
</defs>
<g class="plotroot xscalable yscalable" id="img-bb27c3e1-1">
  <g font-size="3.88" font-family="'PT Sans','Helvetica Neue','Helvetica',sans-serif" fill="#564A55" stroke="#000000" stroke-opacity="0.000" id="img-bb27c3e1-2">
    <g transform="translate(146.46,192.38)">
      <g class="primitive">
        <text text-anchor="middle" dy="0.6em">Size</text>
      </g>
    </g>
  </g>
  <g class="guide xlabels" font-size="2.82" font-family="'PT Sans Caption','Helvetica Neue','Helvetica',sans-serif" fill="#6C606B" id="img-bb27c3e1-3">
    <g transform="translate(22.88,186.61)">
      <g class="primitive">
        <text text-anchor="middle" dy="0.6em">10</text>
      </g>
    </g>
    <g transform="translate(105.27,186.61)">
      <g class="primitive">
        <text text-anchor="middle" dy="0.6em">32</text>
      </g>
    </g>
    <g transform="translate(187.66,186.61)">
      <g class="primitive">
        <text text-anchor="middle" dy="0.6em">100</text>
      </g>
    </g>
    <g transform="translate(270.05,186.61)">
      <g class="primitive">
        <text text-anchor="middle" dy="0.6em">316</text>
      </g>
    </g>
  </g>
  <g class="guide colorkey" id="img-bb27c3e1-4">
    <g fill="#4C404B" font-size="2.82" font-family="'PT Sans','Helvetica Neue','Helvetica',sans-serif" id="img-bb27c3e1-5">
      <g transform="translate(276.16,91.23)" id="img-bb27c3e1-6">
        <g class="primitive">
          <text dy="0.35em">MKL</text>
        </g>
      </g>
      <g transform="translate(276.16,94.35)" id="img-bb27c3e1-7">
        <g class="primitive">
          <text dy="0.35em">Octavian</text>
        </g>
      </g>
      <g transform="translate(276.16,97.47)" id="img-bb27c3e1-8">
        <g class="primitive">
          <text dy="0.35em">OpenBLAS</text>
        </g>
      </g>
      <g transform="translate(276.16,100.58)" id="img-bb27c3e1-9">
        <g class="primitive">
          <text dy="0.35em">Tullio</text>
        </g>
      </g>
      <g transform="translate(276.16,103.7)" id="img-bb27c3e1-10">
        <g class="primitive">
          <text dy="0.35em">LoopVectorization</text>
        </g>
      </g>
    </g>
    <g stroke-width="0.3" id="img-bb27c3e1-11">
      <g stroke="#FFFFFF" fill-opacity="1" fill="#A0FF35" id="img-bb27c3e1-12">
        <g transform="translate(273.61,103.7)" id="img-bb27c3e1-13">
          <circle cx="0" cy="0" r="0.9" class="primitive"/>
        </g>
      </g>
      <g stroke="#FFFFFF" fill-opacity="1" fill="#FF47EA" id="img-bb27c3e1-14">
        <g transform="translate(273.61,100.58)" id="img-bb27c3e1-15">
          <circle cx="0" cy="0" r="0.9" class="primitive"/>
        </g>
      </g>
      <g stroke="#FFFFFF" fill-opacity="1" fill="#008C00" id="img-bb27c3e1-16">
        <g transform="translate(273.61,97.47)" id="img-bb27c3e1-17">
          <circle cx="0" cy="0" r="0.9" class="primitive"/>
        </g>
      </g>
      <g stroke="#FFFFFF" fill-opacity="1" fill="#66023C" id="img-bb27c3e1-18">
        <g transform="translate(273.61,94.35)" id="img-bb27c3e1-19">
          <circle cx="0" cy="0" r="0.9" class="primitive"/>
        </g>
      </g>
      <g stroke="#FFFFFF" fill-opacity="1" fill="#0071C5" id="img-bb27c3e1-20">
        <g transform="translate(273.61,91.23)" id="img-bb27c3e1-21">
          <circle cx="0" cy="0" r="0.9" class="primitive"/>
        </g>
      </g>
    </g>
    <g fill="#362A35" font-size="3.88" font-family="'PT Sans','Helvetica Neue','Helvetica',sans-serif" stroke="#000000" stroke-opacity="0.000" id="img-bb27c3e1-22">
      <g transform="translate(273.05,88.18)" id="img-bb27c3e1-23">
        <g class="primitive">
          <text dy="-0em">Libraries</text>
        </g>
      </g>
    </g>
  </g>
  <g clip-path="url(#img-bb27c3e1-24)">
    <g id="img-bb27c3e1-25">
      <g pointer-events="visible" stroke-width="0.3" fill="#000000" fill-opacity="0.000" stroke="#000000" stroke-opacity="0.000" class="guide background" id="img-bb27c3e1-26">
        <g transform="translate(146.46,95.31)" id="img-bb27c3e1-27">
          <path d="M-125.58,-90.31 L125.58,-90.31 125.58,90.31 -125.58,90.31  z" class="primitive"/>
        </g>
      </g>
      <g class="guide ygridlines xfixed" stroke-dasharray="0.5,0.5" stroke-width="0.2" stroke="#D0D0E0" id="img-bb27c3e1-28">
        <g transform="translate(146.46,183.61)" id="img-bb27c3e1-29">
          <path fill="none" d="M-125.58,0 L125.58,0 " class="primitive"/>
        </g>
        <g transform="translate(146.46,139.46)" id="img-bb27c3e1-30">
          <path fill="none" d="M-125.58,0 L125.58,0 " class="primitive"/>
        </g>
        <g transform="translate(146.46,95.31)" id="img-bb27c3e1-31">
          <path fill="none" d="M-125.58,0 L125.58,0 " class="primitive"/>
        </g>
        <g transform="translate(146.46,51.15)" id="img-bb27c3e1-32">
          <path fill="none" d="M-125.58,0 L125.58,0 " class="primitive"/>
        </g>
        <g transform="translate(146.46,7)" id="img-bb27c3e1-33">
          <path fill="none" d="M-125.58,0 L125.58,0 " class="primitive"/>
        </g>
      </g>
      <g class="guide xgridlines yfixed" stroke-dasharray="0.5,0.5" stroke-width="0.2" stroke="#D0D0E0" id="img-bb27c3e1-34">
        <g transform="translate(22.88,95.31)" id="img-bb27c3e1-35">
          <path fill="none" d="M0,-90.31 L0,90.31 " class="primitive"/>
        </g>
        <g transform="translate(105.27,95.31)" id="img-bb27c3e1-36">
          <path fill="none" d="M0,-90.31 L0,90.31 " class="primitive"/>
        </g>
        <g transform="translate(187.66,95.31)" id="img-bb27c3e1-37">
          <path fill="none" d="M0,-90.31 L0,90.31 " class="primitive"/>
        </g>
        <g transform="translate(270.05,95.31)" id="img-bb27c3e1-38">
          <path fill="none" d="M0,-90.31 L0,90.31 " class="primitive"/>
        </g>
      </g>
      <g class="plotpanel" id="img-bb27c3e1-39">
        <metadata>
          <boundingbox value="20.877777777777737mm 5.0mm 251.16944444444442mm 180.61388888888888mm"/>
          <unitbox value="0.9878625774041649 2022.648275428194 1.5242748451916701 -2045.296550856388"/>
        </metadata>
        <g stroke-width="0.3" fill="#000000" fill-opacity="0.000" class="geometry" id="img-bb27c3e1-40">
          <g class="color_RGB{N0f8}(0.627,1.0,0.208)" stroke-dasharray="4,1" stroke="#A0FF35" id="img-bb27c3e1-41">
            <g transform="translate(202.07,106.47)" id="img-bb27c3e1-42">
              <path fill="none" d="M-179.19,74.15 L-150.17,70.56 -129.59,69.99 -113.62,70.13 -100.57,68.67 -89.54,65.85 -79.98,62.61 -71.55,62.17 -64.01,59.05 -57.19,56.47 -50.97,55.67 -45.24,52.72 -39.93,51.04 -35,54.92 -30.38,34.87 -26.04,44.57 -21.95,38.43 -18.08,35.69 -14.41,34.7 -10.92,33.32 -7.59,28.14 -4.41,34.88 -1.36,15.11 1.56,18 4.37,15.64 7.07,14.68 9.67,13.05 12.18,5.88 14.61,0.67 16.95,2.5 19.23,-24.01 21.43,-8.87 23.56,-14.42 25.64,-16.55 27.65,-25.27 29.61,-13.98 31.52,-33.61 33.38,-27.8 35.19,-62.3 36.96,-43.28 38.69,-48.46 40.37,-49.02 42.01,-55.28 43.62,-31.7 45.2,-39.75 46.73,-38 48.24,-78.68 49.72,-34.92 51.16,-51.77 52.58,-52.18 53.97,-57.68 55.33,-44.79 56.67,-51.63 57.98,-44.52 59.27,-87.5 60.54,-49.68 61.78,-51.72 63.01,-50.68 64.21,-56.07 " class="primitive"/>
            </g>
          </g>
        </g>
        <g stroke-width="0.3" fill="#000000" fill-opacity="0.000" class="geometry" id="img-bb27c3e1-43">
          <g class="color_RGB{N0f8}(1.0,0.278,0.918)" stroke-dasharray="none" stroke="#FF47EA" id="img-bb27c3e1-44">
            <g transform="translate(202.07,163.31)" id="img-bb27c3e1-45">
              <path fill="none" d="M-179.19,18.59 L-150.17,16.31 -129.59,15.56 -113.62,15.81 -100.57,14.39 -89.54,14.68 -79.98,13.03 -71.55,14.24 -64.01,14.5 -57.19,13.94 -50.97,13.66 -45.24,18.59 -39.93,19.17 -35,14.44 -30.38,16.9 -26.04,14.29 -21.95,15.07 -18.08,12.65 -14.41,11.15 -10.92,12.58 -7.59,8.81 -4.41,8 -1.36,4.52 1.56,8.2 4.37,10.57 7.07,9.02 9.67,9.17 12.18,8.91 14.61,6.82 16.95,6.85 19.23,0.84 21.43,1.04 23.56,-0.25 25.64,2.37 27.65,-0.85 29.61,-1.8 31.52,-7.29 33.38,-4.57 35.19,-5.15 36.96,-7.87 38.69,-17.11 40.37,-14.58 42.01,-17.29 43.62,-19.25 45.2,-20.23 46.73,-19.53 48.24,-34.92 49.72,-20.16 51.16,-18.34 52.58,-15.87 53.97,-14.43 55.33,-15.44 56.67,-16.51 57.98,-16.59 59.27,-15.03 60.54,-15.58 61.78,-22.12 63.01,-20.78 64.21,-23.16 " class="primitive"/>
            </g>
          </g>
        </g>
        <g stroke-width="0.3" fill="#000000" fill-opacity="0.000" class="geometry" id="img-bb27c3e1-46">
          <g class="color_RGB{N0f8}(0.0,0.549,0.0)" stroke-dasharray="4,1" stroke="#008C00" id="img-bb27c3e1-47">
            <g transform="translate(202.07,158.53)" id="img-bb27c3e1-48">
              <path fill="none" d="M-179.19,24.18 L-150.17,23.59 -129.59,22.12 -113.62,21.56 -100.57,21.14 -89.54,20.53 -79.98,19.23 -71.55,20.08 -64.01,19.41 -57.19,19.77 -50.97,18.49 -45.24,19.13 -39.93,17.72 -35,20.09 -30.38,17.16 -26.04,17.66 -21.95,16.62 -18.08,16.01 -14.41,13.81 -10.92,11.85 -7.59,11.01 -4.41,8.84 -1.36,1.58 1.56,5.87 4.37,2.16 7.07,3.89 9.67,-1.36 12.18,9.59 14.61,8.11 16.95,7.19 19.23,-2.42 21.43,5.57 23.56,4.87 25.64,2.31 27.65,1.07 29.61,1.14 31.52,-2.02 33.38,-2.95 35.19,-16.38 36.96,-6.44 38.69,-7.23 40.37,-9.5 42.01,-10.39 43.62,-11.81 45.2,-13.66 46.73,-13.72 48.24,-29.18 49.72,-16.68 51.16,-20.08 52.58,-23.52 53.97,-24.84 55.33,-31.09 56.67,-25 57.98,-32.95 59.27,-47.42 60.54,-25.85 61.78,-26.82 63.01,-19.55 64.21,-32.48 " class="primitive"/>
            </g>
          </g>
        </g>
        <g stroke-width="0.3" fill="#000000" fill-opacity="0.000" class="geometry" id="img-bb27c3e1-49">
          <g class="color_RGB{N0f8}(0.4,0.008,0.235)" stroke-dasharray="none" stroke="#66023C" id="img-bb27c3e1-50">
            <g transform="translate(202.07,102.94)" id="img-bb27c3e1-51">
              <path fill="none" d="M-179.19,77.6 L-150.17,74.08 -129.59,73.72 -113.62,73.77 -100.57,72.37 -89.54,72.32 -79.98,70.7 -71.55,71.5 -64.01,66.28 -57.19,65.45 -50.97,60.11 -45.24,57.42 -39.93,55.16 -35,51.5 -30.38,39.65 -26.04,47.21 -21.95,45.89 -18.08,39.84 -14.41,37.96 -10.92,39.37 -7.59,32.2 -4.41,25.52 -1.36,13.54 1.56,23.69 4.37,21.76 7.07,15.1 9.67,-18.84 12.18,-1.02 14.61,-14.1 16.95,-15.15 19.23,-42.17 21.43,-17.22 23.56,-19.88 25.64,-25.82 27.65,-30.36 29.61,-29.54 31.52,-38.48 33.38,-33.52 35.19,-69.49 36.96,-44.18 38.69,-47.17 40.37,-47.36 42.01,-42.12 43.62,-27.88 45.2,-38.75 46.73,-34.34 48.24,-74.97 49.72,-45.41 51.16,-52.33 52.58,-46.71 53.97,-55.88 55.33,-52.6 56.67,-59.68 57.98,-44.85 59.27,-89.31 60.54,-52.19 61.78,-30.36 63.01,-45.1 64.21,-36.92 " class="primitive"/>
            </g>
          </g>
        </g>
        <g stroke-width="0.3" fill="#000000" fill-opacity="0.000" class="geometry" id="img-bb27c3e1-52">
          <g class="color_RGB{N0f8}(0.0,0.443,0.773)" stroke-dasharray="4,1" stroke="#0071C5" id="img-bb27c3e1-53">
            <g transform="translate(202.07,114.44)" id="img-bb27c3e1-54">
              <path fill="none" d="M-179.19,68.28 L-150.17,66.73 -129.59,65.34 -113.62,64.8 -100.57,63.42 -89.54,62.64 -79.98,60.67 -71.55,61.21 -64.01,61.64 -57.19,60.4 -50.97,57.55 -45.24,54.96 -39.93,51.19 -35,49.16 -30.38,37.97 -26.04,45.18 -21.95,41.36 -18.08,38.53 -14.41,31.41 -10.92,31.09 -7.59,25.89 -4.41,23.55 -1.36,-4.23 1.56,16.29 4.37,5.31 7.07,1.54 9.67,-8.12 12.18,5.46 14.61,2.24 16.95,-0.81 19.23,-27.73 21.43,-7.51 23.56,-17.3 25.64,-20.76 27.65,-34.49 29.61,-28.2 31.52,-38.89 33.38,-26.71 35.19,-69.18 36.96,-42.04 38.69,-56.95 40.37,-52.86 42.01,-29.46 43.62,-19.44 45.2,-25.26 46.73,-21.44 48.24,-49.94 49.72,-32.06 51.16,-38.08 52.58,-38.3 53.97,-47.15 55.33,-43.82 56.67,-50.36 57.98,-44.74 59.27,-76.5 60.54,-52.7 61.78,-45.36 63.01,-44.41 64.21,-59.01 " class="primitive"/>
            </g>
          </g>
        </g>
      </g>
    </g>
  </g>
  <g class="guide ylabels" font-size="2.82" font-family="'PT Sans Caption','Helvetica Neue','Helvetica',sans-serif" fill="#6C606B" id="img-bb27c3e1-55">
    <g transform="translate(19.88,183.61)" id="img-bb27c3e1-56">
      <g class="primitive">
        <text text-anchor="end" dy="0.35em">0</text>
      </g>
    </g>
    <g transform="translate(19.88,139.46)" id="img-bb27c3e1-57">
      <g class="primitive">
        <text text-anchor="end" dy="0.35em">500</text>
      </g>
    </g>
    <g transform="translate(19.88,95.31)" id="img-bb27c3e1-58">
      <g class="primitive">
        <text text-anchor="end" dy="0.35em">1000</text>
      </g>
    </g>
    <g transform="translate(19.88,51.15)" id="img-bb27c3e1-59">
      <g class="primitive">
        <text text-anchor="end" dy="0.35em">1500</text>
      </g>
    </g>
    <g transform="translate(19.88,7)" id="img-bb27c3e1-60">
      <g class="primitive">
        <text text-anchor="end" dy="0.35em">2000</text>
      </g>
    </g>
  </g>
  <g font-size="3.88" font-family="'PT Sans','Helvetica Neue','Helvetica',sans-serif" fill="#564A55" stroke="#000000" stroke-opacity="0.000" id="img-bb27c3e1-61">
    <g transform="translate(8.41,93.31)" id="img-bb27c3e1-62">
      <g class="primitive">
        <text text-anchor="middle" dy="0.35em" transform="rotate(-90,0, 2)">GFLOPS</text>
      </g>
    </g>
  </g>
</g>
<defs>
  <clipPath id="img-bb27c3e1-24">
    <path d="M20.88,5 L272.05,5 272.05,185.61 20.88,185.61 " />
  </clipPath>
</defs>
</svg>
