<?xml version="1.0" encoding="utf-8"?>
<!DOCTYPE svg PUBLIC "-//W3C//DTD SVG 1.1//EN" "http://www.w3.org/Graphics/SVG/1.1/DTD/svg11.dtd">
<svg class="marks" width="1066" height="647" viewBox="0 0 1066 647" version="1.1" xmlns="http://www.w3.org/2000/svg" xmlns:xlink="http://www.w3.org/1999/xlink"><rect width="1066" height="647" style="fill: white;"></rect><g transform="translate(42,10)"><g class="mark-group role-frame root"><g transform="translate(0,0)"><path class="background" d="M0.5,0.5h900v600h-900Z" style="fill: none; stroke: #ddd;"></path><g><g class="mark-group role-axis"><g transform="translate(0.5,600.5)"><path class="background" d="M0,0h0v0h0Z" style="pointer-events: none; fill: none;"></path><g><g class="mark-rule role-axis-grid" style="pointer-events: none;"><line transform="translate(0,-600)" x2="0" y2="600" style="fill: none; stroke: #ddd; stroke-width: 1; opacity: 1;"></line><line transform="translate(35,-600)" x2="0" y2="600" style="fill: none; stroke: #ddd; stroke-width: 1; opacity: 1;"></line><line transform="translate(69,-600)" x2="0" y2="600" style="fill: none; stroke: #ddd; stroke-width: 1; opacity: 1;"></line><line transform="translate(104,-600)" x2="0" y2="600" style="fill: none; stroke: #ddd; stroke-width: 1; opacity: 1;"></line><line transform="translate(138,-600)" x2="0" y2="600" style="fill: none; stroke: #ddd; stroke-width: 1; opacity: 1;"></line><line transform="translate(173,-600)" x2="0" y2="600" style="fill: none; stroke: #ddd; stroke-width: 1; opacity: 1;"></line><line transform="translate(208,-600)" x2="0" y2="600" style="fill: none; stroke: #ddd; stroke-width: 1; opacity: 1;"></line><line transform="translate(242,-600)" x2="0" y2="600" style="fill: none; stroke: #ddd; stroke-width: 1; opacity: 1;"></line><line transform="translate(277,-600)" x2="0" y2="600" style="fill: none; stroke: #ddd; stroke-width: 1; opacity: 1;"></line><line transform="translate(312,-600)" x2="0" y2="600" style="fill: none; stroke: #ddd; stroke-width: 1; opacity: 1;"></line><line transform="translate(346,-600)" x2="0" y2="600" style="fill: none; stroke: #ddd; stroke-width: 1; opacity: 1;"></line><line transform="translate(381,-600)" x2="0" y2="600" style="fill: none; stroke: #ddd; stroke-width: 1; opacity: 1;"></line><line transform="translate(415,-600)" x2="0" y2="600" style="fill: none; stroke: #ddd; stroke-width: 1; opacity: 1;"></line><line transform="translate(450,-600)" x2="0" y2="600" style="fill: none; stroke: #ddd; stroke-width: 1; opacity: 1;"></line><line transform="translate(485,-600)" x2="0" y2="600" style="fill: none; stroke: #ddd; stroke-width: 1; opacity: 1;"></line><line transform="translate(519,-600)" x2="0" y2="600" style="fill: none; stroke: #ddd; stroke-width: 1; opacity: 1;"></line><line transform="translate(554,-600)" x2="0" y2="600" style="fill: none; stroke: #ddd; stroke-width: 1; opacity: 1;"></line><line transform="translate(588,-600)" x2="0" y2="600" style="fill: none; stroke: #ddd; stroke-width: 1; opacity: 1;"></line><line transform="translate(623,-600)" x2="0" y2="600" style="fill: none; stroke: #ddd; stroke-width: 1; opacity: 1;"></line><line transform="translate(658,-600)" x2="0" y2="600" style="fill: none; stroke: #ddd; stroke-width: 1; opacity: 1;"></line><line transform="translate(692,-600)" x2="0" y2="600" style="fill: none; stroke: #ddd; stroke-width: 1; opacity: 1;"></line><line transform="translate(727,-600)" x2="0" y2="600" style="fill: none; stroke: #ddd; stroke-width: 1; opacity: 1;"></line><line transform="translate(762,-600)" x2="0" y2="600" style="fill: none; stroke: #ddd; stroke-width: 1; opacity: 1;"></line><line transform="translate(796,-600)" x2="0" y2="600" style="fill: none; stroke: #ddd; stroke-width: 1; opacity: 1;"></line><line transform="translate(831,-600)" x2="0" y2="600" style="fill: none; stroke: #ddd; stroke-width: 1; opacity: 1;"></line><line transform="translate(865,-600)" x2="0" y2="600" style="fill: none; stroke: #ddd; stroke-width: 1; opacity: 1;"></line><line transform="translate(900,-600)" x2="0" y2="600" style="fill: none; stroke: #ddd; stroke-width: 1; opacity: 1;"></line></g></g><path class="foreground" d="" style="pointer-events: none; display: none; fill: none;"></path></g></g><g class="mark-group role-axis"><g transform="translate(0.5,0.5)"><path class="background" d="M0,0h0v0h0Z" style="pointer-events: none; fill: none;"></path><g><g class="mark-rule role-axis-grid" style="pointer-events: none;"><line transform="translate(0,600)" x2="900" y2="0" style="fill: none; stroke: #ddd; stroke-width: 1; opacity: 1;"></line><line transform="translate(0,554)" x2="900" y2="0" style="fill: none; stroke: #ddd; stroke-width: 1; opacity: 1;"></line><line transform="translate(0,508)" x2="900" y2="0" style="fill: none; stroke: #ddd; stroke-width: 1; opacity: 1;"></line><line transform="translate(0,462)" x2="900" y2="0" style="fill: none; stroke: #ddd; stroke-width: 1; opacity: 1;"></line><line transform="translate(0,415)" x2="900" y2="0" style="fill: none; stroke: #ddd; stroke-width: 1; opacity: 1;"></line><line transform="translate(0,369)" x2="900" y2="0" style="fill: none; stroke: #ddd; stroke-width: 1; opacity: 1;"></line><line transform="translate(0,323)" x2="900" y2="0" style="fill: none; stroke: #ddd; stroke-width: 1; opacity: 1;"></line><line transform="translate(0,277)" x2="900" y2="0" style="fill: none; stroke: #ddd; stroke-width: 1; opacity: 1;"></line><line transform="translate(0,231)" x2="900" y2="0" style="fill: none; stroke: #ddd; stroke-width: 1; opacity: 1;"></line><line transform="translate(0,185)" x2="900" y2="0" style="fill: none; stroke: #ddd; stroke-width: 1; opacity: 1;"></line><line transform="translate(0,138)" x2="900" y2="0" style="fill: none; stroke: #ddd; stroke-width: 1; opacity: 1;"></line><line transform="translate(0,92)" x2="900" y2="0" style="fill: none; stroke: #ddd; stroke-width: 1; opacity: 1;"></line><line transform="translate(0,46)" x2="900" y2="0" style="fill: none; stroke: #ddd; stroke-width: 1; opacity: 1;"></line><line transform="translate(0,0)" x2="900" y2="0" style="fill: none; stroke: #ddd; stroke-width: 1; opacity: 1;"></line></g></g><path class="foreground" d="" style="pointer-events: none; display: none; fill: none;"></path></g></g><g class="mark-group role-axis"><g transform="translate(0.5,600.5)"><path class="background" d="M0,0h0v0h0Z" style="pointer-events: none; fill: none;"></path><g><g class="mark-rule role-axis-tick" style="pointer-events: none;"><line transform="translate(0,0)" x2="0" y2="5" style="fill: none; stroke: #888; stroke-width: 1; opacity: 1;"></line><line transform="translate(35,0)" x2="0" y2="5" style="fill: none; stroke: #888; stroke-width: 1; opacity: 1;"></line><line transform="translate(69,0)" x2="0" y2="5" style="fill: none; stroke: #888; stroke-width: 1; opacity: 1;"></line><line transform="translate(104,0)" x2="0" y2="5" style="fill: none; stroke: #888; stroke-width: 1; opacity: 1;"></line><line transform="translate(138,0)" x2="0" y2="5" style="fill: none; stroke: #888; stroke-width: 1; opacity: 1;"></line><line transform="translate(173,0)" x2="0" y2="5" style="fill: none; stroke: #888; stroke-width: 1; opacity: 1;"></line><line transform="translate(208,0)" x2="0" y2="5" style="fill: none; stroke: #888; stroke-width: 1; opacity: 1;"></line><line transform="translate(242,0)" x2="0" y2="5" style="fill: none; stroke: #888; stroke-width: 1; opacity: 1;"></line><line transform="translate(277,0)" x2="0" y2="5" style="fill: none; stroke: #888; stroke-width: 1; opacity: 1;"></line><line transform="translate(312,0)" x2="0" y2="5" style="fill: none; stroke: #888; stroke-width: 1; opacity: 1;"></line><line transform="translate(346,0)" x2="0" y2="5" style="fill: none; stroke: #888; stroke-width: 1; opacity: 1;"></line><line transform="translate(381,0)" x2="0" y2="5" style="fill: none; stroke: #888; stroke-width: 1; opacity: 1;"></line><line transform="translate(415,0)" x2="0" y2="5" style="fill: none; stroke: #888; stroke-width: 1; opacity: 1;"></line><line transform="translate(450,0)" x2="0" y2="5" style="fill: none; stroke: #888; stroke-width: 1; opacity: 1;"></line><line transform="translate(485,0)" x2="0" y2="5" style="fill: none; stroke: #888; stroke-width: 1; opacity: 1;"></line><line transform="translate(519,0)" x2="0" y2="5" style="fill: none; stroke: #888; stroke-width: 1; opacity: 1;"></line><line transform="translate(554,0)" x2="0" y2="5" style="fill: none; stroke: #888; stroke-width: 1; opacity: 1;"></line><line transform="translate(588,0)" x2="0" y2="5" style="fill: none; stroke: #888; stroke-width: 1; opacity: 1;"></line><line transform="translate(623,0)" x2="0" y2="5" style="fill: none; stroke: #888; stroke-width: 1; opacity: 1;"></line><line transform="translate(658,0)" x2="0" y2="5" style="fill: none; stroke: #888; stroke-width: 1; opacity: 1;"></line><line transform="translate(692,0)" x2="0" y2="5" style="fill: none; stroke: #888; stroke-width: 1; opacity: 1;"></line><line transform="translate(727,0)" x2="0" y2="5" style="fill: none; stroke: #888; stroke-width: 1; opacity: 1;"></line><line transform="translate(762,0)" x2="0" y2="5" style="fill: none; stroke: #888; stroke-width: 1; opacity: 1;"></line><line transform="translate(796,0)" x2="0" y2="5" style="fill: none; stroke: #888; stroke-width: 1; opacity: 1;"></line><line transform="translate(831,0)" x2="0" y2="5" style="fill: none; stroke: #888; stroke-width: 1; opacity: 1;"></line><line transform="translate(865,0)" x2="0" y2="5" style="fill: none; stroke: #888; stroke-width: 1; opacity: 1;"></line><line transform="translate(900,0)" x2="0" y2="5" style="fill: none; stroke: #888; stroke-width: 1; opacity: 1;"></line></g><g class="mark-text role-axis-label" style="pointer-events: none;"><text text-anchor="start" transform="translate(0,15)" style="font-family: sans-serif; font-size: 10px; fill: #000; opacity: 1;">0</text><text text-anchor="middle" transform="translate(34.61538461538462,15)" style="font-family: sans-serif; font-size: 10px; fill: #000; opacity: 1;">10</text><text text-anchor="middle" transform="translate(69.23076923076924,15)" style="font-family: sans-serif; font-size: 10px; fill: #000; opacity: 1;">20</text><text text-anchor="middle" transform="translate(103.84615384615385,15)" style="font-family: sans-serif; font-size: 10px; fill: #000; opacity: 1;">30</text><text text-anchor="middle" transform="translate(138.46153846153848,15)" style="font-family: sans-serif; font-size: 10px; fill: #000; opacity: 1;">40</text><text text-anchor="middle" transform="translate(173.0769230769231,15)" style="font-family: sans-serif; font-size: 10px; fill: #000; opacity: 1;">50</text><text text-anchor="middle" transform="translate(207.6923076923077,15)" style="font-family: sans-serif; font-size: 10px; fill: #000; opacity: 1;">60</text><text text-anchor="middle" transform="translate(242.3076923076923,15)" style="font-family: sans-serif; font-size: 10px; fill: #000; opacity: 1;">70</text><text text-anchor="middle" transform="translate(276.92307692307696,15)" style="font-family: sans-serif; font-size: 10px; fill: #000; opacity: 1;">80</text><text text-anchor="middle" transform="translate(311.53846153846155,15)" style="font-family: sans-serif; font-size: 10px; fill: #000; opacity: 1;">90</text><text text-anchor="middle" transform="translate(346.1538461538462,15)" style="font-family: sans-serif; font-size: 10px; fill: #000; opacity: 1;">100</text><text text-anchor="middle" transform="translate(380.7692307692308,15)" style="font-family: sans-serif; font-size: 10px; fill: #000; opacity: 1;">110</text><text text-anchor="middle" transform="translate(415.3846153846154,15)" style="font-family: sans-serif; font-size: 10px; fill: #000; opacity: 1;">120</text><text text-anchor="middle" transform="translate(450,15)" style="font-family: sans-serif; font-size: 10px; fill: #000; opacity: 1;">130</text><text text-anchor="middle" transform="translate(484.6153846153846,15)" style="font-family: sans-serif; font-size: 10px; fill: #000; opacity: 1;">140</text><text text-anchor="middle" transform="translate(519.2307692307692,15)" style="font-family: sans-serif; font-size: 10px; fill: #000; opacity: 1;">150</text><text text-anchor="middle" transform="translate(553.8461538461539,15)" style="font-family: sans-serif; font-size: 10px; fill: #000; opacity: 1;">160</text><text text-anchor="middle" transform="translate(588.4615384615385,15)" style="font-family: sans-serif; font-size: 10px; fill: #000; opacity: 1;">170</text><text text-anchor="middle" transform="translate(623.0769230769231,15)" style="font-family: sans-serif; font-size: 10px; fill: #000; opacity: 1;">180</text><text text-anchor="middle" transform="translate(657.6923076923076,15)" style="font-family: sans-serif; font-size: 10px; fill: #000; opacity: 1;">190</text><text text-anchor="middle" transform="translate(692.3076923076924,15)" style="font-family: sans-serif; font-size: 10px; fill: #000; opacity: 1;">200</text><text text-anchor="middle" transform="translate(726.9230769230769,15)" style="font-family: sans-serif; font-size: 10px; fill: #000; opacity: 1;">210</text><text text-anchor="middle" transform="translate(761.5384615384615,15)" style="font-family: sans-serif; font-size: 10px; fill: #000; opacity: 1;">220</text><text text-anchor="middle" transform="translate(796.1538461538461,15)" style="font-family: sans-serif; font-size: 10px; fill: #000; opacity: 1;">230</text><text text-anchor="middle" transform="translate(830.7692307692308,15)" style="font-family: sans-serif; font-size: 10px; fill: #000; opacity: 1;">240</text><text text-anchor="middle" transform="translate(865.3846153846154,15)" style="font-family: sans-serif; font-size: 10px; fill: #000; opacity: 1;">250</text><text text-anchor="end" transform="translate(900,15)" style="font-family: sans-serif; font-size: 10px; fill: #000; opacity: 1;">260</text></g><g class="mark-rule role-axis-domain" style="pointer-events: none;"><line transform="translate(0,0)" x2="900" y2="0" style="fill: none; stroke: #888; stroke-width: 1; opacity: 1;"></line></g><g class="mark-text role-axis-title" style="pointer-events: none;"><text text-anchor="middle" transform="translate(450,30)" style="font-family: sans-serif; font-size: 11px; font-weight: bold; fill: #000; opacity: 1;">Size</text></g></g><path class="foreground" d="" style="pointer-events: none; display: none; fill: none;"></path></g></g><g class="mark-group role-axis"><g transform="translate(0.5,0.5)"><path class="background" d="M0,0h0v0h0Z" style="pointer-events: none; fill: none;"></path><g><g class="mark-rule role-axis-tick" style="pointer-events: none;"><line transform="translate(0,600)" x2="-5" y2="0" style="fill: none; stroke: #888; stroke-width: 1; opacity: 1;"></line><line transform="translate(0,554)" x2="-5" y2="0" style="fill: none; stroke: #888; stroke-width: 1; opacity: 1;"></line><line transform="translate(0,508)" x2="-5" y2="0" style="fill: none; stroke: #888; stroke-width: 1; opacity: 1;"></line><line transform="translate(0,462)" x2="-5" y2="0" style="fill: none; stroke: #888; stroke-width: 1; opacity: 1;"></line><line transform="translate(0,415)" x2="-5" y2="0" style="fill: none; stroke: #888; stroke-width: 1; opacity: 1;"></line><line transform="translate(0,369)" x2="-5" y2="0" style="fill: none; stroke: #888; stroke-width: 1; opacity: 1;"></line><line transform="translate(0,323)" x2="-5" y2="0" style="fill: none; stroke: #888; stroke-width: 1; opacity: 1;"></line><line transform="translate(0,277)" x2="-5" y2="0" style="fill: none; stroke: #888; stroke-width: 1; opacity: 1;"></line><line transform="translate(0,231)" x2="-5" y2="0" style="fill: none; stroke: #888; stroke-width: 1; opacity: 1;"></line><line transform="translate(0,185)" x2="-5" y2="0" style="fill: none; stroke: #888; stroke-width: 1; opacity: 1;"></line><line transform="translate(0,138)" x2="-5" y2="0" style="fill: none; stroke: #888; stroke-width: 1; opacity: 1;"></line><line transform="translate(0,92)" x2="-5" y2="0" style="fill: none; stroke: #888; stroke-width: 1; opacity: 1;"></line><line transform="translate(0,46)" x2="-5" y2="0" style="fill: none; stroke: #888; stroke-width: 1; opacity: 1;"></line><line transform="translate(0,0)" x2="-5" y2="0" style="fill: none; stroke: #888; stroke-width: 1; opacity: 1;"></line></g><g class="mark-text role-axis-label" style="pointer-events: none;"><text text-anchor="end" transform="translate(-7,603)" style="font-family: sans-serif; font-size: 10px; fill: #000; opacity: 1;">0.0</text><text text-anchor="end" transform="translate(-7,556.8461538461539)" style="font-family: sans-serif; font-size: 10px; fill: #000; opacity: 1;">0.2</text><text text-anchor="end" transform="translate(-7,510.6923076923077)" style="font-family: sans-serif; font-size: 10px; fill: #000; opacity: 1;">0.4</text><text text-anchor="end" transform="translate(-7,464.53846153846155)" style="font-family: sans-serif; font-size: 10px; fill: #000; opacity: 1;">0.6</text><text text-anchor="end" transform="translate(-7,418.38461538461536)" style="font-family: sans-serif; font-size: 10px; fill: #000; opacity: 1;">0.8</text><text text-anchor="end" transform="translate(-7,372.2307692307692)" style="font-family: sans-serif; font-size: 10px; fill: #000; opacity: 1;">1.0</text><text text-anchor="end" transform="translate(-7,326.07692307692315)" style="font-family: sans-serif; font-size: 10px; fill: #000; opacity: 1;">1.2</text><text text-anchor="end" transform="translate(-7,279.92307692307696)" style="font-family: sans-serif; font-size: 10px; fill: #000; opacity: 1;">1.4</text><text text-anchor="end" transform="translate(-7,233.76923076923075)" style="font-family: sans-serif; font-size: 10px; fill: #000; opacity: 1;">1.6</text><text text-anchor="end" transform="translate(-7,187.6153846153846)" style="font-family: sans-serif; font-size: 10px; fill: #000; opacity: 1;">1.8</text><text text-anchor="end" transform="translate(-7,141.4615384615385)" style="font-family: sans-serif; font-size: 10px; fill: #000; opacity: 1;">2.0</text><text text-anchor="end" transform="translate(-7,95.3076923076923)" style="font-family: sans-serif; font-size: 10px; fill: #000; opacity: 1;">2.2</text><text text-anchor="end" transform="translate(-7,49.15384615384619)" style="font-family: sans-serif; font-size: 10px; fill: #000; opacity: 1;">2.4</text><text text-anchor="end" transform="translate(-7,3)" style="font-family: sans-serif; font-size: 10px; fill: #000; opacity: 1;">2.6</text></g><g class="mark-rule role-axis-domain" style="pointer-events: none;"><line transform="translate(0,600)" x2="0" y2="-600" style="fill: none; stroke: #888; stroke-width: 1; opacity: 1;"></line></g><g class="mark-text role-axis-title" style="pointer-events: none;"><text text-anchor="middle" transform="translate(-26,300) rotate(-90) translate(0,-2)" style="font-family: sans-serif; font-size: 11px; font-weight: bold; fill: #000; opacity: 1;">GFLOPS</text></g></g><path class="foreground" d="" style="pointer-events: none; display: none; fill: none;"></path></g></g><g class="mark-group role-scope pathgroup"><g transform="translate(0,0)"><path class="background" d="M0,0h900v600h-900Z" style="fill: none;"></path><g><g class="mark-line role-mark marks"><path d="M6.923076923076923,565.44520745571L10.384615384615385,565.5539091111503L13.846153846153847,561.187748421791L17.30769230769231,561.2620399137253L20.76923076923077,556.0776227123762L24.230769230769234,550.8029809518872L27.692307692307693,563.3943941871139L31.153846153846157,552.1201134930643L34.61538461538462,554.5125655005231L38.07692307692308,551.3844480436043L41.53846153846154,552.9771316953905L45,556.5230303210287L48.46153846153847,556.2814521926672L51.92307692307693,551.616749016439L55.38461538461539,549.8812060961554L58.84615384615385,553.0234624700807L62.307692307692314,551.5513039682828L65.76923076923077,552.2013208188339L69.23076923076924,552.0976420665821L72.6923076923077,551.3431123816038L76.15384615384616,549.6138747641111L79.61538461538461,551.6175780182688L83.07692307692308,552.2286226411003L86.53846153846155,551.3894817723897L90,550.4571084469261L93.46153846153847,551.157233359885L96.92307692307693,548.7229448879302L100.38461538461539,547.9594620537745L103.84615384615385,548.9292758523528L107.3076923076923,550.8481740430836L110.76923076923077,554.1219197304273L114.23076923076923,551.5048428079732L117.6923076923077,549.7001266309414L121.15384615384615,550.0934757121582L124.61538461538463,554.5425111701094L128.07692307692307,550.8013771815267L131.53846153846155,556.3778716604037L135,555.92406162966L138.46153846153848,549.6071615549262L141.9230769230769,556.5117817348514L145.3846153846154,550.2342132628626L148.84615384615384,548.8720109810516L152.30769230769232,553.5087035448987L155.76923076923077,552.6290461645401L159.23076923076923,548.9329308585717L162.69230769230768,547.389449492815L166.15384615384616,550.5914426549347L169.6153846153846,551.954599027405L173.0769230769231,552.6966101614337L176.53846153846155,550.4083937641133L180,547.5075600524924L183.46153846153845,551.4160888092466L186.92307692307693,548.4339595504064L190.3846153846154,548.4649530933165L193.84615384615387,549.6833940565551L197.3076923076923,548.7729839447492L200.76923076923077,548.0061578189403L204.23076923076923,550.3464940908523L207.6923076923077,548.6346045136322L211.15384615384616,548.3572506634151L214.6153846153846,557.4496716546453L218.07692307692307,551.7732662395786L221.53846153846155,554.853619199642L225,552.8081551904161L228.46153846153845,551.3315883928893L231.9230769230769,559.9190127532208L235.3846153846154,549.9471498717828L238.84615384615384,547.763047125302L242.3076923076923,551.7087859555642L245.76923076923075,550.8328654314056L249.23076923076925,550.621268355656L252.6923076923077,555.7257007173911L256.15384615384613,549.8481849552845L259.6153846153846,550.7634364193383L263.0769230769231,552.2641758928679L266.53846153846155,550.3738584504081L270,549.0806223479491L273.46153846153845,554.5780792277124L276.92307692307696,549.817911557042L280.3846153846154,549.9422197658645L283.8461538461538,549.5397743248205L287.30769230769226,548.6384588217182L290.7692307692308,556.6995279089142L294.2307692307692,550.0874511266903L297.6923076923077,550.3169221911007L301.15384615384613,549.5681409773346L304.61538461538464,554.1090051595764L308.0769230769231,554.741462337202L311.53846153846155,548.9027818650295L315,549.0439677763758L318.46153846153845,552.519429517227L321.9230769230769,550.694042799306L325.38461538461536,551.5392426596308L328.8461538461538,551.3889790776503L332.3076923076923,547.5252293115983L335.7692307692308,551.2064128665882L339.2307692307692,554.2693056921904L342.6923076923077,550.2218178459897L346.1538461538462,554.1969152927719L349.61538461538464,554.2615484196276L353.0769230769231,547.7483021795377L356.53846153846155,550.5473401190704L360,554.942492391605L363.46153846153845,555.1406438484689L366.9230769230769,554.5660594146503L370.38461538461536,549.354173678896L373.84615384615387,555.9376805606809L377.3076923076923,557.3197437154301L380.7692307692308,555.1728083807359L384.2307692307692,554.6407840588325L387.69230769230774,553.817469044318L391.1538461538462,556.6026177438684L394.6153846153846,556.1367185868181L398.07692307692304,553.2922666305641L401.53846153846155,556.7322515198404L405,553.4522228188679L408.46153846153845,552.0678812679595L411.9230769230769,557.5798650688519L415.3846153846154,551.2579974209186L418.84615384615387,551.4840237138302L422.3076923076923,556.8614335617458L425.7692307692308,552.2611467269928L429.2307692307692,553.4232021295228L432.6923076923077,557.4368173199326L436.15384615384613,554.4812786718335L439.6153846153846,553.6309533610579L443.0769230769231,555.0442423484116L446.53846153846155,556.2890612394178L450,557.8487937580342L453.46153846153845,552.4361831953283L456.9230769230769,557.5643144866237L460.38461538461536,552.0846557373625L463.8461538461538,553.3728364821785L467.3076923076923,556.2234630078129L470.7692307692308,557.7431048318556L474.2307692307692,553.2509380336281L477.6923076923077,550.2808957720121L481.15384615384613,554.0732264938786L484.6153846153846,554.5634969561838L488.07692307692304,557.3530336721141L491.5384615384615,549.5828901371528L495.00000000000006,556.400223588597L498.4615384615385,553.4450768106254L501.92307692307696,556.566125030211L505.3846153846154,558.6575154056715L508.8461538461538,555.8092671007076L512.3076923076923,552.6152293827208L515.7692307692307,556.2953728825988L519.2307692307692,556.1484393664418L522.6923076923077,555.1575721339452L526.1538461538462,555.7380688550963L529.6153846153846,554.2545043811488L533.0769230769231,555.3588484861948L536.5384615384615,556.3663490715533L540,557.7172861683017L543.4615384615385,555.5303781334089L546.9230769230769,556.3167750598071L550.3846153846155,558.2325359393859L553.8461538461539,552.12729580012L557.3076923076924,555.2401276504102L560.7692307692308,555.5690379524857L564.2307692307692,556.7448031844317L567.6923076923076,555.9766791308361L571.1538461538461,556.0339387139752L574.6153846153845,556.1165249844495L578.0769230769231,556.9809376609994L581.5384615384615,554.9653192748881L585,553.277631013086L588.4615384615385,555.9659488672958L591.9230769230769,557.3734394150273L595.3846153846154,552.6766326987986L598.8461538461538,556.147762606462L602.3076923076923,560.482387408871L605.7692307692308,558.0591586604158L609.2307692307693,558.4439372366077L612.6923076923077,553.3882591941699L616.1538461538462,556.5003346945425L619.6153846153846,556.8069301953341L623.0769230769231,557.0467663274488L626.5384615384615,555.4087821588203L630,557.0990806945863L633.4615384615385,560.2533936651585L636.9230769230769,557.9058288503134L640.3846153846154,560.2566489552153L643.8461538461538,558.0419580419581L647.3076923076923,558.8893530019566L650.7692307692307,560.9429101686934L654.2307692307692,557.6213028204902L657.6923076923076,556.1099561099561L661.1538461538462,555.5064555523397L664.6153846153846,556.1787238574896L668.0769230769231,556.0287673625614L671.5384615384615,555.656467146166L675,556.9336778639105L678.4615384615385,557.696624363291L681.9230769230769,556.9615275380684L685.3846153846154,555.0361073683255L688.8461538461538,565.1992445263134L692.3076923076924,556.601931214061L695.7692307692308,557.6628191086022L699.2307692307693,555.7140560370657L702.6923076923077,555.9882057063568L706.1538461538462,558.2725376024437L709.6153846153846,559.8133772445699L713.0769230769231,557.0564936418594L716.5384615384615,559.2829604762779L720,556.6160520607375L723.4615384615385,558.0346565467944L726.9230769230769,558.3520638866119L730.3846153846154,558.5597381342062L733.8461538461538,558.9984269836767L737.3076923076923,558.4533461635989L740.7692307692307,558.6358862680162L744.2307692307692,556.7508850981654L747.6923076923077,558.1581853049997L751.1538461538462,558.7232747470136L754.6153846153846,559.9237693717101L758.0769230769231,558.5512494558669L761.5384615384615,561.7528772267359L765,558.1486952240275L768.4615384615385,558.6881951207409L771.9230769230769,558.1511438061816L775.3846153846155,559.7192334666036L778.8461538461539,558.5576846331895L782.3076923076924,558.3335893953454L785.7692307692308,558.6219467736056L789.2307692307692,558.9999340642214L792.6923076923076,555.5354195657098L796.1538461538461,560.1315082423773L799.6153846153845,560.829089346982L803.0769230769231,559.7152283382532L806.5384615384615,558.0714045779548L810,559.5384384834407L813.4615384615385,557.9964609784143L816.9230769230769,559.1006770339903L820.3846153846154,558.6603872318159L823.8461538461538,559.3644000273181L827.3076923076923,557.2947377825427L830.7692307692308,560.6391760467519L834.2307692307693,561.4210706053103L837.6923076923077,558.1614070676102L841.1538461538462,561.1494228371048L844.6153846153846,558.621625288292L848.0769230769231,559.086430611143L851.5384615384615,562.5927577957099L855,559.5400340715503L858.4615384615385,560.8919166114738L861.9230769230769,560.5400779690025L865.3846153846154,560.3924840777786L868.8461538461538,558.5434605474685L872.3076923076923,557.2335298177334L875.7692307692307,562.1051370256278L879.2307692307692,557.9426098763116L882.6923076923076,559.8155190889416L886.1538461538462,560.607506116608" style="fill: none; stroke: #ff7f0e; stroke-width: 2;"></path></g></g><path class="foreground" d="" style="display: none; fill: none;"></path></g><g transform="translate(0,0)"><path class="background" d="M0,0h900v600h-900Z" style="fill: none;"></path><g><g class="mark-line role-mark marks"><path d="M6.923076923076923,560.4599156953158L10.384615384615385,557.1547143170609L13.846153846153847,555.476163894161L17.30769230769231,554.30493959321L20.76923076923077,553.4138468301387L24.230769230769234,553.0106065829767L27.692307692307693,556.552825072092L31.153846153846157,555.852885937996L34.61538461538462,555.8297818964822L38.07692307692308,555.691750407378L41.53846153846154,555.5542131374074L45,555.6265423220747L48.46153846153847,555.214419669396L51.92307692307693,554.8800367161763L55.38461538461539,554.3051110426361L58.84615384615385,553.9514623522091L62.307692307692314,553.9626769672631L65.76923076923077,553.9363996512535L69.23076923076924,553.7196673437671L72.6923076923077,554.064193934025L76.15384615384616,553.9065953396902L79.61538461538461,553.9486646334149L83.07692307692308,555.5429955258332L86.53846153846155,555.3684515265195L90,555.1629388048586L93.46153846153847,555.5048411876095L96.92307692307693,555.0670582607353L100.38461538461539,555.2620605444098L103.84615384615385,554.8886052983595L107.3076923076923,555.1304501159639L110.76923076923077,554.6321259552886L114.23076923076923,554.7185242400836L117.6923076923077,554.3498317710839L121.15384615384615,554.4272228245266L124.61538461538463,554.5629028642322L128.07692307692307,554.1742894956944L131.53846153846155,554.7178790537929L135,555.0007499875002L138.46153846153848,554.0184879166511L141.9230769230769,554.0834971727065L145.3846153846154,553.7159172496703L148.84615384615384,553.9009943448312L152.30769230769232,554.3497239642861L155.76923076923077,553.9698524339283L159.23076923076923,554.2458165932052L162.69230769230768,553.9480195569984L166.15384615384616,553.705067170364L169.6153846153846,553.5570463405516L173.0769230769231,553.4077241802152L176.53846153846155,553.5978781903796L180,553.5922067379245L183.46153846153845,553.5527975197093L186.92307692307693,553.7831184757033L190.3846153846154,553.6307937161587L193.84615384615387,553.215551887735L197.3076923076923,553.2574178752909L200.76923076923077,553.4940473077794L204.23076923076923,553.2779887544526L207.6923076923077,553.3247364880018L211.15384615384616,553.3438793577632L214.6153846153846,553.2811591137433L218.07692307692307,553.292418439389L221.53846153846155,553.1348071692587L225,553.0698470424645L228.46153846153845,553.0472863450323L231.9230769230769,553.1025985548462L235.3846153846154,553.1202661176136L238.84615384615384,553.2214492239175L242.3076923076923,552.9746753526899L245.76923076923075,553.0645627455924L249.23076923076925,553.0225715710231L252.6923076923077,553.8037636443462L256.15384615384613,553.0650168578709L259.6153846153846,553.2365644664478L263.0769230769231,553.1600904729788L266.53846153846155,553.1790718677997L270,553.0708176003699L273.46153846153845,553.1599014943159L276.92307692307696,553.1964932297913L280.3846153846154,552.977386438795L283.8461538461538,553.0613627278599L287.30769230769226,553.1025754031483L290.7692307692308,553.0542233035483L294.2307692307692,553.0738066857225L297.6923076923077,553.0438886267108L301.15384615384613,553.0913012221423L304.61538461538464,553.6268501531223L308.0769230769231,553.5689693937776L311.53846153846155,553.5531896777916L315,553.6049523937692L318.46153846153845,553.6322749111823L321.9230769230769,553.661518227498L325.38461538461536,553.5562585865715L328.8461538461538,553.618981510696L332.3076923076923,553.4732674050764L335.7692307692308,553.3484385353654L339.2307692307692,553.4407398804874L342.6923076923077,553.5099710937419L346.1538461538462,553.5352712797679L349.61538461538464,553.4439562486715L353.0769230769231,553.5531180471829L356.53846153846155,553.5541000459498L360,553.2988750380055L363.46153846153845,553.2229235518093L366.9230769230769,553.3577533577534L370.38461538461536,553.400096729755L373.84615384615387,553.3436660388727L377.3076923076923,553.3227597145124L380.7692307692308,553.3366478052654L384.2307692307692,553.2397141413239L387.69230769230774,553.1686374765683L391.1538461538462,553.2071999198524L394.6153846153846,553.2034852412803L398.07692307692304,553.2310682002039L401.53846153846155,553.2641453109045L405,553.2049096488237L408.46153846153845,553.2523392695442L411.9230769230769,553.2664047091599L415.3846153846154,553.0713973788057L418.84615384615387,553.0862282878412L422.3076923076923,553.1287097085185L425.7692307692308,553.153712743814L429.2307692307692,553.1899502921852L432.6923076923077,553.1136489221888L436.15384615384613,553.1672312418983L439.6153846153846,553.0831089542555L443.0769230769231,553.0132379248658L446.53846153846155,552.948462868692L450,553.0612625030268L453.46153846153845,553.0332089294353L456.9230769230769,553.1057409796931L460.38461538461536,553.1125300720142L463.8461538461538,552.963150034339L467.3076923076923,553.0842066090452L470.7692307692308,553.1710911758621L474.2307692307692,553.0598648520034L477.6923076923077,553.1539127154933L481.15384615384613,553.0415842464383L484.6153846153846,553.2341171239506L488.07692307692304,553.1123262514502L491.5384615384615,553.1591239990294L495.00000000000006,553.1924114970154L498.4615384615385,553.0152816754697L501.92307692307696,553.0199530199529L505.3846153846154,553.0463477385435L508.8461538461538,553.0594351836228L512.3076923076923,553.0951382464137L515.7692307692307,553.0949957502178L519.2307692307692,553.095188266631L522.6923076923077,553.04714688345L526.1538461538462,553.4840660810171L529.6153846153846,553.4653296642442L533.0769230769231,553.4295643015608L536.5384615384615,553.4925839525762L540,553.4652056354063L543.4615384615385,553.4856461449857L546.9230769230769,553.5470096042047L550.3846153846155,553.5825464131179L553.8461538461539,553.3680586903018L557.3076923076924,553.4096709497724L560.7692307692308,553.3686292174777L564.2307692307692,553.4051155003199L567.6923076923076,553.5374455364296L571.1538461538461,553.4776469765388L574.6153846153845,553.5277491078596L578.0769230769231,553.5280267877183L581.5384615384615,553.4469877221925L585,553.3309190533923L588.4615384615385,553.3372404430365L591.9230769230769,553.4272639044992L595.3846153846154,553.4336820144763L598.8461538461538,553.412841865608L602.3076923076923,553.4888983490723L605.7692307692308,553.3889213604516L609.2307692307693,553.3313725520077L612.6923076923077,553.3027644664694L616.1538461538462,553.3707410940962L619.6153846153846,553.3742268620431L623.0769230769231,553.314725093247L626.5384615384615,553.3725899305549L630,553.4180278281912L633.4615384615385,553.4353966109499L636.9230769230769,553.2738451628354L640.3846153846154,553.3965908136703L643.8461538461538,553.3005808588025L647.3076923076923,553.4578880998208L650.7692307692307,553.3543015186123L654.2307692307692,553.5400686180701L657.6923076923076,553.6212342679797L661.1538461538462,553.5110137519777L664.6153846153846,553.0485816759048L668.0769230769231,553.1312228622495L671.5384615384615,553.2894800204178L675,553.063885267275L678.4615384615385,553.1055959592123L681.9230769230769,553.1016671596246L685.3846153846154,553.199253576612L688.8461538461538,553.3915040183697L692.3076923076924,553.3033047640358L695.7692307692308,553.2581432818963L699.2307692307693,553.3112473447285L702.6923076923077,553.5004789471492L706.1538461538462,553.4352887468615L709.6153846153846,553.5013836173655L713.0769230769231,553.6119618086831L716.5384615384615,553.5950740535936L720,553.3527696793003L723.4615384615385,553.3506439396758L726.9230769230769,553.4023668639053L730.3846153846154,553.4623839316566L733.8461538461538,553.5172665813996L737.3076923076923,553.3644723398045L740.7692307692307,553.5640663990453L744.2307692307692,553.4739454094292L747.6923076923077,553.6142249710089L751.1538461538462,553.7993144414401L754.6153846153846,553.6633579186771L758.0769230769231,553.6896714574714L761.5384615384615,553.8629309621676L765,553.7540805223069L768.4615384615385,553.7085305586255L771.9230769230769,553.6883203189898L775.3846153846155,553.6183869965835L778.8461538461539,553.5737867282932L782.3076923076924,553.5832625900266L785.7692307692308,553.6173053084688L789.2307692307692,553.6264898507098L792.6923076923076,553.5948771986706L796.1538461538461,553.6850583971003L799.6153846153845,553.8900680670423L803.0769230769231,553.5740014408068L806.5384615384615,553.5270261285818L810,553.516398381682L813.4615384615385,553.5854422879414L816.9230769230769,553.6221251285546L820.3846153846154,553.5640111289628L823.8461538461538,553.6083478984062L827.3076923076923,553.7726543006905L830.7692307692308,553.4934793982573L834.2307692307693,553.4793938808996L837.6923076923077,553.4886700706638L841.1538461538462,553.4862947271706L844.6153846153846,553.5836350608422L848.0769230769231,553.4471292396364L851.5384615384615,553.5173742985091L855,553.450387913434L858.4615384615385,553.3951390628915L861.9230769230769,553.4649024444943L865.3846153846154,553.4063094069555L868.8461538461538,553.4492671196039L872.3076923076923,553.4843655784306L875.7692307692307,553.4969212388567L879.2307692307692,553.4724681573388L882.6923076923076,553.4886548797393L886.1538461538462,553.0128663986932" style="fill: none; stroke: #1f77b4; stroke-width: 2;"></path></g></g><path class="foreground" d="" style="display: none; fill: none;"></path></g><g transform="translate(0,0)"><path class="background" d="M0,0h900v600h-900Z" style="fill: none;"></path><g><g class="mark-line role-mark marks"><path d="M6.923076923076923,563.0251064092282L10.384615384615385,556.6057607760912L13.846153846153847,556.3814544619322L17.30769230769231,554.5578976183958L20.76923076923077,553.1014328808446L24.230769230769234,553.1355345600992L27.692307692307693,454.5269212566893L31.153846153846157,445.338812806355L34.61538461538462,471.4582249975288L38.07692307692308,481.61999373936317L41.53846153846154,495.86997409831014L45,532.829744888728L48.46153846153847,512.4074700887404L51.92307692307693,515.3409522363125L55.38461538461539,326.8703898840885L58.84615384615385,363.04358958840595L62.307692307692314,402.3677110291283L65.76923076923077,426.2274910239575L69.23076923076924,447.11769169247174L72.6923076923077,467.26345315742344L76.15384615384616,473.19208667126804L79.61538461538461,481.66613253878205L83.07692307692308,275.8702506664742L86.53846153846155,334.24503532726635L90,364.64558858314274L93.46153846153847,388.21691234493863L96.92307692307693,413.0773264491146L100.38461538461539,431.1460416254571L103.84615384615385,445.7309538128771L107.3076923076923,458.1846160026079L110.76923076923077,297.0227004829081L114.23076923076923,322.7881871549099L117.6923076923077,345.75136355087454L121.15384615384615,373.03153591463297L124.61538461538463,420.55762006840894L128.07692307692307,428.9986092879586L131.53846153846155,425.1291894286136L135,443.20224022118634L138.46153846153848,254.4668979867054L141.9230769230769,303.40378975151435L145.3846153846154,341.5801421606937L148.84615384615384,352.54732685532883L152.30769230769232,382.34527187667766L155.76923076923077,388.46709488142596L159.23076923076923,404.08915075032144L162.69230769230768,429.343733189887L166.15384615384616,298.65325547642345L169.6153846153846,272.08750089947466L173.0769230769231,328.32940402434343L176.53846153846155,338.8074500316425L180,360.4320475737778L183.46153846153845,370.86518690356934L186.92307692307693,385.55211113594925L190.3846153846154,399.18207367794867L193.84615384615387,225.87127158555728L197.3076923076923,282.5288254836818L200.76923076923077,303.7025558379305L204.23076923076923,315.2473487013399L207.6923076923077,344.2676578638777L211.15384615384616,352.9219023992668L214.6153846153846,368.7097939549122L218.07692307692307,396.39297264534514L221.53846153846155,240.92373365943686L225,261.30687649674996L228.46153846153845,267.01525810220016L231.9230769230769,307.3713088454821L235.3846153846154,321.151588817503L238.84615384615384,343.53074445113094L242.3076923076923,358.87205942609717L245.76923076923075,371.65442730346575L249.23076923076925,219.94337540189062L252.6923076923077,277.3569851150365L256.15384615384613,277.4111779859346L259.6153846153846,331.56176270790263L263.0769230769231,327.0235006084062L266.53846153846155,336.6223399599717L270,345.4186390962159L273.46153846153845,362.35222606775585L276.92307692307696,241.4741014126503L280.3846153846154,237.91962232102102L283.8461538461538,277.6211996329045L287.30769230769226,279.3870909372221L290.7692307692308,304.46876179181714L294.2307692307692,322.6349096689595L297.6923076923077,335.1118160190326L301.15384615384613,347.01299741653816L304.61538461538464,223.45779913525365L308.0769230769231,237.95086987469165L311.53846153846155,262.221814554502L315,283.11688311688306L318.46153846153845,292.44926502069353L321.9230769230769,329.15932005065156L325.38461538461536,326.4903827367193L328.8461538461538,344.5314245290044L332.3076923076923,220.90293725771144L335.7692307692308,259.4953547827271L339.2307692307692,266.54244926531794L342.6923076923077,297.45341627912336L346.1538461538462,296.7762527928503L349.61538461538464,303.3209794623638L353.0769230769231,322.22426673536233L356.53846153846155,331.0245567232502L360,218.5162357673468L363.46153846153845,248.91805689893604L366.9230769230769,240.00570668343096L370.38461538461536,258.94989943197083L373.84615384615387,296.8874394327473L377.3076923076923,299.36264582738005L380.7692307692308,314.09145886596224L384.2307692307692,326.4381980004246L387.69230769230774,198.9192141867769L391.1538461538462,232.21947470427057L394.6153846153846,248.88880908598324L398.07692307692304,253.7326184578473L401.53846153846155,285.2372454592124L405,292.3022019199886L408.46153846153845,304.15158074737394L411.9230769230769,320.5188064439514L415.3846153846154,194.61096567184663L418.84615384615387,220.2455293783707L422.3076923076923,240.68081273998524L425.7692307692308,274.2509860105585L429.2307692307692,279.56233747647383L432.6923076923077,285.279932789415L436.15384615384613,316.03092235605146L439.6153846153846,311.73465486474936L443.0769230769231,200.4924414100796L446.53846153846155,213.51093136936618L450,238.16570635803478L453.46153846153845,246.3119489206446L456.9230769230769,267.8491347548128L460.38461538461536,276.0661374893501L463.8461538461538,291.57708294857014L467.3076923076923,307.03088695436657L470.7692307692308,192.81143562209883L474.2307692307692,214.869962838202L477.6923076923077,249.87725746739025L481.15384615384613,263.18327632905465L484.6153846153846,298.74770659147157L488.07692307692304,293.28351798699777L491.5384615384615,304.4362687188488L495.00000000000006,310.05962318149295L498.4615384615385,206.75340815228506L501.92307692307696,207.57302384551616L505.3846153846154,239.06650474217741L508.8461538461538,238.348347882716L512.3076923076923,253.85480698151446L515.7692307692307,267.5813993271369L519.2307692307692,282.37434013183685L522.6923076923077,290.23697766241634L526.1538461538462,187.57241682759297L529.6153846153846,211.7129646033376L533.0769230769231,225.70792811335028L536.5384615384615,248.35611626754434L540,266.2057164459743L543.4615384615385,270.9786021867547L546.9230769230769,295.61409533060845L550.3846153846155,292.6132408133403L553.8461538461539,197.68687506088673L557.3076923076924,272.94460756647067L560.7692307692308,230.43406310871234L564.2307692307692,245.7812003687721L567.6923076923076,256.2474562474562L571.1538461538461,262.07496695947896L574.6153846153845,282.32782084337293L578.0769230769231,301.12178087584624L581.5384615384615,212.29129870510053L585,265.95444918219397L588.4615384615385,227.6606970750799L591.9230769230769,238.60924894898307L595.3846153846154,262.4005990008541L598.8461538461538,269.0121149714605L602.3076923076923,273.4456695058867L605.7692307692308,279.9650219329682L609.2307692307693,219.28155877735708L612.6923076923077,208.3016461585697L616.1538461538462,220.4667627561899L619.6153846153846,233.22229127331025L623.0769230769231,248.83827672777286L626.5384615384615,254.52902756957982L630,272.8208393018197L633.4615384615385,288.4395231649842L636.9230769230769,193.88263426887548L640.3846153846154,212.80504289524907L643.8461538461538,266.98617191178414L647.3076923076923,236.29913549426556L650.7692307692307,246.99668685972526L654.2307692307692,263.9789083192263L657.6923076923076,274.5204898839129L661.1538461538462,277.84753118963175L664.6153846153846,191.9940407731761L668.0769230769231,214.19963905140784L671.5384615384615,228.46601482549215L675,223.9704446205156L678.4615384615385,251.47591295557152L681.9230769230769,254.0803452612613L685.3846153846154,271.03372419870453L688.8461538461538,284.135980026391L692.3076923076924,195.11078280050572L695.7692307692308,220.1989336160394L699.2307692307693,224.5527104966011L702.6923076923077,235.22750727464773L706.1538461538462,247.26248072169528L709.6153846153846,252.64667711302639L713.0769230769231,269.24983791617404L716.5384615384615,273.40272488787343L720,202.5215902051525L723.4615384615385,215.03376896763442L726.9230769230769,272.4933393982714L730.3846153846154,238.49751081796416L733.8461538461538,241.86551838529772L737.3076923076923,257.0358773779504L740.7692307692307,265.09127259974963L744.2307692307692,291.6980142786594L747.6923076923077,260.7195462793571L751.1538461538462,240.52986171567622L754.6153846153846,232.772144449054L758.0769230769231,234.97234638987803L761.5384615384615,271.3029761823947L765,251.33884760970145L768.4615384615385,267.8564939727913L771.9230769230769,258.31266112924243L775.3846153846155,163.95003951124554L778.8461538461539,192.13917393946292L782.3076923076924,204.51761939096355L785.7692307692308,216.44457134364083L789.2307692307692,217.31518129190016L792.6923076923076,249.30999751631552L796.1538461538461,260.1273377693427L799.6153846153845,266.60136343233796L803.0769230769231,161.60981901150012L806.5384615384615,193.1751197776257L810,213.70805130479164L813.4615384615385,207.1420279087046L816.9230769230769,218.2846063561604L820.3846153846154,233.30268288859085L823.8461538461538,247.8671512924103L827.3076923076923,268.0285923158151L830.7692307692308,182.49098653147726L834.2307692307693,193.11368054844985L837.6923076923077,271.05978556360236L841.1538461538462,281.0685991749114L844.6153846153846,233.36754771794992L848.0769230769231,230.03142439986064L851.5384615384615,235.0477763505519L855,243.86924020975113L858.4615384615385,165.70907601933115L861.9230769230769,179.51778052047285L865.3846153846154,194.7481137569252L868.8461538461538,210.70928779363456L872.3076923076923,218.58427328754527L875.7692307692307,222.6857243734814L879.2307692307692,242.47898835357057L882.6923076923076,251.7283792850069L886.1538461538462,175.85952532423684" style="fill: none; stroke: #aec7e8; stroke-width: 2;"></path></g></g><path class="foreground" d="" style="display: none; fill: none;"></path></g><g transform="translate(0,0)"><path class="background" d="M0,0h900v600h-900Z" style="fill: none;"></path><g><g class="mark-line role-mark marks"><path d="M6.923076923076923,538.1647291615137L10.384615384615385,507.1724735441549L13.846153846153847,476.34602503992994L17.30769230769231,445.473931452236L20.76923076923077,414.49418748454116L24.230769230769234,384.01061433552405L27.692307692307693,447.62824749605977L31.153846153846157,425.8480649784997L34.61538461538462,406.33529776674936L38.07692307692308,386.0522165761346L41.53846153846154,366.6024180830559L45,352.926628194559L48.46153846153847,335.88064962860375L51.92307692307693,309.40530058177114L55.38461538461539,291.1224765855481L58.84615384615385,337.09167544783986L62.307692307692314,322.07438579119986L65.76923076923077,302.3841288277117L69.23076923076924,290.65454357596735L72.6923076923077,280.29735996420294L76.15384615384616,260.3814444152268L79.61538461538461,244.72991796935455L83.07692307692308,206.53370239488856L86.53846153846155,281.8602990555692L90,276.2193143722288L93.46153846153847,253.51826531968067L96.92307692307693,245.52466003653333L100.38461538461539,252.75926259532815L103.84615384615385,227.7554674192786L107.3076923076923,227.61005506267347L110.76923076923077,203.1743401978164L114.23076923076923,257.33003287726393L117.6923076923077,241.2302612082469L121.15384615384615,229.79531501966218L124.61538461538463,286.1986999410126L128.07692307692307,278.7017158017838L131.53846153846155,204.91106344963276L135,260.97524040281667L138.46153846153848,139.154886175417L141.9230769230769,255.01199635040615L145.3846153846154,229.9483090605105L148.84615384615384,206.8192459169903L152.30769230769232,212.08888154536572L155.76923076923077,206.93634859478135L159.23076923076923,179.9061078781359L162.69230769230768,168.34034330934452L166.15384615384616,189.6824964990707L169.6153846153846,213.2029068291444L173.0769230769231,227.9483689555631L176.53846153846155,200.54630183570018L180,192.1713290296137L183.46153846153845,182.60339605517268L186.92307692307693,178.90199459226463L190.3846153846154,163.64984611132084L193.84615384615387,147.5718117426713L197.3076923076923,261.0485132707644L200.76923076923077,211.86452481023628L204.23076923076923,171.58599417153596L207.6923076923077,162.2760666924102L211.15384615384616,152.3065121287968L214.6153846153846,147.2537257933518L218.07692307692307,142.70005276865191L221.53846153846155,151.85949539063265L225,169.84594079972305L228.46153846153845,181.49593323055646L231.9230769230769,175.69966305630257L235.3846153846154,150.56319235423723L238.84615384615384,159.67541884721413L242.3076923076923,153.39340059667475L245.76923076923075,164.51682711629664L249.23076923076925,142.39143189358134L252.6923076923077,236.88100529747422L256.15384615384613,166.77728838432628L259.6153846153846,208.26048152468763L263.0769230769231,203.80643769825195L266.53846153846155,153.3693232478329L270,115.49158331300305L273.46153846153845,118.41787007119129L276.92307692307696,171.34592405556063L280.3846153846154,155.7881843822229L283.8461538461538,176.24361207342048L287.30769230769226,151.4777519267122L290.7692307692308,142.23391287611463L294.2307692307692,135.5336386828311L297.6923076923077,118.77811447177729L301.15384615384613,113.25396885138545L304.61538461538464,98.58174514343536L308.0769230769231,145.3857505013432L311.53846153846155,125.44198246998354L315,131.65127280919125L318.46153846153845,117.58219058363659L321.9230769230769,172.32912453990585L325.38461538461536,107.25318093328549L328.8461538461538,101.81687201381465L332.3076923076923,77.69754155061277L335.7692307692308,194.3161332739497L339.2307692307692,189.13696993405134L342.6923076923077,148.83645765998708L346.1538461538462,145.76244172610265L349.61538461538464,155.21909432377987L353.0769230769231,115.28793847308198L356.53846153846155,85.95280464996699L360,86.90012970168614L363.46153846153845,139.59439347830917L366.9230769230769,112.7222871889995L370.38461538461536,102.63652390139606L373.84615384615387,184.02294526988902L377.3076923076923,105.65795560021203L380.7692307692308,82.9069511362358L384.2307692307692,78.04484538043141L387.69230769230774,54.64571271022884L391.1538461538462,164.03933153142302L394.6153846153846,124.19894746654691L398.07692307692304,92.68938761888876L401.53846153846155,107.00771603828531L405,124.03536402033077L408.46153846153845,134.17689017981078L411.9230769230769,85.7448403115316L415.3846153846154,66.9882858030052L418.84615384615387,137.36356439241536L422.3076923076923,98.78836665151258L425.7692307692308,106.95578847885152L429.2307692307692,93.03553975086818L432.6923076923077,112.46915115076443L436.15384615384613,94.0997894530676L439.6153846153846,74.90628948329439L443.0769230769231,62.64941795544241L446.53846153846155,100.0486256038774L450,100.76180802437791L453.46153846153845,100.45645922125213L456.9230769230769,90.68423752054173L460.38461538461536,96.30084807316275L463.8461538461538,107.6118998597857L467.3076923076923,106.66910286862772L470.7692307692308,83.8609943111551L474.2307692307692,95.51011224719382L477.6923076923077,152.25171961296084L481.15384615384613,83.83412870680593L484.6153846153846,124.6072350251278L488.07692307692304,129.90099235380868L491.5384615384615,70.98613136193902L495.00000000000006,89.90289729217653L498.4615384615385,72.62133795928729L501.92307692307696,106.2015999256388L505.3846153846154,85.75782552857063L508.8461538461538,72.55621039182081L512.3076923076923,87.45933466260898L515.7692307692307,75.01132525904283L519.2307692307692,96.7168234494967L522.6923076923077,58.53066522285921L526.1538461538462,114.3371703566168L529.6153846153846,73.12394035254745L533.0769230769231,78.70029270296246L536.5384615384615,116.80649832757351L540,79.41267983346411L543.4615384615385,107.43973087133627L546.9230769230769,73.11319733996334L550.3846153846155,89.51198630136984L553.8461538461539,51.451624388176896L557.3076923076924,67.98483206933916L560.7692307692308,98.2138703088204L564.2307692307692,78.3213205926139L567.6923076923076,108.99769643332976L571.1538461538461,91.96656674099557L574.6153846153845,68.16819544092272L578.0769230769231,102.73283252699356L581.5384615384615,66.23590384779321L585,99.03329183992366L588.4615384615385,110.97938838744443L591.9230769230769,110.6486134925796L595.3846153846154,129.83565836372938L598.8461538461538,72.39179835444698L602.3076923076923,60.77299968680825L605.7692307692308,82.16639008199915L609.2307692307693,59.47733551276959L612.6923076923077,107.62588298308368L616.1538461538462,94.3864405983884L619.6153846153846,70.61690141131052L623.0769230769231,97.61097678077677L626.5384615384615,114.14700772111081L630,66.7243209245646L633.4615384615385,62.229904926534104L636.9230769230769,44.52470399253825L640.3846153846154,72.70582277089544L643.8461538461538,140.69046835109174L647.3076923076923,66.46755122392136L650.7692307692307,86.67017525989051L654.2307692307692,61.39405763189379L657.6923076923076,109.73936088719982L661.1538461538462,77.16456960123456L664.6153846153846,99.5248309755898L668.0769230769231,85.15084612891515L671.5384615384615,103.2216287955817L675,75.49654446206169L678.4615384615385,74.48596526234215L681.9230769230769,65.53016479965024L685.3846153846154,71.60012982797794L688.8461538461538,134.59163504859814L692.3076923076924,100.18603605526883L695.7692307692308,93.88216535650602L699.2307692307693,48.30477982111439L702.6923076923077,143.27857535954806L706.1538461538462,109.0513351382917L709.6153846153846,82.529871545759L713.0769230769231,107.01861536092947L716.5384615384615,132.74293492744624L720,91.42118632737652L723.4615384615385,50.53264539003206L726.9230769230769,95.3252567816698L730.3846153846154,71.71484816607662L733.8461538461538,108.37586564730293L737.3076923076923,40.016523770702506L740.7692307692307,104.87036997908167L744.2307692307692,83.3715533415991L747.6923076923077,77.20566294221013L751.1538461538462,136.7702348854979L754.6153846153846,63.0537241221697L758.0769230769231,97.28870105679862L761.5384615384615,130.50098478720832L765,97.72003248172906L768.4615384615385,54.26763015561209L771.9230769230769,95.94724945651399L775.3846153846155,45.17449822251116L778.8461538461539,80.19838210755368L782.3076923076924,42.54785922477468L785.7692307692308,75.72301020705794L789.2307692307692,61.06488204884919L792.6923076923076,54.252631737385634L796.1538461538461,53.15977461975221L799.6153846153845,71.48598919853437L803.0769230769231,41.132366053335524L806.5384615384615,59.63152743299405L810,59.53052439619157L813.4615384615385,58.21919811274778L816.9230769230769,93.29281594568415L820.3846153846154,69.15975015854592L823.8461538461538,69.07542010571323L827.3076923076923,122.57422700879175L830.7692307692308,90.44469908034927L834.2307692307693,78.0911866775269L837.6923076923077,95.66368306525783L841.1538461538462,57.58069878259218L844.6153846153846,118.63414142794957L848.0769230769231,42.912680914476155L851.5384615384615,41.42011834319534L855,35.83882906780451L858.4615384615385,21.90524924660511L861.9230769230769,50.16240325495591L865.3846153846154,34.78239730056936L868.8461538461538,43.047337278106546L872.3076923076923,41.31883373525733L875.7692307692307,40.38027134956257L879.2307692307692,32.409213539654516L882.6923076923076,29.455971868712226L886.1538461538462,35.591945426721196" style="fill: none; stroke: #2ca02c; stroke-width: 2;"></path></g></g><path class="foreground" d="" style="display: none; fill: none;"></path></g><g transform="translate(0,0)"><path class="background" d="M0,0h900v600h-900Z" style="fill: none;"></path><g><g class="mark-line role-mark marks"><path d="M6.923076923076923,533.428108132122L10.384615384615385,500.0266862365735L13.846153846153847,466.5495268068638L17.30769230769231,433.184904820216L20.76923076923077,399.9688840486297L24.230769230769234,366.08968789681217L27.692307692307693,438.9813434339364L31.153846153846157,402.0562722909603L34.61538461538462,379.8735209219311L38.07692307692308,358.11492970974086L41.53846153846154,336.0246623605402L45,340.788790866632L48.46153846153847,310.482735778753L51.92307692307693,269.621006680336L55.38461538461539,244.60782497202192L58.84615384615385,312.07304241573985L62.307692307692314,294.93425111940087L65.76923076923077,275.5026953024728L69.23076923076924,261.21257383393305L72.6923076923077,258.85155262315453L76.15384615384616,227.25158311121675L79.61538461538461,210.48040862733117L83.07692307692308,168.34739608963352L86.53846153846155,259.5498871988938L90,249.2502343017807L93.46153846153847,226.66260252715585L96.92307692307693,218.60566686684496L100.38461538461539,244.73506366909265L103.84615384615385,187.13888442003164L107.3076923076923,219.5452810911285L110.76923076923077,185.45133570445753L114.23076923076923,246.64501970780185L117.6923076923077,220.55610280290145L121.15384615384615,210.09575811299533L124.61538461538463,276.00227938094906L128.07692307692307,279.05371044655544L131.53846153846155,193.27674558415163L135,258.11476348642765L138.46153846153848,129.9276267710224L141.9230769230769,231.8151081190737L145.3846153846154,216.74057243375958L148.84615384615384,188.75776576438162L152.30769230769232,198.50606339152932L155.76923076923077,191.66691973640255L159.23076923076923,164.43424746959386L162.69230769230768,260.31088835621415L166.15384615384616,144.76519972703173L169.6153846153846,206.14856841271936L173.0769230769231,203.81084854823547L176.53846153846155,160.23941509690124L180,152.60791366906477L183.46153846153845,143.91877282856547L186.92307692307693,135.5571498958397L190.3846153846154,126.93863673036583L193.84615384615387,108.54374184140269L197.3076923076923,228.96339329460352L200.76923076923077,190.58629701170312L204.23076923076923,143.12023807668933L207.6923076923077,135.03465822061835L211.15384615384616,127.1735320008621L214.6153846153846,119.487162177951L218.07692307692307,112.01696023582402L221.53846153846155,99.73158756137477L225,140.72203055692464L228.46153846153845,125.09957464898274L231.9230769230769,148.5383529667228L235.3846153846154,119.50978510446207L238.84615384615384,146.6983347778049L242.3076923076923,140.12874542675866L245.76923076923075,153.11818587505266L249.23076923076925,120.23107150453971L252.6923076923077,212.54315798503137L256.15384615384613,153.42680201645777L259.6153846153846,148.42769077008043L263.0769230769231,138.43704976511248L266.53846153846155,203.83879154287897L270,96.03857106606124L273.46153846153845,89.56313522376786L276.92307692307696,107.10931871444302L280.3846153846154,133.1869128804767L283.8461538461538,149.50472156195366L287.30769230769226,136.07572923227326L290.7692307692308,131.67669016422025L294.2307692307692,120.1943487721243L297.6923076923077,87.57458054699072L301.15384615384613,81.87237721304679L304.61538461538464,81.08905765611027L308.0769230769231,127.47840108115263L311.53846153846155,144.2271849034962L315,115.01154734411077L318.46153846153845,98.5575546697791L321.9230769230769,139.26802104535503L325.38461538461536,87.75439806829934L328.8461538461538,82.73681084281914L332.3076923076923,73.56565473794605L335.7692307692308,146.49995105268306L339.2307692307692,142.26628493008076L342.6923076923077,101.78942155040235L346.1538461538462,89.39600922670365L349.61538461538464,117.06058763081184L353.0769230769231,78.84352769172219L356.53846153846155,59.4054891787438L360,70.60397894549024L363.46153846153845,84.2182274247492L366.9230769230769,92.41819632881088L370.38461538461536,74.48463046334794L373.84615384615387,145.90501801048578L377.3076923076923,86.01854638746751L380.7692307692308,60.06458557588799L384.2307692307692,54.850939169395076L387.69230769230774,40.022648224541044L391.1538461538462,119.29914977787122L394.6153846153846,98.95917375780623L398.07692307692304,63.490607954169406L401.53846153846155,88.06273442605348L405,69.88119917078618L408.46153846153845,116.52634471731582L411.9230769230769,60.830805992096295L415.3846153846154,50.59583725687562L418.84615384615387,127.48597235164758L422.3076923076923,80.95495879429393L425.7692307692308,92.13649104550268L429.2307692307692,86.56294795428082L432.6923076923077,101.7436438100644L436.15384615384613,80.03321506756242L439.6153846153846,60.33916731017279L443.0769230769231,48.42872767043376L446.53846153846155,78.57034183008417L450,89.51859994114496L453.46153846153845,81.90581690703735L456.9230769230769,67.80015093679239L460.38461538461536,79.02708323084109L463.8461538461538,58.34231833696164L467.3076923076923,100.3965107057891L470.7692307692308,45.42781010897448L474.2307692307692,78.73020547175587L477.6923076923077,127.28668095501038L481.15384615384613,70.64047623664453L484.6153846153846,97.13248238086756L488.07692307692304,124.8120041393585L491.5384615384615,59.26997335980555L495.00000000000006,134.12101993831723L498.4615384615385,53.433964600217635L501.92307692307696,125.9854417597745L505.3846153846154,69.07120857916806L508.8461538461538,47.8698843339727L512.3076923076923,71.62517959901093L515.7692307692307,57.93508981206044L519.2307692307692,79.27574248463914L522.6923076923077,33.00937574387817L526.1538461538462,106.06596774677845L529.6153846153846,60.56008662519474L533.0769230769231,66.72678003229132L536.5384615384615,72.49899150532697L540,65.2923469853143L543.4615384615385,67.81138215895322L546.9230769230769,63.44554951013557L550.3846153846155,75.37065008578836L553.8461538461539,39.952088607443926L557.3076923076924,50.22356884450938L560.7692307692308,94.97784484664396L564.2307692307692,57.51584211872351L567.6923076923076,81.6033266374647L571.1538461538461,75.80794371875044L574.6153846153845,47.359983263255856L578.0769230769231,63.264917382261345L581.5384615384615,95.08239432032826L585,83.72569089048096L588.4615384615385,88.85850340698941L591.9230769230769,85.61663255359618L595.3846153846154,82.78406066435684L598.8461538461538,60.82096125818814L602.3076923076923,46.87130407888112L605.7692307692308,68.17620729483656L609.2307692307693,45.82505881604209L612.6923076923077,58.4641566881966L616.1538461538462,78.11443052288303L619.6153846153846,52.22444818200258L623.0769230769231,74.141677531508L626.5384615384615,103.47155621813069L630,56.867559920995014L633.4615384615385,70.52230218264388L636.9230769230769,32.936051212297016L640.3846153846154,59.294075020883795L643.8461538461538,117.84843636573761L647.3076923076923,53.32701141267737L650.7692307692307,73.20280037051768L654.2307692307692,58.343582828267834L657.6923076923076,94.27734894862925L661.1538461538462,64.52695014375934L664.6153846153846,94.79316085012445L668.0769230769231,69.11737122280373L671.5384615384615,77.39986166895191L675,63.81509756127733L678.4615384615385,57.862887606630295L681.9230769230769,51.67440629436242L685.3846153846154,57.04509801499573L688.8461538461538,115.25102415667857L692.3076923076924,76.49939480488487L695.7692307692308,65.53301617928365L699.2307692307693,34.86555197405852L702.6923076923077,116.24421856467744L706.1538461538462,85.40682936965291L709.6153846153846,53.645644113250526L713.0769230769231,79.38751891430762L716.5384615384615,106.70132667646406L720,75.29274406785491L723.4615384615385,33.57667797934414L726.9230769230769,75.3169041807732L730.3846153846154,55.76442431222737L733.8461538461538,76.87914015396888L737.3076923076923,22.869905898722177L740.7692307692307,75.13668718407207L744.2307692307692,62.06584796202805L747.6923076923077,57.26642049315469L751.1538461538462,131.43343297522355L754.6153846153846,56.34868077097337L758.0769230769231,87.18333763759543L761.5384615384615,125.06023038169141L765,64.87740225314789L768.4615384615385,47.85573566485712L771.9230769230769,91.76719928321366L775.3846153846155,34.930647457689815L778.8461538461539,65.60644858711426L782.3076923076924,23.907507792564473L785.7692307692308,96.7412221353424L789.2307692307692,46.40534068051765L792.6923076923076,45.19393347427685L796.1538461538461,44.82651146088128L799.6153846153845,54.36246632744688L803.0769230769231,32.70109277908715L806.5384615384615,47.32056681216572L810,49.757106388478924L813.4615384615385,49.10273618998451L816.9230769230769,84.31274027506743L820.3846153846154,57.175449902684306L823.8461538461538,60.82580258304802L827.3076923076923,116.97641485972099L830.7692307692308,84.8354105025894L834.2307692307693,69.4054873741417L837.6923076923077,87.38700845927589L841.1538461538462,48.05486031741444L844.6153846153846,116.20521190265399L848.0769230769231,26.817435776530417L851.5384615384615,25.044780175661806L855,21.543280732055248L858.4615384615385,15.710040013946823L861.9230769230769,36.35765257386871L865.3846153846154,21.662105050652137L868.8461538461538,32.13854208618605L872.3076923076923,26.39578780851828L875.7692307692307,26.770783034034864L879.2307692307692,25.59125282982513L882.6923076923076,24.349741753896147L886.1538461538462,11.309601708299732" style="fill: none; stroke: #98df8a; stroke-width: 2;"></path></g></g><path class="foreground" d="" style="display: none; fill: none;"></path></g><g transform="translate(0,0)"><path class="background" d="M0,0h900v600h-900Z" style="fill: none;"></path><g><g class="mark-line role-mark marks"><path d="M6.923076923076923,547.3115160465177L10.384615384615385,520.9672740697766L13.846153846153847,497.70894662741586L17.30769230769231,468.1130082731914L20.76923076923077,441.93454813955327L24.230769230769234,430.0758944120005L27.692307692307693,439.20595533498755L31.153846153846157,443.6471878427072L34.61538461538462,434.39441122622253L38.07692307692308,402.09746551248037L41.53846153846154,390.75247421060897L45,376.3167725065372L48.46153846153847,375.497305924823L51.92307692307693,325.3532743168197L55.38461538461539,322.68790811837164L58.84615384615385,380.24075161479743L62.307692307692314,369.14081074018696L65.76923076923077,366.1444637852919L69.23076923076924,340.9944980795183L72.6923076923077,366.13671904088164L76.15384615384616,321.0112821643439L79.61538461538461,315.2360097525034L83.07692307692308,302.2621506607271L86.53846153846155,348.53818886902775L90,335.9257622624835L93.46153846153847,314.59721937531367L96.92307692307693,314.65406102277603L100.38461538461539,329.2522660734204L103.84615384615385,311.3452522025864L107.3076923076923,319.0034006692129L110.76923076923077,306.64179470816356L114.23076923076923,330.56545559479105L117.6923076923077,316.00861851862214L121.15384615384615,312.71400366274173L124.61538461538463,346.53633659158515L128.07692307692307,332.82028680882803L131.53846153846155,284.8107280502613L135,305.9751528298166L138.46153846153848,257.5077232868932L141.9230769230769,306.211132363825L145.3846153846154,319.9667858110058L148.84615384615384,294.8917823082633L152.30769230769232,300.194188969426L155.76923076923077,259.6779633936338L159.23076923076923,283.19427394353005L162.69230769230768,264.0676495473491L166.15384615384616,311.0469208922979L169.6153846153846,290.50792491913785L173.0769230769231,297.8790622880788L176.53846153846155,280.1173510034269L180,276.06400348318283L183.46153846153845,262.79639040262697L186.92307692307693,253.5454120163069L190.3846153846154,250.42148899771686L193.84615384615387,237.56840781157996L197.3076923076923,317.36151888823645L200.76923076923077,286.89108622946054L204.23076923076923,260.26674000790223L207.6923076923077,274.3010357665715L211.15384615384616,250.25620454707627L214.6153846153846,260.09273889865176L218.07692307692307,248.82600763849698L221.53846153846155,260.0195674764931L225,266.8536174985979L228.46153846153845,233.79046225513613L231.9230769230769,254.49466002475955L235.3846153846154,247.30783201542374L238.84615384615384,265.4260862167967L242.3076923076923,254.52482816897657L245.76923076923075,256.48077412783294L249.23076923076925,244.16934703416155L252.6923076923077,293.98335977006434L256.15384615384613,258.93840270092323L259.6153846153846,308.3589910612212L263.0769230769231,269.4402209030708L266.53846153846155,256.0366425493936L270,252.04093636042813L273.46153846153845,236.1072393065598L276.92307692307696,258.594634563394L280.3846153846154,256.0254997118636L283.8461538461538,254.937690556107L287.30769230769226,256.7461095762983L290.7692307692308,245.52406657669806L294.2307692307692,252.9810959612653L297.6923076923077,232.94099295000586L301.15384615384613,219.03958289848248L304.61538461538464,248.57914728524705L308.0769230769231,248.80831317305012L311.53846153846155,241.94121527641929L315,257.41510626267996L318.46153846153845,229.8294373109464L321.9230769230769,252.32981746743206L325.38461538461536,228.19238615650184L328.8461538461538,227.3558365688884L332.3076923076923,229.77643846232382L335.7692307692308,290.37102811607735L339.2307692307692,273.4626992038673L342.6923076923077,272.82100995857934L346.1538461538462,280.7540285801156L349.61538461538464,244.50385951624526L353.0769230769231,247.88975994408926L356.53846153846155,249.65091935401506L360,245.0929345522795L363.46153846153845,238.89286527255956L366.9230769230769,224.53597952641567L370.38461538461536,217.41890243457044L373.84615384615387,252.179663527669L377.3076923076923,240.21653023501452L380.7692307692308,236.54337036961812L384.2307692307692,216.49271843231094L387.69230769230774,213.36825839520597L391.1538461538462,237.903211641652L394.6153846153846,237.51296284999697L398.07692307692304,230.86226159476382L401.53846153846155,235.29045551533198L405,228.3317299530304L408.46153846153845,227.80369363031923L411.9230769230769,220.39953227621928L415.3846153846154,209.76434948482745L418.84615384615387,229.93833933001633L422.3076923076923,234.40483345067838L425.7692307692308,243.1880047749147L429.2307692307692,239.35509845985592L432.6923076923077,219.73867291671678L436.15384615384613,238.2750036405495L439.6153846153846,215.34298245796631L443.0769230769231,217.34265734265736L446.53846153846155,226.8486191697588L450,234.71414331318687L453.46153846153845,236.86763686763683L456.9230769230769,225.1962023456101L460.38461538461536,225.3105503930962L463.8461538461538,208.31254793726328L467.3076923076923,219.59912517288737L470.7692307692308,221.5176974987023L474.2307692307692,224.14212579021296L477.6923076923077,243.73406709019537L481.15384615384613,237.71127070310055L484.6153846153846,249.78708229321808L488.07692307692304,246.78387961616806L491.5384615384615,228.05520024961638L495.00000000000006,225.2311631656314L498.4615384615385,220.17004058223736L501.92307692307696,234.70353764024242L505.3846153846154,231.15122720322523L508.8461538461538,200.26035416072494L512.3076923076923,222.7053741266822L515.7692307692307,212.0863721226429L519.2307692307692,214.84744305973354L522.6923076923077,201.10766735857655L526.1538461538462,210.33340156479466L529.6153846153846,228.7103421263262L533.0769230769231,220.9517745805219L536.5384615384615,225.93547884492605L540,235.14034711806298L543.4615384615385,224.02405686167305L546.9230769230769,214.0798767176063L550.3846153846155,208.63184594678543L553.8461538461539,207.6972063207777L557.3076923076924,225.00092330344023L560.7692307692308,230.79826291023014L564.2307692307692,223.44726323517415L567.6923076923076,217.2292560168756L571.1538461538461,217.09314302711772L574.6153846153845,211.0602000227862L578.0769230769231,235.54706646645556L581.5384615384615,214.75073641821095L585,223.15156878685283L588.4615384615385,215.3525213104652L591.9230769230769,211.899745194018L595.3846153846154,224.48717818996374L598.8461538461538,236.56859353128868L602.3076923076923,209.53106254570594L605.7692307692308,209.66790000973893L609.2307692307693,221.68025763776188L612.6923076923077,221.86640244355334L616.1538461538462,220.45545040249525L619.6153846153846,214.31808023673383L623.0769230769231,221.50162338889803L626.5384615384615,211.87901340043393L630,236.9388965789994L633.4615384615385,224.86285681288854L636.9230769230769,210.178974318432L640.3846153846154,224.7933787023557L643.8461538461538,226.932544826883L647.3076923076923,226.80397397164768L650.7692307692307,217.7658340740915L654.2307692307692,227.25379120262613L657.6923076923076,206.11221957272863L661.1538461538462,208.4935619839482L664.6153846153846,210.31165019018104L668.0769230769231,219.75485067941298L671.5384615384615,237.31664168227468L675,215.36663144211795L678.4615384615385,224.16120625622798L681.9230769230769,216.07915143952224L685.3846153846154,215.43507259086388L688.8461538461538,226.83042696766555L692.3076923076924,218.90855071301664L695.7692307692308,235.79674905317987L699.2307692307693,215.5021385009926L702.6923076923077,224.48308823681214L706.1538461538462,224.9984612922683L709.6153846153846,214.73944469534413L713.0769230769231,221.97148521036743L716.5384615384615,208.17922085527718L720,207.1208440593162L723.4615384615385,216.43468987299423L726.9230769230769,231.44414954191976L730.3846153846154,215.9375534126559L733.8461538461538,215.8787679130291L737.3076923076923,207.1900985208156L740.7692307692307,219.20917948941096L744.2307692307692,227.4386061731484L747.6923076923077,225.45505229426942L751.1538461538462,266.1755054884455L754.6153846153846,226.56827149506572L758.0769230769231,223.29709646346498L761.5384615384615,255.47220160070924L765,209.91476386819585L768.4615384615385,219.73845565224224L771.9230769230769,200.7457219779644L775.3846153846155,177.8254269291296L778.8461538461539,213.92029372916534L782.3076923076924,195.49828037857873L785.7692307692308,235.78444419016742L789.2307692307692,190.5848095122543L792.6923076923076,216.28448195612367L796.1538461538461,221.90884282764372L799.6153846153845,227.0061972863253L803.0769230769231,174.19769802269195L806.5384615384615,211.04551403228143L810,217.3525400046575L813.4615384615385,185.5670558649905L816.9230769230769,191.31193158053762L820.3846153846154,202.6090618516887L823.8461538461538,208.72524689015822L827.3076923076923,256.8014462341925L830.7692307692308,201.98338247118727L834.2307692307693,217.07514921580815L837.6923076923077,227.01167205737588L841.1538461538462,216.99688383491744L844.6153846153846,222.01300140078638L848.0769230769231,179.0100861138176L851.5384615384615,179.94853869117136L855,179.73863963795992L858.4615384615385,175.93839549994692L861.9230769230769,192.24394478631768L865.3846153846154,186.6412774702253L868.8461538461538,192.0639377213413L872.3076923076923,194.64988756752922L875.7692307692307,179.43264830411675L879.2307692307692,194.71525164794744L882.6923076923076,189.69135601933158L886.1538461538462,184.15849161533745" style="fill: none; stroke: #ffbb78; stroke-width: 2;"></path></g></g><path class="foreground" d="" style="display: none; fill: none;"></path></g></g><g class="mark-group role-legend"><g transform="translate(918,0)"><path class="background" d="M0,0h101v92h-101Z" style="pointer-events: none; fill: none;"></path><g><g class="mark-group role-legend-entry"><g transform="translate(0,16)"><path class="background" d="M0,0h0v0h0Z" style="pointer-events: none; fill: none;"></path><g><g class="mark-group role-scope"><g transform="translate(0,0)"><path class="background" d="M0,0h101v11h-101Z" style="pointer-events: none; fill: none; opacity: 1;"></path><g><g class="mark-symbol role-legend-symbol" style="pointer-events: none;"><path transform="translate(6,6)" d="M-5,0L5,0" style="fill: none; stroke: #1f77b4; stroke-width: 1.5; opacity: 1;"></path></g><g class="mark-text role-legend-label" style="pointer-events: none;"><text text-anchor="start" transform="translate(16,9)" style="font-family: sans-serif; font-size: 10px; fill: #000; opacity: 1;">Clang-Polly</text></g></g><path class="foreground" d="" style="pointer-events: none; display: none; fill: none;"></path></g><g transform="translate(0,13)"><path class="background" d="M0,0h101v11h-101Z" style="pointer-events: none; fill: none; opacity: 1;"></path><g><g class="mark-symbol role-legend-symbol" style="pointer-events: none;"><path transform="translate(6,6)" d="M-5,0L5,0" style="fill: none; stroke: #aec7e8; stroke-width: 1.5; opacity: 1;"></path></g><g class="mark-text role-legend-label" style="pointer-events: none;"><text text-anchor="start" transform="translate(16,9)" style="font-family: sans-serif; font-size: 10px; fill: #000; opacity: 1;">GFortran</text></g></g><path class="foreground" d="" style="pointer-events: none; display: none; fill: none;"></path></g><g transform="translate(0,26)"><path class="background" d="M0,0h101v11h-101Z" style="pointer-events: none; fill: none; opacity: 1;"></path><g><g class="mark-symbol role-legend-symbol" style="pointer-events: none;"><path transform="translate(6,6)" d="M-5,0L5,0" style="fill: none; stroke: #ff7f0e; stroke-width: 1.5; opacity: 1;"></path></g><g class="mark-text role-legend-label" style="pointer-events: none;"><text text-anchor="start" transform="translate(16,9)" style="font-family: sans-serif; font-size: 10px; fill: #000; opacity: 1;">Julia</text></g></g><path class="foreground" d="" style="pointer-events: none; display: none; fill: none;"></path></g><g transform="translate(0,39)"><path class="background" d="M0,0h101v11h-101Z" style="pointer-events: none; fill: none; opacity: 1;"></path><g><g class="mark-symbol role-legend-symbol" style="pointer-events: none;"><path transform="translate(6,6)" d="M-5,0L5,0" style="fill: none; stroke: #ffbb78; stroke-width: 1.5; opacity: 1;"></path></g><g class="mark-text role-legend-label" style="pointer-events: none;"><text text-anchor="start" transform="translate(16,9)" style="font-family: sans-serif; font-size: 10px; fill: #000; opacity: 1;">LoopVectorization</text></g></g><path class="foreground" d="" style="pointer-events: none; display: none; fill: none;"></path></g><g transform="translate(0,52)"><path class="background" d="M0,0h101v11h-101Z" style="pointer-events: none; fill: none; opacity: 1;"></path><g><g class="mark-symbol role-legend-symbol" style="pointer-events: none;"><path transform="translate(6,6)" d="M-5,0L5,0" style="fill: none; stroke: #2ca02c; stroke-width: 1.5; opacity: 1;"></path></g><g class="mark-text role-legend-label" style="pointer-events: none;"><text text-anchor="start" transform="translate(16,9)" style="font-family: sans-serif; font-size: 10px; fill: #000; opacity: 1;">icc</text></g></g><path class="foreground" d="" style="pointer-events: none; display: none; fill: none;"></path></g><g transform="translate(0,65)"><path class="background" d="M0,0h101v11h-101Z" style="pointer-events: none; fill: none; opacity: 1;"></path><g><g class="mark-symbol role-legend-symbol" style="pointer-events: none;"><path transform="translate(6,6)" d="M-5,0L5,0" style="fill: none; stroke: #98df8a; stroke-width: 1.5; opacity: 1;"></path></g><g class="mark-text role-legend-label" style="pointer-events: none;"><text text-anchor="start" transform="translate(16,9)" style="font-family: sans-serif; font-size: 10px; fill: #000; opacity: 1;">ifort</text></g></g><path class="foreground" d="" style="pointer-events: none; display: none; fill: none;"></path></g></g></g><path class="foreground" d="" style="pointer-events: none; display: none; fill: none;"></path></g></g><g class="mark-text role-legend-title" style="pointer-events: none;"><text text-anchor="start" transform="translate(0,9)" style="font-family: sans-serif; font-size: 11px; font-weight: bold; fill: #000; opacity: 1;">Method</text></g></g><path class="foreground" d="" style="pointer-events: none; display: none; fill: none;"></path></g></g></g><path class="foreground" d="" style="display: none; fill: none;"></path></g></g></g></svg>
